  0
SECTION
  2
HEADER
  9
$ACADVER
  1
AC1024
  9
$ACADMAINTVER
 70
6
  9
$DWGCODEPAGE
  3
ANSI_1252
  9
$LASTSAVEDBY
  1
ezdxf
  9
$INSBASE
 10
0.0
 20
0.0
 30
0.0
  9
$EXTMIN
 10
1e+20
 20
1e+20
 30
1e+20
  9
$EXTMAX
 10
-1e+20
 20
-1e+20
 30
-1e+20
  9
$LIMMIN
 10
0.0
 20
0.0
  9
$LIMMAX
 10
420.0
 20
297.0
  9
$ORTHOMODE
 70
0
  9
$REGENMODE
 70
1
  9
$FILLMODE
 70
1
  9
$QTEXTMODE
 70
0
  9
$MIRRTEXT
 70
1
  9
$LTSCALE
 40
1.0
  9
$ATTMODE
 70
1
  9
$TEXTSIZE
 40
2.5
  9
$TRACEWID
 40
1.0
  9
$TEXTSTYLE
  7
OpenSans
  9
$CLAYER
  8
0
  9
$CELTYPE
  6
ByLayer
  9
$CECOLOR
 62
256
  9
$CELTSCALE
 40
1.0
  9
$DISPSILH
 70
0
  9
$DIMSCALE
 40
1.0
  9
$DIMASZ
 40
0.175
  9
$DIMEXO
 40
0.125
  9
$DIMDLI
 40
3.75
  9
$DIMRND
 40
0.0
  9
$DIMDLE
 40
0.0
  9
$DIMEXE
 40
0.375
  9
$DIMTP
 40
0.0
  9
$DIMTM
 40
0.0
  9
$DIMTXT
 40
0.25
  9
$DIMCEN
 40
2.5
  9
$DIMTSZ
 40
0.0
  9
$DIMTOL
 70
0
  9
$DIMLIM
 70
0
  9
$DIMTIH
 70
0
  9
$DIMTOH
 70
0
  9
$DIMSE1
 70
0
  9
$DIMSE2
 70
0
  9
$DIMTAD
 70
1
  9
$DIMZIN
 70
12
  9
$DIMBLK
  1
ARCHTICK
  9
$DIMASO
 70
1
  9
$DIMSHO
 70
1
  9
$DIMPOST
  1

  9
$DIMAPOST
  1

  9
$DIMALT
 70
0
  9
$DIMALTD
 70
3
  9
$DIMALTF
 40
0.03937007874
  9
$DIMLFAC
 40
100.0
  9
$DIMTOFL
 70
1
  9
$DIMTVP
 40
0.0
  9
$DIMTIX
 70
0
  9
$DIMSOXD
 70
0
  9
$DIMSAH
 70
0
  9
$DIMBLK1
  1

  9
$DIMBLK2
  1

  9
$DIMSTYLE
  2
EZDXF
  9
$DIMCLRD
 70
0
  9
$DIMCLRE
 70
0
  9
$DIMCLRT
 70
0
  9
$DIMTFAC
 40
0.5
  9
$DIMGAP
 40
0.1
  9
$DIMJUST
 70
0
  9
$DIMSD1
 70
0
  9
$DIMSD2
 70
0
  9
$DIMTOLJ
 70
0
  9
$DIMTZIN
 70
8
  9
$DIMALTZ
 70
0
  9
$DIMALTTZ
 70
0
  9
$DIMUPT
 70
1
  9
$DIMDEC
 70
2
  9
$DIMTDEC
 70
2
  9
$DIMALTU
 70
2
  9
$DIMALTTD
 70
3
  9
$DIMTXSTY
  7
OpenSansCondensed-Light
  9
$DIMAUNIT
 70
0
  9
$DIMADEC
 70
2
  9
$DIMALTRND
 40
0.0
  9
$DIMAZIN
 70
3
  9
$DIMDSEP
 70
46
  9
$DIMATFIT
 70
3
  9
$DIMFRAC
 70
0
  9
$DIMLDRBLK
  1

  9
$DIMLUNIT
 70
2
  9
$DIMLWD
 70
-2
  9
$DIMLWE
 70
-2
  9
$DIMTMOVE
 70
2
  9
$DIMFXL
 40
1.0
  9
$DIMFXLON
 70
0
  9
$DIMJOGANG
 40
0.785398163397
  9
$DIMTFILL
 70
0
  9
$DIMTFILLCLR
 70
0
  9
$DIMARCSYM
 70
0
  9
$DIMLTYPE
  6

  9
$DIMLTEX1
  6

  9
$DIMLTEX2
  6

  9
$DIMTXTDIRECTION
 70
0
  9
$LUNITS
 70
2
  9
$LUPREC
 70
4
  9
$SKETCHINC
 40
1.0
  9
$FILLETRAD
 40
10.0
  9
$AUNITS
 70
0
  9
$AUPREC
 70
2
  9
$MENU
  1
.
  9
$ELEVATION
 40
0.0
  9
$PELEVATION
 40
0.0
  9
$THICKNESS
 40
0.0
  9
$LIMCHECK
 70
0
  9
$CHAMFERA
 40
0.0
  9
$CHAMFERB
 40
0.0
  9
$CHAMFERC
 40
0.0
  9
$CHAMFERD
 40
0.0
  9
$SKPOLY
 70
0
  9
$TDCREATE
 40
2461311.553275463
  9
$TDUCREATE
 40
2458532.153996898
  9
$TDUPDATE
 40
2461311.553310185
  9
$TDUUPDATE
 40
2458532.1544311
  9
$TDINDWG
 40
0.0
  9
$TDUSRTIMER
 40
0.0
  9
$USRTIMER
 70
1
  9
$ANGBASE
 50
0.0
  9
$ANGDIR
 70
0
  9
$PDMODE
 70
0
  9
$PDSIZE
 40
0.0
  9
$PLINEWID
 40
0.0
  9
$SPLFRAME
 70
0
  9
$SPLINETYPE
 70
6
  9
$SPLINESEGS
 70
8
  9
$HANDSEED
  5
185
  9
$SURFTAB1
 70
6
  9
$SURFTAB2
 70
6
  9
$SURFTYPE
 70
6
  9
$SURFU
 70
6
  9
$SURFV
 70
6
  9
$UCSBASE
  2

  9
$UCSNAME
  2

  9
$UCSORG
 10
0.0
 20
0.0
 30
0.0
  9
$UCSXDIR
 10
1.0
 20
0.0
 30
0.0
  9
$UCSYDIR
 10
0.0
 20
1.0
 30
0.0
  9
$UCSORTHOREF
  2

  9
$UCSORTHOVIEW
 70
0
  9
$UCSORGTOP
 10
0.0
 20
0.0
 30
0.0
  9
$UCSORGBOTTOM
 10
0.0
 20
0.0
 30
0.0
  9
$UCSORGLEFT
 10
0.0
 20
0.0
 30
0.0
  9
$UCSORGRIGHT
 10
0.0
 20
0.0
 30
0.0
  9
$UCSORGFRONT
 10
0.0
 20
0.0
 30
0.0
  9
$UCSORGBACK
 10
0.0
 20
0.0
 30
0.0
  9
$PUCSBASE
  2

  9
$PUCSNAME
  2

  9
$PUCSORG
 10
0.0
 20
0.0
 30
0.0
  9
$PUCSXDIR
 10
1.0
 20
0.0
 30
0.0
  9
$PUCSYDIR
 10
0.0
 20
1.0
 30
0.0
  9
$PUCSORTHOREF
  2

  9
$PUCSORTHOVIEW
 70
0
  9
$PUCSORGTOP
 10
0.0
 20
0.0
 30
0.0
  9
$PUCSORGBOTTOM
 10
0.0
 20
0.0
 30
0.0
  9
$PUCSORGLEFT
 10
0.0
 20
0.0
 30
0.0
  9
$PUCSORGRIGHT
 10
0.0
 20
0.0
 30
0.0
  9
$PUCSORGFRONT
 10
0.0
 20
0.0
 30
0.0
  9
$PUCSORGBACK
 10
0.0
 20
0.0
 30
0.0
  9
$USERI1
 70
0
  9
$USERI2
 70
0
  9
$USERI3
 70
0
  9
$USERI4
 70
0
  9
$USERI5
 70
0
  9
$USERR1
 40
0.0
  9
$USERR2
 40
0.0
  9
$USERR3
 40
0.0
  9
$USERR4
 40
0.0
  9
$USERR5
 40
0.0
  9
$WORLDVIEW
 70
1
  9
$SHADEDGE
 70
3
  9
$SHADEDIF
 70
70
  9
$TILEMODE
 70
1
  9
$MAXACTVP
 70
64
  9
$PINSBASE
 10
0.0
 20
0.0
 30
0.0
  9
$PLIMCHECK
 70
0
  9
$PEXTMIN
 10
1e+20
 20
1e+20
 30
1e+20
  9
$PEXTMAX
 10
-1e+20
 20
-1e+20
 30
-1e+20
  9
$PLIMMIN
 10
0.0
 20
0.0
  9
$PLIMMAX
 10
420.0
 20
297.0
  9
$UNITMODE
 70
0
  9
$VISRETAIN
 70
1
  9
$PLINEGEN
 70
0
  9
$PSLTSCALE
 70
1
  9
$TREEDEPTH
 70
3020
  9
$CMLSTYLE
  2
Standard
  9
$CMLJUST
 70
0
  9
$CMLSCALE
 40
20.0
  9
$PROXYGRAPHICS
 70
1
  9
$MEASUREMENT
 70
1
  9
$CELWEIGHT
370
-1
  9
$ENDCAPS
280
0
  9
$JOINSTYLE
280
0
  9
$LWDISPLAY
290
0
  9
$INSUNITS
 70
4
  9
$HYPERLINKBASE
  1

  9
$STYLESHEET
  1

  9
$XEDIT
290
1
  9
$CEPSNTYPE
380
0
  9
$PSTYLEMODE
290
1
  9
$FINGERPRINTGUID
  2
{190936F5-2EA2-4E8F-9B58-89149227E6E3}
  9
$VERSIONGUID
  2
{E84821ED-17AB-47C0-9FB5-692897CD24E1}
  9
$EXTNAMES
290
1
  9
$PSVPSCALE
 40
0.0
  9
$OLESTARTUP
290
0
  9
$SORTENTS
280
127
  9
$INDEXCTL
280
0
  9
$HIDETEXT
280
1
  9
$XCLIPFRAME
280
1
  9
$HALOGAP
280
0
  9
$OBSCOLOR
 70
257
  9
$OBSLTYPE
280
0
  9
$INTERSECTIONDISPLAY
280
0
  9
$INTERSECTIONCOLOR
 70
257
  9
$DIMASSOC
280
2
  9
$PROJECTNAME
  1

  9
$CAMERADISPLAY
290
0
  9
$LENSLENGTH
 40
50.0
  9
$CAMERAHEIGHT
 40
0.0
  9
$STEPSPERSEC
 40
24.0
  9
$STEPSIZE
 40
100.0
  9
$3DDWFPREC
 40
2.0
  9
$PSOLWIDTH
 40
0.005
  9
$PSOLHEIGHT
 40
0.08
  9
$LOFTANG1
 40
1.570796326795
  9
$LOFTANG2
 40
1.570796326795
  9
$LOFTMAG1
 40
0.0
  9
$LOFTMAG2
 40
0.0
  9
$LOFTPARAM
 70
7
  9
$LOFTNORMALS
280
1
  9
$LATITUDE
 40
37.795
  9
$LONGITUDE
 40
-122.394
  9
$NORTHDIRECTION
 40
0.0
  9
$TIMEZONE
 70
-8000
  9
$LIGHTGLYPHDISPLAY
280
1
  9
$TILEMODELIGHTSYNCH
280
1
  9
$CMATERIAL
347
20
  9
$SOLIDHIST
280
0
  9
$SHOWHIST
280
1
  9
$DWFFRAME
280
2
  9
$DGNFRAME
280
2
  9
$REALWORLDSCALE
290
1
  9
$INTERFERECOLOR
 62
256
  9
$CSHADOW
280
0
  9
$SHADOWPLANELOCATION
 40
0.0
  0
ENDSEC
  0
SECTION
  2
CLASSES
  0
CLASS
  1
ACDBDICTIONARYWDFLT
  2
AcDbDictionaryWithDefault
  3
ObjectDBX Classes
 90
0
 91
0
280
0
281
0
  0
CLASS
  1
SUN
  2
AcDbSun
  3
SCENEOE
 90
1153
 91
0
280
0
281
0
  0
CLASS
  1
VISUALSTYLE
  2
AcDbVisualStyle
  3
ObjectDBX Classes
 90
4095
 91
0
280
0
281
0
  0
CLASS
  1
MATERIAL
  2
AcDbMaterial
  3
ObjectDBX Classes
 90
1153
 91
0
280
0
281
0
  0
CLASS
  1
SCALE
  2
AcDbScale
  3
ObjectDBX Classes
 90
1153
 91
0
280
0
281
0
  0
CLASS
  1
TABLESTYLE
  2
AcDbTableStyle
  3
ObjectDBX Classes
 90
4095
 91
0
280
0
281
0
  0
CLASS
  1
MLEADERSTYLE
  2
AcDbMLeaderStyle
  3
ACDB_MLEADERSTYLE_CLASS
 90
4095
 91
0
280
0
281
0
  0
CLASS
  1
DICTIONARYVAR
  2
AcDbDictionaryVar
  3
ObjectDBX Classes
 90
0
 91
0
280
0
281
0
  0
CLASS
  1
CELLSTYLEMAP
  2
AcDbCellStyleMap
  3
ObjectDBX Classes
 90
1152
 91
0
280
0
281
0
  0
CLASS
  1
MENTALRAYRENDERSETTINGS
  2
AcDbMentalRayRenderSettings
  3
SCENEOE
 90
1024
 91
0
280
0
281
0
  0
CLASS
  1
ACDBDETAILVIEWSTYLE
  2
AcDbDetailViewStyle
  3
ObjectDBX Classes
 90
1025
 91
0
280
0
281
0
  0
CLASS
  1
ACDBSECTIONVIEWSTYLE
  2
AcDbSectionViewStyle
  3
ObjectDBX Classes
 90
1025
 91
0
280
0
281
0
  0
CLASS
  1
RASTERVARIABLES
  2
AcDbRasterVariables
  3
ISM
 90
0
 91
0
280
0
281
0
  0
CLASS
  1
ACDBPLACEHOLDER
  2
AcDbPlaceHolder
  3
ObjectDBX Classes
 90
0
 91
0
280
0
281
0
  0
CLASS
  1
LAYOUT
  2
AcDbLayout
  3
ObjectDBX Classes
 90
0
 91
0
280
0
281
0
  0
ENDSEC
  0
SECTION
  2
TABLES
  0
TABLE
  2
VPORT
  5
8
330
0
100
AcDbSymbolTable
 70
1
  0
VPORT
  5
23
330
8
100
AcDbSymbolTableRecord
100
AcDbViewportTableRecord
  2
*Active
 70
0
 10
0.0
 20
0.0
 11
1.0
 21
1.0
 12
0.0
 22
0.0
 13
0.0
 23
0.0
 14
0.5
 24
0.5
 15
0.5
 25
0.5
 16
0.0
 26
0.0
 36
1.0
 17
0.0
 27
0.0
 37
0.0
 40
1000.0
 41
1.34
 42
50.0
 43
0.0
 44
0.0
 50
0.0
 51
0.0
 71
0
 72
1000
 73
1
 74
3
 75
0
 76
0
 77
0
 78
0
281
0
 65
0
146
0.0
  0
ENDTAB
  0
TABLE
  2
LTYPE
  5
2
330
0
100
AcDbSymbolTable
 70
21
  0
LTYPE
  5
24
330
2
100
AcDbSymbolTableRecord
100
AcDbLinetypeTableRecord
  2
ByBlock
 70
0
  3

 72
65
 73
0
 40
0.0
  0
LTYPE
  5
25
330
2
100
AcDbSymbolTableRecord
100
AcDbLinetypeTableRecord
  2
ByLayer
 70
0
  3

 72
65
 73
0
 40
0.0
  0
LTYPE
  5
26
330
2
100
AcDbSymbolTableRecord
100
AcDbLinetypeTableRecord
  2
Continuous
 70
0
  3

 72
65
 73
0
 40
0.0
  0
LTYPE
  5
2F
330
2
100
AcDbSymbolTableRecord
100
AcDbLinetypeTableRecord
  2
CENTER
 70
0
  3
Center ____ _ ____ _ ____ _ ____ _ ____ _ ____
 72
65
 73
4
 40
5.08
 49
3.175
 74
0
 49
-0.635
 74
0
 49
0.635
 74
0
 49
-0.635
 74
0
  0
LTYPE
  5
30
330
2
100
AcDbSymbolTableRecord
100
AcDbLinetypeTableRecord
  2
CENTERX2
 70
0
  3
Center (2x) ________  __  ________  __  ________
 72
65
 73
4
 40
8.89
 49
6.35
 74
0
 49
-0.635
 74
0
 49
1.27
 74
0
 49
-0.635
 74
0
  0
LTYPE
  5
31
330
2
100
AcDbSymbolTableRecord
100
AcDbLinetypeTableRecord
  2
CENTER2
 70
0
  3
Center (.5x) ____ _ ____ _ ____ _ ____ _ ____
 72
65
 73
4
 40
2.54
 49
1.587
 74
0
 49
-0.318
 74
0
 49
0.318
 74
0
 49
-0.318
 74
0
  0
LTYPE
  5
32
330
2
100
AcDbSymbolTableRecord
100
AcDbLinetypeTableRecord
  2
DASHED
 70
0
  3
Dashed __ __ __ __ __ __ __ __ __ __ __ __ __ _
 72
65
 73
2
 40
1.524
 49
1.27
 74
0
 49
-0.254
 74
0
  0
LTYPE
  5
33
330
2
100
AcDbSymbolTableRecord
100
AcDbLinetypeTableRecord
  2
DASHEDX2
 70
0
  3
Dashed (2x) ____  ____  ____  ____  ____  ____
 72
65
 73
2
 40
3.048
 49
2.54
 74
0
 49
-0.508
 74
0
  0
LTYPE
  5
34
330
2
100
AcDbSymbolTableRecord
100
AcDbLinetypeTableRecord
  2
DASHED2
 70
0
  3
Dashed (.5x) _ _ _ _ _ _ _ _ _ _ _ _ _ _
 72
65
 73
2
 40
0.762
 49
0.635
 74
0
 49
-0.127
 74
0
  0
LTYPE
  5
35
330
2
100
AcDbSymbolTableRecord
100
AcDbLinetypeTableRecord
  2
PHANTOM
 70
0
  3
Phantom ______  __  __  ______  __  __  ______
 72
65
 73
6
 40
6.35
 49
3.175
 74
0
 49
-0.635
 74
0
 49
0.635
 74
0
 49
-0.635
 74
0
 49
0.635
 74
0
 49
-0.635
 74
0
  0
LTYPE
  5
36
330
2
100
AcDbSymbolTableRecord
100
AcDbLinetypeTableRecord
  2
PHANTOMX2
 70
0
  3
Phantom (2x)____________    ____    ____    ____________
 72
65
 73
6
 40
10.795
 49
6.35
 74
0
 49
-0.635
 74
0
 49
1.27
 74
0
 49
-0.635
 74
0
 49
1.27
 74
0
 49
-0.635
 74
0
  0
LTYPE
  5
37
330
2
100
AcDbSymbolTableRecord
100
AcDbLinetypeTableRecord
  2
PHANTOM2
 70
0
  3
Phantom (.5x) ___ _ _ ___ _ _ ___ _ _ ___ _ _ ___
 72
65
 73
6
 40
3.175
 49
1.587
 74
0
 49
-0.318
 74
0
 49
0.318
 74
0
 49
-0.318
 74
0
 49
0.318
 74
0
 49
-0.318
 74
0
  0
LTYPE
  5
38
330
2
100
AcDbSymbolTableRecord
100
AcDbLinetypeTableRecord
  2
DASHDOT
 70
0
  3
Dash dot __ . __ . __ . __ . __ . __ . __ . __
 72
65
 73
4
 40
3.556
 49
2.54
 74
0
 49
-0.508
 74
0
 49
0.0
 74
0
 49
-0.508
 74
0
  0
LTYPE
  5
39
330
2
100
AcDbSymbolTableRecord
100
AcDbLinetypeTableRecord
  2
DASHDOTX2
 70
0
  3
Dash dot (2x) ____  .  ____  .  ____  .  ____
 72
65
 73
4
 40
6.096
 49
5.08
 74
0
 49
-0.508
 74
0
 49
0.0
 74
0
 49
-0.508
 74
0
  0
LTYPE
  5
3A
330
2
100
AcDbSymbolTableRecord
100
AcDbLinetypeTableRecord
  2
DASHDOT2
 70
0
  3
Dash dot (.5x) _ . _ . _ . _ . _ . _ . _ . _
 72
65
 73
4
 40
1.778
 49
1.27
 74
0
 49
-0.254
 74
0
 49
0.0
 74
0
 49
-0.254
 74
0
  0
LTYPE
  5
3B
330
2
100
AcDbSymbolTableRecord
100
AcDbLinetypeTableRecord
  2
DOT
 70
0
  3
Dot .  .  .  .  .  .  .  .  .  .  .  .  .  .  .  .
 72
65
 73
2
 40
0.508
 49
0.0
 74
0
 49
-0.508
 74
0
  0
LTYPE
  5
3C
330
2
100
AcDbSymbolTableRecord
100
AcDbLinetypeTableRecord
  2
DOTX2
 70
0
  3
Dot (2x) .    .    .    .    .    .    .    . 
 72
65
 73
2
 40
1.016
 49
0.0
 74
0
 49
-1.016
 74
0
  0
LTYPE
  5
3D
330
2
100
AcDbSymbolTableRecord
100
AcDbLinetypeTableRecord
  2
DOT2
 70
0
  3
Dot (.5) . . . . . . . . . . . . . . . . . . . 
 72
65
 73
2
 40
0.254
 49
0.0
 74
0
 49
-0.254
 74
0
  0
LTYPE
  5
3E
330
2
100
AcDbSymbolTableRecord
100
AcDbLinetypeTableRecord
  2
DIVIDE
 70
0
  3
Divide __ . . __ . . __ . . __ . . __ . . __
 72
65
 73
6
 40
4.064
 49
2.54
 74
0
 49
-0.508
 74
0
 49
0.0
 74
0
 49
-0.508
 74
0
 49
0.0
 74
0
 49
-0.508
 74
0
  0
LTYPE
  5
3F
330
2
100
AcDbSymbolTableRecord
100
AcDbLinetypeTableRecord
  2
DIVIDEX2
 70
0
  3
Divide (2x) ____  . .  ____  . .  ____  . .  ____
 72
65
 73
6
 40
6.604
 49
5.08
 74
0
 49
-0.508
 74
0
 49
0.0
 74
0
 49
-0.508
 74
0
 49
0.0
 74
0
 49
-0.508
 74
0
  0
LTYPE
  5
40
330
2
100
AcDbSymbolTableRecord
100
AcDbLinetypeTableRecord
  2
DIVIDE2
 70
0
  3
Divide(.5x) _ . _ . _ . _ . _ . _ . _ . _
 72
65
 73
6
 40
2.032
 49
1.27
 74
0
 49
-0.254
 74
0
 49
0.0
 74
0
 49
-0.254
 74
0
 49
0.0
 74
0
 49
-0.254
 74
0
  0
ENDTAB
  0
TABLE
  2
LAYER
  5
1
330
0
100
AcDbSymbolTable
 70
6
  0
LAYER
  5
27
330
1
100
AcDbSymbolTableRecord
100
AcDbLayerTableRecord
  2
0
 70
0
 62
7
  6
Continuous
370
-3
390
13
347
21
  0
LAYER
  5
28
330
1
100
AcDbSymbolTableRecord
100
AcDbLayerTableRecord
  2
Defpoints
 70
0
 62
7
  6
Continuous
290
0
370
-3
390
13
347
21
  0
LAYER
  5
8A
330
1
100
AcDbSymbolTableRecord
100
AcDbLayerTableRecord
  2
CUT
 70
0
 62
1
  6
Continuous
370
-3
390
13
347
21
  0
LAYER
  5
8B
330
1
100
AcDbSymbolTableRecord
100
AcDbLayerTableRecord
  2
POCKET-KERF-15.5
 70
0
 62
5
  6
Continuous
370
-3
390
13
347
21
  0
LAYER
  5
8C
330
1
100
AcDbSymbolTableRecord
100
AcDbLayerTableRecord
  2
ENGRAVE-LABEL
 70
0
 62
3
  6
Continuous
370
-3
390
13
347
21
  0
LAYER
  5
8D
330
1
100
AcDbSymbolTableRecord
100
AcDbLayerTableRecord
  2
REFERENCE-SHEET
 70
0
 62
8
  6
Continuous
370
-3
390
13
347
21
  0
ENDTAB
  0
TABLE
  2
STYLE
  5
5
330
0
100
AcDbSymbolTable
 70
26
  0
STYLE
  5
29
330
5
100
AcDbSymbolTableRecord
100
AcDbTextStyleTableRecord
  2
Standard
 70
0
 40
0.0
 41
1.0
 50
0.0
 71
0
 42
2.5
  3
txt
  4

  0
STYLE
  5
41
330
5
100
AcDbSymbolTableRecord
100
AcDbTextStyleTableRecord
  2
OpenSans-Light
 70
0
 40
0.0
 41
1.0
 50
0.0
 71
0
 42
2.5
  3
OpenSans-Light.ttf
  4

  0
STYLE
  5
42
330
5
100
AcDbSymbolTableRecord
100
AcDbTextStyleTableRecord
  2
OpenSans-Light-Italic
 70
0
 40
0.0
 41
1.0
 50
0.0
 71
0
 42
2.5
  3
OpenSans-LightItalic.ttf
  4

  0
STYLE
  5
43
330
5
100
AcDbSymbolTableRecord
100
AcDbTextStyleTableRecord
  2
OpenSans
 70
0
 40
0.0
 41
1.0
 50
0.0
 71
0
 42
2.5
  3
OpenSans-Regular.ttf
  4

  0
STYLE
  5
44
330
5
100
AcDbSymbolTableRecord
100
AcDbTextStyleTableRecord
  2
OpenSans-Italic
 70
0
 40
0.0
 41
1.0
 50
0.0
 71
0
 42
2.5
  3
OpenSans-Italic.ttf
  4

  0
STYLE
  5
45
330
5
100
AcDbSymbolTableRecord
100
AcDbTextStyleTableRecord
  2
OpenSans-SemiBold
 70
0
 40
0.0
 41
1.0
 50
0.0
 71
0
 42
2.5
  3
OpenSans-SemiBold.ttf
  4

  0
STYLE
  5
46
330
5
100
AcDbSymbolTableRecord
100
AcDbTextStyleTableRecord
  2
OpenSans-SemiBoldItalic
 70
0
 40
0.0
 41
1.0
 50
0.0
 71
0
 42
2.5
  3
OpenSans-SemiBoldItalic.ttf
  4

  0
STYLE
  5
47
330
5
100
AcDbSymbolTableRecord
100
AcDbTextStyleTableRecord
  2
OpenSans-Bold
 70
0
 40
0.0
 41
1.0
 50
0.0
 71
0
 42
2.5
  3
OpenSans-Bold.ttf
  4

  0
STYLE
  5
48
330
5
100
AcDbSymbolTableRecord
100
AcDbTextStyleTableRecord
  2
OpenSans-BoldItalic
 70
0
 40
0.0
 41
1.0
 50
0.0
 71
0
 42
2.5
  3
OpenSans-BoldItalic.ttf
  4

  0
STYLE
  5
49
330
5
100
AcDbSymbolTableRecord
100
AcDbTextStyleTableRecord
  2
OpenSans-ExtraBold
 70
0
 40
0.0
 41
1.0
 50
0.0
 71
0
 42
2.5
  3
OpenSans-ExtraBold.ttf
  4

  0
STYLE
  5
4A
330
5
100
AcDbSymbolTableRecord
100
AcDbTextStyleTableRecord
  2
OpenSans-ExtraBoldItalic
 70
0
 40
0.0
 41
1.0
 50
0.0
 71
0
 42
2.5
  3
OpenSans-ExtraBoldItalic.ttf
  4

  0
STYLE
  5
4B
330
5
100
AcDbSymbolTableRecord
100
AcDbTextStyleTableRecord
  2
OpenSansCondensed-Bold
 70
0
 40
0.0
 41
1.0
 50
0.0
 71
0
 42
2.5
  3
OpenSansCondensed-Bold.ttf
  4

  0
STYLE
  5
4C
330
5
100
AcDbSymbolTableRecord
100
AcDbTextStyleTableRecord
  2
OpenSansCondensed-Light
 70
0
 40
0.0
 41
1.0
 50
0.0
 71
0
 42
2.5
  3
OpenSansCondensed-Light.ttf
  4

  0
STYLE
  5
4D
330
5
100
AcDbSymbolTableRecord
100
AcDbTextStyleTableRecord
  2
OpenSansCondensed-Italic
 70
0
 40
0.0
 41
1.0
 50
0.0
 71
0
 42
2.5
  3
OpenSansCondensed-LightItalic.ttf
  4

  0
STYLE
  5
4E
330
5
100
AcDbSymbolTableRecord
100
AcDbTextStyleTableRecord
  2
LiberationSans
 70
0
 40
0.0
 41
1.0
 50
0.0
 71
0
 42
2.5
  3
LiberationSans-Regular.ttf
  4

  0
STYLE
  5
4F
330
5
100
AcDbSymbolTableRecord
100
AcDbTextStyleTableRecord
  2
LiberationSans-Bold
 70
0
 40
0.0
 41
1.0
 50
0.0
 71
0
 42
2.5
  3
LiberationSans-Bold.ttf
  4

  0
STYLE
  5
50
330
5
100
AcDbSymbolTableRecord
100
AcDbTextStyleTableRecord
  2
LiberationSans-BoldItalic
 70
0
 40
0.0
 41
1.0
 50
0.0
 71
0
 42
2.5
  3
LiberationSans-BoldItalic.ttf
  4

  0
STYLE
  5
51
330
5
100
AcDbSymbolTableRecord
100
AcDbTextStyleTableRecord
  2
LiberationSans-Italic
 70
0
 40
0.0
 41
1.0
 50
0.0
 71
0
 42
2.5
  3
LiberationSans-Italic.ttf
  4

  0
STYLE
  5
52
330
5
100
AcDbSymbolTableRecord
100
AcDbTextStyleTableRecord
  2
LiberationSerif
 70
0
 40
0.0
 41
1.0
 50
0.0
 71
0
 42
2.5
  3
LiberationSerif-Regular.ttf
  4

  0
STYLE
  5
53
330
5
100
AcDbSymbolTableRecord
100
AcDbTextStyleTableRecord
  2
LiberationSerif-Bold
 70
0
 40
0.0
 41
1.0
 50
0.0
 71
0
 42
2.5
  3
LiberationSerif-Bold.ttf
  4

  0
STYLE
  5
54
330
5
100
AcDbSymbolTableRecord
100
AcDbTextStyleTableRecord
  2
LiberationSerif-BoldItalic
 70
0
 40
0.0
 41
1.0
 50
0.0
 71
0
 42
2.5
  3
LiberationSerif-BoldItalic.ttf
  4

  0
STYLE
  5
55
330
5
100
AcDbSymbolTableRecord
100
AcDbTextStyleTableRecord
  2
LiberationSerif-Italic
 70
0
 40
0.0
 41
1.0
 50
0.0
 71
0
 42
2.5
  3
LiberationSerif-Italic.ttf
  4

  0
STYLE
  5
56
330
5
100
AcDbSymbolTableRecord
100
AcDbTextStyleTableRecord
  2
LiberationMono
 70
0
 40
0.0
 41
1.0
 50
0.0
 71
0
 42
2.5
  3
LiberationMono-Regular.ttf
  4

  0
STYLE
  5
57
330
5
100
AcDbSymbolTableRecord
100
AcDbTextStyleTableRecord
  2
LiberationMono-Bold
 70
0
 40
0.0
 41
1.0
 50
0.0
 71
0
 42
2.5
  3
LiberationMono-Bold.ttf
  4

  0
STYLE
  5
58
330
5
100
AcDbSymbolTableRecord
100
AcDbTextStyleTableRecord
  2
LiberationMono-BoldItalic
 70
0
 40
0.0
 41
1.0
 50
0.0
 71
0
 42
2.5
  3
LiberationMono-BoldItalic.ttf
  4

  0
STYLE
  5
59
330
5
100
AcDbSymbolTableRecord
100
AcDbTextStyleTableRecord
  2
LiberationMono-Italic
 70
0
 40
0.0
 41
1.0
 50
0.0
 71
0
 42
2.5
  3
LiberationMono-Italic.ttf
  4

  0
ENDTAB
  0
TABLE
  2
VIEW
  5
7
330
0
100
AcDbSymbolTable
 70
0
  0
ENDTAB
  0
TABLE
  2
UCS
  5
6
330
0
100
AcDbSymbolTable
 70
0
  0
ENDTAB
  0
TABLE
  2
APPID
  5
3
330
0
100
AcDbSymbolTable
 70
3
  0
APPID
  5
2A
330
3
100
AcDbSymbolTableRecord
100
AcDbRegAppTableRecord
  2
ACAD
 70
0
  0
APPID
  5
182
330
3
100
AcDbSymbolTableRecord
100
AcDbRegAppTableRecord
  2
HATCHBACKGROUNDCOLOR
 70
0
  0
APPID
  5
183
330
3
100
AcDbSymbolTableRecord
100
AcDbRegAppTableRecord
  2
EZDXF
 70
0
  0
ENDTAB
  0
TABLE
  2
DIMSTYLE
  5
4
330
0
100
AcDbSymbolTable
 70
12
100
AcDbDimStyleTable
  0
DIMSTYLE
105
2B
330
4
100
AcDbSymbolTableRecord
100
AcDbDimStyleTableRecord
  2
Standard
 70
0
 40
1.0
 41
2.5
 42
0.625
 43
3.75
 44
1.25
 45
0.0
 46
0.0
 47
0.0
 48
0.0
 49
2.5
140
2.5
141
2.5
142
0.0
143
0.03937007874
144
1.0
145
0.0
146
1.0
147
0.625
148
0.0
 69
0
 70
0
 71
0
 72
0
 73
0
 74
0
 75
0
 76
0
 77
1
 78
8
 79
3
170
0
171
3
172
1
173
0
174
0
175
0
176
0
177
0
178
0
179
2
271
2
272
2
273
2
274
3
275
0
276
0
277
2
278
44
279
0
280
0
281
0
282
0
283
0
284
8
285
0
286
0
288
0
289
3
290
0
371
-2
372
-2
  0
DIMSTYLE
105
73
330
4
100
AcDbSymbolTableRecord
100
AcDbDimStyleTableRecord
  2
EZDXF
 70
0
 40
1.0
 41
0.175
 42
0.125
 43
3.75
 44
0.375
 45
0.0
 46
0.0
 47
0.0
 48
0.0
 49
2.5
140
0.25
141
2.5
142
0.0
143
0.03937007874
144
100.0
145
0.0
146
0.5
147
0.1
148
0.0
 69
0
 70
0
 71
0
 72
0
 73
0
 74
0
 75
0
 76
0
 77
1
 78
12
 79
3
170
0
171
3
172
1
173
0
174
0
175
0
176
0
177
0
178
0
179
2
271
2
272
2
273
2
274
3
275
0
276
0
277
2
278
46
279
2
280
0
281
0
282
0
283
0
284
8
285
0
286
0
288
1
289
3
290
0
340
4C
342
74
371
-2
372
-2
  0
DIMSTYLE
105
7C
330
4
100
AcDbSymbolTableRecord
100
AcDbDimStyleTableRecord
  2
EZ_M_100_H25_CM
 70
0
 40
1.0
 41
0.25
 42
0.125
 43
3.75
 44
0.375
 45
0.0
 46
0.0
 47
0.0
 48
0.0
 49
2.5
140
0.25
141
2.5
142
0.125
143
0.03937007874
144
100.0
145
0.0
146
0.5
147
0.1
148
0.0
 69
0
 70
0
 71
0
 72
0
 73
0
 74
0
 75
0
 76
0
 77
1
 78
12
 79
3
170
0
171
3
172
1
173
0
174
0
175
0
176
0
177
0
178
0
179
2
271
2
272
2
273
2
274
3
275
0
276
0
277
2
278
46
279
2
280
0
281
0
282
0
283
0
284
8
285
0
286
0
288
1
289
3
290
0
340
4C
371
-2
372
-2
  0
DIMSTYLE
105
7D
330
4
100
AcDbSymbolTableRecord
100
AcDbDimStyleTableRecord
  2
EZ_M_50_H25_CM
 70
0
 40
1.0
 41
0.125
 42
0.0625
 43
3.75
 44
0.1875
 45
0.0
 46
0.0
 47
0.0
 48
0.0
 49
2.5
140
0.125
141
2.5
142
0.0625
143
0.03937007874
144
100.0
145
0.0
146
0.5
147
0.05
148
0.0
 69
0
 70
0
 71
0
 72
0
 73
0
 74
0
 75
0
 76
0
 77
1
 78
12
 79
3
170
0
171
3
172
1
173
0
174
0
175
0
176
0
177
0
178
0
179
2
271
2
272
2
273
2
274
3
275
0
276
0
277
2
278
46
279
2
280
0
281
0
282
0
283
0
284
8
285
0
286
0
288
1
289
3
290
0
340
4C
371
-2
372
-2
  0
DIMSTYLE
105
7E
330
4
100
AcDbSymbolTableRecord
100
AcDbDimStyleTableRecord
  2
EZ_M_25_H25_CM
 70
0
 40
1.0
 41
0.0625
 42
0.03125
 43
3.75
 44
0.09375
 45
0.0
 46
0.0
 47
0.0
 48
0.0
 49
2.5
140
0.0625
141
2.5
142
0.03125
143
0.03937007874
144
100.0
145
0.0
146
0.5
147
0.025
148
0.0
 69
0
 70
0
 71
0
 72
0
 73
0
 74
0
 75
0
 76
0
 77
1
 78
12
 79
3
170
0
171
3
172
1
173
0
174
0
175
0
176
0
177
0
178
0
179
2
271
2
272
2
273
2
274
3
275
0
276
0
277
2
278
46
279
2
280
0
281
0
282
0
283
0
284
8
285
0
286
0
288
1
289
3
290
0
340
4C
371
-2
372
-2
  0
DIMSTYLE
105
7F
330
4
100
AcDbSymbolTableRecord
100
AcDbDimStyleTableRecord
  2
EZ_M_20_H25_CM
 70
0
 40
1.0
 41
0.05
 42
0.025
 43
3.75
 44
0.07500000000000001
 45
0.0
 46
0.0
 47
0.0
 48
0.0
 49
2.5
140
0.05
141
2.5
142
0.025
143
0.03937007874
144
100.0
145
0.0
146
0.5
147
0.020000000000000004
148
0.0
 69
0
 70
0
 71
0
 72
0
 73
0
 74
0
 75
0
 76
0
 77
1
 78
12
 79
3
170
0
171
3
172
1
173
0
174
0
175
0
176
0
177
0
178
0
179
2
271
2
272
2
273
2
274
3
275
0
276
0
277
2
278
46
279
2
280
0
281
0
282
0
283
0
284
8
285
0
286
0
288
1
289
3
290
0
340
4C
371
-2
372
-2
  0
DIMSTYLE
105
80
330
4
100
AcDbSymbolTableRecord
100
AcDbDimStyleTableRecord
  2
EZ_M_10_H25_CM
 70
0
 40
1.0
 41
0.025
 42
0.0125
 43
3.75
 44
0.037500000000000006
 45
0.0
 46
0.0
 47
0.0
 48
0.0
 49
2.5
140
0.025
141
2.5
142
0.0125
143
0.03937007874
144
100.0
145
0.0
146
0.5
147
0.010000000000000002
148
0.0
 69
0
 70
0
 71
0
 72
0
 73
0
 74
0
 75
0
 76
0
 77
1
 78
12
 79
3
170
0
171
3
172
1
173
0
174
0
175
0
176
0
177
0
178
0
179
2
271
2
272
2
273
2
274
3
275
0
276
0
277
2
278
46
279
2
280
0
281
0
282
0
283
0
284
8
285
0
286
0
288
1
289
3
290
0
340
4C
371
-2
372
-2
  0
DIMSTYLE
105
81
330
4
100
AcDbSymbolTableRecord
100
AcDbDimStyleTableRecord
  2
EZ_M_5_H25_CM
 70
0
 40
1.0
 41
0.0125
 42
0.00625
 43
3.75
 44
0.018750000000000003
 45
0.0
 46
0.0
 47
0.0
 48
0.0
 49
2.5
140
0.0125
141
2.5
142
0.00625
143
0.03937007874
144
100.0
145
0.0
146
0.5
147
0.005000000000000001
148
0.0
 69
0
 70
0
 71
0
 72
0
 73
0
 74
0
 75
0
 76
0
 77
1
 78
12
 79
3
170
0
171
3
172
1
173
0
174
0
175
0
176
0
177
0
178
0
179
2
271
2
272
2
273
2
274
3
275
0
276
0
277
2
278
46
279
2
280
0
281
0
282
0
283
0
284
8
285
0
286
0
288
1
289
3
290
0
340
4C
371
-2
372
-2
  0
DIMSTYLE
105
82
330
4
100
AcDbSymbolTableRecord
100
AcDbDimStyleTableRecord
  2
EZ_M_1_H25_CM
 70
0
 40
1.0
 41
0.0025
 42
0.00125
 43
3.75
 44
0.00375
 45
0.0
 46
0.0
 47
0.0
 48
0.0
 49
2.5
140
0.0025
141
2.5
142
0.00125
143
0.03937007874
144
100.0
145
0.0
146
0.5
147
0.001
148
0.0
 69
0
 70
0
 71
0
 72
0
 73
0
 74
0
 75
0
 76
0
 77
1
 78
12
 79
3
170
0
171
3
172
1
173
0
174
0
175
0
176
0
177
0
178
0
179
2
271
2
272
2
273
2
274
3
275
0
276
0
277
2
278
46
279
2
280
0
281
0
282
0
283
0
284
8
285
0
286
0
288
1
289
3
290
0
340
4C
371
-2
372
-2
  0
DIMSTYLE
105
83
330
4
100
AcDbSymbolTableRecord
100
AcDbDimStyleTableRecord
  2
EZ_RADIUS
 70
0
 40
1.0
 41
0.25
 42
0.125
 43
3.75
 44
0.375
 45
0.0
 46
0.0
 47
0.0
 48
0.0
 49
2.5
140
0.25
141
0.0
142
0.0
143
0.03937007874
144
100.0
145
0.0
146
0.5
147
0.1
148
0.0
 69
0
 70
0
 71
0
 72
0
 73
0
 74
0
 75
0
 76
0
 77
1
 78
12
 79
3
170
0
171
3
172
0
173
0
174
0
175
0
176
0
177
0
178
0
179
2
271
2
272
2
273
2
274
3
275
0
276
0
277
2
278
46
279
1
280
0
281
0
282
0
283
0
284
8
285
0
286
0
288
1
289
3
290
0
340
4C
342
84
371
-2
372
-2
  0
DIMSTYLE
105
88
330
4
100
AcDbSymbolTableRecord
100
AcDbDimStyleTableRecord
  2
EZ_RADIUS_INSIDE
 70
0
 40
1.0
 41
0.25
 42
0.125
 43
3.75
 44
0.375
 45
0.0
 46
0.0
 47
0.0
 48
0.0
 49
2.5
140
0.25
141
0.0
142
0.0
143
0.03937007874
144
100.0
145
0.0
146
0.5
147
0.1
148
0.0
 69
0
 70
0
 71
0
 72
0
 73
0
 74
0
 75
0
 76
0
 77
0
 78
12
 79
3
170
0
171
3
172
0
173
0
174
1
175
0
176
0
177
0
178
0
179
2
271
2
272
2
273
2
274
3
275
0
276
0
277
2
278
46
279
0
280
0
281
0
282
0
283
0
284
8
285
0
286
0
288
1
289
0
290
0
340
4C
342
84
371
-2
372
-2
  0
DIMSTYLE
105
89
330
4
100
AcDbSymbolTableRecord
100
AcDbDimStyleTableRecord
  2
EZ_CURVED
 70
0
 40
1.0
 41
0.25
 42
0.125
 43
3.75
 44
0.375
 45
0.0
 46
0.0
 47
0.0
 48
0.0
 49
2.5
140
0.25
141
2.5
142
0.0
143
0.03937007874
144
100.0
145
0.0
146
0.5
147
0.1
148
0.0
 69
0
 70
0
 71
0
 72
0
 73
0
 74
0
 75
0
 76
0
 77
1
 78
12
 79
2
 90
2
170
0
171
3
172
1
173
0
174
0
175
0
176
0
177
0
178
0
179
2
271
2
272
2
273
2
274
3
275
0
276
0
277
2
278
46
279
2
280
0
281
0
282
0
283
0
284
8
285
0
286
0
288
1
289
3
290
0
340
4C
371
-2
372
-2
  0
ENDTAB
  0
TABLE
  2
BLOCK_RECORD
  5
9
330
0
100
AcDbSymbolTable
 70
5
  0
BLOCK_RECORD
  5
17
330
9
100
AcDbSymbolTableRecord
100
AcDbBlockTableRecord
  2
*Model_Space
340
1A
 70
0
280
1
281
0
  0
BLOCK_RECORD
  5
1B
330
9
100
AcDbSymbolTableRecord
100
AcDbBlockTableRecord
  2
*Paper_Space
340
1E
 70
0
280
1
281
0
  0
BLOCK_RECORD
  5
74
330
9
100
AcDbSymbolTableRecord
100
AcDbBlockTableRecord
  2
_ARCHTICK
340
0
 70
0
280
1
281
0
  0
BLOCK_RECORD
  5
78
330
9
100
AcDbSymbolTableRecord
100
AcDbBlockTableRecord
  2
_CLOSEDFILLED
340
0
 70
0
280
1
281
0
  0
BLOCK_RECORD
  5
84
330
9
100
AcDbSymbolTableRecord
100
AcDbBlockTableRecord
  2
_CLOSEDBLANK
340
0
 70
0
280
1
281
0
  0
ENDTAB
  0
ENDSEC
  0
SECTION
  2
BLOCKS
  0
BLOCK
  5
18
330
17
100
AcDbEntity
  8
0
100
AcDbBlockBegin
  2
*Model_Space
 70
0
 10
0.0
 20
0.0
 30
0.0
  3
*Model_Space
  1

  0
ENDBLK
  5
19
330
17
100
AcDbEntity
  8
0
100
AcDbBlockEnd
  0
BLOCK
  5
1C
330
1B
100
AcDbEntity
  8
0
100
AcDbBlockBegin
  2
*Paper_Space
 70
0
 10
0.0
 20
0.0
 30
0.0
  3
*Paper_Space
  1

  0
ENDBLK
  5
1D
330
1B
100
AcDbEntity
  8
0
100
AcDbBlockEnd
  0
BLOCK
  5
75
330
74
100
AcDbEntity
  8
0
100
AcDbBlockBegin
  2
_ARCHTICK
 70
0
 10
0.0
 20
0.0
 30
0.0
  3
_ARCHTICK
  1

  0
LWPOLYLINE
  5
77
330
74
100
AcDbEntity
  8
0
  6
BYBLOCK
 62
0
100
AcDbPolyline
 90
2
 70
0
 43
0.15
 10
-0.5
 20
-0.5
 10
0.5
 20
0.5
  0
ENDBLK
  5
76
330
74
100
AcDbEntity
  8
0
100
AcDbBlockEnd
  0
BLOCK
  5
79
330
78
100
AcDbEntity
  8
0
100
AcDbBlockBegin
  2
_CLOSEDFILLED
 70
0
 10
0.0
 20
0.0
 30
0.0
  3
_CLOSEDFILLED
  1

  0
SOLID
  5
7B
330
78
100
AcDbEntity
  8
0
  6
BYBLOCK
 62
0
100
AcDbTrace
 10
-1.0
 20
0.16439898372402537
 30
0.0
 11
0.0
 21
0.0
 31
0.0
 12
-1.0
 22
-0.16439898372402537
 32
0.0
 13
-1.0
 23
-0.16439898372402537
 33
0.0
  0
ENDBLK
  5
7A
330
78
100
AcDbEntity
  8
0
100
AcDbBlockEnd
  0
BLOCK
  5
85
330
84
100
AcDbEntity
  8
0
100
AcDbBlockBegin
  2
_CLOSEDBLANK
 70
0
 10
0.0
 20
0.0
 30
0.0
  3
_CLOSEDBLANK
  1

  0
LWPOLYLINE
  5
87
330
84
100
AcDbEntity
  8
0
  6
BYBLOCK
 62
0
100
AcDbPolyline
 90
3
 70
1
 10
-1.0
 20
0.16439898372402537
 10
0.0
 20
0.0
 10
-1.0
 20
-0.16439898372402537
  0
ENDBLK
  5
86
330
84
100
AcDbEntity
  8
0
100
AcDbBlockEnd
  0
ENDSEC
  0
SECTION
  2
ENTITIES
  0
LWPOLYLINE
  5
8E
330
17
100
AcDbEntity
  8
REFERENCE-SHEET
100
AcDbPolyline
 90
4
 70
1
 10
0.0
 20
0.0
 10
2440.0
 20
0.0
 10
2440.0
 20
1220.0
 10
0.0
 20
1220.0
  0
TEXT
  5
8F
330
17
100
AcDbEntity
  8
REFERENCE-SHEET
100
AcDbText
 10
0.0
 20
1275.0
 30
0.0
 40
40.0
  1
18 mm BOARD - SHEET 1/1 - 2440 x 1220  (kerf side = BACK face, show face down)
 11
0.0
 21
1275.0
 31
0.0
100
AcDbText
  0
LWPOLYLINE
  5
90
330
17
100
AcDbEntity
  8
CUT
100
AcDbPolyline
 90
4
 70
1
 10
744.058667101659
 20
18.0
 10
887.5313378462984
 20
191.97081004984813
 42
0.3591568323270878
 10
18.0
 20
191.97081004984824
 10
161.47267074463923
 20
18.000000000000057
 42
-0.3591568323270878
  0
LWPOLYLINE
  5
91
330
17
100
AcDbEntity
  8
POCKET-KERF-15.5
100
AcDbPolyline
 90
4
 70
1
 10
737.412214386136
 20
24.02850103492012
 10
742.0904276383573
 20
20.27159795302652
 10
882.6612179525443
 20
195.31474380696983
 10
877.9830047003231
 20
199.07164688886343
  0
LWPOLYLINE
  5
92
330
17
100
AcDbEntity
  8
POCKET-KERF-15.5
100
AcDbPolyline
 90
4
 70
1
 10
727.968224295979
 20
31.313477464739428
 10
732.7426096093417
 20
27.679575308716714
 10
868.7111152805242
 20
206.32115911703846
 10
863.9367299671615
 20
209.95506127306118
  0
LWPOLYLINE
  5
93
330
17
100
AcDbEntity
  8
POCKET-KERF-15.5
100
AcDbPolyline
 90
4
 70
1
 10
718.3378739680633
 20
38.350251083921854
 10
723.2051982491067
 20
34.841810640767086
 10
854.4793448304821
 20
216.96086082314523
 10
849.6120205494386
 20
220.4693012663
  0
LWPOLYLINE
  5
94
330
17
100
AcDbEntity
  8
POCKET-KERF-15.5
100
AcDbPolyline
 90
4
 70
1
 10
708.5276848330288
 20
45.134056766638615
 10
713.4846520523648
 20
41.75345386383727
 10
839.9755439988489
 20
227.22664398732363
 10
835.018576779513
 20
230.60724689012508
  0
LWPOLYLINE
  5
95
330
17
100
AcDbEntity
  8
POCKET-KERF-15.5
100
AcDbPolyline
 90
4
 70
1
 10
698.5443001038257
 20
51.6603006905751
 10
703.5875535281261
 20
48.40982458725077
 10
825.2095343941761
 20
237.11155687982458
 10
820.1662809698757
 20
240.3620329831488
  0
LWPOLYLINE
  5
96
330
17
100
AcDbEntity
  8
POCKET-KERF-15.5
100
AcDbPolyline
 90
4
 70
1
 10
688.3944802770965
 20
57.924563447751225
 10
693.5206047421891
 20
54.80641528443711
 10
810.1913151861917
 20
246.60890568665204
 10
805.0651907210992
 20
249.72705384996615
  0
LWPOLYLINE
  5
97
330
17
100
AcDbEntity
  8
POCKET-KERF-15.5
100
AcDbPolyline
 90
4
 70
1
 10
678.0850985551399
 20
63.92260303723341
 10
683.2906227786713
 20
60.9388943453151
 10
794.9310563346132
 20
255.71225904244542
 10
789.7255321110817
 20
258.69596773436376
  0
LWPOLYLINE
  5
98
330
17
100
AcDbEntity
  8
POCKET-KERF-15.5
100
AcDbPolyline
 90
4
 70
1
 10
667.6231361915502
 20
69.65035773771076
 10
672.9045351236506
 20
66.80310900955062
 10
779.4390917023075
 20
264.4154523856389
 10
774.1576927702071
 20
267.26270111379904
  0
LWPOLYLINE
  5
99
330
17
100
AcDbEntity
  8
POCKET-KERF-15.5
100
AcDbPolyline
 90
4
 70
1
 10
657.0156777636885
 20
75.10394885799029
 10
662.369374974047
 20
72.3950881787009
 10
763.725912057459
 20
272.71259213294576
 10
758.3722148471006
 20
275.42145281223526
  0
LWPOLYLINE
  5
9A
330
17
100
AcDbEntity
  8
POCKET-KERF-15.5
100
AcDbPolyline
 90
4
 70
1
 10
646.2699063751853
 20
80.2796833635491
 10
651.6922764749181
 20
77.71104510534234
 10
747.8021579694864
 20
280.5980596703462
 10
742.3797878697536
 20
283.1666979285528
  0
LWPOLYLINE
  5
9B
330
17
100
AcDbEntity
  8
POCKET-KERF-15.5
100
AcDbPolyline
 90
4
 70
1
 10
635.3930987917237
 20
85.17405637736381
 10
640.8804698883965
 20
82.7473799573606
 10
731.6786126035162
 20
288.06651515786945
 10
726.1912415068433
 20
290.49319157787255
  0
LWPOLYLINE
  5
9C
330
17
100
AcDbEntity
  8
POCKET-KERF-15.5
100
AcDbPolyline
 90
4
 70
1
 10
624.392620513397
 20
89.78375355332588
 10
629.9412766975378
 20
87.50068225566639
 10
715.3661944182953
 20
295.11290114560035
 10
709.8175382341545
 20
297.39597244325984
  0
LWPOLYLINE
  5
9D
330
17
100
AcDbEntity
  8
POCKET-KERF-15.5
100
AcDbPolyline
 90
4
 70
1
 10
613.2759207869782
 20
94.10565332063231
 10
618.8821046483974
 20
91.9677331836856
 10
698.875949772486
 20
301.7324459984567
 10
693.2697659110667
 20
303.8703661354033
  0
LWPOLYLINE
  5
9E
330
17
100
AcDbEntity
  8
POCKET-KERF-15.5
100
AcDbPolyline
 90
4
 70
1
 10
602.0505275614762
 20
98.13682899763552
 10
607.7104427336907
 20
96.14550776706113
 10
682.21904544435
 20
307.9206671274195
 10
676.5591302721356
 20
309.9119883579939
  0
LWPOLYLINE
  5
9F
330
17
100
AcDbEntity
  8
POCKET-KERF-15.5
100
AcDbPolyline
 90
4
 70
1
 10
590.7240423904002
 20
101.87455077371807
 10
596.4338561214364
 20
100.03117692208913
 10
665.4067610698874
 20
313.67337402503034
 10
659.6969473388511
 20
315.5167478766593
  0
LWPOLYLINE
  5
A0
330
17
100
AcDbEntity
  8
POCKET-KERF-15.5
100
AcDbPolyline
 90
4
 70
1
 10
579.3041352841777
 20
105.31628755785165
 10
585.0599810320155
 20
103.62210937150327
 10
648.4504815045516
 20
318.986671103097
 10
642.6946357567139
 20
320.6808492894454
  0
LWPOLYLINE
  5
A1
330
17
100
AcDbEntity
  8
POCKET-KERF-15.5
100
AcDbPolyline
 90
4
 70
1
 10
567.7985395162177
 20
108.4597086925881
 10
573.5965195671142
 20
106.91587342630936
 10
631.3616891137116
 20
323.8569603306874
 10
625.5637090628151
 20
325.40079559696625
  0
LWPOLYLINE
  5
A2
330
17
100
AcDbEntity
  8
POCKET-KERF-15.5
100
AcDbPolyline
 90
4
 70
1
 10
556.215046386132
 20
111.30268553232241
 10
562.0512344940563
 20
109.9102386324642
 10
614.1519559970835
 20
328.28094367062636
 10
608.3157678891595
 20
329.67339057048457
  0
LWPOLYLINE
  5
A3
330
17
100
AcDbEntity
  8
POCKET-KERF-15.5
100
AcDbPolyline
 90
4
 70
1
 10
544.5614999436639
 20
113.84329288475713
 10
550.4319439890509
 20
112.60317728128244
 10
596.832936152397
 20
332.25562531284226
 10
590.9624921070101
 20
333.49574091631706
  0
LWPOLYLINE
  5
A4
330
17
100
AcDbEntity
  8
POCKET-KERF-15.5
100
AcDbPolyline
 90
4
 70
1
 10
532.845791676895
 20
116.07981031459477
 10
538.7465163429218
 20
114.9928657825499
 10
579.4163575835998
 20
335.778313703055
 10
573.515632917573
 20
336.86525823509976
  0
LWPOLYLINE
  5
A5
330
17
100
AcDbEntity
  8
POCKET-KERF-15.5
100
AcDbPolyline
 90
4
 70
1
 10
521.0758551683281
 20
118.01072330857268
 10
527.0028646328986
 20
117.07768589941317
 10
561.9140143589512
 20
338.8466233654279
 10
555.9870048943808
 20
339.7796607745875
  0
LWPOLYLINE
  5
A6
330
17
100
AcDbEntity
  8
POCKET-KERF-15.5
100
AcDbPolyline
 90
4
 70
1
 10
509.25966072246587
 20
119.63472430105402
 10
515.2089413640804
 20
118.8562258442088
 10
544.3377586243739
 20
341.45847651795293
 10
538.3884779827594
 20
342.23697497479816
  0
LWPOLYLINE
  5
A7
330
17
100
AcDbEntity
  8
POCKET-KERF-15.5
100
AcDbPolyline
 90
4
 70
1
 10
497.4052099685203
 20
120.95071355947736
 10
503.37273308419907
 20
120.32728123448992
 10
526.6994925774808
 20
343.6121044794713
 10
520.731969461802
 20
344.2355368044589
  0
LWPOLYLINE
  5
A8
330
17
100
AcDbEntity
  8
POCKET-KERF-15.5
100
AcDbPolyline
 90
4
 70
1
 10
485.5205304419116
 20
121.95779992906864
 10
491.502254975331
 20
121.48985590860423
 10
509.01116040770603
 20
345.3060488673806
 10
503.0294358742866
 20
345.7739928878449
  0
LWPOLYLINE
  5
A9
330
17
100
AcDbEntity
  8
POCKET-KERF-15.5
100
AcDbPolyline
 90
4
 70
1
 10
473.61367014822355
 20
122.65530143630814
 10
479.6055454262176
 20
122.34316260026934
 10
491.28474020800104
 20
346.5391625852138
 10
485.292864930007
 20
346.85130142125246
  0
LWPOLYLINE
  5
AA
330
17
100
AcDbEntity
  8
POCKET-KERF-15.5
100
AcDbPolyline
 90
4
 70
1
 10
461.69269211329635
 20
123.0427457507464
 10
467.69066058887057
 20
122.8866234716898
 10
473.53223586357154
 20
347.3106105994255
 10
467.5342673879973
 20
347.466732878482
  0
LWPOLYLINE
  5
AB
330
17
100
AcDbEntity
  8
POCKET-KERF-15.5
100
AcDbPolyline
 90
4
 70
1
 10
449.76566892314906
 20
123.1198705048538
 10
455.76566892314906
 20
123.1198705048538
 10
455.7656689231491
 20
347.61987050485385
 10
449.7656689231491
 20
347.61987050485385
  0
LWPOLYLINE
  5
AC
330
17
100
AcDbEntity
  8
POCKET-KERF-15.5
100
AcDbPolyline
 90
4
 70
1
 10
437.84067725742767
 20
122.8866234716898
 10
443.8386457330019
 20
123.0427457507464
 10
437.99707045830104
 20
347.466732878482
 10
431.9991019827268
 20
347.3106105994255
  0
LWPOLYLINE
  5
AD
330
17
100
AcDbEntity
  8
POCKET-KERF-15.5
100
AcDbPolyline
 90
4
 70
1
 10
425.9257924200806
 20
122.3431626002694
 10
431.91766769807464
 20
122.65530143630819
 10
420.23847291629124
 20
346.8513014212526
 10
414.2465976382972
 20
346.5391625852139
  0
LWPOLYLINE
  5
AE
330
17
100
AcDbEntity
  8
POCKET-KERF-15.5
100
AcDbPolyline
 90
4
 70
1
 10
414.0290828709671
 20
121.48985590860417
 10
420.01080740438647
 20
121.95779992906859
 10
402.50190197201147
 20
345.77399288784477
 10
396.52017743859204
 20
345.30604886738047
  0
LWPOLYLINE
  5
AF
330
17
100
AcDbEntity
  8
POCKET-KERF-15.5
100
AcDbPolyline
 90
4
 70
1
 10
402.1586047620991
 20
120.32728123448992
 10
408.1261278777779
 20
120.95071355947736
 10
384.7993683844963
 20
344.2355368044589
 10
378.83184526881746
 20
343.6121044794713
  0
LWPOLYLINE
  5
B0
330
17
100
AcDbEntity
  8
POCKET-KERF-15.5
100
AcDbPolyline
 90
4
 70
1
 10
390.32239648221764
 20
118.8562258442088
 10
396.2716771238322
 20
119.63472430105402
 10
367.1428598635387
 20
342.23697497479816
 10
361.19357922192415
 20
341.45847651795293
  0
LWPOLYLINE
  5
B1
330
17
100
AcDbEntity
  8
POCKET-KERF-15.5
100
AcDbPolyline
 90
4
 70
1
 10
378.5284732133995
 20
117.07768589941323
 10
384.45548267797
 20
118.01072330857274
 10
349.5443329519175
 20
339.7796607745876
 10
343.61732348734694
 20
338.846623365428
  0
LWPOLYLINE
  5
B2
330
17
100
AcDbEntity
  8
POCKET-KERF-15.5
100
AcDbPolyline
 90
4
 70
1
 10
366.78482150337635
 20
114.9928657825499
 10
372.68554616940327
 20
116.07981031459477
 10
332.01570492872514
 20
336.86525823509976
 10
326.1149802626982
 20
335.778313703055
  0
LWPOLYLINE
  5
B3
330
17
100
AcDbEntity
  8
POCKET-KERF-15.5
100
AcDbPolyline
 90
4
 70
1
 10
355.0993938572473
 20
112.60317728128244
 10
360.9698379026342
 20
113.84329288475713
 10
314.5688457392882
 20
333.49574091631706
 10
308.6984016939013
 20
332.25562531284226
  0
LWPOLYLINE
  5
B4
330
17
100
AcDbEntity
  8
POCKET-KERF-15.5
100
AcDbPolyline
 90
4
 70
1
 10
343.48010335224194
 20
109.9102386324642
 10
349.3162914601661
 20
111.30268553232241
 10
297.21556995713877
 20
329.67339057048457
 10
291.3793818492146
 20
328.28094367062636
  0
LWPOLYLINE
  5
B5
330
17
100
AcDbEntity
  8
POCKET-KERF-15.5
100
AcDbPolyline
 90
4
 70
1
 10
331.9348182791839
 20
106.91587342630942
 10
337.7327983300804
 20
108.45970869258815
 10
279.96762878348324
 20
325.40079559696625
 10
274.1696487325867
 20
323.8569603306874
  0
LWPOLYLINE
  5
B6
330
17
100
AcDbEntity
  8
POCKET-KERF-15.5
100
AcDbPolyline
 90
4
 70
1
 10
320.4713568142828
 20
103.62210937150327
 10
326.22720256212045
 20
105.31628755785165
 10
262.8367020895844
 20
320.6808492894454
 10
257.08085634174665
 20
318.986671103097
  0
LWPOLYLINE
  5
B7
330
17
100
AcDbEntity
  8
POCKET-KERF-15.5
100
AcDbPolyline
 90
4
 70
1
 10
309.0974817248617
 20
100.03117692208913
 10
314.80729545589804
 20
101.87455077371807
 10
245.83439050744704
 20
315.5167478766593
 10
240.12457677641078
 20
313.67337402503034
  0
LWPOLYLINE
  5
B8
330
17
100
AcDbEntity
  8
POCKET-KERF-15.5
100
AcDbPolyline
 90
4
 70
1
 10
297.8208951126075
 20
96.14550776706119
 10
303.480810284822
 20
98.13682899763558
 10
228.9722075741627
 20
309.9119883579939
 10
223.3122924019482
 20
307.9206671274195
  0
LWPOLYLINE
  5
B9
330
17
100
AcDbEntity
  8
POCKET-KERF-15.5
100
AcDbPolyline
 90
4
 70
1
 10
286.64923319790086
 20
91.96773318368565
 10
292.2554170593201
 20
94.10565332063237
 10
212.2615719352315
 20
303.8703661354033
 10
206.65538807381225
 20
301.7324459984567
  0
LWPOLYLINE
  5
BA
330
17
100
AcDbEntity
  8
POCKET-KERF-15.5
100
AcDbPolyline
 90
4
 70
1
 10
275.59006114876036
 20
87.50068225566639
 10
281.13871733290114
 20
89.78375355332588
 10
195.71379961214373
 20
297.39597244325984
 10
190.16514342800295
 20
295.11290114560035
  0
LWPOLYLINE
  5
BB
330
17
100
AcDbEntity
  8
POCKET-KERF-15.5
100
AcDbPolyline
 90
4
 70
1
 10
264.6508679579017
 20
82.74737995736065
 10
270.13823905457457
 20
85.17405637736387
 10
179.34009633945487
 20
290.49319157787255
 10
173.85272524278201
 20
288.06651515786945
  0
LWPOLYLINE
  5
BC
330
17
100
AcDbEntity
  8
POCKET-KERF-15.5
100
AcDbPolyline
 90
4
 70
1
 10
253.83906137138015
 20
77.7110451053424
 10
259.26143147111304
 20
80.27968336354915
 10
163.15154997654471
 20
283.1666979285528
 10
157.7291798768119
 20
280.5980596703462
  0
LWPOLYLINE
  5
BD
330
17
100
AcDbEntity
  8
POCKET-KERF-15.5
100
AcDbPolyline
 90
4
 70
1
 10
243.16196287225117
 20
72.39508817870096
 10
248.51566008260963
 20
75.10394885799035
 10
147.15912299919756
 20
275.4214528122354
 10
141.80542578883916
 20
272.7125921329459
  0
LWPOLYLINE
  5
BE
330
17
100
AcDbEntity
  8
POCKET-KERF-15.5
100
AcDbPolyline
 90
4
 70
1
 10
232.62680272264745
 20
66.80310900955062
 10
237.90820165474778
 20
69.65035773771076
 10
131.37364507609104
 20
267.2627011137989
 10
126.09224614399065
 20
264.4154523856388
  0
LWPOLYLINE
  5
BF
330
17
100
AcDbEntity
  8
POCKET-KERF-15.5
100
AcDbPolyline
 90
4
 70
1
 10
222.24071506762692
 20
60.938894345315155
 10
227.44623929115824
 20
63.922603037233465
 10
115.8058057352164
 20
258.6959677343639
 10
110.60028151168503
 20
255.71225904244554
  0
LWPOLYLINE
  5
C0
330
17
100
AcDbEntity
  8
POCKET-KERF-15.5
100
AcDbPolyline
 90
4
 70
1
 10
212.0107331041092
 20
54.806415284437165
 10
217.13685756920177
 20
57.92456344775128
 10
100.46614712519927
 20
249.72705384996618
 10
95.34002266010664
 20
246.60890568665207
  0
LWPOLYLINE
  5
C1
330
17
100
AcDbEntity
  8
POCKET-KERF-15.5
100
AcDbPolyline
 90
4
 70
1
 10
201.94378431817202
 20
48.40982458725071
 10
206.98703774247244
 20
51.66030069057504
 10
85.36505687642224
 20
240.36203298314868
 10
80.32180345212188
 20
237.11155687982446
  0
LWPOLYLINE
  5
C2
330
17
100
AcDbEntity
  8
POCKET-KERF-15.5
100
AcDbPolyline
 90
4
 70
1
 10
192.04668579393325
 20
41.75345386383727
 10
197.00365301326923
 20
45.134056766638615
 10
70.51276106678523
 20
230.60724689012508
 10
65.55579384744925
 20
227.22664398732363
  0
LWPOLYLINE
  5
C3
330
17
100
AcDbEntity
  8
POCKET-KERF-15.5
100
AcDbPolyline
 90
4
 70
1
 10
182.32613959719143
 20
34.84181064076714
 10
187.1934638782349
 20
38.35025108392191
 10
55.91931729685949
 20
220.4693012663001
 10
51.051993015816024
 20
216.96086082314534
  0
LWPOLYLINE
  5
C4
330
17
100
AcDbEntity
  8
POCKET-KERF-15.5
100
AcDbPolyline
 90
4
 70
1
 10
172.78872823695662
 20
27.67957530871688
 10
177.56311355031931
 20
31.313477464739595
 10
41.594607879136916
 20
209.9550612730614
 10
36.820222565774216
 20
206.3211591170387
  0
LWPOLYLINE
  5
C5
330
17
100
AcDbEntity
  8
POCKET-KERF-15.5
100
AcDbPolyline
 90
4
 70
1
 10
163.44091020794085
 20
20.271597953026465
 10
168.11912346016206
 20
24.028501034920062
 10
27.548333145974972
 20
199.0716468888633
 10
22.87011989375376
 20
195.31474380696972
  0
TEXT
  5
C6
330
17
100
AcDbEntity
  8
REFERENCE-SHEET
100
AcDbText
 10
452.7656689231492
 20
183.05993525242687
 30
0.0
 40
25.0
  1
01 SHELL-LOW  (mark by hand)
 72
1
 11
452.7656689231492
 21
183.05993525242687
 31
0.0
100
AcDbText
 73
2
  0
LWPOLYLINE
  5
C7
330
17
100
AcDbEntity
  8
CUT
100
AcDbPolyline
 90
4
 70
1
 10
744.058667101659
 20
302.0
 10
887.5313378462984
 20
475.9708100498481
 42
0.3591568323270878
 10
18.0
 20
475.97081004984824
 10
161.47267074463923
 20
302.00000000000006
 42
-0.3591568323270878
  0
LWPOLYLINE
  5
C8
330
17
100
AcDbEntity
  8
POCKET-KERF-15.5
100
AcDbPolyline
 90
4
 70
1
 10
737.412214386136
 20
308.0285010349201
 10
742.0904276383573
 20
304.2715979530265
 10
882.6612179525443
 20
479.31474380696983
 10
877.9830047003231
 20
483.0716468888634
  0
LWPOLYLINE
  5
C9
330
17
100
AcDbEntity
  8
POCKET-KERF-15.5
100
AcDbPolyline
 90
4
 70
1
 10
727.968224295979
 20
315.31347746473944
 10
732.7426096093417
 20
311.6795753087167
 10
868.7111152805242
 20
490.32115911703846
 10
863.9367299671615
 20
493.9550612730612
  0
LWPOLYLINE
  5
CA
330
17
100
AcDbEntity
  8
POCKET-KERF-15.5
100
AcDbPolyline
 90
4
 70
1
 10
718.3378739680633
 20
322.3502510839219
 10
723.2051982491067
 20
318.8418106407671
 10
854.4793448304821
 20
500.9608608231452
 10
849.6120205494386
 20
504.46930126629996
  0
LWPOLYLINE
  5
CB
330
17
100
AcDbEntity
  8
POCKET-KERF-15.5
100
AcDbPolyline
 90
4
 70
1
 10
708.5276848330288
 20
329.1340567666386
 10
713.4846520523648
 20
325.75345386383725
 10
839.9755439988489
 20
511.22664398732365
 10
835.018576779513
 20
514.6072468901251
  0
LWPOLYLINE
  5
CC
330
17
100
AcDbEntity
  8
POCKET-KERF-15.5
100
AcDbPolyline
 90
4
 70
1
 10
698.5443001038257
 20
335.6603006905751
 10
703.5875535281261
 20
332.4098245872508
 10
825.2095343941761
 20
521.1115568798245
 10
820.1662809698757
 20
524.3620329831488
  0
LWPOLYLINE
  5
CD
330
17
100
AcDbEntity
  8
POCKET-KERF-15.5
100
AcDbPolyline
 90
4
 70
1
 10
688.3944802770965
 20
341.9245634477512
 10
693.5206047421891
 20
338.8064152844371
 10
810.1913151861917
 20
530.6089056866521
 10
805.0651907210992
 20
533.7270538499662
  0
LWPOLYLINE
  5
CE
330
17
100
AcDbEntity
  8
POCKET-KERF-15.5
100
AcDbPolyline
 90
4
 70
1
 10
678.0850985551399
 20
347.9226030372334
 10
683.2906227786713
 20
344.9388943453151
 10
794.9310563346132
 20
539.7122590424455
 10
789.7255321110817
 20
542.6959677343638
  0
LWPOLYLINE
  5
CF
330
17
100
AcDbEntity
  8
POCKET-KERF-15.5
100
AcDbPolyline
 90
4
 70
1
 10
667.6231361915502
 20
353.65035773771075
 10
672.9045351236506
 20
350.8031090095506
 10
779.4390917023075
 20
548.4154523856389
 10
774.1576927702071
 20
551.262701113799
  0
LWPOLYLINE
  5
D0
330
17
100
AcDbEntity
  8
POCKET-KERF-15.5
100
AcDbPolyline
 90
4
 70
1
 10
657.0156777636885
 20
359.1039488579903
 10
662.369374974047
 20
356.3950881787009
 10
763.725912057459
 20
556.7125921329457
 10
758.3722148471006
 20
559.4214528122352
  0
LWPOLYLINE
  5
D1
330
17
100
AcDbEntity
  8
POCKET-KERF-15.5
100
AcDbPolyline
 90
4
 70
1
 10
646.2699063751853
 20
364.2796833635491
 10
651.6922764749181
 20
361.71104510534235
 10
747.8021579694864
 20
564.5980596703463
 10
742.3797878697536
 20
567.1666979285529
  0
LWPOLYLINE
  5
D2
330
17
100
AcDbEntity
  8
POCKET-KERF-15.5
100
AcDbPolyline
 90
4
 70
1
 10
635.3930987917237
 20
369.1740563773638
 10
640.8804698883965
 20
366.7473799573606
 10
731.6786126035162
 20
572.0665151578695
 10
726.1912415068433
 20
574.4931915778726
  0
LWPOLYLINE
  5
D3
330
17
100
AcDbEntity
  8
POCKET-KERF-15.5
100
AcDbPolyline
 90
4
 70
1
 10
624.392620513397
 20
373.7837535533259
 10
629.9412766975378
 20
371.5006822556664
 10
715.3661944182953
 20
579.1129011456003
 10
709.8175382341545
 20
581.3959724432598
  0
LWPOLYLINE
  5
D4
330
17
100
AcDbEntity
  8
POCKET-KERF-15.5
100
AcDbPolyline
 90
4
 70
1
 10
613.2759207869782
 20
378.1056533206323
 10
618.8821046483974
 20
375.9677331836856
 10
698.875949772486
 20
585.7324459984567
 10
693.2697659110667
 20
587.8703661354033
  0
LWPOLYLINE
  5
D5
330
17
100
AcDbEntity
  8
POCKET-KERF-15.5
100
AcDbPolyline
 90
4
 70
1
 10
602.0505275614762
 20
382.1368289976355
 10
607.7104427336907
 20
380.14550776706113
 10
682.21904544435
 20
591.9206671274194
 10
676.5591302721356
 20
593.9119883579938
  0
LWPOLYLINE
  5
D6
330
17
100
AcDbEntity
  8
POCKET-KERF-15.5
100
AcDbPolyline
 90
4
 70
1
 10
590.7240423904002
 20
385.87455077371806
 10
596.4338561214364
 20
384.0311769220891
 10
665.4067610698874
 20
597.6733740250304
 10
659.6969473388511
 20
599.5167478766593
  0
LWPOLYLINE
  5
D7
330
17
100
AcDbEntity
  8
POCKET-KERF-15.5
100
AcDbPolyline
 90
4
 70
1
 10
579.3041352841777
 20
389.31628755785164
 10
585.0599810320155
 20
387.62210937150326
 10
648.4504815045516
 20
602.986671103097
 10
642.6946357567139
 20
604.6808492894454
  0
LWPOLYLINE
  5
D8
330
17
100
AcDbEntity
  8
POCKET-KERF-15.5
100
AcDbPolyline
 90
4
 70
1
 10
567.7985395162177
 20
392.4597086925881
 10
573.5965195671142
 20
390.91587342630936
 10
631.3616891137116
 20
607.8569603306873
 10
625.5637090628151
 20
609.4007955969662
  0
LWPOLYLINE
  5
D9
330
17
100
AcDbEntity
  8
POCKET-KERF-15.5
100
AcDbPolyline
 90
4
 70
1
 10
556.215046386132
 20
395.3026855323224
 10
562.0512344940563
 20
393.9102386324642
 10
614.1519559970835
 20
612.2809436706264
 10
608.3157678891595
 20
613.6733905704846
  0
LWPOLYLINE
  5
DA
330
17
100
AcDbEntity
  8
POCKET-KERF-15.5
100
AcDbPolyline
 90
4
 70
1
 10
544.5614999436639
 20
397.84329288475715
 10
550.4319439890509
 20
396.60317728128246
 10
596.832936152397
 20
616.2556253128422
 10
590.9624921070101
 20
617.495740916317
  0
LWPOLYLINE
  5
DB
330
17
100
AcDbEntity
  8
POCKET-KERF-15.5
100
AcDbPolyline
 90
4
 70
1
 10
532.845791676895
 20
400.0798103145948
 10
538.7465163429218
 20
398.9928657825499
 10
579.4163575835998
 20
619.778313703055
 10
573.515632917573
 20
620.8652582350998
  0
LWPOLYLINE
  5
DC
330
17
100
AcDbEntity
  8
POCKET-KERF-15.5
100
AcDbPolyline
 90
4
 70
1
 10
521.0758551683281
 20
402.01072330857266
 10
527.0028646328986
 20
401.07768589941315
 10
561.9140143589512
 20
622.846623365428
 10
555.9870048943808
 20
623.7796607745876
  0
LWPOLYLINE
  5
DD
330
17
100
AcDbEntity
  8
POCKET-KERF-15.5
100
AcDbPolyline
 90
4
 70
1
 10
509.25966072246587
 20
403.634724301054
 10
515.2089413640804
 20
402.8562258442088
 10
544.3377586243739
 20
625.4584765179528
 10
538.3884779827594
 20
626.236974974798
  0
LWPOLYLINE
  5
DE
330
17
100
AcDbEntity
  8
POCKET-KERF-15.5
100
AcDbPolyline
 90
4
 70
1
 10
497.4052099685203
 20
404.9507135594774
 10
503.37273308419907
 20
404.32728123448993
 10
526.6994925774808
 20
627.6121044794713
 10
520.731969461802
 20
628.2355368044589
  0
LWPOLYLINE
  5
DF
330
17
100
AcDbEntity
  8
POCKET-KERF-15.5
100
AcDbPolyline
 90
4
 70
1
 10
485.5205304419116
 20
405.95779992906864
 10
491.502254975331
 20
405.4898559086042
 10
509.01116040770603
 20
629.3060488673805
 10
503.0294358742866
 20
629.7739928878448
  0
LWPOLYLINE
  5
E0
330
17
100
AcDbEntity
  8
POCKET-KERF-15.5
100
AcDbPolyline
 90
4
 70
1
 10
473.61367014822355
 20
406.65530143630815
 10
479.6055454262176
 20
406.34316260026935
 10
491.28474020800104
 20
630.5391625852137
 10
485.292864930007
 20
630.8513014212524
  0
LWPOLYLINE
  5
E1
330
17
100
AcDbEntity
  8
POCKET-KERF-15.5
100
AcDbPolyline
 90
4
 70
1
 10
461.69269211329635
 20
407.0427457507464
 10
467.69066058887057
 20
406.8866234716898
 10
473.53223586357154
 20
631.3106105994256
 10
467.5342673879973
 20
631.466732878482
  0
LWPOLYLINE
  5
E2
330
17
100
AcDbEntity
  8
POCKET-KERF-15.5
100
AcDbPolyline
 90
4
 70
1
 10
449.76566892314906
 20
407.1198705048538
 10
455.76566892314906
 20
407.1198705048538
 10
455.7656689231491
 20
631.6198705048539
 10
449.7656689231491
 20
631.6198705048539
  0
LWPOLYLINE
  5
E3
330
17
100
AcDbEntity
  8
POCKET-KERF-15.5
100
AcDbPolyline
 90
4
 70
1
 10
437.84067725742767
 20
406.8866234716898
 10
443.8386457330019
 20
407.0427457507464
 10
437.99707045830104
 20
631.466732878482
 10
431.9991019827268
 20
631.3106105994256
  0
LWPOLYLINE
  5
E4
330
17
100
AcDbEntity
  8
POCKET-KERF-15.5
100
AcDbPolyline
 90
4
 70
1
 10
425.9257924200806
 20
406.3431626002694
 10
431.91766769807464
 20
406.6553014363082
 10
420.23847291629124
 20
630.8513014212526
 10
414.2465976382972
 20
630.539162585214
  0
LWPOLYLINE
  5
E5
330
17
100
AcDbEntity
  8
POCKET-KERF-15.5
100
AcDbPolyline
 90
4
 70
1
 10
414.0290828709671
 20
405.48985590860417
 10
420.01080740438647
 20
405.9577999290686
 10
402.50190197201147
 20
629.7739928878448
 10
396.52017743859204
 20
629.3060488673805
  0
LWPOLYLINE
  5
E6
330
17
100
AcDbEntity
  8
POCKET-KERF-15.5
100
AcDbPolyline
 90
4
 70
1
 10
402.1586047620991
 20
404.32728123448993
 10
408.1261278777779
 20
404.9507135594774
 10
384.7993683844963
 20
628.2355368044589
 10
378.83184526881746
 20
627.6121044794713
  0
LWPOLYLINE
  5
E7
330
17
100
AcDbEntity
  8
POCKET-KERF-15.5
100
AcDbPolyline
 90
4
 70
1
 10
390.32239648221764
 20
402.8562258442088
 10
396.2716771238322
 20
403.634724301054
 10
367.1428598635387
 20
626.236974974798
 10
361.19357922192415
 20
625.4584765179528
  0
LWPOLYLINE
  5
E8
330
17
100
AcDbEntity
  8
POCKET-KERF-15.5
100
AcDbPolyline
 90
4
 70
1
 10
378.5284732133995
 20
401.0776858994132
 10
384.45548267797
 20
402.0107233085727
 10
349.5443329519175
 20
623.7796607745876
 10
343.61732348734694
 20
622.846623365428
  0
LWPOLYLINE
  5
E9
330
17
100
AcDbEntity
  8
POCKET-KERF-15.5
100
AcDbPolyline
 90
4
 70
1
 10
366.78482150337635
 20
398.9928657825499
 10
372.68554616940327
 20
400.0798103145948
 10
332.01570492872514
 20
620.8652582350998
 10
326.1149802626982
 20
619.778313703055
  0
LWPOLYLINE
  5
EA
330
17
100
AcDbEntity
  8
POCKET-KERF-15.5
100
AcDbPolyline
 90
4
 70
1
 10
355.0993938572473
 20
396.60317728128246
 10
360.9698379026342
 20
397.84329288475715
 10
314.5688457392882
 20
617.495740916317
 10
308.6984016939013
 20
616.2556253128422
  0
LWPOLYLINE
  5
EB
330
17
100
AcDbEntity
  8
POCKET-KERF-15.5
100
AcDbPolyline
 90
4
 70
1
 10
343.48010335224194
 20
393.9102386324642
 10
349.3162914601661
 20
395.3026855323224
 10
297.21556995713877
 20
613.6733905704846
 10
291.3793818492146
 20
612.2809436706264
  0
LWPOLYLINE
  5
EC
330
17
100
AcDbEntity
  8
POCKET-KERF-15.5
100
AcDbPolyline
 90
4
 70
1
 10
331.9348182791839
 20
390.9158734263094
 10
337.7327983300804
 20
392.45970869258815
 10
279.96762878348324
 20
609.4007955969662
 10
274.1696487325867
 20
607.8569603306873
  0
LWPOLYLINE
  5
ED
330
17
100
AcDbEntity
  8
POCKET-KERF-15.5
100
AcDbPolyline
 90
4
 70
1
 10
320.4713568142828
 20
387.62210937150326
 10
326.22720256212045
 20
389.31628755785164
 10
262.8367020895844
 20
604.6808492894454
 10
257.08085634174665
 20
602.986671103097
  0
LWPOLYLINE
  5
EE
330
17
100
AcDbEntity
  8
POCKET-KERF-15.5
100
AcDbPolyline
 90
4
 70
1
 10
309.0974817248617
 20
384.0311769220891
 10
314.80729545589804
 20
385.87455077371806
 10
245.83439050744704
 20
599.5167478766593
 10
240.12457677641078
 20
597.6733740250304
  0
LWPOLYLINE
  5
EF
330
17
100
AcDbEntity
  8
POCKET-KERF-15.5
100
AcDbPolyline
 90
4
 70
1
 10
297.8208951126075
 20
380.1455077670612
 10
303.480810284822
 20
382.1368289976356
 10
228.9722075741627
 20
593.9119883579938
 10
223.3122924019482
 20
591.9206671274194
  0
LWPOLYLINE
  5
F0
330
17
100
AcDbEntity
  8
POCKET-KERF-15.5
100
AcDbPolyline
 90
4
 70
1
 10
286.64923319790086
 20
375.96773318368565
 10
292.2554170593201
 20
378.10565332063237
 10
212.2615719352315
 20
587.8703661354033
 10
206.65538807381225
 20
585.7324459984567
  0
LWPOLYLINE
  5
F1
330
17
100
AcDbEntity
  8
POCKET-KERF-15.5
100
AcDbPolyline
 90
4
 70
1
 10
275.59006114876036
 20
371.5006822556664
 10
281.13871733290114
 20
373.7837535533259
 10
195.71379961214373
 20
581.3959724432598
 10
190.16514342800295
 20
579.1129011456003
  0
LWPOLYLINE
  5
F2
330
17
100
AcDbEntity
  8
POCKET-KERF-15.5
100
AcDbPolyline
 90
4
 70
1
 10
264.6508679579017
 20
366.74737995736064
 10
270.13823905457457
 20
369.17405637736385
 10
179.34009633945487
 20
574.4931915778726
 10
173.85272524278201
 20
572.0665151578695
  0
LWPOLYLINE
  5
F3
330
17
100
AcDbEntity
  8
POCKET-KERF-15.5
100
AcDbPolyline
 90
4
 70
1
 10
253.83906137138015
 20
361.7110451053424
 10
259.26143147111304
 20
364.27968336354917
 10
163.15154997654471
 20
567.1666979285529
 10
157.7291798768119
 20
564.5980596703463
  0
LWPOLYLINE
  5
F4
330
17
100
AcDbEntity
  8
POCKET-KERF-15.5
100
AcDbPolyline
 90
4
 70
1
 10
243.16196287225117
 20
356.395088178701
 10
248.51566008260963
 20
359.10394885799036
 10
147.15912299919756
 20
559.4214528122354
 10
141.80542578883916
 20
556.7125921329459
  0
LWPOLYLINE
  5
F5
330
17
100
AcDbEntity
  8
POCKET-KERF-15.5
100
AcDbPolyline
 90
4
 70
1
 10
232.62680272264745
 20
350.8031090095506
 10
237.90820165474778
 20
353.65035773771075
 10
131.37364507609104
 20
551.2627011137988
 10
126.09224614399065
 20
548.4154523856387
  0
LWPOLYLINE
  5
F6
330
17
100
AcDbEntity
  8
POCKET-KERF-15.5
100
AcDbPolyline
 90
4
 70
1
 10
222.24071506762692
 20
344.93889434531513
 10
227.44623929115824
 20
347.92260303723344
 10
115.8058057352164
 20
542.6959677343638
 10
110.60028151168503
 20
539.7122590424455
  0
LWPOLYLINE
  5
F7
330
17
100
AcDbEntity
  8
POCKET-KERF-15.5
100
AcDbPolyline
 90
4
 70
1
 10
212.0107331041092
 20
338.80641528443715
 10
217.13685756920177
 20
341.92456344775127
 10
100.46614712519927
 20
533.7270538499662
 10
95.34002266010664
 20
530.6089056866521
  0
LWPOLYLINE
  5
F8
330
17
100
AcDbEntity
  8
POCKET-KERF-15.5
100
AcDbPolyline
 90
4
 70
1
 10
201.94378431817202
 20
332.40982458725074
 10
206.98703774247244
 20
335.66030069057507
 10
85.36505687642224
 20
524.3620329831488
 10
80.32180345212188
 20
521.1115568798245
  0
LWPOLYLINE
  5
F9
330
17
100
AcDbEntity
  8
POCKET-KERF-15.5
100
AcDbPolyline
 90
4
 70
1
 10
192.04668579393325
 20
325.75345386383725
 10
197.00365301326923
 20
329.1340567666386
 10
70.51276106678523
 20
514.6072468901251
 10
65.55579384744925
 20
511.22664398732365
  0
LWPOLYLINE
  5
FA
330
17
100
AcDbEntity
  8
POCKET-KERF-15.5
100
AcDbPolyline
 90
4
 70
1
 10
182.32613959719143
 20
318.84181064076716
 10
187.1934638782349
 20
322.35025108392193
 10
55.91931729685949
 20
504.4693012663001
 10
51.051993015816024
 20
500.9608608231453
  0
LWPOLYLINE
  5
FB
330
17
100
AcDbEntity
  8
POCKET-KERF-15.5
100
AcDbPolyline
 90
4
 70
1
 10
172.78872823695662
 20
311.6795753087169
 10
177.56311355031931
 20
315.3134774647396
 10
41.594607879136916
 20
493.9550612730614
 10
36.820222565774216
 20
490.3211591170387
  0
LWPOLYLINE
  5
FC
330
17
100
AcDbEntity
  8
POCKET-KERF-15.5
100
AcDbPolyline
 90
4
 70
1
 10
163.44091020794085
 20
304.27159795302646
 10
168.11912346016206
 20
308.02850103492005
 10
27.548333145974972
 20
483.0716468888633
 10
22.87011989375376
 20
479.3147438069697
  0
TEXT
  5
FD
330
17
100
AcDbEntity
  8
REFERENCE-SHEET
100
AcDbText
 10
452.7656689231492
 20
467.05993525242684
 30
0.0
 40
25.0
  1
01 SHELL-LOW  (mark by hand)
 72
1
 11
452.7656689231492
 21
467.05993525242684
 31
0.0
100
AcDbText
 73
2
  0
LWPOLYLINE
  5
FE
330
17
100
AcDbEntity
  8
CUT
100
AcDbPolyline
 90
4
 70
1
 10
264.95962418200236
 20
1031.1992657477695
 10
122.61987050485385
 20
1148.58599635702
 42
0.3591568323270878
 10
122.6198705048538
 20
566.0
 10
264.95962418200224
 20
683.3867306092502
 42
-0.3591568323270878
  0
LWPOLYLINE
  5
FF
330
17
100
AcDbEntity
  8
POCKET-KERF-15.5
100
AcDbPolyline
 90
4
 70
1
 10
259.01018263213365
 20
1024.5694632429334
 10
262.72700243783027
 20
1029.2795853785028
 10
118.67576712499702
 20
1142.9523244360566
 10
114.95894731930046
 20
1138.2422023004872
  0
LWPOLYLINE
  5
100
330
17
100
AcDbEntity
  8
POCKET-KERF-15.5
100
AcDbPolyline
 90
4
 70
1
 10
252.00397763240633
 20
1015.0716848600522
 10
255.51439690926188
 20
1019.9375821566133
 10
106.69903792276658
 20
1127.2979050404447
 10
103.18861864591109
 20
1122.4320077438836
  0
LWPOLYLINE
  5
101
330
17
100
AcDbEntity
  8
POCKET-KERF-15.5
100
AcDbPolyline
 90
4
 70
1
 10
245.4135175001745
 20
1005.2808453682625
 10
248.71101592920516
 20
1010.2934798163886
 10
95.4079457240155
 20
1111.141973437576
 10
92.1104472949849
 20
1106.1293389894502
  0
LWPOLYLINE
  5
102
330
17
100
AcDbEntity
  8
POCKET-KERF-15.5
100
AcDbPolyline
 90
4
 70
1
 10
239.25104348040722
 20
995.2151304575261
 10
242.32949622582836
 20
1000.3651914954371
 10
84.82346281638387
 20
1094.514537959568
 10
81.74501007096272
 20
1089.364476921657
  0
LWPOLYLINE
  5
103
330
17
100
AcDbEntity
  8
POCKET-KERF-15.5
100
AcDbPolyline
 90
4
 70
1
 10
233.52800186859494
 20
984.8932363765934
 10
236.38169095420673
 20
990.1711581837691
 10
74.96524901808516
 20
1077.4464827187296
 10
72.11155993247337
 20
1072.168560911554
  0
LWPOLYLINE
  5
104
330
17
100
AcDbEntity
  8
POCKET-KERF-15.5
100
AcDbPolyline
 90
4
 70
1
 10
228.25502275018442
 20
974.3343352062382
 10
230.87864768004852
 20
979.7303144711534
 10
65.85161516138939
 20
1059.96951024283
 10
63.22799023152536
 20
1054.5735309779145
  0
LWPOLYLINE
  5
105
330
17
100
AcDbEntity
  8
POCKET-KERF-15.5
100
AcDbPolyline
 90
4
 70
1
 10
223.4419002560572
 20
963.558039248672
 10
225.83058785973796
 20
969.062053377653
 10
57.499489081737494
 20
1042.1160825902232
 10
55.11080147805674
 20
1036.6120684612422
  0
LWPOLYLINE
  5
106
330
17
100
AcDbEntity
  8
POCKET-KERF-15.5
100
AcDbPolyline
 90
4
 70
1
 10
219.09757437072653
 20
952.5843645992862
 10
221.24688785480976
 20
958.1861903326645
 10
49.92438417566041
 20
1023.9193610542101
 10
47.775070691577184
 20
1018.317535320832
  0
LWPOLYLINE
  5
107
330
17
100
AcDbEntity
  8
POCKET-KERF-15.5
100
AcDbPolyline
 90
4
 70
1
 10
215.2301143270412
 20
941.4336939683769
 10
217.13606151611785
 20
947.1229263693648
 10
43.14037058590421
 20
1005.4131445686268
 10
41.234423396827566
 20
999.7239121676389
  0
LWPOLYLINE
  5
108
330
17
100
AcDbEntity
  8
POCKET-KERF-15.5
100
AcDbPolyline
 90
4
 70
1
 10
211.8467036182404
 20
930.1267388219152
 10
213.50574437004863
 20
935.8928106029322
 10
37.160049067281115
 20
986.6318069290666
 10
35.501008315472895
 20
980.8657351480496
  0
LWPOLYLINE
  5
109
330
17
100
AcDbEntity
  8
POCKET-KERF-15.5
100
AcDbPolyline
 90
4
 70
1
 10
208.95362665519778
 20
918.6845009116793
 10
210.3626794361497
 20
924.5167020622305
 10
31.994527581789807
 20
967.6102329463437
 10
30.585474800837883
 20
961.7780317957923
  0
LWPOLYLINE
  5
10A
330
17
100
AcDbEntity
  8
POCKET-KERF-15.5
100
AcDbPolyline
 90
4
 70
1
 10
206.55625709363824
 20
907.1282332662049
 10
207.71270470251875
 20
913.0157309458575
 10
27.653400666477594
 20
948.3837536507882
 10
26.496953057597082
 20
942.4962559711357
  0
LWPOLYLINE
  5
10B
330
17
100
AcDbEntity
  8
POCKET-KERF-15.5
100
AcDbPolyline
 90
4
 70
1
 10
204.65904785300825
 20
895.4794007150094
 10
205.56074228221405
 20
901.411259374514
 10
24.144731612366105
 20
928.9880806677234
 10
23.2430371831603
 20
923.0562220082188
  0
LWPOLYLINE
  5
10C
330
17
100
AcDbEntity
  8
POCKET-KERF-15.5
100
AcDbPolyline
 90
4
 70
1
 10
203.26552284553952
 20
883.7596400194112
 10
203.91078927082856
 20
889.7248417125977
 10
21.475037487542245
 20
909.4592398860194
 10
20.829771062253208
 20
903.4940381928328
  0
LWPOLYLINE
  5
10D
330
17
100
AcDbEntity
  8
POCKET-KERF-15.5
100
AcDbPolyline
 90
4
 70
1
 10
202.37827043086776
 20
871.990719684003
 10
202.76591032220966
 20
877.9781845327215
 10
19.64927703223344
 20
889.833504542927
 10
19.261637140891533
 20
883.8460396942085
  0
LWPOLYLINE
  5
10E
330
17
100
AcDbEntity
  8
POCKET-KERF-15.5
100
AcDbPolyline
 90
4
 70
1
 10
201.99893860836474
 20
860.1944995234193
 10
202.12823195611307
 20
866.193106297515
 10
18.670841448349805
 20
870.1473278494838
 10
18.541548100601474
 20
864.148721075388
  0
LWPOLYLINE
  5
10F
330
17
100
AcDbEntity
  8
POCKET-KERF-15.5
100
AcDbPolyline
 90
4
 70
1
 10
202.12823195611307
 20
848.3928900595048
 10
201.99893860836474
 20
854.3914968336005
 10
18.541548100601474
 20
850.4372752816317
 10
18.670841448349805
 20
844.4386685075359
  0
LWPOLYLINE
  5
110
330
17
100
AcDbEntity
  8
POCKET-KERF-15.5
100
AcDbPolyline
 90
4
 70
1
 10
202.76591032220966
 20
836.6078118242982
 10
202.37827043086776
 20
842.5952766730168
 10
19.261637140891533
 20
830.7399566628113
 10
19.64927703223344
 20
824.7524918140928
  0
LWPOLYLINE
  5
111
330
17
100
AcDbEntity
  8
POCKET-KERF-15.5
100
AcDbPolyline
 90
4
 70
1
 10
203.91078927082856
 20
824.8611546444221
 10
203.26552284553952
 20
830.8263563376084
 10
20.829771062253208
 20
811.0919581641868
 10
21.475037487542245
 20
805.1267564710005
  0
LWPOLYLINE
  5
112
330
17
100
AcDbEntity
  8
POCKET-KERF-15.5
100
AcDbPolyline
 90
4
 70
1
 10
205.56074228221405
 20
813.1747369825058
 10
204.65904785300825
 20
819.1065956420103
 10
23.2430371831603
 20
791.529774348801
 10
24.144731612366105
 20
785.5979156892963
  0
LWPOLYLINE
  5
113
330
17
100
AcDbEntity
  8
POCKET-KERF-15.5
100
AcDbPolyline
 90
4
 70
1
 10
207.71270470251875
 20
801.5702654111623
 10
206.55625709363824
 20
807.4577630908148
 10
26.496953057597082
 20
772.0897403858842
 10
27.653400666477594
 20
766.2022427062316
  0
LWPOLYLINE
  5
114
330
17
100
AcDbEntity
  8
POCKET-KERF-15.5
100
AcDbPolyline
 90
4
 70
1
 10
210.3626794361497
 20
790.0692942947893
 10
208.95362665519778
 20
795.9014954453405
 10
30.585474800837883
 20
752.8079645612273
 10
31.994527581789807
 20
746.9757634106761
  0
LWPOLYLINE
  5
115
330
17
100
AcDbEntity
  8
POCKET-KERF-15.5
100
AcDbPolyline
 90
4
 70
1
 10
213.50574437004863
 20
778.6931857540876
 10
211.8467036182404
 20
784.4592575351045
 10
35.501008315472895
 20
733.7202612089701
 10
37.160049067281115
 20
727.9541894279532
  0
LWPOLYLINE
  5
116
330
17
100
AcDbEntity
  8
POCKET-KERF-15.5
100
AcDbPolyline
 90
4
 70
1
 10
217.13606151611785
 20
767.4630699876549
 10
215.2301143270412
 20
773.1523023886429
 10
41.234423396827566
 20
714.8620841893809
 10
43.14037058590421
 20
709.172851788393
  0
LWPOLYLINE
  5
117
330
17
100
AcDbEntity
  8
POCKET-KERF-15.5
100
AcDbPolyline
 90
4
 70
1
 10
221.24688785480976
 20
756.3998060243553
 10
219.09757437072653
 20
762.0016317577334
 10
47.775070691577184
 20
696.2684610361879
 10
49.92438417566041
 20
690.6666353028096
  0
LWPOLYLINE
  5
118
330
17
100
AcDbEntity
  8
POCKET-KERF-15.5
100
AcDbPolyline
 90
4
 70
1
 10
225.83058785973793
 20
745.5239429793668
 10
223.44190025605718
 20
751.0279571083477
 10
55.110801478056686
 20
677.9739278957776
 10
57.49948908173744
 20
672.4699137667967
  0
LWPOLYLINE
  5
119
330
17
100
AcDbEntity
  8
POCKET-KERF-15.5
100
AcDbPolyline
 90
4
 70
1
 10
230.8786476800485
 20
734.8556818858663
 10
228.2550227501844
 20
740.2516611507816
 10
63.227990231525304
 20
660.0124653791052
 10
65.85161516138933
 20
654.6164861141898
  0
LWPOLYLINE
  5
11A
330
17
100
AcDbEntity
  8
POCKET-KERF-15.5
100
AcDbPolyline
 90
4
 70
1
 10
236.3816909542067
 20
724.4148381732507
 10
233.5280018685949
 20
729.6927599804263
 10
72.11155993247337
 20
642.4174354454657
 10
74.96524901808516
 20
637.1395136382899
  0
LWPOLYLINE
  5
11B
330
17
100
AcDbEntity
  8
POCKET-KERF-15.5
100
AcDbPolyline
 90
4
 70
1
 10
242.3294962258283
 20
714.2208048615827
 10
239.25104348040716
 20
719.3708658994937
 10
81.7450100709626
 20
625.2215194353629
 10
84.82346281638375
 20
620.0714583974519
  0
LWPOLYLINE
  5
11C
330
17
100
AcDbEntity
  8
POCKET-KERF-15.5
100
AcDbPolyline
 90
4
 70
1
 10
248.71101592920516
 20
704.292516540631
 10
245.4135175001745
 20
709.3051509887572
 10
92.11044729498488
 20
608.4566573675697
 10
95.40794572401549
 20
603.4440229194437
  0
LWPOLYLINE
  5
11D
330
17
100
AcDbEntity
  8
POCKET-KERF-15.5
100
AcDbPolyline
 90
4
 70
1
 10
255.51439690926185
 20
694.6484142004064
 10
252.0039776324063
 20
699.5143114969675
 10
103.18861864591103
 20
592.153988613136
 10
106.69903792276652
 20
587.2880913165749
  0
LWPOLYLINE
  5
11E
330
17
100
AcDbEntity
  8
POCKET-KERF-15.5
100
AcDbPolyline
 90
4
 70
1
 10
262.72700243783027
 20
685.3064109785169
 10
259.0101826321337
 20
690.0165331140863
 10
114.95894731930052
 20
576.3437940565324
 10
118.67576712499708
 20
571.6336719209629
  0
TEXT
  5
11F
330
17
100
AcDbEntity
  8
REFERENCE-SHEET
100
AcDbText
 10
141.47981209100118
 20
857.29299817851
 30
0.0
 40
25.0
  1
02 SHELL-UP  (mark by hand)
 72
1
 11
141.47981209100118
 21
857.29299817851
 31
0.0
100
AcDbText
 73
2
  0
LWPOLYLINE
  5
120
330
17
100
AcDbEntity
  8
CUT
100
AcDbPolyline
 90
4
 70
1
 10
683.1992657477695
 20
690.0
 10
800.5859963570199
 20
832.3397536771485
 42
0.3591568323270878
 10
218.0
 20
832.3397536771486
 10
335.3867306092502
 20
690.0
 42
-0.3591568323270878
  0
LWPOLYLINE
  5
121
330
17
100
AcDbEntity
  8
POCKET-KERF-15.5
100
AcDbPolyline
 90
4
 70
1
 10
676.5694632429334
 20
695.9494415498687
 10
681.2795853785028
 20
692.2326217441721
 10
794.9523244360566
 20
836.2838570570053
 10
790.2422023004872
 20
840.0006768627019
  0
LWPOLYLINE
  5
122
330
17
100
AcDbEntity
  8
POCKET-KERF-15.5
100
AcDbPolyline
 90
4
 70
1
 10
667.0716848600522
 20
702.955646549596
 10
671.9375821566133
 20
699.4452272727405
 10
779.2979050404448
 20
848.2605862592358
 10
774.4320077438837
 20
851.7710055360913
  0
LWPOLYLINE
  5
123
330
17
100
AcDbEntity
  8
POCKET-KERF-15.5
100
AcDbPolyline
 90
4
 70
1
 10
657.2808453682625
 20
709.5461066818278
 10
662.2934798163886
 20
706.2486082527971
 10
763.1419734375761
 20
859.5516784579869
 10
758.1293389894499
 20
862.8491768870175
  0
LWPOLYLINE
  5
124
330
17
100
AcDbEntity
  8
POCKET-KERF-15.5
100
AcDbPolyline
 90
4
 70
1
 10
647.2151304575261
 20
715.7085807015951
 10
652.3651914954371
 20
712.630127956174
 10
746.5145379595679
 20
870.1361613656185
 10
741.3644769216569
 20
873.2146141110396
  0
LWPOLYLINE
  5
125
330
17
100
AcDbEntity
  8
POCKET-KERF-15.5
100
AcDbPolyline
 90
4
 70
1
 10
636.8932363765936
 20
721.4316223134073
 10
642.1711581837692
 20
718.5779332277956
 10
729.4464827187296
 20
879.9943751639172
 10
724.168560911554
 20
882.848064249529
  0
LWPOLYLINE
  5
126
330
17
100
AcDbEntity
  8
POCKET-KERF-15.5
100
AcDbPolyline
 90
4
 70
1
 10
626.334335206238
 20
726.704601431818
 10
631.7303144711534
 20
724.0809765019538
 10
711.96951024283
 20
889.1080090206129
 10
706.5735309779146
 20
891.731633950477
  0
LWPOLYLINE
  5
127
330
17
100
AcDbEntity
  8
POCKET-KERF-15.5
100
AcDbPolyline
 90
4
 70
1
 10
615.558039248672
 20
731.5177239259451
 10
621.0620533776529
 20
729.1290363222644
 10
694.1160825902231
 20
897.4601351002649
 10
688.6120684612422
 20
899.8488227039456
  0
LWPOLYLINE
  5
128
330
17
100
AcDbEntity
  8
POCKET-KERF-15.5
100
AcDbPolyline
 90
4
 70
1
 10
604.5843645992862
 20
735.8620498112757
 10
610.1861903326644
 20
733.7127363271925
 10
675.9193610542101
 20
905.035240006342
 10
670.3175353208319
 20
907.1845534904252
  0
LWPOLYLINE
  5
129
330
17
100
AcDbEntity
  8
POCKET-KERF-15.5
100
AcDbPolyline
 90
4
 70
1
 10
593.4336939683768
 20
739.7295098549611
 10
599.1229263693648
 20
737.8235626658844
 10
657.4131445686268
 20
911.8192535960982
 10
651.7239121676388
 20
913.7252007851748
  0
LWPOLYLINE
  5
12A
330
17
100
AcDbEntity
  8
POCKET-KERF-15.5
100
AcDbPolyline
 90
4
 70
1
 10
582.1267388219152
 20
743.1129205637619
 10
587.8928106029321
 20
741.4538798119537
 10
638.6318069290666
 20
917.7995751147213
 10
632.8657351480496
 20
919.4586158665295
  0
LWPOLYLINE
  5
12B
330
17
100
AcDbEntity
  8
POCKET-KERF-15.5
100
AcDbPolyline
 90
4
 70
1
 10
570.6845009116793
 20
746.0059975268045
 10
576.5167020622305
 20
744.5969447458526
 10
619.6102329463437
 20
922.9650966002125
 10
613.7780317957923
 20
924.3741493811644
  0
LWPOLYLINE
  5
12C
330
17
100
AcDbEntity
  8
POCKET-KERF-15.5
100
AcDbPolyline
 90
4
 70
1
 10
559.1282332662049
 20
748.4033670883641
 10
565.0157309458575
 20
747.2469194794836
 10
600.3837536507882
 20
927.3062235155247
 10
594.4962559711356
 20
928.4626711244052
  0
LWPOLYLINE
  5
12D
330
17
100
AcDbEntity
  8
POCKET-KERF-15.5
100
AcDbPolyline
 90
4
 70
1
 10
547.4794007150094
 20
750.3005763289941
 10
553.411259374514
 20
749.3988818997883
 10
580.9880806677234
 20
930.8148925696362
 10
575.0562220082188
 20
931.716586998842
  0
LWPOLYLINE
  5
12E
330
17
100
AcDbEntity
  8
POCKET-KERF-15.5
100
AcDbPolyline
 90
4
 70
1
 10
535.7596400194112
 20
751.6941013364628
 10
541.7248417125977
 20
751.0488349111738
 10
561.4592398860193
 20
933.4845866944601
 10
555.4940381928328
 20
934.1298531197491
  0
LWPOLYLINE
  5
12F
330
17
100
AcDbEntity
  8
POCKET-KERF-15.5
100
AcDbPolyline
 90
4
 70
1
 10
523.990719684003
 20
752.5813537511345
 10
529.9781845327215
 20
752.1937138597926
 10
541.833504542927
 20
935.310347149769
 10
535.8460396942083
 20
935.6979870411109
  0
LWPOLYLINE
  5
130
330
17
100
AcDbEntity
  8
POCKET-KERF-15.5
100
AcDbPolyline
 90
4
 70
1
 10
512.1944995234193
 20
752.9606855736375
 10
518.193106297515
 20
752.8313922258892
 10
522.1473278494838
 20
936.2887827336525
 10
516.148721075388
 20
936.4180760814008
  0
LWPOLYLINE
  5
131
330
17
100
AcDbEntity
  8
POCKET-KERF-15.5
100
AcDbPolyline
 90
4
 70
1
 10
500.39289005950474
 20
752.8313922258892
 10
506.39149683360057
 20
752.9606855736375
 10
502.4372752816317
 20
936.4180760814008
 10
496.43866850753585
 20
936.2887827336525
  0
LWPOLYLINE
  5
132
330
17
100
AcDbEntity
  8
POCKET-KERF-15.5
100
AcDbPolyline
 90
4
 70
1
 10
488.6078118242982
 20
752.1937138597926
 10
494.59527667301677
 20
752.5813537511345
 10
482.7399566628113
 20
935.6979870411109
 10
476.75249181409276
 20
935.310347149769
  0
LWPOLYLINE
  5
133
330
17
100
AcDbEntity
  8
POCKET-KERF-15.5
100
AcDbPolyline
 90
4
 70
1
 10
476.861154644422
 20
751.0488349111738
 10
482.82635633760844
 20
751.6941013364628
 10
463.09195816418685
 20
934.1298531197491
 10
457.1267564710004
 20
933.4845866944601
  0
LWPOLYLINE
  5
134
330
17
100
AcDbEntity
  8
POCKET-KERF-15.5
100
AcDbPolyline
 90
4
 70
1
 10
465.17473698250586
 20
749.3988818997883
 10
471.1065956420104
 20
750.3005763289941
 10
443.52977434880086
 20
931.716586998842
 10
437.5979156892963
 20
930.8148925696362
  0
LWPOLYLINE
  5
135
330
17
100
AcDbEntity
  8
POCKET-KERF-15.5
100
AcDbPolyline
 90
4
 70
1
 10
453.57026541116215
 20
747.2469194794836
 10
459.45776309081475
 20
748.4033670883641
 10
424.08974038588417
 20
928.4626711244052
 10
418.2022427062316
 20
927.3062235155247
  0
LWPOLYLINE
  5
136
330
17
100
AcDbEntity
  8
POCKET-KERF-15.5
100
AcDbPolyline
 90
4
 70
1
 10
442.0692942947892
 20
744.5969447458526
 10
447.9014954453405
 20
746.0059975268045
 10
404.8079645612273
 20
924.3741493811644
 10
398.97576341067605
 20
922.9650966002125
  0
LWPOLYLINE
  5
137
330
17
100
AcDbEntity
  8
POCKET-KERF-15.5
100
AcDbPolyline
 90
4
 70
1
 10
430.69318575408766
 20
741.4538798119537
 10
436.4592575351046
 20
743.1129205637619
 10
385.7202612089701
 20
919.4586158665295
 10
379.95418942795317
 20
917.7995751147213
  0
LWPOLYLINE
  5
138
330
17
100
AcDbEntity
  8
POCKET-KERF-15.5
100
AcDbPolyline
 90
4
 70
1
 10
419.4630699876549
 20
737.8235626658844
 10
425.1523023886428
 20
739.7295098549611
 10
366.8620841893809
 20
913.7252007851748
 10
361.17285178839296
 20
911.8192535960982
  0
LWPOLYLINE
  5
139
330
17
100
AcDbEntity
  8
POCKET-KERF-15.5
100
AcDbPolyline
 90
4
 70
1
 10
408.39980602435526
 20
733.7127363271925
 10
414.00163175773343
 20
735.8620498112757
 10
348.2684610361878
 20
907.1845534904252
 10
342.6666353028096
 20
905.035240006342
  0
LWPOLYLINE
  5
13A
330
17
100
AcDbEntity
  8
POCKET-KERF-15.5
100
AcDbPolyline
 90
4
 70
1
 10
397.5239429793667
 20
729.1290363222644
 10
403.02795710834766
 20
731.5177239259451
 10
329.97392789577765
 20
899.8488227039456
 10
324.4699137667967
 20
897.4601351002649
  0
LWPOLYLINE
  5
13B
330
17
100
AcDbEntity
  8
POCKET-KERF-15.5
100
AcDbPolyline
 90
4
 70
1
 10
386.8556818858663
 20
724.0809765019538
 10
392.2516611507816
 20
726.704601431818
 10
312.0124653791051
 20
891.731633950477
 10
306.6164861141898
 20
889.1080090206129
  0
LWPOLYLINE
  5
13C
330
17
100
AcDbEntity
  8
POCKET-KERF-15.5
100
AcDbPolyline
 90
4
 70
1
 10
376.4148381732506
 20
718.5779332277956
 10
381.6927599804262
 20
721.4316223134074
 10
294.4174354454656
 20
882.848064249529
 10
289.13951363829
 20
879.9943751639172
  0
LWPOLYLINE
  5
13D
330
17
100
AcDbEntity
  8
POCKET-KERF-15.5
100
AcDbPolyline
 90
4
 70
1
 10
366.2208048615827
 20
712.6301279561741
 10
371.37086589949365
 20
715.7085807015952
 10
277.2215194353629
 20
873.2146141110397
 10
272.0714583974519
 20
870.1361613656186
  0
LWPOLYLINE
  5
13E
330
17
100
AcDbEntity
  8
POCKET-KERF-15.5
100
AcDbPolyline
 90
4
 70
1
 10
356.292516540631
 20
706.2486082527971
 10
361.3051509887572
 20
709.5461066818278
 10
260.45665736756973
 20
862.8491768870175
 10
255.44402291944354
 20
859.5516784579869
  0
LWPOLYLINE
  5
13F
330
17
100
AcDbEntity
  8
POCKET-KERF-15.5
100
AcDbPolyline
 90
4
 70
1
 10
346.6484142004063
 20
699.4452272727405
 10
351.5143114969675
 20
702.955646549596
 10
244.15398861313602
 20
851.7710055360913
 10
239.2880913165749
 20
848.2605862592358
  0
LWPOLYLINE
  5
140
330
17
100
AcDbEntity
  8
POCKET-KERF-15.5
100
AcDbPolyline
 90
4
 70
1
 10
337.30641097851685
 20
692.232621744172
 10
342.0165331140863
 20
695.9494415498687
 10
228.34379405653237
 20
840.0006768627018
 10
223.6336719209629
 20
836.2838570570052
  0
TEXT
  5
141
330
17
100
AcDbEntity
  8
REFERENCE-SHEET
100
AcDbText
 10
509.29299817850995
 20
813.4798120910011
 30
0.0
 40
25.0
  1
02 SHELL-UP  (mark by hand)
 72
1
 11
509.29299817850995
 21
813.4798120910011
 31
0.0
100
AcDbText
 73
2
  0
LWPOLYLINE
  5
142
330
17
100
AcDbEntity
  8
CUT
100
AcDbPolyline
 90
2
 70
1
 10
792.05
 20
1067.025
 42
1.0
 10
526.0
 20
1067.025
 42
1.0
  0
LWPOLYLINE
  5
143
330
17
100
AcDbEntity
  8
CUT
100
AcDbPolyline
 90
2
 70
1
 10
556.0
 20
1067.025
 42
-1.0
 10
762.05
 20
1067.025
 42
-1.0
  0
TEXT
  5
144
330
17
100
AcDbEntity
  8
ENGRAVE-LABEL
100
AcDbText
 10
541.0032133356023
 20
1067.0904381656437
 30
0.0
 40
7.0
  1
07 COLLAR 1/2
 50
90.0
 72
1
 11
541.0032133356023
 21
1067.0904381656437
 31
0.0
100
AcDbText
 73
2
  0
LWPOLYLINE
  5
145
330
17
100
AcDbEntity
  8
CUT
100
AcDbPolyline
 90
2
 70
1
 10
996.05
 20
675.025
 42
1.0
 10
730.0
 20
675.025
 42
1.0
  0
LWPOLYLINE
  5
146
330
17
100
AcDbEntity
  8
CUT
100
AcDbPolyline
 90
2
 70
1
 10
760.0
 20
675.025
 42
-1.0
 10
966.05
 20
675.025
 42
-1.0
  0
TEXT
  5
147
330
17
100
AcDbEntity
  8
ENGRAVE-LABEL
100
AcDbText
 10
745.0032133356023
 20
675.0904381656435
 30
0.0
 40
7.0
  1
07 COLLAR 2/2
 50
90.0
 72
1
 11
745.0032133356023
 21
675.0904381656435
 31
0.0
100
AcDbText
 73
2
  0
LWPOLYLINE
  5
148
330
17
100
AcDbEntity
  8
CUT
100
AcDbPolyline
 90
2
 70
1
 10
1036.0
 20
949.0
 42
1.0
 10
782.0
 20
949.0
 42
1.0
  0
LWPOLYLINE
  5
149
330
17
100
AcDbEntity
  8
CUT
100
AcDbPolyline
 90
8
 70
1
 10
820.690224624645
 20
942.7
 42
2.414213562373095
 10
823.8902246246449
 20
939.5
 10
858.490224624645
 20
939.5
 42
2.414213562373095
 10
861.690224624645
 20
942.7
 10
861.690224624645
 20
955.3
 42
2.414213562373095
 10
858.490224624645
 20
958.5
 10
823.8902246246449
 20
958.5
 42
2.414213562373095
 10
820.690224624645
 20
955.3
  0
LWPOLYLINE
  5
14A
330
17
100
AcDbEntity
  8
CUT
100
AcDbPolyline
 90
8
 70
1
 10
956.309775375355
 20
942.7
 42
2.414213562373095
 10
959.509775375355
 20
939.5
 10
994.109775375355
 20
939.5
 42
2.414213562373095
 10
997.309775375355
 20
942.7
 10
997.309775375355
 20
955.3
 42
2.414213562373095
 10
994.109775375355
 20
958.5
 10
959.509775375355
 20
958.5
 42
2.414213562373095
 10
956.309775375355
 20
955.3
  0
LWPOLYLINE
  5
14B
330
17
100
AcDbEntity
  8
CUT
100
AcDbPolyline
 90
8
 70
1
 10
915.3
 20
860.690224624645
 42
2.414213562373095
 10
918.5
 20
863.8902246246449
 10
918.5
 20
898.490224624645
 42
2.414213562373095
 10
915.3
 20
901.690224624645
 10
902.7
 20
901.690224624645
 42
2.414213562373095
 10
899.5
 20
898.490224624645
 10
899.5
 20
863.8902246246449
 42
2.414213562373095
 10
902.6999999999999
 20
860.690224624645
  0
LWPOLYLINE
  5
14C
330
17
100
AcDbEntity
  8
CUT
100
AcDbPolyline
 90
8
 70
1
 10
915.3
 20
996.309775375355
 42
2.414213562373095
 10
918.5
 20
999.509775375355
 10
918.5
 20
1034.109775375355
 42
2.414213562373095
 10
915.3
 20
1037.309775375355
 10
902.7
 20
1037.309775375355
 42
2.414213562373095
 10
899.5
 20
1034.109775375355
 10
899.5
 20
999.509775375355
 42
2.414213562373095
 10
902.7
 20
996.309775375355
  0
TEXT
  5
14D
330
17
100
AcDbEntity
  8
ENGRAVE-LABEL
100
AcDbText
 10
851.3447544362696
 20
891.3447544362696
 30
0.0
 40
9.0
  1
03 FORMER-BASE 1/2
 50
135.0
 72
1
 11
851.3447544362696
 21
891.3447544362696
 31
0.0
100
AcDbText
 73
2
  0
LWPOLYLINE
  5
14E
330
17
100
AcDbEntity
  8
CUT
100
AcDbPolyline
 90
2
 70
1
 10
1076.0
 20
325.0
 42
1.0
 10
822.0
 20
325.0
 42
1.0
  0
LWPOLYLINE
  5
14F
330
17
100
AcDbEntity
  8
CUT
100
AcDbPolyline
 90
8
 70
1
 10
860.690224624645
 20
318.7
 42
2.414213562373095
 10
863.8902246246449
 20
315.5
 10
898.490224624645
 20
315.5
 42
2.414213562373095
 10
901.690224624645
 20
318.7
 10
901.690224624645
 20
331.29999999999995
 42
2.414213562373095
 10
898.490224624645
 20
334.5
 10
863.8902246246449
 20
334.5
 42
2.414213562373095
 10
860.690224624645
 20
331.29999999999995
  0
LWPOLYLINE
  5
150
330
17
100
AcDbEntity
  8
CUT
100
AcDbPolyline
 90
8
 70
1
 10
996.309775375355
 20
318.7
 42
2.414213562373095
 10
999.509775375355
 20
315.5
 10
1034.109775375355
 20
315.5
 42
2.414213562373095
 10
1037.309775375355
 20
318.7
 10
1037.309775375355
 20
331.29999999999995
 42
2.414213562373095
 10
1034.109775375355
 20
334.5
 10
999.509775375355
 20
334.5
 42
2.414213562373095
 10
996.309775375355
 20
331.29999999999995
  0
LWPOLYLINE
  5
151
330
17
100
AcDbEntity
  8
CUT
100
AcDbPolyline
 90
8
 70
1
 10
955.3
 20
236.69022462464494
 42
2.414213562373095
 10
958.5
 20
239.89022462464496
 10
958.5
 20
274.49022462464495
 42
2.414213562373095
 10
955.3
 20
277.69022462464494
 10
942.7
 20
277.69022462464494
 42
2.414213562373095
 10
939.5
 20
274.49022462464495
 10
939.5
 20
239.89022462464496
 42
2.414213562373095
 10
942.6999999999999
 20
236.69022462464494
  0
LWPOLYLINE
  5
152
330
17
100
AcDbEntity
  8
CUT
100
AcDbPolyline
 90
8
 70
1
 10
955.3
 20
372.309775375355
 42
2.414213562373095
 10
958.5
 20
375.50977537535505
 10
958.5
 20
410.109775375355
 42
2.414213562373095
 10
955.3
 20
413.309775375355
 10
942.7
 20
413.309775375355
 42
2.414213562373095
 10
939.5
 20
410.109775375355
 10
939.5
 20
375.50977537535505
 42
2.414213562373095
 10
942.7
 20
372.309775375355
  0
TEXT
  5
153
330
17
100
AcDbEntity
  8
ENGRAVE-LABEL
100
AcDbText
 10
1006.6552455637304
 20
267.3447544362696
 30
0.0
 40
9.0
  1
03 FORMER-BASE 2/2
 50
45.0
 72
1
 11
1006.6552455637304
 21
267.3447544362696
 31
0.0
100
AcDbText
 73
2
  0
LWPOLYLINE
  5
154
330
17
100
AcDbEntity
  8
CUT
100
AcDbPolyline
 90
34
 70
1
 10
499.0
 20
1184.0
 10
463.50977537535505
 20
1184.0
 42
-2.414213562373095
 10
460.309775375355
 20
1187.2
 10
460.309775375355
 20
1202.0
 10
420.309775375355
 20
1202.0
 10
420.309775375355
 20
1187.2
 42
-2.414213562373095
 10
417.109775375355
 20
1184.0
 10
327.89022462464493
 20
1184.0
 42
-2.414213562373095
 10
324.69022462464494
 20
1187.2
 10
324.69022462464494
 20
1202.0
 10
284.69022462464494
 20
1202.0
 10
284.69022462464494
 20
1187.2
 42
-2.414213562373095
 10
281.49022462464495
 20
1184.0
 10
246.0
 20
1184.0
 10
287.4
 20
1000.0
 10
304.3339014327904
 20
1000.0
 42
-2.414213562373095
 10
307.5339014327904
 20
996.8
 10
307.5339014327904
 20
982.0
 10
347.5339014327904
 20
982.0
 10
347.5339014327904
 20
996.8
 42
-2.414213562373095
 10
350.7339014327904
 20
1000.0
 10
362.99999999999994
 20
1000.0
 10
363.0
 20
1088.8
 42
-2.414213562373095
 10
366.2
 20
1092.0
 10
378.79999999999995
 20
1092.0
 42
-2.414213562373095
 10
382.0
 20
1088.8
 10
382.0
 20
1000.0
 10
394.2660985672095
 20
1000.0
 42
-2.414213562373095
 10
397.46609856720954
 20
996.8
 10
397.4660985672095
 20
982.0
 10
437.4660985672095
 20
982.0
 10
437.4660985672095
 20
996.8
 42
-2.414213562373095
 10
440.6660985672095
 20
1000.0
 10
457.59999999999997
 20
1000.0
  0
TEXT
  5
155
330
17
100
AcDbEntity
  8
ENGRAVE-LABEL
100
AcDbText
 10
315.546875
 20
1126.171875
 30
0.0
 40
14.0
  1
08 CORE-1A 1/2
 50
105.0
 72
1
 11
315.546875
 21
1126.171875
 31
0.0
100
AcDbText
 73
2
  0
LWPOLYLINE
  5
156
330
17
100
AcDbEntity
  8
CUT
100
AcDbPolyline
 90
34
 70
1
 10
974.0
 20
472.0
 10
1009.490224624645
 20
472.0
 42
-2.414213562373095
 10
1012.690224624645
 20
468.8
 10
1012.690224624645
 20
454.0
 10
1052.690224624645
 20
454.0
 10
1052.690224624645
 20
468.8
 42
-2.414213562373095
 10
1055.890224624645
 20
472.0
 10
1145.109775375355
 20
472.0
 42
-2.414213562373095
 10
1148.309775375355
 20
468.8
 10
1148.309775375355
 20
454.0
 10
1188.309775375355
 20
454.0
 10
1188.309775375355
 20
468.8
 42
-2.414213562373095
 10
1191.509775375355
 20
472.0
 10
1227.0
 20
472.0
 10
1185.6
 20
656.0
 10
1168.6660985672095
 20
656.0
 42
-2.414213562373095
 10
1165.4660985672094
 20
659.2
 10
1165.4660985672094
 20
674.0
 10
1125.4660985672094
 20
674.0
 10
1125.4660985672094
 20
659.2
 42
-2.414213562373095
 10
1122.2660985672096
 20
656.0
 10
1110.0
 20
656.0
 10
1110.0
 20
567.2
 42
-2.414213562373095
 10
1106.8
 20
564.0
 10
1094.2
 20
564.0
 42
-2.414213562373095
 10
1091.0
 20
567.2
 10
1091.0
 20
656.0
 10
1078.7339014327904
 20
656.0
 42
-2.414213562373095
 10
1075.5339014327903
 20
659.2
 10
1075.5339014327903
 20
674.0
 10
1035.5339014327903
 20
674.0
 10
1035.5339014327903
 20
659.2
 42
-2.414213562373095
 10
1032.3339014327905
 20
656.0
 10
1015.4
 20
656.0
  0
TEXT
  5
157
330
17
100
AcDbEntity
  8
ENGRAVE-LABEL
100
AcDbText
 10
1043.546875
 20
529.828125
 30
0.0
 40
14.0
  1
08 CORE-1A 2/2
 50
75.0
 72
1
 11
1043.546875
 21
529.828125
 31
0.0
100
AcDbText
 73
2
  0
LWPOLYLINE
  5
158
330
17
100
AcDbEntity
  8
CUT
100
AcDbPolyline
 90
34
 70
1
 10
1002.0
 20
36.0
 10
1037.490224624645
 20
36.0
 42
-2.414213562373095
 10
1040.690224624645
 20
32.8
 10
1040.690224624645
 20
18.0
 10
1080.690224624645
 20
18.0
 10
1080.690224624645
 20
32.8
 42
-2.414213562373095
 10
1083.890224624645
 20
36.0
 10
1119.0
 20
36.0
 10
1119.0
 20
124.8
 42
-2.414213562373095
 10
1122.2
 20
128.0
 10
1134.8
 20
128.0
 42
-2.414213562373095
 10
1138.0
 20
124.8
 10
1138.0
 20
36.0
 10
1173.109775375355
 20
36.0
 42
-2.414213562373095
 10
1176.309775375355
 20
32.8
 10
1176.309775375355
 20
18.0
 10
1216.309775375355
 20
18.0
 10
1216.309775375355
 20
32.8
 42
-2.414213562373095
 10
1219.509775375355
 20
36.0
 10
1255.0
 20
36.0
 10
1213.6
 20
220.0
 10
1196.6660985672095
 20
220.0
 42
-2.414213562373095
 10
1193.4660985672094
 20
223.2
 10
1193.4660985672094
 20
238.0
 10
1153.4660985672094
 20
238.0
 10
1153.4660985672094
 20
223.2
 42
-2.414213562373095
 10
1150.2660985672096
 20
220.0
 10
1106.7339014327904
 20
220.0
 42
-2.414213562373095
 10
1103.5339014327903
 20
223.2
 10
1103.5339014327903
 20
238.0
 10
1063.5339014327903
 20
238.0
 10
1063.5339014327903
 20
223.2
 42
-2.414213562373095
 10
1060.3339014327905
 20
220.0
 10
1043.4
 20
220.0
  0
TEXT
  5
159
330
17
100
AcDbEntity
  8
ENGRAVE-LABEL
100
AcDbText
 10
1067.275390625
 20
89.556640625
 30
0.0
 40
11.0
  1
09 CORE-1B 1/2
 50
45.0
 72
1
 11
1067.275390625
 21
89.556640625
 31
0.0
100
AcDbText
 73
2
  0
LWPOLYLINE
  5
15A
330
17
100
AcDbEntity
  8
CUT
100
AcDbPolyline
 90
34
 70
1
 10
1255.0
 20
1180.0
 10
1219.509775375355
 20
1180.0
 42
-2.414213562373095
 10
1216.309775375355
 20
1183.2
 10
1216.309775375355
 20
1198.0
 10
1176.309775375355
 20
1198.0
 10
1176.309775375355
 20
1183.2
 42
-2.414213562373095
 10
1173.109775375355
 20
1180.0
 10
1138.0
 20
1180.0
 10
1138.0
 20
1091.2
 42
-2.414213562373095
 10
1134.8
 20
1088.0
 10
1122.2
 20
1088.0
 42
-2.414213562373095
 10
1119.0
 20
1091.2
 10
1119.0
 20
1180.0
 10
1083.890224624645
 20
1180.0
 42
-2.414213562373095
 10
1080.690224624645
 20
1183.2
 10
1080.690224624645
 20
1198.0
 10
1040.690224624645
 20
1198.0
 10
1040.690224624645
 20
1183.2
 42
-2.414213562373095
 10
1037.490224624645
 20
1180.0
 10
1002.0
 20
1180.0
 10
1043.3999999999999
 20
996.0
 10
1060.3339014327903
 20
996.0
 42
-2.414213562373095
 10
1063.5339014327903
 20
992.8
 10
1063.5339014327903
 20
978.0
 10
1103.5339014327903
 20
978.0
 10
1103.5339014327903
 20
992.8
 42
-2.414213562373095
 10
1106.7339014327904
 20
996.0
 10
1150.2660985672096
 20
996.0
 42
-2.414213562373095
 10
1153.4660985672094
 20
992.8
 10
1153.4660985672094
 20
978.0
 10
1193.4660985672094
 20
978.0
 10
1193.4660985672094
 20
992.8
 42
-2.414213562373095
 10
1196.6660985672095
 20
996.0
 10
1213.6
 20
996.0
  0
TEXT
  5
15B
330
17
100
AcDbEntity
  8
ENGRAVE-LABEL
100
AcDbText
 10
1189.724609375
 20
1126.443359375
 30
0.0
 40
11.0
  1
09 CORE-1B 2/2
 50
45.0
 72
1
 11
1189.724609375
 21
1126.443359375
 31
0.0
100
AcDbText
 73
2
  0
LWPOLYLINE
  5
15C
330
17
100
AcDbEntity
  8
CUT
100
AcDbPolyline
 90
2
 70
1
 10
737.1
 20
1063.55
 42
1.0
 10
574.0
 20
1063.55
 42
1.0
  0
LWPOLYLINE
  5
15D
330
17
100
AcDbEntity
  8
CUT
100
AcDbPolyline
 90
8
 70
1
 10
590.0839014327904
 20
1057.25
 42
2.414213562373095
 10
593.2839014327905
 20
1054.05
 10
627.8839014327905
 20
1054.05
 42
2.414213562373095
 10
631.0839014327904
 20
1057.25
 10
631.0839014327904
 20
1069.85
 42
2.414213562373095
 10
627.8839014327905
 20
1073.05
 10
593.2839014327905
 20
1073.05
 42
2.414213562373095
 10
590.0839014327904
 20
1069.85
  0
LWPOLYLINE
  5
15E
330
17
100
AcDbEntity
  8
CUT
100
AcDbPolyline
 90
8
 70
1
 10
680.0160985672095
 20
1057.25
 42
2.414213562373095
 10
683.2160985672095
 20
1054.05
 10
717.8160985672096
 20
1054.05
 42
2.414213562373095
 10
721.0160985672096
 20
1057.25
 10
721.0160985672096
 20
1069.85
 42
2.414213562373095
 10
717.8160985672096
 20
1073.05
 10
683.2160985672095
 20
1073.05
 42
2.414213562373095
 10
680.0160985672095
 20
1069.85
  0
LWPOLYLINE
  5
15F
330
17
100
AcDbEntity
  8
CUT
100
AcDbPolyline
 90
8
 70
1
 10
661.85
 20
998.0839014327904
 42
2.414213562373095
 10
665.05
 20
1001.2839014327905
 10
665.05
 20
1035.8839014327905
 42
2.414213562373095
 10
661.85
 20
1039.0839014327905
 10
649.25
 20
1039.0839014327905
 42
2.414213562373095
 10
646.05
 20
1035.8839014327905
 10
646.05
 20
1001.2839014327905
 42
2.414213562373095
 10
649.25
 20
998.0839014327904
  0
LWPOLYLINE
  5
160
330
17
100
AcDbEntity
  8
CUT
100
AcDbPolyline
 90
8
 70
1
 10
661.85
 20
1088.0160985672096
 42
2.414213562373095
 10
665.05
 20
1091.2160985672094
 10
665.05
 20
1125.8160985672096
 42
2.414213562373095
 10
661.85
 20
1129.0160985672096
 10
649.25
 20
1129.0160985672096
 42
2.414213562373095
 10
646.05
 20
1125.8160985672096
 10
646.05
 20
1091.2160985672094
 42
2.414213562373095
 10
649.25
 20
1088.0160985672096
  0
TEXT
  5
161
330
17
100
AcDbEntity
  8
ENGRAVE-LABEL
100
AcDbText
 10
617.9877566674785
 20
1101.1122433325213
 30
0.0
 40
11.0
  1
04 1/2
 72
1
 11
617.9877566674785
 21
1101.1122433325213
 31
0.0
100
AcDbText
 73
2
  0
LWPOLYLINE
  5
162
330
17
100
AcDbEntity
  8
CUT
100
AcDbPolyline
 90
2
 70
1
 10
941.1
 20
671.55
 42
1.0
 10
778.0
 20
671.55
 42
1.0
  0
LWPOLYLINE
  5
163
330
17
100
AcDbEntity
  8
CUT
100
AcDbPolyline
 90
8
 70
1
 10
794.0839014327904
 20
665.25
 42
2.414213562373095
 10
797.2839014327905
 20
662.05
 10
831.8839014327905
 20
662.05
 42
2.414213562373095
 10
835.0839014327904
 20
665.25
 10
835.0839014327904
 20
677.85
 42
2.414213562373095
 10
831.8839014327905
 20
681.05
 10
797.2839014327905
 20
681.05
 42
2.414213562373095
 10
794.0839014327904
 20
677.85
  0
LWPOLYLINE
  5
164
330
17
100
AcDbEntity
  8
CUT
100
AcDbPolyline
 90
8
 70
1
 10
884.0160985672095
 20
665.25
 42
2.414213562373095
 10
887.2160985672095
 20
662.05
 10
921.8160985672096
 20
662.05
 42
2.414213562373095
 10
925.0160985672096
 20
665.25
 10
925.0160985672096
 20
677.85
 42
2.414213562373095
 10
921.8160985672096
 20
681.05
 10
887.2160985672095
 20
681.05
 42
2.414213562373095
 10
884.0160985672095
 20
677.85
  0
LWPOLYLINE
  5
165
330
17
100
AcDbEntity
  8
CUT
100
AcDbPolyline
 90
8
 70
1
 10
865.85
 20
606.0839014327904
 42
2.414213562373095
 10
869.05
 20
609.2839014327905
 10
869.05
 20
643.8839014327905
 42
2.414213562373095
 10
865.85
 20
647.0839014327904
 10
853.25
 20
647.0839014327904
 42
2.414213562373095
 10
850.05
 20
643.8839014327905
 10
850.05
 20
609.2839014327905
 42
2.414213562373095
 10
853.25
 20
606.0839014327904
  0
LWPOLYLINE
  5
166
330
17
100
AcDbEntity
  8
CUT
100
AcDbPolyline
 90
8
 70
1
 10
865.85
 20
696.0160985672095
 42
2.414213562373095
 10
869.05
 20
699.2160985672095
 10
869.05
 20
733.8160985672096
 42
2.414213562373095
 10
865.85
 20
737.0160985672096
 10
853.25
 20
737.0160985672096
 42
2.414213562373095
 10
850.05
 20
733.8160985672096
 10
850.05
 20
699.2160985672095
 42
2.414213562373095
 10
853.25
 20
696.0160985672095
  0
TEXT
  5
167
330
17
100
AcDbEntity
  8
ENGRAVE-LABEL
100
AcDbText
 10
821.9877566674785
 20
709.1122433325214
 30
0.0
 40
11.0
  1
04 2/2
 72
1
 11
821.9877566674785
 21
709.1122433325214
 31
0.0
100
AcDbText
 73
2
  0
LWPOLYLINE
  5
168
330
17
100
AcDbEntity
  8
CUT
100
AcDbPolyline
 90
2
 70
1
 10
1137.0
 20
787.5
 42
1.0
 10
982.0
 20
787.5
 42
1.0
  0
LWPOLYLINE
  5
169
330
17
100
AcDbEntity
  8
CUT
100
AcDbPolyline
 90
8
 70
1
 10
1019.1080251335609
 20
738.1984796906104
 42
2.414213562373095
 10
1023.6335085331548
 20
738.1984796906104
 10
1048.0994031622092
 20
762.6643743196648
 42
2.414213562373095
 10
1048.0994031622092
 20
767.1898577192587
 10
1039.1898577192587
 20
776.0994031622092
 42
2.414213562373095
 10
1034.6643743196648
 20
776.0994031622092
 10
1010.1984796906104
 20
751.6335085331548
 42
2.414213562373095
 10
1010.1984796906104
 20
747.1080251335609
  0
LWPOLYLINE
  5
16A
330
17
100
AcDbEntity
  8
CUT
100
AcDbPolyline
 90
8
 70
1
 10
1079.8101422807413
 20
798.9005968377908
 42
2.414213562373095
 10
1084.3356256803352
 20
798.9005968377908
 10
1108.8015203093896
 20
823.3664914668452
 42
2.414213562373095
 10
1108.8015203093896
 20
827.8919748664391
 10
1099.891974866439
 20
836.8015203093896
 42
2.414213562373095
 10
1095.3664914668452
 20
836.8015203093896
 10
1070.9005968377908
 20
812.3356256803352
 42
2.414213562373095
 10
1070.9005968377908
 20
807.8101422807413
  0
LWPOLYLINE
  5
16B
330
17
100
AcDbEntity
  8
CUT
100
AcDbPolyline
 90
8
 70
1
 10
1108.8015203093896
 20
747.1080251335609
 42
2.414213562373095
 10
1108.8015203093896
 20
751.6335085331548
 10
1084.3356256803352
 20
776.0994031622092
 42
2.414213562373095
 10
1079.8101422807413
 20
776.0994031622092
 10
1070.9005968377908
 20
767.1898577192587
 42
2.414213562373095
 10
1070.9005968377908
 20
762.6643743196648
 10
1095.3664914668452
 20
738.1984796906104
 42
2.414213562373095
 10
1099.891974866439
 20
738.1984796906104
  0
LWPOLYLINE
  5
16C
330
17
100
AcDbEntity
  8
CUT
100
AcDbPolyline
 90
8
 70
1
 10
1048.0994031622092
 20
807.8101422807413
 42
2.414213562373095
 10
1048.0994031622092
 20
812.3356256803352
 10
1023.6335085331548
 20
836.8015203093896
 42
2.414213562373095
 10
1019.1080251335609
 20
836.8015203093896
 10
1010.1984796906104
 20
827.8919748664391
 42
2.414213562373095
 10
1010.1984796906104
 20
823.3664914668452
 10
1034.6643743196648
 20
798.9005968377908
 42
2.414213562373095
 10
1039.1898577192587
 20
798.9005968377908
  0
TEXT
  5
16D
330
17
100
AcDbEntity
  8
ENGRAVE-LABEL
100
AcDbText
 10
1060.0742020093953
 20
838.6039788362001
 30
0.0
 40
11.0
  1
05 1/2
 72
1
 11
1060.0742020093953
 21
838.6039788362001
 31
0.0
100
AcDbText
 73
2
  0
LWPOLYLINE
  5
16E
330
17
100
AcDbEntity
  8
CUT
100
AcDbPolyline
 90
2
 70
1
 10
1245.0
 20
331.5
 42
1.0
 10
1090.0
 20
331.5
 42
1.0
  0
LWPOLYLINE
  5
16F
330
17
100
AcDbEntity
  8
CUT
100
AcDbPolyline
 90
8
 70
1
 10
1127.108025133561
 20
282.1984796906103
 42
2.414213562373095
 10
1131.6335085331548
 20
282.1984796906103
 10
1156.0994031622092
 20
306.6643743196649
 42
2.414213562373095
 10
1156.0994031622092
 20
311.1898577192588
 10
1147.1898577192587
 20
320.0994031622093
 42
2.414213562373095
 10
1142.6643743196648
 20
320.0994031622093
 10
1118.1984796906104
 20
295.6335085331547
 42
2.414213562373095
 10
1118.1984796906104
 20
291.10802513356083
  0
LWPOLYLINE
  5
170
330
17
100
AcDbEntity
  8
CUT
100
AcDbPolyline
 90
8
 70
1
 10
1187.8101422807413
 20
342.9005968377907
 42
2.414213562373095
 10
1192.3356256803352
 20
342.9005968377907
 10
1216.8015203093896
 20
367.3664914668453
 42
2.414213562373095
 10
1216.8015203093896
 20
371.89197486643917
 10
1207.891974866439
 20
380.8015203093897
 42
2.414213562373095
 10
1203.3664914668452
 20
380.8015203093897
 10
1178.9005968377908
 20
356.3356256803351
 42
2.414213562373095
 10
1178.9005968377908
 20
351.8101422807412
  0
LWPOLYLINE
  5
171
330
17
100
AcDbEntity
  8
CUT
100
AcDbPolyline
 90
8
 70
1
 10
1216.8015203093896
 20
291.10802513356083
 42
2.414213562373095
 10
1216.8015203093896
 20
295.6335085331547
 10
1192.3356256803352
 20
320.0994031622093
 42
2.414213562373095
 10
1187.8101422807413
 20
320.0994031622093
 10
1178.9005968377908
 20
311.1898577192588
 42
2.414213562373095
 10
1178.9005968377908
 20
306.6643743196649
 10
1203.3664914668452
 20
282.1984796906103
 42
2.414213562373095
 10
1207.891974866439
 20
282.1984796906103
  0
LWPOLYLINE
  5
172
330
17
100
AcDbEntity
  8
CUT
100
AcDbPolyline
 90
8
 70
1
 10
1156.0994031622092
 20
351.8101422807412
 42
2.414213562373095
 10
1156.0994031622092
 20
356.3356256803351
 10
1131.6335085331548
 20
380.8015203093897
 42
2.414213562373095
 10
1127.108025133561
 20
380.8015203093897
 10
1118.1984796906104
 20
371.89197486643917
 42
2.414213562373095
 10
1118.1984796906104
 20
367.3664914668453
 10
1142.6643743196648
 20
342.9005968377907
 42
2.414213562373095
 10
1147.1898577192587
 20
342.9005968377907
  0
TEXT
  5
173
330
17
100
AcDbEntity
  8
ENGRAVE-LABEL
100
AcDbText
 10
1168.0742020093953
 20
382.60397883620016
 30
0.0
 40
11.0
  1
05 2/2
 72
1
 11
1168.0742020093953
 21
382.60397883620016
 31
0.0
100
AcDbText
 73
2
  0
LWPOLYLINE
  5
174
330
17
100
AcDbEntity
  8
CUT
100
AcDbPolyline
 90
28
 70
1
 10
1268.0
 20
822.0
 10
1268.0
 20
832.8771213328486
 42
-2.414213562373095
 10
1271.2
 20
836.0771213328485
 10
1286.0
 20
836.0771213328485
 10
1286.0
 20
876.0771213328485
 10
1271.2
 20
876.0771213328485
 42
-2.414213562373095
 10
1268.0
 20
879.2771213328485
 10
1268.0
 20
889.5
 10
1199.2
 20
889.5
 42
-2.414213562373095
 10
1196.0
 20
892.7
 10
1196.0
 20
905.3
 42
-2.414213562373095
 10
1199.2
 20
908.5
 10
1268.0
 20
908.5
 10
1268.0
 20
918.7228786671515
 42
-2.414213562373095
 10
1271.2
 20
921.9228786671515
 10
1286.0
 20
921.9228786671515
 10
1286.0
 20
961.9228786671515
 10
1271.2
 20
961.9228786671515
 42
-2.414213562373095
 10
1268.0
 20
965.1228786671514
 10
1268.0
 20
976.0
 10
1124.0
 20
943.6
 10
1124.0
 20
933.1463431896302
 42
-2.414213562373095
 10
1120.8
 20
929.9463431896302
 10
1106.0
 20
929.9463431896302
 10
1106.0
 20
868.0536568103698
 10
1120.8
 20
868.0536568103698
 42
-2.414213562373095
 10
1124.0
 20
864.8536568103698
 10
1124.0
 20
854.4
  0
TEXT
  5
175
330
17
100
AcDbEntity
  8
ENGRAVE-LABEL
100
AcDbText
 10
1154.34375
 20
897.65625
 30
0.0
 40
9.0
  1
11 CORE-2B 1/2
 50
105.0
 72
1
 11
1154.34375
 21
897.65625
 31
0.0
100
AcDbText
 73
2
  0
LWPOLYLINE
  5
176
330
17
100
AcDbEntity
  8
CUT
100
AcDbPolyline
 90
28
 70
1
 10
1312.0
 20
658.0
 10
1312.0
 20
668.8771213328486
 42
-2.414213562373095
 10
1315.2
 20
672.0771213328485
 10
1330.0
 20
672.0771213328485
 10
1330.0
 20
712.0771213328485
 10
1315.2
 20
712.0771213328485
 42
-2.414213562373095
 10
1312.0
 20
715.2771213328485
 10
1312.0
 20
725.5
 10
1243.2
 20
725.5
 42
-2.414213562373095
 10
1240.0
 20
728.7
 10
1240.0
 20
741.3
 42
-2.414213562373095
 10
1243.2
 20
744.5
 10
1312.0
 20
744.5
 10
1312.0
 20
754.7228786671515
 42
-2.414213562373095
 10
1315.2
 20
757.9228786671515
 10
1330.0
 20
757.9228786671515
 10
1330.0
 20
797.9228786671515
 10
1315.2
 20
797.9228786671515
 42
-2.414213562373095
 10
1312.0
 20
801.1228786671514
 10
1312.0
 20
812.0
 10
1168.0
 20
779.6
 10
1168.0
 20
769.1463431896302
 42
-2.414213562373095
 10
1164.8
 20
765.9463431896302
 10
1150.0
 20
765.9463431896302
 10
1150.0
 20
704.0536568103698
 10
1164.8
 20
704.0536568103698
 42
-2.414213562373095
 10
1168.0
 20
700.8536568103698
 10
1168.0
 20
690.4
  0
TEXT
  5
177
330
17
100
AcDbEntity
  8
ENGRAVE-LABEL
100
AcDbText
 10
1198.34375
 20
733.65625
 30
0.0
 40
9.0
  1
11 CORE-2B 2/2
 50
105.0
 72
1
 11
1198.34375
 21
733.65625
 31
0.0
100
AcDbText
 73
2
  0
LWPOLYLINE
  5
178
330
17
100
AcDbEntity
  8
CUT
100
AcDbPolyline
 90
22
 70
1
 10
1364.0
 20
622.0
 10
1353.1228786671513
 20
622.0
 42
-2.414213562373095
 10
1349.9228786671515
 20
625.2
 10
1349.9228786671515
 20
640.0
 10
1309.9228786671515
 20
640.0
 10
1309.9228786671515
 20
625.2
 42
-2.414213562373095
 10
1306.7228786671515
 20
622.0
 10
1267.2771213328485
 20
622.0
 42
-2.414213562373095
 10
1264.0771213328485
 20
625.2
 10
1264.0771213328485
 20
640.0
 10
1224.0771213328485
 20
640.0
 10
1224.0771213328485
 20
625.2
 42
-2.414213562373095
 10
1220.8771213328484
 20
622.0
 10
1210.0
 20
622.0
 10
1242.4
 20
478.0
 10
1277.5
 20
478.0
 10
1277.5
 20
546.8
 42
-2.414213562373095
 10
1280.7
 20
550.0
 10
1293.3
 20
550.0
 42
-2.414213562373095
 10
1296.5
 20
546.8
 10
1296.5
 20
478.0
 10
1331.6
 20
478.0
  0
TEXT
  5
179
330
17
100
AcDbEntity
  8
ENGRAVE-LABEL
100
AcDbText
 10
1256.3203125
 20
583.6640625
 30
0.0
 40
9.0
  1
10 CORE-2A 1/2
 50
105.0
 72
1
 11
1256.3203125
 21
583.6640625
 31
0.0
100
AcDbText
 73
2
  0
LWPOLYLINE
  5
17A
330
17
100
AcDbEntity
  8
CUT
100
AcDbPolyline
 90
22
 70
1
 10
1380.0
 20
238.0
 10
1369.1228786671513
 20
238.0
 42
-2.414213562373095
 10
1365.9228786671515
 20
241.2
 10
1365.9228786671515
 20
256.0
 10
1325.9228786671515
 20
256.0
 10
1325.9228786671515
 20
241.2
 42
-2.414213562373095
 10
1322.7228786671515
 20
238.0
 10
1283.2771213328485
 20
238.0
 42
-2.414213562373095
 10
1280.0771213328485
 20
241.2
 10
1280.0771213328485
 20
256.0
 10
1240.0771213328485
 20
256.0
 10
1240.0771213328485
 20
241.2
 42
-2.414213562373095
 10
1236.8771213328484
 20
238.0
 10
1226.0
 20
238.0
 10
1258.4
 20
94.0
 10
1293.5
 20
94.0
 10
1293.5
 20
162.8
 42
-2.414213562373095
 10
1296.7
 20
166.0
 10
1309.3
 20
166.0
 42
-2.414213562373095
 10
1312.5
 20
162.8
 10
1312.5
 20
94.0
 10
1347.6
 20
94.0
  0
TEXT
  5
17B
330
17
100
AcDbEntity
  8
ENGRAVE-LABEL
100
AcDbText
 10
1333.6796875
 20
199.6640625
 30
0.0
 40
9.0
  1
10 CORE-2A 2/2
 50
75.0
 72
1
 11
1333.6796875
 21
199.6640625
 31
0.0
100
AcDbText
 73
2
  0
LWPOLYLINE
  5
17C
330
17
100
AcDbEntity
  8
CUT
100
AcDbPolyline
 90
2
 70
1
 10
100.1
 20
291.05
 42
1.0
 10
18.0
 20
291.05
 42
1.0
  0
LWPOLYLINE
  5
17D
330
17
100
AcDbEntity
  8
CUT
100
AcDbPolyline
 90
8
 70
1
 10
85.74069523438214
 20
273.2688502085683
 42
2.414213562373095
 10
85.74069523438214
 20
277.7943336081622
 10
45.794333608162255
 20
317.74069523438214
 42
2.414213562373095
 10
41.26885020856835
 20
317.74069523438214
 10
32.35930476561785
 20
308.83114979143164
 42
2.414213562373095
 10
32.35930476561785
 20
304.30566639183775
 10
72.30566639183775
 20
264.3593047656178
 42
2.414213562373095
 10
76.83114979143164
 20
264.3593047656178
  0
TEXT
  5
17E
330
17
100
AcDbEntity
  8
ENGRAVE-LABEL
100
AcDbText
 10
77.01657198534153
 20
309.01657198534156
 30
0.0
 40
9.0
  1
06 1/2
 50
135.0
 72
1
 11
77.01657198534153
 21
309.01657198534156
 31
0.0
100
AcDbText
 73
2
  0
LWPOLYLINE
  5
17F
330
17
100
AcDbEntity
  8
CUT
100
AcDbPolyline
 90
2
 70
1
 10
100.1
 20
1159.05
 42
1.0
 10
18.0
 20
1159.05
 42
1.0
  0
LWPOLYLINE
  5
180
330
17
100
AcDbEntity
  8
CUT
100
AcDbPolyline
 90
8
 70
1
 10
85.74069523438214
 20
1141.2688502085684
 42
2.414213562373095
 10
85.74069523438214
 20
1145.7943336081623
 10
45.794333608162255
 20
1185.7406952343822
 42
2.414213562373095
 10
41.26885020856835
 20
1185.7406952343822
 10
32.35930476561785
 20
1176.8311497914317
 42
2.414213562373095
 10
32.35930476561785
 20
1172.3056663918378
 10
72.30566639183775
 20
1132.359304765618
 42
2.414213562373095
 10
76.83114979143164
 20
1132.359304765618
  0
TEXT
  5
181
330
17
100
AcDbEntity
  8
ENGRAVE-LABEL
100
AcDbText
 10
41.08342801465853
 20
1141.0834280146587
 30
0.0
 40
9.0
  1
06 2/2
 50
135.0
 72
1
 11
41.08342801465853
 21
1141.0834280146587
 31
0.0
100
AcDbText
 73
2
  0
ENDSEC
  0
SECTION
  2
OBJECTS
  0
DICTIONARY
  5
A
330
0
100
AcDbDictionary
281
1
  3
ACAD_COLOR
350
B
  3
ACAD_GROUP
350
C
  3
ACAD_LAYOUT
350
D
  3
ACAD_MATERIAL
350
E
  3
ACAD_MLEADERSTYLE
350
F
  3
ACAD_MLINESTYLE
350
10
  3
ACAD_PLOTSETTINGS
350
11
  3
ACAD_PLOTSTYLENAME
350
12
  3
ACAD_SCALELIST
350
14
  3
ACAD_TABLESTYLE
350
15
  3
ACAD_VISUALSTYLE
350
16
  3
EZDXF_META
350
2D
  0
DICTIONARY
  5
B
330
A
100
AcDbDictionary
281
1
  0
DICTIONARY
  5
C
330
A
100
AcDbDictionary
281
1
  0
DICTIONARY
  5
D
330
A
100
AcDbDictionary
281
1
  3
Model
350
1A
  3
Layout1
350
1E
  0
DICTIONARY
  5
E
330
A
100
AcDbDictionary
281
1
  3
ByBlock
350
1F
  3
ByLayer
350
20
  3
Global
350
21
  0
DICTIONARY
  5
F
330
A
100
AcDbDictionary
281
1
  3
Standard
350
2C
  0
DICTIONARY
  5
10
330
A
100
AcDbDictionary
281
1
  3
Standard
350
22
  0
DICTIONARY
  5
11
330
A
100
AcDbDictionary
281
1
  0
ACDBDICTIONARYWDFLT
  5
12
330
A
100
AcDbDictionary
281
1
  3
Normal
350
13
100
AcDbDictionaryWithDefault
340
13
  0
ACDBPLACEHOLDER
  5
13
330
12
  0
DICTIONARY
  5
14
330
A
100
AcDbDictionary
281
1
  0
DICTIONARY
  5
15
330
A
100
AcDbDictionary
281
1
  0
DICTIONARY
  5
16
330
A
100
AcDbDictionary
281
1
  3
2dWireframe
350
5A
  3
Basic
350
5B
  3
Brighten
350
5C
  3
ColorChange
350
5D
  3
Conceptual
350
5E
  3
Dim
350
5F
  3
EdgeColorOff
350
60
  3
Facepattern
350
61
  3
Flat
350
62
  3
FlatWithEdges
350
63
  3
Gouraud
350
64
  3
GouraudWithEdges
350
65
  3
Hidden
350
66
  3
JitterOff
350
67
  3
Linepattern
350
68
  3
Modeling
350
69
  3
OverhangOff
350
6A
  3
Realistic
350
6B
  3
Shaded
350
6C
  3
Shaded with edges
350
6D
  3
Shades of Gray
350
6E
  3
Sketchy
350
6F
  3
Thicken
350
70
  3
Wireframe
350
71
  3
X-Ray
350
72
  0
LAYOUT
  5
1A
330
D
100
AcDbPlotSettings
  1

  4
A3
  6

 40
7.5
 41
20.0
 42
7.5
 43
20.0
 44
420.0
 45
297.0
 46
0.0
 47
0.0
 48
0.0
 49
0.0
140
0.0
141
0.0
142
1.0
143
1.0
 70
1024
 72
1
 73
0
 74
5
  7

 75
16
 76
0
 77
2
 78
300
147
1.0
148
0.0
149
0.0
100
AcDbLayout
  1
Model
 70
1
 71
0
 10
0.0
 20
0.0
 11
420.0
 21
297.0
 12
0.0
 22
0.0
 32
0.0
 14
1e+20
 24
1e+20
 34
1e+20
 15
-1e+20
 25
-1e+20
 35
-1e+20
146
0.0
 13
0.0
 23
0.0
 33
0.0
 16
1.0
 26
0.0
 36
0.0
 17
0.0
 27
1.0
 37
0.0
 76
1
330
17
  0
LAYOUT
  5
1E
330
D
100
AcDbPlotSettings
  1

  4
A3
  6

 40
7.5
 41
20.0
 42
7.5
 43
20.0
 44
420.0
 45
297.0
 46
0.0
 47
0.0
 48
0.0
 49
0.0
140
0.0
141
0.0
142
1.0
143
1.0
 70
0
 72
1
 73
0
 74
5
  7

 75
16
 76
0
 77
2
 78
300
147
1.0
148
0.0
149
0.0
100
AcDbLayout
  1
Layout1
 70
1
 71
1
 10
0.0
 20
0.0
 11
420.0
 21
297.0
 12
0.0
 22
0.0
 32
0.0
 14
1e+20
 24
1e+20
 34
1e+20
 15
-1e+20
 25
-1e+20
 35
-1e+20
146
0.0
 13
0.0
 23
0.0
 33
0.0
 16
1.0
 26
0.0
 36
0.0
 17
0.0
 27
1.0
 37
0.0
 76
1
330
1B
  0
MATERIAL
  5
1F
102
{ACAD_REACTORS
330
E
102
}
330
E
100
AcDbMaterial
  1
ByBlock
  2

 70
0
 40
1.0
 71
1
 41
1.0
 91
-1023410177
 42
1.0
 72
1
  3

 73
1
 74
1
 75
1
 44
0.5
 73
0
 45
1.0
 46
1.0
 77
1
  4

 78
1
 79
1
170
1
 48
1.0
171
1
  6

172
1
173
1
174
1
140
1.0
141
1.0
175
1
  7

176
1
177
1
178
1
143
1.0
179
1
  8

270
1
271
1
272
1
145
1.0
146
1.0
273
1
  9

274
1
275
1
276
1
 42
1.0
 72
1
  3

 73
1
 74
1
 75
1
 94
63
  0
MATERIAL
  5
20
102
{ACAD_REACTORS
330
E
102
}
330
E
100
AcDbMaterial
  1
ByLayer
  2

 70
0
 40
1.0
 71
1
 41
1.0
 91
-1023410177
 42
1.0
 72
1
  3

 73
1
 74
1
 75
1
 44
0.5
 73
0
 45
1.0
 46
1.0
 77
1
  4

 78
1
 79
1
170
1
 48
1.0
171
1
  6

172
1
173
1
174
1
140
1.0
141
1.0
175
1
  7

176
1
177
1
178
1
143
1.0
179
1
  8

270
1
271
1
272
1
145
1.0
146
1.0
273
1
  9

274
1
275
1
276
1
 42
1.0
 72
1
  3

 73
1
 74
1
 75
1
 94
63
  0
MATERIAL
  5
21
102
{ACAD_REACTORS
330
E
102
}
330
E
100
AcDbMaterial
  1
Global
  2

 70
0
 40
1.0
 71
1
 41
1.0
 91
-1023410177
 42
1.0
 72
1
  3

 73
1
 74
1
 75
1
 44
0.5
 73
0
 45
1.0
 46
1.0
 77
1
  4

 78
1
 79
1
170
1
 48
1.0
171
1
  6

172
1
173
1
174
1
140
1.0
141
1.0
175
1
  7

176
1
177
1
178
1
143
1.0
179
1
  8

270
1
271
1
272
1
145
1.0
146
1.0
273
1
  9

274
1
275
1
276
1
 42
1.0
 72
1
  3

 73
1
 74
1
 75
1
 94
63
  0
MLINESTYLE
  5
22
102
{ACAD_REACTORS
330
10
102
}
330
10
100
AcDbMlineStyle
  2
Standard
 70
0
  3

 62
256
 51
90.0
 52
90.0
 71
2
 49
0.5
 62
256
  6
BYLAYER
 49
-0.5
 62
256
  6
BYLAYER
  0
MLEADERSTYLE
  5
2C
102
{ACAD_REACTORS
330
F
102
}
330
F
100
AcDbMLeaderStyle
179
2
170
2
171
1
172
0
 90
2
 40
0.0
 41
0.0
173
1
 91
-1056964608
 92
-2
290
1
 42
2.0
291
1
 43
8.0
  3
Standard
 44
4.0
300

342
29
174
1
175
1
176
0
178
1
 93
-1056964608
 45
4.0
292
0
297
0
 46
4.0
 94
-1056964608
 47
1.0
 49
1.0
140
1.0
294
1
141
0.0
177
0
142
1.0
295
0
296
0
143
3.75
271
0
272
9
273
9
  0
DICTIONARY
  5
2D
330
A
100
AcDbDictionary
280
1
281
1
  3
CREATED_BY_EZDXF
350
2E
  3
WRITTEN_BY_EZDXF
350
184
  0
DICTIONARYVAR
  5
2E
330
2D
100
DictionaryVariables
280
0
  1
1.4.4 @ 2026-09-27T13:16:43.126542+00:00
  0
VISUALSTYLE
  5
5A
102
{ACAD_REACTORS
330
16
102
}
330
16
100
AcDbVisualStyle
  2
2dWireframe
 70
4
 90
0
 40
0.6
 62
7
290
0
291
0
  0
VISUALSTYLE
  5
5B
102
{ACAD_REACTORS
330
16
102
}
330
16
100
AcDbVisualStyle
  2
Basic
 70
7
 90
1
 40
0.6
 62
7
290
0
291
1
  0
VISUALSTYLE
  5
5C
102
{ACAD_REACTORS
330
16
102
}
330
16
100
AcDbVisualStyle
  2
Brighten
 70
12
 90
2
 40
0.6
 62
7
290
0
291
1
  0
VISUALSTYLE
  5
5D
102
{ACAD_REACTORS
330
16
102
}
330
16
100
AcDbVisualStyle
  2
ColorChange
 70
16
 90
2
 40
0.6
 62
8
290
0
291
1
  0
VISUALSTYLE
  5
5E
102
{ACAD_REACTORS
330
16
102
}
330
16
100
AcDbVisualStyle
  2
Conceptual
 70
9
 90
3
 40
0.6
 62
7
290
0
291
0
  0
VISUALSTYLE
  5
5F
102
{ACAD_REACTORS
330
16
102
}
330
16
100
AcDbVisualStyle
  2
Dim
 70
11
 90
2
 40
0.6
 62
7
290
0
291
1
  0
VISUALSTYLE
  5
60
102
{ACAD_REACTORS
330
16
102
}
330
16
100
AcDbVisualStyle
  2
EdgeColorOff
 70
22
 90
2
 40
0.6
 62
7
290
0
291
1
  0
VISUALSTYLE
  5
61
102
{ACAD_REACTORS
330
16
102
}
330
16
100
AcDbVisualStyle
  2
Facepattern
 70
15
 90
2
 40
0.6
 62
7
290
0
291
1
  0
VISUALSTYLE
  5
62
102
{ACAD_REACTORS
330
16
102
}
330
16
100
AcDbVisualStyle
  2
Flat
 70
0
 90
2
 40
0.6
 62
7
290
0
291
1
  0
VISUALSTYLE
  5
63
102
{ACAD_REACTORS
330
16
102
}
330
16
100
AcDbVisualStyle
  2
FlatWithEdges
 70
1
 90
2
 40
0.6
 62
7
290
0
291
1
  0
VISUALSTYLE
  5
64
102
{ACAD_REACTORS
330
16
102
}
330
16
100
AcDbVisualStyle
  2
Gouraud
 70
2
 90
2
 40
0.6
 62
7
290
0
291
1
  0
VISUALSTYLE
  5
65
102
{ACAD_REACTORS
330
16
102
}
330
16
100
AcDbVisualStyle
  2
GouraudWithEdges
 70
3
 90
2
 40
0.6
 62
7
290
0
291
1
  0
VISUALSTYLE
  5
66
102
{ACAD_REACTORS
330
16
102
}
330
16
100
AcDbVisualStyle
  2
Hidden
 70
6
 90
1
 40
0.6
 62
7
290
0
291
0
  0
VISUALSTYLE
  5
67
102
{ACAD_REACTORS
330
16
102
}
330
16
100
AcDbVisualStyle
  2
JitterOff
 70
20
 90
2
 40
0.6
 62
7
290
0
291
1
  0
VISUALSTYLE
  5
68
102
{ACAD_REACTORS
330
16
102
}
330
16
100
AcDbVisualStyle
  2
Linepattern
 70
14
 90
2
 40
0.6
 62
7
290
0
291
1
  0
VISUALSTYLE
  5
69
102
{ACAD_REACTORS
330
16
102
}
330
16
100
AcDbVisualStyle
  2
Modeling
 70
10
 90
2
 40
0.6
 62
7
290
0
291
0
  0
VISUALSTYLE
  5
6A
102
{ACAD_REACTORS
330
16
102
}
330
16
100
AcDbVisualStyle
  2
OverhangOff
 70
21
 90
2
 40
0.6
 62
7
290
0
291
1
  0
VISUALSTYLE
  5
6B
102
{ACAD_REACTORS
330
16
102
}
330
16
100
AcDbVisualStyle
  2
Realistic
 70
8
 90
2
 40
0.6
 62
7
290
0
291
0
  0
VISUALSTYLE
  5
6C
102
{ACAD_REACTORS
330
16
102
}
330
16
100
AcDbVisualStyle
  2
Shaded
 70
27
 90
2
 40
0.6
 62
7
290
0
291
0
  0
VISUALSTYLE
  5
6D
102
{ACAD_REACTORS
330
16
102
}
330
16
100
AcDbVisualStyle
  2
Shaded with edges
 70
26
 90
2
 40
0.6
 62
7
290
0
291
0
  0
VISUALSTYLE
  5
6E
102
{ACAD_REACTORS
330
16
102
}
330
16
100
AcDbVisualStyle
  2
Shades of Gray
 70
23
 90
2
 40
0.6
 62
7
290
0
291
0
  0
VISUALSTYLE
  5
6F
102
{ACAD_REACTORS
330
16
102
}
330
16
100
AcDbVisualStyle
  2
Sketchy
 70
24
 90
1
 40
0.6
 62
7
290
0
291
0
  0
VISUALSTYLE
  5
70
102
{ACAD_REACTORS
330
16
102
}
330
16
100
AcDbVisualStyle
  2
Thicken
 70
13
 90
2
 40
0.6
 62
7
290
0
291
1
  0
VISUALSTYLE
  5
71
102
{ACAD_REACTORS
330
16
102
}
330
16
100
AcDbVisualStyle
  2
Wireframe
 70
5
 90
0
 40
0.6
 62
7
290
0
291
0
  0
VISUALSTYLE
  5
72
102
{ACAD_REACTORS
330
16
102
}
330
16
100
AcDbVisualStyle
  2
X-Ray
 70
25
 90
2
 40
0.5
 62
7
290
0
291
0
  0
DICTIONARYVAR
  5
184
330
2D
100
DictionaryVariables
280
0
  1
1.4.4 @ 2026-09-27T13:16:46.790409+00:00
  0
ENDSEC
  0
EOF
