  0
SECTION
  2
HEADER
  9
$ACADVER
  1
AC1024
  9
$ACADMAINTVER
 70
6
  9
$DWGCODEPAGE
  3
ANSI_1252
  9
$LASTSAVEDBY
  1
ezdxf
  9
$INSBASE
 10
0.0
 20
0.0
 30
0.0
  9
$EXTMIN
 10
1e+20
 20
1e+20
 30
1e+20
  9
$EXTMAX
 10
-1e+20
 20
-1e+20
 30
-1e+20
  9
$LIMMIN
 10
0.0
 20
0.0
  9
$LIMMAX
 10
420.0
 20
297.0
  9
$ORTHOMODE
 70
0
  9
$REGENMODE
 70
1
  9
$FILLMODE
 70
1
  9
$QTEXTMODE
 70
0
  9
$MIRRTEXT
 70
1
  9
$LTSCALE
 40
1.0
  9
$ATTMODE
 70
1
  9
$TEXTSIZE
 40
2.5
  9
$TRACEWID
 40
1.0
  9
$TEXTSTYLE
  7
Standard
  9
$CLAYER
  8
0
  9
$CELTYPE
  6
ByLayer
  9
$CECOLOR
 62
256
  9
$CELTSCALE
 40
1.0
  9
$DISPSILH
 70
0
  9
$DIMSCALE
 40
1.0
  9
$DIMASZ
 40
2.5
  9
$DIMEXO
 40
0.625
  9
$DIMDLI
 40
3.75
  9
$DIMRND
 40
0.0
  9
$DIMDLE
 40
0.0
  9
$DIMEXE
 40
1.25
  9
$DIMTP
 40
0.0
  9
$DIMTM
 40
0.0
  9
$DIMTXT
 40
2.5
  9
$DIMCEN
 40
2.5
  9
$DIMTSZ
 40
0.0
  9
$DIMTOL
 70
0
  9
$DIMLIM
 70
0
  9
$DIMTIH
 70
0
  9
$DIMTOH
 70
0
  9
$DIMSE1
 70
0
  9
$DIMSE2
 70
0
  9
$DIMTAD
 70
1
  9
$DIMZIN
 70
8
  9
$DIMBLK
  1

  9
$DIMASO
 70
1
  9
$DIMSHO
 70
1
  9
$DIMPOST
  1

  9
$DIMAPOST
  1

  9
$DIMALT
 70
0
  9
$DIMALTD
 70
3
  9
$DIMALTF
 40
0.03937007874
  9
$DIMLFAC
 40
1.0
  9
$DIMTOFL
 70
1
  9
$DIMTVP
 40
0.0
  9
$DIMTIX
 70
0
  9
$DIMSOXD
 70
0
  9
$DIMSAH
 70
0
  9
$DIMBLK1
  1

  9
$DIMBLK2
  1

  9
$DIMSTYLE
  2
ISO-25
  9
$DIMCLRD
 70
0
  9
$DIMCLRE
 70
0
  9
$DIMCLRT
 70
0
  9
$DIMTFAC
 40
1.0
  9
$DIMGAP
 40
0.625
  9
$DIMJUST
 70
0
  9
$DIMSD1
 70
0
  9
$DIMSD2
 70
0
  9
$DIMTOLJ
 70
0
  9
$DIMTZIN
 70
8
  9
$DIMALTZ
 70
0
  9
$DIMALTTZ
 70
0
  9
$DIMUPT
 70
0
  9
$DIMDEC
 70
2
  9
$DIMTDEC
 70
2
  9
$DIMALTU
 70
2
  9
$DIMALTTD
 70
3
  9
$DIMTXSTY
  7
Standard
  9
$DIMAUNIT
 70
0
  9
$DIMADEC
 70
0
  9
$DIMALTRND
 40
0.0
  9
$DIMAZIN
 70
0
  9
$DIMDSEP
 70
44
  9
$DIMATFIT
 70
3
  9
$DIMFRAC
 70
0
  9
$DIMLDRBLK
  1

  9
$DIMLUNIT
 70
2
  9
$DIMLWD
 70
-2
  9
$DIMLWE
 70
-2
  9
$DIMTMOVE
 70
0
  9
$DIMFXL
 40
1.0
  9
$DIMFXLON
 70
0
  9
$DIMJOGANG
 40
0.785398163397
  9
$DIMTFILL
 70
0
  9
$DIMTFILLCLR
 70
0
  9
$DIMARCSYM
 70
0
  9
$DIMLTYPE
  6

  9
$DIMLTEX1
  6

  9
$DIMLTEX2
  6

  9
$DIMTXTDIRECTION
 70
0
  9
$LUNITS
 70
2
  9
$LUPREC
 70
4
  9
$SKETCHINC
 40
1.0
  9
$FILLETRAD
 40
10.0
  9
$AUNITS
 70
0
  9
$AUPREC
 70
2
  9
$MENU
  1
.
  9
$ELEVATION
 40
0.0
  9
$PELEVATION
 40
0.0
  9
$THICKNESS
 40
0.0
  9
$LIMCHECK
 70
0
  9
$CHAMFERA
 40
0.0
  9
$CHAMFERB
 40
0.0
  9
$CHAMFERC
 40
0.0
  9
$CHAMFERD
 40
0.0
  9
$SKPOLY
 70
0
  9
$TDCREATE
 40
2461311.5869444446
  9
$TDUCREATE
 40
2458532.153996898
  9
$TDUPDATE
 40
2461311.587013889
  9
$TDUUPDATE
 40
2458532.1544311
  9
$TDINDWG
 40
0.0
  9
$TDUSRTIMER
 40
0.0
  9
$USRTIMER
 70
1
  9
$ANGBASE
 50
0.0
  9
$ANGDIR
 70
0
  9
$PDMODE
 70
0
  9
$PDSIZE
 40
0.0
  9
$PLINEWID
 40
0.0
  9
$SPLFRAME
 70
0
  9
$SPLINETYPE
 70
6
  9
$SPLINESEGS
 70
8
  9
$HANDSEED
  5
180
  9
$SURFTAB1
 70
6
  9
$SURFTAB2
 70
6
  9
$SURFTYPE
 70
6
  9
$SURFU
 70
6
  9
$SURFV
 70
6
  9
$UCSBASE
  2

  9
$UCSNAME
  2

  9
$UCSORG
 10
0.0
 20
0.0
 30
0.0
  9
$UCSXDIR
 10
1.0
 20
0.0
 30
0.0
  9
$UCSYDIR
 10
0.0
 20
1.0
 30
0.0
  9
$UCSORTHOREF
  2

  9
$UCSORTHOVIEW
 70
0
  9
$UCSORGTOP
 10
0.0
 20
0.0
 30
0.0
  9
$UCSORGBOTTOM
 10
0.0
 20
0.0
 30
0.0
  9
$UCSORGLEFT
 10
0.0
 20
0.0
 30
0.0
  9
$UCSORGRIGHT
 10
0.0
 20
0.0
 30
0.0
  9
$UCSORGFRONT
 10
0.0
 20
0.0
 30
0.0
  9
$UCSORGBACK
 10
0.0
 20
0.0
 30
0.0
  9
$PUCSBASE
  2

  9
$PUCSNAME
  2

  9
$PUCSORG
 10
0.0
 20
0.0
 30
0.0
  9
$PUCSXDIR
 10
1.0
 20
0.0
 30
0.0
  9
$PUCSYDIR
 10
0.0
 20
1.0
 30
0.0
  9
$PUCSORTHOREF
  2

  9
$PUCSORTHOVIEW
 70
0
  9
$PUCSORGTOP
 10
0.0
 20
0.0
 30
0.0
  9
$PUCSORGBOTTOM
 10
0.0
 20
0.0
 30
0.0
  9
$PUCSORGLEFT
 10
0.0
 20
0.0
 30
0.0
  9
$PUCSORGRIGHT
 10
0.0
 20
0.0
 30
0.0
  9
$PUCSORGFRONT
 10
0.0
 20
0.0
 30
0.0
  9
$PUCSORGBACK
 10
0.0
 20
0.0
 30
0.0
  9
$USERI1
 70
0
  9
$USERI2
 70
0
  9
$USERI3
 70
0
  9
$USERI4
 70
0
  9
$USERI5
 70
0
  9
$USERR1
 40
0.0
  9
$USERR2
 40
0.0
  9
$USERR3
 40
0.0
  9
$USERR4
 40
0.0
  9
$USERR5
 40
0.0
  9
$WORLDVIEW
 70
1
  9
$SHADEDGE
 70
3
  9
$SHADEDIF
 70
70
  9
$TILEMODE
 70
1
  9
$MAXACTVP
 70
64
  9
$PINSBASE
 10
0.0
 20
0.0
 30
0.0
  9
$PLIMCHECK
 70
0
  9
$PEXTMIN
 10
1e+20
 20
1e+20
 30
1e+20
  9
$PEXTMAX
 10
-1e+20
 20
-1e+20
 30
-1e+20
  9
$PLIMMIN
 10
0.0
 20
0.0
  9
$PLIMMAX
 10
420.0
 20
297.0
  9
$UNITMODE
 70
0
  9
$VISRETAIN
 70
1
  9
$PLINEGEN
 70
0
  9
$PSLTSCALE
 70
1
  9
$TREEDEPTH
 70
3020
  9
$CMLSTYLE
  2
Standard
  9
$CMLJUST
 70
0
  9
$CMLSCALE
 40
20.0
  9
$PROXYGRAPHICS
 70
1
  9
$MEASUREMENT
 70
1
  9
$CELWEIGHT
370
-1
  9
$ENDCAPS
280
0
  9
$JOINSTYLE
280
0
  9
$LWDISPLAY
290
0
  9
$INSUNITS
 70
4
  9
$HYPERLINKBASE
  1

  9
$STYLESHEET
  1

  9
$XEDIT
290
1
  9
$CEPSNTYPE
380
0
  9
$PSTYLEMODE
290
1
  9
$FINGERPRINTGUID
  2
{4C25F64D-7498-4B61-8734-E0EA682260CD}
  9
$VERSIONGUID
  2
{E9B6DE13-A9C3-4971-907E-580D19AA1DDF}
  9
$EXTNAMES
290
1
  9
$PSVPSCALE
 40
0.0
  9
$OLESTARTUP
290
0
  9
$SORTENTS
280
127
  9
$INDEXCTL
280
0
  9
$HIDETEXT
280
1
  9
$XCLIPFRAME
280
1
  9
$HALOGAP
280
0
  9
$OBSCOLOR
 70
257
  9
$OBSLTYPE
280
0
  9
$INTERSECTIONDISPLAY
280
0
  9
$INTERSECTIONCOLOR
 70
257
  9
$DIMASSOC
280
2
  9
$PROJECTNAME
  1

  9
$CAMERADISPLAY
290
0
  9
$LENSLENGTH
 40
50.0
  9
$CAMERAHEIGHT
 40
0.0
  9
$STEPSPERSEC
 40
24.0
  9
$STEPSIZE
 40
100.0
  9
$3DDWFPREC
 40
2.0
  9
$PSOLWIDTH
 40
0.005
  9
$PSOLHEIGHT
 40
0.08
  9
$LOFTANG1
 40
1.570796326795
  9
$LOFTANG2
 40
1.570796326795
  9
$LOFTMAG1
 40
0.0
  9
$LOFTMAG2
 40
0.0
  9
$LOFTPARAM
 70
7
  9
$LOFTNORMALS
280
1
  9
$LATITUDE
 40
37.795
  9
$LONGITUDE
 40
-122.394
  9
$NORTHDIRECTION
 40
0.0
  9
$TIMEZONE
 70
-8000
  9
$LIGHTGLYPHDISPLAY
280
1
  9
$TILEMODELIGHTSYNCH
280
1
  9
$CMATERIAL
347
20
  9
$SOLIDHIST
280
0
  9
$SHOWHIST
280
1
  9
$DWFFRAME
280
2
  9
$DGNFRAME
280
2
  9
$REALWORLDSCALE
290
1
  9
$INTERFERECOLOR
 62
256
  9
$CSHADOW
280
0
  9
$SHADOWPLANELOCATION
 40
0.0
  0
ENDSEC
  0
SECTION
  2
CLASSES
  0
CLASS
  1
ACDBDICTIONARYWDFLT
  2
AcDbDictionaryWithDefault
  3
ObjectDBX Classes
 90
0
 91
0
280
0
281
0
  0
CLASS
  1
SUN
  2
AcDbSun
  3
SCENEOE
 90
1153
 91
0
280
0
281
0
  0
CLASS
  1
VISUALSTYLE
  2
AcDbVisualStyle
  3
ObjectDBX Classes
 90
4095
 91
0
280
0
281
0
  0
CLASS
  1
MATERIAL
  2
AcDbMaterial
  3
ObjectDBX Classes
 90
1153
 91
0
280
0
281
0
  0
CLASS
  1
SCALE
  2
AcDbScale
  3
ObjectDBX Classes
 90
1153
 91
0
280
0
281
0
  0
CLASS
  1
TABLESTYLE
  2
AcDbTableStyle
  3
ObjectDBX Classes
 90
4095
 91
0
280
0
281
0
  0
CLASS
  1
MLEADERSTYLE
  2
AcDbMLeaderStyle
  3
ACDB_MLEADERSTYLE_CLASS
 90
4095
 91
0
280
0
281
0
  0
CLASS
  1
DICTIONARYVAR
  2
AcDbDictionaryVar
  3
ObjectDBX Classes
 90
0
 91
0
280
0
281
0
  0
CLASS
  1
CELLSTYLEMAP
  2
AcDbCellStyleMap
  3
ObjectDBX Classes
 90
1152
 91
0
280
0
281
0
  0
CLASS
  1
MENTALRAYRENDERSETTINGS
  2
AcDbMentalRayRenderSettings
  3
SCENEOE
 90
1024
 91
0
280
0
281
0
  0
CLASS
  1
ACDBDETAILVIEWSTYLE
  2
AcDbDetailViewStyle
  3
ObjectDBX Classes
 90
1025
 91
0
280
0
281
0
  0
CLASS
  1
ACDBSECTIONVIEWSTYLE
  2
AcDbSectionViewStyle
  3
ObjectDBX Classes
 90
1025
 91
0
280
0
281
0
  0
CLASS
  1
RASTERVARIABLES
  2
AcDbRasterVariables
  3
ISM
 90
0
 91
0
280
0
281
0
  0
CLASS
  1
LAYOUT
  2
AcDbLayout
  3
ObjectDBX Classes
 90
0
 91
0
280
0
281
0
  0
CLASS
  1
ACDBPLACEHOLDER
  2
AcDbPlaceHolder
  3
ObjectDBX Classes
 90
0
 91
0
280
0
281
0
  0
ENDSEC
  0
SECTION
  2
TABLES
  0
TABLE
  2
VPORT
  5
8
330
0
100
AcDbSymbolTable
 70
1
  0
VPORT
  5
23
330
8
100
AcDbSymbolTableRecord
100
AcDbViewportTableRecord
  2
*Active
 70
0
 10
0.0
 20
0.0
 11
1.0
 21
1.0
 12
0.0
 22
0.0
 13
0.0
 23
0.0
 14
0.5
 24
0.5
 15
0.5
 25
0.5
 16
0.0
 26
0.0
 36
1.0
 17
0.0
 27
0.0
 37
0.0
 40
1000.0
 41
1.34
 42
50.0
 43
0.0
 44
0.0
 50
0.0
 51
0.0
 71
0
 72
1000
 73
1
 74
3
 75
0
 76
0
 77
0
 78
0
281
0
 65
0
146
0.0
  0
ENDTAB
  0
TABLE
  2
LTYPE
  5
2
330
0
100
AcDbSymbolTable
 70
3
  0
LTYPE
  5
24
330
2
100
AcDbSymbolTableRecord
100
AcDbLinetypeTableRecord
  2
ByBlock
 70
0
  3

 72
65
 73
0
 40
0.0
  0
LTYPE
  5
25
330
2
100
AcDbSymbolTableRecord
100
AcDbLinetypeTableRecord
  2
ByLayer
 70
0
  3

 72
65
 73
0
 40
0.0
  0
LTYPE
  5
26
330
2
100
AcDbSymbolTableRecord
100
AcDbLinetypeTableRecord
  2
Continuous
 70
0
  3

 72
65
 73
0
 40
0.0
  0
ENDTAB
  0
TABLE
  2
LAYER
  5
1
330
0
100
AcDbSymbolTable
 70
5
  0
LAYER
  5
27
330
1
100
AcDbSymbolTableRecord
100
AcDbLayerTableRecord
  2
0
 70
0
 62
7
  6
Continuous
370
-3
390
13
347
21
  0
LAYER
  5
28
330
1
100
AcDbSymbolTableRecord
100
AcDbLayerTableRecord
  2
Defpoints
 70
0
 62
7
  6
Continuous
290
0
370
-3
390
13
347
21
  0
LAYER
  5
2F
330
1
100
AcDbSymbolTableRecord
100
AcDbLayerTableRecord
  2
CUT
 70
0
 62
1
  6
Continuous
370
-3
390
13
347
21
  0
LAYER
  5
30
330
1
100
AcDbSymbolTableRecord
100
AcDbLayerTableRecord
  2
POCKET-KERF-15.5
 70
0
 62
5
  6
Continuous
370
-3
390
13
347
21
  0
LAYER
  5
31
330
1
100
AcDbSymbolTableRecord
100
AcDbLayerTableRecord
  2
BOARD-2440x1220
 70
0
 62
8
  6
Continuous
370
-3
390
13
347
21
  0
ENDTAB
  0
TABLE
  2
STYLE
  5
5
330
0
100
AcDbSymbolTable
 70
1
  0
STYLE
  5
29
330
5
100
AcDbSymbolTableRecord
100
AcDbTextStyleTableRecord
  2
Standard
 70
0
 40
0.0
 41
1.0
 50
0.0
 71
0
 42
2.5
  3
txt
  4

  0
ENDTAB
  0
TABLE
  2
VIEW
  5
7
330
0
100
AcDbSymbolTable
 70
0
  0
ENDTAB
  0
TABLE
  2
UCS
  5
6
330
0
100
AcDbSymbolTable
 70
0
  0
ENDTAB
  0
TABLE
  2
APPID
  5
3
330
0
100
AcDbSymbolTable
 70
3
  0
APPID
  5
2A
330
3
100
AcDbSymbolTableRecord
100
AcDbRegAppTableRecord
  2
ACAD
 70
0
  0
APPID
  5
17D
330
3
100
AcDbSymbolTableRecord
100
AcDbRegAppTableRecord
  2
HATCHBACKGROUNDCOLOR
 70
0
  0
APPID
  5
17E
330
3
100
AcDbSymbolTableRecord
100
AcDbRegAppTableRecord
  2
EZDXF
 70
0
  0
ENDTAB
  0
TABLE
  2
DIMSTYLE
  5
4
330
0
100
AcDbSymbolTable
 70
1
100
AcDbDimStyleTable
  0
DIMSTYLE
105
2B
330
4
100
AcDbSymbolTableRecord
100
AcDbDimStyleTableRecord
  2
Standard
 70
0
 40
1.0
 41
2.5
 42
0.625
 43
3.75
 44
1.25
 45
0.0
 46
0.0
 47
0.0
 48
0.0
 49
2.5
140
2.5
141
2.5
142
0.0
143
0.03937007874
144
1.0
145
0.0
146
1.0
147
0.625
148
0.0
 69
0
 70
0
 71
0
 72
0
 73
0
 74
0
 75
0
 76
0
 77
1
 78
8
 79
3
170
0
171
3
172
1
173
0
174
0
175
0
176
0
177
0
178
0
179
2
271
2
272
2
273
2
274
3
275
0
276
0
277
2
278
44
279
0
280
0
281
0
282
0
283
0
284
8
285
0
286
0
288
0
289
3
290
0
371
-2
372
-2
  0
ENDTAB
  0
TABLE
  2
BLOCK_RECORD
  5
9
330
0
100
AcDbSymbolTable
 70
2
  0
BLOCK_RECORD
  5
17
330
9
100
AcDbSymbolTableRecord
100
AcDbBlockTableRecord
  2
*Model_Space
340
1A
 70
0
280
1
281
0
  0
BLOCK_RECORD
  5
1B
330
9
100
AcDbSymbolTableRecord
100
AcDbBlockTableRecord
  2
*Paper_Space
340
1E
 70
0
280
1
281
0
  0
ENDTAB
  0
ENDSEC
  0
SECTION
  2
BLOCKS
  0
BLOCK
  5
18
330
17
100
AcDbEntity
  8
0
100
AcDbBlockBegin
  2
*Model_Space
 70
0
 10
0.0
 20
0.0
 30
0.0
  3
*Model_Space
  1

  0
ENDBLK
  5
19
330
17
100
AcDbEntity
  8
0
100
AcDbBlockEnd
  0
BLOCK
  5
1C
330
1B
100
AcDbEntity
  8
0
100
AcDbBlockBegin
  2
*Paper_Space
 70
0
 10
0.0
 20
0.0
 30
0.0
  3
*Paper_Space
  1

  0
ENDBLK
  5
1D
330
1B
100
AcDbEntity
  8
0
100
AcDbBlockEnd
  0
ENDSEC
  0
SECTION
  2
ENTITIES
  0
LWPOLYLINE
  5
32
330
17
100
AcDbEntity
  8
BOARD-2440x1220
100
AcDbPolyline
 90
4
 70
1
 10
0.0
 20
0.0
 10
2440.0
 20
0.0
 10
2440.0
 20
1220.0
 10
0.0
 20
1220.0
  0
LWPOLYLINE
  5
33
330
17
100
AcDbEntity
  8
CUT
100
AcDbPolyline
 90
4
 70
1
 10
744.058667101659
 20
18.0
 10
887.5313378462984
 20
191.97081004984813
 42
0.3591568323270878
 10
18.0
 20
191.97081004984824
 10
161.47267074463923
 20
18.000000000000057
 42
-0.3591568323270878
  0
LWPOLYLINE
  5
34
330
17
100
AcDbEntity
  8
POCKET-KERF-15.5
100
AcDbPolyline
 90
4
 70
1
 10
737.412214386136
 20
24.02850103492012
 10
742.0904276383573
 20
20.27159795302652
 10
882.6612179525443
 20
195.31474380696983
 10
877.9830047003231
 20
199.07164688886343
  0
LWPOLYLINE
  5
35
330
17
100
AcDbEntity
  8
POCKET-KERF-15.5
100
AcDbPolyline
 90
4
 70
1
 10
727.968224295979
 20
31.313477464739428
 10
732.7426096093417
 20
27.679575308716714
 10
868.7111152805242
 20
206.32115911703846
 10
863.9367299671615
 20
209.95506127306118
  0
LWPOLYLINE
  5
36
330
17
100
AcDbEntity
  8
POCKET-KERF-15.5
100
AcDbPolyline
 90
4
 70
1
 10
718.3378739680633
 20
38.350251083921854
 10
723.2051982491067
 20
34.841810640767086
 10
854.4793448304821
 20
216.96086082314523
 10
849.6120205494386
 20
220.4693012663
  0
LWPOLYLINE
  5
37
330
17
100
AcDbEntity
  8
POCKET-KERF-15.5
100
AcDbPolyline
 90
4
 70
1
 10
708.5276848330288
 20
45.134056766638615
 10
713.4846520523648
 20
41.75345386383727
 10
839.9755439988489
 20
227.22664398732363
 10
835.018576779513
 20
230.60724689012508
  0
LWPOLYLINE
  5
38
330
17
100
AcDbEntity
  8
POCKET-KERF-15.5
100
AcDbPolyline
 90
4
 70
1
 10
698.5443001038257
 20
51.6603006905751
 10
703.5875535281261
 20
48.40982458725077
 10
825.2095343941761
 20
237.11155687982458
 10
820.1662809698757
 20
240.3620329831488
  0
LWPOLYLINE
  5
39
330
17
100
AcDbEntity
  8
POCKET-KERF-15.5
100
AcDbPolyline
 90
4
 70
1
 10
688.3944802770965
 20
57.924563447751225
 10
693.5206047421891
 20
54.80641528443711
 10
810.1913151861917
 20
246.60890568665204
 10
805.0651907210992
 20
249.72705384996615
  0
LWPOLYLINE
  5
3A
330
17
100
AcDbEntity
  8
POCKET-KERF-15.5
100
AcDbPolyline
 90
4
 70
1
 10
678.0850985551399
 20
63.92260303723341
 10
683.2906227786713
 20
60.9388943453151
 10
794.9310563346132
 20
255.71225904244542
 10
789.7255321110817
 20
258.69596773436376
  0
LWPOLYLINE
  5
3B
330
17
100
AcDbEntity
  8
POCKET-KERF-15.5
100
AcDbPolyline
 90
4
 70
1
 10
667.6231361915502
 20
69.65035773771076
 10
672.9045351236506
 20
66.80310900955062
 10
779.4390917023075
 20
264.4154523856389
 10
774.1576927702071
 20
267.26270111379904
  0
LWPOLYLINE
  5
3C
330
17
100
AcDbEntity
  8
POCKET-KERF-15.5
100
AcDbPolyline
 90
4
 70
1
 10
657.0156777636885
 20
75.10394885799029
 10
662.369374974047
 20
72.3950881787009
 10
763.725912057459
 20
272.71259213294576
 10
758.3722148471006
 20
275.42145281223526
  0
LWPOLYLINE
  5
3D
330
17
100
AcDbEntity
  8
POCKET-KERF-15.5
100
AcDbPolyline
 90
4
 70
1
 10
646.2699063751853
 20
80.2796833635491
 10
651.6922764749181
 20
77.71104510534234
 10
747.8021579694864
 20
280.5980596703462
 10
742.3797878697536
 20
283.1666979285528
  0
LWPOLYLINE
  5
3E
330
17
100
AcDbEntity
  8
POCKET-KERF-15.5
100
AcDbPolyline
 90
4
 70
1
 10
635.3930987917237
 20
85.17405637736381
 10
640.8804698883965
 20
82.7473799573606
 10
731.6786126035162
 20
288.06651515786945
 10
726.1912415068433
 20
290.49319157787255
  0
LWPOLYLINE
  5
3F
330
17
100
AcDbEntity
  8
POCKET-KERF-15.5
100
AcDbPolyline
 90
4
 70
1
 10
624.392620513397
 20
89.78375355332588
 10
629.9412766975378
 20
87.50068225566639
 10
715.3661944182953
 20
295.11290114560035
 10
709.8175382341545
 20
297.39597244325984
  0
LWPOLYLINE
  5
40
330
17
100
AcDbEntity
  8
POCKET-KERF-15.5
100
AcDbPolyline
 90
4
 70
1
 10
613.2759207869782
 20
94.10565332063231
 10
618.8821046483974
 20
91.9677331836856
 10
698.875949772486
 20
301.7324459984567
 10
693.2697659110667
 20
303.8703661354033
  0
LWPOLYLINE
  5
41
330
17
100
AcDbEntity
  8
POCKET-KERF-15.5
100
AcDbPolyline
 90
4
 70
1
 10
602.0505275614762
 20
98.13682899763552
 10
607.7104427336907
 20
96.14550776706113
 10
682.21904544435
 20
307.9206671274195
 10
676.5591302721356
 20
309.9119883579939
  0
LWPOLYLINE
  5
42
330
17
100
AcDbEntity
  8
POCKET-KERF-15.5
100
AcDbPolyline
 90
4
 70
1
 10
590.7240423904002
 20
101.87455077371807
 10
596.4338561214364
 20
100.03117692208913
 10
665.4067610698874
 20
313.67337402503034
 10
659.6969473388511
 20
315.5167478766593
  0
LWPOLYLINE
  5
43
330
17
100
AcDbEntity
  8
POCKET-KERF-15.5
100
AcDbPolyline
 90
4
 70
1
 10
579.3041352841777
 20
105.31628755785165
 10
585.0599810320155
 20
103.62210937150327
 10
648.4504815045516
 20
318.986671103097
 10
642.6946357567139
 20
320.6808492894454
  0
LWPOLYLINE
  5
44
330
17
100
AcDbEntity
  8
POCKET-KERF-15.5
100
AcDbPolyline
 90
4
 70
1
 10
567.7985395162177
 20
108.4597086925881
 10
573.5965195671142
 20
106.91587342630936
 10
631.3616891137116
 20
323.8569603306874
 10
625.5637090628151
 20
325.40079559696625
  0
LWPOLYLINE
  5
45
330
17
100
AcDbEntity
  8
POCKET-KERF-15.5
100
AcDbPolyline
 90
4
 70
1
 10
556.215046386132
 20
111.30268553232241
 10
562.0512344940563
 20
109.9102386324642
 10
614.1519559970835
 20
328.28094367062636
 10
608.3157678891595
 20
329.67339057048457
  0
LWPOLYLINE
  5
46
330
17
100
AcDbEntity
  8
POCKET-KERF-15.5
100
AcDbPolyline
 90
4
 70
1
 10
544.5614999436639
 20
113.84329288475713
 10
550.4319439890509
 20
112.60317728128244
 10
596.832936152397
 20
332.25562531284226
 10
590.9624921070101
 20
333.49574091631706
  0
LWPOLYLINE
  5
47
330
17
100
AcDbEntity
  8
POCKET-KERF-15.5
100
AcDbPolyline
 90
4
 70
1
 10
532.845791676895
 20
116.07981031459477
 10
538.7465163429218
 20
114.9928657825499
 10
579.4163575835998
 20
335.778313703055
 10
573.515632917573
 20
336.86525823509976
  0
LWPOLYLINE
  5
48
330
17
100
AcDbEntity
  8
POCKET-KERF-15.5
100
AcDbPolyline
 90
4
 70
1
 10
521.0758551683281
 20
118.01072330857268
 10
527.0028646328986
 20
117.07768589941317
 10
561.9140143589512
 20
338.8466233654279
 10
555.9870048943808
 20
339.7796607745875
  0
LWPOLYLINE
  5
49
330
17
100
AcDbEntity
  8
POCKET-KERF-15.5
100
AcDbPolyline
 90
4
 70
1
 10
509.25966072246587
 20
119.63472430105402
 10
515.2089413640804
 20
118.8562258442088
 10
544.3377586243739
 20
341.45847651795293
 10
538.3884779827594
 20
342.23697497479816
  0
LWPOLYLINE
  5
4A
330
17
100
AcDbEntity
  8
POCKET-KERF-15.5
100
AcDbPolyline
 90
4
 70
1
 10
497.4052099685203
 20
120.95071355947736
 10
503.37273308419907
 20
120.32728123448992
 10
526.6994925774808
 20
343.6121044794713
 10
520.731969461802
 20
344.2355368044589
  0
LWPOLYLINE
  5
4B
330
17
100
AcDbEntity
  8
POCKET-KERF-15.5
100
AcDbPolyline
 90
4
 70
1
 10
485.5205304419116
 20
121.95779992906864
 10
491.502254975331
 20
121.48985590860423
 10
509.01116040770603
 20
345.3060488673806
 10
503.0294358742866
 20
345.7739928878449
  0
LWPOLYLINE
  5
4C
330
17
100
AcDbEntity
  8
POCKET-KERF-15.5
100
AcDbPolyline
 90
4
 70
1
 10
473.61367014822355
 20
122.65530143630814
 10
479.6055454262176
 20
122.34316260026934
 10
491.28474020800104
 20
346.5391625852138
 10
485.292864930007
 20
346.85130142125246
  0
LWPOLYLINE
  5
4D
330
17
100
AcDbEntity
  8
POCKET-KERF-15.5
100
AcDbPolyline
 90
4
 70
1
 10
461.69269211329635
 20
123.0427457507464
 10
467.69066058887057
 20
122.8866234716898
 10
473.53223586357154
 20
347.3106105994255
 10
467.5342673879973
 20
347.466732878482
  0
LWPOLYLINE
  5
4E
330
17
100
AcDbEntity
  8
POCKET-KERF-15.5
100
AcDbPolyline
 90
4
 70
1
 10
449.76566892314906
 20
123.1198705048538
 10
455.76566892314906
 20
123.1198705048538
 10
455.7656689231491
 20
347.61987050485385
 10
449.7656689231491
 20
347.61987050485385
  0
LWPOLYLINE
  5
4F
330
17
100
AcDbEntity
  8
POCKET-KERF-15.5
100
AcDbPolyline
 90
4
 70
1
 10
437.84067725742767
 20
122.8866234716898
 10
443.8386457330019
 20
123.0427457507464
 10
437.99707045830104
 20
347.466732878482
 10
431.9991019827268
 20
347.3106105994255
  0
LWPOLYLINE
  5
50
330
17
100
AcDbEntity
  8
POCKET-KERF-15.5
100
AcDbPolyline
 90
4
 70
1
 10
425.9257924200806
 20
122.3431626002694
 10
431.91766769807464
 20
122.65530143630819
 10
420.23847291629124
 20
346.8513014212526
 10
414.2465976382972
 20
346.5391625852139
  0
LWPOLYLINE
  5
51
330
17
100
AcDbEntity
  8
POCKET-KERF-15.5
100
AcDbPolyline
 90
4
 70
1
 10
414.0290828709671
 20
121.48985590860417
 10
420.01080740438647
 20
121.95779992906859
 10
402.50190197201147
 20
345.77399288784477
 10
396.52017743859204
 20
345.30604886738047
  0
LWPOLYLINE
  5
52
330
17
100
AcDbEntity
  8
POCKET-KERF-15.5
100
AcDbPolyline
 90
4
 70
1
 10
402.1586047620991
 20
120.32728123448992
 10
408.1261278777779
 20
120.95071355947736
 10
384.7993683844963
 20
344.2355368044589
 10
378.83184526881746
 20
343.6121044794713
  0
LWPOLYLINE
  5
53
330
17
100
AcDbEntity
  8
POCKET-KERF-15.5
100
AcDbPolyline
 90
4
 70
1
 10
390.32239648221764
 20
118.8562258442088
 10
396.2716771238322
 20
119.63472430105402
 10
367.1428598635387
 20
342.23697497479816
 10
361.19357922192415
 20
341.45847651795293
  0
LWPOLYLINE
  5
54
330
17
100
AcDbEntity
  8
POCKET-KERF-15.5
100
AcDbPolyline
 90
4
 70
1
 10
378.5284732133995
 20
117.07768589941323
 10
384.45548267797
 20
118.01072330857274
 10
349.5443329519175
 20
339.7796607745876
 10
343.61732348734694
 20
338.846623365428
  0
LWPOLYLINE
  5
55
330
17
100
AcDbEntity
  8
POCKET-KERF-15.5
100
AcDbPolyline
 90
4
 70
1
 10
366.78482150337635
 20
114.9928657825499
 10
372.68554616940327
 20
116.07981031459477
 10
332.01570492872514
 20
336.86525823509976
 10
326.1149802626982
 20
335.778313703055
  0
LWPOLYLINE
  5
56
330
17
100
AcDbEntity
  8
POCKET-KERF-15.5
100
AcDbPolyline
 90
4
 70
1
 10
355.0993938572473
 20
112.60317728128244
 10
360.9698379026342
 20
113.84329288475713
 10
314.5688457392882
 20
333.49574091631706
 10
308.6984016939013
 20
332.25562531284226
  0
LWPOLYLINE
  5
57
330
17
100
AcDbEntity
  8
POCKET-KERF-15.5
100
AcDbPolyline
 90
4
 70
1
 10
343.48010335224194
 20
109.9102386324642
 10
349.3162914601661
 20
111.30268553232241
 10
297.21556995713877
 20
329.67339057048457
 10
291.3793818492146
 20
328.28094367062636
  0
LWPOLYLINE
  5
58
330
17
100
AcDbEntity
  8
POCKET-KERF-15.5
100
AcDbPolyline
 90
4
 70
1
 10
331.9348182791839
 20
106.91587342630942
 10
337.7327983300804
 20
108.45970869258815
 10
279.96762878348324
 20
325.40079559696625
 10
274.1696487325867
 20
323.8569603306874
  0
LWPOLYLINE
  5
59
330
17
100
AcDbEntity
  8
POCKET-KERF-15.5
100
AcDbPolyline
 90
4
 70
1
 10
320.4713568142828
 20
103.62210937150327
 10
326.22720256212045
 20
105.31628755785165
 10
262.8367020895844
 20
320.6808492894454
 10
257.08085634174665
 20
318.986671103097
  0
LWPOLYLINE
  5
5A
330
17
100
AcDbEntity
  8
POCKET-KERF-15.5
100
AcDbPolyline
 90
4
 70
1
 10
309.0974817248617
 20
100.03117692208913
 10
314.80729545589804
 20
101.87455077371807
 10
245.83439050744704
 20
315.5167478766593
 10
240.12457677641078
 20
313.67337402503034
  0
LWPOLYLINE
  5
5B
330
17
100
AcDbEntity
  8
POCKET-KERF-15.5
100
AcDbPolyline
 90
4
 70
1
 10
297.8208951126075
 20
96.14550776706119
 10
303.480810284822
 20
98.13682899763558
 10
228.9722075741627
 20
309.9119883579939
 10
223.3122924019482
 20
307.9206671274195
  0
LWPOLYLINE
  5
5C
330
17
100
AcDbEntity
  8
POCKET-KERF-15.5
100
AcDbPolyline
 90
4
 70
1
 10
286.64923319790086
 20
91.96773318368565
 10
292.2554170593201
 20
94.10565332063237
 10
212.2615719352315
 20
303.8703661354033
 10
206.65538807381225
 20
301.7324459984567
  0
LWPOLYLINE
  5
5D
330
17
100
AcDbEntity
  8
POCKET-KERF-15.5
100
AcDbPolyline
 90
4
 70
1
 10
275.59006114876036
 20
87.50068225566639
 10
281.13871733290114
 20
89.78375355332588
 10
195.71379961214373
 20
297.39597244325984
 10
190.16514342800295
 20
295.11290114560035
  0
LWPOLYLINE
  5
5E
330
17
100
AcDbEntity
  8
POCKET-KERF-15.5
100
AcDbPolyline
 90
4
 70
1
 10
264.6508679579017
 20
82.74737995736065
 10
270.13823905457457
 20
85.17405637736387
 10
179.34009633945487
 20
290.49319157787255
 10
173.85272524278201
 20
288.06651515786945
  0
LWPOLYLINE
  5
5F
330
17
100
AcDbEntity
  8
POCKET-KERF-15.5
100
AcDbPolyline
 90
4
 70
1
 10
253.83906137138015
 20
77.7110451053424
 10
259.26143147111304
 20
80.27968336354915
 10
163.15154997654471
 20
283.1666979285528
 10
157.7291798768119
 20
280.5980596703462
  0
LWPOLYLINE
  5
60
330
17
100
AcDbEntity
  8
POCKET-KERF-15.5
100
AcDbPolyline
 90
4
 70
1
 10
243.16196287225117
 20
72.39508817870096
 10
248.51566008260963
 20
75.10394885799035
 10
147.15912299919756
 20
275.4214528122354
 10
141.80542578883916
 20
272.7125921329459
  0
LWPOLYLINE
  5
61
330
17
100
AcDbEntity
  8
POCKET-KERF-15.5
100
AcDbPolyline
 90
4
 70
1
 10
232.62680272264745
 20
66.80310900955062
 10
237.90820165474778
 20
69.65035773771076
 10
131.37364507609104
 20
267.2627011137989
 10
126.09224614399065
 20
264.4154523856388
  0
LWPOLYLINE
  5
62
330
17
100
AcDbEntity
  8
POCKET-KERF-15.5
100
AcDbPolyline
 90
4
 70
1
 10
222.24071506762692
 20
60.938894345315155
 10
227.44623929115824
 20
63.922603037233465
 10
115.8058057352164
 20
258.6959677343639
 10
110.60028151168503
 20
255.71225904244554
  0
LWPOLYLINE
  5
63
330
17
100
AcDbEntity
  8
POCKET-KERF-15.5
100
AcDbPolyline
 90
4
 70
1
 10
212.0107331041092
 20
54.806415284437165
 10
217.13685756920177
 20
57.92456344775128
 10
100.46614712519927
 20
249.72705384996618
 10
95.34002266010664
 20
246.60890568665207
  0
LWPOLYLINE
  5
64
330
17
100
AcDbEntity
  8
POCKET-KERF-15.5
100
AcDbPolyline
 90
4
 70
1
 10
201.94378431817202
 20
48.40982458725071
 10
206.98703774247244
 20
51.66030069057504
 10
85.36505687642224
 20
240.36203298314868
 10
80.32180345212188
 20
237.11155687982446
  0
LWPOLYLINE
  5
65
330
17
100
AcDbEntity
  8
POCKET-KERF-15.5
100
AcDbPolyline
 90
4
 70
1
 10
192.04668579393325
 20
41.75345386383727
 10
197.00365301326923
 20
45.134056766638615
 10
70.51276106678523
 20
230.60724689012508
 10
65.55579384744925
 20
227.22664398732363
  0
LWPOLYLINE
  5
66
330
17
100
AcDbEntity
  8
POCKET-KERF-15.5
100
AcDbPolyline
 90
4
 70
1
 10
182.32613959719143
 20
34.84181064076714
 10
187.1934638782349
 20
38.35025108392191
 10
55.91931729685949
 20
220.4693012663001
 10
51.051993015816024
 20
216.96086082314534
  0
LWPOLYLINE
  5
67
330
17
100
AcDbEntity
  8
POCKET-KERF-15.5
100
AcDbPolyline
 90
4
 70
1
 10
172.78872823695662
 20
27.67957530871688
 10
177.56311355031931
 20
31.313477464739595
 10
41.594607879136916
 20
209.9550612730614
 10
36.820222565774216
 20
206.3211591170387
  0
LWPOLYLINE
  5
68
330
17
100
AcDbEntity
  8
POCKET-KERF-15.5
100
AcDbPolyline
 90
4
 70
1
 10
163.44091020794085
 20
20.271597953026465
 10
168.11912346016206
 20
24.028501034920062
 10
27.548333145974972
 20
199.0716468888633
 10
22.87011989375376
 20
195.31474380696972
  0
LWPOLYLINE
  5
69
330
17
100
AcDbEntity
  8
CUT
100
AcDbPolyline
 90
4
 70
1
 10
744.058667101659
 20
302.0
 10
887.5313378462984
 20
475.9708100498481
 42
0.3591568323270878
 10
18.0
 20
475.97081004984824
 10
161.47267074463923
 20
302.00000000000006
 42
-0.3591568323270878
  0
LWPOLYLINE
  5
6A
330
17
100
AcDbEntity
  8
POCKET-KERF-15.5
100
AcDbPolyline
 90
4
 70
1
 10
737.412214386136
 20
308.0285010349201
 10
742.0904276383573
 20
304.2715979530265
 10
882.6612179525443
 20
479.31474380696983
 10
877.9830047003231
 20
483.0716468888634
  0
LWPOLYLINE
  5
6B
330
17
100
AcDbEntity
  8
POCKET-KERF-15.5
100
AcDbPolyline
 90
4
 70
1
 10
727.968224295979
 20
315.31347746473944
 10
732.7426096093417
 20
311.6795753087167
 10
868.7111152805242
 20
490.32115911703846
 10
863.9367299671615
 20
493.9550612730612
  0
LWPOLYLINE
  5
6C
330
17
100
AcDbEntity
  8
POCKET-KERF-15.5
100
AcDbPolyline
 90
4
 70
1
 10
718.3378739680633
 20
322.3502510839219
 10
723.2051982491067
 20
318.8418106407671
 10
854.4793448304821
 20
500.9608608231452
 10
849.6120205494386
 20
504.46930126629996
  0
LWPOLYLINE
  5
6D
330
17
100
AcDbEntity
  8
POCKET-KERF-15.5
100
AcDbPolyline
 90
4
 70
1
 10
708.5276848330288
 20
329.1340567666386
 10
713.4846520523648
 20
325.75345386383725
 10
839.9755439988489
 20
511.22664398732365
 10
835.018576779513
 20
514.6072468901251
  0
LWPOLYLINE
  5
6E
330
17
100
AcDbEntity
  8
POCKET-KERF-15.5
100
AcDbPolyline
 90
4
 70
1
 10
698.5443001038257
 20
335.6603006905751
 10
703.5875535281261
 20
332.4098245872508
 10
825.2095343941761
 20
521.1115568798245
 10
820.1662809698757
 20
524.3620329831488
  0
LWPOLYLINE
  5
6F
330
17
100
AcDbEntity
  8
POCKET-KERF-15.5
100
AcDbPolyline
 90
4
 70
1
 10
688.3944802770965
 20
341.9245634477512
 10
693.5206047421891
 20
338.8064152844371
 10
810.1913151861917
 20
530.6089056866521
 10
805.0651907210992
 20
533.7270538499662
  0
LWPOLYLINE
  5
70
330
17
100
AcDbEntity
  8
POCKET-KERF-15.5
100
AcDbPolyline
 90
4
 70
1
 10
678.0850985551399
 20
347.9226030372334
 10
683.2906227786713
 20
344.9388943453151
 10
794.9310563346132
 20
539.7122590424455
 10
789.7255321110817
 20
542.6959677343638
  0
LWPOLYLINE
  5
71
330
17
100
AcDbEntity
  8
POCKET-KERF-15.5
100
AcDbPolyline
 90
4
 70
1
 10
667.6231361915502
 20
353.65035773771075
 10
672.9045351236506
 20
350.8031090095506
 10
779.4390917023075
 20
548.4154523856389
 10
774.1576927702071
 20
551.262701113799
  0
LWPOLYLINE
  5
72
330
17
100
AcDbEntity
  8
POCKET-KERF-15.5
100
AcDbPolyline
 90
4
 70
1
 10
657.0156777636885
 20
359.1039488579903
 10
662.369374974047
 20
356.3950881787009
 10
763.725912057459
 20
556.7125921329457
 10
758.3722148471006
 20
559.4214528122352
  0
LWPOLYLINE
  5
73
330
17
100
AcDbEntity
  8
POCKET-KERF-15.5
100
AcDbPolyline
 90
4
 70
1
 10
646.2699063751853
 20
364.2796833635491
 10
651.6922764749181
 20
361.71104510534235
 10
747.8021579694864
 20
564.5980596703463
 10
742.3797878697536
 20
567.1666979285529
  0
LWPOLYLINE
  5
74
330
17
100
AcDbEntity
  8
POCKET-KERF-15.5
100
AcDbPolyline
 90
4
 70
1
 10
635.3930987917237
 20
369.1740563773638
 10
640.8804698883965
 20
366.7473799573606
 10
731.6786126035162
 20
572.0665151578695
 10
726.1912415068433
 20
574.4931915778726
  0
LWPOLYLINE
  5
75
330
17
100
AcDbEntity
  8
POCKET-KERF-15.5
100
AcDbPolyline
 90
4
 70
1
 10
624.392620513397
 20
373.7837535533259
 10
629.9412766975378
 20
371.5006822556664
 10
715.3661944182953
 20
579.1129011456003
 10
709.8175382341545
 20
581.3959724432598
  0
LWPOLYLINE
  5
76
330
17
100
AcDbEntity
  8
POCKET-KERF-15.5
100
AcDbPolyline
 90
4
 70
1
 10
613.2759207869782
 20
378.1056533206323
 10
618.8821046483974
 20
375.9677331836856
 10
698.875949772486
 20
585.7324459984567
 10
693.2697659110667
 20
587.8703661354033
  0
LWPOLYLINE
  5
77
330
17
100
AcDbEntity
  8
POCKET-KERF-15.5
100
AcDbPolyline
 90
4
 70
1
 10
602.0505275614762
 20
382.1368289976355
 10
607.7104427336907
 20
380.14550776706113
 10
682.21904544435
 20
591.9206671274194
 10
676.5591302721356
 20
593.9119883579938
  0
LWPOLYLINE
  5
78
330
17
100
AcDbEntity
  8
POCKET-KERF-15.5
100
AcDbPolyline
 90
4
 70
1
 10
590.7240423904002
 20
385.87455077371806
 10
596.4338561214364
 20
384.0311769220891
 10
665.4067610698874
 20
597.6733740250304
 10
659.6969473388511
 20
599.5167478766593
  0
LWPOLYLINE
  5
79
330
17
100
AcDbEntity
  8
POCKET-KERF-15.5
100
AcDbPolyline
 90
4
 70
1
 10
579.3041352841777
 20
389.31628755785164
 10
585.0599810320155
 20
387.62210937150326
 10
648.4504815045516
 20
602.986671103097
 10
642.6946357567139
 20
604.6808492894454
  0
LWPOLYLINE
  5
7A
330
17
100
AcDbEntity
  8
POCKET-KERF-15.5
100
AcDbPolyline
 90
4
 70
1
 10
567.7985395162177
 20
392.4597086925881
 10
573.5965195671142
 20
390.91587342630936
 10
631.3616891137116
 20
607.8569603306873
 10
625.5637090628151
 20
609.4007955969662
  0
LWPOLYLINE
  5
7B
330
17
100
AcDbEntity
  8
POCKET-KERF-15.5
100
AcDbPolyline
 90
4
 70
1
 10
556.215046386132
 20
395.3026855323224
 10
562.0512344940563
 20
393.9102386324642
 10
614.1519559970835
 20
612.2809436706264
 10
608.3157678891595
 20
613.6733905704846
  0
LWPOLYLINE
  5
7C
330
17
100
AcDbEntity
  8
POCKET-KERF-15.5
100
AcDbPolyline
 90
4
 70
1
 10
544.5614999436639
 20
397.84329288475715
 10
550.4319439890509
 20
396.60317728128246
 10
596.832936152397
 20
616.2556253128422
 10
590.9624921070101
 20
617.495740916317
  0
LWPOLYLINE
  5
7D
330
17
100
AcDbEntity
  8
POCKET-KERF-15.5
100
AcDbPolyline
 90
4
 70
1
 10
532.845791676895
 20
400.0798103145948
 10
538.7465163429218
 20
398.9928657825499
 10
579.4163575835998
 20
619.778313703055
 10
573.515632917573
 20
620.8652582350998
  0
LWPOLYLINE
  5
7E
330
17
100
AcDbEntity
  8
POCKET-KERF-15.5
100
AcDbPolyline
 90
4
 70
1
 10
521.0758551683281
 20
402.01072330857266
 10
527.0028646328986
 20
401.07768589941315
 10
561.9140143589512
 20
622.846623365428
 10
555.9870048943808
 20
623.7796607745876
  0
LWPOLYLINE
  5
7F
330
17
100
AcDbEntity
  8
POCKET-KERF-15.5
100
AcDbPolyline
 90
4
 70
1
 10
509.25966072246587
 20
403.634724301054
 10
515.2089413640804
 20
402.8562258442088
 10
544.3377586243739
 20
625.4584765179528
 10
538.3884779827594
 20
626.236974974798
  0
LWPOLYLINE
  5
80
330
17
100
AcDbEntity
  8
POCKET-KERF-15.5
100
AcDbPolyline
 90
4
 70
1
 10
497.4052099685203
 20
404.9507135594774
 10
503.37273308419907
 20
404.32728123448993
 10
526.6994925774808
 20
627.6121044794713
 10
520.731969461802
 20
628.2355368044589
  0
LWPOLYLINE
  5
81
330
17
100
AcDbEntity
  8
POCKET-KERF-15.5
100
AcDbPolyline
 90
4
 70
1
 10
485.5205304419116
 20
405.95779992906864
 10
491.502254975331
 20
405.4898559086042
 10
509.01116040770603
 20
629.3060488673805
 10
503.0294358742866
 20
629.7739928878448
  0
LWPOLYLINE
  5
82
330
17
100
AcDbEntity
  8
POCKET-KERF-15.5
100
AcDbPolyline
 90
4
 70
1
 10
473.61367014822355
 20
406.65530143630815
 10
479.6055454262176
 20
406.34316260026935
 10
491.28474020800104
 20
630.5391625852137
 10
485.292864930007
 20
630.8513014212524
  0
LWPOLYLINE
  5
83
330
17
100
AcDbEntity
  8
POCKET-KERF-15.5
100
AcDbPolyline
 90
4
 70
1
 10
461.69269211329635
 20
407.0427457507464
 10
467.69066058887057
 20
406.8866234716898
 10
473.53223586357154
 20
631.3106105994256
 10
467.5342673879973
 20
631.466732878482
  0
LWPOLYLINE
  5
84
330
17
100
AcDbEntity
  8
POCKET-KERF-15.5
100
AcDbPolyline
 90
4
 70
1
 10
449.76566892314906
 20
407.1198705048538
 10
455.76566892314906
 20
407.1198705048538
 10
455.7656689231491
 20
631.6198705048539
 10
449.7656689231491
 20
631.6198705048539
  0
LWPOLYLINE
  5
85
330
17
100
AcDbEntity
  8
POCKET-KERF-15.5
100
AcDbPolyline
 90
4
 70
1
 10
437.84067725742767
 20
406.8866234716898
 10
443.8386457330019
 20
407.0427457507464
 10
437.99707045830104
 20
631.466732878482
 10
431.9991019827268
 20
631.3106105994256
  0
LWPOLYLINE
  5
86
330
17
100
AcDbEntity
  8
POCKET-KERF-15.5
100
AcDbPolyline
 90
4
 70
1
 10
425.9257924200806
 20
406.3431626002694
 10
431.91766769807464
 20
406.6553014363082
 10
420.23847291629124
 20
630.8513014212526
 10
414.2465976382972
 20
630.539162585214
  0
LWPOLYLINE
  5
87
330
17
100
AcDbEntity
  8
POCKET-KERF-15.5
100
AcDbPolyline
 90
4
 70
1
 10
414.0290828709671
 20
405.48985590860417
 10
420.01080740438647
 20
405.9577999290686
 10
402.50190197201147
 20
629.7739928878448
 10
396.52017743859204
 20
629.3060488673805
  0
LWPOLYLINE
  5
88
330
17
100
AcDbEntity
  8
POCKET-KERF-15.5
100
AcDbPolyline
 90
4
 70
1
 10
402.1586047620991
 20
404.32728123448993
 10
408.1261278777779
 20
404.9507135594774
 10
384.7993683844963
 20
628.2355368044589
 10
378.83184526881746
 20
627.6121044794713
  0
LWPOLYLINE
  5
89
330
17
100
AcDbEntity
  8
POCKET-KERF-15.5
100
AcDbPolyline
 90
4
 70
1
 10
390.32239648221764
 20
402.8562258442088
 10
396.2716771238322
 20
403.634724301054
 10
367.1428598635387
 20
626.236974974798
 10
361.19357922192415
 20
625.4584765179528
  0
LWPOLYLINE
  5
8A
330
17
100
AcDbEntity
  8
POCKET-KERF-15.5
100
AcDbPolyline
 90
4
 70
1
 10
378.5284732133995
 20
401.0776858994132
 10
384.45548267797
 20
402.0107233085727
 10
349.5443329519175
 20
623.7796607745876
 10
343.61732348734694
 20
622.846623365428
  0
LWPOLYLINE
  5
8B
330
17
100
AcDbEntity
  8
POCKET-KERF-15.5
100
AcDbPolyline
 90
4
 70
1
 10
366.78482150337635
 20
398.9928657825499
 10
372.68554616940327
 20
400.0798103145948
 10
332.01570492872514
 20
620.8652582350998
 10
326.1149802626982
 20
619.778313703055
  0
LWPOLYLINE
  5
8C
330
17
100
AcDbEntity
  8
POCKET-KERF-15.5
100
AcDbPolyline
 90
4
 70
1
 10
355.0993938572473
 20
396.60317728128246
 10
360.9698379026342
 20
397.84329288475715
 10
314.5688457392882
 20
617.495740916317
 10
308.6984016939013
 20
616.2556253128422
  0
LWPOLYLINE
  5
8D
330
17
100
AcDbEntity
  8
POCKET-KERF-15.5
100
AcDbPolyline
 90
4
 70
1
 10
343.48010335224194
 20
393.9102386324642
 10
349.3162914601661
 20
395.3026855323224
 10
297.21556995713877
 20
613.6733905704846
 10
291.3793818492146
 20
612.2809436706264
  0
LWPOLYLINE
  5
8E
330
17
100
AcDbEntity
  8
POCKET-KERF-15.5
100
AcDbPolyline
 90
4
 70
1
 10
331.9348182791839
 20
390.9158734263094
 10
337.7327983300804
 20
392.45970869258815
 10
279.96762878348324
 20
609.4007955969662
 10
274.1696487325867
 20
607.8569603306873
  0
LWPOLYLINE
  5
8F
330
17
100
AcDbEntity
  8
POCKET-KERF-15.5
100
AcDbPolyline
 90
4
 70
1
 10
320.4713568142828
 20
387.62210937150326
 10
326.22720256212045
 20
389.31628755785164
 10
262.8367020895844
 20
604.6808492894454
 10
257.08085634174665
 20
602.986671103097
  0
LWPOLYLINE
  5
90
330
17
100
AcDbEntity
  8
POCKET-KERF-15.5
100
AcDbPolyline
 90
4
 70
1
 10
309.0974817248617
 20
384.0311769220891
 10
314.80729545589804
 20
385.87455077371806
 10
245.83439050744704
 20
599.5167478766593
 10
240.12457677641078
 20
597.6733740250304
  0
LWPOLYLINE
  5
91
330
17
100
AcDbEntity
  8
POCKET-KERF-15.5
100
AcDbPolyline
 90
4
 70
1
 10
297.8208951126075
 20
380.1455077670612
 10
303.480810284822
 20
382.1368289976356
 10
228.9722075741627
 20
593.9119883579938
 10
223.3122924019482
 20
591.9206671274194
  0
LWPOLYLINE
  5
92
330
17
100
AcDbEntity
  8
POCKET-KERF-15.5
100
AcDbPolyline
 90
4
 70
1
 10
286.64923319790086
 20
375.96773318368565
 10
292.2554170593201
 20
378.10565332063237
 10
212.2615719352315
 20
587.8703661354033
 10
206.65538807381225
 20
585.7324459984567
  0
LWPOLYLINE
  5
93
330
17
100
AcDbEntity
  8
POCKET-KERF-15.5
100
AcDbPolyline
 90
4
 70
1
 10
275.59006114876036
 20
371.5006822556664
 10
281.13871733290114
 20
373.7837535533259
 10
195.71379961214373
 20
581.3959724432598
 10
190.16514342800295
 20
579.1129011456003
  0
LWPOLYLINE
  5
94
330
17
100
AcDbEntity
  8
POCKET-KERF-15.5
100
AcDbPolyline
 90
4
 70
1
 10
264.6508679579017
 20
366.74737995736064
 10
270.13823905457457
 20
369.17405637736385
 10
179.34009633945487
 20
574.4931915778726
 10
173.85272524278201
 20
572.0665151578695
  0
LWPOLYLINE
  5
95
330
17
100
AcDbEntity
  8
POCKET-KERF-15.5
100
AcDbPolyline
 90
4
 70
1
 10
253.83906137138015
 20
361.7110451053424
 10
259.26143147111304
 20
364.27968336354917
 10
163.15154997654471
 20
567.1666979285529
 10
157.7291798768119
 20
564.5980596703463
  0
LWPOLYLINE
  5
96
330
17
100
AcDbEntity
  8
POCKET-KERF-15.5
100
AcDbPolyline
 90
4
 70
1
 10
243.16196287225117
 20
356.395088178701
 10
248.51566008260963
 20
359.10394885799036
 10
147.15912299919756
 20
559.4214528122354
 10
141.80542578883916
 20
556.7125921329459
  0
LWPOLYLINE
  5
97
330
17
100
AcDbEntity
  8
POCKET-KERF-15.5
100
AcDbPolyline
 90
4
 70
1
 10
232.62680272264745
 20
350.8031090095506
 10
237.90820165474778
 20
353.65035773771075
 10
131.37364507609104
 20
551.2627011137988
 10
126.09224614399065
 20
548.4154523856387
  0
LWPOLYLINE
  5
98
330
17
100
AcDbEntity
  8
POCKET-KERF-15.5
100
AcDbPolyline
 90
4
 70
1
 10
222.24071506762692
 20
344.93889434531513
 10
227.44623929115824
 20
347.92260303723344
 10
115.8058057352164
 20
542.6959677343638
 10
110.60028151168503
 20
539.7122590424455
  0
LWPOLYLINE
  5
99
330
17
100
AcDbEntity
  8
POCKET-KERF-15.5
100
AcDbPolyline
 90
4
 70
1
 10
212.0107331041092
 20
338.80641528443715
 10
217.13685756920177
 20
341.92456344775127
 10
100.46614712519927
 20
533.7270538499662
 10
95.34002266010664
 20
530.6089056866521
  0
LWPOLYLINE
  5
9A
330
17
100
AcDbEntity
  8
POCKET-KERF-15.5
100
AcDbPolyline
 90
4
 70
1
 10
201.94378431817202
 20
332.40982458725074
 10
206.98703774247244
 20
335.66030069057507
 10
85.36505687642224
 20
524.3620329831488
 10
80.32180345212188
 20
521.1115568798245
  0
LWPOLYLINE
  5
9B
330
17
100
AcDbEntity
  8
POCKET-KERF-15.5
100
AcDbPolyline
 90
4
 70
1
 10
192.04668579393325
 20
325.75345386383725
 10
197.00365301326923
 20
329.1340567666386
 10
70.51276106678523
 20
514.6072468901251
 10
65.55579384744925
 20
511.22664398732365
  0
LWPOLYLINE
  5
9C
330
17
100
AcDbEntity
  8
POCKET-KERF-15.5
100
AcDbPolyline
 90
4
 70
1
 10
182.32613959719143
 20
318.84181064076716
 10
187.1934638782349
 20
322.35025108392193
 10
55.91931729685949
 20
504.4693012663001
 10
51.051993015816024
 20
500.9608608231453
  0
LWPOLYLINE
  5
9D
330
17
100
AcDbEntity
  8
POCKET-KERF-15.5
100
AcDbPolyline
 90
4
 70
1
 10
172.78872823695662
 20
311.6795753087169
 10
177.56311355031931
 20
315.3134774647396
 10
41.594607879136916
 20
493.9550612730614
 10
36.820222565774216
 20
490.3211591170387
  0
LWPOLYLINE
  5
9E
330
17
100
AcDbEntity
  8
POCKET-KERF-15.5
100
AcDbPolyline
 90
4
 70
1
 10
163.44091020794085
 20
304.27159795302646
 10
168.11912346016206
 20
308.02850103492005
 10
27.548333145974972
 20
483.0716468888633
 10
22.87011989375376
 20
479.3147438069697
  0
LWPOLYLINE
  5
9F
330
17
100
AcDbEntity
  8
CUT
100
AcDbPolyline
 90
4
 70
1
 10
744.058667101659
 20
586.0
 10
887.5313378462984
 20
759.9708100498481
 42
0.3591568323270878
 10
18.0
 20
759.9708100498483
 10
161.47267074463923
 20
586.0
 42
-0.3591568323270878
  0
LWPOLYLINE
  5
A0
330
17
100
AcDbEntity
  8
POCKET-KERF-15.5
100
AcDbPolyline
 90
4
 70
1
 10
737.412214386136
 20
592.02850103492
 10
742.0904276383573
 20
588.2715979530265
 10
882.6612179525443
 20
763.3147438069698
 10
877.9830047003231
 20
767.0716468888634
  0
LWPOLYLINE
  5
A1
330
17
100
AcDbEntity
  8
POCKET-KERF-15.5
100
AcDbPolyline
 90
4
 70
1
 10
727.968224295979
 20
599.3134774647394
 10
732.7426096093417
 20
595.6795753087167
 10
868.7111152805242
 20
774.3211591170385
 10
863.9367299671615
 20
777.9550612730612
  0
LWPOLYLINE
  5
A2
330
17
100
AcDbEntity
  8
POCKET-KERF-15.5
100
AcDbPolyline
 90
4
 70
1
 10
718.3378739680633
 20
606.3502510839219
 10
723.2051982491067
 20
602.8418106407671
 10
854.4793448304821
 20
784.9608608231453
 10
849.6120205494386
 20
788.4693012663
  0
LWPOLYLINE
  5
A3
330
17
100
AcDbEntity
  8
POCKET-KERF-15.5
100
AcDbPolyline
 90
4
 70
1
 10
708.5276848330288
 20
613.1340567666387
 10
713.4846520523648
 20
609.7534538638373
 10
839.9755439988489
 20
795.2266439873237
 10
835.018576779513
 20
798.6072468901251
  0
LWPOLYLINE
  5
A4
330
17
100
AcDbEntity
  8
POCKET-KERF-15.5
100
AcDbPolyline
 90
4
 70
1
 10
698.5443001038257
 20
619.660300690575
 10
703.5875535281261
 20
616.4098245872508
 10
825.2095343941761
 20
805.1115568798245
 10
820.1662809698757
 20
808.3620329831488
  0
LWPOLYLINE
  5
A5
330
17
100
AcDbEntity
  8
POCKET-KERF-15.5
100
AcDbPolyline
 90
4
 70
1
 10
688.3944802770965
 20
625.9245634477512
 10
693.5206047421891
 20
622.8064152844371
 10
810.1913151861917
 20
814.6089056866521
 10
805.0651907210992
 20
817.7270538499662
  0
LWPOLYLINE
  5
A6
330
17
100
AcDbEntity
  8
POCKET-KERF-15.5
100
AcDbPolyline
 90
4
 70
1
 10
678.0850985551399
 20
631.9226030372334
 10
683.2906227786713
 20
628.9388943453151
 10
794.9310563346132
 20
823.7122590424455
 10
789.7255321110817
 20
826.6959677343638
  0
LWPOLYLINE
  5
A7
330
17
100
AcDbEntity
  8
POCKET-KERF-15.5
100
AcDbPolyline
 90
4
 70
1
 10
667.6231361915502
 20
637.6503577377108
 10
672.9045351236506
 20
634.8031090095507
 10
779.4390917023075
 20
832.4154523856389
 10
774.1576927702071
 20
835.262701113799
  0
LWPOLYLINE
  5
A8
330
17
100
AcDbEntity
  8
POCKET-KERF-15.5
100
AcDbPolyline
 90
4
 70
1
 10
657.0156777636885
 20
643.1039488579903
 10
662.369374974047
 20
640.3950881787009
 10
763.725912057459
 20
840.7125921329457
 10
758.3722148471006
 20
843.4214528122352
  0
LWPOLYLINE
  5
A9
330
17
100
AcDbEntity
  8
POCKET-KERF-15.5
100
AcDbPolyline
 90
4
 70
1
 10
646.2699063751853
 20
648.279683363549
 10
651.6922764749181
 20
645.7110451053424
 10
747.8021579694864
 20
848.5980596703463
 10
742.3797878697536
 20
851.1666979285529
  0
LWPOLYLINE
  5
AA
330
17
100
AcDbEntity
  8
POCKET-KERF-15.5
100
AcDbPolyline
 90
4
 70
1
 10
635.3930987917237
 20
653.1740563773639
 10
640.8804698883965
 20
650.7473799573605
 10
731.6786126035162
 20
856.0665151578695
 10
726.1912415068433
 20
858.4931915778726
  0
LWPOLYLINE
  5
AB
330
17
100
AcDbEntity
  8
POCKET-KERF-15.5
100
AcDbPolyline
 90
4
 70
1
 10
624.392620513397
 20
657.7837535533258
 10
629.9412766975378
 20
655.5006822556663
 10
715.3661944182953
 20
863.1129011456003
 10
709.8175382341545
 20
865.3959724432598
  0
LWPOLYLINE
  5
AC
330
17
100
AcDbEntity
  8
POCKET-KERF-15.5
100
AcDbPolyline
 90
4
 70
1
 10
613.2759207869782
 20
662.1056533206323
 10
618.8821046483974
 20
659.9677331836855
 10
698.875949772486
 20
869.7324459984567
 10
693.2697659110667
 20
871.8703661354033
  0
LWPOLYLINE
  5
AD
330
17
100
AcDbEntity
  8
POCKET-KERF-15.5
100
AcDbPolyline
 90
4
 70
1
 10
602.0505275614762
 20
666.1368289976356
 10
607.7104427336907
 20
664.1455077670612
 10
682.21904544435
 20
875.9206671274194
 10
676.5591302721356
 20
877.9119883579938
  0
LWPOLYLINE
  5
AE
330
17
100
AcDbEntity
  8
POCKET-KERF-15.5
100
AcDbPolyline
 90
4
 70
1
 10
590.7240423904002
 20
669.874550773718
 10
596.4338561214364
 20
668.0311769220891
 10
665.4067610698874
 20
881.6733740250304
 10
659.6969473388511
 20
883.5167478766593
  0
LWPOLYLINE
  5
AF
330
17
100
AcDbEntity
  8
POCKET-KERF-15.5
100
AcDbPolyline
 90
4
 70
1
 10
579.3041352841777
 20
673.3162875578516
 10
585.0599810320155
 20
671.6221093715033
 10
648.4504815045516
 20
886.986671103097
 10
642.6946357567139
 20
888.6808492894454
  0
LWPOLYLINE
  5
B0
330
17
100
AcDbEntity
  8
POCKET-KERF-15.5
100
AcDbPolyline
 90
4
 70
1
 10
567.7985395162177
 20
676.459708692588
 10
573.5965195671142
 20
674.9158734263094
 10
631.3616891137116
 20
891.8569603306873
 10
625.5637090628151
 20
893.4007955969662
  0
LWPOLYLINE
  5
B1
330
17
100
AcDbEntity
  8
POCKET-KERF-15.5
100
AcDbPolyline
 90
4
 70
1
 10
556.215046386132
 20
679.3026855323225
 10
562.0512344940563
 20
677.9102386324643
 10
614.1519559970835
 20
896.2809436706264
 10
608.3157678891595
 20
897.6733905704846
  0
LWPOLYLINE
  5
B2
330
17
100
AcDbEntity
  8
POCKET-KERF-15.5
100
AcDbPolyline
 90
4
 70
1
 10
544.5614999436639
 20
681.8432928847571
 10
550.4319439890509
 20
680.6031772812825
 10
596.832936152397
 20
900.2556253128422
 10
590.9624921070101
 20
901.495740916317
  0
LWPOLYLINE
  5
B3
330
17
100
AcDbEntity
  8
POCKET-KERF-15.5
100
AcDbPolyline
 90
4
 70
1
 10
532.845791676895
 20
684.0798103145947
 10
538.7465163429218
 20
682.9928657825499
 10
579.4163575835998
 20
903.778313703055
 10
573.515632917573
 20
904.8652582350998
  0
LWPOLYLINE
  5
B4
330
17
100
AcDbEntity
  8
POCKET-KERF-15.5
100
AcDbPolyline
 90
4
 70
1
 10
521.0758551683281
 20
686.0107233085727
 10
527.0028646328986
 20
685.0776858994132
 10
561.9140143589512
 20
906.846623365428
 10
555.9870048943808
 20
907.7796607745876
  0
LWPOLYLINE
  5
B5
330
17
100
AcDbEntity
  8
POCKET-KERF-15.5
100
AcDbPolyline
 90
4
 70
1
 10
509.25966072246587
 20
687.634724301054
 10
515.2089413640804
 20
686.8562258442088
 10
544.3377586243739
 20
909.4584765179528
 10
538.3884779827594
 20
910.236974974798
  0
LWPOLYLINE
  5
B6
330
17
100
AcDbEntity
  8
POCKET-KERF-15.5
100
AcDbPolyline
 90
4
 70
1
 10
497.4052099685203
 20
688.9507135594773
 10
503.37273308419907
 20
688.3272812344899
 10
526.6994925774808
 20
911.6121044794713
 10
520.731969461802
 20
912.2355368044589
  0
LWPOLYLINE
  5
B7
330
17
100
AcDbEntity
  8
POCKET-KERF-15.5
100
AcDbPolyline
 90
4
 70
1
 10
485.5205304419116
 20
689.9577999290686
 10
491.502254975331
 20
689.4898559086043
 10
509.01116040770603
 20
913.3060488673805
 10
503.0294358742866
 20
913.7739928878448
  0
LWPOLYLINE
  5
B8
330
17
100
AcDbEntity
  8
POCKET-KERF-15.5
100
AcDbPolyline
 90
4
 70
1
 10
473.61367014822355
 20
690.6553014363082
 10
479.6055454262176
 20
690.3431626002694
 10
491.28474020800104
 20
914.5391625852137
 10
485.292864930007
 20
914.8513014212524
  0
LWPOLYLINE
  5
B9
330
17
100
AcDbEntity
  8
POCKET-KERF-15.5
100
AcDbPolyline
 90
4
 70
1
 10
461.69269211329635
 20
691.0427457507463
 10
467.69066058887057
 20
690.8866234716899
 10
473.53223586357154
 20
915.3106105994256
 10
467.5342673879973
 20
915.466732878482
  0
LWPOLYLINE
  5
BA
330
17
100
AcDbEntity
  8
POCKET-KERF-15.5
100
AcDbPolyline
 90
4
 70
1
 10
449.76566892314906
 20
691.1198705048538
 10
455.76566892314906
 20
691.1198705048538
 10
455.7656689231491
 20
915.6198705048539
 10
449.7656689231491
 20
915.6198705048539
  0
LWPOLYLINE
  5
BB
330
17
100
AcDbEntity
  8
POCKET-KERF-15.5
100
AcDbPolyline
 90
4
 70
1
 10
437.84067725742767
 20
690.8866234716899
 10
443.8386457330019
 20
691.0427457507463
 10
437.99707045830104
 20
915.466732878482
 10
431.9991019827268
 20
915.3106105994256
  0
LWPOLYLINE
  5
BC
330
17
100
AcDbEntity
  8
POCKET-KERF-15.5
100
AcDbPolyline
 90
4
 70
1
 10
425.9257924200806
 20
690.3431626002694
 10
431.91766769807464
 20
690.6553014363083
 10
420.23847291629124
 20
914.8513014212526
 10
414.2465976382972
 20
914.539162585214
  0
LWPOLYLINE
  5
BD
330
17
100
AcDbEntity
  8
POCKET-KERF-15.5
100
AcDbPolyline
 90
4
 70
1
 10
414.0290828709671
 20
689.4898559086042
 10
420.01080740438647
 20
689.9577999290686
 10
402.50190197201147
 20
913.7739928878448
 10
396.52017743859204
 20
913.3060488673805
  0
LWPOLYLINE
  5
BE
330
17
100
AcDbEntity
  8
POCKET-KERF-15.5
100
AcDbPolyline
 90
4
 70
1
 10
402.1586047620991
 20
688.3272812344899
 10
408.1261278777779
 20
688.9507135594773
 10
384.7993683844963
 20
912.2355368044589
 10
378.83184526881746
 20
911.6121044794713
  0
LWPOLYLINE
  5
BF
330
17
100
AcDbEntity
  8
POCKET-KERF-15.5
100
AcDbPolyline
 90
4
 70
1
 10
390.32239648221764
 20
686.8562258442088
 10
396.2716771238322
 20
687.634724301054
 10
367.1428598635387
 20
910.236974974798
 10
361.19357922192415
 20
909.4584765179528
  0
LWPOLYLINE
  5
C0
330
17
100
AcDbEntity
  8
POCKET-KERF-15.5
100
AcDbPolyline
 90
4
 70
1
 10
378.5284732133995
 20
685.0776858994133
 10
384.45548267797
 20
686.0107233085727
 10
349.5443329519175
 20
907.7796607745876
 10
343.61732348734694
 20
906.846623365428
  0
LWPOLYLINE
  5
C1
330
17
100
AcDbEntity
  8
POCKET-KERF-15.5
100
AcDbPolyline
 90
4
 70
1
 10
366.78482150337635
 20
682.9928657825499
 10
372.68554616940327
 20
684.0798103145947
 10
332.01570492872514
 20
904.8652582350998
 10
326.1149802626982
 20
903.778313703055
  0
LWPOLYLINE
  5
C2
330
17
100
AcDbEntity
  8
POCKET-KERF-15.5
100
AcDbPolyline
 90
4
 70
1
 10
355.0993938572473
 20
680.6031772812825
 10
360.9698379026342
 20
681.8432928847571
 10
314.5688457392882
 20
901.495740916317
 10
308.6984016939013
 20
900.2556253128422
  0
LWPOLYLINE
  5
C3
330
17
100
AcDbEntity
  8
POCKET-KERF-15.5
100
AcDbPolyline
 90
4
 70
1
 10
343.48010335224194
 20
677.9102386324643
 10
349.3162914601661
 20
679.3026855323225
 10
297.21556995713877
 20
897.6733905704846
 10
291.3793818492146
 20
896.2809436706264
  0
LWPOLYLINE
  5
C4
330
17
100
AcDbEntity
  8
POCKET-KERF-15.5
100
AcDbPolyline
 90
4
 70
1
 10
331.9348182791839
 20
674.9158734263094
 10
337.7327983300804
 20
676.4597086925882
 10
279.96762878348324
 20
893.4007955969662
 10
274.1696487325867
 20
891.8569603306873
  0
LWPOLYLINE
  5
C5
330
17
100
AcDbEntity
  8
POCKET-KERF-15.5
100
AcDbPolyline
 90
4
 70
1
 10
320.4713568142828
 20
671.6221093715033
 10
326.22720256212045
 20
673.3162875578516
 10
262.8367020895844
 20
888.6808492894454
 10
257.08085634174665
 20
886.986671103097
  0
LWPOLYLINE
  5
C6
330
17
100
AcDbEntity
  8
POCKET-KERF-15.5
100
AcDbPolyline
 90
4
 70
1
 10
309.0974817248617
 20
668.0311769220891
 10
314.80729545589804
 20
669.874550773718
 10
245.83439050744704
 20
883.5167478766593
 10
240.12457677641078
 20
881.6733740250304
  0
LWPOLYLINE
  5
C7
330
17
100
AcDbEntity
  8
POCKET-KERF-15.5
100
AcDbPolyline
 90
4
 70
1
 10
297.8208951126075
 20
664.1455077670612
 10
303.480810284822
 20
666.1368289976356
 10
228.9722075741627
 20
877.9119883579938
 10
223.3122924019482
 20
875.9206671274194
  0
LWPOLYLINE
  5
C8
330
17
100
AcDbEntity
  8
POCKET-KERF-15.5
100
AcDbPolyline
 90
4
 70
1
 10
286.64923319790086
 20
659.9677331836856
 10
292.2554170593201
 20
662.1056533206323
 10
212.2615719352315
 20
871.8703661354033
 10
206.65538807381225
 20
869.7324459984567
  0
LWPOLYLINE
  5
C9
330
17
100
AcDbEntity
  8
POCKET-KERF-15.5
100
AcDbPolyline
 90
4
 70
1
 10
275.59006114876036
 20
655.5006822556663
 10
281.13871733290114
 20
657.7837535533258
 10
195.71379961214373
 20
865.3959724432598
 10
190.16514342800295
 20
863.1129011456003
  0
LWPOLYLINE
  5
CA
330
17
100
AcDbEntity
  8
POCKET-KERF-15.5
100
AcDbPolyline
 90
4
 70
1
 10
264.6508679579017
 20
650.7473799573606
 10
270.13823905457457
 20
653.1740563773639
 10
179.34009633945487
 20
858.4931915778726
 10
173.85272524278201
 20
856.0665151578695
  0
LWPOLYLINE
  5
CB
330
17
100
AcDbEntity
  8
POCKET-KERF-15.5
100
AcDbPolyline
 90
4
 70
1
 10
253.83906137138015
 20
645.7110451053424
 10
259.26143147111304
 20
648.2796833635491
 10
163.15154997654471
 20
851.1666979285529
 10
157.7291798768119
 20
848.5980596703463
  0
LWPOLYLINE
  5
CC
330
17
100
AcDbEntity
  8
POCKET-KERF-15.5
100
AcDbPolyline
 90
4
 70
1
 10
243.16196287225117
 20
640.3950881787009
 10
248.51566008260963
 20
643.1039488579904
 10
147.15912299919756
 20
843.4214528122354
 10
141.80542578883916
 20
840.7125921329459
  0
LWPOLYLINE
  5
CD
330
17
100
AcDbEntity
  8
POCKET-KERF-15.5
100
AcDbPolyline
 90
4
 70
1
 10
232.62680272264745
 20
634.8031090095507
 10
237.90820165474778
 20
637.6503577377108
 10
131.37364507609104
 20
835.2627011137988
 10
126.09224614399065
 20
832.4154523856387
  0
LWPOLYLINE
  5
CE
330
17
100
AcDbEntity
  8
POCKET-KERF-15.5
100
AcDbPolyline
 90
4
 70
1
 10
222.24071506762692
 20
628.9388943453151
 10
227.44623929115824
 20
631.9226030372334
 10
115.8058057352164
 20
826.6959677343638
 10
110.60028151168503
 20
823.7122590424455
  0
LWPOLYLINE
  5
CF
330
17
100
AcDbEntity
  8
POCKET-KERF-15.5
100
AcDbPolyline
 90
4
 70
1
 10
212.0107331041092
 20
622.8064152844372
 10
217.13685756920177
 20
625.9245634477513
 10
100.46614712519927
 20
817.7270538499662
 10
95.34002266010664
 20
814.6089056866521
  0
LWPOLYLINE
  5
D0
330
17
100
AcDbEntity
  8
POCKET-KERF-15.5
100
AcDbPolyline
 90
4
 70
1
 10
201.94378431817202
 20
616.4098245872507
 10
206.98703774247244
 20
619.660300690575
 10
85.36505687642224
 20
808.3620329831488
 10
80.32180345212188
 20
805.1115568798245
  0
LWPOLYLINE
  5
D1
330
17
100
AcDbEntity
  8
POCKET-KERF-15.5
100
AcDbPolyline
 90
4
 70
1
 10
192.04668579393325
 20
609.7534538638373
 10
197.00365301326923
 20
613.1340567666387
 10
70.51276106678523
 20
798.6072468901251
 10
65.55579384744925
 20
795.2266439873237
  0
LWPOLYLINE
  5
D2
330
17
100
AcDbEntity
  8
POCKET-KERF-15.5
100
AcDbPolyline
 90
4
 70
1
 10
182.32613959719143
 20
602.8418106407672
 10
187.1934638782349
 20
606.350251083922
 10
55.91931729685949
 20
788.4693012663
 10
51.051993015816024
 20
784.9608608231453
  0
LWPOLYLINE
  5
D3
330
17
100
AcDbEntity
  8
POCKET-KERF-15.5
100
AcDbPolyline
 90
4
 70
1
 10
172.78872823695662
 20
595.6795753087168
 10
177.56311355031931
 20
599.3134774647395
 10
41.594607879136916
 20
777.9550612730615
 10
36.820222565774216
 20
774.3211591170387
  0
LWPOLYLINE
  5
D4
330
17
100
AcDbEntity
  8
POCKET-KERF-15.5
100
AcDbPolyline
 90
4
 70
1
 10
163.44091020794085
 20
588.2715979530265
 10
168.11912346016206
 20
592.02850103492
 10
27.548333145974972
 20
767.0716468888634
 10
22.87011989375376
 20
763.3147438069698
  0
LWPOLYLINE
  5
D5
330
17
100
AcDbEntity
  8
CUT
100
AcDbPolyline
 90
4
 70
1
 10
135.38673060925035
 20
1172.9596241820022
 10
18.0
 20
1030.619870504854
 42
0.3591568323270878
 10
600.5859963570199
 20
1030.6198705048537
 10
483.19926574776963
 20
1172.9596241820022
 42
-0.3591568323270878
  0
LWPOLYLINE
  5
D6
330
17
100
AcDbEntity
  8
POCKET-KERF-15.5
100
AcDbPolyline
 90
4
 70
1
 10
142.0165331140866
 20
1167.0101826321338
 10
137.30641097851714
 20
1170.7270024378304
 10
23.633671920963124
 20
1026.675767124997
 10
28.343794056532587
 20
1022.9589473193006
  0
LWPOLYLINE
  5
D7
330
17
100
AcDbEntity
  8
POCKET-KERF-15.5
100
AcDbPolyline
 90
4
 70
1
 10
151.51431149696768
 20
1160.0039776324065
 10
146.6484142004065
 20
1163.514396909262
 10
39.28809131657503
 20
1014.6990379227667
 10
44.15398861313614
 20
1011.1886186459111
  0
LWPOLYLINE
  5
D8
330
17
100
AcDbEntity
  8
POCKET-KERF-15.5
100
AcDbPolyline
 90
4
 70
1
 10
161.3051509887574
 20
1153.4135175001745
 10
156.29251654063128
 20
1156.7110159292051
 10
55.444022919443746
 20
1003.4079457240156
 10
60.45665736756985
 20
1000.110447294985
  0
LWPOLYLINE
  5
D9
330
17
100
AcDbEntity
  8
POCKET-KERF-15.5
100
AcDbPolyline
 90
4
 70
1
 10
171.3708658994937
 20
1147.2510434804074
 10
166.22080486158274
 20
1150.3294962258285
 10
72.0714583974519
 20
992.823462816384
 10
77.22151943536288
 20
989.7450100709627
  0
LWPOLYLINE
  5
DA
330
17
100
AcDbEntity
  8
POCKET-KERF-15.5
100
AcDbPolyline
 90
4
 70
1
 10
181.6927599804264
 20
1141.5280018685949
 10
176.41483817325076
 20
1144.3816909542068
 10
89.13951363829014
 20
982.965249018085
 10
94.41743544546577
 20
980.1115599324734
  0
LWPOLYLINE
  5
DB
330
17
100
AcDbEntity
  8
POCKET-KERF-15.5
100
AcDbPolyline
 90
4
 70
1
 10
192.2516611507818
 20
1136.2550227501845
 10
186.85568188586652
 20
1138.8786476800485
 10
106.61648611418988
 20
973.8516151613894
 10
112.01246537910518
 20
971.2279902315254
  0
LWPOLYLINE
  5
DC
330
17
100
AcDbEntity
  8
POCKET-KERF-15.5
100
AcDbPolyline
 90
4
 70
1
 10
203.02795710834783
 20
1131.4419002560571
 10
197.5239429793669
 20
1133.830587859738
 10
124.46991376679681
 20
965.4994890817375
 10
129.97392789577776
 20
963.1108014780567
  0
LWPOLYLINE
  5
DD
330
17
100
AcDbEntity
  8
POCKET-KERF-15.5
100
AcDbPolyline
 90
4
 70
1
 10
214.0016317577336
 20
1127.0975743707265
 10
208.39980602435543
 20
1129.2468878548098
 10
142.66663530280974
 20
957.9243841756603
 10
148.26846103618792
 20
955.7750706915771
  0
LWPOLYLINE
  5
DE
330
17
100
AcDbEntity
  8
POCKET-KERF-15.5
100
AcDbPolyline
 90
4
 70
1
 10
225.152302388643
 20
1123.230114327041
 10
219.46306998765508
 20
1125.1360615161177
 10
161.17285178839305
 20
951.1403705859042
 10
166.86208418938097
 20
949.2344233968275
  0
LWPOLYLINE
  5
DF
330
17
100
AcDbEntity
  8
POCKET-KERF-15.5
100
AcDbPolyline
 90
4
 70
1
 10
236.45925753510477
 20
1119.8467036182403
 10
230.69318575408784
 20
1121.5057443700484
 10
179.95418942795328
 20
945.1600490672811
 10
185.72026120897021
 20
943.5010083154729
  0
LWPOLYLINE
  5
E0
330
17
100
AcDbEntity
  8
POCKET-KERF-15.5
100
AcDbPolyline
 90
4
 70
1
 10
247.90149544534066
 20
1116.9536266551977
 10
242.0692942947894
 20
1118.3626794361496
 10
198.97576341067617
 20
939.9945275817898
 10
204.80796456122744
 20
938.5854748008379
  0
LWPOLYLINE
  5
E1
330
17
100
AcDbEntity
  8
POCKET-KERF-15.5
100
AcDbPolyline
 90
4
 70
1
 10
259.4577630908149
 20
1114.5562570936381
 10
253.57026541116235
 20
1115.7127047025187
 10
218.20224270623166
 20
935.6534006664775
 10
224.08974038588426
 20
934.4969530575971
  0
LWPOLYLINE
  5
E2
330
17
100
AcDbEntity
  8
POCKET-KERF-15.5
100
AcDbPolyline
 90
4
 70
1
 10
271.1065956420105
 20
1112.6590478530084
 10
265.174736982506
 20
1113.560742282214
 10
237.59791568929646
 20
932.1447316123661
 10
243.52977434880103
 20
931.2430371831604
  0
LWPOLYLINE
  5
E3
330
17
100
AcDbEntity
  8
POCKET-KERF-15.5
100
AcDbPolyline
 90
4
 70
1
 10
282.8263563376086
 20
1111.2655228455394
 10
276.86115464442213
 20
1111.9107892708284
 10
257.12675647100053
 20
929.4750374875423
 10
263.09195816418696
 20
928.8297710622533
  0
LWPOLYLINE
  5
E4
330
17
100
AcDbEntity
  8
POCKET-KERF-15.5
100
AcDbPolyline
 90
4
 70
1
 10
294.5952766730169
 20
1110.3782704308678
 10
288.6078118242983
 20
1110.7659103222095
 10
276.7524918140929
 20
927.6492770322334
 10
282.73995666281144
 20
927.2616371408915
  0
LWPOLYLINE
  5
E5
330
17
100
AcDbEntity
  8
POCKET-KERF-15.5
100
AcDbPolyline
 90
4
 70
1
 10
306.39149683360074
 20
1109.9989386083646
 10
300.3928900595049
 20
1110.128231956113
 10
296.43866850753597
 20
926.6708414483497
 10
302.4372752816318
 20
926.5415481006015
  0
LWPOLYLINE
  5
E6
330
17
100
AcDbEntity
  8
POCKET-KERF-15.5
100
AcDbPolyline
 90
4
 70
1
 10
318.1931062975151
 20
1110.128231956113
 10
312.1944995234193
 20
1109.9989386083646
 10
316.1487210753882
 20
926.5415481006015
 10
322.147327849484
 20
926.6708414483497
  0
LWPOLYLINE
  5
E7
330
17
100
AcDbEntity
  8
POCKET-KERF-15.5
100
AcDbPolyline
 90
4
 70
1
 10
329.9781845327217
 20
1110.7659103222095
 10
323.9907196840031
 20
1110.3782704308678
 10
335.8460396942085
 20
927.2616371408915
 10
341.8335045429271
 20
927.6492770322334
  0
LWPOLYLINE
  5
E8
330
17
100
AcDbEntity
  8
POCKET-KERF-15.5
100
AcDbPolyline
 90
4
 70
1
 10
341.7248417125979
 20
1111.9107892708284
 10
335.7596400194114
 20
1111.2655228455394
 10
355.49403819283293
 20
928.8297710622533
 10
361.4592398860194
 20
929.4750374875423
  0
LWPOLYLINE
  5
E9
330
17
100
AcDbEntity
  8
POCKET-KERF-15.5
100
AcDbPolyline
 90
4
 70
1
 10
353.41125937451403
 20
1113.560742282214
 10
347.4794007150095
 20
1112.6590478530084
 10
375.056222008219
 20
931.2430371831604
 10
380.9880806677235
 20
932.1447316123661
  0
LWPOLYLINE
  5
EA
330
17
100
AcDbEntity
  8
POCKET-KERF-15.5
100
AcDbPolyline
 90
4
 70
1
 10
365.0157309458577
 20
1115.7127047025187
 10
359.12823326620514
 20
1114.5562570936381
 10
394.49625597113567
 20
934.4969530575971
 10
400.38375365078826
 20
935.6534006664775
  0
LWPOLYLINE
  5
EB
330
17
100
AcDbEntity
  8
POCKET-KERF-15.5
100
AcDbPolyline
 90
4
 70
1
 10
376.51670206223065
 20
1118.3626794361496
 10
370.6845009116794
 20
1116.9536266551977
 10
413.7780317957925
 20
938.5854748008379
 10
419.6102329463438
 20
939.9945275817898
  0
LWPOLYLINE
  5
EC
330
17
100
AcDbEntity
  8
POCKET-KERF-15.5
100
AcDbPolyline
 90
4
 70
1
 10
387.89281060293223
 20
1121.5057443700484
 10
382.12673882191524
 20
1119.8467036182403
 10
432.86573514804974
 20
943.5010083154729
 10
438.63180692906667
 20
945.1600490672811
  0
LWPOLYLINE
  5
ED
330
17
100
AcDbEntity
  8
POCKET-KERF-15.5
100
AcDbPolyline
 90
4
 70
1
 10
399.12292636936496
 20
1125.1360615161177
 10
393.43369396837704
 20
1123.230114327041
 10
451.72391216763896
 20
949.2344233968275
 10
457.4131445686269
 20
951.1403705859042
  0
LWPOLYLINE
  5
EE
330
17
100
AcDbEntity
  8
POCKET-KERF-15.5
100
AcDbPolyline
 90
4
 70
1
 10
410.18619033266464
 20
1129.2468878548098
 10
404.58436459928646
 20
1127.0975743707265
 10
470.317535320832
 20
955.7750706915771
 10
475.9193610542102
 20
957.9243841756603
  0
LWPOLYLINE
  5
EF
330
17
100
AcDbEntity
  8
POCKET-KERF-15.5
100
AcDbPolyline
 90
4
 70
1
 10
421.06205337765317
 20
1133.830587859738
 10
415.5580392486722
 20
1131.4419002560571
 10
488.6120684612422
 20
963.1108014780566
 10
494.11608259022313
 20
965.4994890817375
  0
LWPOLYLINE
  5
F0
330
17
100
AcDbEntity
  8
POCKET-KERF-15.5
100
AcDbPolyline
 90
4
 70
1
 10
431.7303144711535
 20
1138.8786476800485
 10
426.3343352062383
 20
1136.2550227501843
 10
506.57353097791474
 20
971.2279902315254
 10
511.96951024283004
 20
973.8516151613894
  0
LWPOLYLINE
  5
F1
330
17
100
AcDbEntity
  8
POCKET-KERF-15.5
100
AcDbPolyline
 90
4
 70
1
 10
442.17115818376925
 20
1144.3816909542065
 10
436.8932363765936
 20
1141.5280018685949
 10
524.1685609115541
 20
980.1115599324734
 10
529.4464827187297
 20
982.965249018085
  0
LWPOLYLINE
  5
F2
330
17
100
AcDbEntity
  8
POCKET-KERF-15.5
100
AcDbPolyline
 90
4
 70
1
 10
452.3651914954372
 20
1150.3294962258285
 10
447.21513045752624
 20
1147.2510434804074
 10
541.364476921657
 20
989.7450100709626
 10
546.514537959568
 20
992.8234628163838
  0
LWPOLYLINE
  5
F3
330
17
100
AcDbEntity
  8
POCKET-KERF-15.5
100
AcDbPolyline
 90
4
 70
1
 10
462.2934798163888
 20
1156.7110159292051
 10
457.2808453682627
 20
1153.4135175001743
 10
558.1293389894502
 20
1000.1104472949847
 10
563.1419734375762
 20
1003.4079457240153
  0
LWPOLYLINE
  5
F4
330
17
100
AcDbEntity
  8
POCKET-KERF-15.5
100
AcDbPolyline
 90
4
 70
1
 10
471.9375821566136
 20
1163.514396909262
 10
467.07168486005236
 20
1160.0039776324063
 10
574.4320077438839
 20
1011.188618645911
 10
579.297905040445
 20
1014.6990379227665
  0
LWPOLYLINE
  5
F5
330
17
100
AcDbEntity
  8
POCKET-KERF-15.5
100
AcDbPolyline
 90
4
 70
1
 10
481.279585378503
 20
1170.7270024378304
 10
476.5694632429335
 20
1167.0101826321338
 10
590.2422023004874
 20
1022.9589473193006
 10
594.9523244360569
 20
1026.675767124997
  0
LWPOLYLINE
  5
F6
330
17
100
AcDbEntity
  8
CUT
100
AcDbPolyline
 90
4
 70
1
 10
687.3867306092503
 20
1104.9596241820022
 10
570.0
 20
962.6198705048539
 42
0.3591568323270878
 10
1152.58599635702
 20
962.6198705048537
 10
1035.1992657477697
 20
1104.9596241820022
 42
-0.3591568323270878
  0
LWPOLYLINE
  5
F7
330
17
100
AcDbEntity
  8
POCKET-KERF-15.5
100
AcDbPolyline
 90
4
 70
1
 10
694.0165331140865
 20
1099.0101826321338
 10
689.3064109785171
 20
1102.7270024378304
 10
575.6336719209631
 20
958.6757671249972
 10
580.3437940565326
 20
954.9589473193006
  0
LWPOLYLINE
  5
F8
330
17
100
AcDbEntity
  8
POCKET-KERF-15.5
100
AcDbPolyline
 90
4
 70
1
 10
703.5143114969677
 20
1092.0039776324065
 10
698.6484142004066
 20
1095.514396909262
 10
591.288091316575
 20
946.6990379227667
 10
596.1539886131361
 20
943.1886186459111
  0
LWPOLYLINE
  5
F9
330
17
100
AcDbEntity
  8
POCKET-KERF-15.5
100
AcDbPolyline
 90
4
 70
1
 10
713.3051509887574
 20
1085.4135175001745
 10
708.2925165406313
 20
1088.7110159292051
 10
607.4440229194438
 20
935.4079457240156
 10
612.4566573675698
 20
932.110447294985
  0
LWPOLYLINE
  5
FA
330
17
100
AcDbEntity
  8
POCKET-KERF-15.5
100
AcDbPolyline
 90
4
 70
1
 10
723.3708658994938
 20
1079.2510434804074
 10
718.2208048615828
 20
1082.3294962258285
 10
624.0714583974519
 20
924.823462816384
 10
629.2215194353629
 20
921.7450100709627
  0
LWPOLYLINE
  5
FB
330
17
100
AcDbEntity
  8
POCKET-KERF-15.5
100
AcDbPolyline
 90
4
 70
1
 10
733.6927599804264
 20
1073.5280018685949
 10
728.4148381732508
 20
1076.3816909542068
 10
641.13951363829
 20
914.965249018085
 10
646.4174354454657
 20
912.1115599324734
  0
LWPOLYLINE
  5
FC
330
17
100
AcDbEntity
  8
POCKET-KERF-15.5
100
AcDbPolyline
 90
4
 70
1
 10
744.2516611507817
 20
1068.2550227501845
 10
738.8556818858665
 20
1070.8786476800485
 10
658.6164861141899
 20
905.8516151613894
 10
664.0124653791052
 20
903.2279902315254
  0
LWPOLYLINE
  5
FD
330
17
100
AcDbEntity
  8
POCKET-KERF-15.5
100
AcDbPolyline
 90
4
 70
1
 10
755.0279571083479
 20
1063.4419002560571
 10
749.5239429793669
 20
1065.830587859738
 10
676.4699137667967
 20
897.4994890817375
 10
681.9739278957777
 20
895.1108014780567
  0
LWPOLYLINE
  5
FE
330
17
100
AcDbEntity
  8
POCKET-KERF-15.5
100
AcDbPolyline
 90
4
 70
1
 10
766.0016317577337
 20
1059.0975743707265
 10
760.3998060243554
 20
1061.2468878548098
 10
694.6666353028097
 20
889.9243841756603
 10
700.2684610361879
 20
887.7750706915771
  0
LWPOLYLINE
  5
FF
330
17
100
AcDbEntity
  8
POCKET-KERF-15.5
100
AcDbPolyline
 90
4
 70
1
 10
777.152302388643
 20
1055.230114327041
 10
771.4630699876551
 20
1057.1360615161177
 10
713.1728517883931
 20
883.1403705859042
 10
718.862084189381
 20
881.2344233968275
  0
LWPOLYLINE
  5
100
330
17
100
AcDbEntity
  8
POCKET-KERF-15.5
100
AcDbPolyline
 90
4
 70
1
 10
788.4592575351047
 20
1051.8467036182403
 10
782.6931857540877
 20
1053.5057443700484
 10
731.9541894279533
 20
877.1600490672811
 10
737.7202612089703
 20
875.5010083154729
  0
LWPOLYLINE
  5
101
330
17
100
AcDbEntity
  8
POCKET-KERF-15.5
100
AcDbPolyline
 90
4
 70
1
 10
799.9014954453406
 20
1048.9536266551977
 10
794.0692942947894
 20
1050.3626794361496
 10
750.9757634106762
 20
871.9945275817898
 10
756.8079645612274
 20
870.5854748008379
  0
LWPOLYLINE
  5
102
330
17
100
AcDbEntity
  8
POCKET-KERF-15.5
100
AcDbPolyline
 90
4
 70
1
 10
811.457763090815
 20
1046.5562570936381
 10
805.5702654111624
 20
1047.7127047025187
 10
770.2022427062316
 20
867.6534006664775
 10
776.0897403858842
 20
866.4969530575971
  0
LWPOLYLINE
  5
103
330
17
100
AcDbEntity
  8
POCKET-KERF-15.5
100
AcDbPolyline
 90
4
 70
1
 10
823.1065956420105
 20
1044.6590478530084
 10
817.1747369825059
 20
1045.560742282214
 10
789.5979156892965
 20
864.1447316123661
 10
795.5297743488011
 20
863.2430371831604
  0
LWPOLYLINE
  5
104
330
17
100
AcDbEntity
  8
POCKET-KERF-15.5
100
AcDbPolyline
 90
4
 70
1
 10
834.8263563376087
 20
1043.2655228455394
 10
828.8611546444221
 20
1043.9107892708284
 10
809.1267564710005
 20
861.4750374875423
 10
815.091958164187
 20
860.8297710622533
  0
LWPOLYLINE
  5
105
330
17
100
AcDbEntity
  8
POCKET-KERF-15.5
100
AcDbPolyline
 90
4
 70
1
 10
846.5952766730169
 20
1042.3782704308678
 10
840.6078118242983
 20
1042.7659103222095
 10
828.7524918140929
 20
859.6492770322334
 10
834.7399566628114
 20
859.2616371408915
  0
LWPOLYLINE
  5
106
330
17
100
AcDbEntity
  8
POCKET-KERF-15.5
100
AcDbPolyline
 90
4
 70
1
 10
858.3914968336006
 20
1041.9989386083646
 10
852.3928900595048
 20
1042.128231956113
 10
848.438668507536
 20
858.6708414483497
 10
854.4372752816319
 20
858.5415481006015
  0
LWPOLYLINE
  5
107
330
17
100
AcDbEntity
  8
POCKET-KERF-15.5
100
AcDbPolyline
 90
4
 70
1
 10
870.1931062975151
 20
1042.128231956113
 10
864.1944995234194
 20
1041.9989386083646
 10
868.1487210753882
 20
858.5415481006015
 10
874.147327849484
 20
858.6708414483497
  0
LWPOLYLINE
  5
108
330
17
100
AcDbEntity
  8
POCKET-KERF-15.5
100
AcDbPolyline
 90
4
 70
1
 10
881.9781845327217
 20
1042.7659103222095
 10
875.9907196840031
 20
1042.3782704308678
 10
887.8460396942086
 20
859.2616371408915
 10
893.833504542927
 20
859.6492770322334
  0
LWPOLYLINE
  5
109
330
17
100
AcDbEntity
  8
POCKET-KERF-15.5
100
AcDbPolyline
 90
4
 70
1
 10
893.7248417125978
 20
1043.9107892708284
 10
887.7596400194114
 20
1043.2655228455394
 10
907.4940381928329
 20
860.8297710622533
 10
913.4592398860194
 20
861.4750374875423
  0
LWPOLYLINE
  5
10A
330
17
100
AcDbEntity
  8
POCKET-KERF-15.5
100
AcDbPolyline
 90
4
 70
1
 10
905.4112593745141
 20
1045.560742282214
 10
899.4794007150095
 20
1044.6590478530084
 10
927.0562220082189
 20
863.2430371831604
 10
932.9880806677235
 20
864.1447316123661
  0
LWPOLYLINE
  5
10B
330
17
100
AcDbEntity
  8
POCKET-KERF-15.5
100
AcDbPolyline
 90
4
 70
1
 10
917.0157309458576
 20
1047.7127047025187
 10
911.1282332662051
 20
1046.5562570936381
 10
946.4962559711357
 20
866.4969530575971
 10
952.3837536507883
 20
867.6534006664775
  0
LWPOLYLINE
  5
10C
330
17
100
AcDbEntity
  8
POCKET-KERF-15.5
100
AcDbPolyline
 90
4
 70
1
 10
928.5167020622306
 20
1050.3626794361496
 10
922.6845009116794
 20
1048.9536266551977
 10
965.7780317957926
 20
870.5854748008379
 10
971.6102329463438
 20
871.9945275817898
  0
LWPOLYLINE
  5
10D
330
17
100
AcDbEntity
  8
POCKET-KERF-15.5
100
AcDbPolyline
 90
4
 70
1
 10
939.8928106029323
 20
1053.5057443700484
 10
934.1267388219153
 20
1051.8467036182403
 10
984.8657351480497
 20
875.5010083154729
 10
990.6318069290666
 20
877.1600490672811
  0
LWPOLYLINE
  5
10E
330
17
100
AcDbEntity
  8
POCKET-KERF-15.5
100
AcDbPolyline
 90
4
 70
1
 10
951.122926369365
 20
1057.1360615161177
 10
945.433693968377
 20
1055.230114327041
 10
1003.723912167639
 20
881.2344233968275
 10
1009.4131445686269
 20
883.1403705859042
  0
LWPOLYLINE
  5
10F
330
17
100
AcDbEntity
  8
POCKET-KERF-15.5
100
AcDbPolyline
 90
4
 70
1
 10
962.1861903326646
 20
1061.2468878548098
 10
956.5843645992865
 20
1059.0975743707265
 10
1022.317535320832
 20
887.7750706915771
 10
1027.9193610542104
 20
889.9243841756603
  0
LWPOLYLINE
  5
110
330
17
100
AcDbEntity
  8
POCKET-KERF-15.5
100
AcDbPolyline
 90
4
 70
1
 10
973.0620533776531
 20
1065.830587859738
 10
967.5580392486721
 20
1063.4419002560571
 10
1040.6120684612422
 20
895.1108014780566
 10
1046.1160825902232
 20
897.4994890817375
  0
LWPOLYLINE
  5
111
330
17
100
AcDbEntity
  8
POCKET-KERF-15.5
100
AcDbPolyline
 90
4
 70
1
 10
983.7303144711535
 20
1070.8786476800485
 10
978.3343352062383
 20
1068.2550227501843
 10
1058.5735309779147
 20
903.2279902315254
 10
1063.96951024283
 20
905.8516151613894
  0
LWPOLYLINE
  5
112
330
17
100
AcDbEntity
  8
POCKET-KERF-15.5
100
AcDbPolyline
 90
4
 70
1
 10
994.1711581837693
 20
1076.3816909542065
 10
988.8932363765937
 20
1073.5280018685949
 10
1076.168560911554
 20
912.1115599324734
 10
1081.4464827187296
 20
914.965249018085
  0
LWPOLYLINE
  5
113
330
17
100
AcDbEntity
  8
POCKET-KERF-15.5
100
AcDbPolyline
 90
4
 70
1
 10
1004.3651914954372
 20
1082.3294962258285
 10
999.2151304575262
 20
1079.2510434804074
 10
1093.364476921657
 20
921.7450100709626
 10
1098.514537959568
 20
924.8234628163838
  0
LWPOLYLINE
  5
114
330
17
100
AcDbEntity
  8
POCKET-KERF-15.5
100
AcDbPolyline
 90
4
 70
1
 10
1014.2934798163889
 20
1088.7110159292051
 10
1009.2808453682627
 20
1085.4135175001743
 10
1110.1293389894502
 20
932.1104472949847
 10
1115.1419734375763
 20
935.4079457240153
  0
LWPOLYLINE
  5
115
330
17
100
AcDbEntity
  8
POCKET-KERF-15.5
100
AcDbPolyline
 90
4
 70
1
 10
1023.9375821566135
 20
1095.514396909262
 10
1019.0716848600523
 20
1092.0039776324063
 10
1126.4320077438838
 20
943.188618645911
 10
1131.297905040445
 20
946.6990379227665
  0
LWPOLYLINE
  5
116
330
17
100
AcDbEntity
  8
POCKET-KERF-15.5
100
AcDbPolyline
 90
4
 70
1
 10
1033.279585378503
 20
1102.7270024378304
 10
1028.5694632429336
 20
1099.0101826321338
 10
1142.2422023004874
 20
954.9589473193005
 10
1146.9523244360569
 20
958.675767124997
  0
LWPOLYLINE
  5
117
330
17
100
AcDbEntity
  8
CUT
100
AcDbPolyline
 90
4
 70
1
 10
883.3867306092503
 20
440.95962418200236
 10
766.0
 20
298.6198705048539
 42
0.3591568323270878
 10
1348.58599635702
 20
298.61987050485374
 10
1231.1992657477697
 20
440.95962418200224
 42
-0.3591568323270878
  0
LWPOLYLINE
  5
118
330
17
100
AcDbEntity
  8
POCKET-KERF-15.5
100
AcDbPolyline
 90
4
 70
1
 10
890.0165331140865
 20
435.0101826321337
 10
885.3064109785171
 20
438.72700243783027
 10
771.6336719209631
 20
294.6757671249971
 10
776.3437940565326
 20
290.95894731930053
  0
LWPOLYLINE
  5
119
330
17
100
AcDbEntity
  8
POCKET-KERF-15.5
100
AcDbPolyline
 90
4
 70
1
 10
899.5143114969677
 20
428.0039776324063
 10
894.6484142004066
 20
431.5143969092619
 10
787.288091316575
 20
282.69903792276665
 10
792.1539886131361
 20
279.18861864591116
  0
LWPOLYLINE
  5
11A
330
17
100
AcDbEntity
  8
POCKET-KERF-15.5
100
AcDbPolyline
 90
4
 70
1
 10
909.3051509887574
 20
421.41351750017446
 10
904.2925165406313
 20
424.7110159292052
 10
803.4440229194438
 20
271.4079457240156
 10
808.4566573675698
 20
268.11044729498497
  0
LWPOLYLINE
  5
11B
330
17
100
AcDbEntity
  8
POCKET-KERF-15.5
100
AcDbPolyline
 90
4
 70
1
 10
919.3708658994938
 20
415.25104348040725
 10
914.2208048615828
 20
418.3294962258284
 10
820.0714583974519
 20
260.82346281638394
 10
825.2215194353629
 20
257.74501007096273
  0
LWPOLYLINE
  5
11C
330
17
100
AcDbEntity
  8
POCKET-KERF-15.5
100
AcDbPolyline
 90
4
 70
1
 10
929.6927599804264
 20
409.52800186859497
 10
924.4148381732508
 20
412.38169095420676
 10
837.13951363829
 20
250.96524901808516
 10
842.4174354454657
 20
248.11155993247337
  0
LWPOLYLINE
  5
11D
330
17
100
AcDbEntity
  8
POCKET-KERF-15.5
100
AcDbPolyline
 90
4
 70
1
 10
940.2516611507817
 20
404.2550227501844
 10
934.8556818858665
 20
406.8786476800485
 10
854.6164861141899
 20
241.8516151613894
 10
860.0124653791052
 20
239.22799023152535
  0
LWPOLYLINE
  5
11E
330
17
100
AcDbEntity
  8
POCKET-KERF-15.5
100
AcDbPolyline
 90
4
 70
1
 10
951.0279571083479
 20
399.44190025605724
 10
945.5239429793669
 20
401.830587859738
 10
872.4699137667967
 20
233.4994890817375
 10
877.9739278957777
 20
231.11080147805674
  0
LWPOLYLINE
  5
11F
330
17
100
AcDbEntity
  8
POCKET-KERF-15.5
100
AcDbPolyline
 90
4
 70
1
 10
962.0016317577337
 20
395.09757437072653
 10
956.3998060243554
 20
397.24688785480976
 10
890.6666353028097
 20
225.9243841756604
 10
896.2684610361879
 20
223.77507069157718
  0
LWPOLYLINE
  5
120
330
17
100
AcDbEntity
  8
POCKET-KERF-15.5
100
AcDbPolyline
 90
4
 70
1
 10
973.152302388643
 20
391.2301143270412
 10
967.4630699876551
 20
393.1360615161178
 10
909.1728517883931
 20
219.1403705859042
 10
914.862084189381
 20
217.23442339682757
  0
LWPOLYLINE
  5
121
330
17
100
AcDbEntity
  8
POCKET-KERF-15.5
100
AcDbPolyline
 90
4
 70
1
 10
984.4592575351047
 20
387.8467036182404
 10
978.6931857540877
 20
389.5057443700486
 10
927.9541894279533
 20
213.1600490672811
 10
933.7202612089703
 20
211.5010083154729
  0
LWPOLYLINE
  5
122
330
17
100
AcDbEntity
  8
POCKET-KERF-15.5
100
AcDbPolyline
 90
4
 70
1
 10
995.9014954453406
 20
384.9536266551978
 10
990.0692942947894
 20
386.36267943614973
 10
946.9757634106762
 20
207.9945275817898
 10
952.8079645612274
 20
206.5854748008379
  0
LWPOLYLINE
  5
123
330
17
100
AcDbEntity
  8
POCKET-KERF-15.5
100
AcDbPolyline
 90
4
 70
1
 10
1007.457763090815
 20
382.55625709363824
 10
1001.5702654111624
 20
383.71270470251875
 10
966.2022427062316
 20
203.65340066647758
 10
972.0897403858842
 20
202.49695305759707
  0
LWPOLYLINE
  5
124
330
17
100
AcDbEntity
  8
POCKET-KERF-15.5
100
AcDbPolyline
 90
4
 70
1
 10
1019.1065956420105
 20
380.65904785300825
 10
1013.1747369825059
 20
381.56074228221405
 10
985.5979156892965
 20
200.14473161236612
 10
991.5297743488011
 20
199.2430371831603
  0
LWPOLYLINE
  5
125
330
17
100
AcDbEntity
  8
POCKET-KERF-15.5
100
AcDbPolyline
 90
4
 70
1
 10
1030.8263563376086
 20
379.2655228455395
 10
1024.861154644422
 20
379.91078927082856
 10
1005.1267564710005
 20
197.47503748754224
 10
1011.091958164187
 20
196.8297710622532
  0
LWPOLYLINE
  5
126
330
17
100
AcDbEntity
  8
POCKET-KERF-15.5
100
AcDbPolyline
 90
4
 70
1
 10
1042.5952766730168
 20
378.37827043086776
 10
1036.607811824298
 20
378.76591032220966
 10
1024.752491814093
 20
195.64927703223344
 10
1030.7399566628114
 20
195.26163714089154
  0
LWPOLYLINE
  5
127
330
17
100
AcDbEntity
  8
POCKET-KERF-15.5
100
AcDbPolyline
 90
4
 70
1
 10
1054.3914968336007
 20
377.99893860836477
 10
1048.392890059505
 20
378.1282319561131
 10
1044.4386685075358
 20
194.67084144834982
 10
1050.4372752816319
 20
194.5415481006015
  0
LWPOLYLINE
  5
128
330
17
100
AcDbEntity
  8
POCKET-KERF-15.5
100
AcDbPolyline
 90
4
 70
1
 10
1066.193106297515
 20
378.1282319561131
 10
1060.1944995234192
 20
377.99893860836477
 10
1064.1487210753883
 20
194.5415481006015
 10
1070.147327849484
 20
194.67084144834982
  0
LWPOLYLINE
  5
129
330
17
100
AcDbEntity
  8
POCKET-KERF-15.5
100
AcDbPolyline
 90
4
 70
1
 10
1077.9781845327218
 20
378.76591032220966
 10
1071.9907196840031
 20
378.37827043086776
 10
1083.8460396942085
 20
195.26163714089154
 10
1089.833504542927
 20
195.64927703223344
  0
LWPOLYLINE
  5
12A
330
17
100
AcDbEntity
  8
POCKET-KERF-15.5
100
AcDbPolyline
 90
4
 70
1
 10
1089.724841712598
 20
379.91078927082856
 10
1083.7596400194116
 20
379.2655228455395
 10
1103.494038192833
 20
196.8297710622532
 10
1109.4592398860193
 20
197.47503748754224
  0
LWPOLYLINE
  5
12B
330
17
100
AcDbEntity
  8
POCKET-KERF-15.5
100
AcDbPolyline
 90
4
 70
1
 10
1101.4112593745142
 20
381.56074228221405
 10
1095.4794007150097
 20
380.65904785300825
 10
1123.056222008219
 20
199.2430371831603
 10
1128.9880806677236
 20
200.14473161236612
  0
LWPOLYLINE
  5
12C
330
17
100
AcDbEntity
  8
POCKET-KERF-15.5
100
AcDbPolyline
 90
4
 70
1
 10
1113.0157309458577
 20
383.71270470251875
 10
1107.1282332662051
 20
382.55625709363824
 10
1142.4962559711357
 20
202.49695305759707
 10
1148.3837536507883
 20
203.65340066647758
  0
LWPOLYLINE
  5
12D
330
17
100
AcDbEntity
  8
POCKET-KERF-15.5
100
AcDbPolyline
 90
4
 70
1
 10
1124.5167020622305
 20
386.36267943614973
 10
1118.6845009116792
 20
384.9536266551978
 10
1161.7780317957927
 20
206.5854748008379
 10
1167.6102329463438
 20
207.9945275817898
  0
LWPOLYLINE
  5
12E
330
17
100
AcDbEntity
  8
POCKET-KERF-15.5
100
AcDbPolyline
 90
4
 70
1
 10
1135.8928106029323
 20
389.5057443700486
 10
1130.126738821915
 20
387.8467036182404
 10
1180.86573514805
 20
211.5010083154729
 10
1186.6318069290667
 20
213.1600490672811
  0
LWPOLYLINE
  5
12F
330
17
100
AcDbEntity
  8
POCKET-KERF-15.5
100
AcDbPolyline
 90
4
 70
1
 10
1147.122926369365
 20
393.1360615161178
 10
1141.433693968377
 20
391.2301143270412
 10
1199.7239121676391
 20
217.23442339682757
 10
1205.413144568627
 20
219.1403705859042
  0
LWPOLYLINE
  5
130
330
17
100
AcDbEntity
  8
POCKET-KERF-15.5
100
AcDbPolyline
 90
4
 70
1
 10
1158.1861903326646
 20
397.24688785480976
 10
1152.5843645992863
 20
395.09757437072653
 10
1218.3175353208321
 20
223.77507069157718
 10
1223.9193610542104
 20
225.9243841756604
  0
LWPOLYLINE
  5
131
330
17
100
AcDbEntity
  8
POCKET-KERF-15.5
100
AcDbPolyline
 90
4
 70
1
 10
1169.062053377653
 20
401.830587859738
 10
1163.558039248672
 20
399.44190025605724
 10
1236.6120684612422
 20
231.1108014780567
 10
1242.1160825902232
 20
233.49948908173744
  0
LWPOLYLINE
  5
132
330
17
100
AcDbEntity
  8
POCKET-KERF-15.5
100
AcDbPolyline
 90
4
 70
1
 10
1179.7303144711534
 20
406.8786476800484
 10
1174.3343352062382
 20
404.25502275018437
 10
1254.5735309779147
 20
239.2279902315253
 10
1259.96951024283
 20
241.85161516138933
  0
LWPOLYLINE
  5
133
330
17
100
AcDbEntity
  8
POCKET-KERF-15.5
100
AcDbPolyline
 90
4
 70
1
 10
1190.1711581837692
 20
412.3816909542067
 10
1184.8932363765937
 20
409.5280018685949
 10
1272.168560911554
 20
248.11155993247337
 10
1277.4464827187296
 20
250.96524901808516
  0
LWPOLYLINE
  5
134
330
17
100
AcDbEntity
  8
POCKET-KERF-15.5
100
AcDbPolyline
 90
4
 70
1
 10
1200.3651914954373
 20
418.3294962258283
 10
1195.2151304575261
 20
415.25104348040713
 10
1289.364476921657
 20
257.7450100709626
 10
1294.514537959568
 20
260.8234628163837
  0
LWPOLYLINE
  5
135
330
17
100
AcDbEntity
  8
POCKET-KERF-15.5
100
AcDbPolyline
 90
4
 70
1
 10
1210.2934798163888
 20
424.7110159292051
 10
1205.2808453682626
 20
421.41351750017446
 10
1306.1293389894502
 20
268.11044729498485
 10
1311.1419734375763
 20
271.40794572401546
  0
LWPOLYLINE
  5
136
330
17
100
AcDbEntity
  8
POCKET-KERF-15.5
100
AcDbPolyline
 90
4
 70
1
 10
1219.9375821566136
 20
431.5143969092618
 10
1215.0716848600525
 20
428.00397763240625
 10
1322.4320077438838
 20
279.188618645911
 10
1327.297905040445
 20
282.6990379227665
  0
LWPOLYLINE
  5
137
330
17
100
AcDbEntity
  8
POCKET-KERF-15.5
100
AcDbPolyline
 90
4
 70
1
 10
1229.279585378503
 20
438.72700243783027
 10
1224.5694632429336
 20
435.01018263213365
 10
1338.2422023004874
 20
290.9589473193005
 10
1342.9523244360569
 20
294.67576712499704
  0
LWPOLYLINE
  5
138
330
17
100
AcDbEntity
  8
CUT
100
AcDbPolyline
 90
2
 70
1
 10
1092.05
 20
611.025
 42
1.0
 10
826.0
 20
611.025
 42
1.0
  0
LWPOLYLINE
  5
139
330
17
100
AcDbEntity
  8
CUT
100
AcDbPolyline
 90
2
 70
1
 10
856.0
 20
611.025
 42
-1.0
 10
1062.05
 20
611.025
 42
-1.0
  0
LWPOLYLINE
  5
13A
330
17
100
AcDbEntity
  8
CUT
100
AcDbPolyline
 90
2
 70
1
 10
1308.05
 20
795.025
 42
1.0
 10
1042.0
 20
795.025
 42
1.0
  0
LWPOLYLINE
  5
13B
330
17
100
AcDbEntity
  8
CUT
100
AcDbPolyline
 90
2
 70
1
 10
1072.0
 20
795.025
 42
-1.0
 10
1278.05
 20
795.025
 42
-1.0
  0
LWPOLYLINE
  5
13C
330
17
100
AcDbEntity
  8
CUT
100
AcDbPolyline
 90
2
 70
1
 10
1392.05
 20
1067.025
 42
1.0
 10
1126.0
 20
1067.025
 42
1.0
  0
LWPOLYLINE
  5
13D
330
17
100
AcDbEntity
  8
CUT
100
AcDbPolyline
 90
2
 70
1
 10
1156.0
 20
1067.025
 42
-1.0
 10
1362.05
 20
1067.025
 42
-1.0
  0
LWPOLYLINE
  5
13E
330
17
100
AcDbEntity
  8
CUT
100
AcDbPolyline
 90
2
 70
1
 10
1440.0
 20
557.0
 42
1.0
 10
1186.0
 20
557.0
 42
1.0
  0
LWPOLYLINE
  5
13F
330
17
100
AcDbEntity
  8
CUT
100
AcDbPolyline
 90
8
 70
1
 10
1224.690224624645
 20
550.7
 42
2.414213562373095
 10
1227.890224624645
 20
547.5
 10
1262.490224624645
 20
547.5
 42
2.414213562373095
 10
1265.690224624645
 20
550.7
 10
1265.690224624645
 20
563.3
 42
2.414213562373095
 10
1262.490224624645
 20
566.5
 10
1227.890224624645
 20
566.5
 42
2.414213562373095
 10
1224.690224624645
 20
563.3
  0
LWPOLYLINE
  5
140
330
17
100
AcDbEntity
  8
CUT
100
AcDbPolyline
 90
8
 70
1
 10
1360.309775375355
 20
550.7
 42
2.414213562373095
 10
1363.509775375355
 20
547.5
 10
1398.109775375355
 20
547.5
 42
2.414213562373095
 10
1401.309775375355
 20
550.7
 10
1401.309775375355
 20
563.3
 42
2.414213562373095
 10
1398.109775375355
 20
566.5
 10
1363.509775375355
 20
566.5
 42
2.414213562373095
 10
1360.309775375355
 20
563.3
  0
LWPOLYLINE
  5
141
330
17
100
AcDbEntity
  8
CUT
100
AcDbPolyline
 90
8
 70
1
 10
1319.3
 20
468.69022462464494
 42
2.414213562373095
 10
1322.5
 20
471.89022462464493
 10
1322.5
 20
506.49022462464495
 42
2.414213562373095
 10
1319.3
 20
509.69022462464494
 10
1306.7
 20
509.69022462464494
 42
2.414213562373095
 10
1303.5
 20
506.49022462464495
 10
1303.5
 20
471.89022462464493
 42
2.414213562373095
 10
1306.7
 20
468.69022462464494
  0
LWPOLYLINE
  5
142
330
17
100
AcDbEntity
  8
CUT
100
AcDbPolyline
 90
8
 70
1
 10
1319.3
 20
604.309775375355
 42
2.414213562373095
 10
1322.5
 20
607.509775375355
 10
1322.5
 20
642.109775375355
 42
2.414213562373095
 10
1319.3
 20
645.309775375355
 10
1306.7
 20
645.309775375355
 42
2.414213562373095
 10
1303.5
 20
642.109775375355
 10
1303.5
 20
607.509775375355
 42
2.414213562373095
 10
1306.7
 20
604.309775375355
  0
LWPOLYLINE
  5
143
330
17
100
AcDbEntity
  8
CUT
100
AcDbPolyline
 90
2
 70
1
 10
1508.0
 20
145.0
 42
1.0
 10
1254.0
 20
145.0
 42
1.0
  0
LWPOLYLINE
  5
144
330
17
100
AcDbEntity
  8
CUT
100
AcDbPolyline
 90
8
 70
1
 10
1292.690224624645
 20
138.7
 42
2.414213562373095
 10
1295.890224624645
 20
135.5
 10
1330.490224624645
 20
135.5
 42
2.414213562373095
 10
1333.690224624645
 20
138.7
 10
1333.690224624645
 20
151.29999999999998
 42
2.414213562373095
 10
1330.490224624645
 20
154.5
 10
1295.890224624645
 20
154.5
 42
2.414213562373095
 10
1292.690224624645
 20
151.29999999999998
  0
LWPOLYLINE
  5
145
330
17
100
AcDbEntity
  8
CUT
100
AcDbPolyline
 90
8
 70
1
 10
1428.309775375355
 20
138.7
 42
2.414213562373095
 10
1431.509775375355
 20
135.5
 10
1466.109775375355
 20
135.5
 42
2.414213562373095
 10
1469.309775375355
 20
138.7
 10
1469.309775375355
 20
151.29999999999998
 42
2.414213562373095
 10
1466.109775375355
 20
154.5
 10
1431.509775375355
 20
154.5
 42
2.414213562373095
 10
1428.309775375355
 20
151.29999999999998
  0
LWPOLYLINE
  5
146
330
17
100
AcDbEntity
  8
CUT
100
AcDbPolyline
 90
8
 70
1
 10
1387.3
 20
56.690224624644955
 42
2.414213562373095
 10
1390.5
 20
59.89022462464496
 10
1390.5
 20
94.49022462464495
 42
2.414213562373095
 10
1387.3
 20
97.69022462464496
 10
1374.7
 20
97.69022462464496
 42
2.414213562373095
 10
1371.5
 20
94.49022462464495
 10
1371.5
 20
59.89022462464496
 42
2.414213562373095
 10
1374.7
 20
56.690224624644955
  0
LWPOLYLINE
  5
147
330
17
100
AcDbEntity
  8
CUT
100
AcDbPolyline
 90
8
 70
1
 10
1387.3
 20
192.309775375355
 42
2.414213562373095
 10
1390.5
 20
195.50977537535502
 10
1390.5
 20
230.109775375355
 42
2.414213562373095
 10
1387.3
 20
233.309775375355
 10
1374.7
 20
233.309775375355
 42
2.414213562373095
 10
1371.5
 20
230.109775375355
 10
1371.5
 20
195.50977537535502
 42
2.414213562373095
 10
1374.7
 20
192.309775375355
  0
LWPOLYLINE
  5
148
330
17
100
AcDbEntity
  8
CUT
100
AcDbPolyline
 90
2
 70
1
 10
1572.0
 20
849.0
 42
1.0
 10
1318.0
 20
849.0
 42
1.0
  0
LWPOLYLINE
  5
149
330
17
100
AcDbEntity
  8
CUT
100
AcDbPolyline
 90
8
 70
1
 10
1356.690224624645
 20
842.7
 42
2.414213562373095
 10
1359.890224624645
 20
839.5
 10
1394.490224624645
 20
839.5
 42
2.414213562373095
 10
1397.690224624645
 20
842.7
 10
1397.690224624645
 20
855.3
 42
2.414213562373095
 10
1394.490224624645
 20
858.5
 10
1359.890224624645
 20
858.5
 42
2.414213562373095
 10
1356.690224624645
 20
855.3
  0
LWPOLYLINE
  5
14A
330
17
100
AcDbEntity
  8
CUT
100
AcDbPolyline
 90
8
 70
1
 10
1492.309775375355
 20
842.7
 42
2.414213562373095
 10
1495.509775375355
 20
839.5
 10
1530.109775375355
 20
839.5
 42
2.414213562373095
 10
1533.309775375355
 20
842.7
 10
1533.309775375355
 20
855.3
 42
2.414213562373095
 10
1530.109775375355
 20
858.5
 10
1495.509775375355
 20
858.5
 42
2.414213562373095
 10
1492.309775375355
 20
855.3
  0
LWPOLYLINE
  5
14B
330
17
100
AcDbEntity
  8
CUT
100
AcDbPolyline
 90
8
 70
1
 10
1451.3
 20
760.690224624645
 42
2.414213562373095
 10
1454.5
 20
763.8902246246449
 10
1454.5
 20
798.490224624645
 42
2.414213562373095
 10
1451.3
 20
801.690224624645
 10
1438.7
 20
801.690224624645
 42
2.414213562373095
 10
1435.5
 20
798.490224624645
 10
1435.5
 20
763.8902246246449
 42
2.414213562373095
 10
1438.7
 20
760.690224624645
  0
LWPOLYLINE
  5
14C
330
17
100
AcDbEntity
  8
CUT
100
AcDbPolyline
 90
8
 70
1
 10
1451.3
 20
896.309775375355
 42
2.414213562373095
 10
1454.5
 20
899.509775375355
 10
1454.5
 20
934.109775375355
 42
2.414213562373095
 10
1451.3
 20
937.309775375355
 10
1438.7
 20
937.309775375355
 42
2.414213562373095
 10
1435.5
 20
934.109775375355
 10
1435.5
 20
899.509775375355
 42
2.414213562373095
 10
1438.7
 20
896.309775375355
  0
LWPOLYLINE
  5
14D
330
17
100
AcDbEntity
  8
CUT
100
AcDbPolyline
 90
34
 70
1
 10
1394.0
 20
296.0
 10
1429.490224624645
 20
296.0
 42
-2.414213562373095
 10
1432.690224624645
 20
292.8
 10
1432.690224624645
 20
278.0
 10
1472.690224624645
 20
278.0
 10
1472.690224624645
 20
292.8
 42
-2.414213562373095
 10
1475.890224624645
 20
296.0
 10
1565.109775375355
 20
296.0
 42
-2.414213562373095
 10
1568.309775375355
 20
292.8
 10
1568.309775375355
 20
278.0
 10
1608.309775375355
 20
278.0
 10
1608.309775375355
 20
292.8
 42
-2.414213562373095
 10
1611.509775375355
 20
296.0
 10
1647.0
 20
296.0
 10
1605.6
 20
480.0
 10
1588.6660985672095
 20
480.0
 42
-2.414213562373095
 10
1585.4660985672094
 20
483.2
 10
1585.4660985672094
 20
498.0
 10
1545.4660985672094
 20
498.0
 10
1545.4660985672094
 20
483.2
 42
-2.414213562373095
 10
1542.2660985672096
 20
480.0
 10
1530.0
 20
480.0
 10
1530.0
 20
391.2
 42
-2.414213562373095
 10
1526.8
 20
388.0
 10
1514.2
 20
388.0
 42
-2.414213562373095
 10
1511.0
 20
391.2
 10
1511.0
 20
480.0
 10
1498.7339014327904
 20
480.0
 42
-2.414213562373095
 10
1495.5339014327903
 20
483.2
 10
1495.5339014327903
 20
498.0
 10
1455.5339014327903
 20
498.0
 10
1455.5339014327903
 20
483.2
 42
-2.414213562373095
 10
1452.3339014327905
 20
480.0
 10
1435.4
 20
480.0
  0
LWPOLYLINE
  5
14E
330
17
100
AcDbEntity
  8
CUT
100
AcDbPolyline
 90
34
 70
1
 10
1687.0
 20
1184.0
 10
1651.509775375355
 20
1184.0
 42
-2.414213562373095
 10
1648.309775375355
 20
1187.2
 10
1648.309775375355
 20
1202.0
 10
1608.309775375355
 20
1202.0
 10
1608.309775375355
 20
1187.2
 42
-2.414213562373095
 10
1605.109775375355
 20
1184.0
 10
1515.890224624645
 20
1184.0
 42
-2.414213562373095
 10
1512.690224624645
 20
1187.2
 10
1512.690224624645
 20
1202.0
 10
1472.690224624645
 20
1202.0
 10
1472.690224624645
 20
1187.2
 42
-2.414213562373095
 10
1469.490224624645
 20
1184.0
 10
1434.0
 20
1184.0
 10
1475.3999999999999
 20
1000.0
 10
1492.3339014327903
 20
1000.0
 42
-2.414213562373095
 10
1495.5339014327903
 20
996.8
 10
1495.5339014327903
 20
982.0
 10
1535.5339014327903
 20
982.0
 10
1535.5339014327903
 20
996.8
 42
-2.414213562373095
 10
1538.7339014327904
 20
1000.0
 10
1551.0
 20
1000.0
 10
1551.0
 20
1088.8
 42
-2.414213562373095
 10
1554.2
 20
1092.0
 10
1566.8
 20
1092.0
 42
-2.414213562373095
 10
1570.0
 20
1088.8
 10
1570.0
 20
1000.0
 10
1582.2660985672096
 20
1000.0
 42
-2.414213562373095
 10
1585.4660985672094
 20
996.8
 10
1585.4660985672094
 20
982.0
 10
1625.4660985672094
 20
982.0
 10
1625.4660985672094
 20
996.8
 42
-2.414213562373095
 10
1628.6660985672095
 20
1000.0
 10
1645.6
 20
1000.0
  0
LWPOLYLINE
  5
14F
330
17
100
AcDbEntity
  8
CUT
100
AcDbPolyline
 90
34
 70
1
 10
1656.0
 20
498.0
 10
1656.0
 20
533.490224624645
 42
-2.414213562373095
 10
1659.2
 20
536.690224624645
 10
1674.0
 20
536.690224624645
 10
1674.0
 20
576.690224624645
 10
1659.2
 20
576.690224624645
 42
-2.414213562373095
 10
1656.0
 20
579.8902246246449
 10
1656.0
 20
669.109775375355
 42
-2.414213562373095
 10
1659.2
 20
672.309775375355
 10
1674.0
 20
672.309775375355
 10
1674.0
 20
712.309775375355
 10
1659.2
 20
712.309775375355
 42
-2.414213562373095
 10
1656.0
 20
715.509775375355
 10
1656.0
 20
751.0
 10
1472.0
 20
709.6
 10
1472.0
 20
692.6660985672095
 42
-2.414213562373095
 10
1468.8
 20
689.4660985672095
 10
1454.0
 20
689.4660985672095
 10
1454.0
 20
649.4660985672095
 10
1468.8
 20
649.4660985672095
 42
-2.414213562373095
 10
1472.0
 20
646.2660985672096
 10
1472.0
 20
634.0
 10
1560.8
 20
634.0
 42
-2.414213562373095
 10
1564.0
 20
630.8
 10
1564.0
 20
618.2
 42
-2.414213562373095
 10
1560.8
 20
615.0
 10
1472.0
 20
615.0
 10
1472.0
 20
602.7339014327904
 42
-2.414213562373095
 10
1468.8
 20
599.5339014327905
 10
1454.0
 20
599.5339014327905
 10
1454.0
 20
559.5339014327905
 10
1468.8
 20
559.5339014327905
 42
-2.414213562373095
 10
1472.0
 20
556.3339014327904
 10
1472.0
 20
539.4
  0
LWPOLYLINE
  5
150
330
17
100
AcDbEntity
  8
CUT
100
AcDbPolyline
 90
34
 70
1
 10
1506.0
 20
36.0
 10
1541.490224624645
 20
36.0
 42
-2.414213562373095
 10
1544.690224624645
 20
32.8
 10
1544.690224624645
 20
18.0
 10
1584.690224624645
 20
18.0
 10
1584.690224624645
 20
32.8
 42
-2.414213562373095
 10
1587.890224624645
 20
36.0
 10
1623.0
 20
36.0
 10
1623.0
 20
124.8
 42
-2.414213562373095
 10
1626.2
 20
128.0
 10
1638.8
 20
128.0
 42
-2.414213562373095
 10
1642.0
 20
124.8
 10
1642.0
 20
36.0
 10
1677.109775375355
 20
36.0
 42
-2.414213562373095
 10
1680.309775375355
 20
32.8
 10
1680.309775375355
 20
18.0
 10
1720.309775375355
 20
18.0
 10
1720.309775375355
 20
32.8
 42
-2.414213562373095
 10
1723.509775375355
 20
36.0
 10
1759.0
 20
36.0
 10
1717.6
 20
220.0
 10
1700.6660985672095
 20
220.0
 42
-2.414213562373095
 10
1697.4660985672094
 20
223.2
 10
1697.4660985672094
 20
238.0
 10
1657.4660985672094
 20
238.0
 10
1657.4660985672094
 20
223.2
 42
-2.414213562373095
 10
1654.2660985672096
 20
220.0
 10
1610.7339014327904
 20
220.0
 42
-2.414213562373095
 10
1607.5339014327903
 20
223.2
 10
1607.5339014327903
 20
238.0
 10
1567.5339014327903
 20
238.0
 10
1567.5339014327903
 20
223.2
 42
-2.414213562373095
 10
1564.3339014327905
 20
220.0
 10
1547.4
 20
220.0
  0
LWPOLYLINE
  5
151
330
17
100
AcDbEntity
  8
CUT
100
AcDbPolyline
 90
34
 70
1
 10
1582.0
 20
784.0
 10
1617.490224624645
 20
784.0
 42
-2.414213562373095
 10
1620.690224624645
 20
780.8
 10
1620.690224624645
 20
766.0
 10
1660.690224624645
 20
766.0
 10
1660.690224624645
 20
780.8
 42
-2.414213562373095
 10
1663.890224624645
 20
784.0
 10
1699.0
 20
784.0
 10
1699.0
 20
872.8
 42
-2.414213562373095
 10
1702.2
 20
876.0
 10
1714.8
 20
876.0
 42
-2.414213562373095
 10
1718.0
 20
872.8
 10
1718.0
 20
784.0
 10
1753.109775375355
 20
784.0
 42
-2.414213562373095
 10
1756.309775375355
 20
780.8
 10
1756.309775375355
 20
766.0
 10
1796.309775375355
 20
766.0
 10
1796.309775375355
 20
780.8
 42
-2.414213562373095
 10
1799.509775375355
 20
784.0
 10
1835.0
 20
784.0
 10
1793.6
 20
968.0
 10
1776.6660985672095
 20
968.0
 42
-2.414213562373095
 10
1773.4660985672094
 20
971.2
 10
1773.4660985672094
 20
986.0
 10
1733.4660985672094
 20
986.0
 10
1733.4660985672094
 20
971.2
 42
-2.414213562373095
 10
1730.2660985672096
 20
968.0
 10
1686.7339014327904
 20
968.0
 42
-2.414213562373095
 10
1683.5339014327903
 20
971.2
 10
1683.5339014327903
 20
986.0
 10
1643.5339014327903
 20
986.0
 10
1643.5339014327903
 20
971.2
 42
-2.414213562373095
 10
1640.3339014327905
 20
968.0
 10
1623.4
 20
968.0
  0
LWPOLYLINE
  5
152
330
17
100
AcDbEntity
  8
CUT
100
AcDbPolyline
 90
34
 70
1
 10
1879.0
 20
464.0
 10
1843.509775375355
 20
464.0
 42
-2.414213562373095
 10
1840.309775375355
 20
467.2
 10
1840.309775375355
 20
482.0
 10
1800.309775375355
 20
482.0
 10
1800.309775375355
 20
467.2
 42
-2.414213562373095
 10
1797.109775375355
 20
464.0
 10
1762.0
 20
464.0
 10
1762.0
 20
375.2
 42
-2.414213562373095
 10
1758.8
 20
372.0
 10
1746.2
 20
372.0
 42
-2.414213562373095
 10
1743.0
 20
375.2
 10
1743.0
 20
464.0
 10
1707.890224624645
 20
464.0
 42
-2.414213562373095
 10
1704.690224624645
 20
467.20000000000005
 10
1704.690224624645
 20
482.0
 10
1664.690224624645
 20
482.0
 10
1664.690224624645
 20
467.20000000000005
 42
-2.414213562373095
 10
1661.490224624645
 20
464.0
 10
1626.0
 20
464.0
 10
1667.3999999999999
 20
280.0
 10
1684.3339014327903
 20
280.0
 42
-2.414213562373095
 10
1687.5339014327903
 20
276.8
 10
1687.5339014327903
 20
262.0
 10
1727.5339014327903
 20
262.0
 10
1727.5339014327903
 20
276.8
 42
-2.414213562373095
 10
1730.7339014327904
 20
280.0
 10
1774.2660985672096
 20
280.0
 42
-2.414213562373095
 10
1777.4660985672094
 20
276.8
 10
1777.4660985672094
 20
262.0
 10
1817.4660985672094
 20
262.0
 10
1817.4660985672094
 20
276.8
 42
-2.414213562373095
 10
1820.6660985672095
 20
280.0
 10
1837.6
 20
280.0
  0
LWPOLYLINE
  5
153
330
17
100
AcDbEntity
  8
CUT
100
AcDbPolyline
 90
2
 70
1
 10
1021.1
 20
99.55
 42
1.0
 10
858.0
 20
99.55
 42
1.0
  0
LWPOLYLINE
  5
154
330
17
100
AcDbEntity
  8
CUT
100
AcDbPolyline
 90
8
 70
1
 10
874.0839014327904
 20
93.25
 42
2.414213562373095
 10
877.2839014327905
 20
90.05
 10
911.8839014327905
 20
90.05
 42
2.414213562373095
 10
915.0839014327904
 20
93.25
 10
915.0839014327904
 20
105.85
 42
2.414213562373095
 10
911.8839014327905
 20
109.05
 10
877.2839014327905
 20
109.05
 42
2.414213562373095
 10
874.0839014327904
 20
105.85
  0
LWPOLYLINE
  5
155
330
17
100
AcDbEntity
  8
CUT
100
AcDbPolyline
 90
8
 70
1
 10
964.0160985672095
 20
93.25
 42
2.414213562373095
 10
967.2160985672095
 20
90.05
 10
1001.8160985672096
 20
90.05
 42
2.414213562373095
 10
1005.0160985672096
 20
93.25
 10
1005.0160985672096
 20
105.85
 42
2.414213562373095
 10
1001.8160985672096
 20
109.05
 10
967.2160985672095
 20
109.05
 42
2.414213562373095
 10
964.0160985672095
 20
105.85
  0
LWPOLYLINE
  5
156
330
17
100
AcDbEntity
  8
CUT
100
AcDbPolyline
 90
8
 70
1
 10
945.85
 20
34.083901432790455
 42
2.414213562373095
 10
949.05
 20
37.28390143279046
 10
949.05
 20
71.88390143279045
 42
2.414213562373095
 10
945.85
 20
75.08390143279046
 10
933.25
 20
75.08390143279046
 42
2.414213562373095
 10
930.05
 20
71.88390143279045
 10
930.05
 20
37.28390143279046
 42
2.414213562373095
 10
933.25
 20
34.083901432790455
  0
LWPOLYLINE
  5
157
330
17
100
AcDbEntity
  8
CUT
100
AcDbPolyline
 90
8
 70
1
 10
945.85
 20
124.01609856720954
 42
2.414213562373095
 10
949.05
 20
127.21609856720954
 10
949.05
 20
161.81609856720954
 42
2.414213562373095
 10
945.85
 20
165.01609856720955
 10
933.25
 20
165.01609856720955
 42
2.414213562373095
 10
930.05
 20
161.81609856720954
 10
930.05
 20
127.21609856720954
 42
2.414213562373095
 10
933.25
 20
124.01609856720954
  0
LWPOLYLINE
  5
158
330
17
100
AcDbEntity
  8
CUT
100
AcDbPolyline
 90
2
 70
1
 10
1037.1
 20
607.55
 42
1.0
 10
874.0
 20
607.55
 42
1.0
  0
LWPOLYLINE
  5
159
330
17
100
AcDbEntity
  8
CUT
100
AcDbPolyline
 90
8
 70
1
 10
890.0839014327904
 20
601.25
 42
2.414213562373095
 10
893.2839014327905
 20
598.05
 10
927.8839014327905
 20
598.05
 42
2.414213562373095
 10
931.0839014327904
 20
601.25
 10
931.0839014327904
 20
613.85
 42
2.414213562373095
 10
927.8839014327905
 20
617.05
 10
893.2839014327905
 20
617.05
 42
2.414213562373095
 10
890.0839014327904
 20
613.85
  0
LWPOLYLINE
  5
15A
330
17
100
AcDbEntity
  8
CUT
100
AcDbPolyline
 90
8
 70
1
 10
980.0160985672095
 20
601.25
 42
2.414213562373095
 10
983.2160985672095
 20
598.05
 10
1017.8160985672096
 20
598.05
 42
2.414213562373095
 10
1021.0160985672096
 20
601.25
 10
1021.0160985672096
 20
613.85
 42
2.414213562373095
 10
1017.8160985672096
 20
617.05
 10
983.2160985672095
 20
617.05
 42
2.414213562373095
 10
980.0160985672095
 20
613.85
  0
LWPOLYLINE
  5
15B
330
17
100
AcDbEntity
  8
CUT
100
AcDbPolyline
 90
8
 70
1
 10
961.85
 20
542.0839014327904
 42
2.414213562373095
 10
965.05
 20
545.2839014327905
 10
965.05
 20
579.8839014327905
 42
2.414213562373095
 10
961.85
 20
583.0839014327904
 10
949.25
 20
583.0839014327904
 42
2.414213562373095
 10
946.05
 20
579.8839014327905
 10
946.05
 20
545.2839014327905
 42
2.414213562373095
 10
949.25
 20
542.0839014327904
  0
LWPOLYLINE
  5
15C
330
17
100
AcDbEntity
  8
CUT
100
AcDbPolyline
 90
8
 70
1
 10
961.85
 20
632.0160985672095
 42
2.414213562373095
 10
965.05
 20
635.2160985672095
 10
965.05
 20
669.8160985672096
 42
2.414213562373095
 10
961.85
 20
673.0160985672096
 10
949.25
 20
673.0160985672096
 42
2.414213562373095
 10
946.05
 20
669.8160985672096
 10
946.05
 20
635.2160985672095
 42
2.414213562373095
 10
949.25
 20
632.0160985672095
  0
LWPOLYLINE
  5
15D
330
17
100
AcDbEntity
  8
CUT
100
AcDbPolyline
 90
2
 70
1
 10
1201.1
 20
99.55
 42
1.0
 10
1038.0
 20
99.55
 42
1.0
  0
LWPOLYLINE
  5
15E
330
17
100
AcDbEntity
  8
CUT
100
AcDbPolyline
 90
8
 70
1
 10
1054.0839014327905
 20
93.25
 42
2.414213562373095
 10
1057.2839014327906
 20
90.05
 10
1091.8839014327905
 20
90.05
 42
2.414213562373095
 10
1095.0839014327905
 20
93.25
 10
1095.0839014327905
 20
105.85
 42
2.414213562373095
 10
1091.8839014327905
 20
109.05
 10
1057.2839014327906
 20
109.05
 42
2.414213562373095
 10
1054.0839014327905
 20
105.85
  0
LWPOLYLINE
  5
15F
330
17
100
AcDbEntity
  8
CUT
100
AcDbPolyline
 90
8
 70
1
 10
1144.0160985672096
 20
93.25
 42
2.414213562373095
 10
1147.2160985672094
 20
90.05
 10
1181.8160985672096
 20
90.05
 42
2.414213562373095
 10
1185.0160985672096
 20
93.25
 10
1185.0160985672096
 20
105.85
 42
2.414213562373095
 10
1181.8160985672096
 20
109.05
 10
1147.2160985672094
 20
109.05
 42
2.414213562373095
 10
1144.0160985672096
 20
105.85
  0
LWPOLYLINE
  5
160
330
17
100
AcDbEntity
  8
CUT
100
AcDbPolyline
 90
8
 70
1
 10
1125.85
 20
34.083901432790455
 42
2.414213562373095
 10
1129.05
 20
37.28390143279046
 10
1129.05
 20
71.88390143279045
 42
2.414213562373095
 10
1125.85
 20
75.08390143279046
 10
1113.25
 20
75.08390143279046
 42
2.414213562373095
 10
1110.05
 20
71.88390143279045
 10
1110.05
 20
37.28390143279046
 42
2.414213562373095
 10
1113.25
 20
34.083901432790455
  0
LWPOLYLINE
  5
161
330
17
100
AcDbEntity
  8
CUT
100
AcDbPolyline
 90
8
 70
1
 10
1125.85
 20
124.01609856720954
 42
2.414213562373095
 10
1129.05
 20
127.21609856720954
 10
1129.05
 20
161.81609856720954
 42
2.414213562373095
 10
1125.85
 20
165.01609856720955
 10
1113.25
 20
165.01609856720955
 42
2.414213562373095
 10
1110.05
 20
161.81609856720954
 10
1110.05
 20
127.21609856720954
 42
2.414213562373095
 10
1113.25
 20
124.01609856720954
  0
LWPOLYLINE
  5
162
330
17
100
AcDbEntity
  8
CUT
100
AcDbPolyline
 90
2
 70
1
 10
1245.0
 20
791.5
 42
1.0
 10
1090.0
 20
791.5
 42
1.0
  0
LWPOLYLINE
  5
163
330
17
100
AcDbEntity
  8
CUT
100
AcDbPolyline
 90
8
 70
1
 10
1127.108025133561
 20
742.1984796906104
 42
2.414213562373095
 10
1131.6335085331548
 20
742.1984796906104
 10
1156.0994031622092
 20
766.6643743196648
 42
2.414213562373095
 10
1156.0994031622092
 20
771.1898577192587
 10
1147.1898577192587
 20
780.0994031622092
 42
2.414213562373095
 10
1142.6643743196648
 20
780.0994031622092
 10
1118.1984796906104
 20
755.6335085331548
 42
2.414213562373095
 10
1118.1984796906104
 20
751.1080251335609
  0
LWPOLYLINE
  5
164
330
17
100
AcDbEntity
  8
CUT
100
AcDbPolyline
 90
8
 70
1
 10
1187.8101422807413
 20
802.9005968377908
 42
2.414213562373095
 10
1192.3356256803352
 20
802.9005968377908
 10
1216.8015203093896
 20
827.3664914668452
 42
2.414213562373095
 10
1216.8015203093896
 20
831.8919748664391
 10
1207.891974866439
 20
840.8015203093896
 42
2.414213562373095
 10
1203.3664914668452
 20
840.8015203093896
 10
1178.9005968377908
 20
816.3356256803352
 42
2.414213562373095
 10
1178.9005968377908
 20
811.8101422807413
  0
LWPOLYLINE
  5
165
330
17
100
AcDbEntity
  8
CUT
100
AcDbPolyline
 90
8
 70
1
 10
1216.8015203093896
 20
751.1080251335609
 42
2.414213562373095
 10
1216.8015203093896
 20
755.6335085331548
 10
1192.3356256803352
 20
780.0994031622092
 42
2.414213562373095
 10
1187.8101422807413
 20
780.0994031622092
 10
1178.9005968377908
 20
771.1898577192587
 42
2.414213562373095
 10
1178.9005968377908
 20
766.6643743196648
 10
1203.3664914668452
 20
742.1984796906104
 42
2.414213562373095
 10
1207.891974866439
 20
742.1984796906104
  0
LWPOLYLINE
  5
166
330
17
100
AcDbEntity
  8
CUT
100
AcDbPolyline
 90
8
 70
1
 10
1156.0994031622092
 20
811.8101422807413
 42
2.414213562373095
 10
1156.0994031622092
 20
816.3356256803352
 10
1131.6335085331548
 20
840.8015203093896
 42
2.414213562373095
 10
1127.108025133561
 20
840.8015203093896
 10
1118.1984796906104
 20
831.8919748664391
 42
2.414213562373095
 10
1118.1984796906104
 20
827.3664914668452
 10
1142.6643743196648
 20
802.9005968377908
 42
2.414213562373095
 10
1147.1898577192587
 20
802.9005968377908
  0
LWPOLYLINE
  5
167
330
17
100
AcDbEntity
  8
CUT
100
AcDbPolyline
 90
2
 70
1
 10
1329.0
 20
1063.5
 42
1.0
 10
1174.0
 20
1063.5
 42
1.0
  0
LWPOLYLINE
  5
168
330
17
100
AcDbEntity
  8
CUT
100
AcDbPolyline
 90
8
 70
1
 10
1211.108025133561
 20
1014.1984796906104
 42
2.414213562373095
 10
1215.6335085331548
 20
1014.1984796906104
 10
1240.0994031622092
 20
1038.6643743196648
 42
2.414213562373095
 10
1240.0994031622092
 20
1043.1898577192587
 10
1231.1898577192587
 20
1052.0994031622092
 42
2.414213562373095
 10
1226.6643743196648
 20
1052.0994031622092
 10
1202.1984796906104
 20
1027.6335085331548
 42
2.414213562373095
 10
1202.1984796906104
 20
1023.1080251335609
  0
LWPOLYLINE
  5
169
330
17
100
AcDbEntity
  8
CUT
100
AcDbPolyline
 90
8
 70
1
 10
1271.8101422807413
 20
1074.9005968377908
 42
2.414213562373095
 10
1276.3356256803352
 20
1074.9005968377908
 10
1300.8015203093896
 20
1099.3664914668452
 42
2.414213562373095
 10
1300.8015203093896
 20
1103.891974866439
 10
1291.891974866439
 20
1112.8015203093896
 42
2.414213562373095
 10
1287.3664914668452
 20
1112.8015203093896
 10
1262.9005968377908
 20
1088.3356256803352
 42
2.414213562373095
 10
1262.9005968377908
 20
1083.8101422807413
  0
LWPOLYLINE
  5
16A
330
17
100
AcDbEntity
  8
CUT
100
AcDbPolyline
 90
8
 70
1
 10
1300.8015203093896
 20
1023.1080251335609
 42
2.414213562373095
 10
1300.8015203093896
 20
1027.6335085331548
 10
1276.3356256803352
 20
1052.0994031622092
 42
2.414213562373095
 10
1271.8101422807413
 20
1052.0994031622092
 10
1262.9005968377908
 20
1043.1898577192587
 42
2.414213562373095
 10
1262.9005968377908
 20
1038.6643743196648
 10
1287.3664914668452
 20
1014.1984796906104
 42
2.414213562373095
 10
1291.891974866439
 20
1014.1984796906104
  0
LWPOLYLINE
  5
16B
330
17
100
AcDbEntity
  8
CUT
100
AcDbPolyline
 90
8
 70
1
 10
1240.0994031622092
 20
1083.8101422807413
 42
2.414213562373095
 10
1240.0994031622092
 20
1088.3356256803352
 10
1215.6335085331548
 20
1112.8015203093896
 42
2.414213562373095
 10
1211.108025133561
 20
1112.8015203093896
 10
1202.1984796906104
 20
1103.891974866439
 42
2.414213562373095
 10
1202.1984796906104
 20
1099.3664914668452
 10
1226.6643743196648
 20
1074.9005968377908
 42
2.414213562373095
 10
1231.1898577192587
 20
1074.9005968377908
  0
LWPOLYLINE
  5
16C
330
17
100
AcDbEntity
  8
CUT
100
AcDbPolyline
 90
2
 70
1
 10
1833.0
 20
623.5
 42
1.0
 10
1678.0
 20
623.5
 42
1.0
  0
LWPOLYLINE
  5
16D
330
17
100
AcDbEntity
  8
CUT
100
AcDbPolyline
 90
8
 70
1
 10
1715.108025133561
 20
574.1984796906104
 42
2.414213562373095
 10
1719.6335085331548
 20
574.1984796906104
 10
1744.0994031622092
 20
598.6643743196648
 42
2.414213562373095
 10
1744.0994031622092
 20
603.1898577192587
 10
1735.1898577192587
 20
612.0994031622092
 42
2.414213562373095
 10
1730.6643743196648
 20
612.0994031622092
 10
1706.1984796906104
 20
587.6335085331548
 42
2.414213562373095
 10
1706.1984796906104
 20
583.1080251335609
  0
LWPOLYLINE
  5
16E
330
17
100
AcDbEntity
  8
CUT
100
AcDbPolyline
 90
8
 70
1
 10
1775.8101422807413
 20
634.9005968377908
 42
2.414213562373095
 10
1780.3356256803352
 20
634.9005968377908
 10
1804.8015203093896
 20
659.3664914668452
 42
2.414213562373095
 10
1804.8015203093896
 20
663.8919748664391
 10
1795.891974866439
 20
672.8015203093896
 42
2.414213562373095
 10
1791.3664914668452
 20
672.8015203093896
 10
1766.9005968377908
 20
648.3356256803352
 42
2.414213562373095
 10
1766.9005968377908
 20
643.8101422807413
  0
LWPOLYLINE
  5
16F
330
17
100
AcDbEntity
  8
CUT
100
AcDbPolyline
 90
8
 70
1
 10
1804.8015203093896
 20
583.1080251335609
 42
2.414213562373095
 10
1804.8015203093896
 20
587.6335085331548
 10
1780.3356256803352
 20
612.0994031622092
 42
2.414213562373095
 10
1775.8101422807413
 20
612.0994031622092
 10
1766.9005968377908
 20
603.1898577192587
 42
2.414213562373095
 10
1766.9005968377908
 20
598.6643743196648
 10
1791.3664914668452
 20
574.1984796906104
 42
2.414213562373095
 10
1795.891974866439
 20
574.1984796906104
  0
LWPOLYLINE
  5
170
330
17
100
AcDbEntity
  8
CUT
100
AcDbPolyline
 90
8
 70
1
 10
1744.0994031622092
 20
643.8101422807413
 42
2.414213562373095
 10
1744.0994031622092
 20
648.3356256803352
 10
1719.6335085331548
 20
672.8015203093896
 42
2.414213562373095
 10
1715.108025133561
 20
672.8015203093896
 10
1706.1984796906104
 20
663.8919748664391
 42
2.414213562373095
 10
1706.1984796906104
 20
659.3664914668452
 10
1730.6643743196648
 20
634.9005968377908
 42
2.414213562373095
 10
1735.1898577192587
 20
634.9005968377908
  0
LWPOLYLINE
  5
171
330
17
100
AcDbEntity
  8
CUT
100
AcDbPolyline
 90
28
 70
1
 10
1670.0
 20
1020.0
 10
1680.8771213328484
 20
1020.0
 42
-2.414213562373095
 10
1684.0771213328485
 20
1016.8
 10
1684.0771213328485
 20
1002.0
 10
1724.0771213328485
 20
1002.0
 10
1724.0771213328485
 20
1016.8
 42
-2.414213562373095
 10
1727.2771213328485
 20
1020.0
 10
1737.5
 20
1020.0
 10
1737.5
 20
1088.8
 42
-2.414213562373095
 10
1740.7
 20
1092.0
 10
1753.3
 20
1092.0
 42
-2.414213562373095
 10
1756.5
 20
1088.8
 10
1756.5
 20
1020.0
 10
1766.7228786671515
 20
1020.0
 42
-2.414213562373095
 10
1769.9228786671515
 20
1016.8
 10
1769.9228786671515
 20
1002.0
 10
1809.9228786671515
 20
1002.0
 10
1809.9228786671515
 20
1016.8
 42
-2.414213562373095
 10
1813.1228786671513
 20
1020.0
 10
1824.0
 20
1020.0
 10
1791.6
 20
1164.0
 10
1781.1463431896302
 20
1164.0
 42
-2.414213562373095
 10
1777.9463431896302
 20
1167.2
 10
1777.9463431896302
 20
1182.0
 10
1716.0536568103698
 20
1182.0
 10
1716.0536568103698
 20
1167.2
 42
-2.414213562373095
 10
1712.8536568103698
 20
1164.0
 10
1702.4
 20
1164.0
  0
LWPOLYLINE
  5
172
330
17
100
AcDbEntity
  8
CUT
100
AcDbPolyline
 90
28
 70
1
 10
1888.0
 20
220.0
 10
1877.1228786671513
 20
220.0
 42
-2.414213562373095
 10
1873.9228786671515
 20
223.2
 10
1873.9228786671515
 20
238.0
 10
1833.9228786671515
 20
238.0
 10
1833.9228786671515
 20
223.2
 42
-2.414213562373095
 10
1830.7228786671515
 20
220.0
 10
1820.5
 20
220.0
 10
1820.5
 20
151.2
 42
-2.414213562373095
 10
1817.3
 20
148.0
 10
1804.7
 20
148.0
 42
-2.414213562373095
 10
1801.5
 20
151.2
 10
1801.5
 20
220.0
 10
1791.2771213328485
 20
220.0
 42
-2.414213562373095
 10
1788.0771213328485
 20
223.2
 10
1788.0771213328485
 20
238.0
 10
1748.0771213328485
 20
238.0
 10
1748.0771213328485
 20
223.2
 42
-2.414213562373095
 10
1744.8771213328484
 20
220.0
 10
1734.0
 20
220.0
 10
1766.4
 20
76.0
 10
1776.8536568103698
 20
76.0
 42
-2.414213562373095
 10
1780.0536568103698
 20
72.80000000000001
 10
1780.0536568103698
 20
58.0
 10
1841.9463431896302
 20
58.0
 10
1841.9463431896302
 20
72.80000000000001
 42
-2.414213562373095
 10
1845.1463431896302
 20
76.0
 10
1855.6
 20
76.0
  0
LWPOLYLINE
  5
173
330
17
100
AcDbEntity
  8
CUT
100
AcDbPolyline
 90
28
 70
1
 10
1960.0
 20
1172.0
 10
1949.1228786671513
 20
1172.0
 42
-2.414213562373095
 10
1945.9228786671515
 20
1175.2
 10
1945.9228786671515
 20
1190.0
 10
1905.9228786671515
 20
1190.0
 10
1905.9228786671515
 20
1175.2
 42
-2.414213562373095
 10
1902.7228786671515
 20
1172.0
 10
1892.5
 20
1172.0
 10
1892.5
 20
1103.2
 42
-2.414213562373095
 10
1889.3
 20
1100.0
 10
1876.7
 20
1100.0
 42
-2.414213562373095
 10
1873.5
 20
1103.2
 10
1873.5
 20
1172.0
 10
1863.2771213328485
 20
1172.0
 42
-2.414213562373095
 10
1860.0771213328485
 20
1175.2
 10
1860.0771213328485
 20
1190.0
 10
1820.0771213328485
 20
1190.0
 10
1820.0771213328485
 20
1175.2
 42
-2.414213562373095
 10
1816.8771213328484
 20
1172.0
 10
1806.0
 20
1172.0
 10
1838.4
 20
1028.0
 10
1848.8536568103698
 20
1028.0
 42
-2.414213562373095
 10
1852.0536568103698
 20
1024.8
 10
1852.0536568103698
 20
1010.0
 10
1913.9463431896302
 20
1010.0
 10
1913.9463431896302
 20
1024.8
 42
-2.414213562373095
 10
1917.1463431896302
 20
1028.0
 10
1927.6
 20
1028.0
  0
LWPOLYLINE
  5
174
330
17
100
AcDbEntity
  8
CUT
100
AcDbPolyline
 90
22
 70
1
 10
1964.0
 20
970.0
 10
1953.1228786671513
 20
970.0
 42
-2.414213562373095
 10
1949.9228786671515
 20
973.2
 10
1949.9228786671515
 20
988.0
 10
1909.9228786671515
 20
988.0
 10
1909.9228786671515
 20
973.2
 42
-2.414213562373095
 10
1906.7228786671515
 20
970.0
 10
1867.2771213328485
 20
970.0
 42
-2.414213562373095
 10
1864.0771213328485
 20
973.2
 10
1864.0771213328485
 20
988.0
 10
1824.0771213328485
 20
988.0
 10
1824.0771213328485
 20
973.2
 42
-2.414213562373095
 10
1820.8771213328484
 20
970.0
 10
1810.0
 20
970.0
 10
1842.4
 20
826.0
 10
1877.5
 20
826.0
 10
1877.5
 20
894.8
 42
-2.414213562373095
 10
1880.7
 20
898.0
 10
1893.3
 20
898.0
 42
-2.414213562373095
 10
1896.5
 20
894.8
 10
1896.5
 20
826.0
 10
1931.6
 20
826.0
  0
LWPOLYLINE
  5
175
330
17
100
AcDbEntity
  8
CUT
100
AcDbPolyline
 90
22
 70
1
 10
1976.0
 20
750.0
 10
1965.1228786671513
 20
750.0
 42
-2.414213562373095
 10
1961.9228786671515
 20
753.2
 10
1961.9228786671515
 20
768.0
 10
1921.9228786671515
 20
768.0
 10
1921.9228786671515
 20
753.2
 42
-2.414213562373095
 10
1918.7228786671515
 20
750.0
 10
1879.2771213328485
 20
750.0
 42
-2.414213562373095
 10
1876.0771213328485
 20
753.2
 10
1876.0771213328485
 20
768.0
 10
1836.0771213328485
 20
768.0
 10
1836.0771213328485
 20
753.2
 42
-2.414213562373095
 10
1832.8771213328484
 20
750.0
 10
1822.0
 20
750.0
 10
1854.4
 20
606.0
 10
1889.5
 20
606.0
 10
1889.5
 20
674.8
 42
-2.414213562373095
 10
1892.7
 20
678.0
 10
1905.3
 20
678.0
 42
-2.414213562373095
 10
1908.5
 20
674.8
 10
1908.5
 20
606.0
 10
1943.6
 20
606.0
  0
LWPOLYLINE
  5
176
330
17
100
AcDbEntity
  8
CUT
100
AcDbPolyline
 90
22
 70
1
 10
1854.0
 20
272.0
 10
1864.8771213328484
 20
272.0
 42
-2.414213562373095
 10
1868.0771213328485
 20
268.8
 10
1868.0771213328485
 20
254.0
 10
1908.0771213328485
 20
254.0
 10
1908.0771213328485
 20
268.8
 42
-2.414213562373095
 10
1911.2771213328485
 20
272.0
 10
1950.7228786671515
 20
272.0
 42
-2.414213562373095
 10
1953.9228786671515
 20
268.8
 10
1953.9228786671515
 20
254.0
 10
1993.9228786671515
 20
254.0
 10
1993.9228786671515
 20
268.8
 42
-2.414213562373095
 10
1997.1228786671513
 20
272.0
 10
2008.0
 20
272.0
 10
1975.6
 20
416.0
 10
1940.5
 20
416.0
 10
1940.5
 20
347.2
 42
-2.414213562373095
 10
1937.3
 20
344.0
 10
1924.7
 20
344.0
 42
-2.414213562373095
 10
1921.5
 20
347.2
 10
1921.5
 20
416.0
 10
1886.4
 20
416.0
  0
LWPOLYLINE
  5
177
330
17
100
AcDbEntity
  8
CUT
100
AcDbPolyline
 90
2
 70
1
 10
100.1
 20
291.05
 42
1.0
 10
18.0
 20
291.05
 42
1.0
  0
LWPOLYLINE
  5
178
330
17
100
AcDbEntity
  8
CUT
100
AcDbPolyline
 90
8
 70
1
 10
85.74069523438214
 20
273.2688502085683
 42
2.414213562373095
 10
85.74069523438214
 20
277.7943336081622
 10
45.794333608162255
 20
317.74069523438214
 42
2.414213562373095
 10
41.26885020856835
 20
317.74069523438214
 10
32.35930476561785
 20
308.83114979143164
 42
2.414213562373095
 10
32.35930476561785
 20
304.30566639183775
 10
72.30566639183775
 20
264.3593047656178
 42
2.414213562373095
 10
76.83114979143164
 20
264.3593047656178
  0
LWPOLYLINE
  5
179
330
17
100
AcDbEntity
  8
CUT
100
AcDbPolyline
 90
2
 70
1
 10
100.1
 20
575.05
 42
1.0
 10
18.0
 20
575.05
 42
1.0
  0
LWPOLYLINE
  5
17A
330
17
100
AcDbEntity
  8
CUT
100
AcDbPolyline
 90
8
 70
1
 10
85.74069523438214
 20
557.2688502085683
 42
2.414213562373095
 10
85.74069523438214
 20
561.7943336081622
 10
45.794333608162255
 20
601.7406952343822
 42
2.414213562373095
 10
41.26885020856835
 20
601.7406952343822
 10
32.35930476561785
 20
592.8311497914317
 42
2.414213562373095
 10
32.35930476561785
 20
588.3056663918378
 10
72.30566639183775
 20
548.3593047656178
 42
2.414213562373095
 10
76.83114979143164
 20
548.3593047656178
  0
LWPOLYLINE
  5
17B
330
17
100
AcDbEntity
  8
CUT
100
AcDbPolyline
 90
2
 70
1
 10
100.1
 20
859.05
 42
1.0
 10
18.0
 20
859.05
 42
1.0
  0
LWPOLYLINE
  5
17C
330
17
100
AcDbEntity
  8
CUT
100
AcDbPolyline
 90
8
 70
1
 10
85.74069523438214
 20
841.2688502085683
 42
2.414213562373095
 10
85.74069523438214
 20
845.7943336081622
 10
45.794333608162255
 20
885.7406952343822
 42
2.414213562373095
 10
41.26885020856835
 20
885.7406952343822
 10
32.35930476561785
 20
876.8311497914317
 42
2.414213562373095
 10
32.35930476561785
 20
872.3056663918378
 10
72.30566639183775
 20
832.3593047656178
 42
2.414213562373095
 10
76.83114979143164
 20
832.3593047656178
  0
ENDSEC
  0
SECTION
  2
OBJECTS
  0
DICTIONARY
  5
A
330
0
100
AcDbDictionary
281
1
  3
ACAD_COLOR
350
B
  3
ACAD_GROUP
350
C
  3
ACAD_LAYOUT
350
D
  3
ACAD_MATERIAL
350
E
  3
ACAD_MLEADERSTYLE
350
F
  3
ACAD_MLINESTYLE
350
10
  3
ACAD_PLOTSETTINGS
350
11
  3
ACAD_PLOTSTYLENAME
350
12
  3
ACAD_SCALELIST
350
14
  3
ACAD_TABLESTYLE
350
15
  3
ACAD_VISUALSTYLE
350
16
  3
EZDXF_META
350
2D
  0
DICTIONARY
  5
B
330
A
100
AcDbDictionary
281
1
  0
DICTIONARY
  5
C
330
A
100
AcDbDictionary
281
1
  0
DICTIONARY
  5
D
330
A
100
AcDbDictionary
281
1
  3
Model
350
1A
  3
Layout1
350
1E
  0
DICTIONARY
  5
E
330
A
100
AcDbDictionary
281
1
  3
ByBlock
350
1F
  3
ByLayer
350
20
  3
Global
350
21
  0
DICTIONARY
  5
F
330
A
100
AcDbDictionary
281
1
  3
Standard
350
2C
  0
DICTIONARY
  5
10
330
A
100
AcDbDictionary
281
1
  3
Standard
350
22
  0
DICTIONARY
  5
11
330
A
100
AcDbDictionary
281
1
  0
ACDBDICTIONARYWDFLT
  5
12
330
A
100
AcDbDictionary
281
1
  3
Normal
350
13
100
AcDbDictionaryWithDefault
340
13
  0
ACDBPLACEHOLDER
  5
13
330
12
  0
DICTIONARY
  5
14
330
A
100
AcDbDictionary
281
1
  0
DICTIONARY
  5
15
330
A
100
AcDbDictionary
281
1
  0
DICTIONARY
  5
16
330
A
100
AcDbDictionary
281
1
  0
LAYOUT
  5
1A
330
D
100
AcDbPlotSettings
  1

  4
A3
  6

 40
7.5
 41
20.0
 42
7.5
 43
20.0
 44
420.0
 45
297.0
 46
0.0
 47
0.0
 48
0.0
 49
0.0
140
0.0
141
0.0
142
1.0
143
1.0
 70
1024
 72
1
 73
0
 74
5
  7

 75
16
 76
0
 77
2
 78
300
147
1.0
148
0.0
149
0.0
100
AcDbLayout
  1
Model
 70
1
 71
0
 10
0.0
 20
0.0
 11
420.0
 21
297.0
 12
0.0
 22
0.0
 32
0.0
 14
1e+20
 24
1e+20
 34
1e+20
 15
-1e+20
 25
-1e+20
 35
-1e+20
146
0.0
 13
0.0
 23
0.0
 33
0.0
 16
1.0
 26
0.0
 36
0.0
 17
0.0
 27
1.0
 37
0.0
 76
1
330
17
  0
LAYOUT
  5
1E
330
D
100
AcDbPlotSettings
  1

  4
A3
  6

 40
7.5
 41
20.0
 42
7.5
 43
20.0
 44
420.0
 45
297.0
 46
0.0
 47
0.0
 48
0.0
 49
0.0
140
0.0
141
0.0
142
1.0
143
1.0
 70
0
 72
1
 73
0
 74
5
  7

 75
16
 76
0
 77
2
 78
300
147
1.0
148
0.0
149
0.0
100
AcDbLayout
  1
Layout1
 70
1
 71
1
 10
0.0
 20
0.0
 11
420.0
 21
297.0
 12
0.0
 22
0.0
 32
0.0
 14
1e+20
 24
1e+20
 34
1e+20
 15
-1e+20
 25
-1e+20
 35
-1e+20
146
0.0
 13
0.0
 23
0.0
 33
0.0
 16
1.0
 26
0.0
 36
0.0
 17
0.0
 27
1.0
 37
0.0
 76
1
330
1B
  0
MATERIAL
  5
1F
102
{ACAD_REACTORS
330
E
102
}
330
E
100
AcDbMaterial
  1
ByBlock
  2

 70
0
 40
1.0
 71
1
 41
1.0
 91
-1023410177
 42
1.0
 72
1
  3

 73
1
 74
1
 75
1
 44
0.5
 73
0
 45
1.0
 46
1.0
 77
1
  4

 78
1
 79
1
170
1
 48
1.0
171
1
  6

172
1
173
1
174
1
140
1.0
141
1.0
175
1
  7

176
1
177
1
178
1
143
1.0
179
1
  8

270
1
271
1
272
1
145
1.0
146
1.0
273
1
  9

274
1
275
1
276
1
 42
1.0
 72
1
  3

 73
1
 74
1
 75
1
 94
63
  0
MATERIAL
  5
20
102
{ACAD_REACTORS
330
E
102
}
330
E
100
AcDbMaterial
  1
ByLayer
  2

 70
0
 40
1.0
 71
1
 41
1.0
 91
-1023410177
 42
1.0
 72
1
  3

 73
1
 74
1
 75
1
 44
0.5
 73
0
 45
1.0
 46
1.0
 77
1
  4

 78
1
 79
1
170
1
 48
1.0
171
1
  6

172
1
173
1
174
1
140
1.0
141
1.0
175
1
  7

176
1
177
1
178
1
143
1.0
179
1
  8

270
1
271
1
272
1
145
1.0
146
1.0
273
1
  9

274
1
275
1
276
1
 42
1.0
 72
1
  3

 73
1
 74
1
 75
1
 94
63
  0
MATERIAL
  5
21
102
{ACAD_REACTORS
330
E
102
}
330
E
100
AcDbMaterial
  1
Global
  2

 70
0
 40
1.0
 71
1
 41
1.0
 91
-1023410177
 42
1.0
 72
1
  3

 73
1
 74
1
 75
1
 44
0.5
 73
0
 45
1.0
 46
1.0
 77
1
  4

 78
1
 79
1
170
1
 48
1.0
171
1
  6

172
1
173
1
174
1
140
1.0
141
1.0
175
1
  7

176
1
177
1
178
1
143
1.0
179
1
  8

270
1
271
1
272
1
145
1.0
146
1.0
273
1
  9

274
1
275
1
276
1
 42
1.0
 72
1
  3

 73
1
 74
1
 75
1
 94
63
  0
MLINESTYLE
  5
22
102
{ACAD_REACTORS
330
10
102
}
330
10
100
AcDbMlineStyle
  2
Standard
 70
0
  3

 62
256
 51
90.0
 52
90.0
 71
2
 49
0.5
 62
256
  6
BYLAYER
 49
-0.5
 62
256
  6
BYLAYER
  0
MLEADERSTYLE
  5
2C
102
{ACAD_REACTORS
330
F
102
}
330
F
100
AcDbMLeaderStyle
179
2
170
2
171
1
172
0
 90
2
 40
0.0
 41
0.0
173
1
 91
-1056964608
 92
-2
290
1
 42
2.0
291
1
 43
8.0
  3
Standard
 44
4.0
300

342
29
174
1
175
1
176
0
178
1
 93
-1056964608
 45
4.0
292
0
297
0
 46
4.0
 94
-1056964608
 47
1.0
 49
1.0
140
1.0
294
1
141
0.0
177
0
142
1.0
295
0
296
0
143
3.75
271
0
272
9
273
9
  0
DICTIONARY
  5
2D
330
A
100
AcDbDictionary
280
1
281
1
  3
CREATED_BY_EZDXF
350
2E
  3
WRITTEN_BY_EZDXF
350
17F
  0
DICTIONARYVAR
  5
2E
330
2D
100
DictionaryVariables
280
0
  1
1.4.4 @ 2026-09-27T14:05:12.598914+00:00
  0
DICTIONARYVAR
  5
17F
330
2D
100
DictionaryVariables
280
0
  1
1.4.4 @ 2026-09-27T14:05:18.124975+00:00
  0
ENDSEC
  0
EOF
