  0
SECTION
  2
HEADER
  9
$ACADVER
  1
AC1024
  9
$ACADMAINTVER
 70
6
  9
$DWGCODEPAGE
  3
ANSI_1252
  9
$LASTSAVEDBY
  1
ezdxf
  9
$INSBASE
 10
0.0
 20
0.0
 30
0.0
  9
$EXTMIN
 10
1e+20
 20
1e+20
 30
1e+20
  9
$EXTMAX
 10
-1e+20
 20
-1e+20
 30
-1e+20
  9
$LIMMIN
 10
0.0
 20
0.0
  9
$LIMMAX
 10
420.0
 20
297.0
  9
$ORTHOMODE
 70
0
  9
$REGENMODE
 70
1
  9
$FILLMODE
 70
1
  9
$QTEXTMODE
 70
0
  9
$MIRRTEXT
 70
1
  9
$LTSCALE
 40
1.0
  9
$ATTMODE
 70
1
  9
$TEXTSIZE
 40
2.5
  9
$TRACEWID
 40
1.0
  9
$TEXTSTYLE
  7
OpenSans
  9
$CLAYER
  8
0
  9
$CELTYPE
  6
ByLayer
  9
$CECOLOR
 62
256
  9
$CELTSCALE
 40
1.0
  9
$DISPSILH
 70
0
  9
$DIMSCALE
 40
1.0
  9
$DIMASZ
 40
0.175
  9
$DIMEXO
 40
0.125
  9
$DIMDLI
 40
3.75
  9
$DIMRND
 40
0.0
  9
$DIMDLE
 40
0.0
  9
$DIMEXE
 40
0.375
  9
$DIMTP
 40
0.0
  9
$DIMTM
 40
0.0
  9
$DIMTXT
 40
0.25
  9
$DIMCEN
 40
2.5
  9
$DIMTSZ
 40
0.0
  9
$DIMTOL
 70
0
  9
$DIMLIM
 70
0
  9
$DIMTIH
 70
0
  9
$DIMTOH
 70
0
  9
$DIMSE1
 70
0
  9
$DIMSE2
 70
0
  9
$DIMTAD
 70
1
  9
$DIMZIN
 70
12
  9
$DIMBLK
  1
ARCHTICK
  9
$DIMASO
 70
1
  9
$DIMSHO
 70
1
  9
$DIMPOST
  1

  9
$DIMAPOST
  1

  9
$DIMALT
 70
0
  9
$DIMALTD
 70
3
  9
$DIMALTF
 40
0.03937007874
  9
$DIMLFAC
 40
100.0
  9
$DIMTOFL
 70
1
  9
$DIMTVP
 40
0.0
  9
$DIMTIX
 70
0
  9
$DIMSOXD
 70
0
  9
$DIMSAH
 70
0
  9
$DIMBLK1
  1

  9
$DIMBLK2
  1

  9
$DIMSTYLE
  2
EZDXF
  9
$DIMCLRD
 70
0
  9
$DIMCLRE
 70
0
  9
$DIMCLRT
 70
0
  9
$DIMTFAC
 40
0.5
  9
$DIMGAP
 40
0.1
  9
$DIMJUST
 70
0
  9
$DIMSD1
 70
0
  9
$DIMSD2
 70
0
  9
$DIMTOLJ
 70
0
  9
$DIMTZIN
 70
8
  9
$DIMALTZ
 70
0
  9
$DIMALTTZ
 70
0
  9
$DIMUPT
 70
1
  9
$DIMDEC
 70
2
  9
$DIMTDEC
 70
2
  9
$DIMALTU
 70
2
  9
$DIMALTTD
 70
3
  9
$DIMTXSTY
  7
OpenSansCondensed-Light
  9
$DIMAUNIT
 70
0
  9
$DIMADEC
 70
2
  9
$DIMALTRND
 40
0.0
  9
$DIMAZIN
 70
3
  9
$DIMDSEP
 70
46
  9
$DIMATFIT
 70
3
  9
$DIMFRAC
 70
0
  9
$DIMLDRBLK
  1

  9
$DIMLUNIT
 70
2
  9
$DIMLWD
 70
-2
  9
$DIMLWE
 70
-2
  9
$DIMTMOVE
 70
2
  9
$DIMFXL
 40
1.0
  9
$DIMFXLON
 70
0
  9
$DIMJOGANG
 40
0.785398163397
  9
$DIMTFILL
 70
0
  9
$DIMTFILLCLR
 70
0
  9
$DIMARCSYM
 70
0
  9
$DIMLTYPE
  6

  9
$DIMLTEX1
  6

  9
$DIMLTEX2
  6

  9
$DIMTXTDIRECTION
 70
0
  9
$LUNITS
 70
2
  9
$LUPREC
 70
4
  9
$SKETCHINC
 40
1.0
  9
$FILLETRAD
 40
10.0
  9
$AUNITS
 70
0
  9
$AUPREC
 70
2
  9
$MENU
  1
.
  9
$ELEVATION
 40
0.0
  9
$PELEVATION
 40
0.0
  9
$THICKNESS
 40
0.0
  9
$LIMCHECK
 70
0
  9
$CHAMFERA
 40
0.0
  9
$CHAMFERB
 40
0.0
  9
$CHAMFERC
 40
0.0
  9
$CHAMFERD
 40
0.0
  9
$SKPOLY
 70
0
  9
$TDCREATE
 40
2461311.592002315
  9
$TDUCREATE
 40
2458532.153996898
  9
$TDUPDATE
 40
2461311.592013889
  9
$TDUUPDATE
 40
2458532.1544311
  9
$TDINDWG
 40
0.0
  9
$TDUSRTIMER
 40
0.0
  9
$USRTIMER
 70
1
  9
$ANGBASE
 50
0.0
  9
$ANGDIR
 70
0
  9
$PDMODE
 70
0
  9
$PDSIZE
 40
0.0
  9
$PLINEWID
 40
0.0
  9
$SPLFRAME
 70
0
  9
$SPLINETYPE
 70
6
  9
$SPLINESEGS
 70
8
  9
$HANDSEED
  5
109
  9
$SURFTAB1
 70
6
  9
$SURFTAB2
 70
6
  9
$SURFTYPE
 70
6
  9
$SURFU
 70
6
  9
$SURFV
 70
6
  9
$UCSBASE
  2

  9
$UCSNAME
  2

  9
$UCSORG
 10
0.0
 20
0.0
 30
0.0
  9
$UCSXDIR
 10
1.0
 20
0.0
 30
0.0
  9
$UCSYDIR
 10
0.0
 20
1.0
 30
0.0
  9
$UCSORTHOREF
  2

  9
$UCSORTHOVIEW
 70
0
  9
$UCSORGTOP
 10
0.0
 20
0.0
 30
0.0
  9
$UCSORGBOTTOM
 10
0.0
 20
0.0
 30
0.0
  9
$UCSORGLEFT
 10
0.0
 20
0.0
 30
0.0
  9
$UCSORGRIGHT
 10
0.0
 20
0.0
 30
0.0
  9
$UCSORGFRONT
 10
0.0
 20
0.0
 30
0.0
  9
$UCSORGBACK
 10
0.0
 20
0.0
 30
0.0
  9
$PUCSBASE
  2

  9
$PUCSNAME
  2

  9
$PUCSORG
 10
0.0
 20
0.0
 30
0.0
  9
$PUCSXDIR
 10
1.0
 20
0.0
 30
0.0
  9
$PUCSYDIR
 10
0.0
 20
1.0
 30
0.0
  9
$PUCSORTHOREF
  2

  9
$PUCSORTHOVIEW
 70
0
  9
$PUCSORGTOP
 10
0.0
 20
0.0
 30
0.0
  9
$PUCSORGBOTTOM
 10
0.0
 20
0.0
 30
0.0
  9
$PUCSORGLEFT
 10
0.0
 20
0.0
 30
0.0
  9
$PUCSORGRIGHT
 10
0.0
 20
0.0
 30
0.0
  9
$PUCSORGFRONT
 10
0.0
 20
0.0
 30
0.0
  9
$PUCSORGBACK
 10
0.0
 20
0.0
 30
0.0
  9
$USERI1
 70
0
  9
$USERI2
 70
0
  9
$USERI3
 70
0
  9
$USERI4
 70
0
  9
$USERI5
 70
0
  9
$USERR1
 40
0.0
  9
$USERR2
 40
0.0
  9
$USERR3
 40
0.0
  9
$USERR4
 40
0.0
  9
$USERR5
 40
0.0
  9
$WORLDVIEW
 70
1
  9
$SHADEDGE
 70
3
  9
$SHADEDIF
 70
70
  9
$TILEMODE
 70
1
  9
$MAXACTVP
 70
64
  9
$PINSBASE
 10
0.0
 20
0.0
 30
0.0
  9
$PLIMCHECK
 70
0
  9
$PEXTMIN
 10
1e+20
 20
1e+20
 30
1e+20
  9
$PEXTMAX
 10
-1e+20
 20
-1e+20
 30
-1e+20
  9
$PLIMMIN
 10
0.0
 20
0.0
  9
$PLIMMAX
 10
420.0
 20
297.0
  9
$UNITMODE
 70
0
  9
$VISRETAIN
 70
1
  9
$PLINEGEN
 70
0
  9
$PSLTSCALE
 70
1
  9
$TREEDEPTH
 70
3020
  9
$CMLSTYLE
  2
Standard
  9
$CMLJUST
 70
0
  9
$CMLSCALE
 40
20.0
  9
$PROXYGRAPHICS
 70
1
  9
$MEASUREMENT
 70
1
  9
$CELWEIGHT
370
-1
  9
$ENDCAPS
280
0
  9
$JOINSTYLE
280
0
  9
$LWDISPLAY
290
0
  9
$INSUNITS
 70
4
  9
$HYPERLINKBASE
  1

  9
$STYLESHEET
  1

  9
$XEDIT
290
1
  9
$CEPSNTYPE
380
0
  9
$PSTYLEMODE
290
1
  9
$FINGERPRINTGUID
  2
{E022D91F-5846-42F8-826E-FA04CBBDED72}
  9
$VERSIONGUID
  2
{436E8307-9ABC-4198-BAEC-AB0616427F4F}
  9
$EXTNAMES
290
1
  9
$PSVPSCALE
 40
0.0
  9
$OLESTARTUP
290
0
  9
$SORTENTS
280
127
  9
$INDEXCTL
280
0
  9
$HIDETEXT
280
1
  9
$XCLIPFRAME
280
1
  9
$HALOGAP
280
0
  9
$OBSCOLOR
 70
257
  9
$OBSLTYPE
280
0
  9
$INTERSECTIONDISPLAY
280
0
  9
$INTERSECTIONCOLOR
 70
257
  9
$DIMASSOC
280
2
  9
$PROJECTNAME
  1

  9
$CAMERADISPLAY
290
0
  9
$LENSLENGTH
 40
50.0
  9
$CAMERAHEIGHT
 40
0.0
  9
$STEPSPERSEC
 40
24.0
  9
$STEPSIZE
 40
100.0
  9
$3DDWFPREC
 40
2.0
  9
$PSOLWIDTH
 40
0.005
  9
$PSOLHEIGHT
 40
0.08
  9
$LOFTANG1
 40
1.570796326795
  9
$LOFTANG2
 40
1.570796326795
  9
$LOFTMAG1
 40
0.0
  9
$LOFTMAG2
 40
0.0
  9
$LOFTPARAM
 70
7
  9
$LOFTNORMALS
280
1
  9
$LATITUDE
 40
37.795
  9
$LONGITUDE
 40
-122.394
  9
$NORTHDIRECTION
 40
0.0
  9
$TIMEZONE
 70
-8000
  9
$LIGHTGLYPHDISPLAY
280
1
  9
$TILEMODELIGHTSYNCH
280
1
  9
$CMATERIAL
347
20
  9
$SOLIDHIST
280
0
  9
$SHOWHIST
280
1
  9
$DWFFRAME
280
2
  9
$DGNFRAME
280
2
  9
$REALWORLDSCALE
290
1
  9
$INTERFERECOLOR
 62
256
  9
$CSHADOW
280
0
  9
$SHADOWPLANELOCATION
 40
0.0
  0
ENDSEC
  0
SECTION
  2
CLASSES
  0
CLASS
  1
ACDBDICTIONARYWDFLT
  2
AcDbDictionaryWithDefault
  3
ObjectDBX Classes
 90
0
 91
0
280
0
281
0
  0
CLASS
  1
SUN
  2
AcDbSun
  3
SCENEOE
 90
1153
 91
0
280
0
281
0
  0
CLASS
  1
VISUALSTYLE
  2
AcDbVisualStyle
  3
ObjectDBX Classes
 90
4095
 91
0
280
0
281
0
  0
CLASS
  1
MATERIAL
  2
AcDbMaterial
  3
ObjectDBX Classes
 90
1153
 91
0
280
0
281
0
  0
CLASS
  1
SCALE
  2
AcDbScale
  3
ObjectDBX Classes
 90
1153
 91
0
280
0
281
0
  0
CLASS
  1
TABLESTYLE
  2
AcDbTableStyle
  3
ObjectDBX Classes
 90
4095
 91
0
280
0
281
0
  0
CLASS
  1
MLEADERSTYLE
  2
AcDbMLeaderStyle
  3
ACDB_MLEADERSTYLE_CLASS
 90
4095
 91
0
280
0
281
0
  0
CLASS
  1
DICTIONARYVAR
  2
AcDbDictionaryVar
  3
ObjectDBX Classes
 90
0
 91
0
280
0
281
0
  0
CLASS
  1
CELLSTYLEMAP
  2
AcDbCellStyleMap
  3
ObjectDBX Classes
 90
1152
 91
0
280
0
281
0
  0
CLASS
  1
MENTALRAYRENDERSETTINGS
  2
AcDbMentalRayRenderSettings
  3
SCENEOE
 90
1024
 91
0
280
0
281
0
  0
CLASS
  1
ACDBDETAILVIEWSTYLE
  2
AcDbDetailViewStyle
  3
ObjectDBX Classes
 90
1025
 91
0
280
0
281
0
  0
CLASS
  1
ACDBSECTIONVIEWSTYLE
  2
AcDbSectionViewStyle
  3
ObjectDBX Classes
 90
1025
 91
0
280
0
281
0
  0
CLASS
  1
RASTERVARIABLES
  2
AcDbRasterVariables
  3
ISM
 90
0
 91
0
280
0
281
0
  0
CLASS
  1
LAYOUT
  2
AcDbLayout
  3
ObjectDBX Classes
 90
0
 91
0
280
0
281
0
  0
CLASS
  1
ACDBPLACEHOLDER
  2
AcDbPlaceHolder
  3
ObjectDBX Classes
 90
0
 91
0
280
0
281
0
  0
ENDSEC
  0
SECTION
  2
TABLES
  0
TABLE
  2
VPORT
  5
8
330
0
100
AcDbSymbolTable
 70
1
  0
VPORT
  5
23
330
8
100
AcDbSymbolTableRecord
100
AcDbViewportTableRecord
  2
*Active
 70
0
 10
0.0
 20
0.0
 11
1.0
 21
1.0
 12
0.0
 22
0.0
 13
0.0
 23
0.0
 14
0.5
 24
0.5
 15
0.5
 25
0.5
 16
0.0
 26
0.0
 36
1.0
 17
0.0
 27
0.0
 37
0.0
 40
1000.0
 41
1.34
 42
50.0
 43
0.0
 44
0.0
 50
0.0
 51
0.0
 71
0
 72
1000
 73
1
 74
3
 75
0
 76
0
 77
0
 78
0
281
0
 65
0
146
0.0
  0
ENDTAB
  0
TABLE
  2
LTYPE
  5
2
330
0
100
AcDbSymbolTable
 70
21
  0
LTYPE
  5
24
330
2
100
AcDbSymbolTableRecord
100
AcDbLinetypeTableRecord
  2
ByBlock
 70
0
  3

 72
65
 73
0
 40
0.0
  0
LTYPE
  5
25
330
2
100
AcDbSymbolTableRecord
100
AcDbLinetypeTableRecord
  2
ByLayer
 70
0
  3

 72
65
 73
0
 40
0.0
  0
LTYPE
  5
26
330
2
100
AcDbSymbolTableRecord
100
AcDbLinetypeTableRecord
  2
Continuous
 70
0
  3

 72
65
 73
0
 40
0.0
  0
LTYPE
  5
2F
330
2
100
AcDbSymbolTableRecord
100
AcDbLinetypeTableRecord
  2
CENTER
 70
0
  3
Center ____ _ ____ _ ____ _ ____ _ ____ _ ____
 72
65
 73
4
 40
5.08
 49
3.175
 74
0
 49
-0.635
 74
0
 49
0.635
 74
0
 49
-0.635
 74
0
  0
LTYPE
  5
30
330
2
100
AcDbSymbolTableRecord
100
AcDbLinetypeTableRecord
  2
CENTERX2
 70
0
  3
Center (2x) ________  __  ________  __  ________
 72
65
 73
4
 40
8.89
 49
6.35
 74
0
 49
-0.635
 74
0
 49
1.27
 74
0
 49
-0.635
 74
0
  0
LTYPE
  5
31
330
2
100
AcDbSymbolTableRecord
100
AcDbLinetypeTableRecord
  2
CENTER2
 70
0
  3
Center (.5x) ____ _ ____ _ ____ _ ____ _ ____
 72
65
 73
4
 40
2.54
 49
1.587
 74
0
 49
-0.318
 74
0
 49
0.318
 74
0
 49
-0.318
 74
0
  0
LTYPE
  5
32
330
2
100
AcDbSymbolTableRecord
100
AcDbLinetypeTableRecord
  2
DASHED
 70
0
  3
Dashed __ __ __ __ __ __ __ __ __ __ __ __ __ _
 72
65
 73
2
 40
1.524
 49
1.27
 74
0
 49
-0.254
 74
0
  0
LTYPE
  5
33
330
2
100
AcDbSymbolTableRecord
100
AcDbLinetypeTableRecord
  2
DASHEDX2
 70
0
  3
Dashed (2x) ____  ____  ____  ____  ____  ____
 72
65
 73
2
 40
3.048
 49
2.54
 74
0
 49
-0.508
 74
0
  0
LTYPE
  5
34
330
2
100
AcDbSymbolTableRecord
100
AcDbLinetypeTableRecord
  2
DASHED2
 70
0
  3
Dashed (.5x) _ _ _ _ _ _ _ _ _ _ _ _ _ _
 72
65
 73
2
 40
0.762
 49
0.635
 74
0
 49
-0.127
 74
0
  0
LTYPE
  5
35
330
2
100
AcDbSymbolTableRecord
100
AcDbLinetypeTableRecord
  2
PHANTOM
 70
0
  3
Phantom ______  __  __  ______  __  __  ______
 72
65
 73
6
 40
6.35
 49
3.175
 74
0
 49
-0.635
 74
0
 49
0.635
 74
0
 49
-0.635
 74
0
 49
0.635
 74
0
 49
-0.635
 74
0
  0
LTYPE
  5
36
330
2
100
AcDbSymbolTableRecord
100
AcDbLinetypeTableRecord
  2
PHANTOMX2
 70
0
  3
Phantom (2x)____________    ____    ____    ____________
 72
65
 73
6
 40
10.795
 49
6.35
 74
0
 49
-0.635
 74
0
 49
1.27
 74
0
 49
-0.635
 74
0
 49
1.27
 74
0
 49
-0.635
 74
0
  0
LTYPE
  5
37
330
2
100
AcDbSymbolTableRecord
100
AcDbLinetypeTableRecord
  2
PHANTOM2
 70
0
  3
Phantom (.5x) ___ _ _ ___ _ _ ___ _ _ ___ _ _ ___
 72
65
 73
6
 40
3.175
 49
1.587
 74
0
 49
-0.318
 74
0
 49
0.318
 74
0
 49
-0.318
 74
0
 49
0.318
 74
0
 49
-0.318
 74
0
  0
LTYPE
  5
38
330
2
100
AcDbSymbolTableRecord
100
AcDbLinetypeTableRecord
  2
DASHDOT
 70
0
  3
Dash dot __ . __ . __ . __ . __ . __ . __ . __
 72
65
 73
4
 40
3.556
 49
2.54
 74
0
 49
-0.508
 74
0
 49
0.0
 74
0
 49
-0.508
 74
0
  0
LTYPE
  5
39
330
2
100
AcDbSymbolTableRecord
100
AcDbLinetypeTableRecord
  2
DASHDOTX2
 70
0
  3
Dash dot (2x) ____  .  ____  .  ____  .  ____
 72
65
 73
4
 40
6.096
 49
5.08
 74
0
 49
-0.508
 74
0
 49
0.0
 74
0
 49
-0.508
 74
0
  0
LTYPE
  5
3A
330
2
100
AcDbSymbolTableRecord
100
AcDbLinetypeTableRecord
  2
DASHDOT2
 70
0
  3
Dash dot (.5x) _ . _ . _ . _ . _ . _ . _ . _
 72
65
 73
4
 40
1.778
 49
1.27
 74
0
 49
-0.254
 74
0
 49
0.0
 74
0
 49
-0.254
 74
0
  0
LTYPE
  5
3B
330
2
100
AcDbSymbolTableRecord
100
AcDbLinetypeTableRecord
  2
DOT
 70
0
  3
Dot .  .  .  .  .  .  .  .  .  .  .  .  .  .  .  .
 72
65
 73
2
 40
0.508
 49
0.0
 74
0
 49
-0.508
 74
0
  0
LTYPE
  5
3C
330
2
100
AcDbSymbolTableRecord
100
AcDbLinetypeTableRecord
  2
DOTX2
 70
0
  3
Dot (2x) .    .    .    .    .    .    .    . 
 72
65
 73
2
 40
1.016
 49
0.0
 74
0
 49
-1.016
 74
0
  0
LTYPE
  5
3D
330
2
100
AcDbSymbolTableRecord
100
AcDbLinetypeTableRecord
  2
DOT2
 70
0
  3
Dot (.5) . . . . . . . . . . . . . . . . . . . 
 72
65
 73
2
 40
0.254
 49
0.0
 74
0
 49
-0.254
 74
0
  0
LTYPE
  5
3E
330
2
100
AcDbSymbolTableRecord
100
AcDbLinetypeTableRecord
  2
DIVIDE
 70
0
  3
Divide __ . . __ . . __ . . __ . . __ . . __
 72
65
 73
6
 40
4.064
 49
2.54
 74
0
 49
-0.508
 74
0
 49
0.0
 74
0
 49
-0.508
 74
0
 49
0.0
 74
0
 49
-0.508
 74
0
  0
LTYPE
  5
3F
330
2
100
AcDbSymbolTableRecord
100
AcDbLinetypeTableRecord
  2
DIVIDEX2
 70
0
  3
Divide (2x) ____  . .  ____  . .  ____  . .  ____
 72
65
 73
6
 40
6.604
 49
5.08
 74
0
 49
-0.508
 74
0
 49
0.0
 74
0
 49
-0.508
 74
0
 49
0.0
 74
0
 49
-0.508
 74
0
  0
LTYPE
  5
40
330
2
100
AcDbSymbolTableRecord
100
AcDbLinetypeTableRecord
  2
DIVIDE2
 70
0
  3
Divide(.5x) _ . _ . _ . _ . _ . _ . _ . _
 72
65
 73
6
 40
2.032
 49
1.27
 74
0
 49
-0.254
 74
0
 49
0.0
 74
0
 49
-0.254
 74
0
 49
0.0
 74
0
 49
-0.254
 74
0
  0
ENDTAB
  0
TABLE
  2
LAYER
  5
1
330
0
100
AcDbSymbolTable
 70
6
  0
LAYER
  5
27
330
1
100
AcDbSymbolTableRecord
100
AcDbLayerTableRecord
  2
0
 70
0
 62
7
  6
Continuous
370
-3
390
13
347
21
  0
LAYER
  5
28
330
1
100
AcDbSymbolTableRecord
100
AcDbLayerTableRecord
  2
Defpoints
 70
0
 62
7
  6
Continuous
290
0
370
-3
390
13
347
21
  0
LAYER
  5
8A
330
1
100
AcDbSymbolTableRecord
100
AcDbLayerTableRecord
  2
CUT
 70
0
 62
1
  6
Continuous
370
-3
390
13
347
21
  0
LAYER
  5
8B
330
1
100
AcDbSymbolTableRecord
100
AcDbLayerTableRecord
  2
POCKET-KERF-15.5
 70
0
 62
5
  6
Continuous
370
-3
390
13
347
21
  0
LAYER
  5
8C
330
1
100
AcDbSymbolTableRecord
100
AcDbLayerTableRecord
  2
ENGRAVE-LABEL
 70
0
 62
3
  6
Continuous
370
-3
390
13
347
21
  0
LAYER
  5
8D
330
1
100
AcDbSymbolTableRecord
100
AcDbLayerTableRecord
  2
REFERENCE-SHEET
 70
0
 62
8
  6
Continuous
370
-3
390
13
347
21
  0
ENDTAB
  0
TABLE
  2
STYLE
  5
5
330
0
100
AcDbSymbolTable
 70
26
  0
STYLE
  5
29
330
5
100
AcDbSymbolTableRecord
100
AcDbTextStyleTableRecord
  2
Standard
 70
0
 40
0.0
 41
1.0
 50
0.0
 71
0
 42
2.5
  3
txt
  4

  0
STYLE
  5
41
330
5
100
AcDbSymbolTableRecord
100
AcDbTextStyleTableRecord
  2
OpenSans-Light
 70
0
 40
0.0
 41
1.0
 50
0.0
 71
0
 42
2.5
  3
OpenSans-Light.ttf
  4

  0
STYLE
  5
42
330
5
100
AcDbSymbolTableRecord
100
AcDbTextStyleTableRecord
  2
OpenSans-Light-Italic
 70
0
 40
0.0
 41
1.0
 50
0.0
 71
0
 42
2.5
  3
OpenSans-LightItalic.ttf
  4

  0
STYLE
  5
43
330
5
100
AcDbSymbolTableRecord
100
AcDbTextStyleTableRecord
  2
OpenSans
 70
0
 40
0.0
 41
1.0
 50
0.0
 71
0
 42
2.5
  3
OpenSans-Regular.ttf
  4

  0
STYLE
  5
44
330
5
100
AcDbSymbolTableRecord
100
AcDbTextStyleTableRecord
  2
OpenSans-Italic
 70
0
 40
0.0
 41
1.0
 50
0.0
 71
0
 42
2.5
  3
OpenSans-Italic.ttf
  4

  0
STYLE
  5
45
330
5
100
AcDbSymbolTableRecord
100
AcDbTextStyleTableRecord
  2
OpenSans-SemiBold
 70
0
 40
0.0
 41
1.0
 50
0.0
 71
0
 42
2.5
  3
OpenSans-SemiBold.ttf
  4

  0
STYLE
  5
46
330
5
100
AcDbSymbolTableRecord
100
AcDbTextStyleTableRecord
  2
OpenSans-SemiBoldItalic
 70
0
 40
0.0
 41
1.0
 50
0.0
 71
0
 42
2.5
  3
OpenSans-SemiBoldItalic.ttf
  4

  0
STYLE
  5
47
330
5
100
AcDbSymbolTableRecord
100
AcDbTextStyleTableRecord
  2
OpenSans-Bold
 70
0
 40
0.0
 41
1.0
 50
0.0
 71
0
 42
2.5
  3
OpenSans-Bold.ttf
  4

  0
STYLE
  5
48
330
5
100
AcDbSymbolTableRecord
100
AcDbTextStyleTableRecord
  2
OpenSans-BoldItalic
 70
0
 40
0.0
 41
1.0
 50
0.0
 71
0
 42
2.5
  3
OpenSans-BoldItalic.ttf
  4

  0
STYLE
  5
49
330
5
100
AcDbSymbolTableRecord
100
AcDbTextStyleTableRecord
  2
OpenSans-ExtraBold
 70
0
 40
0.0
 41
1.0
 50
0.0
 71
0
 42
2.5
  3
OpenSans-ExtraBold.ttf
  4

  0
STYLE
  5
4A
330
5
100
AcDbSymbolTableRecord
100
AcDbTextStyleTableRecord
  2
OpenSans-ExtraBoldItalic
 70
0
 40
0.0
 41
1.0
 50
0.0
 71
0
 42
2.5
  3
OpenSans-ExtraBoldItalic.ttf
  4

  0
STYLE
  5
4B
330
5
100
AcDbSymbolTableRecord
100
AcDbTextStyleTableRecord
  2
OpenSansCondensed-Bold
 70
0
 40
0.0
 41
1.0
 50
0.0
 71
0
 42
2.5
  3
OpenSansCondensed-Bold.ttf
  4

  0
STYLE
  5
4C
330
5
100
AcDbSymbolTableRecord
100
AcDbTextStyleTableRecord
  2
OpenSansCondensed-Light
 70
0
 40
0.0
 41
1.0
 50
0.0
 71
0
 42
2.5
  3
OpenSansCondensed-Light.ttf
  4

  0
STYLE
  5
4D
330
5
100
AcDbSymbolTableRecord
100
AcDbTextStyleTableRecord
  2
OpenSansCondensed-Italic
 70
0
 40
0.0
 41
1.0
 50
0.0
 71
0
 42
2.5
  3
OpenSansCondensed-LightItalic.ttf
  4

  0
STYLE
  5
4E
330
5
100
AcDbSymbolTableRecord
100
AcDbTextStyleTableRecord
  2
LiberationSans
 70
0
 40
0.0
 41
1.0
 50
0.0
 71
0
 42
2.5
  3
LiberationSans-Regular.ttf
  4

  0
STYLE
  5
4F
330
5
100
AcDbSymbolTableRecord
100
AcDbTextStyleTableRecord
  2
LiberationSans-Bold
 70
0
 40
0.0
 41
1.0
 50
0.0
 71
0
 42
2.5
  3
LiberationSans-Bold.ttf
  4

  0
STYLE
  5
50
330
5
100
AcDbSymbolTableRecord
100
AcDbTextStyleTableRecord
  2
LiberationSans-BoldItalic
 70
0
 40
0.0
 41
1.0
 50
0.0
 71
0
 42
2.5
  3
LiberationSans-BoldItalic.ttf
  4

  0
STYLE
  5
51
330
5
100
AcDbSymbolTableRecord
100
AcDbTextStyleTableRecord
  2
LiberationSans-Italic
 70
0
 40
0.0
 41
1.0
 50
0.0
 71
0
 42
2.5
  3
LiberationSans-Italic.ttf
  4

  0
STYLE
  5
52
330
5
100
AcDbSymbolTableRecord
100
AcDbTextStyleTableRecord
  2
LiberationSerif
 70
0
 40
0.0
 41
1.0
 50
0.0
 71
0
 42
2.5
  3
LiberationSerif-Regular.ttf
  4

  0
STYLE
  5
53
330
5
100
AcDbSymbolTableRecord
100
AcDbTextStyleTableRecord
  2
LiberationSerif-Bold
 70
0
 40
0.0
 41
1.0
 50
0.0
 71
0
 42
2.5
  3
LiberationSerif-Bold.ttf
  4

  0
STYLE
  5
54
330
5
100
AcDbSymbolTableRecord
100
AcDbTextStyleTableRecord
  2
LiberationSerif-BoldItalic
 70
0
 40
0.0
 41
1.0
 50
0.0
 71
0
 42
2.5
  3
LiberationSerif-BoldItalic.ttf
  4

  0
STYLE
  5
55
330
5
100
AcDbSymbolTableRecord
100
AcDbTextStyleTableRecord
  2
LiberationSerif-Italic
 70
0
 40
0.0
 41
1.0
 50
0.0
 71
0
 42
2.5
  3
LiberationSerif-Italic.ttf
  4

  0
STYLE
  5
56
330
5
100
AcDbSymbolTableRecord
100
AcDbTextStyleTableRecord
  2
LiberationMono
 70
0
 40
0.0
 41
1.0
 50
0.0
 71
0
 42
2.5
  3
LiberationMono-Regular.ttf
  4

  0
STYLE
  5
57
330
5
100
AcDbSymbolTableRecord
100
AcDbTextStyleTableRecord
  2
LiberationMono-Bold
 70
0
 40
0.0
 41
1.0
 50
0.0
 71
0
 42
2.5
  3
LiberationMono-Bold.ttf
  4

  0
STYLE
  5
58
330
5
100
AcDbSymbolTableRecord
100
AcDbTextStyleTableRecord
  2
LiberationMono-BoldItalic
 70
0
 40
0.0
 41
1.0
 50
0.0
 71
0
 42
2.5
  3
LiberationMono-BoldItalic.ttf
  4

  0
STYLE
  5
59
330
5
100
AcDbSymbolTableRecord
100
AcDbTextStyleTableRecord
  2
LiberationMono-Italic
 70
0
 40
0.0
 41
1.0
 50
0.0
 71
0
 42
2.5
  3
LiberationMono-Italic.ttf
  4

  0
ENDTAB
  0
TABLE
  2
VIEW
  5
7
330
0
100
AcDbSymbolTable
 70
0
  0
ENDTAB
  0
TABLE
  2
UCS
  5
6
330
0
100
AcDbSymbolTable
 70
0
  0
ENDTAB
  0
TABLE
  2
APPID
  5
3
330
0
100
AcDbSymbolTable
 70
3
  0
APPID
  5
2A
330
3
100
AcDbSymbolTableRecord
100
AcDbRegAppTableRecord
  2
ACAD
 70
0
  0
APPID
  5
106
330
3
100
AcDbSymbolTableRecord
100
AcDbRegAppTableRecord
  2
HATCHBACKGROUNDCOLOR
 70
0
  0
APPID
  5
107
330
3
100
AcDbSymbolTableRecord
100
AcDbRegAppTableRecord
  2
EZDXF
 70
0
  0
ENDTAB
  0
TABLE
  2
DIMSTYLE
  5
4
330
0
100
AcDbSymbolTable
 70
12
100
AcDbDimStyleTable
  0
DIMSTYLE
105
2B
330
4
100
AcDbSymbolTableRecord
100
AcDbDimStyleTableRecord
  2
Standard
 70
0
 40
1.0
 41
2.5
 42
0.625
 43
3.75
 44
1.25
 45
0.0
 46
0.0
 47
0.0
 48
0.0
 49
2.5
140
2.5
141
2.5
142
0.0
143
0.03937007874
144
1.0
145
0.0
146
1.0
147
0.625
148
0.0
 69
0
 70
0
 71
0
 72
0
 73
0
 74
0
 75
0
 76
0
 77
1
 78
8
 79
3
170
0
171
3
172
1
173
0
174
0
175
0
176
0
177
0
178
0
179
2
271
2
272
2
273
2
274
3
275
0
276
0
277
2
278
44
279
0
280
0
281
0
282
0
283
0
284
8
285
0
286
0
288
0
289
3
290
0
371
-2
372
-2
  0
DIMSTYLE
105
73
330
4
100
AcDbSymbolTableRecord
100
AcDbDimStyleTableRecord
  2
EZDXF
 70
0
 40
1.0
 41
0.175
 42
0.125
 43
3.75
 44
0.375
 45
0.0
 46
0.0
 47
0.0
 48
0.0
 49
2.5
140
0.25
141
2.5
142
0.0
143
0.03937007874
144
100.0
145
0.0
146
0.5
147
0.1
148
0.0
 69
0
 70
0
 71
0
 72
0
 73
0
 74
0
 75
0
 76
0
 77
1
 78
12
 79
3
170
0
171
3
172
1
173
0
174
0
175
0
176
0
177
0
178
0
179
2
271
2
272
2
273
2
274
3
275
0
276
0
277
2
278
46
279
2
280
0
281
0
282
0
283
0
284
8
285
0
286
0
288
1
289
3
290
0
340
4C
342
74
371
-2
372
-2
  0
DIMSTYLE
105
7C
330
4
100
AcDbSymbolTableRecord
100
AcDbDimStyleTableRecord
  2
EZ_M_100_H25_CM
 70
0
 40
1.0
 41
0.25
 42
0.125
 43
3.75
 44
0.375
 45
0.0
 46
0.0
 47
0.0
 48
0.0
 49
2.5
140
0.25
141
2.5
142
0.125
143
0.03937007874
144
100.0
145
0.0
146
0.5
147
0.1
148
0.0
 69
0
 70
0
 71
0
 72
0
 73
0
 74
0
 75
0
 76
0
 77
1
 78
12
 79
3
170
0
171
3
172
1
173
0
174
0
175
0
176
0
177
0
178
0
179
2
271
2
272
2
273
2
274
3
275
0
276
0
277
2
278
46
279
2
280
0
281
0
282
0
283
0
284
8
285
0
286
0
288
1
289
3
290
0
340
4C
371
-2
372
-2
  0
DIMSTYLE
105
7D
330
4
100
AcDbSymbolTableRecord
100
AcDbDimStyleTableRecord
  2
EZ_M_50_H25_CM
 70
0
 40
1.0
 41
0.125
 42
0.0625
 43
3.75
 44
0.1875
 45
0.0
 46
0.0
 47
0.0
 48
0.0
 49
2.5
140
0.125
141
2.5
142
0.0625
143
0.03937007874
144
100.0
145
0.0
146
0.5
147
0.05
148
0.0
 69
0
 70
0
 71
0
 72
0
 73
0
 74
0
 75
0
 76
0
 77
1
 78
12
 79
3
170
0
171
3
172
1
173
0
174
0
175
0
176
0
177
0
178
0
179
2
271
2
272
2
273
2
274
3
275
0
276
0
277
2
278
46
279
2
280
0
281
0
282
0
283
0
284
8
285
0
286
0
288
1
289
3
290
0
340
4C
371
-2
372
-2
  0
DIMSTYLE
105
7E
330
4
100
AcDbSymbolTableRecord
100
AcDbDimStyleTableRecord
  2
EZ_M_25_H25_CM
 70
0
 40
1.0
 41
0.0625
 42
0.03125
 43
3.75
 44
0.09375
 45
0.0
 46
0.0
 47
0.0
 48
0.0
 49
2.5
140
0.0625
141
2.5
142
0.03125
143
0.03937007874
144
100.0
145
0.0
146
0.5
147
0.025
148
0.0
 69
0
 70
0
 71
0
 72
0
 73
0
 74
0
 75
0
 76
0
 77
1
 78
12
 79
3
170
0
171
3
172
1
173
0
174
0
175
0
176
0
177
0
178
0
179
2
271
2
272
2
273
2
274
3
275
0
276
0
277
2
278
46
279
2
280
0
281
0
282
0
283
0
284
8
285
0
286
0
288
1
289
3
290
0
340
4C
371
-2
372
-2
  0
DIMSTYLE
105
7F
330
4
100
AcDbSymbolTableRecord
100
AcDbDimStyleTableRecord
  2
EZ_M_20_H25_CM
 70
0
 40
1.0
 41
0.05
 42
0.025
 43
3.75
 44
0.07500000000000001
 45
0.0
 46
0.0
 47
0.0
 48
0.0
 49
2.5
140
0.05
141
2.5
142
0.025
143
0.03937007874
144
100.0
145
0.0
146
0.5
147
0.020000000000000004
148
0.0
 69
0
 70
0
 71
0
 72
0
 73
0
 74
0
 75
0
 76
0
 77
1
 78
12
 79
3
170
0
171
3
172
1
173
0
174
0
175
0
176
0
177
0
178
0
179
2
271
2
272
2
273
2
274
3
275
0
276
0
277
2
278
46
279
2
280
0
281
0
282
0
283
0
284
8
285
0
286
0
288
1
289
3
290
0
340
4C
371
-2
372
-2
  0
DIMSTYLE
105
80
330
4
100
AcDbSymbolTableRecord
100
AcDbDimStyleTableRecord
  2
EZ_M_10_H25_CM
 70
0
 40
1.0
 41
0.025
 42
0.0125
 43
3.75
 44
0.037500000000000006
 45
0.0
 46
0.0
 47
0.0
 48
0.0
 49
2.5
140
0.025
141
2.5
142
0.0125
143
0.03937007874
144
100.0
145
0.0
146
0.5
147
0.010000000000000002
148
0.0
 69
0
 70
0
 71
0
 72
0
 73
0
 74
0
 75
0
 76
0
 77
1
 78
12
 79
3
170
0
171
3
172
1
173
0
174
0
175
0
176
0
177
0
178
0
179
2
271
2
272
2
273
2
274
3
275
0
276
0
277
2
278
46
279
2
280
0
281
0
282
0
283
0
284
8
285
0
286
0
288
1
289
3
290
0
340
4C
371
-2
372
-2
  0
DIMSTYLE
105
81
330
4
100
AcDbSymbolTableRecord
100
AcDbDimStyleTableRecord
  2
EZ_M_5_H25_CM
 70
0
 40
1.0
 41
0.0125
 42
0.00625
 43
3.75
 44
0.018750000000000003
 45
0.0
 46
0.0
 47
0.0
 48
0.0
 49
2.5
140
0.0125
141
2.5
142
0.00625
143
0.03937007874
144
100.0
145
0.0
146
0.5
147
0.005000000000000001
148
0.0
 69
0
 70
0
 71
0
 72
0
 73
0
 74
0
 75
0
 76
0
 77
1
 78
12
 79
3
170
0
171
3
172
1
173
0
174
0
175
0
176
0
177
0
178
0
179
2
271
2
272
2
273
2
274
3
275
0
276
0
277
2
278
46
279
2
280
0
281
0
282
0
283
0
284
8
285
0
286
0
288
1
289
3
290
0
340
4C
371
-2
372
-2
  0
DIMSTYLE
105
82
330
4
100
AcDbSymbolTableRecord
100
AcDbDimStyleTableRecord
  2
EZ_M_1_H25_CM
 70
0
 40
1.0
 41
0.0025
 42
0.00125
 43
3.75
 44
0.00375
 45
0.0
 46
0.0
 47
0.0
 48
0.0
 49
2.5
140
0.0025
141
2.5
142
0.00125
143
0.03937007874
144
100.0
145
0.0
146
0.5
147
0.001
148
0.0
 69
0
 70
0
 71
0
 72
0
 73
0
 74
0
 75
0
 76
0
 77
1
 78
12
 79
3
170
0
171
3
172
1
173
0
174
0
175
0
176
0
177
0
178
0
179
2
271
2
272
2
273
2
274
3
275
0
276
0
277
2
278
46
279
2
280
0
281
0
282
0
283
0
284
8
285
0
286
0
288
1
289
3
290
0
340
4C
371
-2
372
-2
  0
DIMSTYLE
105
83
330
4
100
AcDbSymbolTableRecord
100
AcDbDimStyleTableRecord
  2
EZ_RADIUS
 70
0
 40
1.0
 41
0.25
 42
0.125
 43
3.75
 44
0.375
 45
0.0
 46
0.0
 47
0.0
 48
0.0
 49
2.5
140
0.25
141
0.0
142
0.0
143
0.03937007874
144
100.0
145
0.0
146
0.5
147
0.1
148
0.0
 69
0
 70
0
 71
0
 72
0
 73
0
 74
0
 75
0
 76
0
 77
1
 78
12
 79
3
170
0
171
3
172
0
173
0
174
0
175
0
176
0
177
0
178
0
179
2
271
2
272
2
273
2
274
3
275
0
276
0
277
2
278
46
279
1
280
0
281
0
282
0
283
0
284
8
285
0
286
0
288
1
289
3
290
0
340
4C
342
84
371
-2
372
-2
  0
DIMSTYLE
105
88
330
4
100
AcDbSymbolTableRecord
100
AcDbDimStyleTableRecord
  2
EZ_RADIUS_INSIDE
 70
0
 40
1.0
 41
0.25
 42
0.125
 43
3.75
 44
0.375
 45
0.0
 46
0.0
 47
0.0
 48
0.0
 49
2.5
140
0.25
141
0.0
142
0.0
143
0.03937007874
144
100.0
145
0.0
146
0.5
147
0.1
148
0.0
 69
0
 70
0
 71
0
 72
0
 73
0
 74
0
 75
0
 76
0
 77
0
 78
12
 79
3
170
0
171
3
172
0
173
0
174
1
175
0
176
0
177
0
178
0
179
2
271
2
272
2
273
2
274
3
275
0
276
0
277
2
278
46
279
0
280
0
281
0
282
0
283
0
284
8
285
0
286
0
288
1
289
0
290
0
340
4C
342
84
371
-2
372
-2
  0
DIMSTYLE
105
89
330
4
100
AcDbSymbolTableRecord
100
AcDbDimStyleTableRecord
  2
EZ_CURVED
 70
0
 40
1.0
 41
0.25
 42
0.125
 43
3.75
 44
0.375
 45
0.0
 46
0.0
 47
0.0
 48
0.0
 49
2.5
140
0.25
141
2.5
142
0.0
143
0.03937007874
144
100.0
145
0.0
146
0.5
147
0.1
148
0.0
 69
0
 70
0
 71
0
 72
0
 73
0
 74
0
 75
0
 76
0
 77
1
 78
12
 79
2
 90
2
170
0
171
3
172
1
173
0
174
0
175
0
176
0
177
0
178
0
179
2
271
2
272
2
273
2
274
3
275
0
276
0
277
2
278
46
279
2
280
0
281
0
282
0
283
0
284
8
285
0
286
0
288
1
289
3
290
0
340
4C
371
-2
372
-2
  0
ENDTAB
  0
TABLE
  2
BLOCK_RECORD
  5
9
330
0
100
AcDbSymbolTable
 70
5
  0
BLOCK_RECORD
  5
17
330
9
100
AcDbSymbolTableRecord
100
AcDbBlockTableRecord
  2
*Model_Space
340
1A
 70
0
280
1
281
0
  0
BLOCK_RECORD
  5
1B
330
9
100
AcDbSymbolTableRecord
100
AcDbBlockTableRecord
  2
*Paper_Space
340
1E
 70
0
280
1
281
0
  0
BLOCK_RECORD
  5
74
330
9
100
AcDbSymbolTableRecord
100
AcDbBlockTableRecord
  2
_ARCHTICK
340
0
 70
0
280
1
281
0
  0
BLOCK_RECORD
  5
78
330
9
100
AcDbSymbolTableRecord
100
AcDbBlockTableRecord
  2
_CLOSEDFILLED
340
0
 70
0
280
1
281
0
  0
BLOCK_RECORD
  5
84
330
9
100
AcDbSymbolTableRecord
100
AcDbBlockTableRecord
  2
_CLOSEDBLANK
340
0
 70
0
280
1
281
0
  0
ENDTAB
  0
ENDSEC
  0
SECTION
  2
BLOCKS
  0
BLOCK
  5
18
330
17
100
AcDbEntity
  8
0
100
AcDbBlockBegin
  2
*Model_Space
 70
0
 10
0.0
 20
0.0
 30
0.0
  3
*Model_Space
  1

  0
ENDBLK
  5
19
330
17
100
AcDbEntity
  8
0
100
AcDbBlockEnd
  0
BLOCK
  5
1C
330
1B
100
AcDbEntity
  8
0
100
AcDbBlockBegin
  2
*Paper_Space
 70
0
 10
0.0
 20
0.0
 30
0.0
  3
*Paper_Space
  1

  0
ENDBLK
  5
1D
330
1B
100
AcDbEntity
  8
0
100
AcDbBlockEnd
  0
BLOCK
  5
75
330
74
100
AcDbEntity
  8
0
100
AcDbBlockBegin
  2
_ARCHTICK
 70
0
 10
0.0
 20
0.0
 30
0.0
  3
_ARCHTICK
  1

  0
LWPOLYLINE
  5
77
330
74
100
AcDbEntity
  8
0
  6
BYBLOCK
 62
0
100
AcDbPolyline
 90
2
 70
0
 43
0.15
 10
-0.5
 20
-0.5
 10
0.5
 20
0.5
  0
ENDBLK
  5
76
330
74
100
AcDbEntity
  8
0
100
AcDbBlockEnd
  0
BLOCK
  5
79
330
78
100
AcDbEntity
  8
0
100
AcDbBlockBegin
  2
_CLOSEDFILLED
 70
0
 10
0.0
 20
0.0
 30
0.0
  3
_CLOSEDFILLED
  1

  0
SOLID
  5
7B
330
78
100
AcDbEntity
  8
0
  6
BYBLOCK
 62
0
100
AcDbTrace
 10
-1.0
 20
0.16439898372402537
 30
0.0
 11
0.0
 21
0.0
 31
0.0
 12
-1.0
 22
-0.16439898372402537
 32
0.0
 13
-1.0
 23
-0.16439898372402537
 33
0.0
  0
ENDBLK
  5
7A
330
78
100
AcDbEntity
  8
0
100
AcDbBlockEnd
  0
BLOCK
  5
85
330
84
100
AcDbEntity
  8
0
100
AcDbBlockBegin
  2
_CLOSEDBLANK
 70
0
 10
0.0
 20
0.0
 30
0.0
  3
_CLOSEDBLANK
  1

  0
LWPOLYLINE
  5
87
330
84
100
AcDbEntity
  8
0
  6
BYBLOCK
 62
0
100
AcDbPolyline
 90
3
 70
1
 10
-1.0
 20
0.16439898372402537
 10
0.0
 20
0.0
 10
-1.0
 20
-0.16439898372402537
  0
ENDBLK
  5
86
330
84
100
AcDbEntity
  8
0
100
AcDbBlockEnd
  0
ENDSEC
  0
SECTION
  2
ENTITIES
  0
LWPOLYLINE
  5
8E
330
17
100
AcDbEntity
  8
REFERENCE-SHEET
100
AcDbPolyline
 90
4
 70
1
 10
0.0
 20
0.0
 10
2440.0
 20
0.0
 10
2440.0
 20
1220.0
 10
0.0
 20
1220.0
  0
TEXT
  5
8F
330
17
100
AcDbEntity
  8
REFERENCE-SHEET
100
AcDbText
 10
0.0
 20
1275.0
 30
0.0
 40
40.0
  1
18 mm BOARD - SHEET 1/1 - 2440 x 1220  (kerf side = BACK face, show face down)
 11
0.0
 21
1275.0
 31
0.0
100
AcDbText
  0
LWPOLYLINE
  5
90
330
17
100
AcDbEntity
  8
CUT
100
AcDbPolyline
 90
4
 70
1
 10
804.6808360041198
 20
18.0
 10
1141.829765720171
 20
339.2951901154468
 42
0.4283865023507377
 10
18.0
 20
339.2951901154468
 10
355.14892971605127
 20
18.0
 42
-0.4283865023507377
  0
LWPOLYLINE
  5
91
330
17
100
AcDbEntity
  8
POCKET-KERF-15.5
100
AcDbPolyline
 90
4
 70
1
 10
798.7552393683883
 20
24.775222594544175
 10
802.9774674123664
 20
20.512267006616355
 10
1133.1613111613253
 20
347.54159114344
 10
1128.939083117347
 20
351.80454673136774
  0
LWPOLYLINE
  5
92
330
17
100
AcDbEntity
  8
POCKET-KERF-15.5
100
AcDbPolyline
 90
4
 70
1
 10
1015.9137662850346
 20
248.30357275950024
 10
1020.1768778795533
 20
244.08150223277045
 10
1127.8959364208156
 20
352.8476548847919
 10
1123.6328248262969
 20
357.0697254115217
  0
LWPOLYLINE
  5
93
330
17
100
AcDbEntity
  8
POCKET-KERF-15.5
100
AcDbPolyline
 90
4
 70
1
 10
790.077149819616
 20
33.044466053081194
 10
794.4605217624239
 20
28.947387775698203
 10
1111.7964699945887
 20
368.45798477941054
 10
1107.4130980517807
 20
372.5550630567935
  0
LWPOLYLINE
  5
94
330
17
100
AcDbEntity
  8
POCKET-KERF-15.5
100
AcDbPolyline
 90
4
 70
1
 10
998.4603237980707
 20
264.77534863617615
 10
1002.8829733472853
 20
260.7207005670053
 10
1106.3305282761044
 20
373.5571969455606
 10
1101.9078787268895
 20
377.61184501473133
  0
LWPOLYLINE
  5
95
330
17
100
AcDbEntity
  8
POCKET-KERF-15.5
100
AcDbPolyline
 90
4
 70
1
 10
781.0868371457137
 20
40.97314208496326
 10
785.6248409235717
 20
37.048027855778656
 10
1089.6414502018954
 20
388.5355109915734
 10
1085.1034464240372
 20
392.460625220758
  0
LWPOLYLINE
  5
96
330
17
100
AcDbEntity
  8
POCKET-KERF-15.5
100
AcDbPolyline
 90
4
 70
1
 10
980.3850781326906
 20
280.56229100363174
 10
984.9606952208766
 20
276.68108909413246
 10
1083.9830618660967
 20
393.4202960458601
 10
1079.4074447779108
 20
397.3014979553595
  0
LWPOLYLINE
  5
97
330
17
100
AcDbEntity
  8
POCKET-KERF-15.5
100
AcDbPolyline
 90
4
 70
1
 10
771.7976576144814
 20
48.54947162040481
 10
776.4835514380953
 20
44.802152702322594
 10
1066.7291659196258
 20
407.74434202792753
 10
1062.0432720960118
 20
411.49166094600986
  0
LWPOLYLINE
  5
98
330
17
100
AcDbEntity
  8
POCKET-KERF-15.5
100
AcDbPolyline
 90
4
 70
1
 10
961.7148823951673
 20
295.6409463249715
 10
966.4366693536119
 20
291.93895660063896
 10
1060.8867372314198
 20
412.4074429927913
 10
1056.1649502729754
 20
416.1094327171237
  0
LWPOLYLINE
  5
99
330
17
100
AcDbEntity
  8
POCKET-KERF-15.5
100
AcDbPolyline
 90
4
 70
1
 10
762.223411498942
 20
55.762199045737454
 10
767.0502338693007
 20
52.1982425638195
 10
1043.0936562981285
 20
426.05594069507936
 10
1038.2668339277698
 20
429.61989717699737
  0
LWPOLYLINE
  5
9A
330
17
100
AcDbEntity
  8
POCKET-KERF-15.5
100
AcDbPolyline
 90
4
 70
1
 10
942.4774735667593
 20
309.9889133149631
 10
947.3384155725748
 20
306.47163555850176
 10
1037.0758669380768
 20
430.49042993323707
 10
1032.2149249322613
 20
434.0077076896983
  0
LWPOLYLINE
  5
9B
330
17
100
AcDbEntity
  8
POCKET-KERF-15.5
100
AcDbPolyline
 90
4
 70
1
 10
752.3783225752575
 20
62.60060892507427
 10
757.3389026258361
 20
59.225309595858974
 10
1018.7700349321734
 20
443.44310275392024
 10
1013.8094548815949
 20
446.81840208313554
  0
LWPOLYLINE
  5
9C
330
17
100
AcDbEntity
  8
POCKET-KERF-15.5
100
AcDbPolyline
 90
4
 70
1
 10
922.7014312968523
 20
323.58487622003355
 10
927.6943067943997
 20
320.257535800721
 10
1012.5858251017102
 20
447.64239226026365
 10
1007.5929496041628
 20
450.9697326795762
  0
LWPOLYLINE
  5
9D
330
17
100
AcDbEntity
  8
POCKET-KERF-15.5
100
AcDbPolyline
 90
4
 70
1
 10
742.2770169914771
 20
69.0545419194705
 10
747.3639851414835
 20
65.87291418498901
 10
993.7944376951851
 20
459.87999733502863
 10
988.7074695451788
 20
463.0616250695101
  0
LWPOLYLINE
  5
9E
330
17
100
AcDbEntity
  8
POCKET-KERF-15.5
100
AcDbPolyline
 90
4
 70
1
 10
902.4161354442076
 20
336.40863648556723
 10
907.5335268736471
 20
333.27617659629476
 10
987.4529948347943
 20
463.83784852395456
 10
982.3356034053548
 20
466.97030841322703
  0
LWPOLYLINE
  5
9F
330
17
100
AcDbEntity
  8
POCKET-KERF-15.5
100
AcDbPolyline
 90
4
 70
1
 10
731.9345015385102
 20
75.11440987993038
 10
737.1403004413461
 20
72.13118045810714
 10
968.203969054745
 20
475.3422053137548
 10
962.9981701519092
 20
478.32543473557814
  0
LWPOLYLINE
  5
A0
330
17
100
AcDbEntity
  8
POCKET-KERF-15.5
100
AcDbPolyline
 90
4
 70
1
 10
881.6517224293965
 20
348.4411427634604
 10
886.8860272464286
 20
345.5082170769837
 10
961.7147141948349
 20
479.0527382873881
 10
956.4804093778027
 20
481.98566397386475
  0
LWPOLYLINE
  5
A1
330
17
100
AcDbEntity
  8
POCKET-KERF-15.5
100
AcDbPolyline
 90
4
 70
1
 10
721.3661413556043
 20
80.77121009183793
 10
726.6830371262784
 20
77.9908109543419
 10
942.0366469491257
 20
489.806755587977
 10
936.7197511784517
 20
492.58715472547306
  0
LWPOLYLINE
  5
A2
330
17
100
AcDbEntity
  8
POCKET-KERF-15.5
100
AcDbPolyline
 90
4
 70
1
 10
860.4390404632645
 20
359.6645192153549
 10
865.7824824336893
 20
356.9354849706629
 10
935.4092207138741
 20
493.2644578715152
 10
930.0657787434493
 20
495.9934921162072
  0
LWPOLYLINE
  5
A3
330
17
100
AcDbEntity
  8
POCKET-KERF-15.5
100
AcDbPolyline
 90
4
 70
1
 10
710.5876371034515
 20
86.01653864964943
 10
716.0077308082609
 20
83.44310043762938
 10
915.3313463067446
 20
503.2521592046325
 10
909.9112526019352
 20
505.82559741665267
  0
LWPOLYLINE
  5
A4
330
17
100
AcDbEntity
  8
POCKET-KERF-15.5
100
AcDbPolyline
 90
4
 70
1
 10
838.80960371794
 20
370.06209206949796
 10
844.2542444702551
 20
367.541003598573
 10
908.5755945917098
 20
506.4518939358391
 10
903.1309538393947
 20
508.97298240676406
  0
LWPOLYLINE
  5
A5
330
17
100
AcDbEntity
  8
POCKET-KERF-15.5
100
AcDbPolyline
 90
4
 70
1
 10
699.6150016388341
 20
90.84260294197762
 10
705.130241030249
 20
88.47994882946242
 10
888.1277412924492
 20
515.6584412843265
 10
882.6125019010343
 20
518.0210953968417
  0
LWPOLYLINE
  5
A6
330
17
100
AcDbEntity
  8
POCKET-KERF-15.5
100
AcDbPolyline
 90
4
 70
1
 10
816.7955455084714
 20
379.6184143917787
 10
822.3332963273449
 20
377.3090170963646
 10
881.253700637223
 20
518.5954548450006
 10
875.7159498183495
 20
520.9048521404147
  0
LWPOLYLINE
  5
A7
330
17
100
AcDbEntity
  8
POCKET-KERF-15.5
100
AcDbPolyline
 90
4
 70
1
 10
688.464536225462
 20
95.24223322852039
 10
694.0667277047763
 20
93.09387324260139
 10
860.4662463664339
 20
527.0071706965895
 10
854.8640548871196
 20
529.1555306825086
  0
LWPOLYLINE
  5
A8
330
17
100
AcDbEntity
  8
POCKET-KERF-15.5
100
AcDbPolyline
 90
4
 70
1
 10
794.4295705546464
 20
388.3192890341392
 10
800.0522043977463
 20
386.22501382146396
 10
853.4841290440695
 20
529.6770997746781
 10
847.8614952009693
 20
531.7713749873534
  0
LWPOLYLINE
  5
A9
330
17
100
AcDbEntity
  8
POCKET-KERF-15.5
100
AcDbPolyline
 90
4
 70
1
 10
677.1528063163469
 20
99.20889329163327
 10
682.8336271063249
 20
97.27801909786677
 10
832.3879562433516
 20
537.2814874416952
 10
826.7071354533736
 20
539.2123616354615
  0
LWPOLYLINE
  5
AA
330
17
100
AcDbEntity
  8
POCKET-KERF-15.5
100
AcDbPolyline
 90
4
 70
1
 10
771.7449063939183
 20
396.15178972626717
 10
777.444070114244
 20
394.27574791198793
 10
825.3081350887157
 20
539.680365513556
 10
819.6089713683901
 20
541.5564073278352
  0
LWPOLYLINE
  5
AB
330
17
100
AcDbEntity
  8
POCKET-KERF-15.5
100
AcDbPolyline
 90
4
 70
1
 10
665.6966169436852
 20
102.73669014672329
 10
671.4476274531196
 20
101.02617030750038
 10
803.9345848408213
 20
546.4661276983632
 10
798.1835743313868
 20
548.176647537586
  0
LWPOLYLINE
  5
AC
330
17
100
AcDbEntity
  8
POCKET-KERF-15.5
100
AcDbPolyline
 90
4
 70
1
 10
748.7752540176178
 20
403.1042802792354
 10
754.5424807731754
 20
401.4492589651789
 10
796.7675778404122
 20
548.5903909215465
 10
791.0003510848546
 20
550.245412235603
  0
LWPOLYLINE
  5
AD
330
17
100
AcDbEntity
  8
POCKET-KERF-15.5
100
AcDbPolyline
 90
4
 70
1
 10
654.1129877528197
 20
105.82038279703647
 10
659.9256441146315
 20
104.33275850996381
 10
775.1484033080284
 20
554.5474465001324
 10
769.3357469462165
 20
556.035070787205
  0
LWPOLYLINE
  5
AE
330
17
100
AcDbEntity
  8
POCKET-KERF-15.5
100
AcDbPolyline
 90
4
 70
1
 10
725.5547378037877
 20
409.16643187256017
 10
731.3814596361752
 20
407.73488980612336
 10
767.9048579741508
 20
556.393939007927
 10
762.0781361417633
 20
557.8254810743638
  0
LWPOLYLINE
  5
AF
330
17
100
AcDbEntity
  8
POCKET-KERF-15.5
100
AcDbPolyline
 90
4
 70
1
 10
642.419127717362
 20
108.45539001983418
 10
648.2847944816161
 20
107.19287134245754
 10
746.0721772264865
 20
561.5134380067157
 10
740.2065104622324
 20
562.7759566840923
  0
LWPOLYLINE
  5
B0
330
17
100
AcDbEntity
  8
POCKET-KERF-15.5
100
AcDbPolyline
 90
4
 70
1
 10
702.117854821023
 20
414.3292383989946
 10
707.9954153842366
 20
413.12330232035896
 10
738.7628547790009
 20
563.0794165965972
 10
732.8852942157872
 20
564.2853526752328
  0
LWPOLYLINE
  5
B1
330
17
100
AcDbEntity
  8
POCKET-KERF-15.5
100
AcDbPolyline
 90
4
 70
1
 10
630.6324095730462
 20
110.6377971723894
 10
636.5423725360246
 20
109.60225973886843
 10
716.7491030762558
 20
567.3537533402231
 10
710.8391401132774
 20
568.3892907737442
  0
LWPOLYLINE
  5
B2
330
17
100
AcDbEntity
  8
POCKET-KERF-15.5
100
AcDbPolyline
 90
4
 70
1
 10
678.499423578631
 20
418.58502984426156
 10
684.419090999182
 20
417.6064913268461
 10
709.3848624553998
 20
568.6368915492338
 10
703.4651950348488
 20
569.6154300666493
  0
LWPOLYLINE
  5
B3
330
17
100
AcDbEntity
  8
POCKET-KERF-15.5
100
AcDbPolyline
 90
4
 70
1
 10
618.7703440082906
 20
112.36436200769309
 10
624.7158231585651
 20
111.55734424230512
 10
687.2227440620069
 20
572.0597159597539
 10
681.2772649117323
 20
572.8667337251418
  0
LWPOLYLINE
  5
B4
330
17
100
AcDbEntity
  8
POCKET-KERF-15.5
100
AcDbPolyline
 90
4
 70
1
 10
654.7345322992498
 20
421.9274836818476
 10
660.687512148488
 20
421.1777964706959
 10
679.814525796041
 20
573.0581075207626
 10
673.861545946803
 20
573.8077947319143
  0
LWPOLYLINE
  5
B5
330
17
100
AcDbEntity
  8
POCKET-KERF-15.5
100
AcDbPolyline
 90
4
 70
1
 10
606.8505536498145
 20
113.63251949122952
 10
612.8227162120845
 20
113.05522032284222
 10
657.5369653942676
 20
575.624334551514
 10
651.5648028319976
 20
576.2016337199013
  0
LWPOLYLINE
  5
B6
330
17
100
AcDbEntity
  8
POCKET-KERF-15.5
100
AcDbPolyline
 90
4
 70
1
 10
630.8584867907723
 20
424.3516342659314
 10
636.8359351501423
 20
423.8319121179862
 10
650.0957753459094
 20
576.3364962252235
 10
644.1183269865394
 20
576.8562183731688
  0
LWPOLYLINE
  5
B7
330
17
100
AcDbEntity
  8
POCKET-KERF-15.5
100
AcDbPolyline
 90
4
 70
1
 10
594.8907468819558
 20
114.44038561166606
 10
600.8807204392745
 20
114.09366269257403
 10
627.7358691220003
 20
578.0423134153164
 10
621.7458955646816
 20
578.3890363344083
  0
LWPOLYLINE
  5
B8
330
17
100
AcDbEntity
  8
POCKET-KERF-15.5
100
AcDbPolyline
 90
4
 70
1
 10
606.90675799502
 20
425.85388020848944
 10
612.8997945948423
 20
425.5648952379633
 10
620.2727621377987
 20
578.4671871938041
 10
614.2797255379763
 20
578.7561721643302
  0
LWPOLYLINE
  5
B9
330
17
100
AcDbEntity
  8
POCKET-KERF-15.5
100
AcDbPolyline
 90
4
 70
1
 10
582.9086915385841
 20
114.78676017979436
 10
588.9075772134764
 20
114.67112861156616
 10
597.8637286133271
 20
579.3100603320229
 10
591.8648429384348
 20
579.4256919002512
  0
LWPOLYLINE
  5
BA
330
17
100
AcDbEntity
  8
POCKET-KERF-15.5
100
AcDbPolyline
 90
4
 70
1
 10
582.9149292910888
 20
426.4319897296231
 10
588.9146507033444
 20
426.37417126092276
 10
590.3897921002629
 20
579.4470150105501
 10
584.3900706880074
 20
579.5048334792505
  0
LWPOLYLINE
  5
BB
330
17
100
AcDbEntity
  8
POCKET-KERF-15.5
100
AcDbPolyline
 90
4
 70
1
 10
570.9221885066946
 20
114.67112861156616
 10
576.921074181587
 20
114.78676017979436
 10
567.9649227817364
 20
579.4256919002512
 10
561.9660371068439
 20
579.3100603320229
  0
LWPOLYLINE
  5
BC
330
17
100
AcDbEntity
  8
POCKET-KERF-15.5
100
AcDbPolyline
 90
4
 70
1
 10
558.9186436316548
 20
426.0851039731545
 10
564.9161364971742
 20
426.2585379030648
 10
560.4912602354507
 20
579.2745240149974
 10
554.4937673699313
 20
579.1010900850871
  0
LWPOLYLINE
  5
BD
330
17
100
AcDbEntity
  8
POCKET-KERF-15.5
100
AcDbPolyline
 90
4
 70
1
 10
558.9490452808966
 20
114.09366269257403
 10
564.9390188382152
 20
114.44038561166606
 10
538.0838701554895
 20
578.3890363344083
 10
532.0938965981709
 20
578.0423134153164
  0
LWPOLYLINE
  5
BE
330
17
100
AcDbEntity
  8
POCKET-KERF-15.5
100
AcDbPolyline
 90
4
 70
1
 10
534.9535505907755
 20
424.8137382825677
 10
540.9399048611829
 20
425.2181669526403
 10
530.6215846646106
 20
577.9499704647436
 10
524.6352303942033
 20
577.5455417946711
  0
LWPOLYLINE
  5
BF
330
17
100
AcDbEntity
  8
POCKET-KERF-15.5
100
AcDbPolyline
 90
4
 70
1
 10
547.0070495080867
 20
113.05522032284222
 10
552.9792120703567
 20
113.63251949122952
 10
508.2649628881736
 20
576.2016337199013
 10
502.2928003259036
 20
575.624334551514
  0
LWPOLYLINE
  5
C0
330
17
100
AcDbEntity
  8
POCKET-KERF-15.5
100
AcDbPolyline
 90
4
 70
1
 10
511.0552534018548
 20
422.61978143540074
 10
517.0215755765921
 20
423.2546040147391
 10
500.82514063924805
 20
575.4753221547448
 10
494.8588184645107
 20
574.8404995754065
  0
LWPOLYLINE
  5
C1
330
17
100
AcDbEntity
  8
POCKET-KERF-15.5
100
AcDbPolyline
 90
4
 70
1
 10
535.113942561606
 20
111.55734424230512
 10
541.0594217118805
 20
112.36436200769309
 10
478.5525008084387
 20
572.8667337251418
 10
472.60702165816423
 20
572.0597159597539
  0
LWPOLYLINE
  5
C2
330
17
100
AcDbEntity
  8
POCKET-KERF-15.5
100
AcDbPolyline
 90
4
 70
1
 10
487.2592560644527
 20
419.50649283722197
 10
493.1966824032213
 20
420.37076621509306
 10
471.1461946159731
 20
571.8542554939022
 10
465.2087682772045
 20
570.9899821160311
  0
LWPOLYLINE
  5
C3
330
17
100
AcDbEntity
  8
POCKET-KERF-15.5
100
AcDbPolyline
 90
4
 70
1
 10
523.2873931841465
 20
109.60225973886843
 10
529.197356147125
 20
110.6377971723894
 10
448.99062560689384
 20
568.3892907737442
 10
443.08066264391545
 20
567.3537533402231
  0
LWPOLYLINE
  5
C4
330
17
100
AcDbEntity
  8
POCKET-KERF-15.5
100
AcDbPolyline
 90
4
 70
1
 10
463.60091059851896
 20
415.4784976793639
 10
469.5006202895074
 20
416.5709378663111
 10
441.62883849297475
 20
567.0921500432835
 10
435.7291288019863
 20
565.9997098563363
  0
LWPOLYLINE
  5
C5
330
17
100
AcDbEntity
  8
POCKET-KERF-15.5
100
AcDbPolyline
 90
4
 70
1
 10
511.544971238555
 20
107.19287134245754
 10
517.410638002809
 20
108.45539001983418
 10
419.6232552579388
 20
562.7759566840923
 10
413.7575884936847
 20
561.5134380067157
  0
LWPOLYLINE
  5
C6
330
17
100
AcDbEntity
  8
POCKET-KERF-15.5
100
AcDbPolyline
 90
4
 70
1
 10
440.1153645244129
 20
410.5417800676053
 10
445.96859278874945
 20
411.86076410297943
 10
412.31692410582514
 20
561.1960805240905
 10
406.4636958414886
 20
559.8770964887163
  0
LWPOLYLINE
  5
C7
330
17
100
AcDbEntity
  8
POCKET-KERF-15.5
100
AcDbPolyline
 90
4
 70
1
 10
499.90412160553973
 20
104.33275850996381
 10
505.71677796735156
 20
105.82038279703647
 10
390.4940187739545
 20
556.035070787205
 10
384.6813624121427
 20
554.5474465001324
  0
LWPOLYLINE
  5
C8
330
17
100
AcDbEntity
  8
POCKET-KERF-15.5
100
AcDbPolyline
 90
4
 70
1
 10
416.8375086467342
 20
404.70367413201114
 10
422.6355597596951
 20
406.2472424950881
 10
383.2539980799296
 20
554.1748063072511
 10
377.4559469669686
 20
552.6312379441741
  0
LWPOLYLINE
  5
C9
330
17
100
AcDbEntity
  8
POCKET-KERF-15.5
100
AcDbPolyline
 90
4
 70
1
 10
488.38213826705163
 20
101.02617030750038
 10
494.133148776486
 20
102.73669014672329
 10
361.6461913887842
 20
548.176647537586
 10
355.89518087934977
 20
546.4661276983632
  0
LWPOLYLINE
  5
CA
330
17
100
AcDbEntity
  8
POCKET-KERF-15.5
100
AcDbPolyline
 90
4
 70
1
 10
393.80192521953626
 20
397.97285313113736
 10
399.53618542916536
 20
399.7387126522386
 10
354.483237136402
 20
546.0387584002433
 10
348.74897692677285
 20
544.2728988791421
  0
LWPOLYLINE
  5
CB
330
17
100
AcDbEntity
  8
POCKET-KERF-15.5
100
AcDbPolyline
 90
4
 70
1
 10
476.9961386138463
 20
97.27801909786683
 10
482.67695940382436
 20
99.20889329163333
 10
333.1226302667976
 20
539.2123616354615
 10
327.44180947681957
 20
537.2814874416952
  0
LWPOLYLINE
  5
CC
330
17
100
AcDbEntity
  8
POCKET-KERF-15.5
100
AcDbPolyline
 90
4
 70
1
 10
371.04283656993266
 20
390.35931656678787
 10
376.7047868938795
 20
392.34484383407954
 10
326.0473839474838
 20
536.8000239504921
 10
320.385433623537
 20
534.8144966832004
  0
LWPOLYLINE
  5
CD
330
17
100
AcDbEntity
  8
POCKET-KERF-15.5
100
AcDbPolyline
 90
4
 70
1
 10
465.7630380153947
 20
93.09387324260139
 10
471.36522949470907
 20
95.24223322852039
 10
304.9657108330518
 20
529.1555306825086
 10
299.36351935373744
 20
527.0071706965895
  0
LWPOLYLINE
  5
CE
330
17
100
AcDbEntity
  8
POCKET-KERF-15.5
100
AcDbPolyline
 90
4
 70
1
 10
348.59405425642103
 20
381.87437532846644
 10
354.17528313798675
 20
384.076620585375
 10
297.98868363679685
 20
526.4723282883516
 10
292.40745475523113
 20
524.270083031443
  0
LWPOLYLINE
  5
CF
330
17
100
AcDbEntity
  8
POCKET-KERF-15.5
100
AcDbPolyline
 90
4
 70
1
 10
454.6995246899222
 20
88.47994882946247
 10
460.2147640813371
 20
90.84260294197767
 10
277.217263819137
 20
518.0210953968419
 10
271.7020244277221
 20
515.6584412843267
  0
LWPOLYLINE
  5
D0
330
17
100
AcDbEntity
  8
POCKET-KERF-15.5
100
AcDbPolyline
 90
4
 70
1
 10
326.4889288374564
 20
372.5306348895927
 10
331.98114464204525
 20
374.9463264170491
 10
270.34882101876985
 20
515.0710145363614
 10
264.85660521418106
 20
512.655323008905
  0
LWPOLYLINE
  5
D1
330
17
100
AcDbEntity
  8
POCKET-KERF-15.5
100
AcDbPolyline
 90
4
 70
1
 10
443.8220349119101
 20
83.44310043762944
 10
449.2421286167196
 20
86.01653864964949
 10
249.91851311823615
 20
505.8255974166528
 10
244.4984194134267
 20
503.2521592046326
  0
LWPOLYLINE
  5
D2
330
17
100
AcDbEntity
  8
POCKET-KERF-15.5
100
AcDbPolyline
 90
4
 70
1
 10
304.7603003248999
 20
362.34197658044735
 10
310.1553436583103
 20
364.967525557447
 10
243.16885867047512
 20
502.6130208150588
 10
237.77381533706472
 20
499.98747183805915
  0
LWPOLYLINE
  5
D3
330
17
100
AcDbEntity
  8
POCKET-KERF-15.5
100
AcDbPolyline
 90
4
 70
1
 10
433.14672859389265
 20
77.9908109543419
 10
438.46362436456667
 20
80.77121009183793
 10
223.11001454171924
 20
492.58715472547306
 10
217.79311877104521
 20
489.806755587977
  0
LWPOLYLINE
  5
D4
330
17
100
AcDbEntity
  8
POCKET-KERF-15.5
100
AcDbPolyline
 90
4
 70
1
 10
283.4404493959497
 20
351.32353696566787
 10
288.73030522620604
 20
354.1550428009263
 10
216.48917592788055
 20
489.11685507921976
 10
211.19932009762422
 20
486.2853492439613
  0
LWPOLYLINE
  5
D5
330
17
100
AcDbEntity
  8
POCKET-KERF-15.5
100
AcDbPolyline
 90
4
 70
1
 10
422.68946527882485
 20
72.13118045810714
 10
427.8952641816608
 20
75.11440987993038
 10
196.83159556826186
 20
478.32543473557814
 10
191.62579666542595
 20
475.3422053137548
  0
LWPOLYLINE
  5
D6
330
17
100
AcDbEntity
  8
POCKET-KERF-15.5
100
AcDbPolyline
 90
4
 70
1
 10
262.5610494360363
 20
339.491685356931
 10
267.73785900075126
 20
342.5249414837154
 10
190.3494088971429
 20
474.6025676219075
 10
185.17259933242792
 20
471.5693114951231
  0
LWPOLYLINE
  5
D7
330
17
100
AcDbEntity
  8
POCKET-KERF-15.5
100
AcDbPolyline
 90
4
 70
1
 10
412.4657805786877
 20
65.87291418498907
 10
417.55274872869404
 20
69.05454191947055
 10
171.12229617499253
 20
463.0616250695102
 10
166.0353280249862
 20
459.87999733502875
  0
LWPOLYLINE
  5
D8
330
17
100
AcDbEntity
  8
POCKET-KERF-15.5
100
AcDbPolyline
 90
4
 70
1
 10
242.15311948392736
 20
326.8639994942317
 10
247.20919196550614
 20
330.0944996197575
 10
164.78839157006567
 20
459.0917212871781
 10
159.7323190884869
 20
455.8612211616522
  0
LWPOLYLINE
  5
D9
330
17
100
AcDbEntity
  8
POCKET-KERF-15.5
100
AcDbPolyline
 90
4
 70
1
 10
402.49086309433505
 20
59.22530959585903
 10
407.4514431449137
 20
62.600608925074326
 10
146.02031083857642
 20
446.81840208313565
 10
141.05973078799778
 20
443.44310275392036
  0
LWPOLYLINE
  5
DA
330
17
100
AcDbEntity
  8
POCKET-KERF-15.5
100
AcDbPolyline
 90
4
 70
1
 10
222.2469781489492
 20
313.45923943188535
 10
227.17480210028987
 20
316.88218423199436
 10
139.84409813120058
 20
442.6073594356981
 10
134.91627417985993
 20
439.18441463558906
  0
LWPOLYLINE
  5
DB
330
17
100
AcDbEntity
  8
POCKET-KERF-15.5
100
AcDbPolyline
 90
4
 70
1
 10
392.7795318508704
 20
52.19824256381947
 10
397.606354221229
 20
55.762199045737425
 10
121.56293179240132
 20
429.61989717699726
 10
116.73610942204269
 20
426.05594069507924
  0
LWPOLYLINE
  5
DC
330
17
100
AcDbEntity
  8
POCKET-KERF-15.5
100
AcDbPolyline
 90
4
 70
1
 10
202.87219856878642
 20
299.2973196680502
 10
207.6644530725024
 20
302.9076239172255
 10
115.55358654230432
 20
425.17397171086316
 10
110.76133203858834
 20
421.5636674616877
  0
LWPOLYLINE
  5
DD
330
17
100
AcDbEntity
  8
POCKET-KERF-15.5
100
AcDbPolyline
 90
4
 70
1
 10
383.3462142820756
 20
44.80215270232254
 10
388.03210810568953
 20
48.54947162040475
 10
97.78649362415909
 20
411.49166094600974
 10
93.10059980054517
 20
407.7443420279274
  0
LWPOLYLINE
  5
DE
330
17
100
AcDbEntity
  8
POCKET-KERF-15.5
100
AcDbPolyline
 90
4
 70
1
 10
184.0575644747754
 20
284.39927955917415
 10
188.70713001936156
 20
288.1915796852977
 10
91.95294348796114
 20
406.81745765627704
 10
87.30337794337498
 20
403.0251575301535
  0
LWPOLYLINE
  5
DF
330
17
100
AcDbEntity
  8
POCKET-KERF-15.5
100
AcDbPolyline
 90
4
 70
1
 10
374.20492479659936
 20
37.048027855778656
 10
378.7429285744573
 20
40.97314208496326
 10
74.72631929613374
 20
392.460625220758
 10
70.18831551827577
 20
388.5355109915734
  0
LWPOLYLINE
  5
E0
330
17
100
AcDbEntity
  8
POCKET-KERF-15.5
100
AcDbPolyline
 90
4
 70
1
 10
165.83102742996294
 20
268.7872520633208
 10
170.3309964867472
 20
272.75591411595065
 10
69.07723076416362
 20
387.5650882386438
 10
64.57726170737935
 20
383.59642618601384
  0
LWPOLYLINE
  5
E1
330
17
100
AcDbEntity
  8
POCKET-KERF-15.5
100
AcDbPolyline
 90
4
 70
1
 10
365.3692439577472
 20
28.94738777569826
 10
369.7526159005552
 20
33.04446605308125
 10
52.41666766839043
 20
372.5550630567937
 10
48.033295725582406
 20
368.45798477941076
  0
LWPOLYLINE
  5
E2
330
17
100
AcDbEntity
  8
POCKET-KERF-15.5
100
AcDbPolyline
 90
4
 70
1
 10
148.2196653034582
 20
252.48443085880746
 10
152.5633525886252
 20
256.6235588791372
 10
46.96043318949727
 20
367.44546533323137
 10
42.616745904330394
 20
363.30633731290163
  0
LWPOLYLINE
  5
E3
330
17
100
AcDbEntity
  8
POCKET-KERF-15.5
100
AcDbPolyline
 90
4
 70
1
 10
356.85229830780463
 20
20.51226700661635
 10
361.07452635178277
 20
24.77522259454417
 10
30.890682602823944
 20
351.80454673136774
 10
26.668454558845923
 20
347.54159114344
  0
LWPOLYLINE
  5
E4
330
17
100
AcDbEntity
  8
POCKET-KERF-15.5
100
AcDbPolyline
 90
4
 70
1
 10
131.24964204277006
 20
235.51503588700933
 10
135.4305944492117
 20
239.81848066707443
 10
25.63540811631535
 20
346.4884792321034
 10
21.45445570987383
 20
342.1850344520383
  0
TEXT
  5
E5
330
17
100
AcDbEntity
  8
ENGRAVE-LABEL
100
AcDbText
 10
417.10254075263174
 20
392.61881203487866
 30
0.0
 40
9.0
  1
01
 50
105.0
 72
1
 11
417.10254075263174
 21
392.61881203487866
 31
0.0
100
AcDbText
 73
2
  0
LWPOLYLINE
  5
E6
330
17
100
AcDbEntity
  8
CUT
100
AcDbPolyline
 90
2
 70
1
 10
370.1419807289759
 20
694.0709903644879
 42
1.0
 10
18.0
 20
694.0709903644879
 42
1.0
  0
LWPOLYLINE
  5
E7
330
17
100
AcDbEntity
  8
CUT
100
AcDbPolyline
 90
8
 70
1
 10
81.17000676949367
 20
687.770990364488
 42
2.414213562373095
 10
84.37000676949367
 20
684.5709903644879
 10
118.97000676949366
 20
684.5709903644879
 42
2.414213562373095
 10
122.17000676949367
 20
687.770990364488
 10
122.17000676949367
 20
700.370990364488
 42
2.414213562373095
 10
118.97000676949366
 20
703.5709903644879
 10
84.37000676949367
 20
703.5709903644879
 42
2.414213562373095
 10
81.17000676949367
 20
700.370990364488
  0
LWPOLYLINE
  5
E8
330
17
100
AcDbEntity
  8
CUT
100
AcDbPolyline
 90
8
 70
1
 10
265.9719739594822
 20
687.770990364488
 42
2.414213562373095
 10
269.1719739594822
 20
684.5709903644879
 10
303.77197395948224
 20
684.5709903644879
 42
2.414213562373095
 10
306.9719739594822
 20
687.770990364488
 10
306.9719739594822
 20
700.370990364488
 42
2.414213562373095
 10
303.77197395948224
 20
703.5709903644879
 10
269.1719739594822
 20
703.5709903644879
 42
2.414213562373095
 10
265.9719739594822
 20
700.370990364488
  0
LWPOLYLINE
  5
E9
330
17
100
AcDbEntity
  8
CUT
100
AcDbPolyline
 90
8
 70
1
 10
200.37099036448794
 20
581.1700067694936
 42
2.414213562373095
 10
203.57099036448795
 20
584.3700067694937
 10
203.57099036448795
 20
618.9700067694937
 42
2.414213562373095
 10
200.37099036448794
 20
622.1700067694936
 10
187.77099036448794
 20
622.1700067694936
 42
2.414213562373095
 10
184.57099036448795
 20
618.9700067694937
 10
184.57099036448795
 20
584.3700067694937
 42
2.414213562373095
 10
187.77099036448794
 20
581.1700067694936
  0
LWPOLYLINE
  5
EA
330
17
100
AcDbEntity
  8
CUT
100
AcDbPolyline
 90
8
 70
1
 10
200.37099036448797
 20
765.9719739594823
 42
2.414213562373095
 10
203.57099036448795
 20
769.1719739594822
 10
203.57099036448795
 20
803.7719739594822
 42
2.414213562373095
 10
200.37099036448797
 20
806.9719739594823
 10
187.77099036448797
 20
806.9719739594823
 42
2.414213562373095
 10
184.57099036448795
 20
803.7719739594822
 10
184.57099036448795
 20
769.1719739594822
 42
2.414213562373095
 10
187.77099036448797
 20
765.9719739594823
  0
TEXT
  5
EB
330
17
100
AcDbEntity
  8
ENGRAVE-LABEL
100
AcDbText
 10
194.07099036448795
 20
694.0709903644879
 30
0.0
 40
22.0
  1
02 FORMER-BASE
 50
30.0
 72
1
 11
194.07099036448795
 21
694.0709903644879
 31
0.0
100
AcDbText
 73
2
  0
LWPOLYLINE
  5
EC
330
17
100
AcDbEntity
  8
CUT
100
AcDbPolyline
 90
34
 70
1
 10
18.0
 20
892.0
 10
77.97000676949366
 20
892.0
 42
-2.414213562373095
 10
81.17000676949367
 20
888.8
 10
81.17000676949367
 20
874.0
 10
121.17000676949367
 20
874.0
 10
121.17000676949367
 20
888.8
 42
-2.414213562373095
 10
124.37000676949367
 20
892.0
 10
262.77197395948224
 20
892.0
 42
-2.414213562373095
 10
265.9719739594822
 20
888.8
 10
265.9719739594822
 20
874.0
 10
305.9719739594822
 20
874.0
 10
305.9719739594822
 20
888.8
 42
-2.414213562373095
 10
309.1719739594822
 20
892.0
 10
369.1419807289759
 20
892.0
 10
318.74198072897593
 20
1081.0
 10
281.5058771767782
 20
1081.0
 42
-2.414213562373095
 10
278.30587717677815
 20
1084.2
 10
278.30587717677815
 20
1099.0
 10
238.30587717677818
 20
1099.0
 10
238.30587717677818
 20
1084.2
 42
-2.414213562373095
 10
235.10587717677816
 20
1081.0
 10
203.07099036448795
 20
1081.0
 10
203.07099036448795
 20
989.7
 42
-2.414213562373095
 10
199.87099036448797
 20
986.5
 10
187.27099036448794
 20
986.5
 42
-2.414213562373095
 10
184.07099036448795
 20
989.7
 10
184.07099036448795
 20
1081.0
 10
152.03610355219774
 20
1081.0
 42
-2.414213562373095
 10
148.83610355219773
 20
1084.2
 10
148.83610355219773
 20
1099.0
 10
108.83610355219773
 20
1099.0
 10
108.83610355219773
 20
1084.2
 42
-2.414213562373095
 10
105.63610355219772
 20
1081.0
 10
68.39999999999998
 20
1081.0
  0
TEXT
  5
ED
330
17
100
AcDbEntity
  8
ENGRAVE-LABEL
100
AcDbText
 10
275.4258297582171
 20
965.8699185267835
 30
0.0
 40
22.0
  1
06 CORE-1A
 50
135.0
 72
1
 11
275.4258297582171
 21
965.8699185267835
 31
0.0
100
AcDbText
 73
2
  0
LWPOLYLINE
  5
EE
330
17
100
AcDbEntity
  8
CUT
100
AcDbPolyline
 90
34
 70
1
 10
661.1419807289759
 20
1177.0
 10
601.1719739594822
 20
1177.0
 42
-2.414213562373095
 10
597.9719739594823
 20
1180.2
 10
597.9719739594823
 20
1195.0
 10
557.9719739594823
 20
1195.0
 10
557.9719739594823
 20
1180.2
 42
-2.414213562373095
 10
554.7719739594822
 20
1177.0
 10
495.07099036448795
 20
1177.0
 10
495.07099036448795
 20
1085.7
 42
-2.414213562373095
 10
491.87099036448797
 20
1082.5
 10
479.27099036448794
 20
1082.5
 42
-2.414213562373095
 10
476.07099036448795
 20
1085.7
 10
476.07099036448795
 20
1177.0
 10
416.37000676949367
 20
1177.0
 42
-2.414213562373095
 10
413.1700067694937
 20
1180.2
 10
413.1700067694937
 20
1195.0
 10
373.1700067694937
 20
1195.0
 10
373.1700067694937
 20
1180.2
 42
-2.414213562373095
 10
369.9700067694937
 20
1177.0
 10
310.0
 20
1177.0
 10
360.4
 20
988.0
 10
397.6361035521977
 20
988.0
 42
-2.414213562373095
 10
400.8361035521977
 20
984.8
 10
400.8361035521977
 20
970.0
 10
440.8361035521977
 20
970.0
 10
440.8361035521977
 20
984.8
 42
-2.414213562373095
 10
444.0361035521977
 20
988.0
 10
527.1058771767782
 20
988.0
 42
-2.414213562373095
 10
530.3058771767782
 20
984.8
 10
530.3058771767782
 20
970.0
 10
570.3058771767782
 20
970.0
 10
570.3058771767782
 20
984.8
 42
-2.414213562373095
 10
573.5058771767781
 20
988.0
 10
610.7419807289759
 20
988.0
  0
TEXT
  5
EF
330
17
100
AcDbEntity
  8
ENGRAVE-LABEL
100
AcDbText
 10
403.7161509707588
 20
1103.1300814732167
 30
0.0
 40
22.0
  1
07 CORE-1B
 50
135.0
 72
1
 11
403.7161509707588
 21
1103.1300814732167
 31
0.0
100
AcDbText
 73
2
  0
LWPOLYLINE
  5
F0
330
17
100
AcDbEntity
  8
CUT
100
AcDbPolyline
 90
2
 70
1
 10
603.7419807289759
 20
814.870990364488
 42
1.0
 10
362.0
 20
814.870990364488
 42
1.0
  0
LWPOLYLINE
  5
F1
330
17
100
AcDbEntity
  8
CUT
100
AcDbPolyline
 90
8
 70
1
 10
397.6361035521977
 20
808.570990364488
 42
2.414213562373095
 10
400.83610355219776
 20
805.370990364488
 10
435.4361035521977
 20
805.370990364488
 42
2.414213562373095
 10
438.6361035521977
 20
808.570990364488
 10
438.6361035521977
 20
821.1709903644879
 42
2.414213562373095
 10
435.4361035521977
 20
824.370990364488
 10
400.83610355219776
 20
824.370990364488
 42
2.414213562373095
 10
397.6361035521977
 20
821.1709903644879
  0
LWPOLYLINE
  5
F2
330
17
100
AcDbEntity
  8
CUT
100
AcDbPolyline
 90
8
 70
1
 10
527.1058771767782
 20
808.570990364488
 42
2.414213562373095
 10
530.3058771767783
 20
805.370990364488
 10
564.9058771767782
 20
805.370990364488
 42
2.414213562373095
 10
568.1058771767782
 20
808.570990364488
 10
568.1058771767782
 20
821.1709903644879
 42
2.414213562373095
 10
564.9058771767782
 20
824.370990364488
 10
530.3058771767783
 20
824.370990364488
 42
2.414213562373095
 10
527.1058771767782
 20
821.1709903644879
  0
LWPOLYLINE
  5
F3
330
17
100
AcDbEntity
  8
CUT
100
AcDbPolyline
 90
8
 70
1
 10
489.170990364488
 20
729.6361035521977
 42
2.414213562373095
 10
492.37099036448797
 20
732.8361035521978
 10
492.37099036448797
 20
767.4361035521978
 42
2.414213562373095
 10
489.170990364488
 20
770.6361035521977
 10
476.57099036448795
 20
770.6361035521977
 42
2.414213562373095
 10
473.37099036448797
 20
767.4361035521978
 10
473.37099036448797
 20
732.8361035521978
 42
2.414213562373095
 10
476.57099036448795
 20
729.6361035521977
  0
LWPOLYLINE
  5
F4
330
17
100
AcDbEntity
  8
CUT
100
AcDbPolyline
 90
8
 70
1
 10
489.170990364488
 20
859.1058771767782
 42
2.414213562373095
 10
492.37099036448797
 20
862.3058771767783
 10
492.37099036448797
 20
896.9058771767782
 42
2.414213562373095
 10
489.170990364488
 20
900.1058771767782
 10
476.57099036448795
 20
900.1058771767782
 42
2.414213562373095
 10
473.37099036448797
 20
896.9058771767782
 10
473.37099036448797
 20
862.3058771767783
 42
2.414213562373095
 10
476.57099036448795
 20
859.1058771767782
  0
TEXT
  5
F5
330
17
100
AcDbEntity
  8
ENGRAVE-LABEL
100
AcDbText
 10
428.0887180674038
 20
760.0887180674038
 30
0.0
 40
7.0
  1
03 FORMER-JOINT-LO
 50
120.0
 72
1
 11
428.0887180674038
 21
760.0887180674038
 31
0.0
100
AcDbText
 73
2
  0
LWPOLYLINE
  5
F6
330
17
100
AcDbEntity
  8
CUT
100
AcDbPolyline
 90
2
 70
1
 10
826.1419807289759
 20
702.0709903644879
 42
1.0
 10
594.0
 20
702.0709903644879
 42
1.0
  0
LWPOLYLINE
  5
F7
330
17
100
AcDbEntity
  8
CUT
100
AcDbPolyline
 90
8
 70
1
 10
655.9589890480408
 20
639.0494436050903
 42
2.414213562373095
 10
660.4844724476347
 20
639.0494436050903
 10
684.9503670766893
 20
663.5153382341449
 42
2.414213562373095
 10
684.9503670766893
 20
668.0408216337388
 10
676.0408216337388
 20
676.9503670766893
 42
2.414213562373095
 10
671.5153382341449
 20
676.9503670766893
 10
647.0494436050903
 20
652.4844724476347
 42
2.414213562373095
 10
647.0494436050903
 20
647.9589890480408
  0
LWPOLYLINE
  5
F8
330
17
100
AcDbEntity
  8
CUT
100
AcDbPolyline
 90
8
 70
1
 10
744.1011590952371
 20
727.1916136522866
 42
2.414213562373095
 10
748.626642494831
 20
727.1916136522866
 10
773.0925371238856
 20
751.6575082813412
 42
2.414213562373095
 10
773.0925371238856
 20
756.1829916809351
 10
764.1829916809351
 20
765.0925371238856
 42
2.414213562373095
 10
759.6575082813412
 20
765.0925371238856
 10
735.1916136522866
 20
740.626642494831
 42
2.414213562373095
 10
735.1916136522866
 20
736.1011590952371
  0
LWPOLYLINE
  5
F9
330
17
100
AcDbEntity
  8
CUT
100
AcDbPolyline
 90
8
 70
1
 10
773.0925371238856
 20
647.9589890480408
 42
2.414213562373095
 10
773.0925371238856
 20
652.4844724476347
 10
748.626642494831
 20
676.9503670766893
 42
2.414213562373095
 10
744.1011590952371
 20
676.9503670766893
 10
735.1916136522866
 20
668.0408216337388
 42
2.414213562373095
 10
735.1916136522866
 20
663.5153382341449
 10
759.6575082813412
 20
639.0494436050903
 42
2.414213562373095
 10
764.1829916809351
 20
639.0494436050903
  0
LWPOLYLINE
  5
FA
330
17
100
AcDbEntity
  8
CUT
100
AcDbPolyline
 90
8
 70
1
 10
684.9503670766893
 20
736.1011590952371
 42
2.414213562373095
 10
684.9503670766893
 20
740.626642494831
 10
660.4844724476347
 20
765.0925371238856
 42
2.414213562373095
 10
655.9589890480408
 20
765.0925371238856
 10
647.0494436050903
 20
756.1829916809351
 42
2.414213562373095
 10
647.0494436050903
 20
751.6575082813412
 10
671.5153382341449
 20
727.1916136522866
 42
2.414213562373095
 10
676.0408216337388
 20
727.1916136522866
  0
TEXT
  5
FB
330
17
100
AcDbEntity
  8
ENGRAVE-LABEL
100
AcDbText
 10
784.9294783878327
 20
702.508759300297
 30
0.0
 40
7.0
  1
04 FORMER-JOINT-UP
 50
90.0
 72
1
 11
784.9294783878327
 21
702.508759300297
 31
0.0
100
AcDbText
 73
2
  0
LWPOLYLINE
  5
FC
330
17
100
AcDbEntity
  8
CUT
100
AcDbPolyline
 90
34
 70
1
 10
602.0
 20
884.0
 10
632.0450642156177
 20
884.0
 42
-2.414213562373095
 10
635.2450642156177
 20
880.8
 10
635.2450642156177
 20
866.0
 10
675.2450642156177
 20
866.0
 10
675.2450642156177
 20
880.8
 42
-2.414213562373095
 10
678.4450642156177
 20
884.0
 10
756.6969165133582
 20
884.0
 42
-2.414213562373095
 10
759.8969165133583
 20
880.8
 10
759.8969165133583
 20
866.0
 10
799.8969165133583
 20
866.0
 10
799.8969165133583
 20
880.8
 42
-2.414213562373095
 10
803.0969165133582
 20
884.0
 10
833.1419807289759
 20
884.0
 10
782.7419807289759
 20
1073.0
 10
772.0781638636857
 20
1073.0
 42
-2.414213562373095
 10
768.8781638636858
 20
1076.2
 10
768.8781638636858
 20
1091.0
 10
735.270990364488
 20
1091.0
 10
735.270990364488
 20
1076.2
 42
-2.414213562373095
 10
732.0709903644879
 20
1073.0
 10
727.0709903644879
 20
1073.0
 10
727.0709903644879
 20
981.7
 42
-2.414213562373095
 10
723.870990364488
 20
978.5
 10
711.270990364488
 20
978.5
 42
-2.414213562373095
 10
708.0709903644879
 20
981.7
 10
708.0709903644879
 20
1073.0
 10
703.0709903644879
 20
1073.0
 42
-2.414213562373095
 10
699.870990364488
 20
1076.2
 10
699.870990364488
 20
1091.0
 10
666.2638168652901
 20
1091.0
 10
666.2638168652901
 20
1076.2
 42
-2.414213562373095
 10
663.0638168652902
 20
1073.0
 10
652.4
 20
1073.0
  0
TEXT
  5
FD
330
17
100
AcDbEntity
  8
ENGRAVE-LABEL
100
AcDbText
 10
765.4243667685852
 20
938.4066305803509
 30
0.0
 40
18.0
  1
08 CORE-2A
 50
105.0
 72
1
 11
765.4243667685852
 21
938.4066305803509
 31
0.0
100
AcDbText
 73
2
  0
LWPOLYLINE
  5
FE
330
17
100
AcDbEntity
  8
CUT
100
AcDbPolyline
 90
34
 70
1
 10
1001.1419807289759
 20
1181.0
 10
971.0969165133582
 20
1181.0
 42
-2.414213562373095
 10
967.8969165133583
 20
1184.2
 10
967.8969165133583
 20
1199.0
 10
927.8969165133583
 20
1199.0
 10
927.8969165133583
 20
1184.2
 42
-2.414213562373095
 10
924.6969165133582
 20
1181.0
 10
895.0709903644879
 20
1181.0
 10
895.0709903644879
 20
1089.7
 42
-2.414213562373095
 10
891.870990364488
 20
1086.5
 10
879.270990364488
 20
1086.5
 42
-2.414213562373095
 10
876.0709903644879
 20
1089.7
 10
876.0709903644879
 20
1181.0
 10
846.4450642156177
 20
1181.0
 42
-2.414213562373095
 10
843.2450642156177
 20
1184.2
 10
843.2450642156177
 20
1199.0
 10
803.2450642156177
 20
1199.0
 10
803.2450642156177
 20
1184.2
 42
-2.414213562373095
 10
800.0450642156177
 20
1181.0
 10
770.0
 20
1181.0
 10
820.4
 20
992.0
 10
831.0638168652902
 20
992.0
 42
-2.414213562373095
 10
834.2638168652901
 20
988.8
 10
834.2638168652901
 20
974.0
 10
867.870990364488
 20
974.0
 10
867.870990364488
 20
988.8
 42
-2.414213562373095
 10
871.0709903644879
 20
992.0
 10
900.0709903644879
 20
992.0
 42
-2.414213562373095
 10
903.270990364488
 20
988.8
 10
903.270990364488
 20
974.0
 10
936.8781638636858
 20
974.0
 10
936.8781638636858
 20
988.8
 42
-2.414213562373095
 10
940.0781638636857
 20
992.0
 10
950.7419807289759
 20
992.0
  0
TEXT
  5
FF
330
17
100
AcDbEntity
  8
ENGRAVE-LABEL
100
AcDbText
 10
855.8242969241032
 20
1040.371069592447
 30
0.0
 40
14.0
  1
09 CORE-2B
 50
135.0
 72
1
 11
855.8242969241032
 21
1040.371069592447
 31
0.0
100
AcDbText
 73
2
  0
LWPOLYLINE
  5
100
330
17
100
AcDbEntity
  8
CUT
100
AcDbPolyline
 90
2
 70
1
 10
139.74198072897593
 20
78.87099036448797
 42
1.0
 10
18.0
 20
78.87099036448797
 42
1.0
  0
LWPOLYLINE
  5
101
330
17
100
AcDbEntity
  8
CUT
100
AcDbPolyline
 90
8
 70
1
 10
46.69255939057245
 20
37.78301394762195
 42
2.414213562373095
 10
51.21804279016634
 20
37.78301394762195
 10
71.16352644955461
 20
57.7284976070102
 42
2.414213562373095
 10
71.16352644955461
 20
62.25398100660411
 10
62.25398100660411
 20
71.16352644955461
 42
2.414213562373095
 10
57.7284976070102
 20
71.16352644955461
 10
37.783013947621946
 20
51.21804279016635
 42
2.414213562373095
 10
37.783013947621946
 20
46.692559390572455
  0
LWPOLYLINE
  5
102
330
17
100
AcDbEntity
  8
CUT
100
AcDbPolyline
 90
8
 70
1
 10
95.48799972237184
 20
86.57845427942135
 42
2.414213562373095
 10
100.01348312196575
 20
86.57845427942134
 10
119.95896678135401
 20
106.5239379388096
 42
2.414213562373095
 10
119.95896678135401
 20
111.04942133840349
 10
111.0494213384035
 20
119.958966781354
 42
2.414213562373095
 10
106.52393793880961
 20
119.958966781354
 10
86.57845427942135
 20
100.01348312196575
 42
2.414213562373095
 10
86.57845427942135
 20
95.48799972237184
  0
LWPOLYLINE
  5
103
330
17
100
AcDbEntity
  8
CUT
100
AcDbPolyline
 90
8
 70
1
 10
119.958966781354
 20
46.69255939057245
 42
2.414213562373095
 10
119.958966781354
 20
51.21804279016634
 10
100.01348312196575
 20
71.16352644955461
 42
2.414213562373095
 10
95.48799972237184
 20
71.16352644955461
 10
86.57845427942135
 20
62.25398100660411
 42
2.414213562373095
 10
86.57845427942134
 20
57.7284976070102
 10
106.5239379388096
 20
37.783013947621946
 42
2.414213562373095
 10
111.04942133840349
 20
37.783013947621946
  0
LWPOLYLINE
  5
104
330
17
100
AcDbEntity
  8
CUT
100
AcDbPolyline
 90
8
 70
1
 10
71.16352644955461
 20
95.48799972237184
 42
2.414213562373095
 10
71.16352644955461
 20
100.01348312196575
 10
51.21804279016635
 20
119.95896678135401
 42
2.414213562373095
 10
46.692559390572455
 20
119.95896678135401
 10
37.78301394762195
 20
111.0494213384035
 42
2.414213562373095
 10
37.78301394762195
 20
106.52393793880961
 10
57.7284976070102
 20
86.57845427942135
 42
2.414213562373095
 10
62.25398100660411
 20
86.57845427942135
  0
TEXT
  5
105
330
17
100
AcDbEntity
  8
ENGRAVE-LABEL
100
AcDbText
 10
37.373128790218054
 20
79.29427471367588
 30
0.0
 40
18.0
  1
05
 72
1
 11
37.373128790218054
 21
79.29427471367588
 31
0.0
100
AcDbText
 73
2
  0
ENDSEC
  0
SECTION
  2
OBJECTS
  0
DICTIONARY
  5
A
330
0
100
AcDbDictionary
281
1
  3
ACAD_COLOR
350
B
  3
ACAD_GROUP
350
C
  3
ACAD_LAYOUT
350
D
  3
ACAD_MATERIAL
350
E
  3
ACAD_MLEADERSTYLE
350
F
  3
ACAD_MLINESTYLE
350
10
  3
ACAD_PLOTSETTINGS
350
11
  3
ACAD_PLOTSTYLENAME
350
12
  3
ACAD_SCALELIST
350
14
  3
ACAD_TABLESTYLE
350
15
  3
ACAD_VISUALSTYLE
350
16
  3
EZDXF_META
350
2D
  0
DICTIONARY
  5
B
330
A
100
AcDbDictionary
281
1
  0
DICTIONARY
  5
C
330
A
100
AcDbDictionary
281
1
  0
DICTIONARY
  5
D
330
A
100
AcDbDictionary
281
1
  3
Model
350
1A
  3
Layout1
350
1E
  0
DICTIONARY
  5
E
330
A
100
AcDbDictionary
281
1
  3
ByBlock
350
1F
  3
ByLayer
350
20
  3
Global
350
21
  0
DICTIONARY
  5
F
330
A
100
AcDbDictionary
281
1
  3
Standard
350
2C
  0
DICTIONARY
  5
10
330
A
100
AcDbDictionary
281
1
  3
Standard
350
22
  0
DICTIONARY
  5
11
330
A
100
AcDbDictionary
281
1
  0
ACDBDICTIONARYWDFLT
  5
12
330
A
100
AcDbDictionary
281
1
  3
Normal
350
13
100
AcDbDictionaryWithDefault
340
13
  0
ACDBPLACEHOLDER
  5
13
330
12
  0
DICTIONARY
  5
14
330
A
100
AcDbDictionary
281
1
  0
DICTIONARY
  5
15
330
A
100
AcDbDictionary
281
1
  0
DICTIONARY
  5
16
330
A
100
AcDbDictionary
281
1
  3
2dWireframe
350
5A
  3
Basic
350
5B
  3
Brighten
350
5C
  3
ColorChange
350
5D
  3
Conceptual
350
5E
  3
Dim
350
5F
  3
EdgeColorOff
350
60
  3
Facepattern
350
61
  3
Flat
350
62
  3
FlatWithEdges
350
63
  3
Gouraud
350
64
  3
GouraudWithEdges
350
65
  3
Hidden
350
66
  3
JitterOff
350
67
  3
Linepattern
350
68
  3
Modeling
350
69
  3
OverhangOff
350
6A
  3
Realistic
350
6B
  3
Shaded
350
6C
  3
Shaded with edges
350
6D
  3
Shades of Gray
350
6E
  3
Sketchy
350
6F
  3
Thicken
350
70
  3
Wireframe
350
71
  3
X-Ray
350
72
  0
LAYOUT
  5
1A
330
D
100
AcDbPlotSettings
  1

  4
A3
  6

 40
7.5
 41
20.0
 42
7.5
 43
20.0
 44
420.0
 45
297.0
 46
0.0
 47
0.0
 48
0.0
 49
0.0
140
0.0
141
0.0
142
1.0
143
1.0
 70
1024
 72
1
 73
0
 74
5
  7

 75
16
 76
0
 77
2
 78
300
147
1.0
148
0.0
149
0.0
100
AcDbLayout
  1
Model
 70
1
 71
0
 10
0.0
 20
0.0
 11
420.0
 21
297.0
 12
0.0
 22
0.0
 32
0.0
 14
1e+20
 24
1e+20
 34
1e+20
 15
-1e+20
 25
-1e+20
 35
-1e+20
146
0.0
 13
0.0
 23
0.0
 33
0.0
 16
1.0
 26
0.0
 36
0.0
 17
0.0
 27
1.0
 37
0.0
 76
1
330
17
  0
LAYOUT
  5
1E
330
D
100
AcDbPlotSettings
  1

  4
A3
  6

 40
7.5
 41
20.0
 42
7.5
 43
20.0
 44
420.0
 45
297.0
 46
0.0
 47
0.0
 48
0.0
 49
0.0
140
0.0
141
0.0
142
1.0
143
1.0
 70
0
 72
1
 73
0
 74
5
  7

 75
16
 76
0
 77
2
 78
300
147
1.0
148
0.0
149
0.0
100
AcDbLayout
  1
Layout1
 70
1
 71
1
 10
0.0
 20
0.0
 11
420.0
 21
297.0
 12
0.0
 22
0.0
 32
0.0
 14
1e+20
 24
1e+20
 34
1e+20
 15
-1e+20
 25
-1e+20
 35
-1e+20
146
0.0
 13
0.0
 23
0.0
 33
0.0
 16
1.0
 26
0.0
 36
0.0
 17
0.0
 27
1.0
 37
0.0
 76
1
330
1B
  0
MATERIAL
  5
1F
102
{ACAD_REACTORS
330
E
102
}
330
E
100
AcDbMaterial
  1
ByBlock
  2

 70
0
 40
1.0
 71
1
 41
1.0
 91
-1023410177
 42
1.0
 72
1
  3

 73
1
 74
1
 75
1
 44
0.5
 73
0
 45
1.0
 46
1.0
 77
1
  4

 78
1
 79
1
170
1
 48
1.0
171
1
  6

172
1
173
1
174
1
140
1.0
141
1.0
175
1
  7

176
1
177
1
178
1
143
1.0
179
1
  8

270
1
271
1
272
1
145
1.0
146
1.0
273
1
  9

274
1
275
1
276
1
 42
1.0
 72
1
  3

 73
1
 74
1
 75
1
 94
63
  0
MATERIAL
  5
20
102
{ACAD_REACTORS
330
E
102
}
330
E
100
AcDbMaterial
  1
ByLayer
  2

 70
0
 40
1.0
 71
1
 41
1.0
 91
-1023410177
 42
1.0
 72
1
  3

 73
1
 74
1
 75
1
 44
0.5
 73
0
 45
1.0
 46
1.0
 77
1
  4

 78
1
 79
1
170
1
 48
1.0
171
1
  6

172
1
173
1
174
1
140
1.0
141
1.0
175
1
  7

176
1
177
1
178
1
143
1.0
179
1
  8

270
1
271
1
272
1
145
1.0
146
1.0
273
1
  9

274
1
275
1
276
1
 42
1.0
 72
1
  3

 73
1
 74
1
 75
1
 94
63
  0
MATERIAL
  5
21
102
{ACAD_REACTORS
330
E
102
}
330
E
100
AcDbMaterial
  1
Global
  2

 70
0
 40
1.0
 71
1
 41
1.0
 91
-1023410177
 42
1.0
 72
1
  3

 73
1
 74
1
 75
1
 44
0.5
 73
0
 45
1.0
 46
1.0
 77
1
  4

 78
1
 79
1
170
1
 48
1.0
171
1
  6

172
1
173
1
174
1
140
1.0
141
1.0
175
1
  7

176
1
177
1
178
1
143
1.0
179
1
  8

270
1
271
1
272
1
145
1.0
146
1.0
273
1
  9

274
1
275
1
276
1
 42
1.0
 72
1
  3

 73
1
 74
1
 75
1
 94
63
  0
MLINESTYLE
  5
22
102
{ACAD_REACTORS
330
10
102
}
330
10
100
AcDbMlineStyle
  2
Standard
 70
0
  3

 62
256
 51
90.0
 52
90.0
 71
2
 49
0.5
 62
256
  6
BYLAYER
 49
-0.5
 62
256
  6
BYLAYER
  0
MLEADERSTYLE
  5
2C
102
{ACAD_REACTORS
330
F
102
}
330
F
100
AcDbMLeaderStyle
179
2
170
2
171
1
172
0
 90
2
 40
0.0
 41
0.0
173
1
 91
-1056964608
 92
-2
290
1
 42
2.0
291
1
 43
8.0
  3
Standard
 44
4.0
300

342
29
174
1
175
1
176
0
178
1
 93
-1056964608
 45
4.0
292
0
297
0
 46
4.0
 94
-1056964608
 47
1.0
 49
1.0
140
1.0
294
1
141
0.0
177
0
142
1.0
295
0
296
0
143
3.75
271
0
272
9
273
9
  0
DICTIONARY
  5
2D
330
A
100
AcDbDictionary
280
1
281
1
  3
CREATED_BY_EZDXF
350
2E
  3
WRITTEN_BY_EZDXF
350
108
  0
DICTIONARYVAR
  5
2E
330
2D
100
DictionaryVariables
280
0
  1
1.4.4 @ 2026-09-27T14:12:29.401713+00:00
  0
VISUALSTYLE
  5
5A
102
{ACAD_REACTORS
330
16
102
}
330
16
100
AcDbVisualStyle
  2
2dWireframe
 70
4
 90
0
 40
0.6
 62
7
290
0
291
0
  0
VISUALSTYLE
  5
5B
102
{ACAD_REACTORS
330
16
102
}
330
16
100
AcDbVisualStyle
  2
Basic
 70
7
 90
1
 40
0.6
 62
7
290
0
291
1
  0
VISUALSTYLE
  5
5C
102
{ACAD_REACTORS
330
16
102
}
330
16
100
AcDbVisualStyle
  2
Brighten
 70
12
 90
2
 40
0.6
 62
7
290
0
291
1
  0
VISUALSTYLE
  5
5D
102
{ACAD_REACTORS
330
16
102
}
330
16
100
AcDbVisualStyle
  2
ColorChange
 70
16
 90
2
 40
0.6
 62
8
290
0
291
1
  0
VISUALSTYLE
  5
5E
102
{ACAD_REACTORS
330
16
102
}
330
16
100
AcDbVisualStyle
  2
Conceptual
 70
9
 90
3
 40
0.6
 62
7
290
0
291
0
  0
VISUALSTYLE
  5
5F
102
{ACAD_REACTORS
330
16
102
}
330
16
100
AcDbVisualStyle
  2
Dim
 70
11
 90
2
 40
0.6
 62
7
290
0
291
1
  0
VISUALSTYLE
  5
60
102
{ACAD_REACTORS
330
16
102
}
330
16
100
AcDbVisualStyle
  2
EdgeColorOff
 70
22
 90
2
 40
0.6
 62
7
290
0
291
1
  0
VISUALSTYLE
  5
61
102
{ACAD_REACTORS
330
16
102
}
330
16
100
AcDbVisualStyle
  2
Facepattern
 70
15
 90
2
 40
0.6
 62
7
290
0
291
1
  0
VISUALSTYLE
  5
62
102
{ACAD_REACTORS
330
16
102
}
330
16
100
AcDbVisualStyle
  2
Flat
 70
0
 90
2
 40
0.6
 62
7
290
0
291
1
  0
VISUALSTYLE
  5
63
102
{ACAD_REACTORS
330
16
102
}
330
16
100
AcDbVisualStyle
  2
FlatWithEdges
 70
1
 90
2
 40
0.6
 62
7
290
0
291
1
  0
VISUALSTYLE
  5
64
102
{ACAD_REACTORS
330
16
102
}
330
16
100
AcDbVisualStyle
  2
Gouraud
 70
2
 90
2
 40
0.6
 62
7
290
0
291
1
  0
VISUALSTYLE
  5
65
102
{ACAD_REACTORS
330
16
102
}
330
16
100
AcDbVisualStyle
  2
GouraudWithEdges
 70
3
 90
2
 40
0.6
 62
7
290
0
291
1
  0
VISUALSTYLE
  5
66
102
{ACAD_REACTORS
330
16
102
}
330
16
100
AcDbVisualStyle
  2
Hidden
 70
6
 90
1
 40
0.6
 62
7
290
0
291
0
  0
VISUALSTYLE
  5
67
102
{ACAD_REACTORS
330
16
102
}
330
16
100
AcDbVisualStyle
  2
JitterOff
 70
20
 90
2
 40
0.6
 62
7
290
0
291
1
  0
VISUALSTYLE
  5
68
102
{ACAD_REACTORS
330
16
102
}
330
16
100
AcDbVisualStyle
  2
Linepattern
 70
14
 90
2
 40
0.6
 62
7
290
0
291
1
  0
VISUALSTYLE
  5
69
102
{ACAD_REACTORS
330
16
102
}
330
16
100
AcDbVisualStyle
  2
Modeling
 70
10
 90
2
 40
0.6
 62
7
290
0
291
0
  0
VISUALSTYLE
  5
6A
102
{ACAD_REACTORS
330
16
102
}
330
16
100
AcDbVisualStyle
  2
OverhangOff
 70
21
 90
2
 40
0.6
 62
7
290
0
291
1
  0
VISUALSTYLE
  5
6B
102
{ACAD_REACTORS
330
16
102
}
330
16
100
AcDbVisualStyle
  2
Realistic
 70
8
 90
2
 40
0.6
 62
7
290
0
291
0
  0
VISUALSTYLE
  5
6C
102
{ACAD_REACTORS
330
16
102
}
330
16
100
AcDbVisualStyle
  2
Shaded
 70
27
 90
2
 40
0.6
 62
7
290
0
291
0
  0
VISUALSTYLE
  5
6D
102
{ACAD_REACTORS
330
16
102
}
330
16
100
AcDbVisualStyle
  2
Shaded with edges
 70
26
 90
2
 40
0.6
 62
7
290
0
291
0
  0
VISUALSTYLE
  5
6E
102
{ACAD_REACTORS
330
16
102
}
330
16
100
AcDbVisualStyle
  2
Shades of Gray
 70
23
 90
2
 40
0.6
 62
7
290
0
291
0
  0
VISUALSTYLE
  5
6F
102
{ACAD_REACTORS
330
16
102
}
330
16
100
AcDbVisualStyle
  2
Sketchy
 70
24
 90
1
 40
0.6
 62
7
290
0
291
0
  0
VISUALSTYLE
  5
70
102
{ACAD_REACTORS
330
16
102
}
330
16
100
AcDbVisualStyle
  2
Thicken
 70
13
 90
2
 40
0.6
 62
7
290
0
291
1
  0
VISUALSTYLE
  5
71
102
{ACAD_REACTORS
330
16
102
}
330
16
100
AcDbVisualStyle
  2
Wireframe
 70
5
 90
0
 40
0.6
 62
7
290
0
291
0
  0
VISUALSTYLE
  5
72
102
{ACAD_REACTORS
330
16
102
}
330
16
100
AcDbVisualStyle
  2
X-Ray
 70
25
 90
2
 40
0.5
 62
7
290
0
291
0
  0
DICTIONARYVAR
  5
108
330
2D
100
DictionaryVariables
280
0
  1
1.4.4 @ 2026-09-27T14:12:30.254162+00:00
  0
ENDSEC
  0
EOF
