  0
SECTION
  2
HEADER
  9
$ACADVER
  1
AC1024
  9
$ACADMAINTVER
 70
6
  9
$DWGCODEPAGE
  3
ANSI_1252
  9
$LASTSAVEDBY
  1
ezdxf
  9
$INSBASE
 10
0.0
 20
0.0
 30
0.0
  9
$EXTMIN
 10
1e+20
 20
1e+20
 30
1e+20
  9
$EXTMAX
 10
-1e+20
 20
-1e+20
 30
-1e+20
  9
$LIMMIN
 10
0.0
 20
0.0
  9
$LIMMAX
 10
420.0
 20
297.0
  9
$ORTHOMODE
 70
0
  9
$REGENMODE
 70
1
  9
$FILLMODE
 70
1
  9
$QTEXTMODE
 70
0
  9
$MIRRTEXT
 70
1
  9
$LTSCALE
 40
1.0
  9
$ATTMODE
 70
1
  9
$TEXTSIZE
 40
2.5
  9
$TRACEWID
 40
1.0
  9
$TEXTSTYLE
  7
OpenSans
  9
$CLAYER
  8
0
  9
$CELTYPE
  6
ByLayer
  9
$CECOLOR
 62
256
  9
$CELTSCALE
 40
1.0
  9
$DISPSILH
 70
0
  9
$DIMSCALE
 40
1.0
  9
$DIMASZ
 40
0.175
  9
$DIMEXO
 40
0.125
  9
$DIMDLI
 40
3.75
  9
$DIMRND
 40
0.0
  9
$DIMDLE
 40
0.0
  9
$DIMEXE
 40
0.375
  9
$DIMTP
 40
0.0
  9
$DIMTM
 40
0.0
  9
$DIMTXT
 40
0.25
  9
$DIMCEN
 40
2.5
  9
$DIMTSZ
 40
0.0
  9
$DIMTOL
 70
0
  9
$DIMLIM
 70
0
  9
$DIMTIH
 70
0
  9
$DIMTOH
 70
0
  9
$DIMSE1
 70
0
  9
$DIMSE2
 70
0
  9
$DIMTAD
 70
1
  9
$DIMZIN
 70
12
  9
$DIMBLK
  1
ARCHTICK
  9
$DIMASO
 70
1
  9
$DIMSHO
 70
1
  9
$DIMPOST
  1

  9
$DIMAPOST
  1

  9
$DIMALT
 70
0
  9
$DIMALTD
 70
3
  9
$DIMALTF
 40
0.03937007874
  9
$DIMLFAC
 40
100.0
  9
$DIMTOFL
 70
1
  9
$DIMTVP
 40
0.0
  9
$DIMTIX
 70
0
  9
$DIMSOXD
 70
0
  9
$DIMSAH
 70
0
  9
$DIMBLK1
  1

  9
$DIMBLK2
  1

  9
$DIMSTYLE
  2
EZDXF
  9
$DIMCLRD
 70
0
  9
$DIMCLRE
 70
0
  9
$DIMCLRT
 70
0
  9
$DIMTFAC
 40
0.5
  9
$DIMGAP
 40
0.1
  9
$DIMJUST
 70
0
  9
$DIMSD1
 70
0
  9
$DIMSD2
 70
0
  9
$DIMTOLJ
 70
0
  9
$DIMTZIN
 70
8
  9
$DIMALTZ
 70
0
  9
$DIMALTTZ
 70
0
  9
$DIMUPT
 70
1
  9
$DIMDEC
 70
2
  9
$DIMTDEC
 70
2
  9
$DIMALTU
 70
2
  9
$DIMALTTD
 70
3
  9
$DIMTXSTY
  7
OpenSansCondensed-Light
  9
$DIMAUNIT
 70
0
  9
$DIMADEC
 70
2
  9
$DIMALTRND
 40
0.0
  9
$DIMAZIN
 70
3
  9
$DIMDSEP
 70
46
  9
$DIMATFIT
 70
3
  9
$DIMFRAC
 70
0
  9
$DIMLDRBLK
  1

  9
$DIMLUNIT
 70
2
  9
$DIMLWD
 70
-2
  9
$DIMLWE
 70
-2
  9
$DIMTMOVE
 70
2
  9
$DIMFXL
 40
1.0
  9
$DIMFXLON
 70
0
  9
$DIMJOGANG
 40
0.785398163397
  9
$DIMTFILL
 70
0
  9
$DIMTFILLCLR
 70
0
  9
$DIMARCSYM
 70
0
  9
$DIMLTYPE
  6

  9
$DIMLTEX1
  6

  9
$DIMLTEX2
  6

  9
$DIMTXTDIRECTION
 70
0
  9
$LUNITS
 70
2
  9
$LUPREC
 70
4
  9
$SKETCHINC
 40
1.0
  9
$FILLETRAD
 40
10.0
  9
$AUNITS
 70
0
  9
$AUPREC
 70
2
  9
$MENU
  1
.
  9
$ELEVATION
 40
0.0
  9
$PELEVATION
 40
0.0
  9
$THICKNESS
 40
0.0
  9
$LIMCHECK
 70
0
  9
$CHAMFERA
 40
0.0
  9
$CHAMFERB
 40
0.0
  9
$CHAMFERC
 40
0.0
  9
$CHAMFERD
 40
0.0
  9
$SKPOLY
 70
0
  9
$TDCREATE
 40
2461311.543425926
  9
$TDUCREATE
 40
2458532.153996898
  9
$TDUPDATE
 40
2461311.543460648
  9
$TDUUPDATE
 40
2458532.1544311
  9
$TDINDWG
 40
0.0
  9
$TDUSRTIMER
 40
0.0
  9
$USRTIMER
 70
1
  9
$ANGBASE
 50
0.0
  9
$ANGDIR
 70
0
  9
$PDMODE
 70
0
  9
$PDSIZE
 40
0.0
  9
$PLINEWID
 40
0.0
  9
$SPLFRAME
 70
0
  9
$SPLINETYPE
 70
6
  9
$SPLINESEGS
 70
8
  9
$HANDSEED
  5
167
  9
$SURFTAB1
 70
6
  9
$SURFTAB2
 70
6
  9
$SURFTYPE
 70
6
  9
$SURFU
 70
6
  9
$SURFV
 70
6
  9
$UCSBASE
  2

  9
$UCSNAME
  2

  9
$UCSORG
 10
0.0
 20
0.0
 30
0.0
  9
$UCSXDIR
 10
1.0
 20
0.0
 30
0.0
  9
$UCSYDIR
 10
0.0
 20
1.0
 30
0.0
  9
$UCSORTHOREF
  2

  9
$UCSORTHOVIEW
 70
0
  9
$UCSORGTOP
 10
0.0
 20
0.0
 30
0.0
  9
$UCSORGBOTTOM
 10
0.0
 20
0.0
 30
0.0
  9
$UCSORGLEFT
 10
0.0
 20
0.0
 30
0.0
  9
$UCSORGRIGHT
 10
0.0
 20
0.0
 30
0.0
  9
$UCSORGFRONT
 10
0.0
 20
0.0
 30
0.0
  9
$UCSORGBACK
 10
0.0
 20
0.0
 30
0.0
  9
$PUCSBASE
  2

  9
$PUCSNAME
  2

  9
$PUCSORG
 10
0.0
 20
0.0
 30
0.0
  9
$PUCSXDIR
 10
1.0
 20
0.0
 30
0.0
  9
$PUCSYDIR
 10
0.0
 20
1.0
 30
0.0
  9
$PUCSORTHOREF
  2

  9
$PUCSORTHOVIEW
 70
0
  9
$PUCSORGTOP
 10
0.0
 20
0.0
 30
0.0
  9
$PUCSORGBOTTOM
 10
0.0
 20
0.0
 30
0.0
  9
$PUCSORGLEFT
 10
0.0
 20
0.0
 30
0.0
  9
$PUCSORGRIGHT
 10
0.0
 20
0.0
 30
0.0
  9
$PUCSORGFRONT
 10
0.0
 20
0.0
 30
0.0
  9
$PUCSORGBACK
 10
0.0
 20
0.0
 30
0.0
  9
$USERI1
 70
0
  9
$USERI2
 70
0
  9
$USERI3
 70
0
  9
$USERI4
 70
0
  9
$USERI5
 70
0
  9
$USERR1
 40
0.0
  9
$USERR2
 40
0.0
  9
$USERR3
 40
0.0
  9
$USERR4
 40
0.0
  9
$USERR5
 40
0.0
  9
$WORLDVIEW
 70
1
  9
$SHADEDGE
 70
3
  9
$SHADEDIF
 70
70
  9
$TILEMODE
 70
1
  9
$MAXACTVP
 70
64
  9
$PINSBASE
 10
0.0
 20
0.0
 30
0.0
  9
$PLIMCHECK
 70
0
  9
$PEXTMIN
 10
1e+20
 20
1e+20
 30
1e+20
  9
$PEXTMAX
 10
-1e+20
 20
-1e+20
 30
-1e+20
  9
$PLIMMIN
 10
0.0
 20
0.0
  9
$PLIMMAX
 10
420.0
 20
297.0
  9
$UNITMODE
 70
0
  9
$VISRETAIN
 70
1
  9
$PLINEGEN
 70
0
  9
$PSLTSCALE
 70
1
  9
$TREEDEPTH
 70
3020
  9
$CMLSTYLE
  2
Standard
  9
$CMLJUST
 70
0
  9
$CMLSCALE
 40
20.0
  9
$PROXYGRAPHICS
 70
1
  9
$MEASUREMENT
 70
1
  9
$CELWEIGHT
370
-1
  9
$ENDCAPS
280
0
  9
$JOINSTYLE
280
0
  9
$LWDISPLAY
290
0
  9
$INSUNITS
 70
4
  9
$HYPERLINKBASE
  1

  9
$STYLESHEET
  1

  9
$XEDIT
290
1
  9
$CEPSNTYPE
380
0
  9
$PSTYLEMODE
290
1
  9
$FINGERPRINTGUID
  2
{65C8D5C4-F3AA-4FB0-89F5-DA5137874187}
  9
$VERSIONGUID
  2
{ED0A643E-1AA1-4D80-910B-39E3D0E2E912}
  9
$EXTNAMES
290
1
  9
$PSVPSCALE
 40
0.0
  9
$OLESTARTUP
290
0
  9
$SORTENTS
280
127
  9
$INDEXCTL
280
0
  9
$HIDETEXT
280
1
  9
$XCLIPFRAME
280
1
  9
$HALOGAP
280
0
  9
$OBSCOLOR
 70
257
  9
$OBSLTYPE
280
0
  9
$INTERSECTIONDISPLAY
280
0
  9
$INTERSECTIONCOLOR
 70
257
  9
$DIMASSOC
280
2
  9
$PROJECTNAME
  1

  9
$CAMERADISPLAY
290
0
  9
$LENSLENGTH
 40
50.0
  9
$CAMERAHEIGHT
 40
0.0
  9
$STEPSPERSEC
 40
24.0
  9
$STEPSIZE
 40
100.0
  9
$3DDWFPREC
 40
2.0
  9
$PSOLWIDTH
 40
0.005
  9
$PSOLHEIGHT
 40
0.08
  9
$LOFTANG1
 40
1.570796326795
  9
$LOFTANG2
 40
1.570796326795
  9
$LOFTMAG1
 40
0.0
  9
$LOFTMAG2
 40
0.0
  9
$LOFTPARAM
 70
7
  9
$LOFTNORMALS
280
1
  9
$LATITUDE
 40
37.795
  9
$LONGITUDE
 40
-122.394
  9
$NORTHDIRECTION
 40
0.0
  9
$TIMEZONE
 70
-8000
  9
$LIGHTGLYPHDISPLAY
280
1
  9
$TILEMODELIGHTSYNCH
280
1
  9
$CMATERIAL
347
20
  9
$SOLIDHIST
280
0
  9
$SHOWHIST
280
1
  9
$DWFFRAME
280
2
  9
$DGNFRAME
280
2
  9
$REALWORLDSCALE
290
1
  9
$INTERFERECOLOR
 62
256
  9
$CSHADOW
280
0
  9
$SHADOWPLANELOCATION
 40
0.0
  0
ENDSEC
  0
SECTION
  2
CLASSES
  0
CLASS
  1
ACDBDICTIONARYWDFLT
  2
AcDbDictionaryWithDefault
  3
ObjectDBX Classes
 90
0
 91
0
280
0
281
0
  0
CLASS
  1
SUN
  2
AcDbSun
  3
SCENEOE
 90
1153
 91
0
280
0
281
0
  0
CLASS
  1
VISUALSTYLE
  2
AcDbVisualStyle
  3
ObjectDBX Classes
 90
4095
 91
0
280
0
281
0
  0
CLASS
  1
MATERIAL
  2
AcDbMaterial
  3
ObjectDBX Classes
 90
1153
 91
0
280
0
281
0
  0
CLASS
  1
SCALE
  2
AcDbScale
  3
ObjectDBX Classes
 90
1153
 91
0
280
0
281
0
  0
CLASS
  1
TABLESTYLE
  2
AcDbTableStyle
  3
ObjectDBX Classes
 90
4095
 91
0
280
0
281
0
  0
CLASS
  1
MLEADERSTYLE
  2
AcDbMLeaderStyle
  3
ACDB_MLEADERSTYLE_CLASS
 90
4095
 91
0
280
0
281
0
  0
CLASS
  1
DICTIONARYVAR
  2
AcDbDictionaryVar
  3
ObjectDBX Classes
 90
0
 91
0
280
0
281
0
  0
CLASS
  1
CELLSTYLEMAP
  2
AcDbCellStyleMap
  3
ObjectDBX Classes
 90
1152
 91
0
280
0
281
0
  0
CLASS
  1
MENTALRAYRENDERSETTINGS
  2
AcDbMentalRayRenderSettings
  3
SCENEOE
 90
1024
 91
0
280
0
281
0
  0
CLASS
  1
ACDBDETAILVIEWSTYLE
  2
AcDbDetailViewStyle
  3
ObjectDBX Classes
 90
1025
 91
0
280
0
281
0
  0
CLASS
  1
ACDBSECTIONVIEWSTYLE
  2
AcDbSectionViewStyle
  3
ObjectDBX Classes
 90
1025
 91
0
280
0
281
0
  0
CLASS
  1
RASTERVARIABLES
  2
AcDbRasterVariables
  3
ISM
 90
0
 91
0
280
0
281
0
  0
CLASS
  1
ACDBPLACEHOLDER
  2
AcDbPlaceHolder
  3
ObjectDBX Classes
 90
0
 91
0
280
0
281
0
  0
CLASS
  1
LAYOUT
  2
AcDbLayout
  3
ObjectDBX Classes
 90
0
 91
0
280
0
281
0
  0
ENDSEC
  0
SECTION
  2
TABLES
  0
TABLE
  2
VPORT
  5
8
330
0
100
AcDbSymbolTable
 70
1
  0
VPORT
  5
23
330
8
100
AcDbSymbolTableRecord
100
AcDbViewportTableRecord
  2
*Active
 70
0
 10
0.0
 20
0.0
 11
1.0
 21
1.0
 12
0.0
 22
0.0
 13
0.0
 23
0.0
 14
0.5
 24
0.5
 15
0.5
 25
0.5
 16
0.0
 26
0.0
 36
1.0
 17
0.0
 27
0.0
 37
0.0
 40
1000.0
 41
1.34
 42
50.0
 43
0.0
 44
0.0
 50
0.0
 51
0.0
 71
0
 72
1000
 73
1
 74
3
 75
0
 76
0
 77
0
 78
0
281
0
 65
0
146
0.0
  0
ENDTAB
  0
TABLE
  2
LTYPE
  5
2
330
0
100
AcDbSymbolTable
 70
21
  0
LTYPE
  5
24
330
2
100
AcDbSymbolTableRecord
100
AcDbLinetypeTableRecord
  2
ByBlock
 70
0
  3

 72
65
 73
0
 40
0.0
  0
LTYPE
  5
25
330
2
100
AcDbSymbolTableRecord
100
AcDbLinetypeTableRecord
  2
ByLayer
 70
0
  3

 72
65
 73
0
 40
0.0
  0
LTYPE
  5
26
330
2
100
AcDbSymbolTableRecord
100
AcDbLinetypeTableRecord
  2
Continuous
 70
0
  3

 72
65
 73
0
 40
0.0
  0
LTYPE
  5
2F
330
2
100
AcDbSymbolTableRecord
100
AcDbLinetypeTableRecord
  2
CENTER
 70
0
  3
Center ____ _ ____ _ ____ _ ____ _ ____ _ ____
 72
65
 73
4
 40
5.08
 49
3.175
 74
0
 49
-0.635
 74
0
 49
0.635
 74
0
 49
-0.635
 74
0
  0
LTYPE
  5
30
330
2
100
AcDbSymbolTableRecord
100
AcDbLinetypeTableRecord
  2
CENTERX2
 70
0
  3
Center (2x) ________  __  ________  __  ________
 72
65
 73
4
 40
8.89
 49
6.35
 74
0
 49
-0.635
 74
0
 49
1.27
 74
0
 49
-0.635
 74
0
  0
LTYPE
  5
31
330
2
100
AcDbSymbolTableRecord
100
AcDbLinetypeTableRecord
  2
CENTER2
 70
0
  3
Center (.5x) ____ _ ____ _ ____ _ ____ _ ____
 72
65
 73
4
 40
2.54
 49
1.587
 74
0
 49
-0.318
 74
0
 49
0.318
 74
0
 49
-0.318
 74
0
  0
LTYPE
  5
32
330
2
100
AcDbSymbolTableRecord
100
AcDbLinetypeTableRecord
  2
DASHED
 70
0
  3
Dashed __ __ __ __ __ __ __ __ __ __ __ __ __ _
 72
65
 73
2
 40
1.524
 49
1.27
 74
0
 49
-0.254
 74
0
  0
LTYPE
  5
33
330
2
100
AcDbSymbolTableRecord
100
AcDbLinetypeTableRecord
  2
DASHEDX2
 70
0
  3
Dashed (2x) ____  ____  ____  ____  ____  ____
 72
65
 73
2
 40
3.048
 49
2.54
 74
0
 49
-0.508
 74
0
  0
LTYPE
  5
34
330
2
100
AcDbSymbolTableRecord
100
AcDbLinetypeTableRecord
  2
DASHED2
 70
0
  3
Dashed (.5x) _ _ _ _ _ _ _ _ _ _ _ _ _ _
 72
65
 73
2
 40
0.762
 49
0.635
 74
0
 49
-0.127
 74
0
  0
LTYPE
  5
35
330
2
100
AcDbSymbolTableRecord
100
AcDbLinetypeTableRecord
  2
PHANTOM
 70
0
  3
Phantom ______  __  __  ______  __  __  ______
 72
65
 73
6
 40
6.35
 49
3.175
 74
0
 49
-0.635
 74
0
 49
0.635
 74
0
 49
-0.635
 74
0
 49
0.635
 74
0
 49
-0.635
 74
0
  0
LTYPE
  5
36
330
2
100
AcDbSymbolTableRecord
100
AcDbLinetypeTableRecord
  2
PHANTOMX2
 70
0
  3
Phantom (2x)____________    ____    ____    ____________
 72
65
 73
6
 40
10.795
 49
6.35
 74
0
 49
-0.635
 74
0
 49
1.27
 74
0
 49
-0.635
 74
0
 49
1.27
 74
0
 49
-0.635
 74
0
  0
LTYPE
  5
37
330
2
100
AcDbSymbolTableRecord
100
AcDbLinetypeTableRecord
  2
PHANTOM2
 70
0
  3
Phantom (.5x) ___ _ _ ___ _ _ ___ _ _ ___ _ _ ___
 72
65
 73
6
 40
3.175
 49
1.587
 74
0
 49
-0.318
 74
0
 49
0.318
 74
0
 49
-0.318
 74
0
 49
0.318
 74
0
 49
-0.318
 74
0
  0
LTYPE
  5
38
330
2
100
AcDbSymbolTableRecord
100
AcDbLinetypeTableRecord
  2
DASHDOT
 70
0
  3
Dash dot __ . __ . __ . __ . __ . __ . __ . __
 72
65
 73
4
 40
3.556
 49
2.54
 74
0
 49
-0.508
 74
0
 49
0.0
 74
0
 49
-0.508
 74
0
  0
LTYPE
  5
39
330
2
100
AcDbSymbolTableRecord
100
AcDbLinetypeTableRecord
  2
DASHDOTX2
 70
0
  3
Dash dot (2x) ____  .  ____  .  ____  .  ____
 72
65
 73
4
 40
6.096
 49
5.08
 74
0
 49
-0.508
 74
0
 49
0.0
 74
0
 49
-0.508
 74
0
  0
LTYPE
  5
3A
330
2
100
AcDbSymbolTableRecord
100
AcDbLinetypeTableRecord
  2
DASHDOT2
 70
0
  3
Dash dot (.5x) _ . _ . _ . _ . _ . _ . _ . _
 72
65
 73
4
 40
1.778
 49
1.27
 74
0
 49
-0.254
 74
0
 49
0.0
 74
0
 49
-0.254
 74
0
  0
LTYPE
  5
3B
330
2
100
AcDbSymbolTableRecord
100
AcDbLinetypeTableRecord
  2
DOT
 70
0
  3
Dot .  .  .  .  .  .  .  .  .  .  .  .  .  .  .  .
 72
65
 73
2
 40
0.508
 49
0.0
 74
0
 49
-0.508
 74
0
  0
LTYPE
  5
3C
330
2
100
AcDbSymbolTableRecord
100
AcDbLinetypeTableRecord
  2
DOTX2
 70
0
  3
Dot (2x) .    .    .    .    .    .    .    . 
 72
65
 73
2
 40
1.016
 49
0.0
 74
0
 49
-1.016
 74
0
  0
LTYPE
  5
3D
330
2
100
AcDbSymbolTableRecord
100
AcDbLinetypeTableRecord
  2
DOT2
 70
0
  3
Dot (.5) . . . . . . . . . . . . . . . . . . . 
 72
65
 73
2
 40
0.254
 49
0.0
 74
0
 49
-0.254
 74
0
  0
LTYPE
  5
3E
330
2
100
AcDbSymbolTableRecord
100
AcDbLinetypeTableRecord
  2
DIVIDE
 70
0
  3
Divide __ . . __ . . __ . . __ . . __ . . __
 72
65
 73
6
 40
4.064
 49
2.54
 74
0
 49
-0.508
 74
0
 49
0.0
 74
0
 49
-0.508
 74
0
 49
0.0
 74
0
 49
-0.508
 74
0
  0
LTYPE
  5
3F
330
2
100
AcDbSymbolTableRecord
100
AcDbLinetypeTableRecord
  2
DIVIDEX2
 70
0
  3
Divide (2x) ____  . .  ____  . .  ____  . .  ____
 72
65
 73
6
 40
6.604
 49
5.08
 74
0
 49
-0.508
 74
0
 49
0.0
 74
0
 49
-0.508
 74
0
 49
0.0
 74
0
 49
-0.508
 74
0
  0
LTYPE
  5
40
330
2
100
AcDbSymbolTableRecord
100
AcDbLinetypeTableRecord
  2
DIVIDE2
 70
0
  3
Divide(.5x) _ . _ . _ . _ . _ . _ . _ . _
 72
65
 73
6
 40
2.032
 49
1.27
 74
0
 49
-0.254
 74
0
 49
0.0
 74
0
 49
-0.254
 74
0
 49
0.0
 74
0
 49
-0.254
 74
0
  0
ENDTAB
  0
TABLE
  2
LAYER
  5
1
330
0
100
AcDbSymbolTable
 70
6
  0
LAYER
  5
27
330
1
100
AcDbSymbolTableRecord
100
AcDbLayerTableRecord
  2
0
 70
0
 62
7
  6
Continuous
370
-3
390
13
347
21
  0
LAYER
  5
28
330
1
100
AcDbSymbolTableRecord
100
AcDbLayerTableRecord
  2
Defpoints
 70
0
 62
7
  6
Continuous
290
0
370
-3
390
13
347
21
  0
LAYER
  5
8A
330
1
100
AcDbSymbolTableRecord
100
AcDbLayerTableRecord
  2
CUT
 70
0
 62
1
  6
Continuous
370
-3
390
13
347
21
  0
LAYER
  5
8B
330
1
100
AcDbSymbolTableRecord
100
AcDbLayerTableRecord
  2
POCKET-KERF-12.5
 70
0
 62
5
  6
Continuous
370
-3
390
13
347
21
  0
LAYER
  5
8C
330
1
100
AcDbSymbolTableRecord
100
AcDbLayerTableRecord
  2
ENGRAVE-LABEL
 70
0
 62
3
  6
Continuous
370
-3
390
13
347
21
  0
LAYER
  5
8D
330
1
100
AcDbSymbolTableRecord
100
AcDbLayerTableRecord
  2
REFERENCE-SHEET
 70
0
 62
8
  6
Continuous
370
-3
390
13
347
21
  0
ENDTAB
  0
TABLE
  2
STYLE
  5
5
330
0
100
AcDbSymbolTable
 70
26
  0
STYLE
  5
29
330
5
100
AcDbSymbolTableRecord
100
AcDbTextStyleTableRecord
  2
Standard
 70
0
 40
0.0
 41
1.0
 50
0.0
 71
0
 42
2.5
  3
txt
  4

  0
STYLE
  5
41
330
5
100
AcDbSymbolTableRecord
100
AcDbTextStyleTableRecord
  2
OpenSans-Light
 70
0
 40
0.0
 41
1.0
 50
0.0
 71
0
 42
2.5
  3
OpenSans-Light.ttf
  4

  0
STYLE
  5
42
330
5
100
AcDbSymbolTableRecord
100
AcDbTextStyleTableRecord
  2
OpenSans-Light-Italic
 70
0
 40
0.0
 41
1.0
 50
0.0
 71
0
 42
2.5
  3
OpenSans-LightItalic.ttf
  4

  0
STYLE
  5
43
330
5
100
AcDbSymbolTableRecord
100
AcDbTextStyleTableRecord
  2
OpenSans
 70
0
 40
0.0
 41
1.0
 50
0.0
 71
0
 42
2.5
  3
OpenSans-Regular.ttf
  4

  0
STYLE
  5
44
330
5
100
AcDbSymbolTableRecord
100
AcDbTextStyleTableRecord
  2
OpenSans-Italic
 70
0
 40
0.0
 41
1.0
 50
0.0
 71
0
 42
2.5
  3
OpenSans-Italic.ttf
  4

  0
STYLE
  5
45
330
5
100
AcDbSymbolTableRecord
100
AcDbTextStyleTableRecord
  2
OpenSans-SemiBold
 70
0
 40
0.0
 41
1.0
 50
0.0
 71
0
 42
2.5
  3
OpenSans-SemiBold.ttf
  4

  0
STYLE
  5
46
330
5
100
AcDbSymbolTableRecord
100
AcDbTextStyleTableRecord
  2
OpenSans-SemiBoldItalic
 70
0
 40
0.0
 41
1.0
 50
0.0
 71
0
 42
2.5
  3
OpenSans-SemiBoldItalic.ttf
  4

  0
STYLE
  5
47
330
5
100
AcDbSymbolTableRecord
100
AcDbTextStyleTableRecord
  2
OpenSans-Bold
 70
0
 40
0.0
 41
1.0
 50
0.0
 71
0
 42
2.5
  3
OpenSans-Bold.ttf
  4

  0
STYLE
  5
48
330
5
100
AcDbSymbolTableRecord
100
AcDbTextStyleTableRecord
  2
OpenSans-BoldItalic
 70
0
 40
0.0
 41
1.0
 50
0.0
 71
0
 42
2.5
  3
OpenSans-BoldItalic.ttf
  4

  0
STYLE
  5
49
330
5
100
AcDbSymbolTableRecord
100
AcDbTextStyleTableRecord
  2
OpenSans-ExtraBold
 70
0
 40
0.0
 41
1.0
 50
0.0
 71
0
 42
2.5
  3
OpenSans-ExtraBold.ttf
  4

  0
STYLE
  5
4A
330
5
100
AcDbSymbolTableRecord
100
AcDbTextStyleTableRecord
  2
OpenSans-ExtraBoldItalic
 70
0
 40
0.0
 41
1.0
 50
0.0
 71
0
 42
2.5
  3
OpenSans-ExtraBoldItalic.ttf
  4

  0
STYLE
  5
4B
330
5
100
AcDbSymbolTableRecord
100
AcDbTextStyleTableRecord
  2
OpenSansCondensed-Bold
 70
0
 40
0.0
 41
1.0
 50
0.0
 71
0
 42
2.5
  3
OpenSansCondensed-Bold.ttf
  4

  0
STYLE
  5
4C
330
5
100
AcDbSymbolTableRecord
100
AcDbTextStyleTableRecord
  2
OpenSansCondensed-Light
 70
0
 40
0.0
 41
1.0
 50
0.0
 71
0
 42
2.5
  3
OpenSansCondensed-Light.ttf
  4

  0
STYLE
  5
4D
330
5
100
AcDbSymbolTableRecord
100
AcDbTextStyleTableRecord
  2
OpenSansCondensed-Italic
 70
0
 40
0.0
 41
1.0
 50
0.0
 71
0
 42
2.5
  3
OpenSansCondensed-LightItalic.ttf
  4

  0
STYLE
  5
4E
330
5
100
AcDbSymbolTableRecord
100
AcDbTextStyleTableRecord
  2
LiberationSans
 70
0
 40
0.0
 41
1.0
 50
0.0
 71
0
 42
2.5
  3
LiberationSans-Regular.ttf
  4

  0
STYLE
  5
4F
330
5
100
AcDbSymbolTableRecord
100
AcDbTextStyleTableRecord
  2
LiberationSans-Bold
 70
0
 40
0.0
 41
1.0
 50
0.0
 71
0
 42
2.5
  3
LiberationSans-Bold.ttf
  4

  0
STYLE
  5
50
330
5
100
AcDbSymbolTableRecord
100
AcDbTextStyleTableRecord
  2
LiberationSans-BoldItalic
 70
0
 40
0.0
 41
1.0
 50
0.0
 71
0
 42
2.5
  3
LiberationSans-BoldItalic.ttf
  4

  0
STYLE
  5
51
330
5
100
AcDbSymbolTableRecord
100
AcDbTextStyleTableRecord
  2
LiberationSans-Italic
 70
0
 40
0.0
 41
1.0
 50
0.0
 71
0
 42
2.5
  3
LiberationSans-Italic.ttf
  4

  0
STYLE
  5
52
330
5
100
AcDbSymbolTableRecord
100
AcDbTextStyleTableRecord
  2
LiberationSerif
 70
0
 40
0.0
 41
1.0
 50
0.0
 71
0
 42
2.5
  3
LiberationSerif-Regular.ttf
  4

  0
STYLE
  5
53
330
5
100
AcDbSymbolTableRecord
100
AcDbTextStyleTableRecord
  2
LiberationSerif-Bold
 70
0
 40
0.0
 41
1.0
 50
0.0
 71
0
 42
2.5
  3
LiberationSerif-Bold.ttf
  4

  0
STYLE
  5
54
330
5
100
AcDbSymbolTableRecord
100
AcDbTextStyleTableRecord
  2
LiberationSerif-BoldItalic
 70
0
 40
0.0
 41
1.0
 50
0.0
 71
0
 42
2.5
  3
LiberationSerif-BoldItalic.ttf
  4

  0
STYLE
  5
55
330
5
100
AcDbSymbolTableRecord
100
AcDbTextStyleTableRecord
  2
LiberationSerif-Italic
 70
0
 40
0.0
 41
1.0
 50
0.0
 71
0
 42
2.5
  3
LiberationSerif-Italic.ttf
  4

  0
STYLE
  5
56
330
5
100
AcDbSymbolTableRecord
100
AcDbTextStyleTableRecord
  2
LiberationMono
 70
0
 40
0.0
 41
1.0
 50
0.0
 71
0
 42
2.5
  3
LiberationMono-Regular.ttf
  4

  0
STYLE
  5
57
330
5
100
AcDbSymbolTableRecord
100
AcDbTextStyleTableRecord
  2
LiberationMono-Bold
 70
0
 40
0.0
 41
1.0
 50
0.0
 71
0
 42
2.5
  3
LiberationMono-Bold.ttf
  4

  0
STYLE
  5
58
330
5
100
AcDbSymbolTableRecord
100
AcDbTextStyleTableRecord
  2
LiberationMono-BoldItalic
 70
0
 40
0.0
 41
1.0
 50
0.0
 71
0
 42
2.5
  3
LiberationMono-BoldItalic.ttf
  4

  0
STYLE
  5
59
330
5
100
AcDbSymbolTableRecord
100
AcDbTextStyleTableRecord
  2
LiberationMono-Italic
 70
0
 40
0.0
 41
1.0
 50
0.0
 71
0
 42
2.5
  3
LiberationMono-Italic.ttf
  4

  0
ENDTAB
  0
TABLE
  2
VIEW
  5
7
330
0
100
AcDbSymbolTable
 70
0
  0
ENDTAB
  0
TABLE
  2
UCS
  5
6
330
0
100
AcDbSymbolTable
 70
0
  0
ENDTAB
  0
TABLE
  2
APPID
  5
3
330
0
100
AcDbSymbolTable
 70
3
  0
APPID
  5
2A
330
3
100
AcDbSymbolTableRecord
100
AcDbRegAppTableRecord
  2
ACAD
 70
0
  0
APPID
  5
164
330
3
100
AcDbSymbolTableRecord
100
AcDbRegAppTableRecord
  2
HATCHBACKGROUNDCOLOR
 70
0
  0
APPID
  5
165
330
3
100
AcDbSymbolTableRecord
100
AcDbRegAppTableRecord
  2
EZDXF
 70
0
  0
ENDTAB
  0
TABLE
  2
DIMSTYLE
  5
4
330
0
100
AcDbSymbolTable
 70
12
100
AcDbDimStyleTable
  0
DIMSTYLE
105
2B
330
4
100
AcDbSymbolTableRecord
100
AcDbDimStyleTableRecord
  2
Standard
 70
0
 40
1.0
 41
2.5
 42
0.625
 43
3.75
 44
1.25
 45
0.0
 46
0.0
 47
0.0
 48
0.0
 49
2.5
140
2.5
141
2.5
142
0.0
143
0.03937007874
144
1.0
145
0.0
146
1.0
147
0.625
148
0.0
 69
0
 70
0
 71
0
 72
0
 73
0
 74
0
 75
0
 76
0
 77
1
 78
8
 79
3
170
0
171
3
172
1
173
0
174
0
175
0
176
0
177
0
178
0
179
2
271
2
272
2
273
2
274
3
275
0
276
0
277
2
278
44
279
0
280
0
281
0
282
0
283
0
284
8
285
0
286
0
288
0
289
3
290
0
371
-2
372
-2
  0
DIMSTYLE
105
73
330
4
100
AcDbSymbolTableRecord
100
AcDbDimStyleTableRecord
  2
EZDXF
 70
0
 40
1.0
 41
0.175
 42
0.125
 43
3.75
 44
0.375
 45
0.0
 46
0.0
 47
0.0
 48
0.0
 49
2.5
140
0.25
141
2.5
142
0.0
143
0.03937007874
144
100.0
145
0.0
146
0.5
147
0.1
148
0.0
 69
0
 70
0
 71
0
 72
0
 73
0
 74
0
 75
0
 76
0
 77
1
 78
12
 79
3
170
0
171
3
172
1
173
0
174
0
175
0
176
0
177
0
178
0
179
2
271
2
272
2
273
2
274
3
275
0
276
0
277
2
278
46
279
2
280
0
281
0
282
0
283
0
284
8
285
0
286
0
288
1
289
3
290
0
340
4C
342
74
371
-2
372
-2
  0
DIMSTYLE
105
7C
330
4
100
AcDbSymbolTableRecord
100
AcDbDimStyleTableRecord
  2
EZ_M_100_H25_CM
 70
0
 40
1.0
 41
0.25
 42
0.125
 43
3.75
 44
0.375
 45
0.0
 46
0.0
 47
0.0
 48
0.0
 49
2.5
140
0.25
141
2.5
142
0.125
143
0.03937007874
144
100.0
145
0.0
146
0.5
147
0.1
148
0.0
 69
0
 70
0
 71
0
 72
0
 73
0
 74
0
 75
0
 76
0
 77
1
 78
12
 79
3
170
0
171
3
172
1
173
0
174
0
175
0
176
0
177
0
178
0
179
2
271
2
272
2
273
2
274
3
275
0
276
0
277
2
278
46
279
2
280
0
281
0
282
0
283
0
284
8
285
0
286
0
288
1
289
3
290
0
340
4C
371
-2
372
-2
  0
DIMSTYLE
105
7D
330
4
100
AcDbSymbolTableRecord
100
AcDbDimStyleTableRecord
  2
EZ_M_50_H25_CM
 70
0
 40
1.0
 41
0.125
 42
0.0625
 43
3.75
 44
0.1875
 45
0.0
 46
0.0
 47
0.0
 48
0.0
 49
2.5
140
0.125
141
2.5
142
0.0625
143
0.03937007874
144
100.0
145
0.0
146
0.5
147
0.05
148
0.0
 69
0
 70
0
 71
0
 72
0
 73
0
 74
0
 75
0
 76
0
 77
1
 78
12
 79
3
170
0
171
3
172
1
173
0
174
0
175
0
176
0
177
0
178
0
179
2
271
2
272
2
273
2
274
3
275
0
276
0
277
2
278
46
279
2
280
0
281
0
282
0
283
0
284
8
285
0
286
0
288
1
289
3
290
0
340
4C
371
-2
372
-2
  0
DIMSTYLE
105
7E
330
4
100
AcDbSymbolTableRecord
100
AcDbDimStyleTableRecord
  2
EZ_M_25_H25_CM
 70
0
 40
1.0
 41
0.0625
 42
0.03125
 43
3.75
 44
0.09375
 45
0.0
 46
0.0
 47
0.0
 48
0.0
 49
2.5
140
0.0625
141
2.5
142
0.03125
143
0.03937007874
144
100.0
145
0.0
146
0.5
147
0.025
148
0.0
 69
0
 70
0
 71
0
 72
0
 73
0
 74
0
 75
0
 76
0
 77
1
 78
12
 79
3
170
0
171
3
172
1
173
0
174
0
175
0
176
0
177
0
178
0
179
2
271
2
272
2
273
2
274
3
275
0
276
0
277
2
278
46
279
2
280
0
281
0
282
0
283
0
284
8
285
0
286
0
288
1
289
3
290
0
340
4C
371
-2
372
-2
  0
DIMSTYLE
105
7F
330
4
100
AcDbSymbolTableRecord
100
AcDbDimStyleTableRecord
  2
EZ_M_20_H25_CM
 70
0
 40
1.0
 41
0.05
 42
0.025
 43
3.75
 44
0.07500000000000001
 45
0.0
 46
0.0
 47
0.0
 48
0.0
 49
2.5
140
0.05
141
2.5
142
0.025
143
0.03937007874
144
100.0
145
0.0
146
0.5
147
0.020000000000000004
148
0.0
 69
0
 70
0
 71
0
 72
0
 73
0
 74
0
 75
0
 76
0
 77
1
 78
12
 79
3
170
0
171
3
172
1
173
0
174
0
175
0
176
0
177
0
178
0
179
2
271
2
272
2
273
2
274
3
275
0
276
0
277
2
278
46
279
2
280
0
281
0
282
0
283
0
284
8
285
0
286
0
288
1
289
3
290
0
340
4C
371
-2
372
-2
  0
DIMSTYLE
105
80
330
4
100
AcDbSymbolTableRecord
100
AcDbDimStyleTableRecord
  2
EZ_M_10_H25_CM
 70
0
 40
1.0
 41
0.025
 42
0.0125
 43
3.75
 44
0.037500000000000006
 45
0.0
 46
0.0
 47
0.0
 48
0.0
 49
2.5
140
0.025
141
2.5
142
0.0125
143
0.03937007874
144
100.0
145
0.0
146
0.5
147
0.010000000000000002
148
0.0
 69
0
 70
0
 71
0
 72
0
 73
0
 74
0
 75
0
 76
0
 77
1
 78
12
 79
3
170
0
171
3
172
1
173
0
174
0
175
0
176
0
177
0
178
0
179
2
271
2
272
2
273
2
274
3
275
0
276
0
277
2
278
46
279
2
280
0
281
0
282
0
283
0
284
8
285
0
286
0
288
1
289
3
290
0
340
4C
371
-2
372
-2
  0
DIMSTYLE
105
81
330
4
100
AcDbSymbolTableRecord
100
AcDbDimStyleTableRecord
  2
EZ_M_5_H25_CM
 70
0
 40
1.0
 41
0.0125
 42
0.00625
 43
3.75
 44
0.018750000000000003
 45
0.0
 46
0.0
 47
0.0
 48
0.0
 49
2.5
140
0.0125
141
2.5
142
0.00625
143
0.03937007874
144
100.0
145
0.0
146
0.5
147
0.005000000000000001
148
0.0
 69
0
 70
0
 71
0
 72
0
 73
0
 74
0
 75
0
 76
0
 77
1
 78
12
 79
3
170
0
171
3
172
1
173
0
174
0
175
0
176
0
177
0
178
0
179
2
271
2
272
2
273
2
274
3
275
0
276
0
277
2
278
46
279
2
280
0
281
0
282
0
283
0
284
8
285
0
286
0
288
1
289
3
290
0
340
4C
371
-2
372
-2
  0
DIMSTYLE
105
82
330
4
100
AcDbSymbolTableRecord
100
AcDbDimStyleTableRecord
  2
EZ_M_1_H25_CM
 70
0
 40
1.0
 41
0.0025
 42
0.00125
 43
3.75
 44
0.00375
 45
0.0
 46
0.0
 47
0.0
 48
0.0
 49
2.5
140
0.0025
141
2.5
142
0.00125
143
0.03937007874
144
100.0
145
0.0
146
0.5
147
0.001
148
0.0
 69
0
 70
0
 71
0
 72
0
 73
0
 74
0
 75
0
 76
0
 77
1
 78
12
 79
3
170
0
171
3
172
1
173
0
174
0
175
0
176
0
177
0
178
0
179
2
271
2
272
2
273
2
274
3
275
0
276
0
277
2
278
46
279
2
280
0
281
0
282
0
283
0
284
8
285
0
286
0
288
1
289
3
290
0
340
4C
371
-2
372
-2
  0
DIMSTYLE
105
83
330
4
100
AcDbSymbolTableRecord
100
AcDbDimStyleTableRecord
  2
EZ_RADIUS
 70
0
 40
1.0
 41
0.25
 42
0.125
 43
3.75
 44
0.375
 45
0.0
 46
0.0
 47
0.0
 48
0.0
 49
2.5
140
0.25
141
0.0
142
0.0
143
0.03937007874
144
100.0
145
0.0
146
0.5
147
0.1
148
0.0
 69
0
 70
0
 71
0
 72
0
 73
0
 74
0
 75
0
 76
0
 77
1
 78
12
 79
3
170
0
171
3
172
0
173
0
174
0
175
0
176
0
177
0
178
0
179
2
271
2
272
2
273
2
274
3
275
0
276
0
277
2
278
46
279
1
280
0
281
0
282
0
283
0
284
8
285
0
286
0
288
1
289
3
290
0
340
4C
342
84
371
-2
372
-2
  0
DIMSTYLE
105
88
330
4
100
AcDbSymbolTableRecord
100
AcDbDimStyleTableRecord
  2
EZ_RADIUS_INSIDE
 70
0
 40
1.0
 41
0.25
 42
0.125
 43
3.75
 44
0.375
 45
0.0
 46
0.0
 47
0.0
 48
0.0
 49
2.5
140
0.25
141
0.0
142
0.0
143
0.03937007874
144
100.0
145
0.0
146
0.5
147
0.1
148
0.0
 69
0
 70
0
 71
0
 72
0
 73
0
 74
0
 75
0
 76
0
 77
0
 78
12
 79
3
170
0
171
3
172
0
173
0
174
1
175
0
176
0
177
0
178
0
179
2
271
2
272
2
273
2
274
3
275
0
276
0
277
2
278
46
279
0
280
0
281
0
282
0
283
0
284
8
285
0
286
0
288
1
289
0
290
0
340
4C
342
84
371
-2
372
-2
  0
DIMSTYLE
105
89
330
4
100
AcDbSymbolTableRecord
100
AcDbDimStyleTableRecord
  2
EZ_CURVED
 70
0
 40
1.0
 41
0.25
 42
0.125
 43
3.75
 44
0.375
 45
0.0
 46
0.0
 47
0.0
 48
0.0
 49
2.5
140
0.25
141
2.5
142
0.0
143
0.03937007874
144
100.0
145
0.0
146
0.5
147
0.1
148
0.0
 69
0
 70
0
 71
0
 72
0
 73
0
 74
0
 75
0
 76
0
 77
1
 78
12
 79
2
 90
2
170
0
171
3
172
1
173
0
174
0
175
0
176
0
177
0
178
0
179
2
271
2
272
2
273
2
274
3
275
0
276
0
277
2
278
46
279
2
280
0
281
0
282
0
283
0
284
8
285
0
286
0
288
1
289
3
290
0
340
4C
371
-2
372
-2
  0
ENDTAB
  0
TABLE
  2
BLOCK_RECORD
  5
9
330
0
100
AcDbSymbolTable
 70
5
  0
BLOCK_RECORD
  5
17
330
9
100
AcDbSymbolTableRecord
100
AcDbBlockTableRecord
  2
*Model_Space
340
1A
 70
0
280
1
281
0
  0
BLOCK_RECORD
  5
1B
330
9
100
AcDbSymbolTableRecord
100
AcDbBlockTableRecord
  2
*Paper_Space
340
1E
 70
0
280
1
281
0
  0
BLOCK_RECORD
  5
74
330
9
100
AcDbSymbolTableRecord
100
AcDbBlockTableRecord
  2
_ARCHTICK
340
0
 70
0
280
1
281
0
  0
BLOCK_RECORD
  5
78
330
9
100
AcDbSymbolTableRecord
100
AcDbBlockTableRecord
  2
_CLOSEDFILLED
340
0
 70
0
280
1
281
0
  0
BLOCK_RECORD
  5
84
330
9
100
AcDbSymbolTableRecord
100
AcDbBlockTableRecord
  2
_CLOSEDBLANK
340
0
 70
0
280
1
281
0
  0
ENDTAB
  0
ENDSEC
  0
SECTION
  2
BLOCKS
  0
BLOCK
  5
18
330
17
100
AcDbEntity
  8
0
100
AcDbBlockBegin
  2
*Model_Space
 70
0
 10
0.0
 20
0.0
 30
0.0
  3
*Model_Space
  1

  0
ENDBLK
  5
19
330
17
100
AcDbEntity
  8
0
100
AcDbBlockEnd
  0
BLOCK
  5
1C
330
1B
100
AcDbEntity
  8
0
100
AcDbBlockBegin
  2
*Paper_Space
 70
0
 10
0.0
 20
0.0
 30
0.0
  3
*Paper_Space
  1

  0
ENDBLK
  5
1D
330
1B
100
AcDbEntity
  8
0
100
AcDbBlockEnd
  0
BLOCK
  5
75
330
74
100
AcDbEntity
  8
0
100
AcDbBlockBegin
  2
_ARCHTICK
 70
0
 10
0.0
 20
0.0
 30
0.0
  3
_ARCHTICK
  1

  0
LWPOLYLINE
  5
77
330
74
100
AcDbEntity
  8
0
  6
BYBLOCK
 62
0
100
AcDbPolyline
 90
2
 70
0
 43
0.15
 10
-0.5
 20
-0.5
 10
0.5
 20
0.5
  0
ENDBLK
  5
76
330
74
100
AcDbEntity
  8
0
100
AcDbBlockEnd
  0
BLOCK
  5
79
330
78
100
AcDbEntity
  8
0
100
AcDbBlockBegin
  2
_CLOSEDFILLED
 70
0
 10
0.0
 20
0.0
 30
0.0
  3
_CLOSEDFILLED
  1

  0
SOLID
  5
7B
330
78
100
AcDbEntity
  8
0
  6
BYBLOCK
 62
0
100
AcDbTrace
 10
-1.0
 20
0.16439898372402537
 30
0.0
 11
0.0
 21
0.0
 31
0.0
 12
-1.0
 22
-0.16439898372402537
 32
0.0
 13
-1.0
 23
-0.16439898372402537
 33
0.0
  0
ENDBLK
  5
7A
330
78
100
AcDbEntity
  8
0
100
AcDbBlockEnd
  0
BLOCK
  5
85
330
84
100
AcDbEntity
  8
0
100
AcDbBlockBegin
  2
_CLOSEDBLANK
 70
0
 10
0.0
 20
0.0
 30
0.0
  3
_CLOSEDBLANK
  1

  0
LWPOLYLINE
  5
87
330
84
100
AcDbEntity
  8
0
  6
BYBLOCK
 62
0
100
AcDbPolyline
 90
3
 70
1
 10
-1.0
 20
0.16439898372402537
 10
0.0
 20
0.0
 10
-1.0
 20
-0.16439898372402537
  0
ENDBLK
  5
86
330
84
100
AcDbEntity
  8
0
100
AcDbBlockEnd
  0
ENDSEC
  0
SECTION
  2
ENTITIES
  0
LWPOLYLINE
  5
8E
330
17
100
AcDbEntity
  8
REFERENCE-SHEET
100
AcDbPolyline
 90
4
 70
1
 10
0.0
 20
0.0
 10
2440.0
 20
0.0
 10
2440.0
 20
1220.0
 10
0.0
 20
1220.0
  0
TEXT
  5
8F
330
17
100
AcDbEntity
  8
REFERENCE-SHEET
100
AcDbText
 10
0.0
 20
1275.0
 30
0.0
 40
40.0
  1
15 mm BOARD - SHEET 1/1 - 2440 x 1220  (kerf side = BACK face, show face down)
 11
0.0
 21
1275.0
 31
0.0
100
AcDbText
  0
LWPOLYLINE
  5
90
330
17
100
AcDbEntity
  8
CUT
100
AcDbPolyline
 90
2
 70
1
 10
518.0
 20
268.0
 42
1.0
 10
18.0
 20
268.0
 42
1.0
  0
TEXT
  5
91
330
17
100
AcDbEntity
  8
ENGRAVE-LABEL
100
AcDbText
 10
268.0
 20
268.0
 30
0.0
 40
22.0
  1
09 TABLE-TOP 1/2
 72
1
 11
268.0
 21
268.0
 31
0.0
100
AcDbText
 73
2
  0
LWPOLYLINE
  5
92
330
17
100
AcDbEntity
  8
CUT
100
AcDbPolyline
 90
2
 70
1
 10
518.0
 20
784.0
 42
1.0
 10
18.0
 20
784.0
 42
1.0
  0
TEXT
  5
93
330
17
100
AcDbEntity
  8
ENGRAVE-LABEL
100
AcDbText
 10
268.0
 20
784.0
 30
0.0
 40
22.0
  1
09 TABLE-TOP 2/2
 72
1
 11
268.0
 21
784.0
 31
0.0
100
AcDbText
 73
2
  0
LWPOLYLINE
  5
94
330
17
100
AcDbEntity
  8
CUT
100
AcDbPolyline
 90
4
 70
1
 10
533.4726707446393
 20
684.1198705048539
 10
390.0
 20
510.1490604550057
 42
0.3591568323270878
 10
1259.5313378462984
 20
510.1490604550056
 10
1116.058667101659
 20
684.1198705048537
 42
-0.3591568323270878
  0
LWPOLYLINE
  5
95
330
17
100
AcDbEntity
  8
POCKET-KERF-12.5
100
AcDbPolyline
 90
4
 70
1
 10
540.1191234601623
 20
678.0913694699339
 10
535.4409102079411
 20
681.8482725518274
 10
394.87011989375407
 20
506.805126697884
 10
399.5483331459753
 20
503.0482236159904
  0
LWPOLYLINE
  5
96
330
17
100
AcDbEntity
  8
POCKET-KERF-12.5
100
AcDbPolyline
 90
4
 70
1
 10
549.5631135503194
 20
670.8063930401145
 10
544.7887282369567
 20
674.4402951961372
 10
408.8202225657742
 20
495.7987113878154
 10
413.5946078791369
 20
492.1648092317927
  0
LWPOLYLINE
  5
97
330
17
100
AcDbEntity
  8
POCKET-KERF-12.5
100
AcDbPolyline
 90
4
 70
1
 10
559.1934638782351
 20
663.769619420932
 10
554.3261395971916
 20
667.2780598640868
 10
423.0519930158162
 20
485.15900968170865
 10
427.9193172968597
 20
481.6505692385539
  0
LWPOLYLINE
  5
98
330
17
100
AcDbEntity
  8
POCKET-KERF-12.5
100
AcDbPolyline
 90
4
 70
1
 10
569.0036530132695
 20
656.9858137382153
 10
564.0466857939335
 20
660.3664166410166
 10
437.5557938474495
 20
474.8932265175302
 10
442.51276106678546
 20
471.51262361472874
  0
LWPOLYLINE
  5
99
330
17
100
AcDbEntity
  8
POCKET-KERF-12.5
100
AcDbPolyline
 90
4
 70
1
 10
578.9870377424727
 20
650.4595698142789
 10
573.9437843181722
 20
653.7100459176031
 10
452.3218034521222
 20
465.0083136250293
 10
457.36505687642256
 20
461.7578375217051
  0
LWPOLYLINE
  5
9A
330
17
100
AcDbEntity
  8
POCKET-KERF-12.5
100
AcDbPolyline
 90
4
 70
1
 10
589.1368575692019
 20
644.1953070571027
 10
584.0107331041092
 20
647.3134552204168
 10
467.3400226601066
 20
455.5109648182018
 10
472.46614712519926
 20
452.39281665488767
  0
LWPOLYLINE
  5
9B
330
17
100
AcDbEntity
  8
POCKET-KERF-12.5
100
AcDbPolyline
 90
4
 70
1
 10
599.4462392911585
 20
638.1972674676205
 10
594.2407150676271
 20
641.1809761595388
 10
482.6002815116852
 20
446.4076114624084
 10
487.80580573521655
 20
443.4239027704901
  0
LWPOLYLINE
  5
9C
330
17
100
AcDbEntity
  8
POCKET-KERF-12.5
100
AcDbPolyline
 90
4
 70
1
 10
609.9082016547482
 20
632.469512767143
 10
604.6268027226478
 20
635.3167614953031
 10
498.0922461439909
 20
437.70441811921495
 10
503.3736450760913
 20
434.8571693910548
  0
LWPOLYLINE
  5
9D
330
17
100
AcDbEntity
  8
POCKET-KERF-12.5
100
AcDbPolyline
 90
4
 70
1
 10
620.5156600826099
 20
627.0159216468635
 10
615.1619628722514
 20
629.724782326153
 10
513.8054257888393
 20
429.4072783719081
 10
519.1591229991977
 20
426.6984176926186
  0
LWPOLYLINE
  5
9E
330
17
100
AcDbEntity
  8
POCKET-KERF-12.5
100
AcDbPolyline
 90
4
 70
1
 10
631.261431471113
 20
621.8401871413048
 10
625.8390613713802
 20
624.4088253995116
 10
529.7291798768119
 20
421.5218108345077
 10
535.1515499765447
 20
418.95317257630103
  0
LWPOLYLINE
  5
9F
330
17
100
AcDbEntity
  8
POCKET-KERF-12.5
100
AcDbPolyline
 90
4
 70
1
 10
642.1382390545747
 20
616.94581412749
 10
636.6508679579018
 20
619.3724905474933
 10
545.8527252427822
 20
414.0533553469844
 10
551.340096339455
 20
411.6266789269813
  0
LWPOLYLINE
  5
A0
330
17
100
AcDbEntity
  8
POCKET-KERF-12.5
100
AcDbPolyline
 90
4
 70
1
 10
653.1387173329014
 20
612.336116951528
 10
647.5900611487606
 20
614.6191882491875
 10
562.165143428003
 20
407.0069693592535
 10
567.7137996121438
 20
404.723898061594
  0
LWPOLYLINE
  5
A1
330
17
100
AcDbEntity
  8
POCKET-KERF-12.5
100
AcDbPolyline
 90
4
 70
1
 10
664.2554170593202
 20
608.0142171842216
 10
658.6492331979009
 20
610.1521373211683
 10
578.6553880738123
 20
400.38742450639717
 10
584.2615719352316
 20
398.24950436945056
  0
LWPOLYLINE
  5
A2
330
17
100
AcDbEntity
  8
POCKET-KERF-12.5
100
AcDbPolyline
 90
4
 70
1
 10
675.4808102848222
 20
603.9830415072183
 10
669.8208951126077
 20
605.9743627377927
 10
595.3122924019483
 20
394.19920337743434
 10
600.9722075741628
 20
392.20788214685996
  0
LWPOLYLINE
  5
A3
330
17
100
AcDbEntity
  8
POCKET-KERF-12.5
100
AcDbPolyline
 90
4
 70
1
 10
686.8072954558982
 20
600.2453197311359
 10
681.097481724862
 20
602.0886935827648
 10
612.1245767764109
 20
388.4464964798235
 10
617.8343905074472
 20
386.60312262819457
  0
LWPOLYLINE
  5
A4
330
17
100
AcDbEntity
  8
POCKET-KERF-12.5
100
AcDbPolyline
 90
4
 70
1
 10
698.2272025621206
 20
596.8035829470022
 10
692.4713568142829
 20
598.4977611333505
 10
629.0808563417468
 20
383.1331994017568
 10
634.8367020895845
 20
381.43902121540845
  0
LWPOLYLINE
  5
A5
330
17
100
AcDbEntity
  8
POCKET-KERF-12.5
100
AcDbPolyline
 90
4
 70
1
 10
709.7327983300806
 20
593.6601618122658
 10
703.9348182791841
 20
595.2039970785445
 10
646.1696487325868
 20
378.26291017416645
 10
651.9676287834833
 20
376.7190749078876
  0
LWPOLYLINE
  5
A6
330
17
100
AcDbEntity
  8
POCKET-KERF-12.5
100
AcDbPolyline
 90
4
 70
1
 10
721.3162914601663
 20
590.8171849725313
 10
715.480103352242
 20
592.2096318723895
 10
663.3793818492147
 20
373.8389268342275
 10
669.2155699571389
 20
372.4464799343693
  0
LWPOLYLINE
  5
A7
330
17
100
AcDbEntity
  8
POCKET-KERF-12.5
100
AcDbPolyline
 90
4
 70
1
 10
732.9698379026345
 20
588.2765776200966
 10
727.0993938572475
 20
589.5166932235715
 10
680.6984016939014
 20
369.8642451920116
 10
686.5688457392882
 20
368.6241295885368
  0
LWPOLYLINE
  5
A8
330
17
100
AcDbEntity
  8
POCKET-KERF-12.5
100
AcDbPolyline
 90
4
 70
1
 10
744.6855461694033
 20
586.0400601902592
 10
738.7848215033765
 20
587.1270047223039
 10
698.1149802626984
 20
366.34155680179884
 10
704.0157049287253
 20
365.2546122697541
  0
LWPOLYLINE
  5
A9
330
17
100
AcDbEntity
  8
POCKET-KERF-12.5
100
AcDbPolyline
 90
4
 70
1
 10
756.4554826779703
 20
584.1091471962812
 10
750.5284732133997
 20
585.0421846054406
 10
715.617323487347
 20
363.27324713942596
 10
721.5443329519176
 20
362.34020973026634
  0
LWPOLYLINE
  5
AA
330
17
100
AcDbEntity
  8
POCKET-KERF-12.5
100
AcDbPolyline
 90
4
 70
1
 10
768.2716771238324
 20
582.4851462037998
 10
762.322396482218
 20
583.263644660645
 10
733.1935792219244
 20
360.6613939869009
 10
739.142859863539
 20
359.8828955300557
  0
LWPOLYLINE
  5
AB
330
17
100
AcDbEntity
  8
POCKET-KERF-12.5
100
AcDbPolyline
 90
4
 70
1
 10
780.1261278777781
 20
581.1691569453765
 10
774.1586047620993
 20
581.792589270364
 10
750.8318452688176
 20
358.5077660253825
 10
756.7993683844963
 20
357.88433370039496
  0
LWPOLYLINE
  5
AC
330
17
100
AcDbEntity
  8
POCKET-KERF-12.5
100
AcDbPolyline
 90
4
 70
1
 10
792.0108074043867
 20
580.1620705757852
 10
786.0290828709673
 20
580.6300145962496
 10
768.5201774385924
 20
356.81382163747327
 10
774.5019019720118
 20
356.34587761700897
  0
LWPOLYLINE
  5
AD
330
17
100
AcDbEntity
  8
POCKET-KERF-12.5
100
AcDbPolyline
 90
4
 70
1
 10
803.9176676980748
 20
579.4645690685456
 10
797.9257924200807
 20
579.7767079045846
 10
786.2465976382973
 20
355.5807079196401
 10
792.2384729162914
 20
355.2685690836014
  0
LWPOLYLINE
  5
AE
330
17
100
AcDbEntity
  8
POCKET-KERF-12.5
100
AcDbPolyline
 90
4
 70
1
 10
815.838645733002
 20
579.0771247541074
 10
809.8406772574277
 20
579.233247033164
 10
803.9991019827269
 20
354.80925990542835
 10
809.9970704583011
 20
354.65313762637186
  0
LWPOLYLINE
  5
AF
330
17
100
AcDbEntity
  8
POCKET-KERF-12.5
100
AcDbPolyline
 90
4
 70
1
 10
827.7656689231493
 20
579.0
 10
821.7656689231493
 20
579.0
 10
821.7656689231492
 20
354.5
 10
827.7656689231492
 20
354.5
  0
LWPOLYLINE
  5
B0
330
17
100
AcDbEntity
  8
POCKET-KERF-12.5
100
AcDbPolyline
 90
4
 70
1
 10
839.6906605888707
 20
579.233247033164
 10
833.6926921132965
 20
579.0771247541074
 10
839.5342673879973
 20
354.65313762637186
 10
845.5322358635715
 20
354.80925990542835
  0
LWPOLYLINE
  5
B1
330
17
100
AcDbEntity
  8
POCKET-KERF-12.5
100
AcDbPolyline
 90
4
 70
1
 10
851.6055454262178
 20
579.7767079045844
 10
845.6136701482237
 20
579.4645690685456
 10
857.292864930007
 20
355.2685690836013
 10
863.284740208001
 20
355.58070791963996
  0
LWPOLYLINE
  5
B2
330
17
100
AcDbEntity
  8
POCKET-KERF-12.5
100
AcDbPolyline
 90
4
 70
1
 10
863.5022549753313
 20
580.6300145962496
 10
857.520530441912
 20
580.1620705757853
 10
875.0294358742868
 20
356.3458776170091
 10
881.0111604077063
 20
356.8138216374734
  0
LWPOLYLINE
  5
B3
330
17
100
AcDbEntity
  8
POCKET-KERF-12.5
100
AcDbPolyline
 90
4
 70
1
 10
875.3727330841992
 20
581.792589270364
 10
869.4052099685204
 20
581.1691569453765
 10
892.7319694618021
 20
357.88433370039496
 10
898.6994925774809
 20
358.5077660253825
  0
LWPOLYLINE
  5
B4
330
17
100
AcDbEntity
  8
POCKET-KERF-12.5
100
AcDbPolyline
 90
4
 70
1
 10
887.2089413640807
 20
583.263644660645
 10
881.2596607224662
 20
582.4851462037998
 10
910.3884779827596
 20
359.8828955300557
 10
916.3377586243741
 20
360.6613939869009
  0
LWPOLYLINE
  5
B5
330
17
100
AcDbEntity
  8
POCKET-KERF-12.5
100
AcDbPolyline
 90
4
 70
1
 10
899.0028646328988
 20
585.0421846054406
 10
893.0758551683283
 20
584.1091471962811
 10
927.9870048943809
 20
362.3402097302662
 10
933.9140143589514
 20
363.27324713942585
  0
LWPOLYLINE
  5
B6
330
17
100
AcDbEntity
  8
POCKET-KERF-12.5
100
AcDbPolyline
 90
4
 70
1
 10
910.7465163429221
 20
587.1270047223039
 10
904.8457916768951
 20
586.0400601902592
 10
945.5156329175732
 20
365.25461226975403
 10
951.4163575836
 20
366.3415568017988
  0
LWPOLYLINE
  5
B7
330
17
100
AcDbEntity
  8
POCKET-KERF-12.5
100
AcDbPolyline
 90
4
 70
1
 10
922.431943989051
 20
589.5166932235715
 10
916.5614999436641
 20
588.2765776200966
 10
962.9624921070102
 20
368.6241295885368
 10
968.8329361523971
 20
369.8642451920116
  0
LWPOLYLINE
  5
B8
330
17
100
AcDbEntity
  8
POCKET-KERF-12.5
100
AcDbPolyline
 90
4
 70
1
 10
934.0512344940564
 20
592.2096318723895
 10
928.2150463861323
 20
590.8171849725313
 10
980.3157678891595
 20
372.4464799343693
 10
986.1519559970837
 20
373.8389268342275
  0
LWPOLYLINE
  5
B9
330
17
100
AcDbEntity
  8
POCKET-KERF-12.5
100
AcDbPolyline
 90
4
 70
1
 10
945.5965195671145
 20
595.2039970785445
 10
939.7985395162179
 20
593.6601618122656
 10
997.5637090628152
 20
376.7190749078876
 10
1003.3616891137117
 20
378.26291017416645
  0
LWPOLYLINE
  5
BA
330
17
100
AcDbEntity
  8
POCKET-KERF-12.5
100
AcDbPolyline
 90
4
 70
1
 10
957.0599810320156
 20
598.4977611333505
 10
951.304135284178
 20
596.8035829470022
 10
1014.694635756714
 20
381.43902121540845
 10
1020.4504815045516
 20
383.1331994017568
  0
LWPOLYLINE
  5
BB
330
17
100
AcDbEntity
  8
POCKET-KERF-12.5
100
AcDbPolyline
 90
4
 70
1
 10
968.4338561214366
 20
602.0886935827648
 10
962.7240423904003
 20
600.2453197311359
 10
1031.6969473388515
 20
386.60312262819457
 10
1037.4067610698876
 20
388.4464964798235
  0
LWPOLYLINE
  5
BC
330
17
100
AcDbEntity
  8
POCKET-KERF-12.5
100
AcDbPolyline
 90
4
 70
1
 10
979.7104427336909
 20
605.9743627377926
 10
974.0505275614763
 20
603.9830415072182
 10
1048.5591302721357
 20
392.20788214685996
 10
1054.2190454443503
 20
394.19920337743434
  0
LWPOLYLINE
  5
BD
330
17
100
AcDbEntity
  8
POCKET-KERF-12.5
100
AcDbPolyline
 90
4
 70
1
 10
990.8821046483976
 20
610.1521373211682
 10
985.2759207869783
 20
608.0142171842216
 10
1065.269765911067
 20
398.24950436945056
 10
1070.8759497724861
 20
400.38742450639717
  0
LWPOLYLINE
  5
BE
330
17
100
AcDbEntity
  8
POCKET-KERF-12.5
100
AcDbPolyline
 90
4
 70
1
 10
1001.941276697538
 20
614.6191882491875
 10
996.3926205133972
 20
612.336116951528
 10
1081.8175382341547
 20
404.723898061594
 10
1087.3661944182954
 20
407.0069693592535
  0
LWPOLYLINE
  5
BF
330
17
100
AcDbEntity
  8
POCKET-KERF-12.5
100
AcDbPolyline
 90
4
 70
1
 10
1012.8804698883968
 20
619.3724905474932
 10
1007.3930987917239
 20
616.94581412749
 10
1098.1912415068434
 20
411.6266789269813
 10
1103.6786126035165
 20
414.0533553469844
  0
LWPOLYLINE
  5
C0
330
17
100
AcDbEntity
  8
POCKET-KERF-12.5
100
AcDbPolyline
 90
4
 70
1
 10
1023.6922764749181
 20
624.4088253995116
 10
1018.2699063751854
 20
621.8401871413047
 10
1114.3797878697535
 20
418.95317257630103
 10
1119.8021579694864
 20
421.5218108345077
  0
LWPOLYLINE
  5
C1
330
17
100
AcDbEntity
  8
POCKET-KERF-12.5
100
AcDbPolyline
 90
4
 70
1
 10
1034.369374974047
 20
629.7247823261529
 10
1029.0156777636887
 20
627.0159216468635
 10
1130.3722148471008
 20
426.6984176926185
 10
1135.7259120574593
 20
429.407278371908
  0
LWPOLYLINE
  5
C2
330
17
100
AcDbEntity
  8
POCKET-KERF-12.5
100
AcDbPolyline
 90
4
 70
1
 10
1044.904535123651
 20
635.3167614953031
 10
1039.6231361915504
 20
632.469512767143
 10
1146.1576927702074
 20
434.8571693910549
 10
1151.4390917023077
 20
437.70441811921506
  0
LWPOLYLINE
  5
C3
330
17
100
AcDbEntity
  8
POCKET-KERF-12.5
100
AcDbPolyline
 90
4
 70
1
 10
1055.2906227786714
 20
641.1809761595387
 10
1050.0850985551401
 20
638.1972674676203
 10
1161.725532111082
 20
443.42390277049
 10
1166.9310563346132
 20
446.4076114624083
  0
LWPOLYLINE
  5
C4
330
17
100
AcDbEntity
  8
POCKET-KERF-12.5
100
AcDbPolyline
 90
4
 70
1
 10
1065.5206047421893
 20
647.3134552204166
 10
1060.3944802770966
 20
644.1953070571025
 10
1177.065190721099
 20
452.39281665488767
 10
1182.1913151861916
 20
455.5109648182018
  0
LWPOLYLINE
  5
C5
330
17
100
AcDbEntity
  8
POCKET-KERF-12.5
100
AcDbPolyline
 90
4
 70
1
 10
1075.5875535281264
 20
653.7100459176031
 10
1070.544300103826
 20
650.4595698142788
 10
1192.166280969876
 20
461.7578375217052
 10
1197.2095343941764
 20
465.0083136250294
  0
LWPOLYLINE
  5
C6
330
17
100
AcDbEntity
  8
POCKET-KERF-12.5
100
AcDbPolyline
 90
4
 70
1
 10
1085.484652052365
 20
660.3664166410165
 10
1080.527684833029
 20
656.9858137382151
 10
1207.018576779513
 20
471.51262361472874
 10
1211.9755439988492
 20
474.8932265175302
  0
LWPOLYLINE
  5
C7
330
17
100
AcDbEntity
  8
POCKET-KERF-12.5
100
AcDbPolyline
 90
4
 70
1
 10
1095.2051982491068
 20
667.2780598640867
 10
1090.3378739680634
 20
663.7696194209319
 10
1221.612020549439
 20
481.65056923855377
 10
1226.4793448304824
 20
485.15900968170854
  0
LWPOLYLINE
  5
C8
330
17
100
AcDbEntity
  8
POCKET-KERF-12.5
100
AcDbPolyline
 90
4
 70
1
 10
1104.7426096093418
 20
674.4402951961368
 10
1099.968224295979
 20
670.8063930401141
 10
1235.9367299671612
 20
492.16480923179245
 10
1240.7111152805242
 20
495.79871138781516
  0
LWPOLYLINE
  5
C9
330
17
100
AcDbEntity
  8
POCKET-KERF-12.5
100
AcDbPolyline
 90
4
 70
1
 10
1114.0904276383576
 20
681.8482725518273
 10
1109.4122143861364
 20
678.0913694699337
 10
1249.9830047003234
 20
503.04822361599054
 10
1254.6612179525446
 20
506.80512669788413
  0
TEXT
  5
CA
330
17
100
AcDbEntity
  8
REFERENCE-SHEET
100
AcDbText
 10
824.7656689231492
 20
519.059935252427
 30
0.0
 40
25.0
  1
01 SHELL-LOW  (mark by hand)
 72
1
 11
824.7656689231492
 21
519.059935252427
 31
0.0
100
AcDbText
 73
2
  0
LWPOLYLINE
  5
CB
330
17
100
AcDbEntity
  8
CUT
100
AcDbPolyline
 90
4
 70
1
 10
533.4726707446393
 20
1200.119870504854
 10
390.0
 20
1026.1490604550058
 42
0.3591568323270878
 10
1259.5313378462984
 20
1026.1490604550056
 10
1116.058667101659
 20
1200.1198705048537
 42
-0.3591568323270878
  0
LWPOLYLINE
  5
CC
330
17
100
AcDbEntity
  8
POCKET-KERF-12.5
100
AcDbPolyline
 90
4
 70
1
 10
540.1191234601623
 20
1194.0913694699339
 10
535.4409102079411
 20
1197.8482725518274
 10
394.87011989375407
 20
1022.8051266978841
 10
399.5483331459753
 20
1019.0482236159904
  0
LWPOLYLINE
  5
CD
330
17
100
AcDbEntity
  8
POCKET-KERF-12.5
100
AcDbPolyline
 90
4
 70
1
 10
549.5631135503194
 20
1186.8063930401147
 10
544.7887282369567
 20
1190.4402951961372
 10
408.8202225657742
 20
1011.7987113878154
 10
413.5946078791369
 20
1008.1648092317927
  0
LWPOLYLINE
  5
CE
330
17
100
AcDbEntity
  8
POCKET-KERF-12.5
100
AcDbPolyline
 90
4
 70
1
 10
559.1934638782351
 20
1179.769619420932
 10
554.3261395971916
 20
1183.278059864087
 10
423.0519930158162
 20
1001.1590096817087
 10
427.9193172968597
 20
997.6505692385539
  0
LWPOLYLINE
  5
CF
330
17
100
AcDbEntity
  8
POCKET-KERF-12.5
100
AcDbPolyline
 90
4
 70
1
 10
569.0036530132695
 20
1172.9858137382155
 10
564.0466857939335
 20
1176.3664166410167
 10
437.5557938474495
 20
990.8932265175303
 10
442.51276106678546
 20
987.5126236147288
  0
LWPOLYLINE
  5
D0
330
17
100
AcDbEntity
  8
POCKET-KERF-12.5
100
AcDbPolyline
 90
4
 70
1
 10
578.9870377424727
 20
1166.459569814279
 10
573.9437843181722
 20
1169.710045917603
 10
452.3218034521222
 20
981.0083136250292
 10
457.36505687642256
 20
977.757837521705
  0
LWPOLYLINE
  5
D1
330
17
100
AcDbEntity
  8
POCKET-KERF-12.5
100
AcDbPolyline
 90
4
 70
1
 10
589.1368575692019
 20
1160.1953070571028
 10
584.0107331041092
 20
1163.313455220417
 10
467.3400226601066
 20
971.5109648182018
 10
472.46614712519926
 20
968.3928166548877
  0
LWPOLYLINE
  5
D2
330
17
100
AcDbEntity
  8
POCKET-KERF-12.5
100
AcDbPolyline
 90
4
 70
1
 10
599.4462392911585
 20
1154.1972674676206
 10
594.2407150676271
 20
1157.180976159539
 10
482.6002815116852
 20
962.4076114624085
 10
487.80580573521655
 20
959.4239027704901
  0
LWPOLYLINE
  5
D3
330
17
100
AcDbEntity
  8
POCKET-KERF-12.5
100
AcDbPolyline
 90
4
 70
1
 10
609.9082016547482
 20
1148.469512767143
 10
604.6268027226478
 20
1151.3167614953031
 10
498.0922461439909
 20
953.704418119215
 10
503.3736450760913
 20
950.8571693910549
  0
LWPOLYLINE
  5
D4
330
17
100
AcDbEntity
  8
POCKET-KERF-12.5
100
AcDbPolyline
 90
4
 70
1
 10
620.5156600826099
 20
1143.0159216468635
 10
615.1619628722514
 20
1145.724782326153
 10
513.8054257888393
 20
945.4072783719081
 10
519.1591229991977
 20
942.6984176926186
  0
LWPOLYLINE
  5
D5
330
17
100
AcDbEntity
  8
POCKET-KERF-12.5
100
AcDbPolyline
 90
4
 70
1
 10
631.261431471113
 20
1137.8401871413048
 10
625.8390613713802
 20
1140.4088253995114
 10
529.7291798768119
 20
937.5218108345076
 10
535.1515499765447
 20
934.953172576301
  0
LWPOLYLINE
  5
D6
330
17
100
AcDbEntity
  8
POCKET-KERF-12.5
100
AcDbPolyline
 90
4
 70
1
 10
642.1382390545747
 20
1132.94581412749
 10
636.6508679579018
 20
1135.372490547493
 10
545.8527252427822
 20
930.0533553469844
 10
551.340096339455
 20
927.6266789269813
  0
LWPOLYLINE
  5
D7
330
17
100
AcDbEntity
  8
POCKET-KERF-12.5
100
AcDbPolyline
 90
4
 70
1
 10
653.1387173329014
 20
1128.3361169515279
 10
647.5900611487606
 20
1130.6191882491876
 10
562.165143428003
 20
923.0069693592535
 10
567.7137996121438
 20
920.723898061594
  0
LWPOLYLINE
  5
D8
330
17
100
AcDbEntity
  8
POCKET-KERF-12.5
100
AcDbPolyline
 90
4
 70
1
 10
664.2554170593202
 20
1124.0142171842215
 10
658.6492331979009
 20
1126.1521373211683
 10
578.6553880738123
 20
916.3874245063971
 10
584.2615719352316
 20
914.2495043694505
  0
LWPOLYLINE
  5
D9
330
17
100
AcDbEntity
  8
POCKET-KERF-12.5
100
AcDbPolyline
 90
4
 70
1
 10
675.4808102848222
 20
1119.9830415072183
 10
669.8208951126077
 20
1121.9743627377927
 10
595.3122924019483
 20
910.1992033774344
 10
600.9722075741628
 20
908.20788214686
  0
LWPOLYLINE
  5
DA
330
17
100
AcDbEntity
  8
POCKET-KERF-12.5
100
AcDbPolyline
 90
4
 70
1
 10
686.8072954558982
 20
1116.2453197311359
 10
681.097481724862
 20
1118.0886935827648
 10
612.1245767764109
 20
904.4464964798235
 10
617.8343905074472
 20
902.6031226281946
  0
LWPOLYLINE
  5
DB
330
17
100
AcDbEntity
  8
POCKET-KERF-12.5
100
AcDbPolyline
 90
4
 70
1
 10
698.2272025621206
 20
1112.803582947002
 10
692.4713568142829
 20
1114.4977611333504
 10
629.0808563417468
 20
899.1331994017569
 10
634.8367020895845
 20
897.4390212154085
  0
LWPOLYLINE
  5
DC
330
17
100
AcDbEntity
  8
POCKET-KERF-12.5
100
AcDbPolyline
 90
4
 70
1
 10
709.7327983300806
 20
1109.6601618122659
 10
703.9348182791841
 20
1111.2039970785445
 10
646.1696487325868
 20
894.2629101741664
 10
651.9676287834833
 20
892.7190749078876
  0
LWPOLYLINE
  5
DD
330
17
100
AcDbEntity
  8
POCKET-KERF-12.5
100
AcDbPolyline
 90
4
 70
1
 10
721.3162914601663
 20
1106.8171849725313
 10
715.480103352242
 20
1108.2096318723895
 10
663.3793818492147
 20
889.8389268342275
 10
669.2155699571389
 20
888.4464799343693
  0
LWPOLYLINE
  5
DE
330
17
100
AcDbEntity
  8
POCKET-KERF-12.5
100
AcDbPolyline
 90
4
 70
1
 10
732.9698379026345
 20
1104.2765776200968
 10
727.0993938572475
 20
1105.5166932235716
 10
680.6984016939014
 20
885.8642451920116
 10
686.5688457392882
 20
884.6241295885368
  0
LWPOLYLINE
  5
DF
330
17
100
AcDbEntity
  8
POCKET-KERF-12.5
100
AcDbPolyline
 90
4
 70
1
 10
744.6855461694033
 20
1102.040060190259
 10
738.7848215033765
 20
1103.1270047223038
 10
698.1149802626984
 20
882.3415568017988
 10
704.0157049287253
 20
881.254612269754
  0
LWPOLYLINE
  5
E0
330
17
100
AcDbEntity
  8
POCKET-KERF-12.5
100
AcDbPolyline
 90
4
 70
1
 10
756.4554826779703
 20
1100.1091471962811
 10
750.5284732133997
 20
1101.0421846054405
 10
715.617323487347
 20
879.273247139426
 10
721.5443329519176
 20
878.3402097302663
  0
LWPOLYLINE
  5
E1
330
17
100
AcDbEntity
  8
POCKET-KERF-12.5
100
AcDbPolyline
 90
4
 70
1
 10
768.2716771238324
 20
1098.4851462038
 10
762.322396482218
 20
1099.2636446606452
 10
733.1935792219244
 20
876.661393986901
 10
739.142859863539
 20
875.8828955300557
  0
LWPOLYLINE
  5
E2
330
17
100
AcDbEntity
  8
POCKET-KERF-12.5
100
AcDbPolyline
 90
4
 70
1
 10
780.1261278777781
 20
1097.1691569453765
 10
774.1586047620993
 20
1097.792589270364
 10
750.8318452688176
 20
874.5077660253825
 10
756.7993683844963
 20
873.8843337003949
  0
LWPOLYLINE
  5
E3
330
17
100
AcDbEntity
  8
POCKET-KERF-12.5
100
AcDbPolyline
 90
4
 70
1
 10
792.0108074043867
 20
1096.1620705757853
 10
786.0290828709673
 20
1096.6300145962496
 10
768.5201774385924
 20
872.8138216374733
 10
774.5019019720118
 20
872.345877617009
  0
LWPOLYLINE
  5
E4
330
17
100
AcDbEntity
  8
POCKET-KERF-12.5
100
AcDbPolyline
 90
4
 70
1
 10
803.9176676980748
 20
1095.4645690685456
 10
797.9257924200807
 20
1095.7767079045846
 10
786.2465976382973
 20
871.5807079196401
 10
792.2384729162914
 20
871.2685690836014
  0
LWPOLYLINE
  5
E5
330
17
100
AcDbEntity
  8
POCKET-KERF-12.5
100
AcDbPolyline
 90
4
 70
1
 10
815.838645733002
 20
1095.0771247541072
 10
809.8406772574277
 20
1095.233247033164
 10
803.9991019827269
 20
870.8092599054283
 10
809.9970704583011
 20
870.6531376263719
  0
LWPOLYLINE
  5
E6
330
17
100
AcDbEntity
  8
POCKET-KERF-12.5
100
AcDbPolyline
 90
4
 70
1
 10
827.7656689231493
 20
1095.0
 10
821.7656689231493
 20
1095.0
 10
821.7656689231492
 20
870.5
 10
827.7656689231492
 20
870.5
  0
LWPOLYLINE
  5
E7
330
17
100
AcDbEntity
  8
POCKET-KERF-12.5
100
AcDbPolyline
 90
4
 70
1
 10
839.6906605888707
 20
1095.233247033164
 10
833.6926921132965
 20
1095.0771247541072
 10
839.5342673879973
 20
870.6531376263719
 10
845.5322358635715
 20
870.8092599054283
  0
LWPOLYLINE
  5
E8
330
17
100
AcDbEntity
  8
POCKET-KERF-12.5
100
AcDbPolyline
 90
4
 70
1
 10
851.6055454262178
 20
1095.7767079045843
 10
845.6136701482237
 20
1095.4645690685456
 10
857.292864930007
 20
871.2685690836013
 10
863.284740208001
 20
871.58070791964
  0
LWPOLYLINE
  5
E9
330
17
100
AcDbEntity
  8
POCKET-KERF-12.5
100
AcDbPolyline
 90
4
 70
1
 10
863.5022549753313
 20
1096.6300145962496
 10
857.520530441912
 20
1096.1620705757853
 10
875.0294358742868
 20
872.3458776170091
 10
881.0111604077063
 20
872.8138216374734
  0
LWPOLYLINE
  5
EA
330
17
100
AcDbEntity
  8
POCKET-KERF-12.5
100
AcDbPolyline
 90
4
 70
1
 10
875.3727330841992
 20
1097.792589270364
 10
869.4052099685204
 20
1097.1691569453765
 10
892.7319694618021
 20
873.8843337003949
 10
898.6994925774809
 20
874.5077660253825
  0
LWPOLYLINE
  5
EB
330
17
100
AcDbEntity
  8
POCKET-KERF-12.5
100
AcDbPolyline
 90
4
 70
1
 10
887.2089413640807
 20
1099.2636446606452
 10
881.2596607224662
 20
1098.4851462038
 10
910.3884779827596
 20
875.8828955300557
 10
916.3377586243741
 20
876.661393986901
  0
LWPOLYLINE
  5
EC
330
17
100
AcDbEntity
  8
POCKET-KERF-12.5
100
AcDbPolyline
 90
4
 70
1
 10
899.0028646328988
 20
1101.0421846054405
 10
893.0758551683283
 20
1100.1091471962811
 10
927.9870048943809
 20
878.3402097302662
 10
933.9140143589514
 20
879.2732471394258
  0
LWPOLYLINE
  5
ED
330
17
100
AcDbEntity
  8
POCKET-KERF-12.5
100
AcDbPolyline
 90
4
 70
1
 10
910.7465163429221
 20
1103.1270047223038
 10
904.8457916768951
 20
1102.040060190259
 10
945.5156329175732
 20
881.254612269754
 10
951.4163575836
 20
882.3415568017988
  0
LWPOLYLINE
  5
EE
330
17
100
AcDbEntity
  8
POCKET-KERF-12.5
100
AcDbPolyline
 90
4
 70
1
 10
922.431943989051
 20
1105.5166932235716
 10
916.5614999436641
 20
1104.2765776200968
 10
962.9624921070102
 20
884.6241295885368
 10
968.8329361523971
 20
885.8642451920116
  0
LWPOLYLINE
  5
EF
330
17
100
AcDbEntity
  8
POCKET-KERF-12.5
100
AcDbPolyline
 90
4
 70
1
 10
934.0512344940564
 20
1108.2096318723895
 10
928.2150463861323
 20
1106.8171849725313
 10
980.3157678891595
 20
888.4464799343693
 10
986.1519559970837
 20
889.8389268342275
  0
LWPOLYLINE
  5
F0
330
17
100
AcDbEntity
  8
POCKET-KERF-12.5
100
AcDbPolyline
 90
4
 70
1
 10
945.5965195671145
 20
1111.2039970785445
 10
939.7985395162179
 20
1109.6601618122656
 10
997.5637090628152
 20
892.7190749078876
 10
1003.3616891137117
 20
894.2629101741664
  0
LWPOLYLINE
  5
F1
330
17
100
AcDbEntity
  8
POCKET-KERF-12.5
100
AcDbPolyline
 90
4
 70
1
 10
957.0599810320156
 20
1114.4977611333504
 10
951.304135284178
 20
1112.803582947002
 10
1014.694635756714
 20
897.4390212154085
 10
1020.4504815045516
 20
899.1331994017569
  0
LWPOLYLINE
  5
F2
330
17
100
AcDbEntity
  8
POCKET-KERF-12.5
100
AcDbPolyline
 90
4
 70
1
 10
968.4338561214366
 20
1118.0886935827648
 10
962.7240423904003
 20
1116.2453197311359
 10
1031.6969473388515
 20
902.6031226281946
 10
1037.4067610698876
 20
904.4464964798235
  0
LWPOLYLINE
  5
F3
330
17
100
AcDbEntity
  8
POCKET-KERF-12.5
100
AcDbPolyline
 90
4
 70
1
 10
979.7104427336909
 20
1121.9743627377927
 10
974.0505275614763
 20
1119.983041507218
 10
1048.5591302721357
 20
908.20788214686
 10
1054.2190454443503
 20
910.1992033774344
  0
LWPOLYLINE
  5
F4
330
17
100
AcDbEntity
  8
POCKET-KERF-12.5
100
AcDbPolyline
 90
4
 70
1
 10
990.8821046483976
 20
1126.152137321168
 10
985.2759207869783
 20
1124.0142171842215
 10
1065.269765911067
 20
914.2495043694505
 10
1070.8759497724861
 20
916.3874245063971
  0
LWPOLYLINE
  5
F5
330
17
100
AcDbEntity
  8
POCKET-KERF-12.5
100
AcDbPolyline
 90
4
 70
1
 10
1001.941276697538
 20
1130.6191882491876
 10
996.3926205133972
 20
1128.3361169515279
 10
1081.8175382341547
 20
920.723898061594
 10
1087.3661944182954
 20
923.0069693592535
  0
LWPOLYLINE
  5
F6
330
17
100
AcDbEntity
  8
POCKET-KERF-12.5
100
AcDbPolyline
 90
4
 70
1
 10
1012.8804698883968
 20
1135.372490547493
 10
1007.3930987917239
 20
1132.94581412749
 10
1098.1912415068434
 20
927.6266789269813
 10
1103.6786126035165
 20
930.0533553469844
  0
LWPOLYLINE
  5
F7
330
17
100
AcDbEntity
  8
POCKET-KERF-12.5
100
AcDbPolyline
 90
4
 70
1
 10
1023.6922764749181
 20
1140.4088253995114
 10
1018.2699063751854
 20
1137.8401871413046
 10
1114.3797878697535
 20
934.953172576301
 10
1119.8021579694864
 20
937.5218108345076
  0
LWPOLYLINE
  5
F8
330
17
100
AcDbEntity
  8
POCKET-KERF-12.5
100
AcDbPolyline
 90
4
 70
1
 10
1034.369374974047
 20
1145.7247823261528
 10
1029.0156777636887
 20
1143.0159216468635
 10
1130.3722148471008
 20
942.6984176926185
 10
1135.7259120574593
 20
945.407278371908
  0
LWPOLYLINE
  5
F9
330
17
100
AcDbEntity
  8
POCKET-KERF-12.5
100
AcDbPolyline
 90
4
 70
1
 10
1044.904535123651
 20
1151.3167614953031
 10
1039.6231361915504
 20
1148.469512767143
 10
1146.1576927702074
 20
950.857169391055
 10
1151.4390917023077
 20
953.7044181192151
  0
LWPOLYLINE
  5
FA
330
17
100
AcDbEntity
  8
POCKET-KERF-12.5
100
AcDbPolyline
 90
4
 70
1
 10
1055.2906227786714
 20
1157.180976159539
 10
1050.0850985551401
 20
1154.1972674676206
 10
1161.725532111082
 20
959.42390277049
 10
1166.9310563346132
 20
962.4076114624083
  0
LWPOLYLINE
  5
FB
330
17
100
AcDbEntity
  8
POCKET-KERF-12.5
100
AcDbPolyline
 90
4
 70
1
 10
1065.5206047421893
 20
1163.3134552204167
 10
1060.3944802770966
 20
1160.1953070571026
 10
1177.065190721099
 20
968.3928166548877
 10
1182.1913151861916
 20
971.5109648182018
  0
LWPOLYLINE
  5
FC
330
17
100
AcDbEntity
  8
POCKET-KERF-12.5
100
AcDbPolyline
 90
4
 70
1
 10
1075.5875535281264
 20
1169.710045917603
 10
1070.544300103826
 20
1166.4595698142787
 10
1192.166280969876
 20
977.7578375217051
 10
1197.2095343941764
 20
981.0083136250294
  0
LWPOLYLINE
  5
FD
330
17
100
AcDbEntity
  8
POCKET-KERF-12.5
100
AcDbPolyline
 90
4
 70
1
 10
1085.484652052365
 20
1176.3664166410165
 10
1080.527684833029
 20
1172.9858137382153
 10
1207.018576779513
 20
987.5126236147288
 10
1211.9755439988492
 20
990.8932265175303
  0
LWPOLYLINE
  5
FE
330
17
100
AcDbEntity
  8
POCKET-KERF-12.5
100
AcDbPolyline
 90
4
 70
1
 10
1095.2051982491068
 20
1183.2780598640868
 10
1090.3378739680634
 20
1179.769619420932
 10
1221.612020549439
 20
997.6505692385538
 10
1226.4793448304824
 20
1001.1590096817085
  0
LWPOLYLINE
  5
FF
330
17
100
AcDbEntity
  8
POCKET-KERF-12.5
100
AcDbPolyline
 90
4
 70
1
 10
1104.7426096093418
 20
1190.440295196137
 10
1099.968224295979
 20
1186.8063930401142
 10
1235.9367299671612
 20
1008.1648092317924
 10
1240.7111152805242
 20
1011.7987113878152
  0
LWPOLYLINE
  5
100
330
17
100
AcDbEntity
  8
POCKET-KERF-12.5
100
AcDbPolyline
 90
4
 70
1
 10
1114.0904276383576
 20
1197.8482725518274
 10
1109.4122143861364
 20
1194.0913694699339
 10
1249.9830047003234
 20
1019.0482236159905
 10
1254.6612179525446
 20
1022.8051266978841
  0
TEXT
  5
101
330
17
100
AcDbEntity
  8
REFERENCE-SHEET
100
AcDbText
 10
824.7656689231492
 20
1035.0599352524268
 30
0.0
 40
25.0
  1
01 SHELL-LOW  (mark by hand)
 72
1
 11
824.7656689231492
 21
1035.0599352524268
 31
0.0
100
AcDbText
 73
2
  0
LWPOLYLINE
  5
102
330
17
100
AcDbEntity
  8
CUT
100
AcDbPolyline
 90
4
 70
1
 10
607.3867306092503
 20
264.95962418200236
 10
490.0
 20
122.6198705048539
 42
0.3591568323270878
 10
1072.58599635702
 20
122.61987050485374
 10
955.1992657477697
 20
264.95962418200224
 42
-0.3591568323270878
  0
LWPOLYLINE
  5
103
330
17
100
AcDbEntity
  8
POCKET-KERF-12.5
100
AcDbPolyline
 90
4
 70
1
 10
614.0165331140865
 20
259.0101826321337
 10
609.3064109785171
 20
262.72700243783027
 10
495.63367192096314
 20
118.67576712499708
 10
500.3437940565326
 20
114.95894731930052
  0
LWPOLYLINE
  5
104
330
17
100
AcDbEntity
  8
POCKET-KERF-12.5
100
AcDbPolyline
 90
4
 70
1
 10
623.5143114969677
 20
252.00397763240636
 10
618.6484142004066
 20
255.5143969092619
 10
511.28809131657505
 20
106.69903792276664
 10
516.1539886131361
 20
103.18861864591115
  0
LWPOLYLINE
  5
105
330
17
100
AcDbEntity
  8
POCKET-KERF-12.5
100
AcDbPolyline
 90
4
 70
1
 10
633.3051509887574
 20
245.41351750017452
 10
628.2925165406313
 20
248.7110159292052
 10
527.4440229194438
 20
95.40794572401556
 10
532.4566573675698
 20
92.11044729498495
  0
LWPOLYLINE
  5
106
330
17
100
AcDbEntity
  8
POCKET-KERF-12.5
100
AcDbPolyline
 90
4
 70
1
 10
643.3708658994938
 20
239.25104348040725
 10
638.2208048615828
 20
242.3294962258284
 10
544.0714583974519
 20
84.82346281638392
 10
549.2215194353629
 20
81.74501007096272
  0
LWPOLYLINE
  5
107
330
17
100
AcDbEntity
  8
POCKET-KERF-12.5
100
AcDbPolyline
 90
4
 70
1
 10
653.6927599804264
 20
233.52800186859497
 10
648.4148381732508
 20
236.38169095420676
 10
561.13951363829
 20
74.96524901808516
 10
566.4174354454657
 20
72.11155993247337
  0
LWPOLYLINE
  5
108
330
17
100
AcDbEntity
  8
POCKET-KERF-12.5
100
AcDbPolyline
 90
4
 70
1
 10
664.2516611507817
 20
228.25502275018445
 10
658.8556818858665
 20
230.87864768004854
 10
578.6164861141899
 20
65.85161516138939
 10
584.0124653791052
 20
63.22799023152536
  0
LWPOLYLINE
  5
109
330
17
100
AcDbEntity
  8
POCKET-KERF-12.5
100
AcDbPolyline
 90
4
 70
1
 10
675.0279571083479
 20
223.4419002560572
 10
669.5239429793669
 20
225.83058785973796
 10
596.4699137667967
 20
57.499489081737494
 10
601.9739278957777
 20
55.11080147805674
  0
LWPOLYLINE
  5
10A
330
17
100
AcDbEntity
  8
POCKET-KERF-12.5
100
AcDbPolyline
 90
4
 70
1
 10
686.0016317577337
 20
219.09757437072653
 10
680.3998060243554
 20
221.24688785480976
 10
614.6666353028097
 20
49.92438417566041
 10
620.2684610361879
 20
47.775070691577184
  0
LWPOLYLINE
  5
10B
330
17
100
AcDbEntity
  8
POCKET-KERF-12.5
100
AcDbPolyline
 90
4
 70
1
 10
697.152302388643
 20
215.2301143270412
 10
691.4630699876551
 20
217.13606151611785
 10
633.1728517883931
 20
43.14037058590421
 10
638.862084189381
 20
41.234423396827566
  0
LWPOLYLINE
  5
10C
330
17
100
AcDbEntity
  8
POCKET-KERF-12.5
100
AcDbPolyline
 90
4
 70
1
 10
708.4592575351047
 20
211.8467036182404
 10
702.6931857540877
 20
213.50574437004863
 10
651.9541894279533
 20
37.160049067281115
 10
657.7202612089703
 20
35.501008315472895
  0
LWPOLYLINE
  5
10D
330
17
100
AcDbEntity
  8
POCKET-KERF-12.5
100
AcDbPolyline
 90
4
 70
1
 10
719.9014954453406
 20
208.95362665519778
 10
714.0692942947894
 20
210.3626794361497
 10
670.9757634106762
 20
31.994527581789807
 10
676.8079645612274
 20
30.585474800837883
  0
LWPOLYLINE
  5
10E
330
17
100
AcDbEntity
  8
POCKET-KERF-12.5
100
AcDbPolyline
 90
4
 70
1
 10
731.457763090815
 20
206.55625709363824
 10
725.5702654111624
 20
207.71270470251875
 10
690.2022427062316
 20
27.653400666477594
 10
696.0897403858842
 20
26.496953057597082
  0
LWPOLYLINE
  5
10F
330
17
100
AcDbEntity
  8
POCKET-KERF-12.5
100
AcDbPolyline
 90
4
 70
1
 10
743.1065956420105
 20
204.65904785300825
 10
737.1747369825059
 20
205.56074228221405
 10
709.5979156892965
 20
24.144731612366105
 10
715.5297743488011
 20
23.2430371831603
  0
LWPOLYLINE
  5
110
330
17
100
AcDbEntity
  8
POCKET-KERF-12.5
100
AcDbPolyline
 90
4
 70
1
 10
754.8263563376087
 20
203.26552284553952
 10
748.8611546444221
 20
203.91078927082856
 10
729.1267564710005
 20
21.475037487542245
 10
735.091958164187
 20
20.829771062253208
  0
LWPOLYLINE
  5
111
330
17
100
AcDbEntity
  8
POCKET-KERF-12.5
100
AcDbPolyline
 90
4
 70
1
 10
766.5952766730169
 20
202.37827043086776
 10
760.6078118242983
 20
202.76591032220966
 10
748.7524918140929
 20
19.64927703223344
 10
754.7399566628114
 20
19.261637140891533
  0
LWPOLYLINE
  5
112
330
17
100
AcDbEntity
  8
POCKET-KERF-12.5
100
AcDbPolyline
 90
4
 70
1
 10
778.3914968336006
 20
201.99893860836474
 10
772.3928900595048
 20
202.12823195611307
 10
768.438668507536
 20
18.670841448349805
 10
774.4372752816319
 20
18.541548100601474
  0
LWPOLYLINE
  5
113
330
17
100
AcDbEntity
  8
POCKET-KERF-12.5
100
AcDbPolyline
 90
4
 70
1
 10
790.1931062975151
 20
202.12823195611307
 10
784.1944995234194
 20
201.99893860836474
 10
788.1487210753882
 20
18.541548100601474
 10
794.147327849484
 20
18.670841448349805
  0
LWPOLYLINE
  5
114
330
17
100
AcDbEntity
  8
POCKET-KERF-12.5
100
AcDbPolyline
 90
4
 70
1
 10
801.9781845327217
 20
202.76591032220966
 10
795.9907196840031
 20
202.37827043086776
 10
807.8460396942086
 20
19.261637140891533
 10
813.833504542927
 20
19.64927703223344
  0
LWPOLYLINE
  5
115
330
17
100
AcDbEntity
  8
POCKET-KERF-12.5
100
AcDbPolyline
 90
4
 70
1
 10
813.7248417125978
 20
203.91078927082856
 10
807.7596400194114
 20
203.26552284553952
 10
827.4940381928329
 20
20.829771062253208
 10
833.4592398860194
 20
21.475037487542245
  0
LWPOLYLINE
  5
116
330
17
100
AcDbEntity
  8
POCKET-KERF-12.5
100
AcDbPolyline
 90
4
 70
1
 10
825.4112593745141
 20
205.56074228221405
 10
819.4794007150095
 20
204.65904785300825
 10
847.0562220082189
 20
23.2430371831603
 10
852.9880806677235
 20
24.144731612366105
  0
LWPOLYLINE
  5
117
330
17
100
AcDbEntity
  8
POCKET-KERF-12.5
100
AcDbPolyline
 90
4
 70
1
 10
837.0157309458576
 20
207.71270470251875
 10
831.1282332662051
 20
206.55625709363824
 10
866.4962559711357
 20
26.496953057597082
 10
872.3837536507883
 20
27.653400666477594
  0
LWPOLYLINE
  5
118
330
17
100
AcDbEntity
  8
POCKET-KERF-12.5
100
AcDbPolyline
 90
4
 70
1
 10
848.5167020622306
 20
210.3626794361497
 10
842.6845009116794
 20
208.95362665519778
 10
885.7780317957926
 20
30.585474800837883
 10
891.6102329463438
 20
31.994527581789807
  0
LWPOLYLINE
  5
119
330
17
100
AcDbEntity
  8
POCKET-KERF-12.5
100
AcDbPolyline
 90
4
 70
1
 10
859.8928106029323
 20
213.50574437004863
 10
854.1267388219153
 20
211.8467036182404
 10
904.8657351480497
 20
35.501008315472895
 10
910.6318069290666
 20
37.160049067281115
  0
LWPOLYLINE
  5
11A
330
17
100
AcDbEntity
  8
POCKET-KERF-12.5
100
AcDbPolyline
 90
4
 70
1
 10
871.122926369365
 20
217.13606151611785
 10
865.433693968377
 20
215.2301143270412
 10
923.723912167639
 20
41.234423396827566
 10
929.4131445686269
 20
43.14037058590421
  0
LWPOLYLINE
  5
11B
330
17
100
AcDbEntity
  8
POCKET-KERF-12.5
100
AcDbPolyline
 90
4
 70
1
 10
882.1861903326646
 20
221.24688785480976
 10
876.5843645992865
 20
219.09757437072653
 10
942.317535320832
 20
47.775070691577184
 10
947.9193610542102
 20
49.92438417566041
  0
LWPOLYLINE
  5
11C
330
17
100
AcDbEntity
  8
POCKET-KERF-12.5
100
AcDbPolyline
 90
4
 70
1
 10
893.0620533776531
 20
225.83058785973793
 10
887.5580392486721
 20
223.44190025605718
 10
960.6120684612422
 20
55.110801478056686
 10
966.1160825902232
 20
57.49948908173744
  0
LWPOLYLINE
  5
11D
330
17
100
AcDbEntity
  8
POCKET-KERF-12.5
100
AcDbPolyline
 90
4
 70
1
 10
903.7303144711535
 20
230.87864768004846
 10
898.3343352062383
 20
228.25502275018437
 10
978.5735309779147
 20
63.227990231525304
 10
983.96951024283
 20
65.85161516138933
  0
LWPOLYLINE
  5
11E
330
17
100
AcDbEntity
  8
POCKET-KERF-12.5
100
AcDbPolyline
 90
4
 70
1
 10
914.1711581837693
 20
236.38169095420668
 10
908.8932363765937
 20
233.52800186859488
 10
996.1685609115541
 20
72.11155993247337
 10
1001.4464827187297
 20
74.96524901808516
  0
LWPOLYLINE
  5
11F
330
17
100
AcDbEntity
  8
POCKET-KERF-12.5
100
AcDbPolyline
 90
4
 70
1
 10
924.3651914954372
 20
242.32949622582828
 10
919.2151304575262
 20
239.25104348040713
 10
1013.364476921657
 20
81.7450100709626
 10
1018.514537959568
 20
84.8234628163837
  0
LWPOLYLINE
  5
120
330
17
100
AcDbEntity
  8
POCKET-KERF-12.5
100
AcDbPolyline
 90
4
 70
1
 10
934.2934798163889
 20
248.71101592920513
 10
929.2808453682627
 20
245.41351750017446
 10
1030.1293389894502
 20
92.11044729498482
 10
1035.1419734375763
 20
95.40794572401543
  0
LWPOLYLINE
  5
121
330
17
100
AcDbEntity
  8
POCKET-KERF-12.5
100
AcDbPolyline
 90
4
 70
1
 10
943.9375821566135
 20
255.51439690926182
 10
939.0716848600523
 20
252.00397763240628
 10
1046.4320077438838
 20
103.18861864591098
 10
1051.297905040445
 20
106.69903792276646
  0
LWPOLYLINE
  5
122
330
17
100
AcDbEntity
  8
POCKET-KERF-12.5
100
AcDbPolyline
 90
4
 70
1
 10
953.279585378503
 20
262.72700243783027
 10
948.5694632429336
 20
259.01018263213365
 10
1062.2422023004874
 20
114.95894731930046
 10
1066.9523244360569
 20
118.67576712499702
  0
TEXT
  5
123
330
17
100
AcDbEntity
  8
REFERENCE-SHEET
100
AcDbText
 10
781.29299817851
 20
141.47981209100118
 30
0.0
 40
25.0
  1
02 SHELL-UP  (mark by hand)
 72
1
 11
781.29299817851
 21
141.47981209100118
 31
0.0
100
AcDbText
 73
2
  0
LWPOLYLINE
  5
124
330
17
100
AcDbEntity
  8
CUT
100
AcDbPolyline
 90
4
 70
1
 10
643.3867306092503
 20
852.9596241820024
 10
526.0
 20
710.6198705048539
 42
0.3591568323270878
 10
1108.58599635702
 20
710.6198705048537
 10
991.1992657477697
 20
852.9596241820022
 42
-0.3591568323270878
  0
LWPOLYLINE
  5
125
330
17
100
AcDbEntity
  8
POCKET-KERF-12.5
100
AcDbPolyline
 90
4
 70
1
 10
650.0165331140865
 20
847.0101826321337
 10
645.3064109785171
 20
850.7270024378303
 10
531.6336719209631
 20
706.6757671249972
 10
536.3437940565326
 20
702.9589473193006
  0
LWPOLYLINE
  5
126
330
17
100
AcDbEntity
  8
POCKET-KERF-12.5
100
AcDbPolyline
 90
4
 70
1
 10
659.5143114969677
 20
840.0039776324063
 10
654.6484142004066
 20
843.5143969092619
 10
547.288091316575
 20
694.6990379227667
 10
552.1539886131361
 20
691.1886186459111
  0
LWPOLYLINE
  5
127
330
17
100
AcDbEntity
  8
POCKET-KERF-12.5
100
AcDbPolyline
 90
4
 70
1
 10
669.3051509887574
 20
833.4135175001745
 10
664.2925165406313
 20
836.7110159292052
 10
563.4440229194438
 20
683.4079457240156
 10
568.4566573675698
 20
680.110447294985
  0
LWPOLYLINE
  5
128
330
17
100
AcDbEntity
  8
POCKET-KERF-12.5
100
AcDbPolyline
 90
4
 70
1
 10
679.3708658994938
 20
827.2510434804072
 10
674.2208048615828
 20
830.3294962258284
 10
580.0714583974519
 20
672.823462816384
 10
585.2215194353629
 20
669.7450100709627
  0
LWPOLYLINE
  5
129
330
17
100
AcDbEntity
  8
POCKET-KERF-12.5
100
AcDbPolyline
 90
4
 70
1
 10
689.6927599804264
 20
821.528001868595
 10
684.4148381732508
 20
824.3816909542069
 10
597.13951363829
 20
662.965249018085
 10
602.4174354454657
 20
660.1115599324734
  0
LWPOLYLINE
  5
12A
330
17
100
AcDbEntity
  8
POCKET-KERF-12.5
100
AcDbPolyline
 90
4
 70
1
 10
700.2516611507817
 20
816.2550227501845
 10
694.8556818858665
 20
818.8786476800485
 10
614.6164861141899
 20
653.8516151613894
 10
620.0124653791052
 20
651.2279902315254
  0
LWPOLYLINE
  5
12B
330
17
100
AcDbEntity
  8
POCKET-KERF-12.5
100
AcDbPolyline
 90
4
 70
1
 10
711.0279571083479
 20
811.4419002560572
 10
705.5239429793669
 20
813.830587859738
 10
632.4699137667967
 20
645.4994890817375
 10
637.9739278957777
 20
643.1108014780567
  0
LWPOLYLINE
  5
12C
330
17
100
AcDbEntity
  8
POCKET-KERF-12.5
100
AcDbPolyline
 90
4
 70
1
 10
722.0016317577337
 20
807.0975743707266
 10
716.3998060243554
 20
809.2468878548099
 10
650.6666353028097
 20
637.9243841756603
 10
656.2684610361879
 20
635.7750706915771
  0
LWPOLYLINE
  5
12D
330
17
100
AcDbEntity
  8
POCKET-KERF-12.5
100
AcDbPolyline
 90
4
 70
1
 10
733.152302388643
 20
803.2301143270412
 10
727.4630699876551
 20
805.1360615161178
 10
669.1728517883931
 20
631.1403705859042
 10
674.862084189381
 20
629.2344233968275
  0
LWPOLYLINE
  5
12E
330
17
100
AcDbEntity
  8
POCKET-KERF-12.5
100
AcDbPolyline
 90
4
 70
1
 10
744.4592575351047
 20
799.8467036182404
 10
738.6931857540877
 20
801.5057443700487
 10
687.9541894279533
 20
625.1600490672811
 10
693.7202612089703
 20
623.5010083154729
  0
LWPOLYLINE
  5
12F
330
17
100
AcDbEntity
  8
POCKET-KERF-12.5
100
AcDbPolyline
 90
4
 70
1
 10
755.9014954453406
 20
796.9536266551978
 10
750.0692942947894
 20
798.3626794361497
 10
706.9757634106762
 20
619.9945275817898
 10
712.8079645612274
 20
618.5854748008379
  0
LWPOLYLINE
  5
130
330
17
100
AcDbEntity
  8
POCKET-KERF-12.5
100
AcDbPolyline
 90
4
 70
1
 10
767.457763090815
 20
794.5562570936382
 10
761.5702654111624
 20
795.7127047025187
 10
726.2022427062316
 20
615.6534006664775
 10
732.0897403858842
 20
614.4969530575971
  0
LWPOLYLINE
  5
131
330
17
100
AcDbEntity
  8
POCKET-KERF-12.5
100
AcDbPolyline
 90
4
 70
1
 10
779.1065956420105
 20
792.6590478530082
 10
773.1747369825059
 20
793.560742282214
 10
745.5979156892965
 20
612.1447316123661
 10
751.5297743488011
 20
611.2430371831604
  0
LWPOLYLINE
  5
132
330
17
100
AcDbEntity
  8
POCKET-KERF-12.5
100
AcDbPolyline
 90
4
 70
1
 10
790.8263563376087
 20
791.2655228455394
 10
784.8611546444221
 20
791.9107892708284
 10
765.1267564710005
 20
609.4750374875423
 10
771.091958164187
 20
608.8297710622533
  0
LWPOLYLINE
  5
133
330
17
100
AcDbEntity
  8
POCKET-KERF-12.5
100
AcDbPolyline
 90
4
 70
1
 10
802.5952766730169
 20
790.3782704308678
 10
796.6078118242983
 20
790.7659103222097
 10
784.7524918140929
 20
607.6492770322334
 10
790.7399566628114
 20
607.2616371408915
  0
LWPOLYLINE
  5
134
330
17
100
AcDbEntity
  8
POCKET-KERF-12.5
100
AcDbPolyline
 90
4
 70
1
 10
814.3914968336006
 20
789.9989386083647
 10
808.3928900595048
 20
790.1282319561132
 10
804.438668507536
 20
606.6708414483497
 10
810.4372752816319
 20
606.5415481006015
  0
LWPOLYLINE
  5
135
330
17
100
AcDbEntity
  8
POCKET-KERF-12.5
100
AcDbPolyline
 90
4
 70
1
 10
826.1931062975151
 20
790.1282319561132
 10
820.1944995234194
 20
789.9989386083647
 10
824.1487210753882
 20
606.5415481006015
 10
830.147327849484
 20
606.6708414483497
  0
LWPOLYLINE
  5
136
330
17
100
AcDbEntity
  8
POCKET-KERF-12.5
100
AcDbPolyline
 90
4
 70
1
 10
837.9781845327217
 20
790.7659103222097
 10
831.9907196840031
 20
790.3782704308678
 10
843.8460396942086
 20
607.2616371408915
 10
849.833504542927
 20
607.6492770322334
  0
LWPOLYLINE
  5
137
330
17
100
AcDbEntity
  8
POCKET-KERF-12.5
100
AcDbPolyline
 90
4
 70
1
 10
849.7248417125978
 20
791.9107892708284
 10
843.7596400194114
 20
791.2655228455394
 10
863.4940381928329
 20
608.8297710622533
 10
869.4592398860194
 20
609.4750374875423
  0
LWPOLYLINE
  5
138
330
17
100
AcDbEntity
  8
POCKET-KERF-12.5
100
AcDbPolyline
 90
4
 70
1
 10
861.4112593745141
 20
793.560742282214
 10
855.4794007150095
 20
792.6590478530082
 10
883.0562220082189
 20
611.2430371831604
 10
888.9880806677235
 20
612.1447316123661
  0
LWPOLYLINE
  5
139
330
17
100
AcDbEntity
  8
POCKET-KERF-12.5
100
AcDbPolyline
 90
4
 70
1
 10
873.0157309458576
 20
795.7127047025187
 10
867.1282332662051
 20
794.5562570936382
 10
902.4962559711357
 20
614.4969530575971
 10
908.3837536507883
 20
615.6534006664775
  0
LWPOLYLINE
  5
13A
330
17
100
AcDbEntity
  8
POCKET-KERF-12.5
100
AcDbPolyline
 90
4
 70
1
 10
884.5167020622306
 20
798.3626794361497
 10
878.6845009116794
 20
796.9536266551978
 10
921.7780317957926
 20
618.5854748008379
 10
927.6102329463438
 20
619.9945275817898
  0
LWPOLYLINE
  5
13B
330
17
100
AcDbEntity
  8
POCKET-KERF-12.5
100
AcDbPolyline
 90
4
 70
1
 10
895.8928106029323
 20
801.5057443700487
 10
890.1267388219153
 20
799.8467036182404
 10
940.8657351480497
 20
623.5010083154729
 10
946.6318069290666
 20
625.1600490672811
  0
LWPOLYLINE
  5
13C
330
17
100
AcDbEntity
  8
POCKET-KERF-12.5
100
AcDbPolyline
 90
4
 70
1
 10
907.122926369365
 20
805.1360615161178
 10
901.433693968377
 20
803.2301143270412
 10
959.723912167639
 20
629.2344233968275
 10
965.4131445686269
 20
631.1403705859042
  0
LWPOLYLINE
  5
13D
330
17
100
AcDbEntity
  8
POCKET-KERF-12.5
100
AcDbPolyline
 90
4
 70
1
 10
918.1861903326646
 20
809.2468878548099
 10
912.5843645992865
 20
807.0975743707266
 10
978.317535320832
 20
635.7750706915771
 10
983.9193610542102
 20
637.9243841756603
  0
LWPOLYLINE
  5
13E
330
17
100
AcDbEntity
  8
POCKET-KERF-12.5
100
AcDbPolyline
 90
4
 70
1
 10
929.0620533776531
 20
813.830587859738
 10
923.5580392486721
 20
811.4419002560572
 10
996.6120684612422
 20
643.1108014780566
 10
1002.1160825902232
 20
645.4994890817375
  0
LWPOLYLINE
  5
13F
330
17
100
AcDbEntity
  8
POCKET-KERF-12.5
100
AcDbPolyline
 90
4
 70
1
 10
939.7303144711535
 20
818.8786476800484
 10
934.3343352062383
 20
816.2550227501844
 10
1014.5735309779147
 20
651.2279902315254
 10
1019.96951024283
 20
653.8516151613894
  0
LWPOLYLINE
  5
140
330
17
100
AcDbEntity
  8
POCKET-KERF-12.5
100
AcDbPolyline
 90
4
 70
1
 10
950.1711581837693
 20
824.3816909542068
 10
944.8932363765937
 20
821.528001868595
 10
1032.168560911554
 20
660.1115599324734
 10
1037.4464827187296
 20
662.965249018085
  0
LWPOLYLINE
  5
141
330
17
100
AcDbEntity
  8
POCKET-KERF-12.5
100
AcDbPolyline
 90
4
 70
1
 10
960.3651914954372
 20
830.3294962258283
 10
955.2151304575262
 20
827.2510434804071
 10
1049.364476921657
 20
669.7450100709626
 10
1054.514537959568
 20
672.8234628163838
  0
LWPOLYLINE
  5
142
330
17
100
AcDbEntity
  8
POCKET-KERF-12.5
100
AcDbPolyline
 90
4
 70
1
 10
970.2934798163889
 20
836.7110159292051
 10
965.2808453682627
 20
833.4135175001745
 10
1066.1293389894502
 20
680.1104472949847
 10
1071.1419734375763
 20
683.4079457240153
  0
LWPOLYLINE
  5
143
330
17
100
AcDbEntity
  8
POCKET-KERF-12.5
100
AcDbPolyline
 90
4
 70
1
 10
979.9375821566135
 20
843.5143969092618
 10
975.0716848600523
 20
840.0039776324062
 10
1082.4320077438838
 20
691.188618645911
 10
1087.297905040445
 20
694.6990379227665
  0
LWPOLYLINE
  5
144
330
17
100
AcDbEntity
  8
POCKET-KERF-12.5
100
AcDbPolyline
 90
4
 70
1
 10
989.279585378503
 20
850.7270024378303
 10
984.5694632429336
 20
847.0101826321337
 10
1098.2422023004874
 20
702.9589473193005
 10
1102.9523244360569
 20
706.675767124997
  0
TEXT
  5
145
330
17
100
AcDbEntity
  8
REFERENCE-SHEET
100
AcDbText
 10
817.29299817851
 20
729.4798120910011
 30
0.0
 40
25.0
  1
02 SHELL-UP  (mark by hand)
 72
1
 11
817.29299817851
 21
729.4798120910011
 31
0.0
100
AcDbText
 73
2
  0
LWPOLYLINE
  5
146
330
17
100
AcDbEntity
  8
CUT
100
AcDbPolyline
 90
2
 70
1
 10
1326.0
 20
260.0
 42
1.0
 10
1026.0
 20
260.0
 42
1.0
  0
TEXT
  5
147
330
17
100
AcDbEntity
  8
ENGRAVE-LABEL
100
AcDbText
 10
1176.0
 20
260.0
 30
0.0
 40
22.0
  1
08 SUB-TOP 1/2
 72
1
 11
1176.0
 21
260.0
 31
0.0
100
AcDbText
 73
2
  0
LWPOLYLINE
  5
148
330
17
100
AcDbEntity
  8
CUT
100
AcDbPolyline
 90
2
 70
1
 10
1390.0
 20
812.0
 42
1.0
 10
1090.0
 20
812.0
 42
1.0
  0
TEXT
  5
149
330
17
100
AcDbEntity
  8
ENGRAVE-LABEL
100
AcDbText
 10
1240.0
 20
812.0
 30
0.0
 40
22.0
  1
08 SUB-TOP 2/2
 72
1
 11
1240.0
 21
812.0
 31
0.0
100
AcDbText
 73
2
  0
LWPOLYLINE
  5
14A
330
17
100
AcDbEntity
  8
CUT
100
AcDbPolyline
 90
2
 70
1
 10
1531.375
 20
458.6875
 42
1.0
 10
1266.0
 20
458.6875
 42
1.0
  0
LWPOLYLINE
  5
14B
330
17
100
AcDbEntity
  8
CUT
100
AcDbPolyline
 90
2
 70
1
 10
1296.0
 20
458.6875
 42
-1.0
 10
1501.375
 20
458.6875
 42
-1.0
  0
TEXT
  5
14C
330
17
100
AcDbEntity
  8
ENGRAVE-LABEL
100
AcDbText
 10
1281.0032133356021
 20
458.7529381656435
 30
0.0
 40
7.0
  1
07 COLLAR 1/2
 50
90.0
 72
1
 11
1281.0032133356021
 21
458.7529381656435
 31
0.0
100
AcDbText
 73
2
  0
LWPOLYLINE
  5
14D
330
17
100
AcDbEntity
  8
CUT
100
AcDbPolyline
 90
2
 70
1
 10
1535.375
 20
1062.6875
 42
1.0
 10
1270.0
 20
1062.6875
 42
1.0
  0
LWPOLYLINE
  5
14E
330
17
100
AcDbEntity
  8
CUT
100
AcDbPolyline
 90
2
 70
1
 10
1300.0
 20
1062.6875
 42
-1.0
 10
1505.375
 20
1062.6875
 42
-1.0
  0
TEXT
  5
14F
330
17
100
AcDbEntity
  8
ENGRAVE-LABEL
100
AcDbText
 10
1285.0032133356021
 20
1062.7529381656436
 30
0.0
 40
7.0
  1
07 COLLAR 2/2
 50
90.0
 72
1
 11
1285.0032133356021
 21
1062.7529381656436
 31
0.0
100
AcDbText
 73
2
  0
LWPOLYLINE
  5
150
330
17
100
AcDbEntity
  8
CUT
100
AcDbPolyline
 90
2
 70
1
 10
1583.5
 20
148.75
 42
1.0
 10
1322.0
 20
148.75
 42
1.0
  0
TEXT
  5
151
330
17
100
AcDbEntity
  8
ENGRAVE-LABEL
100
AcDbText
 10
1452.75
 20
148.75
 30
0.0
 40
18.0
  1
03 FORMER-BASE 1/2
 72
1
 11
1452.75
 21
148.75
 31
0.0
100
AcDbText
 73
2
  0
LWPOLYLINE
  5
152
330
17
100
AcDbEntity
  8
CUT
100
AcDbPolyline
 90
2
 70
1
 10
1651.5
 20
708.75
 42
1.0
 10
1390.0
 20
708.75
 42
1.0
  0
TEXT
  5
153
330
17
100
AcDbEntity
  8
ENGRAVE-LABEL
100
AcDbText
 10
1520.75
 20
708.75
 30
0.0
 40
18.0
  1
03 FORMER-BASE 2/2
 72
1
 11
1520.75
 21
708.75
 31
0.0
100
AcDbText
 73
2
  0
LWPOLYLINE
  5
154
330
17
100
AcDbEntity
  8
CUT
100
AcDbPolyline
 90
2
 70
1
 10
187.25
 20
1094.625
 42
1.0
 10
18.0
 20
1094.625
 42
1.0
  0
LWPOLYLINE
  5
155
330
17
100
AcDbEntity
  8
CUT
100
AcDbPolyline
 90
2
 70
1
 10
53.0
 20
1094.625
 42
-1.0
 10
152.25
 20
1094.625
 42
-1.0
  0
TEXT
  5
156
330
17
100
AcDbEntity
  8
ENGRAVE-LABEL
100
AcDbText
 10
35.50321333560222
 20
1094.6904381656436
 30
0.0
 40
14.0
  1
04 1/2
 50
90.0
 72
1
 11
35.50321333560222
 21
1094.6904381656436
 31
0.0
100
AcDbText
 73
2
  0
LWPOLYLINE
  5
157
330
17
100
AcDbEntity
  8
CUT
100
AcDbPolyline
 90
2
 70
1
 10
1483.25
 20
458.625
 42
1.0
 10
1314.0
 20
458.625
 42
1.0
  0
LWPOLYLINE
  5
158
330
17
100
AcDbEntity
  8
CUT
100
AcDbPolyline
 90
2
 70
1
 10
1349.0
 20
458.625
 42
-1.0
 10
1448.25
 20
458.625
 42
-1.0
  0
TEXT
  5
159
330
17
100
AcDbEntity
  8
ENGRAVE-LABEL
100
AcDbText
 10
1331.5032133356021
 20
458.6904381656436
 30
0.0
 40
14.0
  1
04 2/2
 50
90.0
 72
1
 11
1331.5032133356021
 21
458.6904381656436
 31
0.0
100
AcDbText
 73
2
  0
LWPOLYLINE
  5
15A
330
17
100
AcDbEntity
  8
CUT
100
AcDbPolyline
 90
2
 70
1
 10
1480.5
 20
1059.25
 42
1.0
 10
1318.0
 20
1059.25
 42
1.0
  0
LWPOLYLINE
  5
15B
330
17
100
AcDbEntity
  8
CUT
100
AcDbPolyline
 90
2
 70
1
 10
1353.0
 20
1059.25
 42
-1.0
 10
1445.5
 20
1059.25
 42
-1.0
  0
TEXT
  5
15C
330
17
100
AcDbEntity
  8
ENGRAVE-LABEL
100
AcDbText
 10
1335.5032133356021
 20
1059.3154381656436
 30
0.0
 40
14.0
  1
05 1/2
 50
90.0
 72
1
 11
1335.5032133356021
 21
1059.3154381656436
 31
0.0
100
AcDbText
 73
2
  0
LWPOLYLINE
  5
15D
330
17
100
AcDbEntity
  8
CUT
100
AcDbPolyline
 90
2
 70
1
 10
1672.5
 20
331.25
 42
1.0
 10
1510.0
 20
331.25
 42
1.0
  0
LWPOLYLINE
  5
15E
330
17
100
AcDbEntity
  8
CUT
100
AcDbPolyline
 90
2
 70
1
 10
1545.0
 20
331.25
 42
-1.0
 10
1637.5
 20
331.25
 42
-1.0
  0
TEXT
  5
15F
330
17
100
AcDbEntity
  8
ENGRAVE-LABEL
100
AcDbText
 10
1527.5032133356021
 20
331.3154381656436
 30
0.0
 40
14.0
  1
05 2/2
 50
90.0
 72
1
 11
1527.5032133356021
 21
331.3154381656436
 31
0.0
100
AcDbText
 73
2
  0
LWPOLYLINE
  5
160
330
17
100
AcDbEntity
  8
CUT
100
AcDbPolyline
 90
2
 70
1
 10
106.25
 20
502.125
 42
1.0
 10
18.0
 20
502.125
 42
1.0
  0
TEXT
  5
161
330
17
100
AcDbEntity
  8
ENGRAVE-LABEL
100
AcDbText
 10
62.125
 20
502.125
 30
0.0
 40
18.0
  1
06 1/2
 72
1
 11
62.125
 21
502.125
 31
0.0
100
AcDbText
 73
2
  0
LWPOLYLINE
  5
162
330
17
100
AcDbEntity
  8
CUT
100
AcDbPolyline
 90
2
 70
1
 10
278.25
 20
1154.125
 42
1.0
 10
190.0
 20
1154.125
 42
1.0
  0
TEXT
  5
163
330
17
100
AcDbEntity
  8
ENGRAVE-LABEL
100
AcDbText
 10
234.125
 20
1154.125
 30
0.0
 40
18.0
  1
06 2/2
 72
1
 11
234.125
 21
1154.125
 31
0.0
100
AcDbText
 73
2
  0
ENDSEC
  0
SECTION
  2
OBJECTS
  0
DICTIONARY
  5
A
330
0
100
AcDbDictionary
281
1
  3
ACAD_COLOR
350
B
  3
ACAD_GROUP
350
C
  3
ACAD_LAYOUT
350
D
  3
ACAD_MATERIAL
350
E
  3
ACAD_MLEADERSTYLE
350
F
  3
ACAD_MLINESTYLE
350
10
  3
ACAD_PLOTSETTINGS
350
11
  3
ACAD_PLOTSTYLENAME
350
12
  3
ACAD_SCALELIST
350
14
  3
ACAD_TABLESTYLE
350
15
  3
ACAD_VISUALSTYLE
350
16
  3
EZDXF_META
350
2D
  0
DICTIONARY
  5
B
330
A
100
AcDbDictionary
281
1
  0
DICTIONARY
  5
C
330
A
100
AcDbDictionary
281
1
  0
DICTIONARY
  5
D
330
A
100
AcDbDictionary
281
1
  3
Model
350
1A
  3
Layout1
350
1E
  0
DICTIONARY
  5
E
330
A
100
AcDbDictionary
281
1
  3
ByBlock
350
1F
  3
ByLayer
350
20
  3
Global
350
21
  0
DICTIONARY
  5
F
330
A
100
AcDbDictionary
281
1
  3
Standard
350
2C
  0
DICTIONARY
  5
10
330
A
100
AcDbDictionary
281
1
  3
Standard
350
22
  0
DICTIONARY
  5
11
330
A
100
AcDbDictionary
281
1
  0
ACDBDICTIONARYWDFLT
  5
12
330
A
100
AcDbDictionary
281
1
  3
Normal
350
13
100
AcDbDictionaryWithDefault
340
13
  0
ACDBPLACEHOLDER
  5
13
330
12
  0
DICTIONARY
  5
14
330
A
100
AcDbDictionary
281
1
  0
DICTIONARY
  5
15
330
A
100
AcDbDictionary
281
1
  0
DICTIONARY
  5
16
330
A
100
AcDbDictionary
281
1
  3
2dWireframe
350
5A
  3
Basic
350
5B
  3
Brighten
350
5C
  3
ColorChange
350
5D
  3
Conceptual
350
5E
  3
Dim
350
5F
  3
EdgeColorOff
350
60
  3
Facepattern
350
61
  3
Flat
350
62
  3
FlatWithEdges
350
63
  3
Gouraud
350
64
  3
GouraudWithEdges
350
65
  3
Hidden
350
66
  3
JitterOff
350
67
  3
Linepattern
350
68
  3
Modeling
350
69
  3
OverhangOff
350
6A
  3
Realistic
350
6B
  3
Shaded
350
6C
  3
Shaded with edges
350
6D
  3
Shades of Gray
350
6E
  3
Sketchy
350
6F
  3
Thicken
350
70
  3
Wireframe
350
71
  3
X-Ray
350
72
  0
LAYOUT
  5
1A
330
D
100
AcDbPlotSettings
  1

  4
A3
  6

 40
7.5
 41
20.0
 42
7.5
 43
20.0
 44
420.0
 45
297.0
 46
0.0
 47
0.0
 48
0.0
 49
0.0
140
0.0
141
0.0
142
1.0
143
1.0
 70
1024
 72
1
 73
0
 74
5
  7

 75
16
 76
0
 77
2
 78
300
147
1.0
148
0.0
149
0.0
100
AcDbLayout
  1
Model
 70
1
 71
0
 10
0.0
 20
0.0
 11
420.0
 21
297.0
 12
0.0
 22
0.0
 32
0.0
 14
1e+20
 24
1e+20
 34
1e+20
 15
-1e+20
 25
-1e+20
 35
-1e+20
146
0.0
 13
0.0
 23
0.0
 33
0.0
 16
1.0
 26
0.0
 36
0.0
 17
0.0
 27
1.0
 37
0.0
 76
1
330
17
  0
LAYOUT
  5
1E
330
D
100
AcDbPlotSettings
  1

  4
A3
  6

 40
7.5
 41
20.0
 42
7.5
 43
20.0
 44
420.0
 45
297.0
 46
0.0
 47
0.0
 48
0.0
 49
0.0
140
0.0
141
0.0
142
1.0
143
1.0
 70
0
 72
1
 73
0
 74
5
  7

 75
16
 76
0
 77
2
 78
300
147
1.0
148
0.0
149
0.0
100
AcDbLayout
  1
Layout1
 70
1
 71
1
 10
0.0
 20
0.0
 11
420.0
 21
297.0
 12
0.0
 22
0.0
 32
0.0
 14
1e+20
 24
1e+20
 34
1e+20
 15
-1e+20
 25
-1e+20
 35
-1e+20
146
0.0
 13
0.0
 23
0.0
 33
0.0
 16
1.0
 26
0.0
 36
0.0
 17
0.0
 27
1.0
 37
0.0
 76
1
330
1B
  0
MATERIAL
  5
1F
102
{ACAD_REACTORS
330
E
102
}
330
E
100
AcDbMaterial
  1
ByBlock
  2

 70
0
 40
1.0
 71
1
 41
1.0
 91
-1023410177
 42
1.0
 72
1
  3

 73
1
 74
1
 75
1
 44
0.5
 73
0
 45
1.0
 46
1.0
 77
1
  4

 78
1
 79
1
170
1
 48
1.0
171
1
  6

172
1
173
1
174
1
140
1.0
141
1.0
175
1
  7

176
1
177
1
178
1
143
1.0
179
1
  8

270
1
271
1
272
1
145
1.0
146
1.0
273
1
  9

274
1
275
1
276
1
 42
1.0
 72
1
  3

 73
1
 74
1
 75
1
 94
63
  0
MATERIAL
  5
20
102
{ACAD_REACTORS
330
E
102
}
330
E
100
AcDbMaterial
  1
ByLayer
  2

 70
0
 40
1.0
 71
1
 41
1.0
 91
-1023410177
 42
1.0
 72
1
  3

 73
1
 74
1
 75
1
 44
0.5
 73
0
 45
1.0
 46
1.0
 77
1
  4

 78
1
 79
1
170
1
 48
1.0
171
1
  6

172
1
173
1
174
1
140
1.0
141
1.0
175
1
  7

176
1
177
1
178
1
143
1.0
179
1
  8

270
1
271
1
272
1
145
1.0
146
1.0
273
1
  9

274
1
275
1
276
1
 42
1.0
 72
1
  3

 73
1
 74
1
 75
1
 94
63
  0
MATERIAL
  5
21
102
{ACAD_REACTORS
330
E
102
}
330
E
100
AcDbMaterial
  1
Global
  2

 70
0
 40
1.0
 71
1
 41
1.0
 91
-1023410177
 42
1.0
 72
1
  3

 73
1
 74
1
 75
1
 44
0.5
 73
0
 45
1.0
 46
1.0
 77
1
  4

 78
1
 79
1
170
1
 48
1.0
171
1
  6

172
1
173
1
174
1
140
1.0
141
1.0
175
1
  7

176
1
177
1
178
1
143
1.0
179
1
  8

270
1
271
1
272
1
145
1.0
146
1.0
273
1
  9

274
1
275
1
276
1
 42
1.0
 72
1
  3

 73
1
 74
1
 75
1
 94
63
  0
MLINESTYLE
  5
22
102
{ACAD_REACTORS
330
10
102
}
330
10
100
AcDbMlineStyle
  2
Standard
 70
0
  3

 62
256
 51
90.0
 52
90.0
 71
2
 49
0.5
 62
256
  6
BYLAYER
 49
-0.5
 62
256
  6
BYLAYER
  0
MLEADERSTYLE
  5
2C
102
{ACAD_REACTORS
330
F
102
}
330
F
100
AcDbMLeaderStyle
179
2
170
2
171
1
172
0
 90
2
 40
0.0
 41
0.0
173
1
 91
-1056964608
 92
-2
290
1
 42
2.0
291
1
 43
8.0
  3
Standard
 44
4.0
300

342
29
174
1
175
1
176
0
178
1
 93
-1056964608
 45
4.0
292
0
297
0
 46
4.0
 94
-1056964608
 47
1.0
 49
1.0
140
1.0
294
1
141
0.0
177
0
142
1.0
295
0
296
0
143
3.75
271
0
272
9
273
9
  0
DICTIONARY
  5
2D
330
A
100
AcDbDictionary
280
1
281
1
  3
CREATED_BY_EZDXF
350
2E
  3
WRITTEN_BY_EZDXF
350
166
  0
DICTIONARYVAR
  5
2E
330
2D
100
DictionaryVariables
280
0
  1
1.4.4 @ 2026-09-27T13:02:32.332797+00:00
  0
VISUALSTYLE
  5
5A
102
{ACAD_REACTORS
330
16
102
}
330
16
100
AcDbVisualStyle
  2
2dWireframe
 70
4
 90
0
 40
0.6
 62
7
290
0
291
0
  0
VISUALSTYLE
  5
5B
102
{ACAD_REACTORS
330
16
102
}
330
16
100
AcDbVisualStyle
  2
Basic
 70
7
 90
1
 40
0.6
 62
7
290
0
291
1
  0
VISUALSTYLE
  5
5C
102
{ACAD_REACTORS
330
16
102
}
330
16
100
AcDbVisualStyle
  2
Brighten
 70
12
 90
2
 40
0.6
 62
7
290
0
291
1
  0
VISUALSTYLE
  5
5D
102
{ACAD_REACTORS
330
16
102
}
330
16
100
AcDbVisualStyle
  2
ColorChange
 70
16
 90
2
 40
0.6
 62
8
290
0
291
1
  0
VISUALSTYLE
  5
5E
102
{ACAD_REACTORS
330
16
102
}
330
16
100
AcDbVisualStyle
  2
Conceptual
 70
9
 90
3
 40
0.6
 62
7
290
0
291
0
  0
VISUALSTYLE
  5
5F
102
{ACAD_REACTORS
330
16
102
}
330
16
100
AcDbVisualStyle
  2
Dim
 70
11
 90
2
 40
0.6
 62
7
290
0
291
1
  0
VISUALSTYLE
  5
60
102
{ACAD_REACTORS
330
16
102
}
330
16
100
AcDbVisualStyle
  2
EdgeColorOff
 70
22
 90
2
 40
0.6
 62
7
290
0
291
1
  0
VISUALSTYLE
  5
61
102
{ACAD_REACTORS
330
16
102
}
330
16
100
AcDbVisualStyle
  2
Facepattern
 70
15
 90
2
 40
0.6
 62
7
290
0
291
1
  0
VISUALSTYLE
  5
62
102
{ACAD_REACTORS
330
16
102
}
330
16
100
AcDbVisualStyle
  2
Flat
 70
0
 90
2
 40
0.6
 62
7
290
0
291
1
  0
VISUALSTYLE
  5
63
102
{ACAD_REACTORS
330
16
102
}
330
16
100
AcDbVisualStyle
  2
FlatWithEdges
 70
1
 90
2
 40
0.6
 62
7
290
0
291
1
  0
VISUALSTYLE
  5
64
102
{ACAD_REACTORS
330
16
102
}
330
16
100
AcDbVisualStyle
  2
Gouraud
 70
2
 90
2
 40
0.6
 62
7
290
0
291
1
  0
VISUALSTYLE
  5
65
102
{ACAD_REACTORS
330
16
102
}
330
16
100
AcDbVisualStyle
  2
GouraudWithEdges
 70
3
 90
2
 40
0.6
 62
7
290
0
291
1
  0
VISUALSTYLE
  5
66
102
{ACAD_REACTORS
330
16
102
}
330
16
100
AcDbVisualStyle
  2
Hidden
 70
6
 90
1
 40
0.6
 62
7
290
0
291
0
  0
VISUALSTYLE
  5
67
102
{ACAD_REACTORS
330
16
102
}
330
16
100
AcDbVisualStyle
  2
JitterOff
 70
20
 90
2
 40
0.6
 62
7
290
0
291
1
  0
VISUALSTYLE
  5
68
102
{ACAD_REACTORS
330
16
102
}
330
16
100
AcDbVisualStyle
  2
Linepattern
 70
14
 90
2
 40
0.6
 62
7
290
0
291
1
  0
VISUALSTYLE
  5
69
102
{ACAD_REACTORS
330
16
102
}
330
16
100
AcDbVisualStyle
  2
Modeling
 70
10
 90
2
 40
0.6
 62
7
290
0
291
0
  0
VISUALSTYLE
  5
6A
102
{ACAD_REACTORS
330
16
102
}
330
16
100
AcDbVisualStyle
  2
OverhangOff
 70
21
 90
2
 40
0.6
 62
7
290
0
291
1
  0
VISUALSTYLE
  5
6B
102
{ACAD_REACTORS
330
16
102
}
330
16
100
AcDbVisualStyle
  2
Realistic
 70
8
 90
2
 40
0.6
 62
7
290
0
291
0
  0
VISUALSTYLE
  5
6C
102
{ACAD_REACTORS
330
16
102
}
330
16
100
AcDbVisualStyle
  2
Shaded
 70
27
 90
2
 40
0.6
 62
7
290
0
291
0
  0
VISUALSTYLE
  5
6D
102
{ACAD_REACTORS
330
16
102
}
330
16
100
AcDbVisualStyle
  2
Shaded with edges
 70
26
 90
2
 40
0.6
 62
7
290
0
291
0
  0
VISUALSTYLE
  5
6E
102
{ACAD_REACTORS
330
16
102
}
330
16
100
AcDbVisualStyle
  2
Shades of Gray
 70
23
 90
2
 40
0.6
 62
7
290
0
291
0
  0
VISUALSTYLE
  5
6F
102
{ACAD_REACTORS
330
16
102
}
330
16
100
AcDbVisualStyle
  2
Sketchy
 70
24
 90
1
 40
0.6
 62
7
290
0
291
0
  0
VISUALSTYLE
  5
70
102
{ACAD_REACTORS
330
16
102
}
330
16
100
AcDbVisualStyle
  2
Thicken
 70
13
 90
2
 40
0.6
 62
7
290
0
291
1
  0
VISUALSTYLE
  5
71
102
{ACAD_REACTORS
330
16
102
}
330
16
100
AcDbVisualStyle
  2
Wireframe
 70
5
 90
0
 40
0.6
 62
7
290
0
291
0
  0
VISUALSTYLE
  5
72
102
{ACAD_REACTORS
330
16
102
}
330
16
100
AcDbVisualStyle
  2
X-Ray
 70
25
 90
2
 40
0.5
 62
7
290
0
291
0
  0
DICTIONARYVAR
  5
166
330
2D
100
DictionaryVariables
280
0
  1
1.4.4 @ 2026-09-27T13:02:35.638879+00:00
  0
ENDSEC
  0
EOF
