  0
SECTION
  2
HEADER
  9
$ACADVER
  1
AC1024
  9
$ACADMAINTVER
 70
6
  9
$DWGCODEPAGE
  3
ANSI_1252
  9
$LASTSAVEDBY
  1
ezdxf
  9
$INSBASE
 10
0.0
 20
0.0
 30
0.0
  9
$EXTMIN
 10
1e+20
 20
1e+20
 30
1e+20
  9
$EXTMAX
 10
-1e+20
 20
-1e+20
 30
-1e+20
  9
$LIMMIN
 10
0.0
 20
0.0
  9
$LIMMAX
 10
420.0
 20
297.0
  9
$ORTHOMODE
 70
0
  9
$REGENMODE
 70
1
  9
$FILLMODE
 70
1
  9
$QTEXTMODE
 70
0
  9
$MIRRTEXT
 70
1
  9
$LTSCALE
 40
1.0
  9
$ATTMODE
 70
1
  9
$TEXTSIZE
 40
2.5
  9
$TRACEWID
 40
1.0
  9
$TEXTSTYLE
  7
OpenSans
  9
$CLAYER
  8
0
  9
$CELTYPE
  6
ByLayer
  9
$CECOLOR
 62
256
  9
$CELTSCALE
 40
1.0
  9
$DISPSILH
 70
0
  9
$DIMSCALE
 40
1.0
  9
$DIMASZ
 40
0.175
  9
$DIMEXO
 40
0.125
  9
$DIMDLI
 40
3.75
  9
$DIMRND
 40
0.0
  9
$DIMDLE
 40
0.0
  9
$DIMEXE
 40
0.375
  9
$DIMTP
 40
0.0
  9
$DIMTM
 40
0.0
  9
$DIMTXT
 40
0.25
  9
$DIMCEN
 40
2.5
  9
$DIMTSZ
 40
0.0
  9
$DIMTOL
 70
0
  9
$DIMLIM
 70
0
  9
$DIMTIH
 70
0
  9
$DIMTOH
 70
0
  9
$DIMSE1
 70
0
  9
$DIMSE2
 70
0
  9
$DIMTAD
 70
1
  9
$DIMZIN
 70
12
  9
$DIMBLK
  1
ARCHTICK
  9
$DIMASO
 70
1
  9
$DIMSHO
 70
1
  9
$DIMPOST
  1

  9
$DIMAPOST
  1

  9
$DIMALT
 70
0
  9
$DIMALTD
 70
3
  9
$DIMALTF
 40
0.03937007874
  9
$DIMLFAC
 40
100.0
  9
$DIMTOFL
 70
1
  9
$DIMTVP
 40
0.0
  9
$DIMTIX
 70
0
  9
$DIMSOXD
 70
0
  9
$DIMSAH
 70
0
  9
$DIMBLK1
  1

  9
$DIMBLK2
  1

  9
$DIMSTYLE
  2
EZDXF
  9
$DIMCLRD
 70
0
  9
$DIMCLRE
 70
0
  9
$DIMCLRT
 70
0
  9
$DIMTFAC
 40
0.5
  9
$DIMGAP
 40
0.1
  9
$DIMJUST
 70
0
  9
$DIMSD1
 70
0
  9
$DIMSD2
 70
0
  9
$DIMTOLJ
 70
0
  9
$DIMTZIN
 70
8
  9
$DIMALTZ
 70
0
  9
$DIMALTTZ
 70
0
  9
$DIMUPT
 70
1
  9
$DIMDEC
 70
2
  9
$DIMTDEC
 70
2
  9
$DIMALTU
 70
2
  9
$DIMALTTD
 70
3
  9
$DIMTXSTY
  7
OpenSansCondensed-Light
  9
$DIMAUNIT
 70
0
  9
$DIMADEC
 70
2
  9
$DIMALTRND
 40
0.0
  9
$DIMAZIN
 70
3
  9
$DIMDSEP
 70
46
  9
$DIMATFIT
 70
3
  9
$DIMFRAC
 70
0
  9
$DIMLDRBLK
  1

  9
$DIMLUNIT
 70
2
  9
$DIMLWD
 70
-2
  9
$DIMLWE
 70
-2
  9
$DIMTMOVE
 70
2
  9
$DIMFXL
 40
1.0
  9
$DIMFXLON
 70
0
  9
$DIMJOGANG
 40
0.785398163397
  9
$DIMTFILL
 70
0
  9
$DIMTFILLCLR
 70
0
  9
$DIMARCSYM
 70
0
  9
$DIMLTYPE
  6

  9
$DIMLTEX1
  6

  9
$DIMLTEX2
  6

  9
$DIMTXTDIRECTION
 70
0
  9
$LUNITS
 70
2
  9
$LUPREC
 70
4
  9
$SKETCHINC
 40
1.0
  9
$FILLETRAD
 40
10.0
  9
$AUNITS
 70
0
  9
$AUPREC
 70
2
  9
$MENU
  1
.
  9
$ELEVATION
 40
0.0
  9
$PELEVATION
 40
0.0
  9
$THICKNESS
 40
0.0
  9
$LIMCHECK
 70
0
  9
$CHAMFERA
 40
0.0
  9
$CHAMFERB
 40
0.0
  9
$CHAMFERC
 40
0.0
  9
$CHAMFERD
 40
0.0
  9
$SKPOLY
 70
0
  9
$TDCREATE
 40
2461317.2808564813
  9
$TDUCREATE
 40
2458532.153996898
  9
$TDUPDATE
 40
2461317.28087963
  9
$TDUUPDATE
 40
2458532.1544311
  9
$TDINDWG
 40
0.0
  9
$TDUSRTIMER
 40
0.0
  9
$USRTIMER
 70
1
  9
$ANGBASE
 50
0.0
  9
$ANGDIR
 70
0
  9
$PDMODE
 70
0
  9
$PDSIZE
 40
0.0
  9
$PLINEWID
 40
0.0
  9
$SPLFRAME
 70
0
  9
$SPLINETYPE
 70
6
  9
$SPLINESEGS
 70
8
  9
$HANDSEED
  5
13D
  9
$SURFTAB1
 70
6
  9
$SURFTAB2
 70
6
  9
$SURFTYPE
 70
6
  9
$SURFU
 70
6
  9
$SURFV
 70
6
  9
$UCSBASE
  2

  9
$UCSNAME
  2

  9
$UCSORG
 10
0.0
 20
0.0
 30
0.0
  9
$UCSXDIR
 10
1.0
 20
0.0
 30
0.0
  9
$UCSYDIR
 10
0.0
 20
1.0
 30
0.0
  9
$UCSORTHOREF
  2

  9
$UCSORTHOVIEW
 70
0
  9
$UCSORGTOP
 10
0.0
 20
0.0
 30
0.0
  9
$UCSORGBOTTOM
 10
0.0
 20
0.0
 30
0.0
  9
$UCSORGLEFT
 10
0.0
 20
0.0
 30
0.0
  9
$UCSORGRIGHT
 10
0.0
 20
0.0
 30
0.0
  9
$UCSORGFRONT
 10
0.0
 20
0.0
 30
0.0
  9
$UCSORGBACK
 10
0.0
 20
0.0
 30
0.0
  9
$PUCSBASE
  2

  9
$PUCSNAME
  2

  9
$PUCSORG
 10
0.0
 20
0.0
 30
0.0
  9
$PUCSXDIR
 10
1.0
 20
0.0
 30
0.0
  9
$PUCSYDIR
 10
0.0
 20
1.0
 30
0.0
  9
$PUCSORTHOREF
  2

  9
$PUCSORTHOVIEW
 70
0
  9
$PUCSORGTOP
 10
0.0
 20
0.0
 30
0.0
  9
$PUCSORGBOTTOM
 10
0.0
 20
0.0
 30
0.0
  9
$PUCSORGLEFT
 10
0.0
 20
0.0
 30
0.0
  9
$PUCSORGRIGHT
 10
0.0
 20
0.0
 30
0.0
  9
$PUCSORGFRONT
 10
0.0
 20
0.0
 30
0.0
  9
$PUCSORGBACK
 10
0.0
 20
0.0
 30
0.0
  9
$USERI1
 70
0
  9
$USERI2
 70
0
  9
$USERI3
 70
0
  9
$USERI4
 70
0
  9
$USERI5
 70
0
  9
$USERR1
 40
0.0
  9
$USERR2
 40
0.0
  9
$USERR3
 40
0.0
  9
$USERR4
 40
0.0
  9
$USERR5
 40
0.0
  9
$WORLDVIEW
 70
1
  9
$SHADEDGE
 70
3
  9
$SHADEDIF
 70
70
  9
$TILEMODE
 70
1
  9
$MAXACTVP
 70
64
  9
$PINSBASE
 10
0.0
 20
0.0
 30
0.0
  9
$PLIMCHECK
 70
0
  9
$PEXTMIN
 10
1e+20
 20
1e+20
 30
1e+20
  9
$PEXTMAX
 10
-1e+20
 20
-1e+20
 30
-1e+20
  9
$PLIMMIN
 10
0.0
 20
0.0
  9
$PLIMMAX
 10
420.0
 20
297.0
  9
$UNITMODE
 70
0
  9
$VISRETAIN
 70
1
  9
$PLINEGEN
 70
0
  9
$PSLTSCALE
 70
1
  9
$TREEDEPTH
 70
3020
  9
$CMLSTYLE
  2
Standard
  9
$CMLJUST
 70
0
  9
$CMLSCALE
 40
20.0
  9
$PROXYGRAPHICS
 70
1
  9
$MEASUREMENT
 70
1
  9
$CELWEIGHT
370
-1
  9
$ENDCAPS
280
0
  9
$JOINSTYLE
280
0
  9
$LWDISPLAY
290
0
  9
$INSUNITS
 70
4
  9
$HYPERLINKBASE
  1

  9
$STYLESHEET
  1

  9
$XEDIT
290
1
  9
$CEPSNTYPE
380
0
  9
$PSTYLEMODE
290
1
  9
$FINGERPRINTGUID
  2
{C4641591-87B0-4C0D-8474-0F9DB1BF7755}
  9
$VERSIONGUID
  2
{DED481AC-C7AD-47EC-BEC8-5D5C97CC3BC4}
  9
$EXTNAMES
290
1
  9
$PSVPSCALE
 40
0.0
  9
$OLESTARTUP
290
0
  9
$SORTENTS
280
127
  9
$INDEXCTL
280
0
  9
$HIDETEXT
280
1
  9
$XCLIPFRAME
280
1
  9
$HALOGAP
280
0
  9
$OBSCOLOR
 70
257
  9
$OBSLTYPE
280
0
  9
$INTERSECTIONDISPLAY
280
0
  9
$INTERSECTIONCOLOR
 70
257
  9
$DIMASSOC
280
2
  9
$PROJECTNAME
  1

  9
$CAMERADISPLAY
290
0
  9
$LENSLENGTH
 40
50.0
  9
$CAMERAHEIGHT
 40
0.0
  9
$STEPSPERSEC
 40
24.0
  9
$STEPSIZE
 40
100.0
  9
$3DDWFPREC
 40
2.0
  9
$PSOLWIDTH
 40
0.005
  9
$PSOLHEIGHT
 40
0.08
  9
$LOFTANG1
 40
1.570796326795
  9
$LOFTANG2
 40
1.570796326795
  9
$LOFTMAG1
 40
0.0
  9
$LOFTMAG2
 40
0.0
  9
$LOFTPARAM
 70
7
  9
$LOFTNORMALS
280
1
  9
$LATITUDE
 40
37.795
  9
$LONGITUDE
 40
-122.394
  9
$NORTHDIRECTION
 40
0.0
  9
$TIMEZONE
 70
-8000
  9
$LIGHTGLYPHDISPLAY
280
1
  9
$TILEMODELIGHTSYNCH
280
1
  9
$CMATERIAL
347
20
  9
$SOLIDHIST
280
0
  9
$SHOWHIST
280
1
  9
$DWFFRAME
280
2
  9
$DGNFRAME
280
2
  9
$REALWORLDSCALE
290
1
  9
$INTERFERECOLOR
 62
256
  9
$CSHADOW
280
0
  9
$SHADOWPLANELOCATION
 40
0.0
  0
ENDSEC
  0
SECTION
  2
CLASSES
  0
CLASS
  1
ACDBDICTIONARYWDFLT
  2
AcDbDictionaryWithDefault
  3
ObjectDBX Classes
 90
0
 91
0
280
0
281
0
  0
CLASS
  1
SUN
  2
AcDbSun
  3
SCENEOE
 90
1153
 91
0
280
0
281
0
  0
CLASS
  1
VISUALSTYLE
  2
AcDbVisualStyle
  3
ObjectDBX Classes
 90
4095
 91
0
280
0
281
0
  0
CLASS
  1
MATERIAL
  2
AcDbMaterial
  3
ObjectDBX Classes
 90
1153
 91
0
280
0
281
0
  0
CLASS
  1
SCALE
  2
AcDbScale
  3
ObjectDBX Classes
 90
1153
 91
0
280
0
281
0
  0
CLASS
  1
TABLESTYLE
  2
AcDbTableStyle
  3
ObjectDBX Classes
 90
4095
 91
0
280
0
281
0
  0
CLASS
  1
MLEADERSTYLE
  2
AcDbMLeaderStyle
  3
ACDB_MLEADERSTYLE_CLASS
 90
4095
 91
0
280
0
281
0
  0
CLASS
  1
DICTIONARYVAR
  2
AcDbDictionaryVar
  3
ObjectDBX Classes
 90
0
 91
0
280
0
281
0
  0
CLASS
  1
CELLSTYLEMAP
  2
AcDbCellStyleMap
  3
ObjectDBX Classes
 90
1152
 91
0
280
0
281
0
  0
CLASS
  1
MENTALRAYRENDERSETTINGS
  2
AcDbMentalRayRenderSettings
  3
SCENEOE
 90
1024
 91
0
280
0
281
0
  0
CLASS
  1
ACDBDETAILVIEWSTYLE
  2
AcDbDetailViewStyle
  3
ObjectDBX Classes
 90
1025
 91
0
280
0
281
0
  0
CLASS
  1
ACDBSECTIONVIEWSTYLE
  2
AcDbSectionViewStyle
  3
ObjectDBX Classes
 90
1025
 91
0
280
0
281
0
  0
CLASS
  1
RASTERVARIABLES
  2
AcDbRasterVariables
  3
ISM
 90
0
 91
0
280
0
281
0
  0
CLASS
  1
ACDBPLACEHOLDER
  2
AcDbPlaceHolder
  3
ObjectDBX Classes
 90
0
 91
0
280
0
281
0
  0
CLASS
  1
LAYOUT
  2
AcDbLayout
  3
ObjectDBX Classes
 90
0
 91
0
280
0
281
0
  0
ENDSEC
  0
SECTION
  2
TABLES
  0
TABLE
  2
VPORT
  5
8
330
0
100
AcDbSymbolTable
 70
1
  0
VPORT
  5
23
330
8
100
AcDbSymbolTableRecord
100
AcDbViewportTableRecord
  2
*Active
 70
0
 10
0.0
 20
0.0
 11
1.0
 21
1.0
 12
0.0
 22
0.0
 13
0.0
 23
0.0
 14
0.5
 24
0.5
 15
0.5
 25
0.5
 16
0.0
 26
0.0
 36
1.0
 17
0.0
 27
0.0
 37
0.0
 40
1000.0
 41
1.34
 42
50.0
 43
0.0
 44
0.0
 50
0.0
 51
0.0
 71
0
 72
1000
 73
1
 74
3
 75
0
 76
0
 77
0
 78
0
281
0
 65
0
146
0.0
  0
ENDTAB
  0
TABLE
  2
LTYPE
  5
2
330
0
100
AcDbSymbolTable
 70
21
  0
LTYPE
  5
24
330
2
100
AcDbSymbolTableRecord
100
AcDbLinetypeTableRecord
  2
ByBlock
 70
0
  3

 72
65
 73
0
 40
0.0
  0
LTYPE
  5
25
330
2
100
AcDbSymbolTableRecord
100
AcDbLinetypeTableRecord
  2
ByLayer
 70
0
  3

 72
65
 73
0
 40
0.0
  0
LTYPE
  5
26
330
2
100
AcDbSymbolTableRecord
100
AcDbLinetypeTableRecord
  2
Continuous
 70
0
  3

 72
65
 73
0
 40
0.0
  0
LTYPE
  5
2F
330
2
100
AcDbSymbolTableRecord
100
AcDbLinetypeTableRecord
  2
CENTER
 70
0
  3
Center ____ _ ____ _ ____ _ ____ _ ____ _ ____
 72
65
 73
4
 40
5.08
 49
3.175
 74
0
 49
-0.635
 74
0
 49
0.635
 74
0
 49
-0.635
 74
0
  0
LTYPE
  5
30
330
2
100
AcDbSymbolTableRecord
100
AcDbLinetypeTableRecord
  2
CENTERX2
 70
0
  3
Center (2x) ________  __  ________  __  ________
 72
65
 73
4
 40
8.89
 49
6.35
 74
0
 49
-0.635
 74
0
 49
1.27
 74
0
 49
-0.635
 74
0
  0
LTYPE
  5
31
330
2
100
AcDbSymbolTableRecord
100
AcDbLinetypeTableRecord
  2
CENTER2
 70
0
  3
Center (.5x) ____ _ ____ _ ____ _ ____ _ ____
 72
65
 73
4
 40
2.54
 49
1.587
 74
0
 49
-0.318
 74
0
 49
0.318
 74
0
 49
-0.318
 74
0
  0
LTYPE
  5
32
330
2
100
AcDbSymbolTableRecord
100
AcDbLinetypeTableRecord
  2
DASHED
 70
0
  3
Dashed __ __ __ __ __ __ __ __ __ __ __ __ __ _
 72
65
 73
2
 40
1.524
 49
1.27
 74
0
 49
-0.254
 74
0
  0
LTYPE
  5
33
330
2
100
AcDbSymbolTableRecord
100
AcDbLinetypeTableRecord
  2
DASHEDX2
 70
0
  3
Dashed (2x) ____  ____  ____  ____  ____  ____
 72
65
 73
2
 40
3.048
 49
2.54
 74
0
 49
-0.508
 74
0
  0
LTYPE
  5
34
330
2
100
AcDbSymbolTableRecord
100
AcDbLinetypeTableRecord
  2
DASHED2
 70
0
  3
Dashed (.5x) _ _ _ _ _ _ _ _ _ _ _ _ _ _
 72
65
 73
2
 40
0.762
 49
0.635
 74
0
 49
-0.127
 74
0
  0
LTYPE
  5
35
330
2
100
AcDbSymbolTableRecord
100
AcDbLinetypeTableRecord
  2
PHANTOM
 70
0
  3
Phantom ______  __  __  ______  __  __  ______
 72
65
 73
6
 40
6.35
 49
3.175
 74
0
 49
-0.635
 74
0
 49
0.635
 74
0
 49
-0.635
 74
0
 49
0.635
 74
0
 49
-0.635
 74
0
  0
LTYPE
  5
36
330
2
100
AcDbSymbolTableRecord
100
AcDbLinetypeTableRecord
  2
PHANTOMX2
 70
0
  3
Phantom (2x)____________    ____    ____    ____________
 72
65
 73
6
 40
10.795
 49
6.35
 74
0
 49
-0.635
 74
0
 49
1.27
 74
0
 49
-0.635
 74
0
 49
1.27
 74
0
 49
-0.635
 74
0
  0
LTYPE
  5
37
330
2
100
AcDbSymbolTableRecord
100
AcDbLinetypeTableRecord
  2
PHANTOM2
 70
0
  3
Phantom (.5x) ___ _ _ ___ _ _ ___ _ _ ___ _ _ ___
 72
65
 73
6
 40
3.175
 49
1.587
 74
0
 49
-0.318
 74
0
 49
0.318
 74
0
 49
-0.318
 74
0
 49
0.318
 74
0
 49
-0.318
 74
0
  0
LTYPE
  5
38
330
2
100
AcDbSymbolTableRecord
100
AcDbLinetypeTableRecord
  2
DASHDOT
 70
0
  3
Dash dot __ . __ . __ . __ . __ . __ . __ . __
 72
65
 73
4
 40
3.556
 49
2.54
 74
0
 49
-0.508
 74
0
 49
0.0
 74
0
 49
-0.508
 74
0
  0
LTYPE
  5
39
330
2
100
AcDbSymbolTableRecord
100
AcDbLinetypeTableRecord
  2
DASHDOTX2
 70
0
  3
Dash dot (2x) ____  .  ____  .  ____  .  ____
 72
65
 73
4
 40
6.096
 49
5.08
 74
0
 49
-0.508
 74
0
 49
0.0
 74
0
 49
-0.508
 74
0
  0
LTYPE
  5
3A
330
2
100
AcDbSymbolTableRecord
100
AcDbLinetypeTableRecord
  2
DASHDOT2
 70
0
  3
Dash dot (.5x) _ . _ . _ . _ . _ . _ . _ . _
 72
65
 73
4
 40
1.778
 49
1.27
 74
0
 49
-0.254
 74
0
 49
0.0
 74
0
 49
-0.254
 74
0
  0
LTYPE
  5
3B
330
2
100
AcDbSymbolTableRecord
100
AcDbLinetypeTableRecord
  2
DOT
 70
0
  3
Dot .  .  .  .  .  .  .  .  .  .  .  .  .  .  .  .
 72
65
 73
2
 40
0.508
 49
0.0
 74
0
 49
-0.508
 74
0
  0
LTYPE
  5
3C
330
2
100
AcDbSymbolTableRecord
100
AcDbLinetypeTableRecord
  2
DOTX2
 70
0
  3
Dot (2x) .    .    .    .    .    .    .    . 
 72
65
 73
2
 40
1.016
 49
0.0
 74
0
 49
-1.016
 74
0
  0
LTYPE
  5
3D
330
2
100
AcDbSymbolTableRecord
100
AcDbLinetypeTableRecord
  2
DOT2
 70
0
  3
Dot (.5) . . . . . . . . . . . . . . . . . . . 
 72
65
 73
2
 40
0.254
 49
0.0
 74
0
 49
-0.254
 74
0
  0
LTYPE
  5
3E
330
2
100
AcDbSymbolTableRecord
100
AcDbLinetypeTableRecord
  2
DIVIDE
 70
0
  3
Divide __ . . __ . . __ . . __ . . __ . . __
 72
65
 73
6
 40
4.064
 49
2.54
 74
0
 49
-0.508
 74
0
 49
0.0
 74
0
 49
-0.508
 74
0
 49
0.0
 74
0
 49
-0.508
 74
0
  0
LTYPE
  5
3F
330
2
100
AcDbSymbolTableRecord
100
AcDbLinetypeTableRecord
  2
DIVIDEX2
 70
0
  3
Divide (2x) ____  . .  ____  . .  ____  . .  ____
 72
65
 73
6
 40
6.604
 49
5.08
 74
0
 49
-0.508
 74
0
 49
0.0
 74
0
 49
-0.508
 74
0
 49
0.0
 74
0
 49
-0.508
 74
0
  0
LTYPE
  5
40
330
2
100
AcDbSymbolTableRecord
100
AcDbLinetypeTableRecord
  2
DIVIDE2
 70
0
  3
Divide(.5x) _ . _ . _ . _ . _ . _ . _ . _
 72
65
 73
6
 40
2.032
 49
1.27
 74
0
 49
-0.254
 74
0
 49
0.0
 74
0
 49
-0.254
 74
0
 49
0.0
 74
0
 49
-0.254
 74
0
  0
ENDTAB
  0
TABLE
  2
LAYER
  5
1
330
0
100
AcDbSymbolTable
 70
6
  0
LAYER
  5
27
330
1
100
AcDbSymbolTableRecord
100
AcDbLayerTableRecord
  2
0
 70
0
 62
7
  6
Continuous
370
-3
390
13
347
21
  0
LAYER
  5
28
330
1
100
AcDbSymbolTableRecord
100
AcDbLayerTableRecord
  2
Defpoints
 70
0
 62
7
  6
Continuous
290
0
370
-3
390
13
347
21
  0
LAYER
  5
8A
330
1
100
AcDbSymbolTableRecord
100
AcDbLayerTableRecord
  2
CUT
 70
0
 62
1
  6
Continuous
370
-3
390
13
347
21
  0
LAYER
  5
8B
330
1
100
AcDbSymbolTableRecord
100
AcDbLayerTableRecord
  2
POCKET-KERF-15
 70
0
 62
5
  6
Continuous
370
-3
390
13
347
21
  0
LAYER
  5
8C
330
1
100
AcDbSymbolTableRecord
100
AcDbLayerTableRecord
  2
ENGRAVE-LABEL
 70
0
 62
3
  6
Continuous
370
-3
390
13
347
21
  0
LAYER
  5
8D
330
1
100
AcDbSymbolTableRecord
100
AcDbLayerTableRecord
  2
REFERENCE-SHEET
 70
0
 62
8
  6
Continuous
370
-3
390
13
347
21
  0
ENDTAB
  0
TABLE
  2
STYLE
  5
5
330
0
100
AcDbSymbolTable
 70
26
  0
STYLE
  5
29
330
5
100
AcDbSymbolTableRecord
100
AcDbTextStyleTableRecord
  2
Standard
 70
0
 40
0.0
 41
1.0
 50
0.0
 71
0
 42
2.5
  3
txt
  4

  0
STYLE
  5
41
330
5
100
AcDbSymbolTableRecord
100
AcDbTextStyleTableRecord
  2
OpenSans-Light
 70
0
 40
0.0
 41
1.0
 50
0.0
 71
0
 42
2.5
  3
OpenSans-Light.ttf
  4

  0
STYLE
  5
42
330
5
100
AcDbSymbolTableRecord
100
AcDbTextStyleTableRecord
  2
OpenSans-Light-Italic
 70
0
 40
0.0
 41
1.0
 50
0.0
 71
0
 42
2.5
  3
OpenSans-LightItalic.ttf
  4

  0
STYLE
  5
43
330
5
100
AcDbSymbolTableRecord
100
AcDbTextStyleTableRecord
  2
OpenSans
 70
0
 40
0.0
 41
1.0
 50
0.0
 71
0
 42
2.5
  3
OpenSans-Regular.ttf
  4

  0
STYLE
  5
44
330
5
100
AcDbSymbolTableRecord
100
AcDbTextStyleTableRecord
  2
OpenSans-Italic
 70
0
 40
0.0
 41
1.0
 50
0.0
 71
0
 42
2.5
  3
OpenSans-Italic.ttf
  4

  0
STYLE
  5
45
330
5
100
AcDbSymbolTableRecord
100
AcDbTextStyleTableRecord
  2
OpenSans-SemiBold
 70
0
 40
0.0
 41
1.0
 50
0.0
 71
0
 42
2.5
  3
OpenSans-SemiBold.ttf
  4

  0
STYLE
  5
46
330
5
100
AcDbSymbolTableRecord
100
AcDbTextStyleTableRecord
  2
OpenSans-SemiBoldItalic
 70
0
 40
0.0
 41
1.0
 50
0.0
 71
0
 42
2.5
  3
OpenSans-SemiBoldItalic.ttf
  4

  0
STYLE
  5
47
330
5
100
AcDbSymbolTableRecord
100
AcDbTextStyleTableRecord
  2
OpenSans-Bold
 70
0
 40
0.0
 41
1.0
 50
0.0
 71
0
 42
2.5
  3
OpenSans-Bold.ttf
  4

  0
STYLE
  5
48
330
5
100
AcDbSymbolTableRecord
100
AcDbTextStyleTableRecord
  2
OpenSans-BoldItalic
 70
0
 40
0.0
 41
1.0
 50
0.0
 71
0
 42
2.5
  3
OpenSans-BoldItalic.ttf
  4

  0
STYLE
  5
49
330
5
100
AcDbSymbolTableRecord
100
AcDbTextStyleTableRecord
  2
OpenSans-ExtraBold
 70
0
 40
0.0
 41
1.0
 50
0.0
 71
0
 42
2.5
  3
OpenSans-ExtraBold.ttf
  4

  0
STYLE
  5
4A
330
5
100
AcDbSymbolTableRecord
100
AcDbTextStyleTableRecord
  2
OpenSans-ExtraBoldItalic
 70
0
 40
0.0
 41
1.0
 50
0.0
 71
0
 42
2.5
  3
OpenSans-ExtraBoldItalic.ttf
  4

  0
STYLE
  5
4B
330
5
100
AcDbSymbolTableRecord
100
AcDbTextStyleTableRecord
  2
OpenSansCondensed-Bold
 70
0
 40
0.0
 41
1.0
 50
0.0
 71
0
 42
2.5
  3
OpenSansCondensed-Bold.ttf
  4

  0
STYLE
  5
4C
330
5
100
AcDbSymbolTableRecord
100
AcDbTextStyleTableRecord
  2
OpenSansCondensed-Light
 70
0
 40
0.0
 41
1.0
 50
0.0
 71
0
 42
2.5
  3
OpenSansCondensed-Light.ttf
  4

  0
STYLE
  5
4D
330
5
100
AcDbSymbolTableRecord
100
AcDbTextStyleTableRecord
  2
OpenSansCondensed-Italic
 70
0
 40
0.0
 41
1.0
 50
0.0
 71
0
 42
2.5
  3
OpenSansCondensed-LightItalic.ttf
  4

  0
STYLE
  5
4E
330
5
100
AcDbSymbolTableRecord
100
AcDbTextStyleTableRecord
  2
LiberationSans
 70
0
 40
0.0
 41
1.0
 50
0.0
 71
0
 42
2.5
  3
LiberationSans-Regular.ttf
  4

  0
STYLE
  5
4F
330
5
100
AcDbSymbolTableRecord
100
AcDbTextStyleTableRecord
  2
LiberationSans-Bold
 70
0
 40
0.0
 41
1.0
 50
0.0
 71
0
 42
2.5
  3
LiberationSans-Bold.ttf
  4

  0
STYLE
  5
50
330
5
100
AcDbSymbolTableRecord
100
AcDbTextStyleTableRecord
  2
LiberationSans-BoldItalic
 70
0
 40
0.0
 41
1.0
 50
0.0
 71
0
 42
2.5
  3
LiberationSans-BoldItalic.ttf
  4

  0
STYLE
  5
51
330
5
100
AcDbSymbolTableRecord
100
AcDbTextStyleTableRecord
  2
LiberationSans-Italic
 70
0
 40
0.0
 41
1.0
 50
0.0
 71
0
 42
2.5
  3
LiberationSans-Italic.ttf
  4

  0
STYLE
  5
52
330
5
100
AcDbSymbolTableRecord
100
AcDbTextStyleTableRecord
  2
LiberationSerif
 70
0
 40
0.0
 41
1.0
 50
0.0
 71
0
 42
2.5
  3
LiberationSerif-Regular.ttf
  4

  0
STYLE
  5
53
330
5
100
AcDbSymbolTableRecord
100
AcDbTextStyleTableRecord
  2
LiberationSerif-Bold
 70
0
 40
0.0
 41
1.0
 50
0.0
 71
0
 42
2.5
  3
LiberationSerif-Bold.ttf
  4

  0
STYLE
  5
54
330
5
100
AcDbSymbolTableRecord
100
AcDbTextStyleTableRecord
  2
LiberationSerif-BoldItalic
 70
0
 40
0.0
 41
1.0
 50
0.0
 71
0
 42
2.5
  3
LiberationSerif-BoldItalic.ttf
  4

  0
STYLE
  5
55
330
5
100
AcDbSymbolTableRecord
100
AcDbTextStyleTableRecord
  2
LiberationSerif-Italic
 70
0
 40
0.0
 41
1.0
 50
0.0
 71
0
 42
2.5
  3
LiberationSerif-Italic.ttf
  4

  0
STYLE
  5
56
330
5
100
AcDbSymbolTableRecord
100
AcDbTextStyleTableRecord
  2
LiberationMono
 70
0
 40
0.0
 41
1.0
 50
0.0
 71
0
 42
2.5
  3
LiberationMono-Regular.ttf
  4

  0
STYLE
  5
57
330
5
100
AcDbSymbolTableRecord
100
AcDbTextStyleTableRecord
  2
LiberationMono-Bold
 70
0
 40
0.0
 41
1.0
 50
0.0
 71
0
 42
2.5
  3
LiberationMono-Bold.ttf
  4

  0
STYLE
  5
58
330
5
100
AcDbSymbolTableRecord
100
AcDbTextStyleTableRecord
  2
LiberationMono-BoldItalic
 70
0
 40
0.0
 41
1.0
 50
0.0
 71
0
 42
2.5
  3
LiberationMono-BoldItalic.ttf
  4

  0
STYLE
  5
59
330
5
100
AcDbSymbolTableRecord
100
AcDbTextStyleTableRecord
  2
LiberationMono-Italic
 70
0
 40
0.0
 41
1.0
 50
0.0
 71
0
 42
2.5
  3
LiberationMono-Italic.ttf
  4

  0
ENDTAB
  0
TABLE
  2
VIEW
  5
7
330
0
100
AcDbSymbolTable
 70
0
  0
ENDTAB
  0
TABLE
  2
UCS
  5
6
330
0
100
AcDbSymbolTable
 70
0
  0
ENDTAB
  0
TABLE
  2
APPID
  5
3
330
0
100
AcDbSymbolTable
 70
3
  0
APPID
  5
2A
330
3
100
AcDbSymbolTableRecord
100
AcDbRegAppTableRecord
  2
ACAD
 70
0
  0
APPID
  5
13A
330
3
100
AcDbSymbolTableRecord
100
AcDbRegAppTableRecord
  2
HATCHBACKGROUNDCOLOR
 70
0
  0
APPID
  5
13B
330
3
100
AcDbSymbolTableRecord
100
AcDbRegAppTableRecord
  2
EZDXF
 70
0
  0
ENDTAB
  0
TABLE
  2
DIMSTYLE
  5
4
330
0
100
AcDbSymbolTable
 70
12
100
AcDbDimStyleTable
  0
DIMSTYLE
105
2B
330
4
100
AcDbSymbolTableRecord
100
AcDbDimStyleTableRecord
  2
Standard
 70
0
 40
1.0
 41
2.5
 42
0.625
 43
3.75
 44
1.25
 45
0.0
 46
0.0
 47
0.0
 48
0.0
 49
2.5
140
2.5
141
2.5
142
0.0
143
0.03937007874
144
1.0
145
0.0
146
1.0
147
0.625
148
0.0
 69
0
 70
0
 71
0
 72
0
 73
0
 74
0
 75
0
 76
0
 77
1
 78
8
 79
3
170
0
171
3
172
1
173
0
174
0
175
0
176
0
177
0
178
0
179
2
271
2
272
2
273
2
274
3
275
0
276
0
277
2
278
44
279
0
280
0
281
0
282
0
283
0
284
8
285
0
286
0
288
0
289
3
290
0
371
-2
372
-2
  0
DIMSTYLE
105
73
330
4
100
AcDbSymbolTableRecord
100
AcDbDimStyleTableRecord
  2
EZDXF
 70
0
 40
1.0
 41
0.175
 42
0.125
 43
3.75
 44
0.375
 45
0.0
 46
0.0
 47
0.0
 48
0.0
 49
2.5
140
0.25
141
2.5
142
0.0
143
0.03937007874
144
100.0
145
0.0
146
0.5
147
0.1
148
0.0
 69
0
 70
0
 71
0
 72
0
 73
0
 74
0
 75
0
 76
0
 77
1
 78
12
 79
3
170
0
171
3
172
1
173
0
174
0
175
0
176
0
177
0
178
0
179
2
271
2
272
2
273
2
274
3
275
0
276
0
277
2
278
46
279
2
280
0
281
0
282
0
283
0
284
8
285
0
286
0
288
1
289
3
290
0
340
4C
342
74
371
-2
372
-2
  0
DIMSTYLE
105
7C
330
4
100
AcDbSymbolTableRecord
100
AcDbDimStyleTableRecord
  2
EZ_M_100_H25_CM
 70
0
 40
1.0
 41
0.25
 42
0.125
 43
3.75
 44
0.375
 45
0.0
 46
0.0
 47
0.0
 48
0.0
 49
2.5
140
0.25
141
2.5
142
0.125
143
0.03937007874
144
100.0
145
0.0
146
0.5
147
0.1
148
0.0
 69
0
 70
0
 71
0
 72
0
 73
0
 74
0
 75
0
 76
0
 77
1
 78
12
 79
3
170
0
171
3
172
1
173
0
174
0
175
0
176
0
177
0
178
0
179
2
271
2
272
2
273
2
274
3
275
0
276
0
277
2
278
46
279
2
280
0
281
0
282
0
283
0
284
8
285
0
286
0
288
1
289
3
290
0
340
4C
371
-2
372
-2
  0
DIMSTYLE
105
7D
330
4
100
AcDbSymbolTableRecord
100
AcDbDimStyleTableRecord
  2
EZ_M_50_H25_CM
 70
0
 40
1.0
 41
0.125
 42
0.0625
 43
3.75
 44
0.1875
 45
0.0
 46
0.0
 47
0.0
 48
0.0
 49
2.5
140
0.125
141
2.5
142
0.0625
143
0.03937007874
144
100.0
145
0.0
146
0.5
147
0.05
148
0.0
 69
0
 70
0
 71
0
 72
0
 73
0
 74
0
 75
0
 76
0
 77
1
 78
12
 79
3
170
0
171
3
172
1
173
0
174
0
175
0
176
0
177
0
178
0
179
2
271
2
272
2
273
2
274
3
275
0
276
0
277
2
278
46
279
2
280
0
281
0
282
0
283
0
284
8
285
0
286
0
288
1
289
3
290
0
340
4C
371
-2
372
-2
  0
DIMSTYLE
105
7E
330
4
100
AcDbSymbolTableRecord
100
AcDbDimStyleTableRecord
  2
EZ_M_25_H25_CM
 70
0
 40
1.0
 41
0.0625
 42
0.03125
 43
3.75
 44
0.09375
 45
0.0
 46
0.0
 47
0.0
 48
0.0
 49
2.5
140
0.0625
141
2.5
142
0.03125
143
0.03937007874
144
100.0
145
0.0
146
0.5
147
0.025
148
0.0
 69
0
 70
0
 71
0
 72
0
 73
0
 74
0
 75
0
 76
0
 77
1
 78
12
 79
3
170
0
171
3
172
1
173
0
174
0
175
0
176
0
177
0
178
0
179
2
271
2
272
2
273
2
274
3
275
0
276
0
277
2
278
46
279
2
280
0
281
0
282
0
283
0
284
8
285
0
286
0
288
1
289
3
290
0
340
4C
371
-2
372
-2
  0
DIMSTYLE
105
7F
330
4
100
AcDbSymbolTableRecord
100
AcDbDimStyleTableRecord
  2
EZ_M_20_H25_CM
 70
0
 40
1.0
 41
0.05
 42
0.025
 43
3.75
 44
0.07500000000000001
 45
0.0
 46
0.0
 47
0.0
 48
0.0
 49
2.5
140
0.05
141
2.5
142
0.025
143
0.03937007874
144
100.0
145
0.0
146
0.5
147
0.020000000000000004
148
0.0
 69
0
 70
0
 71
0
 72
0
 73
0
 74
0
 75
0
 76
0
 77
1
 78
12
 79
3
170
0
171
3
172
1
173
0
174
0
175
0
176
0
177
0
178
0
179
2
271
2
272
2
273
2
274
3
275
0
276
0
277
2
278
46
279
2
280
0
281
0
282
0
283
0
284
8
285
0
286
0
288
1
289
3
290
0
340
4C
371
-2
372
-2
  0
DIMSTYLE
105
80
330
4
100
AcDbSymbolTableRecord
100
AcDbDimStyleTableRecord
  2
EZ_M_10_H25_CM
 70
0
 40
1.0
 41
0.025
 42
0.0125
 43
3.75
 44
0.037500000000000006
 45
0.0
 46
0.0
 47
0.0
 48
0.0
 49
2.5
140
0.025
141
2.5
142
0.0125
143
0.03937007874
144
100.0
145
0.0
146
0.5
147
0.010000000000000002
148
0.0
 69
0
 70
0
 71
0
 72
0
 73
0
 74
0
 75
0
 76
0
 77
1
 78
12
 79
3
170
0
171
3
172
1
173
0
174
0
175
0
176
0
177
0
178
0
179
2
271
2
272
2
273
2
274
3
275
0
276
0
277
2
278
46
279
2
280
0
281
0
282
0
283
0
284
8
285
0
286
0
288
1
289
3
290
0
340
4C
371
-2
372
-2
  0
DIMSTYLE
105
81
330
4
100
AcDbSymbolTableRecord
100
AcDbDimStyleTableRecord
  2
EZ_M_5_H25_CM
 70
0
 40
1.0
 41
0.0125
 42
0.00625
 43
3.75
 44
0.018750000000000003
 45
0.0
 46
0.0
 47
0.0
 48
0.0
 49
2.5
140
0.0125
141
2.5
142
0.00625
143
0.03937007874
144
100.0
145
0.0
146
0.5
147
0.005000000000000001
148
0.0
 69
0
 70
0
 71
0
 72
0
 73
0
 74
0
 75
0
 76
0
 77
1
 78
12
 79
3
170
0
171
3
172
1
173
0
174
0
175
0
176
0
177
0
178
0
179
2
271
2
272
2
273
2
274
3
275
0
276
0
277
2
278
46
279
2
280
0
281
0
282
0
283
0
284
8
285
0
286
0
288
1
289
3
290
0
340
4C
371
-2
372
-2
  0
DIMSTYLE
105
82
330
4
100
AcDbSymbolTableRecord
100
AcDbDimStyleTableRecord
  2
EZ_M_1_H25_CM
 70
0
 40
1.0
 41
0.0025
 42
0.00125
 43
3.75
 44
0.00375
 45
0.0
 46
0.0
 47
0.0
 48
0.0
 49
2.5
140
0.0025
141
2.5
142
0.00125
143
0.03937007874
144
100.0
145
0.0
146
0.5
147
0.001
148
0.0
 69
0
 70
0
 71
0
 72
0
 73
0
 74
0
 75
0
 76
0
 77
1
 78
12
 79
3
170
0
171
3
172
1
173
0
174
0
175
0
176
0
177
0
178
0
179
2
271
2
272
2
273
2
274
3
275
0
276
0
277
2
278
46
279
2
280
0
281
0
282
0
283
0
284
8
285
0
286
0
288
1
289
3
290
0
340
4C
371
-2
372
-2
  0
DIMSTYLE
105
83
330
4
100
AcDbSymbolTableRecord
100
AcDbDimStyleTableRecord
  2
EZ_RADIUS
 70
0
 40
1.0
 41
0.25
 42
0.125
 43
3.75
 44
0.375
 45
0.0
 46
0.0
 47
0.0
 48
0.0
 49
2.5
140
0.25
141
0.0
142
0.0
143
0.03937007874
144
100.0
145
0.0
146
0.5
147
0.1
148
0.0
 69
0
 70
0
 71
0
 72
0
 73
0
 74
0
 75
0
 76
0
 77
1
 78
12
 79
3
170
0
171
3
172
0
173
0
174
0
175
0
176
0
177
0
178
0
179
2
271
2
272
2
273
2
274
3
275
0
276
0
277
2
278
46
279
1
280
0
281
0
282
0
283
0
284
8
285
0
286
0
288
1
289
3
290
0
340
4C
342
84
371
-2
372
-2
  0
DIMSTYLE
105
88
330
4
100
AcDbSymbolTableRecord
100
AcDbDimStyleTableRecord
  2
EZ_RADIUS_INSIDE
 70
0
 40
1.0
 41
0.25
 42
0.125
 43
3.75
 44
0.375
 45
0.0
 46
0.0
 47
0.0
 48
0.0
 49
2.5
140
0.25
141
0.0
142
0.0
143
0.03937007874
144
100.0
145
0.0
146
0.5
147
0.1
148
0.0
 69
0
 70
0
 71
0
 72
0
 73
0
 74
0
 75
0
 76
0
 77
0
 78
12
 79
3
170
0
171
3
172
0
173
0
174
1
175
0
176
0
177
0
178
0
179
2
271
2
272
2
273
2
274
3
275
0
276
0
277
2
278
46
279
0
280
0
281
0
282
0
283
0
284
8
285
0
286
0
288
1
289
0
290
0
340
4C
342
84
371
-2
372
-2
  0
DIMSTYLE
105
89
330
4
100
AcDbSymbolTableRecord
100
AcDbDimStyleTableRecord
  2
EZ_CURVED
 70
0
 40
1.0
 41
0.25
 42
0.125
 43
3.75
 44
0.375
 45
0.0
 46
0.0
 47
0.0
 48
0.0
 49
2.5
140
0.25
141
2.5
142
0.0
143
0.03937007874
144
100.0
145
0.0
146
0.5
147
0.1
148
0.0
 69
0
 70
0
 71
0
 72
0
 73
0
 74
0
 75
0
 76
0
 77
1
 78
12
 79
2
 90
2
170
0
171
3
172
1
173
0
174
0
175
0
176
0
177
0
178
0
179
2
271
2
272
2
273
2
274
3
275
0
276
0
277
2
278
46
279
2
280
0
281
0
282
0
283
0
284
8
285
0
286
0
288
1
289
3
290
0
340
4C
371
-2
372
-2
  0
ENDTAB
  0
TABLE
  2
BLOCK_RECORD
  5
9
330
0
100
AcDbSymbolTable
 70
5
  0
BLOCK_RECORD
  5
17
330
9
100
AcDbSymbolTableRecord
100
AcDbBlockTableRecord
  2
*Model_Space
340
1A
 70
0
280
1
281
0
  0
BLOCK_RECORD
  5
1B
330
9
100
AcDbSymbolTableRecord
100
AcDbBlockTableRecord
  2
*Paper_Space
340
1E
 70
0
280
1
281
0
  0
BLOCK_RECORD
  5
74
330
9
100
AcDbSymbolTableRecord
100
AcDbBlockTableRecord
  2
_ARCHTICK
340
0
 70
0
280
1
281
0
  0
BLOCK_RECORD
  5
78
330
9
100
AcDbSymbolTableRecord
100
AcDbBlockTableRecord
  2
_CLOSEDFILLED
340
0
 70
0
280
1
281
0
  0
BLOCK_RECORD
  5
84
330
9
100
AcDbSymbolTableRecord
100
AcDbBlockTableRecord
  2
_CLOSEDBLANK
340
0
 70
0
280
1
281
0
  0
ENDTAB
  0
ENDSEC
  0
SECTION
  2
BLOCKS
  0
BLOCK
  5
18
330
17
100
AcDbEntity
  8
0
100
AcDbBlockBegin
  2
*Model_Space
 70
0
 10
0.0
 20
0.0
 30
0.0
  3
*Model_Space
  1

  0
ENDBLK
  5
19
330
17
100
AcDbEntity
  8
0
100
AcDbBlockEnd
  0
BLOCK
  5
1C
330
1B
100
AcDbEntity
  8
0
100
AcDbBlockBegin
  2
*Paper_Space
 70
0
 10
0.0
 20
0.0
 30
0.0
  3
*Paper_Space
  1

  0
ENDBLK
  5
1D
330
1B
100
AcDbEntity
  8
0
100
AcDbBlockEnd
  0
BLOCK
  5
75
330
74
100
AcDbEntity
  8
0
100
AcDbBlockBegin
  2
_ARCHTICK
 70
0
 10
0.0
 20
0.0
 30
0.0
  3
_ARCHTICK
  1

  0
LWPOLYLINE
  5
77
330
74
100
AcDbEntity
  8
0
  6
BYBLOCK
 62
0
100
AcDbPolyline
 90
2
 70
0
 43
0.15
 10
-0.5
 20
-0.5
 10
0.5
 20
0.5
  0
ENDBLK
  5
76
330
74
100
AcDbEntity
  8
0
100
AcDbBlockEnd
  0
BLOCK
  5
79
330
78
100
AcDbEntity
  8
0
100
AcDbBlockBegin
  2
_CLOSEDFILLED
 70
0
 10
0.0
 20
0.0
 30
0.0
  3
_CLOSEDFILLED
  1

  0
SOLID
  5
7B
330
78
100
AcDbEntity
  8
0
  6
BYBLOCK
 62
0
100
AcDbTrace
 10
-1.0
 20
0.16439898372402537
 30
0.0
 11
0.0
 21
0.0
 31
0.0
 12
-1.0
 22
-0.16439898372402537
 32
0.0
 13
-1.0
 23
-0.16439898372402537
 33
0.0
  0
ENDBLK
  5
7A
330
78
100
AcDbEntity
  8
0
100
AcDbBlockEnd
  0
BLOCK
  5
85
330
84
100
AcDbEntity
  8
0
100
AcDbBlockBegin
  2
_CLOSEDBLANK
 70
0
 10
0.0
 20
0.0
 30
0.0
  3
_CLOSEDBLANK
  1

  0
LWPOLYLINE
  5
87
330
84
100
AcDbEntity
  8
0
  6
BYBLOCK
 62
0
100
AcDbPolyline
 90
3
 70
1
 10
-1.0
 20
0.16439898372402537
 10
0.0
 20
0.0
 10
-1.0
 20
-0.16439898372402537
  0
ENDBLK
  5
86
330
84
100
AcDbEntity
  8
0
100
AcDbBlockEnd
  0
ENDSEC
  0
SECTION
  2
ENTITIES
  0
LWPOLYLINE
  5
8E
330
17
100
AcDbEntity
  8
REFERENCE-SHEET
100
AcDbPolyline
 90
4
 70
1
 10
0.0
 20
0.0
 10
2440.0
 20
0.0
 10
2440.0
 20
1220.0
 10
0.0
 20
1220.0
  0
TEXT
  5
8F
330
17
100
AcDbEntity
  8
REFERENCE-SHEET
100
AcDbText
 10
0.0
 20
1275.0
 30
0.0
 40
40.0
  1
17 mm BOARD - SHEET 1/1 - 2440 x 1220  (kerf side = BACK face, show face down)
 11
0.0
 21
1275.0
 31
0.0
100
AcDbText
  0
LWPOLYLINE
  5
90
330
17
100
AcDbEntity
  8
CUT
100
AcDbPolyline
 90
4
 70
1
 10
806.388519066288
 20
19.826826462032813
 10
1143.5374487823392
 20
341.1220165774796
 42
0.4283865023507377
 10
19.707683062168257
 20
341.1220165774796
 10
356.8566127782195
 20
19.826826462032813
 42
-0.4283865023507377
  0
LWPOLYLINE
  5
91
330
17
100
AcDbEntity
  8
POCKET-KERF-15
100
AcDbPolyline
 90
4
 70
1
 10
795.0238602581692
 20
26.88441134382612
 10
799.3015932157319
 20
22.677155617847294
 10
1130.2199552089219
 20
359.1388483597591
 10
1125.9422222513595
 20
363.34610408573803
  0
LWPOLYLINE
  5
92
330
17
100
AcDbEntity
  8
POCKET-KERF-15
100
AcDbPolyline
 90
4
 70
1
 10
787.7492969845347
 20
33.676920948153914
 10
792.1609900462141
 20
29.610354296846037
 10
1112.0135644636769
 20
376.6085727728638
 10
1107.6018714019974
 20
380.6751394241718
  0
LWPOLYLINE
  5
93
330
17
100
AcDbEntity
  8
POCKET-KERF-15
100
AcDbPolyline
 90
4
 70
1
 10
780.2586514868602
 20
40.230369473561346
 10
784.799679883983
 20
36.308754870298536
 10
1093.2511659363017
 20
393.4797415687215
 10
1088.710137539179
 20
397.4013561719842
  0
LWPOLYLINE
  5
94
330
17
100
AcDbEntity
  8
POCKET-KERF-15
100
AcDbPolyline
 90
4
 70
1
 10
772.5597761932625
 20
46.53788695357101
 10
777.2253795751918
 20
42.765335418796575
 10
1073.9524282102025
 20
409.73466873612546
 10
1069.286824828273
 20
413.50722027089995
  0
LWPOLYLINE
  5
95
330
17
100
AcDbEntity
  8
POCKET-KERF-15
100
AcDbPolyline
 90
4
 70
1
 10
764.660741818721
 20
52.592861230709474
 10
769.4460292431223
 20
48.973327522361586
 10
1054.1375821120532
 20
425.3563142686881
 10
1049.352294687652
 20
428.97584797703604
  0
LWPOLYLINE
  5
96
330
17
100
AcDbEntity
  8
POCKET-KERF-15
100
AcDbPolyline
 90
4
 70
1
 10
756.569828904564
 20
58.388944888018464
 10
761.4697839645695
 20
54.92622335576569
 10
1033.8273995038626
 20
440.32830202784453
 10
1028.9274444438572
 20
443.7910235600973
  0
LWPOLYLINE
  5
97
330
17
100
AcDbEntity
  8
POCKET-KERF-15
100
AcDbPolyline
 90
4
 70
1
 10
748.2955191379945
 20
63.920061903038714
 10
753.305005220892
 20
60.617782510671105
 10
1013.043171507874
 20
454.63493690992414
 10
1008.0336854249764
 20
457.93721630229174
  0
LWPOLYLINE
  5
98
330
17
100
AcDbEntity
  8
POCKET-KERF-15
100
AcDbPolyline
 90
4
 70
1
 10
739.8464864607544
 20
69.18041401729161
 10
744.9602521326882
 20
66.04203853743732
 10
991.8066861871258
 20
468.2612212992952
 10
986.692920515192
 20
471.3995967791496
  0
LWPOLYLINE
  5
99
330
17
100
AcDbEntity
  8
POCKET-KERF-15
100
AcDbPolyline
 90
4
 70
1
 10
731.2315879762504
 20
74.16448681458182
 10
736.444272487288
 20
71.19330519973771
 10
970.140205705071
 20
481.1928707903349
 10
964.9275211940333
 20
484.1640524051789
  0
LWPOLYLINE
  5
9A
330
17
100
AcDbEntity
  8
POCKET-KERF-15
100
AcDbPolyline
 90
4
 70
1
 10
722.4598546646705
 20
78.86705550174798
 10
727.7659935684661
 20
76.06618243542977
 10
948.0664429881965
 20
493.416329161741
 10
942.7603040844009
 20
496.2172022280592
  0
LWPOLYLINE
  5
9B
330
17
100
AcDbEntity
  8
POCKET-KERF-15
100
AcDbPolyline
 90
4
 70
1
 10
713.5404819158258
 20
83.28319038580273
 10
718.9345127979875
 20
80.65556201742831
 10
925.6085379161108
 20
504.9187825874915
 10
920.2145070339491
 20
507.5464109558659
  0
LWPOLYLINE
  5
9C
330
17
100
AcDbEntity
  8
POCKET-KERF-15
100
AcDbPolyline
 90
4
 70
1
 10
704.4828198896436
 20
87.40826204171964
 10
709.959088198801
 20
84.95663290864985
 10
902.790033064055
 20
515.6881730695511
 10
897.3137647548974
 20
518.139802202621
  0
LWPOLYLINE
  5
9D
330
17
100
AcDbEntity
  8
POCKET-KERF-15
100
AcDbPolyline
 90
4
 70
1
 10
695.2963637144121
 20
91.23794616544971
 10
700.8491286898715
 20
88.96488630541266
 10
879.6348490232706
 20
525.7132110782459
 10
874.0820840478111
 20
527.986270938283
  0
LWPOLYLINE
  5
9E
330
17
100
AcDbEntity
  8
POCKET-KERF-15
100
AcDbPolyline
 90
4
 70
1
 10
685.9907435330597
 20
94.76822810708045
 10
691.6141842228304
 20
92.67612036400617
 10
856.1672593250935
 20
534.9833873870539
 10
850.5438186353229
 20
537.0754951301283
  0
LWPOLYLINE
  5
9F
330
17
100
AcDbEntity
  8
POCKET-KERF-15
100
AcDbPolyline
 90
4
 70
1
 10
676.5757144078945
 20
97.99540707938489
 10
682.2639357707814
 20
96.08644460547508
 10
832.4118649950611
 20
543.4889840894049
 10
826.7236436321741
 20
545.3979465633148
  0
LWPOLYLINE
  5
A0
330
17
100
AcDbEntity
  8
POCKET-KERF-15
100
AcDbPolyline
 90
4
 70
1
 10
667.0611460943925
 20
100.91610003734941
 10
672.8081851797558
 20
99.19228399400045
 10
808.3935687637089
 20
551.2210847859421
 10
802.6465296783457
 20
552.9449008292911
  0
LWPOLYLINE
  5
A1
330
17
100
AcDbEntity
  8
POCKET-KERF-15
100
AcDbPolyline
 90
4
 70
1
 10
657.4570126947553
 20
103.52724522461244
 10
663.2568448934584
 20
101.9903826846022
 10
784.1375489610898
 20
558.1715839315655
 10
778.3377167623867
 20
559.7084464715758
  0
LWPOLYLINE
  5
A2
330
17
100
AcDbEntity
  8
POCKET-KERF-15
100
AcDbPolyline
 90
4
 70
1
 10
647.7733822020772
 20
105.82610538309778
 10
653.6199275620727
 20
104.47780743623478
 10
759.6692331223815
 20
564.3331953324569
 10
753.822687762386
 20
565.68149327932
  0
LWPOLYLINE
  5
A3
330
17
100
AcDbEntity
  8
POCKET-KERF-15
100
AcDbPolyline
 90
4
 70
1
 10
638.0204059460905
 20
107.81027062247603
 10
643.907535546021
 20
106.65195068669749
 10
735.0142713322566
 20
569.6994597841829
 10
729.1271417323261
 20
570.8577797199614
  0
LWPOLYLINE
  5
A4
330
17
100
AcDbEntity
  8
POCKET-KERF-15
100
AcDbPolyline
 90
4
 70
1
 10
628.2083079515471
 20
109.47766094644787
 10
634.1298503256808
 20
108.51053328613663
 10
710.1985093359506
 20
574.2647518428643
 10
704.2769669618169
 20
575.2318795031755
  0
LWPOLYLINE
  5
A5
330
17
100
AcDbEntity
  8
POCKET-KERF-15
100
AcDbPolyline
 90
4
 70
1
 10
618.3473742203947
 20
110.82652843319991
 10
624.29712182816
 20
110.05160688627362
 10
685.2479614452204
 20
578.0242857223185
 10
679.2982138374551
 20
578.7992072692449
  0
LWPOLYLINE
  5
A6
330
17
100
AcDbEntity
  8
POCKET-KERF-15
100
AcDbPolyline
 90
4
 70
1
 10
608.4479419489821
 20
111.85545906774752
 10
614.4196576823198
 20
111.27355598285413
 10
660.1887832675976
 20
580.9741203109884
 10
654.21706753426
 20
581.5560233958818
  0
LWPOLYLINE
  5
A7
330
17
100
AcDbEntity
  8
POCKET-KERF-15
100
AcDbPolyline
 90
4
 70
1
 10
598.5203886915979
 20
112.5633742242436
 10
604.5078124133079
 20
112.17509960917846
 10
635.047244287516
 20
583.1111633034014
 10
629.059820565806
 20
583.4994379184667
  0
LWPOLYLINE
  5
A8
330
17
100
AcDbEntity
  8
POCKET-KERF-15
100
AcDbPolyline
 90
4
 70
1
 10
588.575121481702
 20
112.94953179669996
 10
594.5719765879331
 20
112.75529267893548
 10
609.8497003280696
 20
584.4331744418275
 10
603.8528452218385
 20
584.627413559592
  0
LWPOLYLINE
  5
A9
330
17
100
AcDbEntity
  8
POCKET-KERF-15
100
AcDbPolyline
 90
4
 70
1
 10
578.6225659222538
 20
113.01352697693545
 10
584.6225659222538
 20
113.01352697693545
 10
584.6225659222538
 20
584.9387678647362
 10
578.6225659222538
 20
584.9387678647362
  0
LWPOLYLINE
  5
AA
330
17
100
AcDbEntity
  8
POCKET-KERF-15
100
AcDbPolyline
 90
4
 70
1
 10
568.6731552565745
 20
112.75529267893548
 10
574.6700103628057
 20
112.94953179669996
 10
559.3922866226693
 20
584.627413559592
 10
553.3954315164382
 20
584.4331744418275
  0
LWPOLYLINE
  5
AB
330
17
100
AcDbEntity
  8
POCKET-KERF-15
100
AcDbPolyline
 90
4
 70
1
 10
558.7373194311997
 20
112.17509960917846
 10
564.7247431529097
 20
112.5633742242436
 10
534.1853112787016
 20
583.4994379184667
 10
528.1978875569915
 20
583.1111633034014
  0
LWPOLYLINE
  5
AC
330
17
100
AcDbEntity
  8
POCKET-KERF-15
100
AcDbPolyline
 90
4
 70
1
 10
548.8254741621879
 20
111.27355598285413
 10
554.7971898955254
 20
111.85545906774752
 10
509.02806431024766
 20
581.5560233958818
 10
503.05634857691007
 20
580.9741203109884
  0
LWPOLYLINE
  5
AD
330
17
100
AcDbEntity
  8
POCKET-KERF-15
100
AcDbPolyline
 90
4
 70
1
 10
538.9480100163476
 20
110.05160688627362
 10
544.8977576241128
 20
110.82652843319991
 10
483.9469180070525
 20
578.7992072692449
 10
477.9971703992872
 20
578.0242857223185
  0
LWPOLYLINE
  5
AE
330
17
100
AcDbEntity
  8
POCKET-KERF-15
100
AcDbPolyline
 90
4
 70
1
 10
529.1152815188268
 20
108.51053328613663
 10
535.0368238929606
 20
109.47766094644787
 10
458.9681648826908
 20
575.2318795031755
 10
453.0466225085571
 20
574.2647518428643
  0
LWPOLYLINE
  5
AF
330
17
100
AcDbEntity
  8
POCKET-KERF-15
100
AcDbPolyline
 90
4
 70
1
 10
519.3375962984866
 20
106.65195068669749
 10
525.2247258984172
 20
107.81027062247603
 10
434.11799011218164
 20
570.8577797199615
 10
428.2308605122511
 20
569.699459784183
  0
LWPOLYLINE
  5
B0
330
17
100
AcDbEntity
  8
POCKET-KERF-15
100
AcDbPolyline
 90
4
 70
1
 10
509.625204282435
 20
104.47780743623484
 10
515.4717496424304
 20
105.82610538309784
 10
409.4224440821217
 20
565.6814932793201
 10
403.57589872212617
 20
564.333195332457
  0
LWPOLYLINE
  5
B1
330
17
100
AcDbEntity
  8
POCKET-KERF-15
100
AcDbPolyline
 90
4
 70
1
 10
499.98828695104925
 20
101.9903826846022
 10
505.78811914975233
 20
103.52724522461244
 10
384.90741508212096
 20
559.7084464715758
 10
379.1075828834178
 20
558.1715839315655
  0
LWPOLYLINE
  5
B2
330
17
100
AcDbEntity
  8
POCKET-KERF-15
100
AcDbPolyline
 90
4
 70
1
 10
490.4369466647519
 20
99.19228399400045
 10
496.18398575011514
 20
100.91610003734941
 10
360.59860216616187
 20
552.9449008292912
 10
354.85156308079866
 20
551.2210847859423
  0
LWPOLYLINE
  5
B3
330
17
100
AcDbEntity
  8
POCKET-KERF-15
100
AcDbPolyline
 90
4
 70
1
 10
480.9811960737262
 20
96.08644460547508
 10
486.6694174366132
 20
97.99540707938489
 10
336.5214882123335
 20
545.3979465633148
 10
330.8332668494465
 20
543.4889840894049
  0
LWPOLYLINE
  5
B4
330
17
100
AcDbEntity
  8
POCKET-KERF-15
100
AcDbPolyline
 90
4
 70
1
 10
471.63094762167725
 20
92.67612036400621
 10
477.25438831144794
 20
94.76822810708049
 10
312.70131320918506
 20
537.0754951301284
 10
307.0778725194144
 20
534.983387387054
  0
LWPOLYLINE
  5
B5
330
17
100
AcDbEntity
  8
POCKET-KERF-15
100
AcDbPolyline
 90
4
 70
1
 10
462.3960031546361
 20
88.96488630541272
 10
467.94876813009546
 20
91.23794616544977
 10
289.16304779669645
 20
527.9862709382832
 10
283.6102828212371
 20
525.713211078246
  0
LWPOLYLINE
  5
B6
330
17
100
AcDbEntity
  8
POCKET-KERF-15
100
AcDbPolyline
 90
4
 70
1
 10
453.28604364570657
 20
84.95663290864991
 10
458.7623119548641
 20
87.4082620417197
 10
265.93136708961015
 20
518.1398022026211
 10
260.45509878045254
 20
515.6881730695512
  0
LWPOLYLINE
  5
B7
330
17
100
AcDbEntity
  8
POCKET-KERF-15
100
AcDbPolyline
 90
4
 70
1
 10
444.31061904652006
 20
80.65556201742837
 10
449.7046499286817
 20
83.28319038580278
 10
243.03062481055858
 20
507.546410955866
 10
237.63659392839688
 20
504.9187825874916
  0
LWPOLYLINE
  5
B8
330
17
100
AcDbEntity
  8
POCKET-KERF-15
100
AcDbPolyline
 90
4
 70
1
 10
435.47913827604157
 20
76.06618243542977
 10
440.7852771798372
 20
78.86705550174798
 10
220.4848277601067
 20
496.2172022280592
 10
215.17868885631108
 20
493.416329161741
  0
LWPOLYLINE
  5
B9
330
17
100
AcDbEntity
  8
POCKET-KERF-15
100
AcDbPolyline
 90
4
 70
1
 10
426.8008593572195
 20
71.19330519973771
 10
432.01354386825716
 20
74.16448681458182
 10
198.31761065047434
 20
484.1640524051789
 10
193.10492613943657
 20
481.1928707903349
  0
LWPOLYLINE
  5
BA
330
17
100
AcDbEntity
  8
POCKET-KERF-15
100
AcDbPolyline
 90
4
 70
1
 10
418.28487971181954
 20
66.04203853743732
 10
423.3986453837534
 20
69.18041401729161
 10
176.5522113293156
 20
471.3995967791496
 10
171.43844565738178
 20
468.2612212992952
  0
LWPOLYLINE
  5
BB
330
17
100
AcDbEntity
  8
POCKET-KERF-15
100
AcDbPolyline
 90
4
 70
1
 10
409.94012662361564
 20
60.617782510671105
 10
414.94961270651316
 20
63.920061903038714
 10
155.21144641953106
 20
457.93721630229163
 10
150.20196033663353
 20
454.634936909924
  0
LWPOLYLINE
  5
BC
330
17
100
AcDbEntity
  8
POCKET-KERF-15
100
AcDbPolyline
 90
4
 70
1
 10
401.7753478799381
 20
54.92622335576572
 10
406.6753029399436
 20
58.38894488801849
 10
134.3176874006505
 20
443.7910235600974
 10
129.41773234064502
 20
440.32830202784464
  0
LWPOLYLINE
  5
BD
330
17
100
AcDbEntity
  8
POCKET-KERF-15
100
AcDbPolyline
 90
4
 70
1
 10
393.79910260138536
 20
48.97332752236167
 10
398.58439002578666
 20
52.59286123070956
 10
113.89283715685596
 20
428.97584797703627
 10
109.10754973245466
 20
425.3563142686883
  0
LWPOLYLINE
  5
BE
330
17
100
AcDbEntity
  8
POCKET-KERF-15
100
AcDbPolyline
 90
4
 70
1
 10
386.0197522693157
 20
42.765335418796624
 10
390.6853556512452
 20
46.53788695357106
 10
93.95830701623474
 20
413.50722027090006
 10
89.29270363430537
 20
409.73466873612557
  0
LWPOLYLINE
  5
BF
330
17
100
AcDbEntity
  8
POCKET-KERF-15
100
AcDbPolyline
 90
4
 70
1
 10
378.4454519605246
 20
36.30875487029859
 10
382.9864803576474
 20
40.2303694735614
 10
74.53499430532885
 20
397.40135617198433
 10
69.99396590820596
 20
393.47974156872164
  0
LWPOLYLINE
  5
C0
330
17
100
AcDbEntity
  8
POCKET-KERF-15
100
AcDbPolyline
 90
4
 70
1
 10
371.08414179829356
 20
29.610354296846122
 10
375.495834859973
 20
33.676920948154
 10
55.64326044251028
 20
380.675139424172
 10
51.23156738083084
 20
376.608572772864
  0
LWPOLYLINE
  5
C1
330
17
100
AcDbEntity
  8
POCKET-KERF-15
100
AcDbPolyline
 90
4
 70
1
 10
363.94353862877574
 20
22.677155617847347
 10
368.22127158633845
 20
26.884411343826173
 10
37.30290959314843
 20
363.34610408573815
 10
33.02517663558578
 20
359.1388483597592
  0
LWPOLYLINE
  5
C2
330
17
100
AcDbEntity
  8
POCKET-KERF-15
100
AcDbPolyline
 90
4
 70
1
 10
806.2140039130649
 20
15.516426891077042
 10
802.0747153981932
 20
19.85996123428792
 10
1143.7119639355624
 20
345.4324161484354
 10
1147.851252450434
 20
341.0888818052245
  0
LWPOLYLINE
  5
C3
330
17
100
AcDbEntity
  8
POCKET-KERF-15
100
AcDbPolyline
 90
4
 70
1
 10
357.03112793144265
 20
15.516426891077042
 10
361.1704164463143
 20
19.85996123428792
 10
19.533167908945114
 20
345.4324161484354
 10
15.39387939407349
 20
341.0888818052245
  0
TEXT
  5
C4
330
17
100
AcDbEntity
  8
ENGRAVE-LABEL
100
AcDbText
 10
544.9947562899292
 20
559.1902511133774
 30
0.0
 40
7.0
  1
01 1/2
 50
90.0
 72
1
 11
544.9947562899292
 21
559.1902511133774
 31
0.0
100
AcDbText
 73
2
  0
LWPOLYLINE
  5
C5
330
17
100
AcDbEntity
  8
CUT
100
AcDbPolyline
 90
4
 70
1
 10
806.388519066288
 20
563.8268264620328
 10
1143.5374487823392
 20
885.1220165774796
 42
0.4283865023507377
 10
19.707683062168257
 20
885.1220165774796
 10
356.8566127782195
 20
563.8268264620328
 42
-0.4283865023507377
  0
LWPOLYLINE
  5
C6
330
17
100
AcDbEntity
  8
POCKET-KERF-15
100
AcDbPolyline
 90
4
 70
1
 10
795.0238602581692
 20
570.8844113438261
 10
799.3015932157319
 20
566.6771556178473
 10
1130.2199552089219
 20
903.1388483597591
 10
1125.9422222513595
 20
907.346104085738
  0
LWPOLYLINE
  5
C7
330
17
100
AcDbEntity
  8
POCKET-KERF-15
100
AcDbPolyline
 90
4
 70
1
 10
787.7492969845347
 20
577.6769209481539
 10
792.1609900462141
 20
573.610354296846
 10
1112.0135644636769
 20
920.6085727728638
 10
1107.6018714019974
 20
924.6751394241718
  0
LWPOLYLINE
  5
C8
330
17
100
AcDbEntity
  8
POCKET-KERF-15
100
AcDbPolyline
 90
4
 70
1
 10
780.2586514868602
 20
584.2303694735614
 10
784.799679883983
 20
580.3087548702986
 10
1093.2511659363017
 20
937.4797415687215
 10
1088.710137539179
 20
941.4013561719842
  0
LWPOLYLINE
  5
C9
330
17
100
AcDbEntity
  8
POCKET-KERF-15
100
AcDbPolyline
 90
4
 70
1
 10
772.5597761932625
 20
590.5378869535709
 10
777.2253795751918
 20
586.7653354187966
 10
1073.9524282102025
 20
953.7346687361255
 10
1069.286824828273
 20
957.5072202709
  0
LWPOLYLINE
  5
CA
330
17
100
AcDbEntity
  8
POCKET-KERF-15
100
AcDbPolyline
 90
4
 70
1
 10
764.660741818721
 20
596.5928612307094
 10
769.4460292431223
 20
592.9733275223616
 10
1054.1375821120532
 20
969.3563142686882
 10
1049.352294687652
 20
972.9758479770361
  0
LWPOLYLINE
  5
CB
330
17
100
AcDbEntity
  8
POCKET-KERF-15
100
AcDbPolyline
 90
4
 70
1
 10
756.569828904564
 20
602.3889448880185
 10
761.4697839645695
 20
598.9262233557657
 10
1033.8273995038626
 20
984.3283020278445
 10
1028.9274444438572
 20
987.7910235600973
  0
LWPOLYLINE
  5
CC
330
17
100
AcDbEntity
  8
POCKET-KERF-15
100
AcDbPolyline
 90
4
 70
1
 10
748.2955191379945
 20
607.9200619030387
 10
753.305005220892
 20
604.6177825106711
 10
1013.043171507874
 20
998.6349369099241
 10
1008.0336854249764
 20
1001.9372163022917
  0
LWPOLYLINE
  5
CD
330
17
100
AcDbEntity
  8
POCKET-KERF-15
100
AcDbPolyline
 90
4
 70
1
 10
739.8464864607544
 20
613.1804140172917
 10
744.9602521326882
 20
610.0420385374374
 10
991.8066861871258
 20
1012.2612212992951
 10
986.692920515192
 20
1015.3995967791495
  0
LWPOLYLINE
  5
CE
330
17
100
AcDbEntity
  8
POCKET-KERF-15
100
AcDbPolyline
 90
4
 70
1
 10
731.2315879762504
 20
618.1644868145819
 10
736.444272487288
 20
615.1933051997378
 10
970.140205705071
 20
1025.1928707903348
 10
964.9275211940333
 20
1028.1640524051788
  0
LWPOLYLINE
  5
CF
330
17
100
AcDbEntity
  8
POCKET-KERF-15
100
AcDbPolyline
 90
4
 70
1
 10
722.4598546646705
 20
622.8670555017479
 10
727.7659935684661
 20
620.0661824354297
 10
948.0664429881965
 20
1037.416329161741
 10
942.7603040844009
 20
1040.2172022280593
  0
LWPOLYLINE
  5
D0
330
17
100
AcDbEntity
  8
POCKET-KERF-15
100
AcDbPolyline
 90
4
 70
1
 10
713.5404819158258
 20
627.2831903858028
 10
718.9345127979875
 20
624.6555620174283
 10
925.6085379161108
 20
1048.9187825874915
 10
920.2145070339491
 20
1051.546410955866
  0
LWPOLYLINE
  5
D1
330
17
100
AcDbEntity
  8
POCKET-KERF-15
100
AcDbPolyline
 90
4
 70
1
 10
704.4828198896436
 20
631.4082620417196
 10
709.959088198801
 20
628.9566329086498
 10
902.790033064055
 20
1059.688173069551
 10
897.3137647548974
 20
1062.139802202621
  0
LWPOLYLINE
  5
D2
330
17
100
AcDbEntity
  8
POCKET-KERF-15
100
AcDbPolyline
 90
4
 70
1
 10
695.2963637144121
 20
635.2379461654498
 10
700.8491286898715
 20
632.9648863054127
 10
879.6348490232706
 20
1069.7132110782459
 10
874.0820840478111
 20
1071.9862709382833
  0
LWPOLYLINE
  5
D3
330
17
100
AcDbEntity
  8
POCKET-KERF-15
100
AcDbPolyline
 90
4
 70
1
 10
685.9907435330597
 20
638.7682281070805
 10
691.6141842228304
 20
636.6761203640062
 10
856.1672593250935
 20
1078.9833873870539
 10
850.5438186353229
 20
1081.0754951301283
  0
LWPOLYLINE
  5
D4
330
17
100
AcDbEntity
  8
POCKET-KERF-15
100
AcDbPolyline
 90
4
 70
1
 10
676.5757144078945
 20
641.9954070793849
 10
682.2639357707814
 20
640.0864446054751
 10
832.4118649950611
 20
1087.4889840894048
 10
826.7236436321741
 20
1089.3979465633147
  0
LWPOLYLINE
  5
D5
330
17
100
AcDbEntity
  8
POCKET-KERF-15
100
AcDbPolyline
 90
4
 70
1
 10
667.0611460943925
 20
644.9161000373495
 10
672.8081851797558
 20
643.1922839940005
 10
808.3935687637089
 20
1095.2210847859421
 10
802.6465296783457
 20
1096.944900829291
  0
LWPOLYLINE
  5
D6
330
17
100
AcDbEntity
  8
POCKET-KERF-15
100
AcDbPolyline
 90
4
 70
1
 10
657.4570126947553
 20
647.5272452246124
 10
663.2568448934584
 20
645.9903826846022
 10
784.1375489610898
 20
1102.1715839315655
 10
778.3377167623867
 20
1103.7084464715758
  0
LWPOLYLINE
  5
D7
330
17
100
AcDbEntity
  8
POCKET-KERF-15
100
AcDbPolyline
 90
4
 70
1
 10
647.7733822020772
 20
649.8261053830978
 10
653.6199275620727
 20
648.4778074362348
 10
759.6692331223815
 20
1108.3331953324569
 10
753.822687762386
 20
1109.68149327932
  0
LWPOLYLINE
  5
D8
330
17
100
AcDbEntity
  8
POCKET-KERF-15
100
AcDbPolyline
 90
4
 70
1
 10
638.0204059460905
 20
651.810270622476
 10
643.907535546021
 20
650.6519506866974
 10
735.0142713322566
 20
1113.6994597841829
 10
729.1271417323261
 20
1114.8577797199614
  0
LWPOLYLINE
  5
D9
330
17
100
AcDbEntity
  8
POCKET-KERF-15
100
AcDbPolyline
 90
4
 70
1
 10
628.2083079515471
 20
653.4776609464478
 10
634.1298503256808
 20
652.5105332861366
 10
710.1985093359506
 20
1118.2647518428644
 10
704.2769669618169
 20
1119.2318795031756
  0
LWPOLYLINE
  5
DA
330
17
100
AcDbEntity
  8
POCKET-KERF-15
100
AcDbPolyline
 90
4
 70
1
 10
618.3473742203947
 20
654.8265284331999
 10
624.29712182816
 20
654.0516068862736
 10
685.2479614452204
 20
1122.0242857223186
 10
679.2982138374551
 20
1122.7992072692448
  0
LWPOLYLINE
  5
DB
330
17
100
AcDbEntity
  8
POCKET-KERF-15
100
AcDbPolyline
 90
4
 70
1
 10
608.4479419489821
 20
655.8554590677476
 10
614.4196576823198
 20
655.2735559828542
 10
660.1887832675976
 20
1124.9741203109884
 10
654.21706753426
 20
1125.5560233958818
  0
LWPOLYLINE
  5
DC
330
17
100
AcDbEntity
  8
POCKET-KERF-15
100
AcDbPolyline
 90
4
 70
1
 10
598.5203886915979
 20
656.5633742242436
 10
604.5078124133079
 20
656.1750996091785
 10
635.047244287516
 20
1127.1111633034013
 10
629.059820565806
 20
1127.4994379184666
  0
LWPOLYLINE
  5
DD
330
17
100
AcDbEntity
  8
POCKET-KERF-15
100
AcDbPolyline
 90
4
 70
1
 10
588.575121481702
 20
656.9495317967
 10
594.5719765879331
 20
656.7552926789355
 10
609.8497003280696
 20
1128.4331744418278
 10
603.8528452218385
 20
1128.6274135595922
  0
LWPOLYLINE
  5
DE
330
17
100
AcDbEntity
  8
POCKET-KERF-15
100
AcDbPolyline
 90
4
 70
1
 10
578.6225659222538
 20
657.0135269769354
 10
584.6225659222538
 20
657.0135269769354
 10
584.6225659222538
 20
1128.938767864736
 10
578.6225659222538
 20
1128.938767864736
  0
LWPOLYLINE
  5
DF
330
17
100
AcDbEntity
  8
POCKET-KERF-15
100
AcDbPolyline
 90
4
 70
1
 10
568.6731552565745
 20
656.7552926789355
 10
574.6700103628057
 20
656.9495317967
 10
559.3922866226693
 20
1128.6274135595922
 10
553.3954315164382
 20
1128.4331744418278
  0
LWPOLYLINE
  5
E0
330
17
100
AcDbEntity
  8
POCKET-KERF-15
100
AcDbPolyline
 90
4
 70
1
 10
558.7373194311997
 20
656.1750996091785
 10
564.7247431529097
 20
656.5633742242436
 10
534.1853112787016
 20
1127.4994379184666
 10
528.1978875569915
 20
1127.1111633034013
  0
LWPOLYLINE
  5
E1
330
17
100
AcDbEntity
  8
POCKET-KERF-15
100
AcDbPolyline
 90
4
 70
1
 10
548.8254741621879
 20
655.2735559828542
 10
554.7971898955254
 20
655.8554590677476
 10
509.02806431024766
 20
1125.5560233958818
 10
503.05634857691007
 20
1124.9741203109884
  0
LWPOLYLINE
  5
E2
330
17
100
AcDbEntity
  8
POCKET-KERF-15
100
AcDbPolyline
 90
4
 70
1
 10
538.9480100163476
 20
654.0516068862736
 10
544.8977576241128
 20
654.8265284331999
 10
483.9469180070525
 20
1122.7992072692448
 10
477.9971703992872
 20
1122.0242857223186
  0
LWPOLYLINE
  5
E3
330
17
100
AcDbEntity
  8
POCKET-KERF-15
100
AcDbPolyline
 90
4
 70
1
 10
529.1152815188268
 20
652.5105332861366
 10
535.0368238929606
 20
653.4776609464478
 10
458.9681648826908
 20
1119.2318795031756
 10
453.0466225085571
 20
1118.2647518428644
  0
LWPOLYLINE
  5
E4
330
17
100
AcDbEntity
  8
POCKET-KERF-15
100
AcDbPolyline
 90
4
 70
1
 10
519.3375962984866
 20
650.6519506866974
 10
525.2247258984172
 20
651.810270622476
 10
434.11799011218164
 20
1114.8577797199616
 10
428.2308605122511
 20
1113.6994597841829
  0
LWPOLYLINE
  5
E5
330
17
100
AcDbEntity
  8
POCKET-KERF-15
100
AcDbPolyline
 90
4
 70
1
 10
509.625204282435
 20
648.4778074362349
 10
515.4717496424304
 20
649.8261053830979
 10
409.4224440821217
 20
1109.6814932793202
 10
403.57589872212617
 20
1108.333195332457
  0
LWPOLYLINE
  5
E6
330
17
100
AcDbEntity
  8
POCKET-KERF-15
100
AcDbPolyline
 90
4
 70
1
 10
499.98828695104925
 20
645.9903826846022
 10
505.78811914975233
 20
647.5272452246124
 10
384.90741508212096
 20
1103.7084464715758
 10
379.1075828834178
 20
1102.1715839315655
  0
LWPOLYLINE
  5
E7
330
17
100
AcDbEntity
  8
POCKET-KERF-15
100
AcDbPolyline
 90
4
 70
1
 10
490.4369466647519
 20
643.1922839940005
 10
496.18398575011514
 20
644.9161000373495
 10
360.59860216616187
 20
1096.9449008292913
 10
354.85156308079866
 20
1095.2210847859424
  0
LWPOLYLINE
  5
E8
330
17
100
AcDbEntity
  8
POCKET-KERF-15
100
AcDbPolyline
 90
4
 70
1
 10
480.9811960737262
 20
640.0864446054751
 10
486.6694174366132
 20
641.9954070793849
 10
336.5214882123335
 20
1089.3979465633147
 10
330.8332668494465
 20
1087.4889840894048
  0
LWPOLYLINE
  5
E9
330
17
100
AcDbEntity
  8
POCKET-KERF-15
100
AcDbPolyline
 90
4
 70
1
 10
471.63094762167725
 20
636.6761203640062
 10
477.25438831144794
 20
638.7682281070805
 10
312.70131320918506
 20
1081.0754951301285
 10
307.0778725194144
 20
1078.983387387054
  0
LWPOLYLINE
  5
EA
330
17
100
AcDbEntity
  8
POCKET-KERF-15
100
AcDbPolyline
 90
4
 70
1
 10
462.3960031546361
 20
632.9648863054127
 10
467.94876813009546
 20
635.2379461654498
 10
289.16304779669645
 20
1071.9862709382833
 10
283.6102828212371
 20
1069.713211078246
  0
LWPOLYLINE
  5
EB
330
17
100
AcDbEntity
  8
POCKET-KERF-15
100
AcDbPolyline
 90
4
 70
1
 10
453.28604364570657
 20
628.9566329086499
 10
458.7623119548641
 20
631.4082620417197
 10
265.93136708961015
 20
1062.139802202621
 10
260.45509878045254
 20
1059.6881730695513
  0
LWPOLYLINE
  5
EC
330
17
100
AcDbEntity
  8
POCKET-KERF-15
100
AcDbPolyline
 90
4
 70
1
 10
444.31061904652006
 20
624.6555620174283
 10
449.7046499286817
 20
627.2831903858028
 10
243.03062481055858
 20
1051.546410955866
 10
237.63659392839688
 20
1048.9187825874917
  0
LWPOLYLINE
  5
ED
330
17
100
AcDbEntity
  8
POCKET-KERF-15
100
AcDbPolyline
 90
4
 70
1
 10
435.47913827604157
 20
620.0661824354297
 10
440.7852771798372
 20
622.8670555017479
 10
220.4848277601067
 20
1040.2172022280593
 10
215.17868885631108
 20
1037.416329161741
  0
LWPOLYLINE
  5
EE
330
17
100
AcDbEntity
  8
POCKET-KERF-15
100
AcDbPolyline
 90
4
 70
1
 10
426.8008593572195
 20
615.1933051997378
 10
432.01354386825716
 20
618.1644868145819
 10
198.31761065047434
 20
1028.1640524051788
 10
193.10492613943657
 20
1025.1928707903348
  0
LWPOLYLINE
  5
EF
330
17
100
AcDbEntity
  8
POCKET-KERF-15
100
AcDbPolyline
 90
4
 70
1
 10
418.28487971181954
 20
610.0420385374374
 10
423.3986453837534
 20
613.1804140172917
 10
176.5522113293156
 20
1015.3995967791495
 10
171.43844565738178
 20
1012.2612212992951
  0
LWPOLYLINE
  5
F0
330
17
100
AcDbEntity
  8
POCKET-KERF-15
100
AcDbPolyline
 90
4
 70
1
 10
409.94012662361564
 20
604.6177825106711
 10
414.94961270651316
 20
607.9200619030387
 10
155.21144641953106
 20
1001.9372163022916
 10
150.20196033663353
 20
998.634936909924
  0
LWPOLYLINE
  5
F1
330
17
100
AcDbEntity
  8
POCKET-KERF-15
100
AcDbPolyline
 90
4
 70
1
 10
401.7753478799381
 20
598.9262233557657
 10
406.6753029399436
 20
602.3889448880185
 10
134.3176874006505
 20
987.7910235600974
 10
129.41773234064502
 20
984.3283020278446
  0
LWPOLYLINE
  5
F2
330
17
100
AcDbEntity
  8
POCKET-KERF-15
100
AcDbPolyline
 90
4
 70
1
 10
393.79910260138536
 20
592.9733275223616
 10
398.58439002578666
 20
596.5928612307096
 10
113.89283715685596
 20
972.9758479770363
 10
109.10754973245466
 20
969.3563142686884
  0
LWPOLYLINE
  5
F3
330
17
100
AcDbEntity
  8
POCKET-KERF-15
100
AcDbPolyline
 90
4
 70
1
 10
386.0197522693157
 20
586.7653354187966
 10
390.6853556512452
 20
590.537886953571
 10
93.95830701623474
 20
957.5072202709001
 10
89.29270363430537
 20
953.7346687361256
  0
LWPOLYLINE
  5
F4
330
17
100
AcDbEntity
  8
POCKET-KERF-15
100
AcDbPolyline
 90
4
 70
1
 10
378.4454519605246
 20
580.3087548702986
 10
382.9864803576474
 20
584.2303694735615
 10
74.53499430532885
 20
941.4013561719843
 10
69.99396590820596
 20
937.4797415687216
  0
LWPOLYLINE
  5
F5
330
17
100
AcDbEntity
  8
POCKET-KERF-15
100
AcDbPolyline
 90
4
 70
1
 10
371.08414179829356
 20
573.6103542968461
 10
375.495834859973
 20
577.676920948154
 10
55.64326044251028
 20
924.675139424172
 10
51.23156738083084
 20
920.608572772864
  0
LWPOLYLINE
  5
F6
330
17
100
AcDbEntity
  8
POCKET-KERF-15
100
AcDbPolyline
 90
4
 70
1
 10
363.94353862877574
 20
566.6771556178473
 10
368.22127158633845
 20
570.8844113438262
 10
37.30290959314843
 20
907.3461040857381
 10
33.02517663558578
 20
903.1388483597592
  0
LWPOLYLINE
  5
F7
330
17
100
AcDbEntity
  8
POCKET-KERF-15
100
AcDbPolyline
 90
4
 70
1
 10
806.2140039130649
 20
559.516426891077
 10
802.0747153981932
 20
563.8599612342879
 10
1143.7119639355624
 20
889.4324161484354
 10
1147.851252450434
 20
885.0888818052246
  0
LWPOLYLINE
  5
F8
330
17
100
AcDbEntity
  8
POCKET-KERF-15
100
AcDbPolyline
 90
4
 70
1
 10
357.03112793144265
 20
559.516426891077
 10
361.1704164463143
 20
563.8599612342879
 10
19.533167908945114
 20
889.4324161484354
 10
15.39387939407349
 20
885.0888818052246
  0
TEXT
  5
F9
330
17
100
AcDbEntity
  8
ENGRAVE-LABEL
100
AcDbText
 10
544.9947562899292
 20
1103.1902511133771
 30
0.0
 40
7.0
  1
01 2/2
 50
90.0
 72
1
 11
544.9947562899292
 21
1103.1902511133771
 31
0.0
100
AcDbText
 73
2
  0
LWPOLYLINE
  5
FA
330
17
100
AcDbEntity
  8
CUT
100
AcDbPolyline
 90
2
 70
1
 10
1304.7452040218107
 20
607.3726020109053
 42
1.0
 10
950.0
 20
607.3726020109053
 42
1.0
  0
LWPOLYLINE
  5
FB
330
17
100
AcDbEntity
  8
CUT
100
AcDbPolyline
 90
8
 70
1
 10
1014.0560860546694
 20
601.5726020109053
 42
2.414213562373095
 10
1017.2560860546695
 20
598.3726020109053
 10
1051.8560860546695
 20
598.3726020109053
 42
2.414213562373095
 10
1055.0560860546695
 20
601.5726020109053
 10
1055.0560860546695
 20
613.1726020109053
 42
2.414213562373095
 10
1051.8560860546695
 20
616.3726020109053
 10
1017.2560860546695
 20
616.3726020109053
 42
2.414213562373095
 10
1014.0560860546694
 20
613.1726020109053
  0
LWPOLYLINE
  5
FC
330
17
100
AcDbEntity
  8
CUT
100
AcDbPolyline
 90
8
 70
1
 10
1199.689117967141
 20
601.5726020109053
 42
2.414213562373095
 10
1202.8891179671411
 20
598.3726020109053
 10
1237.489117967141
 20
598.3726020109053
 42
2.414213562373095
 10
1240.689117967141
 20
601.5726020109053
 10
1240.689117967141
 20
613.1726020109053
 42
2.414213562373095
 10
1237.489117967141
 20
616.3726020109053
 10
1202.8891179671411
 20
616.3726020109053
 42
2.414213562373095
 10
1199.689117967141
 20
613.1726020109053
  0
LWPOLYLINE
  5
FD
330
17
100
AcDbEntity
  8
CUT
100
AcDbPolyline
 90
8
 70
1
 10
1133.1726020109054
 20
494.0560860546695
 42
2.414213562373095
 10
1136.3726020109052
 20
497.2560860546695
 10
1136.3726020109052
 20
531.8560860546695
 42
2.414213562373095
 10
1133.1726020109054
 20
535.0560860546694
 10
1121.5726020109053
 20
535.0560860546694
 42
2.414213562373095
 10
1118.3726020109052
 20
531.8560860546695
 10
1118.3726020109052
 20
497.2560860546695
 42
2.414213562373095
 10
1121.5726020109053
 20
494.0560860546695
  0
LWPOLYLINE
  5
FE
330
17
100
AcDbEntity
  8
CUT
100
AcDbPolyline
 90
8
 70
1
 10
1133.1726020109054
 20
679.6891179671411
 42
2.414213562373095
 10
1136.3726020109052
 20
682.8891179671411
 10
1136.3726020109052
 20
717.489117967141
 42
2.414213562373095
 10
1133.1726020109054
 20
720.6891179671411
 10
1121.5726020109053
 20
720.6891179671411
 42
2.414213562373095
 10
1118.3726020109052
 20
717.489117967141
 10
1118.3726020109052
 20
682.8891179671411
 42
2.414213562373095
 10
1121.5726020109053
 20
679.6891179671411
  0
TEXT
  5
FF
330
17
100
AcDbEntity
  8
ENGRAVE-LABEL
100
AcDbText
 10
1127.3726020109052
 20
607.3726020109053
 30
0.0
 40
22.0
  1
02 FORMER-BASE 1/2
 50
30.0
 72
1
 11
1127.3726020109052
 21
607.3726020109053
 31
0.0
100
AcDbText
 73
2
  0
LWPOLYLINE
  5
100
330
17
100
AcDbEntity
  8
CUT
100
AcDbPolyline
 90
2
 70
1
 10
1448.7452040218107
 20
195.3726020109053
 42
1.0
 10
1094.0
 20
195.3726020109053
 42
1.0
  0
LWPOLYLINE
  5
101
330
17
100
AcDbEntity
  8
CUT
100
AcDbPolyline
 90
8
 70
1
 10
1158.0560860546695
 20
189.57260201090529
 42
2.414213562373095
 10
1161.2560860546696
 20
186.3726020109053
 10
1195.8560860546695
 20
186.3726020109053
 42
2.414213562373095
 10
1199.0560860546695
 20
189.57260201090529
 10
1199.0560860546695
 20
201.1726020109053
 42
2.414213562373095
 10
1195.8560860546695
 20
204.3726020109053
 10
1161.2560860546696
 20
204.3726020109053
 42
2.414213562373095
 10
1158.0560860546695
 20
201.1726020109053
  0
LWPOLYLINE
  5
102
330
17
100
AcDbEntity
  8
CUT
100
AcDbPolyline
 90
8
 70
1
 10
1343.689117967141
 20
189.57260201090529
 42
2.414213562373095
 10
1346.8891179671411
 20
186.3726020109053
 10
1381.489117967141
 20
186.3726020109053
 42
2.414213562373095
 10
1384.689117967141
 20
189.57260201090529
 10
1384.689117967141
 20
201.1726020109053
 42
2.414213562373095
 10
1381.489117967141
 20
204.3726020109053
 10
1346.8891179671411
 20
204.3726020109053
 42
2.414213562373095
 10
1343.689117967141
 20
201.1726020109053
  0
LWPOLYLINE
  5
103
330
17
100
AcDbEntity
  8
CUT
100
AcDbPolyline
 90
8
 70
1
 10
1277.1726020109054
 20
82.05608605466948
 42
2.414213562373095
 10
1280.3726020109052
 20
85.25608605466948
 10
1280.3726020109052
 20
119.85608605466948
 42
2.414213562373095
 10
1277.1726020109054
 20
123.05608605466948
 10
1265.5726020109053
 20
123.05608605466948
 42
2.414213562373095
 10
1262.3726020109052
 20
119.85608605466948
 10
1262.3726020109052
 20
85.25608605466948
 42
2.414213562373095
 10
1265.5726020109053
 20
82.05608605466948
  0
LWPOLYLINE
  5
104
330
17
100
AcDbEntity
  8
CUT
100
AcDbPolyline
 90
8
 70
1
 10
1277.1726020109054
 20
267.6891179671411
 42
2.414213562373095
 10
1280.3726020109052
 20
270.88911796714115
 10
1280.3726020109052
 20
305.4891179671411
 42
2.414213562373095
 10
1277.1726020109054
 20
308.6891179671411
 10
1265.5726020109053
 20
308.6891179671411
 42
2.414213562373095
 10
1262.3726020109052
 20
305.4891179671411
 10
1262.3726020109052
 20
270.88911796714115
 42
2.414213562373095
 10
1265.5726020109053
 20
267.6891179671411
  0
TEXT
  5
105
330
17
100
AcDbEntity
  8
ENGRAVE-LABEL
100
AcDbText
 10
1271.3726020109052
 20
195.37260201090533
 30
0.0
 40
22.0
  1
02 FORMER-BASE 2/2
 50
30.0
 72
1
 11
1271.3726020109052
 21
195.37260201090533
 31
0.0
100
AcDbText
 73
2
  0
LWPOLYLINE
  5
106
330
17
100
AcDbEntity
  8
CUT
100
AcDbPolyline
 90
34
 70
1
 10
1347.7452040218107
 20
1182.0
 10
1286.8891179671411
 20
1182.0
 42
-2.414213562373095
 10
1283.689117967141
 20
1185.2
 10
1283.689117967141
 20
1199.0
 10
1243.689117967141
 20
1199.0
 10
1243.689117967141
 20
1185.2
 42
-2.414213562373095
 10
1240.489117967141
 20
1182.0
 10
1101.2560860546696
 20
1182.0
 42
-2.414213562373095
 10
1098.0560860546695
 20
1185.2
 10
1098.0560860546695
 20
1199.0
 10
1058.0560860546695
 20
1199.0
 10
1058.0560860546695
 20
1185.2
 42
-2.414213562373095
 10
1054.8560860546695
 20
1182.0
 10
994.0
 20
1182.0
 10
1044.9333333333334
 20
991.0
 10
1082.6480051166436
 20
991.0
 42
-2.414213562373095
 10
1085.8480051166437
 20
987.8
 10
1085.8480051166437
 20
974.0
 10
1125.8480051166437
 20
974.0
 10
1125.8480051166437
 20
987.8
 42
-2.414213562373095
 10
1129.0480051166437
 20
991.0
 10
1161.8726020109052
 20
991.0
 10
1161.8726020109052
 20
1083.3
 42
-2.414213562373095
 10
1165.0726020109053
 20
1086.5
 10
1176.6726020109054
 20
1086.5
 42
-2.414213562373095
 10
1179.8726020109052
 20
1083.3
 10
1179.8726020109052
 20
991.0
 10
1212.6971989051667
 20
991.0
 42
-2.414213562373095
 10
1215.8971989051668
 20
987.8
 10
1215.8971989051668
 20
974.0
 10
1255.897198905167
 20
974.0
 10
1255.897198905167
 20
987.8
 42
-2.414213562373095
 10
1259.0971989051668
 20
991.0
 10
1296.8118706884773
 20
991.0
  0
TEXT
  5
107
330
17
100
AcDbEntity
  8
ENGRAVE-LABEL
100
AcDbText
 10
1252.6822542057444
 20
1106.6171275888948
 30
0.0
 40
14.0
  1
06 CORE-1A 1/2
 50
30.0
 72
1
 11
1252.6822542057444
 21
1106.6171275888948
 31
0.0
100
AcDbText
 73
2
  0
LWPOLYLINE
  5
108
330
17
100
AcDbEntity
  8
CUT
100
AcDbPolyline
 90
34
 70
1
 10
1555.7452040218107
 20
946.0
 10
1494.8891179671411
 20
946.0
 42
-2.414213562373095
 10
1491.689117967141
 20
949.2
 10
1491.689117967141
 20
963.0
 10
1451.689117967141
 20
963.0
 10
1451.689117967141
 20
949.2
 42
-2.414213562373095
 10
1448.489117967141
 20
946.0
 10
1309.2560860546696
 20
946.0
 42
-2.414213562373095
 10
1306.0560860546695
 20
949.2
 10
1306.0560860546695
 20
963.0
 10
1266.0560860546695
 20
963.0
 10
1266.0560860546695
 20
949.2
 42
-2.414213562373095
 10
1262.8560860546695
 20
946.0
 10
1202.0
 20
946.0
 10
1252.9333333333334
 20
755.0
 10
1290.6480051166436
 20
755.0
 42
-2.414213562373095
 10
1293.8480051166437
 20
751.8
 10
1293.8480051166437
 20
738.0
 10
1333.8480051166437
 20
738.0
 10
1333.8480051166437
 20
751.8
 42
-2.414213562373095
 10
1337.0480051166437
 20
755.0
 10
1369.8726020109052
 20
755.0
 10
1369.8726020109052
 20
847.3
 42
-2.414213562373095
 10
1373.0726020109053
 20
850.5
 10
1384.6726020109054
 20
850.5
 42
-2.414213562373095
 10
1387.8726020109052
 20
847.3
 10
1387.8726020109052
 20
755.0
 10
1420.6971989051667
 20
755.0
 42
-2.414213562373095
 10
1423.8971989051668
 20
751.8
 10
1423.8971989051668
 20
738.0
 10
1463.897198905167
 20
738.0
 10
1463.897198905167
 20
751.8
 42
-2.414213562373095
 10
1467.0971989051668
 20
755.0
 10
1504.8118706884773
 20
755.0
  0
TEXT
  5
109
330
17
100
AcDbEntity
  8
ENGRAVE-LABEL
100
AcDbText
 10
1460.6822542057441
 20
870.6171275888947
 30
0.0
 40
14.0
  1
06 CORE-1A 2/2
 50
30.0
 72
1
 11
1460.6822542057441
 21
870.6171275888947
 31
0.0
100
AcDbText
 73
2
  0
LWPOLYLINE
  5
10A
330
17
100
AcDbEntity
  8
CUT
100
AcDbPolyline
 90
34
 70
1
 10
1274.0
 20
395.0
 10
1334.8560860546695
 20
395.0
 42
-2.414213562373095
 10
1338.0560860546695
 20
391.8
 10
1338.0560860546695
 20
378.0
 10
1378.0560860546695
 20
378.0
 10
1378.0560860546695
 20
391.8
 42
-2.414213562373095
 10
1381.2560860546696
 20
395.0
 10
1441.8726020109052
 20
395.0
 10
1441.8726020109052
 20
487.3
 42
-2.414213562373095
 10
1445.0726020109053
 20
490.5
 10
1456.6726020109054
 20
490.5
 42
-2.414213562373095
 10
1459.8726020109052
 20
487.3
 10
1459.8726020109052
 20
395.0
 10
1520.489117967141
 20
395.0
 42
-2.414213562373095
 10
1523.689117967141
 20
391.8
 10
1523.689117967141
 20
378.0
 10
1563.689117967141
 20
378.0
 10
1563.689117967141
 20
391.8
 42
-2.414213562373095
 10
1566.8891179671411
 20
395.0
 10
1627.7452040218107
 20
395.0
 10
1576.8118706884773
 20
586.0
 10
1539.0971989051668
 20
586.0
 42
-2.414213562373095
 10
1535.897198905167
 20
589.2
 10
1535.897198905167
 20
603.0
 10
1495.897198905167
 20
603.0
 10
1495.897198905167
 20
589.2
 42
-2.414213562373095
 10
1492.697198905167
 20
586.0
 10
1409.0480051166437
 20
586.0
 42
-2.414213562373095
 10
1405.8480051166437
 20
589.2
 10
1405.8480051166437
 20
603.0
 10
1365.8480051166437
 20
603.0
 10
1365.8480051166437
 20
589.2
 42
-2.414213562373095
 10
1362.6480051166436
 20
586.0
 10
1324.9333333333334
 20
586.0
  0
TEXT
  5
10B
330
17
100
AcDbEntity
  8
ENGRAVE-LABEL
100
AcDbText
 10
1532.6822542057441
 20
470.38287241110515
 30
0.0
 40
18.0
  1
07 CORE-1B 1/2
 50
135.0
 72
1
 11
1532.6822542057441
 21
470.38287241110515
 31
0.0
100
AcDbText
 73
2
  0
LWPOLYLINE
  5
10C
330
17
100
AcDbEntity
  8
CUT
100
AcDbPolyline
 90
34
 70
1
 10
1310.0
 20
979.0
 10
1370.8560860546695
 20
979.0
 42
-2.414213562373095
 10
1374.0560860546695
 20
975.8
 10
1374.0560860546695
 20
962.0
 10
1414.0560860546695
 20
962.0
 10
1414.0560860546695
 20
975.8
 42
-2.414213562373095
 10
1417.2560860546696
 20
979.0
 10
1477.8726020109052
 20
979.0
 10
1477.8726020109052
 20
1071.3
 42
-2.414213562373095
 10
1481.0726020109053
 20
1074.5
 10
1492.6726020109054
 20
1074.5
 42
-2.414213562373095
 10
1495.8726020109052
 20
1071.3
 10
1495.8726020109052
 20
979.0
 10
1556.489117967141
 20
979.0
 42
-2.414213562373095
 10
1559.689117967141
 20
975.8
 10
1559.689117967141
 20
962.0
 10
1599.689117967141
 20
962.0
 10
1599.689117967141
 20
975.8
 42
-2.414213562373095
 10
1602.8891179671411
 20
979.0
 10
1663.7452040218107
 20
979.0
 10
1612.8118706884773
 20
1170.0
 10
1575.0971989051668
 20
1170.0
 42
-2.414213562373095
 10
1571.897198905167
 20
1173.2
 10
1571.897198905167
 20
1187.0
 10
1531.897198905167
 20
1187.0
 10
1531.897198905167
 20
1173.2
 42
-2.414213562373095
 10
1528.697198905167
 20
1170.0
 10
1445.0480051166437
 20
1170.0
 42
-2.414213562373095
 10
1441.8480051166437
 20
1173.2
 10
1441.8480051166437
 20
1187.0
 10
1401.8480051166437
 20
1187.0
 10
1401.8480051166437
 20
1173.2
 42
-2.414213562373095
 10
1398.6480051166436
 20
1170.0
 10
1360.9333333333334
 20
1170.0
  0
TEXT
  5
10D
330
17
100
AcDbEntity
  8
ENGRAVE-LABEL
100
AcDbText
 10
1568.6822542057441
 20
1054.3828724111052
 30
0.0
 40
18.0
  1
07 CORE-1B 2/2
 50
135.0
 72
1
 11
1568.6822542057441
 21
1054.3828724111052
 31
0.0
100
AcDbText
 73
2
  0
LWPOLYLINE
  5
10E
330
17
100
AcDbEntity
  8
CUT
100
AcDbPolyline
 90
2
 70
1
 10
1705.8118706884773
 20
139.90593534423863
 42
1.0
 10
1462.0
 20
139.90593534423863
 42
1.0
  0
LWPOLYLINE
  5
10F
330
17
100
AcDbEntity
  8
CUT
100
AcDbPolyline
 90
8
 70
1
 10
1498.381338449977
 20
134.10593534423865
 42
2.414213562373095
 10
1501.581338449977
 20
130.90593534423863
 10
1536.1813384499771
 20
130.90593534423863
 42
2.414213562373095
 10
1539.381338449977
 20
134.10593534423865
 10
1539.381338449977
 20
145.70593534423864
 42
2.414213562373095
 10
1536.1813384499771
 20
148.90593534423863
 10
1501.581338449977
 20
148.90593534423863
 42
2.414213562373095
 10
1498.381338449977
 20
145.70593534423864
  0
LWPOLYLINE
  5
110
330
17
100
AcDbEntity
  8
CUT
100
AcDbPolyline
 90
8
 70
1
 10
1628.4305322385003
 20
134.10593534423865
 42
2.414213562373095
 10
1631.6305322385
 20
130.90593534423863
 10
1666.2305322385002
 20
130.90593534423863
 42
2.414213562373095
 10
1669.4305322385003
 20
134.10593534423865
 10
1669.4305322385003
 20
145.70593534423864
 42
2.414213562373095
 10
1666.2305322385002
 20
148.90593534423863
 10
1631.6305322385
 20
148.90593534423863
 42
2.414213562373095
 10
1628.4305322385003
 20
145.70593534423864
  0
LWPOLYLINE
  5
111
330
17
100
AcDbEntity
  8
CUT
100
AcDbPolyline
 90
8
 70
1
 10
1589.7059353442387
 20
54.381338449977065
 42
2.414213562373095
 10
1592.9059353442385
 20
57.58133844997707
 10
1592.9059353442385
 20
92.18133844997706
 42
2.414213562373095
 10
1589.7059353442387
 20
95.38133844997706
 10
1578.1059353442386
 20
95.38133844997706
 42
2.414213562373095
 10
1574.9059353442387
 20
92.18133844997706
 10
1574.9059353442387
 20
57.58133844997707
 42
2.414213562373095
 10
1578.1059353442386
 20
54.381338449977065
  0
LWPOLYLINE
  5
112
330
17
100
AcDbEntity
  8
CUT
100
AcDbPolyline
 90
8
 70
1
 10
1589.7059353442387
 20
184.43053223850023
 42
2.414213562373095
 10
1592.9059353442387
 20
187.63053223850022
 10
1592.9059353442387
 20
222.23053223850022
 42
2.414213562373095
 10
1589.7059353442387
 20
225.43053223850023
 10
1578.1059353442386
 20
225.43053223850023
 42
2.414213562373095
 10
1574.9059353442387
 20
222.23053223850022
 10
1574.9059353442387
 20
187.63053223850022
 42
2.414213562373095
 10
1578.1059353442386
 20
184.43053223850023
  0
TEXT
  5
113
330
17
100
AcDbEntity
  8
ENGRAVE-LABEL
100
AcDbText
 10
1639.1733381005808
 20
195.1733381005809
 30
0.0
 40
7.0
  1
03 FORMER-JOINT-LO 1/2
 50
135.0
 72
1
 11
1639.1733381005808
 21
195.1733381005809
 31
0.0
100
AcDbText
 73
2
  0
LWPOLYLINE
  5
114
330
17
100
AcDbEntity
  8
CUT
100
AcDbPolyline
 90
2
 70
1
 10
1757.8118706884773
 20
711.9059353442386
 42
1.0
 10
1514.0
 20
711.9059353442386
 42
1.0
  0
LWPOLYLINE
  5
115
330
17
100
AcDbEntity
  8
CUT
100
AcDbPolyline
 90
8
 70
1
 10
1550.381338449977
 20
706.1059353442387
 42
2.414213562373095
 10
1553.581338449977
 20
702.9059353442386
 10
1588.1813384499771
 20
702.9059353442386
 42
2.414213562373095
 10
1591.381338449977
 20
706.1059353442387
 10
1591.381338449977
 20
717.7059353442387
 42
2.414213562373095
 10
1588.1813384499771
 20
720.9059353442386
 10
1553.581338449977
 20
720.9059353442386
 42
2.414213562373095
 10
1550.381338449977
 20
717.7059353442387
  0
LWPOLYLINE
  5
116
330
17
100
AcDbEntity
  8
CUT
100
AcDbPolyline
 90
8
 70
1
 10
1680.4305322385003
 20
706.1059353442387
 42
2.414213562373095
 10
1683.6305322385
 20
702.9059353442386
 10
1718.2305322385002
 20
702.9059353442386
 42
2.414213562373095
 10
1721.4305322385003
 20
706.1059353442387
 10
1721.4305322385003
 20
717.7059353442387
 42
2.414213562373095
 10
1718.2305322385002
 20
720.9059353442386
 10
1683.6305322385
 20
720.9059353442386
 42
2.414213562373095
 10
1680.4305322385003
 20
717.7059353442387
  0
LWPOLYLINE
  5
117
330
17
100
AcDbEntity
  8
CUT
100
AcDbPolyline
 90
8
 70
1
 10
1641.7059353442387
 20
626.3813384499771
 42
2.414213562373095
 10
1644.9059353442385
 20
629.581338449977
 10
1644.9059353442385
 20
664.181338449977
 42
2.414213562373095
 10
1641.7059353442387
 20
667.3813384499771
 10
1630.1059353442386
 20
667.3813384499771
 42
2.414213562373095
 10
1626.9059353442387
 20
664.181338449977
 10
1626.9059353442387
 20
629.581338449977
 42
2.414213562373095
 10
1630.1059353442386
 20
626.3813384499771
  0
LWPOLYLINE
  5
118
330
17
100
AcDbEntity
  8
CUT
100
AcDbPolyline
 90
8
 70
1
 10
1641.7059353442387
 20
756.4305322385003
 42
2.414213562373095
 10
1644.9059353442387
 20
759.6305322385002
 10
1644.9059353442387
 20
794.2305322385002
 42
2.414213562373095
 10
1641.7059353442387
 20
797.4305322385003
 10
1630.1059353442386
 20
797.4305322385003
 42
2.414213562373095
 10
1626.9059353442387
 20
794.2305322385002
 10
1626.9059353442387
 20
759.6305322385002
 42
2.414213562373095
 10
1630.1059353442386
 20
756.4305322385003
  0
TEXT
  5
119
330
17
100
AcDbEntity
  8
ENGRAVE-LABEL
100
AcDbText
 10
1580.6385325878962
 20
767.1733381005808
 30
0.0
 40
7.0
  1
03 FORMER-JOINT-LO 2/2
 50
45.0
 72
1
 11
1580.6385325878962
 21
767.1733381005808
 31
0.0
100
AcDbText
 73
2
  0
LWPOLYLINE
  5
11A
330
17
100
AcDbEntity
  8
CUT
100
AcDbPolyline
 90
2
 70
1
 10
1860.7452040218107
 20
475.3726020109053
 42
1.0
 10
1626.0
 20
475.3726020109053
 42
1.0
  0
LWPOLYLINE
  5
11B
330
17
100
AcDbEntity
  8
CUT
100
AcDbPolyline
 90
8
 70
1
 10
1688.6068291826346
 20
412.40439052087055
 42
2.414213562373095
 10
1693.1323125822285
 20
412.40439052087055
 10
1717.598207211283
 20
436.8702851499251
 42
2.414213562373095
 10
1717.598207211283
 20
441.395768549519
 10
1709.395768549519
 20
449.59820721128295
 42
2.414213562373095
 10
1704.8702851499252
 20
449.59820721128295
 10
1680.4043905208705
 20
425.13231258222845
 42
2.414213562373095
 10
1680.4043905208705
 20
420.6068291826345
  0
LWPOLYLINE
  5
11C
330
17
100
AcDbEntity
  8
CUT
100
AcDbPolyline
 90
8
 70
1
 10
1777.3494354722916
 20
501.14699681052764
 42
2.414213562373095
 10
1781.8749188718855
 20
501.14699681052764
 10
1806.3408135009402
 20
525.6128914395822
 42
2.414213562373095
 10
1806.3408135009402
 20
530.1383748391761
 10
1798.138374839176
 20
538.34081350094
 42
2.414213562373095
 10
1793.6128914395822
 20
538.34081350094
 10
1769.1469968105278
 20
513.8749188718855
 42
2.414213562373095
 10
1769.1469968105278
 20
509.3494354722916
  0
LWPOLYLINE
  5
11D
330
17
100
AcDbEntity
  8
CUT
100
AcDbPolyline
 90
8
 70
1
 10
1806.34081350094
 20
420.6068291826345
 42
2.414213562373095
 10
1806.34081350094
 20
425.13231258222845
 10
1781.8749188718855
 20
449.59820721128295
 42
2.414213562373095
 10
1777.3494354722916
 20
449.59820721128295
 10
1769.1469968105275
 20
441.395768549519
 42
2.414213562373095
 10
1769.1469968105275
 20
436.8702851499251
 10
1793.6128914395822
 20
412.40439052087055
 42
2.414213562373095
 10
1798.138374839176
 20
412.40439052087055
  0
LWPOLYLINE
  5
11E
330
17
100
AcDbEntity
  8
CUT
100
AcDbPolyline
 90
8
 70
1
 10
1717.598207211283
 20
509.3494354722916
 42
2.414213562373095
 10
1717.598207211283
 20
513.8749188718855
 10
1693.1323125822285
 20
538.34081350094
 42
2.414213562373095
 10
1688.6068291826346
 20
538.34081350094
 10
1680.4043905208705
 20
530.1383748391761
 42
2.414213562373095
 10
1680.4043905208705
 20
525.6128914395822
 10
1704.8702851499252
 20
501.14699681052764
 42
2.414213562373095
 10
1709.395768549519
 20
501.14699681052764
  0
TEXT
  5
11F
330
17
100
AcDbEntity
  8
ENGRAVE-LABEL
100
AcDbText
 10
1744.2583087235107
 20
550.6576725823903
 30
0.0
 40
18.0
  1
04 1/2
 72
1
 11
1744.2583087235107
 21
550.6576725823903
 31
0.0
100
AcDbText
 73
2
  0
LWPOLYLINE
  5
120
330
17
100
AcDbEntity
  8
CUT
100
AcDbPolyline
 90
2
 70
1
 10
1892.7452040218107
 20
1075.3726020109052
 42
1.0
 10
1658.0
 20
1075.3726020109052
 42
1.0
  0
LWPOLYLINE
  5
121
330
17
100
AcDbEntity
  8
CUT
100
AcDbPolyline
 90
8
 70
1
 10
1720.6068291826346
 20
1012.4043905208706
 42
2.414213562373095
 10
1725.1323125822285
 20
1012.4043905208706
 10
1749.598207211283
 20
1036.8702851499252
 42
2.414213562373095
 10
1749.598207211283
 20
1041.395768549519
 10
1741.395768549519
 20
1049.598207211283
 42
2.414213562373095
 10
1736.8702851499252
 20
1049.598207211283
 10
1712.4043905208705
 20
1025.1323125822285
 42
2.414213562373095
 10
1712.4043905208705
 20
1020.6068291826346
  0
LWPOLYLINE
  5
122
330
17
100
AcDbEntity
  8
CUT
100
AcDbPolyline
 90
8
 70
1
 10
1809.3494354722916
 20
1101.1469968105275
 42
2.414213562373095
 10
1813.8749188718855
 20
1101.1469968105275
 10
1838.3408135009402
 20
1125.6128914395822
 42
2.414213562373095
 10
1838.3408135009402
 20
1130.138374839176
 10
1830.138374839176
 20
1138.34081350094
 42
2.414213562373095
 10
1825.6128914395822
 20
1138.34081350094
 10
1801.1469968105278
 20
1113.8749188718855
 42
2.414213562373095
 10
1801.1469968105278
 20
1109.3494354722916
  0
LWPOLYLINE
  5
123
330
17
100
AcDbEntity
  8
CUT
100
AcDbPolyline
 90
8
 70
1
 10
1838.34081350094
 20
1020.6068291826346
 42
2.414213562373095
 10
1838.34081350094
 20
1025.1323125822285
 10
1813.8749188718855
 20
1049.598207211283
 42
2.414213562373095
 10
1809.3494354722916
 20
1049.598207211283
 10
1801.1469968105275
 20
1041.395768549519
 42
2.414213562373095
 10
1801.1469968105275
 20
1036.8702851499252
 10
1825.6128914395822
 20
1012.4043905208706
 42
2.414213562373095
 10
1830.138374839176
 20
1012.4043905208706
  0
LWPOLYLINE
  5
124
330
17
100
AcDbEntity
  8
CUT
100
AcDbPolyline
 90
8
 70
1
 10
1749.598207211283
 20
1109.3494354722916
 42
2.414213562373095
 10
1749.598207211283
 20
1113.8749188718855
 10
1725.1323125822285
 20
1138.3408135009402
 42
2.414213562373095
 10
1720.6068291826346
 20
1138.3408135009402
 10
1712.4043905208705
 20
1130.138374839176
 42
2.414213562373095
 10
1712.4043905208705
 20
1125.6128914395822
 10
1736.8702851499252
 20
1101.1469968105278
 42
2.414213562373095
 10
1741.395768549519
 20
1101.1469968105278
  0
TEXT
  5
125
330
17
100
AcDbEntity
  8
ENGRAVE-LABEL
100
AcDbText
 10
1776.2583087235107
 20
1000.0875314394203
 30
0.0
 40
18.0
  1
04 2/2
 72
1
 11
1776.2583087235107
 21
1000.0875314394203
 31
0.0
100
AcDbText
 73
2
  0
LWPOLYLINE
  5
126
330
17
100
AcDbEntity
  8
CUT
100
AcDbPolyline
 90
34
 70
1
 10
35.00000000000006
 20
695.7452040218107
 10
35.00000000000006
 20
664.8231006984898
 42
-2.414213562373095
 10
31.800000000000068
 20
661.6231006984898
 10
18.000000000000057
 20
661.6231006984898
 10
18.00000000000003
 20
621.6231006984898
 10
31.80000000000004
 20
621.6231006984898
 42
-2.414213562373095
 10
35.00000000000003
 20
618.4231006984899
 10
35.00000000000003
 20
539.3221033233208
 42
-2.414213562373095
 10
31.80000000000004
 20
536.1221033233209
 10
18.00000000000003
 20
536.1221033233209
 10
18.0
 20
496.1221033233208
 10
31.80000000000001
 20
496.1221033233208
 42
-2.414213562373095
 10
35.0
 20
492.9221033233208
 10
35.0
 20
462.0
 10
226.00000000000003
 20
512.9333333333333
 10
226.00000000000003
 20
523.2261432889138
 42
-2.414213562373095
 10
229.20000000000002
 20
526.4261432889139
 10
243.00000000000003
 20
526.4261432889139
 10
243.00000000000003
 20
561.6726020109053
 10
229.20000000000002
 20
561.6726020109053
 42
-2.414213562373095
 10
226.00000000000003
 20
564.8726020109052
 10
226.00000000000003
 20
569.8726020109052
 10
133.70000000000002
 20
569.8726020109053
 42
-2.414213562373095
 10
130.50000000000003
 20
573.0726020109053
 10
130.50000000000003
 20
584.6726020109053
 42
-2.414213562373095
 10
133.70000000000002
 20
587.8726020109053
 10
226.00000000000003
 20
587.8726020109052
 10
226.00000000000003
 20
592.8726020109052
 42
-2.414213562373095
 10
229.20000000000002
 20
596.0726020109053
 10
243.00000000000003
 20
596.0726020109053
 10
243.00000000000003
 20
631.3190607328967
 10
229.20000000000002
 20
631.3190607328967
 42
-2.414213562373095
 10
226.00000000000003
 20
634.5190607328967
 10
226.00000000000003
 20
644.8118706884773
  0
TEXT
  5
127
330
17
100
AcDbEntity
  8
ENGRAVE-LABEL
100
AcDbText
 10
90.36997539405583
 20
625.9817613309269
 30
0.0
 40
11.0
  1
08 CORE-2A 1/2
 50
30.0
 72
1
 11
90.36997539405583
 21
625.9817613309269
 31
0.0
100
AcDbText
 73
2
  0
LWPOLYLINE
  5
128
330
17
100
AcDbEntity
  8
CUT
100
AcDbPolyline
 90
34
 70
1
 10
1911.7452040218107
 20
322.0
 10
1880.8231006984897
 20
322.0
 42
-2.414213562373095
 10
1877.62310069849
 20
325.2
 10
1877.62310069849
 20
339.0
 10
1837.62310069849
 20
339.0
 10
1837.62310069849
 20
325.2
 42
-2.414213562373095
 10
1834.4231006984899
 20
322.0
 10
1755.3221033233208
 20
322.0
 42
-2.414213562373095
 10
1752.1221033233207
 20
325.2
 10
1752.1221033233207
 20
339.0
 10
1712.1221033233207
 20
339.0
 10
1712.1221033233207
 20
325.2
 42
-2.414213562373095
 10
1708.9221033233207
 20
322.0
 10
1678.0
 20
322.0
 10
1728.9333333333334
 20
131.0
 10
1739.2261432889138
 20
131.0
 42
-2.414213562373095
 10
1742.4261432889139
 20
127.80000000000001
 10
1742.4261432889139
 20
114.0
 10
1777.6726020109054
 20
114.0
 10
1777.6726020109054
 20
127.80000000000001
 42
-2.414213562373095
 10
1780.8726020109052
 20
131.0
 10
1785.8726020109052
 20
131.0
 10
1785.8726020109052
 20
223.3
 42
-2.414213562373095
 10
1789.0726020109053
 20
226.5
 10
1800.6726020109054
 20
226.5
 42
-2.414213562373095
 10
1803.8726020109052
 20
223.3
 10
1803.8726020109052
 20
131.0
 10
1808.8726020109052
 20
131.0
 42
-2.414213562373095
 10
1812.0726020109053
 20
127.80000000000001
 10
1812.0726020109053
 20
114.0
 10
1847.3190607328968
 20
114.0
 10
1847.3190607328968
 20
127.80000000000001
 42
-2.414213562373095
 10
1850.5190607328968
 20
131.0
 10
1860.8118706884773
 20
131.0
  0
TEXT
  5
129
330
17
100
AcDbEntity
  8
ENGRAVE-LABEL
100
AcDbText
 10
1841.9817613309267
 20
266.63002460594424
 30
0.0
 40
11.0
  1
08 CORE-2A 2/2
 50
30.0
 72
1
 11
1841.9817613309267
 21
266.63002460594424
 31
0.0
100
AcDbText
 73
2
  0
LWPOLYLINE
  5
12A
330
17
100
AcDbEntity
  8
CUT
100
AcDbPolyline
 90
34
 70
1
 10
1955.7452040218107
 20
922.0
 10
1924.8231006984897
 20
922.0
 42
-2.414213562373095
 10
1921.62310069849
 20
925.2
 10
1921.62310069849
 20
939.0
 10
1881.62310069849
 20
939.0
 10
1881.62310069849
 20
925.2
 42
-2.414213562373095
 10
1878.4231006984899
 20
922.0
 10
1847.8726020109052
 20
922.0
 10
1847.8726020109052
 20
829.7
 42
-2.414213562373095
 10
1844.6726020109054
 20
826.5
 10
1833.0726020109053
 20
826.5
 42
-2.414213562373095
 10
1829.8726020109052
 20
829.7
 10
1829.8726020109052
 20
922.0
 10
1799.3221033233208
 20
922.0
 42
-2.414213562373095
 10
1796.1221033233207
 20
925.2
 10
1796.1221033233207
 20
939.0
 10
1756.1221033233207
 20
939.0
 10
1756.1221033233207
 20
925.2
 42
-2.414213562373095
 10
1752.9221033233207
 20
922.0
 10
1722.0
 20
922.0
 10
1772.9333333333334
 20
731.0
 10
1783.2261432889138
 20
731.0
 42
-2.414213562373095
 10
1786.4261432889139
 20
727.8
 10
1786.4261432889139
 20
714.0
 10
1821.6726020109054
 20
714.0
 10
1821.6726020109054
 20
727.8
 42
-2.414213562373095
 10
1824.8726020109052
 20
731.0
 10
1852.8726020109052
 20
731.0
 42
-2.414213562373095
 10
1856.0726020109053
 20
727.8
 10
1856.0726020109053
 20
714.0
 10
1891.3190607328968
 20
714.0
 10
1891.3190607328968
 20
727.8
 42
-2.414213562373095
 10
1894.5190607328968
 20
731.0
 10
1904.8118706884773
 20
731.0
  0
TEXT
  5
12B
330
17
100
AcDbEntity
  8
ENGRAVE-LABEL
100
AcDbText
 10
1868.9701204653636
 20
780.699428438868
 30
0.0
 40
11.0
  1
09 CORE-2B 1/2
 50
30.0
 72
1
 11
1868.9701204653636
 21
780.699428438868
 31
0.0
100
AcDbText
 73
2
  0
LWPOLYLINE
  5
12C
330
17
100
AcDbEntity
  8
CUT
100
AcDbPolyline
 90
34
 70
1
 10
2059.7452040218104
 20
682.0
 10
2028.8231006984897
 20
682.0
 42
-2.414213562373095
 10
2025.62310069849
 20
685.2
 10
2025.62310069849
 20
699.0
 10
1985.62310069849
 20
699.0
 10
1985.62310069849
 20
685.2
 42
-2.414213562373095
 10
1982.4231006984899
 20
682.0
 10
1951.8726020109052
 20
682.0
 10
1951.8726020109052
 20
589.7
 42
-2.414213562373095
 10
1948.6726020109054
 20
586.5
 10
1937.0726020109053
 20
586.5
 42
-2.414213562373095
 10
1933.8726020109052
 20
589.7
 10
1933.8726020109052
 20
682.0
 10
1903.3221033233208
 20
682.0
 42
-2.414213562373095
 10
1900.1221033233207
 20
685.2
 10
1900.1221033233207
 20
699.0
 10
1860.1221033233207
 20
699.0
 10
1860.1221033233207
 20
685.2
 42
-2.414213562373095
 10
1856.9221033233207
 20
682.0
 10
1826.0
 20
682.0
 10
1876.9333333333334
 20
491.0
 10
1887.2261432889138
 20
491.0
 42
-2.414213562373095
 10
1890.4261432889139
 20
487.8
 10
1890.4261432889139
 20
474.0
 10
1925.6726020109054
 20
474.0
 10
1925.6726020109054
 20
487.8
 42
-2.414213562373095
 10
1928.8726020109052
 20
491.0
 10
1956.8726020109052
 20
491.0
 42
-2.414213562373095
 10
1960.0726020109053
 20
487.8
 10
1960.0726020109053
 20
474.0
 10
1995.3190607328968
 20
474.0
 10
1995.3190607328968
 20
487.8
 42
-2.414213562373095
 10
1998.5190607328968
 20
491.0
 10
2008.8118706884773
 20
491.0
  0
TEXT
  5
12D
330
17
100
AcDbEntity
  8
ENGRAVE-LABEL
100
AcDbText
 10
1972.9701204653636
 20
540.699428438868
 30
0.0
 40
11.0
  1
09 CORE-2B 2/2
 50
30.0
 72
1
 11
1972.9701204653636
 21
540.699428438868
 31
0.0
100
AcDbText
 73
2
  0
LWPOLYLINE
  5
12E
330
17
100
AcDbEntity
  8
CUT
100
AcDbPolyline
 90
2
 70
1
 10
141.81187068847728
 20
79.90593534423864
 42
1.0
 10
18.0
 20
79.90593534423864
 42
1.0
  0
LWPOLYLINE
  5
12F
330
17
100
AcDbEntity
  8
CUT
100
AcDbPolyline
 90
8
 70
1
 10
46.56835467298686
 20
38.365916011222915
 42
2.414213562373095
 10
51.093838072580766
 20
38.365916011222915
 10
72.19847142930527
 20
59.47054936794741
 42
2.414213562373095
 10
72.19847142930527
 20
63.99603276754132
 10
63.99603276754132
 20
72.19847142930527
 42
2.414213562373095
 10
59.47054936794741
 20
72.19847142930527
 10
38.36591601122291
 20
51.09383807258077
 42
2.414213562373095
 10
38.36591601122291
 20
46.568354672986864
  0
LWPOLYLINE
  5
130
330
17
100
AcDbEntity
  8
CUT
100
AcDbPolyline
 90
8
 70
1
 10
95.81583792093596
 20
87.61339925917201
 42
2.414213562373095
 10
100.34132132052987
 20
87.61339925917201
 10
121.44595467725438
 20
108.7180326158965
 42
2.414213562373095
 10
121.44595467725438
 20
113.24351601549043
 10
113.24351601549043
 20
121.44595467725438
 42
2.414213562373095
 10
108.71803261589652
 20
121.44595467725438
 10
87.61339925917201
 20
100.34132132052987
 42
2.414213562373095
 10
87.61339925917201
 20
95.81583792093596
  0
LWPOLYLINE
  5
131
330
17
100
AcDbEntity
  8
CUT
100
AcDbPolyline
 90
8
 70
1
 10
121.44595467725438
 20
46.56835467298686
 42
2.414213562373095
 10
121.44595467725438
 20
51.093838072580766
 10
100.34132132052987
 20
72.19847142930527
 42
2.414213562373095
 10
95.81583792093596
 20
72.19847142930527
 10
87.61339925917201
 20
63.99603276754132
 42
2.414213562373095
 10
87.61339925917201
 20
59.47054936794741
 10
108.7180326158965
 20
38.36591601122291
 42
2.414213562373095
 10
113.24351601549043
 20
38.36591601122291
  0
LWPOLYLINE
  5
132
330
17
100
AcDbEntity
  8
CUT
100
AcDbPolyline
 90
8
 70
1
 10
72.19847142930527
 20
95.81583792093596
 42
2.414213562373095
 10
72.19847142930527
 20
100.34132132052987
 10
51.09383807258077
 20
121.44595467725438
 42
2.414213562373095
 10
46.568354672986864
 20
121.44595467725438
 10
38.365916011222915
 20
113.24351601549043
 42
2.414213562373095
 10
38.365916011222915
 20
108.71803261589652
 10
59.47054936794741
 20
87.61339925917201
 42
2.414213562373095
 10
63.99603276754132
 20
87.61339925917201
  0
TEXT
  5
133
330
17
100
AcDbEntity
  8
ENGRAVE-LABEL
100
AcDbText
 10
79.462871546917
 20
121.62705436219187
 30
0.0
 40
7.0
  1
05 1/2
 72
1
 11
79.462871546917
 21
121.62705436219187
 31
0.0
100
AcDbText
 73
2
  0
LWPOLYLINE
  5
134
330
17
100
AcDbEntity
  8
CUT
100
AcDbPolyline
 90
2
 70
1
 10
141.81187068847728
 20
1039.9059353442387
 42
1.0
 10
18.0
 20
1039.9059353442387
 42
1.0
  0
LWPOLYLINE
  5
135
330
17
100
AcDbEntity
  8
CUT
100
AcDbPolyline
 90
8
 70
1
 10
46.56835467298686
 20
998.3659160112229
 42
2.414213562373095
 10
51.093838072580766
 20
998.3659160112229
 10
72.19847142930527
 20
1019.4705493679475
 42
2.414213562373095
 10
72.19847142930527
 20
1023.9960327675414
 10
63.99603276754132
 20
1032.1984714293053
 42
2.414213562373095
 10
59.47054936794741
 20
1032.1984714293053
 10
38.36591601122291
 20
1011.0938380725808
 42
2.414213562373095
 10
38.36591601122291
 20
1006.5683546729869
  0
LWPOLYLINE
  5
136
330
17
100
AcDbEntity
  8
CUT
100
AcDbPolyline
 90
8
 70
1
 10
95.81583792093596
 20
1047.613399259172
 42
2.414213562373095
 10
100.34132132052987
 20
1047.613399259172
 10
121.44595467725438
 20
1068.7180326158964
 42
2.414213562373095
 10
121.44595467725438
 20
1073.2435160154905
 10
113.24351601549043
 20
1081.4459546772543
 42
2.414213562373095
 10
108.71803261589652
 20
1081.4459546772543
 10
87.61339925917201
 20
1060.34132132053
 42
2.414213562373095
 10
87.61339925917201
 20
1055.815837920936
  0
LWPOLYLINE
  5
137
330
17
100
AcDbEntity
  8
CUT
100
AcDbPolyline
 90
8
 70
1
 10
121.44595467725438
 20
1006.5683546729869
 42
2.414213562373095
 10
121.44595467725438
 20
1011.0938380725808
 10
100.34132132052987
 20
1032.1984714293053
 42
2.414213562373095
 10
95.81583792093596
 20
1032.1984714293053
 10
87.61339925917201
 20
1023.9960327675414
 42
2.414213562373095
 10
87.61339925917201
 20
1019.4705493679475
 10
108.7180326158965
 20
998.3659160112229
 42
2.414213562373095
 10
113.24351601549043
 20
998.3659160112229
  0
LWPOLYLINE
  5
138
330
17
100
AcDbEntity
  8
CUT
100
AcDbPolyline
 90
8
 70
1
 10
72.19847142930527
 20
1055.815837920936
 42
2.414213562373095
 10
72.19847142930527
 20
1060.34132132053
 10
51.09383807258077
 20
1081.4459546772543
 42
2.414213562373095
 10
46.568354672986864
 20
1081.4459546772543
 10
38.365916011222915
 20
1073.2435160154905
 42
2.414213562373095
 10
38.365916011222915
 20
1068.7180326158966
 10
59.47054936794741
 20
1047.613399259172
 42
2.414213562373095
 10
63.99603276754132
 20
1047.613399259172
  0
TEXT
  5
139
330
17
100
AcDbEntity
  8
ENGRAVE-LABEL
100
AcDbText
 10
79.46287154691697
 20
1081.6270543621918
 30
0.0
 40
7.0
  1
05 2/2
 72
1
 11
79.46287154691697
 21
1081.6270543621918
 31
0.0
100
AcDbText
 73
2
  0
ENDSEC
  0
SECTION
  2
OBJECTS
  0
DICTIONARY
  5
A
330
0
100
AcDbDictionary
281
1
  3
ACAD_COLOR
350
B
  3
ACAD_GROUP
350
C
  3
ACAD_LAYOUT
350
D
  3
ACAD_MATERIAL
350
E
  3
ACAD_MLEADERSTYLE
350
F
  3
ACAD_MLINESTYLE
350
10
  3
ACAD_PLOTSETTINGS
350
11
  3
ACAD_PLOTSTYLENAME
350
12
  3
ACAD_SCALELIST
350
14
  3
ACAD_TABLESTYLE
350
15
  3
ACAD_VISUALSTYLE
350
16
  3
EZDXF_META
350
2D
  0
DICTIONARY
  5
B
330
A
100
AcDbDictionary
281
1
  0
DICTIONARY
  5
C
330
A
100
AcDbDictionary
281
1
  0
DICTIONARY
  5
D
330
A
100
AcDbDictionary
281
1
  3
Model
350
1A
  3
Layout1
350
1E
  0
DICTIONARY
  5
E
330
A
100
AcDbDictionary
281
1
  3
ByBlock
350
1F
  3
ByLayer
350
20
  3
Global
350
21
  0
DICTIONARY
  5
F
330
A
100
AcDbDictionary
281
1
  3
Standard
350
2C
  0
DICTIONARY
  5
10
330
A
100
AcDbDictionary
281
1
  3
Standard
350
22
  0
DICTIONARY
  5
11
330
A
100
AcDbDictionary
281
1
  0
ACDBDICTIONARYWDFLT
  5
12
330
A
100
AcDbDictionary
281
1
  3
Normal
350
13
100
AcDbDictionaryWithDefault
340
13
  0
ACDBPLACEHOLDER
  5
13
330
12
  0
DICTIONARY
  5
14
330
A
100
AcDbDictionary
281
1
  0
DICTIONARY
  5
15
330
A
100
AcDbDictionary
281
1
  0
DICTIONARY
  5
16
330
A
100
AcDbDictionary
281
1
  3
2dWireframe
350
5A
  3
Basic
350
5B
  3
Brighten
350
5C
  3
ColorChange
350
5D
  3
Conceptual
350
5E
  3
Dim
350
5F
  3
EdgeColorOff
350
60
  3
Facepattern
350
61
  3
Flat
350
62
  3
FlatWithEdges
350
63
  3
Gouraud
350
64
  3
GouraudWithEdges
350
65
  3
Hidden
350
66
  3
JitterOff
350
67
  3
Linepattern
350
68
  3
Modeling
350
69
  3
OverhangOff
350
6A
  3
Realistic
350
6B
  3
Shaded
350
6C
  3
Shaded with edges
350
6D
  3
Shades of Gray
350
6E
  3
Sketchy
350
6F
  3
Thicken
350
70
  3
Wireframe
350
71
  3
X-Ray
350
72
  0
LAYOUT
  5
1A
330
D
100
AcDbPlotSettings
  1

  4
A3
  6

 40
7.5
 41
20.0
 42
7.5
 43
20.0
 44
420.0
 45
297.0
 46
0.0
 47
0.0
 48
0.0
 49
0.0
140
0.0
141
0.0
142
1.0
143
1.0
 70
1024
 72
1
 73
0
 74
5
  7

 75
16
 76
0
 77
2
 78
300
147
1.0
148
0.0
149
0.0
100
AcDbLayout
  1
Model
 70
1
 71
0
 10
0.0
 20
0.0
 11
420.0
 21
297.0
 12
0.0
 22
0.0
 32
0.0
 14
1e+20
 24
1e+20
 34
1e+20
 15
-1e+20
 25
-1e+20
 35
-1e+20
146
0.0
 13
0.0
 23
0.0
 33
0.0
 16
1.0
 26
0.0
 36
0.0
 17
0.0
 27
1.0
 37
0.0
 76
1
330
17
  0
LAYOUT
  5
1E
330
D
100
AcDbPlotSettings
  1

  4
A3
  6

 40
7.5
 41
20.0
 42
7.5
 43
20.0
 44
420.0
 45
297.0
 46
0.0
 47
0.0
 48
0.0
 49
0.0
140
0.0
141
0.0
142
1.0
143
1.0
 70
0
 72
1
 73
0
 74
5
  7

 75
16
 76
0
 77
2
 78
300
147
1.0
148
0.0
149
0.0
100
AcDbLayout
  1
Layout1
 70
1
 71
1
 10
0.0
 20
0.0
 11
420.0
 21
297.0
 12
0.0
 22
0.0
 32
0.0
 14
1e+20
 24
1e+20
 34
1e+20
 15
-1e+20
 25
-1e+20
 35
-1e+20
146
0.0
 13
0.0
 23
0.0
 33
0.0
 16
1.0
 26
0.0
 36
0.0
 17
0.0
 27
1.0
 37
0.0
 76
1
330
1B
  0
MATERIAL
  5
1F
102
{ACAD_REACTORS
330
E
102
}
330
E
100
AcDbMaterial
  1
ByBlock
  2

 70
0
 40
1.0
 71
1
 41
1.0
 91
-1023410177
 42
1.0
 72
1
  3

 73
1
 74
1
 75
1
 44
0.5
 73
0
 45
1.0
 46
1.0
 77
1
  4

 78
1
 79
1
170
1
 48
1.0
171
1
  6

172
1
173
1
174
1
140
1.0
141
1.0
175
1
  7

176
1
177
1
178
1
143
1.0
179
1
  8

270
1
271
1
272
1
145
1.0
146
1.0
273
1
  9

274
1
275
1
276
1
 42
1.0
 72
1
  3

 73
1
 74
1
 75
1
 94
63
  0
MATERIAL
  5
20
102
{ACAD_REACTORS
330
E
102
}
330
E
100
AcDbMaterial
  1
ByLayer
  2

 70
0
 40
1.0
 71
1
 41
1.0
 91
-1023410177
 42
1.0
 72
1
  3

 73
1
 74
1
 75
1
 44
0.5
 73
0
 45
1.0
 46
1.0
 77
1
  4

 78
1
 79
1
170
1
 48
1.0
171
1
  6

172
1
173
1
174
1
140
1.0
141
1.0
175
1
  7

176
1
177
1
178
1
143
1.0
179
1
  8

270
1
271
1
272
1
145
1.0
146
1.0
273
1
  9

274
1
275
1
276
1
 42
1.0
 72
1
  3

 73
1
 74
1
 75
1
 94
63
  0
MATERIAL
  5
21
102
{ACAD_REACTORS
330
E
102
}
330
E
100
AcDbMaterial
  1
Global
  2

 70
0
 40
1.0
 71
1
 41
1.0
 91
-1023410177
 42
1.0
 72
1
  3

 73
1
 74
1
 75
1
 44
0.5
 73
0
 45
1.0
 46
1.0
 77
1
  4

 78
1
 79
1
170
1
 48
1.0
171
1
  6

172
1
173
1
174
1
140
1.0
141
1.0
175
1
  7

176
1
177
1
178
1
143
1.0
179
1
  8

270
1
271
1
272
1
145
1.0
146
1.0
273
1
  9

274
1
275
1
276
1
 42
1.0
 72
1
  3

 73
1
 74
1
 75
1
 94
63
  0
MLINESTYLE
  5
22
102
{ACAD_REACTORS
330
10
102
}
330
10
100
AcDbMlineStyle
  2
Standard
 70
0
  3

 62
256
 51
90.0
 52
90.0
 71
2
 49
0.5
 62
256
  6
BYLAYER
 49
-0.5
 62
256
  6
BYLAYER
  0
MLEADERSTYLE
  5
2C
102
{ACAD_REACTORS
330
F
102
}
330
F
100
AcDbMLeaderStyle
179
2
170
2
171
1
172
0
 90
2
 40
0.0
 41
0.0
173
1
 91
-1056964608
 92
-2
290
1
 42
2.0
291
1
 43
8.0
  3
Standard
 44
4.0
300

342
29
174
1
175
1
176
0
178
1
 93
-1056964608
 45
4.0
292
0
297
0
 46
4.0
 94
-1056964608
 47
1.0
 49
1.0
140
1.0
294
1
141
0.0
177
0
142
1.0
295
0
296
0
143
3.75
271
0
272
9
273
9
  0
DICTIONARY
  5
2D
330
A
100
AcDbDictionary
280
1
281
1
  3
CREATED_BY_EZDXF
350
2E
  3
WRITTEN_BY_EZDXF
350
13C
  0
DICTIONARYVAR
  5
2E
330
2D
100
DictionaryVariables
280
0
  1
1.4.4 @ 2026-10-03T06:44:26.951104+00:00
  0
VISUALSTYLE
  5
5A
102
{ACAD_REACTORS
330
16
102
}
330
16
100
AcDbVisualStyle
  2
2dWireframe
 70
4
 90
0
 40
0.6
 62
7
290
0
291
0
  0
VISUALSTYLE
  5
5B
102
{ACAD_REACTORS
330
16
102
}
330
16
100
AcDbVisualStyle
  2
Basic
 70
7
 90
1
 40
0.6
 62
7
290
0
291
1
  0
VISUALSTYLE
  5
5C
102
{ACAD_REACTORS
330
16
102
}
330
16
100
AcDbVisualStyle
  2
Brighten
 70
12
 90
2
 40
0.6
 62
7
290
0
291
1
  0
VISUALSTYLE
  5
5D
102
{ACAD_REACTORS
330
16
102
}
330
16
100
AcDbVisualStyle
  2
ColorChange
 70
16
 90
2
 40
0.6
 62
8
290
0
291
1
  0
VISUALSTYLE
  5
5E
102
{ACAD_REACTORS
330
16
102
}
330
16
100
AcDbVisualStyle
  2
Conceptual
 70
9
 90
3
 40
0.6
 62
7
290
0
291
0
  0
VISUALSTYLE
  5
5F
102
{ACAD_REACTORS
330
16
102
}
330
16
100
AcDbVisualStyle
  2
Dim
 70
11
 90
2
 40
0.6
 62
7
290
0
291
1
  0
VISUALSTYLE
  5
60
102
{ACAD_REACTORS
330
16
102
}
330
16
100
AcDbVisualStyle
  2
EdgeColorOff
 70
22
 90
2
 40
0.6
 62
7
290
0
291
1
  0
VISUALSTYLE
  5
61
102
{ACAD_REACTORS
330
16
102
}
330
16
100
AcDbVisualStyle
  2
Facepattern
 70
15
 90
2
 40
0.6
 62
7
290
0
291
1
  0
VISUALSTYLE
  5
62
102
{ACAD_REACTORS
330
16
102
}
330
16
100
AcDbVisualStyle
  2
Flat
 70
0
 90
2
 40
0.6
 62
7
290
0
291
1
  0
VISUALSTYLE
  5
63
102
{ACAD_REACTORS
330
16
102
}
330
16
100
AcDbVisualStyle
  2
FlatWithEdges
 70
1
 90
2
 40
0.6
 62
7
290
0
291
1
  0
VISUALSTYLE
  5
64
102
{ACAD_REACTORS
330
16
102
}
330
16
100
AcDbVisualStyle
  2
Gouraud
 70
2
 90
2
 40
0.6
 62
7
290
0
291
1
  0
VISUALSTYLE
  5
65
102
{ACAD_REACTORS
330
16
102
}
330
16
100
AcDbVisualStyle
  2
GouraudWithEdges
 70
3
 90
2
 40
0.6
 62
7
290
0
291
1
  0
VISUALSTYLE
  5
66
102
{ACAD_REACTORS
330
16
102
}
330
16
100
AcDbVisualStyle
  2
Hidden
 70
6
 90
1
 40
0.6
 62
7
290
0
291
0
  0
VISUALSTYLE
  5
67
102
{ACAD_REACTORS
330
16
102
}
330
16
100
AcDbVisualStyle
  2
JitterOff
 70
20
 90
2
 40
0.6
 62
7
290
0
291
1
  0
VISUALSTYLE
  5
68
102
{ACAD_REACTORS
330
16
102
}
330
16
100
AcDbVisualStyle
  2
Linepattern
 70
14
 90
2
 40
0.6
 62
7
290
0
291
1
  0
VISUALSTYLE
  5
69
102
{ACAD_REACTORS
330
16
102
}
330
16
100
AcDbVisualStyle
  2
Modeling
 70
10
 90
2
 40
0.6
 62
7
290
0
291
0
  0
VISUALSTYLE
  5
6A
102
{ACAD_REACTORS
330
16
102
}
330
16
100
AcDbVisualStyle
  2
OverhangOff
 70
21
 90
2
 40
0.6
 62
7
290
0
291
1
  0
VISUALSTYLE
  5
6B
102
{ACAD_REACTORS
330
16
102
}
330
16
100
AcDbVisualStyle
  2
Realistic
 70
8
 90
2
 40
0.6
 62
7
290
0
291
0
  0
VISUALSTYLE
  5
6C
102
{ACAD_REACTORS
330
16
102
}
330
16
100
AcDbVisualStyle
  2
Shaded
 70
27
 90
2
 40
0.6
 62
7
290
0
291
0
  0
VISUALSTYLE
  5
6D
102
{ACAD_REACTORS
330
16
102
}
330
16
100
AcDbVisualStyle
  2
Shaded with edges
 70
26
 90
2
 40
0.6
 62
7
290
0
291
0
  0
VISUALSTYLE
  5
6E
102
{ACAD_REACTORS
330
16
102
}
330
16
100
AcDbVisualStyle
  2
Shades of Gray
 70
23
 90
2
 40
0.6
 62
7
290
0
291
0
  0
VISUALSTYLE
  5
6F
102
{ACAD_REACTORS
330
16
102
}
330
16
100
AcDbVisualStyle
  2
Sketchy
 70
24
 90
1
 40
0.6
 62
7
290
0
291
0
  0
VISUALSTYLE
  5
70
102
{ACAD_REACTORS
330
16
102
}
330
16
100
AcDbVisualStyle
  2
Thicken
 70
13
 90
2
 40
0.6
 62
7
290
0
291
1
  0
VISUALSTYLE
  5
71
102
{ACAD_REACTORS
330
16
102
}
330
16
100
AcDbVisualStyle
  2
Wireframe
 70
5
 90
0
 40
0.6
 62
7
290
0
291
0
  0
VISUALSTYLE
  5
72
102
{ACAD_REACTORS
330
16
102
}
330
16
100
AcDbVisualStyle
  2
X-Ray
 70
25
 90
2
 40
0.5
 62
7
290
0
291
0
  0
DICTIONARYVAR
  5
13C
330
2D
100
DictionaryVariables
280
0
  1
1.4.4 @ 2026-10-03T06:44:28.830742+00:00
  0
ENDSEC
  0
EOF
