  0
SECTION
  2
HEADER
  9
$ACADVER
  1
AC1024
  9
$ACADMAINTVER
 70
6
  9
$DWGCODEPAGE
  3
ANSI_1252
  9
$LASTSAVEDBY
  1
ezdxf
  9
$INSBASE
 10
0.0
 20
0.0
 30
0.0
  9
$EXTMIN
 10
1e+20
 20
1e+20
 30
1e+20
  9
$EXTMAX
 10
-1e+20
 20
-1e+20
 30
-1e+20
  9
$LIMMIN
 10
0.0
 20
0.0
  9
$LIMMAX
 10
420.0
 20
297.0
  9
$ORTHOMODE
 70
0
  9
$REGENMODE
 70
1
  9
$FILLMODE
 70
1
  9
$QTEXTMODE
 70
0
  9
$MIRRTEXT
 70
1
  9
$LTSCALE
 40
1.0
  9
$ATTMODE
 70
1
  9
$TEXTSIZE
 40
2.5
  9
$TRACEWID
 40
1.0
  9
$TEXTSTYLE
  7
Standard
  9
$CLAYER
  8
0
  9
$CELTYPE
  6
ByLayer
  9
$CECOLOR
 62
256
  9
$CELTSCALE
 40
1.0
  9
$DISPSILH
 70
0
  9
$DIMSCALE
 40
1.0
  9
$DIMASZ
 40
2.5
  9
$DIMEXO
 40
0.625
  9
$DIMDLI
 40
3.75
  9
$DIMRND
 40
0.0
  9
$DIMDLE
 40
0.0
  9
$DIMEXE
 40
1.25
  9
$DIMTP
 40
0.0
  9
$DIMTM
 40
0.0
  9
$DIMTXT
 40
2.5
  9
$DIMCEN
 40
2.5
  9
$DIMTSZ
 40
0.0
  9
$DIMTOL
 70
0
  9
$DIMLIM
 70
0
  9
$DIMTIH
 70
0
  9
$DIMTOH
 70
0
  9
$DIMSE1
 70
0
  9
$DIMSE2
 70
0
  9
$DIMTAD
 70
1
  9
$DIMZIN
 70
8
  9
$DIMBLK
  1

  9
$DIMASO
 70
1
  9
$DIMSHO
 70
1
  9
$DIMPOST
  1

  9
$DIMAPOST
  1

  9
$DIMALT
 70
0
  9
$DIMALTD
 70
3
  9
$DIMALTF
 40
0.03937007874
  9
$DIMLFAC
 40
1.0
  9
$DIMTOFL
 70
1
  9
$DIMTVP
 40
0.0
  9
$DIMTIX
 70
0
  9
$DIMSOXD
 70
0
  9
$DIMSAH
 70
0
  9
$DIMBLK1
  1

  9
$DIMBLK2
  1

  9
$DIMSTYLE
  2
ISO-25
  9
$DIMCLRD
 70
0
  9
$DIMCLRE
 70
0
  9
$DIMCLRT
 70
0
  9
$DIMTFAC
 40
1.0
  9
$DIMGAP
 40
0.625
  9
$DIMJUST
 70
0
  9
$DIMSD1
 70
0
  9
$DIMSD2
 70
0
  9
$DIMTOLJ
 70
0
  9
$DIMTZIN
 70
8
  9
$DIMALTZ
 70
0
  9
$DIMALTTZ
 70
0
  9
$DIMUPT
 70
0
  9
$DIMDEC
 70
2
  9
$DIMTDEC
 70
2
  9
$DIMALTU
 70
2
  9
$DIMALTTD
 70
3
  9
$DIMTXSTY
  7
Standard
  9
$DIMAUNIT
 70
0
  9
$DIMADEC
 70
0
  9
$DIMALTRND
 40
0.0
  9
$DIMAZIN
 70
0
  9
$DIMDSEP
 70
44
  9
$DIMATFIT
 70
3
  9
$DIMFRAC
 70
0
  9
$DIMLDRBLK
  1

  9
$DIMLUNIT
 70
2
  9
$DIMLWD
 70
-2
  9
$DIMLWE
 70
-2
  9
$DIMTMOVE
 70
0
  9
$DIMFXL
 40
1.0
  9
$DIMFXLON
 70
0
  9
$DIMJOGANG
 40
0.785398163397
  9
$DIMTFILL
 70
0
  9
$DIMTFILLCLR
 70
0
  9
$DIMARCSYM
 70
0
  9
$DIMLTYPE
  6

  9
$DIMLTEX1
  6

  9
$DIMLTEX2
  6

  9
$DIMTXTDIRECTION
 70
0
  9
$LUNITS
 70
2
  9
$LUPREC
 70
4
  9
$SKETCHINC
 40
1.0
  9
$FILLETRAD
 40
10.0
  9
$AUNITS
 70
0
  9
$AUPREC
 70
2
  9
$MENU
  1
.
  9
$ELEVATION
 40
0.0
  9
$PELEVATION
 40
0.0
  9
$THICKNESS
 40
0.0
  9
$LIMCHECK
 70
0
  9
$CHAMFERA
 40
0.0
  9
$CHAMFERB
 40
0.0
  9
$CHAMFERC
 40
0.0
  9
$CHAMFERD
 40
0.0
  9
$SKPOLY
 70
0
  9
$TDCREATE
 40
2461312.963125
  9
$TDUCREATE
 40
2458532.153996898
  9
$TDUPDATE
 40
2461312.9631712963
  9
$TDUUPDATE
 40
2458532.1544311
  9
$TDINDWG
 40
0.0
  9
$TDUSRTIMER
 40
0.0
  9
$USRTIMER
 70
1
  9
$ANGBASE
 50
0.0
  9
$ANGDIR
 70
0
  9
$PDMODE
 70
0
  9
$PDSIZE
 40
0.0
  9
$PLINEWID
 40
0.0
  9
$SPLFRAME
 70
0
  9
$SPLINETYPE
 70
6
  9
$SPLINESEGS
 70
8
  9
$HANDSEED
  5
10E
  9
$SURFTAB1
 70
6
  9
$SURFTAB2
 70
6
  9
$SURFTYPE
 70
6
  9
$SURFU
 70
6
  9
$SURFV
 70
6
  9
$UCSBASE
  2

  9
$UCSNAME
  2

  9
$UCSORG
 10
0.0
 20
0.0
 30
0.0
  9
$UCSXDIR
 10
1.0
 20
0.0
 30
0.0
  9
$UCSYDIR
 10
0.0
 20
1.0
 30
0.0
  9
$UCSORTHOREF
  2

  9
$UCSORTHOVIEW
 70
0
  9
$UCSORGTOP
 10
0.0
 20
0.0
 30
0.0
  9
$UCSORGBOTTOM
 10
0.0
 20
0.0
 30
0.0
  9
$UCSORGLEFT
 10
0.0
 20
0.0
 30
0.0
  9
$UCSORGRIGHT
 10
0.0
 20
0.0
 30
0.0
  9
$UCSORGFRONT
 10
0.0
 20
0.0
 30
0.0
  9
$UCSORGBACK
 10
0.0
 20
0.0
 30
0.0
  9
$PUCSBASE
  2

  9
$PUCSNAME
  2

  9
$PUCSORG
 10
0.0
 20
0.0
 30
0.0
  9
$PUCSXDIR
 10
1.0
 20
0.0
 30
0.0
  9
$PUCSYDIR
 10
0.0
 20
1.0
 30
0.0
  9
$PUCSORTHOREF
  2

  9
$PUCSORTHOVIEW
 70
0
  9
$PUCSORGTOP
 10
0.0
 20
0.0
 30
0.0
  9
$PUCSORGBOTTOM
 10
0.0
 20
0.0
 30
0.0
  9
$PUCSORGLEFT
 10
0.0
 20
0.0
 30
0.0
  9
$PUCSORGRIGHT
 10
0.0
 20
0.0
 30
0.0
  9
$PUCSORGFRONT
 10
0.0
 20
0.0
 30
0.0
  9
$PUCSORGBACK
 10
0.0
 20
0.0
 30
0.0
  9
$USERI1
 70
0
  9
$USERI2
 70
0
  9
$USERI3
 70
0
  9
$USERI4
 70
0
  9
$USERI5
 70
0
  9
$USERR1
 40
0.0
  9
$USERR2
 40
0.0
  9
$USERR3
 40
0.0
  9
$USERR4
 40
0.0
  9
$USERR5
 40
0.0
  9
$WORLDVIEW
 70
1
  9
$SHADEDGE
 70
3
  9
$SHADEDIF
 70
70
  9
$TILEMODE
 70
1
  9
$MAXACTVP
 70
64
  9
$PINSBASE
 10
0.0
 20
0.0
 30
0.0
  9
$PLIMCHECK
 70
0
  9
$PEXTMIN
 10
1e+20
 20
1e+20
 30
1e+20
  9
$PEXTMAX
 10
-1e+20
 20
-1e+20
 30
-1e+20
  9
$PLIMMIN
 10
0.0
 20
0.0
  9
$PLIMMAX
 10
420.0
 20
297.0
  9
$UNITMODE
 70
0
  9
$VISRETAIN
 70
1
  9
$PLINEGEN
 70
0
  9
$PSLTSCALE
 70
1
  9
$TREEDEPTH
 70
3020
  9
$CMLSTYLE
  2
Standard
  9
$CMLJUST
 70
0
  9
$CMLSCALE
 40
20.0
  9
$PROXYGRAPHICS
 70
1
  9
$MEASUREMENT
 70
1
  9
$CELWEIGHT
370
-1
  9
$ENDCAPS
280
0
  9
$JOINSTYLE
280
0
  9
$LWDISPLAY
290
0
  9
$INSUNITS
 70
4
  9
$HYPERLINKBASE
  1

  9
$STYLESHEET
  1

  9
$XEDIT
290
1
  9
$CEPSNTYPE
380
0
  9
$PSTYLEMODE
290
1
  9
$FINGERPRINTGUID
  2
{E07B2191-F585-4598-9798-485FE173D7B2}
  9
$VERSIONGUID
  2
{F0C142A5-0FA8-4394-B2CD-1A2759E6910D}
  9
$EXTNAMES
290
1
  9
$PSVPSCALE
 40
0.0
  9
$OLESTARTUP
290
0
  9
$SORTENTS
280
127
  9
$INDEXCTL
280
0
  9
$HIDETEXT
280
1
  9
$XCLIPFRAME
280
1
  9
$HALOGAP
280
0
  9
$OBSCOLOR
 70
257
  9
$OBSLTYPE
280
0
  9
$INTERSECTIONDISPLAY
280
0
  9
$INTERSECTIONCOLOR
 70
257
  9
$DIMASSOC
280
2
  9
$PROJECTNAME
  1

  9
$CAMERADISPLAY
290
0
  9
$LENSLENGTH
 40
50.0
  9
$CAMERAHEIGHT
 40
0.0
  9
$STEPSPERSEC
 40
24.0
  9
$STEPSIZE
 40
100.0
  9
$3DDWFPREC
 40
2.0
  9
$PSOLWIDTH
 40
0.005
  9
$PSOLHEIGHT
 40
0.08
  9
$LOFTANG1
 40
1.570796326795
  9
$LOFTANG2
 40
1.570796326795
  9
$LOFTMAG1
 40
0.0
  9
$LOFTMAG2
 40
0.0
  9
$LOFTPARAM
 70
7
  9
$LOFTNORMALS
280
1
  9
$LATITUDE
 40
37.795
  9
$LONGITUDE
 40
-122.394
  9
$NORTHDIRECTION
 40
0.0
  9
$TIMEZONE
 70
-8000
  9
$LIGHTGLYPHDISPLAY
280
1
  9
$TILEMODELIGHTSYNCH
280
1
  9
$CMATERIAL
347
20
  9
$SOLIDHIST
280
0
  9
$SHOWHIST
280
1
  9
$DWFFRAME
280
2
  9
$DGNFRAME
280
2
  9
$REALWORLDSCALE
290
1
  9
$INTERFERECOLOR
 62
256
  9
$CSHADOW
280
0
  9
$SHADOWPLANELOCATION
 40
0.0
  0
ENDSEC
  0
SECTION
  2
CLASSES
  0
CLASS
  1
ACDBDICTIONARYWDFLT
  2
AcDbDictionaryWithDefault
  3
ObjectDBX Classes
 90
0
 91
0
280
0
281
0
  0
CLASS
  1
SUN
  2
AcDbSun
  3
SCENEOE
 90
1153
 91
0
280
0
281
0
  0
CLASS
  1
VISUALSTYLE
  2
AcDbVisualStyle
  3
ObjectDBX Classes
 90
4095
 91
0
280
0
281
0
  0
CLASS
  1
MATERIAL
  2
AcDbMaterial
  3
ObjectDBX Classes
 90
1153
 91
0
280
0
281
0
  0
CLASS
  1
SCALE
  2
AcDbScale
  3
ObjectDBX Classes
 90
1153
 91
0
280
0
281
0
  0
CLASS
  1
TABLESTYLE
  2
AcDbTableStyle
  3
ObjectDBX Classes
 90
4095
 91
0
280
0
281
0
  0
CLASS
  1
MLEADERSTYLE
  2
AcDbMLeaderStyle
  3
ACDB_MLEADERSTYLE_CLASS
 90
4095
 91
0
280
0
281
0
  0
CLASS
  1
DICTIONARYVAR
  2
AcDbDictionaryVar
  3
ObjectDBX Classes
 90
0
 91
0
280
0
281
0
  0
CLASS
  1
CELLSTYLEMAP
  2
AcDbCellStyleMap
  3
ObjectDBX Classes
 90
1152
 91
0
280
0
281
0
  0
CLASS
  1
MENTALRAYRENDERSETTINGS
  2
AcDbMentalRayRenderSettings
  3
SCENEOE
 90
1024
 91
0
280
0
281
0
  0
CLASS
  1
ACDBDETAILVIEWSTYLE
  2
AcDbDetailViewStyle
  3
ObjectDBX Classes
 90
1025
 91
0
280
0
281
0
  0
CLASS
  1
ACDBSECTIONVIEWSTYLE
  2
AcDbSectionViewStyle
  3
ObjectDBX Classes
 90
1025
 91
0
280
0
281
0
  0
CLASS
  1
RASTERVARIABLES
  2
AcDbRasterVariables
  3
ISM
 90
0
 91
0
280
0
281
0
  0
CLASS
  1
LAYOUT
  2
AcDbLayout
  3
ObjectDBX Classes
 90
0
 91
0
280
0
281
0
  0
CLASS
  1
ACDBPLACEHOLDER
  2
AcDbPlaceHolder
  3
ObjectDBX Classes
 90
0
 91
0
280
0
281
0
  0
ENDSEC
  0
SECTION
  2
TABLES
  0
TABLE
  2
VPORT
  5
8
330
0
100
AcDbSymbolTable
 70
1
  0
VPORT
  5
23
330
8
100
AcDbSymbolTableRecord
100
AcDbViewportTableRecord
  2
*Active
 70
0
 10
0.0
 20
0.0
 11
1.0
 21
1.0
 12
0.0
 22
0.0
 13
0.0
 23
0.0
 14
0.5
 24
0.5
 15
0.5
 25
0.5
 16
0.0
 26
0.0
 36
1.0
 17
0.0
 27
0.0
 37
0.0
 40
1000.0
 41
1.34
 42
50.0
 43
0.0
 44
0.0
 50
0.0
 51
0.0
 71
0
 72
1000
 73
1
 74
3
 75
0
 76
0
 77
0
 78
0
281
0
 65
0
146
0.0
  0
ENDTAB
  0
TABLE
  2
LTYPE
  5
2
330
0
100
AcDbSymbolTable
 70
3
  0
LTYPE
  5
24
330
2
100
AcDbSymbolTableRecord
100
AcDbLinetypeTableRecord
  2
ByBlock
 70
0
  3

 72
65
 73
0
 40
0.0
  0
LTYPE
  5
25
330
2
100
AcDbSymbolTableRecord
100
AcDbLinetypeTableRecord
  2
ByLayer
 70
0
  3

 72
65
 73
0
 40
0.0
  0
LTYPE
  5
26
330
2
100
AcDbSymbolTableRecord
100
AcDbLinetypeTableRecord
  2
Continuous
 70
0
  3

 72
65
 73
0
 40
0.0
  0
ENDTAB
  0
TABLE
  2
LAYER
  5
1
330
0
100
AcDbSymbolTable
 70
5
  0
LAYER
  5
27
330
1
100
AcDbSymbolTableRecord
100
AcDbLayerTableRecord
  2
0
 70
0
 62
7
  6
Continuous
370
-3
390
13
347
21
  0
LAYER
  5
28
330
1
100
AcDbSymbolTableRecord
100
AcDbLayerTableRecord
  2
Defpoints
 70
0
 62
7
  6
Continuous
290
0
370
-3
390
13
347
21
  0
LAYER
  5
2F
330
1
100
AcDbSymbolTableRecord
100
AcDbLayerTableRecord
  2
CUT
 70
0
 62
1
  6
Continuous
370
-3
390
13
347
21
  0
LAYER
  5
30
330
1
100
AcDbSymbolTableRecord
100
AcDbLayerTableRecord
  2
POCKET-KERF-15.5
 70
0
 62
5
  6
Continuous
370
-3
390
13
347
21
  0
LAYER
  5
31
330
1
100
AcDbSymbolTableRecord
100
AcDbLayerTableRecord
  2
BOARD-2440x1220
 70
0
 62
8
  6
Continuous
370
-3
390
13
347
21
  0
ENDTAB
  0
TABLE
  2
STYLE
  5
5
330
0
100
AcDbSymbolTable
 70
1
  0
STYLE
  5
29
330
5
100
AcDbSymbolTableRecord
100
AcDbTextStyleTableRecord
  2
Standard
 70
0
 40
0.0
 41
1.0
 50
0.0
 71
0
 42
2.5
  3
txt
  4

  0
ENDTAB
  0
TABLE
  2
VIEW
  5
7
330
0
100
AcDbSymbolTable
 70
0
  0
ENDTAB
  0
TABLE
  2
UCS
  5
6
330
0
100
AcDbSymbolTable
 70
0
  0
ENDTAB
  0
TABLE
  2
APPID
  5
3
330
0
100
AcDbSymbolTable
 70
3
  0
APPID
  5
2A
330
3
100
AcDbSymbolTableRecord
100
AcDbRegAppTableRecord
  2
ACAD
 70
0
  0
APPID
  5
10B
330
3
100
AcDbSymbolTableRecord
100
AcDbRegAppTableRecord
  2
HATCHBACKGROUNDCOLOR
 70
0
  0
APPID
  5
10C
330
3
100
AcDbSymbolTableRecord
100
AcDbRegAppTableRecord
  2
EZDXF
 70
0
  0
ENDTAB
  0
TABLE
  2
DIMSTYLE
  5
4
330
0
100
AcDbSymbolTable
 70
1
100
AcDbDimStyleTable
  0
DIMSTYLE
105
2B
330
4
100
AcDbSymbolTableRecord
100
AcDbDimStyleTableRecord
  2
Standard
 70
0
 40
1.0
 41
2.5
 42
0.625
 43
3.75
 44
1.25
 45
0.0
 46
0.0
 47
0.0
 48
0.0
 49
2.5
140
2.5
141
2.5
142
0.0
143
0.03937007874
144
1.0
145
0.0
146
1.0
147
0.625
148
0.0
 69
0
 70
0
 71
0
 72
0
 73
0
 74
0
 75
0
 76
0
 77
1
 78
8
 79
3
170
0
171
3
172
1
173
0
174
0
175
0
176
0
177
0
178
0
179
2
271
2
272
2
273
2
274
3
275
0
276
0
277
2
278
44
279
0
280
0
281
0
282
0
283
0
284
8
285
0
286
0
288
0
289
3
290
0
371
-2
372
-2
  0
ENDTAB
  0
TABLE
  2
BLOCK_RECORD
  5
9
330
0
100
AcDbSymbolTable
 70
2
  0
BLOCK_RECORD
  5
17
330
9
100
AcDbSymbolTableRecord
100
AcDbBlockTableRecord
  2
*Model_Space
340
1A
 70
0
280
1
281
0
  0
BLOCK_RECORD
  5
1B
330
9
100
AcDbSymbolTableRecord
100
AcDbBlockTableRecord
  2
*Paper_Space
340
1E
 70
0
280
1
281
0
  0
ENDTAB
  0
ENDSEC
  0
SECTION
  2
BLOCKS
  0
BLOCK
  5
18
330
17
100
AcDbEntity
  8
0
100
AcDbBlockBegin
  2
*Model_Space
 70
0
 10
0.0
 20
0.0
 30
0.0
  3
*Model_Space
  1

  0
ENDBLK
  5
19
330
17
100
AcDbEntity
  8
0
100
AcDbBlockEnd
  0
BLOCK
  5
1C
330
1B
100
AcDbEntity
  8
0
100
AcDbBlockBegin
  2
*Paper_Space
 70
0
 10
0.0
 20
0.0
 30
0.0
  3
*Paper_Space
  1

  0
ENDBLK
  5
1D
330
1B
100
AcDbEntity
  8
0
100
AcDbBlockEnd
  0
ENDSEC
  0
SECTION
  2
ENTITIES
  0
LWPOLYLINE
  5
32
330
17
100
AcDbEntity
  8
BOARD-2440x1220
100
AcDbPolyline
 90
4
 70
1
 10
0.0
 20
0.0
 10
2440.0
 20
0.0
 10
2440.0
 20
1220.0
 10
0.0
 20
1220.0
  0
LWPOLYLINE
  5
33
330
17
100
AcDbEntity
  8
CUT
100
AcDbPolyline
 90
4
 70
1
 10
804.6808360041198
 20
18.0
 10
1141.829765720171
 20
339.2951901154468
 42
0.4283865023507377
 10
18.0
 20
339.2951901154468
 10
355.14892971605127
 20
18.0
 42
-0.4283865023507377
  0
LWPOLYLINE
  5
34
330
17
100
AcDbEntity
  8
POCKET-KERF-15.5
100
AcDbPolyline
 90
4
 70
1
 10
796.5984422461696
 20
26.89056299006518
 10
800.8618804743206
 20
22.66882229756158
 10
1127.8534571892465
 20
352.8900485621844
 10
1123.5900189610957
 20
357.11178925468795
  0
LWPOLYLINE
  5
35
330
17
100
AcDbEntity
  8
POCKET-KERF-15.5
100
AcDbPolyline
 90
4
 70
1
 10
1012.6854145148793
 20
262.16456980075765
 10
1017.0284413110769
 20
258.02474876024024
 10
1117.3022865401888
 20
363.22059962565754
 10
1112.9592597439917
 20
367.36042066617506
  0
LWPOLYLINE
  5
36
330
17
100
AcDbEntity
  8
POCKET-KERF-15.5
100
AcDbPolyline
 90
4
 70
1
 10
787.9500014351705
 20
34.97656780023503
 10
792.3710430349452
 20
30.920166541352597
 10
1106.5563850635629
 20
373.3484369463892
 10
1102.1353434637883
 20
377.4048382052717
  0
LWPOLYLINE
  5
37
330
17
100
AcDbEntity
  8
POCKET-KERF-15.5
100
AcDbPolyline
 90
4
 70
1
 10
994.9251023652007
 20
278.30504015811545
 10
999.4225567341848
 20
274.3335285820394
 10
1095.6196467067762
 20
383.2698905422967
 10
1091.122192337792
 20
387.2414021183729
  0
LWPOLYLINE
  5
38
330
17
100
AcDbEntity
  8
POCKET-KERF-15.5
100
AcDbPolyline
 90
4
 70
1
 10
779.0000486751447
 20
42.72752566650857
 10
783.5722860895947
 20
38.84234291329042
 10
1084.496034569999
 20
392.98136521770533
 10
1079.923797155549
 20
396.86654797092336
  0
LWPOLYLINE
  5
39
330
17
100
AcDbEntity
  8
POCKET-KERF-15.5
100
AcDbPolyline
 90
4
 70
1
 10
976.563302634934
 20
293.7577998364496
 10
981.2086662722868
 20
289.96035376352637
 10
1073.1895794700724
 20
402.4793418661238
 10
1068.5442158327198
 20
406.2767879390471
  0
LWPOLYLINE
  5
3A
330
17
100
AcDbEntity
  8
POCKET-KERF-15.5
100
AcDbPolyline
 90
4
 70
1
 10
769.7615554187911
 20
50.13220287782255
 10
774.47836195804
 20
46.42386954985702
 10
1061.7043784798782
 20
411.7603787454493
 10
1056.9875719406296
 20
415.46871207341474
  0
LWPOLYLINE
  5
3B
330
17
100
AcDbEntity
  8
POCKET-KERF-15.5
100
AcDbPolyline
 90
4
 70
1
 10
957.6266276675251
 20
308.50045265707445
 10
962.4131678991972
 20
304.8825758473165
 10
1050.044593443699
 20
420.821112725136
 10
1045.2580532120269
 20
424.43898953489395
  0
LWPOLYLINE
  5
3C
330
17
100
AcDbEntity
  8
POCKET-KERF-15.5
100
AcDbPolyline
 90
4
 70
1
 10
760.2479113097761
 20
57.17986759873886
 10
765.102450755292
 20
53.65375830208776
 10
1038.2144494691083
 20
429.65826050487897
 10
1033.3599100235924
 20
433.1843698015301
  0
LWPOLYLINE
  5
3D
330
17
100
AcDbEntity
  8
POCKET-KERF-15.5
100
AcDbPolyline
 90
4
 70
1
 10
938.142522991482
 20
322.5116316218785
 10
943.0633025316716
 20
319.0785675798234
 10
1026.218233395937
 20
438.26861980437064
 10
1021.2974538557474
 20
441.70168384642574
  0
LWPOLYLINE
  5
3E
330
17
100
AcDbEntity
  8
POCKET-KERF-15.5
100
AcDbPolyline
 90
4
 70
1
 10
750.4729047766945
 20
63.860305423436664
 10
755.4581412892411
 20
60.52153066104676
 10
1014.0602922428674
 20
446.6490705236967
 10
1009.0750557303207
 20
449.9878452860866
  0
LWPOLYLINE
  5
3F
330
17
100
AcDbEntity
  8
POCKET-KERF-15.5
100
AcDbPolyline
 90
4
 70
1
 10
918.1392275426927
 20
335.77102988119697
 10
923.1871145482762
 20
332.52775425632905
 10
1001.7450316322235
 20
454.79657587395457
 10
996.69714462664
 20
458.0398514988225
  0
LWPOLYLINE
  5
40
330
17
100
AcDbEntity
  8
POCKET-KERF-15.5
100
AcDbPolyline
 90
4
 70
1
 10
740.4507030490587
 20
70.16383417977764
 10
745.5594113659613
 20
67.01723294466538
 10
989.2769141935236
 20
462.70818347768113
 10
984.1682058766211
 20
465.8547847127934
  0
LWPOLYLINE
  5
41
330
17
100
AcDbEntity
  8
POCKET-KERF-15.5
100
AcDbPolyline
 90
4
 70
1
 10
897.645732736833
 20
348.25943016517925
 10
902.8134111437729
 20
345.21064354056165
 10
976.660457946376
 20
470.38102643869456
 10
971.4927795394361
 20
473.42981306331217
  0
LWPOLYLINE
  5
42
330
17
100
AcDbEntity
  8
POCKET-KERF-15.5
100
AcDbPolyline
 90
4
 70
1
 10
730.1958316242806
 20
76.08131796198745
 10
735.4206075312306
 20
73.13145072393183
 10
963.900234663303
 20
477.8123243809575
 10
958.6754587563529
 20
480.7621916190132
  0
LWPOLYLINE
  5
43
330
17
100
AcDbEntity
  8
POCKET-KERF-15.5
100
AcDbPolyline
 90
4
 70
1
 10
876.6917404511801
 20
359.9587326359919
 10
881.9717205779307
 20
357.108853715561
 10
951.0008682130871
 20
484.99938445609257
 10
945.7208880863363
 20
487.8492633765235
  0
LWPOLYLINE
  5
44
330
17
100
AcDbEntity
  8
POCKET-KERF-15.5
100
AcDbPolyline
 90
4
 70
1
 10
719.7231532154037
 20
81.60418037161575
 10
725.0564242776234
 20
78.8553224675233
 10
937.9670328852383
 20
491.9396023191771
 10
932.6337618230189
 20
494.68846022326943
  0
LWPOLYLINE
  5
45
330
17
100
AcDbEntity
  8
POCKET-KERF-15.5
100
AcDbPolyline
 90
4
 70
1
 10
855.3076199767324
 20
370.8519811204929
 10
860.6922493792752
 20
368.2051403248893
 10
924.803451696192
 20
498.6304630724693
 10
919.4188222936493
 20
501.27730386807286
  0
LWPOLYLINE
  5
46
330
17
100
AcDbEntity
  8
POCKET-KERF-15.5
100
AcDbPolyline
 90
4
 70
1
 10
709.0478462100972
 20
86.72441694758558
 10
714.4818827473108
 20
84.18055238510826
 10
911.5148946778494
 20
505.06954217672137
 10
906.0808581406359
 20
507.6134067391988
  0
LWPOLYLINE
  5
47
330
17
100
AcDbEntity
  8
POCKET-KERF-15.5
100
AcDbPolyline
 90
4
 70
1
 10
833.5243640030257
 20
380.9233876853547
 10
839.0058385658003
 20
378.48342116557336
 10
898.1061771490803
 20
511.2545063297488
 10
892.6247025863055
 20
513.6944728495301
  0
LWPOLYLINE
  5
48
330
17
100
AcDbEntity
  8
POCKET-KERF-15.5
100
AcDbPolyline
 90
4
 70
1
 10
698.1853826721344
 20
91.43460676731372
 10
703.7123089614417
 20
89.09942245069892
 10
884.5821579708164
 20
517.1831143119406
 10
879.0552316815091
 20
519.5182986285555
  0
LWPOLYLINE
  5
49
330
17
100
AcDbEntity
  8
POCKET-KERF-15.5
100
AcDbPolyline
 90
4
 70
1
 10
811.3735436994364
 20
390.15835551902165
 10
816.9439189460954
 20
387.9287995965547
 10
870.9477377853663
 20
522.8532177983994
 10
865.3773625387072
 20
525.0827737208664
  0
LWPOLYLINE
  5
4A
330
17
100
AcDbEntity
  8
POCKET-KERF-15.5
100
AcDbPolyline
 90
4
 70
1
 10
687.1515059172351
 20
95.7279232020919
 10
692.7633116076481
 20
93.60480358863434
 10
857.2078572405904
 20
528.2627621374221
 10
851.5960515501773
 20
530.3858817508795
  0
LWPOLYLINE
  5
4B
330
17
100
AcDbEntity
  8
POCKET-KERF-15.5
100
AcDbPolyline
 90
4
 70
1
 10
788.8872629580765
 20
398.5435000873354
 10
794.5384655656688
 20
396.52758612886856
 10
843.3674951995789
 20
533.4097870950342
 10
837.7162925919866
 20
535.425701053501
  0
LWPOLYLINE
  5
4C
330
17
100
AcDbEntity
  8
POCKET-KERF-15.5
100
AcDbPolyline
 90
4
 70
1
 10
675.9622076957754
 20
99.5981438111372
 10
681.6507594178762
 20
97.69016600597705
 10
829.4316669364814
 20
538.2924275653133
 10
823.7431152143805
 20
540.2004053704734
  0
LWPOLYLINE
  5
4D
330
17
100
AcDbEntity
  8
POCKET-KERF-15.5
100
AcDbPolyline
 90
4
 70
1
 10
766.0981118645968
 20
406.06666853216797
 10
771.8219513644926
 20
404.26731826625763
 10
815.4054223191434
 20
542.9089142462382
 10
809.6815828192475
 20
544.7082645121485
  0
LWPOLYLINE
  5
4E
330
17
100
AcDbEntity
  8
POCKET-KERF-15.5
100
AcDbPolyline
 90
4
 70
1
 10
664.6337050154318
 20
103.03965935997545
 10
670.3907581693248
 20
101.34958865635102
 10
801.293843979207
 20
547.2575742808237
 10
795.536790825314
 20
548.9476449844483
  0
LWPOLYLINE
  5
4F
330
17
100
AcDbEntity
  8
POCKET-KERF-15.5
100
AcDbPolyline
 90
4
 70
1
 10
743.039119464333
 20
412.7169572849477
 10
748.8273001129323
 20
411.1367785674665
 10
787.1020454703392
 20
551.3368318633077
 10
781.3138648217399
 20
552.9170105807889
  0
LWPOLYLINE
  5
50
330
17
100
AcDbEntity
  8
POCKET-KERF-15.5
100
AcDbPolyline
 90
4
 70
1
 10
653.1824166373549
 20
106.04748195008327
 10
658.9996273418294
 20
104.57776782150327
 10
772.8351694152536
 20
555.1452088101684
 10
767.0179587107791
 20
556.6149229387485
  0
LWPOLYLINE
  5
51
330
17
100
AcDbEntity
  8
POCKET-KERF-15.5
100
AcDbPolyline
 90
4
 70
1
 10
719.7437058922549
 20
418.48472786955034
 10
725.5878386942734
 20
417.12601090403786
 10
758.4983856422004
 20
558.6813250957675
 10
752.6542528401819
 20
560.04004206128
  0
LWPOLYLINE
  5
52
330
17
100
AcDbEntity
  8
POCKET-KERF-15.5
100
AcDbPolyline
 90
4
 70
1
 10
641.624939279932
 20
108.6172522480093
 10
647.4938764655155
 20
107.37002479815268
 10
744.0968893115981
 20
561.9438993524259
 10
738.2279521260147
 20
563.1911268022825
  0
LWPOLYLINE
  5
53
330
17
100
AcDbEntity
  8
POCKET-KERF-15.5
100
AcDbPolyline
 90
4
 70
1
 10
696.2456339360955
 20
423.3616208716498
 10
702.137248803004
 20
422.22633489004755
 10
729.635899033484
 20
564.9317493347447
 10
723.7442841665754
 20
566.067035316347
  0
LWPOLYLINE
  5
54
330
17
100
AcDbEntity
  8
POCKET-KERF-15.5
100
AcDbPolyline
 90
4
 70
1
 10
629.9780235646342
 20
110.74524580349531
 10
635.8901811930112
 20
109.72231267898381
 10
715.120654976468
 20
567.6437923480133
 10
709.208497348091
 20
568.666725472525
  0
LWPOLYLINE
  5
55
330
17
100
AcDbEntity
  8
POCKET-KERF-15.5
100
AcDbPolyline
 90
4
 70
1
 10
672.578960102864
 20
427.3405680542855
 10
678.5095181288584
 20
426.43035846286597
 10
700.5564169688755
 20
570.0790456405394
 10
694.625858942881
 20
570.989255231959
  0
LWPOLYLINE
  5
56
330
17
100
AcDbEntity
  8
POCKET-KERF-15.5
100
AcDbPolyline
 90
4
 70
1
 10
618.2585497388037
 20
112.42837844744142
 10
624.2053591308894
 20
111.63122221795933
 10
685.9484625927652
 20
572.2366267597653
 10
680.0016532006795
 20
573.0337829892472
  0
LWPOLYLINE
  5
57
330
17
100
AcDbEntity
  8
POCKET-KERF-15.5
100
AcDbPolyline
 90
4
 70
1
 10
648.7779852596606
 20
430.4158026020835
 10
654.7388910973714
 20
429.7319885967102
 10
671.3020852715134
 20
574.1157538720372
 10
665.3411794338026
 20
574.7995678774105
  0
LWPOLYLINE
  5
58
330
17
100
AcDbEntity
  8
POCKET-KERF-15.5
100
AcDbPolyline
 90
4
 70
1
 10
606.4835032105726
 20
113.66421076189043
 10
612.4563454653728
 20
113.0939867714494
 10
656.6225923516582
 20
575.7157460459177
 10
650.6497500968582
 20
576.2859700363588
  0
LWPOLYLINE
  5
59
330
17
100
AcDbEntity
  8
POCKET-KERF-15.5
100
AcDbPolyline
 90
4
 70
1
 10
624.8772049203335
 20
432.58286747928645
 10
630.8598192383372
 20
432.1264401334619
 10
641.915303179699
 20
577.0360234989292
 10
635.9326888616952
 20
577.4924508447538
  0
LWPOLYLINE
  5
5A
330
17
100
AcDbEntity
  8
POCKET-KERF-15.5
100
AcDbPolyline
 90
4
 70
1
 10
594.6699499313673
 20
114.4509516155548
 10
600.6601684176276
 20
114.10848630801638
 10
627.1855471745469
 20
578.076107807649
 10
621.1953286882867
 20
578.4185731151875
  0
LWPOLYLINE
  5
5B
330
17
100
AcDbEntity
  8
POCKET-KERF-15.5
100
AcDbPolyline
 90
4
 70
1
 10
600.9112592500276
 20
433.8386218894787
 10
606.9069112541061
 20
433.6102427179488
 10
612.4386618963255
 20
578.835622081073
 10
606.4430098922469
 20
579.0640012526029
  0
LWPOLYLINE
  5
5C
330
17
100
AcDbEntity
  8
POCKET-KERF-15.5
100
AcDbPolyline
 90
4
 70
1
 10
582.8350116616801
 20
114.78746075976026
 10
588.833924564218
 20
114.67325048104452
 10
597.6799911122215
 20
579.3142910971881
 10
591.6810782096835
 20
579.4285013759038
  0
LWPOLYLINE
  5
5D
330
17
100
AcDbEntity
  8
POCKET-KERF-15.5
100
AcDbPolyline
 90
4
 70
1
 10
576.9148828600855
 20
434.1812458276424
 10
582.9148828600855
 20
434.1812458276424
 10
582.9148828600855
 20
579.5119414027033
 10
576.9148828600855
 20
579.5119414027033
  0
LWPOLYLINE
  5
5E
330
17
100
AcDbEntity
  8
POCKET-KERF-15.5
100
AcDbPolyline
 90
4
 70
1
 10
570.995841155953
 20
114.67325048104452
 10
576.9947540584909
 20
114.78746075976026
 10
568.1486875104875
 20
579.4285013759038
 10
562.1497746079497
 20
579.3142910971881
  0
LWPOLYLINE
  5
5F
330
17
100
AcDbEntity
  8
POCKET-KERF-15.5
100
AcDbPolyline
 90
4
 70
1
 10
552.9228544660648
 20
433.6102427179488
 10
558.9185064701434
 20
433.8386218894787
 10
553.386755827924
 20
579.0640012526029
 10
547.3911038238455
 20
578.835622081073
  0
LWPOLYLINE
  5
60
330
17
100
AcDbEntity
  8
POCKET-KERF-15.5
100
AcDbPolyline
 90
4
 70
1
 10
559.1695973025435
 20
114.10848630801638
 10
565.1598157888036
 20
114.4509516155548
 10
538.6344370318842
 20
578.4185731151875
 10
532.6442185456241
 20
578.076107807649
  0
LWPOLYLINE
  5
61
330
17
100
AcDbEntity
  8
POCKET-KERF-15.5
100
AcDbPolyline
 90
4
 70
1
 10
528.9699464818339
 20
432.1264401334619
 10
534.9525607998377
 20
432.58286747928645
 10
523.897076858476
 20
577.4924508447538
 10
517.9144625404722
 20
577.0360234989292
  0
LWPOLYLINE
  5
62
330
17
100
AcDbEntity
  8
POCKET-KERF-15.5
100
AcDbPolyline
 90
4
 70
1
 10
547.3734202547984
 20
113.0939867714494
 10
553.3462625095984
 20
113.66421076189043
 10
509.180015623313
 20
576.2859700363588
 10
503.20717336851294
 20
575.7157460459177
  0
LWPOLYLINE
  5
63
330
17
100
AcDbEntity
  8
POCKET-KERF-15.5
100
AcDbPolyline
 90
4
 70
1
 10
505.0908746227997
 20
429.7319885967102
 10
511.0517804605106
 20
430.4158026020835
 10
494.4885862863686
 20
574.7995678774105
 10
488.5276804486578
 20
574.1157538720372
  0
LWPOLYLINE
  5
64
330
17
100
AcDbEntity
  8
POCKET-KERF-15.5
100
AcDbPolyline
 90
4
 70
1
 10
535.6244065892818
 20
111.63122221795933
 10
541.5712159813673
 20
112.42837844744142
 10
479.8281125194916
 20
573.0337829892472
 10
473.88130312740594
 20
572.2366267597653
  0
LWPOLYLINE
  5
65
330
17
100
AcDbEntity
  8
POCKET-KERF-15.5
100
AcDbPolyline
 90
4
 70
1
 10
481.3202475913127
 20
426.43035846286597
 10
487.25080561730715
 20
427.3405680542855
 10
465.2039067772901
 20
570.989255231959
 10
459.2733487512956
 20
570.0790456405394
  0
LWPOLYLINE
  5
66
330
17
100
AcDbEntity
  8
POCKET-KERF-15.5
100
AcDbPolyline
 90
4
 70
1
 10
523.9395845271598
 20
109.72231267898381
 10
529.8517421555368
 20
110.74524580349531
 10
450.62126837208024
 20
568.666725472525
 10
444.7091107437032
 20
567.6437923480133
  0
LWPOLYLINE
  5
67
330
17
100
AcDbEntity
  8
POCKET-KERF-15.5
100
AcDbPolyline
 90
4
 70
1
 10
457.69251691716715
 20
422.22633489004755
 10
463.5841317840756
 20
423.3616208716498
 10
436.0854815535957
 20
566.067035316347
 10
430.19386668668716
 20
564.9317493347447
  0
LWPOLYLINE
  5
68
330
17
100
AcDbEntity
  8
POCKET-KERF-15.5
100
AcDbPolyline
 90
4
 70
1
 10
512.3358892546556
 20
107.37002479815268
 10
518.204826440239
 20
108.6172522480093
 10
421.60181359415645
 20
563.1911268022825
 10
415.732876408573
 20
561.9438993524259
  0
LWPOLYLINE
  5
69
330
17
100
AcDbEntity
  8
POCKET-KERF-15.5
100
AcDbPolyline
 90
4
 70
1
 10
434.2419270258978
 20
417.12601090403786
 10
440.0860598279163
 20
418.48472786955034
 10
407.1755128799892
 20
560.04004206128
 10
401.33138007797066
 20
558.6813250957675
  0
LWPOLYLINE
  5
6A
330
17
100
AcDbEntity
  8
POCKET-KERF-15.5
100
AcDbPolyline
 90
4
 70
1
 10
500.8301383783417
 20
104.57776782150327
 10
506.6473490828161
 20
106.04748195008327
 10
392.811807009392
 20
556.6149229387485
 10
386.9945963049176
 20
555.1452088101684
  0
LWPOLYLINE
  5
6B
330
17
100
AcDbEntity
  8
POCKET-KERF-15.5
100
AcDbPolyline
 90
4
 70
1
 10
411.0024656072388
 20
411.1367785674665
 10
416.7906462558381
 20
412.7169572849477
 10
378.5159008984312
 20
552.9170105807889
 10
372.72772024983186
 20
551.3368318633077
  0
LWPOLYLINE
  5
6C
330
17
100
AcDbEntity
  8
POCKET-KERF-15.5
100
AcDbPolyline
 90
4
 70
1
 10
489.43900755084616
 20
101.34958865635102
 10
495.19606070473924
 20
103.03965935997545
 10
364.2929748948572
 20
548.9476449844483
 10
358.53592174096406
 20
547.2575742808237
  0
LWPOLYLINE
  5
6D
330
17
100
AcDbEntity
  8
POCKET-KERF-15.5
100
AcDbPolyline
 90
4
 70
1
 10
388.0078143556785
 20
404.26731826625763
 10
393.7316538555744
 20
406.06666853216797
 10
350.1481829009237
 20
544.7082645121485
 10
344.4243434010278
 20
542.9089142462382
  0
LWPOLYLINE
  5
6E
330
17
100
AcDbEntity
  8
POCKET-KERF-15.5
100
AcDbPolyline
 90
4
 70
1
 10
478.17900630229497
 20
97.69016600597705
 10
483.86755802439575
 20
99.5981438111372
 10
336.08665050579054
 20
540.2004053704734
 10
330.3980987836897
 20
538.2924275653133
  0
LWPOLYLINE
  5
6F
330
17
100
AcDbEntity
  8
POCKET-KERF-15.5
100
AcDbPolyline
 90
4
 70
1
 10
365.2913001545023
 20
396.52758612886856
 10
370.94250276209465
 20
398.5435000873354
 10
322.1134731281845
 20
535.425701053501
 10
316.46227052059214
 20
533.4097870950342
  0
LWPOLYLINE
  5
70
330
17
100
AcDbEntity
  8
POCKET-KERF-15.5
100
AcDbPolyline
 90
4
 70
1
 10
467.06645411252293
 20
93.60480358863434
 10
472.67825980293605
 20
95.7279232020919
 10
308.23371416999373
 20
530.3858817508795
 10
302.6219084795807
 20
528.2627621374221
  0
LWPOLYLINE
  5
71
330
17
100
AcDbEntity
  8
POCKET-KERF-15.5
100
AcDbPolyline
 90
4
 70
1
 10
342.88584677407573
 20
387.9287995965547
 10
348.4562220207348
 20
390.15835551902165
 10
294.452403181464
 20
525.0827737208664
 10
288.8820279348049
 20
522.8532177983994
  0
LWPOLYLINE
  5
72
330
17
100
AcDbEntity
  8
POCKET-KERF-15.5
100
AcDbPolyline
 90
4
 70
1
 10
456.1174567587293
 20
89.09942245069892
 10
461.6443830480366
 20
91.43460676731372
 10
280.7745340386622
 20
519.5182986285555
 10
275.24760774935487
 20
517.1831143119406
  0
LWPOLYLINE
  5
73
330
17
100
AcDbEntity
  8
POCKET-KERF-15.5
100
AcDbPolyline
 90
4
 70
1
 10
320.8239271543708
 20
378.4834211655735
 10
326.3054017171455
 20
380.92338768535484
 10
267.20506313386556
 20
513.6944728495303
 10
261.7235885710909
 20
511.2545063297489
  0
LWPOLYLINE
  5
74
330
17
100
AcDbEntity
  8
POCKET-KERF-15.5
100
AcDbPolyline
 90
4
 70
1
 10
445.34788297286025
 20
84.18055238510826
 10
450.7819195100738
 20
86.72441694758558
 10
253.7489075795353
 20
507.6134067391988
 10
248.3148710423218
 20
505.06954217672137
  0
LWPOLYLINE
  5
75
330
17
100
AcDbEntity
  8
POCKET-KERF-15.5
100
AcDbPolyline
 90
4
 70
1
 10
299.1375163408959
 20
368.20514032488944
 10
304.5221457434387
 20
370.851981120493
 10
240.4109434265219
 20
501.277303868073
 10
235.02631402397907
 20
498.6304630724694
  0
LWPOLYLINE
  5
76
330
17
100
AcDbEntity
  8
POCKET-KERF-15.5
100
AcDbPolyline
 90
4
 70
1
 10
434.77334144254775
 20
78.85532246752335
 10
440.1066125047674
 20
81.60418037161581
 10
227.19600389715234
 20
494.68846022326954
 10
221.8627328349328
 20
491.9396023191772
  0
LWPOLYLINE
  5
77
330
17
100
AcDbEntity
  8
POCKET-KERF-15.5
100
AcDbPolyline
 90
4
 70
1
 10
277.8580451422403
 20
357.108853715561
 10
283.13802526899104
 20
359.9587326359919
 10
214.10887763383462
 20
487.8492633765235
 10
208.8288975070839
 20
484.99938445609257
  0
LWPOLYLINE
  5
78
330
17
100
AcDbEntity
  8
POCKET-KERF-15.5
100
AcDbPolyline
 90
4
 70
1
 10
424.40915818894035
 20
73.13145072393183
 10
429.6339340958904
 20
76.08131796198745
 10
201.15430696381821
 20
480.7621916190132
 10
195.92953105686814
 20
477.8123243809575
  0
LWPOLYLINE
  5
79
330
17
100
AcDbEntity
  8
POCKET-KERF-15.5
100
AcDbPolyline
 90
4
 70
1
 10
257.01635457639827
 20
345.21064354056165
 10
262.18403298333817
 20
348.25943016517925
 10
188.33698618073498
 20
473.42981306331217
 10
183.16930777379508
 20
470.38102643869456
  0
LWPOLYLINE
  5
7A
330
17
100
AcDbEntity
  8
POCKET-KERF-15.5
100
AcDbPolyline
 90
4
 70
1
 10
414.27035435420976
 20
67.01723294466544
 10
419.3790626711125
 20
70.1638341797777
 10
175.66155984355012
 20
465.8547847127935
 10
170.55285152664752
 20
462.70818347768125
  0
LWPOLYLINE
  5
7B
330
17
100
AcDbEntity
  8
POCKET-KERF-15.5
100
AcDbPolyline
 90
4
 70
1
 10
236.642651171895
 20
332.52775425632916
 10
241.69053817747846
 20
335.7710298811971
 10
163.13262109353124
 20
458.0398514988226
 10
158.0847340879478
 20
454.7965758739547
  0
LWPOLYLINE
  5
7C
330
17
100
AcDbEntity
  8
POCKET-KERF-15.5
100
AcDbPolyline
 90
4
 70
1
 10
404.37162443093007
 20
60.52153066104682
 10
409.3568609434767
 20
63.86030542343672
 10
150.75470998985054
 20
449.9878452860867
 10
145.7694734773039
 20
446.6490705236968
  0
LWPOLYLINE
  5
7D
330
17
100
AcDbEntity
  8
POCKET-KERF-15.5
100
AcDbPolyline
 90
4
 70
1
 10
216.76646318849953
 20
319.0785675798234
 10
221.68724272868917
 20
322.5116316218785
 10
138.53231186442375
 20
441.70168384642574
 10
133.6115323242341
 20
438.26861980437064
  0
LWPOLYLINE
  5
7E
330
17
100
AcDbEntity
  8
POCKET-KERF-15.5
100
AcDbPolyline
 90
4
 70
1
 10
394.727314964879
 20
53.65375830208776
 10
399.58185441039495
 20
57.17986759873886
 10
126.46985569657866
 20
433.1843698015301
 10
121.61531625106264
 20
429.65826050487897
  0
LWPOLYLINE
  5
7F
330
17
100
AcDbEntity
  8
POCKET-KERF-15.5
100
AcDbPolyline
 90
4
 70
1
 10
197.41659782097383
 20
304.88257584731645
 10
202.20313805264595
 20
308.5004526570744
 10
114.57171250814422
 20
424.43898953489384
 10
109.7851722764721
 20
420.8211127251359
  0
LWPOLYLINE
  5
80
330
17
100
AcDbEntity
  8
POCKET-KERF-15.5
100
AcDbPolyline
 90
4
 70
1
 10
385.35140376213127
 20
46.42386954985707
 10
390.06821030138
 20
50.13220287782261
 10
102.84219377954174
 20
415.46871207341485
 10
98.125387240293
 20
411.76037874544943
  0
LWPOLYLINE
  5
81
330
17
100
AcDbEntity
  8
POCKET-KERF-15.5
100
AcDbPolyline
 90
4
 70
1
 10
178.62109944788426
 20
289.9603537635264
 10
183.2664630852371
 20
293.75779983644964
 10
91.28554988745151
 20
406.2767879390472
 10
86.64018625009868
 20
402.4793418661239
  0
LWPOLYLINE
  5
82
330
17
100
AcDbEntity
  8
POCKET-KERF-15.5
100
AcDbPolyline
 90
4
 70
1
 10
376.25747963057637
 20
38.84234291329042
 10
380.82971704502637
 20
42.72752566650857
 10
79.90596856462213
 20
396.86654797092336
 10
75.33373115017213
 20
392.98136521770533
  0
LWPOLYLINE
  5
83
330
17
100
AcDbEntity
  8
POCKET-KERF-15.5
100
AcDbPolyline
 90
4
 70
1
 10
160.40720898598653
 20
274.33352858203955
 10
164.90466335497052
 20
278.3050401581156
 10
68.70757338237914
 20
387.241402118373
 10
64.21011901339514
 20
383.2698905422968
  0
LWPOLYLINE
  5
84
330
17
100
AcDbEntity
  8
POCKET-KERF-15.5
100
AcDbPolyline
 90
4
 70
1
 10
367.45872268522595
 20
30.920166541352625
 10
371.8797642850005
 20
34.97656780023506
 10
57.69442225638276
 20
377.4048382052717
 10
53.27338065660823
 20
373.3484369463892
  0
LWPOLYLINE
  5
85
330
17
100
AcDbEntity
  8
POCKET-KERF-15.5
100
AcDbPolyline
 90
4
 70
1
 10
142.80132440909426
 20
258.02474876024036
 10
147.14435120529174
 20
262.16456980075776
 10
46.87050597617955
 20
367.3604206661752
 10
42.52747917998219
 20
363.22059962565766
  0
LWPOLYLINE
  5
86
330
17
100
AcDbEntity
  8
POCKET-KERF-15.5
100
AcDbPolyline
 90
4
 70
1
 10
358.9678852458504
 20
22.66882229756158
 10
363.23132347400144
 20
26.89056299006518
 10
36.239746759075715
 20
357.11178925468795
 10
31.976308530924697
 20
352.8900485621844
  0
LWPOLYLINE
  5
87
330
17
100
AcDbEntity
  8
CUT
100
AcDbPolyline
 90
4
 70
1
 10
804.6808360041198
 20
566.0
 10
1141.829765720171
 20
887.2951901154468
 42
0.4283865023507377
 10
18.0
 20
887.2951901154468
 10
355.14892971605127
 20
566.0
 42
-0.4283865023507377
  0
LWPOLYLINE
  5
88
330
17
100
AcDbEntity
  8
POCKET-KERF-15.5
100
AcDbPolyline
 90
4
 70
1
 10
796.5984422461696
 20
574.8905629900652
 10
800.8618804743206
 20
570.6688222975616
 10
1127.8534571892465
 20
900.8900485621845
 10
1123.5900189610957
 20
905.111789254688
  0
LWPOLYLINE
  5
89
330
17
100
AcDbEntity
  8
POCKET-KERF-15.5
100
AcDbPolyline
 90
4
 70
1
 10
1012.6854145148793
 20
810.1645698007576
 10
1017.0284413110769
 20
806.0247487602403
 10
1117.3022865401888
 20
911.2205996256574
 10
1112.9592597439917
 20
915.360420666175
  0
LWPOLYLINE
  5
8A
330
17
100
AcDbEntity
  8
POCKET-KERF-15.5
100
AcDbPolyline
 90
4
 70
1
 10
787.9500014351705
 20
582.976567800235
 10
792.3710430349452
 20
578.9201665413526
 10
1106.5563850635629
 20
921.3484369463893
 10
1102.1353434637883
 20
925.4048382052717
  0
LWPOLYLINE
  5
8B
330
17
100
AcDbEntity
  8
POCKET-KERF-15.5
100
AcDbPolyline
 90
4
 70
1
 10
994.9251023652007
 20
826.3050401581154
 10
999.4225567341848
 20
822.3335285820394
 10
1095.6196467067762
 20
931.2698905422967
 10
1091.122192337792
 20
935.2414021183729
  0
LWPOLYLINE
  5
8C
330
17
100
AcDbEntity
  8
POCKET-KERF-15.5
100
AcDbPolyline
 90
4
 70
1
 10
779.0000486751447
 20
590.7275256665085
 10
783.5722860895947
 20
586.8423429132904
 10
1084.496034569999
 20
940.9813652177053
 10
1079.923797155549
 20
944.8665479709233
  0
LWPOLYLINE
  5
8D
330
17
100
AcDbEntity
  8
POCKET-KERF-15.5
100
AcDbPolyline
 90
4
 70
1
 10
976.563302634934
 20
841.7577998364495
 10
981.2086662722868
 20
837.9603537635264
 10
1073.1895794700724
 20
950.4793418661237
 10
1068.5442158327198
 20
954.276787939047
  0
LWPOLYLINE
  5
8E
330
17
100
AcDbEntity
  8
POCKET-KERF-15.5
100
AcDbPolyline
 90
4
 70
1
 10
769.7615554187911
 20
598.1322028778225
 10
774.47836195804
 20
594.423869549857
 10
1061.7043784798782
 20
959.7603787454493
 10
1056.9875719406296
 20
963.4687120734147
  0
LWPOLYLINE
  5
8F
330
17
100
AcDbEntity
  8
POCKET-KERF-15.5
100
AcDbPolyline
 90
4
 70
1
 10
957.6266276675251
 20
856.5004526570744
 10
962.4131678991972
 20
852.8825758473165
 10
1050.044593443699
 20
968.8211127251359
 10
1045.2580532120269
 20
972.4389895348938
  0
LWPOLYLINE
  5
90
330
17
100
AcDbEntity
  8
POCKET-KERF-15.5
100
AcDbPolyline
 90
4
 70
1
 10
760.2479113097761
 20
605.1798675987388
 10
765.102450755292
 20
601.6537583020878
 10
1038.2144494691083
 20
977.6582605048789
 10
1033.3599100235924
 20
981.18436980153
  0
LWPOLYLINE
  5
91
330
17
100
AcDbEntity
  8
POCKET-KERF-15.5
100
AcDbPolyline
 90
4
 70
1
 10
938.142522991482
 20
870.5116316218785
 10
943.0633025316716
 20
867.0785675798234
 10
1026.218233395937
 20
986.2686198043706
 10
1021.2974538557474
 20
989.7016838464257
  0
LWPOLYLINE
  5
92
330
17
100
AcDbEntity
  8
POCKET-KERF-15.5
100
AcDbPolyline
 90
4
 70
1
 10
750.4729047766945
 20
611.8603054234367
 10
755.4581412892411
 20
608.5215306610468
 10
1014.0602922428674
 20
994.6490705236968
 10
1009.0750557303207
 20
997.9878452860867
  0
LWPOLYLINE
  5
93
330
17
100
AcDbEntity
  8
POCKET-KERF-15.5
100
AcDbPolyline
 90
4
 70
1
 10
918.1392275426927
 20
883.7710298811969
 10
923.1871145482762
 20
880.527754256329
 10
1001.7450316322235
 20
1002.7965758739546
 10
996.69714462664
 20
1006.0398514988225
  0
LWPOLYLINE
  5
94
330
17
100
AcDbEntity
  8
POCKET-KERF-15.5
100
AcDbPolyline
 90
4
 70
1
 10
740.4507030490587
 20
618.1638341797776
 10
745.5594113659613
 20
615.0172329446654
 10
989.2769141935236
 20
1010.7081834776811
 10
984.1682058766211
 20
1013.8547847127934
  0
LWPOLYLINE
  5
95
330
17
100
AcDbEntity
  8
POCKET-KERF-15.5
100
AcDbPolyline
 90
4
 70
1
 10
897.645732736833
 20
896.2594301651793
 10
902.8134111437729
 20
893.2106435405617
 10
976.660457946376
 20
1018.3810264386944
 10
971.4927795394361
 20
1021.429813063312
  0
LWPOLYLINE
  5
96
330
17
100
AcDbEntity
  8
POCKET-KERF-15.5
100
AcDbPolyline
 90
4
 70
1
 10
730.1958316242806
 20
624.0813179619875
 10
735.4206075312306
 20
621.1314507239318
 10
963.900234663303
 20
1025.8123243809575
 10
958.6754587563529
 20
1028.7621916190133
  0
LWPOLYLINE
  5
97
330
17
100
AcDbEntity
  8
POCKET-KERF-15.5
100
AcDbPolyline
 90
4
 70
1
 10
876.6917404511801
 20
907.958732635992
 10
881.9717205779307
 20
905.108853715561
 10
951.0008682130871
 20
1032.9993844560925
 10
945.7208880863363
 20
1035.8492633765234
  0
LWPOLYLINE
  5
98
330
17
100
AcDbEntity
  8
POCKET-KERF-15.5
100
AcDbPolyline
 90
4
 70
1
 10
719.7231532154037
 20
629.6041803716157
 10
725.0564242776234
 20
626.8553224675233
 10
937.9670328852383
 20
1039.939602319177
 10
932.6337618230189
 20
1042.6884602232694
  0
LWPOLYLINE
  5
99
330
17
100
AcDbEntity
  8
POCKET-KERF-15.5
100
AcDbPolyline
 90
4
 70
1
 10
855.3076199767324
 20
918.8519811204928
 10
860.6922493792752
 20
916.2051403248893
 10
924.803451696192
 20
1046.6304630724694
 10
919.4188222936493
 20
1049.277303868073
  0
LWPOLYLINE
  5
9A
330
17
100
AcDbEntity
  8
POCKET-KERF-15.5
100
AcDbPolyline
 90
4
 70
1
 10
709.0478462100972
 20
634.7244169475855
 10
714.4818827473108
 20
632.1805523851083
 10
911.5148946778494
 20
1053.0695421767214
 10
906.0808581406359
 20
1055.6134067391988
  0
LWPOLYLINE
  5
9B
330
17
100
AcDbEntity
  8
POCKET-KERF-15.5
100
AcDbPolyline
 90
4
 70
1
 10
833.5243640030257
 20
928.9233876853548
 10
839.0058385658003
 20
926.4834211655734
 10
898.1061771490803
 20
1059.2545063297487
 10
892.6247025863055
 20
1061.69447284953
  0
LWPOLYLINE
  5
9C
330
17
100
AcDbEntity
  8
POCKET-KERF-15.5
100
AcDbPolyline
 90
4
 70
1
 10
698.1853826721344
 20
639.4346067673138
 10
703.7123089614417
 20
637.0994224506989
 10
884.5821579708164
 20
1065.1831143119405
 10
879.0552316815091
 20
1067.5182986285554
  0
LWPOLYLINE
  5
9D
330
17
100
AcDbEntity
  8
POCKET-KERF-15.5
100
AcDbPolyline
 90
4
 70
1
 10
811.3735436994364
 20
938.1583555190216
 10
816.9439189460954
 20
935.9287995965547
 10
870.9477377853663
 20
1070.8532177983996
 10
865.3773625387072
 20
1073.0827737208665
  0
LWPOLYLINE
  5
9E
330
17
100
AcDbEntity
  8
POCKET-KERF-15.5
100
AcDbPolyline
 90
4
 70
1
 10
687.1515059172351
 20
643.7279232020918
 10
692.7633116076481
 20
641.6048035886344
 10
857.2078572405904
 20
1076.262762137422
 10
851.5960515501773
 20
1078.3858817508794
  0
LWPOLYLINE
  5
9F
330
17
100
AcDbEntity
  8
POCKET-KERF-15.5
100
AcDbPolyline
 90
4
 70
1
 10
788.8872629580765
 20
946.5435000873354
 10
794.5384655656688
 20
944.5275861288685
 10
843.3674951995789
 20
1081.4097870950343
 10
837.7162925919866
 20
1083.4257010535011
  0
LWPOLYLINE
  5
A0
330
17
100
AcDbEntity
  8
POCKET-KERF-15.5
100
AcDbPolyline
 90
4
 70
1
 10
675.9622076957754
 20
647.5981438111372
 10
681.6507594178762
 20
645.6901660059771
 10
829.4316669364814
 20
1086.2924275653133
 10
823.7431152143805
 20
1088.2004053704734
  0
LWPOLYLINE
  5
A1
330
17
100
AcDbEntity
  8
POCKET-KERF-15.5
100
AcDbPolyline
 90
4
 70
1
 10
766.0981118645968
 20
954.066668532168
 10
771.8219513644926
 20
952.2673182662577
 10
815.4054223191434
 20
1090.908914246238
 10
809.6815828192475
 20
1092.7082645121484
  0
LWPOLYLINE
  5
A2
330
17
100
AcDbEntity
  8
POCKET-KERF-15.5
100
AcDbPolyline
 90
4
 70
1
 10
664.6337050154318
 20
651.0396593599754
 10
670.3907581693248
 20
649.349588656351
 10
801.293843979207
 20
1095.2575742808237
 10
795.536790825314
 20
1096.9476449844483
  0
LWPOLYLINE
  5
A3
330
17
100
AcDbEntity
  8
POCKET-KERF-15.5
100
AcDbPolyline
 90
4
 70
1
 10
743.039119464333
 20
960.7169572849477
 10
748.8273001129323
 20
959.1367785674665
 10
787.1020454703392
 20
1099.3368318633077
 10
781.3138648217399
 20
1100.9170105807889
  0
LWPOLYLINE
  5
A4
330
17
100
AcDbEntity
  8
POCKET-KERF-15.5
100
AcDbPolyline
 90
4
 70
1
 10
653.1824166373549
 20
654.0474819500832
 10
658.9996273418294
 20
652.5777678215032
 10
772.8351694152536
 20
1103.1452088101682
 10
767.0179587107791
 20
1104.6149229387484
  0
LWPOLYLINE
  5
A5
330
17
100
AcDbEntity
  8
POCKET-KERF-15.5
100
AcDbPolyline
 90
4
 70
1
 10
719.7437058922549
 20
966.4847278695504
 10
725.5878386942734
 20
965.1260109040379
 10
758.4983856422004
 20
1106.6813250957675
 10
752.6542528401819
 20
1108.04004206128
  0
LWPOLYLINE
  5
A6
330
17
100
AcDbEntity
  8
POCKET-KERF-15.5
100
AcDbPolyline
 90
4
 70
1
 10
641.624939279932
 20
656.6172522480092
 10
647.4938764655155
 20
655.3700247981526
 10
744.0968893115981
 20
1109.943899352426
 10
738.2279521260147
 20
1111.1911268022825
  0
LWPOLYLINE
  5
A7
330
17
100
AcDbEntity
  8
POCKET-KERF-15.5
100
AcDbPolyline
 90
4
 70
1
 10
696.2456339360955
 20
971.3616208716498
 10
702.137248803004
 20
970.2263348900476
 10
729.635899033484
 20
1112.9317493347448
 10
723.7442841665754
 20
1114.067035316347
  0
LWPOLYLINE
  5
A8
330
17
100
AcDbEntity
  8
POCKET-KERF-15.5
100
AcDbPolyline
 90
4
 70
1
 10
629.9780235646342
 20
658.7452458034953
 10
635.8901811930112
 20
657.7223126789837
 10
715.120654976468
 20
1115.6437923480132
 10
709.208497348091
 20
1116.6667254725248
  0
LWPOLYLINE
  5
A9
330
17
100
AcDbEntity
  8
POCKET-KERF-15.5
100
AcDbPolyline
 90
4
 70
1
 10
672.578960102864
 20
975.3405680542855
 10
678.5095181288584
 20
974.430358462866
 10
700.5564169688755
 20
1118.0790456405393
 10
694.625858942881
 20
1118.9892552319589
  0
LWPOLYLINE
  5
AA
330
17
100
AcDbEntity
  8
POCKET-KERF-15.5
100
AcDbPolyline
 90
4
 70
1
 10
618.2585497388037
 20
660.4283784474413
 10
624.2053591308894
 20
659.6312222179594
 10
685.9484625927652
 20
1120.2366267597652
 10
680.0016532006795
 20
1121.0337829892471
  0
LWPOLYLINE
  5
AB
330
17
100
AcDbEntity
  8
POCKET-KERF-15.5
100
AcDbPolyline
 90
4
 70
1
 10
648.7779852596606
 20
978.4158026020834
 10
654.7388910973714
 20
977.7319885967102
 10
671.3020852715134
 20
1122.1157538720372
 10
665.3411794338026
 20
1122.7995678774105
  0
LWPOLYLINE
  5
AC
330
17
100
AcDbEntity
  8
POCKET-KERF-15.5
100
AcDbPolyline
 90
4
 70
1
 10
606.4835032105726
 20
661.6642107618904
 10
612.4563454653728
 20
661.0939867714494
 10
656.6225923516582
 20
1123.7157460459177
 10
650.6497500968582
 20
1124.2859700363588
  0
LWPOLYLINE
  5
AD
330
17
100
AcDbEntity
  8
POCKET-KERF-15.5
100
AcDbPolyline
 90
4
 70
1
 10
624.8772049203335
 20
980.5828674792865
 10
630.8598192383372
 20
980.126440133462
 10
641.915303179699
 20
1125.0360234989294
 10
635.9326888616952
 20
1125.4924508447539
  0
LWPOLYLINE
  5
AE
330
17
100
AcDbEntity
  8
POCKET-KERF-15.5
100
AcDbPolyline
 90
4
 70
1
 10
594.6699499313673
 20
662.4509516155548
 10
600.6601684176276
 20
662.1084863080164
 10
627.1855471745469
 20
1126.0761078076491
 10
621.1953286882867
 20
1126.4185731151877
  0
LWPOLYLINE
  5
AF
330
17
100
AcDbEntity
  8
POCKET-KERF-15.5
100
AcDbPolyline
 90
4
 70
1
 10
600.9112592500276
 20
981.8386218894786
 10
606.9069112541061
 20
981.6102427179487
 10
612.4386618963255
 20
1126.835622081073
 10
606.4430098922469
 20
1127.064001252603
  0
LWPOLYLINE
  5
B0
330
17
100
AcDbEntity
  8
POCKET-KERF-15.5
100
AcDbPolyline
 90
4
 70
1
 10
582.8350116616801
 20
662.7874607597603
 10
588.833924564218
 20
662.6732504810445
 10
597.6799911122215
 20
1127.314291097188
 10
591.6810782096835
 20
1127.4285013759038
  0
LWPOLYLINE
  5
B1
330
17
100
AcDbEntity
  8
POCKET-KERF-15.5
100
AcDbPolyline
 90
4
 70
1
 10
576.9148828600855
 20
982.1812458276424
 10
582.9148828600855
 20
982.1812458276424
 10
582.9148828600855
 20
1127.5119414027033
 10
576.9148828600855
 20
1127.5119414027033
  0
LWPOLYLINE
  5
B2
330
17
100
AcDbEntity
  8
POCKET-KERF-15.5
100
AcDbPolyline
 90
4
 70
1
 10
570.995841155953
 20
662.6732504810445
 10
576.9947540584909
 20
662.7874607597603
 10
568.1486875104875
 20
1127.4285013759038
 10
562.1497746079497
 20
1127.314291097188
  0
LWPOLYLINE
  5
B3
330
17
100
AcDbEntity
  8
POCKET-KERF-15.5
100
AcDbPolyline
 90
4
 70
1
 10
552.9228544660648
 20
981.6102427179487
 10
558.9185064701434
 20
981.8386218894786
 10
553.386755827924
 20
1127.064001252603
 10
547.3911038238455
 20
1126.835622081073
  0
LWPOLYLINE
  5
B4
330
17
100
AcDbEntity
  8
POCKET-KERF-15.5
100
AcDbPolyline
 90
4
 70
1
 10
559.1695973025435
 20
662.1084863080164
 10
565.1598157888036
 20
662.4509516155548
 10
538.6344370318842
 20
1126.4185731151877
 10
532.6442185456241
 20
1126.0761078076491
  0
LWPOLYLINE
  5
B5
330
17
100
AcDbEntity
  8
POCKET-KERF-15.5
100
AcDbPolyline
 90
4
 70
1
 10
528.9699464818339
 20
980.126440133462
 10
534.9525607998377
 20
980.5828674792865
 10
523.897076858476
 20
1125.4924508447539
 10
517.9144625404722
 20
1125.0360234989294
  0
LWPOLYLINE
  5
B6
330
17
100
AcDbEntity
  8
POCKET-KERF-15.5
100
AcDbPolyline
 90
4
 70
1
 10
547.3734202547984
 20
661.0939867714494
 10
553.3462625095984
 20
661.6642107618904
 10
509.180015623313
 20
1124.2859700363588
 10
503.20717336851294
 20
1123.7157460459177
  0
LWPOLYLINE
  5
B7
330
17
100
AcDbEntity
  8
POCKET-KERF-15.5
100
AcDbPolyline
 90
4
 70
1
 10
505.0908746227997
 20
977.7319885967102
 10
511.0517804605106
 20
978.4158026020834
 10
494.4885862863686
 20
1122.7995678774105
 10
488.5276804486578
 20
1122.1157538720372
  0
LWPOLYLINE
  5
B8
330
17
100
AcDbEntity
  8
POCKET-KERF-15.5
100
AcDbPolyline
 90
4
 70
1
 10
535.6244065892818
 20
659.6312222179594
 10
541.5712159813673
 20
660.4283784474413
 10
479.8281125194916
 20
1121.0337829892471
 10
473.88130312740594
 20
1120.2366267597652
  0
LWPOLYLINE
  5
B9
330
17
100
AcDbEntity
  8
POCKET-KERF-15.5
100
AcDbPolyline
 90
4
 70
1
 10
481.3202475913127
 20
974.430358462866
 10
487.25080561730715
 20
975.3405680542855
 10
465.2039067772901
 20
1118.9892552319589
 10
459.2733487512956
 20
1118.0790456405393
  0
LWPOLYLINE
  5
BA
330
17
100
AcDbEntity
  8
POCKET-KERF-15.5
100
AcDbPolyline
 90
4
 70
1
 10
523.9395845271598
 20
657.7223126789837
 10
529.8517421555368
 20
658.7452458034953
 10
450.62126837208024
 20
1116.6667254725248
 10
444.7091107437032
 20
1115.6437923480132
  0
LWPOLYLINE
  5
BB
330
17
100
AcDbEntity
  8
POCKET-KERF-15.5
100
AcDbPolyline
 90
4
 70
1
 10
457.69251691716715
 20
970.2263348900476
 10
463.5841317840756
 20
971.3616208716498
 10
436.0854815535957
 20
1114.067035316347
 10
430.19386668668716
 20
1112.9317493347448
  0
LWPOLYLINE
  5
BC
330
17
100
AcDbEntity
  8
POCKET-KERF-15.5
100
AcDbPolyline
 90
4
 70
1
 10
512.3358892546556
 20
655.3700247981526
 10
518.204826440239
 20
656.6172522480092
 10
421.60181359415645
 20
1111.1911268022825
 10
415.732876408573
 20
1109.943899352426
  0
LWPOLYLINE
  5
BD
330
17
100
AcDbEntity
  8
POCKET-KERF-15.5
100
AcDbPolyline
 90
4
 70
1
 10
434.2419270258978
 20
965.1260109040379
 10
440.0860598279163
 20
966.4847278695504
 10
407.1755128799892
 20
1108.04004206128
 10
401.33138007797066
 20
1106.6813250957675
  0
LWPOLYLINE
  5
BE
330
17
100
AcDbEntity
  8
POCKET-KERF-15.5
100
AcDbPolyline
 90
4
 70
1
 10
500.8301383783417
 20
652.5777678215032
 10
506.6473490828161
 20
654.0474819500832
 10
392.811807009392
 20
1104.6149229387484
 10
386.9945963049176
 20
1103.1452088101682
  0
LWPOLYLINE
  5
BF
330
17
100
AcDbEntity
  8
POCKET-KERF-15.5
100
AcDbPolyline
 90
4
 70
1
 10
411.0024656072388
 20
959.1367785674665
 10
416.7906462558381
 20
960.7169572849477
 10
378.5159008984312
 20
1100.9170105807889
 10
372.72772024983186
 20
1099.3368318633077
  0
LWPOLYLINE
  5
C0
330
17
100
AcDbEntity
  8
POCKET-KERF-15.5
100
AcDbPolyline
 90
4
 70
1
 10
489.43900755084616
 20
649.349588656351
 10
495.19606070473924
 20
651.0396593599754
 10
364.2929748948572
 20
1096.9476449844483
 10
358.53592174096406
 20
1095.2575742808237
  0
LWPOLYLINE
  5
C1
330
17
100
AcDbEntity
  8
POCKET-KERF-15.5
100
AcDbPolyline
 90
4
 70
1
 10
388.0078143556785
 20
952.2673182662577
 10
393.7316538555744
 20
954.066668532168
 10
350.1481829009237
 20
1092.7082645121484
 10
344.4243434010278
 20
1090.908914246238
  0
LWPOLYLINE
  5
C2
330
17
100
AcDbEntity
  8
POCKET-KERF-15.5
100
AcDbPolyline
 90
4
 70
1
 10
478.17900630229497
 20
645.6901660059771
 10
483.86755802439575
 20
647.5981438111372
 10
336.08665050579054
 20
1088.2004053704734
 10
330.3980987836897
 20
1086.2924275653133
  0
LWPOLYLINE
  5
C3
330
17
100
AcDbEntity
  8
POCKET-KERF-15.5
100
AcDbPolyline
 90
4
 70
1
 10
365.2913001545023
 20
944.5275861288685
 10
370.94250276209465
 20
946.5435000873354
 10
322.1134731281845
 20
1083.4257010535011
 10
316.46227052059214
 20
1081.4097870950343
  0
LWPOLYLINE
  5
C4
330
17
100
AcDbEntity
  8
POCKET-KERF-15.5
100
AcDbPolyline
 90
4
 70
1
 10
467.066454112523
 20
641.6048035886344
 10
472.67825980293605
 20
643.7279232020918
 10
308.23371416999373
 20
1078.3858817508794
 10
302.6219084795807
 20
1076.262762137422
  0
LWPOLYLINE
  5
C5
330
17
100
AcDbEntity
  8
POCKET-KERF-15.5
100
AcDbPolyline
 90
4
 70
1
 10
342.88584677407573
 20
935.9287995965547
 10
348.4562220207348
 20
938.1583555190216
 10
294.452403181464
 20
1073.0827737208665
 10
288.8820279348049
 20
1070.8532177983996
  0
LWPOLYLINE
  5
C6
330
17
100
AcDbEntity
  8
POCKET-KERF-15.5
100
AcDbPolyline
 90
4
 70
1
 10
456.1174567587293
 20
637.0994224506989
 10
461.6443830480366
 20
639.4346067673138
 10
280.7745340386622
 20
1067.5182986285554
 10
275.24760774935487
 20
1065.1831143119405
  0
LWPOLYLINE
  5
C7
330
17
100
AcDbEntity
  8
POCKET-KERF-15.5
100
AcDbPolyline
 90
4
 70
1
 10
320.8239271543708
 20
926.4834211655734
 10
326.3054017171455
 20
928.9233876853548
 10
267.20506313386556
 20
1061.6944728495303
 10
261.7235885710909
 20
1059.254506329749
  0
LWPOLYLINE
  5
C8
330
17
100
AcDbEntity
  8
POCKET-KERF-15.5
100
AcDbPolyline
 90
4
 70
1
 10
445.34788297286025
 20
632.1805523851083
 10
450.7819195100738
 20
634.7244169475855
 10
253.7489075795353
 20
1055.6134067391988
 10
248.3148710423218
 20
1053.0695421767214
  0
LWPOLYLINE
  5
C9
330
17
100
AcDbEntity
  8
POCKET-KERF-15.5
100
AcDbPolyline
 90
4
 70
1
 10
299.1375163408959
 20
916.2051403248895
 10
304.5221457434387
 20
918.8519811204931
 10
240.4109434265219
 20
1049.277303868073
 10
235.02631402397907
 20
1046.6304630724694
  0
LWPOLYLINE
  5
CA
330
17
100
AcDbEntity
  8
POCKET-KERF-15.5
100
AcDbPolyline
 90
4
 70
1
 10
434.77334144254775
 20
626.8553224675233
 10
440.1066125047674
 20
629.6041803716158
 10
227.19600389715234
 20
1042.6884602232694
 10
221.8627328349328
 20
1039.939602319177
  0
LWPOLYLINE
  5
CB
330
17
100
AcDbEntity
  8
POCKET-KERF-15.5
100
AcDbPolyline
 90
4
 70
1
 10
277.8580451422403
 20
905.108853715561
 10
283.13802526899104
 20
907.958732635992
 10
214.10887763383462
 20
1035.8492633765234
 10
208.8288975070839
 20
1032.9993844560925
  0
LWPOLYLINE
  5
CC
330
17
100
AcDbEntity
  8
POCKET-KERF-15.5
100
AcDbPolyline
 90
4
 70
1
 10
424.40915818894035
 20
621.1314507239318
 10
429.6339340958904
 20
624.0813179619875
 10
201.15430696381821
 20
1028.7621916190133
 10
195.92953105686814
 20
1025.8123243809575
  0
LWPOLYLINE
  5
CD
330
17
100
AcDbEntity
  8
POCKET-KERF-15.5
100
AcDbPolyline
 90
4
 70
1
 10
257.01635457639827
 20
893.2106435405617
 10
262.18403298333817
 20
896.2594301651793
 10
188.33698618073498
 20
1021.429813063312
 10
183.16930777379508
 20
1018.3810264386944
  0
LWPOLYLINE
  5
CE
330
17
100
AcDbEntity
  8
POCKET-KERF-15.5
100
AcDbPolyline
 90
4
 70
1
 10
414.27035435420976
 20
615.0172329446655
 10
419.3790626711125
 20
618.1638341797777
 10
175.66155984355012
 20
1013.8547847127936
 10
170.55285152664752
 20
1010.7081834776814
  0
LWPOLYLINE
  5
CF
330
17
100
AcDbEntity
  8
POCKET-KERF-15.5
100
AcDbPolyline
 90
4
 70
1
 10
236.642651171895
 20
880.5277542563292
 10
241.69053817747846
 20
883.7710298811971
 10
163.13262109353124
 20
1006.0398514988225
 10
158.0847340879478
 20
1002.7965758739546
  0
LWPOLYLINE
  5
D0
330
17
100
AcDbEntity
  8
POCKET-KERF-15.5
100
AcDbPolyline
 90
4
 70
1
 10
404.37162443093007
 20
608.5215306610469
 10
409.3568609434767
 20
611.8603054234368
 10
150.75470998985054
 20
997.9878452860867
 10
145.7694734773039
 20
994.6490705236968
  0
LWPOLYLINE
  5
D1
330
17
100
AcDbEntity
  8
POCKET-KERF-15.5
100
AcDbPolyline
 90
4
 70
1
 10
216.76646318849953
 20
867.0785675798234
 10
221.68724272868917
 20
870.5116316218785
 10
138.53231186442375
 20
989.7016838464257
 10
133.6115323242341
 20
986.2686198043706
  0
LWPOLYLINE
  5
D2
330
17
100
AcDbEntity
  8
POCKET-KERF-15.5
100
AcDbPolyline
 90
4
 70
1
 10
394.727314964879
 20
601.6537583020878
 10
399.58185441039495
 20
605.1798675987388
 10
126.46985569657866
 20
981.18436980153
 10
121.61531625106264
 20
977.6582605048789
  0
LWPOLYLINE
  5
D3
330
17
100
AcDbEntity
  8
POCKET-KERF-15.5
100
AcDbPolyline
 90
4
 70
1
 10
197.41659782097383
 20
852.8825758473165
 10
202.20313805264595
 20
856.5004526570744
 10
114.57171250814422
 20
972.4389895348938
 10
109.7851722764721
 20
968.8211127251359
  0
LWPOLYLINE
  5
D4
330
17
100
AcDbEntity
  8
POCKET-KERF-15.5
100
AcDbPolyline
 90
4
 70
1
 10
385.35140376213127
 20
594.423869549857
 10
390.06821030138
 20
598.1322028778226
 10
102.84219377954174
 20
963.468712073415
 10
98.125387240293
 20
959.7603787454495
  0
LWPOLYLINE
  5
D5
330
17
100
AcDbEntity
  8
POCKET-KERF-15.5
100
AcDbPolyline
 90
4
 70
1
 10
178.62109944788426
 20
837.9603537635264
 10
183.2664630852371
 20
841.7577998364496
 10
91.28554988745151
 20
954.2767879390473
 10
86.64018625009868
 20
950.479341866124
  0
LWPOLYLINE
  5
D6
330
17
100
AcDbEntity
  8
POCKET-KERF-15.5
100
AcDbPolyline
 90
4
 70
1
 10
376.25747963057637
 20
586.8423429132904
 10
380.82971704502637
 20
590.7275256665085
 10
79.90596856462213
 20
944.8665479709233
 10
75.33373115017213
 20
940.9813652177053
  0
LWPOLYLINE
  5
D7
330
17
100
AcDbEntity
  8
POCKET-KERF-15.5
100
AcDbPolyline
 90
4
 70
1
 10
160.40720898598653
 20
822.3335285820395
 10
164.90466335497052
 20
826.3050401581156
 10
68.70757338237914
 20
935.2414021183731
 10
64.21011901339514
 20
931.2698905422969
  0
LWPOLYLINE
  5
D8
330
17
100
AcDbEntity
  8
POCKET-KERF-15.5
100
AcDbPolyline
 90
4
 70
1
 10
367.45872268522595
 20
578.9201665413526
 10
371.8797642850005
 20
582.9765678002351
 10
57.69442225638276
 20
925.4048382052717
 10
53.27338065660823
 20
921.3484369463893
  0
LWPOLYLINE
  5
D9
330
17
100
AcDbEntity
  8
POCKET-KERF-15.5
100
AcDbPolyline
 90
4
 70
1
 10
142.80132440909426
 20
806.0247487602403
 10
147.14435120529174
 20
810.1645698007578
 10
46.87050597617956
 20
915.3604206661752
 10
42.527479179982194
 20
911.2205996256577
  0
LWPOLYLINE
  5
DA
330
17
100
AcDbEntity
  8
POCKET-KERF-15.5
100
AcDbPolyline
 90
4
 70
1
 10
358.9678852458504
 20
570.6688222975616
 10
363.23132347400144
 20
574.8905629900652
 10
36.239746759075715
 20
905.111789254688
 10
31.976308530924697
 20
900.8900485621845
  0
LWPOLYLINE
  5
DB
330
17
100
AcDbEntity
  8
CUT
100
AcDbPolyline
 90
2
 70
1
 10
1302.1419807289758
 20
606.0709903644879
 42
1.0
 10
950.0
 20
606.0709903644879
 42
1.0
  0
LWPOLYLINE
  5
DC
330
17
100
AcDbEntity
  8
CUT
100
AcDbPolyline
 90
8
 70
1
 10
1013.1700067694936
 20
599.770990364488
 42
2.414213562373095
 10
1016.3700067694937
 20
596.5709903644879
 10
1050.9700067694937
 20
596.5709903644879
 42
2.414213562373095
 10
1054.1700067694937
 20
599.770990364488
 10
1054.1700067694937
 20
612.370990364488
 42
2.414213562373095
 10
1050.9700067694937
 20
615.5709903644879
 10
1016.3700067694937
 20
615.5709903644879
 42
2.414213562373095
 10
1013.1700067694936
 20
612.370990364488
  0
LWPOLYLINE
  5
DD
330
17
100
AcDbEntity
  8
CUT
100
AcDbPolyline
 90
8
 70
1
 10
1197.9719739594823
 20
599.770990364488
 42
2.414213562373095
 10
1201.1719739594823
 20
596.5709903644879
 10
1235.7719739594822
 20
596.5709903644879
 42
2.414213562373095
 10
1238.9719739594823
 20
599.770990364488
 10
1238.9719739594823
 20
612.370990364488
 42
2.414213562373095
 10
1235.7719739594822
 20
615.5709903644879
 10
1201.1719739594823
 20
615.5709903644879
 42
2.414213562373095
 10
1197.9719739594823
 20
612.370990364488
  0
LWPOLYLINE
  5
DE
330
17
100
AcDbEntity
  8
CUT
100
AcDbPolyline
 90
8
 70
1
 10
1132.3709903644879
 20
493.1700067694937
 42
2.414213562373095
 10
1135.570990364488
 20
496.37000676949367
 10
1135.570990364488
 20
530.9700067694937
 42
2.414213562373095
 10
1132.3709903644879
 20
534.1700067694936
 10
1119.770990364488
 20
534.1700067694936
 42
2.414213562373095
 10
1116.570990364488
 20
530.9700067694937
 10
1116.570990364488
 20
496.37000676949367
 42
2.414213562373095
 10
1119.770990364488
 20
493.1700067694937
  0
LWPOLYLINE
  5
DF
330
17
100
AcDbEntity
  8
CUT
100
AcDbPolyline
 90
8
 70
1
 10
1132.370990364488
 20
677.9719739594823
 42
2.414213562373095
 10
1135.570990364488
 20
681.1719739594822
 10
1135.570990364488
 20
715.7719739594822
 42
2.414213562373095
 10
1132.370990364488
 20
718.9719739594823
 10
1119.770990364488
 20
718.9719739594823
 42
2.414213562373095
 10
1116.570990364488
 20
715.7719739594822
 10
1116.570990364488
 20
681.1719739594822
 42
2.414213562373095
 10
1119.770990364488
 20
677.9719739594823
  0
LWPOLYLINE
  5
E0
330
17
100
AcDbEntity
  8
CUT
100
AcDbPolyline
 90
2
 70
1
 10
1446.1419807289758
 20
194.07099036448795
 42
1.0
 10
1094.0
 20
194.07099036448795
 42
1.0
  0
LWPOLYLINE
  5
E1
330
17
100
AcDbEntity
  8
CUT
100
AcDbPolyline
 90
8
 70
1
 10
1157.1700067694937
 20
187.77099036448794
 42
2.414213562373095
 10
1160.3700067694936
 20
184.57099036448795
 10
1194.9700067694937
 20
184.57099036448795
 42
2.414213562373095
 10
1198.1700067694937
 20
187.77099036448794
 10
1198.1700067694937
 20
200.37099036448797
 42
2.414213562373095
 10
1194.9700067694937
 20
203.57099036448795
 10
1160.3700067694936
 20
203.57099036448795
 42
2.414213562373095
 10
1157.1700067694937
 20
200.37099036448797
  0
LWPOLYLINE
  5
E2
330
17
100
AcDbEntity
  8
CUT
100
AcDbPolyline
 90
8
 70
1
 10
1341.9719739594823
 20
187.77099036448794
 42
2.414213562373095
 10
1345.1719739594823
 20
184.57099036448795
 10
1379.7719739594822
 20
184.57099036448795
 42
2.414213562373095
 10
1382.9719739594823
 20
187.77099036448794
 10
1382.9719739594823
 20
200.37099036448797
 42
2.414213562373095
 10
1379.7719739594822
 20
203.57099036448795
 10
1345.1719739594823
 20
203.57099036448795
 42
2.414213562373095
 10
1341.9719739594823
 20
200.37099036448797
  0
LWPOLYLINE
  5
E3
330
17
100
AcDbEntity
  8
CUT
100
AcDbPolyline
 90
8
 70
1
 10
1276.3709903644879
 20
81.17000676949367
 42
2.414213562373095
 10
1279.570990364488
 20
84.37000676949367
 10
1279.570990364488
 20
118.97000676949366
 42
2.414213562373095
 10
1276.3709903644879
 20
122.17000676949367
 10
1263.770990364488
 20
122.17000676949367
 42
2.414213562373095
 10
1260.570990364488
 20
118.97000676949366
 10
1260.570990364488
 20
84.37000676949367
 42
2.414213562373095
 10
1263.770990364488
 20
81.17000676949367
  0
LWPOLYLINE
  5
E4
330
17
100
AcDbEntity
  8
CUT
100
AcDbPolyline
 90
8
 70
1
 10
1276.370990364488
 20
265.9719739594822
 42
2.414213562373095
 10
1279.570990364488
 20
269.1719739594822
 10
1279.570990364488
 20
303.77197395948224
 42
2.414213562373095
 10
1276.370990364488
 20
306.9719739594822
 10
1263.770990364488
 20
306.9719739594822
 42
2.414213562373095
 10
1260.570990364488
 20
303.77197395948224
 10
1260.570990364488
 20
269.1719739594822
 42
2.414213562373095
 10
1263.770990364488
 20
265.9719739594822
  0
LWPOLYLINE
  5
E5
330
17
100
AcDbEntity
  8
CUT
100
AcDbPolyline
 90
34
 70
1
 10
1345.1419807289758
 20
1181.0
 10
1285.1719739594823
 20
1181.0
 42
-2.414213562373095
 10
1281.9719739594823
 20
1184.2
 10
1281.9719739594823
 20
1199.0
 10
1241.9719739594823
 20
1199.0
 10
1241.9719739594823
 20
1184.2
 42
-2.414213562373095
 10
1238.7719739594822
 20
1181.0
 10
1100.3700067694936
 20
1181.0
 42
-2.414213562373095
 10
1097.1700067694937
 20
1184.2
 10
1097.1700067694937
 20
1199.0
 10
1057.1700067694937
 20
1199.0
 10
1057.1700067694937
 20
1184.2
 42
-2.414213562373095
 10
1053.9700067694937
 20
1181.0
 10
994.0
 20
1181.0
 10
1044.3999999999999
 20
992.0
 10
1081.6361035521977
 20
992.0
 42
-2.414213562373095
 10
1084.8361035521978
 20
988.8
 10
1084.8361035521978
 20
974.0
 10
1124.8361035521978
 20
974.0
 10
1124.8361035521978
 20
988.8
 42
-2.414213562373095
 10
1128.0361035521978
 20
992.0
 10
1160.070990364488
 20
992.0
 10
1160.070990364488
 20
1083.3
 42
-2.414213562373095
 10
1163.270990364488
 20
1086.5
 10
1175.8709903644879
 20
1086.5
 42
-2.414213562373095
 10
1179.070990364488
 20
1083.3
 10
1179.070990364488
 20
992.0
 10
1211.1058771767782
 20
992.0
 42
-2.414213562373095
 10
1214.3058771767783
 20
988.8
 10
1214.3058771767783
 20
974.0
 10
1254.3058771767783
 20
974.0
 10
1254.3058771767783
 20
988.8
 42
-2.414213562373095
 10
1257.505877176778
 20
992.0
 10
1294.741980728976
 20
992.0
  0
LWPOLYLINE
  5
E6
330
17
100
AcDbEntity
  8
CUT
100
AcDbPolyline
 90
34
 70
1
 10
1549.1419807289758
 20
941.0
 10
1489.1719739594823
 20
941.0
 42
-2.414213562373095
 10
1485.9719739594823
 20
944.2
 10
1485.9719739594823
 20
959.0
 10
1445.9719739594823
 20
959.0
 10
1445.9719739594823
 20
944.2
 42
-2.414213562373095
 10
1442.7719739594822
 20
941.0
 10
1304.3700067694936
 20
941.0
 42
-2.414213562373095
 10
1301.1700067694937
 20
944.2
 10
1301.1700067694937
 20
959.0
 10
1261.1700067694937
 20
959.0
 10
1261.1700067694937
 20
944.2
 42
-2.414213562373095
 10
1257.9700067694937
 20
941.0
 10
1198.0
 20
941.0
 10
1248.3999999999999
 20
752.0
 10
1285.6361035521977
 20
752.0
 42
-2.414213562373095
 10
1288.8361035521978
 20
748.8
 10
1288.8361035521978
 20
734.0
 10
1328.8361035521978
 20
734.0
 10
1328.8361035521978
 20
748.8
 42
-2.414213562373095
 10
1332.0361035521978
 20
752.0
 10
1364.070990364488
 20
752.0
 10
1364.070990364488
 20
843.3
 42
-2.414213562373095
 10
1367.270990364488
 20
846.5
 10
1379.8709903644879
 20
846.5
 42
-2.414213562373095
 10
1383.070990364488
 20
843.3
 10
1383.070990364488
 20
752.0
 10
1415.1058771767782
 20
752.0
 42
-2.414213562373095
 10
1418.3058771767783
 20
748.8
 10
1418.3058771767783
 20
734.0
 10
1458.3058771767783
 20
734.0
 10
1458.3058771767783
 20
748.8
 42
-2.414213562373095
 10
1461.505877176778
 20
752.0
 10
1498.741980728976
 20
752.0
  0
LWPOLYLINE
  5
E7
330
17
100
AcDbEntity
  8
CUT
100
AcDbPolyline
 90
34
 70
1
 10
1270.0
 20
392.0
 10
1329.9700067694937
 20
392.0
 42
-2.414213562373095
 10
1333.1700067694937
 20
388.8
 10
1333.1700067694937
 20
374.0
 10
1373.1700067694937
 20
374.0
 10
1373.1700067694937
 20
388.8
 42
-2.414213562373095
 10
1376.3700067694936
 20
392.0
 10
1436.070990364488
 20
392.0
 10
1436.070990364488
 20
483.3
 42
-2.414213562373095
 10
1439.270990364488
 20
486.5
 10
1451.870990364488
 20
486.5
 42
-2.414213562373095
 10
1455.070990364488
 20
483.3
 10
1455.070990364488
 20
392.0
 10
1514.7719739594822
 20
392.0
 42
-2.414213562373095
 10
1517.9719739594823
 20
388.8
 10
1517.9719739594823
 20
374.0
 10
1557.9719739594823
 20
374.0
 10
1557.9719739594823
 20
388.8
 42
-2.414213562373095
 10
1561.1719739594823
 20
392.0
 10
1621.1419807289758
 20
392.0
 10
1570.741980728976
 20
581.0
 10
1533.505877176778
 20
581.0
 42
-2.414213562373095
 10
1530.3058771767783
 20
584.2
 10
1530.3058771767783
 20
599.0
 10
1490.3058771767783
 20
599.0
 10
1490.3058771767783
 20
584.2
 42
-2.414213562373095
 10
1487.1058771767782
 20
581.0
 10
1404.0361035521978
 20
581.0
 42
-2.414213562373095
 10
1400.8361035521978
 20
584.2
 10
1400.8361035521978
 20
599.0
 10
1360.8361035521978
 20
599.0
 10
1360.8361035521978
 20
584.2
 42
-2.414213562373095
 10
1357.6361035521977
 20
581.0
 10
1320.4
 20
581.0
  0
LWPOLYLINE
  5
E8
330
17
100
AcDbEntity
  8
CUT
100
AcDbPolyline
 90
34
 70
1
 10
1310.0
 20
976.0
 10
1369.9700067694937
 20
976.0
 42
-2.414213562373095
 10
1373.1700067694937
 20
972.8
 10
1373.1700067694937
 20
958.0
 10
1413.1700067694937
 20
958.0
 10
1413.1700067694937
 20
972.8
 42
-2.414213562373095
 10
1416.3700067694936
 20
976.0
 10
1476.070990364488
 20
976.0
 10
1476.070990364488
 20
1067.3
 42
-2.414213562373095
 10
1479.270990364488
 20
1070.5
 10
1491.870990364488
 20
1070.5
 42
-2.414213562373095
 10
1495.070990364488
 20
1067.3
 10
1495.070990364488
 20
976.0
 10
1554.7719739594822
 20
976.0
 42
-2.414213562373095
 10
1557.9719739594823
 20
972.8
 10
1557.9719739594823
 20
958.0
 10
1597.9719739594823
 20
958.0
 10
1597.9719739594823
 20
972.8
 42
-2.414213562373095
 10
1601.1719739594823
 20
976.0
 10
1661.1419807289758
 20
976.0
 10
1610.741980728976
 20
1165.0
 10
1573.505877176778
 20
1165.0
 42
-2.414213562373095
 10
1570.3058771767783
 20
1168.2
 10
1570.3058771767783
 20
1183.0
 10
1530.3058771767783
 20
1183.0
 10
1530.3058771767783
 20
1168.2
 42
-2.414213562373095
 10
1527.1058771767782
 20
1165.0
 10
1444.0361035521978
 20
1165.0
 42
-2.414213562373095
 10
1440.8361035521978
 20
1168.2
 10
1440.8361035521978
 20
1183.0
 10
1400.8361035521978
 20
1183.0
 10
1400.8361035521978
 20
1168.2
 42
-2.414213562373095
 10
1397.6361035521977
 20
1165.0
 10
1360.4
 20
1165.0
  0
LWPOLYLINE
  5
E9
330
17
100
AcDbEntity
  8
CUT
100
AcDbPolyline
 90
2
 70
1
 10
1699.741980728976
 20
138.87099036448797
 42
1.0
 10
1458.0
 20
138.87099036448797
 42
1.0
  0
LWPOLYLINE
  5
EA
330
17
100
AcDbEntity
  8
CUT
100
AcDbPolyline
 90
8
 70
1
 10
1493.6361035521977
 20
132.57099036448795
 42
2.414213562373095
 10
1496.8361035521978
 20
129.37099036448797
 10
1531.4361035521977
 20
129.37099036448797
 42
2.414213562373095
 10
1534.6361035521977
 20
132.57099036448795
 10
1534.6361035521977
 20
145.17099036448798
 42
2.414213562373095
 10
1531.4361035521977
 20
148.37099036448797
 10
1496.8361035521978
 20
148.37099036448797
 42
2.414213562373095
 10
1493.6361035521977
 20
145.17099036448798
  0
LWPOLYLINE
  5
EB
330
17
100
AcDbEntity
  8
CUT
100
AcDbPolyline
 90
8
 70
1
 10
1623.1058771767782
 20
132.57099036448795
 42
2.414213562373095
 10
1626.3058771767783
 20
129.37099036448797
 10
1660.9058771767782
 20
129.37099036448797
 42
2.414213562373095
 10
1664.1058771767782
 20
132.57099036448795
 10
1664.1058771767782
 20
145.17099036448798
 42
2.414213562373095
 10
1660.9058771767782
 20
148.37099036448797
 10
1626.3058771767783
 20
148.37099036448797
 42
2.414213562373095
 10
1623.1058771767782
 20
145.17099036448798
  0
LWPOLYLINE
  5
EC
330
17
100
AcDbEntity
  8
CUT
100
AcDbPolyline
 90
8
 70
1
 10
1585.170990364488
 20
53.63610355219774
 42
2.414213562373095
 10
1588.370990364488
 20
56.83610355219774
 10
1588.370990364488
 20
91.43610355219774
 42
2.414213562373095
 10
1585.170990364488
 20
94.63610355219774
 10
1572.570990364488
 20
94.63610355219774
 42
2.414213562373095
 10
1569.370990364488
 20
91.43610355219774
 10
1569.370990364488
 20
56.83610355219774
 42
2.414213562373095
 10
1572.570990364488
 20
53.63610355219774
  0
LWPOLYLINE
  5
ED
330
17
100
AcDbEntity
  8
CUT
100
AcDbPolyline
 90
8
 70
1
 10
1585.170990364488
 20
183.1058771767782
 42
2.414213562373095
 10
1588.370990364488
 20
186.3058771767782
 10
1588.370990364488
 20
220.90587717677818
 42
2.414213562373095
 10
1585.170990364488
 20
224.1058771767782
 10
1572.570990364488
 20
224.1058771767782
 42
2.414213562373095
 10
1569.370990364488
 20
220.90587717677818
 10
1569.370990364488
 20
186.3058771767782
 42
2.414213562373095
 10
1572.570990364488
 20
183.1058771767782
  0
LWPOLYLINE
  5
EE
330
17
100
AcDbEntity
  8
CUT
100
AcDbPolyline
 90
2
 70
1
 10
1747.741980728976
 20
706.870990364488
 42
1.0
 10
1506.0
 20
706.870990364488
 42
1.0
  0
LWPOLYLINE
  5
EF
330
17
100
AcDbEntity
  8
CUT
100
AcDbPolyline
 90
8
 70
1
 10
1541.6361035521977
 20
700.570990364488
 42
2.414213562373095
 10
1544.8361035521978
 20
697.370990364488
 10
1579.4361035521977
 20
697.370990364488
 42
2.414213562373095
 10
1582.6361035521977
 20
700.570990364488
 10
1582.6361035521977
 20
713.1709903644879
 42
2.414213562373095
 10
1579.4361035521977
 20
716.370990364488
 10
1544.8361035521978
 20
716.370990364488
 42
2.414213562373095
 10
1541.6361035521977
 20
713.1709903644879
  0
LWPOLYLINE
  5
F0
330
17
100
AcDbEntity
  8
CUT
100
AcDbPolyline
 90
8
 70
1
 10
1671.1058771767782
 20
700.570990364488
 42
2.414213562373095
 10
1674.3058771767783
 20
697.370990364488
 10
1708.9058771767782
 20
697.370990364488
 42
2.414213562373095
 10
1712.1058771767782
 20
700.570990364488
 10
1712.1058771767782
 20
713.1709903644879
 42
2.414213562373095
 10
1708.9058771767782
 20
716.370990364488
 10
1674.3058771767783
 20
716.370990364488
 42
2.414213562373095
 10
1671.1058771767782
 20
713.1709903644879
  0
LWPOLYLINE
  5
F1
330
17
100
AcDbEntity
  8
CUT
100
AcDbPolyline
 90
8
 70
1
 10
1633.170990364488
 20
621.6361035521977
 42
2.414213562373095
 10
1636.370990364488
 20
624.8361035521978
 10
1636.370990364488
 20
659.4361035521978
 42
2.414213562373095
 10
1633.170990364488
 20
662.6361035521977
 10
1620.570990364488
 20
662.6361035521977
 42
2.414213562373095
 10
1617.370990364488
 20
659.4361035521978
 10
1617.370990364488
 20
624.8361035521978
 42
2.414213562373095
 10
1620.570990364488
 20
621.6361035521977
  0
LWPOLYLINE
  5
F2
330
17
100
AcDbEntity
  8
CUT
100
AcDbPolyline
 90
8
 70
1
 10
1633.170990364488
 20
751.1058771767782
 42
2.414213562373095
 10
1636.370990364488
 20
754.3058771767783
 10
1636.370990364488
 20
788.9058771767782
 42
2.414213562373095
 10
1633.170990364488
 20
792.1058771767782
 10
1620.570990364488
 20
792.1058771767782
 42
2.414213562373095
 10
1617.370990364488
 20
788.9058771767782
 10
1617.370990364488
 20
754.3058771767783
 42
2.414213562373095
 10
1620.570990364488
 20
751.1058771767782
  0
LWPOLYLINE
  5
F3
330
17
100
AcDbEntity
  8
CUT
100
AcDbPolyline
 90
2
 70
1
 10
250.1419807289759
 20
594.0709903644879
 42
1.0
 10
18.0
 20
594.0709903644879
 42
1.0
  0
LWPOLYLINE
  5
F4
330
17
100
AcDbEntity
  8
CUT
100
AcDbPolyline
 90
8
 70
1
 10
79.95898904804083
 20
531.0494436050903
 42
2.414213562373095
 10
84.48447244763474
 20
531.0494436050903
 10
108.95036707668928
 20
555.5153382341449
 42
2.414213562373095
 10
108.95036707668929
 20
560.0408216337388
 10
100.04082163373879
 20
568.9503670766893
 42
2.414213562373095
 10
95.51533823414488
 20
568.9503670766893
 10
71.04944360509035
 20
544.4844724476347
 42
2.414213562373095
 10
71.04944360509033
 20
539.9589890480408
  0
LWPOLYLINE
  5
F5
330
17
100
AcDbEntity
  8
CUT
100
AcDbPolyline
 90
8
 70
1
 10
168.1011590952371
 20
619.1916136522866
 42
2.414213562373095
 10
172.62664249483103
 20
619.1916136522866
 10
197.09253712388556
 20
643.6575082813412
 42
2.414213562373095
 10
197.09253712388556
 20
648.1829916809351
 10
188.18299168093506
 20
657.0925371238856
 42
2.414213562373095
 10
183.65750828134117
 20
657.0925371238856
 10
159.19161365228663
 20
632.626642494831
 42
2.414213562373095
 10
159.19161365228663
 20
628.1011590952371
  0
LWPOLYLINE
  5
F6
330
17
100
AcDbEntity
  8
CUT
100
AcDbPolyline
 90
8
 70
1
 10
197.09253712388556
 20
539.9589890480408
 42
2.414213562373095
 10
197.09253712388556
 20
544.4844724476347
 10
172.626642494831
 20
568.9503670766893
 42
2.414213562373095
 10
168.1011590952371
 20
568.9503670766893
 10
159.1916136522866
 20
560.0408216337388
 42
2.414213562373095
 10
159.1916136522866
 20
555.5153382341449
 10
183.65750828134117
 20
531.0494436050903
 42
2.414213562373095
 10
188.18299168093506
 20
531.0494436050903
  0
LWPOLYLINE
  5
F7
330
17
100
AcDbEntity
  8
CUT
100
AcDbPolyline
 90
8
 70
1
 10
108.95036707668929
 20
628.1011590952371
 42
2.414213562373095
 10
108.95036707668929
 20
632.626642494831
 10
84.48447244763474
 20
657.0925371238856
 42
2.414213562373095
 10
79.95898904804085
 20
657.0925371238856
 10
71.04944360509035
 20
648.1829916809351
 42
2.414213562373095
 10
71.04944360509035
 20
643.6575082813412
 10
95.51533823414489
 20
619.1916136522866
 42
2.414213562373095
 10
100.04082163373879
 20
619.1916136522866
  0
LWPOLYLINE
  5
F8
330
17
100
AcDbEntity
  8
CUT
100
AcDbPolyline
 90
2
 70
1
 10
1850.1419807289758
 20
478.07099036448795
 42
1.0
 10
1618.0
 20
478.07099036448795
 42
1.0
  0
LWPOLYLINE
  5
F9
330
17
100
AcDbEntity
  8
CUT
100
AcDbPolyline
 90
8
 70
1
 10
1679.9589890480408
 20
415.04944360509035
 42
2.414213562373095
 10
1684.4844724476347
 20
415.04944360509035
 10
1708.9503670766892
 20
439.5153382341449
 42
2.414213562373095
 10
1708.9503670766892
 20
444.0408216337388
 10
1700.0408216337387
 20
452.9503670766893
 42
2.414213562373095
 10
1695.5153382341448
 20
452.9503670766893
 10
1671.0494436050903
 20
428.48447244763474
 42
2.414213562373095
 10
1671.0494436050903
 20
423.95898904804085
  0
LWPOLYLINE
  5
FA
330
17
100
AcDbEntity
  8
CUT
100
AcDbPolyline
 90
8
 70
1
 10
1768.101159095237
 20
503.1916136522866
 42
2.414213562373095
 10
1772.626642494831
 20
503.1916136522866
 10
1797.0925371238854
 20
527.6575082813412
 42
2.414213562373095
 10
1797.0925371238854
 20
532.1829916809351
 10
1788.1829916809352
 20
541.0925371238856
 42
2.414213562373095
 10
1783.657508281341
 20
541.0925371238856
 10
1759.1916136522866
 20
516.626642494831
 42
2.414213562373095
 10
1759.1916136522866
 20
512.1011590952371
  0
LWPOLYLINE
  5
FB
330
17
100
AcDbEntity
  8
CUT
100
AcDbPolyline
 90
8
 70
1
 10
1797.0925371238854
 20
423.95898904804085
 42
2.414213562373095
 10
1797.0925371238854
 20
428.48447244763474
 10
1772.626642494831
 20
452.9503670766893
 42
2.414213562373095
 10
1768.101159095237
 20
452.9503670766893
 10
1759.1916136522866
 20
444.0408216337388
 42
2.414213562373095
 10
1759.1916136522866
 20
439.5153382341449
 10
1783.657508281341
 20
415.04944360509035
 42
2.414213562373095
 10
1788.1829916809352
 20
415.04944360509035
  0
LWPOLYLINE
  5
FC
330
17
100
AcDbEntity
  8
CUT
100
AcDbPolyline
 90
8
 70
1
 10
1708.9503670766892
 20
512.1011590952371
 42
2.414213562373095
 10
1708.9503670766892
 20
516.626642494831
 10
1684.4844724476347
 20
541.0925371238856
 42
2.414213562373095
 10
1679.9589890480408
 20
541.0925371238856
 10
1671.0494436050903
 20
532.1829916809351
 42
2.414213562373095
 10
1671.0494436050903
 20
527.6575082813412
 10
1695.5153382341448
 20
503.1916136522866
 42
2.414213562373095
 10
1700.0408216337387
 20
503.1916136522866
  0
LWPOLYLINE
  5
FD
330
17
100
AcDbEntity
  8
CUT
100
AcDbPolyline
 90
34
 70
1
 10
1857.1419807289758
 20
1169.0
 10
1827.0969165133583
 20
1169.0
 42
-2.414213562373095
 10
1823.8969165133583
 20
1172.2
 10
1823.8969165133583
 20
1187.0
 10
1783.8969165133583
 20
1187.0
 10
1783.8969165133583
 20
1172.2
 42
-2.414213562373095
 10
1780.6969165133582
 20
1169.0
 10
1702.4450642156178
 20
1169.0
 42
-2.414213562373095
 10
1699.2450642156177
 20
1172.2
 10
1699.2450642156177
 20
1187.0
 10
1659.2450642156177
 20
1187.0
 10
1659.2450642156177
 20
1172.2
 42
-2.414213562373095
 10
1656.0450642156177
 20
1169.0
 10
1626.0
 20
1169.0
 10
1676.3999999999999
 20
980.0
 10
1687.0638168652902
 20
980.0
 42
-2.414213562373095
 10
1690.2638168652902
 20
976.8
 10
1690.2638168652902
 20
962.0
 10
1723.8709903644879
 20
962.0
 10
1723.8709903644879
 20
976.8
 42
-2.414213562373095
 10
1727.070990364488
 20
980.0
 10
1732.070990364488
 20
980.0
 10
1732.070990364488
 20
1071.3
 42
-2.414213562373095
 10
1735.270990364488
 20
1074.5
 10
1747.8709903644879
 20
1074.5
 42
-2.414213562373095
 10
1751.070990364488
 20
1071.3
 10
1751.070990364488
 20
980.0
 10
1756.070990364488
 20
980.0
 42
-2.414213562373095
 10
1759.270990364488
 20
976.8
 10
1759.270990364488
 20
962.0
 10
1792.8781638636858
 20
962.0
 10
1792.8781638636858
 20
976.8
 42
-2.414213562373095
 10
1796.0781638636859
 20
980.0
 10
1806.741980728976
 20
980.0
  0
LWPOLYLINE
  5
FE
330
17
100
AcDbEntity
  8
CUT
100
AcDbPolyline
 90
34
 70
1
 10
1901.1419807289758
 20
329.0
 10
1871.0969165133583
 20
329.0
 42
-2.414213562373095
 10
1867.8969165133583
 20
332.2
 10
1867.8969165133583
 20
347.0
 10
1827.8969165133583
 20
347.0
 10
1827.8969165133583
 20
332.2
 42
-2.414213562373095
 10
1824.6969165133582
 20
329.0
 10
1746.4450642156178
 20
329.0
 42
-2.414213562373095
 10
1743.2450642156177
 20
332.2
 10
1743.2450642156177
 20
347.0
 10
1703.2450642156177
 20
347.0
 10
1703.2450642156177
 20
332.2
 42
-2.414213562373095
 10
1700.0450642156177
 20
329.0
 10
1670.0
 20
329.0
 10
1720.3999999999999
 20
140.0
 10
1731.0638168652902
 20
140.0
 42
-2.414213562373095
 10
1734.2638168652902
 20
136.8
 10
1734.2638168652902
 20
122.0
 10
1767.8709903644879
 20
122.0
 10
1767.8709903644879
 20
136.8
 42
-2.414213562373095
 10
1771.070990364488
 20
140.0
 10
1776.070990364488
 20
140.0
 10
1776.070990364488
 20
231.3
 42
-2.414213562373095
 10
1779.270990364488
 20
234.5
 10
1791.8709903644879
 20
234.5
 42
-2.414213562373095
 10
1795.070990364488
 20
231.3
 10
1795.070990364488
 20
140.0
 10
1800.070990364488
 20
140.0
 42
-2.414213562373095
 10
1803.270990364488
 20
136.8
 10
1803.270990364488
 20
122.0
 10
1836.8781638636858
 20
122.0
 10
1836.8781638636858
 20
136.8
 42
-2.414213562373095
 10
1840.0781638636859
 20
140.0
 10
1850.741980728976
 20
140.0
  0
LWPOLYLINE
  5
FF
330
17
100
AcDbEntity
  8
CUT
100
AcDbPolyline
 90
34
 70
1
 10
1941.1419807289758
 20
925.0
 10
1911.0969165133583
 20
925.0
 42
-2.414213562373095
 10
1907.8969165133583
 20
928.2
 10
1907.8969165133583
 20
943.0
 10
1867.8969165133583
 20
943.0
 10
1867.8969165133583
 20
928.2
 42
-2.414213562373095
 10
1864.6969165133582
 20
925.0
 10
1835.070990364488
 20
925.0
 10
1835.070990364488
 20
833.7
 42
-2.414213562373095
 10
1831.8709903644879
 20
830.5
 10
1819.270990364488
 20
830.5
 42
-2.414213562373095
 10
1816.070990364488
 20
833.7
 10
1816.070990364488
 20
925.0
 10
1786.4450642156178
 20
925.0
 42
-2.414213562373095
 10
1783.2450642156177
 20
928.2
 10
1783.2450642156177
 20
943.0
 10
1743.2450642156177
 20
943.0
 10
1743.2450642156177
 20
928.2
 42
-2.414213562373095
 10
1740.0450642156177
 20
925.0
 10
1710.0
 20
925.0
 10
1760.3999999999999
 20
736.0
 10
1771.0638168652902
 20
736.0
 42
-2.414213562373095
 10
1774.2638168652902
 20
732.8
 10
1774.2638168652902
 20
718.0
 10
1807.8709903644879
 20
718.0
 10
1807.8709903644879
 20
732.8
 42
-2.414213562373095
 10
1811.070990364488
 20
736.0
 10
1840.070990364488
 20
736.0
 42
-2.414213562373095
 10
1843.270990364488
 20
732.8
 10
1843.270990364488
 20
718.0
 10
1876.8781638636858
 20
718.0
 10
1876.8781638636858
 20
732.8
 42
-2.414213562373095
 10
1880.0781638636859
 20
736.0
 10
1890.741980728976
 20
736.0
  0
LWPOLYLINE
  5
100
330
17
100
AcDbEntity
  8
CUT
100
AcDbPolyline
 90
34
 70
1
 10
2045.1419807289758
 20
685.0
 10
2015.0969165133583
 20
685.0
 42
-2.414213562373095
 10
2011.8969165133583
 20
688.2
 10
2011.8969165133583
 20
703.0
 10
1971.8969165133583
 20
703.0
 10
1971.8969165133583
 20
688.2
 42
-2.414213562373095
 10
1968.6969165133582
 20
685.0
 10
1939.070990364488
 20
685.0
 10
1939.070990364488
 20
593.7
 42
-2.414213562373095
 10
1935.8709903644879
 20
590.5
 10
1923.270990364488
 20
590.5
 42
-2.414213562373095
 10
1920.070990364488
 20
593.7
 10
1920.070990364488
 20
685.0
 10
1890.4450642156178
 20
685.0
 42
-2.414213562373095
 10
1887.2450642156177
 20
688.2
 10
1887.2450642156177
 20
703.0
 10
1847.2450642156177
 20
703.0
 10
1847.2450642156177
 20
688.2
 42
-2.414213562373095
 10
1844.0450642156177
 20
685.0
 10
1814.0
 20
685.0
 10
1864.3999999999999
 20
496.0
 10
1875.0638168652902
 20
496.0
 42
-2.414213562373095
 10
1878.2638168652902
 20
492.8
 10
1878.2638168652902
 20
478.0
 10
1911.8709903644879
 20
478.0
 10
1911.8709903644879
 20
492.8
 42
-2.414213562373095
 10
1915.070990364488
 20
496.0
 10
1944.070990364488
 20
496.0
 42
-2.414213562373095
 10
1947.270990364488
 20
492.8
 10
1947.270990364488
 20
478.0
 10
1980.8781638636858
 20
478.0
 10
1980.8781638636858
 20
492.8
 42
-2.414213562373095
 10
1984.0781638636859
 20
496.0
 10
1994.741980728976
 20
496.0
  0
LWPOLYLINE
  5
101
330
17
100
AcDbEntity
  8
CUT
100
AcDbPolyline
 90
2
 70
1
 10
139.74198072897593
 20
78.87099036448797
 42
1.0
 10
18.0
 20
78.87099036448797
 42
1.0
  0
LWPOLYLINE
  5
102
330
17
100
AcDbEntity
  8
CUT
100
AcDbPolyline
 90
8
 70
1
 10
46.69255939057245
 20
37.78301394762195
 42
2.414213562373095
 10
51.21804279016634
 20
37.78301394762195
 10
71.16352644955461
 20
57.7284976070102
 42
2.414213562373095
 10
71.16352644955461
 20
62.25398100660411
 10
62.25398100660411
 20
71.16352644955461
 42
2.414213562373095
 10
57.7284976070102
 20
71.16352644955461
 10
37.783013947621946
 20
51.21804279016635
 42
2.414213562373095
 10
37.783013947621946
 20
46.692559390572455
  0
LWPOLYLINE
  5
103
330
17
100
AcDbEntity
  8
CUT
100
AcDbPolyline
 90
8
 70
1
 10
95.48799972237184
 20
86.57845427942135
 42
2.414213562373095
 10
100.01348312196575
 20
86.57845427942134
 10
119.95896678135401
 20
106.5239379388096
 42
2.414213562373095
 10
119.95896678135401
 20
111.04942133840349
 10
111.0494213384035
 20
119.958966781354
 42
2.414213562373095
 10
106.52393793880961
 20
119.958966781354
 10
86.57845427942135
 20
100.01348312196575
 42
2.414213562373095
 10
86.57845427942135
 20
95.48799972237184
  0
LWPOLYLINE
  5
104
330
17
100
AcDbEntity
  8
CUT
100
AcDbPolyline
 90
8
 70
1
 10
119.958966781354
 20
46.69255939057245
 42
2.414213562373095
 10
119.958966781354
 20
51.21804279016634
 10
100.01348312196575
 20
71.16352644955461
 42
2.414213562373095
 10
95.48799972237184
 20
71.16352644955461
 10
86.57845427942135
 20
62.25398100660411
 42
2.414213562373095
 10
86.57845427942134
 20
57.7284976070102
 10
106.5239379388096
 20
37.783013947621946
 42
2.414213562373095
 10
111.04942133840349
 20
37.783013947621946
  0
LWPOLYLINE
  5
105
330
17
100
AcDbEntity
  8
CUT
100
AcDbPolyline
 90
8
 70
1
 10
71.16352644955461
 20
95.48799972237184
 42
2.414213562373095
 10
71.16352644955461
 20
100.01348312196575
 10
51.21804279016635
 20
119.95896678135401
 42
2.414213562373095
 10
46.692559390572455
 20
119.95896678135401
 10
37.78301394762195
 20
111.0494213384035
 42
2.414213562373095
 10
37.78301394762195
 20
106.52393793880961
 10
57.7284976070102
 20
86.57845427942135
 42
2.414213562373095
 10
62.25398100660411
 20
86.57845427942135
  0
LWPOLYLINE
  5
106
330
17
100
AcDbEntity
  8
CUT
100
AcDbPolyline
 90
2
 70
1
 10
139.74198072897593
 20
1042.870990364488
 42
1.0
 10
18.0
 20
1042.870990364488
 42
1.0
  0
LWPOLYLINE
  5
107
330
17
100
AcDbEntity
  8
CUT
100
AcDbPolyline
 90
8
 70
1
 10
46.69255939057245
 20
1001.783013947622
 42
2.414213562373095
 10
51.21804279016634
 20
1001.783013947622
 10
71.16352644955461
 20
1021.7284976070102
 42
2.414213562373095
 10
71.16352644955461
 20
1026.2539810066041
 10
62.25398100660411
 20
1035.1635264495546
 42
2.414213562373095
 10
57.7284976070102
 20
1035.1635264495546
 10
37.783013947621946
 20
1015.2180427901664
 42
2.414213562373095
 10
37.783013947621946
 20
1010.6925593905725
  0
LWPOLYLINE
  5
108
330
17
100
AcDbEntity
  8
CUT
100
AcDbPolyline
 90
8
 70
1
 10
95.48799972237184
 20
1050.5784542794213
 42
2.414213562373095
 10
100.01348312196575
 20
1050.5784542794213
 10
119.95896678135401
 20
1070.5239379388097
 42
2.414213562373095
 10
119.95896678135401
 20
1075.0494213384036
 10
111.0494213384035
 20
1083.958966781354
 42
2.414213562373095
 10
106.52393793880961
 20
1083.958966781354
 10
86.57845427942135
 20
1064.0134831219657
 42
2.414213562373095
 10
86.57845427942135
 20
1059.4879997223718
  0
LWPOLYLINE
  5
109
330
17
100
AcDbEntity
  8
CUT
100
AcDbPolyline
 90
8
 70
1
 10
119.958966781354
 20
1010.6925593905725
 42
2.414213562373095
 10
119.958966781354
 20
1015.2180427901664
 10
100.01348312196575
 20
1035.1635264495546
 42
2.414213562373095
 10
95.48799972237184
 20
1035.1635264495546
 10
86.57845427942135
 20
1026.2539810066041
 42
2.414213562373095
 10
86.57845427942134
 20
1021.7284976070102
 10
106.5239379388096
 20
1001.783013947622
 42
2.414213562373095
 10
111.04942133840349
 20
1001.783013947622
  0
LWPOLYLINE
  5
10A
330
17
100
AcDbEntity
  8
CUT
100
AcDbPolyline
 90
8
 70
1
 10
71.16352644955461
 20
1059.4879997223718
 42
2.414213562373095
 10
71.16352644955461
 20
1064.0134831219657
 10
51.21804279016635
 20
1083.958966781354
 42
2.414213562373095
 10
46.692559390572455
 20
1083.958966781354
 10
37.78301394762195
 20
1075.0494213384036
 42
2.414213562373095
 10
37.78301394762195
 20
1070.5239379388097
 10
57.7284976070102
 20
1050.5784542794213
 42
2.414213562373095
 10
62.25398100660411
 20
1050.5784542794213
  0
ENDSEC
  0
SECTION
  2
OBJECTS
  0
DICTIONARY
  5
A
330
0
100
AcDbDictionary
281
1
  3
ACAD_COLOR
350
B
  3
ACAD_GROUP
350
C
  3
ACAD_LAYOUT
350
D
  3
ACAD_MATERIAL
350
E
  3
ACAD_MLEADERSTYLE
350
F
  3
ACAD_MLINESTYLE
350
10
  3
ACAD_PLOTSETTINGS
350
11
  3
ACAD_PLOTSTYLENAME
350
12
  3
ACAD_SCALELIST
350
14
  3
ACAD_TABLESTYLE
350
15
  3
ACAD_VISUALSTYLE
350
16
  3
EZDXF_META
350
2D
  0
DICTIONARY
  5
B
330
A
100
AcDbDictionary
281
1
  0
DICTIONARY
  5
C
330
A
100
AcDbDictionary
281
1
  0
DICTIONARY
  5
D
330
A
100
AcDbDictionary
281
1
  3
Model
350
1A
  3
Layout1
350
1E
  0
DICTIONARY
  5
E
330
A
100
AcDbDictionary
281
1
  3
ByBlock
350
1F
  3
ByLayer
350
20
  3
Global
350
21
  0
DICTIONARY
  5
F
330
A
100
AcDbDictionary
281
1
  3
Standard
350
2C
  0
DICTIONARY
  5
10
330
A
100
AcDbDictionary
281
1
  3
Standard
350
22
  0
DICTIONARY
  5
11
330
A
100
AcDbDictionary
281
1
  0
ACDBDICTIONARYWDFLT
  5
12
330
A
100
AcDbDictionary
281
1
  3
Normal
350
13
100
AcDbDictionaryWithDefault
340
13
  0
ACDBPLACEHOLDER
  5
13
330
12
  0
DICTIONARY
  5
14
330
A
100
AcDbDictionary
281
1
  0
DICTIONARY
  5
15
330
A
100
AcDbDictionary
281
1
  0
DICTIONARY
  5
16
330
A
100
AcDbDictionary
281
1
  0
LAYOUT
  5
1A
330
D
100
AcDbPlotSettings
  1

  4
A3
  6

 40
7.5
 41
20.0
 42
7.5
 43
20.0
 44
420.0
 45
297.0
 46
0.0
 47
0.0
 48
0.0
 49
0.0
140
0.0
141
0.0
142
1.0
143
1.0
 70
1024
 72
1
 73
0
 74
5
  7

 75
16
 76
0
 77
2
 78
300
147
1.0
148
0.0
149
0.0
100
AcDbLayout
  1
Model
 70
1
 71
0
 10
0.0
 20
0.0
 11
420.0
 21
297.0
 12
0.0
 22
0.0
 32
0.0
 14
1e+20
 24
1e+20
 34
1e+20
 15
-1e+20
 25
-1e+20
 35
-1e+20
146
0.0
 13
0.0
 23
0.0
 33
0.0
 16
1.0
 26
0.0
 36
0.0
 17
0.0
 27
1.0
 37
0.0
 76
1
330
17
  0
LAYOUT
  5
1E
330
D
100
AcDbPlotSettings
  1

  4
A3
  6

 40
7.5
 41
20.0
 42
7.5
 43
20.0
 44
420.0
 45
297.0
 46
0.0
 47
0.0
 48
0.0
 49
0.0
140
0.0
141
0.0
142
1.0
143
1.0
 70
0
 72
1
 73
0
 74
5
  7

 75
16
 76
0
 77
2
 78
300
147
1.0
148
0.0
149
0.0
100
AcDbLayout
  1
Layout1
 70
1
 71
1
 10
0.0
 20
0.0
 11
420.0
 21
297.0
 12
0.0
 22
0.0
 32
0.0
 14
1e+20
 24
1e+20
 34
1e+20
 15
-1e+20
 25
-1e+20
 35
-1e+20
146
0.0
 13
0.0
 23
0.0
 33
0.0
 16
1.0
 26
0.0
 36
0.0
 17
0.0
 27
1.0
 37
0.0
 76
1
330
1B
  0
MATERIAL
  5
1F
102
{ACAD_REACTORS
330
E
102
}
330
E
100
AcDbMaterial
  1
ByBlock
  2

 70
0
 40
1.0
 71
1
 41
1.0
 91
-1023410177
 42
1.0
 72
1
  3

 73
1
 74
1
 75
1
 44
0.5
 73
0
 45
1.0
 46
1.0
 77
1
  4

 78
1
 79
1
170
1
 48
1.0
171
1
  6

172
1
173
1
174
1
140
1.0
141
1.0
175
1
  7

176
1
177
1
178
1
143
1.0
179
1
  8

270
1
271
1
272
1
145
1.0
146
1.0
273
1
  9

274
1
275
1
276
1
 42
1.0
 72
1
  3

 73
1
 74
1
 75
1
 94
63
  0
MATERIAL
  5
20
102
{ACAD_REACTORS
330
E
102
}
330
E
100
AcDbMaterial
  1
ByLayer
  2

 70
0
 40
1.0
 71
1
 41
1.0
 91
-1023410177
 42
1.0
 72
1
  3

 73
1
 74
1
 75
1
 44
0.5
 73
0
 45
1.0
 46
1.0
 77
1
  4

 78
1
 79
1
170
1
 48
1.0
171
1
  6

172
1
173
1
174
1
140
1.0
141
1.0
175
1
  7

176
1
177
1
178
1
143
1.0
179
1
  8

270
1
271
1
272
1
145
1.0
146
1.0
273
1
  9

274
1
275
1
276
1
 42
1.0
 72
1
  3

 73
1
 74
1
 75
1
 94
63
  0
MATERIAL
  5
21
102
{ACAD_REACTORS
330
E
102
}
330
E
100
AcDbMaterial
  1
Global
  2

 70
0
 40
1.0
 71
1
 41
1.0
 91
-1023410177
 42
1.0
 72
1
  3

 73
1
 74
1
 75
1
 44
0.5
 73
0
 45
1.0
 46
1.0
 77
1
  4

 78
1
 79
1
170
1
 48
1.0
171
1
  6

172
1
173
1
174
1
140
1.0
141
1.0
175
1
  7

176
1
177
1
178
1
143
1.0
179
1
  8

270
1
271
1
272
1
145
1.0
146
1.0
273
1
  9

274
1
275
1
276
1
 42
1.0
 72
1
  3

 73
1
 74
1
 75
1
 94
63
  0
MLINESTYLE
  5
22
102
{ACAD_REACTORS
330
10
102
}
330
10
100
AcDbMlineStyle
  2
Standard
 70
0
  3

 62
256
 51
90.0
 52
90.0
 71
2
 49
0.5
 62
256
  6
BYLAYER
 49
-0.5
 62
256
  6
BYLAYER
  0
MLEADERSTYLE
  5
2C
102
{ACAD_REACTORS
330
F
102
}
330
F
100
AcDbMLeaderStyle
179
2
170
2
171
1
172
0
 90
2
 40
0.0
 41
0.0
173
1
 91
-1056964608
 92
-2
290
1
 42
2.0
291
1
 43
8.0
  3
Standard
 44
4.0
300

342
29
174
1
175
1
176
0
178
1
 93
-1056964608
 45
4.0
292
0
297
0
 46
4.0
 94
-1056964608
 47
1.0
 49
1.0
140
1.0
294
1
141
0.0
177
0
142
1.0
295
0
296
0
143
3.75
271
0
272
9
273
9
  0
DICTIONARY
  5
2D
330
A
100
AcDbDictionary
280
1
281
1
  3
CREATED_BY_EZDXF
350
2E
  3
WRITTEN_BY_EZDXF
350
10D
  0
DICTIONARYVAR
  5
2E
330
2D
100
DictionaryVariables
280
0
  1
1.4.4 @ 2026-09-28T23:06:54.703796+00:00
  0
DICTIONARYVAR
  5
10D
330
2D
100
DictionaryVariables
280
0
  1
1.4.4 @ 2026-09-28T23:06:58.911676+00:00
  0
ENDSEC
  0
EOF
