  0
SECTION
  2
HEADER
  9
$ACADVER
  1
AC1024
  9
$ACADMAINTVER
 70
6
  9
$DWGCODEPAGE
  3
ANSI_1252
  9
$LASTSAVEDBY
  1
ezdxf
  9
$INSBASE
 10
0.0
 20
0.0
 30
0.0
  9
$EXTMIN
 10
1e+20
 20
1e+20
 30
1e+20
  9
$EXTMAX
 10
-1e+20
 20
-1e+20
 30
-1e+20
  9
$LIMMIN
 10
0.0
 20
0.0
  9
$LIMMAX
 10
420.0
 20
297.0
  9
$ORTHOMODE
 70
0
  9
$REGENMODE
 70
1
  9
$FILLMODE
 70
1
  9
$QTEXTMODE
 70
0
  9
$MIRRTEXT
 70
1
  9
$LTSCALE
 40
1.0
  9
$ATTMODE
 70
1
  9
$TEXTSIZE
 40
2.5
  9
$TRACEWID
 40
1.0
  9
$TEXTSTYLE
  7
OpenSans
  9
$CLAYER
  8
0
  9
$CELTYPE
  6
ByLayer
  9
$CECOLOR
 62
256
  9
$CELTSCALE
 40
1.0
  9
$DISPSILH
 70
0
  9
$DIMSCALE
 40
1.0
  9
$DIMASZ
 40
0.175
  9
$DIMEXO
 40
0.125
  9
$DIMDLI
 40
3.75
  9
$DIMRND
 40
0.0
  9
$DIMDLE
 40
0.0
  9
$DIMEXE
 40
0.375
  9
$DIMTP
 40
0.0
  9
$DIMTM
 40
0.0
  9
$DIMTXT
 40
0.25
  9
$DIMCEN
 40
2.5
  9
$DIMTSZ
 40
0.0
  9
$DIMTOL
 70
0
  9
$DIMLIM
 70
0
  9
$DIMTIH
 70
0
  9
$DIMTOH
 70
0
  9
$DIMSE1
 70
0
  9
$DIMSE2
 70
0
  9
$DIMTAD
 70
1
  9
$DIMZIN
 70
12
  9
$DIMBLK
  1
ARCHTICK
  9
$DIMASO
 70
1
  9
$DIMSHO
 70
1
  9
$DIMPOST
  1

  9
$DIMAPOST
  1

  9
$DIMALT
 70
0
  9
$DIMALTD
 70
3
  9
$DIMALTF
 40
0.03937007874
  9
$DIMLFAC
 40
100.0
  9
$DIMTOFL
 70
1
  9
$DIMTVP
 40
0.0
  9
$DIMTIX
 70
0
  9
$DIMSOXD
 70
0
  9
$DIMSAH
 70
0
  9
$DIMBLK1
  1

  9
$DIMBLK2
  1

  9
$DIMSTYLE
  2
EZDXF
  9
$DIMCLRD
 70
0
  9
$DIMCLRE
 70
0
  9
$DIMCLRT
 70
0
  9
$DIMTFAC
 40
0.5
  9
$DIMGAP
 40
0.1
  9
$DIMJUST
 70
0
  9
$DIMSD1
 70
0
  9
$DIMSD2
 70
0
  9
$DIMTOLJ
 70
0
  9
$DIMTZIN
 70
8
  9
$DIMALTZ
 70
0
  9
$DIMALTTZ
 70
0
  9
$DIMUPT
 70
1
  9
$DIMDEC
 70
2
  9
$DIMTDEC
 70
2
  9
$DIMALTU
 70
2
  9
$DIMALTTD
 70
3
  9
$DIMTXSTY
  7
OpenSansCondensed-Light
  9
$DIMAUNIT
 70
0
  9
$DIMADEC
 70
2
  9
$DIMALTRND
 40
0.0
  9
$DIMAZIN
 70
3
  9
$DIMDSEP
 70
46
  9
$DIMATFIT
 70
3
  9
$DIMFRAC
 70
0
  9
$DIMLDRBLK
  1

  9
$DIMLUNIT
 70
2
  9
$DIMLWD
 70
-2
  9
$DIMLWE
 70
-2
  9
$DIMTMOVE
 70
2
  9
$DIMFXL
 40
1.0
  9
$DIMFXLON
 70
0
  9
$DIMJOGANG
 40
0.785398163397
  9
$DIMTFILL
 70
0
  9
$DIMTFILLCLR
 70
0
  9
$DIMARCSYM
 70
0
  9
$DIMLTYPE
  6

  9
$DIMLTEX1
  6

  9
$DIMLTEX2
  6

  9
$DIMTXTDIRECTION
 70
0
  9
$LUNITS
 70
2
  9
$LUPREC
 70
4
  9
$SKETCHINC
 40
1.0
  9
$FILLETRAD
 40
10.0
  9
$AUNITS
 70
0
  9
$AUPREC
 70
2
  9
$MENU
  1
.
  9
$ELEVATION
 40
0.0
  9
$PELEVATION
 40
0.0
  9
$THICKNESS
 40
0.0
  9
$LIMCHECK
 70
0
  9
$CHAMFERA
 40
0.0
  9
$CHAMFERB
 40
0.0
  9
$CHAMFERC
 40
0.0
  9
$CHAMFERD
 40
0.0
  9
$SKPOLY
 70
0
  9
$TDCREATE
 40
2461311.533553241
  9
$TDUCREATE
 40
2458532.153996898
  9
$TDUPDATE
 40
2461311.533599537
  9
$TDUUPDATE
 40
2458532.1544311
  9
$TDINDWG
 40
0.0
  9
$TDUSRTIMER
 40
0.0
  9
$USRTIMER
 70
1
  9
$ANGBASE
 50
0.0
  9
$ANGDIR
 70
0
  9
$PDMODE
 70
0
  9
$PDSIZE
 40
0.0
  9
$PLINEWID
 40
0.0
  9
$SPLFRAME
 70
0
  9
$SPLINETYPE
 70
6
  9
$SPLINESEGS
 70
8
  9
$HANDSEED
  5
16B
  9
$SURFTAB1
 70
6
  9
$SURFTAB2
 70
6
  9
$SURFTYPE
 70
6
  9
$SURFU
 70
6
  9
$SURFV
 70
6
  9
$UCSBASE
  2

  9
$UCSNAME
  2

  9
$UCSORG
 10
0.0
 20
0.0
 30
0.0
  9
$UCSXDIR
 10
1.0
 20
0.0
 30
0.0
  9
$UCSYDIR
 10
0.0
 20
1.0
 30
0.0
  9
$UCSORTHOREF
  2

  9
$UCSORTHOVIEW
 70
0
  9
$UCSORGTOP
 10
0.0
 20
0.0
 30
0.0
  9
$UCSORGBOTTOM
 10
0.0
 20
0.0
 30
0.0
  9
$UCSORGLEFT
 10
0.0
 20
0.0
 30
0.0
  9
$UCSORGRIGHT
 10
0.0
 20
0.0
 30
0.0
  9
$UCSORGFRONT
 10
0.0
 20
0.0
 30
0.0
  9
$UCSORGBACK
 10
0.0
 20
0.0
 30
0.0
  9
$PUCSBASE
  2

  9
$PUCSNAME
  2

  9
$PUCSORG
 10
0.0
 20
0.0
 30
0.0
  9
$PUCSXDIR
 10
1.0
 20
0.0
 30
0.0
  9
$PUCSYDIR
 10
0.0
 20
1.0
 30
0.0
  9
$PUCSORTHOREF
  2

  9
$PUCSORTHOVIEW
 70
0
  9
$PUCSORGTOP
 10
0.0
 20
0.0
 30
0.0
  9
$PUCSORGBOTTOM
 10
0.0
 20
0.0
 30
0.0
  9
$PUCSORGLEFT
 10
0.0
 20
0.0
 30
0.0
  9
$PUCSORGRIGHT
 10
0.0
 20
0.0
 30
0.0
  9
$PUCSORGFRONT
 10
0.0
 20
0.0
 30
0.0
  9
$PUCSORGBACK
 10
0.0
 20
0.0
 30
0.0
  9
$USERI1
 70
0
  9
$USERI2
 70
0
  9
$USERI3
 70
0
  9
$USERI4
 70
0
  9
$USERI5
 70
0
  9
$USERR1
 40
0.0
  9
$USERR2
 40
0.0
  9
$USERR3
 40
0.0
  9
$USERR4
 40
0.0
  9
$USERR5
 40
0.0
  9
$WORLDVIEW
 70
1
  9
$SHADEDGE
 70
3
  9
$SHADEDIF
 70
70
  9
$TILEMODE
 70
1
  9
$MAXACTVP
 70
64
  9
$PINSBASE
 10
0.0
 20
0.0
 30
0.0
  9
$PLIMCHECK
 70
0
  9
$PEXTMIN
 10
1e+20
 20
1e+20
 30
1e+20
  9
$PEXTMAX
 10
-1e+20
 20
-1e+20
 30
-1e+20
  9
$PLIMMIN
 10
0.0
 20
0.0
  9
$PLIMMAX
 10
420.0
 20
297.0
  9
$UNITMODE
 70
0
  9
$VISRETAIN
 70
1
  9
$PLINEGEN
 70
0
  9
$PSLTSCALE
 70
1
  9
$TREEDEPTH
 70
3020
  9
$CMLSTYLE
  2
Standard
  9
$CMLJUST
 70
0
  9
$CMLSCALE
 40
20.0
  9
$PROXYGRAPHICS
 70
1
  9
$MEASUREMENT
 70
1
  9
$CELWEIGHT
370
-1
  9
$ENDCAPS
280
0
  9
$JOINSTYLE
280
0
  9
$LWDISPLAY
290
0
  9
$INSUNITS
 70
4
  9
$HYPERLINKBASE
  1

  9
$STYLESHEET
  1

  9
$XEDIT
290
1
  9
$CEPSNTYPE
380
0
  9
$PSTYLEMODE
290
1
  9
$FINGERPRINTGUID
  2
{CCBEDCF9-E51A-4086-A2C3-C2F2EE74DAD6}
  9
$VERSIONGUID
  2
{2933390B-9A88-4FDB-93D8-EACDC4EBB69F}
  9
$EXTNAMES
290
1
  9
$PSVPSCALE
 40
0.0
  9
$OLESTARTUP
290
0
  9
$SORTENTS
280
127
  9
$INDEXCTL
280
0
  9
$HIDETEXT
280
1
  9
$XCLIPFRAME
280
1
  9
$HALOGAP
280
0
  9
$OBSCOLOR
 70
257
  9
$OBSLTYPE
280
0
  9
$INTERSECTIONDISPLAY
280
0
  9
$INTERSECTIONCOLOR
 70
257
  9
$DIMASSOC
280
2
  9
$PROJECTNAME
  1

  9
$CAMERADISPLAY
290
0
  9
$LENSLENGTH
 40
50.0
  9
$CAMERAHEIGHT
 40
0.0
  9
$STEPSPERSEC
 40
24.0
  9
$STEPSIZE
 40
100.0
  9
$3DDWFPREC
 40
2.0
  9
$PSOLWIDTH
 40
0.005
  9
$PSOLHEIGHT
 40
0.08
  9
$LOFTANG1
 40
1.570796326795
  9
$LOFTANG2
 40
1.570796326795
  9
$LOFTMAG1
 40
0.0
  9
$LOFTMAG2
 40
0.0
  9
$LOFTPARAM
 70
7
  9
$LOFTNORMALS
280
1
  9
$LATITUDE
 40
37.795
  9
$LONGITUDE
 40
-122.394
  9
$NORTHDIRECTION
 40
0.0
  9
$TIMEZONE
 70
-8000
  9
$LIGHTGLYPHDISPLAY
280
1
  9
$TILEMODELIGHTSYNCH
280
1
  9
$CMATERIAL
347
20
  9
$SOLIDHIST
280
0
  9
$SHOWHIST
280
1
  9
$DWFFRAME
280
2
  9
$DGNFRAME
280
2
  9
$REALWORLDSCALE
290
1
  9
$INTERFERECOLOR
 62
256
  9
$CSHADOW
280
0
  9
$SHADOWPLANELOCATION
 40
0.0
  0
ENDSEC
  0
SECTION
  2
CLASSES
  0
CLASS
  1
ACDBDICTIONARYWDFLT
  2
AcDbDictionaryWithDefault
  3
ObjectDBX Classes
 90
0
 91
0
280
0
281
0
  0
CLASS
  1
SUN
  2
AcDbSun
  3
SCENEOE
 90
1153
 91
0
280
0
281
0
  0
CLASS
  1
VISUALSTYLE
  2
AcDbVisualStyle
  3
ObjectDBX Classes
 90
4095
 91
0
280
0
281
0
  0
CLASS
  1
MATERIAL
  2
AcDbMaterial
  3
ObjectDBX Classes
 90
1153
 91
0
280
0
281
0
  0
CLASS
  1
SCALE
  2
AcDbScale
  3
ObjectDBX Classes
 90
1153
 91
0
280
0
281
0
  0
CLASS
  1
TABLESTYLE
  2
AcDbTableStyle
  3
ObjectDBX Classes
 90
4095
 91
0
280
0
281
0
  0
CLASS
  1
MLEADERSTYLE
  2
AcDbMLeaderStyle
  3
ACDB_MLEADERSTYLE_CLASS
 90
4095
 91
0
280
0
281
0
  0
CLASS
  1
DICTIONARYVAR
  2
AcDbDictionaryVar
  3
ObjectDBX Classes
 90
0
 91
0
280
0
281
0
  0
CLASS
  1
CELLSTYLEMAP
  2
AcDbCellStyleMap
  3
ObjectDBX Classes
 90
1152
 91
0
280
0
281
0
  0
CLASS
  1
MENTALRAYRENDERSETTINGS
  2
AcDbMentalRayRenderSettings
  3
SCENEOE
 90
1024
 91
0
280
0
281
0
  0
CLASS
  1
ACDBDETAILVIEWSTYLE
  2
AcDbDetailViewStyle
  3
ObjectDBX Classes
 90
1025
 91
0
280
0
281
0
  0
CLASS
  1
ACDBSECTIONVIEWSTYLE
  2
AcDbSectionViewStyle
  3
ObjectDBX Classes
 90
1025
 91
0
280
0
281
0
  0
CLASS
  1
RASTERVARIABLES
  2
AcDbRasterVariables
  3
ISM
 90
0
 91
0
280
0
281
0
  0
CLASS
  1
ACDBPLACEHOLDER
  2
AcDbPlaceHolder
  3
ObjectDBX Classes
 90
0
 91
0
280
0
281
0
  0
CLASS
  1
LAYOUT
  2
AcDbLayout
  3
ObjectDBX Classes
 90
0
 91
0
280
0
281
0
  0
ENDSEC
  0
SECTION
  2
TABLES
  0
TABLE
  2
VPORT
  5
8
330
0
100
AcDbSymbolTable
 70
1
  0
VPORT
  5
23
330
8
100
AcDbSymbolTableRecord
100
AcDbViewportTableRecord
  2
*Active
 70
0
 10
0.0
 20
0.0
 11
1.0
 21
1.0
 12
0.0
 22
0.0
 13
0.0
 23
0.0
 14
0.5
 24
0.5
 15
0.5
 25
0.5
 16
0.0
 26
0.0
 36
1.0
 17
0.0
 27
0.0
 37
0.0
 40
1000.0
 41
1.34
 42
50.0
 43
0.0
 44
0.0
 50
0.0
 51
0.0
 71
0
 72
1000
 73
1
 74
3
 75
0
 76
0
 77
0
 78
0
281
0
 65
0
146
0.0
  0
ENDTAB
  0
TABLE
  2
LTYPE
  5
2
330
0
100
AcDbSymbolTable
 70
21
  0
LTYPE
  5
24
330
2
100
AcDbSymbolTableRecord
100
AcDbLinetypeTableRecord
  2
ByBlock
 70
0
  3

 72
65
 73
0
 40
0.0
  0
LTYPE
  5
25
330
2
100
AcDbSymbolTableRecord
100
AcDbLinetypeTableRecord
  2
ByLayer
 70
0
  3

 72
65
 73
0
 40
0.0
  0
LTYPE
  5
26
330
2
100
AcDbSymbolTableRecord
100
AcDbLinetypeTableRecord
  2
Continuous
 70
0
  3

 72
65
 73
0
 40
0.0
  0
LTYPE
  5
2F
330
2
100
AcDbSymbolTableRecord
100
AcDbLinetypeTableRecord
  2
CENTER
 70
0
  3
Center ____ _ ____ _ ____ _ ____ _ ____ _ ____
 72
65
 73
4
 40
5.08
 49
3.175
 74
0
 49
-0.635
 74
0
 49
0.635
 74
0
 49
-0.635
 74
0
  0
LTYPE
  5
30
330
2
100
AcDbSymbolTableRecord
100
AcDbLinetypeTableRecord
  2
CENTERX2
 70
0
  3
Center (2x) ________  __  ________  __  ________
 72
65
 73
4
 40
8.89
 49
6.35
 74
0
 49
-0.635
 74
0
 49
1.27
 74
0
 49
-0.635
 74
0
  0
LTYPE
  5
31
330
2
100
AcDbSymbolTableRecord
100
AcDbLinetypeTableRecord
  2
CENTER2
 70
0
  3
Center (.5x) ____ _ ____ _ ____ _ ____ _ ____
 72
65
 73
4
 40
2.54
 49
1.587
 74
0
 49
-0.318
 74
0
 49
0.318
 74
0
 49
-0.318
 74
0
  0
LTYPE
  5
32
330
2
100
AcDbSymbolTableRecord
100
AcDbLinetypeTableRecord
  2
DASHED
 70
0
  3
Dashed __ __ __ __ __ __ __ __ __ __ __ __ __ _
 72
65
 73
2
 40
1.524
 49
1.27
 74
0
 49
-0.254
 74
0
  0
LTYPE
  5
33
330
2
100
AcDbSymbolTableRecord
100
AcDbLinetypeTableRecord
  2
DASHEDX2
 70
0
  3
Dashed (2x) ____  ____  ____  ____  ____  ____
 72
65
 73
2
 40
3.048
 49
2.54
 74
0
 49
-0.508
 74
0
  0
LTYPE
  5
34
330
2
100
AcDbSymbolTableRecord
100
AcDbLinetypeTableRecord
  2
DASHED2
 70
0
  3
Dashed (.5x) _ _ _ _ _ _ _ _ _ _ _ _ _ _
 72
65
 73
2
 40
0.762
 49
0.635
 74
0
 49
-0.127
 74
0
  0
LTYPE
  5
35
330
2
100
AcDbSymbolTableRecord
100
AcDbLinetypeTableRecord
  2
PHANTOM
 70
0
  3
Phantom ______  __  __  ______  __  __  ______
 72
65
 73
6
 40
6.35
 49
3.175
 74
0
 49
-0.635
 74
0
 49
0.635
 74
0
 49
-0.635
 74
0
 49
0.635
 74
0
 49
-0.635
 74
0
  0
LTYPE
  5
36
330
2
100
AcDbSymbolTableRecord
100
AcDbLinetypeTableRecord
  2
PHANTOMX2
 70
0
  3
Phantom (2x)____________    ____    ____    ____________
 72
65
 73
6
 40
10.795
 49
6.35
 74
0
 49
-0.635
 74
0
 49
1.27
 74
0
 49
-0.635
 74
0
 49
1.27
 74
0
 49
-0.635
 74
0
  0
LTYPE
  5
37
330
2
100
AcDbSymbolTableRecord
100
AcDbLinetypeTableRecord
  2
PHANTOM2
 70
0
  3
Phantom (.5x) ___ _ _ ___ _ _ ___ _ _ ___ _ _ ___
 72
65
 73
6
 40
3.175
 49
1.587
 74
0
 49
-0.318
 74
0
 49
0.318
 74
0
 49
-0.318
 74
0
 49
0.318
 74
0
 49
-0.318
 74
0
  0
LTYPE
  5
38
330
2
100
AcDbSymbolTableRecord
100
AcDbLinetypeTableRecord
  2
DASHDOT
 70
0
  3
Dash dot __ . __ . __ . __ . __ . __ . __ . __
 72
65
 73
4
 40
3.556
 49
2.54
 74
0
 49
-0.508
 74
0
 49
0.0
 74
0
 49
-0.508
 74
0
  0
LTYPE
  5
39
330
2
100
AcDbSymbolTableRecord
100
AcDbLinetypeTableRecord
  2
DASHDOTX2
 70
0
  3
Dash dot (2x) ____  .  ____  .  ____  .  ____
 72
65
 73
4
 40
6.096
 49
5.08
 74
0
 49
-0.508
 74
0
 49
0.0
 74
0
 49
-0.508
 74
0
  0
LTYPE
  5
3A
330
2
100
AcDbSymbolTableRecord
100
AcDbLinetypeTableRecord
  2
DASHDOT2
 70
0
  3
Dash dot (.5x) _ . _ . _ . _ . _ . _ . _ . _
 72
65
 73
4
 40
1.778
 49
1.27
 74
0
 49
-0.254
 74
0
 49
0.0
 74
0
 49
-0.254
 74
0
  0
LTYPE
  5
3B
330
2
100
AcDbSymbolTableRecord
100
AcDbLinetypeTableRecord
  2
DOT
 70
0
  3
Dot .  .  .  .  .  .  .  .  .  .  .  .  .  .  .  .
 72
65
 73
2
 40
0.508
 49
0.0
 74
0
 49
-0.508
 74
0
  0
LTYPE
  5
3C
330
2
100
AcDbSymbolTableRecord
100
AcDbLinetypeTableRecord
  2
DOTX2
 70
0
  3
Dot (2x) .    .    .    .    .    .    .    . 
 72
65
 73
2
 40
1.016
 49
0.0
 74
0
 49
-1.016
 74
0
  0
LTYPE
  5
3D
330
2
100
AcDbSymbolTableRecord
100
AcDbLinetypeTableRecord
  2
DOT2
 70
0
  3
Dot (.5) . . . . . . . . . . . . . . . . . . . 
 72
65
 73
2
 40
0.254
 49
0.0
 74
0
 49
-0.254
 74
0
  0
LTYPE
  5
3E
330
2
100
AcDbSymbolTableRecord
100
AcDbLinetypeTableRecord
  2
DIVIDE
 70
0
  3
Divide __ . . __ . . __ . . __ . . __ . . __
 72
65
 73
6
 40
4.064
 49
2.54
 74
0
 49
-0.508
 74
0
 49
0.0
 74
0
 49
-0.508
 74
0
 49
0.0
 74
0
 49
-0.508
 74
0
  0
LTYPE
  5
3F
330
2
100
AcDbSymbolTableRecord
100
AcDbLinetypeTableRecord
  2
DIVIDEX2
 70
0
  3
Divide (2x) ____  . .  ____  . .  ____  . .  ____
 72
65
 73
6
 40
6.604
 49
5.08
 74
0
 49
-0.508
 74
0
 49
0.0
 74
0
 49
-0.508
 74
0
 49
0.0
 74
0
 49
-0.508
 74
0
  0
LTYPE
  5
40
330
2
100
AcDbSymbolTableRecord
100
AcDbLinetypeTableRecord
  2
DIVIDE2
 70
0
  3
Divide(.5x) _ . _ . _ . _ . _ . _ . _ . _
 72
65
 73
6
 40
2.032
 49
1.27
 74
0
 49
-0.254
 74
0
 49
0.0
 74
0
 49
-0.254
 74
0
 49
0.0
 74
0
 49
-0.254
 74
0
  0
ENDTAB
  0
TABLE
  2
LAYER
  5
1
330
0
100
AcDbSymbolTable
 70
6
  0
LAYER
  5
27
330
1
100
AcDbSymbolTableRecord
100
AcDbLayerTableRecord
  2
0
 70
0
 62
7
  6
Continuous
370
-3
390
13
347
21
  0
LAYER
  5
28
330
1
100
AcDbSymbolTableRecord
100
AcDbLayerTableRecord
  2
Defpoints
 70
0
 62
7
  6
Continuous
290
0
370
-3
390
13
347
21
  0
LAYER
  5
8A
330
1
100
AcDbSymbolTableRecord
100
AcDbLayerTableRecord
  2
CUT
 70
0
 62
1
  6
Continuous
370
-3
390
13
347
21
  0
LAYER
  5
8B
330
1
100
AcDbSymbolTableRecord
100
AcDbLayerTableRecord
  2
POCKET-KERF-7.5
 70
0
 62
5
  6
Continuous
370
-3
390
13
347
21
  0
LAYER
  5
8C
330
1
100
AcDbSymbolTableRecord
100
AcDbLayerTableRecord
  2
ENGRAVE-LABEL
 70
0
 62
3
  6
Continuous
370
-3
390
13
347
21
  0
LAYER
  5
8D
330
1
100
AcDbSymbolTableRecord
100
AcDbLayerTableRecord
  2
REFERENCE-SHEET
 70
0
 62
8
  6
Continuous
370
-3
390
13
347
21
  0
ENDTAB
  0
TABLE
  2
STYLE
  5
5
330
0
100
AcDbSymbolTable
 70
26
  0
STYLE
  5
29
330
5
100
AcDbSymbolTableRecord
100
AcDbTextStyleTableRecord
  2
Standard
 70
0
 40
0.0
 41
1.0
 50
0.0
 71
0
 42
2.5
  3
txt
  4

  0
STYLE
  5
41
330
5
100
AcDbSymbolTableRecord
100
AcDbTextStyleTableRecord
  2
OpenSans-Light
 70
0
 40
0.0
 41
1.0
 50
0.0
 71
0
 42
2.5
  3
OpenSans-Light.ttf
  4

  0
STYLE
  5
42
330
5
100
AcDbSymbolTableRecord
100
AcDbTextStyleTableRecord
  2
OpenSans-Light-Italic
 70
0
 40
0.0
 41
1.0
 50
0.0
 71
0
 42
2.5
  3
OpenSans-LightItalic.ttf
  4

  0
STYLE
  5
43
330
5
100
AcDbSymbolTableRecord
100
AcDbTextStyleTableRecord
  2
OpenSans
 70
0
 40
0.0
 41
1.0
 50
0.0
 71
0
 42
2.5
  3
OpenSans-Regular.ttf
  4

  0
STYLE
  5
44
330
5
100
AcDbSymbolTableRecord
100
AcDbTextStyleTableRecord
  2
OpenSans-Italic
 70
0
 40
0.0
 41
1.0
 50
0.0
 71
0
 42
2.5
  3
OpenSans-Italic.ttf
  4

  0
STYLE
  5
45
330
5
100
AcDbSymbolTableRecord
100
AcDbTextStyleTableRecord
  2
OpenSans-SemiBold
 70
0
 40
0.0
 41
1.0
 50
0.0
 71
0
 42
2.5
  3
OpenSans-SemiBold.ttf
  4

  0
STYLE
  5
46
330
5
100
AcDbSymbolTableRecord
100
AcDbTextStyleTableRecord
  2
OpenSans-SemiBoldItalic
 70
0
 40
0.0
 41
1.0
 50
0.0
 71
0
 42
2.5
  3
OpenSans-SemiBoldItalic.ttf
  4

  0
STYLE
  5
47
330
5
100
AcDbSymbolTableRecord
100
AcDbTextStyleTableRecord
  2
OpenSans-Bold
 70
0
 40
0.0
 41
1.0
 50
0.0
 71
0
 42
2.5
  3
OpenSans-Bold.ttf
  4

  0
STYLE
  5
48
330
5
100
AcDbSymbolTableRecord
100
AcDbTextStyleTableRecord
  2
OpenSans-BoldItalic
 70
0
 40
0.0
 41
1.0
 50
0.0
 71
0
 42
2.5
  3
OpenSans-BoldItalic.ttf
  4

  0
STYLE
  5
49
330
5
100
AcDbSymbolTableRecord
100
AcDbTextStyleTableRecord
  2
OpenSans-ExtraBold
 70
0
 40
0.0
 41
1.0
 50
0.0
 71
0
 42
2.5
  3
OpenSans-ExtraBold.ttf
  4

  0
STYLE
  5
4A
330
5
100
AcDbSymbolTableRecord
100
AcDbTextStyleTableRecord
  2
OpenSans-ExtraBoldItalic
 70
0
 40
0.0
 41
1.0
 50
0.0
 71
0
 42
2.5
  3
OpenSans-ExtraBoldItalic.ttf
  4

  0
STYLE
  5
4B
330
5
100
AcDbSymbolTableRecord
100
AcDbTextStyleTableRecord
  2
OpenSansCondensed-Bold
 70
0
 40
0.0
 41
1.0
 50
0.0
 71
0
 42
2.5
  3
OpenSansCondensed-Bold.ttf
  4

  0
STYLE
  5
4C
330
5
100
AcDbSymbolTableRecord
100
AcDbTextStyleTableRecord
  2
OpenSansCondensed-Light
 70
0
 40
0.0
 41
1.0
 50
0.0
 71
0
 42
2.5
  3
OpenSansCondensed-Light.ttf
  4

  0
STYLE
  5
4D
330
5
100
AcDbSymbolTableRecord
100
AcDbTextStyleTableRecord
  2
OpenSansCondensed-Italic
 70
0
 40
0.0
 41
1.0
 50
0.0
 71
0
 42
2.5
  3
OpenSansCondensed-LightItalic.ttf
  4

  0
STYLE
  5
4E
330
5
100
AcDbSymbolTableRecord
100
AcDbTextStyleTableRecord
  2
LiberationSans
 70
0
 40
0.0
 41
1.0
 50
0.0
 71
0
 42
2.5
  3
LiberationSans-Regular.ttf
  4

  0
STYLE
  5
4F
330
5
100
AcDbSymbolTableRecord
100
AcDbTextStyleTableRecord
  2
LiberationSans-Bold
 70
0
 40
0.0
 41
1.0
 50
0.0
 71
0
 42
2.5
  3
LiberationSans-Bold.ttf
  4

  0
STYLE
  5
50
330
5
100
AcDbSymbolTableRecord
100
AcDbTextStyleTableRecord
  2
LiberationSans-BoldItalic
 70
0
 40
0.0
 41
1.0
 50
0.0
 71
0
 42
2.5
  3
LiberationSans-BoldItalic.ttf
  4

  0
STYLE
  5
51
330
5
100
AcDbSymbolTableRecord
100
AcDbTextStyleTableRecord
  2
LiberationSans-Italic
 70
0
 40
0.0
 41
1.0
 50
0.0
 71
0
 42
2.5
  3
LiberationSans-Italic.ttf
  4

  0
STYLE
  5
52
330
5
100
AcDbSymbolTableRecord
100
AcDbTextStyleTableRecord
  2
LiberationSerif
 70
0
 40
0.0
 41
1.0
 50
0.0
 71
0
 42
2.5
  3
LiberationSerif-Regular.ttf
  4

  0
STYLE
  5
53
330
5
100
AcDbSymbolTableRecord
100
AcDbTextStyleTableRecord
  2
LiberationSerif-Bold
 70
0
 40
0.0
 41
1.0
 50
0.0
 71
0
 42
2.5
  3
LiberationSerif-Bold.ttf
  4

  0
STYLE
  5
54
330
5
100
AcDbSymbolTableRecord
100
AcDbTextStyleTableRecord
  2
LiberationSerif-BoldItalic
 70
0
 40
0.0
 41
1.0
 50
0.0
 71
0
 42
2.5
  3
LiberationSerif-BoldItalic.ttf
  4

  0
STYLE
  5
55
330
5
100
AcDbSymbolTableRecord
100
AcDbTextStyleTableRecord
  2
LiberationSerif-Italic
 70
0
 40
0.0
 41
1.0
 50
0.0
 71
0
 42
2.5
  3
LiberationSerif-Italic.ttf
  4

  0
STYLE
  5
56
330
5
100
AcDbSymbolTableRecord
100
AcDbTextStyleTableRecord
  2
LiberationMono
 70
0
 40
0.0
 41
1.0
 50
0.0
 71
0
 42
2.5
  3
LiberationMono-Regular.ttf
  4

  0
STYLE
  5
57
330
5
100
AcDbSymbolTableRecord
100
AcDbTextStyleTableRecord
  2
LiberationMono-Bold
 70
0
 40
0.0
 41
1.0
 50
0.0
 71
0
 42
2.5
  3
LiberationMono-Bold.ttf
  4

  0
STYLE
  5
58
330
5
100
AcDbSymbolTableRecord
100
AcDbTextStyleTableRecord
  2
LiberationMono-BoldItalic
 70
0
 40
0.0
 41
1.0
 50
0.0
 71
0
 42
2.5
  3
LiberationMono-BoldItalic.ttf
  4

  0
STYLE
  5
59
330
5
100
AcDbSymbolTableRecord
100
AcDbTextStyleTableRecord
  2
LiberationMono-Italic
 70
0
 40
0.0
 41
1.0
 50
0.0
 71
0
 42
2.5
  3
LiberationMono-Italic.ttf
  4

  0
ENDTAB
  0
TABLE
  2
VIEW
  5
7
330
0
100
AcDbSymbolTable
 70
0
  0
ENDTAB
  0
TABLE
  2
UCS
  5
6
330
0
100
AcDbSymbolTable
 70
0
  0
ENDTAB
  0
TABLE
  2
APPID
  5
3
330
0
100
AcDbSymbolTable
 70
3
  0
APPID
  5
2A
330
3
100
AcDbSymbolTableRecord
100
AcDbRegAppTableRecord
  2
ACAD
 70
0
  0
APPID
  5
168
330
3
100
AcDbSymbolTableRecord
100
AcDbRegAppTableRecord
  2
HATCHBACKGROUNDCOLOR
 70
0
  0
APPID
  5
169
330
3
100
AcDbSymbolTableRecord
100
AcDbRegAppTableRecord
  2
EZDXF
 70
0
  0
ENDTAB
  0
TABLE
  2
DIMSTYLE
  5
4
330
0
100
AcDbSymbolTable
 70
12
100
AcDbDimStyleTable
  0
DIMSTYLE
105
2B
330
4
100
AcDbSymbolTableRecord
100
AcDbDimStyleTableRecord
  2
Standard
 70
0
 40
1.0
 41
2.5
 42
0.625
 43
3.75
 44
1.25
 45
0.0
 46
0.0
 47
0.0
 48
0.0
 49
2.5
140
2.5
141
2.5
142
0.0
143
0.03937007874
144
1.0
145
0.0
146
1.0
147
0.625
148
0.0
 69
0
 70
0
 71
0
 72
0
 73
0
 74
0
 75
0
 76
0
 77
1
 78
8
 79
3
170
0
171
3
172
1
173
0
174
0
175
0
176
0
177
0
178
0
179
2
271
2
272
2
273
2
274
3
275
0
276
0
277
2
278
44
279
0
280
0
281
0
282
0
283
0
284
8
285
0
286
0
288
0
289
3
290
0
371
-2
372
-2
  0
DIMSTYLE
105
73
330
4
100
AcDbSymbolTableRecord
100
AcDbDimStyleTableRecord
  2
EZDXF
 70
0
 40
1.0
 41
0.175
 42
0.125
 43
3.75
 44
0.375
 45
0.0
 46
0.0
 47
0.0
 48
0.0
 49
2.5
140
0.25
141
2.5
142
0.0
143
0.03937007874
144
100.0
145
0.0
146
0.5
147
0.1
148
0.0
 69
0
 70
0
 71
0
 72
0
 73
0
 74
0
 75
0
 76
0
 77
1
 78
12
 79
3
170
0
171
3
172
1
173
0
174
0
175
0
176
0
177
0
178
0
179
2
271
2
272
2
273
2
274
3
275
0
276
0
277
2
278
46
279
2
280
0
281
0
282
0
283
0
284
8
285
0
286
0
288
1
289
3
290
0
340
4C
342
74
371
-2
372
-2
  0
DIMSTYLE
105
7C
330
4
100
AcDbSymbolTableRecord
100
AcDbDimStyleTableRecord
  2
EZ_M_100_H25_CM
 70
0
 40
1.0
 41
0.25
 42
0.125
 43
3.75
 44
0.375
 45
0.0
 46
0.0
 47
0.0
 48
0.0
 49
2.5
140
0.25
141
2.5
142
0.125
143
0.03937007874
144
100.0
145
0.0
146
0.5
147
0.1
148
0.0
 69
0
 70
0
 71
0
 72
0
 73
0
 74
0
 75
0
 76
0
 77
1
 78
12
 79
3
170
0
171
3
172
1
173
0
174
0
175
0
176
0
177
0
178
0
179
2
271
2
272
2
273
2
274
3
275
0
276
0
277
2
278
46
279
2
280
0
281
0
282
0
283
0
284
8
285
0
286
0
288
1
289
3
290
0
340
4C
371
-2
372
-2
  0
DIMSTYLE
105
7D
330
4
100
AcDbSymbolTableRecord
100
AcDbDimStyleTableRecord
  2
EZ_M_50_H25_CM
 70
0
 40
1.0
 41
0.125
 42
0.0625
 43
3.75
 44
0.1875
 45
0.0
 46
0.0
 47
0.0
 48
0.0
 49
2.5
140
0.125
141
2.5
142
0.0625
143
0.03937007874
144
100.0
145
0.0
146
0.5
147
0.05
148
0.0
 69
0
 70
0
 71
0
 72
0
 73
0
 74
0
 75
0
 76
0
 77
1
 78
12
 79
3
170
0
171
3
172
1
173
0
174
0
175
0
176
0
177
0
178
0
179
2
271
2
272
2
273
2
274
3
275
0
276
0
277
2
278
46
279
2
280
0
281
0
282
0
283
0
284
8
285
0
286
0
288
1
289
3
290
0
340
4C
371
-2
372
-2
  0
DIMSTYLE
105
7E
330
4
100
AcDbSymbolTableRecord
100
AcDbDimStyleTableRecord
  2
EZ_M_25_H25_CM
 70
0
 40
1.0
 41
0.0625
 42
0.03125
 43
3.75
 44
0.09375
 45
0.0
 46
0.0
 47
0.0
 48
0.0
 49
2.5
140
0.0625
141
2.5
142
0.03125
143
0.03937007874
144
100.0
145
0.0
146
0.5
147
0.025
148
0.0
 69
0
 70
0
 71
0
 72
0
 73
0
 74
0
 75
0
 76
0
 77
1
 78
12
 79
3
170
0
171
3
172
1
173
0
174
0
175
0
176
0
177
0
178
0
179
2
271
2
272
2
273
2
274
3
275
0
276
0
277
2
278
46
279
2
280
0
281
0
282
0
283
0
284
8
285
0
286
0
288
1
289
3
290
0
340
4C
371
-2
372
-2
  0
DIMSTYLE
105
7F
330
4
100
AcDbSymbolTableRecord
100
AcDbDimStyleTableRecord
  2
EZ_M_20_H25_CM
 70
0
 40
1.0
 41
0.05
 42
0.025
 43
3.75
 44
0.07500000000000001
 45
0.0
 46
0.0
 47
0.0
 48
0.0
 49
2.5
140
0.05
141
2.5
142
0.025
143
0.03937007874
144
100.0
145
0.0
146
0.5
147
0.020000000000000004
148
0.0
 69
0
 70
0
 71
0
 72
0
 73
0
 74
0
 75
0
 76
0
 77
1
 78
12
 79
3
170
0
171
3
172
1
173
0
174
0
175
0
176
0
177
0
178
0
179
2
271
2
272
2
273
2
274
3
275
0
276
0
277
2
278
46
279
2
280
0
281
0
282
0
283
0
284
8
285
0
286
0
288
1
289
3
290
0
340
4C
371
-2
372
-2
  0
DIMSTYLE
105
80
330
4
100
AcDbSymbolTableRecord
100
AcDbDimStyleTableRecord
  2
EZ_M_10_H25_CM
 70
0
 40
1.0
 41
0.025
 42
0.0125
 43
3.75
 44
0.037500000000000006
 45
0.0
 46
0.0
 47
0.0
 48
0.0
 49
2.5
140
0.025
141
2.5
142
0.0125
143
0.03937007874
144
100.0
145
0.0
146
0.5
147
0.010000000000000002
148
0.0
 69
0
 70
0
 71
0
 72
0
 73
0
 74
0
 75
0
 76
0
 77
1
 78
12
 79
3
170
0
171
3
172
1
173
0
174
0
175
0
176
0
177
0
178
0
179
2
271
2
272
2
273
2
274
3
275
0
276
0
277
2
278
46
279
2
280
0
281
0
282
0
283
0
284
8
285
0
286
0
288
1
289
3
290
0
340
4C
371
-2
372
-2
  0
DIMSTYLE
105
81
330
4
100
AcDbSymbolTableRecord
100
AcDbDimStyleTableRecord
  2
EZ_M_5_H25_CM
 70
0
 40
1.0
 41
0.0125
 42
0.00625
 43
3.75
 44
0.018750000000000003
 45
0.0
 46
0.0
 47
0.0
 48
0.0
 49
2.5
140
0.0125
141
2.5
142
0.00625
143
0.03937007874
144
100.0
145
0.0
146
0.5
147
0.005000000000000001
148
0.0
 69
0
 70
0
 71
0
 72
0
 73
0
 74
0
 75
0
 76
0
 77
1
 78
12
 79
3
170
0
171
3
172
1
173
0
174
0
175
0
176
0
177
0
178
0
179
2
271
2
272
2
273
2
274
3
275
0
276
0
277
2
278
46
279
2
280
0
281
0
282
0
283
0
284
8
285
0
286
0
288
1
289
3
290
0
340
4C
371
-2
372
-2
  0
DIMSTYLE
105
82
330
4
100
AcDbSymbolTableRecord
100
AcDbDimStyleTableRecord
  2
EZ_M_1_H25_CM
 70
0
 40
1.0
 41
0.0025
 42
0.00125
 43
3.75
 44
0.00375
 45
0.0
 46
0.0
 47
0.0
 48
0.0
 49
2.5
140
0.0025
141
2.5
142
0.00125
143
0.03937007874
144
100.0
145
0.0
146
0.5
147
0.001
148
0.0
 69
0
 70
0
 71
0
 72
0
 73
0
 74
0
 75
0
 76
0
 77
1
 78
12
 79
3
170
0
171
3
172
1
173
0
174
0
175
0
176
0
177
0
178
0
179
2
271
2
272
2
273
2
274
3
275
0
276
0
277
2
278
46
279
2
280
0
281
0
282
0
283
0
284
8
285
0
286
0
288
1
289
3
290
0
340
4C
371
-2
372
-2
  0
DIMSTYLE
105
83
330
4
100
AcDbSymbolTableRecord
100
AcDbDimStyleTableRecord
  2
EZ_RADIUS
 70
0
 40
1.0
 41
0.25
 42
0.125
 43
3.75
 44
0.375
 45
0.0
 46
0.0
 47
0.0
 48
0.0
 49
2.5
140
0.25
141
0.0
142
0.0
143
0.03937007874
144
100.0
145
0.0
146
0.5
147
0.1
148
0.0
 69
0
 70
0
 71
0
 72
0
 73
0
 74
0
 75
0
 76
0
 77
1
 78
12
 79
3
170
0
171
3
172
0
173
0
174
0
175
0
176
0
177
0
178
0
179
2
271
2
272
2
273
2
274
3
275
0
276
0
277
2
278
46
279
1
280
0
281
0
282
0
283
0
284
8
285
0
286
0
288
1
289
3
290
0
340
4C
342
84
371
-2
372
-2
  0
DIMSTYLE
105
88
330
4
100
AcDbSymbolTableRecord
100
AcDbDimStyleTableRecord
  2
EZ_RADIUS_INSIDE
 70
0
 40
1.0
 41
0.25
 42
0.125
 43
3.75
 44
0.375
 45
0.0
 46
0.0
 47
0.0
 48
0.0
 49
2.5
140
0.25
141
0.0
142
0.0
143
0.03937007874
144
100.0
145
0.0
146
0.5
147
0.1
148
0.0
 69
0
 70
0
 71
0
 72
0
 73
0
 74
0
 75
0
 76
0
 77
0
 78
12
 79
3
170
0
171
3
172
0
173
0
174
1
175
0
176
0
177
0
178
0
179
2
271
2
272
2
273
2
274
3
275
0
276
0
277
2
278
46
279
0
280
0
281
0
282
0
283
0
284
8
285
0
286
0
288
1
289
0
290
0
340
4C
342
84
371
-2
372
-2
  0
DIMSTYLE
105
89
330
4
100
AcDbSymbolTableRecord
100
AcDbDimStyleTableRecord
  2
EZ_CURVED
 70
0
 40
1.0
 41
0.25
 42
0.125
 43
3.75
 44
0.375
 45
0.0
 46
0.0
 47
0.0
 48
0.0
 49
2.5
140
0.25
141
2.5
142
0.0
143
0.03937007874
144
100.0
145
0.0
146
0.5
147
0.1
148
0.0
 69
0
 70
0
 71
0
 72
0
 73
0
 74
0
 75
0
 76
0
 77
1
 78
12
 79
2
 90
2
170
0
171
3
172
1
173
0
174
0
175
0
176
0
177
0
178
0
179
2
271
2
272
2
273
2
274
3
275
0
276
0
277
2
278
46
279
2
280
0
281
0
282
0
283
0
284
8
285
0
286
0
288
1
289
3
290
0
340
4C
371
-2
372
-2
  0
ENDTAB
  0
TABLE
  2
BLOCK_RECORD
  5
9
330
0
100
AcDbSymbolTable
 70
5
  0
BLOCK_RECORD
  5
17
330
9
100
AcDbSymbolTableRecord
100
AcDbBlockTableRecord
  2
*Model_Space
340
1A
 70
0
280
1
281
0
  0
BLOCK_RECORD
  5
1B
330
9
100
AcDbSymbolTableRecord
100
AcDbBlockTableRecord
  2
*Paper_Space
340
1E
 70
0
280
1
281
0
  0
BLOCK_RECORD
  5
74
330
9
100
AcDbSymbolTableRecord
100
AcDbBlockTableRecord
  2
_ARCHTICK
340
0
 70
0
280
1
281
0
  0
BLOCK_RECORD
  5
78
330
9
100
AcDbSymbolTableRecord
100
AcDbBlockTableRecord
  2
_CLOSEDFILLED
340
0
 70
0
280
1
281
0
  0
BLOCK_RECORD
  5
84
330
9
100
AcDbSymbolTableRecord
100
AcDbBlockTableRecord
  2
_CLOSEDBLANK
340
0
 70
0
280
1
281
0
  0
ENDTAB
  0
ENDSEC
  0
SECTION
  2
BLOCKS
  0
BLOCK
  5
18
330
17
100
AcDbEntity
  8
0
100
AcDbBlockBegin
  2
*Model_Space
 70
0
 10
0.0
 20
0.0
 30
0.0
  3
*Model_Space
  1

  0
ENDBLK
  5
19
330
17
100
AcDbEntity
  8
0
100
AcDbBlockEnd
  0
BLOCK
  5
1C
330
1B
100
AcDbEntity
  8
0
100
AcDbBlockBegin
  2
*Paper_Space
 70
0
 10
0.0
 20
0.0
 30
0.0
  3
*Paper_Space
  1

  0
ENDBLK
  5
1D
330
1B
100
AcDbEntity
  8
0
100
AcDbBlockEnd
  0
BLOCK
  5
75
330
74
100
AcDbEntity
  8
0
100
AcDbBlockBegin
  2
_ARCHTICK
 70
0
 10
0.0
 20
0.0
 30
0.0
  3
_ARCHTICK
  1

  0
LWPOLYLINE
  5
77
330
74
100
AcDbEntity
  8
0
  6
BYBLOCK
 62
0
100
AcDbPolyline
 90
2
 70
0
 43
0.15
 10
-0.5
 20
-0.5
 10
0.5
 20
0.5
  0
ENDBLK
  5
76
330
74
100
AcDbEntity
  8
0
100
AcDbBlockEnd
  0
BLOCK
  5
79
330
78
100
AcDbEntity
  8
0
100
AcDbBlockBegin
  2
_CLOSEDFILLED
 70
0
 10
0.0
 20
0.0
 30
0.0
  3
_CLOSEDFILLED
  1

  0
SOLID
  5
7B
330
78
100
AcDbEntity
  8
0
  6
BYBLOCK
 62
0
100
AcDbTrace
 10
-1.0
 20
0.16439898372402537
 30
0.0
 11
0.0
 21
0.0
 31
0.0
 12
-1.0
 22
-0.16439898372402537
 32
0.0
 13
-1.0
 23
-0.16439898372402537
 33
0.0
  0
ENDBLK
  5
7A
330
78
100
AcDbEntity
  8
0
100
AcDbBlockEnd
  0
BLOCK
  5
85
330
84
100
AcDbEntity
  8
0
100
AcDbBlockBegin
  2
_CLOSEDBLANK
 70
0
 10
0.0
 20
0.0
 30
0.0
  3
_CLOSEDBLANK
  1

  0
LWPOLYLINE
  5
87
330
84
100
AcDbEntity
  8
0
  6
BYBLOCK
 62
0
100
AcDbPolyline
 90
3
 70
1
 10
-1.0
 20
0.16439898372402537
 10
0.0
 20
0.0
 10
-1.0
 20
-0.16439898372402537
  0
ENDBLK
  5
86
330
84
100
AcDbEntity
  8
0
100
AcDbBlockEnd
  0
ENDSEC
  0
SECTION
  2
ENTITIES
  0
LWPOLYLINE
  5
8E
330
17
100
AcDbEntity
  8
REFERENCE-SHEET
100
AcDbPolyline
 90
4
 70
1
 10
0.0
 20
0.0
 10
2440.0
 20
0.0
 10
2440.0
 20
1220.0
 10
0.0
 20
1220.0
  0
TEXT
  5
8F
330
17
100
AcDbEntity
  8
REFERENCE-SHEET
100
AcDbText
 10
0.0
 20
1275.0
 30
0.0
 40
40.0
  1
10 mm BOARD - SHEET 1/1 - 2440 x 1220  (kerf side = BACK face, show face down)
 11
0.0
 21
1275.0
 31
0.0
100
AcDbText
  0
LWPOLYLINE
  5
90
330
17
100
AcDbEntity
  8
CUT
100
AcDbPolyline
 90
4
 70
1
 10
1528.5774342614518
 20
18.0
 10
1774.5998176916555
 20
344.396438460975
 42
0.33466596078782695
 10
18.0
 20
344.3964384609752
 10
264.02238343020383
 20
18.000000000000114
 42
-0.33466596078782695
  0
LWPOLYLINE
  5
91
330
17
100
AcDbEntity
  8
POCKET-KERF-7.5
100
AcDbPolyline
 90
4
 70
1
 10
1521.7074568758928
 20
23.761987633247525
 10
1526.5191960591212
 20
20.177693276950475
 10
1770.090967917503
 20
347.16083753806055
 10
1765.2792287342743
 20
350.7451318943576
  0
LWPOLYLINE
  5
92
330
17
100
AcDbEntity
  8
POCKET-KERF-7.5
100
AcDbPolyline
 90
4
 70
1
 10
1512.096865217277
 20
30.794454087974287
 10
1516.9489102547113
 20
27.264913189400346
 10
1756.7998948709487
 20
356.9870535678333
 10
1751.947849833514
 20
360.51659446640724
  0
LWPOLYLINE
  5
93
330
17
100
AcDbEntity
  8
POCKET-KERF-7.5
100
AcDbPolyline
 90
4
 70
1
 10
1502.4072034673268
 20
37.71756838986699
 10
1507.2989313425005
 20
34.243234152167595
 10
1743.3983311638221
 20
366.66203338158084
 10
1738.5066032886489
 20
370.13636761928046
  0
LWPOLYLINE
  5
94
330
17
100
AcDbEntity
  8
POCKET-KERF-7.5
100
AcDbPolyline
 90
4
 70
1
 10
1492.6397158063394
 20
44.53044159123869
 10
1497.5704984073946
 20
41.11176012887194
 10
1729.8879975952525
 20
376.18453468421086
 10
1724.9572149941973
 20
379.6032161465776
  0
LWPOLYLINE
  5
95
330
17
100
AcDbEntity
  8
POCKET-KERF-7.5
100
AcDbPolyline
 90
4
 70
1
 10
1482.7956564076799
 20
51.23219889967485
 10
1487.7648606080213
 20
47.86960918112303
 10
1716.270628930731
 20
385.55333475930587
 10
1711.3014247303895
 20
388.91592447785746
  0
LWPOLYLINE
  5
96
330
17
100
AcDbEntity
  8
POCKET-KERF-7.5
100
AcDbPolyline
 90
4
 70
1
 10
1472.8762892767443
 20
57.8219797903594
 10
1477.8832770163328
 20
54.51591358176487
 10
1702.5479736793602
 20
394.7672306261273
 10
1697.5409859397716
 20
398.0732968347218
  0
LWPOLYLINE
  5
97
330
17
100
AcDbEntity
  8
POCKET-KERF-7.5
100
AcDbPolyline
 90
4
 70
1
 10
1462.8828880886574
 20
64.29893811656919
 10
1467.9270164559396
 20
61.04981992629362
 10
1688.7217938693427
 20
403.82503919408
 10
1683.6776655020606
 20
407.07415738435554
  0
LWPOLYLINE
  5
98
330
17
100
AcDbEntity
  8
POCKET-KERF-7.5
100
AcDbPolyline
 90
4
 70
1
 10
1452.8167360247287
 20
70.66224221832108
 10
1457.897357339188
 20
67.47048924243741
 10
1674.7938648217312
 20
412.72559741462413
 10
1669.713243507272
 20
415.9173503905076
  0
LWPOLYLINE
  5
99
330
17
100
AcDbEntity
  8
POCKET-KERF-7.5
100
AcDbPolyline
 90
4
 70
1
 10
1442.679125607687
 20
76.91107502915915
 10
1447.7955875030082
 20
73.777097097883
 10
1660.7659749224701
 20
421.4677624306147
 10
1655.649513027149
 20
424.60174036189085
  0
LWPOLYLINE
  5
9A
330
17
100
AcDbEntity
  8
POCKET-KERF-7.5
100
AcDbPolyline
 90
4
 70
1
 10
1432.47135853572
 20
83.04463418106916
 10
1437.6230040435548
 20
79.96883370613504
 10
1646.6399253927643
 20
430.05041172304783
 10
1641.4882798849294
 20
433.12621219798194
  0
LWPOLYLINE
  5
9B
330
17
100
AcDbEntity
  8
POCKET-KERF-7.5
100
AcDbPolyline
 90
4
 70
1
 10
1422.1947455153295
 20
89.06213210750481
 10
1427.380913149653
 20
86.04490403049523
 10
1632.417530057796
 20
438.4724432551943
 10
1627.2313624234723
 20
441.4896713322041
  0
LWPOLYLINE
  5
9C
330
17
100
AcDbEntity
  8
POCKET-KERF-7.5
100
AcDbPolyline
 90
4
 70
1
 10
1411.850606093035
 20
94.96279614451268
 10
1417.0706299350823
 20
92.00452788614652
 10
1618.100615113824
 20
446.73277561410544
 10
1612.8805912717767
 20
449.69104387247137
  0
LWPOLYLINE
  5
9D
330
17
100
AcDbEntity
  8
POCKET-KERF-7.5
100
AcDbPolyline
 90
4
 70
1
 10
1401.4402684859374
 20
100.7458686299455
 10
1406.6934782697099
 20
97.84694004033253
 10
1603.691018893696
 20
454.830348149469
 10
1598.4378091099234
 20
457.7292767390822
  0
LWPOLYLINE
  5
9E
330
17
100
AcDbEntity
  8
POCKET-KERF-7.5
100
AcDbPolyline
 90
4
 70
1
 10
1390.965069411176
 20
106.41060700074748
 10
1396.2507906095054
 20
103.57139031061395
 10
1589.1905916308003
 20
462.7641211098
 10
1583.9048704324712
 20
465.6033377999335
  0
LWPOLYLINE
  5
9F
330
17
100
AcDbEntity
  8
POCKET-KERF-7.5
100
AcDbPolyline
 90
4
 70
1
 10
1380.4263539142876
 20
111.95628388830178
 10
1385.7439078254463
 20
109.1771436611954
 10
1574.6011952214915
 20
470.533075775947
 10
1569.283641310333
 20
473.3122160030534
  0
LWPOLYLINE
  5
A0
330
17
100
AcDbEntity
  8
POCKET-KERF-7.5
100
AcDbPolyline
 90
4
 70
1
 10
1369.8254751964985
 20
117.38218721182716
 10
1375.1741790313479
 20
114.66348029730557
 10
1559.9247029860169
 20
478.13621459189983
 10
1554.5759991511675
 20
480.8549215064214
  0
LWPOLYLINE
  5
A1
330
17
100
AcDbEntity
  8
POCKET-KERF-7.5
100
AcDbPolyline
 90
4
 70
1
 10
1359.1637944409713
 20
122.68762026980977
 10
1364.5429614106336
 20
120.02969575762069
 10
1545.1629994279765
 20
485.5725612928774
 10
1539.7838324583145
 20
488.23048580506673
  0
LWPOLYLINE
  5
A2
330
17
100
AcDbEntity
  8
POCKET-KERF-7.5
100
AcDbPolyline
 90
4
 70
1
 10
1348.442680638024
 20
127.87190182946367
 10
1353.8516200420672
 20
125.2751010047202
 10
1530.3179799923491
 20
492.8411610306846
 10
1524.9090405883062
 20
495.4379618554283
  0
LWPOLYLINE
  5
A3
330
17
100
AcDbEntity
  8
POCKET-KERF-7.5
100
AcDbPolyline
 90
4
 70
1
 10
1337.663510409348
 20
132.93436621420133
 10
1343.1015277244749
 20
130.39902251356025
 10
1515.39155082211
 20
499.9410804963151
 10
1509.953533506983
 20
502.4764241969562
  0
LWPOLYLINE
  5
A4
330
17
100
AcDbEntity
  8
POCKET-KERF-7.5
100
AcDbPolyline
 90
4
 70
1
 10
1326.8276678312457
 20
137.87436338910913
 10
1332.2940648004717
 20
135.40080235795665
 10
1500.3856285134775
 20
506.8714080397923
 10
1494.9192315442515
 20
509.344969070945
  0
LWPOLYLINE
  5
A5
330
17
100
AcDbEntity
  8
POCKET-KERF-7.5
100
AcDbPolyline
 90
4
 70
1
 10
1315.9365442569115
 20
142.69125904441412
 10
1321.4306189792233
 20
140.2797982950648
 10
1485.3021398698156
 20
513.6312537872291
 10
1479.8080651475038
 20
516.0427145365784
  0
LWPOLYLINE
  5
A6
330
17
100
AcDbEntity
  8
POCKET-KERF-7.5
100
AcDbPolyline
 90
4
 70
1
 10
1304.9915381377778
 20
147.3844346769299
 10
1310.5125851582598
 20
145.0353838478445
 10
1470.1430216542296
 20
520.2197497550868
 10
1464.6219746337476
 20
522.5688005841724
  0
LWPOLYLINE
  5
A7
330
17
100
AcDbEntity
  8
POCKET-KERF-7.5
100
AcDbPolyline
 90
4
 70
1
 10
1293.9940548439502
 20
151.95328766947586
 10
1299.5413652443658
 20
149.66694838550274
 10
1454.9102203408759
 20
526.6360499616306
 10
1449.36290994046
 20
528.9223892456038
  0
LWPOLYLINE
  5
A8
330
17
100
AcDbEntity
  8
POCKET-KERF-7.5
100
AcDbPolyline
 90
4
 70
1
 10
1282.9455064837532
 20
156.39723136825344
 10
1288.5183679735735
 20
154.1738972018991
 10
1439.605691865033
 20
532.8793305355531
 10
1434.0328303752126
 20
535.1026647019072
  0
LWPOLYLINE
  5
A9
330
17
100
AcDbEntity
  8
POCKET-KERF-7.5
100
AcDbPolyline
 90
4
 70
1
 10
1271.8473117224125
 20
160.71569515817515
 10
1277.445008730275
 20
158.55565159190888
 10
1424.2314013719522
 20
538.9487898217631
 10
1418.6337043640895
 20
541.1088333880293
  0
LWPOLYLINE
  5
AA
330
17
100
AcDbEntity
  8
POCKET-KERF-7.5
100
AcDbPolyline
 90
4
 70
1
 10
1260.7008955998936
 20
164.90812453613316
 10
1266.3227093654843
 20
162.81164892572983
 10
1408.7893229645263
 20
544.8436484843199
 10
1403.1675091989355
 20
546.940124094723
  0
LWPOLYLINE
  5
AB
330
17
100
AcDbEntity
  8
POCKET-KERF-7.5
100
AcDbPolyline
 90
4
 70
1
 10
1249.5076893479225
 20
168.97398118219823
 10
1255.1528980142668
 20
166.94134272112544
 10
1393.2814394498118
 20
550.5631496065034
 10
1387.6362307834677
 20
552.595788067576
  0
LWPOLYLINE
  5
AC
330
17
100
AcDbEntity
  8
POCKET-KERF-7.5
100
AcDbPolyline
 90
4
 70
1
 10
1238.2691302062124
 20
172.91274302874228
 10
1243.9370089123634
 20
170.94420271359502
 10
1377.709742084429
 20
556.1065587880024
 10
1372.041863378278
 20
558.0750991031495
  0
LWPOLYLINE
  5
AD
330
17
100
AcDbEntity
  8
POCKET-KERF-7.5
100
AcDbPolyline
 90
4
 70
1
 10
1226.9866612379158
 20
176.7239043274734
 10
1232.6764822120288
 20
174.8197149244612
 10
1362.0762303188785
 20
561.4731642392154
 10
1356.3864093447655
 20
563.3773536422278
  0
LWPOLYLINE
  5
AE
330
17
100
AcDbEntity
  8
POCKET-KERF-7.5
100
AcDbPolyline
 90
4
 70
1
 10
1215.6617311443347
 20
180.4069757143749
 10
1221.3727637971149
 20
178.56738172686588
 10
1346.382911540807
 20
566.6622768726456
 10
1340.6718788880269
 20
568.5018708601547
  0
LWPOLYLINE
  5
AF
330
17
100
AcDbEntity
  8
POCKET-KERF-7.5
100
AcDbPolyline
 90
4
 70
1
 10
1204.2957940788995
 20
183.9614842725415
 10
1210.0273050974117
 20
182.18672190966788
 10
1330.6318008172525
 20
571.6732303913819
 10
1324.9002897987402
 20
573.4479927542553
  0
LWPOLYLINE
  5
B0
330
17
100
AcDbEntity
  8
POCKET-KERF-7.5
100
AcDbPolyline
 90
4
 70
1
 10
1192.8903094604536
 20
187.3869735929029
 10
1198.6415629022822
 20
185.6772707392306
 10
1314.8249206359055
 20
576.5053813746533
 10
1309.073667194077
 20
578.2150842283256
  0
LWPOLYLINE
  5
B1
330
17
100
AcDbEntity
  8
POCKET-KERF-7.5
100
AcDbPolyline
 90
4
 70
1
 10
1181.4467417858596
 20
190.68300383282804
 10
1187.216999173605
 20
189.0385800190959
 10
1298.9643006454125
 20
581.1581093604467
 10
1293.194043257667
 20
582.8025331741786
  0
LWPOLYLINE
  5
B2
330
17
100
AcDbEntity
  8
POCKET-KERF-7.5
100
AcDbPolyline
 90
4
 70
1
 10
1169.966560441953
 20
193.84915177260245
 10
1175.755080858055
 20
192.2702181475338
 10
1283.051977394767
 20
585.6308169251738
 10
1277.263456978665
 20
587.2097505502425
  0
LWPOLYLINE
  5
B3
330
17
100
AcDbEntity
  8
POCKET-KERF-7.5
100
AcDbPolyline
 90
4
 70
1
 10
1158.45123951687
 20
196.88501086977027
 10
1164.2572796987426
 20
195.3717701729609
 10
1267.0899940718082
 20
589.9229297603849
 10
1261.2839538899357
 20
591.4361704571945
  0
LWPOLYLINE
  5
B4
330
17
100
AcDbEntity
  8
POCKET-KERF-7.5
100
AcDbPolyline
 90
4
 70
1
 10
1146.9022576107686
 20
199.79019131133668
 10
1152.7250720462384
 20
198.34283784722197
 10
1251.0804002408704
 20
594.0338967465099
 10
1245.2575858054006
 20
595.4812502106246
  0
LWPOLYLINE
  5
B5
330
17
100
AcDbEntity
  8
POCKET-KERF-7.5
100
AcDbPolyline
 90
4
 70
1
 10
1135.321097645974
 20
202.5643200638192
 10
1141.1599386690052
 20
201.1830396767259
 10
1235.0252515796144
 20
597.9631900236236
 10
1229.1864105565833
 20
599.3444704107169
  0
LWPOLYLINE
  5
B6
330
17
100
AcDbEntity
  8
POCKET-KERF-7.5
100
AcDbPolyline
 90
4
 70
1
 10
1123.7092466765655
 20
205.20704092114806
 10
1129.5633645632624
 20
203.89201097143018
 10
1218.926609615071
 20
601.7103050592257
 10
1213.072491728374
 20
603.0253350089436
  0
LWPOLYLINE
  5
B7
330
17
100
AcDbEntity
  8
POCKET-KERF-7.5
100
AcDbPolyline
 90
4
 70
1
 10
1112.0681956974356
 20
207.71801455040236
 10
1117.93683876231
 20
206.4694038916689
 10
1202.7865414589348
 20
605.2747607130232
 10
1196.9178983940603
 20
606.5233713717566
  0
LWPOLYLINE
  5
B8
330
17
100
AcDbEntity
  8
POCKET-KERF-7.5
100
AcDbPolyline
 90
4
 70
1
 10
1100.3994394528413
 20
210.09691853538317
 10
1106.2818541453298
 20
208.91488749281535
 10
1186.6071195421434
 20
608.6560992987096
 10
1180.7247048496547
 20
609.8381303412774
  0
LWPOLYLINE
  5
B9
330
17
100
AcDbEntity
  8
POCKET-KERF-7.5
100
AcDbPolyline
 90
4
 70
1
 10
1088.7044762444755
 20
212.3434474180116
 10
1094.5999072456991
 20
211.22814776777787
 10
1170.3904213487692
 20
611.8538866427356
 10
1164.4949903475456
 20
612.9691862929693
  0
LWPOLYLINE
  5
BA
330
17
100
AcDbEntity
  8
POCKET-KERF-7.5
100
AcDbPolyline
 90
4
 70
1
 10
1076.9848077390798
 20
214.4573127375505
 10
1082.8924980588276
 20
213.40888768731733
 10
1154.1385291492647
 20
614.8677121400546
 10
1148.2308388295166
 20
615.9161371902877
  0
LWPOLYLINE
  5
BB
330
17
100
AcDbEntity
  8
POCKET-KERF-7.5
100
AcDbPolyline
 90
4
 70
1
 10
1065.2419387756265
 20
216.43824306764384
 10
1071.1611298495566
 20
215.45682723818766
 10
1137.8535297330948
 20
617.6971888068491
 10
1131.9343386591647
 20
618.6786046363053
  0
LWPOLYLINE
  5
BC
330
17
100
AcDbEntity
  8
POCKET-KERF-7.5
100
AcDbPolyline
 90
4
 70
1
 10
1053.4773771720938
 20
218.2859840511683
 10
1059.407308959134
 20
217.37170345909047
 10
1121.5375141407835
 20
620.3419533302185
 10
1115.6075823537435
 20
621.2562339222964
  0
LWPOLYLINE
  5
BD
330
17
100
AcDbEntity
  8
POCKET-KERF-7.5
100
AcDbPolyline
 90
4
 70
1
 10
1041.6926335318562
 20
220.00029843289494
 10
1047.6325446117964
 20
219.15327047443915
 10
1105.1925773954238
 20
622.8016661148293
 10
1099.2526663154838
 20
623.6486940732851
  0
LWPOLYLINE
  5
BE
330
17
100
AcDbEntity
  8
POCKET-KERF-7.5
100
AcDbPolyline
 90
4
 70
1
 10
1029.88922104972
 20
221.58096608995064
 10
1035.8383487209799
 20
220.80129952593123
 10
1088.820818233664
 20
625.0760113265223
 10
1082.8716905624042
 20
625.8556778905418
  0
LWPOLYLINE
  5
BF
330
17
100
AcDbEntity
  8
POCKET-KERF-7.5
100
AcDbPolyline
 90
4
 70
1
 10
1018.0686553176237
 20
223.02778406008593
 10
1024.0262356951866
 20
222.3155790019203
 10
1072.4243388362304
 20
627.164696932863
 10
1066.4667584586673
 20
627.8769019910286
  0
LWPOLYLINE
  5
C0
330
17
100
AcDbEntity
  8
POCKET-KERF-7.5
100
AcDbPolyline
 90
4
 70
1
 10
1006.2324541300327
 20
224.34056656773313
 10
1012.1977222435304
 20
223.69591446458875
 10
1056.0052445579968
 20
629.0674547406433
 10
1050.0399764444992
 20
629.7121068437876
  0
LWPOLYLINE
  5
C1
330
17
100
AcDbEntity
  8
POCKET-KERF-7.5
100
AcDbPolyline
 90
4
 70
1
 10
994.3821372890493
 20
225.5191450478611
 10
1000.3543271809859
 20
224.94212867491305
 10
1039.5656436576517
 20
630.7840404303157
 10
1033.5934537657151
 20
631.3610568032638
  0
LWPOLYLINE
  5
C2
330
17
100
AcDbEntity
  8
POCKET-KERF-7.5
100
AcDbPolyline
 90
4
 70
1
 10
982.5192264092663
 20
226.56336816762098
 10
988.49757123337
 20
226.05406161542226
 10
1023.1076470269948
 20
632.3142335873657
 10
1017.129302202891
 20
632.8235401395644
  0
LWPOLYLINE
  5
C3
330
17
100
AcDbEntity
  8
POCKET-KERF-7.5
100
AcDbPolyline
 90
4
 70
1
 10
970.6452447223871
 20
227.473101845776
 10
976.6289768420752
 20
227.0315705107455
 10
1006.6333679198882
 20
633.657837730613
 10
1000.6496358002001
 20
634.0993690656435
  0
LWPOLYLINE
  5
C4
330
17
100
AcDbEntity
  8
POCKET-KERF-7.5
100
AcDbPolyline
 90
4
 70
1
 10
958.7617168816382
 20
228.24822926991837
 10
964.7500679685836
 20
227.8745298459431
 10
990.1449216809117
 20
634.8146803374408
 10
984.1565705939662
 20
635.1883797614161
  0
LWPOLYLINE
  5
C5
330
17
100
AcDbEntity
  8
POCKET-KERF-7.5
100
AcDbPolyline
 90
4
 70
1
 10
946.8701687659997
 20
228.88865091146891
 10
952.8623698987869
 20
228.58283138262442
 10
973.644425473744
 20
635.7846128659485
 10
967.6522243409568
 20
636.090432394793
  0
LWPOLYLINE
  5
C6
330
17
100
AcDbEntity
  8
POCKET-KERF-7.5
100
AcDbPolyline
 90
4
 70
1
 10
934.9721272842776
 20
229.3942845384565
 10
940.9674090471343
 20
229.156384172845
 10
957.1339980093162
 20
636.567510774023
 10
951.1387162464595
 20
636.8054111396345
  0
LWPOLYLINE
  5
C7
330
17
100
AcDbEntity
  8
POCKET-KERF-7.5
100
AcDbPolyline
 90
4
 70
1
 10
923.0691201790459
 20
229.76506522607605
 10
929.0667127606378
 20
229.5951145707856
 10
940.6157592737599
 20
637.1632735353336
 10
934.618166692168
 20
637.333224190624
  0
LWPOLYLINE
  5
C8
330
17
100
AcDbEntity
  8
POCKET-KERF-7.5
100
AcDbPolyline
 90
4
 70
1
 10
911.162675830477
 20
230.00094536502652
 10
917.1618091227543
 20
229.89896624220742
 10
924.0918302561961
 20
637.5718246522364
 10
918.0926969639189
 20
637.6738037750555
  0
LWPOLYLINE
  5
C9
330
17
100
AcDbEntity
  8
POCKET-KERF-7.5
100
AcDbPolyline
 90
4
 70
1
 10
899.2543230600968
 20
230.10189466762313
 10
905.2542267571778
 20
230.0679001716867
 10
907.5643326763953
 20
637.7931116655989
 10
901.5644289793144
 20
637.8271061615353
  0
LWPOLYLINE
  5
CA
330
17
100
AcDbEntity
  8
POCKET-KERF-7.5
100
AcDbPolyline
 90
4
 70
1
 10
887.3455909344776
 20
230.0679001716867
 10
893.3454946315586
 20
230.10189466762313
 10
891.0353887123412
 20
637.8271061615353
 10
885.0354850152602
 20
637.7931116655989
  0
LWPOLYLINE
  5
CB
330
17
100
AcDbEntity
  8
POCKET-KERF-7.5
100
AcDbPolyline
 90
4
 70
1
 10
875.4380085689014
 20
229.89896624220742
 10
881.4371418611786
 20
230.00094536502652
 10
874.5071207277368
 20
637.6738037750555
 10
868.5079874354597
 20
637.5718246522364
  0
LWPOLYLINE
  5
CC
330
17
100
AcDbEntity
  8
POCKET-KERF-7.5
100
AcDbPolyline
 90
4
 70
1
 10
863.5331049310176
 20
229.5951145707856
 10
869.5306975126095
 20
229.76506522607605
 10
857.9816509994876
 20
637.333224190624
 10
851.9840584178957
 20
637.1632735353336
  0
LWPOLYLINE
  5
CD
330
17
100
AcDbEntity
  8
POCKET-KERF-7.5
100
AcDbPolyline
 90
4
 70
1
 10
851.6324086445211
 20
229.156384172845
 10
857.6276904073778
 20
229.3942845384565
 10
841.4611014451959
 20
636.8054111396345
 10
835.4658196823393
 20
636.567510774023
  0
LWPOLYLINE
  5
CE
330
17
100
AcDbEntity
  8
POCKET-KERF-7.5
100
AcDbPolyline
 90
4
 70
1
 10
839.7374477928687
 20
228.58283138262442
 10
845.7296489256561
 20
228.88865091146891
 10
824.947593350699
 20
636.090432394793
 10
818.9553922179117
 20
635.7846128659485
  0
LWPOLYLINE
  5
CF
330
17
100
AcDbEntity
  8
POCKET-KERF-7.5
100
AcDbPolyline
 90
4
 70
1
 10
827.849749723072
 20
227.8745298459431
 10
833.8381008100174
 20
228.24822926991837
 10
808.4432470976896
 20
635.1883797614161
 10
802.4548960107442
 20
634.8146803374408
  0
LWPOLYLINE
  5
D0
330
17
100
AcDbEntity
  8
POCKET-KERF-7.5
100
AcDbPolyline
 90
4
 70
1
 10
815.9708408495802
 20
227.0315705107455
 10
821.9545729692683
 20
227.473101845776
 10
791.9501818914553
 20
634.0993690656435
 10
785.9664497717672
 20
633.657837730613
  0
LWPOLYLINE
  5
D1
330
17
100
AcDbEntity
  8
POCKET-KERF-7.5
100
AcDbPolyline
 90
4
 70
1
 10
804.1022464582852
 20
226.05406161542226
 10
810.0805912823889
 20
226.56336816762098
 10
775.4705154887641
 20
632.8235401395644
 10
769.4921706646604
 20
632.3142335873657
  0
LWPOLYLINE
  5
D2
330
17
100
AcDbEntity
  8
POCKET-KERF-7.5
100
AcDbPolyline
 90
4
 70
1
 10
792.2454905106692
 20
224.94212867491305
 10
798.2176804026059
 20
225.5191450478611
 10
759.0063639259398
 20
631.3610568032638
 10
753.0341740340033
 20
630.7840404303157
  0
LWPOLYLINE
  5
D3
330
17
100
AcDbEntity
  8
POCKET-KERF-7.5
100
AcDbPolyline
 90
4
 70
1
 10
780.402095448125
 20
223.69591446458875
 10
786.3673635616227
 20
224.34056656773313
 10
742.5598412471563
 20
629.7121068437876
 10
736.5945731336587
 20
629.0674547406433
  0
LWPOLYLINE
  5
D4
330
17
100
AcDbEntity
  8
POCKET-KERF-7.5
100
AcDbPolyline
 90
4
 70
1
 10
768.5735819964688
 20
222.3155790019203
 10
774.5311623740317
 20
223.02778406008593
 10
726.1330592329881
 20
627.8769019910286
 10
720.1754788554251
 20
627.164696932863
  0
LWPOLYLINE
  5
D5
330
17
100
AcDbEntity
  8
POCKET-KERF-7.5
100
AcDbPolyline
 90
4
 70
1
 10
756.7614689706758
 20
220.80129952593123
 10
762.7105966419357
 20
221.58096608995064
 10
709.7281271292514
 20
625.8556778905418
 10
703.7789994579915
 20
625.0760113265223
  0
LWPOLYLINE
  5
D6
330
17
100
AcDbEntity
  8
POCKET-KERF-7.5
100
AcDbPolyline
 90
4
 70
1
 10
744.967273079859
 20
219.15327047443915
 10
750.907184159799
 20
220.00029843289494
 10
693.3471513761718
 20
623.6486940732851
 10
687.4072402962319
 20
622.8016661148293
  0
LWPOLYLINE
  5
D7
330
17
100
AcDbEntity
  8
POCKET-KERF-7.5
100
AcDbPolyline
 90
4
 70
1
 10
733.1925087325214
 20
217.37170345909047
 10
739.1224405195617
 20
218.2859840511683
 10
676.9922353379119
 20
621.2562339222964
 10
671.0623035508718
 20
620.3419533302185
  0
LWPOLYLINE
  5
D8
330
17
100
AcDbEntity
  8
POCKET-KERF-7.5
100
AcDbPolyline
 90
4
 70
1
 10
721.4386878420987
 20
215.45682723818766
 10
727.3578789160288
 20
216.43824306764384
 10
660.665479032491
 20
618.6786046363053
 10
654.746287958561
 20
617.6971888068491
  0
LWPOLYLINE
  5
D9
330
17
100
AcDbEntity
  8
POCKET-KERF-7.5
100
AcDbPolyline
 90
4
 70
1
 10
709.7073196328275
 20
213.40888768731733
 10
715.6150099525755
 20
214.4573127375505
 10
644.3689788621384
 20
615.9161371902877
 10
638.4612885423904
 20
614.8677121400546
  0
LWPOLYLINE
  5
DA
330
17
100
AcDbEntity
  8
POCKET-KERF-7.5
100
AcDbPolyline
 90
4
 70
1
 10
697.9999104459563
 20
211.2281477677781
 10
703.8953414471798
 20
212.34344741801183
 10
628.1048273441099
 20
612.9691862929693
 10
622.2093963428863
 20
611.8538866427356
  0
LWPOLYLINE
  5
DB
330
17
100
AcDbEntity
  8
POCKET-KERF-7.5
100
AcDbPolyline
 90
4
 70
1
 10
686.3179635463252
 20
208.91488749281535
 10
692.200378238814
 20
210.09691853538317
 10
611.8751128420005
 20
609.8381303412774
 10
605.9926981495119
 20
608.6560992987096
  0
LWPOLYLINE
  5
DC
330
17
100
AcDbEntity
  8
POCKET-KERF-7.5
100
AcDbPolyline
 90
4
 70
1
 10
674.6629789293454
 20
206.46940389166866
 10
680.5316219942197
 20
207.71801455040213
 10
595.6819192975947
 20
606.5233713717564
 10
589.8132762327205
 20
605.2747607130229
  0
LWPOLYLINE
  5
DD
330
17
100
AcDbEntity
  8
POCKET-KERF-7.5
100
AcDbPolyline
 90
4
 70
1
 10
663.0364531283928
 20
203.89201097143018
 10
668.8905710150898
 20
205.20704092114806
 10
579.5273259632816
 20
603.0253350089436
 10
573.6732080765846
 20
601.7103050592257
  0
LWPOLYLINE
  5
DE
330
17
100
AcDbEntity
  8
POCKET-KERF-7.5
100
AcDbPolyline
 90
4
 70
1
 10
651.4398790226503
 20
201.1830396767259
 10
657.2787200456814
 20
202.5643200638192
 10
563.4134071350722
 20
599.3444704107169
 10
557.5745661120411
 20
597.9631900236236
  0
LWPOLYLINE
  5
DF
330
17
100
AcDbEntity
  8
POCKET-KERF-7.5
100
AcDbPolyline
 90
4
 70
1
 10
639.8747456454169
 20
198.34283784722197
 10
645.6975600808867
 20
199.79019131133668
 10
547.3422318862547
 20
595.4812502106246
 10
541.5194174507849
 20
594.0338967465099
  0
LWPOLYLINE
  5
E0
330
17
100
AcDbEntity
  8
POCKET-KERF-7.5
100
AcDbPolyline
 90
4
 70
1
 10
628.3425379929126
 20
195.3717701729609
 10
634.1485781747853
 20
196.88501086977027
 10
531.31586380172
 20
591.4361704571945
 10
525.5098236198475
 20
589.9229297603849
  0
LWPOLYLINE
  5
E1
330
17
100
AcDbEntity
  8
POCKET-KERF-7.5
100
AcDbPolyline
 90
4
 70
1
 10
616.8447368336006
 20
192.2702181475338
 10
622.6332572497024
 20
193.84915177260245
 10
515.3363607129904
 20
587.2097505502425
 10
509.54784029688864
 20
585.6308169251738
  0
LWPOLYLINE
  5
E2
330
17
100
AcDbEntity
  8
POCKET-KERF-7.5
100
AcDbPolyline
 90
4
 70
1
 10
605.3828185180504
 20
189.038580019096
 10
611.1530759057958
 20
190.68300383282815
 10
499.40577443398837
 20
582.8025331741786
 10
493.6355170462429
 20
581.1581093604467
  0
LWPOLYLINE
  5
E3
330
17
100
AcDbEntity
  8
POCKET-KERF-7.5
100
AcDbPolyline
 90
4
 70
1
 10
593.9582547893731
 20
185.67727073923072
 10
599.7095082312017
 20
187.38697359290302
 10
483.5261504975786
 20
578.2150842283258
 10
477.77489705575005
 20
576.5053813746536
  0
LWPOLYLINE
  5
E4
330
17
100
AcDbEntity
  8
POCKET-KERF-7.5
100
AcDbPolyline
 90
4
 70
1
 10
582.5725125942437
 20
182.1867219096681
 10
588.3040236127559
 20
183.96148427254172
 10
467.69952789291517
 20
573.4479927542556
 10
461.9680168744029
 20
571.6732303913822
  0
LWPOLYLINE
  5
E5
330
17
100
AcDbEntity
  8
POCKET-KERF-7.5
100
AcDbPolyline
 90
4
 70
1
 10
571.2270538945406
 20
178.567381726866
 10
576.9380865473206
 20
180.40697571437502
 10
451.92793880362865
 20
568.5018708601547
 10
446.21690615084856
 20
566.6622768726456
  0
LWPOLYLINE
  5
E6
330
17
100
AcDbEntity
  8
POCKET-KERF-7.5
100
AcDbPolyline
 90
4
 70
1
 10
559.9233354796264
 20
174.8197149244611
 10
565.6131564537394
 20
176.7239043274733
 10
436.21340834688976
 20
563.3773536422276
 10
430.5235873727768
 20
561.4731642392152
  0
LWPOLYLINE
  5
E7
330
17
100
AcDbEntity
  8
POCKET-KERF-7.5
100
AcDbPolyline
 90
4
 70
1
 10
548.6628087792923
 20
170.94420271359513
 10
554.3306874854433
 20
172.9127430287424
 10
420.5579543133772
 20
558.0750991031497
 10
414.8900756072262
 20
556.1065587880026
  0
LWPOLYLINE
  5
E8
330
17
100
AcDbEntity
  8
POCKET-KERF-7.5
100
AcDbPolyline
 90
4
 70
1
 10
537.4469196773888
 20
166.94134272112544
 10
543.092128343733
 20
168.97398118219823
 10
404.9635869081877
 20
552.595788067576
 10
399.31837824184345
 20
550.5631496065034
  0
LWPOLYLINE
  5
E9
330
17
100
AcDbEntity
  8
POCKET-KERF-7.5
100
AcDbPolyline
 90
4
 70
1
 10
526.2771083261715
 20
162.81164892572994
 10
531.8989220917621
 20
164.90812453613327
 10
389.4323084927201
 20
546.9401240947233
 10
383.8104947271294
 20
544.8436484843202
  0
LWPOLYLINE
  5
EA
330
17
100
AcDbEntity
  8
POCKET-KERF-7.5
100
AcDbPolyline
 90
4
 70
1
 10
515.1548089613805
 20
158.55565159190888
 10
520.7525059692429
 20
160.71569515817515
 10
373.96611332756595
 20
541.1088333880293
 10
368.36841631970344
 20
538.9487898217631
  0
LWPOLYLINE
  5
EB
330
17
100
AcDbEntity
  8
POCKET-KERF-7.5
100
AcDbPolyline
 90
4
 70
1
 10
504.08144971808207
 20
154.17389720189922
 10
509.65431120790237
 20
156.39723136825356
 10
358.5669873164428
 20
535.1026647019074
 10
352.9941258266225
 20
532.8793305355533
  0
LWPOLYLINE
  5
EC
330
17
100
AcDbEntity
  8
POCKET-KERF-7.5
100
AcDbPolyline
 90
4
 70
1
 10
493.0584524472898
 20
149.66694838550285
 10
498.6057628477056
 20
151.95328766947597
 10
343.23690775119576
 20
528.922389245604
 10
337.6895973507799
 20
526.6360499616309
  0
LWPOLYLINE
  5
ED
330
17
100
AcDbEntity
  8
POCKET-KERF-7.5
100
AcDbPolyline
 90
4
 70
1
 10
482.08723253339565
 20
145.0353838478445
 10
487.60827955387765
 20
147.3844346769299
 10
327.9778430579078
 20
522.5688005841724
 10
322.4567960374258
 20
520.2197497550868
  0
LWPOLYLINE
  5
EE
330
17
100
AcDbEntity
  8
POCKET-KERF-7.5
100
AcDbPolyline
 90
4
 70
1
 10
471.1691987124321
 20
140.2797982950648
 10
476.6632734347441
 20
142.69125904441412
 10
312.7917525441516
 20
516.0427145365784
 10
307.2976778218396
 20
513.6312537872291
  0
LWPOLYLINE
  5
EF
330
17
100
AcDbEntity
  8
POCKET-KERF-7.5
100
AcDbPolyline
 90
4
 70
1
 10
460.30575289118394
 20
135.40080235795676
 10
465.77214986040997
 20
137.87436338910925
 10
297.6805861474043
 20
509.34496907094524
 10
292.2141891781783
 20
506.8714080397925
  0
LWPOLYLINE
  5
F0
330
17
100
AcDbEntity
  8
POCKET-KERF-7.5
100
AcDbPolyline
 90
4
 70
1
 10
449.4982899671805
 20
130.39902251356025
 10
454.93630728230727
 20
132.93436621420133
 10
282.6462841846721
 20
502.4764241969562
 10
277.2082668695452
 20
499.9410804963151
  0
LWPOLYLINE
  5
F1
330
17
100
AcDbEntity
  8
POCKET-KERF-7.5
100
AcDbPolyline
 90
4
 70
1
 10
438.7481976495882
 20
125.27510100472031
 10
444.15713705363135
 20
127.87190182946378
 10
267.6907771033495
 20
495.4379618554283
 10
262.2818376993063
 20
492.8411610306846
  0
LWPOLYLINE
  5
F2
330
17
100
AcDbEntity
  8
POCKET-KERF-7.5
100
AcDbPolyline
 90
4
 70
1
 10
428.056856281022
 20
120.02969575762091
 10
433.4360232506842
 20
122.68762026981
 10
252.81598523334125
 20
488.2304858050672
 10
247.4368182636792
 20
485.5725612928779
  0
LWPOLYLINE
  5
F3
330
17
100
AcDbEntity
  8
POCKET-KERF-7.5
100
AcDbPolyline
 90
4
 70
1
 10
417.4256386603073
 20
114.66348029730545
 10
422.7743424951567
 20
117.38218721182704
 10
238.02381854048792
 20
480.8549215064212
 10
232.67511470563852
 20
478.1362145918996
  0
LWPOLYLINE
  5
F4
330
17
100
AcDbEntity
  8
POCKET-KERF-7.5
100
AcDbPolyline
 90
4
 70
1
 10
406.8559098662092
 20
109.1771436611954
 10
412.1734637773678
 20
111.95628388830178
 10
223.3161763813225
 20
473.3122160030534
 10
217.99862247016378
 20
470.533075775947
  0
LWPOLYLINE
  5
F5
330
17
100
AcDbEntity
  8
POCKET-KERF-7.5
100
AcDbPolyline
 90
4
 70
1
 10
396.3490270821501
 20
103.57139031061406
 10
401.63474828047936
 20
106.41060700074759
 10
208.69494725918435
 20
465.6033377999335
 10
203.4092260608552
 20
462.7641211098
  0
LWPOLYLINE
  5
F6
330
17
100
AcDbEntity
  8
POCKET-KERF-7.5
100
AcDbPolyline
 90
4
 70
1
 10
385.9063394219452
 20
97.84694004033241
 10
391.1595492057178
 20
100.74586862994539
 10
194.16200858173178
 20
457.72927673908197
 10
188.90879879795907
 20
454.83034814946876
  0
LWPOLYLINE
  5
F7
330
17
100
AcDbEntity
  8
POCKET-KERF-7.5
100
AcDbPolyline
 90
4
 70
1
 10
375.52918775657326
 20
92.00452788614652
 10
380.7492115986206
 20
94.96279614451268
 10
179.71922641987874
 20
449.6910438724714
 10
174.4992025778314
 20
446.7327756141055
  0
LWPOLYLINE
  5
F8
330
17
100
AcDbEntity
  8
POCKET-KERF-7.5
100
AcDbPolyline
 90
4
 70
1
 10
365.21890454200235
 20
86.04490403049523
 10
370.40507217632586
 20
89.06213210750481
 10
165.36845526818314
 20
441.4896713322041
 10
160.18228763385963
 20
438.4724432551943
  0
LWPOLYLINE
  5
F9
330
17
100
AcDbEntity
  8
POCKET-KERF-7.5
100
AcDbPolyline
 90
4
 70
1
 10
354.9768136481007
 20
79.96883370613527
 10
360.1284591559356
 20
83.04463418106938
 10
151.1115378067262
 20
433.12621219798217
 10
145.95989229889128
 20
430.05041172304806
  0
LWPOLYLINE
  5
FA
330
17
100
AcDbEntity
  8
POCKET-KERF-7.5
100
AcDbPolyline
 90
4
 70
1
 10
344.80423018864707
 20
73.77709709788289
 10
349.9206920839683
 20
76.91107502915904
 10
136.9503046645065
 20
424.60174036189085
 10
131.83384276918528
 20
421.4677624306147
  0
LWPOLYLINE
  5
FB
330
17
100
AcDbEntity
  8
POCKET-KERF-7.5
100
AcDbPolyline
 90
4
 70
1
 10
334.70246035246765
 20
67.47048924243752
 10
339.7830816669269
 20
70.6622422183212
 10
122.88657418438338
 20
415.9173503905078
 10
117.80595286992416
 20
412.72559741462436
  0
LWPOLYLINE
  5
FC
330
17
100
AcDbEntity
  8
POCKET-KERF-7.5
100
AcDbPolyline
 90
4
 70
1
 10
324.6728012357159
 20
61.049819926293736
 10
329.71692960299805
 20
64.2989381165693
 10
108.9221521895947
 20
407.0741573843558
 10
103.87802382231254
 20
403.8250391940802
  0
LWPOLYLINE
  5
FD
330
17
100
AcDbEntity
  8
POCKET-KERF-7.5
100
AcDbPolyline
 90
4
 70
1
 10
314.71654067532245
 20
54.51591358176487
 10
319.723528414911
 20
57.8219797903594
 10
95.05883175188364
 20
398.0732968347218
 10
90.05184401229508
 20
394.7672306261273
  0
LWPOLYLINE
  5
FE
330
17
100
AcDbEntity
  8
POCKET-KERF-7.5
100
AcDbPolyline
 90
4
 70
1
 10
304.83495708363415
 20
47.869609181123145
 10
309.8041612839756
 20
51.23219889967496
 10
81.29839296126595
 20
388.9159244778577
 10
76.32918876092451
 20
385.5533347593061
  0
LWPOLYLINE
  5
FF
330
17
100
AcDbEntity
  8
POCKET-KERF-7.5
100
AcDbPolyline
 90
4
 70
1
 10
295.0293192842609
 20
41.11176012887206
 10
299.9601018853161
 20
44.53044159123881
 10
67.64260269745803
 20
379.6032161465776
 10
62.71182009640285
 20
376.18453468421086
  0
LWPOLYLINE
  5
100
330
17
100
AcDbEntity
  8
POCKET-KERF-7.5
100
AcDbPolyline
 90
4
 70
1
 10
285.3008863491548
 20
34.243234152167595
 10
290.1926142243283
 20
37.71756838986699
 10
54.09321440300661
 20
370.13636761928046
 10
49.20148652783311
 20
366.66203338158084
  0
LWPOLYLINE
  5
101
330
17
100
AcDbEntity
  8
POCKET-KERF-7.5
100
AcDbPolyline
 90
4
 70
1
 10
275.65090743694384
 20
27.264913189400346
 10
280.5029524743785
 20
30.794454087974287
 10
40.651967858141234
 20
360.51659446640724
 10
35.79992282070657
 20
356.9870535678333
  0
LWPOLYLINE
  5
102
330
17
100
AcDbEntity
  8
POCKET-KERF-7.5
100
AcDbPolyline
 90
4
 70
1
 10
266.0806216325341
 20
20.17769327695059
 10
270.8923608157627
 20
23.76198763324764
 10
27.320588957381098
 20
350.7451318943576
 10
22.508849774152488
 20
347.16083753806055
  0
TEXT
  5
103
330
17
100
AcDbEntity
  8
REFERENCE-SHEET
100
AcDbText
 10
896.2999088458278
 20
328.16676065736254
 30
0.0
 40
25.0
  1
01 SHELL-LOW  (mark by hand)
 72
1
 11
896.2999088458278
 21
328.16676065736254
 31
0.0
100
AcDbText
 73
2
  0
LWPOLYLINE
  5
104
330
17
100
AcDbEntity
  8
CUT
100
AcDbPolyline
 90
4
 70
1
 10
1089.4274798385377
 20
642.0
 10
1282.5550508312479
 20
898.2212041918652
 42
0.33466596078782695
 10
18.0
 20
898.2212041918654
 10
211.12757099271
 20
642.0000000000001
 42
-0.33466596078782695
  0
LWPOLYLINE
  5
105
330
17
100
AcDbEntity
  8
POCKET-KERF-7.5
100
AcDbPolyline
 90
4
 70
1
 10
1082.5367343867504
 20
647.7587780539517
 10
1087.3574555377577
 20
644.1865731908132
 10
1277.788379578387
 20
901.1747411431923
 10
1272.96765842738
 20
904.7469460063307
  0
LWPOLYLINE
  5
106
330
17
100
AcDbEntity
  8
POCKET-KERF-7.5
100
AcDbPolyline
 90
4
 70
1
 10
1072.858319952368
 20
654.748050239162
 10
1077.7368062544026
 20
651.2551472343735
 10
1263.9402218675145
 20
911.3227217462662
 10
1259.06173556548
 20
914.8156247510548
  0
LWPOLYLINE
  5
107
330
17
100
AcDbEntity
  8
POCKET-KERF-7.5
100
AcDbPolyline
 90
4
 70
1
 10
1063.0669168346014
 20
661.5781349112586
 10
1068.001863889188
 20
658.1654676892125
 10
1249.9279844326925
 20
921.2429124891775
 10
1244.9930373781058
 20
924.6555797112236
  0
LWPOLYLINE
  5
108
330
17
100
AcDbEntity
  8
POCKET-KERF-7.5
100
AcDbPolyline
 90
4
 70
1
 10
1053.165143036354
 20
668.2472058578716
 10
1058.1552313486702
 20
664.9156868897004
 10
1235.7554138338198
 20
930.9326609340831
 10
1230.7653255215034
 20
934.2641799022542
  0
LWPOLYLINE
  5
109
330
17
100
AcDbEntity
  8
POCKET-KERF-7.5
100
AcDbPolyline
 90
4
 70
1
 10
1043.1556460711877
 20
674.7534799181104
 10
1048.1995414028686
 20
671.5039999777129
 10
1221.42629950031
 20
940.3893762582736
 10
1216.382404168629
 20
943.6388561986712
  0
LWPOLYLINE
  5
10A
330
17
100
AcDbEntity
  8
POCKET-KERF-7.5
100
AcDbPolyline
 90
4
 70
1
 10
1033.0411022554374
 20
681.0952174593436
 10
1038.137455981321
 20
677.9286453852116
 10
1206.9444727178807
 20
949.610529946901
 10
1201.8481189919971
 20
952.7771020210331
  0
LWPOLYLINE
  5
10B
330
17
100
AcDbEntity
  8
POCKET-KERF-7.5
100
AcDbPolyline
 90
4
 70
1
 10
1022.8242159926248
 20
687.270722842336
 10
1027.971665461343
 20
684.187905305246
 10
1192.313805604153
 20
958.593656469046
 10
1187.1663561354346
 20
961.676474006136
  0
LWPOLYLINE
  5
10C
330
17
100
AcDbEntity
  8
POCKET-KERF-7.5
100
AcDbPolyline
 90
4
 70
1
 10
1012.5077190503597
 20
693.2783448746259
 10
1017.7048879486832
 20
690.2801061512585
 10
1177.5382100733354
 20
967.336353936948
 10
1172.3410411750122
 20
970.3345926603154
  0
LWPOLYLINE
  5
10D
330
17
100
AcDbEntity
  8
POCKET-KERF-7.5
100
AcDbPolyline
 90
4
 70
1
 10
1002.0943698299274
 20
699.1164772520164
 10
1007.3398685507588
 20
696.2036190045629
 10
1162.6216367902637
 20
975.8362847482148
 10
1157.3761380694323
 20
978.7491429956682
  0
LWPOLYLINE
  5
10E
330
17
100
AcDbEntity
  8
POCKET-KERF-7.5
100
AcDbPolyline
 90
4
 70
1
 10
991.5869526287526
 20
704.783558988066
 10
996.8793786426778
 20
701.9568600498826
 10
1147.5680741140818
 20
984.0911762108466
 10
1142.2756481001566
 20
986.91787514903
  0
LWPOLYLINE
  5
10F
330
17
100
AcDbEntity
  8
POCKET-KERF-7.5
100
AcDbPolyline
 90
4
 70
1
 10
980.9882768959405
 20
710.2780748314615
 10
986.3262151262336
 20
707.538290998825
 10
1132.3815470318423
 20
992.0988211509015
 10
1127.0436088015492
 20
994.838604983538
  0
LWPOLYLINE
  5
110
330
17
100
AcDbEntity
  8
POCKET-KERF-7.5
100
AcDbPolyline
 90
4
 70
1
 10
970.3011764810946
 20
715.5985556711614
 10
975.6831996820775
 20
712.9464195011878
 10
1117.066116082317
 20
999.8570785026463
 10
1111.684092881334
 20
1002.5092146726199
  0
LWPOLYLINE
  5
111
330
17
100
AcDbEntity
  8
POCKET-KERF-7.5
100
AcDbPolyline
 90
4
 70
1
 10
959.5285088766058
 20
720.743578929205
 10
964.9531780152621
 20
718.1797995439791
 10
1101.6258762702976
 20
1007.3638738810288
 10
1096.2012071316412
 20
1009.9276532662547
  0
LWPOLYLINE
  5
112
330
17
100
AcDbEntity
  8
POCKET-KERF-7.5
100
AcDbPolyline
 90
4
 70
1
 10
948.6731544536237
 20
725.7117689410771
 10
954.1390190943641
 20
723.2370318380491
 10
1086.0649559716826
 20
1014.6172001363224
 10
1080.5990913309422
 20
1017.0919372393504
  0
LWPOLYLINE
  5
113
330
17
100
AcDbEntity
  8
POCKET-KERF-7.5
100
AcDbPolyline
 90
4
 70
1
 10
937.738015691911
 20
730.5017973235297
 10
943.2436143843873
 20
728.1167641922289
 10
1070.3875158296428
 20
1021.6151178907928
 10
1064.8819171371665
 20
1024.0001510220936
  0
LWPOLYLINE
  5
114
330
17
100
AcDbEntity
  8
POCKET-KERF-7.5
100
AcDbPolyline
 90
4
 70
1
 10
926.7260164037826
 20
735.1123833297631
 10
932.2698770736471
 20
732.8176918748763
 10
1054.5977476421572
 20
1028.3557560572453
 10
1049.0538869722927
 20
1030.6504475121321
  0
LWPOLYLINE
  5
115
330
17
100
AcDbEntity
  8
POCKET-KERF-7.5
100
AcDbPolyline
 90
4
 70
1
 10
915.6401009523453
 20
739.542294191868
 10
921.2207412948502
 20
737.3385579627325
 10
1038.6998732412194
 20
1034.8373123393112
 10
1033.1192328987145
 20
1037.0410485684465
  0
LWPOLYLINE
  5
116
330
17
100
AcDbEntity
  8
POCKET-KERF-7.5
100
AcDbPolyline
 90
4
 70
1
 10
904.4832334642394
 20
743.7903454504414
 10
910.0991613405731
 20
741.6781536769942
 10
1022.6981433640151
 20
1041.0580537133405
 10
1017.0822154876814
 20
1043.1702454867877
  0
LWPOLYLINE
  5
117
330
17
100
AcDbEntity
  8
POCKET-KERF-7.5
100
AcDbPolyline
 90
4
 70
1
 10
893.258397037099
 20
747.8554012712832
 10
898.9081108733494
 20
745.835318706515
 10
1006.5968365163686
 20
1047.016316891777
 10
1000.9471226801182
 20
1049.0363994565453
  0
LWPOLYLINE
  5
118
330
17
100
AcDbEntity
  8
POCKET-KERF-7.5
100
AcDbPolyline
 90
4
 70
1
 10
881.9685929419365
 20
751.7363747490937
 10
887.6505821305793
 20
749.8089415180463
 10
990.4002578287663
 20
1052.7105087678804
 10
984.7182686401234
 20
1054.6379419989278
  0
LWPOLYLINE
  5
119
330
17
100
AcDbEntity
  8
POCKET-KERF-7.5
100
AcDbPolyline
 90
4
 70
1
 10
870.6168398206706
 20
755.4322281980878
 10
876.3295851244719
 20
753.5979596534369
 10
974.1127379052605
 20
1058.13910684169
 10
968.3999926014592
 20
1059.9733753863409
  0
LWPOLYLINE
  5
11A
330
17
100
AcDbEntity
  8
POCKET-KERF-7.5
100
AcDbPolyline
 90
4
 70
1
 10
859.206172879008
 20
758.9419734294496
 10
864.9481468372343
 20
757.2013600137103
 10
957.7386316655621
 20
1063.3006596271073
 10
951.9966577073359
 20
1065.0412730428466
  0
LWPOLYLINE
  5
11B
330
17
100
AcDbEntity
  8
POCKET-KERF-7.5
100
AcDbPolyline
 90
4
 70
1
 10
847.7396430748983
 20
762.2646720155506
 10
853.5093104117253
 20
760.618179129945
 10
941.2823171806334
 20
1068.1937870399897
 10
935.5126498438061
 20
1069.840279925595
  0
LWPOLYLINE
  5
11C
330
17
100
AcDbEntity
  8
POCKET-KERF-7.5
100
AcDbPolyline
 90
4
 70
1
 10
836.2203163027743
 20
765.3994355408655
 10
842.0161343377863
 20
763.8475034208842
 10
924.7481945020879
 20
1072.817180767155
 10
918.952376467076
 20
1074.3691128871362
  0
LWPOLYLINE
  5
11D
330
17
100
AcDbEntity
  8
POCKET-KERF-7.5
100
AcDbPolyline
 90
4
 70
1
 10
824.6512725738016
 20
768.3454258395146
 10
830.4716916344687
 20
766.8884694372074
 10
908.1406844857163
 20
1077.1696046161949
 10
902.3202654250493
 20
1078.6265610185021
  0
LWPOLYLINE
  5
11E
330
17
100
AcDbEntity
  8
POCKET-KERF-7.5
100
AcDbPolyline
 90
4
 70
1
 10
813.0356051923517
 20
771.1018552193707
 10
818.8790690283781
 20
769.7402640923979
 10
891.4642276094469
 20
1081.249894846006
 10
885.6207637734204
 20
1082.611485972979
  0
LWPOLYLINE
  5
11F
330
17
100
AcDbEntity
  8
POCKET-KERF-7.5
100
AcDbPolyline
 90
4
 70
1
 10
801.3764199289204
 20
773.6679866726695
 10
807.2413661283515
 20
772.4021248801428
 10
874.7232827860604
 20
1085.0569604779475
 10
868.8583365866293
 20
1086.322822270474
  0
LWPOLYLINE
  5
120
330
17
100
AcDbEntity
  8
POCKET-KERF-7.5
100
AcDbPolyline
 90
4
 70
1
 10
789.6768341897166
 20
776.04313407307
 10
795.5616945966925
 20
774.8733400782116
 10
857.9223261709784
 20
1088.5897835875444
 10
852.0374657640024
 20
1089.759577582403
  0
LWPOLYLINE
  5
121
330
17
100
AcDbEntity
  8
POCKET-KERF-7.5
100
AcDbPolyline
 90
4
 70
1
 10
777.9399761831339
 20
778.2266623591094
 10
783.8431773171799
 20
777.153248938754
 10
841.0658499654363
 20
1091.8474195766587
 10
835.1626488313905
 20
1092.920832997014
  0
LWPOLYLINE
  5
122
330
17
100
AcDbEntity
  8
POCKET-KERF-7.5
100
AcDbPolyline
 90
4
 70
1
 10
766.1689840833405
 20
780.2179877040038
 10
772.08894756008
 20
779.2412418649691
 10
824.1583612153713
 20
1094.8289974260529
 10
818.2383977386319
 20
1095.8057432650876
  0
LWPOLYLINE
  5
123
330
17
100
AcDbEntity
  8
POCKET-KERF-7.5
100
AcDbPolyline
 90
4
 70
1
 10
754.3670051912
 20
782.0165776717508
 10
760.3021481443797
 20
781.1367605740986
 10
807.2043806063372
 20
1097.5337199282822
 10
801.2692376531573
 20
1098.4135370259341
  0
LWPOLYLINE
  5
124
330
17
100
AcDbEntity
  8
POCKET-KERF-7.5
100
AcDbPolyline
 90
4
 70
1
 10
742.5371950927524
 20
783.6219513594913
 10
748.4859305974658
 20
782.8392982466987
 10
790.2084412547737
 20
1099.9608639008482
 10
784.2597057500604
 20
1100.7435170136407
  0
LWPOLYLINE
  5
125
330
17
100
AcDbEntity
  8
POCKET-KERF-7.5
100
AcDbPolyline
 90
4
 70
1
 10
730.6827168154836
 20
785.0336795260913
 10
736.6434543124783
 20
784.348399662152
 10
773.1750874959548
 20
1102.1097803795642
 10
767.21434999896
 20
1102.7950602435035
  0
LWPOLYLINE
  5
126
330
17
100
AcDbEntity
  8
POCKET-KERF-7.5
100
AcDbPolyline
 90
4
 70
1
 10
718.8067399825986
 20
786.2513847069126
 10
724.7778857035578
 20
785.6636613203846
 10
756.1088736689308
 20
1103.9798947920722
 10
750.1377279479716
 20
1104.5676181786002
  0
LWPOLYLINE
  5
127
330
17
100
AcDbEntity
  8
POCKET-KERF-7.5
100
AcDbPolyline
 90
4
 70
1
 10
706.9124399655385
 20
787.2747413147375
 10
712.8923973592176
 20
786.7847315497514
 10
739.0143628988026
 20
1105.5707071114705
 10
733.0344055051235
 20
1106.0607168764566
  0
LWPOLYLINE
  5
128
330
17
100
AcDbEntity
  8
POCKET-KERF-7.5
100
AcDbPolyline
 90
4
 70
1
 10
695.0029970349544
 20
788.1034757268237
 10
700.9901671940646
 20
787.7113106010663
 10
721.8961258766432
 20
1106.8817919900107
 10
715.908955717533
 20
1107.273957115768
  0
LWPOLYLINE
  5
129
330
17
100
AcDbEntity
  8
POCKET-KERF-7.5
100
AcDbPolyline
 90
4
 70
1
 10
683.0815955103751
 20
788.7373663580655
 10
689.0743775990946
 20
788.4431507277487
 10
704.7587396373949
 20
1107.9127988728264
 10
698.7659575486755
 20
1108.2070145031435
  0
LWPOLYLINE
  5
12A
330
17
100
AcDbEntity
  8
POCKET-KERF-7.5
100
AcDbPolyline
 90
4
 70
1
 10
671.1514229087911
 20
789.1762437202402
 10
677.1482145907933
 20
788.980056252064
 10
687.6067863360762
 20
1108.663452091662
 10
681.6099946540741
 20
1108.8596395598381
  0
LWPOLYLINE
  5
12B
330
17
100
AcDbEntity
  8
POCKET-KERF-7.5
100
AcDbPolyline
 90
4
 70
1
 10
659.2156690923828
 20
789.4199904673253
 10
665.2148669592651
 20
789.3218836174449
 10
670.4448520226106
 20
1109.1335509385815
 10
664.4456541557282
 20
1109.231657788462
  0
LWPOLYLINE
  5
12C
330
17
100
AcDbEntity
  8
POCKET-KERF-7.5
100
AcDbPolyline
 90
4
 70
1
 10
647.2775254156238
 20
789.4685414268749
 10
653.2775254156238
 20
789.4685414268749
 10
653.2775254156239
 20
1109.3229697196348
 10
647.2775254156239
 20
1109.3229697196348
  0
LWPOLYLINE
  5
12D
330
17
100
AcDbEntity
  8
POCKET-KERF-7.5
100
AcDbPolyline
 90
4
 70
1
 10
635.3401838719825
 20
789.3218836174449
 10
641.339381738865
 20
789.4199904673253
 10
636.1093966755195
 20
1109.231657788462
 10
630.1101988086372
 20
1109.1335509385815
  0
LWPOLYLINE
  5
12E
330
17
100
AcDbEntity
  8
POCKET-KERF-7.5
100
AcDbPolyline
 90
4
 70
1
 10
623.4068362404545
 20
788.980056252064
 10
629.4036279224566
 20
789.1762437202402
 10
618.9450561771737
 20
1108.8596395598381
 10
612.9482644951715
 20
1108.663452091662
  0
LWPOLYLINE
  5
12F
330
17
100
AcDbEntity
  8
POCKET-KERF-7.5
100
AcDbPolyline
 90
4
 70
1
 10
611.4806732321531
 20
788.4431507277487
 10
617.4734553208726
 20
788.7373663580655
 10
601.7890932825723
 20
1108.2070145031435
 10
595.7963111938528
 20
1107.9127988728264
  0
LWPOLYLINE
  5
130
330
17
100
AcDbEntity
  8
POCKET-KERF-7.5
100
AcDbPolyline
 90
4
 70
1
 10
599.5648836371831
 20
787.7113106010663
 10
605.5520537962933
 20
788.1034757268237
 10
584.6460951137148
 20
1107.273957115768
 10
578.6589249546046
 20
1106.8817919900107
  0
LWPOLYLINE
  5
131
330
17
100
AcDbEntity
  8
POCKET-KERF-7.5
100
AcDbPolyline
 90
4
 70
1
 10
587.6626534720301
 20
786.7847315497514
 10
593.6426108657092
 20
787.2747413147375
 10
567.5206453261243
 20
1106.0607168764568
 10
561.5406879324452
 20
1105.5707071114707
  0
LWPOLYLINE
  5
132
330
17
100
AcDbEntity
  8
POCKET-KERF-7.5
100
AcDbPolyline
 90
4
 70
1
 10
575.7771651276901
 20
785.6636613203846
 10
581.7483108486492
 20
786.2513847069126
 10
550.4173228832764
 20
1104.5676181786002
 10
544.4461771623172
 20
1103.9798947920722
  0
LWPOLYLINE
  5
133
330
17
100
AcDbEntity
  8
POCKET-KERF-7.5
100
AcDbPolyline
 90
4
 70
1
 10
563.9115965187694
 20
784.348399662152
 10
569.8723340157642
 20
785.0336795260913
 10
533.3407008322877
 20
1102.7950602435035
 10
527.3799633352929
 20
1102.1097803795642
  0
LWPOLYLINE
  5
134
330
17
100
AcDbEntity
  8
POCKET-KERF-7.5
100
AcDbPolyline
 90
4
 70
1
 10
552.069120233782
 20
782.8392982466987
 10
558.0178557384952
 20
783.6219513594913
 10
516.2953450811873
 20
1100.7435170136407
 10
510.346609576474
 20
1099.9608639008482
  0
LWPOLYLINE
  5
135
330
17
100
AcDbEntity
  8
POCKET-KERF-7.5
100
AcDbPolyline
 90
4
 70
1
 10
540.2529026868681
 20
781.1367605740986
 10
546.1880456400478
 20
782.0165776717508
 10
499.28581317809034
 20
1098.4135370259341
 10
493.35067022491063
 20
1097.5337199282822
  0
LWPOLYLINE
  5
136
330
17
100
AcDbEntity
  8
POCKET-KERF-7.5
100
AcDbPolyline
 90
4
 70
1
 10
528.4661032711678
 20
779.2412418649691
 10
534.3860667479072
 20
780.2179877040038
 10
482.3166530926159
 20
1095.8057432650876
 10
476.3966896158765
 20
1094.8289974260529
  0
LWPOLYLINE
  5
137
330
17
100
AcDbEntity
  8
POCKET-KERF-7.5
100
AcDbPolyline
 90
4
 70
1
 10
516.7118735140679
 20
777.153248938754
 10
522.6150746481137
 20
778.2266623591094
 10
465.3924019998573
 20
1092.920832997014
 10
459.4892008658114
 20
1091.8474195766587
  0
LWPOLYLINE
  5
138
330
17
100
AcDbEntity
  8
POCKET-KERF-7.5
100
AcDbPolyline
 90
4
 70
1
 10
504.99335623455516
 20
774.8733400782116
 10
510.87821664153114
 20
776.04313407307
 10
448.51758506724536
 20
1089.759577582403
 10
442.6327246602694
 20
1088.5897835875444
  0
LWPOLYLINE
  5
139
330
17
100
AcDbEntity
  8
POCKET-KERF-7.5
100
AcDbPolyline
 90
4
 70
1
 10
493.3136847028962
 20
772.4021248801428
 10
499.17863090232726
 20
773.6679866726695
 10
431.69671424461853
 20
1086.322822270474
 10
425.83176804518746
 20
1085.0569604779475
  0
LWPOLYLINE
  5
13A
330
17
100
AcDbEntity
  8
POCKET-KERF-7.5
100
AcDbPolyline
 90
4
 70
1
 10
481.6759818028698
 20
769.7402640923979
 10
487.51944563889623
 20
771.1018552193707
 10
414.9342870578275
 20
1082.611485972979
 10
409.09082322180103
 20
1081.249894846006
  0
LWPOLYLINE
  5
13B
330
17
100
AcDbEntity
  8
POCKET-KERF-7.5
100
AcDbPolyline
 90
4
 70
1
 10
470.0833591967791
 20
766.8884694372075
 10
475.9037782574461
 20
768.3454258395147
 10
398.23478540619834
 20
1078.6265610185021
 10
392.41436634553133
 20
1077.1696046161949
  0
LWPOLYLINE
  5
13C
330
17
100
AcDbEntity
  8
POCKET-KERF-7.5
100
AcDbPolyline
 90
4
 70
1
 10
458.53891649346133
 20
763.8475034208842
 10
464.3347345284733
 20
765.3994355408655
 10
381.60267436417143
 20
1074.3691128871362
 10
375.8068563291595
 20
1072.817180767155
  0
LWPOLYLINE
  5
13D
330
17
100
AcDbEntity
  8
POCKET-KERF-7.5
100
AcDbPolyline
 90
4
 70
1
 10
447.0457404195223
 20
760.618179129945
 10
452.8154077563495
 20
762.2646720155506
 10
365.04240098744157
 20
1069.840279925595
 10
359.2727336506144
 20
1068.1937870399897
  0
LWPOLYLINE
  5
13E
330
17
100
AcDbEntity
  8
POCKET-KERF-7.5
100
AcDbPolyline
 90
4
 70
1
 10
435.6069039940135
 20
757.2013600137103
 10
441.3488779522398
 20
758.9419734294496
 10
348.55839312391214
 20
1065.0412730428466
 10
342.8164191656859
 20
1063.3006596271075
  0
LWPOLYLINE
  5
13F
330
17
100
AcDbEntity
  8
POCKET-KERF-7.5
100
AcDbPolyline
 90
4
 70
1
 10
424.22546570677576
 20
753.597959653437
 10
429.9382110105771
 20
755.432228198088
 10
332.1550582297886
 20
1059.973375386341
 10
326.4423129259873
 20
1058.1391068416901
  0
LWPOLYLINE
  5
140
330
17
100
AcDbEntity
  8
POCKET-KERF-7.5
100
AcDbPolyline
 90
4
 70
1
 10
412.9044687006682
 20
749.8089415180463
 10
418.5864578893111
 20
751.7363747490937
 10
315.83678219112414
 20
1054.6379419989278
 10
310.15479300248126
 20
1052.7105087678804
  0
LWPOLYLINE
  5
141
330
17
100
AcDbEntity
  8
POCKET-KERF-7.5
100
AcDbPolyline
 90
4
 70
1
 10
401.6469399578981
 20
745.835318706515
 10
407.29665379414854
 20
747.8554012712832
 10
299.60792815112933
 20
1049.0363994565453
 10
293.95821431487894
 20
1047.016316891777
  0
LWPOLYLINE
  5
142
330
17
100
AcDbEntity
  8
POCKET-KERF-7.5
100
AcDbPolyline
 90
4
 70
1
 10
390.4558894906746
 20
741.6781536769943
 10
396.0718173670083
 20
743.7903454504415
 10
283.4728353435663
 20
1043.1702454867877
 10
277.85690746723265
 20
1041.0580537133405
  0
LWPOLYLINE
  5
143
330
17
100
AcDbEntity
  8
POCKET-KERF-7.5
100
AcDbPolyline
 90
4
 70
1
 10
379.3343095363977
 20
737.3385579627326
 10
384.91494987890275
 20
739.5422941918681
 10
267.4358179325336
 20
1037.0410485684467
 10
261.8551775900286
 20
1034.8373123393112
  0
LWPOLYLINE
  5
144
330
17
100
AcDbEntity
  8
POCKET-KERF-7.5
100
AcDbPolyline
 90
4
 70
1
 10
368.28517375760066
 20
732.8176918748763
 10
373.8290344274651
 20
735.1123833297631
 10
251.50116385895507
 20
1030.6504475121321
 10
245.95730318909062
 20
1028.3557560572453
  0
LWPOLYLINE
  5
145
330
17
100
AcDbEntity
  8
POCKET-KERF-7.5
100
AcDbPolyline
 90
4
 70
1
 10
357.31143644686045
 20
728.116764192229
 10
362.81703513933684
 20
730.5017973235298
 10
235.67313369408137
 20
1024.0001510220939
 10
230.167535001605
 20
1021.6151178907929
  0
LWPOLYLINE
  5
146
330
17
100
AcDbEntity
  8
POCKET-KERF-7.5
100
AcDbPolyline
 90
4
 70
1
 10
346.4160317368834
 20
723.237031838049
 10
351.8818963776238
 20
725.711768941077
 10
219.95595950030537
 20
1017.0919372393503
 10
214.49009485956498
 20
1014.6172001363223
  0
LWPOLYLINE
  5
147
330
17
100
AcDbEntity
  8
POCKET-KERF-7.5
100
AcDbPolyline
 90
4
 70
1
 10
335.6018728159857
 20
718.1797995439792
 10
341.026541954642
 20
720.7435789292051
 10
204.35384369960656
 20
1009.9276532662548
 10
198.92917456095023
 20
1007.3638738810289
  0
LWPOLYLINE
  5
148
330
17
100
AcDbEntity
  8
POCKET-KERF-7.5
100
AcDbPolyline
 90
4
 70
1
 10
324.8718511491703
 20
712.946419501188
 10
330.2538743501532
 20
715.5985556711615
 10
188.8709579499138
 20
1002.50921467262
 10
183.48893474893092
 20
999.8570785026465
  0
LWPOLYLINE
  5
149
330
17
100
AcDbEntity
  8
POCKET-KERF-7.5
100
AcDbPolyline
 90
4
 70
1
 10
314.228835705014
 20
707.5382909988251
 10
319.566773935307
 20
710.2780748314616
 10
173.51144202969857
 20
994.8386049835381
 10
168.17350379940552
 20
992.0988211509016
  0
LWPOLYLINE
  5
14A
330
17
100
AcDbEntity
  8
POCKET-KERF-7.5
100
AcDbPolyline
 90
4
 70
1
 10
303.6756721885701
 20
701.9568600498827
 10
308.96809820249536
 20
704.7835589880661
 10
158.27940273109166
 20
986.9178751490302
 10
152.9869767171664
 20
984.0911762108468
  0
LWPOLYLINE
  5
14B
330
17
100
AcDbEntity
  8
POCKET-KERF-7.5
100
AcDbPolyline
 90
4
 70
1
 10
293.2151822804888
 20
696.203619004563
 10
298.4606810013202
 20
699.1164772520165
 10
143.1789127618153
 20
978.7491429956683
 10
137.9334140409839
 20
975.8362847482149
  0
LWPOLYLINE
  5
14C
330
17
100
AcDbEntity
  8
POCKET-KERF-7.5
100
AcDbPolyline
 90
4
 70
1
 10
282.8501628825645
 20
690.2801061512585
 10
288.04733178088793
 20
693.2783448746259
 10
128.21400965623567
 20
970.3345926603155
 10
123.01684075791239
 20
967.3363539369481
  0
LWPOLYLINE
  5
14D
330
17
100
AcDbEntity
  8
POCKET-KERF-7.5
100
AcDbPolyline
 90
4
 70
1
 10
272.5833853699047
 20
684.1879053052461
 10
277.7308348386231
 20
687.2707228423361
 10
113.3886946958134
 20
961.6764740061362
 10
108.24124522709502
 20
958.5936564690462
  0
LWPOLYLINE
  5
14E
330
17
100
AcDbEntity
  8
POCKET-KERF-7.5
100
AcDbPolyline
 90
4
 70
1
 10
262.4175948499269
 20
677.9286453852116
 10
267.51394857581033
 20
681.0952174593436
 10
98.7069318392507
 20
952.7771020210331
 10
93.61057811336715
 20
949.610529946901
  0
LWPOLYLINE
  5
14F
330
17
100
AcDbEntity
  8
POCKET-KERF-7.5
100
AcDbPolyline
 90
4
 70
1
 10
252.35550942837898
 20
671.5039999777129
 10
257.39940476006
 20
674.7534799181104
 10
84.1726466626185
 20
943.6388561986712
 10
79.12875133093736
 20
940.3893762582736
  0
LWPOLYLINE
  5
150
330
17
100
AcDbEntity
  8
POCKET-KERF-7.5
100
AcDbPolyline
 90
4
 70
1
 10
242.39981948257733
 20
664.9156868897004
 10
247.38990779489362
 20
668.2472058578716
 10
69.78972530974404
 20
934.2641799022542
 10
64.79963699742787
 20
930.9326609340831
  0
LWPOLYLINE
  5
151
330
17
100
AcDbEntity
  8
POCKET-KERF-7.5
100
AcDbPolyline
 90
4
 70
1
 10
232.5531869420598
 20
658.1654676892126
 10
237.48813399664627
 20
661.5781349112588
 10
55.56201345314204
 20
924.6555797112237
 10
50.62706639855557
 20
921.2429124891776
  0
LWPOLYLINE
  5
152
330
17
100
AcDbEntity
  8
POCKET-KERF-7.5
100
AcDbPolyline
 90
4
 70
1
 10
222.81824457684502
 20
651.2551472343735
 10
227.69673087887963
 20
654.748050239162
 10
41.49331526576765
 20
914.8156247510548
 10
36.61482896373303
 20
911.3227217462662
  0
LWPOLYLINE
  5
153
330
17
100
AcDbEntity
  8
POCKET-KERF-7.5
100
AcDbPolyline
 90
4
 70
1
 10
213.19759529349005
 20
644.1865731908132
 10
218.01831644449737
 20
647.7587780539517
 10
27.587392403867742
 20
904.7469460063307
 10
22.766671252860423
 20
901.1747411431923
  0
TEXT
  5
154
330
17
100
AcDbEntity
  8
REFERENCE-SHEET
100
AcDbText
 10
650.2775254156239
 20
875.9114848598175
 30
0.0
 40
25.0
  1
02 SHELL-UP  (mark by hand)
 72
1
 11
650.2775254156239
 21
875.9114848598175
 31
0.0
100
AcDbText
 73
2
  0
LWPOLYLINE
  5
155
330
17
100
AcDbEntity
  8
REFERENCE-SHEET
100
AcDbPolyline
 90
4
 70
1
 10
0.0
 20
-1470.0
 10
2440.0
 20
-1470.0
 10
2440.0
 20
-250.0
 10
0.0
 20
-250.0
  0
TEXT
  5
156
330
17
100
AcDbEntity
  8
REFERENCE-SHEET
100
AcDbText
 10
0.0
 20
-195.0
 30
0.0
 40
40.0
  1
18 mm BOARD - SHEET 1/1 - 2440 x 1220
 11
0.0
 21
-195.0
 31
0.0
100
AcDbText
  0
LWPOLYLINE
  5
157
330
17
100
AcDbEntity
  8
CUT
100
AcDbPolyline
 90
2
 70
1
 10
818.0
 20
-1052.0
 42
1.0
 10
18.0
 20
-1052.0
 42
1.0
  0
TEXT
  5
158
330
17
100
AcDbEntity
  8
ENGRAVE-LABEL
100
AcDbText
 10
418.0
 20
-1052.0
 30
0.0
 40
22.0
  1
09 TABLE-TOP
 72
1
 11
418.0
 21
-1052.0
 31
0.0
100
AcDbText
 73
2
  0
LWPOLYLINE
  5
159
330
17
100
AcDbEntity
  8
CUT
100
AcDbPolyline
 90
2
 70
1
 10
1197.0003870005683
 20
-554.4998064997159
 42
1.0
 10
626.0
 20
-554.4998064997159
 42
1.0
  0
TEXT
  5
15A
330
17
100
AcDbEntity
  8
ENGRAVE-LABEL
100
AcDbText
 10
911.500193500284
 20
-554.499806499716
 30
0.0
 40
22.0
  1
03 FORMER-BASE
 72
1
 11
911.500193500284
 21
-554.499806499716
 31
0.0
100
AcDbText
 73
2
  0
LWPOLYLINE
  5
15B
330
17
100
AcDbEntity
  8
CUT
100
AcDbPolyline
 90
2
 70
1
 10
1334.7142857142858
 20
-1193.642857142857
 42
1.0
 10
818.0
 20
-1193.642857142857
 42
1.0
  0
LWPOLYLINE
  5
15C
330
17
100
AcDbEntity
  8
CUT
100
AcDbPolyline
 90
2
 70
1
 10
858.0
 20
-1193.642857142857
 42
-1.0
 10
1294.7142857142858
 20
-1193.642857142857
 42
-1.0
  0
TEXT
  5
15D
330
17
100
AcDbEntity
  8
ENGRAVE-LABEL
100
AcDbText
 10
838.0032133356023
 20
-1193.5774189772137
 30
0.0
 40
18.0
  1
07 COLLAR
 50
90.0
 72
1
 11
838.0032133356023
 21
-1193.5774189772137
 31
0.0
100
AcDbText
 73
2
  0
LWPOLYLINE
  5
15E
330
17
100
AcDbEntity
  8
CUT
100
AcDbPolyline
 90
2
 70
1
 10
1662.0
 20
-790.0
 42
1.0
 10
1162.0
 20
-790.0
 42
1.0
  0
TEXT
  5
15F
330
17
100
AcDbEntity
  8
ENGRAVE-LABEL
100
AcDbText
 10
1412.0
 20
-790.0
 30
0.0
 40
22.0
  1
08 SUB-TOP
 72
1
 11
1412.0
 21
-790.0
 31
0.0
100
AcDbText
 73
2
  0
LWPOLYLINE
  5
160
330
17
100
AcDbEntity
  8
CUT
100
AcDbPolyline
 90
2
 70
1
 10
1760.496185319896
 20
-1246.751907340052
 42
1.0
 10
1350.0
 20
-1246.751907340052
 42
1.0
  0
LWPOLYLINE
  5
161
330
17
100
AcDbEntity
  8
CUT
100
AcDbPolyline
 90
2
 70
1
 10
1410.0
 20
-1246.751907340052
 42
-1.0
 10
1700.496185319896
 20
-1246.751907340052
 42
-1.0
  0
TEXT
  5
162
330
17
100
AcDbEntity
  8
ENGRAVE-LABEL
100
AcDbText
 10
1380.0032133356021
 20
-1246.6864691744086
 30
0.0
 40
11.0
  1
04 FORMER-JOINT-LO
 50
90.0
 72
1
 11
1380.0032133356021
 21
-1246.6864691744086
 31
0.0
100
AcDbText
 73
2
  0
LWPOLYLINE
  5
163
330
17
100
AcDbEntity
  8
CUT
100
AcDbPolyline
 90
2
 70
1
 10
1276.933160109812
 20
-1194.533419945094
 42
1.0
 10
874.0
 20
-1194.533419945094
 42
1.0
  0
LWPOLYLINE
  5
164
330
17
100
AcDbEntity
  8
CUT
100
AcDbPolyline
 90
2
 70
1
 10
934.0
 20
-1194.533419945094
 42
-1.0
 10
1216.933160109812
 20
-1194.533419945094
 42
-1.0
  0
TEXT
  5
165
330
17
100
AcDbEntity
  8
ENGRAVE-LABEL
100
AcDbText
 10
904.0032133356023
 20
-1194.4679817794504
 30
0.0
 40
11.0
  1
05 FORMER-JOINT-UP
 50
90.0
 72
1
 11
904.0032133356023
 21
-1194.4679817794504
 31
0.0
100
AcDbText
 73
2
  0
LWPOLYLINE
  5
166
330
17
100
AcDbEntity
  8
CUT
100
AcDbPolyline
 90
2
 70
1
 10
296.56341221065225
 20
-560.7182938946739
 42
1.0
 10
18.0
 20
-560.7182938946739
 42
1.0
  0
TEXT
  5
167
330
17
100
AcDbEntity
  8
ENGRAVE-LABEL
100
AcDbText
 10
157.28170610532612
 20
-560.7182938946739
 30
0.0
 40
22.0
  1
06 FORMER-TOP
 72
1
 11
157.28170610532612
 21
-560.7182938946739
 31
0.0
100
AcDbText
 73
2
  0
ENDSEC
  0
SECTION
  2
OBJECTS
  0
DICTIONARY
  5
A
330
0
100
AcDbDictionary
281
1
  3
ACAD_COLOR
350
B
  3
ACAD_GROUP
350
C
  3
ACAD_LAYOUT
350
D
  3
ACAD_MATERIAL
350
E
  3
ACAD_MLEADERSTYLE
350
F
  3
ACAD_MLINESTYLE
350
10
  3
ACAD_PLOTSETTINGS
350
11
  3
ACAD_PLOTSTYLENAME
350
12
  3
ACAD_SCALELIST
350
14
  3
ACAD_TABLESTYLE
350
15
  3
ACAD_VISUALSTYLE
350
16
  3
EZDXF_META
350
2D
  0
DICTIONARY
  5
B
330
A
100
AcDbDictionary
281
1
  0
DICTIONARY
  5
C
330
A
100
AcDbDictionary
281
1
  0
DICTIONARY
  5
D
330
A
100
AcDbDictionary
281
1
  3
Model
350
1A
  3
Layout1
350
1E
  0
DICTIONARY
  5
E
330
A
100
AcDbDictionary
281
1
  3
ByBlock
350
1F
  3
ByLayer
350
20
  3
Global
350
21
  0
DICTIONARY
  5
F
330
A
100
AcDbDictionary
281
1
  3
Standard
350
2C
  0
DICTIONARY
  5
10
330
A
100
AcDbDictionary
281
1
  3
Standard
350
22
  0
DICTIONARY
  5
11
330
A
100
AcDbDictionary
281
1
  0
ACDBDICTIONARYWDFLT
  5
12
330
A
100
AcDbDictionary
281
1
  3
Normal
350
13
100
AcDbDictionaryWithDefault
340
13
  0
ACDBPLACEHOLDER
  5
13
330
12
  0
DICTIONARY
  5
14
330
A
100
AcDbDictionary
281
1
  0
DICTIONARY
  5
15
330
A
100
AcDbDictionary
281
1
  0
DICTIONARY
  5
16
330
A
100
AcDbDictionary
281
1
  3
2dWireframe
350
5A
  3
Basic
350
5B
  3
Brighten
350
5C
  3
ColorChange
350
5D
  3
Conceptual
350
5E
  3
Dim
350
5F
  3
EdgeColorOff
350
60
  3
Facepattern
350
61
  3
Flat
350
62
  3
FlatWithEdges
350
63
  3
Gouraud
350
64
  3
GouraudWithEdges
350
65
  3
Hidden
350
66
  3
JitterOff
350
67
  3
Linepattern
350
68
  3
Modeling
350
69
  3
OverhangOff
350
6A
  3
Realistic
350
6B
  3
Shaded
350
6C
  3
Shaded with edges
350
6D
  3
Shades of Gray
350
6E
  3
Sketchy
350
6F
  3
Thicken
350
70
  3
Wireframe
350
71
  3
X-Ray
350
72
  0
LAYOUT
  5
1A
330
D
100
AcDbPlotSettings
  1

  4
A3
  6

 40
7.5
 41
20.0
 42
7.5
 43
20.0
 44
420.0
 45
297.0
 46
0.0
 47
0.0
 48
0.0
 49
0.0
140
0.0
141
0.0
142
1.0
143
1.0
 70
1024
 72
1
 73
0
 74
5
  7

 75
16
 76
0
 77
2
 78
300
147
1.0
148
0.0
149
0.0
100
AcDbLayout
  1
Model
 70
1
 71
0
 10
0.0
 20
0.0
 11
420.0
 21
297.0
 12
0.0
 22
0.0
 32
0.0
 14
1e+20
 24
1e+20
 34
1e+20
 15
-1e+20
 25
-1e+20
 35
-1e+20
146
0.0
 13
0.0
 23
0.0
 33
0.0
 16
1.0
 26
0.0
 36
0.0
 17
0.0
 27
1.0
 37
0.0
 76
1
330
17
  0
LAYOUT
  5
1E
330
D
100
AcDbPlotSettings
  1

  4
A3
  6

 40
7.5
 41
20.0
 42
7.5
 43
20.0
 44
420.0
 45
297.0
 46
0.0
 47
0.0
 48
0.0
 49
0.0
140
0.0
141
0.0
142
1.0
143
1.0
 70
0
 72
1
 73
0
 74
5
  7

 75
16
 76
0
 77
2
 78
300
147
1.0
148
0.0
149
0.0
100
AcDbLayout
  1
Layout1
 70
1
 71
1
 10
0.0
 20
0.0
 11
420.0
 21
297.0
 12
0.0
 22
0.0
 32
0.0
 14
1e+20
 24
1e+20
 34
1e+20
 15
-1e+20
 25
-1e+20
 35
-1e+20
146
0.0
 13
0.0
 23
0.0
 33
0.0
 16
1.0
 26
0.0
 36
0.0
 17
0.0
 27
1.0
 37
0.0
 76
1
330
1B
  0
MATERIAL
  5
1F
102
{ACAD_REACTORS
330
E
102
}
330
E
100
AcDbMaterial
  1
ByBlock
  2

 70
0
 40
1.0
 71
1
 41
1.0
 91
-1023410177
 42
1.0
 72
1
  3

 73
1
 74
1
 75
1
 44
0.5
 73
0
 45
1.0
 46
1.0
 77
1
  4

 78
1
 79
1
170
1
 48
1.0
171
1
  6

172
1
173
1
174
1
140
1.0
141
1.0
175
1
  7

176
1
177
1
178
1
143
1.0
179
1
  8

270
1
271
1
272
1
145
1.0
146
1.0
273
1
  9

274
1
275
1
276
1
 42
1.0
 72
1
  3

 73
1
 74
1
 75
1
 94
63
  0
MATERIAL
  5
20
102
{ACAD_REACTORS
330
E
102
}
330
E
100
AcDbMaterial
  1
ByLayer
  2

 70
0
 40
1.0
 71
1
 41
1.0
 91
-1023410177
 42
1.0
 72
1
  3

 73
1
 74
1
 75
1
 44
0.5
 73
0
 45
1.0
 46
1.0
 77
1
  4

 78
1
 79
1
170
1
 48
1.0
171
1
  6

172
1
173
1
174
1
140
1.0
141
1.0
175
1
  7

176
1
177
1
178
1
143
1.0
179
1
  8

270
1
271
1
272
1
145
1.0
146
1.0
273
1
  9

274
1
275
1
276
1
 42
1.0
 72
1
  3

 73
1
 74
1
 75
1
 94
63
  0
MATERIAL
  5
21
102
{ACAD_REACTORS
330
E
102
}
330
E
100
AcDbMaterial
  1
Global
  2

 70
0
 40
1.0
 71
1
 41
1.0
 91
-1023410177
 42
1.0
 72
1
  3

 73
1
 74
1
 75
1
 44
0.5
 73
0
 45
1.0
 46
1.0
 77
1
  4

 78
1
 79
1
170
1
 48
1.0
171
1
  6

172
1
173
1
174
1
140
1.0
141
1.0
175
1
  7

176
1
177
1
178
1
143
1.0
179
1
  8

270
1
271
1
272
1
145
1.0
146
1.0
273
1
  9

274
1
275
1
276
1
 42
1.0
 72
1
  3

 73
1
 74
1
 75
1
 94
63
  0
MLINESTYLE
  5
22
102
{ACAD_REACTORS
330
10
102
}
330
10
100
AcDbMlineStyle
  2
Standard
 70
0
  3

 62
256
 51
90.0
 52
90.0
 71
2
 49
0.5
 62
256
  6
BYLAYER
 49
-0.5
 62
256
  6
BYLAYER
  0
MLEADERSTYLE
  5
2C
102
{ACAD_REACTORS
330
F
102
}
330
F
100
AcDbMLeaderStyle
179
2
170
2
171
1
172
0
 90
2
 40
0.0
 41
0.0
173
1
 91
-1056964608
 92
-2
290
1
 42
2.0
291
1
 43
8.0
  3
Standard
 44
4.0
300

342
29
174
1
175
1
176
0
178
1
 93
-1056964608
 45
4.0
292
0
297
0
 46
4.0
 94
-1056964608
 47
1.0
 49
1.0
140
1.0
294
1
141
0.0
177
0
142
1.0
295
0
296
0
143
3.75
271
0
272
9
273
9
  0
DICTIONARY
  5
2D
330
A
100
AcDbDictionary
280
1
281
1
  3
CREATED_BY_EZDXF
350
2E
  3
WRITTEN_BY_EZDXF
350
16A
  0
DICTIONARYVAR
  5
2E
330
2D
100
DictionaryVariables
280
0
  1
1.4.4 @ 2026-09-27T12:48:19.885308+00:00
  0
VISUALSTYLE
  5
5A
102
{ACAD_REACTORS
330
16
102
}
330
16
100
AcDbVisualStyle
  2
2dWireframe
 70
4
 90
0
 40
0.6
 62
7
290
0
291
0
  0
VISUALSTYLE
  5
5B
102
{ACAD_REACTORS
330
16
102
}
330
16
100
AcDbVisualStyle
  2
Basic
 70
7
 90
1
 40
0.6
 62
7
290
0
291
1
  0
VISUALSTYLE
  5
5C
102
{ACAD_REACTORS
330
16
102
}
330
16
100
AcDbVisualStyle
  2
Brighten
 70
12
 90
2
 40
0.6
 62
7
290
0
291
1
  0
VISUALSTYLE
  5
5D
102
{ACAD_REACTORS
330
16
102
}
330
16
100
AcDbVisualStyle
  2
ColorChange
 70
16
 90
2
 40
0.6
 62
8
290
0
291
1
  0
VISUALSTYLE
  5
5E
102
{ACAD_REACTORS
330
16
102
}
330
16
100
AcDbVisualStyle
  2
Conceptual
 70
9
 90
3
 40
0.6
 62
7
290
0
291
0
  0
VISUALSTYLE
  5
5F
102
{ACAD_REACTORS
330
16
102
}
330
16
100
AcDbVisualStyle
  2
Dim
 70
11
 90
2
 40
0.6
 62
7
290
0
291
1
  0
VISUALSTYLE
  5
60
102
{ACAD_REACTORS
330
16
102
}
330
16
100
AcDbVisualStyle
  2
EdgeColorOff
 70
22
 90
2
 40
0.6
 62
7
290
0
291
1
  0
VISUALSTYLE
  5
61
102
{ACAD_REACTORS
330
16
102
}
330
16
100
AcDbVisualStyle
  2
Facepattern
 70
15
 90
2
 40
0.6
 62
7
290
0
291
1
  0
VISUALSTYLE
  5
62
102
{ACAD_REACTORS
330
16
102
}
330
16
100
AcDbVisualStyle
  2
Flat
 70
0
 90
2
 40
0.6
 62
7
290
0
291
1
  0
VISUALSTYLE
  5
63
102
{ACAD_REACTORS
330
16
102
}
330
16
100
AcDbVisualStyle
  2
FlatWithEdges
 70
1
 90
2
 40
0.6
 62
7
290
0
291
1
  0
VISUALSTYLE
  5
64
102
{ACAD_REACTORS
330
16
102
}
330
16
100
AcDbVisualStyle
  2
Gouraud
 70
2
 90
2
 40
0.6
 62
7
290
0
291
1
  0
VISUALSTYLE
  5
65
102
{ACAD_REACTORS
330
16
102
}
330
16
100
AcDbVisualStyle
  2
GouraudWithEdges
 70
3
 90
2
 40
0.6
 62
7
290
0
291
1
  0
VISUALSTYLE
  5
66
102
{ACAD_REACTORS
330
16
102
}
330
16
100
AcDbVisualStyle
  2
Hidden
 70
6
 90
1
 40
0.6
 62
7
290
0
291
0
  0
VISUALSTYLE
  5
67
102
{ACAD_REACTORS
330
16
102
}
330
16
100
AcDbVisualStyle
  2
JitterOff
 70
20
 90
2
 40
0.6
 62
7
290
0
291
1
  0
VISUALSTYLE
  5
68
102
{ACAD_REACTORS
330
16
102
}
330
16
100
AcDbVisualStyle
  2
Linepattern
 70
14
 90
2
 40
0.6
 62
7
290
0
291
1
  0
VISUALSTYLE
  5
69
102
{ACAD_REACTORS
330
16
102
}
330
16
100
AcDbVisualStyle
  2
Modeling
 70
10
 90
2
 40
0.6
 62
7
290
0
291
0
  0
VISUALSTYLE
  5
6A
102
{ACAD_REACTORS
330
16
102
}
330
16
100
AcDbVisualStyle
  2
OverhangOff
 70
21
 90
2
 40
0.6
 62
7
290
0
291
1
  0
VISUALSTYLE
  5
6B
102
{ACAD_REACTORS
330
16
102
}
330
16
100
AcDbVisualStyle
  2
Realistic
 70
8
 90
2
 40
0.6
 62
7
290
0
291
0
  0
VISUALSTYLE
  5
6C
102
{ACAD_REACTORS
330
16
102
}
330
16
100
AcDbVisualStyle
  2
Shaded
 70
27
 90
2
 40
0.6
 62
7
290
0
291
0
  0
VISUALSTYLE
  5
6D
102
{ACAD_REACTORS
330
16
102
}
330
16
100
AcDbVisualStyle
  2
Shaded with edges
 70
26
 90
2
 40
0.6
 62
7
290
0
291
0
  0
VISUALSTYLE
  5
6E
102
{ACAD_REACTORS
330
16
102
}
330
16
100
AcDbVisualStyle
  2
Shades of Gray
 70
23
 90
2
 40
0.6
 62
7
290
0
291
0
  0
VISUALSTYLE
  5
6F
102
{ACAD_REACTORS
330
16
102
}
330
16
100
AcDbVisualStyle
  2
Sketchy
 70
24
 90
1
 40
0.6
 62
7
290
0
291
0
  0
VISUALSTYLE
  5
70
102
{ACAD_REACTORS
330
16
102
}
330
16
100
AcDbVisualStyle
  2
Thicken
 70
13
 90
2
 40
0.6
 62
7
290
0
291
1
  0
VISUALSTYLE
  5
71
102
{ACAD_REACTORS
330
16
102
}
330
16
100
AcDbVisualStyle
  2
Wireframe
 70
5
 90
0
 40
0.6
 62
7
290
0
291
0
  0
VISUALSTYLE
  5
72
102
{ACAD_REACTORS
330
16
102
}
330
16
100
AcDbVisualStyle
  2
X-Ray
 70
25
 90
2
 40
0.5
 62
7
290
0
291
0
  0
DICTIONARYVAR
  5
16A
330
2D
100
DictionaryVariables
280
0
  1
1.4.4 @ 2026-09-27T12:48:23.890502+00:00
  0
ENDSEC
  0
EOF
