  0
SECTION
  2
HEADER
  9
$ACADVER
  1
AC1024
  9
$ACADMAINTVER
 70
6
  9
$DWGCODEPAGE
  3
ANSI_1252
  9
$LASTSAVEDBY
  1
ezdxf
  9
$INSBASE
 10
0.0
 20
0.0
 30
0.0
  9
$EXTMIN
 10
1e+20
 20
1e+20
 30
1e+20
  9
$EXTMAX
 10
-1e+20
 20
-1e+20
 30
-1e+20
  9
$LIMMIN
 10
0.0
 20
0.0
  9
$LIMMAX
 10
420.0
 20
297.0
  9
$ORTHOMODE
 70
0
  9
$REGENMODE
 70
1
  9
$FILLMODE
 70
1
  9
$QTEXTMODE
 70
0
  9
$MIRRTEXT
 70
1
  9
$LTSCALE
 40
1.0
  9
$ATTMODE
 70
1
  9
$TEXTSIZE
 40
2.5
  9
$TRACEWID
 40
1.0
  9
$TEXTSTYLE
  7
OpenSans
  9
$CLAYER
  8
0
  9
$CELTYPE
  6
ByLayer
  9
$CECOLOR
 62
256
  9
$CELTSCALE
 40
1.0
  9
$DISPSILH
 70
0
  9
$DIMSCALE
 40
1.0
  9
$DIMASZ
 40
0.175
  9
$DIMEXO
 40
0.125
  9
$DIMDLI
 40
3.75
  9
$DIMRND
 40
0.0
  9
$DIMDLE
 40
0.0
  9
$DIMEXE
 40
0.375
  9
$DIMTP
 40
0.0
  9
$DIMTM
 40
0.0
  9
$DIMTXT
 40
0.25
  9
$DIMCEN
 40
2.5
  9
$DIMTSZ
 40
0.0
  9
$DIMTOL
 70
0
  9
$DIMLIM
 70
0
  9
$DIMTIH
 70
0
  9
$DIMTOH
 70
0
  9
$DIMSE1
 70
0
  9
$DIMSE2
 70
0
  9
$DIMTAD
 70
1
  9
$DIMZIN
 70
12
  9
$DIMBLK
  1
ARCHTICK
  9
$DIMASO
 70
1
  9
$DIMSHO
 70
1
  9
$DIMPOST
  1

  9
$DIMAPOST
  1

  9
$DIMALT
 70
0
  9
$DIMALTD
 70
3
  9
$DIMALTF
 40
0.03937007874
  9
$DIMLFAC
 40
100.0
  9
$DIMTOFL
 70
1
  9
$DIMTVP
 40
0.0
  9
$DIMTIX
 70
0
  9
$DIMSOXD
 70
0
  9
$DIMSAH
 70
0
  9
$DIMBLK1
  1

  9
$DIMBLK2
  1

  9
$DIMSTYLE
  2
EZDXF
  9
$DIMCLRD
 70
0
  9
$DIMCLRE
 70
0
  9
$DIMCLRT
 70
0
  9
$DIMTFAC
 40
0.5
  9
$DIMGAP
 40
0.1
  9
$DIMJUST
 70
0
  9
$DIMSD1
 70
0
  9
$DIMSD2
 70
0
  9
$DIMTOLJ
 70
0
  9
$DIMTZIN
 70
8
  9
$DIMALTZ
 70
0
  9
$DIMALTTZ
 70
0
  9
$DIMUPT
 70
1
  9
$DIMDEC
 70
2
  9
$DIMTDEC
 70
2
  9
$DIMALTU
 70
2
  9
$DIMALTTD
 70
3
  9
$DIMTXSTY
  7
OpenSansCondensed-Light
  9
$DIMAUNIT
 70
0
  9
$DIMADEC
 70
2
  9
$DIMALTRND
 40
0.0
  9
$DIMAZIN
 70
3
  9
$DIMDSEP
 70
46
  9
$DIMATFIT
 70
3
  9
$DIMFRAC
 70
0
  9
$DIMLDRBLK
  1

  9
$DIMLUNIT
 70
2
  9
$DIMLWD
 70
-2
  9
$DIMLWE
 70
-2
  9
$DIMTMOVE
 70
2
  9
$DIMFXL
 40
1.0
  9
$DIMFXLON
 70
0
  9
$DIMJOGANG
 40
0.785398163397
  9
$DIMTFILL
 70
0
  9
$DIMTFILLCLR
 70
0
  9
$DIMARCSYM
 70
0
  9
$DIMLTYPE
  6

  9
$DIMLTEX1
  6

  9
$DIMLTEX2
  6

  9
$DIMTXTDIRECTION
 70
0
  9
$LUNITS
 70
2
  9
$LUPREC
 70
4
  9
$SKETCHINC
 40
1.0
  9
$FILLETRAD
 40
10.0
  9
$AUNITS
 70
0
  9
$AUPREC
 70
2
  9
$MENU
  1
.
  9
$ELEVATION
 40
0.0
  9
$PELEVATION
 40
0.0
  9
$THICKNESS
 40
0.0
  9
$LIMCHECK
 70
0
  9
$CHAMFERA
 40
0.0
  9
$CHAMFERB
 40
0.0
  9
$CHAMFERC
 40
0.0
  9
$CHAMFERD
 40
0.0
  9
$SKPOLY
 70
0
  9
$TDCREATE
 40
2461313.0498032407
  9
$TDUCREATE
 40
2458532.153996898
  9
$TDUPDATE
 40
2461313.049861111
  9
$TDUUPDATE
 40
2458532.1544311
  9
$TDINDWG
 40
0.0
  9
$TDUSRTIMER
 40
0.0
  9
$USRTIMER
 70
1
  9
$ANGBASE
 50
0.0
  9
$ANGDIR
 70
0
  9
$PDMODE
 70
0
  9
$PDSIZE
 40
0.0
  9
$PLINEWID
 40
0.0
  9
$SPLFRAME
 70
0
  9
$SPLINETYPE
 70
6
  9
$SPLINESEGS
 70
8
  9
$HANDSEED
  5
17D
  9
$SURFTAB1
 70
6
  9
$SURFTAB2
 70
6
  9
$SURFTYPE
 70
6
  9
$SURFU
 70
6
  9
$SURFV
 70
6
  9
$UCSBASE
  2

  9
$UCSNAME
  2

  9
$UCSORG
 10
0.0
 20
0.0
 30
0.0
  9
$UCSXDIR
 10
1.0
 20
0.0
 30
0.0
  9
$UCSYDIR
 10
0.0
 20
1.0
 30
0.0
  9
$UCSORTHOREF
  2

  9
$UCSORTHOVIEW
 70
0
  9
$UCSORGTOP
 10
0.0
 20
0.0
 30
0.0
  9
$UCSORGBOTTOM
 10
0.0
 20
0.0
 30
0.0
  9
$UCSORGLEFT
 10
0.0
 20
0.0
 30
0.0
  9
$UCSORGRIGHT
 10
0.0
 20
0.0
 30
0.0
  9
$UCSORGFRONT
 10
0.0
 20
0.0
 30
0.0
  9
$UCSORGBACK
 10
0.0
 20
0.0
 30
0.0
  9
$PUCSBASE
  2

  9
$PUCSNAME
  2

  9
$PUCSORG
 10
0.0
 20
0.0
 30
0.0
  9
$PUCSXDIR
 10
1.0
 20
0.0
 30
0.0
  9
$PUCSYDIR
 10
0.0
 20
1.0
 30
0.0
  9
$PUCSORTHOREF
  2

  9
$PUCSORTHOVIEW
 70
0
  9
$PUCSORGTOP
 10
0.0
 20
0.0
 30
0.0
  9
$PUCSORGBOTTOM
 10
0.0
 20
0.0
 30
0.0
  9
$PUCSORGLEFT
 10
0.0
 20
0.0
 30
0.0
  9
$PUCSORGRIGHT
 10
0.0
 20
0.0
 30
0.0
  9
$PUCSORGFRONT
 10
0.0
 20
0.0
 30
0.0
  9
$PUCSORGBACK
 10
0.0
 20
0.0
 30
0.0
  9
$USERI1
 70
0
  9
$USERI2
 70
0
  9
$USERI3
 70
0
  9
$USERI4
 70
0
  9
$USERI5
 70
0
  9
$USERR1
 40
0.0
  9
$USERR2
 40
0.0
  9
$USERR3
 40
0.0
  9
$USERR4
 40
0.0
  9
$USERR5
 40
0.0
  9
$WORLDVIEW
 70
1
  9
$SHADEDGE
 70
3
  9
$SHADEDIF
 70
70
  9
$TILEMODE
 70
1
  9
$MAXACTVP
 70
64
  9
$PINSBASE
 10
0.0
 20
0.0
 30
0.0
  9
$PLIMCHECK
 70
0
  9
$PEXTMIN
 10
1e+20
 20
1e+20
 30
1e+20
  9
$PEXTMAX
 10
-1e+20
 20
-1e+20
 30
-1e+20
  9
$PLIMMIN
 10
0.0
 20
0.0
  9
$PLIMMAX
 10
420.0
 20
297.0
  9
$UNITMODE
 70
0
  9
$VISRETAIN
 70
1
  9
$PLINEGEN
 70
0
  9
$PSLTSCALE
 70
1
  9
$TREEDEPTH
 70
3020
  9
$CMLSTYLE
  2
Standard
  9
$CMLJUST
 70
0
  9
$CMLSCALE
 40
20.0
  9
$PROXYGRAPHICS
 70
1
  9
$MEASUREMENT
 70
1
  9
$CELWEIGHT
370
-1
  9
$ENDCAPS
280
0
  9
$JOINSTYLE
280
0
  9
$LWDISPLAY
290
0
  9
$INSUNITS
 70
4
  9
$HYPERLINKBASE
  1

  9
$STYLESHEET
  1

  9
$XEDIT
290
1
  9
$CEPSNTYPE
380
0
  9
$PSTYLEMODE
290
1
  9
$FINGERPRINTGUID
  2
{CDF4E649-651A-469E-A4B9-6E5E11B09AE4}
  9
$VERSIONGUID
  2
{FB3F1F2A-8D32-4445-A768-0EEF673B2544}
  9
$EXTNAMES
290
1
  9
$PSVPSCALE
 40
0.0
  9
$OLESTARTUP
290
0
  9
$SORTENTS
280
127
  9
$INDEXCTL
280
0
  9
$HIDETEXT
280
1
  9
$XCLIPFRAME
280
1
  9
$HALOGAP
280
0
  9
$OBSCOLOR
 70
257
  9
$OBSLTYPE
280
0
  9
$INTERSECTIONDISPLAY
280
0
  9
$INTERSECTIONCOLOR
 70
257
  9
$DIMASSOC
280
2
  9
$PROJECTNAME
  1

  9
$CAMERADISPLAY
290
0
  9
$LENSLENGTH
 40
50.0
  9
$CAMERAHEIGHT
 40
0.0
  9
$STEPSPERSEC
 40
24.0
  9
$STEPSIZE
 40
100.0
  9
$3DDWFPREC
 40
2.0
  9
$PSOLWIDTH
 40
0.005
  9
$PSOLHEIGHT
 40
0.08
  9
$LOFTANG1
 40
1.570796326795
  9
$LOFTANG2
 40
1.570796326795
  9
$LOFTMAG1
 40
0.0
  9
$LOFTMAG2
 40
0.0
  9
$LOFTPARAM
 70
7
  9
$LOFTNORMALS
280
1
  9
$LATITUDE
 40
37.795
  9
$LONGITUDE
 40
-122.394
  9
$NORTHDIRECTION
 40
0.0
  9
$TIMEZONE
 70
-8000
  9
$LIGHTGLYPHDISPLAY
280
1
  9
$TILEMODELIGHTSYNCH
280
1
  9
$CMATERIAL
347
20
  9
$SOLIDHIST
280
0
  9
$SHOWHIST
280
1
  9
$DWFFRAME
280
2
  9
$DGNFRAME
280
2
  9
$REALWORLDSCALE
290
1
  9
$INTERFERECOLOR
 62
256
  9
$CSHADOW
280
0
  9
$SHADOWPLANELOCATION
 40
0.0
  0
ENDSEC
  0
SECTION
  2
CLASSES
  0
CLASS
  1
ACDBDICTIONARYWDFLT
  2
AcDbDictionaryWithDefault
  3
ObjectDBX Classes
 90
0
 91
0
280
0
281
0
  0
CLASS
  1
SUN
  2
AcDbSun
  3
SCENEOE
 90
1153
 91
0
280
0
281
0
  0
CLASS
  1
VISUALSTYLE
  2
AcDbVisualStyle
  3
ObjectDBX Classes
 90
4095
 91
0
280
0
281
0
  0
CLASS
  1
MATERIAL
  2
AcDbMaterial
  3
ObjectDBX Classes
 90
1153
 91
0
280
0
281
0
  0
CLASS
  1
SCALE
  2
AcDbScale
  3
ObjectDBX Classes
 90
1153
 91
0
280
0
281
0
  0
CLASS
  1
TABLESTYLE
  2
AcDbTableStyle
  3
ObjectDBX Classes
 90
4095
 91
0
280
0
281
0
  0
CLASS
  1
MLEADERSTYLE
  2
AcDbMLeaderStyle
  3
ACDB_MLEADERSTYLE_CLASS
 90
4095
 91
0
280
0
281
0
  0
CLASS
  1
DICTIONARYVAR
  2
AcDbDictionaryVar
  3
ObjectDBX Classes
 90
0
 91
0
280
0
281
0
  0
CLASS
  1
CELLSTYLEMAP
  2
AcDbCellStyleMap
  3
ObjectDBX Classes
 90
1152
 91
0
280
0
281
0
  0
CLASS
  1
MENTALRAYRENDERSETTINGS
  2
AcDbMentalRayRenderSettings
  3
SCENEOE
 90
1024
 91
0
280
0
281
0
  0
CLASS
  1
ACDBDETAILVIEWSTYLE
  2
AcDbDetailViewStyle
  3
ObjectDBX Classes
 90
1025
 91
0
280
0
281
0
  0
CLASS
  1
ACDBSECTIONVIEWSTYLE
  2
AcDbSectionViewStyle
  3
ObjectDBX Classes
 90
1025
 91
0
280
0
281
0
  0
CLASS
  1
RASTERVARIABLES
  2
AcDbRasterVariables
  3
ISM
 90
0
 91
0
280
0
281
0
  0
CLASS
  1
ACDBPLACEHOLDER
  2
AcDbPlaceHolder
  3
ObjectDBX Classes
 90
0
 91
0
280
0
281
0
  0
CLASS
  1
LAYOUT
  2
AcDbLayout
  3
ObjectDBX Classes
 90
0
 91
0
280
0
281
0
  0
ENDSEC
  0
SECTION
  2
TABLES
  0
TABLE
  2
VPORT
  5
8
330
0
100
AcDbSymbolTable
 70
1
  0
VPORT
  5
23
330
8
100
AcDbSymbolTableRecord
100
AcDbViewportTableRecord
  2
*Active
 70
0
 10
0.0
 20
0.0
 11
1.0
 21
1.0
 12
0.0
 22
0.0
 13
0.0
 23
0.0
 14
0.5
 24
0.5
 15
0.5
 25
0.5
 16
0.0
 26
0.0
 36
1.0
 17
0.0
 27
0.0
 37
0.0
 40
1000.0
 41
1.34
 42
50.0
 43
0.0
 44
0.0
 50
0.0
 51
0.0
 71
0
 72
1000
 73
1
 74
3
 75
0
 76
0
 77
0
 78
0
281
0
 65
0
146
0.0
  0
ENDTAB
  0
TABLE
  2
LTYPE
  5
2
330
0
100
AcDbSymbolTable
 70
21
  0
LTYPE
  5
24
330
2
100
AcDbSymbolTableRecord
100
AcDbLinetypeTableRecord
  2
ByBlock
 70
0
  3

 72
65
 73
0
 40
0.0
  0
LTYPE
  5
25
330
2
100
AcDbSymbolTableRecord
100
AcDbLinetypeTableRecord
  2
ByLayer
 70
0
  3

 72
65
 73
0
 40
0.0
  0
LTYPE
  5
26
330
2
100
AcDbSymbolTableRecord
100
AcDbLinetypeTableRecord
  2
Continuous
 70
0
  3

 72
65
 73
0
 40
0.0
  0
LTYPE
  5
2F
330
2
100
AcDbSymbolTableRecord
100
AcDbLinetypeTableRecord
  2
CENTER
 70
0
  3
Center ____ _ ____ _ ____ _ ____ _ ____ _ ____
 72
65
 73
4
 40
5.08
 49
3.175
 74
0
 49
-0.635
 74
0
 49
0.635
 74
0
 49
-0.635
 74
0
  0
LTYPE
  5
30
330
2
100
AcDbSymbolTableRecord
100
AcDbLinetypeTableRecord
  2
CENTERX2
 70
0
  3
Center (2x) ________  __  ________  __  ________
 72
65
 73
4
 40
8.89
 49
6.35
 74
0
 49
-0.635
 74
0
 49
1.27
 74
0
 49
-0.635
 74
0
  0
LTYPE
  5
31
330
2
100
AcDbSymbolTableRecord
100
AcDbLinetypeTableRecord
  2
CENTER2
 70
0
  3
Center (.5x) ____ _ ____ _ ____ _ ____ _ ____
 72
65
 73
4
 40
2.54
 49
1.587
 74
0
 49
-0.318
 74
0
 49
0.318
 74
0
 49
-0.318
 74
0
  0
LTYPE
  5
32
330
2
100
AcDbSymbolTableRecord
100
AcDbLinetypeTableRecord
  2
DASHED
 70
0
  3
Dashed __ __ __ __ __ __ __ __ __ __ __ __ __ _
 72
65
 73
2
 40
1.524
 49
1.27
 74
0
 49
-0.254
 74
0
  0
LTYPE
  5
33
330
2
100
AcDbSymbolTableRecord
100
AcDbLinetypeTableRecord
  2
DASHEDX2
 70
0
  3
Dashed (2x) ____  ____  ____  ____  ____  ____
 72
65
 73
2
 40
3.048
 49
2.54
 74
0
 49
-0.508
 74
0
  0
LTYPE
  5
34
330
2
100
AcDbSymbolTableRecord
100
AcDbLinetypeTableRecord
  2
DASHED2
 70
0
  3
Dashed (.5x) _ _ _ _ _ _ _ _ _ _ _ _ _ _
 72
65
 73
2
 40
0.762
 49
0.635
 74
0
 49
-0.127
 74
0
  0
LTYPE
  5
35
330
2
100
AcDbSymbolTableRecord
100
AcDbLinetypeTableRecord
  2
PHANTOM
 70
0
  3
Phantom ______  __  __  ______  __  __  ______
 72
65
 73
6
 40
6.35
 49
3.175
 74
0
 49
-0.635
 74
0
 49
0.635
 74
0
 49
-0.635
 74
0
 49
0.635
 74
0
 49
-0.635
 74
0
  0
LTYPE
  5
36
330
2
100
AcDbSymbolTableRecord
100
AcDbLinetypeTableRecord
  2
PHANTOMX2
 70
0
  3
Phantom (2x)____________    ____    ____    ____________
 72
65
 73
6
 40
10.795
 49
6.35
 74
0
 49
-0.635
 74
0
 49
1.27
 74
0
 49
-0.635
 74
0
 49
1.27
 74
0
 49
-0.635
 74
0
  0
LTYPE
  5
37
330
2
100
AcDbSymbolTableRecord
100
AcDbLinetypeTableRecord
  2
PHANTOM2
 70
0
  3
Phantom (.5x) ___ _ _ ___ _ _ ___ _ _ ___ _ _ ___
 72
65
 73
6
 40
3.175
 49
1.587
 74
0
 49
-0.318
 74
0
 49
0.318
 74
0
 49
-0.318
 74
0
 49
0.318
 74
0
 49
-0.318
 74
0
  0
LTYPE
  5
38
330
2
100
AcDbSymbolTableRecord
100
AcDbLinetypeTableRecord
  2
DASHDOT
 70
0
  3
Dash dot __ . __ . __ . __ . __ . __ . __ . __
 72
65
 73
4
 40
3.556
 49
2.54
 74
0
 49
-0.508
 74
0
 49
0.0
 74
0
 49
-0.508
 74
0
  0
LTYPE
  5
39
330
2
100
AcDbSymbolTableRecord
100
AcDbLinetypeTableRecord
  2
DASHDOTX2
 70
0
  3
Dash dot (2x) ____  .  ____  .  ____  .  ____
 72
65
 73
4
 40
6.096
 49
5.08
 74
0
 49
-0.508
 74
0
 49
0.0
 74
0
 49
-0.508
 74
0
  0
LTYPE
  5
3A
330
2
100
AcDbSymbolTableRecord
100
AcDbLinetypeTableRecord
  2
DASHDOT2
 70
0
  3
Dash dot (.5x) _ . _ . _ . _ . _ . _ . _ . _
 72
65
 73
4
 40
1.778
 49
1.27
 74
0
 49
-0.254
 74
0
 49
0.0
 74
0
 49
-0.254
 74
0
  0
LTYPE
  5
3B
330
2
100
AcDbSymbolTableRecord
100
AcDbLinetypeTableRecord
  2
DOT
 70
0
  3
Dot .  .  .  .  .  .  .  .  .  .  .  .  .  .  .  .
 72
65
 73
2
 40
0.508
 49
0.0
 74
0
 49
-0.508
 74
0
  0
LTYPE
  5
3C
330
2
100
AcDbSymbolTableRecord
100
AcDbLinetypeTableRecord
  2
DOTX2
 70
0
  3
Dot (2x) .    .    .    .    .    .    .    . 
 72
65
 73
2
 40
1.016
 49
0.0
 74
0
 49
-1.016
 74
0
  0
LTYPE
  5
3D
330
2
100
AcDbSymbolTableRecord
100
AcDbLinetypeTableRecord
  2
DOT2
 70
0
  3
Dot (.5) . . . . . . . . . . . . . . . . . . . 
 72
65
 73
2
 40
0.254
 49
0.0
 74
0
 49
-0.254
 74
0
  0
LTYPE
  5
3E
330
2
100
AcDbSymbolTableRecord
100
AcDbLinetypeTableRecord
  2
DIVIDE
 70
0
  3
Divide __ . . __ . . __ . . __ . . __ . . __
 72
65
 73
6
 40
4.064
 49
2.54
 74
0
 49
-0.508
 74
0
 49
0.0
 74
0
 49
-0.508
 74
0
 49
0.0
 74
0
 49
-0.508
 74
0
  0
LTYPE
  5
3F
330
2
100
AcDbSymbolTableRecord
100
AcDbLinetypeTableRecord
  2
DIVIDEX2
 70
0
  3
Divide (2x) ____  . .  ____  . .  ____  . .  ____
 72
65
 73
6
 40
6.604
 49
5.08
 74
0
 49
-0.508
 74
0
 49
0.0
 74
0
 49
-0.508
 74
0
 49
0.0
 74
0
 49
-0.508
 74
0
  0
LTYPE
  5
40
330
2
100
AcDbSymbolTableRecord
100
AcDbLinetypeTableRecord
  2
DIVIDE2
 70
0
  3
Divide(.5x) _ . _ . _ . _ . _ . _ . _ . _
 72
65
 73
6
 40
2.032
 49
1.27
 74
0
 49
-0.254
 74
0
 49
0.0
 74
0
 49
-0.254
 74
0
 49
0.0
 74
0
 49
-0.254
 74
0
  0
ENDTAB
  0
TABLE
  2
LAYER
  5
1
330
0
100
AcDbSymbolTable
 70
6
  0
LAYER
  5
27
330
1
100
AcDbSymbolTableRecord
100
AcDbLayerTableRecord
  2
0
 70
0
 62
7
  6
Continuous
370
-3
390
13
347
21
  0
LAYER
  5
28
330
1
100
AcDbSymbolTableRecord
100
AcDbLayerTableRecord
  2
Defpoints
 70
0
 62
7
  6
Continuous
290
0
370
-3
390
13
347
21
  0
LAYER
  5
8A
330
1
100
AcDbSymbolTableRecord
100
AcDbLayerTableRecord
  2
CUT
 70
0
 62
1
  6
Continuous
370
-3
390
13
347
21
  0
LAYER
  5
8B
330
1
100
AcDbSymbolTableRecord
100
AcDbLayerTableRecord
  2
POCKET-KERF-15.5
 70
0
 62
5
  6
Continuous
370
-3
390
13
347
21
  0
LAYER
  5
8C
330
1
100
AcDbSymbolTableRecord
100
AcDbLayerTableRecord
  2
ENGRAVE-LABEL
 70
0
 62
3
  6
Continuous
370
-3
390
13
347
21
  0
LAYER
  5
8D
330
1
100
AcDbSymbolTableRecord
100
AcDbLayerTableRecord
  2
REFERENCE-SHEET
 70
0
 62
8
  6
Continuous
370
-3
390
13
347
21
  0
ENDTAB
  0
TABLE
  2
STYLE
  5
5
330
0
100
AcDbSymbolTable
 70
26
  0
STYLE
  5
29
330
5
100
AcDbSymbolTableRecord
100
AcDbTextStyleTableRecord
  2
Standard
 70
0
 40
0.0
 41
1.0
 50
0.0
 71
0
 42
2.5
  3
txt
  4

  0
STYLE
  5
41
330
5
100
AcDbSymbolTableRecord
100
AcDbTextStyleTableRecord
  2
OpenSans-Light
 70
0
 40
0.0
 41
1.0
 50
0.0
 71
0
 42
2.5
  3
OpenSans-Light.ttf
  4

  0
STYLE
  5
42
330
5
100
AcDbSymbolTableRecord
100
AcDbTextStyleTableRecord
  2
OpenSans-Light-Italic
 70
0
 40
0.0
 41
1.0
 50
0.0
 71
0
 42
2.5
  3
OpenSans-LightItalic.ttf
  4

  0
STYLE
  5
43
330
5
100
AcDbSymbolTableRecord
100
AcDbTextStyleTableRecord
  2
OpenSans
 70
0
 40
0.0
 41
1.0
 50
0.0
 71
0
 42
2.5
  3
OpenSans-Regular.ttf
  4

  0
STYLE
  5
44
330
5
100
AcDbSymbolTableRecord
100
AcDbTextStyleTableRecord
  2
OpenSans-Italic
 70
0
 40
0.0
 41
1.0
 50
0.0
 71
0
 42
2.5
  3
OpenSans-Italic.ttf
  4

  0
STYLE
  5
45
330
5
100
AcDbSymbolTableRecord
100
AcDbTextStyleTableRecord
  2
OpenSans-SemiBold
 70
0
 40
0.0
 41
1.0
 50
0.0
 71
0
 42
2.5
  3
OpenSans-SemiBold.ttf
  4

  0
STYLE
  5
46
330
5
100
AcDbSymbolTableRecord
100
AcDbTextStyleTableRecord
  2
OpenSans-SemiBoldItalic
 70
0
 40
0.0
 41
1.0
 50
0.0
 71
0
 42
2.5
  3
OpenSans-SemiBoldItalic.ttf
  4

  0
STYLE
  5
47
330
5
100
AcDbSymbolTableRecord
100
AcDbTextStyleTableRecord
  2
OpenSans-Bold
 70
0
 40
0.0
 41
1.0
 50
0.0
 71
0
 42
2.5
  3
OpenSans-Bold.ttf
  4

  0
STYLE
  5
48
330
5
100
AcDbSymbolTableRecord
100
AcDbTextStyleTableRecord
  2
OpenSans-BoldItalic
 70
0
 40
0.0
 41
1.0
 50
0.0
 71
0
 42
2.5
  3
OpenSans-BoldItalic.ttf
  4

  0
STYLE
  5
49
330
5
100
AcDbSymbolTableRecord
100
AcDbTextStyleTableRecord
  2
OpenSans-ExtraBold
 70
0
 40
0.0
 41
1.0
 50
0.0
 71
0
 42
2.5
  3
OpenSans-ExtraBold.ttf
  4

  0
STYLE
  5
4A
330
5
100
AcDbSymbolTableRecord
100
AcDbTextStyleTableRecord
  2
OpenSans-ExtraBoldItalic
 70
0
 40
0.0
 41
1.0
 50
0.0
 71
0
 42
2.5
  3
OpenSans-ExtraBoldItalic.ttf
  4

  0
STYLE
  5
4B
330
5
100
AcDbSymbolTableRecord
100
AcDbTextStyleTableRecord
  2
OpenSansCondensed-Bold
 70
0
 40
0.0
 41
1.0
 50
0.0
 71
0
 42
2.5
  3
OpenSansCondensed-Bold.ttf
  4

  0
STYLE
  5
4C
330
5
100
AcDbSymbolTableRecord
100
AcDbTextStyleTableRecord
  2
OpenSansCondensed-Light
 70
0
 40
0.0
 41
1.0
 50
0.0
 71
0
 42
2.5
  3
OpenSansCondensed-Light.ttf
  4

  0
STYLE
  5
4D
330
5
100
AcDbSymbolTableRecord
100
AcDbTextStyleTableRecord
  2
OpenSansCondensed-Italic
 70
0
 40
0.0
 41
1.0
 50
0.0
 71
0
 42
2.5
  3
OpenSansCondensed-LightItalic.ttf
  4

  0
STYLE
  5
4E
330
5
100
AcDbSymbolTableRecord
100
AcDbTextStyleTableRecord
  2
LiberationSans
 70
0
 40
0.0
 41
1.0
 50
0.0
 71
0
 42
2.5
  3
LiberationSans-Regular.ttf
  4

  0
STYLE
  5
4F
330
5
100
AcDbSymbolTableRecord
100
AcDbTextStyleTableRecord
  2
LiberationSans-Bold
 70
0
 40
0.0
 41
1.0
 50
0.0
 71
0
 42
2.5
  3
LiberationSans-Bold.ttf
  4

  0
STYLE
  5
50
330
5
100
AcDbSymbolTableRecord
100
AcDbTextStyleTableRecord
  2
LiberationSans-BoldItalic
 70
0
 40
0.0
 41
1.0
 50
0.0
 71
0
 42
2.5
  3
LiberationSans-BoldItalic.ttf
  4

  0
STYLE
  5
51
330
5
100
AcDbSymbolTableRecord
100
AcDbTextStyleTableRecord
  2
LiberationSans-Italic
 70
0
 40
0.0
 41
1.0
 50
0.0
 71
0
 42
2.5
  3
LiberationSans-Italic.ttf
  4

  0
STYLE
  5
52
330
5
100
AcDbSymbolTableRecord
100
AcDbTextStyleTableRecord
  2
LiberationSerif
 70
0
 40
0.0
 41
1.0
 50
0.0
 71
0
 42
2.5
  3
LiberationSerif-Regular.ttf
  4

  0
STYLE
  5
53
330
5
100
AcDbSymbolTableRecord
100
AcDbTextStyleTableRecord
  2
LiberationSerif-Bold
 70
0
 40
0.0
 41
1.0
 50
0.0
 71
0
 42
2.5
  3
LiberationSerif-Bold.ttf
  4

  0
STYLE
  5
54
330
5
100
AcDbSymbolTableRecord
100
AcDbTextStyleTableRecord
  2
LiberationSerif-BoldItalic
 70
0
 40
0.0
 41
1.0
 50
0.0
 71
0
 42
2.5
  3
LiberationSerif-BoldItalic.ttf
  4

  0
STYLE
  5
55
330
5
100
AcDbSymbolTableRecord
100
AcDbTextStyleTableRecord
  2
LiberationSerif-Italic
 70
0
 40
0.0
 41
1.0
 50
0.0
 71
0
 42
2.5
  3
LiberationSerif-Italic.ttf
  4

  0
STYLE
  5
56
330
5
100
AcDbSymbolTableRecord
100
AcDbTextStyleTableRecord
  2
LiberationMono
 70
0
 40
0.0
 41
1.0
 50
0.0
 71
0
 42
2.5
  3
LiberationMono-Regular.ttf
  4

  0
STYLE
  5
57
330
5
100
AcDbSymbolTableRecord
100
AcDbTextStyleTableRecord
  2
LiberationMono-Bold
 70
0
 40
0.0
 41
1.0
 50
0.0
 71
0
 42
2.5
  3
LiberationMono-Bold.ttf
  4

  0
STYLE
  5
58
330
5
100
AcDbSymbolTableRecord
100
AcDbTextStyleTableRecord
  2
LiberationMono-BoldItalic
 70
0
 40
0.0
 41
1.0
 50
0.0
 71
0
 42
2.5
  3
LiberationMono-BoldItalic.ttf
  4

  0
STYLE
  5
59
330
5
100
AcDbSymbolTableRecord
100
AcDbTextStyleTableRecord
  2
LiberationMono-Italic
 70
0
 40
0.0
 41
1.0
 50
0.0
 71
0
 42
2.5
  3
LiberationMono-Italic.ttf
  4

  0
ENDTAB
  0
TABLE
  2
VIEW
  5
7
330
0
100
AcDbSymbolTable
 70
0
  0
ENDTAB
  0
TABLE
  2
UCS
  5
6
330
0
100
AcDbSymbolTable
 70
0
  0
ENDTAB
  0
TABLE
  2
APPID
  5
3
330
0
100
AcDbSymbolTable
 70
3
  0
APPID
  5
2A
330
3
100
AcDbSymbolTableRecord
100
AcDbRegAppTableRecord
  2
ACAD
 70
0
  0
APPID
  5
17A
330
3
100
AcDbSymbolTableRecord
100
AcDbRegAppTableRecord
  2
HATCHBACKGROUNDCOLOR
 70
0
  0
APPID
  5
17B
330
3
100
AcDbSymbolTableRecord
100
AcDbRegAppTableRecord
  2
EZDXF
 70
0
  0
ENDTAB
  0
TABLE
  2
DIMSTYLE
  5
4
330
0
100
AcDbSymbolTable
 70
12
100
AcDbDimStyleTable
  0
DIMSTYLE
105
2B
330
4
100
AcDbSymbolTableRecord
100
AcDbDimStyleTableRecord
  2
Standard
 70
0
 40
1.0
 41
2.5
 42
0.625
 43
3.75
 44
1.25
 45
0.0
 46
0.0
 47
0.0
 48
0.0
 49
2.5
140
2.5
141
2.5
142
0.0
143
0.03937007874
144
1.0
145
0.0
146
1.0
147
0.625
148
0.0
 69
0
 70
0
 71
0
 72
0
 73
0
 74
0
 75
0
 76
0
 77
1
 78
8
 79
3
170
0
171
3
172
1
173
0
174
0
175
0
176
0
177
0
178
0
179
2
271
2
272
2
273
2
274
3
275
0
276
0
277
2
278
44
279
0
280
0
281
0
282
0
283
0
284
8
285
0
286
0
288
0
289
3
290
0
371
-2
372
-2
  0
DIMSTYLE
105
73
330
4
100
AcDbSymbolTableRecord
100
AcDbDimStyleTableRecord
  2
EZDXF
 70
0
 40
1.0
 41
0.175
 42
0.125
 43
3.75
 44
0.375
 45
0.0
 46
0.0
 47
0.0
 48
0.0
 49
2.5
140
0.25
141
2.5
142
0.0
143
0.03937007874
144
100.0
145
0.0
146
0.5
147
0.1
148
0.0
 69
0
 70
0
 71
0
 72
0
 73
0
 74
0
 75
0
 76
0
 77
1
 78
12
 79
3
170
0
171
3
172
1
173
0
174
0
175
0
176
0
177
0
178
0
179
2
271
2
272
2
273
2
274
3
275
0
276
0
277
2
278
46
279
2
280
0
281
0
282
0
283
0
284
8
285
0
286
0
288
1
289
3
290
0
340
4C
342
74
371
-2
372
-2
  0
DIMSTYLE
105
7C
330
4
100
AcDbSymbolTableRecord
100
AcDbDimStyleTableRecord
  2
EZ_M_100_H25_CM
 70
0
 40
1.0
 41
0.25
 42
0.125
 43
3.75
 44
0.375
 45
0.0
 46
0.0
 47
0.0
 48
0.0
 49
2.5
140
0.25
141
2.5
142
0.125
143
0.03937007874
144
100.0
145
0.0
146
0.5
147
0.1
148
0.0
 69
0
 70
0
 71
0
 72
0
 73
0
 74
0
 75
0
 76
0
 77
1
 78
12
 79
3
170
0
171
3
172
1
173
0
174
0
175
0
176
0
177
0
178
0
179
2
271
2
272
2
273
2
274
3
275
0
276
0
277
2
278
46
279
2
280
0
281
0
282
0
283
0
284
8
285
0
286
0
288
1
289
3
290
0
340
4C
371
-2
372
-2
  0
DIMSTYLE
105
7D
330
4
100
AcDbSymbolTableRecord
100
AcDbDimStyleTableRecord
  2
EZ_M_50_H25_CM
 70
0
 40
1.0
 41
0.125
 42
0.0625
 43
3.75
 44
0.1875
 45
0.0
 46
0.0
 47
0.0
 48
0.0
 49
2.5
140
0.125
141
2.5
142
0.0625
143
0.03937007874
144
100.0
145
0.0
146
0.5
147
0.05
148
0.0
 69
0
 70
0
 71
0
 72
0
 73
0
 74
0
 75
0
 76
0
 77
1
 78
12
 79
3
170
0
171
3
172
1
173
0
174
0
175
0
176
0
177
0
178
0
179
2
271
2
272
2
273
2
274
3
275
0
276
0
277
2
278
46
279
2
280
0
281
0
282
0
283
0
284
8
285
0
286
0
288
1
289
3
290
0
340
4C
371
-2
372
-2
  0
DIMSTYLE
105
7E
330
4
100
AcDbSymbolTableRecord
100
AcDbDimStyleTableRecord
  2
EZ_M_25_H25_CM
 70
0
 40
1.0
 41
0.0625
 42
0.03125
 43
3.75
 44
0.09375
 45
0.0
 46
0.0
 47
0.0
 48
0.0
 49
2.5
140
0.0625
141
2.5
142
0.03125
143
0.03937007874
144
100.0
145
0.0
146
0.5
147
0.025
148
0.0
 69
0
 70
0
 71
0
 72
0
 73
0
 74
0
 75
0
 76
0
 77
1
 78
12
 79
3
170
0
171
3
172
1
173
0
174
0
175
0
176
0
177
0
178
0
179
2
271
2
272
2
273
2
274
3
275
0
276
0
277
2
278
46
279
2
280
0
281
0
282
0
283
0
284
8
285
0
286
0
288
1
289
3
290
0
340
4C
371
-2
372
-2
  0
DIMSTYLE
105
7F
330
4
100
AcDbSymbolTableRecord
100
AcDbDimStyleTableRecord
  2
EZ_M_20_H25_CM
 70
0
 40
1.0
 41
0.05
 42
0.025
 43
3.75
 44
0.07500000000000001
 45
0.0
 46
0.0
 47
0.0
 48
0.0
 49
2.5
140
0.05
141
2.5
142
0.025
143
0.03937007874
144
100.0
145
0.0
146
0.5
147
0.020000000000000004
148
0.0
 69
0
 70
0
 71
0
 72
0
 73
0
 74
0
 75
0
 76
0
 77
1
 78
12
 79
3
170
0
171
3
172
1
173
0
174
0
175
0
176
0
177
0
178
0
179
2
271
2
272
2
273
2
274
3
275
0
276
0
277
2
278
46
279
2
280
0
281
0
282
0
283
0
284
8
285
0
286
0
288
1
289
3
290
0
340
4C
371
-2
372
-2
  0
DIMSTYLE
105
80
330
4
100
AcDbSymbolTableRecord
100
AcDbDimStyleTableRecord
  2
EZ_M_10_H25_CM
 70
0
 40
1.0
 41
0.025
 42
0.0125
 43
3.75
 44
0.037500000000000006
 45
0.0
 46
0.0
 47
0.0
 48
0.0
 49
2.5
140
0.025
141
2.5
142
0.0125
143
0.03937007874
144
100.0
145
0.0
146
0.5
147
0.010000000000000002
148
0.0
 69
0
 70
0
 71
0
 72
0
 73
0
 74
0
 75
0
 76
0
 77
1
 78
12
 79
3
170
0
171
3
172
1
173
0
174
0
175
0
176
0
177
0
178
0
179
2
271
2
272
2
273
2
274
3
275
0
276
0
277
2
278
46
279
2
280
0
281
0
282
0
283
0
284
8
285
0
286
0
288
1
289
3
290
0
340
4C
371
-2
372
-2
  0
DIMSTYLE
105
81
330
4
100
AcDbSymbolTableRecord
100
AcDbDimStyleTableRecord
  2
EZ_M_5_H25_CM
 70
0
 40
1.0
 41
0.0125
 42
0.00625
 43
3.75
 44
0.018750000000000003
 45
0.0
 46
0.0
 47
0.0
 48
0.0
 49
2.5
140
0.0125
141
2.5
142
0.00625
143
0.03937007874
144
100.0
145
0.0
146
0.5
147
0.005000000000000001
148
0.0
 69
0
 70
0
 71
0
 72
0
 73
0
 74
0
 75
0
 76
0
 77
1
 78
12
 79
3
170
0
171
3
172
1
173
0
174
0
175
0
176
0
177
0
178
0
179
2
271
2
272
2
273
2
274
3
275
0
276
0
277
2
278
46
279
2
280
0
281
0
282
0
283
0
284
8
285
0
286
0
288
1
289
3
290
0
340
4C
371
-2
372
-2
  0
DIMSTYLE
105
82
330
4
100
AcDbSymbolTableRecord
100
AcDbDimStyleTableRecord
  2
EZ_M_1_H25_CM
 70
0
 40
1.0
 41
0.0025
 42
0.00125
 43
3.75
 44
0.00375
 45
0.0
 46
0.0
 47
0.0
 48
0.0
 49
2.5
140
0.0025
141
2.5
142
0.00125
143
0.03937007874
144
100.0
145
0.0
146
0.5
147
0.001
148
0.0
 69
0
 70
0
 71
0
 72
0
 73
0
 74
0
 75
0
 76
0
 77
1
 78
12
 79
3
170
0
171
3
172
1
173
0
174
0
175
0
176
0
177
0
178
0
179
2
271
2
272
2
273
2
274
3
275
0
276
0
277
2
278
46
279
2
280
0
281
0
282
0
283
0
284
8
285
0
286
0
288
1
289
3
290
0
340
4C
371
-2
372
-2
  0
DIMSTYLE
105
83
330
4
100
AcDbSymbolTableRecord
100
AcDbDimStyleTableRecord
  2
EZ_RADIUS
 70
0
 40
1.0
 41
0.25
 42
0.125
 43
3.75
 44
0.375
 45
0.0
 46
0.0
 47
0.0
 48
0.0
 49
2.5
140
0.25
141
0.0
142
0.0
143
0.03937007874
144
100.0
145
0.0
146
0.5
147
0.1
148
0.0
 69
0
 70
0
 71
0
 72
0
 73
0
 74
0
 75
0
 76
0
 77
1
 78
12
 79
3
170
0
171
3
172
0
173
0
174
0
175
0
176
0
177
0
178
0
179
2
271
2
272
2
273
2
274
3
275
0
276
0
277
2
278
46
279
1
280
0
281
0
282
0
283
0
284
8
285
0
286
0
288
1
289
3
290
0
340
4C
342
84
371
-2
372
-2
  0
DIMSTYLE
105
88
330
4
100
AcDbSymbolTableRecord
100
AcDbDimStyleTableRecord
  2
EZ_RADIUS_INSIDE
 70
0
 40
1.0
 41
0.25
 42
0.125
 43
3.75
 44
0.375
 45
0.0
 46
0.0
 47
0.0
 48
0.0
 49
2.5
140
0.25
141
0.0
142
0.0
143
0.03937007874
144
100.0
145
0.0
146
0.5
147
0.1
148
0.0
 69
0
 70
0
 71
0
 72
0
 73
0
 74
0
 75
0
 76
0
 77
0
 78
12
 79
3
170
0
171
3
172
0
173
0
174
1
175
0
176
0
177
0
178
0
179
2
271
2
272
2
273
2
274
3
275
0
276
0
277
2
278
46
279
0
280
0
281
0
282
0
283
0
284
8
285
0
286
0
288
1
289
0
290
0
340
4C
342
84
371
-2
372
-2
  0
DIMSTYLE
105
89
330
4
100
AcDbSymbolTableRecord
100
AcDbDimStyleTableRecord
  2
EZ_CURVED
 70
0
 40
1.0
 41
0.25
 42
0.125
 43
3.75
 44
0.375
 45
0.0
 46
0.0
 47
0.0
 48
0.0
 49
2.5
140
0.25
141
2.5
142
0.0
143
0.03937007874
144
100.0
145
0.0
146
0.5
147
0.1
148
0.0
 69
0
 70
0
 71
0
 72
0
 73
0
 74
0
 75
0
 76
0
 77
1
 78
12
 79
2
 90
2
170
0
171
3
172
1
173
0
174
0
175
0
176
0
177
0
178
0
179
2
271
2
272
2
273
2
274
3
275
0
276
0
277
2
278
46
279
2
280
0
281
0
282
0
283
0
284
8
285
0
286
0
288
1
289
3
290
0
340
4C
371
-2
372
-2
  0
ENDTAB
  0
TABLE
  2
BLOCK_RECORD
  5
9
330
0
100
AcDbSymbolTable
 70
5
  0
BLOCK_RECORD
  5
17
330
9
100
AcDbSymbolTableRecord
100
AcDbBlockTableRecord
  2
*Model_Space
340
1A
 70
0
280
1
281
0
  0
BLOCK_RECORD
  5
1B
330
9
100
AcDbSymbolTableRecord
100
AcDbBlockTableRecord
  2
*Paper_Space
340
1E
 70
0
280
1
281
0
  0
BLOCK_RECORD
  5
74
330
9
100
AcDbSymbolTableRecord
100
AcDbBlockTableRecord
  2
_ARCHTICK
340
0
 70
0
280
1
281
0
  0
BLOCK_RECORD
  5
78
330
9
100
AcDbSymbolTableRecord
100
AcDbBlockTableRecord
  2
_CLOSEDFILLED
340
0
 70
0
280
1
281
0
  0
BLOCK_RECORD
  5
84
330
9
100
AcDbSymbolTableRecord
100
AcDbBlockTableRecord
  2
_CLOSEDBLANK
340
0
 70
0
280
1
281
0
  0
ENDTAB
  0
ENDSEC
  0
SECTION
  2
BLOCKS
  0
BLOCK
  5
18
330
17
100
AcDbEntity
  8
0
100
AcDbBlockBegin
  2
*Model_Space
 70
0
 10
0.0
 20
0.0
 30
0.0
  3
*Model_Space
  1

  0
ENDBLK
  5
19
330
17
100
AcDbEntity
  8
0
100
AcDbBlockEnd
  0
BLOCK
  5
1C
330
1B
100
AcDbEntity
  8
0
100
AcDbBlockBegin
  2
*Paper_Space
 70
0
 10
0.0
 20
0.0
 30
0.0
  3
*Paper_Space
  1

  0
ENDBLK
  5
1D
330
1B
100
AcDbEntity
  8
0
100
AcDbBlockEnd
  0
BLOCK
  5
75
330
74
100
AcDbEntity
  8
0
100
AcDbBlockBegin
  2
_ARCHTICK
 70
0
 10
0.0
 20
0.0
 30
0.0
  3
_ARCHTICK
  1

  0
LWPOLYLINE
  5
77
330
74
100
AcDbEntity
  8
0
  6
BYBLOCK
 62
0
100
AcDbPolyline
 90
2
 70
0
 43
0.15
 10
-0.5
 20
-0.5
 10
0.5
 20
0.5
  0
ENDBLK
  5
76
330
74
100
AcDbEntity
  8
0
100
AcDbBlockEnd
  0
BLOCK
  5
79
330
78
100
AcDbEntity
  8
0
100
AcDbBlockBegin
  2
_CLOSEDFILLED
 70
0
 10
0.0
 20
0.0
 30
0.0
  3
_CLOSEDFILLED
  1

  0
SOLID
  5
7B
330
78
100
AcDbEntity
  8
0
  6
BYBLOCK
 62
0
100
AcDbTrace
 10
-1.0
 20
0.16439898372402537
 30
0.0
 11
0.0
 21
0.0
 31
0.0
 12
-1.0
 22
-0.16439898372402537
 32
0.0
 13
-1.0
 23
-0.16439898372402537
 33
0.0
  0
ENDBLK
  5
7A
330
78
100
AcDbEntity
  8
0
100
AcDbBlockEnd
  0
BLOCK
  5
85
330
84
100
AcDbEntity
  8
0
100
AcDbBlockBegin
  2
_CLOSEDBLANK
 70
0
 10
0.0
 20
0.0
 30
0.0
  3
_CLOSEDBLANK
  1

  0
LWPOLYLINE
  5
87
330
84
100
AcDbEntity
  8
0
  6
BYBLOCK
 62
0
100
AcDbPolyline
 90
3
 70
1
 10
-1.0
 20
0.16439898372402537
 10
0.0
 20
0.0
 10
-1.0
 20
-0.16439898372402537
  0
ENDBLK
  5
86
330
84
100
AcDbEntity
  8
0
100
AcDbBlockEnd
  0
ENDSEC
  0
SECTION
  2
ENTITIES
  0
LWPOLYLINE
  5
8E
330
17
100
AcDbEntity
  8
REFERENCE-SHEET
100
AcDbPolyline
 90
4
 70
1
 10
0.0
 20
0.0
 10
2440.0
 20
0.0
 10
2440.0
 20
1220.0
 10
0.0
 20
1220.0
  0
TEXT
  5
8F
330
17
100
AcDbEntity
  8
REFERENCE-SHEET
100
AcDbText
 10
0.0
 20
1275.0
 30
0.0
 40
40.0
  1
18 mm BOARD - SHEET 1/1 - 2440 x 1220  (kerf side = BACK face, show face down)
 11
0.0
 21
1275.0
 31
0.0
100
AcDbText
  0
LWPOLYLINE
  5
90
330
17
100
AcDbEntity
  8
CUT
100
AcDbPolyline
 90
4
 70
1
 10
804.6808360041198
 20
18.0
 10
1141.829765720171
 20
339.2951901154468
 42
0.4283865023507377
 10
18.0
 20
339.2951901154468
 10
355.14892971605127
 20
18.0
 42
-0.4283865023507377
  0
LWPOLYLINE
  5
91
330
17
100
AcDbEntity
  8
POCKET-KERF-15.5
100
AcDbPolyline
 90
4
 70
1
 10
792.0248898292907
 20
22.271838242901584
 10
796.2883280574417
 20
18.050097550397982
 10
1132.4270096061252
 20
357.508773309348
 10
1128.1635713779742
 20
361.73051400185153
  0
LWPOLYLINE
  5
92
330
17
100
AcDbEntity
  8
POCKET-KERF-15.5
100
AcDbPolyline
 90
4
 70
1
 10
1012.6854145148793
 20
262.16456980075765
 10
1017.0284413110769
 20
258.02474876024024
 10
1121.7870926674163
 20
367.92554532153804
 10
1117.4440658712188
 20
372.06536636205556
  0
LWPOLYLINE
  5
93
330
17
100
AcDbEntity
  8
POCKET-KERF-15.5
100
AcDbPolyline
 90
4
 70
1
 10
783.555566738048
 20
30.18710606714594
 10
787.9766083378225
 20
26.13070480826351
 10
1110.9508197606856
 20
378.1378986794783
 10
1106.529778160911
 20
382.1942999383608
  0
LWPOLYLINE
  5
94
330
17
100
AcDbEntity
  8
POCKET-KERF-15.5
100
AcDbPolyline
 90
4
 70
1
 10
994.9251023652007
 20
278.30504015811545
 10
999.4225567341848
 20
274.3335285820394
 10
1099.9221175808586
 20
388.14213277536265
 10
1095.4246632118748
 20
392.11364435143884
  0
LWPOLYLINE
  5
95
330
17
100
AcDbEntity
  8
POCKET-KERF-15.5
100
AcDbPolyline
 90
4
 70
1
 10
774.7911006924917
 20
37.774268467521075
 10
779.3633381069417
 20
33.88908571430293
 10
1088.704982552652
 20
397.93462241669283
 10
1084.132745138202
 20
401.81980516991086
  0
LWPOLYLINE
  5
96
330
17
100
AcDbEntity
  8
POCKET-KERF-15.5
100
AcDbPolyline
 90
4
 70
1
 10
976.563302634934
 20
293.7577998364496
 10
981.2086662722868
 20
289.96035376352637
 10
1077.3034793824058
 20
407.5118191399227
 10
1072.658115745053
 20
411.309265212846
  0
LWPOLYLINE
  5
97
330
17
100
AcDbEntity
  8
POCKET-KERF-15.5
100
AcDbPolyline
 90
4
 70
1
 10
765.7441943134951
 20
45.02232912696971
 10
770.4610008527438
 20
41.313995799004175
 10
1065.7217395851742
 20
416.8702524963022
 10
1061.0049330459256
 20
420.57858582426763
  0
LWPOLYLINE
  5
98
330
17
100
AcDbEntity
  8
POCKET-KERF-15.5
100
AcDbPolyline
 90
4
 70
1
 10
957.6266276675251
 20
308.50045265707445
 10
962.4131678991972
 20
304.8825758473165
 10
1053.9639599876034
 20
426.0065313094474
 10
1049.1774197559314
 20
429.6244081192053
  0
LWPOLYLINE
  5
99
330
17
100
AcDbEntity
  8
POCKET-KERF-15.5
100
AcDbPolyline
 90
4
 70
1
 10
756.4279595717373
 20
51.92078319942985
 10
761.2824990172535
 20
48.39467390277875
 10
1042.034401207147
 20
434.91734490418787
 10
1037.1798617616312
 20
438.443454200839
  0
LWPOLYLINE
  5
9A
330
17
100
AcDbEntity
  8
POCKET-KERF-15.5
100
AcDbPolyline
 90
4
 70
1
 10
938.142522991482
 20
322.5116316218785
 10
943.0633025316716
 20
319.0785675798234
 10
1029.9373861081633
 20
443.5994643062426
 10
1025.0166065679737
 20
447.0325283482977
  0
LWPOLYLINE
  5
9B
330
17
100
AcDbEntity
  8
POCKET-KERF-15.5
100
AcDbPolyline
 90
4
 70
1
 10
746.8558987841054
 20
58.459632534844474
 10
751.841135296652
 20
55.12085777245457
 10
1017.6772982354563
 20
452.04974341228893
 10
1012.6920617229097
 20
455.38851817467884
  0
LWPOLYLINE
  5
9C
330
17
100
AcDbEntity
  8
POCKET-KERF-15.5
100
AcDbPolyline
 90
4
 70
1
 10
918.1392275426927
 20
335.77102988119697
 10
923.1871145482762
 20
332.52775425632905
 10
1005.2585802258302
 20
460.26512013000325
 10
1000.2106932202469
 20
463.5083957548712
  0
LWPOLYLINE
  5
9D
330
17
100
AcDbEntity
  8
POCKET-KERF-15.5
100
AcDbPolyline
 90
4
 70
1
 10
737.0418850443538
 20
64.6294001697998
 10
742.1505933612564
 20
61.48279893468754
 10
992.6857321982286
 20
468.24261748765906
 10
987.5770238813259
 20
471.3892187227713
  0
LWPOLYLINE
  5
9E
330
17
100
AcDbEntity
  8
POCKET-KERF-15.5
100
AcDbPolyline
 90
4
 70
1
 10
897.645732736833
 20
348.25943016517925
 10
902.8134111437729
 20
345.21064354056165
 10
979.9633101230451
 20
475.97934471287937
 10
974.7956317161052
 20
479.028131337497
  0
LWPOLYLINE
  5
9F
330
17
100
AcDbEntity
  8
POCKET-KERF-15.5
100
AcDbPolyline
 90
4
 70
1
 10
727.000142116387
 20
70.42114406279147
 10
732.2249180233371
 20
67.47127682473585
 10
967.0959241711967
 20
483.4724982801534
 10
961.8711482642466
 20
486.4223655182091
  0
LWPOLYLINE
  5
A0
330
17
100
AcDbEntity
  8
POCKET-KERF-15.5
100
AcDbPolyline
 90
4
 70
1
 10
876.6917404511801
 20
359.9587326359919
 10
881.9717205779307
 20
357.108853715561
 10
954.0882370435539
 20
490.71936292673917
 10
948.8082569168032
 20
493.5692418471701
  0
LWPOLYLINE
  5
A1
330
17
100
AcDbEntity
  8
POCKET-KERF-15.5
100
AcDbPolyline
 90
4
 70
1
 10
716.7452238193036
 20
75.82647005421124
 10
722.0784948815233
 20
73.07761215011878
 10
940.9449622813383
 20
497.71731263658165
 10
935.6116912191189
 20
500.466170540674
  0
LWPOLYLINE
  5
A2
330
17
100
AcDbEntity
  8
POCKET-KERF-15.5
100
AcDbPolyline
 90
4
 70
1
 10
855.3076199767324
 20
370.8519811204929
 10
860.6922493792752
 20
368.2051403248893
 10
927.6708625580958
 20
504.4638115918908
 10
922.286233155553
 20
507.1106523874944
  0
LWPOLYLINE
  5
A3
330
17
100
AcDbEntity
  8
POCKET-KERF-15.5
100
AcDbPolyline
 90
4
 70
1
 10
706.2919929340802
 20
80.83754403227093
 10
711.7260294712937
 20
78.2936794697936
 10
914.2707479538664
 20
510.9564150920361
 10
908.836711416653
 20
513.5002796545135
  0
LWPOLYLINE
  5
A4
330
17
100
AcDbEntity
  8
POCKET-KERF-15.5
100
AcDbPolyline
 90
4
 70
1
 10
833.5243640030257
 20
380.9233876853547
 10
839.0058385658003
 20
378.48342116557336
 10
900.7494742121766
 20
517.1927704394215
 10
895.267999649402
 20
519.6327369592028
  0
LWPOLYLINE
  5
A5
330
17
100
AcDbEntity
  8
POCKET-KERF-15.5
100
AcDbPolyline
 90
4
 70
1
 10
695.6555996624684
 20
85.44710328723082
 10
701.1825259517757
 20
83.11191897061602
 10
887.1119409804824
 20
523.1706177920233
 10
881.585014691175
 20
525.5058021086382
  0
LWPOLYLINE
  5
A6
330
17
100
AcDbEntity
  8
POCKET-KERF-15.5
100
AcDbPolyline
 90
4
 70
1
 10
811.3735436994364
 20
390.15835551902165
 10
816.9439189460954
 20
387.9287995965547
 10
873.3630900347055
 20
528.88779098228
 10
867.7927147880464
 20
531.1173469047469
  0
LWPOLYLINE
  5
A7
330
17
100
AcDbEntity
  8
POCKET-KERF-15.5
100
AcDbPolyline
 90
4
 70
1
 10
684.8514596693228
 20
89.64846703747774
 10
690.4632653597358
 20
87.52534742402018
 10
859.5079034885026
 20
534.3422183020361
 10
853.8960977980897
 20
536.4653379154936
  0
LWPOLYLINE
  5
A8
330
17
100
AcDbEntity
  8
POCKET-KERF-15.5
100
AcDbPolyline
 90
4
 70
1
 10
788.8872629580765
 20
398.5435000873354
 10
794.5384655656688
 20
396.52758612886856
 10
845.5514019879181
 20
539.5319232532594
 10
839.9001993803256
 20
541.5478372117262
  0
LWPOLYLINE
  5
A9
330
17
100
AcDbEntity
  8
POCKET-KERF-15.5
100
AcDbPolyline
 90
4
 70
1
 10
673.8952317401852
 20
93.4355461121946
 10
679.583783462286
 20
91.52756830703444
 10
831.4986428920715
 20
544.4550252642559
 10
825.8100911699707
 20
546.363003069416
  0
LWPOLYLINE
  5
AA
330
17
100
AcDbEntity
  8
POCKET-KERF-15.5
100
AcDbPolyline
 90
4
 70
1
 10
766.0981118645968
 20
406.06666853216797
 10
771.8219513644926
 20
404.26731826625763
 10
817.3547184405461
 20
549.1097403711256
 10
811.6308789406503
 20
550.9090906370359
  0
LWPOLYLINE
  5
AB
330
17
100
AcDbEntity
  8
POCKET-KERF-15.5
100
AcDbPolyline
 90
4
 70
1
 10
662.8027950865053
 20
96.8028517765913
 10
668.5598482403984
 20
95.11278107296687
 10
803.1247539081336
 20
553.4943818642079
 10
797.3677007542406
 20
555.1844525678324
  0
LWPOLYLINE
  5
AC
330
17
100
AcDbEntity
  8
POCKET-KERF-15.5
100
AcDbPolyline
 90
4
 70
1
 10
743.039119464333
 20
412.7169572849477
 10
748.8273001129323
 20
411.1367785674665
 10
788.8139057476105
 20
557.6073608992903
 10
783.0257250990112
 20
559.1875396167715
  0
LWPOLYLINE
  5
AD
330
17
100
AcDbEntity
  8
POCKET-KERF-15.5
100
AcDbPolyline
 90
4
 70
1
 10
651.5902263313933
 20
99.74550368690262
 10
657.4074370358677
 20
98.27578955832263
 10
774.4273597212153
 20
561.4471870733489
 10
768.6101490167408
 20
562.916901201929
  0
LWPOLYLINE
  5
AE
330
17
100
AcDbEntity
  8
POCKET-KERF-15.5
100
AcDbPolyline
 90
4
 70
1
 10
719.7437058922549
 20
418.48472786955034
 10
725.5878386942734
 20
417.12601090403786
 10
759.9703290215056
 20
565.0124689646209
 10
754.126196219487
 20
566.3711859301334
  0
LWPOLYLINE
  5
AF
330
17
100
AcDbEntity
  8
POCKET-KERF-15.5
100
AcDbPolyline
 90
4
 70
1
 10
640.273776209254
 20
102.25923696362726
 10
646.1427133948375
 20
101.01200951377065
 10
745.4480523822762
 20
568.301914636808
 10
739.5791151966927
 20
569.5491420866646
  0
LWPOLYLINE
  5
B0
330
17
100
AcDbEntity
  8
POCKET-KERF-15.5
100
AcDbPolyline
 90
4
 70
1
 10
696.2456339360955
 20
423.3616208716498
 10
702.137248803004
 20
422.22633489004755
 10
730.8657921802198
 20
571.314332107229
 10
724.9741773133113
 20
572.4496180888312
  0
LWPOLYLINE
  5
B1
330
17
100
AcDbEntity
  8
POCKET-KERF-15.5
100
AcDbPolyline
 90
4
 70
1
 10
628.8698460130801
 20
104.34040837275352
 10
634.7820036414572
 20
103.31747524824202
 10
716.2288325280222
 20
574.0486297787551
 10
710.3166748996451
 20
575.0715629032667
  0
LWPOLYLINE
  5
B2
330
17
100
AcDbEntity
  8
POCKET-KERF-15.5
100
AcDbPolyline
 90
4
 70
1
 10
672.578960102864
 20
427.3405680542855
 10
678.5095181288584
 20
426.43035846286597
 10
701.5424773595801
 20
576.5038168353669
 10
695.6119193335855
 20
577.4140264267864
  0
LWPOLYLINE
  5
B3
330
17
100
AcDbEntity
  8
POCKET-KERF-15.5
100
AcDbPolyline
 90
4
 70
1
 10
617.3949638235315
 20
105.98600160601534
 10
623.3417732156171
 20
105.18884537653325
 10
686.8120485080374
 20
578.6790036011913
 10
680.8652391159518
 20
579.4761598306733
  0
LWPOLYLINE
  5
B4
330
17
100
AcDbEntity
  8
POCKET-KERF-15.5
100
AcDbPolyline
 90
4
 70
1
 10
648.7779852596606
 20
430.4158026020835
 10
654.7388910973714
 20
429.7319885967102
 10
672.0428837773344
 20
580.5734018628906
 10
666.0819779396235
 20
581.2572158682639
  0
LWPOLYLINE
  5
B5
330
17
100
AcDbEntity
  8
POCKET-KERF-15.5
100
AcDbPolyline
 90
4
 70
1
 10
605.8657605542616
 20
107.19363165252368
 10
611.8386028090617
 20
106.62340766208264
 10
657.2403350079693
 20
582.1863251552845
 10
651.2674927531692
 20
582.7565491457256
  0
LWPOLYLINE
  5
B6
330
17
100
AcDbEntity
  8
POCKET-KERF-15.5
100
AcDbPolyline
 90
4
 70
1
 10
624.8772049203335
 20
432.58286747928645
 10
630.8598192383372
 20
432.1264401334619
 10
642.4097661376757
 20
583.5171890101001
 10
636.4271518196718
 20
583.9736163559246
  0
LWPOLYLINE
  5
B7
330
17
100
AcDbEntity
  8
POCKET-KERF-15.5
100
AcDbPolyline
 90
4
 70
1
 10
594.2989458482008
 20
107.96154825543965
 10
600.2891643344609
 20
107.61908294790123
 10
627.5565512577135
 20
584.565511167764
 10
621.5663327714534
 20
584.9079764753026
  0
LWPOLYLINE
  5
B8
330
17
100
AcDbEntity
  8
POCKET-KERF-15.5
100
AcDbPolyline
 90
4
 70
1
 10
600.9112592500276
 20
433.8386218894787
 10
606.9069112541061
 20
433.6102427179488
 10
612.686072665483
 20
585.3309117521582
 10
606.6904206614045
 20
585.5592909236881
  0
LWPOLYLINE
  5
B9
330
17
100
AcDbEntity
  8
POCKET-KERF-15.5
100
AcDbPolyline
 90
4
 70
1
 10
582.7112838597382
 20
108.28863844867756
 10
588.7101967622762
 20
108.17442816996181
 10
597.8037189141634
 20
585.8131134082707
 10
591.8048060116255
 20
585.9273236869865
  0
LWPOLYLINE
  5
BA
330
17
100
AcDbEntity
  8
POCKET-KERF-15.5
100
AcDbPolyline
 90
4
 70
1
 10
576.9148828600855
 20
434.1812458276424
 10
582.9148828600855
 20
434.1812458276424
 10
582.9148828600855
 20
586.0119414027033
 10
576.9148828600855
 20
586.0119414027033
  0
LWPOLYLINE
  5
BB
330
17
100
AcDbEntity
  8
POCKET-KERF-15.5
100
AcDbPolyline
 90
4
 70
1
 10
571.119568957895
 20
108.17442816996181
 10
577.1184818604329
 20
108.28863844867756
 10
568.0249597085457
 20
585.9273236869865
 10
562.0260468060077
 20
585.8131134082707
  0
LWPOLYLINE
  5
BC
330
17
100
AcDbEntity
  8
POCKET-KERF-15.5
100
AcDbPolyline
 90
4
 70
1
 10
552.9228544660648
 20
433.6102427179488
 10
558.9185064701434
 20
433.8386218894787
 10
553.1393450587665
 20
585.5592909236881
 10
547.1436930546879
 20
585.3309117521582
  0
LWPOLYLINE
  5
BD
330
17
100
AcDbEntity
  8
POCKET-KERF-15.5
100
AcDbPolyline
 90
4
 70
1
 10
559.5406013857101
 20
107.61908294790123
 10
565.5308198719703
 20
107.96154825543965
 10
538.2634329487177
 20
584.9079764753026
 10
532.2732144624575
 20
584.565511167764
  0
LWPOLYLINE
  5
BE
330
17
100
AcDbEntity
  8
POCKET-KERF-15.5
100
AcDbPolyline
 90
4
 70
1
 10
528.9699464818339
 20
432.1264401334619
 10
534.9525607998377
 20
432.58286747928645
 10
523.4026139004992
 20
583.9736163559246
 10
517.4199995824955
 20
583.5171890101001
  0
LWPOLYLINE
  5
BF
330
17
100
AcDbEntity
  8
POCKET-KERF-15.5
100
AcDbPolyline
 90
4
 70
1
 10
547.9911629111094
 20
106.62340766208264
 10
553.9640051659095
 20
107.19363165252368
 10
508.5622729670019
 20
582.7565491457256
 10
502.5894307122018
 20
582.1863251552845
  0
LWPOLYLINE
  5
C0
330
17
100
AcDbEntity
  8
POCKET-KERF-15.5
100
AcDbPolyline
 90
4
 70
1
 10
505.0908746227997
 20
429.7319885967102
 10
511.0517804605106
 20
430.4158026020835
 10
493.74778778054775
 20
581.2572158682639
 10
487.7868819428368
 20
580.5734018628906
  0
LWPOLYLINE
  5
C1
330
17
100
AcDbEntity
  8
POCKET-KERF-15.5
100
AcDbPolyline
 90
4
 70
1
 10
536.487992504554
 20
105.18884537653325
 10
542.4348018966397
 20
105.98600160601534
 10
478.9645266042194
 20
579.4761598306733
 10
473.0177172121338
 20
578.6790036011913
  0
LWPOLYLINE
  5
C2
330
17
100
AcDbEntity
  8
POCKET-KERF-15.5
100
AcDbPolyline
 90
4
 70
1
 10
481.3202475913127
 20
426.43035846286597
 10
487.25080561730715
 20
427.3405680542855
 10
464.21784638658556
 20
577.4140264267864
 10
458.2872883605911
 20
576.5038168353669
  0
LWPOLYLINE
  5
C3
330
17
100
AcDbEntity
  8
POCKET-KERF-15.5
100
AcDbPolyline
 90
4
 70
1
 10
525.0477620787138
 20
103.31747524824202
 10
530.959919707091
 20
104.34040837275352
 10
449.51309082052603
 20
575.0715629032667
 10
443.600933192149
 20
574.0486297787551
  0
LWPOLYLINE
  5
C4
330
17
100
AcDbEntity
  8
POCKET-KERF-15.5
100
AcDbPolyline
 90
4
 70
1
 10
457.69251691716715
 20
422.22633489004755
 10
463.5841317840756
 20
423.3616208716498
 10
434.8555884068599
 20
572.4496180888312
 10
428.9639735399514
 20
571.314332107229
  0
LWPOLYLINE
  5
C5
330
17
100
AcDbEntity
  8
POCKET-KERF-15.5
100
AcDbPolyline
 90
4
 70
1
 10
513.6870523253335
 20
101.01200951377065
 10
519.555989510917
 20
102.25923696362726
 10
420.25065052347844
 20
569.5491420866646
 10
414.381713337895
 20
568.301914636808
  0
LWPOLYLINE
  5
C6
330
17
100
AcDbEntity
  8
POCKET-KERF-15.5
100
AcDbPolyline
 90
4
 70
1
 10
434.2419270258978
 20
417.12601090403786
 10
440.0860598279163
 20
418.48472786955034
 10
405.70356950068407
 20
566.3711859301334
 10
399.85943669866555
 20
565.0124689646209
  0
LWPOLYLINE
  5
C7
330
17
100
AcDbEntity
  8
POCKET-KERF-15.5
100
AcDbPolyline
 90
4
 70
1
 10
502.4223286843033
 20
98.27578955832263
 10
508.2395393887778
 20
99.74550368690262
 10
391.2196167034304
 20
562.916901201929
 10
385.4024059989559
 20
561.4471870733489
  0
LWPOLYLINE
  5
C8
330
17
100
AcDbEntity
  8
POCKET-KERF-15.5
100
AcDbPolyline
 90
4
 70
1
 10
411.0024656072388
 20
411.1367785674665
 10
416.7906462558381
 20
412.7169572849477
 10
376.80404062116
 20
559.1875396167715
 10
371.0158599725607
 20
557.6073608992903
  0
LWPOLYLINE
  5
C9
330
17
100
AcDbEntity
  8
POCKET-KERF-15.5
100
AcDbPolyline
 90
4
 70
1
 10
491.26991747977263
 20
95.11278107296687
 10
497.0269706336657
 20
96.8028517765913
 10
362.46206496593067
 20
555.1844525678324
 10
356.7050118120376
 20
553.4943818642079
  0
LWPOLYLINE
  5
CA
330
17
100
AcDbEntity
  8
POCKET-KERF-15.5
100
AcDbPolyline
 90
4
 70
1
 10
388.0078143556785
 20
404.26731826625763
 10
393.7316538555744
 20
406.06666853216797
 10
348.19888677952093
 20
550.9090906370359
 10
342.475047279625
 20
549.1097403711256
  0
LWPOLYLINE
  5
CB
330
17
100
AcDbEntity
  8
POCKET-KERF-15.5
100
AcDbPolyline
 90
4
 70
1
 10
480.24598225788515
 20
91.52756830703444
 10
485.93453397998593
 20
93.4355461121946
 10
334.01967455020036
 20
546.363003069416
 10
328.3311228280995
 20
544.4550252642559
  0
LWPOLYLINE
  5
CC
330
17
100
AcDbEntity
  8
POCKET-KERF-15.5
100
AcDbPolyline
 90
4
 70
1
 10
365.2913001545023
 20
396.52758612886856
 10
370.94250276209465
 20
398.5435000873354
 10
319.92956633984545
 20
541.5478372117262
 10
314.27836373225307
 20
539.5319232532594
  0
LWPOLYLINE
  5
CD
330
17
100
AcDbEntity
  8
POCKET-KERF-15.5
100
AcDbPolyline
 90
4
 70
1
 10
469.3665003604353
 20
87.52534742402018
 10
474.9783060508483
 20
89.64846703747774
 10
305.93366792208144
 20
536.4653379154936
 10
300.32186223166843
 20
534.3422183020361
  0
LWPOLYLINE
  5
CE
330
17
100
AcDbEntity
  8
POCKET-KERF-15.5
100
AcDbPolyline
 90
4
 70
1
 10
342.88584677407573
 20
387.9287995965547
 10
348.4562220207348
 20
390.15835551902165
 10
292.0370509321247
 20
531.1173469047469
 10
286.46667568546565
 20
528.88779098228
  0
LWPOLYLINE
  5
CF
330
17
100
AcDbEntity
  8
POCKET-KERF-15.5
100
AcDbPolyline
 90
4
 70
1
 10
458.64723976839537
 20
83.11191897061602
 10
464.1741660577027
 20
85.44710328723082
 10
278.24475102899606
 20
525.5058021086382
 10
272.71782473968875
 20
523.1706177920233
  0
LWPOLYLINE
  5
D0
330
17
100
AcDbEntity
  8
POCKET-KERF-15.5
100
AcDbPolyline
 90
4
 70
1
 10
320.8239271543708
 20
378.4834211655735
 10
326.3054017171455
 20
380.92338768535484
 10
264.5617660707692
 20
519.6327369592028
 10
259.0802915079945
 20
517.1927704394216
  0
LWPOLYLINE
  5
D1
330
17
100
AcDbEntity
  8
POCKET-KERF-15.5
100
AcDbPolyline
 90
4
 70
1
 10
448.1037362488774
 20
78.2936794697936
 10
453.537772786091
 20
80.83754403227093
 10
250.99305430351814
 20
513.5002796545135
 10
245.55901776630463
 20
510.9564150920361
  0
LWPOLYLINE
  5
D2
330
17
100
AcDbEntity
  8
POCKET-KERF-15.5
100
AcDbPolyline
 90
4
 70
1
 10
299.1375163408959
 20
368.20514032488944
 10
304.5221457434387
 20
370.851981120493
 10
237.54353256461812
 20
507.1106523874945
 10
232.1589031620753
 20
504.46381159189093
  0
LWPOLYLINE
  5
D3
330
17
100
AcDbEntity
  8
POCKET-KERF-15.5
100
AcDbPolyline
 90
4
 70
1
 10
437.75127083864794
 20
73.07761215011884
 10
443.08454190086746
 20
75.8264700542113
 10
224.21807450105217
 20
500.466170540674
 10
218.88480343883265
 20
497.71731263658165
  0
LWPOLYLINE
  5
D4
330
17
100
AcDbEntity
  8
POCKET-KERF-15.5
100
AcDbPolyline
 90
4
 70
1
 10
277.8580451422403
 20
357.108853715561
 10
283.13802526899104
 20
359.9587326359919
 10
211.02150880336777
 20
493.5692418471701
 10
205.74152867661704
 20
490.71936292673917
  0
LWPOLYLINE
  5
D5
330
17
100
AcDbEntity
  8
POCKET-KERF-15.5
100
AcDbPolyline
 90
4
 70
1
 10
427.604847696834
 20
67.47127682473585
 10
432.82962360378406
 20
70.42114406279147
 10
197.9586174559246
 20
486.4223655182091
 10
192.73384154897454
 20
483.4724982801534
  0
LWPOLYLINE
  5
D6
330
17
100
AcDbEntity
  8
POCKET-KERF-15.5
100
AcDbPolyline
 90
4
 70
1
 10
257.01635457639827
 20
345.21064354056165
 10
262.18403298333817
 20
348.25943016517925
 10
185.03413400406592
 20
479.028131337497
 10
179.86645559712602
 20
475.97934471287937
  0
LWPOLYLINE
  5
D7
330
17
100
AcDbEntity
  8
POCKET-KERF-15.5
100
AcDbPolyline
 90
4
 70
1
 10
417.6791723589146
 20
61.48279893468754
 10
422.7878806758173
 20
64.6294001697998
 10
172.25274183884525
 20
471.38921872277143
 10
167.14403352194265
 20
468.2426174876592
  0
LWPOLYLINE
  5
D8
330
17
100
AcDbEntity
  8
POCKET-KERF-15.5
100
AcDbPolyline
 90
4
 70
1
 10
236.642651171895
 20
332.52775425632916
 10
241.69053817747846
 20
335.7710298811971
 10
159.61907249992444
 20
463.5083957548714
 10
154.571185494341
 20
460.2651201300035
  0
LWPOLYLINE
  5
D9
330
17
100
AcDbEntity
  8
POCKET-KERF-15.5
100
AcDbPolyline
 90
4
 70
1
 10
407.9886304235191
 20
55.12085777245463
 10
412.97386693606575
 20
58.45963253484453
 10
147.13770399726147
 20
455.38851817467895
 10
142.15246748471483
 20
452.04974341228905
  0
LWPOLYLINE
  5
DA
330
17
100
AcDbEntity
  8
POCKET-KERF-15.5
100
AcDbPolyline
 90
4
 70
1
 10
216.76646318849953
 20
319.0785675798234
 10
221.68724272868917
 20
322.5116316218785
 10
134.81315915219741
 20
447.0325283482978
 10
129.89237961200777
 20
443.5994643062427
  0
LWPOLYLINE
  5
DB
330
17
100
AcDbEntity
  8
POCKET-KERF-15.5
100
AcDbPolyline
 90
4
 70
1
 10
398.5472667029176
 20
48.39467390277875
 10
403.40180614843365
 20
51.92078319942985
 10
122.64990395854
 20
438.443454200839
 10
117.79536451302397
 20
434.91734490418787
  0
LWPOLYLINE
  5
DC
330
17
100
AcDbEntity
  8
POCKET-KERF-15.5
100
AcDbPolyline
 90
4
 70
1
 10
197.41659782097383
 20
304.88257584731645
 10
202.20313805264595
 20
308.5004526570744
 10
110.65234596423969
 20
429.6244081192052
 10
105.86580573256757
 20
426.00653130944727
  0
LWPOLYLINE
  5
DD
330
17
100
AcDbEntity
  8
POCKET-KERF-15.5
100
AcDbPolyline
 90
4
 70
1
 10
389.36876486742716
 20
41.3139957990042
 10
394.08557140667597
 20
45.02232912696974
 10
98.82483267424577
 20
420.57858582426763
 10
94.10802613499702
 20
416.8702524963022
  0
LWPOLYLINE
  5
DE
330
17
100
AcDbEntity
  8
POCKET-KERF-15.5
100
AcDbPolyline
 90
4
 70
1
 10
178.62109944788426
 20
289.9603537635264
 10
183.2664630852371
 20
293.75779983644964
 10
87.17164997511803
 20
411.3092652128461
 10
82.5262863377652
 20
407.5118191399228
  0
LWPOLYLINE
  5
DF
330
17
100
AcDbEntity
  8
POCKET-KERF-15.5
100
AcDbPolyline
 90
4
 70
1
 10
380.4664276132294
 20
33.88908571430293
 10
385.03866502767943
 20
37.774268467521075
 10
75.69702058196916
 20
401.81980516991086
 10
71.12478316751915
 20
397.93462241669283
  0
LWPOLYLINE
  5
E0
330
17
100
AcDbEntity
  8
POCKET-KERF-15.5
100
AcDbPolyline
 90
4
 70
1
 10
160.40720898598653
 20
274.33352858203955
 10
164.90466335497052
 20
278.3050401581156
 10
64.40510250829671
 20
392.11364435143906
 10
59.907648139312656
 20
388.1421327753629
  0
LWPOLYLINE
  5
E1
330
17
100
AcDbEntity
  8
POCKET-KERF-15.5
100
AcDbPolyline
 90
4
 70
1
 10
371.85315738234857
 20
26.130704808263538
 10
376.27419898212315
 20
30.18710606714597
 10
53.29998755926011
 20
382.1942999383609
 10
48.878945959485584
 20
378.13789867947844
  0
LWPOLYLINE
  5
E2
330
17
100
AcDbEntity
  8
POCKET-KERF-15.5
100
AcDbPolyline
 90
4
 70
1
 10
142.80132440909426
 20
258.02474876024036
 10
147.14435120529174
 20
262.16456980075776
 10
42.3856998489524
 20
372.06536636205567
 10
38.042673052755035
 20
367.92554532153815
  0
LWPOLYLINE
  5
E3
330
17
100
AcDbEntity
  8
POCKET-KERF-15.5
100
AcDbPolyline
 90
4
 70
1
 10
363.5414376627293
 20
18.05009755039798
 10
367.80487589088034
 20
22.27183824290158
 10
31.666194342196857
 20
361.73051400185153
 10
27.40275611404584
 20
357.508773309348
  0
TEXT
  5
E4
330
17
100
AcDbEntity
  8
ENGRAVE-LABEL
100
AcDbText
 10
417.11409264719117
 20
400.0348718470316
 30
0.0
 40
9.0
  1
01
 50
105.0
 72
1
 11
417.11409264719117
 21
400.0348718470316
 31
0.0
100
AcDbText
 73
2
  0
LWPOLYLINE
  5
E5
330
17
100
AcDbEntity
  8
CUT
100
AcDbPolyline
 90
4
 70
1
 10
804.6808360041198
 20
566.0
 10
1141.829765720171
 20
887.2951901154468
 42
0.4283865023507377
 10
18.0
 20
887.2951901154468
 10
355.14892971605127
 20
566.0
 42
-0.4283865023507377
  0
LWPOLYLINE
  5
E6
330
17
100
AcDbEntity
  8
POCKET-KERF-15.5
100
AcDbPolyline
 90
4
 70
1
 10
792.0248898292907
 20
570.2718382429016
 10
796.2883280574417
 20
566.0500975503979
 10
1132.4270096061252
 20
905.5087733093479
 10
1128.1635713779742
 20
909.7305140018515
  0
LWPOLYLINE
  5
E7
330
17
100
AcDbEntity
  8
POCKET-KERF-15.5
100
AcDbPolyline
 90
4
 70
1
 10
1012.6854145148793
 20
810.1645698007576
 10
1017.0284413110769
 20
806.0247487602403
 10
1121.7870926674163
 20
915.9255453215382
 10
1117.4440658712188
 20
920.0653663620557
  0
LWPOLYLINE
  5
E8
330
17
100
AcDbEntity
  8
POCKET-KERF-15.5
100
AcDbPolyline
 90
4
 70
1
 10
783.555566738048
 20
578.1871060671459
 10
787.9766083378225
 20
574.1307048082635
 10
1110.9508197606856
 20
926.1378986794783
 10
1106.529778160911
 20
930.1942999383608
  0
LWPOLYLINE
  5
E9
330
17
100
AcDbEntity
  8
POCKET-KERF-15.5
100
AcDbPolyline
 90
4
 70
1
 10
994.9251023652007
 20
826.3050401581154
 10
999.4225567341848
 20
822.3335285820394
 10
1099.9221175808586
 20
936.1421327753627
 10
1095.4246632118748
 20
940.1136443514389
  0
LWPOLYLINE
  5
EA
330
17
100
AcDbEntity
  8
POCKET-KERF-15.5
100
AcDbPolyline
 90
4
 70
1
 10
774.7911006924917
 20
585.7742684675211
 10
779.3633381069417
 20
581.889085714303
 10
1088.704982552652
 20
945.9346224166928
 10
1084.132745138202
 20
949.8198051699109
  0
LWPOLYLINE
  5
EB
330
17
100
AcDbEntity
  8
POCKET-KERF-15.5
100
AcDbPolyline
 90
4
 70
1
 10
976.563302634934
 20
841.7577998364495
 10
981.2086662722868
 20
837.9603537635264
 10
1077.3034793824058
 20
955.5118191399227
 10
1072.658115745053
 20
959.3092652128461
  0
LWPOLYLINE
  5
EC
330
17
100
AcDbEntity
  8
POCKET-KERF-15.5
100
AcDbPolyline
 90
4
 70
1
 10
765.7441943134951
 20
593.0223291269697
 10
770.4610008527438
 20
589.3139957990041
 10
1065.7217395851742
 20
964.8702524963022
 10
1061.0049330459256
 20
968.5785858242676
  0
LWPOLYLINE
  5
ED
330
17
100
AcDbEntity
  8
POCKET-KERF-15.5
100
AcDbPolyline
 90
4
 70
1
 10
957.6266276675251
 20
856.5004526570744
 10
962.4131678991972
 20
852.8825758473165
 10
1053.9639599876034
 20
974.0065313094473
 10
1049.1774197559314
 20
977.6244081192052
  0
LWPOLYLINE
  5
EE
330
17
100
AcDbEntity
  8
POCKET-KERF-15.5
100
AcDbPolyline
 90
4
 70
1
 10
756.4279595717373
 20
599.9207831994298
 10
761.2824990172535
 20
596.3946739027787
 10
1042.034401207147
 20
982.9173449041879
 10
1037.1798617616312
 20
986.443454200839
  0
LWPOLYLINE
  5
EF
330
17
100
AcDbEntity
  8
POCKET-KERF-15.5
100
AcDbPolyline
 90
4
 70
1
 10
938.142522991482
 20
870.5116316218785
 10
943.0633025316716
 20
867.0785675798234
 10
1029.9373861081633
 20
991.5994643062426
 10
1025.0166065679737
 20
995.0325283482977
  0
LWPOLYLINE
  5
F0
330
17
100
AcDbEntity
  8
POCKET-KERF-15.5
100
AcDbPolyline
 90
4
 70
1
 10
746.8558987841054
 20
606.4596325348444
 10
751.841135296652
 20
603.1208577724545
 10
1017.6772982354563
 20
1000.049743412289
 10
1012.6920617229097
 20
1003.3885181746789
  0
LWPOLYLINE
  5
F1
330
17
100
AcDbEntity
  8
POCKET-KERF-15.5
100
AcDbPolyline
 90
4
 70
1
 10
918.1392275426927
 20
883.7710298811969
 10
923.1871145482762
 20
880.527754256329
 10
1005.2585802258302
 20
1008.2651201300032
 10
1000.2106932202469
 20
1011.5083957548711
  0
LWPOLYLINE
  5
F2
330
17
100
AcDbEntity
  8
POCKET-KERF-15.5
100
AcDbPolyline
 90
4
 70
1
 10
737.0418850443538
 20
612.6294001697999
 10
742.1505933612564
 20
609.4827989346876
 10
992.6857321982286
 20
1016.242617487659
 10
987.5770238813259
 20
1019.3892187227713
  0
LWPOLYLINE
  5
F3
330
17
100
AcDbEntity
  8
POCKET-KERF-15.5
100
AcDbPolyline
 90
4
 70
1
 10
897.645732736833
 20
896.2594301651793
 10
902.8134111437729
 20
893.2106435405617
 10
979.9633101230451
 20
1023.9793447128794
 10
974.7956317161052
 20
1027.0281313374971
  0
LWPOLYLINE
  5
F4
330
17
100
AcDbEntity
  8
POCKET-KERF-15.5
100
AcDbPolyline
 90
4
 70
1
 10
727.000142116387
 20
618.4211440627915
 10
732.2249180233371
 20
615.4712768247358
 10
967.0959241711967
 20
1031.4724982801536
 10
961.8711482642466
 20
1034.4223655182093
  0
LWPOLYLINE
  5
F5
330
17
100
AcDbEntity
  8
POCKET-KERF-15.5
100
AcDbPolyline
 90
4
 70
1
 10
876.6917404511801
 20
907.958732635992
 10
881.9717205779307
 20
905.108853715561
 10
954.0882370435539
 20
1038.7193629267392
 10
948.8082569168032
 20
1041.5692418471701
  0
LWPOLYLINE
  5
F6
330
17
100
AcDbEntity
  8
POCKET-KERF-15.5
100
AcDbPolyline
 90
4
 70
1
 10
716.7452238193036
 20
623.8264700542112
 10
722.0784948815233
 20
621.0776121501189
 10
940.9449622813383
 20
1045.7173126365817
 10
935.6116912191189
 20
1048.466170540674
  0
LWPOLYLINE
  5
F7
330
17
100
AcDbEntity
  8
POCKET-KERF-15.5
100
AcDbPolyline
 90
4
 70
1
 10
855.3076199767324
 20
918.8519811204928
 10
860.6922493792752
 20
916.2051403248893
 10
927.6708625580958
 20
1052.4638115918908
 10
922.286233155553
 20
1055.1106523874944
  0
LWPOLYLINE
  5
F8
330
17
100
AcDbEntity
  8
POCKET-KERF-15.5
100
AcDbPolyline
 90
4
 70
1
 10
706.2919929340802
 20
628.8375440322709
 10
711.7260294712937
 20
626.2936794697936
 10
914.2707479538664
 20
1058.956415092036
 10
908.836711416653
 20
1061.5002796545134
  0
LWPOLYLINE
  5
F9
330
17
100
AcDbEntity
  8
POCKET-KERF-15.5
100
AcDbPolyline
 90
4
 70
1
 10
833.5243640030257
 20
928.9233876853548
 10
839.0058385658003
 20
926.4834211655734
 10
900.7494742121766
 20
1065.1927704394216
 10
895.267999649402
 20
1067.632736959203
  0
LWPOLYLINE
  5
FA
330
17
100
AcDbEntity
  8
POCKET-KERF-15.5
100
AcDbPolyline
 90
4
 70
1
 10
695.6555996624684
 20
633.4471032872308
 10
701.1825259517757
 20
631.1119189706161
 10
887.1119409804824
 20
1071.1706177920234
 10
881.585014691175
 20
1073.5058021086384
  0
LWPOLYLINE
  5
FB
330
17
100
AcDbEntity
  8
POCKET-KERF-15.5
100
AcDbPolyline
 90
4
 70
1
 10
811.3735436994364
 20
938.1583555190216
 10
816.9439189460954
 20
935.9287995965547
 10
873.3630900347055
 20
1076.88779098228
 10
867.7927147880464
 20
1079.117346904747
  0
LWPOLYLINE
  5
FC
330
17
100
AcDbEntity
  8
POCKET-KERF-15.5
100
AcDbPolyline
 90
4
 70
1
 10
684.8514596693228
 20
637.6484670374778
 10
690.4632653597358
 20
635.5253474240201
 10
859.5079034885026
 20
1082.3422183020361
 10
853.8960977980897
 20
1084.4653379154936
  0
LWPOLYLINE
  5
FD
330
17
100
AcDbEntity
  8
POCKET-KERF-15.5
100
AcDbPolyline
 90
4
 70
1
 10
788.8872629580765
 20
946.5435000873354
 10
794.5384655656688
 20
944.5275861288685
 10
845.5514019879181
 20
1087.5319232532593
 10
839.9001993803256
 20
1089.5478372117261
  0
LWPOLYLINE
  5
FE
330
17
100
AcDbEntity
  8
POCKET-KERF-15.5
100
AcDbPolyline
 90
4
 70
1
 10
673.8952317401852
 20
641.4355461121945
 10
679.583783462286
 20
639.5275683070345
 10
831.4986428920715
 20
1092.455025264256
 10
825.8100911699707
 20
1094.363003069416
  0
LWPOLYLINE
  5
FF
330
17
100
AcDbEntity
  8
POCKET-KERF-15.5
100
AcDbPolyline
 90
4
 70
1
 10
766.0981118645968
 20
954.066668532168
 10
771.8219513644926
 20
952.2673182662577
 10
817.3547184405461
 20
1097.1097403711256
 10
811.6308789406503
 20
1098.909090637036
  0
LWPOLYLINE
  5
100
330
17
100
AcDbEntity
  8
POCKET-KERF-15.5
100
AcDbPolyline
 90
4
 70
1
 10
662.8027950865053
 20
644.8028517765914
 10
668.5598482403984
 20
643.1127810729669
 10
803.1247539081336
 20
1101.494381864208
 10
797.3677007542406
 20
1103.1844525678325
  0
LWPOLYLINE
  5
101
330
17
100
AcDbEntity
  8
POCKET-KERF-15.5
100
AcDbPolyline
 90
4
 70
1
 10
743.039119464333
 20
960.7169572849477
 10
748.8273001129323
 20
959.1367785674665
 10
788.8139057476105
 20
1105.6073608992904
 10
783.0257250990112
 20
1107.1875396167716
  0
LWPOLYLINE
  5
102
330
17
100
AcDbEntity
  8
POCKET-KERF-15.5
100
AcDbPolyline
 90
4
 70
1
 10
651.5902263313933
 20
647.7455036869026
 10
657.4074370358677
 20
646.2757895583227
 10
774.4273597212153
 20
1109.447187073349
 10
768.6101490167408
 20
1110.916901201929
  0
LWPOLYLINE
  5
103
330
17
100
AcDbEntity
  8
POCKET-KERF-15.5
100
AcDbPolyline
 90
4
 70
1
 10
719.7437058922549
 20
966.4847278695504
 10
725.5878386942734
 20
965.1260109040379
 10
759.9703290215056
 20
1113.012468964621
 10
754.126196219487
 20
1114.3711859301334
  0
LWPOLYLINE
  5
104
330
17
100
AcDbEntity
  8
POCKET-KERF-15.5
100
AcDbPolyline
 90
4
 70
1
 10
640.273776209254
 20
650.2592369636272
 10
646.1427133948375
 20
649.0120095137706
 10
745.4480523822762
 20
1116.3019146368079
 10
739.5791151966927
 20
1117.5491420866645
  0
LWPOLYLINE
  5
105
330
17
100
AcDbEntity
  8
POCKET-KERF-15.5
100
AcDbPolyline
 90
4
 70
1
 10
696.2456339360955
 20
971.3616208716498
 10
702.137248803004
 20
970.2263348900476
 10
730.8657921802198
 20
1119.3143321072291
 10
724.9741773133113
 20
1120.4496180888314
  0
LWPOLYLINE
  5
106
330
17
100
AcDbEntity
  8
POCKET-KERF-15.5
100
AcDbPolyline
 90
4
 70
1
 10
628.8698460130801
 20
652.3404083727535
 10
634.7820036414572
 20
651.317475248242
 10
716.2288325280222
 20
1122.048629778755
 10
710.3166748996451
 20
1123.0715629032666
  0
LWPOLYLINE
  5
107
330
17
100
AcDbEntity
  8
POCKET-KERF-15.5
100
AcDbPolyline
 90
4
 70
1
 10
672.578960102864
 20
975.3405680542855
 10
678.5095181288584
 20
974.430358462866
 10
701.5424773595801
 20
1124.503816835367
 10
695.6119193335855
 20
1125.4140264267864
  0
LWPOLYLINE
  5
108
330
17
100
AcDbEntity
  8
POCKET-KERF-15.5
100
AcDbPolyline
 90
4
 70
1
 10
617.3949638235315
 20
653.9860016060153
 10
623.3417732156171
 20
653.1888453765332
 10
686.8120485080374
 20
1126.6790036011912
 10
680.8652391159518
 20
1127.4761598306732
  0
LWPOLYLINE
  5
109
330
17
100
AcDbEntity
  8
POCKET-KERF-15.5
100
AcDbPolyline
 90
4
 70
1
 10
648.7779852596606
 20
978.4158026020834
 10
654.7388910973714
 20
977.7319885967102
 10
672.0428837773344
 20
1128.5734018628907
 10
666.0819779396235
 20
1129.257215868264
  0
LWPOLYLINE
  5
10A
330
17
100
AcDbEntity
  8
POCKET-KERF-15.5
100
AcDbPolyline
 90
4
 70
1
 10
605.8657605542616
 20
655.1936316525237
 10
611.8386028090617
 20
654.6234076620826
 10
657.2403350079693
 20
1130.1863251552845
 10
651.2674927531692
 20
1130.7565491457256
  0
LWPOLYLINE
  5
10B
330
17
100
AcDbEntity
  8
POCKET-KERF-15.5
100
AcDbPolyline
 90
4
 70
1
 10
624.8772049203335
 20
980.5828674792865
 10
630.8598192383372
 20
980.126440133462
 10
642.4097661376757
 20
1131.5171890101
 10
636.4271518196718
 20
1131.9736163559246
  0
LWPOLYLINE
  5
10C
330
17
100
AcDbEntity
  8
POCKET-KERF-15.5
100
AcDbPolyline
 90
4
 70
1
 10
594.2989458482008
 20
655.9615482554397
 10
600.2891643344609
 20
655.6190829479012
 10
627.5565512577135
 20
1132.565511167764
 10
621.5663327714534
 20
1132.9079764753026
  0
LWPOLYLINE
  5
10D
330
17
100
AcDbEntity
  8
POCKET-KERF-15.5
100
AcDbPolyline
 90
4
 70
1
 10
600.9112592500276
 20
981.8386218894786
 10
606.9069112541061
 20
981.6102427179487
 10
612.686072665483
 20
1133.3309117521583
 10
606.6904206614045
 20
1133.5592909236882
  0
LWPOLYLINE
  5
10E
330
17
100
AcDbEntity
  8
POCKET-KERF-15.5
100
AcDbPolyline
 90
4
 70
1
 10
582.7112838597382
 20
656.2886384486776
 10
588.7101967622762
 20
656.1744281699619
 10
597.8037189141634
 20
1133.8131134082707
 10
591.8048060116255
 20
1133.9273236869865
  0
LWPOLYLINE
  5
10F
330
17
100
AcDbEntity
  8
POCKET-KERF-15.5
100
AcDbPolyline
 90
4
 70
1
 10
576.9148828600855
 20
982.1812458276424
 10
582.9148828600855
 20
982.1812458276424
 10
582.9148828600855
 20
1134.0119414027033
 10
576.9148828600855
 20
1134.0119414027033
  0
LWPOLYLINE
  5
110
330
17
100
AcDbEntity
  8
POCKET-KERF-15.5
100
AcDbPolyline
 90
4
 70
1
 10
571.119568957895
 20
656.1744281699619
 10
577.1184818604329
 20
656.2886384486776
 10
568.0249597085457
 20
1133.9273236869865
 10
562.0260468060077
 20
1133.8131134082707
  0
LWPOLYLINE
  5
111
330
17
100
AcDbEntity
  8
POCKET-KERF-15.5
100
AcDbPolyline
 90
4
 70
1
 10
552.9228544660648
 20
981.6102427179487
 10
558.9185064701434
 20
981.8386218894786
 10
553.1393450587665
 20
1133.5592909236882
 10
547.1436930546879
 20
1133.3309117521583
  0
LWPOLYLINE
  5
112
330
17
100
AcDbEntity
  8
POCKET-KERF-15.5
100
AcDbPolyline
 90
4
 70
1
 10
559.5406013857101
 20
655.6190829479012
 10
565.5308198719703
 20
655.9615482554397
 10
538.2634329487177
 20
1132.9079764753026
 10
532.2732144624575
 20
1132.565511167764
  0
LWPOLYLINE
  5
113
330
17
100
AcDbEntity
  8
POCKET-KERF-15.5
100
AcDbPolyline
 90
4
 70
1
 10
528.9699464818339
 20
980.126440133462
 10
534.9525607998377
 20
980.5828674792865
 10
523.4026139004992
 20
1131.9736163559246
 10
517.4199995824955
 20
1131.5171890101
  0
LWPOLYLINE
  5
114
330
17
100
AcDbEntity
  8
POCKET-KERF-15.5
100
AcDbPolyline
 90
4
 70
1
 10
547.9911629111094
 20
654.6234076620826
 10
553.9640051659095
 20
655.1936316525237
 10
508.5622729670019
 20
1130.7565491457256
 10
502.5894307122018
 20
1130.1863251552845
  0
LWPOLYLINE
  5
115
330
17
100
AcDbEntity
  8
POCKET-KERF-15.5
100
AcDbPolyline
 90
4
 70
1
 10
505.0908746227997
 20
977.7319885967102
 10
511.0517804605106
 20
978.4158026020834
 10
493.74778778054775
 20
1129.257215868264
 10
487.7868819428368
 20
1128.5734018628907
  0
LWPOLYLINE
  5
116
330
17
100
AcDbEntity
  8
POCKET-KERF-15.5
100
AcDbPolyline
 90
4
 70
1
 10
536.487992504554
 20
653.1888453765332
 10
542.4348018966397
 20
653.9860016060153
 10
478.9645266042194
 20
1127.4761598306732
 10
473.0177172121338
 20
1126.6790036011912
  0
LWPOLYLINE
  5
117
330
17
100
AcDbEntity
  8
POCKET-KERF-15.5
100
AcDbPolyline
 90
4
 70
1
 10
481.3202475913127
 20
974.430358462866
 10
487.25080561730715
 20
975.3405680542855
 10
464.21784638658556
 20
1125.4140264267864
 10
458.2872883605911
 20
1124.503816835367
  0
LWPOLYLINE
  5
118
330
17
100
AcDbEntity
  8
POCKET-KERF-15.5
100
AcDbPolyline
 90
4
 70
1
 10
525.0477620787138
 20
651.317475248242
 10
530.959919707091
 20
652.3404083727535
 10
449.51309082052603
 20
1123.0715629032666
 10
443.600933192149
 20
1122.048629778755
  0
LWPOLYLINE
  5
119
330
17
100
AcDbEntity
  8
POCKET-KERF-15.5
100
AcDbPolyline
 90
4
 70
1
 10
457.69251691716715
 20
970.2263348900476
 10
463.5841317840756
 20
971.3616208716498
 10
434.8555884068599
 20
1120.4496180888314
 10
428.9639735399514
 20
1119.3143321072291
  0
LWPOLYLINE
  5
11A
330
17
100
AcDbEntity
  8
POCKET-KERF-15.5
100
AcDbPolyline
 90
4
 70
1
 10
513.6870523253335
 20
649.0120095137706
 10
519.555989510917
 20
650.2592369636272
 10
420.25065052347844
 20
1117.5491420866645
 10
414.381713337895
 20
1116.3019146368079
  0
LWPOLYLINE
  5
11B
330
17
100
AcDbEntity
  8
POCKET-KERF-15.5
100
AcDbPolyline
 90
4
 70
1
 10
434.2419270258978
 20
965.1260109040379
 10
440.0860598279163
 20
966.4847278695504
 10
405.70356950068407
 20
1114.3711859301334
 10
399.85943669866555
 20
1113.012468964621
  0
LWPOLYLINE
  5
11C
330
17
100
AcDbEntity
  8
POCKET-KERF-15.5
100
AcDbPolyline
 90
4
 70
1
 10
502.4223286843033
 20
646.2757895583227
 10
508.2395393887778
 20
647.7455036869026
 10
391.2196167034304
 20
1110.916901201929
 10
385.4024059989559
 20
1109.447187073349
  0
LWPOLYLINE
  5
11D
330
17
100
AcDbEntity
  8
POCKET-KERF-15.5
100
AcDbPolyline
 90
4
 70
1
 10
411.0024656072388
 20
959.1367785674665
 10
416.7906462558381
 20
960.7169572849477
 10
376.80404062116
 20
1107.1875396167716
 10
371.0158599725607
 20
1105.6073608992904
  0
LWPOLYLINE
  5
11E
330
17
100
AcDbEntity
  8
POCKET-KERF-15.5
100
AcDbPolyline
 90
4
 70
1
 10
491.26991747977263
 20
643.1127810729669
 10
497.0269706336657
 20
644.8028517765914
 10
362.46206496593067
 20
1103.1844525678325
 10
356.7050118120376
 20
1101.494381864208
  0
LWPOLYLINE
  5
11F
330
17
100
AcDbEntity
  8
POCKET-KERF-15.5
100
AcDbPolyline
 90
4
 70
1
 10
388.0078143556785
 20
952.2673182662577
 10
393.7316538555744
 20
954.066668532168
 10
348.19888677952093
 20
1098.909090637036
 10
342.475047279625
 20
1097.1097403711256
  0
LWPOLYLINE
  5
120
330
17
100
AcDbEntity
  8
POCKET-KERF-15.5
100
AcDbPolyline
 90
4
 70
1
 10
480.24598225788515
 20
639.5275683070345
 10
485.93453397998593
 20
641.4355461121945
 10
334.01967455020036
 20
1094.363003069416
 10
328.3311228280995
 20
1092.455025264256
  0
LWPOLYLINE
  5
121
330
17
100
AcDbEntity
  8
POCKET-KERF-15.5
100
AcDbPolyline
 90
4
 70
1
 10
365.2913001545023
 20
944.5275861288685
 10
370.94250276209465
 20
946.5435000873354
 10
319.92956633984545
 20
1089.5478372117261
 10
314.27836373225307
 20
1087.5319232532593
  0
LWPOLYLINE
  5
122
330
17
100
AcDbEntity
  8
POCKET-KERF-15.5
100
AcDbPolyline
 90
4
 70
1
 10
469.3665003604353
 20
635.5253474240201
 10
474.9783060508483
 20
637.6484670374778
 10
305.93366792208144
 20
1084.4653379154936
 10
300.32186223166843
 20
1082.3422183020361
  0
LWPOLYLINE
  5
123
330
17
100
AcDbEntity
  8
POCKET-KERF-15.5
100
AcDbPolyline
 90
4
 70
1
 10
342.88584677407573
 20
935.9287995965547
 10
348.4562220207348
 20
938.1583555190216
 10
292.0370509321247
 20
1079.117346904747
 10
286.46667568546565
 20
1076.88779098228
  0
LWPOLYLINE
  5
124
330
17
100
AcDbEntity
  8
POCKET-KERF-15.5
100
AcDbPolyline
 90
4
 70
1
 10
458.64723976839537
 20
631.1119189706161
 10
464.1741660577027
 20
633.4471032872308
 10
278.24475102899606
 20
1073.5058021086384
 10
272.71782473968875
 20
1071.1706177920234
  0
LWPOLYLINE
  5
125
330
17
100
AcDbEntity
  8
POCKET-KERF-15.5
100
AcDbPolyline
 90
4
 70
1
 10
320.8239271543708
 20
926.4834211655734
 10
326.3054017171455
 20
928.9233876853548
 10
264.5617660707692
 20
1067.632736959203
 10
259.0802915079945
 20
1065.1927704394216
  0
LWPOLYLINE
  5
126
330
17
100
AcDbEntity
  8
POCKET-KERF-15.5
100
AcDbPolyline
 90
4
 70
1
 10
448.1037362488774
 20
626.2936794697936
 10
453.537772786091
 20
628.8375440322709
 10
250.99305430351814
 20
1061.5002796545134
 10
245.55901776630463
 20
1058.956415092036
  0
LWPOLYLINE
  5
127
330
17
100
AcDbEntity
  8
POCKET-KERF-15.5
100
AcDbPolyline
 90
4
 70
1
 10
299.1375163408959
 20
916.2051403248895
 10
304.5221457434387
 20
918.8519811204931
 10
237.54353256461812
 20
1055.1106523874944
 10
232.1589031620753
 20
1052.4638115918908
  0
LWPOLYLINE
  5
128
330
17
100
AcDbEntity
  8
POCKET-KERF-15.5
100
AcDbPolyline
 90
4
 70
1
 10
437.75127083864794
 20
621.0776121501189
 10
443.08454190086746
 20
623.8264700542113
 10
224.21807450105217
 20
1048.466170540674
 10
218.88480343883265
 20
1045.7173126365817
  0
LWPOLYLINE
  5
129
330
17
100
AcDbEntity
  8
POCKET-KERF-15.5
100
AcDbPolyline
 90
4
 70
1
 10
277.8580451422403
 20
905.108853715561
 10
283.13802526899104
 20
907.958732635992
 10
211.02150880336777
 20
1041.5692418471701
 10
205.74152867661704
 20
1038.7193629267392
  0
LWPOLYLINE
  5
12A
330
17
100
AcDbEntity
  8
POCKET-KERF-15.5
100
AcDbPolyline
 90
4
 70
1
 10
427.604847696834
 20
615.4712768247358
 10
432.82962360378406
 20
618.4211440627915
 10
197.9586174559246
 20
1034.4223655182093
 10
192.73384154897454
 20
1031.4724982801536
  0
LWPOLYLINE
  5
12B
330
17
100
AcDbEntity
  8
POCKET-KERF-15.5
100
AcDbPolyline
 90
4
 70
1
 10
257.01635457639827
 20
893.2106435405617
 10
262.18403298333817
 20
896.2594301651793
 10
185.03413400406592
 20
1027.0281313374971
 10
179.86645559712602
 20
1023.9793447128794
  0
LWPOLYLINE
  5
12C
330
17
100
AcDbEntity
  8
POCKET-KERF-15.5
100
AcDbPolyline
 90
4
 70
1
 10
417.6791723589146
 20
609.4827989346876
 10
422.7878806758173
 20
612.6294001697999
 10
172.25274183884525
 20
1019.3892187227715
 10
167.14403352194265
 20
1016.2426174876592
  0
LWPOLYLINE
  5
12D
330
17
100
AcDbEntity
  8
POCKET-KERF-15.5
100
AcDbPolyline
 90
4
 70
1
 10
236.642651171895
 20
880.5277542563292
 10
241.69053817747846
 20
883.7710298811971
 10
159.61907249992444
 20
1011.5083957548713
 10
154.571185494341
 20
1008.2651201300034
  0
LWPOLYLINE
  5
12E
330
17
100
AcDbEntity
  8
POCKET-KERF-15.5
100
AcDbPolyline
 90
4
 70
1
 10
407.9886304235191
 20
603.1208577724547
 10
412.97386693606575
 20
606.4596325348446
 10
147.13770399726147
 20
1003.3885181746789
 10
142.15246748471483
 20
1000.049743412289
  0
LWPOLYLINE
  5
12F
330
17
100
AcDbEntity
  8
POCKET-KERF-15.5
100
AcDbPolyline
 90
4
 70
1
 10
216.76646318849953
 20
867.0785675798234
 10
221.68724272868917
 20
870.5116316218785
 10
134.81315915219741
 20
995.0325283482979
 10
129.89237961200777
 20
991.5994643062428
  0
LWPOLYLINE
  5
130
330
17
100
AcDbEntity
  8
POCKET-KERF-15.5
100
AcDbPolyline
 90
4
 70
1
 10
398.5472667029176
 20
596.3946739027787
 10
403.40180614843365
 20
599.9207831994298
 10
122.64990395854
 20
986.443454200839
 10
117.79536451302397
 20
982.9173449041879
  0
LWPOLYLINE
  5
131
330
17
100
AcDbEntity
  8
POCKET-KERF-15.5
100
AcDbPolyline
 90
4
 70
1
 10
197.41659782097383
 20
852.8825758473165
 10
202.20313805264595
 20
856.5004526570744
 10
110.65234596423969
 20
977.6244081192052
 10
105.86580573256757
 20
974.0065313094473
  0
LWPOLYLINE
  5
132
330
17
100
AcDbEntity
  8
POCKET-KERF-15.5
100
AcDbPolyline
 90
4
 70
1
 10
389.36876486742716
 20
589.3139957990041
 10
394.08557140667597
 20
593.0223291269697
 10
98.82483267424577
 20
968.5785858242676
 10
94.10802613499702
 20
964.8702524963022
  0
LWPOLYLINE
  5
133
330
17
100
AcDbEntity
  8
POCKET-KERF-15.5
100
AcDbPolyline
 90
4
 70
1
 10
178.62109944788426
 20
837.9603537635264
 10
183.2664630852371
 20
841.7577998364496
 10
87.17164997511803
 20
959.3092652128461
 10
82.5262863377652
 20
955.5118191399227
  0
LWPOLYLINE
  5
134
330
17
100
AcDbEntity
  8
POCKET-KERF-15.5
100
AcDbPolyline
 90
4
 70
1
 10
380.4664276132294
 20
581.889085714303
 10
385.03866502767943
 20
585.7742684675211
 10
75.69702058196916
 20
949.8198051699109
 10
71.12478316751915
 20
945.9346224166928
  0
LWPOLYLINE
  5
135
330
17
100
AcDbEntity
  8
POCKET-KERF-15.5
100
AcDbPolyline
 90
4
 70
1
 10
160.40720898598653
 20
822.3335285820395
 10
164.90466335497052
 20
826.3050401581156
 10
64.40510250829671
 20
940.1136443514391
 10
59.907648139312656
 20
936.1421327753629
  0
LWPOLYLINE
  5
136
330
17
100
AcDbEntity
  8
POCKET-KERF-15.5
100
AcDbPolyline
 90
4
 70
1
 10
371.85315738234857
 20
574.1307048082635
 10
376.27419898212315
 20
578.187106067146
 10
53.29998755926011
 20
930.1942999383608
 10
48.878945959485584
 20
926.1378986794783
  0
LWPOLYLINE
  5
137
330
17
100
AcDbEntity
  8
POCKET-KERF-15.5
100
AcDbPolyline
 90
4
 70
1
 10
142.80132440909426
 20
806.0247487602403
 10
147.14435120529174
 20
810.1645698007578
 10
42.3856998489524
 20
920.0653663620557
 10
38.042673052755035
 20
915.9255453215382
  0
LWPOLYLINE
  5
138
330
17
100
AcDbEntity
  8
POCKET-KERF-15.5
100
AcDbPolyline
 90
4
 70
1
 10
363.5414376627293
 20
566.0500975503979
 10
367.80487589088034
 20
570.2718382429016
 10
31.666194342196857
 20
909.7305140018515
 10
27.40275611404584
 20
905.5087733093479
  0
TEXT
  5
139
330
17
100
AcDbEntity
  8
ENGRAVE-LABEL
100
AcDbText
 10
417.1140926471912
 20
948.0348718470315
 30
0.0
 40
9.0
  1
01
 50
105.0
 72
1
 11
417.1140926471912
 21
948.0348718470315
 31
0.0
100
AcDbText
 73
2
  0
LWPOLYLINE
  5
13A
330
17
100
AcDbEntity
  8
CUT
100
AcDbPolyline
 90
2
 70
1
 10
1302.1419807289758
 20
606.0709903644879
 42
1.0
 10
950.0
 20
606.0709903644879
 42
1.0
  0
LWPOLYLINE
  5
13B
330
17
100
AcDbEntity
  8
CUT
100
AcDbPolyline
 90
8
 70
1
 10
1013.1700067694936
 20
599.770990364488
 42
2.414213562373095
 10
1016.3700067694937
 20
596.5709903644879
 10
1050.9700067694937
 20
596.5709903644879
 42
2.414213562373095
 10
1054.1700067694937
 20
599.770990364488
 10
1054.1700067694937
 20
612.370990364488
 42
2.414213562373095
 10
1050.9700067694937
 20
615.5709903644879
 10
1016.3700067694937
 20
615.5709903644879
 42
2.414213562373095
 10
1013.1700067694936
 20
612.370990364488
  0
LWPOLYLINE
  5
13C
330
17
100
AcDbEntity
  8
CUT
100
AcDbPolyline
 90
8
 70
1
 10
1197.9719739594823
 20
599.770990364488
 42
2.414213562373095
 10
1201.1719739594823
 20
596.5709903644879
 10
1235.7719739594822
 20
596.5709903644879
 42
2.414213562373095
 10
1238.9719739594823
 20
599.770990364488
 10
1238.9719739594823
 20
612.370990364488
 42
2.414213562373095
 10
1235.7719739594822
 20
615.5709903644879
 10
1201.1719739594823
 20
615.5709903644879
 42
2.414213562373095
 10
1197.9719739594823
 20
612.370990364488
  0
LWPOLYLINE
  5
13D
330
17
100
AcDbEntity
  8
CUT
100
AcDbPolyline
 90
8
 70
1
 10
1132.3709903644879
 20
493.1700067694937
 42
2.414213562373095
 10
1135.570990364488
 20
496.37000676949367
 10
1135.570990364488
 20
530.9700067694937
 42
2.414213562373095
 10
1132.3709903644879
 20
534.1700067694936
 10
1119.770990364488
 20
534.1700067694936
 42
2.414213562373095
 10
1116.570990364488
 20
530.9700067694937
 10
1116.570990364488
 20
496.37000676949367
 42
2.414213562373095
 10
1119.770990364488
 20
493.1700067694937
  0
LWPOLYLINE
  5
13E
330
17
100
AcDbEntity
  8
CUT
100
AcDbPolyline
 90
8
 70
1
 10
1132.370990364488
 20
677.9719739594823
 42
2.414213562373095
 10
1135.570990364488
 20
681.1719739594822
 10
1135.570990364488
 20
715.7719739594822
 42
2.414213562373095
 10
1132.370990364488
 20
718.9719739594823
 10
1119.770990364488
 20
718.9719739594823
 42
2.414213562373095
 10
1116.570990364488
 20
715.7719739594822
 10
1116.570990364488
 20
681.1719739594822
 42
2.414213562373095
 10
1119.770990364488
 20
677.9719739594823
  0
TEXT
  5
13F
330
17
100
AcDbEntity
  8
ENGRAVE-LABEL
100
AcDbText
 10
1126.070990364488
 20
606.0709903644879
 30
0.0
 40
22.0
  1
02 FORMER-BASE 1/2
 50
30.0
 72
1
 11
1126.070990364488
 21
606.0709903644879
 31
0.0
100
AcDbText
 73
2
  0
LWPOLYLINE
  5
140
330
17
100
AcDbEntity
  8
CUT
100
AcDbPolyline
 90
2
 70
1
 10
1446.1419807289758
 20
194.07099036448795
 42
1.0
 10
1094.0
 20
194.07099036448795
 42
1.0
  0
LWPOLYLINE
  5
141
330
17
100
AcDbEntity
  8
CUT
100
AcDbPolyline
 90
8
 70
1
 10
1157.1700067694937
 20
187.77099036448794
 42
2.414213562373095
 10
1160.3700067694936
 20
184.57099036448795
 10
1194.9700067694937
 20
184.57099036448795
 42
2.414213562373095
 10
1198.1700067694937
 20
187.77099036448794
 10
1198.1700067694937
 20
200.37099036448797
 42
2.414213562373095
 10
1194.9700067694937
 20
203.57099036448795
 10
1160.3700067694936
 20
203.57099036448795
 42
2.414213562373095
 10
1157.1700067694937
 20
200.37099036448797
  0
LWPOLYLINE
  5
142
330
17
100
AcDbEntity
  8
CUT
100
AcDbPolyline
 90
8
 70
1
 10
1341.9719739594823
 20
187.77099036448794
 42
2.414213562373095
 10
1345.1719739594823
 20
184.57099036448795
 10
1379.7719739594822
 20
184.57099036448795
 42
2.414213562373095
 10
1382.9719739594823
 20
187.77099036448794
 10
1382.9719739594823
 20
200.37099036448797
 42
2.414213562373095
 10
1379.7719739594822
 20
203.57099036448795
 10
1345.1719739594823
 20
203.57099036448795
 42
2.414213562373095
 10
1341.9719739594823
 20
200.37099036448797
  0
LWPOLYLINE
  5
143
330
17
100
AcDbEntity
  8
CUT
100
AcDbPolyline
 90
8
 70
1
 10
1276.3709903644879
 20
81.17000676949367
 42
2.414213562373095
 10
1279.570990364488
 20
84.37000676949367
 10
1279.570990364488
 20
118.97000676949366
 42
2.414213562373095
 10
1276.3709903644879
 20
122.17000676949367
 10
1263.770990364488
 20
122.17000676949367
 42
2.414213562373095
 10
1260.570990364488
 20
118.97000676949366
 10
1260.570990364488
 20
84.37000676949367
 42
2.414213562373095
 10
1263.770990364488
 20
81.17000676949367
  0
LWPOLYLINE
  5
144
330
17
100
AcDbEntity
  8
CUT
100
AcDbPolyline
 90
8
 70
1
 10
1276.370990364488
 20
265.9719739594822
 42
2.414213562373095
 10
1279.570990364488
 20
269.1719739594822
 10
1279.570990364488
 20
303.77197395948224
 42
2.414213562373095
 10
1276.370990364488
 20
306.9719739594822
 10
1263.770990364488
 20
306.9719739594822
 42
2.414213562373095
 10
1260.570990364488
 20
303.77197395948224
 10
1260.570990364488
 20
269.1719739594822
 42
2.414213562373095
 10
1263.770990364488
 20
265.9719739594822
  0
TEXT
  5
145
330
17
100
AcDbEntity
  8
ENGRAVE-LABEL
100
AcDbText
 10
1270.070990364488
 20
194.07099036448798
 30
0.0
 40
22.0
  1
02 FORMER-BASE 2/2
 50
30.0
 72
1
 11
1270.070990364488
 21
194.07099036448798
 31
0.0
100
AcDbText
 73
2
  0
LWPOLYLINE
  5
146
330
17
100
AcDbEntity
  8
CUT
100
AcDbPolyline
 90
34
 70
1
 10
1345.1419807289758
 20
1181.0
 10
1285.1719739594823
 20
1181.0
 42
-2.414213562373095
 10
1281.9719739594823
 20
1184.2
 10
1281.9719739594823
 20
1199.0
 10
1241.9719739594823
 20
1199.0
 10
1241.9719739594823
 20
1184.2
 42
-2.414213562373095
 10
1238.7719739594822
 20
1181.0
 10
1100.3700067694936
 20
1181.0
 42
-2.414213562373095
 10
1097.1700067694937
 20
1184.2
 10
1097.1700067694937
 20
1199.0
 10
1057.1700067694937
 20
1199.0
 10
1057.1700067694937
 20
1184.2
 42
-2.414213562373095
 10
1053.9700067694937
 20
1181.0
 10
994.0
 20
1181.0
 10
1044.3999999999999
 20
992.0
 10
1081.6361035521977
 20
992.0
 42
-2.414213562373095
 10
1084.8361035521978
 20
988.8
 10
1084.8361035521978
 20
974.0
 10
1124.8361035521978
 20
974.0
 10
1124.8361035521978
 20
988.8
 42
-2.414213562373095
 10
1128.0361035521978
 20
992.0
 10
1160.070990364488
 20
992.0
 10
1160.070990364488
 20
1083.3
 42
-2.414213562373095
 10
1163.270990364488
 20
1086.5
 10
1175.8709903644879
 20
1086.5
 42
-2.414213562373095
 10
1179.070990364488
 20
1083.3
 10
1179.070990364488
 20
992.0
 10
1211.1058771767782
 20
992.0
 42
-2.414213562373095
 10
1214.3058771767783
 20
988.8
 10
1214.3058771767783
 20
974.0
 10
1254.3058771767783
 20
974.0
 10
1254.3058771767783
 20
988.8
 42
-2.414213562373095
 10
1257.505877176778
 20
992.0
 10
1294.741980728976
 20
992.0
  0
TEXT
  5
147
330
17
100
AcDbEntity
  8
ENGRAVE-LABEL
100
AcDbText
 10
1087.7161509707587
 20
1107.1300814732165
 30
0.0
 40
14.0
  1
06 CORE-1A 1/2
 50
45.0
 72
1
 11
1087.7161509707587
 21
1107.1300814732165
 31
0.0
100
AcDbText
 73
2
  0
LWPOLYLINE
  5
148
330
17
100
AcDbEntity
  8
CUT
100
AcDbPolyline
 90
34
 70
1
 10
1549.1419807289758
 20
941.0
 10
1489.1719739594823
 20
941.0
 42
-2.414213562373095
 10
1485.9719739594823
 20
944.2
 10
1485.9719739594823
 20
959.0
 10
1445.9719739594823
 20
959.0
 10
1445.9719739594823
 20
944.2
 42
-2.414213562373095
 10
1442.7719739594822
 20
941.0
 10
1304.3700067694936
 20
941.0
 42
-2.414213562373095
 10
1301.1700067694937
 20
944.2
 10
1301.1700067694937
 20
959.0
 10
1261.1700067694937
 20
959.0
 10
1261.1700067694937
 20
944.2
 42
-2.414213562373095
 10
1257.9700067694937
 20
941.0
 10
1198.0
 20
941.0
 10
1248.3999999999999
 20
752.0
 10
1285.6361035521977
 20
752.0
 42
-2.414213562373095
 10
1288.8361035521978
 20
748.8
 10
1288.8361035521978
 20
734.0
 10
1328.8361035521978
 20
734.0
 10
1328.8361035521978
 20
748.8
 42
-2.414213562373095
 10
1332.0361035521978
 20
752.0
 10
1364.070990364488
 20
752.0
 10
1364.070990364488
 20
843.3
 42
-2.414213562373095
 10
1367.270990364488
 20
846.5
 10
1379.8709903644879
 20
846.5
 42
-2.414213562373095
 10
1383.070990364488
 20
843.3
 10
1383.070990364488
 20
752.0
 10
1415.1058771767782
 20
752.0
 42
-2.414213562373095
 10
1418.3058771767783
 20
748.8
 10
1418.3058771767783
 20
734.0
 10
1458.3058771767783
 20
734.0
 10
1458.3058771767783
 20
748.8
 42
-2.414213562373095
 10
1461.505877176778
 20
752.0
 10
1498.741980728976
 20
752.0
  0
TEXT
  5
149
330
17
100
AcDbEntity
  8
ENGRAVE-LABEL
100
AcDbText
 10
1291.7161509707587
 20
867.1300814732164
 30
0.0
 40
14.0
  1
06 CORE-1A 2/2
 50
45.0
 72
1
 11
1291.7161509707587
 21
867.1300814732164
 31
0.0
100
AcDbText
 73
2
  0
LWPOLYLINE
  5
14A
330
17
100
AcDbEntity
  8
CUT
100
AcDbPolyline
 90
34
 70
1
 10
1270.0
 20
392.0
 10
1329.9700067694937
 20
392.0
 42
-2.414213562373095
 10
1333.1700067694937
 20
388.8
 10
1333.1700067694937
 20
374.0
 10
1373.1700067694937
 20
374.0
 10
1373.1700067694937
 20
388.8
 42
-2.414213562373095
 10
1376.3700067694936
 20
392.0
 10
1436.070990364488
 20
392.0
 10
1436.070990364488
 20
483.3
 42
-2.414213562373095
 10
1439.270990364488
 20
486.5
 10
1451.870990364488
 20
486.5
 42
-2.414213562373095
 10
1455.070990364488
 20
483.3
 10
1455.070990364488
 20
392.0
 10
1514.7719739594822
 20
392.0
 42
-2.414213562373095
 10
1517.9719739594823
 20
388.8
 10
1517.9719739594823
 20
374.0
 10
1557.9719739594823
 20
374.0
 10
1557.9719739594823
 20
388.8
 42
-2.414213562373095
 10
1561.1719739594823
 20
392.0
 10
1621.1419807289758
 20
392.0
 10
1570.741980728976
 20
581.0
 10
1533.505877176778
 20
581.0
 42
-2.414213562373095
 10
1530.3058771767783
 20
584.2
 10
1530.3058771767783
 20
599.0
 10
1490.3058771767783
 20
599.0
 10
1490.3058771767783
 20
584.2
 42
-2.414213562373095
 10
1487.1058771767782
 20
581.0
 10
1404.0361035521978
 20
581.0
 42
-2.414213562373095
 10
1400.8361035521978
 20
584.2
 10
1400.8361035521978
 20
599.0
 10
1360.8361035521978
 20
599.0
 10
1360.8361035521978
 20
584.2
 42
-2.414213562373095
 10
1357.6361035521977
 20
581.0
 10
1320.4
 20
581.0
  0
TEXT
  5
14B
330
17
100
AcDbEntity
  8
ENGRAVE-LABEL
100
AcDbText
 10
1363.7161509707587
 20
465.8699185267837
 30
0.0
 40
14.0
  1
07 CORE-1B 1/2
 50
30.0
 72
1
 11
1363.7161509707587
 21
465.8699185267837
 31
0.0
100
AcDbText
 73
2
  0
LWPOLYLINE
  5
14C
330
17
100
AcDbEntity
  8
CUT
100
AcDbPolyline
 90
34
 70
1
 10
1310.0
 20
976.0
 10
1369.9700067694937
 20
976.0
 42
-2.414213562373095
 10
1373.1700067694937
 20
972.8
 10
1373.1700067694937
 20
958.0
 10
1413.1700067694937
 20
958.0
 10
1413.1700067694937
 20
972.8
 42
-2.414213562373095
 10
1416.3700067694936
 20
976.0
 10
1476.070990364488
 20
976.0
 10
1476.070990364488
 20
1067.3
 42
-2.414213562373095
 10
1479.270990364488
 20
1070.5
 10
1491.870990364488
 20
1070.5
 42
-2.414213562373095
 10
1495.070990364488
 20
1067.3
 10
1495.070990364488
 20
976.0
 10
1554.7719739594822
 20
976.0
 42
-2.414213562373095
 10
1557.9719739594823
 20
972.8
 10
1557.9719739594823
 20
958.0
 10
1597.9719739594823
 20
958.0
 10
1597.9719739594823
 20
972.8
 42
-2.414213562373095
 10
1601.1719739594823
 20
976.0
 10
1661.1419807289758
 20
976.0
 10
1610.741980728976
 20
1165.0
 10
1573.505877176778
 20
1165.0
 42
-2.414213562373095
 10
1570.3058771767783
 20
1168.2
 10
1570.3058771767783
 20
1183.0
 10
1530.3058771767783
 20
1183.0
 10
1530.3058771767783
 20
1168.2
 42
-2.414213562373095
 10
1527.1058771767782
 20
1165.0
 10
1444.0361035521978
 20
1165.0
 42
-2.414213562373095
 10
1440.8361035521978
 20
1168.2
 10
1440.8361035521978
 20
1183.0
 10
1400.8361035521978
 20
1183.0
 10
1400.8361035521978
 20
1168.2
 42
-2.414213562373095
 10
1397.6361035521977
 20
1165.0
 10
1360.4
 20
1165.0
  0
TEXT
  5
14D
330
17
100
AcDbEntity
  8
ENGRAVE-LABEL
100
AcDbText
 10
1403.7161509707587
 20
1049.8699185267835
 30
0.0
 40
14.0
  1
07 CORE-1B 2/2
 50
30.0
 72
1
 11
1403.7161509707587
 21
1049.8699185267835
 31
0.0
100
AcDbText
 73
2
  0
LWPOLYLINE
  5
14E
330
17
100
AcDbEntity
  8
CUT
100
AcDbPolyline
 90
2
 70
1
 10
1699.741980728976
 20
138.87099036448797
 42
1.0
 10
1458.0
 20
138.87099036448797
 42
1.0
  0
LWPOLYLINE
  5
14F
330
17
100
AcDbEntity
  8
CUT
100
AcDbPolyline
 90
8
 70
1
 10
1493.6361035521977
 20
132.57099036448795
 42
2.414213562373095
 10
1496.8361035521978
 20
129.37099036448797
 10
1531.4361035521977
 20
129.37099036448797
 42
2.414213562373095
 10
1534.6361035521977
 20
132.57099036448795
 10
1534.6361035521977
 20
145.17099036448798
 42
2.414213562373095
 10
1531.4361035521977
 20
148.37099036448797
 10
1496.8361035521978
 20
148.37099036448797
 42
2.414213562373095
 10
1493.6361035521977
 20
145.17099036448798
  0
LWPOLYLINE
  5
150
330
17
100
AcDbEntity
  8
CUT
100
AcDbPolyline
 90
8
 70
1
 10
1623.1058771767782
 20
132.57099036448795
 42
2.414213562373095
 10
1626.3058771767783
 20
129.37099036448797
 10
1660.9058771767782
 20
129.37099036448797
 42
2.414213562373095
 10
1664.1058771767782
 20
132.57099036448795
 10
1664.1058771767782
 20
145.17099036448798
 42
2.414213562373095
 10
1660.9058771767782
 20
148.37099036448797
 10
1626.3058771767783
 20
148.37099036448797
 42
2.414213562373095
 10
1623.1058771767782
 20
145.17099036448798
  0
LWPOLYLINE
  5
151
330
17
100
AcDbEntity
  8
CUT
100
AcDbPolyline
 90
8
 70
1
 10
1585.170990364488
 20
53.63610355219774
 42
2.414213562373095
 10
1588.370990364488
 20
56.83610355219774
 10
1588.370990364488
 20
91.43610355219774
 42
2.414213562373095
 10
1585.170990364488
 20
94.63610355219774
 10
1572.570990364488
 20
94.63610355219774
 42
2.414213562373095
 10
1569.370990364488
 20
91.43610355219774
 10
1569.370990364488
 20
56.83610355219774
 42
2.414213562373095
 10
1572.570990364488
 20
53.63610355219774
  0
LWPOLYLINE
  5
152
330
17
100
AcDbEntity
  8
CUT
100
AcDbPolyline
 90
8
 70
1
 10
1585.170990364488
 20
183.1058771767782
 42
2.414213562373095
 10
1588.370990364488
 20
186.3058771767782
 10
1588.370990364488
 20
220.90587717677818
 42
2.414213562373095
 10
1585.170990364488
 20
224.1058771767782
 10
1572.570990364488
 20
224.1058771767782
 42
2.414213562373095
 10
1569.370990364488
 20
220.90587717677818
 10
1569.370990364488
 20
186.3058771767782
 42
2.414213562373095
 10
1572.570990364488
 20
183.1058771767782
  0
TEXT
  5
153
330
17
100
AcDbEntity
  8
ENGRAVE-LABEL
100
AcDbText
 10
1633.6532626615724
 20
84.0887180674038
 30
0.0
 40
18.0
  1
03 1/2
 50
15.0
 72
1
 11
1633.6532626615724
 21
84.0887180674038
 31
0.0
100
AcDbText
 73
2
  0
LWPOLYLINE
  5
154
330
17
100
AcDbEntity
  8
CUT
100
AcDbPolyline
 90
2
 70
1
 10
1747.741980728976
 20
706.870990364488
 42
1.0
 10
1506.0
 20
706.870990364488
 42
1.0
  0
LWPOLYLINE
  5
155
330
17
100
AcDbEntity
  8
CUT
100
AcDbPolyline
 90
8
 70
1
 10
1541.6361035521977
 20
700.570990364488
 42
2.414213562373095
 10
1544.8361035521978
 20
697.370990364488
 10
1579.4361035521977
 20
697.370990364488
 42
2.414213562373095
 10
1582.6361035521977
 20
700.570990364488
 10
1582.6361035521977
 20
713.1709903644879
 42
2.414213562373095
 10
1579.4361035521977
 20
716.370990364488
 10
1544.8361035521978
 20
716.370990364488
 42
2.414213562373095
 10
1541.6361035521977
 20
713.1709903644879
  0
LWPOLYLINE
  5
156
330
17
100
AcDbEntity
  8
CUT
100
AcDbPolyline
 90
8
 70
1
 10
1671.1058771767782
 20
700.570990364488
 42
2.414213562373095
 10
1674.3058771767783
 20
697.370990364488
 10
1708.9058771767782
 20
697.370990364488
 42
2.414213562373095
 10
1712.1058771767782
 20
700.570990364488
 10
1712.1058771767782
 20
713.1709903644879
 42
2.414213562373095
 10
1708.9058771767782
 20
716.370990364488
 10
1674.3058771767783
 20
716.370990364488
 42
2.414213562373095
 10
1671.1058771767782
 20
713.1709903644879
  0
LWPOLYLINE
  5
157
330
17
100
AcDbEntity
  8
CUT
100
AcDbPolyline
 90
8
 70
1
 10
1633.170990364488
 20
621.6361035521977
 42
2.414213562373095
 10
1636.370990364488
 20
624.8361035521978
 10
1636.370990364488
 20
659.4361035521978
 42
2.414213562373095
 10
1633.170990364488
 20
662.6361035521977
 10
1620.570990364488
 20
662.6361035521977
 42
2.414213562373095
 10
1617.370990364488
 20
659.4361035521978
 10
1617.370990364488
 20
624.8361035521978
 42
2.414213562373095
 10
1620.570990364488
 20
621.6361035521977
  0
LWPOLYLINE
  5
158
330
17
100
AcDbEntity
  8
CUT
100
AcDbPolyline
 90
8
 70
1
 10
1633.170990364488
 20
751.1058771767782
 42
2.414213562373095
 10
1636.370990364488
 20
754.3058771767783
 10
1636.370990364488
 20
788.9058771767782
 42
2.414213562373095
 10
1633.170990364488
 20
792.1058771767782
 10
1620.570990364488
 20
792.1058771767782
 42
2.414213562373095
 10
1617.370990364488
 20
788.9058771767782
 10
1617.370990364488
 20
754.3058771767783
 42
2.414213562373095
 10
1620.570990364488
 20
751.1058771767782
  0
TEXT
  5
159
330
17
100
AcDbEntity
  8
ENGRAVE-LABEL
100
AcDbText
 10
1681.6532626615724
 20
761.6532626615722
 30
0.0
 40
18.0
  1
03 2/2
 50
15.0
 72
1
 11
1681.6532626615724
 21
761.6532626615722
 31
0.0
100
AcDbText
 73
2
  0
LWPOLYLINE
  5
15A
330
17
100
AcDbEntity
  8
CUT
100
AcDbPolyline
 90
2
 70
1
 10
250.1419807289759
 20
594.0709903644879
 42
1.0
 10
18.0
 20
594.0709903644879
 42
1.0
  0
LWPOLYLINE
  5
15B
330
17
100
AcDbEntity
  8
CUT
100
AcDbPolyline
 90
8
 70
1
 10
79.95898904804083
 20
531.0494436050903
 42
2.414213562373095
 10
84.48447244763474
 20
531.0494436050903
 10
108.95036707668928
 20
555.5153382341449
 42
2.414213562373095
 10
108.95036707668929
 20
560.0408216337388
 10
100.04082163373879
 20
568.9503670766893
 42
2.414213562373095
 10
95.51533823414488
 20
568.9503670766893
 10
71.04944360509035
 20
544.4844724476347
 42
2.414213562373095
 10
71.04944360509033
 20
539.9589890480408
  0
LWPOLYLINE
  5
15C
330
17
100
AcDbEntity
  8
CUT
100
AcDbPolyline
 90
8
 70
1
 10
168.1011590952371
 20
619.1916136522866
 42
2.414213562373095
 10
172.62664249483103
 20
619.1916136522866
 10
197.09253712388556
 20
643.6575082813412
 42
2.414213562373095
 10
197.09253712388556
 20
648.1829916809351
 10
188.18299168093506
 20
657.0925371238856
 42
2.414213562373095
 10
183.65750828134117
 20
657.0925371238856
 10
159.19161365228663
 20
632.626642494831
 42
2.414213562373095
 10
159.19161365228663
 20
628.1011590952371
  0
LWPOLYLINE
  5
15D
330
17
100
AcDbEntity
  8
CUT
100
AcDbPolyline
 90
8
 70
1
 10
197.09253712388556
 20
539.9589890480408
 42
2.414213562373095
 10
197.09253712388556
 20
544.4844724476347
 10
172.626642494831
 20
568.9503670766893
 42
2.414213562373095
 10
168.1011590952371
 20
568.9503670766893
 10
159.1916136522866
 20
560.0408216337388
 42
2.414213562373095
 10
159.1916136522866
 20
555.5153382341449
 10
183.65750828134117
 20
531.0494436050903
 42
2.414213562373095
 10
188.18299168093506
 20
531.0494436050903
  0
LWPOLYLINE
  5
15E
330
17
100
AcDbEntity
  8
CUT
100
AcDbPolyline
 90
8
 70
1
 10
108.95036707668929
 20
628.1011590952371
 42
2.414213562373095
 10
108.95036707668929
 20
632.626642494831
 10
84.48447244763474
 20
657.0925371238856
 42
2.414213562373095
 10
79.95898904804085
 20
657.0925371238856
 10
71.04944360509035
 20
648.1829916809351
 42
2.414213562373095
 10
71.04944360509035
 20
643.6575082813412
 10
95.51533823414489
 20
619.1916136522866
 42
2.414213562373095
 10
100.04082163373879
 20
619.1916136522866
  0
TEXT
  5
15F
330
17
100
AcDbEntity
  8
ENGRAVE-LABEL
100
AcDbText
 10
134.50875930029702
 20
668.9294783878327
 30
0.0
 40
18.0
  1
04 1/2
 72
1
 11
134.50875930029702
 21
668.9294783878327
 31
0.0
100
AcDbText
 73
2
  0
LWPOLYLINE
  5
160
330
17
100
AcDbEntity
  8
CUT
100
AcDbPolyline
 90
2
 70
1
 10
1850.1419807289758
 20
478.07099036448795
 42
1.0
 10
1618.0
 20
478.07099036448795
 42
1.0
  0
LWPOLYLINE
  5
161
330
17
100
AcDbEntity
  8
CUT
100
AcDbPolyline
 90
8
 70
1
 10
1679.9589890480408
 20
415.04944360509035
 42
2.414213562373095
 10
1684.4844724476347
 20
415.04944360509035
 10
1708.9503670766892
 20
439.5153382341449
 42
2.414213562373095
 10
1708.9503670766892
 20
444.0408216337388
 10
1700.0408216337387
 20
452.9503670766893
 42
2.414213562373095
 10
1695.5153382341448
 20
452.9503670766893
 10
1671.0494436050903
 20
428.48447244763474
 42
2.414213562373095
 10
1671.0494436050903
 20
423.95898904804085
  0
LWPOLYLINE
  5
162
330
17
100
AcDbEntity
  8
CUT
100
AcDbPolyline
 90
8
 70
1
 10
1768.101159095237
 20
503.1916136522866
 42
2.414213562373095
 10
1772.626642494831
 20
503.1916136522866
 10
1797.0925371238854
 20
527.6575082813412
 42
2.414213562373095
 10
1797.0925371238854
 20
532.1829916809351
 10
1788.1829916809352
 20
541.0925371238856
 42
2.414213562373095
 10
1783.657508281341
 20
541.0925371238856
 10
1759.1916136522866
 20
516.626642494831
 42
2.414213562373095
 10
1759.1916136522866
 20
512.1011590952371
  0
LWPOLYLINE
  5
163
330
17
100
AcDbEntity
  8
CUT
100
AcDbPolyline
 90
8
 70
1
 10
1797.0925371238854
 20
423.95898904804085
 42
2.414213562373095
 10
1797.0925371238854
 20
428.48447244763474
 10
1772.626642494831
 20
452.9503670766893
 42
2.414213562373095
 10
1768.101159095237
 20
452.9503670766893
 10
1759.1916136522866
 20
444.0408216337388
 42
2.414213562373095
 10
1759.1916136522866
 20
439.5153382341449
 10
1783.657508281341
 20
415.04944360509035
 42
2.414213562373095
 10
1788.1829916809352
 20
415.04944360509035
  0
LWPOLYLINE
  5
164
330
17
100
AcDbEntity
  8
CUT
100
AcDbPolyline
 90
8
 70
1
 10
1708.9503670766892
 20
512.1011590952371
 42
2.414213562373095
 10
1708.9503670766892
 20
516.626642494831
 10
1684.4844724476347
 20
541.0925371238856
 42
2.414213562373095
 10
1679.9589890480408
 20
541.0925371238856
 10
1671.0494436050903
 20
532.1829916809351
 42
2.414213562373095
 10
1671.0494436050903
 20
527.6575082813412
 10
1695.5153382341448
 20
503.1916136522866
 42
2.414213562373095
 10
1700.0408216337387
 20
503.1916136522866
  0
TEXT
  5
165
330
17
100
AcDbEntity
  8
ENGRAVE-LABEL
100
AcDbText
 10
1733.633221428679
 20
552.9294783878325
 30
0.0
 40
18.0
  1
04 2/2
 72
1
 11
1733.633221428679
 21
552.9294783878325
 31
0.0
100
AcDbText
 73
2
  0
LWPOLYLINE
  5
166
330
17
100
AcDbEntity
  8
CUT
100
AcDbPolyline
 90
34
 70
1
 10
1857.1419807289758
 20
1169.0
 10
1827.0969165133583
 20
1169.0
 42
-2.414213562373095
 10
1823.8969165133583
 20
1172.2
 10
1823.8969165133583
 20
1187.0
 10
1783.8969165133583
 20
1187.0
 10
1783.8969165133583
 20
1172.2
 42
-2.414213562373095
 10
1780.6969165133582
 20
1169.0
 10
1702.4450642156178
 20
1169.0
 42
-2.414213562373095
 10
1699.2450642156177
 20
1172.2
 10
1699.2450642156177
 20
1187.0
 10
1659.2450642156177
 20
1187.0
 10
1659.2450642156177
 20
1172.2
 42
-2.414213562373095
 10
1656.0450642156177
 20
1169.0
 10
1626.0
 20
1169.0
 10
1676.3999999999999
 20
980.0
 10
1687.0638168652902
 20
980.0
 42
-2.414213562373095
 10
1690.2638168652902
 20
976.8
 10
1690.2638168652902
 20
962.0
 10
1723.8709903644879
 20
962.0
 10
1723.8709903644879
 20
976.8
 42
-2.414213562373095
 10
1727.070990364488
 20
980.0
 10
1732.070990364488
 20
980.0
 10
1732.070990364488
 20
1071.3
 42
-2.414213562373095
 10
1735.270990364488
 20
1074.5
 10
1747.8709903644879
 20
1074.5
 42
-2.414213562373095
 10
1751.070990364488
 20
1071.3
 10
1751.070990364488
 20
980.0
 10
1756.070990364488
 20
980.0
 42
-2.414213562373095
 10
1759.270990364488
 20
976.8
 10
1759.270990364488
 20
962.0
 10
1792.8781638636858
 20
962.0
 10
1792.8781638636858
 20
976.8
 42
-2.414213562373095
 10
1796.0781638636859
 20
980.0
 10
1806.741980728976
 20
980.0
  0
TEXT
  5
167
330
17
100
AcDbEntity
  8
ENGRAVE-LABEL
100
AcDbText
 10
1789.4243667685848
 20
1114.593369419649
 30
0.0
 40
11.0
  1
08 CORE-2A 1/2
 50
30.0
 72
1
 11
1789.4243667685848
 21
1114.593369419649
 31
0.0
100
AcDbText
 73
2
  0
LWPOLYLINE
  5
168
330
17
100
AcDbEntity
  8
CUT
100
AcDbPolyline
 90
34
 70
1
 10
1901.1419807289758
 20
329.0
 10
1871.0969165133583
 20
329.0
 42
-2.414213562373095
 10
1867.8969165133583
 20
332.2
 10
1867.8969165133583
 20
347.0
 10
1827.8969165133583
 20
347.0
 10
1827.8969165133583
 20
332.2
 42
-2.414213562373095
 10
1824.6969165133582
 20
329.0
 10
1746.4450642156178
 20
329.0
 42
-2.414213562373095
 10
1743.2450642156177
 20
332.2
 10
1743.2450642156177
 20
347.0
 10
1703.2450642156177
 20
347.0
 10
1703.2450642156177
 20
332.2
 42
-2.414213562373095
 10
1700.0450642156177
 20
329.0
 10
1670.0
 20
329.0
 10
1720.3999999999999
 20
140.0
 10
1731.0638168652902
 20
140.0
 42
-2.414213562373095
 10
1734.2638168652902
 20
136.8
 10
1734.2638168652902
 20
122.0
 10
1767.8709903644879
 20
122.0
 10
1767.8709903644879
 20
136.8
 42
-2.414213562373095
 10
1771.070990364488
 20
140.0
 10
1776.070990364488
 20
140.0
 10
1776.070990364488
 20
231.3
 42
-2.414213562373095
 10
1779.270990364488
 20
234.5
 10
1791.8709903644879
 20
234.5
 42
-2.414213562373095
 10
1795.070990364488
 20
231.3
 10
1795.070990364488
 20
140.0
 10
1800.070990364488
 20
140.0
 42
-2.414213562373095
 10
1803.270990364488
 20
136.8
 10
1803.270990364488
 20
122.0
 10
1836.8781638636858
 20
122.0
 10
1836.8781638636858
 20
136.8
 42
-2.414213562373095
 10
1840.0781638636859
 20
140.0
 10
1850.741980728976
 20
140.0
  0
TEXT
  5
169
330
17
100
AcDbEntity
  8
ENGRAVE-LABEL
100
AcDbText
 10
1833.4243667685848
 20
274.5933694196489
 30
0.0
 40
11.0
  1
08 CORE-2A 2/2
 50
30.0
 72
1
 11
1833.4243667685848
 21
274.5933694196489
 31
0.0
100
AcDbText
 73
2
  0
LWPOLYLINE
  5
16A
330
17
100
AcDbEntity
  8
CUT
100
AcDbPolyline
 90
34
 70
1
 10
1941.1419807289758
 20
925.0
 10
1911.0969165133583
 20
925.0
 42
-2.414213562373095
 10
1907.8969165133583
 20
928.2
 10
1907.8969165133583
 20
943.0
 10
1867.8969165133583
 20
943.0
 10
1867.8969165133583
 20
928.2
 42
-2.414213562373095
 10
1864.6969165133582
 20
925.0
 10
1835.070990364488
 20
925.0
 10
1835.070990364488
 20
833.7
 42
-2.414213562373095
 10
1831.8709903644879
 20
830.5
 10
1819.270990364488
 20
830.5
 42
-2.414213562373095
 10
1816.070990364488
 20
833.7
 10
1816.070990364488
 20
925.0
 10
1786.4450642156178
 20
925.0
 42
-2.414213562373095
 10
1783.2450642156177
 20
928.2
 10
1783.2450642156177
 20
943.0
 10
1743.2450642156177
 20
943.0
 10
1743.2450642156177
 20
928.2
 42
-2.414213562373095
 10
1740.0450642156177
 20
925.0
 10
1710.0
 20
925.0
 10
1760.3999999999999
 20
736.0
 10
1771.0638168652902
 20
736.0
 42
-2.414213562373095
 10
1774.2638168652902
 20
732.8
 10
1774.2638168652902
 20
718.0
 10
1807.8709903644879
 20
718.0
 10
1807.8709903644879
 20
732.8
 42
-2.414213562373095
 10
1811.070990364488
 20
736.0
 10
1840.070990364488
 20
736.0
 42
-2.414213562373095
 10
1843.270990364488
 20
732.8
 10
1843.270990364488
 20
718.0
 10
1876.8781638636858
 20
718.0
 10
1876.8781638636858
 20
732.8
 42
-2.414213562373095
 10
1880.0781638636859
 20
736.0
 10
1890.741980728976
 20
736.0
  0
TEXT
  5
16B
330
17
100
AcDbEntity
  8
ENGRAVE-LABEL
100
AcDbText
 10
1795.8242969241035
 20
784.3710695924468
 30
0.0
 40
11.0
  1
09 CORE-2B 1/2
 50
135.0
 72
1
 11
1795.8242969241035
 21
784.3710695924468
 31
0.0
100
AcDbText
 73
2
  0
LWPOLYLINE
  5
16C
330
17
100
AcDbEntity
  8
CUT
100
AcDbPolyline
 90
34
 70
1
 10
2045.1419807289758
 20
685.0
 10
2015.0969165133583
 20
685.0
 42
-2.414213562373095
 10
2011.8969165133583
 20
688.2
 10
2011.8969165133583
 20
703.0
 10
1971.8969165133583
 20
703.0
 10
1971.8969165133583
 20
688.2
 42
-2.414213562373095
 10
1968.6969165133582
 20
685.0
 10
1939.070990364488
 20
685.0
 10
1939.070990364488
 20
593.7
 42
-2.414213562373095
 10
1935.8709903644879
 20
590.5
 10
1923.270990364488
 20
590.5
 42
-2.414213562373095
 10
1920.070990364488
 20
593.7
 10
1920.070990364488
 20
685.0
 10
1890.4450642156178
 20
685.0
 42
-2.414213562373095
 10
1887.2450642156177
 20
688.2
 10
1887.2450642156177
 20
703.0
 10
1847.2450642156177
 20
703.0
 10
1847.2450642156177
 20
688.2
 42
-2.414213562373095
 10
1844.0450642156177
 20
685.0
 10
1814.0
 20
685.0
 10
1864.3999999999999
 20
496.0
 10
1875.0638168652902
 20
496.0
 42
-2.414213562373095
 10
1878.2638168652902
 20
492.8
 10
1878.2638168652902
 20
478.0
 10
1911.8709903644879
 20
478.0
 10
1911.8709903644879
 20
492.8
 42
-2.414213562373095
 10
1915.070990364488
 20
496.0
 10
1944.070990364488
 20
496.0
 42
-2.414213562373095
 10
1947.270990364488
 20
492.8
 10
1947.270990364488
 20
478.0
 10
1980.8781638636858
 20
478.0
 10
1980.8781638636858
 20
492.8
 42
-2.414213562373095
 10
1984.0781638636859
 20
496.0
 10
1994.741980728976
 20
496.0
  0
TEXT
  5
16D
330
17
100
AcDbEntity
  8
ENGRAVE-LABEL
100
AcDbText
 10
1899.8242969241035
 20
544.3710695924468
 30
0.0
 40
11.0
  1
09 CORE-2B 2/2
 50
135.0
 72
1
 11
1899.8242969241035
 21
544.3710695924468
 31
0.0
100
AcDbText
 73
2
  0
LWPOLYLINE
  5
16E
330
17
100
AcDbEntity
  8
CUT
100
AcDbPolyline
 90
2
 70
1
 10
139.74198072897593
 20
78.87099036448797
 42
1.0
 10
18.0
 20
78.87099036448797
 42
1.0
  0
LWPOLYLINE
  5
16F
330
17
100
AcDbEntity
  8
CUT
100
AcDbPolyline
 90
8
 70
1
 10
46.69255939057245
 20
37.78301394762195
 42
2.414213562373095
 10
51.21804279016634
 20
37.78301394762195
 10
71.16352644955461
 20
57.7284976070102
 42
2.414213562373095
 10
71.16352644955461
 20
62.25398100660411
 10
62.25398100660411
 20
71.16352644955461
 42
2.414213562373095
 10
57.7284976070102
 20
71.16352644955461
 10
37.783013947621946
 20
51.21804279016635
 42
2.414213562373095
 10
37.783013947621946
 20
46.692559390572455
  0
LWPOLYLINE
  5
170
330
17
100
AcDbEntity
  8
CUT
100
AcDbPolyline
 90
8
 70
1
 10
95.48799972237184
 20
86.57845427942135
 42
2.414213562373095
 10
100.01348312196575
 20
86.57845427942134
 10
119.95896678135401
 20
106.5239379388096
 42
2.414213562373095
 10
119.95896678135401
 20
111.04942133840349
 10
111.0494213384035
 20
119.958966781354
 42
2.414213562373095
 10
106.52393793880961
 20
119.958966781354
 10
86.57845427942135
 20
100.01348312196575
 42
2.414213562373095
 10
86.57845427942135
 20
95.48799972237184
  0
LWPOLYLINE
  5
171
330
17
100
AcDbEntity
  8
CUT
100
AcDbPolyline
 90
8
 70
1
 10
119.958966781354
 20
46.69255939057245
 42
2.414213562373095
 10
119.958966781354
 20
51.21804279016634
 10
100.01348312196575
 20
71.16352644955461
 42
2.414213562373095
 10
95.48799972237184
 20
71.16352644955461
 10
86.57845427942135
 20
62.25398100660411
 42
2.414213562373095
 10
86.57845427942134
 20
57.7284976070102
 10
106.5239379388096
 20
37.783013947621946
 42
2.414213562373095
 10
111.04942133840349
 20
37.783013947621946
  0
LWPOLYLINE
  5
172
330
17
100
AcDbEntity
  8
CUT
100
AcDbPolyline
 90
8
 70
1
 10
71.16352644955461
 20
95.48799972237184
 42
2.414213562373095
 10
71.16352644955461
 20
100.01348312196575
 10
51.21804279016635
 20
119.95896678135401
 42
2.414213562373095
 10
46.692559390572455
 20
119.95896678135401
 10
37.78301394762195
 20
111.0494213384035
 42
2.414213562373095
 10
37.78301394762195
 20
106.52393793880961
 10
57.7284976070102
 20
86.57845427942135
 42
2.414213562373095
 10
62.25398100660411
 20
86.57845427942135
  0
TEXT
  5
173
330
17
100
AcDbEntity
  8
ENGRAVE-LABEL
100
AcDbText
 10
37.373128790218054
 20
79.29427471367588
 30
0.0
 40
7.0
  1
05 1/2
 72
1
 11
37.373128790218054
 21
79.29427471367588
 31
0.0
100
AcDbText
 73
2
  0
LWPOLYLINE
  5
174
330
17
100
AcDbEntity
  8
CUT
100
AcDbPolyline
 90
2
 70
1
 10
139.74198072897593
 20
1042.870990364488
 42
1.0
 10
18.0
 20
1042.870990364488
 42
1.0
  0
LWPOLYLINE
  5
175
330
17
100
AcDbEntity
  8
CUT
100
AcDbPolyline
 90
8
 70
1
 10
46.69255939057245
 20
1001.783013947622
 42
2.414213562373095
 10
51.21804279016634
 20
1001.783013947622
 10
71.16352644955461
 20
1021.7284976070102
 42
2.414213562373095
 10
71.16352644955461
 20
1026.2539810066041
 10
62.25398100660411
 20
1035.1635264495546
 42
2.414213562373095
 10
57.7284976070102
 20
1035.1635264495546
 10
37.783013947621946
 20
1015.2180427901664
 42
2.414213562373095
 10
37.783013947621946
 20
1010.6925593905725
  0
LWPOLYLINE
  5
176
330
17
100
AcDbEntity
  8
CUT
100
AcDbPolyline
 90
8
 70
1
 10
95.48799972237184
 20
1050.5784542794213
 42
2.414213562373095
 10
100.01348312196575
 20
1050.5784542794213
 10
119.95896678135401
 20
1070.5239379388097
 42
2.414213562373095
 10
119.95896678135401
 20
1075.0494213384036
 10
111.0494213384035
 20
1083.958966781354
 42
2.414213562373095
 10
106.52393793880961
 20
1083.958966781354
 10
86.57845427942135
 20
1064.0134831219657
 42
2.414213562373095
 10
86.57845427942135
 20
1059.4879997223718
  0
LWPOLYLINE
  5
177
330
17
100
AcDbEntity
  8
CUT
100
AcDbPolyline
 90
8
 70
1
 10
119.958966781354
 20
1010.6925593905725
 42
2.414213562373095
 10
119.958966781354
 20
1015.2180427901664
 10
100.01348312196575
 20
1035.1635264495546
 42
2.414213562373095
 10
95.48799972237184
 20
1035.1635264495546
 10
86.57845427942135
 20
1026.2539810066041
 42
2.414213562373095
 10
86.57845427942134
 20
1021.7284976070102
 10
106.5239379388096
 20
1001.783013947622
 42
2.414213562373095
 10
111.04942133840349
 20
1001.783013947622
  0
LWPOLYLINE
  5
178
330
17
100
AcDbEntity
  8
CUT
100
AcDbPolyline
 90
8
 70
1
 10
71.16352644955461
 20
1059.4879997223718
 42
2.414213562373095
 10
71.16352644955461
 20
1064.0134831219657
 10
51.21804279016635
 20
1083.958966781354
 42
2.414213562373095
 10
46.692559390572455
 20
1083.958966781354
 10
37.78301394762195
 20
1075.0494213384036
 42
2.414213562373095
 10
37.78301394762195
 20
1070.5239379388097
 10
57.7284976070102
 20
1050.5784542794213
 42
2.414213562373095
 10
62.25398100660411
 20
1050.5784542794213
  0
TEXT
  5
179
330
17
100
AcDbEntity
  8
ENGRAVE-LABEL
100
AcDbText
 10
79.29427471367585
 20
1084.368851938758
 30
0.0
 40
7.0
  1
05 2/2
 72
1
 11
79.29427471367585
 21
1084.368851938758
 31
0.0
100
AcDbText
 73
2
  0
ENDSEC
  0
SECTION
  2
OBJECTS
  0
DICTIONARY
  5
A
330
0
100
AcDbDictionary
281
1
  3
ACAD_COLOR
350
B
  3
ACAD_GROUP
350
C
  3
ACAD_LAYOUT
350
D
  3
ACAD_MATERIAL
350
E
  3
ACAD_MLEADERSTYLE
350
F
  3
ACAD_MLINESTYLE
350
10
  3
ACAD_PLOTSETTINGS
350
11
  3
ACAD_PLOTSTYLENAME
350
12
  3
ACAD_SCALELIST
350
14
  3
ACAD_TABLESTYLE
350
15
  3
ACAD_VISUALSTYLE
350
16
  3
EZDXF_META
350
2D
  0
DICTIONARY
  5
B
330
A
100
AcDbDictionary
281
1
  0
DICTIONARY
  5
C
330
A
100
AcDbDictionary
281
1
  0
DICTIONARY
  5
D
330
A
100
AcDbDictionary
281
1
  3
Model
350
1A
  3
Layout1
350
1E
  0
DICTIONARY
  5
E
330
A
100
AcDbDictionary
281
1
  3
ByBlock
350
1F
  3
ByLayer
350
20
  3
Global
350
21
  0
DICTIONARY
  5
F
330
A
100
AcDbDictionary
281
1
  3
Standard
350
2C
  0
DICTIONARY
  5
10
330
A
100
AcDbDictionary
281
1
  3
Standard
350
22
  0
DICTIONARY
  5
11
330
A
100
AcDbDictionary
281
1
  0
ACDBDICTIONARYWDFLT
  5
12
330
A
100
AcDbDictionary
281
1
  3
Normal
350
13
100
AcDbDictionaryWithDefault
340
13
  0
ACDBPLACEHOLDER
  5
13
330
12
  0
DICTIONARY
  5
14
330
A
100
AcDbDictionary
281
1
  0
DICTIONARY
  5
15
330
A
100
AcDbDictionary
281
1
  0
DICTIONARY
  5
16
330
A
100
AcDbDictionary
281
1
  3
2dWireframe
350
5A
  3
Basic
350
5B
  3
Brighten
350
5C
  3
ColorChange
350
5D
  3
Conceptual
350
5E
  3
Dim
350
5F
  3
EdgeColorOff
350
60
  3
Facepattern
350
61
  3
Flat
350
62
  3
FlatWithEdges
350
63
  3
Gouraud
350
64
  3
GouraudWithEdges
350
65
  3
Hidden
350
66
  3
JitterOff
350
67
  3
Linepattern
350
68
  3
Modeling
350
69
  3
OverhangOff
350
6A
  3
Realistic
350
6B
  3
Shaded
350
6C
  3
Shaded with edges
350
6D
  3
Shades of Gray
350
6E
  3
Sketchy
350
6F
  3
Thicken
350
70
  3
Wireframe
350
71
  3
X-Ray
350
72
  0
LAYOUT
  5
1A
330
D
100
AcDbPlotSettings
  1

  4
A3
  6

 40
7.5
 41
20.0
 42
7.5
 43
20.0
 44
420.0
 45
297.0
 46
0.0
 47
0.0
 48
0.0
 49
0.0
140
0.0
141
0.0
142
1.0
143
1.0
 70
1024
 72
1
 73
0
 74
5
  7

 75
16
 76
0
 77
2
 78
300
147
1.0
148
0.0
149
0.0
100
AcDbLayout
  1
Model
 70
1
 71
0
 10
0.0
 20
0.0
 11
420.0
 21
297.0
 12
0.0
 22
0.0
 32
0.0
 14
1e+20
 24
1e+20
 34
1e+20
 15
-1e+20
 25
-1e+20
 35
-1e+20
146
0.0
 13
0.0
 23
0.0
 33
0.0
 16
1.0
 26
0.0
 36
0.0
 17
0.0
 27
1.0
 37
0.0
 76
1
330
17
  0
LAYOUT
  5
1E
330
D
100
AcDbPlotSettings
  1

  4
A3
  6

 40
7.5
 41
20.0
 42
7.5
 43
20.0
 44
420.0
 45
297.0
 46
0.0
 47
0.0
 48
0.0
 49
0.0
140
0.0
141
0.0
142
1.0
143
1.0
 70
0
 72
1
 73
0
 74
5
  7

 75
16
 76
0
 77
2
 78
300
147
1.0
148
0.0
149
0.0
100
AcDbLayout
  1
Layout1
 70
1
 71
1
 10
0.0
 20
0.0
 11
420.0
 21
297.0
 12
0.0
 22
0.0
 32
0.0
 14
1e+20
 24
1e+20
 34
1e+20
 15
-1e+20
 25
-1e+20
 35
-1e+20
146
0.0
 13
0.0
 23
0.0
 33
0.0
 16
1.0
 26
0.0
 36
0.0
 17
0.0
 27
1.0
 37
0.0
 76
1
330
1B
  0
MATERIAL
  5
1F
102
{ACAD_REACTORS
330
E
102
}
330
E
100
AcDbMaterial
  1
ByBlock
  2

 70
0
 40
1.0
 71
1
 41
1.0
 91
-1023410177
 42
1.0
 72
1
  3

 73
1
 74
1
 75
1
 44
0.5
 73
0
 45
1.0
 46
1.0
 77
1
  4

 78
1
 79
1
170
1
 48
1.0
171
1
  6

172
1
173
1
174
1
140
1.0
141
1.0
175
1
  7

176
1
177
1
178
1
143
1.0
179
1
  8

270
1
271
1
272
1
145
1.0
146
1.0
273
1
  9

274
1
275
1
276
1
 42
1.0
 72
1
  3

 73
1
 74
1
 75
1
 94
63
  0
MATERIAL
  5
20
102
{ACAD_REACTORS
330
E
102
}
330
E
100
AcDbMaterial
  1
ByLayer
  2

 70
0
 40
1.0
 71
1
 41
1.0
 91
-1023410177
 42
1.0
 72
1
  3

 73
1
 74
1
 75
1
 44
0.5
 73
0
 45
1.0
 46
1.0
 77
1
  4

 78
1
 79
1
170
1
 48
1.0
171
1
  6

172
1
173
1
174
1
140
1.0
141
1.0
175
1
  7

176
1
177
1
178
1
143
1.0
179
1
  8

270
1
271
1
272
1
145
1.0
146
1.0
273
1
  9

274
1
275
1
276
1
 42
1.0
 72
1
  3

 73
1
 74
1
 75
1
 94
63
  0
MATERIAL
  5
21
102
{ACAD_REACTORS
330
E
102
}
330
E
100
AcDbMaterial
  1
Global
  2

 70
0
 40
1.0
 71
1
 41
1.0
 91
-1023410177
 42
1.0
 72
1
  3

 73
1
 74
1
 75
1
 44
0.5
 73
0
 45
1.0
 46
1.0
 77
1
  4

 78
1
 79
1
170
1
 48
1.0
171
1
  6

172
1
173
1
174
1
140
1.0
141
1.0
175
1
  7

176
1
177
1
178
1
143
1.0
179
1
  8

270
1
271
1
272
1
145
1.0
146
1.0
273
1
  9

274
1
275
1
276
1
 42
1.0
 72
1
  3

 73
1
 74
1
 75
1
 94
63
  0
MLINESTYLE
  5
22
102
{ACAD_REACTORS
330
10
102
}
330
10
100
AcDbMlineStyle
  2
Standard
 70
0
  3

 62
256
 51
90.0
 52
90.0
 71
2
 49
0.5
 62
256
  6
BYLAYER
 49
-0.5
 62
256
  6
BYLAYER
  0
MLEADERSTYLE
  5
2C
102
{ACAD_REACTORS
330
F
102
}
330
F
100
AcDbMLeaderStyle
179
2
170
2
171
1
172
0
 90
2
 40
0.0
 41
0.0
173
1
 91
-1056964608
 92
-2
290
1
 42
2.0
291
1
 43
8.0
  3
Standard
 44
4.0
300

342
29
174
1
175
1
176
0
178
1
 93
-1056964608
 45
4.0
292
0
297
0
 46
4.0
 94
-1056964608
 47
1.0
 49
1.0
140
1.0
294
1
141
0.0
177
0
142
1.0
295
0
296
0
143
3.75
271
0
272
9
273
9
  0
DICTIONARY
  5
2D
330
A
100
AcDbDictionary
280
1
281
1
  3
CREATED_BY_EZDXF
350
2E
  3
WRITTEN_BY_EZDXF
350
17C
  0
DICTIONARYVAR
  5
2E
330
2D
100
DictionaryVariables
280
0
  1
1.4.4 @ 2026-09-29T01:11:43.895984+00:00
  0
VISUALSTYLE
  5
5A
102
{ACAD_REACTORS
330
16
102
}
330
16
100
AcDbVisualStyle
  2
2dWireframe
 70
4
 90
0
 40
0.6
 62
7
290
0
291
0
  0
VISUALSTYLE
  5
5B
102
{ACAD_REACTORS
330
16
102
}
330
16
100
AcDbVisualStyle
  2
Basic
 70
7
 90
1
 40
0.6
 62
7
290
0
291
1
  0
VISUALSTYLE
  5
5C
102
{ACAD_REACTORS
330
16
102
}
330
16
100
AcDbVisualStyle
  2
Brighten
 70
12
 90
2
 40
0.6
 62
7
290
0
291
1
  0
VISUALSTYLE
  5
5D
102
{ACAD_REACTORS
330
16
102
}
330
16
100
AcDbVisualStyle
  2
ColorChange
 70
16
 90
2
 40
0.6
 62
8
290
0
291
1
  0
VISUALSTYLE
  5
5E
102
{ACAD_REACTORS
330
16
102
}
330
16
100
AcDbVisualStyle
  2
Conceptual
 70
9
 90
3
 40
0.6
 62
7
290
0
291
0
  0
VISUALSTYLE
  5
5F
102
{ACAD_REACTORS
330
16
102
}
330
16
100
AcDbVisualStyle
  2
Dim
 70
11
 90
2
 40
0.6
 62
7
290
0
291
1
  0
VISUALSTYLE
  5
60
102
{ACAD_REACTORS
330
16
102
}
330
16
100
AcDbVisualStyle
  2
EdgeColorOff
 70
22
 90
2
 40
0.6
 62
7
290
0
291
1
  0
VISUALSTYLE
  5
61
102
{ACAD_REACTORS
330
16
102
}
330
16
100
AcDbVisualStyle
  2
Facepattern
 70
15
 90
2
 40
0.6
 62
7
290
0
291
1
  0
VISUALSTYLE
  5
62
102
{ACAD_REACTORS
330
16
102
}
330
16
100
AcDbVisualStyle
  2
Flat
 70
0
 90
2
 40
0.6
 62
7
290
0
291
1
  0
VISUALSTYLE
  5
63
102
{ACAD_REACTORS
330
16
102
}
330
16
100
AcDbVisualStyle
  2
FlatWithEdges
 70
1
 90
2
 40
0.6
 62
7
290
0
291
1
  0
VISUALSTYLE
  5
64
102
{ACAD_REACTORS
330
16
102
}
330
16
100
AcDbVisualStyle
  2
Gouraud
 70
2
 90
2
 40
0.6
 62
7
290
0
291
1
  0
VISUALSTYLE
  5
65
102
{ACAD_REACTORS
330
16
102
}
330
16
100
AcDbVisualStyle
  2
GouraudWithEdges
 70
3
 90
2
 40
0.6
 62
7
290
0
291
1
  0
VISUALSTYLE
  5
66
102
{ACAD_REACTORS
330
16
102
}
330
16
100
AcDbVisualStyle
  2
Hidden
 70
6
 90
1
 40
0.6
 62
7
290
0
291
0
  0
VISUALSTYLE
  5
67
102
{ACAD_REACTORS
330
16
102
}
330
16
100
AcDbVisualStyle
  2
JitterOff
 70
20
 90
2
 40
0.6
 62
7
290
0
291
1
  0
VISUALSTYLE
  5
68
102
{ACAD_REACTORS
330
16
102
}
330
16
100
AcDbVisualStyle
  2
Linepattern
 70
14
 90
2
 40
0.6
 62
7
290
0
291
1
  0
VISUALSTYLE
  5
69
102
{ACAD_REACTORS
330
16
102
}
330
16
100
AcDbVisualStyle
  2
Modeling
 70
10
 90
2
 40
0.6
 62
7
290
0
291
0
  0
VISUALSTYLE
  5
6A
102
{ACAD_REACTORS
330
16
102
}
330
16
100
AcDbVisualStyle
  2
OverhangOff
 70
21
 90
2
 40
0.6
 62
7
290
0
291
1
  0
VISUALSTYLE
  5
6B
102
{ACAD_REACTORS
330
16
102
}
330
16
100
AcDbVisualStyle
  2
Realistic
 70
8
 90
2
 40
0.6
 62
7
290
0
291
0
  0
VISUALSTYLE
  5
6C
102
{ACAD_REACTORS
330
16
102
}
330
16
100
AcDbVisualStyle
  2
Shaded
 70
27
 90
2
 40
0.6
 62
7
290
0
291
0
  0
VISUALSTYLE
  5
6D
102
{ACAD_REACTORS
330
16
102
}
330
16
100
AcDbVisualStyle
  2
Shaded with edges
 70
26
 90
2
 40
0.6
 62
7
290
0
291
0
  0
VISUALSTYLE
  5
6E
102
{ACAD_REACTORS
330
16
102
}
330
16
100
AcDbVisualStyle
  2
Shades of Gray
 70
23
 90
2
 40
0.6
 62
7
290
0
291
0
  0
VISUALSTYLE
  5
6F
102
{ACAD_REACTORS
330
16
102
}
330
16
100
AcDbVisualStyle
  2
Sketchy
 70
24
 90
1
 40
0.6
 62
7
290
0
291
0
  0
VISUALSTYLE
  5
70
102
{ACAD_REACTORS
330
16
102
}
330
16
100
AcDbVisualStyle
  2
Thicken
 70
13
 90
2
 40
0.6
 62
7
290
0
291
1
  0
VISUALSTYLE
  5
71
102
{ACAD_REACTORS
330
16
102
}
330
16
100
AcDbVisualStyle
  2
Wireframe
 70
5
 90
0
 40
0.6
 62
7
290
0
291
0
  0
VISUALSTYLE
  5
72
102
{ACAD_REACTORS
330
16
102
}
330
16
100
AcDbVisualStyle
  2
X-Ray
 70
25
 90
2
 40
0.5
 62
7
290
0
291
0
  0
DICTIONARYVAR
  5
17C
330
2D
100
DictionaryVariables
280
0
  1
1.4.4 @ 2026-09-29T01:11:48.699066+00:00
  0
ENDSEC
  0
EOF
