  0
SECTION
  2
HEADER
  9
$ACADVER
  1
AC1024
  9
$ACADMAINTVER
 70
6
  9
$DWGCODEPAGE
  3
ANSI_1252
  9
$LASTSAVEDBY
  1
ezdxf
  9
$INSBASE
 10
0.0
 20
0.0
 30
0.0
  9
$EXTMIN
 10
1e+20
 20
1e+20
 30
1e+20
  9
$EXTMAX
 10
-1e+20
 20
-1e+20
 30
-1e+20
  9
$LIMMIN
 10
0.0
 20
0.0
  9
$LIMMAX
 10
420.0
 20
297.0
  9
$ORTHOMODE
 70
0
  9
$REGENMODE
 70
1
  9
$FILLMODE
 70
1
  9
$QTEXTMODE
 70
0
  9
$MIRRTEXT
 70
1
  9
$LTSCALE
 40
1.0
  9
$ATTMODE
 70
1
  9
$TEXTSIZE
 40
2.5
  9
$TRACEWID
 40
1.0
  9
$TEXTSTYLE
  7
OpenSans
  9
$CLAYER
  8
0
  9
$CELTYPE
  6
ByLayer
  9
$CECOLOR
 62
256
  9
$CELTSCALE
 40
1.0
  9
$DISPSILH
 70
0
  9
$DIMSCALE
 40
1.0
  9
$DIMASZ
 40
0.175
  9
$DIMEXO
 40
0.125
  9
$DIMDLI
 40
3.75
  9
$DIMRND
 40
0.0
  9
$DIMDLE
 40
0.0
  9
$DIMEXE
 40
0.375
  9
$DIMTP
 40
0.0
  9
$DIMTM
 40
0.0
  9
$DIMTXT
 40
0.25
  9
$DIMCEN
 40
2.5
  9
$DIMTSZ
 40
0.0
  9
$DIMTOL
 70
0
  9
$DIMLIM
 70
0
  9
$DIMTIH
 70
0
  9
$DIMTOH
 70
0
  9
$DIMSE1
 70
0
  9
$DIMSE2
 70
0
  9
$DIMTAD
 70
1
  9
$DIMZIN
 70
12
  9
$DIMBLK
  1
ARCHTICK
  9
$DIMASO
 70
1
  9
$DIMSHO
 70
1
  9
$DIMPOST
  1

  9
$DIMAPOST
  1

  9
$DIMALT
 70
0
  9
$DIMALTD
 70
3
  9
$DIMALTF
 40
0.03937007874
  9
$DIMLFAC
 40
100.0
  9
$DIMTOFL
 70
1
  9
$DIMTVP
 40
0.0
  9
$DIMTIX
 70
0
  9
$DIMSOXD
 70
0
  9
$DIMSAH
 70
0
  9
$DIMBLK1
  1

  9
$DIMBLK2
  1

  9
$DIMSTYLE
  2
EZDXF
  9
$DIMCLRD
 70
0
  9
$DIMCLRE
 70
0
  9
$DIMCLRT
 70
0
  9
$DIMTFAC
 40
0.5
  9
$DIMGAP
 40
0.1
  9
$DIMJUST
 70
0
  9
$DIMSD1
 70
0
  9
$DIMSD2
 70
0
  9
$DIMTOLJ
 70
0
  9
$DIMTZIN
 70
8
  9
$DIMALTZ
 70
0
  9
$DIMALTTZ
 70
0
  9
$DIMUPT
 70
1
  9
$DIMDEC
 70
2
  9
$DIMTDEC
 70
2
  9
$DIMALTU
 70
2
  9
$DIMALTTD
 70
3
  9
$DIMTXSTY
  7
OpenSansCondensed-Light
  9
$DIMAUNIT
 70
0
  9
$DIMADEC
 70
2
  9
$DIMALTRND
 40
0.0
  9
$DIMAZIN
 70
3
  9
$DIMDSEP
 70
46
  9
$DIMATFIT
 70
3
  9
$DIMFRAC
 70
0
  9
$DIMLDRBLK
  1

  9
$DIMLUNIT
 70
2
  9
$DIMLWD
 70
-2
  9
$DIMLWE
 70
-2
  9
$DIMTMOVE
 70
2
  9
$DIMFXL
 40
1.0
  9
$DIMFXLON
 70
0
  9
$DIMJOGANG
 40
0.785398163397
  9
$DIMTFILL
 70
0
  9
$DIMTFILLCLR
 70
0
  9
$DIMARCSYM
 70
0
  9
$DIMLTYPE
  6

  9
$DIMLTEX1
  6

  9
$DIMLTEX2
  6

  9
$DIMTXTDIRECTION
 70
0
  9
$LUNITS
 70
2
  9
$LUPREC
 70
4
  9
$SKETCHINC
 40
1.0
  9
$FILLETRAD
 40
10.0
  9
$AUNITS
 70
0
  9
$AUPREC
 70
2
  9
$MENU
  1
.
  9
$ELEVATION
 40
0.0
  9
$PELEVATION
 40
0.0
  9
$THICKNESS
 40
0.0
  9
$LIMCHECK
 70
0
  9
$CHAMFERA
 40
0.0
  9
$CHAMFERB
 40
0.0
  9
$CHAMFERC
 40
0.0
  9
$CHAMFERD
 40
0.0
  9
$SKPOLY
 70
0
  9
$TDCREATE
 40
2461311.592349537
  9
$TDUCREATE
 40
2458532.153996898
  9
$TDUPDATE
 40
2461311.592372685
  9
$TDUUPDATE
 40
2458532.1544311
  9
$TDINDWG
 40
0.0
  9
$TDUSRTIMER
 40
0.0
  9
$USRTIMER
 70
1
  9
$ANGBASE
 50
0.0
  9
$ANGDIR
 70
0
  9
$PDMODE
 70
0
  9
$PDSIZE
 40
0.0
  9
$PLINEWID
 40
0.0
  9
$SPLFRAME
 70
0
  9
$SPLINETYPE
 70
6
  9
$SPLINESEGS
 70
8
  9
$HANDSEED
  5
17F
  9
$SURFTAB1
 70
6
  9
$SURFTAB2
 70
6
  9
$SURFTYPE
 70
6
  9
$SURFU
 70
6
  9
$SURFV
 70
6
  9
$UCSBASE
  2

  9
$UCSNAME
  2

  9
$UCSORG
 10
0.0
 20
0.0
 30
0.0
  9
$UCSXDIR
 10
1.0
 20
0.0
 30
0.0
  9
$UCSYDIR
 10
0.0
 20
1.0
 30
0.0
  9
$UCSORTHOREF
  2

  9
$UCSORTHOVIEW
 70
0
  9
$UCSORGTOP
 10
0.0
 20
0.0
 30
0.0
  9
$UCSORGBOTTOM
 10
0.0
 20
0.0
 30
0.0
  9
$UCSORGLEFT
 10
0.0
 20
0.0
 30
0.0
  9
$UCSORGRIGHT
 10
0.0
 20
0.0
 30
0.0
  9
$UCSORGFRONT
 10
0.0
 20
0.0
 30
0.0
  9
$UCSORGBACK
 10
0.0
 20
0.0
 30
0.0
  9
$PUCSBASE
  2

  9
$PUCSNAME
  2

  9
$PUCSORG
 10
0.0
 20
0.0
 30
0.0
  9
$PUCSXDIR
 10
1.0
 20
0.0
 30
0.0
  9
$PUCSYDIR
 10
0.0
 20
1.0
 30
0.0
  9
$PUCSORTHOREF
  2

  9
$PUCSORTHOVIEW
 70
0
  9
$PUCSORGTOP
 10
0.0
 20
0.0
 30
0.0
  9
$PUCSORGBOTTOM
 10
0.0
 20
0.0
 30
0.0
  9
$PUCSORGLEFT
 10
0.0
 20
0.0
 30
0.0
  9
$PUCSORGRIGHT
 10
0.0
 20
0.0
 30
0.0
  9
$PUCSORGFRONT
 10
0.0
 20
0.0
 30
0.0
  9
$PUCSORGBACK
 10
0.0
 20
0.0
 30
0.0
  9
$USERI1
 70
0
  9
$USERI2
 70
0
  9
$USERI3
 70
0
  9
$USERI4
 70
0
  9
$USERI5
 70
0
  9
$USERR1
 40
0.0
  9
$USERR2
 40
0.0
  9
$USERR3
 40
0.0
  9
$USERR4
 40
0.0
  9
$USERR5
 40
0.0
  9
$WORLDVIEW
 70
1
  9
$SHADEDGE
 70
3
  9
$SHADEDIF
 70
70
  9
$TILEMODE
 70
1
  9
$MAXACTVP
 70
64
  9
$PINSBASE
 10
0.0
 20
0.0
 30
0.0
  9
$PLIMCHECK
 70
0
  9
$PEXTMIN
 10
1e+20
 20
1e+20
 30
1e+20
  9
$PEXTMAX
 10
-1e+20
 20
-1e+20
 30
-1e+20
  9
$PLIMMIN
 10
0.0
 20
0.0
  9
$PLIMMAX
 10
420.0
 20
297.0
  9
$UNITMODE
 70
0
  9
$VISRETAIN
 70
1
  9
$PLINEGEN
 70
0
  9
$PSLTSCALE
 70
1
  9
$TREEDEPTH
 70
3020
  9
$CMLSTYLE
  2
Standard
  9
$CMLJUST
 70
0
  9
$CMLSCALE
 40
20.0
  9
$PROXYGRAPHICS
 70
1
  9
$MEASUREMENT
 70
1
  9
$CELWEIGHT
370
-1
  9
$ENDCAPS
280
0
  9
$JOINSTYLE
280
0
  9
$LWDISPLAY
290
0
  9
$INSUNITS
 70
4
  9
$HYPERLINKBASE
  1

  9
$STYLESHEET
  1

  9
$XEDIT
290
1
  9
$CEPSNTYPE
380
0
  9
$PSTYLEMODE
290
1
  9
$FINGERPRINTGUID
  2
{93AEBD54-7BC2-4395-9360-51773986C026}
  9
$VERSIONGUID
  2
{4E3389FB-E544-4FE4-9CAD-8A62A34BD054}
  9
$EXTNAMES
290
1
  9
$PSVPSCALE
 40
0.0
  9
$OLESTARTUP
290
0
  9
$SORTENTS
280
127
  9
$INDEXCTL
280
0
  9
$HIDETEXT
280
1
  9
$XCLIPFRAME
280
1
  9
$HALOGAP
280
0
  9
$OBSCOLOR
 70
257
  9
$OBSLTYPE
280
0
  9
$INTERSECTIONDISPLAY
280
0
  9
$INTERSECTIONCOLOR
 70
257
  9
$DIMASSOC
280
2
  9
$PROJECTNAME
  1

  9
$CAMERADISPLAY
290
0
  9
$LENSLENGTH
 40
50.0
  9
$CAMERAHEIGHT
 40
0.0
  9
$STEPSPERSEC
 40
24.0
  9
$STEPSIZE
 40
100.0
  9
$3DDWFPREC
 40
2.0
  9
$PSOLWIDTH
 40
0.005
  9
$PSOLHEIGHT
 40
0.08
  9
$LOFTANG1
 40
1.570796326795
  9
$LOFTANG2
 40
1.570796326795
  9
$LOFTMAG1
 40
0.0
  9
$LOFTMAG2
 40
0.0
  9
$LOFTPARAM
 70
7
  9
$LOFTNORMALS
280
1
  9
$LATITUDE
 40
37.795
  9
$LONGITUDE
 40
-122.394
  9
$NORTHDIRECTION
 40
0.0
  9
$TIMEZONE
 70
-8000
  9
$LIGHTGLYPHDISPLAY
280
1
  9
$TILEMODELIGHTSYNCH
280
1
  9
$CMATERIAL
347
20
  9
$SOLIDHIST
280
0
  9
$SHOWHIST
280
1
  9
$DWFFRAME
280
2
  9
$DGNFRAME
280
2
  9
$REALWORLDSCALE
290
1
  9
$INTERFERECOLOR
 62
256
  9
$CSHADOW
280
0
  9
$SHADOWPLANELOCATION
 40
0.0
  0
ENDSEC
  0
SECTION
  2
CLASSES
  0
CLASS
  1
ACDBDICTIONARYWDFLT
  2
AcDbDictionaryWithDefault
  3
ObjectDBX Classes
 90
0
 91
0
280
0
281
0
  0
CLASS
  1
SUN
  2
AcDbSun
  3
SCENEOE
 90
1153
 91
0
280
0
281
0
  0
CLASS
  1
VISUALSTYLE
  2
AcDbVisualStyle
  3
ObjectDBX Classes
 90
4095
 91
0
280
0
281
0
  0
CLASS
  1
MATERIAL
  2
AcDbMaterial
  3
ObjectDBX Classes
 90
1153
 91
0
280
0
281
0
  0
CLASS
  1
SCALE
  2
AcDbScale
  3
ObjectDBX Classes
 90
1153
 91
0
280
0
281
0
  0
CLASS
  1
TABLESTYLE
  2
AcDbTableStyle
  3
ObjectDBX Classes
 90
4095
 91
0
280
0
281
0
  0
CLASS
  1
MLEADERSTYLE
  2
AcDbMLeaderStyle
  3
ACDB_MLEADERSTYLE_CLASS
 90
4095
 91
0
280
0
281
0
  0
CLASS
  1
DICTIONARYVAR
  2
AcDbDictionaryVar
  3
ObjectDBX Classes
 90
0
 91
0
280
0
281
0
  0
CLASS
  1
CELLSTYLEMAP
  2
AcDbCellStyleMap
  3
ObjectDBX Classes
 90
1152
 91
0
280
0
281
0
  0
CLASS
  1
MENTALRAYRENDERSETTINGS
  2
AcDbMentalRayRenderSettings
  3
SCENEOE
 90
1024
 91
0
280
0
281
0
  0
CLASS
  1
ACDBDETAILVIEWSTYLE
  2
AcDbDetailViewStyle
  3
ObjectDBX Classes
 90
1025
 91
0
280
0
281
0
  0
CLASS
  1
ACDBSECTIONVIEWSTYLE
  2
AcDbSectionViewStyle
  3
ObjectDBX Classes
 90
1025
 91
0
280
0
281
0
  0
CLASS
  1
RASTERVARIABLES
  2
AcDbRasterVariables
  3
ISM
 90
0
 91
0
280
0
281
0
  0
CLASS
  1
ACDBPLACEHOLDER
  2
AcDbPlaceHolder
  3
ObjectDBX Classes
 90
0
 91
0
280
0
281
0
  0
CLASS
  1
LAYOUT
  2
AcDbLayout
  3
ObjectDBX Classes
 90
0
 91
0
280
0
281
0
  0
ENDSEC
  0
SECTION
  2
TABLES
  0
TABLE
  2
VPORT
  5
8
330
0
100
AcDbSymbolTable
 70
1
  0
VPORT
  5
23
330
8
100
AcDbSymbolTableRecord
100
AcDbViewportTableRecord
  2
*Active
 70
0
 10
0.0
 20
0.0
 11
1.0
 21
1.0
 12
0.0
 22
0.0
 13
0.0
 23
0.0
 14
0.5
 24
0.5
 15
0.5
 25
0.5
 16
0.0
 26
0.0
 36
1.0
 17
0.0
 27
0.0
 37
0.0
 40
1000.0
 41
1.34
 42
50.0
 43
0.0
 44
0.0
 50
0.0
 51
0.0
 71
0
 72
1000
 73
1
 74
3
 75
0
 76
0
 77
0
 78
0
281
0
 65
0
146
0.0
  0
ENDTAB
  0
TABLE
  2
LTYPE
  5
2
330
0
100
AcDbSymbolTable
 70
21
  0
LTYPE
  5
24
330
2
100
AcDbSymbolTableRecord
100
AcDbLinetypeTableRecord
  2
ByBlock
 70
0
  3

 72
65
 73
0
 40
0.0
  0
LTYPE
  5
25
330
2
100
AcDbSymbolTableRecord
100
AcDbLinetypeTableRecord
  2
ByLayer
 70
0
  3

 72
65
 73
0
 40
0.0
  0
LTYPE
  5
26
330
2
100
AcDbSymbolTableRecord
100
AcDbLinetypeTableRecord
  2
Continuous
 70
0
  3

 72
65
 73
0
 40
0.0
  0
LTYPE
  5
2F
330
2
100
AcDbSymbolTableRecord
100
AcDbLinetypeTableRecord
  2
CENTER
 70
0
  3
Center ____ _ ____ _ ____ _ ____ _ ____ _ ____
 72
65
 73
4
 40
5.08
 49
3.175
 74
0
 49
-0.635
 74
0
 49
0.635
 74
0
 49
-0.635
 74
0
  0
LTYPE
  5
30
330
2
100
AcDbSymbolTableRecord
100
AcDbLinetypeTableRecord
  2
CENTERX2
 70
0
  3
Center (2x) ________  __  ________  __  ________
 72
65
 73
4
 40
8.89
 49
6.35
 74
0
 49
-0.635
 74
0
 49
1.27
 74
0
 49
-0.635
 74
0
  0
LTYPE
  5
31
330
2
100
AcDbSymbolTableRecord
100
AcDbLinetypeTableRecord
  2
CENTER2
 70
0
  3
Center (.5x) ____ _ ____ _ ____ _ ____ _ ____
 72
65
 73
4
 40
2.54
 49
1.587
 74
0
 49
-0.318
 74
0
 49
0.318
 74
0
 49
-0.318
 74
0
  0
LTYPE
  5
32
330
2
100
AcDbSymbolTableRecord
100
AcDbLinetypeTableRecord
  2
DASHED
 70
0
  3
Dashed __ __ __ __ __ __ __ __ __ __ __ __ __ _
 72
65
 73
2
 40
1.524
 49
1.27
 74
0
 49
-0.254
 74
0
  0
LTYPE
  5
33
330
2
100
AcDbSymbolTableRecord
100
AcDbLinetypeTableRecord
  2
DASHEDX2
 70
0
  3
Dashed (2x) ____  ____  ____  ____  ____  ____
 72
65
 73
2
 40
3.048
 49
2.54
 74
0
 49
-0.508
 74
0
  0
LTYPE
  5
34
330
2
100
AcDbSymbolTableRecord
100
AcDbLinetypeTableRecord
  2
DASHED2
 70
0
  3
Dashed (.5x) _ _ _ _ _ _ _ _ _ _ _ _ _ _
 72
65
 73
2
 40
0.762
 49
0.635
 74
0
 49
-0.127
 74
0
  0
LTYPE
  5
35
330
2
100
AcDbSymbolTableRecord
100
AcDbLinetypeTableRecord
  2
PHANTOM
 70
0
  3
Phantom ______  __  __  ______  __  __  ______
 72
65
 73
6
 40
6.35
 49
3.175
 74
0
 49
-0.635
 74
0
 49
0.635
 74
0
 49
-0.635
 74
0
 49
0.635
 74
0
 49
-0.635
 74
0
  0
LTYPE
  5
36
330
2
100
AcDbSymbolTableRecord
100
AcDbLinetypeTableRecord
  2
PHANTOMX2
 70
0
  3
Phantom (2x)____________    ____    ____    ____________
 72
65
 73
6
 40
10.795
 49
6.35
 74
0
 49
-0.635
 74
0
 49
1.27
 74
0
 49
-0.635
 74
0
 49
1.27
 74
0
 49
-0.635
 74
0
  0
LTYPE
  5
37
330
2
100
AcDbSymbolTableRecord
100
AcDbLinetypeTableRecord
  2
PHANTOM2
 70
0
  3
Phantom (.5x) ___ _ _ ___ _ _ ___ _ _ ___ _ _ ___
 72
65
 73
6
 40
3.175
 49
1.587
 74
0
 49
-0.318
 74
0
 49
0.318
 74
0
 49
-0.318
 74
0
 49
0.318
 74
0
 49
-0.318
 74
0
  0
LTYPE
  5
38
330
2
100
AcDbSymbolTableRecord
100
AcDbLinetypeTableRecord
  2
DASHDOT
 70
0
  3
Dash dot __ . __ . __ . __ . __ . __ . __ . __
 72
65
 73
4
 40
3.556
 49
2.54
 74
0
 49
-0.508
 74
0
 49
0.0
 74
0
 49
-0.508
 74
0
  0
LTYPE
  5
39
330
2
100
AcDbSymbolTableRecord
100
AcDbLinetypeTableRecord
  2
DASHDOTX2
 70
0
  3
Dash dot (2x) ____  .  ____  .  ____  .  ____
 72
65
 73
4
 40
6.096
 49
5.08
 74
0
 49
-0.508
 74
0
 49
0.0
 74
0
 49
-0.508
 74
0
  0
LTYPE
  5
3A
330
2
100
AcDbSymbolTableRecord
100
AcDbLinetypeTableRecord
  2
DASHDOT2
 70
0
  3
Dash dot (.5x) _ . _ . _ . _ . _ . _ . _ . _
 72
65
 73
4
 40
1.778
 49
1.27
 74
0
 49
-0.254
 74
0
 49
0.0
 74
0
 49
-0.254
 74
0
  0
LTYPE
  5
3B
330
2
100
AcDbSymbolTableRecord
100
AcDbLinetypeTableRecord
  2
DOT
 70
0
  3
Dot .  .  .  .  .  .  .  .  .  .  .  .  .  .  .  .
 72
65
 73
2
 40
0.508
 49
0.0
 74
0
 49
-0.508
 74
0
  0
LTYPE
  5
3C
330
2
100
AcDbSymbolTableRecord
100
AcDbLinetypeTableRecord
  2
DOTX2
 70
0
  3
Dot (2x) .    .    .    .    .    .    .    . 
 72
65
 73
2
 40
1.016
 49
0.0
 74
0
 49
-1.016
 74
0
  0
LTYPE
  5
3D
330
2
100
AcDbSymbolTableRecord
100
AcDbLinetypeTableRecord
  2
DOT2
 70
0
  3
Dot (.5) . . . . . . . . . . . . . . . . . . . 
 72
65
 73
2
 40
0.254
 49
0.0
 74
0
 49
-0.254
 74
0
  0
LTYPE
  5
3E
330
2
100
AcDbSymbolTableRecord
100
AcDbLinetypeTableRecord
  2
DIVIDE
 70
0
  3
Divide __ . . __ . . __ . . __ . . __ . . __
 72
65
 73
6
 40
4.064
 49
2.54
 74
0
 49
-0.508
 74
0
 49
0.0
 74
0
 49
-0.508
 74
0
 49
0.0
 74
0
 49
-0.508
 74
0
  0
LTYPE
  5
3F
330
2
100
AcDbSymbolTableRecord
100
AcDbLinetypeTableRecord
  2
DIVIDEX2
 70
0
  3
Divide (2x) ____  . .  ____  . .  ____  . .  ____
 72
65
 73
6
 40
6.604
 49
5.08
 74
0
 49
-0.508
 74
0
 49
0.0
 74
0
 49
-0.508
 74
0
 49
0.0
 74
0
 49
-0.508
 74
0
  0
LTYPE
  5
40
330
2
100
AcDbSymbolTableRecord
100
AcDbLinetypeTableRecord
  2
DIVIDE2
 70
0
  3
Divide(.5x) _ . _ . _ . _ . _ . _ . _ . _
 72
65
 73
6
 40
2.032
 49
1.27
 74
0
 49
-0.254
 74
0
 49
0.0
 74
0
 49
-0.254
 74
0
 49
0.0
 74
0
 49
-0.254
 74
0
  0
ENDTAB
  0
TABLE
  2
LAYER
  5
1
330
0
100
AcDbSymbolTable
 70
6
  0
LAYER
  5
27
330
1
100
AcDbSymbolTableRecord
100
AcDbLayerTableRecord
  2
0
 70
0
 62
7
  6
Continuous
370
-3
390
13
347
21
  0
LAYER
  5
28
330
1
100
AcDbSymbolTableRecord
100
AcDbLayerTableRecord
  2
Defpoints
 70
0
 62
7
  6
Continuous
290
0
370
-3
390
13
347
21
  0
LAYER
  5
8A
330
1
100
AcDbSymbolTableRecord
100
AcDbLayerTableRecord
  2
CUT
 70
0
 62
1
  6
Continuous
370
-3
390
13
347
21
  0
LAYER
  5
8B
330
1
100
AcDbSymbolTableRecord
100
AcDbLayerTableRecord
  2
POCKET-KERF-15.5
 70
0
 62
5
  6
Continuous
370
-3
390
13
347
21
  0
LAYER
  5
8C
330
1
100
AcDbSymbolTableRecord
100
AcDbLayerTableRecord
  2
ENGRAVE-LABEL
 70
0
 62
3
  6
Continuous
370
-3
390
13
347
21
  0
LAYER
  5
8D
330
1
100
AcDbSymbolTableRecord
100
AcDbLayerTableRecord
  2
REFERENCE-SHEET
 70
0
 62
8
  6
Continuous
370
-3
390
13
347
21
  0
ENDTAB
  0
TABLE
  2
STYLE
  5
5
330
0
100
AcDbSymbolTable
 70
26
  0
STYLE
  5
29
330
5
100
AcDbSymbolTableRecord
100
AcDbTextStyleTableRecord
  2
Standard
 70
0
 40
0.0
 41
1.0
 50
0.0
 71
0
 42
2.5
  3
txt
  4

  0
STYLE
  5
41
330
5
100
AcDbSymbolTableRecord
100
AcDbTextStyleTableRecord
  2
OpenSans-Light
 70
0
 40
0.0
 41
1.0
 50
0.0
 71
0
 42
2.5
  3
OpenSans-Light.ttf
  4

  0
STYLE
  5
42
330
5
100
AcDbSymbolTableRecord
100
AcDbTextStyleTableRecord
  2
OpenSans-Light-Italic
 70
0
 40
0.0
 41
1.0
 50
0.0
 71
0
 42
2.5
  3
OpenSans-LightItalic.ttf
  4

  0
STYLE
  5
43
330
5
100
AcDbSymbolTableRecord
100
AcDbTextStyleTableRecord
  2
OpenSans
 70
0
 40
0.0
 41
1.0
 50
0.0
 71
0
 42
2.5
  3
OpenSans-Regular.ttf
  4

  0
STYLE
  5
44
330
5
100
AcDbSymbolTableRecord
100
AcDbTextStyleTableRecord
  2
OpenSans-Italic
 70
0
 40
0.0
 41
1.0
 50
0.0
 71
0
 42
2.5
  3
OpenSans-Italic.ttf
  4

  0
STYLE
  5
45
330
5
100
AcDbSymbolTableRecord
100
AcDbTextStyleTableRecord
  2
OpenSans-SemiBold
 70
0
 40
0.0
 41
1.0
 50
0.0
 71
0
 42
2.5
  3
OpenSans-SemiBold.ttf
  4

  0
STYLE
  5
46
330
5
100
AcDbSymbolTableRecord
100
AcDbTextStyleTableRecord
  2
OpenSans-SemiBoldItalic
 70
0
 40
0.0
 41
1.0
 50
0.0
 71
0
 42
2.5
  3
OpenSans-SemiBoldItalic.ttf
  4

  0
STYLE
  5
47
330
5
100
AcDbSymbolTableRecord
100
AcDbTextStyleTableRecord
  2
OpenSans-Bold
 70
0
 40
0.0
 41
1.0
 50
0.0
 71
0
 42
2.5
  3
OpenSans-Bold.ttf
  4

  0
STYLE
  5
48
330
5
100
AcDbSymbolTableRecord
100
AcDbTextStyleTableRecord
  2
OpenSans-BoldItalic
 70
0
 40
0.0
 41
1.0
 50
0.0
 71
0
 42
2.5
  3
OpenSans-BoldItalic.ttf
  4

  0
STYLE
  5
49
330
5
100
AcDbSymbolTableRecord
100
AcDbTextStyleTableRecord
  2
OpenSans-ExtraBold
 70
0
 40
0.0
 41
1.0
 50
0.0
 71
0
 42
2.5
  3
OpenSans-ExtraBold.ttf
  4

  0
STYLE
  5
4A
330
5
100
AcDbSymbolTableRecord
100
AcDbTextStyleTableRecord
  2
OpenSans-ExtraBoldItalic
 70
0
 40
0.0
 41
1.0
 50
0.0
 71
0
 42
2.5
  3
OpenSans-ExtraBoldItalic.ttf
  4

  0
STYLE
  5
4B
330
5
100
AcDbSymbolTableRecord
100
AcDbTextStyleTableRecord
  2
OpenSansCondensed-Bold
 70
0
 40
0.0
 41
1.0
 50
0.0
 71
0
 42
2.5
  3
OpenSansCondensed-Bold.ttf
  4

  0
STYLE
  5
4C
330
5
100
AcDbSymbolTableRecord
100
AcDbTextStyleTableRecord
  2
OpenSansCondensed-Light
 70
0
 40
0.0
 41
1.0
 50
0.0
 71
0
 42
2.5
  3
OpenSansCondensed-Light.ttf
  4

  0
STYLE
  5
4D
330
5
100
AcDbSymbolTableRecord
100
AcDbTextStyleTableRecord
  2
OpenSansCondensed-Italic
 70
0
 40
0.0
 41
1.0
 50
0.0
 71
0
 42
2.5
  3
OpenSansCondensed-LightItalic.ttf
  4

  0
STYLE
  5
4E
330
5
100
AcDbSymbolTableRecord
100
AcDbTextStyleTableRecord
  2
LiberationSans
 70
0
 40
0.0
 41
1.0
 50
0.0
 71
0
 42
2.5
  3
LiberationSans-Regular.ttf
  4

  0
STYLE
  5
4F
330
5
100
AcDbSymbolTableRecord
100
AcDbTextStyleTableRecord
  2
LiberationSans-Bold
 70
0
 40
0.0
 41
1.0
 50
0.0
 71
0
 42
2.5
  3
LiberationSans-Bold.ttf
  4

  0
STYLE
  5
50
330
5
100
AcDbSymbolTableRecord
100
AcDbTextStyleTableRecord
  2
LiberationSans-BoldItalic
 70
0
 40
0.0
 41
1.0
 50
0.0
 71
0
 42
2.5
  3
LiberationSans-BoldItalic.ttf
  4

  0
STYLE
  5
51
330
5
100
AcDbSymbolTableRecord
100
AcDbTextStyleTableRecord
  2
LiberationSans-Italic
 70
0
 40
0.0
 41
1.0
 50
0.0
 71
0
 42
2.5
  3
LiberationSans-Italic.ttf
  4

  0
STYLE
  5
52
330
5
100
AcDbSymbolTableRecord
100
AcDbTextStyleTableRecord
  2
LiberationSerif
 70
0
 40
0.0
 41
1.0
 50
0.0
 71
0
 42
2.5
  3
LiberationSerif-Regular.ttf
  4

  0
STYLE
  5
53
330
5
100
AcDbSymbolTableRecord
100
AcDbTextStyleTableRecord
  2
LiberationSerif-Bold
 70
0
 40
0.0
 41
1.0
 50
0.0
 71
0
 42
2.5
  3
LiberationSerif-Bold.ttf
  4

  0
STYLE
  5
54
330
5
100
AcDbSymbolTableRecord
100
AcDbTextStyleTableRecord
  2
LiberationSerif-BoldItalic
 70
0
 40
0.0
 41
1.0
 50
0.0
 71
0
 42
2.5
  3
LiberationSerif-BoldItalic.ttf
  4

  0
STYLE
  5
55
330
5
100
AcDbSymbolTableRecord
100
AcDbTextStyleTableRecord
  2
LiberationSerif-Italic
 70
0
 40
0.0
 41
1.0
 50
0.0
 71
0
 42
2.5
  3
LiberationSerif-Italic.ttf
  4

  0
STYLE
  5
56
330
5
100
AcDbSymbolTableRecord
100
AcDbTextStyleTableRecord
  2
LiberationMono
 70
0
 40
0.0
 41
1.0
 50
0.0
 71
0
 42
2.5
  3
LiberationMono-Regular.ttf
  4

  0
STYLE
  5
57
330
5
100
AcDbSymbolTableRecord
100
AcDbTextStyleTableRecord
  2
LiberationMono-Bold
 70
0
 40
0.0
 41
1.0
 50
0.0
 71
0
 42
2.5
  3
LiberationMono-Bold.ttf
  4

  0
STYLE
  5
58
330
5
100
AcDbSymbolTableRecord
100
AcDbTextStyleTableRecord
  2
LiberationMono-BoldItalic
 70
0
 40
0.0
 41
1.0
 50
0.0
 71
0
 42
2.5
  3
LiberationMono-BoldItalic.ttf
  4

  0
STYLE
  5
59
330
5
100
AcDbSymbolTableRecord
100
AcDbTextStyleTableRecord
  2
LiberationMono-Italic
 70
0
 40
0.0
 41
1.0
 50
0.0
 71
0
 42
2.5
  3
LiberationMono-Italic.ttf
  4

  0
ENDTAB
  0
TABLE
  2
VIEW
  5
7
330
0
100
AcDbSymbolTable
 70
0
  0
ENDTAB
  0
TABLE
  2
UCS
  5
6
330
0
100
AcDbSymbolTable
 70
0
  0
ENDTAB
  0
TABLE
  2
APPID
  5
3
330
0
100
AcDbSymbolTable
 70
3
  0
APPID
  5
2A
330
3
100
AcDbSymbolTableRecord
100
AcDbRegAppTableRecord
  2
ACAD
 70
0
  0
APPID
  5
17C
330
3
100
AcDbSymbolTableRecord
100
AcDbRegAppTableRecord
  2
HATCHBACKGROUNDCOLOR
 70
0
  0
APPID
  5
17D
330
3
100
AcDbSymbolTableRecord
100
AcDbRegAppTableRecord
  2
EZDXF
 70
0
  0
ENDTAB
  0
TABLE
  2
DIMSTYLE
  5
4
330
0
100
AcDbSymbolTable
 70
12
100
AcDbDimStyleTable
  0
DIMSTYLE
105
2B
330
4
100
AcDbSymbolTableRecord
100
AcDbDimStyleTableRecord
  2
Standard
 70
0
 40
1.0
 41
2.5
 42
0.625
 43
3.75
 44
1.25
 45
0.0
 46
0.0
 47
0.0
 48
0.0
 49
2.5
140
2.5
141
2.5
142
0.0
143
0.03937007874
144
1.0
145
0.0
146
1.0
147
0.625
148
0.0
 69
0
 70
0
 71
0
 72
0
 73
0
 74
0
 75
0
 76
0
 77
1
 78
8
 79
3
170
0
171
3
172
1
173
0
174
0
175
0
176
0
177
0
178
0
179
2
271
2
272
2
273
2
274
3
275
0
276
0
277
2
278
44
279
0
280
0
281
0
282
0
283
0
284
8
285
0
286
0
288
0
289
3
290
0
371
-2
372
-2
  0
DIMSTYLE
105
73
330
4
100
AcDbSymbolTableRecord
100
AcDbDimStyleTableRecord
  2
EZDXF
 70
0
 40
1.0
 41
0.175
 42
0.125
 43
3.75
 44
0.375
 45
0.0
 46
0.0
 47
0.0
 48
0.0
 49
2.5
140
0.25
141
2.5
142
0.0
143
0.03937007874
144
100.0
145
0.0
146
0.5
147
0.1
148
0.0
 69
0
 70
0
 71
0
 72
0
 73
0
 74
0
 75
0
 76
0
 77
1
 78
12
 79
3
170
0
171
3
172
1
173
0
174
0
175
0
176
0
177
0
178
0
179
2
271
2
272
2
273
2
274
3
275
0
276
0
277
2
278
46
279
2
280
0
281
0
282
0
283
0
284
8
285
0
286
0
288
1
289
3
290
0
340
4C
342
74
371
-2
372
-2
  0
DIMSTYLE
105
7C
330
4
100
AcDbSymbolTableRecord
100
AcDbDimStyleTableRecord
  2
EZ_M_100_H25_CM
 70
0
 40
1.0
 41
0.25
 42
0.125
 43
3.75
 44
0.375
 45
0.0
 46
0.0
 47
0.0
 48
0.0
 49
2.5
140
0.25
141
2.5
142
0.125
143
0.03937007874
144
100.0
145
0.0
146
0.5
147
0.1
148
0.0
 69
0
 70
0
 71
0
 72
0
 73
0
 74
0
 75
0
 76
0
 77
1
 78
12
 79
3
170
0
171
3
172
1
173
0
174
0
175
0
176
0
177
0
178
0
179
2
271
2
272
2
273
2
274
3
275
0
276
0
277
2
278
46
279
2
280
0
281
0
282
0
283
0
284
8
285
0
286
0
288
1
289
3
290
0
340
4C
371
-2
372
-2
  0
DIMSTYLE
105
7D
330
4
100
AcDbSymbolTableRecord
100
AcDbDimStyleTableRecord
  2
EZ_M_50_H25_CM
 70
0
 40
1.0
 41
0.125
 42
0.0625
 43
3.75
 44
0.1875
 45
0.0
 46
0.0
 47
0.0
 48
0.0
 49
2.5
140
0.125
141
2.5
142
0.0625
143
0.03937007874
144
100.0
145
0.0
146
0.5
147
0.05
148
0.0
 69
0
 70
0
 71
0
 72
0
 73
0
 74
0
 75
0
 76
0
 77
1
 78
12
 79
3
170
0
171
3
172
1
173
0
174
0
175
0
176
0
177
0
178
0
179
2
271
2
272
2
273
2
274
3
275
0
276
0
277
2
278
46
279
2
280
0
281
0
282
0
283
0
284
8
285
0
286
0
288
1
289
3
290
0
340
4C
371
-2
372
-2
  0
DIMSTYLE
105
7E
330
4
100
AcDbSymbolTableRecord
100
AcDbDimStyleTableRecord
  2
EZ_M_25_H25_CM
 70
0
 40
1.0
 41
0.0625
 42
0.03125
 43
3.75
 44
0.09375
 45
0.0
 46
0.0
 47
0.0
 48
0.0
 49
2.5
140
0.0625
141
2.5
142
0.03125
143
0.03937007874
144
100.0
145
0.0
146
0.5
147
0.025
148
0.0
 69
0
 70
0
 71
0
 72
0
 73
0
 74
0
 75
0
 76
0
 77
1
 78
12
 79
3
170
0
171
3
172
1
173
0
174
0
175
0
176
0
177
0
178
0
179
2
271
2
272
2
273
2
274
3
275
0
276
0
277
2
278
46
279
2
280
0
281
0
282
0
283
0
284
8
285
0
286
0
288
1
289
3
290
0
340
4C
371
-2
372
-2
  0
DIMSTYLE
105
7F
330
4
100
AcDbSymbolTableRecord
100
AcDbDimStyleTableRecord
  2
EZ_M_20_H25_CM
 70
0
 40
1.0
 41
0.05
 42
0.025
 43
3.75
 44
0.07500000000000001
 45
0.0
 46
0.0
 47
0.0
 48
0.0
 49
2.5
140
0.05
141
2.5
142
0.025
143
0.03937007874
144
100.0
145
0.0
146
0.5
147
0.020000000000000004
148
0.0
 69
0
 70
0
 71
0
 72
0
 73
0
 74
0
 75
0
 76
0
 77
1
 78
12
 79
3
170
0
171
3
172
1
173
0
174
0
175
0
176
0
177
0
178
0
179
2
271
2
272
2
273
2
274
3
275
0
276
0
277
2
278
46
279
2
280
0
281
0
282
0
283
0
284
8
285
0
286
0
288
1
289
3
290
0
340
4C
371
-2
372
-2
  0
DIMSTYLE
105
80
330
4
100
AcDbSymbolTableRecord
100
AcDbDimStyleTableRecord
  2
EZ_M_10_H25_CM
 70
0
 40
1.0
 41
0.025
 42
0.0125
 43
3.75
 44
0.037500000000000006
 45
0.0
 46
0.0
 47
0.0
 48
0.0
 49
2.5
140
0.025
141
2.5
142
0.0125
143
0.03937007874
144
100.0
145
0.0
146
0.5
147
0.010000000000000002
148
0.0
 69
0
 70
0
 71
0
 72
0
 73
0
 74
0
 75
0
 76
0
 77
1
 78
12
 79
3
170
0
171
3
172
1
173
0
174
0
175
0
176
0
177
0
178
0
179
2
271
2
272
2
273
2
274
3
275
0
276
0
277
2
278
46
279
2
280
0
281
0
282
0
283
0
284
8
285
0
286
0
288
1
289
3
290
0
340
4C
371
-2
372
-2
  0
DIMSTYLE
105
81
330
4
100
AcDbSymbolTableRecord
100
AcDbDimStyleTableRecord
  2
EZ_M_5_H25_CM
 70
0
 40
1.0
 41
0.0125
 42
0.00625
 43
3.75
 44
0.018750000000000003
 45
0.0
 46
0.0
 47
0.0
 48
0.0
 49
2.5
140
0.0125
141
2.5
142
0.00625
143
0.03937007874
144
100.0
145
0.0
146
0.5
147
0.005000000000000001
148
0.0
 69
0
 70
0
 71
0
 72
0
 73
0
 74
0
 75
0
 76
0
 77
1
 78
12
 79
3
170
0
171
3
172
1
173
0
174
0
175
0
176
0
177
0
178
0
179
2
271
2
272
2
273
2
274
3
275
0
276
0
277
2
278
46
279
2
280
0
281
0
282
0
283
0
284
8
285
0
286
0
288
1
289
3
290
0
340
4C
371
-2
372
-2
  0
DIMSTYLE
105
82
330
4
100
AcDbSymbolTableRecord
100
AcDbDimStyleTableRecord
  2
EZ_M_1_H25_CM
 70
0
 40
1.0
 41
0.0025
 42
0.00125
 43
3.75
 44
0.00375
 45
0.0
 46
0.0
 47
0.0
 48
0.0
 49
2.5
140
0.0025
141
2.5
142
0.00125
143
0.03937007874
144
100.0
145
0.0
146
0.5
147
0.001
148
0.0
 69
0
 70
0
 71
0
 72
0
 73
0
 74
0
 75
0
 76
0
 77
1
 78
12
 79
3
170
0
171
3
172
1
173
0
174
0
175
0
176
0
177
0
178
0
179
2
271
2
272
2
273
2
274
3
275
0
276
0
277
2
278
46
279
2
280
0
281
0
282
0
283
0
284
8
285
0
286
0
288
1
289
3
290
0
340
4C
371
-2
372
-2
  0
DIMSTYLE
105
83
330
4
100
AcDbSymbolTableRecord
100
AcDbDimStyleTableRecord
  2
EZ_RADIUS
 70
0
 40
1.0
 41
0.25
 42
0.125
 43
3.75
 44
0.375
 45
0.0
 46
0.0
 47
0.0
 48
0.0
 49
2.5
140
0.25
141
0.0
142
0.0
143
0.03937007874
144
100.0
145
0.0
146
0.5
147
0.1
148
0.0
 69
0
 70
0
 71
0
 72
0
 73
0
 74
0
 75
0
 76
0
 77
1
 78
12
 79
3
170
0
171
3
172
0
173
0
174
0
175
0
176
0
177
0
178
0
179
2
271
2
272
2
273
2
274
3
275
0
276
0
277
2
278
46
279
1
280
0
281
0
282
0
283
0
284
8
285
0
286
0
288
1
289
3
290
0
340
4C
342
84
371
-2
372
-2
  0
DIMSTYLE
105
88
330
4
100
AcDbSymbolTableRecord
100
AcDbDimStyleTableRecord
  2
EZ_RADIUS_INSIDE
 70
0
 40
1.0
 41
0.25
 42
0.125
 43
3.75
 44
0.375
 45
0.0
 46
0.0
 47
0.0
 48
0.0
 49
2.5
140
0.25
141
0.0
142
0.0
143
0.03937007874
144
100.0
145
0.0
146
0.5
147
0.1
148
0.0
 69
0
 70
0
 71
0
 72
0
 73
0
 74
0
 75
0
 76
0
 77
0
 78
12
 79
3
170
0
171
3
172
0
173
0
174
1
175
0
176
0
177
0
178
0
179
2
271
2
272
2
273
2
274
3
275
0
276
0
277
2
278
46
279
0
280
0
281
0
282
0
283
0
284
8
285
0
286
0
288
1
289
0
290
0
340
4C
342
84
371
-2
372
-2
  0
DIMSTYLE
105
89
330
4
100
AcDbSymbolTableRecord
100
AcDbDimStyleTableRecord
  2
EZ_CURVED
 70
0
 40
1.0
 41
0.25
 42
0.125
 43
3.75
 44
0.375
 45
0.0
 46
0.0
 47
0.0
 48
0.0
 49
2.5
140
0.25
141
2.5
142
0.0
143
0.03937007874
144
100.0
145
0.0
146
0.5
147
0.1
148
0.0
 69
0
 70
0
 71
0
 72
0
 73
0
 74
0
 75
0
 76
0
 77
1
 78
12
 79
2
 90
2
170
0
171
3
172
1
173
0
174
0
175
0
176
0
177
0
178
0
179
2
271
2
272
2
273
2
274
3
275
0
276
0
277
2
278
46
279
2
280
0
281
0
282
0
283
0
284
8
285
0
286
0
288
1
289
3
290
0
340
4C
371
-2
372
-2
  0
ENDTAB
  0
TABLE
  2
BLOCK_RECORD
  5
9
330
0
100
AcDbSymbolTable
 70
5
  0
BLOCK_RECORD
  5
17
330
9
100
AcDbSymbolTableRecord
100
AcDbBlockTableRecord
  2
*Model_Space
340
1A
 70
0
280
1
281
0
  0
BLOCK_RECORD
  5
1B
330
9
100
AcDbSymbolTableRecord
100
AcDbBlockTableRecord
  2
*Paper_Space
340
1E
 70
0
280
1
281
0
  0
BLOCK_RECORD
  5
74
330
9
100
AcDbSymbolTableRecord
100
AcDbBlockTableRecord
  2
_ARCHTICK
340
0
 70
0
280
1
281
0
  0
BLOCK_RECORD
  5
78
330
9
100
AcDbSymbolTableRecord
100
AcDbBlockTableRecord
  2
_CLOSEDFILLED
340
0
 70
0
280
1
281
0
  0
BLOCK_RECORD
  5
84
330
9
100
AcDbSymbolTableRecord
100
AcDbBlockTableRecord
  2
_CLOSEDBLANK
340
0
 70
0
280
1
281
0
  0
ENDTAB
  0
ENDSEC
  0
SECTION
  2
BLOCKS
  0
BLOCK
  5
18
330
17
100
AcDbEntity
  8
0
100
AcDbBlockBegin
  2
*Model_Space
 70
0
 10
0.0
 20
0.0
 30
0.0
  3
*Model_Space
  1

  0
ENDBLK
  5
19
330
17
100
AcDbEntity
  8
0
100
AcDbBlockEnd
  0
BLOCK
  5
1C
330
1B
100
AcDbEntity
  8
0
100
AcDbBlockBegin
  2
*Paper_Space
 70
0
 10
0.0
 20
0.0
 30
0.0
  3
*Paper_Space
  1

  0
ENDBLK
  5
1D
330
1B
100
AcDbEntity
  8
0
100
AcDbBlockEnd
  0
BLOCK
  5
75
330
74
100
AcDbEntity
  8
0
100
AcDbBlockBegin
  2
_ARCHTICK
 70
0
 10
0.0
 20
0.0
 30
0.0
  3
_ARCHTICK
  1

  0
LWPOLYLINE
  5
77
330
74
100
AcDbEntity
  8
0
  6
BYBLOCK
 62
0
100
AcDbPolyline
 90
2
 70
0
 43
0.15
 10
-0.5
 20
-0.5
 10
0.5
 20
0.5
  0
ENDBLK
  5
76
330
74
100
AcDbEntity
  8
0
100
AcDbBlockEnd
  0
BLOCK
  5
79
330
78
100
AcDbEntity
  8
0
100
AcDbBlockBegin
  2
_CLOSEDFILLED
 70
0
 10
0.0
 20
0.0
 30
0.0
  3
_CLOSEDFILLED
  1

  0
SOLID
  5
7B
330
78
100
AcDbEntity
  8
0
  6
BYBLOCK
 62
0
100
AcDbTrace
 10
-1.0
 20
0.16439898372402537
 30
0.0
 11
0.0
 21
0.0
 31
0.0
 12
-1.0
 22
-0.16439898372402537
 32
0.0
 13
-1.0
 23
-0.16439898372402537
 33
0.0
  0
ENDBLK
  5
7A
330
78
100
AcDbEntity
  8
0
100
AcDbBlockEnd
  0
BLOCK
  5
85
330
84
100
AcDbEntity
  8
0
100
AcDbBlockBegin
  2
_CLOSEDBLANK
 70
0
 10
0.0
 20
0.0
 30
0.0
  3
_CLOSEDBLANK
  1

  0
LWPOLYLINE
  5
87
330
84
100
AcDbEntity
  8
0
  6
BYBLOCK
 62
0
100
AcDbPolyline
 90
3
 70
1
 10
-1.0
 20
0.16439898372402537
 10
0.0
 20
0.0
 10
-1.0
 20
-0.16439898372402537
  0
ENDBLK
  5
86
330
84
100
AcDbEntity
  8
0
100
AcDbBlockEnd
  0
ENDSEC
  0
SECTION
  2
ENTITIES
  0
LWPOLYLINE
  5
8E
330
17
100
AcDbEntity
  8
REFERENCE-SHEET
100
AcDbPolyline
 90
4
 70
1
 10
0.0
 20
0.0
 10
2440.0
 20
0.0
 10
2440.0
 20
1220.0
 10
0.0
 20
1220.0
  0
TEXT
  5
8F
330
17
100
AcDbEntity
  8
REFERENCE-SHEET
100
AcDbText
 10
0.0
 20
1275.0
 30
0.0
 40
40.0
  1
18 mm BOARD - SHEET 1/1 - 2440 x 1220  (kerf side = BACK face, show face down)
 11
0.0
 21
1275.0
 31
0.0
100
AcDbText
  0
LWPOLYLINE
  5
90
330
17
100
AcDbEntity
  8
CUT
100
AcDbPolyline
 90
4
 70
1
 10
804.6808360041198
 20
18.0
 10
1141.829765720171
 20
339.2951901154468
 42
0.4283865023507377
 10
18.0
 20
339.2951901154468
 10
355.14892971605127
 20
18.0
 42
-0.4283865023507377
  0
LWPOLYLINE
  5
91
330
17
100
AcDbEntity
  8
POCKET-KERF-15.5
100
AcDbPolyline
 90
4
 70
1
 10
798.7552393683883
 20
24.775222594544175
 10
802.9774674123664
 20
20.512267006616355
 10
1133.1613111613253
 20
347.54159114344
 10
1128.939083117347
 20
351.80454673136774
  0
LWPOLYLINE
  5
92
330
17
100
AcDbEntity
  8
POCKET-KERF-15.5
100
AcDbPolyline
 90
4
 70
1
 10
1015.9137662850346
 20
248.30357275950024
 10
1020.1768778795533
 20
244.08150223277045
 10
1127.8959364208156
 20
352.8476548847919
 10
1123.6328248262969
 20
357.0697254115217
  0
LWPOLYLINE
  5
93
330
17
100
AcDbEntity
  8
POCKET-KERF-15.5
100
AcDbPolyline
 90
4
 70
1
 10
790.077149819616
 20
33.044466053081194
 10
794.4605217624239
 20
28.947387775698203
 10
1111.7964699945887
 20
368.45798477941054
 10
1107.4130980517807
 20
372.5550630567935
  0
LWPOLYLINE
  5
94
330
17
100
AcDbEntity
  8
POCKET-KERF-15.5
100
AcDbPolyline
 90
4
 70
1
 10
998.4603237980707
 20
264.77534863617615
 10
1002.8829733472853
 20
260.7207005670053
 10
1106.3305282761044
 20
373.5571969455606
 10
1101.9078787268895
 20
377.61184501473133
  0
LWPOLYLINE
  5
95
330
17
100
AcDbEntity
  8
POCKET-KERF-15.5
100
AcDbPolyline
 90
4
 70
1
 10
781.0868371457137
 20
40.97314208496326
 10
785.6248409235717
 20
37.048027855778656
 10
1089.6414502018954
 20
388.5355109915734
 10
1085.1034464240372
 20
392.460625220758
  0
LWPOLYLINE
  5
96
330
17
100
AcDbEntity
  8
POCKET-KERF-15.5
100
AcDbPolyline
 90
4
 70
1
 10
980.3850781326906
 20
280.56229100363174
 10
984.9606952208766
 20
276.68108909413246
 10
1083.9830618660967
 20
393.4202960458601
 10
1079.4074447779108
 20
397.3014979553595
  0
LWPOLYLINE
  5
97
330
17
100
AcDbEntity
  8
POCKET-KERF-15.5
100
AcDbPolyline
 90
4
 70
1
 10
771.7976576144814
 20
48.54947162040481
 10
776.4835514380953
 20
44.802152702322594
 10
1066.7291659196258
 20
407.74434202792753
 10
1062.0432720960118
 20
411.49166094600986
  0
LWPOLYLINE
  5
98
330
17
100
AcDbEntity
  8
POCKET-KERF-15.5
100
AcDbPolyline
 90
4
 70
1
 10
961.7148823951673
 20
295.6409463249715
 10
966.4366693536119
 20
291.93895660063896
 10
1060.8867372314198
 20
412.4074429927913
 10
1056.1649502729754
 20
416.1094327171237
  0
LWPOLYLINE
  5
99
330
17
100
AcDbEntity
  8
POCKET-KERF-15.5
100
AcDbPolyline
 90
4
 70
1
 10
762.223411498942
 20
55.762199045737454
 10
767.0502338693007
 20
52.1982425638195
 10
1043.0936562981285
 20
426.05594069507936
 10
1038.2668339277698
 20
429.61989717699737
  0
LWPOLYLINE
  5
9A
330
17
100
AcDbEntity
  8
POCKET-KERF-15.5
100
AcDbPolyline
 90
4
 70
1
 10
942.4774735667593
 20
309.9889133149631
 10
947.3384155725748
 20
306.47163555850176
 10
1037.0758669380768
 20
430.49042993323707
 10
1032.2149249322613
 20
434.0077076896983
  0
LWPOLYLINE
  5
9B
330
17
100
AcDbEntity
  8
POCKET-KERF-15.5
100
AcDbPolyline
 90
4
 70
1
 10
752.3783225752575
 20
62.60060892507427
 10
757.3389026258361
 20
59.225309595858974
 10
1018.7700349321734
 20
443.44310275392024
 10
1013.8094548815949
 20
446.81840208313554
  0
LWPOLYLINE
  5
9C
330
17
100
AcDbEntity
  8
POCKET-KERF-15.5
100
AcDbPolyline
 90
4
 70
1
 10
922.7014312968523
 20
323.58487622003355
 10
927.6943067943997
 20
320.257535800721
 10
1012.5858251017102
 20
447.64239226026365
 10
1007.5929496041628
 20
450.9697326795762
  0
LWPOLYLINE
  5
9D
330
17
100
AcDbEntity
  8
POCKET-KERF-15.5
100
AcDbPolyline
 90
4
 70
1
 10
742.2770169914771
 20
69.0545419194705
 10
747.3639851414835
 20
65.87291418498901
 10
993.7944376951851
 20
459.87999733502863
 10
988.7074695451788
 20
463.0616250695101
  0
LWPOLYLINE
  5
9E
330
17
100
AcDbEntity
  8
POCKET-KERF-15.5
100
AcDbPolyline
 90
4
 70
1
 10
902.4161354442076
 20
336.40863648556723
 10
907.5335268736471
 20
333.27617659629476
 10
987.4529948347943
 20
463.83784852395456
 10
982.3356034053548
 20
466.97030841322703
  0
LWPOLYLINE
  5
9F
330
17
100
AcDbEntity
  8
POCKET-KERF-15.5
100
AcDbPolyline
 90
4
 70
1
 10
731.9345015385102
 20
75.11440987993038
 10
737.1403004413461
 20
72.13118045810714
 10
968.203969054745
 20
475.3422053137548
 10
962.9981701519092
 20
478.32543473557814
  0
LWPOLYLINE
  5
A0
330
17
100
AcDbEntity
  8
POCKET-KERF-15.5
100
AcDbPolyline
 90
4
 70
1
 10
881.6517224293965
 20
348.4411427634604
 10
886.8860272464286
 20
345.5082170769837
 10
961.7147141948349
 20
479.0527382873881
 10
956.4804093778027
 20
481.98566397386475
  0
LWPOLYLINE
  5
A1
330
17
100
AcDbEntity
  8
POCKET-KERF-15.5
100
AcDbPolyline
 90
4
 70
1
 10
721.3661413556043
 20
80.77121009183793
 10
726.6830371262784
 20
77.9908109543419
 10
942.0366469491257
 20
489.806755587977
 10
936.7197511784517
 20
492.58715472547306
  0
LWPOLYLINE
  5
A2
330
17
100
AcDbEntity
  8
POCKET-KERF-15.5
100
AcDbPolyline
 90
4
 70
1
 10
860.4390404632645
 20
359.6645192153549
 10
865.7824824336893
 20
356.9354849706629
 10
935.4092207138741
 20
493.2644578715152
 10
930.0657787434493
 20
495.9934921162072
  0
LWPOLYLINE
  5
A3
330
17
100
AcDbEntity
  8
POCKET-KERF-15.5
100
AcDbPolyline
 90
4
 70
1
 10
710.5876371034515
 20
86.01653864964943
 10
716.0077308082609
 20
83.44310043762938
 10
915.3313463067446
 20
503.2521592046325
 10
909.9112526019352
 20
505.82559741665267
  0
LWPOLYLINE
  5
A4
330
17
100
AcDbEntity
  8
POCKET-KERF-15.5
100
AcDbPolyline
 90
4
 70
1
 10
838.80960371794
 20
370.06209206949796
 10
844.2542444702551
 20
367.541003598573
 10
908.5755945917098
 20
506.4518939358391
 10
903.1309538393947
 20
508.97298240676406
  0
LWPOLYLINE
  5
A5
330
17
100
AcDbEntity
  8
POCKET-KERF-15.5
100
AcDbPolyline
 90
4
 70
1
 10
699.6150016388341
 20
90.84260294197762
 10
705.130241030249
 20
88.47994882946242
 10
888.1277412924492
 20
515.6584412843265
 10
882.6125019010343
 20
518.0210953968417
  0
LWPOLYLINE
  5
A6
330
17
100
AcDbEntity
  8
POCKET-KERF-15.5
100
AcDbPolyline
 90
4
 70
1
 10
816.7955455084714
 20
379.6184143917787
 10
822.3332963273449
 20
377.3090170963646
 10
881.253700637223
 20
518.5954548450006
 10
875.7159498183495
 20
520.9048521404147
  0
LWPOLYLINE
  5
A7
330
17
100
AcDbEntity
  8
POCKET-KERF-15.5
100
AcDbPolyline
 90
4
 70
1
 10
688.464536225462
 20
95.24223322852039
 10
694.0667277047763
 20
93.09387324260139
 10
860.4662463664339
 20
527.0071706965895
 10
854.8640548871196
 20
529.1555306825086
  0
LWPOLYLINE
  5
A8
330
17
100
AcDbEntity
  8
POCKET-KERF-15.5
100
AcDbPolyline
 90
4
 70
1
 10
794.4295705546464
 20
388.3192890341392
 10
800.0522043977463
 20
386.22501382146396
 10
853.4841290440695
 20
529.6770997746781
 10
847.8614952009693
 20
531.7713749873534
  0
LWPOLYLINE
  5
A9
330
17
100
AcDbEntity
  8
POCKET-KERF-15.5
100
AcDbPolyline
 90
4
 70
1
 10
677.1528063163469
 20
99.20889329163327
 10
682.8336271063249
 20
97.27801909786677
 10
832.3879562433516
 20
537.2814874416952
 10
826.7071354533736
 20
539.2123616354615
  0
LWPOLYLINE
  5
AA
330
17
100
AcDbEntity
  8
POCKET-KERF-15.5
100
AcDbPolyline
 90
4
 70
1
 10
771.7449063939183
 20
396.15178972626717
 10
777.444070114244
 20
394.27574791198793
 10
825.3081350887157
 20
539.680365513556
 10
819.6089713683901
 20
541.5564073278352
  0
LWPOLYLINE
  5
AB
330
17
100
AcDbEntity
  8
POCKET-KERF-15.5
100
AcDbPolyline
 90
4
 70
1
 10
665.6966169436852
 20
102.73669014672329
 10
671.4476274531196
 20
101.02617030750038
 10
803.9345848408213
 20
546.4661276983632
 10
798.1835743313868
 20
548.176647537586
  0
LWPOLYLINE
  5
AC
330
17
100
AcDbEntity
  8
POCKET-KERF-15.5
100
AcDbPolyline
 90
4
 70
1
 10
748.7752540176178
 20
403.1042802792354
 10
754.5424807731754
 20
401.4492589651789
 10
796.7675778404122
 20
548.5903909215465
 10
791.0003510848546
 20
550.245412235603
  0
LWPOLYLINE
  5
AD
330
17
100
AcDbEntity
  8
POCKET-KERF-15.5
100
AcDbPolyline
 90
4
 70
1
 10
654.1129877528197
 20
105.82038279703647
 10
659.9256441146315
 20
104.33275850996381
 10
775.1484033080284
 20
554.5474465001324
 10
769.3357469462165
 20
556.035070787205
  0
LWPOLYLINE
  5
AE
330
17
100
AcDbEntity
  8
POCKET-KERF-15.5
100
AcDbPolyline
 90
4
 70
1
 10
725.5547378037877
 20
409.16643187256017
 10
731.3814596361752
 20
407.73488980612336
 10
767.9048579741508
 20
556.393939007927
 10
762.0781361417633
 20
557.8254810743638
  0
LWPOLYLINE
  5
AF
330
17
100
AcDbEntity
  8
POCKET-KERF-15.5
100
AcDbPolyline
 90
4
 70
1
 10
642.419127717362
 20
108.45539001983418
 10
648.2847944816161
 20
107.19287134245754
 10
746.0721772264865
 20
561.5134380067157
 10
740.2065104622324
 20
562.7759566840923
  0
LWPOLYLINE
  5
B0
330
17
100
AcDbEntity
  8
POCKET-KERF-15.5
100
AcDbPolyline
 90
4
 70
1
 10
702.117854821023
 20
414.3292383989946
 10
707.9954153842366
 20
413.12330232035896
 10
738.7628547790009
 20
563.0794165965972
 10
732.8852942157872
 20
564.2853526752328
  0
LWPOLYLINE
  5
B1
330
17
100
AcDbEntity
  8
POCKET-KERF-15.5
100
AcDbPolyline
 90
4
 70
1
 10
630.6324095730462
 20
110.6377971723894
 10
636.5423725360246
 20
109.60225973886843
 10
716.7491030762558
 20
567.3537533402231
 10
710.8391401132774
 20
568.3892907737442
  0
LWPOLYLINE
  5
B2
330
17
100
AcDbEntity
  8
POCKET-KERF-15.5
100
AcDbPolyline
 90
4
 70
1
 10
678.499423578631
 20
418.58502984426156
 10
684.419090999182
 20
417.6064913268461
 10
709.3848624553998
 20
568.6368915492338
 10
703.4651950348488
 20
569.6154300666493
  0
LWPOLYLINE
  5
B3
330
17
100
AcDbEntity
  8
POCKET-KERF-15.5
100
AcDbPolyline
 90
4
 70
1
 10
618.7703440082906
 20
112.36436200769309
 10
624.7158231585651
 20
111.55734424230512
 10
687.2227440620069
 20
572.0597159597539
 10
681.2772649117323
 20
572.8667337251418
  0
LWPOLYLINE
  5
B4
330
17
100
AcDbEntity
  8
POCKET-KERF-15.5
100
AcDbPolyline
 90
4
 70
1
 10
654.7345322992498
 20
421.9274836818476
 10
660.687512148488
 20
421.1777964706959
 10
679.814525796041
 20
573.0581075207626
 10
673.861545946803
 20
573.8077947319143
  0
LWPOLYLINE
  5
B5
330
17
100
AcDbEntity
  8
POCKET-KERF-15.5
100
AcDbPolyline
 90
4
 70
1
 10
606.8505536498145
 20
113.63251949122952
 10
612.8227162120845
 20
113.05522032284222
 10
657.5369653942676
 20
575.624334551514
 10
651.5648028319976
 20
576.2016337199013
  0
LWPOLYLINE
  5
B6
330
17
100
AcDbEntity
  8
POCKET-KERF-15.5
100
AcDbPolyline
 90
4
 70
1
 10
630.8584867907723
 20
424.3516342659314
 10
636.8359351501423
 20
423.8319121179862
 10
650.0957753459094
 20
576.3364962252235
 10
644.1183269865394
 20
576.8562183731688
  0
LWPOLYLINE
  5
B7
330
17
100
AcDbEntity
  8
POCKET-KERF-15.5
100
AcDbPolyline
 90
4
 70
1
 10
594.8907468819558
 20
114.44038561166606
 10
600.8807204392745
 20
114.09366269257403
 10
627.7358691220003
 20
578.0423134153164
 10
621.7458955646816
 20
578.3890363344083
  0
LWPOLYLINE
  5
B8
330
17
100
AcDbEntity
  8
POCKET-KERF-15.5
100
AcDbPolyline
 90
4
 70
1
 10
606.90675799502
 20
425.85388020848944
 10
612.8997945948423
 20
425.5648952379633
 10
620.2727621377987
 20
578.4671871938041
 10
614.2797255379763
 20
578.7561721643302
  0
LWPOLYLINE
  5
B9
330
17
100
AcDbEntity
  8
POCKET-KERF-15.5
100
AcDbPolyline
 90
4
 70
1
 10
582.9086915385841
 20
114.78676017979436
 10
588.9075772134764
 20
114.67112861156616
 10
597.8637286133271
 20
579.3100603320229
 10
591.8648429384348
 20
579.4256919002512
  0
LWPOLYLINE
  5
BA
330
17
100
AcDbEntity
  8
POCKET-KERF-15.5
100
AcDbPolyline
 90
4
 70
1
 10
582.9149292910888
 20
426.4319897296231
 10
588.9146507033444
 20
426.37417126092276
 10
590.3897921002629
 20
579.4470150105501
 10
584.3900706880074
 20
579.5048334792505
  0
LWPOLYLINE
  5
BB
330
17
100
AcDbEntity
  8
POCKET-KERF-15.5
100
AcDbPolyline
 90
4
 70
1
 10
570.9221885066946
 20
114.67112861156616
 10
576.921074181587
 20
114.78676017979436
 10
567.9649227817364
 20
579.4256919002512
 10
561.9660371068439
 20
579.3100603320229
  0
LWPOLYLINE
  5
BC
330
17
100
AcDbEntity
  8
POCKET-KERF-15.5
100
AcDbPolyline
 90
4
 70
1
 10
558.9186436316548
 20
426.0851039731545
 10
564.9161364971742
 20
426.2585379030648
 10
560.4912602354507
 20
579.2745240149974
 10
554.4937673699313
 20
579.1010900850871
  0
LWPOLYLINE
  5
BD
330
17
100
AcDbEntity
  8
POCKET-KERF-15.5
100
AcDbPolyline
 90
4
 70
1
 10
558.9490452808966
 20
114.09366269257403
 10
564.9390188382152
 20
114.44038561166606
 10
538.0838701554895
 20
578.3890363344083
 10
532.0938965981709
 20
578.0423134153164
  0
LWPOLYLINE
  5
BE
330
17
100
AcDbEntity
  8
POCKET-KERF-15.5
100
AcDbPolyline
 90
4
 70
1
 10
534.9535505907755
 20
424.8137382825677
 10
540.9399048611829
 20
425.2181669526403
 10
530.6215846646106
 20
577.9499704647436
 10
524.6352303942033
 20
577.5455417946711
  0
LWPOLYLINE
  5
BF
330
17
100
AcDbEntity
  8
POCKET-KERF-15.5
100
AcDbPolyline
 90
4
 70
1
 10
547.0070495080867
 20
113.05522032284222
 10
552.9792120703567
 20
113.63251949122952
 10
508.2649628881736
 20
576.2016337199013
 10
502.2928003259036
 20
575.624334551514
  0
LWPOLYLINE
  5
C0
330
17
100
AcDbEntity
  8
POCKET-KERF-15.5
100
AcDbPolyline
 90
4
 70
1
 10
511.0552534018548
 20
422.61978143540074
 10
517.0215755765921
 20
423.2546040147391
 10
500.82514063924805
 20
575.4753221547448
 10
494.8588184645107
 20
574.8404995754065
  0
LWPOLYLINE
  5
C1
330
17
100
AcDbEntity
  8
POCKET-KERF-15.5
100
AcDbPolyline
 90
4
 70
1
 10
535.113942561606
 20
111.55734424230512
 10
541.0594217118805
 20
112.36436200769309
 10
478.5525008084387
 20
572.8667337251418
 10
472.60702165816423
 20
572.0597159597539
  0
LWPOLYLINE
  5
C2
330
17
100
AcDbEntity
  8
POCKET-KERF-15.5
100
AcDbPolyline
 90
4
 70
1
 10
487.2592560644527
 20
419.50649283722197
 10
493.1966824032213
 20
420.37076621509306
 10
471.1461946159731
 20
571.8542554939022
 10
465.2087682772045
 20
570.9899821160311
  0
LWPOLYLINE
  5
C3
330
17
100
AcDbEntity
  8
POCKET-KERF-15.5
100
AcDbPolyline
 90
4
 70
1
 10
523.2873931841465
 20
109.60225973886843
 10
529.197356147125
 20
110.6377971723894
 10
448.99062560689384
 20
568.3892907737442
 10
443.08066264391545
 20
567.3537533402231
  0
LWPOLYLINE
  5
C4
330
17
100
AcDbEntity
  8
POCKET-KERF-15.5
100
AcDbPolyline
 90
4
 70
1
 10
463.60091059851896
 20
415.4784976793639
 10
469.5006202895074
 20
416.5709378663111
 10
441.62883849297475
 20
567.0921500432835
 10
435.7291288019863
 20
565.9997098563363
  0
LWPOLYLINE
  5
C5
330
17
100
AcDbEntity
  8
POCKET-KERF-15.5
100
AcDbPolyline
 90
4
 70
1
 10
511.544971238555
 20
107.19287134245754
 10
517.410638002809
 20
108.45539001983418
 10
419.6232552579388
 20
562.7759566840923
 10
413.7575884936847
 20
561.5134380067157
  0
LWPOLYLINE
  5
C6
330
17
100
AcDbEntity
  8
POCKET-KERF-15.5
100
AcDbPolyline
 90
4
 70
1
 10
440.1153645244129
 20
410.5417800676053
 10
445.96859278874945
 20
411.86076410297943
 10
412.31692410582514
 20
561.1960805240905
 10
406.4636958414886
 20
559.8770964887163
  0
LWPOLYLINE
  5
C7
330
17
100
AcDbEntity
  8
POCKET-KERF-15.5
100
AcDbPolyline
 90
4
 70
1
 10
499.90412160553973
 20
104.33275850996381
 10
505.71677796735156
 20
105.82038279703647
 10
390.4940187739545
 20
556.035070787205
 10
384.6813624121427
 20
554.5474465001324
  0
LWPOLYLINE
  5
C8
330
17
100
AcDbEntity
  8
POCKET-KERF-15.5
100
AcDbPolyline
 90
4
 70
1
 10
416.8375086467342
 20
404.70367413201114
 10
422.6355597596951
 20
406.2472424950881
 10
383.2539980799296
 20
554.1748063072511
 10
377.4559469669686
 20
552.6312379441741
  0
LWPOLYLINE
  5
C9
330
17
100
AcDbEntity
  8
POCKET-KERF-15.5
100
AcDbPolyline
 90
4
 70
1
 10
488.38213826705163
 20
101.02617030750038
 10
494.133148776486
 20
102.73669014672329
 10
361.6461913887842
 20
548.176647537586
 10
355.89518087934977
 20
546.4661276983632
  0
LWPOLYLINE
  5
CA
330
17
100
AcDbEntity
  8
POCKET-KERF-15.5
100
AcDbPolyline
 90
4
 70
1
 10
393.80192521953626
 20
397.97285313113736
 10
399.53618542916536
 20
399.7387126522386
 10
354.483237136402
 20
546.0387584002433
 10
348.74897692677285
 20
544.2728988791421
  0
LWPOLYLINE
  5
CB
330
17
100
AcDbEntity
  8
POCKET-KERF-15.5
100
AcDbPolyline
 90
4
 70
1
 10
476.9961386138463
 20
97.27801909786683
 10
482.67695940382436
 20
99.20889329163333
 10
333.1226302667976
 20
539.2123616354615
 10
327.44180947681957
 20
537.2814874416952
  0
LWPOLYLINE
  5
CC
330
17
100
AcDbEntity
  8
POCKET-KERF-15.5
100
AcDbPolyline
 90
4
 70
1
 10
371.04283656993266
 20
390.35931656678787
 10
376.7047868938795
 20
392.34484383407954
 10
326.0473839474838
 20
536.8000239504921
 10
320.385433623537
 20
534.8144966832004
  0
LWPOLYLINE
  5
CD
330
17
100
AcDbEntity
  8
POCKET-KERF-15.5
100
AcDbPolyline
 90
4
 70
1
 10
465.7630380153947
 20
93.09387324260139
 10
471.36522949470907
 20
95.24223322852039
 10
304.9657108330518
 20
529.1555306825086
 10
299.36351935373744
 20
527.0071706965895
  0
LWPOLYLINE
  5
CE
330
17
100
AcDbEntity
  8
POCKET-KERF-15.5
100
AcDbPolyline
 90
4
 70
1
 10
348.59405425642103
 20
381.87437532846644
 10
354.17528313798675
 20
384.076620585375
 10
297.98868363679685
 20
526.4723282883516
 10
292.40745475523113
 20
524.270083031443
  0
LWPOLYLINE
  5
CF
330
17
100
AcDbEntity
  8
POCKET-KERF-15.5
100
AcDbPolyline
 90
4
 70
1
 10
454.6995246899222
 20
88.47994882946247
 10
460.2147640813371
 20
90.84260294197767
 10
277.217263819137
 20
518.0210953968419
 10
271.7020244277221
 20
515.6584412843267
  0
LWPOLYLINE
  5
D0
330
17
100
AcDbEntity
  8
POCKET-KERF-15.5
100
AcDbPolyline
 90
4
 70
1
 10
326.4889288374564
 20
372.5306348895927
 10
331.98114464204525
 20
374.9463264170491
 10
270.34882101876985
 20
515.0710145363614
 10
264.85660521418106
 20
512.655323008905
  0
LWPOLYLINE
  5
D1
330
17
100
AcDbEntity
  8
POCKET-KERF-15.5
100
AcDbPolyline
 90
4
 70
1
 10
443.8220349119101
 20
83.44310043762944
 10
449.2421286167196
 20
86.01653864964949
 10
249.91851311823615
 20
505.8255974166528
 10
244.4984194134267
 20
503.2521592046326
  0
LWPOLYLINE
  5
D2
330
17
100
AcDbEntity
  8
POCKET-KERF-15.5
100
AcDbPolyline
 90
4
 70
1
 10
304.7603003248999
 20
362.34197658044735
 10
310.1553436583103
 20
364.967525557447
 10
243.16885867047512
 20
502.6130208150588
 10
237.77381533706472
 20
499.98747183805915
  0
LWPOLYLINE
  5
D3
330
17
100
AcDbEntity
  8
POCKET-KERF-15.5
100
AcDbPolyline
 90
4
 70
1
 10
433.14672859389265
 20
77.9908109543419
 10
438.46362436456667
 20
80.77121009183793
 10
223.11001454171924
 20
492.58715472547306
 10
217.79311877104521
 20
489.806755587977
  0
LWPOLYLINE
  5
D4
330
17
100
AcDbEntity
  8
POCKET-KERF-15.5
100
AcDbPolyline
 90
4
 70
1
 10
283.4404493959497
 20
351.32353696566787
 10
288.73030522620604
 20
354.1550428009263
 10
216.48917592788055
 20
489.11685507921976
 10
211.19932009762422
 20
486.2853492439613
  0
LWPOLYLINE
  5
D5
330
17
100
AcDbEntity
  8
POCKET-KERF-15.5
100
AcDbPolyline
 90
4
 70
1
 10
422.68946527882485
 20
72.13118045810714
 10
427.8952641816608
 20
75.11440987993038
 10
196.83159556826186
 20
478.32543473557814
 10
191.62579666542595
 20
475.3422053137548
  0
LWPOLYLINE
  5
D6
330
17
100
AcDbEntity
  8
POCKET-KERF-15.5
100
AcDbPolyline
 90
4
 70
1
 10
262.5610494360363
 20
339.491685356931
 10
267.73785900075126
 20
342.5249414837154
 10
190.3494088971429
 20
474.6025676219075
 10
185.17259933242792
 20
471.5693114951231
  0
LWPOLYLINE
  5
D7
330
17
100
AcDbEntity
  8
POCKET-KERF-15.5
100
AcDbPolyline
 90
4
 70
1
 10
412.4657805786877
 20
65.87291418498907
 10
417.55274872869404
 20
69.05454191947055
 10
171.12229617499253
 20
463.0616250695102
 10
166.0353280249862
 20
459.87999733502875
  0
LWPOLYLINE
  5
D8
330
17
100
AcDbEntity
  8
POCKET-KERF-15.5
100
AcDbPolyline
 90
4
 70
1
 10
242.15311948392736
 20
326.8639994942317
 10
247.20919196550614
 20
330.0944996197575
 10
164.78839157006567
 20
459.0917212871781
 10
159.7323190884869
 20
455.8612211616522
  0
LWPOLYLINE
  5
D9
330
17
100
AcDbEntity
  8
POCKET-KERF-15.5
100
AcDbPolyline
 90
4
 70
1
 10
402.49086309433505
 20
59.22530959585903
 10
407.4514431449137
 20
62.600608925074326
 10
146.02031083857642
 20
446.81840208313565
 10
141.05973078799778
 20
443.44310275392036
  0
LWPOLYLINE
  5
DA
330
17
100
AcDbEntity
  8
POCKET-KERF-15.5
100
AcDbPolyline
 90
4
 70
1
 10
222.2469781489492
 20
313.45923943188535
 10
227.17480210028987
 20
316.88218423199436
 10
139.84409813120058
 20
442.6073594356981
 10
134.91627417985993
 20
439.18441463558906
  0
LWPOLYLINE
  5
DB
330
17
100
AcDbEntity
  8
POCKET-KERF-15.5
100
AcDbPolyline
 90
4
 70
1
 10
392.7795318508704
 20
52.19824256381947
 10
397.606354221229
 20
55.762199045737425
 10
121.56293179240132
 20
429.61989717699726
 10
116.73610942204269
 20
426.05594069507924
  0
LWPOLYLINE
  5
DC
330
17
100
AcDbEntity
  8
POCKET-KERF-15.5
100
AcDbPolyline
 90
4
 70
1
 10
202.87219856878642
 20
299.2973196680502
 10
207.6644530725024
 20
302.9076239172255
 10
115.55358654230432
 20
425.17397171086316
 10
110.76133203858834
 20
421.5636674616877
  0
LWPOLYLINE
  5
DD
330
17
100
AcDbEntity
  8
POCKET-KERF-15.5
100
AcDbPolyline
 90
4
 70
1
 10
383.3462142820756
 20
44.80215270232254
 10
388.03210810568953
 20
48.54947162040475
 10
97.78649362415909
 20
411.49166094600974
 10
93.10059980054517
 20
407.7443420279274
  0
LWPOLYLINE
  5
DE
330
17
100
AcDbEntity
  8
POCKET-KERF-15.5
100
AcDbPolyline
 90
4
 70
1
 10
184.0575644747754
 20
284.39927955917415
 10
188.70713001936156
 20
288.1915796852977
 10
91.95294348796114
 20
406.81745765627704
 10
87.30337794337498
 20
403.0251575301535
  0
LWPOLYLINE
  5
DF
330
17
100
AcDbEntity
  8
POCKET-KERF-15.5
100
AcDbPolyline
 90
4
 70
1
 10
374.20492479659936
 20
37.048027855778656
 10
378.7429285744573
 20
40.97314208496326
 10
74.72631929613374
 20
392.460625220758
 10
70.18831551827577
 20
388.5355109915734
  0
LWPOLYLINE
  5
E0
330
17
100
AcDbEntity
  8
POCKET-KERF-15.5
100
AcDbPolyline
 90
4
 70
1
 10
165.83102742996294
 20
268.7872520633208
 10
170.3309964867472
 20
272.75591411595065
 10
69.07723076416362
 20
387.5650882386438
 10
64.57726170737935
 20
383.59642618601384
  0
LWPOLYLINE
  5
E1
330
17
100
AcDbEntity
  8
POCKET-KERF-15.5
100
AcDbPolyline
 90
4
 70
1
 10
365.3692439577472
 20
28.94738777569826
 10
369.7526159005552
 20
33.04446605308125
 10
52.41666766839043
 20
372.5550630567937
 10
48.033295725582406
 20
368.45798477941076
  0
LWPOLYLINE
  5
E2
330
17
100
AcDbEntity
  8
POCKET-KERF-15.5
100
AcDbPolyline
 90
4
 70
1
 10
148.2196653034582
 20
252.48443085880746
 10
152.5633525886252
 20
256.6235588791372
 10
46.96043318949727
 20
367.44546533323137
 10
42.616745904330394
 20
363.30633731290163
  0
LWPOLYLINE
  5
E3
330
17
100
AcDbEntity
  8
POCKET-KERF-15.5
100
AcDbPolyline
 90
4
 70
1
 10
356.85229830780463
 20
20.51226700661635
 10
361.07452635178277
 20
24.77522259454417
 10
30.890682602823944
 20
351.80454673136774
 10
26.668454558845923
 20
347.54159114344
  0
LWPOLYLINE
  5
E4
330
17
100
AcDbEntity
  8
POCKET-KERF-15.5
100
AcDbPolyline
 90
4
 70
1
 10
131.24964204277006
 20
235.51503588700933
 10
135.4305944492117
 20
239.81848066707443
 10
25.63540811631535
 20
346.4884792321034
 10
21.45445570987383
 20
342.1850344520383
  0
TEXT
  5
E5
330
17
100
AcDbEntity
  8
ENGRAVE-LABEL
100
AcDbText
 10
417.10254075263174
 20
392.61881203487866
 30
0.0
 40
9.0
  1
01
 50
105.0
 72
1
 11
417.10254075263174
 21
392.61881203487866
 31
0.0
100
AcDbText
 73
2
  0
LWPOLYLINE
  5
E6
330
17
100
AcDbEntity
  8
CUT
100
AcDbPolyline
 90
4
 70
1
 10
804.6808360041198
 20
566.0
 10
1141.829765720171
 20
887.2951901154468
 42
0.4283865023507377
 10
18.0
 20
887.2951901154468
 10
355.14892971605127
 20
566.0
 42
-0.4283865023507377
  0
LWPOLYLINE
  5
E7
330
17
100
AcDbEntity
  8
POCKET-KERF-15.5
100
AcDbPolyline
 90
4
 70
1
 10
798.7552393683883
 20
572.7752225945442
 10
802.9774674123664
 20
568.5122670066164
 10
1133.1613111613253
 20
895.5415911434399
 10
1128.939083117347
 20
899.8045467313676
  0
LWPOLYLINE
  5
E8
330
17
100
AcDbEntity
  8
POCKET-KERF-15.5
100
AcDbPolyline
 90
4
 70
1
 10
1015.9137662850346
 20
796.3035727595002
 10
1020.1768778795533
 20
792.0815022327704
 10
1127.8959364208156
 20
900.8476548847918
 10
1123.6328248262969
 20
905.0697254115216
  0
LWPOLYLINE
  5
E9
330
17
100
AcDbEntity
  8
POCKET-KERF-15.5
100
AcDbPolyline
 90
4
 70
1
 10
790.077149819616
 20
581.0444660530811
 10
794.4605217624239
 20
576.9473877756982
 10
1111.7964699945887
 20
916.4579847794105
 10
1107.4130980517807
 20
920.5550630567934
  0
LWPOLYLINE
  5
EA
330
17
100
AcDbEntity
  8
POCKET-KERF-15.5
100
AcDbPolyline
 90
4
 70
1
 10
998.4603237980707
 20
812.7753486361762
 10
1002.8829733472853
 20
808.7207005670052
 10
1106.3305282761044
 20
921.5571969455607
 10
1101.9078787268895
 20
925.6118450147314
  0
LWPOLYLINE
  5
EB
330
17
100
AcDbEntity
  8
POCKET-KERF-15.5
100
AcDbPolyline
 90
4
 70
1
 10
781.0868371457137
 20
588.9731420849632
 10
785.6248409235717
 20
585.0480278557786
 10
1089.6414502018954
 20
936.5355109915735
 10
1085.1034464240372
 20
940.4606252207581
  0
LWPOLYLINE
  5
EC
330
17
100
AcDbEntity
  8
POCKET-KERF-15.5
100
AcDbPolyline
 90
4
 70
1
 10
980.3850781326906
 20
828.5622910036318
 10
984.9606952208766
 20
824.6810890941324
 10
1083.9830618660967
 20
941.4202960458601
 10
1079.4074447779108
 20
945.3014979553595
  0
LWPOLYLINE
  5
ED
330
17
100
AcDbEntity
  8
POCKET-KERF-15.5
100
AcDbPolyline
 90
4
 70
1
 10
771.7976576144814
 20
596.5494716204048
 10
776.4835514380953
 20
592.8021527023226
 10
1066.7291659196258
 20
955.7443420279275
 10
1062.0432720960118
 20
959.4916609460098
  0
LWPOLYLINE
  5
EE
330
17
100
AcDbEntity
  8
POCKET-KERF-15.5
100
AcDbPolyline
 90
4
 70
1
 10
961.7148823951673
 20
843.6409463249715
 10
966.4366693536119
 20
839.9389566006389
 10
1060.8867372314198
 20
960.4074429927913
 10
1056.1649502729754
 20
964.1094327171237
  0
LWPOLYLINE
  5
EF
330
17
100
AcDbEntity
  8
POCKET-KERF-15.5
100
AcDbPolyline
 90
4
 70
1
 10
762.223411498942
 20
603.7621990457375
 10
767.0502338693007
 20
600.1982425638195
 10
1043.0936562981285
 20
974.0559406950794
 10
1038.2668339277698
 20
977.6198971769974
  0
LWPOLYLINE
  5
F0
330
17
100
AcDbEntity
  8
POCKET-KERF-15.5
100
AcDbPolyline
 90
4
 70
1
 10
942.4774735667593
 20
857.9889133149632
 10
947.3384155725748
 20
854.4716355585017
 10
1037.0758669380768
 20
978.490429933237
 10
1032.2149249322613
 20
982.0077076896982
  0
LWPOLYLINE
  5
F1
330
17
100
AcDbEntity
  8
POCKET-KERF-15.5
100
AcDbPolyline
 90
4
 70
1
 10
752.3783225752575
 20
610.6006089250743
 10
757.3389026258361
 20
607.225309595859
 10
1018.7700349321734
 20
991.4431027539202
 10
1013.8094548815949
 20
994.8184020831355
  0
LWPOLYLINE
  5
F2
330
17
100
AcDbEntity
  8
POCKET-KERF-15.5
100
AcDbPolyline
 90
4
 70
1
 10
922.7014312968523
 20
871.5848762200335
 10
927.6943067943997
 20
868.2575358007209
 10
1012.5858251017102
 20
995.6423922602636
 10
1007.5929496041628
 20
998.9697326795762
  0
LWPOLYLINE
  5
F3
330
17
100
AcDbEntity
  8
POCKET-KERF-15.5
100
AcDbPolyline
 90
4
 70
1
 10
742.2770169914771
 20
617.0545419194705
 10
747.3639851414835
 20
613.872914184989
 10
993.7944376951851
 20
1007.8799973350285
 10
988.7074695451788
 20
1011.06162506951
  0
LWPOLYLINE
  5
F4
330
17
100
AcDbEntity
  8
POCKET-KERF-15.5
100
AcDbPolyline
 90
4
 70
1
 10
902.4161354442076
 20
884.4086364855673
 10
907.5335268736471
 20
881.2761765962948
 10
987.4529948347943
 20
1011.8378485239544
 10
982.3356034053548
 20
1014.9703084132269
  0
LWPOLYLINE
  5
F5
330
17
100
AcDbEntity
  8
POCKET-KERF-15.5
100
AcDbPolyline
 90
4
 70
1
 10
731.9345015385102
 20
623.1144098799303
 10
737.1403004413461
 20
620.1311804581071
 10
968.203969054745
 20
1023.3422053137548
 10
962.9981701519092
 20
1026.325434735578
  0
LWPOLYLINE
  5
F6
330
17
100
AcDbEntity
  8
POCKET-KERF-15.5
100
AcDbPolyline
 90
4
 70
1
 10
881.6517224293965
 20
896.4411427634604
 10
886.8860272464286
 20
893.5082170769838
 10
961.7147141948349
 20
1027.052738287388
 10
956.4804093778027
 20
1029.9856639738646
  0
LWPOLYLINE
  5
F7
330
17
100
AcDbEntity
  8
POCKET-KERF-15.5
100
AcDbPolyline
 90
4
 70
1
 10
721.3661413556043
 20
628.7712100918379
 10
726.6830371262784
 20
625.9908109543419
 10
942.0366469491257
 20
1037.806755587977
 10
936.7197511784517
 20
1040.587154725473
  0
LWPOLYLINE
  5
F8
330
17
100
AcDbEntity
  8
POCKET-KERF-15.5
100
AcDbPolyline
 90
4
 70
1
 10
860.4390404632645
 20
907.6645192153549
 10
865.7824824336893
 20
904.9354849706629
 10
935.4092207138741
 20
1041.2644578715153
 10
930.0657787434493
 20
1043.9934921162073
  0
LWPOLYLINE
  5
F9
330
17
100
AcDbEntity
  8
POCKET-KERF-15.5
100
AcDbPolyline
 90
4
 70
1
 10
710.5876371034515
 20
634.0165386496494
 10
716.0077308082609
 20
631.4431004376294
 10
915.3313463067446
 20
1051.2521592046326
 10
909.9112526019352
 20
1053.8255974166527
  0
LWPOLYLINE
  5
FA
330
17
100
AcDbEntity
  8
POCKET-KERF-15.5
100
AcDbPolyline
 90
4
 70
1
 10
838.80960371794
 20
918.062092069498
 10
844.2542444702551
 20
915.5410035985731
 10
908.5755945917098
 20
1054.451893935839
 10
903.1309538393947
 20
1056.972982406764
  0
LWPOLYLINE
  5
FB
330
17
100
AcDbEntity
  8
POCKET-KERF-15.5
100
AcDbPolyline
 90
4
 70
1
 10
699.6150016388341
 20
638.8426029419776
 10
705.130241030249
 20
636.4799488294624
 10
888.1277412924492
 20
1063.6584412843265
 10
882.6125019010343
 20
1066.0210953968417
  0
LWPOLYLINE
  5
FC
330
17
100
AcDbEntity
  8
POCKET-KERF-15.5
100
AcDbPolyline
 90
4
 70
1
 10
816.7955455084714
 20
927.6184143917787
 10
822.3332963273449
 20
925.3090170963646
 10
881.253700637223
 20
1066.5954548450006
 10
875.7159498183495
 20
1068.9048521404147
  0
LWPOLYLINE
  5
FD
330
17
100
AcDbEntity
  8
POCKET-KERF-15.5
100
AcDbPolyline
 90
4
 70
1
 10
688.464536225462
 20
643.2422332285204
 10
694.0667277047763
 20
641.0938732426014
 10
860.4662463664339
 20
1075.0071706965894
 10
854.8640548871196
 20
1077.1555306825085
  0
LWPOLYLINE
  5
FE
330
17
100
AcDbEntity
  8
POCKET-KERF-15.5
100
AcDbPolyline
 90
4
 70
1
 10
794.4295705546464
 20
936.3192890341393
 10
800.0522043977463
 20
934.225013821464
 10
853.4841290440695
 20
1077.6770997746783
 10
847.8614952009693
 20
1079.7713749873535
  0
LWPOLYLINE
  5
FF
330
17
100
AcDbEntity
  8
POCKET-KERF-15.5
100
AcDbPolyline
 90
4
 70
1
 10
677.1528063163469
 20
647.2088932916333
 10
682.8336271063249
 20
645.2780190978667
 10
832.3879562433516
 20
1085.2814874416952
 10
826.7071354533736
 20
1087.2123616354615
  0
LWPOLYLINE
  5
100
330
17
100
AcDbEntity
  8
POCKET-KERF-15.5
100
AcDbPolyline
 90
4
 70
1
 10
771.7449063939183
 20
944.1517897262672
 10
777.444070114244
 20
942.275747911988
 10
825.3081350887157
 20
1087.680365513556
 10
819.6089713683901
 20
1089.5564073278351
  0
LWPOLYLINE
  5
101
330
17
100
AcDbEntity
  8
POCKET-KERF-15.5
100
AcDbPolyline
 90
4
 70
1
 10
665.6966169436852
 20
650.7366901467233
 10
671.4476274531196
 20
649.0261703075005
 10
803.9345848408213
 20
1094.4661276983632
 10
798.1835743313868
 20
1096.176647537586
  0
LWPOLYLINE
  5
102
330
17
100
AcDbEntity
  8
POCKET-KERF-15.5
100
AcDbPolyline
 90
4
 70
1
 10
748.7752540176178
 20
951.1042802792354
 10
754.5424807731754
 20
949.4492589651788
 10
796.7675778404122
 20
1096.5903909215465
 10
791.0003510848546
 20
1098.245412235603
  0
LWPOLYLINE
  5
103
330
17
100
AcDbEntity
  8
POCKET-KERF-15.5
100
AcDbPolyline
 90
4
 70
1
 10
654.1129877528197
 20
653.8203827970365
 10
659.9256441146315
 20
652.3327585099638
 10
775.1484033080284
 20
1102.5474465001325
 10
769.3357469462165
 20
1104.0350707872049
  0
LWPOLYLINE
  5
104
330
17
100
AcDbEntity
  8
POCKET-KERF-15.5
100
AcDbPolyline
 90
4
 70
1
 10
725.5547378037877
 20
957.1664318725602
 10
731.3814596361752
 20
955.7348898061234
 10
767.9048579741508
 20
1104.393939007927
 10
762.0781361417633
 20
1105.8254810743638
  0
LWPOLYLINE
  5
105
330
17
100
AcDbEntity
  8
POCKET-KERF-15.5
100
AcDbPolyline
 90
4
 70
1
 10
642.419127717362
 20
656.4553900198342
 10
648.2847944816161
 20
655.1928713424576
 10
746.0721772264865
 20
1109.5134380067157
 10
740.2065104622324
 20
1110.7759566840923
  0
LWPOLYLINE
  5
106
330
17
100
AcDbEntity
  8
POCKET-KERF-15.5
100
AcDbPolyline
 90
4
 70
1
 10
702.117854821023
 20
962.3292383989947
 10
707.9954153842366
 20
961.123302320359
 10
738.7628547790009
 20
1111.0794165965972
 10
732.8852942157872
 20
1112.2853526752328
  0
LWPOLYLINE
  5
107
330
17
100
AcDbEntity
  8
POCKET-KERF-15.5
100
AcDbPolyline
 90
4
 70
1
 10
630.6324095730462
 20
658.6377971723895
 10
636.5423725360246
 20
657.6022597388684
 10
716.7491030762558
 20
1115.3537533402232
 10
710.8391401132774
 20
1116.3892907737443
  0
LWPOLYLINE
  5
108
330
17
100
AcDbEntity
  8
POCKET-KERF-15.5
100
AcDbPolyline
 90
4
 70
1
 10
678.499423578631
 20
966.5850298442615
 10
684.419090999182
 20
965.606491326846
 10
709.3848624553998
 20
1116.6368915492337
 10
703.4651950348488
 20
1117.6154300666492
  0
LWPOLYLINE
  5
109
330
17
100
AcDbEntity
  8
POCKET-KERF-15.5
100
AcDbPolyline
 90
4
 70
1
 10
618.7703440082906
 20
660.3643620076931
 10
624.7158231585651
 20
659.5573442423051
 10
687.2227440620069
 20
1120.059715959754
 10
681.2772649117323
 20
1120.8667337251418
  0
LWPOLYLINE
  5
10A
330
17
100
AcDbEntity
  8
POCKET-KERF-15.5
100
AcDbPolyline
 90
4
 70
1
 10
654.7345322992498
 20
969.9274836818477
 10
660.687512148488
 20
969.177796470696
 10
679.814525796041
 20
1121.0581075207626
 10
673.861545946803
 20
1121.8077947319143
  0
LWPOLYLINE
  5
10B
330
17
100
AcDbEntity
  8
POCKET-KERF-15.5
100
AcDbPolyline
 90
4
 70
1
 10
606.8505536498145
 20
661.6325194912295
 10
612.8227162120845
 20
661.0552203228422
 10
657.5369653942676
 20
1123.624334551514
 10
651.5648028319976
 20
1124.2016337199013
  0
LWPOLYLINE
  5
10C
330
17
100
AcDbEntity
  8
POCKET-KERF-15.5
100
AcDbPolyline
 90
4
 70
1
 10
630.8584867907723
 20
972.3516342659314
 10
636.8359351501423
 20
971.8319121179861
 10
650.0957753459094
 20
1124.3364962252235
 10
644.1183269865394
 20
1124.8562183731688
  0
LWPOLYLINE
  5
10D
330
17
100
AcDbEntity
  8
POCKET-KERF-15.5
100
AcDbPolyline
 90
4
 70
1
 10
594.8907468819558
 20
662.4403856116661
 10
600.8807204392745
 20
662.0936626925741
 10
627.7358691220003
 20
1126.0423134153164
 10
621.7458955646816
 20
1126.3890363344083
  0
LWPOLYLINE
  5
10E
330
17
100
AcDbEntity
  8
POCKET-KERF-15.5
100
AcDbPolyline
 90
4
 70
1
 10
606.90675799502
 20
973.8538802084895
 10
612.8997945948423
 20
973.5648952379634
 10
620.2727621377987
 20
1126.4671871938042
 10
614.2797255379763
 20
1126.7561721643303
  0
LWPOLYLINE
  5
10F
330
17
100
AcDbEntity
  8
POCKET-KERF-15.5
100
AcDbPolyline
 90
4
 70
1
 10
582.9086915385841
 20
662.7867601797943
 10
588.9075772134764
 20
662.6711286115662
 10
597.8637286133271
 20
1127.3100603320229
 10
591.8648429384348
 20
1127.4256919002512
  0
LWPOLYLINE
  5
110
330
17
100
AcDbEntity
  8
POCKET-KERF-15.5
100
AcDbPolyline
 90
4
 70
1
 10
582.9149292910888
 20
974.4319897296232
 10
588.9146507033444
 20
974.3741712609228
 10
590.3897921002629
 20
1127.44701501055
 10
584.3900706880074
 20
1127.5048334792505
  0
LWPOLYLINE
  5
111
330
17
100
AcDbEntity
  8
POCKET-KERF-15.5
100
AcDbPolyline
 90
4
 70
1
 10
570.9221885066946
 20
662.6711286115662
 10
576.921074181587
 20
662.7867601797943
 10
567.9649227817364
 20
1127.4256919002512
 10
561.9660371068439
 20
1127.3100603320229
  0
LWPOLYLINE
  5
112
330
17
100
AcDbEntity
  8
POCKET-KERF-15.5
100
AcDbPolyline
 90
4
 70
1
 10
558.9186436316548
 20
974.0851039731544
 10
564.9161364971742
 20
974.2585379030647
 10
560.4912602354507
 20
1127.2745240149973
 10
554.4937673699313
 20
1127.101090085087
  0
LWPOLYLINE
  5
113
330
17
100
AcDbEntity
  8
POCKET-KERF-15.5
100
AcDbPolyline
 90
4
 70
1
 10
558.9490452808966
 20
662.0936626925741
 10
564.9390188382152
 20
662.4403856116661
 10
538.0838701554895
 20
1126.3890363344083
 10
532.0938965981709
 20
1126.0423134153164
  0
LWPOLYLINE
  5
114
330
17
100
AcDbEntity
  8
POCKET-KERF-15.5
100
AcDbPolyline
 90
4
 70
1
 10
534.9535505907755
 20
972.8137382825678
 10
540.9399048611829
 20
973.2181669526403
 10
530.6215846646106
 20
1125.9499704647437
 10
524.6352303942033
 20
1125.5455417946712
  0
LWPOLYLINE
  5
115
330
17
100
AcDbEntity
  8
POCKET-KERF-15.5
100
AcDbPolyline
 90
4
 70
1
 10
547.0070495080867
 20
661.0552203228422
 10
552.9792120703567
 20
661.6325194912295
 10
508.2649628881736
 20
1124.2016337199013
 10
502.2928003259036
 20
1123.624334551514
  0
LWPOLYLINE
  5
116
330
17
100
AcDbEntity
  8
POCKET-KERF-15.5
100
AcDbPolyline
 90
4
 70
1
 10
511.0552534018548
 20
970.6197814354007
 10
517.0215755765921
 20
971.254604014739
 10
500.82514063924805
 20
1123.4753221547448
 10
494.8588184645107
 20
1122.8404995754065
  0
LWPOLYLINE
  5
117
330
17
100
AcDbEntity
  8
POCKET-KERF-15.5
100
AcDbPolyline
 90
4
 70
1
 10
535.113942561606
 20
659.5573442423051
 10
541.0594217118805
 20
660.3643620076931
 10
478.5525008084387
 20
1120.8667337251418
 10
472.60702165816423
 20
1120.059715959754
  0
LWPOLYLINE
  5
118
330
17
100
AcDbEntity
  8
POCKET-KERF-15.5
100
AcDbPolyline
 90
4
 70
1
 10
487.2592560644527
 20
967.5064928372219
 10
493.1966824032213
 20
968.370766215093
 10
471.1461946159731
 20
1119.8542554939022
 10
465.2087682772045
 20
1118.9899821160311
  0
LWPOLYLINE
  5
119
330
17
100
AcDbEntity
  8
POCKET-KERF-15.5
100
AcDbPolyline
 90
4
 70
1
 10
523.2873931841465
 20
657.6022597388684
 10
529.197356147125
 20
658.6377971723895
 10
448.99062560689384
 20
1116.3892907737443
 10
443.08066264391545
 20
1115.3537533402232
  0
LWPOLYLINE
  5
11A
330
17
100
AcDbEntity
  8
POCKET-KERF-15.5
100
AcDbPolyline
 90
4
 70
1
 10
463.60091059851896
 20
963.478497679364
 10
469.5006202895074
 20
964.5709378663112
 10
441.62883849297475
 20
1115.0921500432835
 10
435.7291288019863
 20
1113.9997098563363
  0
LWPOLYLINE
  5
11B
330
17
100
AcDbEntity
  8
POCKET-KERF-15.5
100
AcDbPolyline
 90
4
 70
1
 10
511.544971238555
 20
655.1928713424576
 10
517.410638002809
 20
656.4553900198342
 10
419.6232552579388
 20
1110.7759566840923
 10
413.7575884936847
 20
1109.5134380067157
  0
LWPOLYLINE
  5
11C
330
17
100
AcDbEntity
  8
POCKET-KERF-15.5
100
AcDbPolyline
 90
4
 70
1
 10
440.1153645244129
 20
958.5417800676053
 10
445.96859278874945
 20
959.8607641029794
 10
412.31692410582514
 20
1109.1960805240903
 10
406.4636958414886
 20
1107.8770964887162
  0
LWPOLYLINE
  5
11D
330
17
100
AcDbEntity
  8
POCKET-KERF-15.5
100
AcDbPolyline
 90
4
 70
1
 10
499.90412160553973
 20
652.3327585099638
 10
505.71677796735156
 20
653.8203827970365
 10
390.4940187739545
 20
1104.035070787205
 10
384.6813624121427
 20
1102.5474465001325
  0
LWPOLYLINE
  5
11E
330
17
100
AcDbEntity
  8
POCKET-KERF-15.5
100
AcDbPolyline
 90
4
 70
1
 10
416.8375086467342
 20
952.7036741320112
 10
422.6355597596951
 20
954.2472424950881
 10
383.2539980799296
 20
1102.174806307251
 10
377.4559469669686
 20
1100.631237944174
  0
LWPOLYLINE
  5
11F
330
17
100
AcDbEntity
  8
POCKET-KERF-15.5
100
AcDbPolyline
 90
4
 70
1
 10
488.38213826705163
 20
649.0261703075005
 10
494.133148776486
 20
650.7366901467233
 10
361.6461913887842
 20
1096.176647537586
 10
355.89518087934977
 20
1094.4661276983632
  0
LWPOLYLINE
  5
120
330
17
100
AcDbEntity
  8
POCKET-KERF-15.5
100
AcDbPolyline
 90
4
 70
1
 10
393.80192521953626
 20
945.9728531311373
 10
399.53618542916536
 20
947.7387126522385
 10
354.483237136402
 20
1094.0387584002433
 10
348.74897692677285
 20
1092.272898879142
  0
LWPOLYLINE
  5
121
330
17
100
AcDbEntity
  8
POCKET-KERF-15.5
100
AcDbPolyline
 90
4
 70
1
 10
476.9961386138463
 20
645.2780190978668
 10
482.67695940382436
 20
647.2088932916333
 10
333.1226302667976
 20
1087.2123616354615
 10
327.44180947681957
 20
1085.2814874416952
  0
LWPOLYLINE
  5
122
330
17
100
AcDbEntity
  8
POCKET-KERF-15.5
100
AcDbPolyline
 90
4
 70
1
 10
371.04283656993266
 20
938.3593165667878
 10
376.7047868938795
 20
940.3448438340795
 10
326.0473839474838
 20
1084.800023950492
 10
320.385433623537
 20
1082.8144966832003
  0
LWPOLYLINE
  5
123
330
17
100
AcDbEntity
  8
POCKET-KERF-15.5
100
AcDbPolyline
 90
4
 70
1
 10
465.7630380153947
 20
641.0938732426014
 10
471.36522949470907
 20
643.2422332285204
 10
304.9657108330518
 20
1077.1555306825085
 10
299.36351935373744
 20
1075.0071706965894
  0
LWPOLYLINE
  5
124
330
17
100
AcDbEntity
  8
POCKET-KERF-15.5
100
AcDbPolyline
 90
4
 70
1
 10
348.59405425642103
 20
929.8743753284664
 10
354.17528313798675
 20
932.0766205853749
 10
297.98868363679685
 20
1074.4723282883517
 10
292.40745475523113
 20
1072.2700830314432
  0
LWPOLYLINE
  5
125
330
17
100
AcDbEntity
  8
POCKET-KERF-15.5
100
AcDbPolyline
 90
4
 70
1
 10
454.6995246899222
 20
636.4799488294625
 10
460.2147640813371
 20
638.8426029419777
 10
277.217263819137
 20
1066.021095396842
 10
271.7020244277221
 20
1063.6584412843267
  0
LWPOLYLINE
  5
126
330
17
100
AcDbEntity
  8
POCKET-KERF-15.5
100
AcDbPolyline
 90
4
 70
1
 10
326.4889288374564
 20
920.5306348895926
 10
331.98114464204525
 20
922.946326417049
 10
270.34882101876985
 20
1063.0710145363614
 10
264.85660521418106
 20
1060.655323008905
  0
LWPOLYLINE
  5
127
330
17
100
AcDbEntity
  8
POCKET-KERF-15.5
100
AcDbPolyline
 90
4
 70
1
 10
443.8220349119101
 20
631.4431004376295
 10
449.2421286167196
 20
634.0165386496494
 10
249.91851311823615
 20
1053.8255974166527
 10
244.4984194134267
 20
1051.2521592046326
  0
LWPOLYLINE
  5
128
330
17
100
AcDbEntity
  8
POCKET-KERF-15.5
100
AcDbPolyline
 90
4
 70
1
 10
304.7603003248999
 20
910.3419765804474
 10
310.1553436583103
 20
912.9675255574471
 10
243.16885867047512
 20
1050.6130208150587
 10
237.77381533706472
 20
1047.987471838059
  0
LWPOLYLINE
  5
129
330
17
100
AcDbEntity
  8
POCKET-KERF-15.5
100
AcDbPolyline
 90
4
 70
1
 10
433.14672859389265
 20
625.9908109543419
 10
438.46362436456667
 20
628.7712100918379
 10
223.11001454171924
 20
1040.587154725473
 10
217.79311877104521
 20
1037.806755587977
  0
LWPOLYLINE
  5
12A
330
17
100
AcDbEntity
  8
POCKET-KERF-15.5
100
AcDbPolyline
 90
4
 70
1
 10
283.4404493959497
 20
899.3235369656679
 10
288.73030522620604
 20
902.1550428009264
 10
216.48917592788055
 20
1037.1168550792197
 10
211.19932009762422
 20
1034.2853492439613
  0
LWPOLYLINE
  5
12B
330
17
100
AcDbEntity
  8
POCKET-KERF-15.5
100
AcDbPolyline
 90
4
 70
1
 10
422.68946527882485
 20
620.1311804581071
 10
427.8952641816608
 20
623.1144098799303
 10
196.83159556826186
 20
1026.325434735578
 10
191.62579666542595
 20
1023.3422053137548
  0
LWPOLYLINE
  5
12C
330
17
100
AcDbEntity
  8
POCKET-KERF-15.5
100
AcDbPolyline
 90
4
 70
1
 10
262.5610494360363
 20
887.4916853569309
 10
267.73785900075126
 20
890.5249414837153
 10
190.3494088971429
 20
1022.6025676219074
 10
185.17259933242792
 20
1019.569311495123
  0
LWPOLYLINE
  5
12D
330
17
100
AcDbEntity
  8
POCKET-KERF-15.5
100
AcDbPolyline
 90
4
 70
1
 10
412.4657805786877
 20
613.8729141849891
 10
417.55274872869404
 20
617.0545419194706
 10
171.12229617499253
 20
1011.0616250695102
 10
166.0353280249862
 20
1007.8799973350287
  0
LWPOLYLINE
  5
12E
330
17
100
AcDbEntity
  8
POCKET-KERF-15.5
100
AcDbPolyline
 90
4
 70
1
 10
242.15311948392736
 20
874.8639994942316
 10
247.20919196550614
 20
878.0944996197575
 10
164.78839157006567
 20
1007.091721287178
 10
159.7323190884869
 20
1003.8612211616521
  0
LWPOLYLINE
  5
12F
330
17
100
AcDbEntity
  8
POCKET-KERF-15.5
100
AcDbPolyline
 90
4
 70
1
 10
402.49086309433505
 20
607.2253095958591
 10
407.4514431449137
 20
610.6006089250744
 10
146.02031083857642
 20
994.8184020831355
 10
141.05973078799778
 20
991.4431027539202
  0
LWPOLYLINE
  5
130
330
17
100
AcDbEntity
  8
POCKET-KERF-15.5
100
AcDbPolyline
 90
4
 70
1
 10
222.2469781489492
 20
861.4592394318854
 10
227.17480210028987
 20
864.8821842319944
 10
139.84409813120058
 20
990.6073594356981
 10
134.91627417985993
 20
987.1844146355891
  0
LWPOLYLINE
  5
131
330
17
100
AcDbEntity
  8
POCKET-KERF-15.5
100
AcDbPolyline
 90
4
 70
1
 10
392.7795318508704
 20
600.1982425638195
 10
397.606354221229
 20
603.7621990457374
 10
121.56293179240132
 20
977.6198971769974
 10
116.73610942204269
 20
974.0559406950794
  0
LWPOLYLINE
  5
132
330
17
100
AcDbEntity
  8
POCKET-KERF-15.5
100
AcDbPolyline
 90
4
 70
1
 10
202.87219856878642
 20
847.2973196680502
 10
207.6644530725024
 20
850.9076239172255
 10
115.55358654230432
 20
973.1739717108632
 10
110.76133203858834
 20
969.5636674616877
  0
LWPOLYLINE
  5
133
330
17
100
AcDbEntity
  8
POCKET-KERF-15.5
100
AcDbPolyline
 90
4
 70
1
 10
383.3462142820756
 20
592.8021527023226
 10
388.03210810568953
 20
596.5494716204047
 10
97.78649362415909
 20
959.4916609460098
 10
93.10059980054517
 20
955.7443420279275
  0
LWPOLYLINE
  5
134
330
17
100
AcDbEntity
  8
POCKET-KERF-15.5
100
AcDbPolyline
 90
4
 70
1
 10
184.0575644747754
 20
832.3992795591741
 10
188.70713001936156
 20
836.1915796852977
 10
91.95294348796114
 20
954.817457656277
 10
87.30337794337498
 20
951.0251575301535
  0
LWPOLYLINE
  5
135
330
17
100
AcDbEntity
  8
POCKET-KERF-15.5
100
AcDbPolyline
 90
4
 70
1
 10
374.20492479659936
 20
585.0480278557786
 10
378.7429285744573
 20
588.9731420849632
 10
74.72631929613374
 20
940.4606252207581
 10
70.18831551827577
 20
936.5355109915735
  0
LWPOLYLINE
  5
136
330
17
100
AcDbEntity
  8
POCKET-KERF-15.5
100
AcDbPolyline
 90
4
 70
1
 10
165.83102742996294
 20
816.7872520633208
 10
170.3309964867472
 20
820.7559141159506
 10
69.07723076416362
 20
935.5650882386437
 10
64.57726170737935
 20
931.5964261860138
  0
LWPOLYLINE
  5
137
330
17
100
AcDbEntity
  8
POCKET-KERF-15.5
100
AcDbPolyline
 90
4
 70
1
 10
365.3692439577472
 20
576.9473877756982
 10
369.7526159005552
 20
581.0444660530812
 10
52.41666766839043
 20
920.5550630567936
 10
48.033295725582406
 20
916.4579847794107
  0
LWPOLYLINE
  5
138
330
17
100
AcDbEntity
  8
POCKET-KERF-15.5
100
AcDbPolyline
 90
4
 70
1
 10
148.2196653034582
 20
800.4844308588074
 10
152.5633525886252
 20
804.6235588791371
 10
46.96043318949727
 20
915.4454653332313
 10
42.616745904330394
 20
911.3063373129015
  0
LWPOLYLINE
  5
139
330
17
100
AcDbEntity
  8
POCKET-KERF-15.5
100
AcDbPolyline
 90
4
 70
1
 10
356.8522983078047
 20
568.5122670066164
 10
361.0745263517828
 20
572.7752225945442
 10
30.890682602823944
 20
899.8045467313676
 10
26.668454558845923
 20
895.5415911434399
  0
LWPOLYLINE
  5
13A
330
17
100
AcDbEntity
  8
POCKET-KERF-15.5
100
AcDbPolyline
 90
4
 70
1
 10
131.24964204277006
 20
783.5150358870094
 10
135.4305944492117
 20
787.8184806670745
 10
25.63540811631535
 20
894.4884792321034
 10
21.45445570987383
 20
890.1850344520383
  0
TEXT
  5
13B
330
17
100
AcDbEntity
  8
ENGRAVE-LABEL
100
AcDbText
 10
417.1025407526317
 20
940.6188120348786
 30
0.0
 40
9.0
  1
01
 50
105.0
 72
1
 11
417.1025407526317
 21
940.6188120348786
 31
0.0
100
AcDbText
 73
2
  0
LWPOLYLINE
  5
13C
330
17
100
AcDbEntity
  8
CUT
100
AcDbPolyline
 90
2
 70
1
 10
1302.1419807289758
 20
606.0709903644879
 42
1.0
 10
950.0
 20
606.0709903644879
 42
1.0
  0
LWPOLYLINE
  5
13D
330
17
100
AcDbEntity
  8
CUT
100
AcDbPolyline
 90
8
 70
1
 10
1013.1700067694936
 20
599.770990364488
 42
2.414213562373095
 10
1016.3700067694937
 20
596.5709903644879
 10
1050.9700067694937
 20
596.5709903644879
 42
2.414213562373095
 10
1054.1700067694937
 20
599.770990364488
 10
1054.1700067694937
 20
612.370990364488
 42
2.414213562373095
 10
1050.9700067694937
 20
615.5709903644879
 10
1016.3700067694937
 20
615.5709903644879
 42
2.414213562373095
 10
1013.1700067694936
 20
612.370990364488
  0
LWPOLYLINE
  5
13E
330
17
100
AcDbEntity
  8
CUT
100
AcDbPolyline
 90
8
 70
1
 10
1197.9719739594823
 20
599.770990364488
 42
2.414213562373095
 10
1201.1719739594823
 20
596.5709903644879
 10
1235.7719739594822
 20
596.5709903644879
 42
2.414213562373095
 10
1238.9719739594823
 20
599.770990364488
 10
1238.9719739594823
 20
612.370990364488
 42
2.414213562373095
 10
1235.7719739594822
 20
615.5709903644879
 10
1201.1719739594823
 20
615.5709903644879
 42
2.414213562373095
 10
1197.9719739594823
 20
612.370990364488
  0
LWPOLYLINE
  5
13F
330
17
100
AcDbEntity
  8
CUT
100
AcDbPolyline
 90
8
 70
1
 10
1132.3709903644879
 20
493.1700067694937
 42
2.414213562373095
 10
1135.570990364488
 20
496.37000676949367
 10
1135.570990364488
 20
530.9700067694937
 42
2.414213562373095
 10
1132.3709903644879
 20
534.1700067694936
 10
1119.770990364488
 20
534.1700067694936
 42
2.414213562373095
 10
1116.570990364488
 20
530.9700067694937
 10
1116.570990364488
 20
496.37000676949367
 42
2.414213562373095
 10
1119.770990364488
 20
493.1700067694937
  0
LWPOLYLINE
  5
140
330
17
100
AcDbEntity
  8
CUT
100
AcDbPolyline
 90
8
 70
1
 10
1132.370990364488
 20
677.9719739594823
 42
2.414213562373095
 10
1135.570990364488
 20
681.1719739594822
 10
1135.570990364488
 20
715.7719739594822
 42
2.414213562373095
 10
1132.370990364488
 20
718.9719739594823
 10
1119.770990364488
 20
718.9719739594823
 42
2.414213562373095
 10
1116.570990364488
 20
715.7719739594822
 10
1116.570990364488
 20
681.1719739594822
 42
2.414213562373095
 10
1119.770990364488
 20
677.9719739594823
  0
TEXT
  5
141
330
17
100
AcDbEntity
  8
ENGRAVE-LABEL
100
AcDbText
 10
1126.070990364488
 20
606.0709903644879
 30
0.0
 40
22.0
  1
02 FORMER-BASE 1/2
 50
30.0
 72
1
 11
1126.070990364488
 21
606.0709903644879
 31
0.0
100
AcDbText
 73
2
  0
LWPOLYLINE
  5
142
330
17
100
AcDbEntity
  8
CUT
100
AcDbPolyline
 90
2
 70
1
 10
1446.1419807289758
 20
194.07099036448795
 42
1.0
 10
1094.0
 20
194.07099036448795
 42
1.0
  0
LWPOLYLINE
  5
143
330
17
100
AcDbEntity
  8
CUT
100
AcDbPolyline
 90
8
 70
1
 10
1157.1700067694937
 20
187.77099036448794
 42
2.414213562373095
 10
1160.3700067694936
 20
184.57099036448795
 10
1194.9700067694937
 20
184.57099036448795
 42
2.414213562373095
 10
1198.1700067694937
 20
187.77099036448794
 10
1198.1700067694937
 20
200.37099036448797
 42
2.414213562373095
 10
1194.9700067694937
 20
203.57099036448795
 10
1160.3700067694936
 20
203.57099036448795
 42
2.414213562373095
 10
1157.1700067694937
 20
200.37099036448797
  0
LWPOLYLINE
  5
144
330
17
100
AcDbEntity
  8
CUT
100
AcDbPolyline
 90
8
 70
1
 10
1341.9719739594823
 20
187.77099036448794
 42
2.414213562373095
 10
1345.1719739594823
 20
184.57099036448795
 10
1379.7719739594822
 20
184.57099036448795
 42
2.414213562373095
 10
1382.9719739594823
 20
187.77099036448794
 10
1382.9719739594823
 20
200.37099036448797
 42
2.414213562373095
 10
1379.7719739594822
 20
203.57099036448795
 10
1345.1719739594823
 20
203.57099036448795
 42
2.414213562373095
 10
1341.9719739594823
 20
200.37099036448797
  0
LWPOLYLINE
  5
145
330
17
100
AcDbEntity
  8
CUT
100
AcDbPolyline
 90
8
 70
1
 10
1276.3709903644879
 20
81.17000676949367
 42
2.414213562373095
 10
1279.570990364488
 20
84.37000676949367
 10
1279.570990364488
 20
118.97000676949366
 42
2.414213562373095
 10
1276.3709903644879
 20
122.17000676949367
 10
1263.770990364488
 20
122.17000676949367
 42
2.414213562373095
 10
1260.570990364488
 20
118.97000676949366
 10
1260.570990364488
 20
84.37000676949367
 42
2.414213562373095
 10
1263.770990364488
 20
81.17000676949367
  0
LWPOLYLINE
  5
146
330
17
100
AcDbEntity
  8
CUT
100
AcDbPolyline
 90
8
 70
1
 10
1276.370990364488
 20
265.9719739594822
 42
2.414213562373095
 10
1279.570990364488
 20
269.1719739594822
 10
1279.570990364488
 20
303.77197395948224
 42
2.414213562373095
 10
1276.370990364488
 20
306.9719739594822
 10
1263.770990364488
 20
306.9719739594822
 42
2.414213562373095
 10
1260.570990364488
 20
303.77197395948224
 10
1260.570990364488
 20
269.1719739594822
 42
2.414213562373095
 10
1263.770990364488
 20
265.9719739594822
  0
TEXT
  5
147
330
17
100
AcDbEntity
  8
ENGRAVE-LABEL
100
AcDbText
 10
1270.070990364488
 20
194.07099036448798
 30
0.0
 40
22.0
  1
02 FORMER-BASE 2/2
 50
30.0
 72
1
 11
1270.070990364488
 21
194.07099036448798
 31
0.0
100
AcDbText
 73
2
  0
LWPOLYLINE
  5
148
330
17
100
AcDbEntity
  8
CUT
100
AcDbPolyline
 90
34
 70
1
 10
1345.1419807289758
 20
1181.0
 10
1285.1719739594823
 20
1181.0
 42
-2.414213562373095
 10
1281.9719739594823
 20
1184.2
 10
1281.9719739594823
 20
1199.0
 10
1241.9719739594823
 20
1199.0
 10
1241.9719739594823
 20
1184.2
 42
-2.414213562373095
 10
1238.7719739594822
 20
1181.0
 10
1100.3700067694936
 20
1181.0
 42
-2.414213562373095
 10
1097.1700067694937
 20
1184.2
 10
1097.1700067694937
 20
1199.0
 10
1057.1700067694937
 20
1199.0
 10
1057.1700067694937
 20
1184.2
 42
-2.414213562373095
 10
1053.9700067694937
 20
1181.0
 10
994.0
 20
1181.0
 10
1044.3999999999999
 20
992.0
 10
1081.6361035521977
 20
992.0
 42
-2.414213562373095
 10
1084.8361035521978
 20
988.8
 10
1084.8361035521978
 20
974.0
 10
1124.8361035521978
 20
974.0
 10
1124.8361035521978
 20
988.8
 42
-2.414213562373095
 10
1128.0361035521978
 20
992.0
 10
1160.070990364488
 20
992.0
 10
1160.070990364488
 20
1083.3
 42
-2.414213562373095
 10
1163.270990364488
 20
1086.5
 10
1175.8709903644879
 20
1086.5
 42
-2.414213562373095
 10
1179.070990364488
 20
1083.3
 10
1179.070990364488
 20
992.0
 10
1211.1058771767782
 20
992.0
 42
-2.414213562373095
 10
1214.3058771767783
 20
988.8
 10
1214.3058771767783
 20
974.0
 10
1254.3058771767783
 20
974.0
 10
1254.3058771767783
 20
988.8
 42
-2.414213562373095
 10
1257.505877176778
 20
992.0
 10
1294.741980728976
 20
992.0
  0
TEXT
  5
149
330
17
100
AcDbEntity
  8
ENGRAVE-LABEL
100
AcDbText
 10
1087.7161509707587
 20
1107.1300814732165
 30
0.0
 40
14.0
  1
06 CORE-1A 1/2
 50
45.0
 72
1
 11
1087.7161509707587
 21
1107.1300814732165
 31
0.0
100
AcDbText
 73
2
  0
LWPOLYLINE
  5
14A
330
17
100
AcDbEntity
  8
CUT
100
AcDbPolyline
 90
34
 70
1
 10
1549.1419807289758
 20
941.0
 10
1489.1719739594823
 20
941.0
 42
-2.414213562373095
 10
1485.9719739594823
 20
944.2
 10
1485.9719739594823
 20
959.0
 10
1445.9719739594823
 20
959.0
 10
1445.9719739594823
 20
944.2
 42
-2.414213562373095
 10
1442.7719739594822
 20
941.0
 10
1304.3700067694936
 20
941.0
 42
-2.414213562373095
 10
1301.1700067694937
 20
944.2
 10
1301.1700067694937
 20
959.0
 10
1261.1700067694937
 20
959.0
 10
1261.1700067694937
 20
944.2
 42
-2.414213562373095
 10
1257.9700067694937
 20
941.0
 10
1198.0
 20
941.0
 10
1248.3999999999999
 20
752.0
 10
1285.6361035521977
 20
752.0
 42
-2.414213562373095
 10
1288.8361035521978
 20
748.8
 10
1288.8361035521978
 20
734.0
 10
1328.8361035521978
 20
734.0
 10
1328.8361035521978
 20
748.8
 42
-2.414213562373095
 10
1332.0361035521978
 20
752.0
 10
1364.070990364488
 20
752.0
 10
1364.070990364488
 20
843.3
 42
-2.414213562373095
 10
1367.270990364488
 20
846.5
 10
1379.8709903644879
 20
846.5
 42
-2.414213562373095
 10
1383.070990364488
 20
843.3
 10
1383.070990364488
 20
752.0
 10
1415.1058771767782
 20
752.0
 42
-2.414213562373095
 10
1418.3058771767783
 20
748.8
 10
1418.3058771767783
 20
734.0
 10
1458.3058771767783
 20
734.0
 10
1458.3058771767783
 20
748.8
 42
-2.414213562373095
 10
1461.505877176778
 20
752.0
 10
1498.741980728976
 20
752.0
  0
TEXT
  5
14B
330
17
100
AcDbEntity
  8
ENGRAVE-LABEL
100
AcDbText
 10
1291.7161509707587
 20
867.1300814732164
 30
0.0
 40
14.0
  1
06 CORE-1A 2/2
 50
45.0
 72
1
 11
1291.7161509707587
 21
867.1300814732164
 31
0.0
100
AcDbText
 73
2
  0
LWPOLYLINE
  5
14C
330
17
100
AcDbEntity
  8
CUT
100
AcDbPolyline
 90
34
 70
1
 10
1270.0
 20
392.0
 10
1329.9700067694937
 20
392.0
 42
-2.414213562373095
 10
1333.1700067694937
 20
388.8
 10
1333.1700067694937
 20
374.0
 10
1373.1700067694937
 20
374.0
 10
1373.1700067694937
 20
388.8
 42
-2.414213562373095
 10
1376.3700067694936
 20
392.0
 10
1436.070990364488
 20
392.0
 10
1436.070990364488
 20
483.3
 42
-2.414213562373095
 10
1439.270990364488
 20
486.5
 10
1451.870990364488
 20
486.5
 42
-2.414213562373095
 10
1455.070990364488
 20
483.3
 10
1455.070990364488
 20
392.0
 10
1514.7719739594822
 20
392.0
 42
-2.414213562373095
 10
1517.9719739594823
 20
388.8
 10
1517.9719739594823
 20
374.0
 10
1557.9719739594823
 20
374.0
 10
1557.9719739594823
 20
388.8
 42
-2.414213562373095
 10
1561.1719739594823
 20
392.0
 10
1621.1419807289758
 20
392.0
 10
1570.741980728976
 20
581.0
 10
1533.505877176778
 20
581.0
 42
-2.414213562373095
 10
1530.3058771767783
 20
584.2
 10
1530.3058771767783
 20
599.0
 10
1490.3058771767783
 20
599.0
 10
1490.3058771767783
 20
584.2
 42
-2.414213562373095
 10
1487.1058771767782
 20
581.0
 10
1404.0361035521978
 20
581.0
 42
-2.414213562373095
 10
1400.8361035521978
 20
584.2
 10
1400.8361035521978
 20
599.0
 10
1360.8361035521978
 20
599.0
 10
1360.8361035521978
 20
584.2
 42
-2.414213562373095
 10
1357.6361035521977
 20
581.0
 10
1320.4
 20
581.0
  0
TEXT
  5
14D
330
17
100
AcDbEntity
  8
ENGRAVE-LABEL
100
AcDbText
 10
1363.7161509707587
 20
465.8699185267837
 30
0.0
 40
14.0
  1
07 CORE-1B 1/2
 50
30.0
 72
1
 11
1363.7161509707587
 21
465.8699185267837
 31
0.0
100
AcDbText
 73
2
  0
LWPOLYLINE
  5
14E
330
17
100
AcDbEntity
  8
CUT
100
AcDbPolyline
 90
34
 70
1
 10
1310.0
 20
976.0
 10
1369.9700067694937
 20
976.0
 42
-2.414213562373095
 10
1373.1700067694937
 20
972.8
 10
1373.1700067694937
 20
958.0
 10
1413.1700067694937
 20
958.0
 10
1413.1700067694937
 20
972.8
 42
-2.414213562373095
 10
1416.3700067694936
 20
976.0
 10
1476.070990364488
 20
976.0
 10
1476.070990364488
 20
1067.3
 42
-2.414213562373095
 10
1479.270990364488
 20
1070.5
 10
1491.870990364488
 20
1070.5
 42
-2.414213562373095
 10
1495.070990364488
 20
1067.3
 10
1495.070990364488
 20
976.0
 10
1554.7719739594822
 20
976.0
 42
-2.414213562373095
 10
1557.9719739594823
 20
972.8
 10
1557.9719739594823
 20
958.0
 10
1597.9719739594823
 20
958.0
 10
1597.9719739594823
 20
972.8
 42
-2.414213562373095
 10
1601.1719739594823
 20
976.0
 10
1661.1419807289758
 20
976.0
 10
1610.741980728976
 20
1165.0
 10
1573.505877176778
 20
1165.0
 42
-2.414213562373095
 10
1570.3058771767783
 20
1168.2
 10
1570.3058771767783
 20
1183.0
 10
1530.3058771767783
 20
1183.0
 10
1530.3058771767783
 20
1168.2
 42
-2.414213562373095
 10
1527.1058771767782
 20
1165.0
 10
1444.0361035521978
 20
1165.0
 42
-2.414213562373095
 10
1440.8361035521978
 20
1168.2
 10
1440.8361035521978
 20
1183.0
 10
1400.8361035521978
 20
1183.0
 10
1400.8361035521978
 20
1168.2
 42
-2.414213562373095
 10
1397.6361035521977
 20
1165.0
 10
1360.4
 20
1165.0
  0
TEXT
  5
14F
330
17
100
AcDbEntity
  8
ENGRAVE-LABEL
100
AcDbText
 10
1403.7161509707587
 20
1049.8699185267835
 30
0.0
 40
14.0
  1
07 CORE-1B 2/2
 50
30.0
 72
1
 11
1403.7161509707587
 21
1049.8699185267835
 31
0.0
100
AcDbText
 73
2
  0
LWPOLYLINE
  5
150
330
17
100
AcDbEntity
  8
CUT
100
AcDbPolyline
 90
2
 70
1
 10
1699.741980728976
 20
138.87099036448797
 42
1.0
 10
1458.0
 20
138.87099036448797
 42
1.0
  0
LWPOLYLINE
  5
151
330
17
100
AcDbEntity
  8
CUT
100
AcDbPolyline
 90
8
 70
1
 10
1493.6361035521977
 20
132.57099036448795
 42
2.414213562373095
 10
1496.8361035521978
 20
129.37099036448797
 10
1531.4361035521977
 20
129.37099036448797
 42
2.414213562373095
 10
1534.6361035521977
 20
132.57099036448795
 10
1534.6361035521977
 20
145.17099036448798
 42
2.414213562373095
 10
1531.4361035521977
 20
148.37099036448797
 10
1496.8361035521978
 20
148.37099036448797
 42
2.414213562373095
 10
1493.6361035521977
 20
145.17099036448798
  0
LWPOLYLINE
  5
152
330
17
100
AcDbEntity
  8
CUT
100
AcDbPolyline
 90
8
 70
1
 10
1623.1058771767782
 20
132.57099036448795
 42
2.414213562373095
 10
1626.3058771767783
 20
129.37099036448797
 10
1660.9058771767782
 20
129.37099036448797
 42
2.414213562373095
 10
1664.1058771767782
 20
132.57099036448795
 10
1664.1058771767782
 20
145.17099036448798
 42
2.414213562373095
 10
1660.9058771767782
 20
148.37099036448797
 10
1626.3058771767783
 20
148.37099036448797
 42
2.414213562373095
 10
1623.1058771767782
 20
145.17099036448798
  0
LWPOLYLINE
  5
153
330
17
100
AcDbEntity
  8
CUT
100
AcDbPolyline
 90
8
 70
1
 10
1585.170990364488
 20
53.63610355219774
 42
2.414213562373095
 10
1588.370990364488
 20
56.83610355219774
 10
1588.370990364488
 20
91.43610355219774
 42
2.414213562373095
 10
1585.170990364488
 20
94.63610355219774
 10
1572.570990364488
 20
94.63610355219774
 42
2.414213562373095
 10
1569.370990364488
 20
91.43610355219774
 10
1569.370990364488
 20
56.83610355219774
 42
2.414213562373095
 10
1572.570990364488
 20
53.63610355219774
  0
LWPOLYLINE
  5
154
330
17
100
AcDbEntity
  8
CUT
100
AcDbPolyline
 90
8
 70
1
 10
1585.170990364488
 20
183.1058771767782
 42
2.414213562373095
 10
1588.370990364488
 20
186.3058771767782
 10
1588.370990364488
 20
220.90587717677818
 42
2.414213562373095
 10
1585.170990364488
 20
224.1058771767782
 10
1572.570990364488
 20
224.1058771767782
 42
2.414213562373095
 10
1569.370990364488
 20
220.90587717677818
 10
1569.370990364488
 20
186.3058771767782
 42
2.414213562373095
 10
1572.570990364488
 20
183.1058771767782
  0
TEXT
  5
155
330
17
100
AcDbEntity
  8
ENGRAVE-LABEL
100
AcDbText
 10
1633.6532626615724
 20
84.0887180674038
 30
0.0
 40
18.0
  1
03 1/2
 50
15.0
 72
1
 11
1633.6532626615724
 21
84.0887180674038
 31
0.0
100
AcDbText
 73
2
  0
LWPOLYLINE
  5
156
330
17
100
AcDbEntity
  8
CUT
100
AcDbPolyline
 90
2
 70
1
 10
1747.741980728976
 20
706.870990364488
 42
1.0
 10
1506.0
 20
706.870990364488
 42
1.0
  0
LWPOLYLINE
  5
157
330
17
100
AcDbEntity
  8
CUT
100
AcDbPolyline
 90
8
 70
1
 10
1541.6361035521977
 20
700.570990364488
 42
2.414213562373095
 10
1544.8361035521978
 20
697.370990364488
 10
1579.4361035521977
 20
697.370990364488
 42
2.414213562373095
 10
1582.6361035521977
 20
700.570990364488
 10
1582.6361035521977
 20
713.1709903644879
 42
2.414213562373095
 10
1579.4361035521977
 20
716.370990364488
 10
1544.8361035521978
 20
716.370990364488
 42
2.414213562373095
 10
1541.6361035521977
 20
713.1709903644879
  0
LWPOLYLINE
  5
158
330
17
100
AcDbEntity
  8
CUT
100
AcDbPolyline
 90
8
 70
1
 10
1671.1058771767782
 20
700.570990364488
 42
2.414213562373095
 10
1674.3058771767783
 20
697.370990364488
 10
1708.9058771767782
 20
697.370990364488
 42
2.414213562373095
 10
1712.1058771767782
 20
700.570990364488
 10
1712.1058771767782
 20
713.1709903644879
 42
2.414213562373095
 10
1708.9058771767782
 20
716.370990364488
 10
1674.3058771767783
 20
716.370990364488
 42
2.414213562373095
 10
1671.1058771767782
 20
713.1709903644879
  0
LWPOLYLINE
  5
159
330
17
100
AcDbEntity
  8
CUT
100
AcDbPolyline
 90
8
 70
1
 10
1633.170990364488
 20
621.6361035521977
 42
2.414213562373095
 10
1636.370990364488
 20
624.8361035521978
 10
1636.370990364488
 20
659.4361035521978
 42
2.414213562373095
 10
1633.170990364488
 20
662.6361035521977
 10
1620.570990364488
 20
662.6361035521977
 42
2.414213562373095
 10
1617.370990364488
 20
659.4361035521978
 10
1617.370990364488
 20
624.8361035521978
 42
2.414213562373095
 10
1620.570990364488
 20
621.6361035521977
  0
LWPOLYLINE
  5
15A
330
17
100
AcDbEntity
  8
CUT
100
AcDbPolyline
 90
8
 70
1
 10
1633.170990364488
 20
751.1058771767782
 42
2.414213562373095
 10
1636.370990364488
 20
754.3058771767783
 10
1636.370990364488
 20
788.9058771767782
 42
2.414213562373095
 10
1633.170990364488
 20
792.1058771767782
 10
1620.570990364488
 20
792.1058771767782
 42
2.414213562373095
 10
1617.370990364488
 20
788.9058771767782
 10
1617.370990364488
 20
754.3058771767783
 42
2.414213562373095
 10
1620.570990364488
 20
751.1058771767782
  0
TEXT
  5
15B
330
17
100
AcDbEntity
  8
ENGRAVE-LABEL
100
AcDbText
 10
1681.6532626615724
 20
761.6532626615722
 30
0.0
 40
18.0
  1
03 2/2
 50
15.0
 72
1
 11
1681.6532626615724
 21
761.6532626615722
 31
0.0
100
AcDbText
 73
2
  0
LWPOLYLINE
  5
15C
330
17
100
AcDbEntity
  8
CUT
100
AcDbPolyline
 90
2
 70
1
 10
250.1419807289759
 20
594.0709903644879
 42
1.0
 10
18.0
 20
594.0709903644879
 42
1.0
  0
LWPOLYLINE
  5
15D
330
17
100
AcDbEntity
  8
CUT
100
AcDbPolyline
 90
8
 70
1
 10
79.95898904804083
 20
531.0494436050903
 42
2.414213562373095
 10
84.48447244763474
 20
531.0494436050903
 10
108.95036707668928
 20
555.5153382341449
 42
2.414213562373095
 10
108.95036707668929
 20
560.0408216337388
 10
100.04082163373879
 20
568.9503670766893
 42
2.414213562373095
 10
95.51533823414488
 20
568.9503670766893
 10
71.04944360509035
 20
544.4844724476347
 42
2.414213562373095
 10
71.04944360509033
 20
539.9589890480408
  0
LWPOLYLINE
  5
15E
330
17
100
AcDbEntity
  8
CUT
100
AcDbPolyline
 90
8
 70
1
 10
168.1011590952371
 20
619.1916136522866
 42
2.414213562373095
 10
172.62664249483103
 20
619.1916136522866
 10
197.09253712388556
 20
643.6575082813412
 42
2.414213562373095
 10
197.09253712388556
 20
648.1829916809351
 10
188.18299168093506
 20
657.0925371238856
 42
2.414213562373095
 10
183.65750828134117
 20
657.0925371238856
 10
159.19161365228663
 20
632.626642494831
 42
2.414213562373095
 10
159.19161365228663
 20
628.1011590952371
  0
LWPOLYLINE
  5
15F
330
17
100
AcDbEntity
  8
CUT
100
AcDbPolyline
 90
8
 70
1
 10
197.09253712388556
 20
539.9589890480408
 42
2.414213562373095
 10
197.09253712388556
 20
544.4844724476347
 10
172.626642494831
 20
568.9503670766893
 42
2.414213562373095
 10
168.1011590952371
 20
568.9503670766893
 10
159.1916136522866
 20
560.0408216337388
 42
2.414213562373095
 10
159.1916136522866
 20
555.5153382341449
 10
183.65750828134117
 20
531.0494436050903
 42
2.414213562373095
 10
188.18299168093506
 20
531.0494436050903
  0
LWPOLYLINE
  5
160
330
17
100
AcDbEntity
  8
CUT
100
AcDbPolyline
 90
8
 70
1
 10
108.95036707668929
 20
628.1011590952371
 42
2.414213562373095
 10
108.95036707668929
 20
632.626642494831
 10
84.48447244763474
 20
657.0925371238856
 42
2.414213562373095
 10
79.95898904804085
 20
657.0925371238856
 10
71.04944360509035
 20
648.1829916809351
 42
2.414213562373095
 10
71.04944360509035
 20
643.6575082813412
 10
95.51533823414489
 20
619.1916136522866
 42
2.414213562373095
 10
100.04082163373879
 20
619.1916136522866
  0
TEXT
  5
161
330
17
100
AcDbEntity
  8
ENGRAVE-LABEL
100
AcDbText
 10
134.50875930029702
 20
668.9294783878327
 30
0.0
 40
18.0
  1
04 1/2
 72
1
 11
134.50875930029702
 21
668.9294783878327
 31
0.0
100
AcDbText
 73
2
  0
LWPOLYLINE
  5
162
330
17
100
AcDbEntity
  8
CUT
100
AcDbPolyline
 90
2
 70
1
 10
1850.1419807289758
 20
478.07099036448795
 42
1.0
 10
1618.0
 20
478.07099036448795
 42
1.0
  0
LWPOLYLINE
  5
163
330
17
100
AcDbEntity
  8
CUT
100
AcDbPolyline
 90
8
 70
1
 10
1679.9589890480408
 20
415.04944360509035
 42
2.414213562373095
 10
1684.4844724476347
 20
415.04944360509035
 10
1708.9503670766892
 20
439.5153382341449
 42
2.414213562373095
 10
1708.9503670766892
 20
444.0408216337388
 10
1700.0408216337387
 20
452.9503670766893
 42
2.414213562373095
 10
1695.5153382341448
 20
452.9503670766893
 10
1671.0494436050903
 20
428.48447244763474
 42
2.414213562373095
 10
1671.0494436050903
 20
423.95898904804085
  0
LWPOLYLINE
  5
164
330
17
100
AcDbEntity
  8
CUT
100
AcDbPolyline
 90
8
 70
1
 10
1768.101159095237
 20
503.1916136522866
 42
2.414213562373095
 10
1772.626642494831
 20
503.1916136522866
 10
1797.0925371238854
 20
527.6575082813412
 42
2.414213562373095
 10
1797.0925371238854
 20
532.1829916809351
 10
1788.1829916809352
 20
541.0925371238856
 42
2.414213562373095
 10
1783.657508281341
 20
541.0925371238856
 10
1759.1916136522866
 20
516.626642494831
 42
2.414213562373095
 10
1759.1916136522866
 20
512.1011590952371
  0
LWPOLYLINE
  5
165
330
17
100
AcDbEntity
  8
CUT
100
AcDbPolyline
 90
8
 70
1
 10
1797.0925371238854
 20
423.95898904804085
 42
2.414213562373095
 10
1797.0925371238854
 20
428.48447244763474
 10
1772.626642494831
 20
452.9503670766893
 42
2.414213562373095
 10
1768.101159095237
 20
452.9503670766893
 10
1759.1916136522866
 20
444.0408216337388
 42
2.414213562373095
 10
1759.1916136522866
 20
439.5153382341449
 10
1783.657508281341
 20
415.04944360509035
 42
2.414213562373095
 10
1788.1829916809352
 20
415.04944360509035
  0
LWPOLYLINE
  5
166
330
17
100
AcDbEntity
  8
CUT
100
AcDbPolyline
 90
8
 70
1
 10
1708.9503670766892
 20
512.1011590952371
 42
2.414213562373095
 10
1708.9503670766892
 20
516.626642494831
 10
1684.4844724476347
 20
541.0925371238856
 42
2.414213562373095
 10
1679.9589890480408
 20
541.0925371238856
 10
1671.0494436050903
 20
532.1829916809351
 42
2.414213562373095
 10
1671.0494436050903
 20
527.6575082813412
 10
1695.5153382341448
 20
503.1916136522866
 42
2.414213562373095
 10
1700.0408216337387
 20
503.1916136522866
  0
TEXT
  5
167
330
17
100
AcDbEntity
  8
ENGRAVE-LABEL
100
AcDbText
 10
1733.633221428679
 20
552.9294783878325
 30
0.0
 40
18.0
  1
04 2/2
 72
1
 11
1733.633221428679
 21
552.9294783878325
 31
0.0
100
AcDbText
 73
2
  0
LWPOLYLINE
  5
168
330
17
100
AcDbEntity
  8
CUT
100
AcDbPolyline
 90
34
 70
1
 10
1857.1419807289758
 20
1169.0
 10
1827.0969165133583
 20
1169.0
 42
-2.414213562373095
 10
1823.8969165133583
 20
1172.2
 10
1823.8969165133583
 20
1187.0
 10
1783.8969165133583
 20
1187.0
 10
1783.8969165133583
 20
1172.2
 42
-2.414213562373095
 10
1780.6969165133582
 20
1169.0
 10
1702.4450642156178
 20
1169.0
 42
-2.414213562373095
 10
1699.2450642156177
 20
1172.2
 10
1699.2450642156177
 20
1187.0
 10
1659.2450642156177
 20
1187.0
 10
1659.2450642156177
 20
1172.2
 42
-2.414213562373095
 10
1656.0450642156177
 20
1169.0
 10
1626.0
 20
1169.0
 10
1676.3999999999999
 20
980.0
 10
1687.0638168652902
 20
980.0
 42
-2.414213562373095
 10
1690.2638168652902
 20
976.8
 10
1690.2638168652902
 20
962.0
 10
1723.8709903644879
 20
962.0
 10
1723.8709903644879
 20
976.8
 42
-2.414213562373095
 10
1727.070990364488
 20
980.0
 10
1732.070990364488
 20
980.0
 10
1732.070990364488
 20
1071.3
 42
-2.414213562373095
 10
1735.270990364488
 20
1074.5
 10
1747.8709903644879
 20
1074.5
 42
-2.414213562373095
 10
1751.070990364488
 20
1071.3
 10
1751.070990364488
 20
980.0
 10
1756.070990364488
 20
980.0
 42
-2.414213562373095
 10
1759.270990364488
 20
976.8
 10
1759.270990364488
 20
962.0
 10
1792.8781638636858
 20
962.0
 10
1792.8781638636858
 20
976.8
 42
-2.414213562373095
 10
1796.0781638636859
 20
980.0
 10
1806.741980728976
 20
980.0
  0
TEXT
  5
169
330
17
100
AcDbEntity
  8
ENGRAVE-LABEL
100
AcDbText
 10
1789.4243667685848
 20
1114.593369419649
 30
0.0
 40
11.0
  1
08 CORE-2A 1/2
 50
30.0
 72
1
 11
1789.4243667685848
 21
1114.593369419649
 31
0.0
100
AcDbText
 73
2
  0
LWPOLYLINE
  5
16A
330
17
100
AcDbEntity
  8
CUT
100
AcDbPolyline
 90
34
 70
1
 10
1901.1419807289758
 20
329.0
 10
1871.0969165133583
 20
329.0
 42
-2.414213562373095
 10
1867.8969165133583
 20
332.2
 10
1867.8969165133583
 20
347.0
 10
1827.8969165133583
 20
347.0
 10
1827.8969165133583
 20
332.2
 42
-2.414213562373095
 10
1824.6969165133582
 20
329.0
 10
1746.4450642156178
 20
329.0
 42
-2.414213562373095
 10
1743.2450642156177
 20
332.2
 10
1743.2450642156177
 20
347.0
 10
1703.2450642156177
 20
347.0
 10
1703.2450642156177
 20
332.2
 42
-2.414213562373095
 10
1700.0450642156177
 20
329.0
 10
1670.0
 20
329.0
 10
1720.3999999999999
 20
140.0
 10
1731.0638168652902
 20
140.0
 42
-2.414213562373095
 10
1734.2638168652902
 20
136.8
 10
1734.2638168652902
 20
122.0
 10
1767.8709903644879
 20
122.0
 10
1767.8709903644879
 20
136.8
 42
-2.414213562373095
 10
1771.070990364488
 20
140.0
 10
1776.070990364488
 20
140.0
 10
1776.070990364488
 20
231.3
 42
-2.414213562373095
 10
1779.270990364488
 20
234.5
 10
1791.8709903644879
 20
234.5
 42
-2.414213562373095
 10
1795.070990364488
 20
231.3
 10
1795.070990364488
 20
140.0
 10
1800.070990364488
 20
140.0
 42
-2.414213562373095
 10
1803.270990364488
 20
136.8
 10
1803.270990364488
 20
122.0
 10
1836.8781638636858
 20
122.0
 10
1836.8781638636858
 20
136.8
 42
-2.414213562373095
 10
1840.0781638636859
 20
140.0
 10
1850.741980728976
 20
140.0
  0
TEXT
  5
16B
330
17
100
AcDbEntity
  8
ENGRAVE-LABEL
100
AcDbText
 10
1833.4243667685848
 20
274.5933694196489
 30
0.0
 40
11.0
  1
08 CORE-2A 2/2
 50
30.0
 72
1
 11
1833.4243667685848
 21
274.5933694196489
 31
0.0
100
AcDbText
 73
2
  0
LWPOLYLINE
  5
16C
330
17
100
AcDbEntity
  8
CUT
100
AcDbPolyline
 90
34
 70
1
 10
1941.1419807289758
 20
925.0
 10
1911.0969165133583
 20
925.0
 42
-2.414213562373095
 10
1907.8969165133583
 20
928.2
 10
1907.8969165133583
 20
943.0
 10
1867.8969165133583
 20
943.0
 10
1867.8969165133583
 20
928.2
 42
-2.414213562373095
 10
1864.6969165133582
 20
925.0
 10
1835.070990364488
 20
925.0
 10
1835.070990364488
 20
833.7
 42
-2.414213562373095
 10
1831.8709903644879
 20
830.5
 10
1819.270990364488
 20
830.5
 42
-2.414213562373095
 10
1816.070990364488
 20
833.7
 10
1816.070990364488
 20
925.0
 10
1786.4450642156178
 20
925.0
 42
-2.414213562373095
 10
1783.2450642156177
 20
928.2
 10
1783.2450642156177
 20
943.0
 10
1743.2450642156177
 20
943.0
 10
1743.2450642156177
 20
928.2
 42
-2.414213562373095
 10
1740.0450642156177
 20
925.0
 10
1710.0
 20
925.0
 10
1760.3999999999999
 20
736.0
 10
1771.0638168652902
 20
736.0
 42
-2.414213562373095
 10
1774.2638168652902
 20
732.8
 10
1774.2638168652902
 20
718.0
 10
1807.8709903644879
 20
718.0
 10
1807.8709903644879
 20
732.8
 42
-2.414213562373095
 10
1811.070990364488
 20
736.0
 10
1840.070990364488
 20
736.0
 42
-2.414213562373095
 10
1843.270990364488
 20
732.8
 10
1843.270990364488
 20
718.0
 10
1876.8781638636858
 20
718.0
 10
1876.8781638636858
 20
732.8
 42
-2.414213562373095
 10
1880.0781638636859
 20
736.0
 10
1890.741980728976
 20
736.0
  0
TEXT
  5
16D
330
17
100
AcDbEntity
  8
ENGRAVE-LABEL
100
AcDbText
 10
1795.8242969241035
 20
784.3710695924468
 30
0.0
 40
11.0
  1
09 CORE-2B 1/2
 50
135.0
 72
1
 11
1795.8242969241035
 21
784.3710695924468
 31
0.0
100
AcDbText
 73
2
  0
LWPOLYLINE
  5
16E
330
17
100
AcDbEntity
  8
CUT
100
AcDbPolyline
 90
34
 70
1
 10
2045.1419807289758
 20
685.0
 10
2015.0969165133583
 20
685.0
 42
-2.414213562373095
 10
2011.8969165133583
 20
688.2
 10
2011.8969165133583
 20
703.0
 10
1971.8969165133583
 20
703.0
 10
1971.8969165133583
 20
688.2
 42
-2.414213562373095
 10
1968.6969165133582
 20
685.0
 10
1939.070990364488
 20
685.0
 10
1939.070990364488
 20
593.7
 42
-2.414213562373095
 10
1935.8709903644879
 20
590.5
 10
1923.270990364488
 20
590.5
 42
-2.414213562373095
 10
1920.070990364488
 20
593.7
 10
1920.070990364488
 20
685.0
 10
1890.4450642156178
 20
685.0
 42
-2.414213562373095
 10
1887.2450642156177
 20
688.2
 10
1887.2450642156177
 20
703.0
 10
1847.2450642156177
 20
703.0
 10
1847.2450642156177
 20
688.2
 42
-2.414213562373095
 10
1844.0450642156177
 20
685.0
 10
1814.0
 20
685.0
 10
1864.3999999999999
 20
496.0
 10
1875.0638168652902
 20
496.0
 42
-2.414213562373095
 10
1878.2638168652902
 20
492.8
 10
1878.2638168652902
 20
478.0
 10
1911.8709903644879
 20
478.0
 10
1911.8709903644879
 20
492.8
 42
-2.414213562373095
 10
1915.070990364488
 20
496.0
 10
1944.070990364488
 20
496.0
 42
-2.414213562373095
 10
1947.270990364488
 20
492.8
 10
1947.270990364488
 20
478.0
 10
1980.8781638636858
 20
478.0
 10
1980.8781638636858
 20
492.8
 42
-2.414213562373095
 10
1984.0781638636859
 20
496.0
 10
1994.741980728976
 20
496.0
  0
TEXT
  5
16F
330
17
100
AcDbEntity
  8
ENGRAVE-LABEL
100
AcDbText
 10
1899.8242969241035
 20
544.3710695924468
 30
0.0
 40
11.0
  1
09 CORE-2B 2/2
 50
135.0
 72
1
 11
1899.8242969241035
 21
544.3710695924468
 31
0.0
100
AcDbText
 73
2
  0
LWPOLYLINE
  5
170
330
17
100
AcDbEntity
  8
CUT
100
AcDbPolyline
 90
2
 70
1
 10
139.74198072897593
 20
78.87099036448797
 42
1.0
 10
18.0
 20
78.87099036448797
 42
1.0
  0
LWPOLYLINE
  5
171
330
17
100
AcDbEntity
  8
CUT
100
AcDbPolyline
 90
8
 70
1
 10
46.69255939057245
 20
37.78301394762195
 42
2.414213562373095
 10
51.21804279016634
 20
37.78301394762195
 10
71.16352644955461
 20
57.7284976070102
 42
2.414213562373095
 10
71.16352644955461
 20
62.25398100660411
 10
62.25398100660411
 20
71.16352644955461
 42
2.414213562373095
 10
57.7284976070102
 20
71.16352644955461
 10
37.783013947621946
 20
51.21804279016635
 42
2.414213562373095
 10
37.783013947621946
 20
46.692559390572455
  0
LWPOLYLINE
  5
172
330
17
100
AcDbEntity
  8
CUT
100
AcDbPolyline
 90
8
 70
1
 10
95.48799972237184
 20
86.57845427942135
 42
2.414213562373095
 10
100.01348312196575
 20
86.57845427942134
 10
119.95896678135401
 20
106.5239379388096
 42
2.414213562373095
 10
119.95896678135401
 20
111.04942133840349
 10
111.0494213384035
 20
119.958966781354
 42
2.414213562373095
 10
106.52393793880961
 20
119.958966781354
 10
86.57845427942135
 20
100.01348312196575
 42
2.414213562373095
 10
86.57845427942135
 20
95.48799972237184
  0
LWPOLYLINE
  5
173
330
17
100
AcDbEntity
  8
CUT
100
AcDbPolyline
 90
8
 70
1
 10
119.958966781354
 20
46.69255939057245
 42
2.414213562373095
 10
119.958966781354
 20
51.21804279016634
 10
100.01348312196575
 20
71.16352644955461
 42
2.414213562373095
 10
95.48799972237184
 20
71.16352644955461
 10
86.57845427942135
 20
62.25398100660411
 42
2.414213562373095
 10
86.57845427942134
 20
57.7284976070102
 10
106.5239379388096
 20
37.783013947621946
 42
2.414213562373095
 10
111.04942133840349
 20
37.783013947621946
  0
LWPOLYLINE
  5
174
330
17
100
AcDbEntity
  8
CUT
100
AcDbPolyline
 90
8
 70
1
 10
71.16352644955461
 20
95.48799972237184
 42
2.414213562373095
 10
71.16352644955461
 20
100.01348312196575
 10
51.21804279016635
 20
119.95896678135401
 42
2.414213562373095
 10
46.692559390572455
 20
119.95896678135401
 10
37.78301394762195
 20
111.0494213384035
 42
2.414213562373095
 10
37.78301394762195
 20
106.52393793880961
 10
57.7284976070102
 20
86.57845427942135
 42
2.414213562373095
 10
62.25398100660411
 20
86.57845427942135
  0
TEXT
  5
175
330
17
100
AcDbEntity
  8
ENGRAVE-LABEL
100
AcDbText
 10
37.373128790218054
 20
79.29427471367588
 30
0.0
 40
7.0
  1
05 1/2
 72
1
 11
37.373128790218054
 21
79.29427471367588
 31
0.0
100
AcDbText
 73
2
  0
LWPOLYLINE
  5
176
330
17
100
AcDbEntity
  8
CUT
100
AcDbPolyline
 90
2
 70
1
 10
139.74198072897593
 20
1042.870990364488
 42
1.0
 10
18.0
 20
1042.870990364488
 42
1.0
  0
LWPOLYLINE
  5
177
330
17
100
AcDbEntity
  8
CUT
100
AcDbPolyline
 90
8
 70
1
 10
46.69255939057245
 20
1001.783013947622
 42
2.414213562373095
 10
51.21804279016634
 20
1001.783013947622
 10
71.16352644955461
 20
1021.7284976070102
 42
2.414213562373095
 10
71.16352644955461
 20
1026.2539810066041
 10
62.25398100660411
 20
1035.1635264495546
 42
2.414213562373095
 10
57.7284976070102
 20
1035.1635264495546
 10
37.783013947621946
 20
1015.2180427901664
 42
2.414213562373095
 10
37.783013947621946
 20
1010.6925593905725
  0
LWPOLYLINE
  5
178
330
17
100
AcDbEntity
  8
CUT
100
AcDbPolyline
 90
8
 70
1
 10
95.48799972237184
 20
1050.5784542794213
 42
2.414213562373095
 10
100.01348312196575
 20
1050.5784542794213
 10
119.95896678135401
 20
1070.5239379388097
 42
2.414213562373095
 10
119.95896678135401
 20
1075.0494213384036
 10
111.0494213384035
 20
1083.958966781354
 42
2.414213562373095
 10
106.52393793880961
 20
1083.958966781354
 10
86.57845427942135
 20
1064.0134831219657
 42
2.414213562373095
 10
86.57845427942135
 20
1059.4879997223718
  0
LWPOLYLINE
  5
179
330
17
100
AcDbEntity
  8
CUT
100
AcDbPolyline
 90
8
 70
1
 10
119.958966781354
 20
1010.6925593905725
 42
2.414213562373095
 10
119.958966781354
 20
1015.2180427901664
 10
100.01348312196575
 20
1035.1635264495546
 42
2.414213562373095
 10
95.48799972237184
 20
1035.1635264495546
 10
86.57845427942135
 20
1026.2539810066041
 42
2.414213562373095
 10
86.57845427942134
 20
1021.7284976070102
 10
106.5239379388096
 20
1001.783013947622
 42
2.414213562373095
 10
111.04942133840349
 20
1001.783013947622
  0
LWPOLYLINE
  5
17A
330
17
100
AcDbEntity
  8
CUT
100
AcDbPolyline
 90
8
 70
1
 10
71.16352644955461
 20
1059.4879997223718
 42
2.414213562373095
 10
71.16352644955461
 20
1064.0134831219657
 10
51.21804279016635
 20
1083.958966781354
 42
2.414213562373095
 10
46.692559390572455
 20
1083.958966781354
 10
37.78301394762195
 20
1075.0494213384036
 42
2.414213562373095
 10
37.78301394762195
 20
1070.5239379388097
 10
57.7284976070102
 20
1050.5784542794213
 42
2.414213562373095
 10
62.25398100660411
 20
1050.5784542794213
  0
TEXT
  5
17B
330
17
100
AcDbEntity
  8
ENGRAVE-LABEL
100
AcDbText
 10
79.29427471367585
 20
1084.368851938758
 30
0.0
 40
7.0
  1
05 2/2
 72
1
 11
79.29427471367585
 21
1084.368851938758
 31
0.0
100
AcDbText
 73
2
  0
ENDSEC
  0
SECTION
  2
OBJECTS
  0
DICTIONARY
  5
A
330
0
100
AcDbDictionary
281
1
  3
ACAD_COLOR
350
B
  3
ACAD_GROUP
350
C
  3
ACAD_LAYOUT
350
D
  3
ACAD_MATERIAL
350
E
  3
ACAD_MLEADERSTYLE
350
F
  3
ACAD_MLINESTYLE
350
10
  3
ACAD_PLOTSETTINGS
350
11
  3
ACAD_PLOTSTYLENAME
350
12
  3
ACAD_SCALELIST
350
14
  3
ACAD_TABLESTYLE
350
15
  3
ACAD_VISUALSTYLE
350
16
  3
EZDXF_META
350
2D
  0
DICTIONARY
  5
B
330
A
100
AcDbDictionary
281
1
  0
DICTIONARY
  5
C
330
A
100
AcDbDictionary
281
1
  0
DICTIONARY
  5
D
330
A
100
AcDbDictionary
281
1
  3
Model
350
1A
  3
Layout1
350
1E
  0
DICTIONARY
  5
E
330
A
100
AcDbDictionary
281
1
  3
ByBlock
350
1F
  3
ByLayer
350
20
  3
Global
350
21
  0
DICTIONARY
  5
F
330
A
100
AcDbDictionary
281
1
  3
Standard
350
2C
  0
DICTIONARY
  5
10
330
A
100
AcDbDictionary
281
1
  3
Standard
350
22
  0
DICTIONARY
  5
11
330
A
100
AcDbDictionary
281
1
  0
ACDBDICTIONARYWDFLT
  5
12
330
A
100
AcDbDictionary
281
1
  3
Normal
350
13
100
AcDbDictionaryWithDefault
340
13
  0
ACDBPLACEHOLDER
  5
13
330
12
  0
DICTIONARY
  5
14
330
A
100
AcDbDictionary
281
1
  0
DICTIONARY
  5
15
330
A
100
AcDbDictionary
281
1
  0
DICTIONARY
  5
16
330
A
100
AcDbDictionary
281
1
  3
2dWireframe
350
5A
  3
Basic
350
5B
  3
Brighten
350
5C
  3
ColorChange
350
5D
  3
Conceptual
350
5E
  3
Dim
350
5F
  3
EdgeColorOff
350
60
  3
Facepattern
350
61
  3
Flat
350
62
  3
FlatWithEdges
350
63
  3
Gouraud
350
64
  3
GouraudWithEdges
350
65
  3
Hidden
350
66
  3
JitterOff
350
67
  3
Linepattern
350
68
  3
Modeling
350
69
  3
OverhangOff
350
6A
  3
Realistic
350
6B
  3
Shaded
350
6C
  3
Shaded with edges
350
6D
  3
Shades of Gray
350
6E
  3
Sketchy
350
6F
  3
Thicken
350
70
  3
Wireframe
350
71
  3
X-Ray
350
72
  0
LAYOUT
  5
1A
330
D
100
AcDbPlotSettings
  1

  4
A3
  6

 40
7.5
 41
20.0
 42
7.5
 43
20.0
 44
420.0
 45
297.0
 46
0.0
 47
0.0
 48
0.0
 49
0.0
140
0.0
141
0.0
142
1.0
143
1.0
 70
1024
 72
1
 73
0
 74
5
  7

 75
16
 76
0
 77
2
 78
300
147
1.0
148
0.0
149
0.0
100
AcDbLayout
  1
Model
 70
1
 71
0
 10
0.0
 20
0.0
 11
420.0
 21
297.0
 12
0.0
 22
0.0
 32
0.0
 14
1e+20
 24
1e+20
 34
1e+20
 15
-1e+20
 25
-1e+20
 35
-1e+20
146
0.0
 13
0.0
 23
0.0
 33
0.0
 16
1.0
 26
0.0
 36
0.0
 17
0.0
 27
1.0
 37
0.0
 76
1
330
17
  0
LAYOUT
  5
1E
330
D
100
AcDbPlotSettings
  1

  4
A3
  6

 40
7.5
 41
20.0
 42
7.5
 43
20.0
 44
420.0
 45
297.0
 46
0.0
 47
0.0
 48
0.0
 49
0.0
140
0.0
141
0.0
142
1.0
143
1.0
 70
0
 72
1
 73
0
 74
5
  7

 75
16
 76
0
 77
2
 78
300
147
1.0
148
0.0
149
0.0
100
AcDbLayout
  1
Layout1
 70
1
 71
1
 10
0.0
 20
0.0
 11
420.0
 21
297.0
 12
0.0
 22
0.0
 32
0.0
 14
1e+20
 24
1e+20
 34
1e+20
 15
-1e+20
 25
-1e+20
 35
-1e+20
146
0.0
 13
0.0
 23
0.0
 33
0.0
 16
1.0
 26
0.0
 36
0.0
 17
0.0
 27
1.0
 37
0.0
 76
1
330
1B
  0
MATERIAL
  5
1F
102
{ACAD_REACTORS
330
E
102
}
330
E
100
AcDbMaterial
  1
ByBlock
  2

 70
0
 40
1.0
 71
1
 41
1.0
 91
-1023410177
 42
1.0
 72
1
  3

 73
1
 74
1
 75
1
 44
0.5
 73
0
 45
1.0
 46
1.0
 77
1
  4

 78
1
 79
1
170
1
 48
1.0
171
1
  6

172
1
173
1
174
1
140
1.0
141
1.0
175
1
  7

176
1
177
1
178
1
143
1.0
179
1
  8

270
1
271
1
272
1
145
1.0
146
1.0
273
1
  9

274
1
275
1
276
1
 42
1.0
 72
1
  3

 73
1
 74
1
 75
1
 94
63
  0
MATERIAL
  5
20
102
{ACAD_REACTORS
330
E
102
}
330
E
100
AcDbMaterial
  1
ByLayer
  2

 70
0
 40
1.0
 71
1
 41
1.0
 91
-1023410177
 42
1.0
 72
1
  3

 73
1
 74
1
 75
1
 44
0.5
 73
0
 45
1.0
 46
1.0
 77
1
  4

 78
1
 79
1
170
1
 48
1.0
171
1
  6

172
1
173
1
174
1
140
1.0
141
1.0
175
1
  7

176
1
177
1
178
1
143
1.0
179
1
  8

270
1
271
1
272
1
145
1.0
146
1.0
273
1
  9

274
1
275
1
276
1
 42
1.0
 72
1
  3

 73
1
 74
1
 75
1
 94
63
  0
MATERIAL
  5
21
102
{ACAD_REACTORS
330
E
102
}
330
E
100
AcDbMaterial
  1
Global
  2

 70
0
 40
1.0
 71
1
 41
1.0
 91
-1023410177
 42
1.0
 72
1
  3

 73
1
 74
1
 75
1
 44
0.5
 73
0
 45
1.0
 46
1.0
 77
1
  4

 78
1
 79
1
170
1
 48
1.0
171
1
  6

172
1
173
1
174
1
140
1.0
141
1.0
175
1
  7

176
1
177
1
178
1
143
1.0
179
1
  8

270
1
271
1
272
1
145
1.0
146
1.0
273
1
  9

274
1
275
1
276
1
 42
1.0
 72
1
  3

 73
1
 74
1
 75
1
 94
63
  0
MLINESTYLE
  5
22
102
{ACAD_REACTORS
330
10
102
}
330
10
100
AcDbMlineStyle
  2
Standard
 70
0
  3

 62
256
 51
90.0
 52
90.0
 71
2
 49
0.5
 62
256
  6
BYLAYER
 49
-0.5
 62
256
  6
BYLAYER
  0
MLEADERSTYLE
  5
2C
102
{ACAD_REACTORS
330
F
102
}
330
F
100
AcDbMLeaderStyle
179
2
170
2
171
1
172
0
 90
2
 40
0.0
 41
0.0
173
1
 91
-1056964608
 92
-2
290
1
 42
2.0
291
1
 43
8.0
  3
Standard
 44
4.0
300

342
29
174
1
175
1
176
0
178
1
 93
-1056964608
 45
4.0
292
0
297
0
 46
4.0
 94
-1056964608
 47
1.0
 49
1.0
140
1.0
294
1
141
0.0
177
0
142
1.0
295
0
296
0
143
3.75
271
0
272
9
273
9
  0
DICTIONARY
  5
2D
330
A
100
AcDbDictionary
280
1
281
1
  3
CREATED_BY_EZDXF
350
2E
  3
WRITTEN_BY_EZDXF
350
17E
  0
DICTIONARYVAR
  5
2E
330
2D
100
DictionaryVariables
280
0
  1
1.4.4 @ 2026-09-27T14:12:59.493205+00:00
  0
VISUALSTYLE
  5
5A
102
{ACAD_REACTORS
330
16
102
}
330
16
100
AcDbVisualStyle
  2
2dWireframe
 70
4
 90
0
 40
0.6
 62
7
290
0
291
0
  0
VISUALSTYLE
  5
5B
102
{ACAD_REACTORS
330
16
102
}
330
16
100
AcDbVisualStyle
  2
Basic
 70
7
 90
1
 40
0.6
 62
7
290
0
291
1
  0
VISUALSTYLE
  5
5C
102
{ACAD_REACTORS
330
16
102
}
330
16
100
AcDbVisualStyle
  2
Brighten
 70
12
 90
2
 40
0.6
 62
7
290
0
291
1
  0
VISUALSTYLE
  5
5D
102
{ACAD_REACTORS
330
16
102
}
330
16
100
AcDbVisualStyle
  2
ColorChange
 70
16
 90
2
 40
0.6
 62
8
290
0
291
1
  0
VISUALSTYLE
  5
5E
102
{ACAD_REACTORS
330
16
102
}
330
16
100
AcDbVisualStyle
  2
Conceptual
 70
9
 90
3
 40
0.6
 62
7
290
0
291
0
  0
VISUALSTYLE
  5
5F
102
{ACAD_REACTORS
330
16
102
}
330
16
100
AcDbVisualStyle
  2
Dim
 70
11
 90
2
 40
0.6
 62
7
290
0
291
1
  0
VISUALSTYLE
  5
60
102
{ACAD_REACTORS
330
16
102
}
330
16
100
AcDbVisualStyle
  2
EdgeColorOff
 70
22
 90
2
 40
0.6
 62
7
290
0
291
1
  0
VISUALSTYLE
  5
61
102
{ACAD_REACTORS
330
16
102
}
330
16
100
AcDbVisualStyle
  2
Facepattern
 70
15
 90
2
 40
0.6
 62
7
290
0
291
1
  0
VISUALSTYLE
  5
62
102
{ACAD_REACTORS
330
16
102
}
330
16
100
AcDbVisualStyle
  2
Flat
 70
0
 90
2
 40
0.6
 62
7
290
0
291
1
  0
VISUALSTYLE
  5
63
102
{ACAD_REACTORS
330
16
102
}
330
16
100
AcDbVisualStyle
  2
FlatWithEdges
 70
1
 90
2
 40
0.6
 62
7
290
0
291
1
  0
VISUALSTYLE
  5
64
102
{ACAD_REACTORS
330
16
102
}
330
16
100
AcDbVisualStyle
  2
Gouraud
 70
2
 90
2
 40
0.6
 62
7
290
0
291
1
  0
VISUALSTYLE
  5
65
102
{ACAD_REACTORS
330
16
102
}
330
16
100
AcDbVisualStyle
  2
GouraudWithEdges
 70
3
 90
2
 40
0.6
 62
7
290
0
291
1
  0
VISUALSTYLE
  5
66
102
{ACAD_REACTORS
330
16
102
}
330
16
100
AcDbVisualStyle
  2
Hidden
 70
6
 90
1
 40
0.6
 62
7
290
0
291
0
  0
VISUALSTYLE
  5
67
102
{ACAD_REACTORS
330
16
102
}
330
16
100
AcDbVisualStyle
  2
JitterOff
 70
20
 90
2
 40
0.6
 62
7
290
0
291
1
  0
VISUALSTYLE
  5
68
102
{ACAD_REACTORS
330
16
102
}
330
16
100
AcDbVisualStyle
  2
Linepattern
 70
14
 90
2
 40
0.6
 62
7
290
0
291
1
  0
VISUALSTYLE
  5
69
102
{ACAD_REACTORS
330
16
102
}
330
16
100
AcDbVisualStyle
  2
Modeling
 70
10
 90
2
 40
0.6
 62
7
290
0
291
0
  0
VISUALSTYLE
  5
6A
102
{ACAD_REACTORS
330
16
102
}
330
16
100
AcDbVisualStyle
  2
OverhangOff
 70
21
 90
2
 40
0.6
 62
7
290
0
291
1
  0
VISUALSTYLE
  5
6B
102
{ACAD_REACTORS
330
16
102
}
330
16
100
AcDbVisualStyle
  2
Realistic
 70
8
 90
2
 40
0.6
 62
7
290
0
291
0
  0
VISUALSTYLE
  5
6C
102
{ACAD_REACTORS
330
16
102
}
330
16
100
AcDbVisualStyle
  2
Shaded
 70
27
 90
2
 40
0.6
 62
7
290
0
291
0
  0
VISUALSTYLE
  5
6D
102
{ACAD_REACTORS
330
16
102
}
330
16
100
AcDbVisualStyle
  2
Shaded with edges
 70
26
 90
2
 40
0.6
 62
7
290
0
291
0
  0
VISUALSTYLE
  5
6E
102
{ACAD_REACTORS
330
16
102
}
330
16
100
AcDbVisualStyle
  2
Shades of Gray
 70
23
 90
2
 40
0.6
 62
7
290
0
291
0
  0
VISUALSTYLE
  5
6F
102
{ACAD_REACTORS
330
16
102
}
330
16
100
AcDbVisualStyle
  2
Sketchy
 70
24
 90
1
 40
0.6
 62
7
290
0
291
0
  0
VISUALSTYLE
  5
70
102
{ACAD_REACTORS
330
16
102
}
330
16
100
AcDbVisualStyle
  2
Thicken
 70
13
 90
2
 40
0.6
 62
7
290
0
291
1
  0
VISUALSTYLE
  5
71
102
{ACAD_REACTORS
330
16
102
}
330
16
100
AcDbVisualStyle
  2
Wireframe
 70
5
 90
0
 40
0.6
 62
7
290
0
291
0
  0
VISUALSTYLE
  5
72
102
{ACAD_REACTORS
330
16
102
}
330
16
100
AcDbVisualStyle
  2
X-Ray
 70
25
 90
2
 40
0.5
 62
7
290
0
291
0
  0
DICTIONARYVAR
  5
17E
330
2D
100
DictionaryVariables
280
0
  1
1.4.4 @ 2026-09-27T14:13:01.648540+00:00
  0
ENDSEC
  0
EOF
