  0
SECTION
  2
HEADER
  9
$ACADVER
  1
AC1024
  9
$ACADMAINTVER
 70
6
  9
$DWGCODEPAGE
  3
ANSI_1252
  9
$LASTSAVEDBY
  1
ezdxf
  9
$INSBASE
 10
0.0
 20
0.0
 30
0.0
  9
$EXTMIN
 10
1e+20
 20
1e+20
 30
1e+20
  9
$EXTMAX
 10
-1e+20
 20
-1e+20
 30
-1e+20
  9
$LIMMIN
 10
0.0
 20
0.0
  9
$LIMMAX
 10
420.0
 20
297.0
  9
$ORTHOMODE
 70
0
  9
$REGENMODE
 70
1
  9
$FILLMODE
 70
1
  9
$QTEXTMODE
 70
0
  9
$MIRRTEXT
 70
1
  9
$LTSCALE
 40
1.0
  9
$ATTMODE
 70
1
  9
$TEXTSIZE
 40
2.5
  9
$TRACEWID
 40
1.0
  9
$TEXTSTYLE
  7
OpenSans
  9
$CLAYER
  8
0
  9
$CELTYPE
  6
ByLayer
  9
$CECOLOR
 62
256
  9
$CELTSCALE
 40
1.0
  9
$DISPSILH
 70
0
  9
$DIMSCALE
 40
1.0
  9
$DIMASZ
 40
0.175
  9
$DIMEXO
 40
0.125
  9
$DIMDLI
 40
3.75
  9
$DIMRND
 40
0.0
  9
$DIMDLE
 40
0.0
  9
$DIMEXE
 40
0.375
  9
$DIMTP
 40
0.0
  9
$DIMTM
 40
0.0
  9
$DIMTXT
 40
0.25
  9
$DIMCEN
 40
2.5
  9
$DIMTSZ
 40
0.0
  9
$DIMTOL
 70
0
  9
$DIMLIM
 70
0
  9
$DIMTIH
 70
0
  9
$DIMTOH
 70
0
  9
$DIMSE1
 70
0
  9
$DIMSE2
 70
0
  9
$DIMTAD
 70
1
  9
$DIMZIN
 70
12
  9
$DIMBLK
  1
ARCHTICK
  9
$DIMASO
 70
1
  9
$DIMSHO
 70
1
  9
$DIMPOST
  1

  9
$DIMAPOST
  1

  9
$DIMALT
 70
0
  9
$DIMALTD
 70
3
  9
$DIMALTF
 40
0.03937007874
  9
$DIMLFAC
 40
100.0
  9
$DIMTOFL
 70
1
  9
$DIMTVP
 40
0.0
  9
$DIMTIX
 70
0
  9
$DIMSOXD
 70
0
  9
$DIMSAH
 70
0
  9
$DIMBLK1
  1

  9
$DIMBLK2
  1

  9
$DIMSTYLE
  2
EZDXF
  9
$DIMCLRD
 70
0
  9
$DIMCLRE
 70
0
  9
$DIMCLRT
 70
0
  9
$DIMTFAC
 40
0.5
  9
$DIMGAP
 40
0.1
  9
$DIMJUST
 70
0
  9
$DIMSD1
 70
0
  9
$DIMSD2
 70
0
  9
$DIMTOLJ
 70
0
  9
$DIMTZIN
 70
8
  9
$DIMALTZ
 70
0
  9
$DIMALTTZ
 70
0
  9
$DIMUPT
 70
1
  9
$DIMDEC
 70
2
  9
$DIMTDEC
 70
2
  9
$DIMALTU
 70
2
  9
$DIMALTTD
 70
3
  9
$DIMTXSTY
  7
OpenSansCondensed-Light
  9
$DIMAUNIT
 70
0
  9
$DIMADEC
 70
2
  9
$DIMALTRND
 40
0.0
  9
$DIMAZIN
 70
3
  9
$DIMDSEP
 70
46
  9
$DIMATFIT
 70
3
  9
$DIMFRAC
 70
0
  9
$DIMLDRBLK
  1

  9
$DIMLUNIT
 70
2
  9
$DIMLWD
 70
-2
  9
$DIMLWE
 70
-2
  9
$DIMTMOVE
 70
2
  9
$DIMFXL
 40
1.0
  9
$DIMFXLON
 70
0
  9
$DIMJOGANG
 40
0.785398163397
  9
$DIMTFILL
 70
0
  9
$DIMTFILLCLR
 70
0
  9
$DIMARCSYM
 70
0
  9
$DIMLTYPE
  6

  9
$DIMLTEX1
  6

  9
$DIMLTEX2
  6

  9
$DIMTXTDIRECTION
 70
0
  9
$LUNITS
 70
2
  9
$LUPREC
 70
4
  9
$SKETCHINC
 40
1.0
  9
$FILLETRAD
 40
10.0
  9
$AUNITS
 70
0
  9
$AUPREC
 70
2
  9
$MENU
  1
.
  9
$ELEVATION
 40
0.0
  9
$PELEVATION
 40
0.0
  9
$THICKNESS
 40
0.0
  9
$LIMCHECK
 70
0
  9
$CHAMFERA
 40
0.0
  9
$CHAMFERB
 40
0.0
  9
$CHAMFERC
 40
0.0
  9
$CHAMFERD
 40
0.0
  9
$SKPOLY
 70
0
  9
$TDCREATE
 40
2461317.260462963
  9
$TDUCREATE
 40
2458532.153996898
  9
$TDUPDATE
 40
2461317.260486111
  9
$TDUUPDATE
 40
2458532.1544311
  9
$TDINDWG
 40
0.0
  9
$TDUSRTIMER
 40
0.0
  9
$USRTIMER
 70
1
  9
$ANGBASE
 50
0.0
  9
$ANGDIR
 70
0
  9
$PDMODE
 70
0
  9
$PDSIZE
 40
0.0
  9
$PLINEWID
 40
0.0
  9
$SPLFRAME
 70
0
  9
$SPLINETYPE
 70
6
  9
$SPLINESEGS
 70
8
  9
$HANDSEED
  5
13D
  9
$SURFTAB1
 70
6
  9
$SURFTAB2
 70
6
  9
$SURFTYPE
 70
6
  9
$SURFU
 70
6
  9
$SURFV
 70
6
  9
$UCSBASE
  2

  9
$UCSNAME
  2

  9
$UCSORG
 10
0.0
 20
0.0
 30
0.0
  9
$UCSXDIR
 10
1.0
 20
0.0
 30
0.0
  9
$UCSYDIR
 10
0.0
 20
1.0
 30
0.0
  9
$UCSORTHOREF
  2

  9
$UCSORTHOVIEW
 70
0
  9
$UCSORGTOP
 10
0.0
 20
0.0
 30
0.0
  9
$UCSORGBOTTOM
 10
0.0
 20
0.0
 30
0.0
  9
$UCSORGLEFT
 10
0.0
 20
0.0
 30
0.0
  9
$UCSORGRIGHT
 10
0.0
 20
0.0
 30
0.0
  9
$UCSORGFRONT
 10
0.0
 20
0.0
 30
0.0
  9
$UCSORGBACK
 10
0.0
 20
0.0
 30
0.0
  9
$PUCSBASE
  2

  9
$PUCSNAME
  2

  9
$PUCSORG
 10
0.0
 20
0.0
 30
0.0
  9
$PUCSXDIR
 10
1.0
 20
0.0
 30
0.0
  9
$PUCSYDIR
 10
0.0
 20
1.0
 30
0.0
  9
$PUCSORTHOREF
  2

  9
$PUCSORTHOVIEW
 70
0
  9
$PUCSORGTOP
 10
0.0
 20
0.0
 30
0.0
  9
$PUCSORGBOTTOM
 10
0.0
 20
0.0
 30
0.0
  9
$PUCSORGLEFT
 10
0.0
 20
0.0
 30
0.0
  9
$PUCSORGRIGHT
 10
0.0
 20
0.0
 30
0.0
  9
$PUCSORGFRONT
 10
0.0
 20
0.0
 30
0.0
  9
$PUCSORGBACK
 10
0.0
 20
0.0
 30
0.0
  9
$USERI1
 70
0
  9
$USERI2
 70
0
  9
$USERI3
 70
0
  9
$USERI4
 70
0
  9
$USERI5
 70
0
  9
$USERR1
 40
0.0
  9
$USERR2
 40
0.0
  9
$USERR3
 40
0.0
  9
$USERR4
 40
0.0
  9
$USERR5
 40
0.0
  9
$WORLDVIEW
 70
1
  9
$SHADEDGE
 70
3
  9
$SHADEDIF
 70
70
  9
$TILEMODE
 70
1
  9
$MAXACTVP
 70
64
  9
$PINSBASE
 10
0.0
 20
0.0
 30
0.0
  9
$PLIMCHECK
 70
0
  9
$PEXTMIN
 10
1e+20
 20
1e+20
 30
1e+20
  9
$PEXTMAX
 10
-1e+20
 20
-1e+20
 30
-1e+20
  9
$PLIMMIN
 10
0.0
 20
0.0
  9
$PLIMMAX
 10
420.0
 20
297.0
  9
$UNITMODE
 70
0
  9
$VISRETAIN
 70
1
  9
$PLINEGEN
 70
0
  9
$PSLTSCALE
 70
1
  9
$TREEDEPTH
 70
3020
  9
$CMLSTYLE
  2
Standard
  9
$CMLJUST
 70
0
  9
$CMLSCALE
 40
20.0
  9
$PROXYGRAPHICS
 70
1
  9
$MEASUREMENT
 70
1
  9
$CELWEIGHT
370
-1
  9
$ENDCAPS
280
0
  9
$JOINSTYLE
280
0
  9
$LWDISPLAY
290
0
  9
$INSUNITS
 70
4
  9
$HYPERLINKBASE
  1

  9
$STYLESHEET
  1

  9
$XEDIT
290
1
  9
$CEPSNTYPE
380
0
  9
$PSTYLEMODE
290
1
  9
$FINGERPRINTGUID
  2
{B80E3E7E-F71D-4D73-A81D-F2F8D42EA7F5}
  9
$VERSIONGUID
  2
{C2C8DCC6-CEB0-4C16-BBB3-C1BF0323631E}
  9
$EXTNAMES
290
1
  9
$PSVPSCALE
 40
0.0
  9
$OLESTARTUP
290
0
  9
$SORTENTS
280
127
  9
$INDEXCTL
280
0
  9
$HIDETEXT
280
1
  9
$XCLIPFRAME
280
1
  9
$HALOGAP
280
0
  9
$OBSCOLOR
 70
257
  9
$OBSLTYPE
280
0
  9
$INTERSECTIONDISPLAY
280
0
  9
$INTERSECTIONCOLOR
 70
257
  9
$DIMASSOC
280
2
  9
$PROJECTNAME
  1

  9
$CAMERADISPLAY
290
0
  9
$LENSLENGTH
 40
50.0
  9
$CAMERAHEIGHT
 40
0.0
  9
$STEPSPERSEC
 40
24.0
  9
$STEPSIZE
 40
100.0
  9
$3DDWFPREC
 40
2.0
  9
$PSOLWIDTH
 40
0.005
  9
$PSOLHEIGHT
 40
0.08
  9
$LOFTANG1
 40
1.570796326795
  9
$LOFTANG2
 40
1.570796326795
  9
$LOFTMAG1
 40
0.0
  9
$LOFTMAG2
 40
0.0
  9
$LOFTPARAM
 70
7
  9
$LOFTNORMALS
280
1
  9
$LATITUDE
 40
37.795
  9
$LONGITUDE
 40
-122.394
  9
$NORTHDIRECTION
 40
0.0
  9
$TIMEZONE
 70
-8000
  9
$LIGHTGLYPHDISPLAY
280
1
  9
$TILEMODELIGHTSYNCH
280
1
  9
$CMATERIAL
347
20
  9
$SOLIDHIST
280
0
  9
$SHOWHIST
280
1
  9
$DWFFRAME
280
2
  9
$DGNFRAME
280
2
  9
$REALWORLDSCALE
290
1
  9
$INTERFERECOLOR
 62
256
  9
$CSHADOW
280
0
  9
$SHADOWPLANELOCATION
 40
0.0
  0
ENDSEC
  0
SECTION
  2
CLASSES
  0
CLASS
  1
ACDBDICTIONARYWDFLT
  2
AcDbDictionaryWithDefault
  3
ObjectDBX Classes
 90
0
 91
0
280
0
281
0
  0
CLASS
  1
SUN
  2
AcDbSun
  3
SCENEOE
 90
1153
 91
0
280
0
281
0
  0
CLASS
  1
VISUALSTYLE
  2
AcDbVisualStyle
  3
ObjectDBX Classes
 90
4095
 91
0
280
0
281
0
  0
CLASS
  1
MATERIAL
  2
AcDbMaterial
  3
ObjectDBX Classes
 90
1153
 91
0
280
0
281
0
  0
CLASS
  1
SCALE
  2
AcDbScale
  3
ObjectDBX Classes
 90
1153
 91
0
280
0
281
0
  0
CLASS
  1
TABLESTYLE
  2
AcDbTableStyle
  3
ObjectDBX Classes
 90
4095
 91
0
280
0
281
0
  0
CLASS
  1
MLEADERSTYLE
  2
AcDbMLeaderStyle
  3
ACDB_MLEADERSTYLE_CLASS
 90
4095
 91
0
280
0
281
0
  0
CLASS
  1
DICTIONARYVAR
  2
AcDbDictionaryVar
  3
ObjectDBX Classes
 90
0
 91
0
280
0
281
0
  0
CLASS
  1
CELLSTYLEMAP
  2
AcDbCellStyleMap
  3
ObjectDBX Classes
 90
1152
 91
0
280
0
281
0
  0
CLASS
  1
MENTALRAYRENDERSETTINGS
  2
AcDbMentalRayRenderSettings
  3
SCENEOE
 90
1024
 91
0
280
0
281
0
  0
CLASS
  1
ACDBDETAILVIEWSTYLE
  2
AcDbDetailViewStyle
  3
ObjectDBX Classes
 90
1025
 91
0
280
0
281
0
  0
CLASS
  1
ACDBSECTIONVIEWSTYLE
  2
AcDbSectionViewStyle
  3
ObjectDBX Classes
 90
1025
 91
0
280
0
281
0
  0
CLASS
  1
RASTERVARIABLES
  2
AcDbRasterVariables
  3
ISM
 90
0
 91
0
280
0
281
0
  0
CLASS
  1
ACDBPLACEHOLDER
  2
AcDbPlaceHolder
  3
ObjectDBX Classes
 90
0
 91
0
280
0
281
0
  0
CLASS
  1
LAYOUT
  2
AcDbLayout
  3
ObjectDBX Classes
 90
0
 91
0
280
0
281
0
  0
ENDSEC
  0
SECTION
  2
TABLES
  0
TABLE
  2
VPORT
  5
8
330
0
100
AcDbSymbolTable
 70
1
  0
VPORT
  5
23
330
8
100
AcDbSymbolTableRecord
100
AcDbViewportTableRecord
  2
*Active
 70
0
 10
0.0
 20
0.0
 11
1.0
 21
1.0
 12
0.0
 22
0.0
 13
0.0
 23
0.0
 14
0.5
 24
0.5
 15
0.5
 25
0.5
 16
0.0
 26
0.0
 36
1.0
 17
0.0
 27
0.0
 37
0.0
 40
1000.0
 41
1.34
 42
50.0
 43
0.0
 44
0.0
 50
0.0
 51
0.0
 71
0
 72
1000
 73
1
 74
3
 75
0
 76
0
 77
0
 78
0
281
0
 65
0
146
0.0
  0
ENDTAB
  0
TABLE
  2
LTYPE
  5
2
330
0
100
AcDbSymbolTable
 70
21
  0
LTYPE
  5
24
330
2
100
AcDbSymbolTableRecord
100
AcDbLinetypeTableRecord
  2
ByBlock
 70
0
  3

 72
65
 73
0
 40
0.0
  0
LTYPE
  5
25
330
2
100
AcDbSymbolTableRecord
100
AcDbLinetypeTableRecord
  2
ByLayer
 70
0
  3

 72
65
 73
0
 40
0.0
  0
LTYPE
  5
26
330
2
100
AcDbSymbolTableRecord
100
AcDbLinetypeTableRecord
  2
Continuous
 70
0
  3

 72
65
 73
0
 40
0.0
  0
LTYPE
  5
2F
330
2
100
AcDbSymbolTableRecord
100
AcDbLinetypeTableRecord
  2
CENTER
 70
0
  3
Center ____ _ ____ _ ____ _ ____ _ ____ _ ____
 72
65
 73
4
 40
5.08
 49
3.175
 74
0
 49
-0.635
 74
0
 49
0.635
 74
0
 49
-0.635
 74
0
  0
LTYPE
  5
30
330
2
100
AcDbSymbolTableRecord
100
AcDbLinetypeTableRecord
  2
CENTERX2
 70
0
  3
Center (2x) ________  __  ________  __  ________
 72
65
 73
4
 40
8.89
 49
6.35
 74
0
 49
-0.635
 74
0
 49
1.27
 74
0
 49
-0.635
 74
0
  0
LTYPE
  5
31
330
2
100
AcDbSymbolTableRecord
100
AcDbLinetypeTableRecord
  2
CENTER2
 70
0
  3
Center (.5x) ____ _ ____ _ ____ _ ____ _ ____
 72
65
 73
4
 40
2.54
 49
1.587
 74
0
 49
-0.318
 74
0
 49
0.318
 74
0
 49
-0.318
 74
0
  0
LTYPE
  5
32
330
2
100
AcDbSymbolTableRecord
100
AcDbLinetypeTableRecord
  2
DASHED
 70
0
  3
Dashed __ __ __ __ __ __ __ __ __ __ __ __ __ _
 72
65
 73
2
 40
1.524
 49
1.27
 74
0
 49
-0.254
 74
0
  0
LTYPE
  5
33
330
2
100
AcDbSymbolTableRecord
100
AcDbLinetypeTableRecord
  2
DASHEDX2
 70
0
  3
Dashed (2x) ____  ____  ____  ____  ____  ____
 72
65
 73
2
 40
3.048
 49
2.54
 74
0
 49
-0.508
 74
0
  0
LTYPE
  5
34
330
2
100
AcDbSymbolTableRecord
100
AcDbLinetypeTableRecord
  2
DASHED2
 70
0
  3
Dashed (.5x) _ _ _ _ _ _ _ _ _ _ _ _ _ _
 72
65
 73
2
 40
0.762
 49
0.635
 74
0
 49
-0.127
 74
0
  0
LTYPE
  5
35
330
2
100
AcDbSymbolTableRecord
100
AcDbLinetypeTableRecord
  2
PHANTOM
 70
0
  3
Phantom ______  __  __  ______  __  __  ______
 72
65
 73
6
 40
6.35
 49
3.175
 74
0
 49
-0.635
 74
0
 49
0.635
 74
0
 49
-0.635
 74
0
 49
0.635
 74
0
 49
-0.635
 74
0
  0
LTYPE
  5
36
330
2
100
AcDbSymbolTableRecord
100
AcDbLinetypeTableRecord
  2
PHANTOMX2
 70
0
  3
Phantom (2x)____________    ____    ____    ____________
 72
65
 73
6
 40
10.795
 49
6.35
 74
0
 49
-0.635
 74
0
 49
1.27
 74
0
 49
-0.635
 74
0
 49
1.27
 74
0
 49
-0.635
 74
0
  0
LTYPE
  5
37
330
2
100
AcDbSymbolTableRecord
100
AcDbLinetypeTableRecord
  2
PHANTOM2
 70
0
  3
Phantom (.5x) ___ _ _ ___ _ _ ___ _ _ ___ _ _ ___
 72
65
 73
6
 40
3.175
 49
1.587
 74
0
 49
-0.318
 74
0
 49
0.318
 74
0
 49
-0.318
 74
0
 49
0.318
 74
0
 49
-0.318
 74
0
  0
LTYPE
  5
38
330
2
100
AcDbSymbolTableRecord
100
AcDbLinetypeTableRecord
  2
DASHDOT
 70
0
  3
Dash dot __ . __ . __ . __ . __ . __ . __ . __
 72
65
 73
4
 40
3.556
 49
2.54
 74
0
 49
-0.508
 74
0
 49
0.0
 74
0
 49
-0.508
 74
0
  0
LTYPE
  5
39
330
2
100
AcDbSymbolTableRecord
100
AcDbLinetypeTableRecord
  2
DASHDOTX2
 70
0
  3
Dash dot (2x) ____  .  ____  .  ____  .  ____
 72
65
 73
4
 40
6.096
 49
5.08
 74
0
 49
-0.508
 74
0
 49
0.0
 74
0
 49
-0.508
 74
0
  0
LTYPE
  5
3A
330
2
100
AcDbSymbolTableRecord
100
AcDbLinetypeTableRecord
  2
DASHDOT2
 70
0
  3
Dash dot (.5x) _ . _ . _ . _ . _ . _ . _ . _
 72
65
 73
4
 40
1.778
 49
1.27
 74
0
 49
-0.254
 74
0
 49
0.0
 74
0
 49
-0.254
 74
0
  0
LTYPE
  5
3B
330
2
100
AcDbSymbolTableRecord
100
AcDbLinetypeTableRecord
  2
DOT
 70
0
  3
Dot .  .  .  .  .  .  .  .  .  .  .  .  .  .  .  .
 72
65
 73
2
 40
0.508
 49
0.0
 74
0
 49
-0.508
 74
0
  0
LTYPE
  5
3C
330
2
100
AcDbSymbolTableRecord
100
AcDbLinetypeTableRecord
  2
DOTX2
 70
0
  3
Dot (2x) .    .    .    .    .    .    .    . 
 72
65
 73
2
 40
1.016
 49
0.0
 74
0
 49
-1.016
 74
0
  0
LTYPE
  5
3D
330
2
100
AcDbSymbolTableRecord
100
AcDbLinetypeTableRecord
  2
DOT2
 70
0
  3
Dot (.5) . . . . . . . . . . . . . . . . . . . 
 72
65
 73
2
 40
0.254
 49
0.0
 74
0
 49
-0.254
 74
0
  0
LTYPE
  5
3E
330
2
100
AcDbSymbolTableRecord
100
AcDbLinetypeTableRecord
  2
DIVIDE
 70
0
  3
Divide __ . . __ . . __ . . __ . . __ . . __
 72
65
 73
6
 40
4.064
 49
2.54
 74
0
 49
-0.508
 74
0
 49
0.0
 74
0
 49
-0.508
 74
0
 49
0.0
 74
0
 49
-0.508
 74
0
  0
LTYPE
  5
3F
330
2
100
AcDbSymbolTableRecord
100
AcDbLinetypeTableRecord
  2
DIVIDEX2
 70
0
  3
Divide (2x) ____  . .  ____  . .  ____  . .  ____
 72
65
 73
6
 40
6.604
 49
5.08
 74
0
 49
-0.508
 74
0
 49
0.0
 74
0
 49
-0.508
 74
0
 49
0.0
 74
0
 49
-0.508
 74
0
  0
LTYPE
  5
40
330
2
100
AcDbSymbolTableRecord
100
AcDbLinetypeTableRecord
  2
DIVIDE2
 70
0
  3
Divide(.5x) _ . _ . _ . _ . _ . _ . _ . _
 72
65
 73
6
 40
2.032
 49
1.27
 74
0
 49
-0.254
 74
0
 49
0.0
 74
0
 49
-0.254
 74
0
 49
0.0
 74
0
 49
-0.254
 74
0
  0
ENDTAB
  0
TABLE
  2
LAYER
  5
1
330
0
100
AcDbSymbolTable
 70
6
  0
LAYER
  5
27
330
1
100
AcDbSymbolTableRecord
100
AcDbLayerTableRecord
  2
0
 70
0
 62
7
  6
Continuous
370
-3
390
13
347
21
  0
LAYER
  5
28
330
1
100
AcDbSymbolTableRecord
100
AcDbLayerTableRecord
  2
Defpoints
 70
0
 62
7
  6
Continuous
290
0
370
-3
390
13
347
21
  0
LAYER
  5
8A
330
1
100
AcDbSymbolTableRecord
100
AcDbLayerTableRecord
  2
CUT
 70
0
 62
1
  6
Continuous
370
-3
390
13
347
21
  0
LAYER
  5
8B
330
1
100
AcDbSymbolTableRecord
100
AcDbLayerTableRecord
  2
POCKET-KERF-15
 70
0
 62
5
  6
Continuous
370
-3
390
13
347
21
  0
LAYER
  5
8C
330
1
100
AcDbSymbolTableRecord
100
AcDbLayerTableRecord
  2
ENGRAVE-LABEL
 70
0
 62
3
  6
Continuous
370
-3
390
13
347
21
  0
LAYER
  5
8D
330
1
100
AcDbSymbolTableRecord
100
AcDbLayerTableRecord
  2
REFERENCE-SHEET
 70
0
 62
8
  6
Continuous
370
-3
390
13
347
21
  0
ENDTAB
  0
TABLE
  2
STYLE
  5
5
330
0
100
AcDbSymbolTable
 70
26
  0
STYLE
  5
29
330
5
100
AcDbSymbolTableRecord
100
AcDbTextStyleTableRecord
  2
Standard
 70
0
 40
0.0
 41
1.0
 50
0.0
 71
0
 42
2.5
  3
txt
  4

  0
STYLE
  5
41
330
5
100
AcDbSymbolTableRecord
100
AcDbTextStyleTableRecord
  2
OpenSans-Light
 70
0
 40
0.0
 41
1.0
 50
0.0
 71
0
 42
2.5
  3
OpenSans-Light.ttf
  4

  0
STYLE
  5
42
330
5
100
AcDbSymbolTableRecord
100
AcDbTextStyleTableRecord
  2
OpenSans-Light-Italic
 70
0
 40
0.0
 41
1.0
 50
0.0
 71
0
 42
2.5
  3
OpenSans-LightItalic.ttf
  4

  0
STYLE
  5
43
330
5
100
AcDbSymbolTableRecord
100
AcDbTextStyleTableRecord
  2
OpenSans
 70
0
 40
0.0
 41
1.0
 50
0.0
 71
0
 42
2.5
  3
OpenSans-Regular.ttf
  4

  0
STYLE
  5
44
330
5
100
AcDbSymbolTableRecord
100
AcDbTextStyleTableRecord
  2
OpenSans-Italic
 70
0
 40
0.0
 41
1.0
 50
0.0
 71
0
 42
2.5
  3
OpenSans-Italic.ttf
  4

  0
STYLE
  5
45
330
5
100
AcDbSymbolTableRecord
100
AcDbTextStyleTableRecord
  2
OpenSans-SemiBold
 70
0
 40
0.0
 41
1.0
 50
0.0
 71
0
 42
2.5
  3
OpenSans-SemiBold.ttf
  4

  0
STYLE
  5
46
330
5
100
AcDbSymbolTableRecord
100
AcDbTextStyleTableRecord
  2
OpenSans-SemiBoldItalic
 70
0
 40
0.0
 41
1.0
 50
0.0
 71
0
 42
2.5
  3
OpenSans-SemiBoldItalic.ttf
  4

  0
STYLE
  5
47
330
5
100
AcDbSymbolTableRecord
100
AcDbTextStyleTableRecord
  2
OpenSans-Bold
 70
0
 40
0.0
 41
1.0
 50
0.0
 71
0
 42
2.5
  3
OpenSans-Bold.ttf
  4

  0
STYLE
  5
48
330
5
100
AcDbSymbolTableRecord
100
AcDbTextStyleTableRecord
  2
OpenSans-BoldItalic
 70
0
 40
0.0
 41
1.0
 50
0.0
 71
0
 42
2.5
  3
OpenSans-BoldItalic.ttf
  4

  0
STYLE
  5
49
330
5
100
AcDbSymbolTableRecord
100
AcDbTextStyleTableRecord
  2
OpenSans-ExtraBold
 70
0
 40
0.0
 41
1.0
 50
0.0
 71
0
 42
2.5
  3
OpenSans-ExtraBold.ttf
  4

  0
STYLE
  5
4A
330
5
100
AcDbSymbolTableRecord
100
AcDbTextStyleTableRecord
  2
OpenSans-ExtraBoldItalic
 70
0
 40
0.0
 41
1.0
 50
0.0
 71
0
 42
2.5
  3
OpenSans-ExtraBoldItalic.ttf
  4

  0
STYLE
  5
4B
330
5
100
AcDbSymbolTableRecord
100
AcDbTextStyleTableRecord
  2
OpenSansCondensed-Bold
 70
0
 40
0.0
 41
1.0
 50
0.0
 71
0
 42
2.5
  3
OpenSansCondensed-Bold.ttf
  4

  0
STYLE
  5
4C
330
5
100
AcDbSymbolTableRecord
100
AcDbTextStyleTableRecord
  2
OpenSansCondensed-Light
 70
0
 40
0.0
 41
1.0
 50
0.0
 71
0
 42
2.5
  3
OpenSansCondensed-Light.ttf
  4

  0
STYLE
  5
4D
330
5
100
AcDbSymbolTableRecord
100
AcDbTextStyleTableRecord
  2
OpenSansCondensed-Italic
 70
0
 40
0.0
 41
1.0
 50
0.0
 71
0
 42
2.5
  3
OpenSansCondensed-LightItalic.ttf
  4

  0
STYLE
  5
4E
330
5
100
AcDbSymbolTableRecord
100
AcDbTextStyleTableRecord
  2
LiberationSans
 70
0
 40
0.0
 41
1.0
 50
0.0
 71
0
 42
2.5
  3
LiberationSans-Regular.ttf
  4

  0
STYLE
  5
4F
330
5
100
AcDbSymbolTableRecord
100
AcDbTextStyleTableRecord
  2
LiberationSans-Bold
 70
0
 40
0.0
 41
1.0
 50
0.0
 71
0
 42
2.5
  3
LiberationSans-Bold.ttf
  4

  0
STYLE
  5
50
330
5
100
AcDbSymbolTableRecord
100
AcDbTextStyleTableRecord
  2
LiberationSans-BoldItalic
 70
0
 40
0.0
 41
1.0
 50
0.0
 71
0
 42
2.5
  3
LiberationSans-BoldItalic.ttf
  4

  0
STYLE
  5
51
330
5
100
AcDbSymbolTableRecord
100
AcDbTextStyleTableRecord
  2
LiberationSans-Italic
 70
0
 40
0.0
 41
1.0
 50
0.0
 71
0
 42
2.5
  3
LiberationSans-Italic.ttf
  4

  0
STYLE
  5
52
330
5
100
AcDbSymbolTableRecord
100
AcDbTextStyleTableRecord
  2
LiberationSerif
 70
0
 40
0.0
 41
1.0
 50
0.0
 71
0
 42
2.5
  3
LiberationSerif-Regular.ttf
  4

  0
STYLE
  5
53
330
5
100
AcDbSymbolTableRecord
100
AcDbTextStyleTableRecord
  2
LiberationSerif-Bold
 70
0
 40
0.0
 41
1.0
 50
0.0
 71
0
 42
2.5
  3
LiberationSerif-Bold.ttf
  4

  0
STYLE
  5
54
330
5
100
AcDbSymbolTableRecord
100
AcDbTextStyleTableRecord
  2
LiberationSerif-BoldItalic
 70
0
 40
0.0
 41
1.0
 50
0.0
 71
0
 42
2.5
  3
LiberationSerif-BoldItalic.ttf
  4

  0
STYLE
  5
55
330
5
100
AcDbSymbolTableRecord
100
AcDbTextStyleTableRecord
  2
LiberationSerif-Italic
 70
0
 40
0.0
 41
1.0
 50
0.0
 71
0
 42
2.5
  3
LiberationSerif-Italic.ttf
  4

  0
STYLE
  5
56
330
5
100
AcDbSymbolTableRecord
100
AcDbTextStyleTableRecord
  2
LiberationMono
 70
0
 40
0.0
 41
1.0
 50
0.0
 71
0
 42
2.5
  3
LiberationMono-Regular.ttf
  4

  0
STYLE
  5
57
330
5
100
AcDbSymbolTableRecord
100
AcDbTextStyleTableRecord
  2
LiberationMono-Bold
 70
0
 40
0.0
 41
1.0
 50
0.0
 71
0
 42
2.5
  3
LiberationMono-Bold.ttf
  4

  0
STYLE
  5
58
330
5
100
AcDbSymbolTableRecord
100
AcDbTextStyleTableRecord
  2
LiberationMono-BoldItalic
 70
0
 40
0.0
 41
1.0
 50
0.0
 71
0
 42
2.5
  3
LiberationMono-BoldItalic.ttf
  4

  0
STYLE
  5
59
330
5
100
AcDbSymbolTableRecord
100
AcDbTextStyleTableRecord
  2
LiberationMono-Italic
 70
0
 40
0.0
 41
1.0
 50
0.0
 71
0
 42
2.5
  3
LiberationMono-Italic.ttf
  4

  0
ENDTAB
  0
TABLE
  2
VIEW
  5
7
330
0
100
AcDbSymbolTable
 70
0
  0
ENDTAB
  0
TABLE
  2
UCS
  5
6
330
0
100
AcDbSymbolTable
 70
0
  0
ENDTAB
  0
TABLE
  2
APPID
  5
3
330
0
100
AcDbSymbolTable
 70
3
  0
APPID
  5
2A
330
3
100
AcDbSymbolTableRecord
100
AcDbRegAppTableRecord
  2
ACAD
 70
0
  0
APPID
  5
13A
330
3
100
AcDbSymbolTableRecord
100
AcDbRegAppTableRecord
  2
HATCHBACKGROUNDCOLOR
 70
0
  0
APPID
  5
13B
330
3
100
AcDbSymbolTableRecord
100
AcDbRegAppTableRecord
  2
EZDXF
 70
0
  0
ENDTAB
  0
TABLE
  2
DIMSTYLE
  5
4
330
0
100
AcDbSymbolTable
 70
12
100
AcDbDimStyleTable
  0
DIMSTYLE
105
2B
330
4
100
AcDbSymbolTableRecord
100
AcDbDimStyleTableRecord
  2
Standard
 70
0
 40
1.0
 41
2.5
 42
0.625
 43
3.75
 44
1.25
 45
0.0
 46
0.0
 47
0.0
 48
0.0
 49
2.5
140
2.5
141
2.5
142
0.0
143
0.03937007874
144
1.0
145
0.0
146
1.0
147
0.625
148
0.0
 69
0
 70
0
 71
0
 72
0
 73
0
 74
0
 75
0
 76
0
 77
1
 78
8
 79
3
170
0
171
3
172
1
173
0
174
0
175
0
176
0
177
0
178
0
179
2
271
2
272
2
273
2
274
3
275
0
276
0
277
2
278
44
279
0
280
0
281
0
282
0
283
0
284
8
285
0
286
0
288
0
289
3
290
0
371
-2
372
-2
  0
DIMSTYLE
105
73
330
4
100
AcDbSymbolTableRecord
100
AcDbDimStyleTableRecord
  2
EZDXF
 70
0
 40
1.0
 41
0.175
 42
0.125
 43
3.75
 44
0.375
 45
0.0
 46
0.0
 47
0.0
 48
0.0
 49
2.5
140
0.25
141
2.5
142
0.0
143
0.03937007874
144
100.0
145
0.0
146
0.5
147
0.1
148
0.0
 69
0
 70
0
 71
0
 72
0
 73
0
 74
0
 75
0
 76
0
 77
1
 78
12
 79
3
170
0
171
3
172
1
173
0
174
0
175
0
176
0
177
0
178
0
179
2
271
2
272
2
273
2
274
3
275
0
276
0
277
2
278
46
279
2
280
0
281
0
282
0
283
0
284
8
285
0
286
0
288
1
289
3
290
0
340
4C
342
74
371
-2
372
-2
  0
DIMSTYLE
105
7C
330
4
100
AcDbSymbolTableRecord
100
AcDbDimStyleTableRecord
  2
EZ_M_100_H25_CM
 70
0
 40
1.0
 41
0.25
 42
0.125
 43
3.75
 44
0.375
 45
0.0
 46
0.0
 47
0.0
 48
0.0
 49
2.5
140
0.25
141
2.5
142
0.125
143
0.03937007874
144
100.0
145
0.0
146
0.5
147
0.1
148
0.0
 69
0
 70
0
 71
0
 72
0
 73
0
 74
0
 75
0
 76
0
 77
1
 78
12
 79
3
170
0
171
3
172
1
173
0
174
0
175
0
176
0
177
0
178
0
179
2
271
2
272
2
273
2
274
3
275
0
276
0
277
2
278
46
279
2
280
0
281
0
282
0
283
0
284
8
285
0
286
0
288
1
289
3
290
0
340
4C
371
-2
372
-2
  0
DIMSTYLE
105
7D
330
4
100
AcDbSymbolTableRecord
100
AcDbDimStyleTableRecord
  2
EZ_M_50_H25_CM
 70
0
 40
1.0
 41
0.125
 42
0.0625
 43
3.75
 44
0.1875
 45
0.0
 46
0.0
 47
0.0
 48
0.0
 49
2.5
140
0.125
141
2.5
142
0.0625
143
0.03937007874
144
100.0
145
0.0
146
0.5
147
0.05
148
0.0
 69
0
 70
0
 71
0
 72
0
 73
0
 74
0
 75
0
 76
0
 77
1
 78
12
 79
3
170
0
171
3
172
1
173
0
174
0
175
0
176
0
177
0
178
0
179
2
271
2
272
2
273
2
274
3
275
0
276
0
277
2
278
46
279
2
280
0
281
0
282
0
283
0
284
8
285
0
286
0
288
1
289
3
290
0
340
4C
371
-2
372
-2
  0
DIMSTYLE
105
7E
330
4
100
AcDbSymbolTableRecord
100
AcDbDimStyleTableRecord
  2
EZ_M_25_H25_CM
 70
0
 40
1.0
 41
0.0625
 42
0.03125
 43
3.75
 44
0.09375
 45
0.0
 46
0.0
 47
0.0
 48
0.0
 49
2.5
140
0.0625
141
2.5
142
0.03125
143
0.03937007874
144
100.0
145
0.0
146
0.5
147
0.025
148
0.0
 69
0
 70
0
 71
0
 72
0
 73
0
 74
0
 75
0
 76
0
 77
1
 78
12
 79
3
170
0
171
3
172
1
173
0
174
0
175
0
176
0
177
0
178
0
179
2
271
2
272
2
273
2
274
3
275
0
276
0
277
2
278
46
279
2
280
0
281
0
282
0
283
0
284
8
285
0
286
0
288
1
289
3
290
0
340
4C
371
-2
372
-2
  0
DIMSTYLE
105
7F
330
4
100
AcDbSymbolTableRecord
100
AcDbDimStyleTableRecord
  2
EZ_M_20_H25_CM
 70
0
 40
1.0
 41
0.05
 42
0.025
 43
3.75
 44
0.07500000000000001
 45
0.0
 46
0.0
 47
0.0
 48
0.0
 49
2.5
140
0.05
141
2.5
142
0.025
143
0.03937007874
144
100.0
145
0.0
146
0.5
147
0.020000000000000004
148
0.0
 69
0
 70
0
 71
0
 72
0
 73
0
 74
0
 75
0
 76
0
 77
1
 78
12
 79
3
170
0
171
3
172
1
173
0
174
0
175
0
176
0
177
0
178
0
179
2
271
2
272
2
273
2
274
3
275
0
276
0
277
2
278
46
279
2
280
0
281
0
282
0
283
0
284
8
285
0
286
0
288
1
289
3
290
0
340
4C
371
-2
372
-2
  0
DIMSTYLE
105
80
330
4
100
AcDbSymbolTableRecord
100
AcDbDimStyleTableRecord
  2
EZ_M_10_H25_CM
 70
0
 40
1.0
 41
0.025
 42
0.0125
 43
3.75
 44
0.037500000000000006
 45
0.0
 46
0.0
 47
0.0
 48
0.0
 49
2.5
140
0.025
141
2.5
142
0.0125
143
0.03937007874
144
100.0
145
0.0
146
0.5
147
0.010000000000000002
148
0.0
 69
0
 70
0
 71
0
 72
0
 73
0
 74
0
 75
0
 76
0
 77
1
 78
12
 79
3
170
0
171
3
172
1
173
0
174
0
175
0
176
0
177
0
178
0
179
2
271
2
272
2
273
2
274
3
275
0
276
0
277
2
278
46
279
2
280
0
281
0
282
0
283
0
284
8
285
0
286
0
288
1
289
3
290
0
340
4C
371
-2
372
-2
  0
DIMSTYLE
105
81
330
4
100
AcDbSymbolTableRecord
100
AcDbDimStyleTableRecord
  2
EZ_M_5_H25_CM
 70
0
 40
1.0
 41
0.0125
 42
0.00625
 43
3.75
 44
0.018750000000000003
 45
0.0
 46
0.0
 47
0.0
 48
0.0
 49
2.5
140
0.0125
141
2.5
142
0.00625
143
0.03937007874
144
100.0
145
0.0
146
0.5
147
0.005000000000000001
148
0.0
 69
0
 70
0
 71
0
 72
0
 73
0
 74
0
 75
0
 76
0
 77
1
 78
12
 79
3
170
0
171
3
172
1
173
0
174
0
175
0
176
0
177
0
178
0
179
2
271
2
272
2
273
2
274
3
275
0
276
0
277
2
278
46
279
2
280
0
281
0
282
0
283
0
284
8
285
0
286
0
288
1
289
3
290
0
340
4C
371
-2
372
-2
  0
DIMSTYLE
105
82
330
4
100
AcDbSymbolTableRecord
100
AcDbDimStyleTableRecord
  2
EZ_M_1_H25_CM
 70
0
 40
1.0
 41
0.0025
 42
0.00125
 43
3.75
 44
0.00375
 45
0.0
 46
0.0
 47
0.0
 48
0.0
 49
2.5
140
0.0025
141
2.5
142
0.00125
143
0.03937007874
144
100.0
145
0.0
146
0.5
147
0.001
148
0.0
 69
0
 70
0
 71
0
 72
0
 73
0
 74
0
 75
0
 76
0
 77
1
 78
12
 79
3
170
0
171
3
172
1
173
0
174
0
175
0
176
0
177
0
178
0
179
2
271
2
272
2
273
2
274
3
275
0
276
0
277
2
278
46
279
2
280
0
281
0
282
0
283
0
284
8
285
0
286
0
288
1
289
3
290
0
340
4C
371
-2
372
-2
  0
DIMSTYLE
105
83
330
4
100
AcDbSymbolTableRecord
100
AcDbDimStyleTableRecord
  2
EZ_RADIUS
 70
0
 40
1.0
 41
0.25
 42
0.125
 43
3.75
 44
0.375
 45
0.0
 46
0.0
 47
0.0
 48
0.0
 49
2.5
140
0.25
141
0.0
142
0.0
143
0.03937007874
144
100.0
145
0.0
146
0.5
147
0.1
148
0.0
 69
0
 70
0
 71
0
 72
0
 73
0
 74
0
 75
0
 76
0
 77
1
 78
12
 79
3
170
0
171
3
172
0
173
0
174
0
175
0
176
0
177
0
178
0
179
2
271
2
272
2
273
2
274
3
275
0
276
0
277
2
278
46
279
1
280
0
281
0
282
0
283
0
284
8
285
0
286
0
288
1
289
3
290
0
340
4C
342
84
371
-2
372
-2
  0
DIMSTYLE
105
88
330
4
100
AcDbSymbolTableRecord
100
AcDbDimStyleTableRecord
  2
EZ_RADIUS_INSIDE
 70
0
 40
1.0
 41
0.25
 42
0.125
 43
3.75
 44
0.375
 45
0.0
 46
0.0
 47
0.0
 48
0.0
 49
2.5
140
0.25
141
0.0
142
0.0
143
0.03937007874
144
100.0
145
0.0
146
0.5
147
0.1
148
0.0
 69
0
 70
0
 71
0
 72
0
 73
0
 74
0
 75
0
 76
0
 77
0
 78
12
 79
3
170
0
171
3
172
0
173
0
174
1
175
0
176
0
177
0
178
0
179
2
271
2
272
2
273
2
274
3
275
0
276
0
277
2
278
46
279
0
280
0
281
0
282
0
283
0
284
8
285
0
286
0
288
1
289
0
290
0
340
4C
342
84
371
-2
372
-2
  0
DIMSTYLE
105
89
330
4
100
AcDbSymbolTableRecord
100
AcDbDimStyleTableRecord
  2
EZ_CURVED
 70
0
 40
1.0
 41
0.25
 42
0.125
 43
3.75
 44
0.375
 45
0.0
 46
0.0
 47
0.0
 48
0.0
 49
2.5
140
0.25
141
2.5
142
0.0
143
0.03937007874
144
100.0
145
0.0
146
0.5
147
0.1
148
0.0
 69
0
 70
0
 71
0
 72
0
 73
0
 74
0
 75
0
 76
0
 77
1
 78
12
 79
2
 90
2
170
0
171
3
172
1
173
0
174
0
175
0
176
0
177
0
178
0
179
2
271
2
272
2
273
2
274
3
275
0
276
0
277
2
278
46
279
2
280
0
281
0
282
0
283
0
284
8
285
0
286
0
288
1
289
3
290
0
340
4C
371
-2
372
-2
  0
ENDTAB
  0
TABLE
  2
BLOCK_RECORD
  5
9
330
0
100
AcDbSymbolTable
 70
5
  0
BLOCK_RECORD
  5
17
330
9
100
AcDbSymbolTableRecord
100
AcDbBlockTableRecord
  2
*Model_Space
340
1A
 70
0
280
1
281
0
  0
BLOCK_RECORD
  5
1B
330
9
100
AcDbSymbolTableRecord
100
AcDbBlockTableRecord
  2
*Paper_Space
340
1E
 70
0
280
1
281
0
  0
BLOCK_RECORD
  5
74
330
9
100
AcDbSymbolTableRecord
100
AcDbBlockTableRecord
  2
_ARCHTICK
340
0
 70
0
280
1
281
0
  0
BLOCK_RECORD
  5
78
330
9
100
AcDbSymbolTableRecord
100
AcDbBlockTableRecord
  2
_CLOSEDFILLED
340
0
 70
0
280
1
281
0
  0
BLOCK_RECORD
  5
84
330
9
100
AcDbSymbolTableRecord
100
AcDbBlockTableRecord
  2
_CLOSEDBLANK
340
0
 70
0
280
1
281
0
  0
ENDTAB
  0
ENDSEC
  0
SECTION
  2
BLOCKS
  0
BLOCK
  5
18
330
17
100
AcDbEntity
  8
0
100
AcDbBlockBegin
  2
*Model_Space
 70
0
 10
0.0
 20
0.0
 30
0.0
  3
*Model_Space
  1

  0
ENDBLK
  5
19
330
17
100
AcDbEntity
  8
0
100
AcDbBlockEnd
  0
BLOCK
  5
1C
330
1B
100
AcDbEntity
  8
0
100
AcDbBlockBegin
  2
*Paper_Space
 70
0
 10
0.0
 20
0.0
 30
0.0
  3
*Paper_Space
  1

  0
ENDBLK
  5
1D
330
1B
100
AcDbEntity
  8
0
100
AcDbBlockEnd
  0
BLOCK
  5
75
330
74
100
AcDbEntity
  8
0
100
AcDbBlockBegin
  2
_ARCHTICK
 70
0
 10
0.0
 20
0.0
 30
0.0
  3
_ARCHTICK
  1

  0
LWPOLYLINE
  5
77
330
74
100
AcDbEntity
  8
0
  6
BYBLOCK
 62
0
100
AcDbPolyline
 90
2
 70
0
 43
0.15
 10
-0.5
 20
-0.5
 10
0.5
 20
0.5
  0
ENDBLK
  5
76
330
74
100
AcDbEntity
  8
0
100
AcDbBlockEnd
  0
BLOCK
  5
79
330
78
100
AcDbEntity
  8
0
100
AcDbBlockBegin
  2
_CLOSEDFILLED
 70
0
 10
0.0
 20
0.0
 30
0.0
  3
_CLOSEDFILLED
  1

  0
SOLID
  5
7B
330
78
100
AcDbEntity
  8
0
  6
BYBLOCK
 62
0
100
AcDbTrace
 10
-1.0
 20
0.16439898372402537
 30
0.0
 11
0.0
 21
0.0
 31
0.0
 12
-1.0
 22
-0.16439898372402537
 32
0.0
 13
-1.0
 23
-0.16439898372402537
 33
0.0
  0
ENDBLK
  5
7A
330
78
100
AcDbEntity
  8
0
100
AcDbBlockEnd
  0
BLOCK
  5
85
330
84
100
AcDbEntity
  8
0
100
AcDbBlockBegin
  2
_CLOSEDBLANK
 70
0
 10
0.0
 20
0.0
 30
0.0
  3
_CLOSEDBLANK
  1

  0
LWPOLYLINE
  5
87
330
84
100
AcDbEntity
  8
0
  6
BYBLOCK
 62
0
100
AcDbPolyline
 90
3
 70
1
 10
-1.0
 20
0.16439898372402537
 10
0.0
 20
0.0
 10
-1.0
 20
-0.16439898372402537
  0
ENDBLK
  5
86
330
84
100
AcDbEntity
  8
0
100
AcDbBlockEnd
  0
ENDSEC
  0
SECTION
  2
ENTITIES
  0
LWPOLYLINE
  5
8E
330
17
100
AcDbEntity
  8
REFERENCE-SHEET
100
AcDbPolyline
 90
4
 70
1
 10
0.0
 20
0.0
 10
2440.0
 20
0.0
 10
2440.0
 20
1220.0
 10
0.0
 20
1220.0
  0
TEXT
  5
8F
330
17
100
AcDbEntity
  8
REFERENCE-SHEET
100
AcDbText
 10
0.0
 20
1275.0
 30
0.0
 40
40.0
  1
17 mm BOARD - SHEET 1/1 - 2440 x 1220  (kerf side = BACK face, show face down)
 11
0.0
 21
1275.0
 31
0.0
100
AcDbText
  0
LWPOLYLINE
  5
90
330
17
100
AcDbEntity
  8
CUT
100
AcDbPolyline
 90
4
 70
1
 10
807.6762893210657
 20
21.1781394492034
 10
1144.825219037117
 20
342.4733295646502
 42
0.4283865023507377
 10
20.99545331694594
 20
342.4733295646502
 10
358.1443830329972
 20
21.1781394492034
 42
-0.4283865023507377
  0
LWPOLYLINE
  5
91
330
17
100
AcDbEntity
  8
POCKET-KERF-15
100
AcDbPolyline
 90
4
 70
1
 10
794.2781235787237
 20
26.168153401508057
 10
798.5558565362865
 20
21.96089767552923
 10
1133.5412323979228
 20
362.55773227641834
 10
1129.2634994403602
 20
366.7649880023973
  0
LWPOLYLINE
  5
92
330
17
100
AcDbEntity
  8
POCKET-KERF-15
100
AcDbPolyline
 90
4
 70
1
 10
787.0715600245136
 20
32.895915622179444
 10
791.483253086193
 20
28.82934897087156
 10
1115.2668419332535
 20
380.0922040731795
 10
1110.8551488715739
 20
384.1587707244875
  0
LWPOLYLINE
  5
93
330
17
100
AcDbEntity
  8
POCKET-KERF-15
100
AcDbPolyline
 90
4
 70
1
 10
779.6509746833942
 20
39.386852068789224
 10
784.1920030805171
 20
35.465237465526414
 10
1096.4343832493232
 20
397.0258849478348
 10
1091.8933548522002
 20
400.9474995510975
  0
LWPOLYLINE
  5
94
330
17
100
AcDbEntity
  8
POCKET-KERF-15
100
AcDbPolyline
 90
4
 70
1
 10
772.0241465395659
 20
45.63415830614238
 10
776.6897499214953
 20
41.861606771367946
 10
1077.0635983734544
 20
413.3410233578953
 10
1072.3979949915251
 20
417.1135748926698
  0
LWPOLYLINE
  5
95
330
17
100
AcDbEntity
  8
POCKET-KERF-15
100
AcDbPolyline
 90
4
 70
1
 10
764.1990707811306
 20
51.63128529608609
 10
768.9843582055319
 20
48.0117515877382
 10
1057.1747936591992
 20
429.0205161776527
 10
1052.3895062347979
 20
432.64004988600067
  0
LWPOLYLINE
  5
96
330
17
100
AcDbEntity
  8
POCKET-KERF-15
100
AcDbPolyline
 90
4
 70
1
 10
756.1839504187529
 20
57.37194626285308
 10
761.0839054787584
 20
53.90922473060031
 10
1036.7888184992294
 20
444.0479266273511
 10
1031.8888634392238
 20
447.5106481596039
  0
LWPOLYLINE
  5
97
330
17
100
AcDbEntity
  8
POCKET-KERF-15
100
AcDbPolyline
 90
4
 70
1
 10
747.9871876864611
 20
62.850123283475476
 10
752.9966737693586
 20
59.54784389110787
 10
1015.9270434689627
 20
458.4075015038286
 10
1010.9175573860653
 20
461.7097808961962
  0
LWPOLYLINE
  5
98
330
17
100
AcDbEntity
  8
POCKET-KERF-15
100
AcDbPolyline
 90
4
 70
1
 10
739.6173752336024
 20
68.06007359636084
 10
744.7311409055362
 20
64.92169811650655
 10
994.6113379238332
 20
472.08418769456716
 10
989.4975722518993
 20
475.22256317442157
  0
LWPOLYLINE
  5
99
330
17
100
AcDbEntity
  8
POCKET-KERF-15
100
AcDbPolyline
 90
4
 70
1
 10
731.0832871171867
 20
72.99633562141751
 10
736.2959716282244
 20
70.0251540065734
 10
972.86404707369
 20
485.0636479578404
 10
967.6513625626523
 20
488.0348295726844
  0
LWPOLYLINE
  5
9A
330
17
100
AcDbEntity
  8
POCKET-KERF-15
100
AcDbPolyline
 90
4
 70
1
 10
722.393869604061
 20
77.65373468541738
 10
727.7000085078566
 20
74.85286161909916
 10
950.7079685583614
 20
497.33227595241283
 10
945.4018296545657
 20
500.13314901873105
  0
LWPOLYLINE
  5
9B
330
17
100
AcDbEntity
  8
POCKET-KERF-15
100
AcDbPolyline
 90
4
 70
1
 10
713.5582317925558
 20
82.02738844659518
 10
718.9522626747175
 20
79.39976007822077
 10
928.1663285489361
 20
508.8772105010402
 10
922.7722976667744
 20
511.50483886941464
  0
LWPOLYLINE
  5
9C
330
17
100
AcDbEntity
  8
POCKET-KERF-15
100
AcDbPolyline
 90
4
 70
1
 10
704.5856360634375
 20
86.1127120127974
 10
710.0619043725951
 20
83.66108287972762
 10
905.2627573998166
 20
519.6863490728144
 10
899.786489090659
 20
522.1379782058843
  0
LWPOLYLINE
  5
9D
330
17
100
AcDbEntity
  8
POCKET-KERF-15
100
AcDbPolyline
 90
4
 70
1
 10
695.4854883701719
 20
89.90542274781494
 10
701.0382533456312
 20
87.63236288777789
 10
882.0212648770661
 20
529.748360470222
 10
876.4684999016068
 20
532.0214203302592
  0
LWPOLYLINE
  5
9E
330
17
100
AcDbEntity
  8
POCKET-KERF-15
100
AcDbPolyline
 90
4
 70
1
 10
686.2673283786849
 20
93.40154476086187
 10
691.8907690684555
 20
91.30943701778759
 10
858.4662149890237
 20
539.0526967076138
 10
852.842774299253
 20
541.1448044506882
  0
LWPOLYLINE
  5
9F
330
17
100
AcDbEntity
  8
POCKET-KERF-15
100
AcDbPolyline
 90
4
 70
1
 10
676.940819466949
 20
96.59741307449343
 10
682.629040829836
 20
94.68845060058362
 10
834.6223004455619
 20
547.5896040686375
 10
828.9340790826749
 20
549.4985665425475
  0
LWPOLYLINE
  5
A0
330
17
100
AcDbEntity
  8
POCKET-KERF-15
100
AcDbPolyline
 90
4
 70
1
 10
667.515738594885
 20
99.48967746659443
 10
673.2627776802482
 20
97.76586142324547
 10
810.5145167727719
 20
555.3501333310383
 10
804.7674776874087
 20
557.0739493743872
  0
LWPOLYLINE
  5
A1
330
17
100
AcDbEntity
  8
POCKET-KERF-15
100
AcDbPolyline
 90
4
 70
1
 10
658.0019660551947
 20
102.07530598240987
 10
663.8017982538977
 20
100.53844344239963
 10
786.1681361102059
 20
562.3261491481092
 10
780.3683039115028
 20
563.8630116881195
  0
LWPOLYLINE
  5
A2
330
17
100
AcDbEntity
  8
POCKET-KERF-15
100
AcDbPolyline
 90
4
 70
1
 10
648.409475115871
 20
104.35158811293721
 10
654.2560204758665
 20
103.00329016607421
 10
761.608680718143
 20
568.5103385769587
 10
755.7621353581475
 20
569.8586365238218
  0
LWPOLYLINE
  5
A3
330
17
100
AcDbEntity
  8
POCKET-KERF-15
100
AcDbPolyline
 90
4
 70
1
 10
638.7483215652418
 20
106.31613763634685
 10
644.6354511651723
 20
105.15781770056832
 10
736.8618962226607
 20
573.8962187446532
 10
730.9747666227302
 20
575.0545386804317
  0
LWPOLYLINE
  5
A4
330
17
100
AcDbEntity
  8
POCKET-KERF-15
100
AcDbPolyline
 90
4
 70
1
 10
629.0286331705078
 20
107.96689511945384
 10
634.9501755446414
 20
106.9997674591426
 10
711.9537246265453
 20
578.4781436441996
 10
706.0321822524116
 20
579.4452713045108
  0
LWPOLYLINE
  5
A5
330
17
100
AcDbEntity
  8
POCKET-KERF-15
100
AcDbPolyline
 90
4
 70
1
 10
619.2605990608246
 20
109.30213007661725
 10
625.2103466685899
 20
108.52720852969095
 10
686.910277114346
 20
582.2513100532424
 10
680.9605295065807
 20
583.0262316001688
  0
LWPOLYLINE
  5
A6
330
17
100
AcDbEntity
  8
POCKET-KERF-15
100
AcDbPolyline
 90
4
 70
1
 10
609.4544590460613
 20
110.32044278380495
 10
615.4261747793989
 20
109.73853969891157
 10
661.7578066800738
 20
585.2117625692721
 10
655.7860909467362
 20
585.7936656541655
  0
LWPOLYLINE
  5
A7
330
17
100
AcDbEntity
  8
POCKET-KERF-15
100
AcDbPolyline
 90
4
 70
1
 10
599.6204928824274
 20
111.02076574592101
 10
605.6079166041374
 20
110.63249113085587
 10
636.5226806062419
 20
587.3563977560652
 10
630.5352568845319
 20
587.7446723711305
  0
LWPOLYLINE
  5
A8
330
17
100
AcDbEntity
  8
POCKET-KERF-15
100
AcDbPolyline
 90
4
 70
1
 10
589.7690094962269
 20
111.40236481585885
 10
595.765864602458
 20
111.20812569809436
 10
611.2313528231001
 20
588.6829673970099
 10
605.234497716869
 20
588.8772065147743
  0
LWPOLYLINE
  5
A9
330
17
100
AcDbEntity
  8
POCKET-KERF-15
100
AcDbPolyline
 90
4
 70
1
 10
579.9103361770315
 20
111.46483996410603
 10
585.9103361770315
 20
111.46483996410603
 10
585.9103361770315
 20
589.1900808519067
 10
579.9103361770315
 20
589.1900808519067
  0
LWPOLYLINE
  5
AA
330
17
100
AcDbEntity
  8
POCKET-KERF-15
100
AcDbPolyline
 90
4
 70
1
 10
570.054807751605
 20
111.20812569809436
 10
576.0516628578362
 20
111.40236481585885
 10
560.5861746371942
 20
588.8772065147743
 10
554.589319530963
 20
588.6829673970099
  0
LWPOLYLINE
  5
AB
330
17
100
AcDbEntity
  8
POCKET-KERF-15
100
AcDbPolyline
 90
4
 70
1
 10
560.2127557499256
 20
110.63249113085587
 10
566.2001794716356
 20
111.02076574592101
 10
535.2854154695311
 20
587.7446723711305
 10
529.2979917478211
 20
587.3563977560652
  0
LWPOLYLINE
  5
AC
330
17
100
AcDbEntity
  8
POCKET-KERF-15
100
AcDbPolyline
 90
4
 70
1
 10
550.3944975746641
 20
109.73853969891157
 10
556.3662133080016
 20
110.32044278380495
 10
510.03458140732687
 20
585.7936656541655
 10
504.0628656739893
 20
585.2117625692721
  0
LWPOLYLINE
  5
AD
330
17
100
AcDbEntity
  8
POCKET-KERF-15
100
AcDbPolyline
 90
4
 70
1
 10
540.6103256854731
 20
108.52720852969095
 10
546.5600732932384
 20
109.30213007661725
 10
484.86014284748245
 20
583.0262316001688
 10
478.91039523971716
 20
582.2513100532424
  0
LWPOLYLINE
  5
AE
330
17
100
AcDbEntity
  8
POCKET-KERF-15
100
AcDbPolyline
 90
4
 70
1
 10
530.8704968094215
 20
106.9997674591426
 10
536.7920391835552
 20
107.96689511945384
 10
459.7884901016514
 20
579.4452713045108
 10
453.8669477275177
 20
578.4781436441996
  0
LWPOLYLINE
  5
AF
330
17
100
AcDbEntity
  8
POCKET-KERF-15
100
AcDbPolyline
 90
4
 70
1
 10
521.1852211888908
 20
105.15781770056832
 10
527.0723507888212
 20
106.31613763634685
 10
434.84590573133306
 20
575.054538680432
 10
428.95877613140254
 20
573.8962187446534
  0
LWPOLYLINE
  5
B0
330
17
100
AcDbEntity
  8
POCKET-KERF-15
100
AcDbPolyline
 90
4
 70
1
 10
511.56465187819646
 20
103.00329016607427
 10
517.411197238192
 20
104.35158811293726
 10
410.0585369959156
 20
569.8586365238218
 10
404.21199163592007
 20
568.5103385769587
  0
LWPOLYLINE
  5
B1
330
17
100
AcDbEntity
  8
POCKET-KERF-15
100
AcDbPolyline
 90
4
 70
1
 10
502.0188741001652
 20
100.53844344239963
 10
507.8187062988683
 20
102.07530598240987
 10
385.4523684425604
 20
563.8630116881195
 10
379.65253624385724
 20
562.3261491481092
  0
LWPOLYLINE
  5
B2
330
17
100
AcDbEntity
  8
POCKET-KERF-15
100
AcDbPolyline
 90
4
 70
1
 10
492.55789467381487
 20
97.76586142324547
 10
498.30493375917814
 20
99.48967746659443
 10
361.05319466665424
 20
557.0739493743874
 10
355.306155581291
 20
555.3501333310385
  0
LWPOLYLINE
  5
B3
330
17
100
AcDbEntity
  8
POCKET-KERF-15
100
AcDbPolyline
 90
4
 70
1
 10
483.19163152422703
 20
94.68845060058362
 10
488.879852887114
 20
96.59741307449343
 10
336.88659327138805
 20
549.4985665425475
 10
331.19837190850103
 20
547.5896040686375
  0
LWPOLYLINE
  5
B4
330
17
100
AcDbEntity
  8
POCKET-KERF-15
100
AcDbPolyline
 90
4
 70
1
 10
473.9299032856075
 20
91.30943701778764
 10
479.5533439753782
 20
93.40154476086192
 10
312.97789805481017
 20
541.1448044506882
 10
307.35445736503954
 20
539.0526967076138
  0
LWPOLYLINE
  5
B5
330
17
100
AcDbEntity
  8
POCKET-KERF-15
100
AcDbPolyline
 90
4
 70
1
 10
464.7824190084317
 20
87.63236288777794
 10
470.33518398389106
 20
89.905422747815
 10
289.3521724524562
 20
532.0214203302592
 10
283.79940747699686
 20
529.748360470222
  0
LWPOLYLINE
  5
B6
330
17
100
AcDbEntity
  8
POCKET-KERF-15
100
AcDbPolyline
 90
4
 70
1
 10
455.758767981468
 20
83.66108287972767
 10
461.23503629062554
 20
86.11271201279746
 10
266.0341832634041
 20
522.1379782058846
 10
260.5579149542465
 20
519.6863490728147
  0
LWPOLYLINE
  5
B7
330
17
100
AcDbEntity
  8
POCKET-KERF-15
100
AcDbPolyline
 90
4
 70
1
 10
446.8684096793454
 20
79.39976007822082
 10
452.26244056150705
 20
82.02738844659524
 10
243.0483746872886
 20
511.50483886941475
 10
237.6543438051269
 20
508.87721050104034
  0
LWPOLYLINE
  5
B8
330
17
100
AcDbEntity
  8
POCKET-KERF-15
100
AcDbPolyline
 90
4
 70
1
 10
438.12066384620636
 20
74.85286161909916
 10
443.42680275000197
 20
77.65373468541738
 10
220.41884269949725
 20
500.13314901873105
 10
215.11270379570163
 20
497.33227595241283
  0
LWPOLYLINE
  5
B9
330
17
100
AcDbEntity
  8
POCKET-KERF-15
100
AcDbPolyline
 90
4
 70
1
 10
429.5247007258385
 20
70.0251540065734
 10
434.73738523687615
 20
72.99633562141751
 10
198.16930979141074
 20
488.0348295726844
 10
192.95662528037298
 20
485.0636479578404
  0
LWPOLYLINE
  5
BA
330
17
100
AcDbEntity
  8
POCKET-KERF-15
100
AcDbPolyline
 90
4
 70
1
 10
421.08953144852677
 20
64.92169811650655
 10
426.2032971204606
 20
68.06007359636084
 10
176.3231001021637
 20
475.22256317442157
 10
171.20933443022986
 20
472.08418769456716
  0
LWPOLYLINE
  5
BB
330
17
100
AcDbEntity
  8
POCKET-KERF-15
100
AcDbPolyline
 90
4
 70
1
 10
412.8239985847043
 20
59.54784389110787
 10
417.83348466760185
 20
62.850123283475476
 10
154.90311496799774
 20
461.7097808961961
 10
149.8936288851002
 20
458.4075015038285
  0
LWPOLYLINE
  5
BC
330
17
100
AcDbEntity
  8
POCKET-KERF-15
100
AcDbPolyline
 90
4
 70
1
 10
404.7367668753047
 20
53.909224730600336
 10
409.63672193531016
 20
57.37194626285311
 10
133.93180891483934
 20
447.510648159604
 10
129.03185385483386
 20
444.0479266273512
  0
LWPOLYLINE
  5
BD
330
17
100
AcDbEntity
  8
POCKET-KERF-15
100
AcDbPolyline
 90
4
 70
1
 10
396.8363141485312
 20
48.01175158773829
 10
401.6216015729325
 20
51.631285296086176
 10
113.43116611926551
 20
432.6400498860009
 10
108.64587869486421
 20
429.02051617765295
  0
LWPOLYLINE
  5
BE
330
17
100
AcDbEntity
  8
POCKET-KERF-15
100
AcDbPolyline
 90
4
 70
1
 10
389.1309224325677
 20
41.861606771368
 10
393.79652581449716
 20
45.63415830614244
 10
93.42267736253812
 20
417.11357489266993
 10
88.75707398060875
 20
413.34102335789544
  0
LWPOLYLINE
  5
BF
330
17
100
AcDbEntity
  8
POCKET-KERF-15
100
AcDbPolyline
 90
4
 70
1
 10
381.628669273546
 20
35.46523746552647
 10
386.16969767066877
 20
39.38685206878928
 10
73.92731750186286
 20
400.9474995510976
 10
69.38628910473997
 20
397.0258849478349
  0
LWPOLYLINE
  5
C0
330
17
100
AcDbEntity
  8
POCKET-KERF-15
100
AcDbPolyline
 90
4
 70
1
 10
374.33741926787
 20
28.82934897087165
 10
378.74911232954946
 20
32.89591562217953
 10
54.96552348248915
 20
384.15877072448774
 10
50.5538304208097
 20
380.09220407317974
  0
LWPOLYLINE
  5
C1
330
17
100
AcDbEntity
  8
POCKET-KERF-15
100
AcDbPolyline
 90
4
 70
1
 10
367.26481581777654
 20
21.96089767552929
 10
371.54254877533924
 20
26.168153401508114
 10
36.557172913703006
 20
366.7649880023974
 10
32.27943995614036
 20
362.55773227641845
  0
LWPOLYLINE
  5
C2
330
17
100
AcDbEntity
  8
POCKET-KERF-15
100
AcDbPolyline
 90
4
 70
1
 10
806.6901694900683
 20
13.51577077555577
 10
802.5508809751967
 20
17.85930511876662
 10
1148.3868793776696
 20
347.4330722639566
 10
1152.5261678925413
 20
343.08953792074584
  0
LWPOLYLINE
  5
C3
330
17
100
AcDbEntity
  8
POCKET-KERF-15
100
AcDbPolyline
 90
4
 70
1
 10
359.13050286399465
 20
13.51577077555577
 10
363.2697913788662
 20
17.85930511876662
 10
17.433792976393203
 20
347.4330722639566
 10
13.29450446152158
 20
343.08953792074584
  0
TEXT
  5
C4
330
17
100
AcDbEntity
  8
ENGRAVE-LABEL
100
AcDbText
 10
546.2825265447069
 20
560.5415641005479
 30
0.0
 40
7.0
  1
01 1/2
 50
90.0
 72
1
 11
546.2825265447069
 21
560.5415641005479
 31
0.0
100
AcDbText
 73
2
  0
LWPOLYLINE
  5
C5
330
17
100
AcDbEntity
  8
CUT
100
AcDbPolyline
 90
4
 70
1
 10
807.6762893210657
 20
565.1781394492034
 10
1144.825219037117
 20
886.4733295646502
 42
0.4283865023507377
 10
20.99545331694594
 20
886.4733295646502
 10
358.1443830329972
 20
565.1781394492034
 42
-0.4283865023507377
  0
LWPOLYLINE
  5
C6
330
17
100
AcDbEntity
  8
POCKET-KERF-15
100
AcDbPolyline
 90
4
 70
1
 10
794.2781235787237
 20
570.1681534015081
 10
798.5558565362865
 20
565.9608976755293
 10
1133.5412323979228
 20
906.5577322764183
 10
1129.2634994403602
 20
910.7649880023972
  0
LWPOLYLINE
  5
C7
330
17
100
AcDbEntity
  8
POCKET-KERF-15
100
AcDbPolyline
 90
4
 70
1
 10
787.0715600245136
 20
576.8959156221794
 10
791.483253086193
 20
572.8293489708716
 10
1115.2668419332535
 20
924.0922040731795
 10
1110.8551488715739
 20
928.1587707244875
  0
LWPOLYLINE
  5
C8
330
17
100
AcDbEntity
  8
POCKET-KERF-15
100
AcDbPolyline
 90
4
 70
1
 10
779.6509746833942
 20
583.3868520687892
 10
784.1920030805171
 20
579.4652374655263
 10
1096.4343832493232
 20
941.0258849478348
 10
1091.8933548522002
 20
944.9474995510975
  0
LWPOLYLINE
  5
C9
330
17
100
AcDbEntity
  8
POCKET-KERF-15
100
AcDbPolyline
 90
4
 70
1
 10
772.0241465395659
 20
589.6341583061424
 10
776.6897499214953
 20
585.861606771368
 10
1077.0635983734544
 20
957.3410233578952
 10
1072.3979949915251
 20
961.1135748926697
  0
LWPOLYLINE
  5
CA
330
17
100
AcDbEntity
  8
POCKET-KERF-15
100
AcDbPolyline
 90
4
 70
1
 10
764.1990707811306
 20
595.631285296086
 10
768.9843582055319
 20
592.0117515877382
 10
1057.1747936591992
 20
973.0205161776528
 10
1052.3895062347979
 20
976.6400498860007
  0
LWPOLYLINE
  5
CB
330
17
100
AcDbEntity
  8
POCKET-KERF-15
100
AcDbPolyline
 90
4
 70
1
 10
756.1839504187529
 20
601.371946262853
 10
761.0839054787584
 20
597.9092247306003
 10
1036.7888184992294
 20
988.0479266273511
 10
1031.8888634392238
 20
991.5106481596039
  0
LWPOLYLINE
  5
CC
330
17
100
AcDbEntity
  8
POCKET-KERF-15
100
AcDbPolyline
 90
4
 70
1
 10
747.9871876864611
 20
606.8501232834755
 10
752.9966737693586
 20
603.5478438911078
 10
1015.9270434689627
 20
1002.4075015038285
 10
1010.9175573860653
 20
1005.7097808961961
  0
LWPOLYLINE
  5
CD
330
17
100
AcDbEntity
  8
POCKET-KERF-15
100
AcDbPolyline
 90
4
 70
1
 10
739.6173752336024
 20
612.0600735963609
 10
744.7311409055362
 20
608.9216981165066
 10
994.6113379238332
 20
1016.084187694567
 10
989.4975722518993
 20
1019.2225631744215
  0
LWPOLYLINE
  5
CE
330
17
100
AcDbEntity
  8
POCKET-KERF-15
100
AcDbPolyline
 90
4
 70
1
 10
731.0832871171867
 20
616.9963356214175
 10
736.2959716282244
 20
614.0251540065734
 10
972.86404707369
 20
1029.0636479578404
 10
967.6513625626523
 20
1032.0348295726844
  0
LWPOLYLINE
  5
CF
330
17
100
AcDbEntity
  8
POCKET-KERF-15
100
AcDbPolyline
 90
4
 70
1
 10
722.393869604061
 20
621.6537346854174
 10
727.7000085078566
 20
618.8528616190991
 10
950.7079685583614
 20
1041.3322759524128
 10
945.4018296545657
 20
1044.133149018731
  0
LWPOLYLINE
  5
D0
330
17
100
AcDbEntity
  8
POCKET-KERF-15
100
AcDbPolyline
 90
4
 70
1
 10
713.5582317925558
 20
626.0273884465952
 10
718.9522626747175
 20
623.3997600782208
 10
928.1663285489361
 20
1052.8772105010403
 10
922.7722976667744
 20
1055.5048388694147
  0
LWPOLYLINE
  5
D1
330
17
100
AcDbEntity
  8
POCKET-KERF-15
100
AcDbPolyline
 90
4
 70
1
 10
704.5856360634375
 20
630.1127120127974
 10
710.0619043725951
 20
627.6610828797277
 10
905.2627573998166
 20
1063.6863490728144
 10
899.786489090659
 20
1066.1379782058843
  0
LWPOLYLINE
  5
D2
330
17
100
AcDbEntity
  8
POCKET-KERF-15
100
AcDbPolyline
 90
4
 70
1
 10
695.4854883701719
 20
633.9054227478149
 10
701.0382533456312
 20
631.6323628877778
 10
882.0212648770661
 20
1073.748360470222
 10
876.4684999016068
 20
1076.0214203302592
  0
LWPOLYLINE
  5
D3
330
17
100
AcDbEntity
  8
POCKET-KERF-15
100
AcDbPolyline
 90
4
 70
1
 10
686.2673283786849
 20
637.4015447608618
 10
691.8907690684555
 20
635.3094370177876
 10
858.4662149890237
 20
1083.0526967076137
 10
852.842774299253
 20
1085.144804450688
  0
LWPOLYLINE
  5
D4
330
17
100
AcDbEntity
  8
POCKET-KERF-15
100
AcDbPolyline
 90
4
 70
1
 10
676.940819466949
 20
640.5974130744935
 10
682.629040829836
 20
638.6884506005836
 10
834.6223004455619
 20
1091.5896040686375
 10
828.9340790826749
 20
1093.4985665425475
  0
LWPOLYLINE
  5
D5
330
17
100
AcDbEntity
  8
POCKET-KERF-15
100
AcDbPolyline
 90
4
 70
1
 10
667.515738594885
 20
643.4896774665945
 10
673.2627776802482
 20
641.7658614232455
 10
810.5145167727719
 20
1099.3501333310383
 10
804.7674776874087
 20
1101.0739493743872
  0
LWPOLYLINE
  5
D6
330
17
100
AcDbEntity
  8
POCKET-KERF-15
100
AcDbPolyline
 90
4
 70
1
 10
658.0019660551947
 20
646.0753059824099
 10
663.8017982538977
 20
644.5384434423996
 10
786.1681361102059
 20
1106.3261491481092
 10
780.3683039115028
 20
1107.8630116881195
  0
LWPOLYLINE
  5
D7
330
17
100
AcDbEntity
  8
POCKET-KERF-15
100
AcDbPolyline
 90
4
 70
1
 10
648.409475115871
 20
648.3515881129372
 10
654.2560204758665
 20
647.0032901660743
 10
761.608680718143
 20
1112.5103385769587
 10
755.7621353581475
 20
1113.8586365238218
  0
LWPOLYLINE
  5
D8
330
17
100
AcDbEntity
  8
POCKET-KERF-15
100
AcDbPolyline
 90
4
 70
1
 10
638.7483215652418
 20
650.3161376363469
 10
644.6354511651723
 20
649.1578177005683
 10
736.8618962226607
 20
1117.8962187446532
 10
730.9747666227302
 20
1119.0545386804317
  0
LWPOLYLINE
  5
D9
330
17
100
AcDbEntity
  8
POCKET-KERF-15
100
AcDbPolyline
 90
4
 70
1
 10
629.0286331705078
 20
651.9668951194539
 10
634.9501755446414
 20
650.9997674591426
 10
711.9537246265453
 20
1122.4781436441995
 10
706.0321822524116
 20
1123.4452713045107
  0
LWPOLYLINE
  5
DA
330
17
100
AcDbEntity
  8
POCKET-KERF-15
100
AcDbPolyline
 90
4
 70
1
 10
619.2605990608246
 20
653.3021300766172
 10
625.2103466685899
 20
652.527208529691
 10
686.910277114346
 20
1126.2513100532424
 10
680.9605295065807
 20
1127.0262316001688
  0
LWPOLYLINE
  5
DB
330
17
100
AcDbEntity
  8
POCKET-KERF-15
100
AcDbPolyline
 90
4
 70
1
 10
609.4544590460613
 20
654.320442783805
 10
615.4261747793989
 20
653.7385396989116
 10
661.7578066800738
 20
1129.2117625692722
 10
655.7860909467362
 20
1129.7936656541656
  0
LWPOLYLINE
  5
DC
330
17
100
AcDbEntity
  8
POCKET-KERF-15
100
AcDbPolyline
 90
4
 70
1
 10
599.6204928824274
 20
655.020765745921
 10
605.6079166041374
 20
654.6324911308559
 10
636.5226806062419
 20
1131.3563977560652
 10
630.5352568845319
 20
1131.7446723711305
  0
LWPOLYLINE
  5
DD
330
17
100
AcDbEntity
  8
POCKET-KERF-15
100
AcDbPolyline
 90
4
 70
1
 10
589.7690094962269
 20
655.4023648158588
 10
595.765864602458
 20
655.2081256980944
 10
611.2313528231001
 20
1132.6829673970099
 10
605.234497716869
 20
1132.8772065147743
  0
LWPOLYLINE
  5
DE
330
17
100
AcDbEntity
  8
POCKET-KERF-15
100
AcDbPolyline
 90
4
 70
1
 10
579.9103361770315
 20
655.464839964106
 10
585.9103361770315
 20
655.464839964106
 10
585.9103361770315
 20
1133.1900808519067
 10
579.9103361770315
 20
1133.1900808519067
  0
LWPOLYLINE
  5
DF
330
17
100
AcDbEntity
  8
POCKET-KERF-15
100
AcDbPolyline
 90
4
 70
1
 10
570.054807751605
 20
655.2081256980944
 10
576.0516628578362
 20
655.4023648158588
 10
560.5861746371942
 20
1132.8772065147743
 10
554.589319530963
 20
1132.6829673970099
  0
LWPOLYLINE
  5
E0
330
17
100
AcDbEntity
  8
POCKET-KERF-15
100
AcDbPolyline
 90
4
 70
1
 10
560.2127557499256
 20
654.6324911308559
 10
566.2001794716356
 20
655.020765745921
 10
535.2854154695311
 20
1131.7446723711305
 10
529.2979917478211
 20
1131.3563977560652
  0
LWPOLYLINE
  5
E1
330
17
100
AcDbEntity
  8
POCKET-KERF-15
100
AcDbPolyline
 90
4
 70
1
 10
550.3944975746641
 20
653.7385396989116
 10
556.3662133080016
 20
654.320442783805
 10
510.03458140732687
 20
1129.7936656541656
 10
504.0628656739893
 20
1129.2117625692722
  0
LWPOLYLINE
  5
E2
330
17
100
AcDbEntity
  8
POCKET-KERF-15
100
AcDbPolyline
 90
4
 70
1
 10
540.6103256854731
 20
652.527208529691
 10
546.5600732932384
 20
653.3021300766172
 10
484.86014284748245
 20
1127.0262316001688
 10
478.91039523971716
 20
1126.2513100532424
  0
LWPOLYLINE
  5
E3
330
17
100
AcDbEntity
  8
POCKET-KERF-15
100
AcDbPolyline
 90
4
 70
1
 10
530.8704968094215
 20
650.9997674591426
 10
536.7920391835552
 20
651.9668951194539
 10
459.7884901016514
 20
1123.4452713045107
 10
453.8669477275177
 20
1122.4781436441995
  0
LWPOLYLINE
  5
E4
330
17
100
AcDbEntity
  8
POCKET-KERF-15
100
AcDbPolyline
 90
4
 70
1
 10
521.1852211888908
 20
649.1578177005683
 10
527.0723507888212
 20
650.3161376363469
 10
434.84590573133306
 20
1119.054538680432
 10
428.95877613140254
 20
1117.8962187446534
  0
LWPOLYLINE
  5
E5
330
17
100
AcDbEntity
  8
POCKET-KERF-15
100
AcDbPolyline
 90
4
 70
1
 10
511.56465187819646
 20
647.0032901660743
 10
517.411197238192
 20
648.3515881129373
 10
410.0585369959156
 20
1113.8586365238218
 10
404.21199163592007
 20
1112.5103385769587
  0
LWPOLYLINE
  5
E6
330
17
100
AcDbEntity
  8
POCKET-KERF-15
100
AcDbPolyline
 90
4
 70
1
 10
502.0188741001652
 20
644.5384434423996
 10
507.8187062988683
 20
646.0753059824099
 10
385.4523684425604
 20
1107.8630116881195
 10
379.65253624385724
 20
1106.3261491481092
  0
LWPOLYLINE
  5
E7
330
17
100
AcDbEntity
  8
POCKET-KERF-15
100
AcDbPolyline
 90
4
 70
1
 10
492.55789467381487
 20
641.7658614232455
 10
498.30493375917814
 20
643.4896774665945
 10
361.05319466665424
 20
1101.0739493743874
 10
355.306155581291
 20
1099.3501333310385
  0
LWPOLYLINE
  5
E8
330
17
100
AcDbEntity
  8
POCKET-KERF-15
100
AcDbPolyline
 90
4
 70
1
 10
483.19163152422703
 20
638.6884506005836
 10
488.879852887114
 20
640.5974130744935
 10
336.88659327138805
 20
1093.4985665425475
 10
331.19837190850103
 20
1091.5896040686375
  0
LWPOLYLINE
  5
E9
330
17
100
AcDbEntity
  8
POCKET-KERF-15
100
AcDbPolyline
 90
4
 70
1
 10
473.9299032856075
 20
635.3094370177877
 10
479.5533439753782
 20
637.4015447608618
 10
312.97789805481017
 20
1085.144804450688
 10
307.35445736503954
 20
1083.0526967076137
  0
LWPOLYLINE
  5
EA
330
17
100
AcDbEntity
  8
POCKET-KERF-15
100
AcDbPolyline
 90
4
 70
1
 10
464.7824190084317
 20
631.6323628877778
 10
470.33518398389106
 20
633.905422747815
 10
289.3521724524562
 20
1076.0214203302592
 10
283.79940747699686
 20
1073.748360470222
  0
LWPOLYLINE
  5
EB
330
17
100
AcDbEntity
  8
POCKET-KERF-15
100
AcDbPolyline
 90
4
 70
1
 10
455.758767981468
 20
627.6610828797277
 10
461.23503629062554
 20
630.1127120127975
 10
266.0341832634041
 20
1066.1379782058846
 10
260.5579149542465
 20
1063.6863490728147
  0
LWPOLYLINE
  5
EC
330
17
100
AcDbEntity
  8
POCKET-KERF-15
100
AcDbPolyline
 90
4
 70
1
 10
446.8684096793454
 20
623.3997600782208
 10
452.26244056150705
 20
626.0273884465952
 10
243.0483746872886
 20
1055.504838869415
 10
237.6543438051269
 20
1052.8772105010405
  0
LWPOLYLINE
  5
ED
330
17
100
AcDbEntity
  8
POCKET-KERF-15
100
AcDbPolyline
 90
4
 70
1
 10
438.12066384620636
 20
618.8528616190991
 10
443.42680275000197
 20
621.6537346854174
 10
220.41884269949725
 20
1044.133149018731
 10
215.11270379570163
 20
1041.3322759524128
  0
LWPOLYLINE
  5
EE
330
17
100
AcDbEntity
  8
POCKET-KERF-15
100
AcDbPolyline
 90
4
 70
1
 10
429.5247007258385
 20
614.0251540065734
 10
434.73738523687615
 20
616.9963356214175
 10
198.16930979141074
 20
1032.0348295726844
 10
192.95662528037298
 20
1029.0636479578404
  0
LWPOLYLINE
  5
EF
330
17
100
AcDbEntity
  8
POCKET-KERF-15
100
AcDbPolyline
 90
4
 70
1
 10
421.08953144852677
 20
608.9216981165066
 10
426.2032971204606
 20
612.0600735963609
 10
176.3231001021637
 20
1019.2225631744215
 10
171.20933443022986
 20
1016.084187694567
  0
LWPOLYLINE
  5
F0
330
17
100
AcDbEntity
  8
POCKET-KERF-15
100
AcDbPolyline
 90
4
 70
1
 10
412.8239985847043
 20
603.5478438911078
 10
417.83348466760185
 20
606.8501232834755
 10
154.90311496799774
 20
1005.7097808961961
 10
149.8936288851002
 20
1002.4075015038285
  0
LWPOLYLINE
  5
F1
330
17
100
AcDbEntity
  8
POCKET-KERF-15
100
AcDbPolyline
 90
4
 70
1
 10
404.7367668753047
 20
597.9092247306003
 10
409.63672193531016
 20
601.371946262853
 10
133.93180891483934
 20
991.5106481596041
 10
129.03185385483386
 20
988.0479266273513
  0
LWPOLYLINE
  5
F2
330
17
100
AcDbEntity
  8
POCKET-KERF-15
100
AcDbPolyline
 90
4
 70
1
 10
396.8363141485312
 20
592.0117515877382
 10
401.6216015729325
 20
595.6312852960862
 10
113.43116611926551
 20
976.640049886001
 10
108.64587869486421
 20
973.020516177653
  0
LWPOLYLINE
  5
F3
330
17
100
AcDbEntity
  8
POCKET-KERF-15
100
AcDbPolyline
 90
4
 70
1
 10
389.1309224325677
 20
585.8616067713681
 10
393.79652581449716
 20
589.6341583061425
 10
93.42267736253812
 20
961.1135748926699
 10
88.75707398060875
 20
957.3410233578954
  0
LWPOLYLINE
  5
F4
330
17
100
AcDbEntity
  8
POCKET-KERF-15
100
AcDbPolyline
 90
4
 70
1
 10
381.628669273546
 20
579.4652374655265
 10
386.16969767066877
 20
583.3868520687893
 10
73.92731750186286
 20
944.9474995510977
 10
69.38628910473997
 20
941.025884947835
  0
LWPOLYLINE
  5
F5
330
17
100
AcDbEntity
  8
POCKET-KERF-15
100
AcDbPolyline
 90
4
 70
1
 10
374.33741926787
 20
572.8293489708716
 10
378.74911232954946
 20
576.8959156221795
 10
54.96552348248915
 20
928.1587707244877
 10
50.5538304208097
 20
924.0922040731797
  0
LWPOLYLINE
  5
F6
330
17
100
AcDbEntity
  8
POCKET-KERF-15
100
AcDbPolyline
 90
4
 70
1
 10
367.26481581777654
 20
565.9608976755293
 10
371.54254877533924
 20
570.1681534015081
 10
36.557172913703006
 20
910.7649880023974
 10
32.27943995614036
 20
906.5577322764185
  0
LWPOLYLINE
  5
F7
330
17
100
AcDbEntity
  8
POCKET-KERF-15
100
AcDbPolyline
 90
4
 70
1
 10
806.6901694900683
 20
557.5157707755558
 10
802.5508809751967
 20
561.8593051187667
 10
1148.3868793776696
 20
891.4330722639567
 10
1152.5261678925413
 20
887.0895379207458
  0
LWPOLYLINE
  5
F8
330
17
100
AcDbEntity
  8
POCKET-KERF-15
100
AcDbPolyline
 90
4
 70
1
 10
359.13050286399465
 20
557.5157707755558
 10
363.2697913788662
 20
561.8593051187667
 10
17.433792976393203
 20
891.4330722639567
 10
13.29450446152158
 20
887.0895379207458
  0
TEXT
  5
F9
330
17
100
AcDbEntity
  8
ENGRAVE-LABEL
100
AcDbText
 10
546.2825265447069
 20
1104.541564100548
 30
0.0
 40
7.0
  1
01 2/2
 50
90.0
 72
1
 11
546.2825265447069
 21
1104.541564100548
 31
0.0
100
AcDbText
 73
2
  0
LWPOLYLINE
  5
FA
330
17
100
AcDbEntity
  8
CUT
100
AcDbPolyline
 90
2
 70
1
 10
1308.7452040218107
 20
607.3726020109053
 42
1.0
 10
954.0
 20
607.3726020109053
 42
1.0
  0
LWPOLYLINE
  5
FB
330
17
100
AcDbEntity
  8
CUT
100
AcDbPolyline
 90
8
 70
1
 10
1018.0560860546694
 20
601.5726020109053
 42
2.414213562373095
 10
1021.2560860546695
 20
598.3726020109053
 10
1055.8560860546695
 20
598.3726020109053
 42
2.414213562373095
 10
1059.0560860546695
 20
601.5726020109053
 10
1059.0560860546695
 20
613.1726020109053
 42
2.414213562373095
 10
1055.8560860546695
 20
616.3726020109053
 10
1021.2560860546695
 20
616.3726020109053
 42
2.414213562373095
 10
1018.0560860546694
 20
613.1726020109053
  0
LWPOLYLINE
  5
FC
330
17
100
AcDbEntity
  8
CUT
100
AcDbPolyline
 90
8
 70
1
 10
1203.689117967141
 20
601.5726020109053
 42
2.414213562373095
 10
1206.8891179671411
 20
598.3726020109053
 10
1241.489117967141
 20
598.3726020109053
 42
2.414213562373095
 10
1244.689117967141
 20
601.5726020109053
 10
1244.689117967141
 20
613.1726020109053
 42
2.414213562373095
 10
1241.489117967141
 20
616.3726020109053
 10
1206.8891179671411
 20
616.3726020109053
 42
2.414213562373095
 10
1203.689117967141
 20
613.1726020109053
  0
LWPOLYLINE
  5
FD
330
17
100
AcDbEntity
  8
CUT
100
AcDbPolyline
 90
8
 70
1
 10
1137.1726020109054
 20
494.0560860546695
 42
2.414213562373095
 10
1140.3726020109052
 20
497.2560860546695
 10
1140.3726020109052
 20
531.8560860546695
 42
2.414213562373095
 10
1137.1726020109054
 20
535.0560860546694
 10
1125.5726020109053
 20
535.0560860546694
 42
2.414213562373095
 10
1122.3726020109052
 20
531.8560860546695
 10
1122.3726020109052
 20
497.2560860546695
 42
2.414213562373095
 10
1125.5726020109053
 20
494.0560860546695
  0
LWPOLYLINE
  5
FE
330
17
100
AcDbEntity
  8
CUT
100
AcDbPolyline
 90
8
 70
1
 10
1137.1726020109054
 20
679.6891179671411
 42
2.414213562373095
 10
1140.3726020109052
 20
682.8891179671411
 10
1140.3726020109052
 20
717.489117967141
 42
2.414213562373095
 10
1137.1726020109054
 20
720.6891179671411
 10
1125.5726020109053
 20
720.6891179671411
 42
2.414213562373095
 10
1122.3726020109052
 20
717.489117967141
 10
1122.3726020109052
 20
682.8891179671411
 42
2.414213562373095
 10
1125.5726020109053
 20
679.6891179671411
  0
TEXT
  5
FF
330
17
100
AcDbEntity
  8
ENGRAVE-LABEL
100
AcDbText
 10
1131.3726020109052
 20
607.3726020109053
 30
0.0
 40
22.0
  1
02 FORMER-BASE 1/2
 50
30.0
 72
1
 11
1131.3726020109052
 21
607.3726020109053
 31
0.0
100
AcDbText
 73
2
  0
LWPOLYLINE
  5
100
330
17
100
AcDbEntity
  8
CUT
100
AcDbPolyline
 90
2
 70
1
 10
1448.7452040218107
 20
195.3726020109053
 42
1.0
 10
1094.0
 20
195.3726020109053
 42
1.0
  0
LWPOLYLINE
  5
101
330
17
100
AcDbEntity
  8
CUT
100
AcDbPolyline
 90
8
 70
1
 10
1158.0560860546695
 20
189.57260201090529
 42
2.414213562373095
 10
1161.2560860546696
 20
186.3726020109053
 10
1195.8560860546695
 20
186.3726020109053
 42
2.414213562373095
 10
1199.0560860546695
 20
189.57260201090529
 10
1199.0560860546695
 20
201.1726020109053
 42
2.414213562373095
 10
1195.8560860546695
 20
204.3726020109053
 10
1161.2560860546696
 20
204.3726020109053
 42
2.414213562373095
 10
1158.0560860546695
 20
201.1726020109053
  0
LWPOLYLINE
  5
102
330
17
100
AcDbEntity
  8
CUT
100
AcDbPolyline
 90
8
 70
1
 10
1343.689117967141
 20
189.57260201090529
 42
2.414213562373095
 10
1346.8891179671411
 20
186.3726020109053
 10
1381.489117967141
 20
186.3726020109053
 42
2.414213562373095
 10
1384.689117967141
 20
189.57260201090529
 10
1384.689117967141
 20
201.1726020109053
 42
2.414213562373095
 10
1381.489117967141
 20
204.3726020109053
 10
1346.8891179671411
 20
204.3726020109053
 42
2.414213562373095
 10
1343.689117967141
 20
201.1726020109053
  0
LWPOLYLINE
  5
103
330
17
100
AcDbEntity
  8
CUT
100
AcDbPolyline
 90
8
 70
1
 10
1277.1726020109054
 20
82.05608605466948
 42
2.414213562373095
 10
1280.3726020109052
 20
85.25608605466948
 10
1280.3726020109052
 20
119.85608605466948
 42
2.414213562373095
 10
1277.1726020109054
 20
123.05608605466948
 10
1265.5726020109053
 20
123.05608605466948
 42
2.414213562373095
 10
1262.3726020109052
 20
119.85608605466948
 10
1262.3726020109052
 20
85.25608605466948
 42
2.414213562373095
 10
1265.5726020109053
 20
82.05608605466948
  0
LWPOLYLINE
  5
104
330
17
100
AcDbEntity
  8
CUT
100
AcDbPolyline
 90
8
 70
1
 10
1277.1726020109054
 20
267.6891179671411
 42
2.414213562373095
 10
1280.3726020109052
 20
270.88911796714115
 10
1280.3726020109052
 20
305.4891179671411
 42
2.414213562373095
 10
1277.1726020109054
 20
308.6891179671411
 10
1265.5726020109053
 20
308.6891179671411
 42
2.414213562373095
 10
1262.3726020109052
 20
305.4891179671411
 10
1262.3726020109052
 20
270.88911796714115
 42
2.414213562373095
 10
1265.5726020109053
 20
267.6891179671411
  0
TEXT
  5
105
330
17
100
AcDbEntity
  8
ENGRAVE-LABEL
100
AcDbText
 10
1271.3726020109052
 20
195.37260201090533
 30
0.0
 40
22.0
  1
02 FORMER-BASE 2/2
 50
30.0
 72
1
 11
1271.3726020109052
 21
195.37260201090533
 31
0.0
100
AcDbText
 73
2
  0
LWPOLYLINE
  5
106
330
17
100
AcDbEntity
  8
CUT
100
AcDbPolyline
 90
34
 70
1
 10
1351.7452040218107
 20
1182.0
 10
1290.8891179671411
 20
1182.0
 42
-2.414213562373095
 10
1287.689117967141
 20
1185.2
 10
1287.689117967141
 20
1199.0
 10
1247.689117967141
 20
1199.0
 10
1247.689117967141
 20
1185.2
 42
-2.414213562373095
 10
1244.489117967141
 20
1182.0
 10
1105.2560860546696
 20
1182.0
 42
-2.414213562373095
 10
1102.0560860546695
 20
1185.2
 10
1102.0560860546695
 20
1199.0
 10
1062.0560860546695
 20
1199.0
 10
1062.0560860546695
 20
1185.2
 42
-2.414213562373095
 10
1058.8560860546695
 20
1182.0
 10
998.0
 20
1182.0
 10
1048.9333333333334
 20
991.0
 10
1086.6480051166436
 20
991.0
 42
-2.414213562373095
 10
1089.8480051166437
 20
987.8
 10
1089.8480051166437
 20
974.0
 10
1129.8480051166437
 20
974.0
 10
1129.8480051166437
 20
987.8
 42
-2.414213562373095
 10
1133.0480051166437
 20
991.0
 10
1165.8726020109052
 20
991.0
 10
1165.8726020109052
 20
1083.3
 42
-2.414213562373095
 10
1169.0726020109053
 20
1086.5
 10
1180.6726020109054
 20
1086.5
 42
-2.414213562373095
 10
1183.8726020109052
 20
1083.3
 10
1183.8726020109052
 20
991.0
 10
1216.6971989051667
 20
991.0
 42
-2.414213562373095
 10
1219.8971989051668
 20
987.8
 10
1219.8971989051668
 20
974.0
 10
1259.897198905167
 20
974.0
 10
1259.897198905167
 20
987.8
 42
-2.414213562373095
 10
1263.0971989051668
 20
991.0
 10
1300.8118706884773
 20
991.0
  0
TEXT
  5
107
330
17
100
AcDbEntity
  8
ENGRAVE-LABEL
100
AcDbText
 10
1256.6822542057444
 20
1106.6171275888948
 30
0.0
 40
14.0
  1
06 CORE-1A 1/2
 50
30.0
 72
1
 11
1256.6822542057444
 21
1106.6171275888948
 31
0.0
100
AcDbText
 73
2
  0
LWPOLYLINE
  5
108
330
17
100
AcDbEntity
  8
CUT
100
AcDbPolyline
 90
34
 70
1
 10
1559.7452040218107
 20
946.0
 10
1498.8891179671411
 20
946.0
 42
-2.414213562373095
 10
1495.689117967141
 20
949.2
 10
1495.689117967141
 20
963.0
 10
1455.689117967141
 20
963.0
 10
1455.689117967141
 20
949.2
 42
-2.414213562373095
 10
1452.489117967141
 20
946.0
 10
1313.2560860546696
 20
946.0
 42
-2.414213562373095
 10
1310.0560860546695
 20
949.2
 10
1310.0560860546695
 20
963.0
 10
1270.0560860546695
 20
963.0
 10
1270.0560860546695
 20
949.2
 42
-2.414213562373095
 10
1266.8560860546695
 20
946.0
 10
1206.0
 20
946.0
 10
1256.9333333333334
 20
755.0
 10
1294.6480051166436
 20
755.0
 42
-2.414213562373095
 10
1297.8480051166437
 20
751.8
 10
1297.8480051166437
 20
738.0
 10
1337.8480051166437
 20
738.0
 10
1337.8480051166437
 20
751.8
 42
-2.414213562373095
 10
1341.0480051166437
 20
755.0
 10
1373.8726020109052
 20
755.0
 10
1373.8726020109052
 20
847.3
 42
-2.414213562373095
 10
1377.0726020109053
 20
850.5
 10
1388.6726020109054
 20
850.5
 42
-2.414213562373095
 10
1391.8726020109052
 20
847.3
 10
1391.8726020109052
 20
755.0
 10
1424.6971989051667
 20
755.0
 42
-2.414213562373095
 10
1427.8971989051668
 20
751.8
 10
1427.8971989051668
 20
738.0
 10
1467.897198905167
 20
738.0
 10
1467.897198905167
 20
751.8
 42
-2.414213562373095
 10
1471.0971989051668
 20
755.0
 10
1508.8118706884773
 20
755.0
  0
TEXT
  5
109
330
17
100
AcDbEntity
  8
ENGRAVE-LABEL
100
AcDbText
 10
1464.6822542057441
 20
870.6171275888947
 30
0.0
 40
14.0
  1
06 CORE-1A 2/2
 50
30.0
 72
1
 11
1464.6822542057441
 21
870.6171275888947
 31
0.0
100
AcDbText
 73
2
  0
LWPOLYLINE
  5
10A
330
17
100
AcDbEntity
  8
CUT
100
AcDbPolyline
 90
34
 70
1
 10
1278.0
 20
391.0
 10
1338.8560860546695
 20
391.0
 42
-2.414213562373095
 10
1342.0560860546695
 20
387.8
 10
1342.0560860546695
 20
374.0
 10
1382.0560860546695
 20
374.0
 10
1382.0560860546695
 20
387.8
 42
-2.414213562373095
 10
1385.2560860546696
 20
391.0
 10
1445.8726020109052
 20
391.0
 10
1445.8726020109052
 20
483.3
 42
-2.414213562373095
 10
1449.0726020109053
 20
486.5
 10
1460.6726020109054
 20
486.5
 42
-2.414213562373095
 10
1463.8726020109052
 20
483.3
 10
1463.8726020109052
 20
391.0
 10
1524.489117967141
 20
391.0
 42
-2.414213562373095
 10
1527.689117967141
 20
387.8
 10
1527.689117967141
 20
374.0
 10
1567.689117967141
 20
374.0
 10
1567.689117967141
 20
387.8
 42
-2.414213562373095
 10
1570.8891179671411
 20
391.0
 10
1631.7452040218107
 20
391.0
 10
1580.8118706884773
 20
582.0
 10
1543.0971989051668
 20
582.0
 42
-2.414213562373095
 10
1539.897198905167
 20
585.2
 10
1539.897198905167
 20
599.0
 10
1499.897198905167
 20
599.0
 10
1499.897198905167
 20
585.2
 42
-2.414213562373095
 10
1496.697198905167
 20
582.0
 10
1413.0480051166437
 20
582.0
 42
-2.414213562373095
 10
1409.8480051166437
 20
585.2
 10
1409.8480051166437
 20
599.0
 10
1369.8480051166437
 20
599.0
 10
1369.8480051166437
 20
585.2
 42
-2.414213562373095
 10
1366.6480051166436
 20
582.0
 10
1328.9333333333334
 20
582.0
  0
TEXT
  5
10B
330
17
100
AcDbEntity
  8
ENGRAVE-LABEL
100
AcDbText
 10
1536.6822542057441
 20
466.38287241110515
 30
0.0
 40
18.0
  1
07 CORE-1B 1/2
 50
135.0
 72
1
 11
1536.6822542057441
 21
466.38287241110515
 31
0.0
100
AcDbText
 73
2
  0
LWPOLYLINE
  5
10C
330
17
100
AcDbEntity
  8
CUT
100
AcDbPolyline
 90
34
 70
1
 10
1314.0
 20
979.0
 10
1374.8560860546695
 20
979.0
 42
-2.414213562373095
 10
1378.0560860546695
 20
975.8
 10
1378.0560860546695
 20
962.0
 10
1418.0560860546695
 20
962.0
 10
1418.0560860546695
 20
975.8
 42
-2.414213562373095
 10
1421.2560860546696
 20
979.0
 10
1481.8726020109052
 20
979.0
 10
1481.8726020109052
 20
1071.3
 42
-2.414213562373095
 10
1485.0726020109053
 20
1074.5
 10
1496.6726020109054
 20
1074.5
 42
-2.414213562373095
 10
1499.8726020109052
 20
1071.3
 10
1499.8726020109052
 20
979.0
 10
1560.489117967141
 20
979.0
 42
-2.414213562373095
 10
1563.689117967141
 20
975.8
 10
1563.689117967141
 20
962.0
 10
1603.689117967141
 20
962.0
 10
1603.689117967141
 20
975.8
 42
-2.414213562373095
 10
1606.8891179671411
 20
979.0
 10
1667.7452040218107
 20
979.0
 10
1616.8118706884773
 20
1170.0
 10
1579.0971989051668
 20
1170.0
 42
-2.414213562373095
 10
1575.897198905167
 20
1173.2
 10
1575.897198905167
 20
1187.0
 10
1535.897198905167
 20
1187.0
 10
1535.897198905167
 20
1173.2
 42
-2.414213562373095
 10
1532.697198905167
 20
1170.0
 10
1449.0480051166437
 20
1170.0
 42
-2.414213562373095
 10
1445.8480051166437
 20
1173.2
 10
1445.8480051166437
 20
1187.0
 10
1405.8480051166437
 20
1187.0
 10
1405.8480051166437
 20
1173.2
 42
-2.414213562373095
 10
1402.6480051166436
 20
1170.0
 10
1364.9333333333334
 20
1170.0
  0
TEXT
  5
10D
330
17
100
AcDbEntity
  8
ENGRAVE-LABEL
100
AcDbText
 10
1572.6822542057441
 20
1054.3828724111052
 30
0.0
 40
18.0
  1
07 CORE-1B 2/2
 50
135.0
 72
1
 11
1572.6822542057441
 21
1054.3828724111052
 31
0.0
100
AcDbText
 73
2
  0
LWPOLYLINE
  5
10E
330
17
100
AcDbEntity
  8
CUT
100
AcDbPolyline
 90
2
 70
1
 10
1705.8118706884773
 20
139.90593534423863
 42
1.0
 10
1462.0
 20
139.90593534423863
 42
1.0
  0
LWPOLYLINE
  5
10F
330
17
100
AcDbEntity
  8
CUT
100
AcDbPolyline
 90
8
 70
1
 10
1498.381338449977
 20
134.10593534423865
 42
2.414213562373095
 10
1501.581338449977
 20
130.90593534423863
 10
1536.1813384499771
 20
130.90593534423863
 42
2.414213562373095
 10
1539.381338449977
 20
134.10593534423865
 10
1539.381338449977
 20
145.70593534423864
 42
2.414213562373095
 10
1536.1813384499771
 20
148.90593534423863
 10
1501.581338449977
 20
148.90593534423863
 42
2.414213562373095
 10
1498.381338449977
 20
145.70593534423864
  0
LWPOLYLINE
  5
110
330
17
100
AcDbEntity
  8
CUT
100
AcDbPolyline
 90
8
 70
1
 10
1628.4305322385003
 20
134.10593534423865
 42
2.414213562373095
 10
1631.6305322385
 20
130.90593534423863
 10
1666.2305322385002
 20
130.90593534423863
 42
2.414213562373095
 10
1669.4305322385003
 20
134.10593534423865
 10
1669.4305322385003
 20
145.70593534423864
 42
2.414213562373095
 10
1666.2305322385002
 20
148.90593534423863
 10
1631.6305322385
 20
148.90593534423863
 42
2.414213562373095
 10
1628.4305322385003
 20
145.70593534423864
  0
LWPOLYLINE
  5
111
330
17
100
AcDbEntity
  8
CUT
100
AcDbPolyline
 90
8
 70
1
 10
1589.7059353442387
 20
54.381338449977065
 42
2.414213562373095
 10
1592.9059353442385
 20
57.58133844997707
 10
1592.9059353442385
 20
92.18133844997706
 42
2.414213562373095
 10
1589.7059353442387
 20
95.38133844997706
 10
1578.1059353442386
 20
95.38133844997706
 42
2.414213562373095
 10
1574.9059353442387
 20
92.18133844997706
 10
1574.9059353442387
 20
57.58133844997707
 42
2.414213562373095
 10
1578.1059353442386
 20
54.381338449977065
  0
LWPOLYLINE
  5
112
330
17
100
AcDbEntity
  8
CUT
100
AcDbPolyline
 90
8
 70
1
 10
1589.7059353442387
 20
184.43053223850023
 42
2.414213562373095
 10
1592.9059353442387
 20
187.63053223850022
 10
1592.9059353442387
 20
222.23053223850022
 42
2.414213562373095
 10
1589.7059353442387
 20
225.43053223850023
 10
1578.1059353442386
 20
225.43053223850023
 42
2.414213562373095
 10
1574.9059353442387
 20
222.23053223850022
 10
1574.9059353442387
 20
187.63053223850022
 42
2.414213562373095
 10
1578.1059353442386
 20
184.43053223850023
  0
TEXT
  5
113
330
17
100
AcDbEntity
  8
ENGRAVE-LABEL
100
AcDbText
 10
1639.1733381005808
 20
195.1733381005809
 30
0.0
 40
7.0
  1
03 FORMER-JOINT-LO 1/2
 50
135.0
 72
1
 11
1639.1733381005808
 21
195.1733381005809
 31
0.0
100
AcDbText
 73
2
  0
LWPOLYLINE
  5
114
330
17
100
AcDbEntity
  8
CUT
100
AcDbPolyline
 90
2
 70
1
 10
1761.8118706884773
 20
707.9059353442386
 42
1.0
 10
1518.0
 20
707.9059353442386
 42
1.0
  0
LWPOLYLINE
  5
115
330
17
100
AcDbEntity
  8
CUT
100
AcDbPolyline
 90
8
 70
1
 10
1554.381338449977
 20
702.1059353442387
 42
2.414213562373095
 10
1557.581338449977
 20
698.9059353442386
 10
1592.1813384499771
 20
698.9059353442386
 42
2.414213562373095
 10
1595.381338449977
 20
702.1059353442387
 10
1595.381338449977
 20
713.7059353442387
 42
2.414213562373095
 10
1592.1813384499771
 20
716.9059353442386
 10
1557.581338449977
 20
716.9059353442386
 42
2.414213562373095
 10
1554.381338449977
 20
713.7059353442387
  0
LWPOLYLINE
  5
116
330
17
100
AcDbEntity
  8
CUT
100
AcDbPolyline
 90
8
 70
1
 10
1684.4305322385003
 20
702.1059353442387
 42
2.414213562373095
 10
1687.6305322385
 20
698.9059353442386
 10
1722.2305322385002
 20
698.9059353442386
 42
2.414213562373095
 10
1725.4305322385003
 20
702.1059353442387
 10
1725.4305322385003
 20
713.7059353442387
 42
2.414213562373095
 10
1722.2305322385002
 20
716.9059353442386
 10
1687.6305322385
 20
716.9059353442386
 42
2.414213562373095
 10
1684.4305322385003
 20
713.7059353442387
  0
LWPOLYLINE
  5
117
330
17
100
AcDbEntity
  8
CUT
100
AcDbPolyline
 90
8
 70
1
 10
1645.7059353442387
 20
622.3813384499771
 42
2.414213562373095
 10
1648.9059353442385
 20
625.581338449977
 10
1648.9059353442385
 20
660.181338449977
 42
2.414213562373095
 10
1645.7059353442387
 20
663.3813384499771
 10
1634.1059353442386
 20
663.3813384499771
 42
2.414213562373095
 10
1630.9059353442387
 20
660.181338449977
 10
1630.9059353442387
 20
625.581338449977
 42
2.414213562373095
 10
1634.1059353442386
 20
622.3813384499771
  0
LWPOLYLINE
  5
118
330
17
100
AcDbEntity
  8
CUT
100
AcDbPolyline
 90
8
 70
1
 10
1645.7059353442387
 20
752.4305322385003
 42
2.414213562373095
 10
1648.9059353442387
 20
755.6305322385002
 10
1648.9059353442387
 20
790.2305322385002
 42
2.414213562373095
 10
1645.7059353442387
 20
793.4305322385003
 10
1634.1059353442386
 20
793.4305322385003
 42
2.414213562373095
 10
1630.9059353442387
 20
790.2305322385002
 10
1630.9059353442387
 20
755.6305322385002
 42
2.414213562373095
 10
1634.1059353442386
 20
752.4305322385003
  0
TEXT
  5
119
330
17
100
AcDbEntity
  8
ENGRAVE-LABEL
100
AcDbText
 10
1584.6385325878962
 20
763.1733381005808
 30
0.0
 40
7.0
  1
03 FORMER-JOINT-LO 2/2
 50
45.0
 72
1
 11
1584.6385325878962
 21
763.1733381005808
 31
0.0
100
AcDbText
 73
2
  0
LWPOLYLINE
  5
11A
330
17
100
AcDbEntity
  8
CUT
100
AcDbPolyline
 90
2
 70
1
 10
1864.7452040218107
 20
471.3726020109053
 42
1.0
 10
1630.0
 20
471.3726020109053
 42
1.0
  0
LWPOLYLINE
  5
11B
330
17
100
AcDbEntity
  8
CUT
100
AcDbPolyline
 90
8
 70
1
 10
1692.6068291826346
 20
408.40439052087055
 42
2.414213562373095
 10
1697.1323125822285
 20
408.40439052087055
 10
1721.598207211283
 20
432.8702851499251
 42
2.414213562373095
 10
1721.598207211283
 20
437.395768549519
 10
1713.395768549519
 20
445.59820721128295
 42
2.414213562373095
 10
1708.8702851499252
 20
445.59820721128295
 10
1684.4043905208705
 20
421.13231258222845
 42
2.414213562373095
 10
1684.4043905208705
 20
416.6068291826345
  0
LWPOLYLINE
  5
11C
330
17
100
AcDbEntity
  8
CUT
100
AcDbPolyline
 90
8
 70
1
 10
1781.3494354722916
 20
497.14699681052764
 42
2.414213562373095
 10
1785.8749188718855
 20
497.14699681052764
 10
1810.3408135009402
 20
521.6128914395822
 42
2.414213562373095
 10
1810.3408135009402
 20
526.1383748391761
 10
1802.138374839176
 20
534.34081350094
 42
2.414213562373095
 10
1797.6128914395822
 20
534.34081350094
 10
1773.1469968105278
 20
509.8749188718855
 42
2.414213562373095
 10
1773.1469968105278
 20
505.3494354722916
  0
LWPOLYLINE
  5
11D
330
17
100
AcDbEntity
  8
CUT
100
AcDbPolyline
 90
8
 70
1
 10
1810.34081350094
 20
416.6068291826345
 42
2.414213562373095
 10
1810.34081350094
 20
421.13231258222845
 10
1785.8749188718855
 20
445.59820721128295
 42
2.414213562373095
 10
1781.3494354722916
 20
445.59820721128295
 10
1773.1469968105275
 20
437.395768549519
 42
2.414213562373095
 10
1773.1469968105275
 20
432.8702851499251
 10
1797.6128914395822
 20
408.40439052087055
 42
2.414213562373095
 10
1802.138374839176
 20
408.40439052087055
  0
LWPOLYLINE
  5
11E
330
17
100
AcDbEntity
  8
CUT
100
AcDbPolyline
 90
8
 70
1
 10
1721.598207211283
 20
505.3494354722916
 42
2.414213562373095
 10
1721.598207211283
 20
509.8749188718855
 10
1697.1323125822285
 20
534.34081350094
 42
2.414213562373095
 10
1692.6068291826346
 20
534.34081350094
 10
1684.4043905208705
 20
526.1383748391761
 42
2.414213562373095
 10
1684.4043905208705
 20
521.6128914395822
 10
1708.8702851499252
 20
497.14699681052764
 42
2.414213562373095
 10
1713.395768549519
 20
497.14699681052764
  0
TEXT
  5
11F
330
17
100
AcDbEntity
  8
ENGRAVE-LABEL
100
AcDbText
 10
1748.2583087235107
 20
546.6576725823903
 30
0.0
 40
18.0
  1
04 1/2
 72
1
 11
1748.2583087235107
 21
546.6576725823903
 31
0.0
100
AcDbText
 73
2
  0
LWPOLYLINE
  5
120
330
17
100
AcDbEntity
  8
CUT
100
AcDbPolyline
 90
2
 70
1
 10
1896.7452040218107
 20
1075.3726020109052
 42
1.0
 10
1662.0
 20
1075.3726020109052
 42
1.0
  0
LWPOLYLINE
  5
121
330
17
100
AcDbEntity
  8
CUT
100
AcDbPolyline
 90
8
 70
1
 10
1724.6068291826346
 20
1012.4043905208706
 42
2.414213562373095
 10
1729.1323125822285
 20
1012.4043905208706
 10
1753.598207211283
 20
1036.8702851499252
 42
2.414213562373095
 10
1753.598207211283
 20
1041.395768549519
 10
1745.395768549519
 20
1049.598207211283
 42
2.414213562373095
 10
1740.8702851499252
 20
1049.598207211283
 10
1716.4043905208705
 20
1025.1323125822285
 42
2.414213562373095
 10
1716.4043905208705
 20
1020.6068291826346
  0
LWPOLYLINE
  5
122
330
17
100
AcDbEntity
  8
CUT
100
AcDbPolyline
 90
8
 70
1
 10
1813.3494354722916
 20
1101.1469968105275
 42
2.414213562373095
 10
1817.8749188718855
 20
1101.1469968105275
 10
1842.3408135009402
 20
1125.6128914395822
 42
2.414213562373095
 10
1842.3408135009402
 20
1130.138374839176
 10
1834.138374839176
 20
1138.34081350094
 42
2.414213562373095
 10
1829.6128914395822
 20
1138.34081350094
 10
1805.1469968105278
 20
1113.8749188718855
 42
2.414213562373095
 10
1805.1469968105278
 20
1109.3494354722916
  0
LWPOLYLINE
  5
123
330
17
100
AcDbEntity
  8
CUT
100
AcDbPolyline
 90
8
 70
1
 10
1842.34081350094
 20
1020.6068291826346
 42
2.414213562373095
 10
1842.34081350094
 20
1025.1323125822285
 10
1817.8749188718855
 20
1049.598207211283
 42
2.414213562373095
 10
1813.3494354722916
 20
1049.598207211283
 10
1805.1469968105275
 20
1041.395768549519
 42
2.414213562373095
 10
1805.1469968105275
 20
1036.8702851499252
 10
1829.6128914395822
 20
1012.4043905208706
 42
2.414213562373095
 10
1834.138374839176
 20
1012.4043905208706
  0
LWPOLYLINE
  5
124
330
17
100
AcDbEntity
  8
CUT
100
AcDbPolyline
 90
8
 70
1
 10
1753.598207211283
 20
1109.3494354722916
 42
2.414213562373095
 10
1753.598207211283
 20
1113.8749188718855
 10
1729.1323125822285
 20
1138.3408135009402
 42
2.414213562373095
 10
1724.6068291826346
 20
1138.3408135009402
 10
1716.4043905208705
 20
1130.138374839176
 42
2.414213562373095
 10
1716.4043905208705
 20
1125.6128914395822
 10
1740.8702851499252
 20
1101.1469968105278
 42
2.414213562373095
 10
1745.395768549519
 20
1101.1469968105278
  0
TEXT
  5
125
330
17
100
AcDbEntity
  8
ENGRAVE-LABEL
100
AcDbText
 10
1780.2583087235107
 20
1000.0875314394203
 30
0.0
 40
18.0
  1
04 2/2
 72
1
 11
1780.2583087235107
 21
1000.0875314394203
 31
0.0
100
AcDbText
 73
2
  0
LWPOLYLINE
  5
126
330
17
100
AcDbEntity
  8
CUT
100
AcDbPolyline
 90
34
 70
1
 10
35.00000000000006
 20
699.7452040218107
 10
35.00000000000006
 20
668.8231006984898
 42
-2.414213562373095
 10
31.800000000000068
 20
665.6231006984898
 10
18.000000000000057
 20
665.6231006984898
 10
18.00000000000003
 20
625.6231006984898
 10
31.80000000000004
 20
625.6231006984898
 42
-2.414213562373095
 10
35.00000000000003
 20
622.4231006984899
 10
35.00000000000003
 20
543.3221033233208
 42
-2.414213562373095
 10
31.80000000000004
 20
540.1221033233209
 10
18.00000000000003
 20
540.1221033233209
 10
18.0
 20
500.1221033233208
 10
31.80000000000001
 20
500.1221033233208
 42
-2.414213562373095
 10
35.0
 20
496.9221033233208
 10
35.0
 20
466.0
 10
226.00000000000003
 20
516.9333333333333
 10
226.00000000000003
 20
527.2261432889138
 42
-2.414213562373095
 10
229.20000000000002
 20
530.4261432889139
 10
243.00000000000003
 20
530.4261432889139
 10
243.00000000000003
 20
565.6726020109053
 10
229.20000000000002
 20
565.6726020109053
 42
-2.414213562373095
 10
226.00000000000003
 20
568.8726020109052
 10
226.00000000000003
 20
573.8726020109052
 10
133.70000000000002
 20
573.8726020109053
 42
-2.414213562373095
 10
130.50000000000003
 20
577.0726020109053
 10
130.50000000000003
 20
588.6726020109053
 42
-2.414213562373095
 10
133.70000000000002
 20
591.8726020109053
 10
226.00000000000003
 20
591.8726020109052
 10
226.00000000000003
 20
596.8726020109052
 42
-2.414213562373095
 10
229.20000000000002
 20
600.0726020109053
 10
243.00000000000003
 20
600.0726020109053
 10
243.00000000000003
 20
635.3190607328967
 10
229.20000000000002
 20
635.3190607328967
 42
-2.414213562373095
 10
226.00000000000003
 20
638.5190607328967
 10
226.00000000000003
 20
648.8118706884773
  0
TEXT
  5
127
330
17
100
AcDbEntity
  8
ENGRAVE-LABEL
100
AcDbText
 10
90.36997539405583
 20
629.9817613309269
 30
0.0
 40
11.0
  1
08 CORE-2A 1/2
 50
30.0
 72
1
 11
90.36997539405583
 21
629.9817613309269
 31
0.0
100
AcDbText
 73
2
  0
LWPOLYLINE
  5
128
330
17
100
AcDbEntity
  8
CUT
100
AcDbPolyline
 90
34
 70
1
 10
1911.7452040218107
 20
322.0
 10
1880.8231006984897
 20
322.0
 42
-2.414213562373095
 10
1877.62310069849
 20
325.2
 10
1877.62310069849
 20
339.0
 10
1837.62310069849
 20
339.0
 10
1837.62310069849
 20
325.2
 42
-2.414213562373095
 10
1834.4231006984899
 20
322.0
 10
1755.3221033233208
 20
322.0
 42
-2.414213562373095
 10
1752.1221033233207
 20
325.2
 10
1752.1221033233207
 20
339.0
 10
1712.1221033233207
 20
339.0
 10
1712.1221033233207
 20
325.2
 42
-2.414213562373095
 10
1708.9221033233207
 20
322.0
 10
1678.0
 20
322.0
 10
1728.9333333333334
 20
131.0
 10
1739.2261432889138
 20
131.0
 42
-2.414213562373095
 10
1742.4261432889139
 20
127.80000000000001
 10
1742.4261432889139
 20
114.0
 10
1777.6726020109054
 20
114.0
 10
1777.6726020109054
 20
127.80000000000001
 42
-2.414213562373095
 10
1780.8726020109052
 20
131.0
 10
1785.8726020109052
 20
131.0
 10
1785.8726020109052
 20
223.3
 42
-2.414213562373095
 10
1789.0726020109053
 20
226.5
 10
1800.6726020109054
 20
226.5
 42
-2.414213562373095
 10
1803.8726020109052
 20
223.3
 10
1803.8726020109052
 20
131.0
 10
1808.8726020109052
 20
131.0
 42
-2.414213562373095
 10
1812.0726020109053
 20
127.80000000000001
 10
1812.0726020109053
 20
114.0
 10
1847.3190607328968
 20
114.0
 10
1847.3190607328968
 20
127.80000000000001
 42
-2.414213562373095
 10
1850.5190607328968
 20
131.0
 10
1860.8118706884773
 20
131.0
  0
TEXT
  5
129
330
17
100
AcDbEntity
  8
ENGRAVE-LABEL
100
AcDbText
 10
1841.9817613309267
 20
266.63002460594424
 30
0.0
 40
11.0
  1
08 CORE-2A 2/2
 50
30.0
 72
1
 11
1841.9817613309267
 21
266.63002460594424
 31
0.0
100
AcDbText
 73
2
  0
LWPOLYLINE
  5
12A
330
17
100
AcDbEntity
  8
CUT
100
AcDbPolyline
 90
34
 70
1
 10
1959.7452040218107
 20
918.0
 10
1928.8231006984897
 20
918.0
 42
-2.414213562373095
 10
1925.62310069849
 20
921.2
 10
1925.62310069849
 20
935.0
 10
1885.62310069849
 20
935.0
 10
1885.62310069849
 20
921.2
 42
-2.414213562373095
 10
1882.4231006984899
 20
918.0
 10
1851.8726020109052
 20
918.0
 10
1851.8726020109052
 20
825.7
 42
-2.414213562373095
 10
1848.6726020109054
 20
822.5
 10
1837.0726020109053
 20
822.5
 42
-2.414213562373095
 10
1833.8726020109052
 20
825.7
 10
1833.8726020109052
 20
918.0
 10
1803.3221033233208
 20
918.0
 42
-2.414213562373095
 10
1800.1221033233207
 20
921.2
 10
1800.1221033233207
 20
935.0
 10
1760.1221033233207
 20
935.0
 10
1760.1221033233207
 20
921.2
 42
-2.414213562373095
 10
1756.9221033233207
 20
918.0
 10
1726.0
 20
918.0
 10
1776.9333333333334
 20
727.0
 10
1787.2261432889138
 20
727.0
 42
-2.414213562373095
 10
1790.4261432889139
 20
723.8
 10
1790.4261432889139
 20
710.0
 10
1825.6726020109054
 20
710.0
 10
1825.6726020109054
 20
723.8
 42
-2.414213562373095
 10
1828.8726020109052
 20
727.0
 10
1856.8726020109052
 20
727.0
 42
-2.414213562373095
 10
1860.0726020109053
 20
723.8
 10
1860.0726020109053
 20
710.0
 10
1895.3190607328968
 20
710.0
 10
1895.3190607328968
 20
723.8
 42
-2.414213562373095
 10
1898.5190607328968
 20
727.0
 10
1908.8118706884773
 20
727.0
  0
TEXT
  5
12B
330
17
100
AcDbEntity
  8
ENGRAVE-LABEL
100
AcDbText
 10
1872.9701204653636
 20
776.699428438868
 30
0.0
 40
11.0
  1
09 CORE-2B 1/2
 50
30.0
 72
1
 11
1872.9701204653636
 21
776.699428438868
 31
0.0
100
AcDbText
 73
2
  0
LWPOLYLINE
  5
12C
330
17
100
AcDbEntity
  8
CUT
100
AcDbPolyline
 90
34
 70
1
 10
2063.7452040218104
 20
678.0
 10
2032.8231006984897
 20
678.0
 42
-2.414213562373095
 10
2029.62310069849
 20
681.2
 10
2029.62310069849
 20
695.0
 10
1989.62310069849
 20
695.0
 10
1989.62310069849
 20
681.2
 42
-2.414213562373095
 10
1986.4231006984899
 20
678.0
 10
1955.8726020109052
 20
678.0
 10
1955.8726020109052
 20
585.7
 42
-2.414213562373095
 10
1952.6726020109054
 20
582.5
 10
1941.0726020109053
 20
582.5
 42
-2.414213562373095
 10
1937.8726020109052
 20
585.7
 10
1937.8726020109052
 20
678.0
 10
1907.3221033233208
 20
678.0
 42
-2.414213562373095
 10
1904.1221033233207
 20
681.2
 10
1904.1221033233207
 20
695.0
 10
1864.1221033233207
 20
695.0
 10
1864.1221033233207
 20
681.2
 42
-2.414213562373095
 10
1860.9221033233207
 20
678.0
 10
1830.0
 20
678.0
 10
1880.9333333333334
 20
487.0
 10
1891.2261432889138
 20
487.0
 42
-2.414213562373095
 10
1894.4261432889139
 20
483.8
 10
1894.4261432889139
 20
470.0
 10
1929.6726020109054
 20
470.0
 10
1929.6726020109054
 20
483.8
 42
-2.414213562373095
 10
1932.8726020109052
 20
487.0
 10
1960.8726020109052
 20
487.0
 42
-2.414213562373095
 10
1964.0726020109053
 20
483.8
 10
1964.0726020109053
 20
470.0
 10
1999.3190607328968
 20
470.0
 10
1999.3190607328968
 20
483.8
 42
-2.414213562373095
 10
2002.5190607328968
 20
487.0
 10
2012.8118706884773
 20
487.0
  0
TEXT
  5
12D
330
17
100
AcDbEntity
  8
ENGRAVE-LABEL
100
AcDbText
 10
1976.9701204653636
 20
536.699428438868
 30
0.0
 40
11.0
  1
09 CORE-2B 2/2
 50
30.0
 72
1
 11
1976.9701204653636
 21
536.699428438868
 31
0.0
100
AcDbText
 73
2
  0
LWPOLYLINE
  5
12E
330
17
100
AcDbEntity
  8
CUT
100
AcDbPolyline
 90
2
 70
1
 10
141.81187068847728
 20
79.90593534423864
 42
1.0
 10
18.0
 20
79.90593534423864
 42
1.0
  0
LWPOLYLINE
  5
12F
330
17
100
AcDbEntity
  8
CUT
100
AcDbPolyline
 90
8
 70
1
 10
46.56835467298686
 20
38.365916011222915
 42
2.414213562373095
 10
51.093838072580766
 20
38.365916011222915
 10
72.19847142930527
 20
59.47054936794741
 42
2.414213562373095
 10
72.19847142930527
 20
63.99603276754132
 10
63.99603276754132
 20
72.19847142930527
 42
2.414213562373095
 10
59.47054936794741
 20
72.19847142930527
 10
38.36591601122291
 20
51.09383807258077
 42
2.414213562373095
 10
38.36591601122291
 20
46.568354672986864
  0
LWPOLYLINE
  5
130
330
17
100
AcDbEntity
  8
CUT
100
AcDbPolyline
 90
8
 70
1
 10
95.81583792093596
 20
87.61339925917201
 42
2.414213562373095
 10
100.34132132052987
 20
87.61339925917201
 10
121.44595467725438
 20
108.7180326158965
 42
2.414213562373095
 10
121.44595467725438
 20
113.24351601549043
 10
113.24351601549043
 20
121.44595467725438
 42
2.414213562373095
 10
108.71803261589652
 20
121.44595467725438
 10
87.61339925917201
 20
100.34132132052987
 42
2.414213562373095
 10
87.61339925917201
 20
95.81583792093596
  0
LWPOLYLINE
  5
131
330
17
100
AcDbEntity
  8
CUT
100
AcDbPolyline
 90
8
 70
1
 10
121.44595467725438
 20
46.56835467298686
 42
2.414213562373095
 10
121.44595467725438
 20
51.093838072580766
 10
100.34132132052987
 20
72.19847142930527
 42
2.414213562373095
 10
95.81583792093596
 20
72.19847142930527
 10
87.61339925917201
 20
63.99603276754132
 42
2.414213562373095
 10
87.61339925917201
 20
59.47054936794741
 10
108.7180326158965
 20
38.36591601122291
 42
2.414213562373095
 10
113.24351601549043
 20
38.36591601122291
  0
LWPOLYLINE
  5
132
330
17
100
AcDbEntity
  8
CUT
100
AcDbPolyline
 90
8
 70
1
 10
72.19847142930527
 20
95.81583792093596
 42
2.414213562373095
 10
72.19847142930527
 20
100.34132132052987
 10
51.09383807258077
 20
121.44595467725438
 42
2.414213562373095
 10
46.568354672986864
 20
121.44595467725438
 10
38.365916011222915
 20
113.24351601549043
 42
2.414213562373095
 10
38.365916011222915
 20
108.71803261589652
 10
59.47054936794741
 20
87.61339925917201
 42
2.414213562373095
 10
63.99603276754132
 20
87.61339925917201
  0
TEXT
  5
133
330
17
100
AcDbEntity
  8
ENGRAVE-LABEL
100
AcDbText
 10
79.462871546917
 20
121.62705436219187
 30
0.0
 40
7.0
  1
05 1/2
 72
1
 11
79.462871546917
 21
121.62705436219187
 31
0.0
100
AcDbText
 73
2
  0
LWPOLYLINE
  5
134
330
17
100
AcDbEntity
  8
CUT
100
AcDbPolyline
 90
2
 70
1
 10
141.81187068847728
 20
1039.9059353442387
 42
1.0
 10
18.0
 20
1039.9059353442387
 42
1.0
  0
LWPOLYLINE
  5
135
330
17
100
AcDbEntity
  8
CUT
100
AcDbPolyline
 90
8
 70
1
 10
46.56835467298686
 20
998.3659160112229
 42
2.414213562373095
 10
51.093838072580766
 20
998.3659160112229
 10
72.19847142930527
 20
1019.4705493679475
 42
2.414213562373095
 10
72.19847142930527
 20
1023.9960327675414
 10
63.99603276754132
 20
1032.1984714293053
 42
2.414213562373095
 10
59.47054936794741
 20
1032.1984714293053
 10
38.36591601122291
 20
1011.0938380725808
 42
2.414213562373095
 10
38.36591601122291
 20
1006.5683546729869
  0
LWPOLYLINE
  5
136
330
17
100
AcDbEntity
  8
CUT
100
AcDbPolyline
 90
8
 70
1
 10
95.81583792093596
 20
1047.613399259172
 42
2.414213562373095
 10
100.34132132052987
 20
1047.613399259172
 10
121.44595467725438
 20
1068.7180326158964
 42
2.414213562373095
 10
121.44595467725438
 20
1073.2435160154905
 10
113.24351601549043
 20
1081.4459546772543
 42
2.414213562373095
 10
108.71803261589652
 20
1081.4459546772543
 10
87.61339925917201
 20
1060.34132132053
 42
2.414213562373095
 10
87.61339925917201
 20
1055.815837920936
  0
LWPOLYLINE
  5
137
330
17
100
AcDbEntity
  8
CUT
100
AcDbPolyline
 90
8
 70
1
 10
121.44595467725438
 20
1006.5683546729869
 42
2.414213562373095
 10
121.44595467725438
 20
1011.0938380725808
 10
100.34132132052987
 20
1032.1984714293053
 42
2.414213562373095
 10
95.81583792093596
 20
1032.1984714293053
 10
87.61339925917201
 20
1023.9960327675414
 42
2.414213562373095
 10
87.61339925917201
 20
1019.4705493679475
 10
108.7180326158965
 20
998.3659160112229
 42
2.414213562373095
 10
113.24351601549043
 20
998.3659160112229
  0
LWPOLYLINE
  5
138
330
17
100
AcDbEntity
  8
CUT
100
AcDbPolyline
 90
8
 70
1
 10
72.19847142930527
 20
1055.815837920936
 42
2.414213562373095
 10
72.19847142930527
 20
1060.34132132053
 10
51.09383807258077
 20
1081.4459546772543
 42
2.414213562373095
 10
46.568354672986864
 20
1081.4459546772543
 10
38.365916011222915
 20
1073.2435160154905
 42
2.414213562373095
 10
38.365916011222915
 20
1068.7180326158966
 10
59.47054936794741
 20
1047.613399259172
 42
2.414213562373095
 10
63.99603276754132
 20
1047.613399259172
  0
TEXT
  5
139
330
17
100
AcDbEntity
  8
ENGRAVE-LABEL
100
AcDbText
 10
79.46287154691697
 20
1081.6270543621918
 30
0.0
 40
7.0
  1
05 2/2
 72
1
 11
79.46287154691697
 21
1081.6270543621918
 31
0.0
100
AcDbText
 73
2
  0
ENDSEC
  0
SECTION
  2
OBJECTS
  0
DICTIONARY
  5
A
330
0
100
AcDbDictionary
281
1
  3
ACAD_COLOR
350
B
  3
ACAD_GROUP
350
C
  3
ACAD_LAYOUT
350
D
  3
ACAD_MATERIAL
350
E
  3
ACAD_MLEADERSTYLE
350
F
  3
ACAD_MLINESTYLE
350
10
  3
ACAD_PLOTSETTINGS
350
11
  3
ACAD_PLOTSTYLENAME
350
12
  3
ACAD_SCALELIST
350
14
  3
ACAD_TABLESTYLE
350
15
  3
ACAD_VISUALSTYLE
350
16
  3
EZDXF_META
350
2D
  0
DICTIONARY
  5
B
330
A
100
AcDbDictionary
281
1
  0
DICTIONARY
  5
C
330
A
100
AcDbDictionary
281
1
  0
DICTIONARY
  5
D
330
A
100
AcDbDictionary
281
1
  3
Model
350
1A
  3
Layout1
350
1E
  0
DICTIONARY
  5
E
330
A
100
AcDbDictionary
281
1
  3
ByBlock
350
1F
  3
ByLayer
350
20
  3
Global
350
21
  0
DICTIONARY
  5
F
330
A
100
AcDbDictionary
281
1
  3
Standard
350
2C
  0
DICTIONARY
  5
10
330
A
100
AcDbDictionary
281
1
  3
Standard
350
22
  0
DICTIONARY
  5
11
330
A
100
AcDbDictionary
281
1
  0
ACDBDICTIONARYWDFLT
  5
12
330
A
100
AcDbDictionary
281
1
  3
Normal
350
13
100
AcDbDictionaryWithDefault
340
13
  0
ACDBPLACEHOLDER
  5
13
330
12
  0
DICTIONARY
  5
14
330
A
100
AcDbDictionary
281
1
  0
DICTIONARY
  5
15
330
A
100
AcDbDictionary
281
1
  0
DICTIONARY
  5
16
330
A
100
AcDbDictionary
281
1
  3
2dWireframe
350
5A
  3
Basic
350
5B
  3
Brighten
350
5C
  3
ColorChange
350
5D
  3
Conceptual
350
5E
  3
Dim
350
5F
  3
EdgeColorOff
350
60
  3
Facepattern
350
61
  3
Flat
350
62
  3
FlatWithEdges
350
63
  3
Gouraud
350
64
  3
GouraudWithEdges
350
65
  3
Hidden
350
66
  3
JitterOff
350
67
  3
Linepattern
350
68
  3
Modeling
350
69
  3
OverhangOff
350
6A
  3
Realistic
350
6B
  3
Shaded
350
6C
  3
Shaded with edges
350
6D
  3
Shades of Gray
350
6E
  3
Sketchy
350
6F
  3
Thicken
350
70
  3
Wireframe
350
71
  3
X-Ray
350
72
  0
LAYOUT
  5
1A
330
D
100
AcDbPlotSettings
  1

  4
A3
  6

 40
7.5
 41
20.0
 42
7.5
 43
20.0
 44
420.0
 45
297.0
 46
0.0
 47
0.0
 48
0.0
 49
0.0
140
0.0
141
0.0
142
1.0
143
1.0
 70
1024
 72
1
 73
0
 74
5
  7

 75
16
 76
0
 77
2
 78
300
147
1.0
148
0.0
149
0.0
100
AcDbLayout
  1
Model
 70
1
 71
0
 10
0.0
 20
0.0
 11
420.0
 21
297.0
 12
0.0
 22
0.0
 32
0.0
 14
1e+20
 24
1e+20
 34
1e+20
 15
-1e+20
 25
-1e+20
 35
-1e+20
146
0.0
 13
0.0
 23
0.0
 33
0.0
 16
1.0
 26
0.0
 36
0.0
 17
0.0
 27
1.0
 37
0.0
 76
1
330
17
  0
LAYOUT
  5
1E
330
D
100
AcDbPlotSettings
  1

  4
A3
  6

 40
7.5
 41
20.0
 42
7.5
 43
20.0
 44
420.0
 45
297.0
 46
0.0
 47
0.0
 48
0.0
 49
0.0
140
0.0
141
0.0
142
1.0
143
1.0
 70
0
 72
1
 73
0
 74
5
  7

 75
16
 76
0
 77
2
 78
300
147
1.0
148
0.0
149
0.0
100
AcDbLayout
  1
Layout1
 70
1
 71
1
 10
0.0
 20
0.0
 11
420.0
 21
297.0
 12
0.0
 22
0.0
 32
0.0
 14
1e+20
 24
1e+20
 34
1e+20
 15
-1e+20
 25
-1e+20
 35
-1e+20
146
0.0
 13
0.0
 23
0.0
 33
0.0
 16
1.0
 26
0.0
 36
0.0
 17
0.0
 27
1.0
 37
0.0
 76
1
330
1B
  0
MATERIAL
  5
1F
102
{ACAD_REACTORS
330
E
102
}
330
E
100
AcDbMaterial
  1
ByBlock
  2

 70
0
 40
1.0
 71
1
 41
1.0
 91
-1023410177
 42
1.0
 72
1
  3

 73
1
 74
1
 75
1
 44
0.5
 73
0
 45
1.0
 46
1.0
 77
1
  4

 78
1
 79
1
170
1
 48
1.0
171
1
  6

172
1
173
1
174
1
140
1.0
141
1.0
175
1
  7

176
1
177
1
178
1
143
1.0
179
1
  8

270
1
271
1
272
1
145
1.0
146
1.0
273
1
  9

274
1
275
1
276
1
 42
1.0
 72
1
  3

 73
1
 74
1
 75
1
 94
63
  0
MATERIAL
  5
20
102
{ACAD_REACTORS
330
E
102
}
330
E
100
AcDbMaterial
  1
ByLayer
  2

 70
0
 40
1.0
 71
1
 41
1.0
 91
-1023410177
 42
1.0
 72
1
  3

 73
1
 74
1
 75
1
 44
0.5
 73
0
 45
1.0
 46
1.0
 77
1
  4

 78
1
 79
1
170
1
 48
1.0
171
1
  6

172
1
173
1
174
1
140
1.0
141
1.0
175
1
  7

176
1
177
1
178
1
143
1.0
179
1
  8

270
1
271
1
272
1
145
1.0
146
1.0
273
1
  9

274
1
275
1
276
1
 42
1.0
 72
1
  3

 73
1
 74
1
 75
1
 94
63
  0
MATERIAL
  5
21
102
{ACAD_REACTORS
330
E
102
}
330
E
100
AcDbMaterial
  1
Global
  2

 70
0
 40
1.0
 71
1
 41
1.0
 91
-1023410177
 42
1.0
 72
1
  3

 73
1
 74
1
 75
1
 44
0.5
 73
0
 45
1.0
 46
1.0
 77
1
  4

 78
1
 79
1
170
1
 48
1.0
171
1
  6

172
1
173
1
174
1
140
1.0
141
1.0
175
1
  7

176
1
177
1
178
1
143
1.0
179
1
  8

270
1
271
1
272
1
145
1.0
146
1.0
273
1
  9

274
1
275
1
276
1
 42
1.0
 72
1
  3

 73
1
 74
1
 75
1
 94
63
  0
MLINESTYLE
  5
22
102
{ACAD_REACTORS
330
10
102
}
330
10
100
AcDbMlineStyle
  2
Standard
 70
0
  3

 62
256
 51
90.0
 52
90.0
 71
2
 49
0.5
 62
256
  6
BYLAYER
 49
-0.5
 62
256
  6
BYLAYER
  0
MLEADERSTYLE
  5
2C
102
{ACAD_REACTORS
330
F
102
}
330
F
100
AcDbMLeaderStyle
179
2
170
2
171
1
172
0
 90
2
 40
0.0
 41
0.0
173
1
 91
-1056964608
 92
-2
290
1
 42
2.0
291
1
 43
8.0
  3
Standard
 44
4.0
300

342
29
174
1
175
1
176
0
178
1
 93
-1056964608
 45
4.0
292
0
297
0
 46
4.0
 94
-1056964608
 47
1.0
 49
1.0
140
1.0
294
1
141
0.0
177
0
142
1.0
295
0
296
0
143
3.75
271
0
272
9
273
9
  0
DICTIONARY
  5
2D
330
A
100
AcDbDictionary
280
1
281
1
  3
CREATED_BY_EZDXF
350
2E
  3
WRITTEN_BY_EZDXF
350
13C
  0
DICTIONARYVAR
  5
2E
330
2D
100
DictionaryVariables
280
0
  1
1.4.4 @ 2026-10-03T06:15:04.750318+00:00
  0
VISUALSTYLE
  5
5A
102
{ACAD_REACTORS
330
16
102
}
330
16
100
AcDbVisualStyle
  2
2dWireframe
 70
4
 90
0
 40
0.6
 62
7
290
0
291
0
  0
VISUALSTYLE
  5
5B
102
{ACAD_REACTORS
330
16
102
}
330
16
100
AcDbVisualStyle
  2
Basic
 70
7
 90
1
 40
0.6
 62
7
290
0
291
1
  0
VISUALSTYLE
  5
5C
102
{ACAD_REACTORS
330
16
102
}
330
16
100
AcDbVisualStyle
  2
Brighten
 70
12
 90
2
 40
0.6
 62
7
290
0
291
1
  0
VISUALSTYLE
  5
5D
102
{ACAD_REACTORS
330
16
102
}
330
16
100
AcDbVisualStyle
  2
ColorChange
 70
16
 90
2
 40
0.6
 62
8
290
0
291
1
  0
VISUALSTYLE
  5
5E
102
{ACAD_REACTORS
330
16
102
}
330
16
100
AcDbVisualStyle
  2
Conceptual
 70
9
 90
3
 40
0.6
 62
7
290
0
291
0
  0
VISUALSTYLE
  5
5F
102
{ACAD_REACTORS
330
16
102
}
330
16
100
AcDbVisualStyle
  2
Dim
 70
11
 90
2
 40
0.6
 62
7
290
0
291
1
  0
VISUALSTYLE
  5
60
102
{ACAD_REACTORS
330
16
102
}
330
16
100
AcDbVisualStyle
  2
EdgeColorOff
 70
22
 90
2
 40
0.6
 62
7
290
0
291
1
  0
VISUALSTYLE
  5
61
102
{ACAD_REACTORS
330
16
102
}
330
16
100
AcDbVisualStyle
  2
Facepattern
 70
15
 90
2
 40
0.6
 62
7
290
0
291
1
  0
VISUALSTYLE
  5
62
102
{ACAD_REACTORS
330
16
102
}
330
16
100
AcDbVisualStyle
  2
Flat
 70
0
 90
2
 40
0.6
 62
7
290
0
291
1
  0
VISUALSTYLE
  5
63
102
{ACAD_REACTORS
330
16
102
}
330
16
100
AcDbVisualStyle
  2
FlatWithEdges
 70
1
 90
2
 40
0.6
 62
7
290
0
291
1
  0
VISUALSTYLE
  5
64
102
{ACAD_REACTORS
330
16
102
}
330
16
100
AcDbVisualStyle
  2
Gouraud
 70
2
 90
2
 40
0.6
 62
7
290
0
291
1
  0
VISUALSTYLE
  5
65
102
{ACAD_REACTORS
330
16
102
}
330
16
100
AcDbVisualStyle
  2
GouraudWithEdges
 70
3
 90
2
 40
0.6
 62
7
290
0
291
1
  0
VISUALSTYLE
  5
66
102
{ACAD_REACTORS
330
16
102
}
330
16
100
AcDbVisualStyle
  2
Hidden
 70
6
 90
1
 40
0.6
 62
7
290
0
291
0
  0
VISUALSTYLE
  5
67
102
{ACAD_REACTORS
330
16
102
}
330
16
100
AcDbVisualStyle
  2
JitterOff
 70
20
 90
2
 40
0.6
 62
7
290
0
291
1
  0
VISUALSTYLE
  5
68
102
{ACAD_REACTORS
330
16
102
}
330
16
100
AcDbVisualStyle
  2
Linepattern
 70
14
 90
2
 40
0.6
 62
7
290
0
291
1
  0
VISUALSTYLE
  5
69
102
{ACAD_REACTORS
330
16
102
}
330
16
100
AcDbVisualStyle
  2
Modeling
 70
10
 90
2
 40
0.6
 62
7
290
0
291
0
  0
VISUALSTYLE
  5
6A
102
{ACAD_REACTORS
330
16
102
}
330
16
100
AcDbVisualStyle
  2
OverhangOff
 70
21
 90
2
 40
0.6
 62
7
290
0
291
1
  0
VISUALSTYLE
  5
6B
102
{ACAD_REACTORS
330
16
102
}
330
16
100
AcDbVisualStyle
  2
Realistic
 70
8
 90
2
 40
0.6
 62
7
290
0
291
0
  0
VISUALSTYLE
  5
6C
102
{ACAD_REACTORS
330
16
102
}
330
16
100
AcDbVisualStyle
  2
Shaded
 70
27
 90
2
 40
0.6
 62
7
290
0
291
0
  0
VISUALSTYLE
  5
6D
102
{ACAD_REACTORS
330
16
102
}
330
16
100
AcDbVisualStyle
  2
Shaded with edges
 70
26
 90
2
 40
0.6
 62
7
290
0
291
0
  0
VISUALSTYLE
  5
6E
102
{ACAD_REACTORS
330
16
102
}
330
16
100
AcDbVisualStyle
  2
Shades of Gray
 70
23
 90
2
 40
0.6
 62
7
290
0
291
0
  0
VISUALSTYLE
  5
6F
102
{ACAD_REACTORS
330
16
102
}
330
16
100
AcDbVisualStyle
  2
Sketchy
 70
24
 90
1
 40
0.6
 62
7
290
0
291
0
  0
VISUALSTYLE
  5
70
102
{ACAD_REACTORS
330
16
102
}
330
16
100
AcDbVisualStyle
  2
Thicken
 70
13
 90
2
 40
0.6
 62
7
290
0
291
1
  0
VISUALSTYLE
  5
71
102
{ACAD_REACTORS
330
16
102
}
330
16
100
AcDbVisualStyle
  2
Wireframe
 70
5
 90
0
 40
0.6
 62
7
290
0
291
0
  0
VISUALSTYLE
  5
72
102
{ACAD_REACTORS
330
16
102
}
330
16
100
AcDbVisualStyle
  2
X-Ray
 70
25
 90
2
 40
0.5
 62
7
290
0
291
0
  0
DICTIONARYVAR
  5
13C
330
2D
100
DictionaryVariables
280
0
  1
1.4.4 @ 2026-10-03T06:15:06.517635+00:00
  0
ENDSEC
  0
EOF
