  0
SECTION
  2
HEADER
  9
$ACADVER
  1
AC1024
  9
$ACADMAINTVER
 70
6
  9
$DWGCODEPAGE
  3
ANSI_1252
  9
$LASTSAVEDBY
  1
ezdxf
  9
$INSBASE
 10
0.0
 20
0.0
 30
0.0
  9
$EXTMIN
 10
1e+20
 20
1e+20
 30
1e+20
  9
$EXTMAX
 10
-1e+20
 20
-1e+20
 30
-1e+20
  9
$LIMMIN
 10
0.0
 20
0.0
  9
$LIMMAX
 10
420.0
 20
297.0
  9
$ORTHOMODE
 70
0
  9
$REGENMODE
 70
1
  9
$FILLMODE
 70
1
  9
$QTEXTMODE
 70
0
  9
$MIRRTEXT
 70
1
  9
$LTSCALE
 40
1.0
  9
$ATTMODE
 70
1
  9
$TEXTSIZE
 40
2.5
  9
$TRACEWID
 40
1.0
  9
$TEXTSTYLE
  7
Standard
  9
$CLAYER
  8
0
  9
$CELTYPE
  6
ByLayer
  9
$CECOLOR
 62
256
  9
$CELTSCALE
 40
1.0
  9
$DISPSILH
 70
0
  9
$DIMSCALE
 40
1.0
  9
$DIMASZ
 40
2.5
  9
$DIMEXO
 40
0.625
  9
$DIMDLI
 40
3.75
  9
$DIMRND
 40
0.0
  9
$DIMDLE
 40
0.0
  9
$DIMEXE
 40
1.25
  9
$DIMTP
 40
0.0
  9
$DIMTM
 40
0.0
  9
$DIMTXT
 40
2.5
  9
$DIMCEN
 40
2.5
  9
$DIMTSZ
 40
0.0
  9
$DIMTOL
 70
0
  9
$DIMLIM
 70
0
  9
$DIMTIH
 70
0
  9
$DIMTOH
 70
0
  9
$DIMSE1
 70
0
  9
$DIMSE2
 70
0
  9
$DIMTAD
 70
1
  9
$DIMZIN
 70
8
  9
$DIMBLK
  1

  9
$DIMASO
 70
1
  9
$DIMSHO
 70
1
  9
$DIMPOST
  1

  9
$DIMAPOST
  1

  9
$DIMALT
 70
0
  9
$DIMALTD
 70
3
  9
$DIMALTF
 40
0.03937007874
  9
$DIMLFAC
 40
1.0
  9
$DIMTOFL
 70
1
  9
$DIMTVP
 40
0.0
  9
$DIMTIX
 70
0
  9
$DIMSOXD
 70
0
  9
$DIMSAH
 70
0
  9
$DIMBLK1
  1

  9
$DIMBLK2
  1

  9
$DIMSTYLE
  2
ISO-25
  9
$DIMCLRD
 70
0
  9
$DIMCLRE
 70
0
  9
$DIMCLRT
 70
0
  9
$DIMTFAC
 40
1.0
  9
$DIMGAP
 40
0.625
  9
$DIMJUST
 70
0
  9
$DIMSD1
 70
0
  9
$DIMSD2
 70
0
  9
$DIMTOLJ
 70
0
  9
$DIMTZIN
 70
8
  9
$DIMALTZ
 70
0
  9
$DIMALTTZ
 70
0
  9
$DIMUPT
 70
0
  9
$DIMDEC
 70
2
  9
$DIMTDEC
 70
2
  9
$DIMALTU
 70
2
  9
$DIMALTTD
 70
3
  9
$DIMTXSTY
  7
Standard
  9
$DIMAUNIT
 70
0
  9
$DIMADEC
 70
0
  9
$DIMALTRND
 40
0.0
  9
$DIMAZIN
 70
0
  9
$DIMDSEP
 70
44
  9
$DIMATFIT
 70
3
  9
$DIMFRAC
 70
0
  9
$DIMLDRBLK
  1

  9
$DIMLUNIT
 70
2
  9
$DIMLWD
 70
-2
  9
$DIMLWE
 70
-2
  9
$DIMTMOVE
 70
0
  9
$DIMFXL
 40
1.0
  9
$DIMFXLON
 70
0
  9
$DIMJOGANG
 40
0.785398163397
  9
$DIMTFILL
 70
0
  9
$DIMTFILLCLR
 70
0
  9
$DIMARCSYM
 70
0
  9
$DIMLTYPE
  6

  9
$DIMLTEX1
  6

  9
$DIMLTEX2
  6

  9
$DIMTXTDIRECTION
 70
0
  9
$LUNITS
 70
2
  9
$LUPREC
 70
4
  9
$SKETCHINC
 40
1.0
  9
$FILLETRAD
 40
10.0
  9
$AUNITS
 70
0
  9
$AUPREC
 70
2
  9
$MENU
  1
.
  9
$ELEVATION
 40
0.0
  9
$PELEVATION
 40
0.0
  9
$THICKNESS
 40
0.0
  9
$LIMCHECK
 70
0
  9
$CHAMFERA
 40
0.0
  9
$CHAMFERB
 40
0.0
  9
$CHAMFERC
 40
0.0
  9
$CHAMFERD
 40
0.0
  9
$SKPOLY
 70
0
  9
$TDCREATE
 40
2461317.2808217593
  9
$TDUCREATE
 40
2458532.153996898
  9
$TDUPDATE
 40
2461317.2808333333
  9
$TDUUPDATE
 40
2458532.1544311
  9
$TDINDWG
 40
0.0
  9
$TDUSRTIMER
 40
0.0
  9
$USRTIMER
 70
1
  9
$ANGBASE
 50
0.0
  9
$ANGDIR
 70
0
  9
$PDMODE
 70
0
  9
$PDSIZE
 40
0.0
  9
$PLINEWID
 40
0.0
  9
$SPLFRAME
 70
0
  9
$SPLINETYPE
 70
6
  9
$SPLINESEGS
 70
8
  9
$HANDSEED
  5
82
  9
$SURFTAB1
 70
6
  9
$SURFTAB2
 70
6
  9
$SURFTYPE
 70
6
  9
$SURFU
 70
6
  9
$SURFV
 70
6
  9
$UCSBASE
  2

  9
$UCSNAME
  2

  9
$UCSORG
 10
0.0
 20
0.0
 30
0.0
  9
$UCSXDIR
 10
1.0
 20
0.0
 30
0.0
  9
$UCSYDIR
 10
0.0
 20
1.0
 30
0.0
  9
$UCSORTHOREF
  2

  9
$UCSORTHOVIEW
 70
0
  9
$UCSORGTOP
 10
0.0
 20
0.0
 30
0.0
  9
$UCSORGBOTTOM
 10
0.0
 20
0.0
 30
0.0
  9
$UCSORGLEFT
 10
0.0
 20
0.0
 30
0.0
  9
$UCSORGRIGHT
 10
0.0
 20
0.0
 30
0.0
  9
$UCSORGFRONT
 10
0.0
 20
0.0
 30
0.0
  9
$UCSORGBACK
 10
0.0
 20
0.0
 30
0.0
  9
$PUCSBASE
  2

  9
$PUCSNAME
  2

  9
$PUCSORG
 10
0.0
 20
0.0
 30
0.0
  9
$PUCSXDIR
 10
1.0
 20
0.0
 30
0.0
  9
$PUCSYDIR
 10
0.0
 20
1.0
 30
0.0
  9
$PUCSORTHOREF
  2

  9
$PUCSORTHOVIEW
 70
0
  9
$PUCSORGTOP
 10
0.0
 20
0.0
 30
0.0
  9
$PUCSORGBOTTOM
 10
0.0
 20
0.0
 30
0.0
  9
$PUCSORGLEFT
 10
0.0
 20
0.0
 30
0.0
  9
$PUCSORGRIGHT
 10
0.0
 20
0.0
 30
0.0
  9
$PUCSORGFRONT
 10
0.0
 20
0.0
 30
0.0
  9
$PUCSORGBACK
 10
0.0
 20
0.0
 30
0.0
  9
$USERI1
 70
0
  9
$USERI2
 70
0
  9
$USERI3
 70
0
  9
$USERI4
 70
0
  9
$USERI5
 70
0
  9
$USERR1
 40
0.0
  9
$USERR2
 40
0.0
  9
$USERR3
 40
0.0
  9
$USERR4
 40
0.0
  9
$USERR5
 40
0.0
  9
$WORLDVIEW
 70
1
  9
$SHADEDGE
 70
3
  9
$SHADEDIF
 70
70
  9
$TILEMODE
 70
1
  9
$MAXACTVP
 70
64
  9
$PINSBASE
 10
0.0
 20
0.0
 30
0.0
  9
$PLIMCHECK
 70
0
  9
$PEXTMIN
 10
1e+20
 20
1e+20
 30
1e+20
  9
$PEXTMAX
 10
-1e+20
 20
-1e+20
 30
-1e+20
  9
$PLIMMIN
 10
0.0
 20
0.0
  9
$PLIMMAX
 10
420.0
 20
297.0
  9
$UNITMODE
 70
0
  9
$VISRETAIN
 70
1
  9
$PLINEGEN
 70
0
  9
$PSLTSCALE
 70
1
  9
$TREEDEPTH
 70
3020
  9
$CMLSTYLE
  2
Standard
  9
$CMLJUST
 70
0
  9
$CMLSCALE
 40
20.0
  9
$PROXYGRAPHICS
 70
1
  9
$MEASUREMENT
 70
1
  9
$CELWEIGHT
370
-1
  9
$ENDCAPS
280
0
  9
$JOINSTYLE
280
0
  9
$LWDISPLAY
290
0
  9
$INSUNITS
 70
4
  9
$HYPERLINKBASE
  1

  9
$STYLESHEET
  1

  9
$XEDIT
290
1
  9
$CEPSNTYPE
380
0
  9
$PSTYLEMODE
290
1
  9
$FINGERPRINTGUID
  2
{0CB0B666-8661-45DF-B864-B503E95FFABF}
  9
$VERSIONGUID
  2
{41D415AE-1496-425A-91F2-F2CFD8B695C5}
  9
$EXTNAMES
290
1
  9
$PSVPSCALE
 40
0.0
  9
$OLESTARTUP
290
0
  9
$SORTENTS
280
127
  9
$INDEXCTL
280
0
  9
$HIDETEXT
280
1
  9
$XCLIPFRAME
280
1
  9
$HALOGAP
280
0
  9
$OBSCOLOR
 70
257
  9
$OBSLTYPE
280
0
  9
$INTERSECTIONDISPLAY
280
0
  9
$INTERSECTIONCOLOR
 70
257
  9
$DIMASSOC
280
2
  9
$PROJECTNAME
  1

  9
$CAMERADISPLAY
290
0
  9
$LENSLENGTH
 40
50.0
  9
$CAMERAHEIGHT
 40
0.0
  9
$STEPSPERSEC
 40
24.0
  9
$STEPSIZE
 40
100.0
  9
$3DDWFPREC
 40
2.0
  9
$PSOLWIDTH
 40
0.005
  9
$PSOLHEIGHT
 40
0.08
  9
$LOFTANG1
 40
1.570796326795
  9
$LOFTANG2
 40
1.570796326795
  9
$LOFTMAG1
 40
0.0
  9
$LOFTMAG2
 40
0.0
  9
$LOFTPARAM
 70
7
  9
$LOFTNORMALS
280
1
  9
$LATITUDE
 40
37.795
  9
$LONGITUDE
 40
-122.394
  9
$NORTHDIRECTION
 40
0.0
  9
$TIMEZONE
 70
-8000
  9
$LIGHTGLYPHDISPLAY
280
1
  9
$TILEMODELIGHTSYNCH
280
1
  9
$CMATERIAL
347
20
  9
$SOLIDHIST
280
0
  9
$SHOWHIST
280
1
  9
$DWFFRAME
280
2
  9
$DGNFRAME
280
2
  9
$REALWORLDSCALE
290
1
  9
$INTERFERECOLOR
 62
256
  9
$CSHADOW
280
0
  9
$SHADOWPLANELOCATION
 40
0.0
  0
ENDSEC
  0
SECTION
  2
CLASSES
  0
CLASS
  1
ACDBDICTIONARYWDFLT
  2
AcDbDictionaryWithDefault
  3
ObjectDBX Classes
 90
0
 91
0
280
0
281
0
  0
CLASS
  1
SUN
  2
AcDbSun
  3
SCENEOE
 90
1153
 91
0
280
0
281
0
  0
CLASS
  1
VISUALSTYLE
  2
AcDbVisualStyle
  3
ObjectDBX Classes
 90
4095
 91
0
280
0
281
0
  0
CLASS
  1
MATERIAL
  2
AcDbMaterial
  3
ObjectDBX Classes
 90
1153
 91
0
280
0
281
0
  0
CLASS
  1
SCALE
  2
AcDbScale
  3
ObjectDBX Classes
 90
1153
 91
0
280
0
281
0
  0
CLASS
  1
TABLESTYLE
  2
AcDbTableStyle
  3
ObjectDBX Classes
 90
4095
 91
0
280
0
281
0
  0
CLASS
  1
MLEADERSTYLE
  2
AcDbMLeaderStyle
  3
ACDB_MLEADERSTYLE_CLASS
 90
4095
 91
0
280
0
281
0
  0
CLASS
  1
DICTIONARYVAR
  2
AcDbDictionaryVar
  3
ObjectDBX Classes
 90
0
 91
0
280
0
281
0
  0
CLASS
  1
CELLSTYLEMAP
  2
AcDbCellStyleMap
  3
ObjectDBX Classes
 90
1152
 91
0
280
0
281
0
  0
CLASS
  1
MENTALRAYRENDERSETTINGS
  2
AcDbMentalRayRenderSettings
  3
SCENEOE
 90
1024
 91
0
280
0
281
0
  0
CLASS
  1
ACDBDETAILVIEWSTYLE
  2
AcDbDetailViewStyle
  3
ObjectDBX Classes
 90
1025
 91
0
280
0
281
0
  0
CLASS
  1
ACDBSECTIONVIEWSTYLE
  2
AcDbSectionViewStyle
  3
ObjectDBX Classes
 90
1025
 91
0
280
0
281
0
  0
CLASS
  1
RASTERVARIABLES
  2
AcDbRasterVariables
  3
ISM
 90
0
 91
0
280
0
281
0
  0
CLASS
  1
LAYOUT
  2
AcDbLayout
  3
ObjectDBX Classes
 90
0
 91
0
280
0
281
0
  0
CLASS
  1
ACDBPLACEHOLDER
  2
AcDbPlaceHolder
  3
ObjectDBX Classes
 90
0
 91
0
280
0
281
0
  0
ENDSEC
  0
SECTION
  2
TABLES
  0
TABLE
  2
VPORT
  5
8
330
0
100
AcDbSymbolTable
 70
1
  0
VPORT
  5
23
330
8
100
AcDbSymbolTableRecord
100
AcDbViewportTableRecord
  2
*Active
 70
0
 10
0.0
 20
0.0
 11
1.0
 21
1.0
 12
0.0
 22
0.0
 13
0.0
 23
0.0
 14
0.5
 24
0.5
 15
0.5
 25
0.5
 16
0.0
 26
0.0
 36
1.0
 17
0.0
 27
0.0
 37
0.0
 40
1000.0
 41
1.34
 42
50.0
 43
0.0
 44
0.0
 50
0.0
 51
0.0
 71
0
 72
1000
 73
1
 74
3
 75
0
 76
0
 77
0
 78
0
281
0
 65
0
146
0.0
  0
ENDTAB
  0
TABLE
  2
LTYPE
  5
2
330
0
100
AcDbSymbolTable
 70
3
  0
LTYPE
  5
24
330
2
100
AcDbSymbolTableRecord
100
AcDbLinetypeTableRecord
  2
ByBlock
 70
0
  3

 72
65
 73
0
 40
0.0
  0
LTYPE
  5
25
330
2
100
AcDbSymbolTableRecord
100
AcDbLinetypeTableRecord
  2
ByLayer
 70
0
  3

 72
65
 73
0
 40
0.0
  0
LTYPE
  5
26
330
2
100
AcDbSymbolTableRecord
100
AcDbLinetypeTableRecord
  2
Continuous
 70
0
  3

 72
65
 73
0
 40
0.0
  0
ENDTAB
  0
TABLE
  2
LAYER
  5
1
330
0
100
AcDbSymbolTable
 70
5
  0
LAYER
  5
27
330
1
100
AcDbSymbolTableRecord
100
AcDbLayerTableRecord
  2
0
 70
0
 62
7
  6
Continuous
370
-3
390
13
347
21
  0
LAYER
  5
28
330
1
100
AcDbSymbolTableRecord
100
AcDbLayerTableRecord
  2
Defpoints
 70
0
 62
7
  6
Continuous
290
0
370
-3
390
13
347
21
  0
LAYER
  5
2F
330
1
100
AcDbSymbolTableRecord
100
AcDbLayerTableRecord
  2
CUT
 70
0
 62
1
  6
Continuous
370
-3
390
13
347
21
  0
LAYER
  5
30
330
1
100
AcDbSymbolTableRecord
100
AcDbLayerTableRecord
  2
POCKET-KERF-15
 70
0
 62
5
  6
Continuous
370
-3
390
13
347
21
  0
LAYER
  5
31
330
1
100
AcDbSymbolTableRecord
100
AcDbLayerTableRecord
  2
BOARD-2440x1220
 70
0
 62
8
  6
Continuous
370
-3
390
13
347
21
  0
ENDTAB
  0
TABLE
  2
STYLE
  5
5
330
0
100
AcDbSymbolTable
 70
1
  0
STYLE
  5
29
330
5
100
AcDbSymbolTableRecord
100
AcDbTextStyleTableRecord
  2
Standard
 70
0
 40
0.0
 41
1.0
 50
0.0
 71
0
 42
2.5
  3
txt
  4

  0
ENDTAB
  0
TABLE
  2
VIEW
  5
7
330
0
100
AcDbSymbolTable
 70
0
  0
ENDTAB
  0
TABLE
  2
UCS
  5
6
330
0
100
AcDbSymbolTable
 70
0
  0
ENDTAB
  0
TABLE
  2
APPID
  5
3
330
0
100
AcDbSymbolTable
 70
3
  0
APPID
  5
2A
330
3
100
AcDbSymbolTableRecord
100
AcDbRegAppTableRecord
  2
ACAD
 70
0
  0
APPID
  5
7F
330
3
100
AcDbSymbolTableRecord
100
AcDbRegAppTableRecord
  2
HATCHBACKGROUNDCOLOR
 70
0
  0
APPID
  5
80
330
3
100
AcDbSymbolTableRecord
100
AcDbRegAppTableRecord
  2
EZDXF
 70
0
  0
ENDTAB
  0
TABLE
  2
DIMSTYLE
  5
4
330
0
100
AcDbSymbolTable
 70
1
100
AcDbDimStyleTable
  0
DIMSTYLE
105
2B
330
4
100
AcDbSymbolTableRecord
100
AcDbDimStyleTableRecord
  2
Standard
 70
0
 40
1.0
 41
2.5
 42
0.625
 43
3.75
 44
1.25
 45
0.0
 46
0.0
 47
0.0
 48
0.0
 49
2.5
140
2.5
141
2.5
142
0.0
143
0.03937007874
144
1.0
145
0.0
146
1.0
147
0.625
148
0.0
 69
0
 70
0
 71
0
 72
0
 73
0
 74
0
 75
0
 76
0
 77
1
 78
8
 79
3
170
0
171
3
172
1
173
0
174
0
175
0
176
0
177
0
178
0
179
2
271
2
272
2
273
2
274
3
275
0
276
0
277
2
278
44
279
0
280
0
281
0
282
0
283
0
284
8
285
0
286
0
288
0
289
3
290
0
371
-2
372
-2
  0
ENDTAB
  0
TABLE
  2
BLOCK_RECORD
  5
9
330
0
100
AcDbSymbolTable
 70
2
  0
BLOCK_RECORD
  5
17
330
9
100
AcDbSymbolTableRecord
100
AcDbBlockTableRecord
  2
*Model_Space
340
1A
 70
0
280
1
281
0
  0
BLOCK_RECORD
  5
1B
330
9
100
AcDbSymbolTableRecord
100
AcDbBlockTableRecord
  2
*Paper_Space
340
1E
 70
0
280
1
281
0
  0
ENDTAB
  0
ENDSEC
  0
SECTION
  2
BLOCKS
  0
BLOCK
  5
18
330
17
100
AcDbEntity
  8
0
100
AcDbBlockBegin
  2
*Model_Space
 70
0
 10
0.0
 20
0.0
 30
0.0
  3
*Model_Space
  1

  0
ENDBLK
  5
19
330
17
100
AcDbEntity
  8
0
100
AcDbBlockEnd
  0
BLOCK
  5
1C
330
1B
100
AcDbEntity
  8
0
100
AcDbBlockBegin
  2
*Paper_Space
 70
0
 10
0.0
 20
0.0
 30
0.0
  3
*Paper_Space
  1

  0
ENDBLK
  5
1D
330
1B
100
AcDbEntity
  8
0
100
AcDbBlockEnd
  0
ENDSEC
  0
SECTION
  2
ENTITIES
  0
LWPOLYLINE
  5
32
330
17
100
AcDbEntity
  8
BOARD-2440x1220
100
AcDbPolyline
 90
4
 70
1
 10
0.0
 20
0.0
 10
2440.0
 20
0.0
 10
2440.0
 20
1220.0
 10
0.0
 20
1220.0
  0
LWPOLYLINE
  5
33
330
17
100
AcDbEntity
  8
CUT
100
AcDbPolyline
 90
4
 70
1
 10
806.388519066288
 20
19.826826462032813
 10
1143.5374487823392
 20
341.1220165774796
 42
0.4283865023507377
 10
19.707683062168257
 20
341.1220165774796
 10
356.8566127782195
 20
19.826826462032813
 42
-0.4283865023507377
  0
LWPOLYLINE
  5
34
330
17
100
AcDbEntity
  8
POCKET-KERF-15
100
AcDbPolyline
 90
4
 70
1
 10
795.0238602581692
 20
26.88441134382612
 10
799.3015932157319
 20
22.677155617847294
 10
1130.2199552089219
 20
359.1388483597591
 10
1125.9422222513595
 20
363.34610408573803
  0
LWPOLYLINE
  5
35
330
17
100
AcDbEntity
  8
POCKET-KERF-15
100
AcDbPolyline
 90
4
 70
1
 10
787.7492969845347
 20
33.676920948153914
 10
792.1609900462141
 20
29.610354296846037
 10
1112.0135644636769
 20
376.6085727728638
 10
1107.6018714019974
 20
380.6751394241718
  0
LWPOLYLINE
  5
36
330
17
100
AcDbEntity
  8
POCKET-KERF-15
100
AcDbPolyline
 90
4
 70
1
 10
780.2586514868602
 20
40.230369473561346
 10
784.799679883983
 20
36.308754870298536
 10
1093.2511659363017
 20
393.4797415687215
 10
1088.710137539179
 20
397.4013561719842
  0
LWPOLYLINE
  5
37
330
17
100
AcDbEntity
  8
POCKET-KERF-15
100
AcDbPolyline
 90
4
 70
1
 10
772.5597761932625
 20
46.53788695357101
 10
777.2253795751918
 20
42.765335418796575
 10
1073.9524282102025
 20
409.73466873612546
 10
1069.286824828273
 20
413.50722027089995
  0
LWPOLYLINE
  5
38
330
17
100
AcDbEntity
  8
POCKET-KERF-15
100
AcDbPolyline
 90
4
 70
1
 10
764.660741818721
 20
52.592861230709474
 10
769.4460292431223
 20
48.973327522361586
 10
1054.1375821120532
 20
425.3563142686881
 10
1049.352294687652
 20
428.97584797703604
  0
LWPOLYLINE
  5
39
330
17
100
AcDbEntity
  8
POCKET-KERF-15
100
AcDbPolyline
 90
4
 70
1
 10
756.569828904564
 20
58.388944888018464
 10
761.4697839645695
 20
54.92622335576569
 10
1033.8273995038626
 20
440.32830202784453
 10
1028.9274444438572
 20
443.7910235600973
  0
LWPOLYLINE
  5
3A
330
17
100
AcDbEntity
  8
POCKET-KERF-15
100
AcDbPolyline
 90
4
 70
1
 10
748.2955191379945
 20
63.920061903038714
 10
753.305005220892
 20
60.617782510671105
 10
1013.043171507874
 20
454.63493690992414
 10
1008.0336854249764
 20
457.93721630229174
  0
LWPOLYLINE
  5
3B
330
17
100
AcDbEntity
  8
POCKET-KERF-15
100
AcDbPolyline
 90
4
 70
1
 10
739.8464864607544
 20
69.18041401729161
 10
744.9602521326882
 20
66.04203853743732
 10
991.8066861871258
 20
468.2612212992952
 10
986.692920515192
 20
471.3995967791496
  0
LWPOLYLINE
  5
3C
330
17
100
AcDbEntity
  8
POCKET-KERF-15
100
AcDbPolyline
 90
4
 70
1
 10
731.2315879762504
 20
74.16448681458182
 10
736.444272487288
 20
71.19330519973771
 10
970.140205705071
 20
481.1928707903349
 10
964.9275211940333
 20
484.1640524051789
  0
LWPOLYLINE
  5
3D
330
17
100
AcDbEntity
  8
POCKET-KERF-15
100
AcDbPolyline
 90
4
 70
1
 10
722.4598546646705
 20
78.86705550174798
 10
727.7659935684661
 20
76.06618243542977
 10
948.0664429881965
 20
493.416329161741
 10
942.7603040844009
 20
496.2172022280592
  0
LWPOLYLINE
  5
3E
330
17
100
AcDbEntity
  8
POCKET-KERF-15
100
AcDbPolyline
 90
4
 70
1
 10
713.5404819158258
 20
83.28319038580273
 10
718.9345127979875
 20
80.65556201742831
 10
925.6085379161108
 20
504.9187825874915
 10
920.2145070339491
 20
507.5464109558659
  0
LWPOLYLINE
  5
3F
330
17
100
AcDbEntity
  8
POCKET-KERF-15
100
AcDbPolyline
 90
4
 70
1
 10
704.4828198896436
 20
87.40826204171964
 10
709.959088198801
 20
84.95663290864985
 10
902.790033064055
 20
515.6881730695511
 10
897.3137647548974
 20
518.139802202621
  0
LWPOLYLINE
  5
40
330
17
100
AcDbEntity
  8
POCKET-KERF-15
100
AcDbPolyline
 90
4
 70
1
 10
695.2963637144121
 20
91.23794616544971
 10
700.8491286898715
 20
88.96488630541266
 10
879.6348490232706
 20
525.7132110782459
 10
874.0820840478111
 20
527.986270938283
  0
LWPOLYLINE
  5
41
330
17
100
AcDbEntity
  8
POCKET-KERF-15
100
AcDbPolyline
 90
4
 70
1
 10
685.9907435330597
 20
94.76822810708045
 10
691.6141842228304
 20
92.67612036400617
 10
856.1672593250935
 20
534.9833873870539
 10
850.5438186353229
 20
537.0754951301283
  0
LWPOLYLINE
  5
42
330
17
100
AcDbEntity
  8
POCKET-KERF-15
100
AcDbPolyline
 90
4
 70
1
 10
676.5757144078945
 20
97.99540707938489
 10
682.2639357707814
 20
96.08644460547508
 10
832.4118649950611
 20
543.4889840894049
 10
826.7236436321741
 20
545.3979465633148
  0
LWPOLYLINE
  5
43
330
17
100
AcDbEntity
  8
POCKET-KERF-15
100
AcDbPolyline
 90
4
 70
1
 10
667.0611460943925
 20
100.91610003734941
 10
672.8081851797558
 20
99.19228399400045
 10
808.3935687637089
 20
551.2210847859421
 10
802.6465296783457
 20
552.9449008292911
  0
LWPOLYLINE
  5
44
330
17
100
AcDbEntity
  8
POCKET-KERF-15
100
AcDbPolyline
 90
4
 70
1
 10
657.4570126947553
 20
103.52724522461244
 10
663.2568448934584
 20
101.9903826846022
 10
784.1375489610898
 20
558.1715839315655
 10
778.3377167623867
 20
559.7084464715758
  0
LWPOLYLINE
  5
45
330
17
100
AcDbEntity
  8
POCKET-KERF-15
100
AcDbPolyline
 90
4
 70
1
 10
647.7733822020772
 20
105.82610538309778
 10
653.6199275620727
 20
104.47780743623478
 10
759.6692331223815
 20
564.3331953324569
 10
753.822687762386
 20
565.68149327932
  0
LWPOLYLINE
  5
46
330
17
100
AcDbEntity
  8
POCKET-KERF-15
100
AcDbPolyline
 90
4
 70
1
 10
638.0204059460905
 20
107.81027062247603
 10
643.907535546021
 20
106.65195068669749
 10
735.0142713322566
 20
569.6994597841829
 10
729.1271417323261
 20
570.8577797199614
  0
LWPOLYLINE
  5
47
330
17
100
AcDbEntity
  8
POCKET-KERF-15
100
AcDbPolyline
 90
4
 70
1
 10
628.2083079515471
 20
109.47766094644787
 10
634.1298503256808
 20
108.51053328613663
 10
710.1985093359506
 20
574.2647518428643
 10
704.2769669618169
 20
575.2318795031755
  0
LWPOLYLINE
  5
48
330
17
100
AcDbEntity
  8
POCKET-KERF-15
100
AcDbPolyline
 90
4
 70
1
 10
618.3473742203947
 20
110.82652843319991
 10
624.29712182816
 20
110.05160688627362
 10
685.2479614452204
 20
578.0242857223185
 10
679.2982138374551
 20
578.7992072692449
  0
LWPOLYLINE
  5
49
330
17
100
AcDbEntity
  8
POCKET-KERF-15
100
AcDbPolyline
 90
4
 70
1
 10
608.4479419489821
 20
111.85545906774752
 10
614.4196576823198
 20
111.27355598285413
 10
660.1887832675976
 20
580.9741203109884
 10
654.21706753426
 20
581.5560233958818
  0
LWPOLYLINE
  5
4A
330
17
100
AcDbEntity
  8
POCKET-KERF-15
100
AcDbPolyline
 90
4
 70
1
 10
598.5203886915979
 20
112.5633742242436
 10
604.5078124133079
 20
112.17509960917846
 10
635.047244287516
 20
583.1111633034014
 10
629.059820565806
 20
583.4994379184667
  0
LWPOLYLINE
  5
4B
330
17
100
AcDbEntity
  8
POCKET-KERF-15
100
AcDbPolyline
 90
4
 70
1
 10
588.575121481702
 20
112.94953179669996
 10
594.5719765879331
 20
112.75529267893548
 10
609.8497003280696
 20
584.4331744418275
 10
603.8528452218385
 20
584.627413559592
  0
LWPOLYLINE
  5
4C
330
17
100
AcDbEntity
  8
POCKET-KERF-15
100
AcDbPolyline
 90
4
 70
1
 10
578.6225659222538
 20
113.01352697693545
 10
584.6225659222538
 20
113.01352697693545
 10
584.6225659222538
 20
584.9387678647362
 10
578.6225659222538
 20
584.9387678647362
  0
LWPOLYLINE
  5
4D
330
17
100
AcDbEntity
  8
POCKET-KERF-15
100
AcDbPolyline
 90
4
 70
1
 10
568.6731552565745
 20
112.75529267893548
 10
574.6700103628057
 20
112.94953179669996
 10
559.3922866226693
 20
584.627413559592
 10
553.3954315164382
 20
584.4331744418275
  0
LWPOLYLINE
  5
4E
330
17
100
AcDbEntity
  8
POCKET-KERF-15
100
AcDbPolyline
 90
4
 70
1
 10
558.7373194311997
 20
112.17509960917846
 10
564.7247431529097
 20
112.5633742242436
 10
534.1853112787016
 20
583.4994379184667
 10
528.1978875569915
 20
583.1111633034014
  0
LWPOLYLINE
  5
4F
330
17
100
AcDbEntity
  8
POCKET-KERF-15
100
AcDbPolyline
 90
4
 70
1
 10
548.8254741621879
 20
111.27355598285413
 10
554.7971898955254
 20
111.85545906774752
 10
509.02806431024766
 20
581.5560233958818
 10
503.05634857691007
 20
580.9741203109884
  0
LWPOLYLINE
  5
50
330
17
100
AcDbEntity
  8
POCKET-KERF-15
100
AcDbPolyline
 90
4
 70
1
 10
538.9480100163476
 20
110.05160688627362
 10
544.8977576241128
 20
110.82652843319991
 10
483.9469180070525
 20
578.7992072692449
 10
477.9971703992872
 20
578.0242857223185
  0
LWPOLYLINE
  5
51
330
17
100
AcDbEntity
  8
POCKET-KERF-15
100
AcDbPolyline
 90
4
 70
1
 10
529.1152815188268
 20
108.51053328613663
 10
535.0368238929606
 20
109.47766094644787
 10
458.9681648826908
 20
575.2318795031755
 10
453.0466225085571
 20
574.2647518428643
  0
LWPOLYLINE
  5
52
330
17
100
AcDbEntity
  8
POCKET-KERF-15
100
AcDbPolyline
 90
4
 70
1
 10
519.3375962984866
 20
106.65195068669749
 10
525.2247258984172
 20
107.81027062247603
 10
434.11799011218164
 20
570.8577797199615
 10
428.2308605122511
 20
569.699459784183
  0
LWPOLYLINE
  5
53
330
17
100
AcDbEntity
  8
POCKET-KERF-15
100
AcDbPolyline
 90
4
 70
1
 10
509.625204282435
 20
104.47780743623484
 10
515.4717496424304
 20
105.82610538309784
 10
409.4224440821217
 20
565.6814932793201
 10
403.57589872212617
 20
564.333195332457
  0
LWPOLYLINE
  5
54
330
17
100
AcDbEntity
  8
POCKET-KERF-15
100
AcDbPolyline
 90
4
 70
1
 10
499.98828695104925
 20
101.9903826846022
 10
505.78811914975233
 20
103.52724522461244
 10
384.90741508212096
 20
559.7084464715758
 10
379.1075828834178
 20
558.1715839315655
  0
LWPOLYLINE
  5
55
330
17
100
AcDbEntity
  8
POCKET-KERF-15
100
AcDbPolyline
 90
4
 70
1
 10
490.4369466647519
 20
99.19228399400045
 10
496.18398575011514
 20
100.91610003734941
 10
360.59860216616187
 20
552.9449008292912
 10
354.85156308079866
 20
551.2210847859423
  0
LWPOLYLINE
  5
56
330
17
100
AcDbEntity
  8
POCKET-KERF-15
100
AcDbPolyline
 90
4
 70
1
 10
480.9811960737262
 20
96.08644460547508
 10
486.6694174366132
 20
97.99540707938489
 10
336.5214882123335
 20
545.3979465633148
 10
330.8332668494465
 20
543.4889840894049
  0
LWPOLYLINE
  5
57
330
17
100
AcDbEntity
  8
POCKET-KERF-15
100
AcDbPolyline
 90
4
 70
1
 10
471.63094762167725
 20
92.67612036400621
 10
477.25438831144794
 20
94.76822810708049
 10
312.70131320918506
 20
537.0754951301284
 10
307.0778725194144
 20
534.983387387054
  0
LWPOLYLINE
  5
58
330
17
100
AcDbEntity
  8
POCKET-KERF-15
100
AcDbPolyline
 90
4
 70
1
 10
462.3960031546361
 20
88.96488630541272
 10
467.94876813009546
 20
91.23794616544977
 10
289.16304779669645
 20
527.9862709382832
 10
283.6102828212371
 20
525.713211078246
  0
LWPOLYLINE
  5
59
330
17
100
AcDbEntity
  8
POCKET-KERF-15
100
AcDbPolyline
 90
4
 70
1
 10
453.28604364570657
 20
84.95663290864991
 10
458.7623119548641
 20
87.4082620417197
 10
265.93136708961015
 20
518.1398022026211
 10
260.45509878045254
 20
515.6881730695512
  0
LWPOLYLINE
  5
5A
330
17
100
AcDbEntity
  8
POCKET-KERF-15
100
AcDbPolyline
 90
4
 70
1
 10
444.31061904652006
 20
80.65556201742837
 10
449.7046499286817
 20
83.28319038580278
 10
243.03062481055858
 20
507.546410955866
 10
237.63659392839688
 20
504.9187825874916
  0
LWPOLYLINE
  5
5B
330
17
100
AcDbEntity
  8
POCKET-KERF-15
100
AcDbPolyline
 90
4
 70
1
 10
435.47913827604157
 20
76.06618243542977
 10
440.7852771798372
 20
78.86705550174798
 10
220.4848277601067
 20
496.2172022280592
 10
215.17868885631108
 20
493.416329161741
  0
LWPOLYLINE
  5
5C
330
17
100
AcDbEntity
  8
POCKET-KERF-15
100
AcDbPolyline
 90
4
 70
1
 10
426.8008593572195
 20
71.19330519973771
 10
432.01354386825716
 20
74.16448681458182
 10
198.31761065047434
 20
484.1640524051789
 10
193.10492613943657
 20
481.1928707903349
  0
LWPOLYLINE
  5
5D
330
17
100
AcDbEntity
  8
POCKET-KERF-15
100
AcDbPolyline
 90
4
 70
1
 10
418.28487971181954
 20
66.04203853743732
 10
423.3986453837534
 20
69.18041401729161
 10
176.5522113293156
 20
471.3995967791496
 10
171.43844565738178
 20
468.2612212992952
  0
LWPOLYLINE
  5
5E
330
17
100
AcDbEntity
  8
POCKET-KERF-15
100
AcDbPolyline
 90
4
 70
1
 10
409.94012662361564
 20
60.617782510671105
 10
414.94961270651316
 20
63.920061903038714
 10
155.21144641953106
 20
457.93721630229163
 10
150.20196033663353
 20
454.634936909924
  0
LWPOLYLINE
  5
5F
330
17
100
AcDbEntity
  8
POCKET-KERF-15
100
AcDbPolyline
 90
4
 70
1
 10
401.7753478799381
 20
54.92622335576572
 10
406.6753029399436
 20
58.38894488801849
 10
134.3176874006505
 20
443.7910235600974
 10
129.41773234064502
 20
440.32830202784464
  0
LWPOLYLINE
  5
60
330
17
100
AcDbEntity
  8
POCKET-KERF-15
100
AcDbPolyline
 90
4
 70
1
 10
393.79910260138536
 20
48.97332752236167
 10
398.58439002578666
 20
52.59286123070956
 10
113.89283715685596
 20
428.97584797703627
 10
109.10754973245466
 20
425.3563142686883
  0
LWPOLYLINE
  5
61
330
17
100
AcDbEntity
  8
POCKET-KERF-15
100
AcDbPolyline
 90
4
 70
1
 10
386.0197522693157
 20
42.765335418796624
 10
390.6853556512452
 20
46.53788695357106
 10
93.95830701623474
 20
413.50722027090006
 10
89.29270363430537
 20
409.73466873612557
  0
LWPOLYLINE
  5
62
330
17
100
AcDbEntity
  8
POCKET-KERF-15
100
AcDbPolyline
 90
4
 70
1
 10
378.4454519605246
 20
36.30875487029859
 10
382.9864803576474
 20
40.2303694735614
 10
74.53499430532885
 20
397.40135617198433
 10
69.99396590820596
 20
393.47974156872164
  0
LWPOLYLINE
  5
63
330
17
100
AcDbEntity
  8
POCKET-KERF-15
100
AcDbPolyline
 90
4
 70
1
 10
371.08414179829356
 20
29.610354296846122
 10
375.495834859973
 20
33.676920948154
 10
55.64326044251028
 20
380.675139424172
 10
51.23156738083084
 20
376.608572772864
  0
LWPOLYLINE
  5
64
330
17
100
AcDbEntity
  8
POCKET-KERF-15
100
AcDbPolyline
 90
4
 70
1
 10
363.94353862877574
 20
22.677155617847347
 10
368.22127158633845
 20
26.884411343826173
 10
37.30290959314843
 20
363.34610408573815
 10
33.02517663558578
 20
359.1388483597592
  0
LWPOLYLINE
  5
65
330
17
100
AcDbEntity
  8
POCKET-KERF-15
100
AcDbPolyline
 90
4
 70
1
 10
806.2140039130649
 20
15.516426891077042
 10
802.0747153981932
 20
19.85996123428792
 10
1143.7119639355624
 20
345.4324161484354
 10
1147.851252450434
 20
341.0888818052245
  0
LWPOLYLINE
  5
66
330
17
100
AcDbEntity
  8
POCKET-KERF-15
100
AcDbPolyline
 90
4
 70
1
 10
357.03112793144265
 20
15.516426891077042
 10
361.1704164463143
 20
19.85996123428792
 10
19.533167908945114
 20
345.4324161484354
 10
15.39387939407349
 20
341.0888818052245
  0
LWPOLYLINE
  5
67
330
17
100
AcDbEntity
  8
CUT
100
AcDbPolyline
 90
2
 70
1
 10
372.7452040218106
 20
695.3726020109053
 42
1.0
 10
18.0
 20
695.3726020109053
 42
1.0
  0
LWPOLYLINE
  5
68
330
17
100
AcDbEntity
  8
CUT
100
AcDbPolyline
 90
8
 70
1
 10
82.05608605466948
 20
689.5726020109053
 42
2.414213562373095
 10
85.25608605466948
 20
686.3726020109053
 10
119.85608605466948
 20
686.3726020109053
 42
2.414213562373095
 10
123.05608605466948
 20
689.5726020109053
 10
123.05608605466948
 20
701.1726020109053
 42
2.414213562373095
 10
119.85608605466948
 20
704.3726020109053
 10
85.25608605466948
 20
704.3726020109053
 42
2.414213562373095
 10
82.05608605466948
 20
701.1726020109053
  0
LWPOLYLINE
  5
69
330
17
100
AcDbEntity
  8
CUT
100
AcDbPolyline
 90
8
 70
1
 10
267.6891179671411
 20
689.5726020109053
 42
2.414213562373095
 10
270.88911796714115
 20
686.3726020109053
 10
305.4891179671411
 20
686.3726020109053
 42
2.414213562373095
 10
308.6891179671411
 20
689.5726020109053
 10
308.6891179671411
 20
701.1726020109053
 42
2.414213562373095
 10
305.4891179671411
 20
704.3726020109053
 10
270.88911796714115
 20
704.3726020109053
 42
2.414213562373095
 10
267.6891179671411
 20
701.1726020109053
  0
LWPOLYLINE
  5
6A
330
17
100
AcDbEntity
  8
CUT
100
AcDbPolyline
 90
8
 70
1
 10
201.17260201090528
 20
582.0560860546694
 42
2.414213562373095
 10
204.3726020109053
 20
585.2560860546695
 10
204.3726020109053
 20
619.8560860546695
 42
2.414213562373095
 10
201.17260201090528
 20
623.0560860546694
 10
189.57260201090529
 20
623.0560860546694
 42
2.414213562373095
 10
186.3726020109053
 20
619.8560860546695
 10
186.3726020109053
 20
585.2560860546695
 42
2.414213562373095
 10
189.57260201090529
 20
582.0560860546694
  0
LWPOLYLINE
  5
6B
330
17
100
AcDbEntity
  8
CUT
100
AcDbPolyline
 90
8
 70
1
 10
201.1726020109053
 20
767.6891179671411
 42
2.414213562373095
 10
204.3726020109053
 20
770.8891179671411
 10
204.3726020109053
 20
805.489117967141
 42
2.414213562373095
 10
201.1726020109053
 20
808.6891179671411
 10
189.5726020109053
 20
808.6891179671411
 42
2.414213562373095
 10
186.3726020109053
 20
805.489117967141
 10
186.3726020109053
 20
770.8891179671411
 42
2.414213562373095
 10
189.5726020109053
 20
767.6891179671411
  0
LWPOLYLINE
  5
6C
330
17
100
AcDbEntity
  8
CUT
100
AcDbPolyline
 90
34
 70
1
 10
18.0
 20
891.0
 10
78.85608605466948
 20
891.0
 42
-2.414213562373095
 10
82.05608605466948
 20
887.8
 10
82.05608605466948
 20
874.0
 10
122.05608605466948
 20
874.0
 10
122.05608605466948
 20
887.8
 42
-2.414213562373095
 10
125.25608605466948
 20
891.0
 10
264.4891179671411
 20
891.0
 42
-2.414213562373095
 10
267.6891179671411
 20
887.8
 10
267.6891179671411
 20
874.0
 10
307.6891179671411
 20
874.0
 10
307.6891179671411
 20
887.8
 42
-2.414213562373095
 10
310.88911796714115
 20
891.0
 10
371.7452040218106
 20
891.0
 10
320.81187068847726
 20
1082.0
 10
283.09719890516686
 20
1082.0
 42
-2.414213562373095
 10
279.8971989051669
 20
1085.2
 10
279.8971989051669
 20
1099.0
 10
239.89719890516687
 20
1099.0
 10
239.89719890516687
 20
1085.2
 42
-2.414213562373095
 10
236.69719890516689
 20
1082.0
 10
203.8726020109053
 20
1082.0
 10
203.8726020109053
 20
989.7
 42
-2.414213562373095
 10
200.6726020109053
 20
986.5
 10
189.07260201090529
 20
986.5
 42
-2.414213562373095
 10
185.8726020109053
 20
989.7
 10
185.8726020109053
 20
1082.0
 10
153.0480051166437
 20
1082.0
 42
-2.414213562373095
 10
149.84800511664372
 20
1085.2
 10
149.84800511664372
 20
1099.0
 10
109.84800511664372
 20
1099.0
 10
109.84800511664372
 20
1085.2
 42
-2.414213562373095
 10
106.64800511664372
 20
1082.0
 10
68.93333333333332
 20
1082.0
  0
LWPOLYLINE
  5
6D
330
17
100
AcDbEntity
  8
CUT
100
AcDbPolyline
 90
34
 70
1
 10
667.7452040218107
 20
1170.0
 10
606.8891179671411
 20
1170.0
 42
-2.414213562373095
 10
603.6891179671411
 20
1173.2
 10
603.6891179671411
 20
1187.0
 10
563.6891179671411
 20
1187.0
 10
563.6891179671411
 20
1173.2
 42
-2.414213562373095
 10
560.489117967141
 20
1170.0
 10
499.8726020109053
 20
1170.0
 10
499.87260201090527
 20
1077.7
 42
-2.414213562373095
 10
496.6726020109053
 20
1074.5
 10
485.07260201090526
 20
1074.5
 42
-2.414213562373095
 10
481.87260201090527
 20
1077.7
 10
481.8726020109053
 20
1170.0
 10
421.2560860546695
 20
1170.0
 42
-2.414213562373095
 10
418.0560860546695
 20
1173.2
 10
418.0560860546695
 20
1187.0
 10
378.0560860546695
 20
1187.0
 10
378.0560860546695
 20
1173.2
 42
-2.414213562373095
 10
374.8560860546695
 20
1170.0
 10
314.0
 20
1170.0
 10
364.9333333333333
 20
979.0
 10
402.6480051166437
 20
979.0
 42
-2.414213562373095
 10
405.84800511664366
 20
975.8
 10
405.84800511664366
 20
962.0
 10
445.84800511664366
 20
962.0
 10
445.84800511664366
 20
975.8
 42
-2.414213562373095
 10
449.0480051166437
 20
979.0
 10
532.6971989051668
 20
979.0
 42
-2.414213562373095
 10
535.8971989051669
 20
975.8
 10
535.8971989051669
 20
962.0
 10
575.8971989051669
 20
962.0
 10
575.8971989051669
 20
975.8
 42
-2.414213562373095
 10
579.0971989051668
 20
979.0
 10
616.8118706884773
 20
979.0
  0
LWPOLYLINE
  5
6E
330
17
100
AcDbEntity
  8
CUT
100
AcDbPolyline
 90
2
 70
1
 10
609.8118706884773
 20
811.9059353442386
 42
1.0
 10
366.0
 20
811.9059353442386
 42
1.0
  0
LWPOLYLINE
  5
6F
330
17
100
AcDbEntity
  8
CUT
100
AcDbPolyline
 90
8
 70
1
 10
402.3813384499771
 20
806.1059353442387
 42
2.414213562373095
 10
405.58133844997707
 20
802.9059353442386
 10
440.18133844997703
 20
802.9059353442386
 42
2.414213562373095
 10
443.3813384499771
 20
806.1059353442387
 10
443.3813384499771
 20
817.7059353442387
 42
2.414213562373095
 10
440.18133844997703
 20
820.9059353442386
 10
405.58133844997707
 20
820.9059353442386
 42
2.414213562373095
 10
402.3813384499771
 20
817.7059353442387
  0
LWPOLYLINE
  5
70
330
17
100
AcDbEntity
  8
CUT
100
AcDbPolyline
 90
8
 70
1
 10
532.4305322385003
 20
806.1059353442387
 42
2.414213562373095
 10
535.6305322385002
 20
802.9059353442386
 10
570.2305322385002
 20
802.9059353442386
 42
2.414213562373095
 10
573.4305322385003
 20
806.1059353442387
 10
573.4305322385003
 20
817.7059353442387
 42
2.414213562373095
 10
570.2305322385002
 20
820.9059353442386
 10
535.6305322385002
 20
820.9059353442386
 42
2.414213562373095
 10
532.4305322385003
 20
817.7059353442387
  0
LWPOLYLINE
  5
71
330
17
100
AcDbEntity
  8
CUT
100
AcDbPolyline
 90
8
 70
1
 10
493.70593534423864
 20
726.3813384499771
 42
2.414213562373095
 10
496.9059353442386
 20
729.581338449977
 10
496.9059353442386
 20
764.181338449977
 42
2.414213562373095
 10
493.70593534423864
 20
767.3813384499771
 10
482.1059353442387
 20
767.3813384499771
 42
2.414213562373095
 10
478.9059353442386
 20
764.181338449977
 10
478.9059353442386
 20
729.581338449977
 42
2.414213562373095
 10
482.1059353442386
 20
726.3813384499771
  0
LWPOLYLINE
  5
72
330
17
100
AcDbEntity
  8
CUT
100
AcDbPolyline
 90
8
 70
1
 10
493.70593534423864
 20
856.4305322385003
 42
2.414213562373095
 10
496.9059353442386
 20
859.6305322385002
 10
496.9059353442386
 20
894.2305322385002
 42
2.414213562373095
 10
493.70593534423864
 20
897.4305322385003
 10
482.1059353442387
 20
897.4305322385003
 42
2.414213562373095
 10
478.9059353442386
 20
894.2305322385002
 10
478.9059353442386
 20
859.6305322385002
 42
2.414213562373095
 10
482.1059353442387
 20
856.4305322385003
  0
LWPOLYLINE
  5
73
330
17
100
AcDbEntity
  8
CUT
100
AcDbPolyline
 90
2
 70
1
 10
840.7452040218107
 20
703.3726020109053
 42
1.0
 10
606.0
 20
703.3726020109053
 42
1.0
  0
LWPOLYLINE
  5
74
330
17
100
AcDbEntity
  8
CUT
100
AcDbPolyline
 90
8
 70
1
 10
668.6068291826346
 20
640.4043905208706
 42
2.414213562373095
 10
673.1323125822285
 20
640.4043905208706
 10
697.5982072112829
 20
664.8702851499252
 42
2.414213562373095
 10
697.5982072112829
 20
669.3957685495191
 10
689.3957685495191
 20
677.598207211283
 42
2.414213562373095
 10
684.8702851499252
 20
677.598207211283
 10
660.4043905208706
 20
653.1323125822285
 42
2.414213562373095
 10
660.4043905208706
 20
648.6068291826346
  0
LWPOLYLINE
  5
75
330
17
100
AcDbEntity
  8
CUT
100
AcDbPolyline
 90
8
 70
1
 10
757.3494354722916
 20
729.1469968105276
 42
2.414213562373095
 10
761.8749188718855
 20
729.1469968105276
 10
786.34081350094
 20
753.6128914395822
 42
2.414213562373095
 10
786.34081350094
 20
758.1383748391761
 10
778.1383748391761
 20
766.34081350094
 42
2.414213562373095
 10
773.6128914395822
 20
766.34081350094
 10
749.1469968105276
 20
741.8749188718855
 42
2.414213562373095
 10
749.1469968105276
 20
737.3494354722916
  0
LWPOLYLINE
  5
76
330
17
100
AcDbEntity
  8
CUT
100
AcDbPolyline
 90
8
 70
1
 10
786.34081350094
 20
648.6068291826346
 42
2.414213562373095
 10
786.34081350094
 20
653.1323125822285
 10
761.8749188718855
 20
677.5982072112829
 42
2.414213562373095
 10
757.3494354722916
 20
677.5982072112829
 10
749.1469968105276
 20
669.3957685495191
 42
2.414213562373095
 10
749.1469968105276
 20
664.8702851499252
 10
773.6128914395822
 20
640.4043905208706
 42
2.414213562373095
 10
778.1383748391761
 20
640.4043905208706
  0
LWPOLYLINE
  5
77
330
17
100
AcDbEntity
  8
CUT
100
AcDbPolyline
 90
8
 70
1
 10
697.598207211283
 20
737.3494354722916
 42
2.414213562373095
 10
697.598207211283
 20
741.8749188718855
 10
673.1323125822285
 20
766.34081350094
 42
2.414213562373095
 10
668.6068291826346
 20
766.34081350094
 10
660.4043905208706
 20
758.1383748391761
 42
2.414213562373095
 10
660.4043905208706
 20
753.6128914395822
 10
684.8702851499252
 20
729.1469968105276
 42
2.414213562373095
 10
689.3957685495191
 20
729.1469968105276
  0
LWPOLYLINE
  5
78
330
17
100
AcDbEntity
  8
CUT
100
AcDbPolyline
 90
34
 70
1
 10
610.0
 20
875.0
 10
640.9221033233208
 20
875.0
 42
-2.414213562373095
 10
644.1221033233209
 20
871.8
 10
644.1221033233209
 20
858.0
 10
684.1221033233209
 20
858.0
 10
684.1221033233209
 20
871.8
 42
-2.414213562373095
 10
687.3221033233208
 20
875.0
 10
766.4231006984899
 20
875.0
 42
-2.414213562373095
 10
769.6231006984898
 20
871.8
 10
769.6231006984898
 20
858.0
 10
809.6231006984898
 20
858.0
 10
809.6231006984898
 20
871.8
 42
-2.414213562373095
 10
812.8231006984898
 20
875.0
 10
843.7452040218107
 20
875.0
 10
792.8118706884773
 20
1066.0
 10
782.5190607328967
 20
1066.0
 42
-2.414213562373095
 10
779.3190607328968
 20
1069.2
 10
779.3190607328968
 20
1083.0
 10
744.0726020109053
 20
1083.0
 10
744.0726020109053
 20
1069.2
 42
-2.414213562373095
 10
740.8726020109053
 20
1066.0
 10
735.8726020109053
 20
1066.0
 10
735.8726020109053
 20
973.7
 42
-2.414213562373095
 10
732.6726020109053
 20
970.5
 10
721.0726020109053
 20
970.5
 42
-2.414213562373095
 10
717.8726020109053
 20
973.7
 10
717.8726020109053
 20
1066.0
 10
712.8726020109053
 20
1066.0
 42
-2.414213562373095
 10
709.6726020109053
 20
1069.2
 10
709.6726020109053
 20
1083.0
 10
674.4261432889139
 20
1083.0
 10
674.4261432889139
 20
1069.2
 42
-2.414213562373095
 10
671.2261432889139
 20
1066.0
 10
660.9333333333334
 20
1066.0
  0
LWPOLYLINE
  5
79
330
17
100
AcDbEntity
  8
CUT
100
AcDbPolyline
 90
34
 70
1
 10
1011.7452040218107
 20
1182.0
 10
980.8231006984898
 20
1182.0
 42
-2.414213562373095
 10
977.6231006984898
 20
1185.2
 10
977.6231006984898
 20
1199.0
 10
937.6231006984898
 20
1199.0
 10
937.6231006984898
 20
1185.2
 42
-2.414213562373095
 10
934.4231006984899
 20
1182.0
 10
903.8726020109053
 20
1182.0
 10
903.8726020109053
 20
1089.7
 42
-2.414213562373095
 10
900.6726020109053
 20
1086.5
 10
889.0726020109053
 20
1086.5
 42
-2.414213562373095
 10
885.8726020109053
 20
1089.7
 10
885.8726020109053
 20
1182.0
 10
855.3221033233208
 20
1182.0
 42
-2.414213562373095
 10
852.1221033233209
 20
1185.2
 10
852.1221033233209
 20
1199.0
 10
812.1221033233209
 20
1199.0
 10
812.1221033233209
 20
1185.2
 42
-2.414213562373095
 10
808.9221033233208
 20
1182.0
 10
778.0
 20
1182.0
 10
828.9333333333333
 20
991.0
 10
839.2261432889138
 20
991.0
 42
-2.414213562373095
 10
842.4261432889139
 20
987.8
 10
842.4261432889139
 20
974.0
 10
877.6726020109053
 20
974.0
 10
877.6726020109053
 20
987.8
 42
-2.414213562373095
 10
880.8726020109053
 20
991.0
 10
908.8726020109053
 20
991.0
 42
-2.414213562373095
 10
912.0726020109053
 20
987.8
 10
912.0726020109053
 20
974.0
 10
947.3190607328967
 20
974.0
 10
947.3190607328967
 20
987.8
 42
-2.414213562373095
 10
950.5190607328967
 20
991.0
 10
960.8118706884773
 20
991.0
  0
LWPOLYLINE
  5
7A
330
17
100
AcDbEntity
  8
CUT
100
AcDbPolyline
 90
2
 70
1
 10
141.81187068847728
 20
79.90593534423864
 42
1.0
 10
18.0
 20
79.90593534423864
 42
1.0
  0
LWPOLYLINE
  5
7B
330
17
100
AcDbEntity
  8
CUT
100
AcDbPolyline
 90
8
 70
1
 10
46.56835467298686
 20
38.365916011222915
 42
2.414213562373095
 10
51.093838072580766
 20
38.365916011222915
 10
72.19847142930527
 20
59.47054936794741
 42
2.414213562373095
 10
72.19847142930527
 20
63.99603276754132
 10
63.99603276754132
 20
72.19847142930527
 42
2.414213562373095
 10
59.47054936794741
 20
72.19847142930527
 10
38.36591601122291
 20
51.09383807258077
 42
2.414213562373095
 10
38.36591601122291
 20
46.568354672986864
  0
LWPOLYLINE
  5
7C
330
17
100
AcDbEntity
  8
CUT
100
AcDbPolyline
 90
8
 70
1
 10
95.81583792093596
 20
87.61339925917201
 42
2.414213562373095
 10
100.34132132052987
 20
87.61339925917201
 10
121.44595467725438
 20
108.7180326158965
 42
2.414213562373095
 10
121.44595467725438
 20
113.24351601549043
 10
113.24351601549043
 20
121.44595467725438
 42
2.414213562373095
 10
108.71803261589652
 20
121.44595467725438
 10
87.61339925917201
 20
100.34132132052987
 42
2.414213562373095
 10
87.61339925917201
 20
95.81583792093596
  0
LWPOLYLINE
  5
7D
330
17
100
AcDbEntity
  8
CUT
100
AcDbPolyline
 90
8
 70
1
 10
121.44595467725438
 20
46.56835467298686
 42
2.414213562373095
 10
121.44595467725438
 20
51.093838072580766
 10
100.34132132052987
 20
72.19847142930527
 42
2.414213562373095
 10
95.81583792093596
 20
72.19847142930527
 10
87.61339925917201
 20
63.99603276754132
 42
2.414213562373095
 10
87.61339925917201
 20
59.47054936794741
 10
108.7180326158965
 20
38.36591601122291
 42
2.414213562373095
 10
113.24351601549043
 20
38.36591601122291
  0
LWPOLYLINE
  5
7E
330
17
100
AcDbEntity
  8
CUT
100
AcDbPolyline
 90
8
 70
1
 10
72.19847142930527
 20
95.81583792093596
 42
2.414213562373095
 10
72.19847142930527
 20
100.34132132052987
 10
51.09383807258077
 20
121.44595467725438
 42
2.414213562373095
 10
46.568354672986864
 20
121.44595467725438
 10
38.365916011222915
 20
113.24351601549043
 42
2.414213562373095
 10
38.365916011222915
 20
108.71803261589652
 10
59.47054936794741
 20
87.61339925917201
 42
2.414213562373095
 10
63.99603276754132
 20
87.61339925917201
  0
ENDSEC
  0
SECTION
  2
OBJECTS
  0
DICTIONARY
  5
A
330
0
100
AcDbDictionary
281
1
  3
ACAD_COLOR
350
B
  3
ACAD_GROUP
350
C
  3
ACAD_LAYOUT
350
D
  3
ACAD_MATERIAL
350
E
  3
ACAD_MLEADERSTYLE
350
F
  3
ACAD_MLINESTYLE
350
10
  3
ACAD_PLOTSETTINGS
350
11
  3
ACAD_PLOTSTYLENAME
350
12
  3
ACAD_SCALELIST
350
14
  3
ACAD_TABLESTYLE
350
15
  3
ACAD_VISUALSTYLE
350
16
  3
EZDXF_META
350
2D
  0
DICTIONARY
  5
B
330
A
100
AcDbDictionary
281
1
  0
DICTIONARY
  5
C
330
A
100
AcDbDictionary
281
1
  0
DICTIONARY
  5
D
330
A
100
AcDbDictionary
281
1
  3
Model
350
1A
  3
Layout1
350
1E
  0
DICTIONARY
  5
E
330
A
100
AcDbDictionary
281
1
  3
ByBlock
350
1F
  3
ByLayer
350
20
  3
Global
350
21
  0
DICTIONARY
  5
F
330
A
100
AcDbDictionary
281
1
  3
Standard
350
2C
  0
DICTIONARY
  5
10
330
A
100
AcDbDictionary
281
1
  3
Standard
350
22
  0
DICTIONARY
  5
11
330
A
100
AcDbDictionary
281
1
  0
ACDBDICTIONARYWDFLT
  5
12
330
A
100
AcDbDictionary
281
1
  3
Normal
350
13
100
AcDbDictionaryWithDefault
340
13
  0
ACDBPLACEHOLDER
  5
13
330
12
  0
DICTIONARY
  5
14
330
A
100
AcDbDictionary
281
1
  0
DICTIONARY
  5
15
330
A
100
AcDbDictionary
281
1
  0
DICTIONARY
  5
16
330
A
100
AcDbDictionary
281
1
  0
LAYOUT
  5
1A
330
D
100
AcDbPlotSettings
  1

  4
A3
  6

 40
7.5
 41
20.0
 42
7.5
 43
20.0
 44
420.0
 45
297.0
 46
0.0
 47
0.0
 48
0.0
 49
0.0
140
0.0
141
0.0
142
1.0
143
1.0
 70
1024
 72
1
 73
0
 74
5
  7

 75
16
 76
0
 77
2
 78
300
147
1.0
148
0.0
149
0.0
100
AcDbLayout
  1
Model
 70
1
 71
0
 10
0.0
 20
0.0
 11
420.0
 21
297.0
 12
0.0
 22
0.0
 32
0.0
 14
1e+20
 24
1e+20
 34
1e+20
 15
-1e+20
 25
-1e+20
 35
-1e+20
146
0.0
 13
0.0
 23
0.0
 33
0.0
 16
1.0
 26
0.0
 36
0.0
 17
0.0
 27
1.0
 37
0.0
 76
1
330
17
  0
LAYOUT
  5
1E
330
D
100
AcDbPlotSettings
  1

  4
A3
  6

 40
7.5
 41
20.0
 42
7.5
 43
20.0
 44
420.0
 45
297.0
 46
0.0
 47
0.0
 48
0.0
 49
0.0
140
0.0
141
0.0
142
1.0
143
1.0
 70
0
 72
1
 73
0
 74
5
  7

 75
16
 76
0
 77
2
 78
300
147
1.0
148
0.0
149
0.0
100
AcDbLayout
  1
Layout1
 70
1
 71
1
 10
0.0
 20
0.0
 11
420.0
 21
297.0
 12
0.0
 22
0.0
 32
0.0
 14
1e+20
 24
1e+20
 34
1e+20
 15
-1e+20
 25
-1e+20
 35
-1e+20
146
0.0
 13
0.0
 23
0.0
 33
0.0
 16
1.0
 26
0.0
 36
0.0
 17
0.0
 27
1.0
 37
0.0
 76
1
330
1B
  0
MATERIAL
  5
1F
102
{ACAD_REACTORS
330
E
102
}
330
E
100
AcDbMaterial
  1
ByBlock
  2

 70
0
 40
1.0
 71
1
 41
1.0
 91
-1023410177
 42
1.0
 72
1
  3

 73
1
 74
1
 75
1
 44
0.5
 73
0
 45
1.0
 46
1.0
 77
1
  4

 78
1
 79
1
170
1
 48
1.0
171
1
  6

172
1
173
1
174
1
140
1.0
141
1.0
175
1
  7

176
1
177
1
178
1
143
1.0
179
1
  8

270
1
271
1
272
1
145
1.0
146
1.0
273
1
  9

274
1
275
1
276
1
 42
1.0
 72
1
  3

 73
1
 74
1
 75
1
 94
63
  0
MATERIAL
  5
20
102
{ACAD_REACTORS
330
E
102
}
330
E
100
AcDbMaterial
  1
ByLayer
  2

 70
0
 40
1.0
 71
1
 41
1.0
 91
-1023410177
 42
1.0
 72
1
  3

 73
1
 74
1
 75
1
 44
0.5
 73
0
 45
1.0
 46
1.0
 77
1
  4

 78
1
 79
1
170
1
 48
1.0
171
1
  6

172
1
173
1
174
1
140
1.0
141
1.0
175
1
  7

176
1
177
1
178
1
143
1.0
179
1
  8

270
1
271
1
272
1
145
1.0
146
1.0
273
1
  9

274
1
275
1
276
1
 42
1.0
 72
1
  3

 73
1
 74
1
 75
1
 94
63
  0
MATERIAL
  5
21
102
{ACAD_REACTORS
330
E
102
}
330
E
100
AcDbMaterial
  1
Global
  2

 70
0
 40
1.0
 71
1
 41
1.0
 91
-1023410177
 42
1.0
 72
1
  3

 73
1
 74
1
 75
1
 44
0.5
 73
0
 45
1.0
 46
1.0
 77
1
  4

 78
1
 79
1
170
1
 48
1.0
171
1
  6

172
1
173
1
174
1
140
1.0
141
1.0
175
1
  7

176
1
177
1
178
1
143
1.0
179
1
  8

270
1
271
1
272
1
145
1.0
146
1.0
273
1
  9

274
1
275
1
276
1
 42
1.0
 72
1
  3

 73
1
 74
1
 75
1
 94
63
  0
MLINESTYLE
  5
22
102
{ACAD_REACTORS
330
10
102
}
330
10
100
AcDbMlineStyle
  2
Standard
 70
0
  3

 62
256
 51
90.0
 52
90.0
 71
2
 49
0.5
 62
256
  6
BYLAYER
 49
-0.5
 62
256
  6
BYLAYER
  0
MLEADERSTYLE
  5
2C
102
{ACAD_REACTORS
330
F
102
}
330
F
100
AcDbMLeaderStyle
179
2
170
2
171
1
172
0
 90
2
 40
0.0
 41
0.0
173
1
 91
-1056964608
 92
-2
290
1
 42
2.0
291
1
 43
8.0
  3
Standard
 44
4.0
300

342
29
174
1
175
1
176
0
178
1
 93
-1056964608
 45
4.0
292
0
297
0
 46
4.0
 94
-1056964608
 47
1.0
 49
1.0
140
1.0
294
1
141
0.0
177
0
142
1.0
295
0
296
0
143
3.75
271
0
272
9
273
9
  0
DICTIONARY
  5
2D
330
A
100
AcDbDictionary
280
1
281
1
  3
CREATED_BY_EZDXF
350
2E
  3
WRITTEN_BY_EZDXF
350
81
  0
DICTIONARYVAR
  5
2E
330
2D
100
DictionaryVariables
280
0
  1
1.4.4 @ 2026-10-03T06:44:23.940298+00:00
  0
DICTIONARYVAR
  5
81
330
2D
100
DictionaryVariables
280
0
  1
1.4.4 @ 2026-10-03T06:44:24.690496+00:00
  0
ENDSEC
  0
EOF
