  0
SECTION
  2
HEADER
  9
$ACADVER
  1
AC1009
  9
$DWGCODEPAGE
  3
ANSI_1252
  9
$INSBASE
 10
0.0
 20
0.0
 30
0.0
  9
$EXTMIN
 10
0.0000
 20
0.0000
 30
0.0000
  9
$EXTMAX
 10
2440.0000
 20
2740.0000
 30
0.0000
  9
$LIMMIN
 10
0.0000
 20
0.0000
  9
$LIMMAX
 10
2440.0000
 20
2740.0000
  9
$ORTHOMODE
 70
0
  9
$REGENMODE
 70
1
  9
$FILLMODE
 70
1
  9
$DRAGMODE
 70
2
  9
$QTEXTMODE
 70
0
  9
$MIRRTEXT
 70
1
  9
$OSMODE
 70
20583
  9
$LTSCALE
 40
1.0
  9
$ATTMODE
 70
1
  9
$TEXTSIZE
 40
2.5
  9
$TRACEWID
 40
1.0
  9
$TEXTSTYLE
  7
Standard
  9
$CLAYER
  8
0
  9
$CELTYPE
  6
ByLayer
  9
$CECOLOR
 62
256
  9
$DIMSCALE
 40
1.0
  9
$DIMASZ
 40
2.5
  9
$DIMEXO
 40
0.625
  9
$DIMDLI
 40
3.75
  9
$DIMRND
 40
0.0
  9
$DIMDLE
 40
0.0
  9
$DIMEXE
 40
1.25
  9
$DIMTP
 40
0.0
  9
$DIMTM
 40
0.0
  9
$DIMTXT
 40
2.5
  9
$DIMCEN
 40
2.5
  9
$DIMTSZ
 40
0.0
  9
$DIMTOL
 70
0
  9
$DIMLIM
 70
0
  9
$DIMTIH
 70
0
  9
$DIMTOH
 70
0
  9
$DIMSE1
 70
0
  9
$DIMSE2
 70
0
  9
$DIMTAD
 70
1
  9
$DIMZIN
 70
8
  9
$DIMBLK
  1

  9
$DIMASO
 70
1
  9
$DIMSHO
 70
1
  9
$DIMPOST
  1

  9
$DIMAPOST
  1

  9
$DIMALT
 70
0
  9
$DIMALTD
 70
3
  9
$DIMALTF
 40
0.03937007874
  9
$DIMLFAC
 40
1.0
  9
$DIMTOFL
 70
1
  9
$DIMTVP
 40
0.0
  9
$DIMTIX
 70
0
  9
$DIMSOXD
 70
0
  9
$DIMSAH
 70
0
  9
$DIMBLK1
  1

  9
$DIMBLK2
  1

  9
$DIMSTYLE
  2
ISO-25
  9
$DIMCLRD
 70
0
  9
$DIMCLRE
 70
0
  9
$DIMCLRT
 70
0
  9
$DIMTFAC
 40
1.0
  9
$DIMGAP
 40
0.625
  9
$COORDS
 70
1
  9
$ATTDIA
 70
0
  9
$ATTREQ
 70
1
  9
$HANDLING
 70
1
  9
$LUNITS
 70
2
  9
$LUPREC
 70
4
  9
$SKETCHINC
 40
1.0
  9
$FILLETRAD
 40
10.0
  9
$AUNITS
 70
0
  9
$AUPREC
 70
2
  9
$MENU
  1
.
  9
$ELEVATION
 40
0.0
  9
$PELEVATION
 40
0.0
  9
$THICKNESS
 40
0.0
  9
$LIMCHECK
 70
0
  9
$CHAMFERA
 40
0.0
  9
$CHAMFERB
 40
0.0
  9
$SKPOLY
 70
0
  9
$TDCREATE
 40
2461315.6602199073
  9
$TDUPDATE
 40
2461315.6602199073
  9
$TDINDWG
 40
0.0
  9
$TDUSRTIMER
 40
0.0
  9
$USRTIMER
 70
1
  9
$ANGBASE
 50
0.0
  9
$ANGDIR
 70
0
  9
$PDMODE
 70
0
  9
$PDSIZE
 40
0.0
  9
$PLINEWID
 40
0.0
  9
$SPLFRAME
 70
0
  9
$SPLINETYPE
 70
6
  9
$SPLINESEGS
 70
8
  9
$HANDSEED
  5
254
  9
$SURFTAB1
 70
6
  9
$SURFTAB2
 70
6
  9
$SURFTYPE
 70
6
  9
$SURFU
 70
6
  9
$SURFV
 70
6
  9
$UCSNAME
  2

  9
$UCSORG
 10
0.0
 20
0.0
 30
0.0
  9
$UCSXDIR
 10
1.0
 20
0.0
 30
0.0
  9
$UCSYDIR
 10
0.0
 20
1.0
 30
0.0
  9
$PUCSNAME
  2

  9
$PUCSORG
 10
0.0
 20
0.0
 30
0.0
  9
$PUCSXDIR
 10
1.0
 20
0.0
 30
0.0
  9
$PUCSYDIR
 10
0.0
 20
1.0
 30
0.0
  9
$USERI1
 70
0
  9
$USERI2
 70
0
  9
$USERI3
 70
0
  9
$USERI4
 70
0
  9
$USERI5
 70
0
  9
$USERR1
 40
0.0
  9
$USERR2
 40
0.0
  9
$USERR3
 40
0.0
  9
$USERR4
 40
0.0
  9
$USERR5
 40
0.0
  9
$WORLDVIEW
 70
1
  9
$SHADEDGE
 70
3
  9
$SHADEDIF
 70
70
  9
$TILEMODE
 70
1
  9
$MAXACTVP
 70
64
  9
$PLIMCHECK
 70
0
  9
$PEXTMIN
 10
1e+20
 20
1e+20
 30
1e+20
  9
$PEXTMAX
 10
-1e+20
 20
-1e+20
 30
-1e+20
  9
$PLIMMIN
 10
0.0
 20
0.0
  9
$PLIMMAX
 10
420.0
 20
297.0
  9
$UNITMODE
 70
0
  9
$VISRETAIN
 70
1
  9
$PLINEGEN
 70
0
  9
$PSLTSCALE
 70
1
  0
ENDSEC
  0
SECTION
  2
TABLES
  0
TABLE
  2
VPORT
 70
1
  0
VPORT
  5
23
  2
*Active
 70
0
 10
0.0
 20
0.0
 11
1.0
 21
1.0
 12
0.0
 22
0.0
 13
0.0
 23
0.0
 14
0.5
 24
0.5
 15
0.5
 25
0.5
 16
0.0
 26
0.0
 36
1.0
 17
0.0
 27
0.0
 37
0.0
 40
1000.0
 41
1.34
 42
50.0
 43
0.0
 44
0.0
 50
0.0
 51
0.0
 71
0
 72
1000
 73
1
 74
3
 75
0
 76
0
 77
0
 78
0
  0
ENDTAB
  0
TABLE
  2
LTYPE
 70
3
  0
LTYPE
  5
24
  2
ByBlock
 70
0
  3

 72
65
 73
0
 40
0.0
  0
LTYPE
  5
25
  2
ByLayer
 70
0
  3

 72
65
 73
0
 40
0.0
  0
LTYPE
  5
26
  2
Continuous
 70
0
  3

 72
65
 73
0
 40
0.0
  0
ENDTAB
  0
TABLE
  2
LAYER
 70
7
  0
LAYER
  5
27
  2
0
 70
0
 62
7
  6
Continuous
  0
LAYER
  5
28
  2
Defpoints
 70
0
 62
7
  6
Continuous
  0
LAYER
  5
2D
  2
PIECE_5MM
 70
0
 62
1
  6
Continuous
  0
LAYER
  5
2E
  2
GABARIT_INTERIEUR_18MM
 70
0
 62
5
  6
Continuous
  0
LAYER
  5
2F
  2
GABARIT_BAGUES_18MM
 70
0
 62
3
  6
Continuous
  0
LAYER
  5
30
  2
PLANCHE_5MM
 70
0
 62
8
  6
Continuous
  0
LAYER
  5
31
  2
PLANCHE_18MM
 70
0
 62
8
  6
Continuous
  0
ENDTAB
  0
TABLE
  2
STYLE
 70
1
  0
STYLE
  5
29
  2
Standard
 70
0
 40
0.0
 41
1.0
 50
0.0
 71
0
 42
2.5
  3
txt
  4

  0
ENDTAB
  0
TABLE
  2
VIEW
 70
0
  0
ENDTAB
  0
TABLE
  2
UCS
 70
0
  0
ENDTAB
  0
TABLE
  2
APPID
 70
3
  0
APPID
  5
2A
  2
ACAD
 70
0
  0
APPID
  5
252
  2
HATCHBACKGROUNDCOLOR
 70
0
  0
APPID
  5
253
  2
EZDXF
 70
0
  0
ENDTAB
  0
TABLE
  2
DIMSTYLE
 70
1
  0
DIMSTYLE
105
2B
  2
Standard
 70
0
  3

  4

  5

  6

  7

 40
1.0
 41
2.5
 42
0.625
 43
3.75
 44
1.25
 45
0.0
 46
0.0
 47
0.0
 48
0.0
140
2.5
141
2.5
142
0.0
143
0.03937007874
144
1.0
145
0.0
146
1.0
147
0.625
 71
0
 72
0
 73
0
 74
0
 75
0
 76
0
 77
1
 78
8
170
0
171
3
172
1
173
0
174
0
175
0
176
0
177
0
178
0
  0
ENDTAB
  0
ENDSEC
  0
SECTION
  2
BLOCKS
  0
BLOCK
  5
18
  8
0
  2
$Model_Space
 70
0
 10
0.0
 20
0.0
 30
0.0
  3
$Model_Space
  1

1001
EZDXF
1000
CREATED_BY_EZDXF
1000
1.4.4 @ 2026-10-01T15:50:43.485305+00:00
1000
WRITTEN_BY_EZDXF
1000
1.4.4 @ 2026-10-01T15:50:43.513708+00:00
  0
ENDBLK
  5
19
  8
0
  0
BLOCK
  5
1C
  8
0
  2
$Paper_Space
 70
0
 10
0.0
 20
0.0
 30
0.0
  3
$Paper_Space
  1

  0
ENDBLK
  5
1D
  8
0
  0
ENDSEC
  0
SECTION
  2
ENTITIES
  0
POLYLINE
  5
32
  8
PLANCHE_5MM
 66
1
 10
0.0
 20
0.0
 30
0.0
 70
1
  0
VERTEX
  5
34
  8
PLANCHE_5MM
 10
0.0
 20
0.0
 30
0.0
 70
0
  0
VERTEX
  5
35
  8
PLANCHE_5MM
 10
2440.0
 20
0.0
 30
0.0
 70
0
  0
VERTEX
  5
36
  8
PLANCHE_5MM
 10
2440.0
 20
1220.0
 30
0.0
 70
0
  0
VERTEX
  5
37
  8
PLANCHE_5MM
 10
0.0
 20
1220.0
 30
0.0
 70
0
  0
SEQEND
  5
33
  8
PLANCHE_5MM
  0
POLYLINE
  5
38
  8
PIECE_5MM
 66
1
 10
0.0
 20
0.0
 30
0.0
 70
1
  0
VERTEX
  5
3A
  8
PIECE_5MM
 10
790.1420613275391
 20
18.0
 30
0.0
 70
0
  0
VERTEX
  5
3B
  8
PIECE_5MM
 10
1127.2909910435903
 20
339.2951901154467
 30
0.0
 42
0.20517629136539733
 70
0
  0
VERTEX
  5
3C
  8
PIECE_5MM
 10
572.6454955217953
 20
576.8978339866205
 30
0.0
 42
0.20517629136539733
 70
0
  0
VERTEX
  5
3D
  8
PIECE_5MM
 10
18.0
 20
339.2951901154467
 30
0.0
 70
0
  0
VERTEX
  5
3E
  8
PIECE_5MM
 10
355.1489297160513
 20
18.0
 30
0.0
 42
-0.20517629136539733
 70
0
  0
VERTEX
  5
3F
  8
PIECE_5MM
 10
572.6454955217952
 20
111.17259309881968
 30
0.0
 42
-0.20517629136539733
 70
0
  0
SEQEND
  5
39
  8
PIECE_5MM
  0
POLYLINE
  5
40
  8
PLANCHE_18MM
 66
1
 10
0.0
 20
0.0
 30
0.0
 70
1
  0
VERTEX
  5
42
  8
PLANCHE_18MM
 10
0.0
 20
1520.0
 30
0.0
 70
0
  0
VERTEX
  5
43
  8
PLANCHE_18MM
 10
2440.0
 20
1520.0
 30
0.0
 70
0
  0
VERTEX
  5
44
  8
PLANCHE_18MM
 10
2440.0
 20
2740.0
 30
0.0
 70
0
  0
VERTEX
  5
45
  8
PLANCHE_18MM
 10
0.0
 20
2740.0
 30
0.0
 70
0
  0
SEQEND
  5
41
  8
PLANCHE_18MM
  0
CIRCLE
  5
46
  8
GABARIT_BAGUES_18MM
 10
263.5
 20
1783.5
 30
0.0
 40
245.5
  0
CIRCLE
  5
47
  8
GABARIT_BAGUES_18MM
 10
263.5
 20
1783.5
 30
0.0
 40
200.5
  0
CIRCLE
  5
48
  8
GABARIT_BAGUES_18MM
 10
233.0
 20
2261.0
 30
0.0
 40
215.0
  0
CIRCLE
  5
49
  8
GABARIT_BAGUES_18MM
 10
233.0
 20
2261.0
 30
0.0
 40
170.0
  0
CIRCLE
  5
4A
  8
GABARIT_INTERIEUR_18MM
 10
555.5252751012466
 20
2531.5252751012467
 30
0.0
 40
189.52527510124662
  0
POLYLINE
  5
4B
  8
GABARIT_INTERIEUR_18MM
 66
1
 10
0.0
 20
0.0
 30
0.0
 70
1
  0
VERTEX
  5
4D
  8
GABARIT_INTERIEUR_18MM
 10
435.887154137557
 20
2525.2252751012466
 30
0.0
 42
0.41421356237309503
 70
0
  0
VERTEX
  5
4E
  8
GABARIT_INTERIEUR_18MM
 10
432.6871541375572
 20
2522.0252751012467
 30
0.0
 42
0.41421356237309503
 70
0
  0
VERTEX
  5
4F
  8
GABARIT_INTERIEUR_18MM
 10
435.8871541375572
 20
2518.825275101247
 30
0.0
 42
0.41421356237309503
 70
0
  0
VERTEX
  5
50
  8
GABARIT_INTERIEUR_18MM
 10
439.08715413755704
 20
2522.0252751012467
 30
0.0
 70
0
  0
VERTEX
  5
51
  8
GABARIT_INTERIEUR_18MM
 10
473.687154137557
 20
2522.0252751012467
 30
0.0
 42
0.41421356237309503
 70
0
  0
VERTEX
  5
52
  8
GABARIT_INTERIEUR_18MM
 10
476.8871541375569
 20
2518.825275101247
 30
0.0
 42
0.41421356237309503
 70
0
  0
VERTEX
  5
53
  8
GABARIT_INTERIEUR_18MM
 10
480.0871541375568
 20
2522.0252751012467
 30
0.0
 42
0.41421356237309503
 70
0
  0
VERTEX
  5
54
  8
GABARIT_INTERIEUR_18MM
 10
476.887154137557
 20
2525.2252751012466
 30
0.0
 70
0
  0
VERTEX
  5
55
  8
GABARIT_INTERIEUR_18MM
 10
476.887154137557
 20
2537.825275101247
 30
0.0
 42
0.41421356237309503
 70
0
  0
VERTEX
  5
56
  8
GABARIT_INTERIEUR_18MM
 10
480.0871541375568
 20
2541.0252751012467
 30
0.0
 42
0.41421356237309503
 70
0
  0
VERTEX
  5
57
  8
GABARIT_INTERIEUR_18MM
 10
476.8871541375569
 20
2544.2252751012466
 30
0.0
 42
0.41421356237309503
 70
0
  0
VERTEX
  5
58
  8
GABARIT_INTERIEUR_18MM
 10
473.687154137557
 20
2541.0252751012467
 30
0.0
 70
0
  0
VERTEX
  5
59
  8
GABARIT_INTERIEUR_18MM
 10
439.08715413755704
 20
2541.0252751012467
 30
0.0
 42
0.41421356237309503
 70
0
  0
VERTEX
  5
5A
  8
GABARIT_INTERIEUR_18MM
 10
435.8871541375571
 20
2544.2252751012466
 30
0.0
 42
0.41421356237309503
 70
0
  0
VERTEX
  5
5B
  8
GABARIT_INTERIEUR_18MM
 10
432.6871541375572
 20
2541.0252751012467
 30
0.0
 42
0.41421356237309503
 70
0
  0
VERTEX
  5
5C
  8
GABARIT_INTERIEUR_18MM
 10
435.887154137557
 20
2537.825275101247
 30
0.0
 70
0
  0
SEQEND
  5
4C
  8
GABARIT_INTERIEUR_18MM
  0
POLYLINE
  5
5D
  8
GABARIT_INTERIEUR_18MM
 66
1
 10
0.0
 20
0.0
 30
0.0
 70
1
  0
VERTEX
  5
5F
  8
GABARIT_INTERIEUR_18MM
 10
634.1633960649363
 20
2525.2252751012466
 30
0.0
 42
0.41421356237309503
 70
0
  0
VERTEX
  5
60
  8
GABARIT_INTERIEUR_18MM
 10
630.9633960649364
 20
2522.0252751012467
 30
0.0
 42
0.41421356237309503
 70
0
  0
VERTEX
  5
61
  8
GABARIT_INTERIEUR_18MM
 10
634.1633960649365
 20
2518.825275101247
 30
0.0
 42
0.41421356237309503
 70
0
  0
VERTEX
  5
62
  8
GABARIT_INTERIEUR_18MM
 10
637.3633960649363
 20
2522.0252751012467
 30
0.0
 70
0
  0
VERTEX
  5
63
  8
GABARIT_INTERIEUR_18MM
 10
671.9633960649362
 20
2522.0252751012467
 30
0.0
 42
0.41421356237309503
 70
0
  0
VERTEX
  5
64
  8
GABARIT_INTERIEUR_18MM
 10
675.1633960649361
 20
2518.825275101247
 30
0.0
 42
0.41421356237309503
 70
0
  0
VERTEX
  5
65
  8
GABARIT_INTERIEUR_18MM
 10
678.3633960649361
 20
2522.0252751012467
 30
0.0
 42
0.41421356237309503
 70
0
  0
VERTEX
  5
66
  8
GABARIT_INTERIEUR_18MM
 10
675.1633960649363
 20
2525.2252751012466
 30
0.0
 70
0
  0
VERTEX
  5
67
  8
GABARIT_INTERIEUR_18MM
 10
675.1633960649363
 20
2537.825275101247
 30
0.0
 42
0.41421356237309503
 70
0
  0
VERTEX
  5
68
  8
GABARIT_INTERIEUR_18MM
 10
678.3633960649361
 20
2541.0252751012467
 30
0.0
 42
0.41421356237309503
 70
0
  0
VERTEX
  5
69
  8
GABARIT_INTERIEUR_18MM
 10
675.163396064936
 20
2544.2252751012466
 30
0.0
 42
0.41421356237309503
 70
0
  0
VERTEX
  5
6A
  8
GABARIT_INTERIEUR_18MM
 10
671.9633960649362
 20
2541.0252751012467
 30
0.0
 70
0
  0
VERTEX
  5
6B
  8
GABARIT_INTERIEUR_18MM
 10
637.3633960649363
 20
2541.0252751012467
 30
0.0
 42
0.41421356237309503
 70
0
  0
VERTEX
  5
6C
  8
GABARIT_INTERIEUR_18MM
 10
634.1633960649364
 20
2544.2252751012466
 30
0.0
 42
0.41421356237309503
 70
0
  0
VERTEX
  5
6D
  8
GABARIT_INTERIEUR_18MM
 10
630.9633960649364
 20
2541.0252751012467
 30
0.0
 42
0.41421356237309503
 70
0
  0
VERTEX
  5
6E
  8
GABARIT_INTERIEUR_18MM
 10
634.1633960649363
 20
2537.825275101247
 30
0.0
 70
0
  0
SEQEND
  5
5E
  8
GABARIT_INTERIEUR_18MM
  0
POLYLINE
  5
6F
  8
GABARIT_INTERIEUR_18MM
 66
1
 10
0.0
 20
0.0
 30
0.0
 70
1
  0
VERTEX
  5
71
  8
GABARIT_INTERIEUR_18MM
 10
561.8252751012467
 20
2411.887154137557
 30
0.0
 42
0.41421356237309503
 70
0
  0
VERTEX
  5
72
  8
GABARIT_INTERIEUR_18MM
 10
565.0252751012467
 20
2408.6871541375567
 30
0.0
 42
0.41421356237309503
 70
0
  0
VERTEX
  5
73
  8
GABARIT_INTERIEUR_18MM
 10
568.2252751012468
 20
2411.887154137557
 30
0.0
 42
0.41421356237309503
 70
0
  0
VERTEX
  5
74
  8
GABARIT_INTERIEUR_18MM
 10
565.0252751012466
 20
2415.0871541375573
 30
0.0
 70
0
  0
VERTEX
  5
75
  8
GABARIT_INTERIEUR_18MM
 10
565.0252751012466
 20
2449.687154137557
 30
0.0
 42
0.41421356237309503
 70
0
  0
VERTEX
  5
76
  8
GABARIT_INTERIEUR_18MM
 10
568.2252751012466
 20
2452.887154137557
 30
0.0
 42
0.41421356237309503
 70
0
  0
VERTEX
  5
77
  8
GABARIT_INTERIEUR_18MM
 10
565.0252751012466
 20
2456.087154137557
 30
0.0
 42
0.41421356237309503
 70
0
  0
VERTEX
  5
78
  8
GABARIT_INTERIEUR_18MM
 10
561.8252751012467
 20
2452.887154137557
 30
0.0
 70
0
  0
VERTEX
  5
79
  8
GABARIT_INTERIEUR_18MM
 10
549.2252751012467
 20
2452.887154137557
 30
0.0
 42
0.41421356237309503
 70
0
  0
VERTEX
  5
7A
  8
GABARIT_INTERIEUR_18MM
 10
546.0252751012467
 20
2456.087154137557
 30
0.0
 42
0.41421356237309503
 70
0
  0
VERTEX
  5
7B
  8
GABARIT_INTERIEUR_18MM
 10
542.8252751012468
 20
2452.887154137557
 30
0.0
 42
0.41421356237309503
 70
0
  0
VERTEX
  5
7C
  8
GABARIT_INTERIEUR_18MM
 10
546.0252751012466
 20
2449.687154137557
 30
0.0
 70
0
  0
VERTEX
  5
7D
  8
GABARIT_INTERIEUR_18MM
 10
546.0252751012466
 20
2415.0871541375573
 30
0.0
 42
0.41421356237309503
 70
0
  0
VERTEX
  5
7E
  8
GABARIT_INTERIEUR_18MM
 10
542.8252751012463
 20
2411.887154137557
 30
0.0
 42
0.41421356237309503
 70
0
  0
VERTEX
  5
7F
  8
GABARIT_INTERIEUR_18MM
 10
546.0252751012464
 20
2408.6871541375567
 30
0.0
 42
0.41421356237309503
 70
0
  0
VERTEX
  5
80
  8
GABARIT_INTERIEUR_18MM
 10
549.2252751012467
 20
2411.887154137557
 30
0.0
 70
0
  0
SEQEND
  5
70
  8
GABARIT_INTERIEUR_18MM
  0
POLYLINE
  5
81
  8
GABARIT_INTERIEUR_18MM
 66
1
 10
0.0
 20
0.0
 30
0.0
 70
1
  0
VERTEX
  5
83
  8
GABARIT_INTERIEUR_18MM
 10
561.8252751012467
 20
2610.163396064936
 30
0.0
 42
0.41421356237309503
 70
0
  0
VERTEX
  5
84
  8
GABARIT_INTERIEUR_18MM
 10
565.0252751012467
 20
2606.9633960649358
 30
0.0
 42
0.41421356237309503
 70
0
  0
VERTEX
  5
85
  8
GABARIT_INTERIEUR_18MM
 10
568.2252751012468
 20
2610.163396064936
 30
0.0
 42
0.41421356237309503
 70
0
  0
VERTEX
  5
86
  8
GABARIT_INTERIEUR_18MM
 10
565.0252751012466
 20
2613.3633960649363
 30
0.0
 70
0
  0
VERTEX
  5
87
  8
GABARIT_INTERIEUR_18MM
 10
565.0252751012466
 20
2647.963396064936
 30
0.0
 42
0.41421356237309503
 70
0
  0
VERTEX
  5
88
  8
GABARIT_INTERIEUR_18MM
 10
568.2252751012466
 20
2651.163396064936
 30
0.0
 42
0.41421356237309503
 70
0
  0
VERTEX
  5
89
  8
GABARIT_INTERIEUR_18MM
 10
565.0252751012466
 20
2654.363396064936
 30
0.0
 42
0.41421356237309503
 70
0
  0
VERTEX
  5
8A
  8
GABARIT_INTERIEUR_18MM
 10
561.8252751012467
 20
2651.163396064936
 30
0.0
 70
0
  0
VERTEX
  5
8B
  8
GABARIT_INTERIEUR_18MM
 10
549.2252751012467
 20
2651.163396064936
 30
0.0
 42
0.41421356237309503
 70
0
  0
VERTEX
  5
8C
  8
GABARIT_INTERIEUR_18MM
 10
546.0252751012467
 20
2654.363396064936
 30
0.0
 42
0.41421356237309503
 70
0
  0
VERTEX
  5
8D
  8
GABARIT_INTERIEUR_18MM
 10
542.8252751012468
 20
2651.163396064936
 30
0.0
 42
0.41421356237309503
 70
0
  0
VERTEX
  5
8E
  8
GABARIT_INTERIEUR_18MM
 10
546.0252751012466
 20
2647.963396064936
 30
0.0
 70
0
  0
VERTEX
  5
8F
  8
GABARIT_INTERIEUR_18MM
 10
546.0252751012466
 20
2613.3633960649363
 30
0.0
 42
0.41421356237309503
 70
0
  0
VERTEX
  5
90
  8
GABARIT_INTERIEUR_18MM
 10
542.8252751012463
 20
2610.163396064936
 30
0.0
 42
0.41421356237309503
 70
0
  0
VERTEX
  5
91
  8
GABARIT_INTERIEUR_18MM
 10
546.0252751012464
 20
2606.9633960649358
 30
0.0
 42
0.41421356237309503
 70
0
  0
VERTEX
  5
92
  8
GABARIT_INTERIEUR_18MM
 10
549.2252751012467
 20
2610.163396064936
 30
0.0
 70
0
  0
SEQEND
  5
82
  8
GABARIT_INTERIEUR_18MM
  0
CIRCLE
  5
93
  8
GABARIT_BAGUES_18MM
 10
603.0
 20
2075.0
 30
0.0
 40
185.0
  0
CIRCLE
  5
94
  8
GABARIT_BAGUES_18MM
 10
603.0
 20
2075.0
 30
0.0
 40
140.0
  0
CIRCLE
  5
95
  8
GABARIT_BAGUES_18MM
 10
237.0
 20
1773.0
 30
0.0
 40
155.0
  0
CIRCLE
  5
96
  8
GABARIT_BAGUES_18MM
 10
237.0
 20
1773.0
 30
0.0
 40
110.0
  0
POLYLINE
  5
97
  8
GABARIT_INTERIEUR_18MM
 66
1
 10
0.0
 20
0.0
 30
0.0
 70
1
  0
VERTEX
  5
99
  8
GABARIT_INTERIEUR_18MM
 10
474.0
 20
1556.0
 30
0.0
 70
0
  0
VERTEX
  5
9A
  8
GABARIT_INTERIEUR_18MM
 10
540.6871541375571
 20
1556.0
 30
0.0
 42
-0.41421356237309503
 70
0
  0
VERTEX
  5
9B
  8
GABARIT_INTERIEUR_18MM
 10
543.887154137557
 20
1559.2
 30
0.0
 42
-0.41421356237309503
 70
0
  0
VERTEX
  5
9C
  8
GABARIT_INTERIEUR_18MM
 10
547.087154137557
 20
1556.0
 30
0.0
 42
-0.41421356237309503
 70
0
  0
VERTEX
  5
9D
  8
GABARIT_INTERIEUR_18MM
 10
543.887154137557
 20
1552.8
 30
0.0
 70
0
  0
VERTEX
  5
9E
  8
GABARIT_INTERIEUR_18MM
 10
543.887154137557
 20
1538.0
 30
0.0
 70
0
  0
VERTEX
  5
9F
  8
GABARIT_INTERIEUR_18MM
 10
583.887154137557
 20
1538.0
 30
0.0
 70
0
  0
VERTEX
  5
A0
  8
GABARIT_INTERIEUR_18MM
 10
583.887154137557
 20
1552.8
 30
0.0
 42
-0.41421356237309503
 70
0
  0
VERTEX
  5
A1
  8
GABARIT_INTERIEUR_18MM
 10
580.687154137557
 20
1556.0
 30
0.0
 42
-0.41421356237309503
 70
0
  0
VERTEX
  5
A2
  8
GABARIT_INTERIEUR_18MM
 10
583.887154137557
 20
1559.2
 30
0.0
 42
-0.41421356237309503
 70
0
  0
VERTEX
  5
A3
  8
GABARIT_INTERIEUR_18MM
 10
587.087154137557
 20
1556.0
 30
0.0
 70
0
  0
VERTEX
  5
A4
  8
GABARIT_INTERIEUR_18MM
 10
653.5252751012466
 20
1556.0
 30
0.0
 70
0
  0
VERTEX
  5
A5
  8
GABARIT_INTERIEUR_18MM
 10
653.5252751012466
 20
1647.3
 30
0.0
 42
-0.41421356237309503
 70
0
  0
VERTEX
  5
A6
  8
GABARIT_INTERIEUR_18MM
 10
650.3252751012466
 20
1650.5
 30
0.0
 42
-0.41421356237309503
 70
0
  0
VERTEX
  5
A7
  8
GABARIT_INTERIEUR_18MM
 10
653.5252751012466
 20
1653.7
 30
0.0
 42
-0.41421356237309503
 70
0
  0
VERTEX
  5
A8
  8
GABARIT_INTERIEUR_18MM
 10
656.7252751012467
 20
1650.5
 30
0.0
 70
0
  0
VERTEX
  5
A9
  8
GABARIT_INTERIEUR_18MM
 10
669.3252751012467
 20
1650.5
 30
0.0
 42
-0.41421356237309503
 70
0
  0
VERTEX
  5
AA
  8
GABARIT_INTERIEUR_18MM
 10
672.5252751012467
 20
1653.7
 30
0.0
 42
-0.41421356237309503
 70
0
  0
VERTEX
  5
AB
  8
GABARIT_INTERIEUR_18MM
 10
675.7252751012468
 20
1650.5
 30
0.0
 42
-0.41421356237309503
 70
0
  0
VERTEX
  5
AC
  8
GABARIT_INTERIEUR_18MM
 10
672.5252751012466
 20
1647.3
 30
0.0
 70
0
  0
VERTEX
  5
AD
  8
GABARIT_INTERIEUR_18MM
 10
672.5252751012466
 20
1556.0
 30
0.0
 70
0
  0
VERTEX
  5
AE
  8
GABARIT_INTERIEUR_18MM
 10
738.9633960649362
 20
1556.0
 30
0.0
 42
-0.41421356237309503
 70
0
  0
VERTEX
  5
AF
  8
GABARIT_INTERIEUR_18MM
 10
742.1633960649363
 20
1559.2
 30
0.0
 42
-0.41421356237309503
 70
0
  0
VERTEX
  5
B0
  8
GABARIT_INTERIEUR_18MM
 10
745.3633960649363
 20
1556.0
 30
0.0
 42
-0.41421356237309503
 70
0
  0
VERTEX
  5
B1
  8
GABARIT_INTERIEUR_18MM
 10
742.1633960649363
 20
1552.8
 30
0.0
 70
0
  0
VERTEX
  5
B2
  8
GABARIT_INTERIEUR_18MM
 10
742.1633960649363
 20
1538.0
 30
0.0
 70
0
  0
VERTEX
  5
B3
  8
GABARIT_INTERIEUR_18MM
 10
782.1633960649363
 20
1538.0
 30
0.0
 70
0
  0
VERTEX
  5
B4
  8
GABARIT_INTERIEUR_18MM
 10
782.1633960649363
 20
1552.8
 30
0.0
 42
-0.41421356237309503
 70
0
  0
VERTEX
  5
B5
  8
GABARIT_INTERIEUR_18MM
 10
778.9633960649362
 20
1556.0
 30
0.0
 42
-0.41421356237309503
 70
0
  0
VERTEX
  5
B6
  8
GABARIT_INTERIEUR_18MM
 10
782.1633960649363
 20
1559.2
 30
0.0
 42
-0.41421356237309503
 70
0
  0
VERTEX
  5
B7
  8
GABARIT_INTERIEUR_18MM
 10
785.3633960649363
 20
1556.0
 30
0.0
 70
0
  0
VERTEX
  5
B8
  8
GABARIT_INTERIEUR_18MM
 10
852.0505502024932
 20
1556.0
 30
0.0
 70
0
  0
VERTEX
  5
B9
  8
GABARIT_INTERIEUR_18MM
 10
801.6505502024934
 20
1745.0
 30
0.0
 70
0
  0
VERTEX
  5
BA
  8
GABARIT_INTERIEUR_18MM
 10
757.7087686018568
 20
1745.0
 30
0.0
 42
-0.41421356237309503
 70
0
  0
VERTEX
  5
BB
  8
GABARIT_INTERIEUR_18MM
 10
754.5087686018569
 20
1741.8
 30
0.0
 42
-0.41421356237309503
 70
0
  0
VERTEX
  5
BC
  8
GABARIT_INTERIEUR_18MM
 10
751.3087686018569
 20
1745.0
 30
0.0
 42
-0.41421356237309503
 70
0
  0
VERTEX
  5
BD
  8
GABARIT_INTERIEUR_18MM
 10
754.5087686018569
 20
1748.2
 30
0.0
 70
0
  0
VERTEX
  5
BE
  8
GABARIT_INTERIEUR_18MM
 10
754.5087686018569
 20
1763.0
 30
0.0
 70
0
  0
VERTEX
  5
BF
  8
GABARIT_INTERIEUR_18MM
 10
714.5087686018569
 20
1763.0
 30
0.0
 70
0
  0
VERTEX
  5
C0
  8
GABARIT_INTERIEUR_18MM
 10
714.5087686018569
 20
1748.2
 30
0.0
 42
-0.41421356237309503
 70
0
  0
VERTEX
  5
C1
  8
GABARIT_INTERIEUR_18MM
 10
717.708768601857
 20
1745.0
 30
0.0
 42
-0.41421356237309503
 70
0
  0
VERTEX
  5
C2
  8
GABARIT_INTERIEUR_18MM
 10
714.5087686018569
 20
1741.8
 30
0.0
 42
-0.41421356237309503
 70
0
  0
VERTEX
  5
C3
  8
GABARIT_INTERIEUR_18MM
 10
711.3087686018569
 20
1745.0
 30
0.0
 70
0
  0
VERTEX
  5
C4
  8
GABARIT_INTERIEUR_18MM
 10
614.7417816006364
 20
1745.0
 30
0.0
 42
-0.41421356237309503
 70
0
  0
VERTEX
  5
C5
  8
GABARIT_INTERIEUR_18MM
 10
611.5417816006363
 20
1741.8
 30
0.0
 42
-0.41421356237309503
 70
0
  0
VERTEX
  5
C6
  8
GABARIT_INTERIEUR_18MM
 10
608.3417816006363
 20
1745.0
 30
0.0
 42
-0.41421356237309503
 70
0
  0
VERTEX
  5
C7
  8
GABARIT_INTERIEUR_18MM
 10
611.5417816006365
 20
1748.2
 30
0.0
 70
0
  0
VERTEX
  5
C8
  8
GABARIT_INTERIEUR_18MM
 10
611.5417816006365
 20
1763.0
 30
0.0
 70
0
  0
VERTEX
  5
C9
  8
GABARIT_INTERIEUR_18MM
 10
571.5417816006365
 20
1763.0
 30
0.0
 70
0
  0
VERTEX
  5
CA
  8
GABARIT_INTERIEUR_18MM
 10
571.5417816006365
 20
1748.2
 30
0.0
 42
-0.41421356237309503
 70
0
  0
VERTEX
  5
CB
  8
GABARIT_INTERIEUR_18MM
 10
574.7417816006365
 20
1745.0
 30
0.0
 42
-0.41421356237309503
 70
0
  0
VERTEX
  5
CC
  8
GABARIT_INTERIEUR_18MM
 10
571.5417816006365
 20
1741.8
 30
0.0
 42
-0.41421356237309503
 70
0
  0
VERTEX
  5
CD
  8
GABARIT_INTERIEUR_18MM
 10
568.3417816006364
 20
1745.0
 30
0.0
 70
0
  0
VERTEX
  5
CE
  8
GABARIT_INTERIEUR_18MM
 10
524.4
 20
1745.0
 30
0.0
 70
0
  0
SEQEND
  5
98
  8
GABARIT_INTERIEUR_18MM
  0
POLYLINE
  5
CF
  8
GABARIT_INTERIEUR_18MM
 66
1
 10
0.0
 20
0.0
 30
0.0
 70
1
  0
VERTEX
  5
D1
  8
GABARIT_INTERIEUR_18MM
 10
690.0
 20
2256.0
 30
0.0
 70
0
  0
VERTEX
  5
D2
  8
GABARIT_INTERIEUR_18MM
 10
756.6871541375571
 20
2256.0
 30
0.0
 42
-0.41421356237309503
 70
0
  0
VERTEX
  5
D3
  8
GABARIT_INTERIEUR_18MM
 10
759.887154137557
 20
2259.2
 30
0.0
 42
-0.41421356237309503
 70
0
  0
VERTEX
  5
D4
  8
GABARIT_INTERIEUR_18MM
 10
763.0871541375568
 20
2256.0
 30
0.0
 42
-0.41421356237309503
 70
0
  0
VERTEX
  5
D5
  8
GABARIT_INTERIEUR_18MM
 10
759.887154137557
 20
2252.8
 30
0.0
 70
0
  0
VERTEX
  5
D6
  8
GABARIT_INTERIEUR_18MM
 10
759.887154137557
 20
2238.0
 30
0.0
 70
0
  0
VERTEX
  5
D7
  8
GABARIT_INTERIEUR_18MM
 10
799.887154137557
 20
2238.0
 30
0.0
 70
0
  0
VERTEX
  5
D8
  8
GABARIT_INTERIEUR_18MM
 10
799.887154137557
 20
2252.8
 30
0.0
 42
-0.41421356237309503
 70
0
  0
VERTEX
  5
D9
  8
GABARIT_INTERIEUR_18MM
 10
796.6871541375572
 20
2256.0
 30
0.0
 42
-0.41421356237309503
 70
0
  0
VERTEX
  5
DA
  8
GABARIT_INTERIEUR_18MM
 10
799.8871541375572
 20
2259.2
 30
0.0
 42
-0.41421356237309503
 70
0
  0
VERTEX
  5
DB
  8
GABARIT_INTERIEUR_18MM
 10
803.087154137557
 20
2256.0
 30
0.0
 70
0
  0
VERTEX
  5
DC
  8
GABARIT_INTERIEUR_18MM
 10
954.9633960649362
 20
2256.0
 30
0.0
 42
-0.41421356237309503
 70
0
  0
VERTEX
  5
DD
  8
GABARIT_INTERIEUR_18MM
 10
958.1633960649361
 20
2259.2
 30
0.0
 42
-0.41421356237309503
 70
0
  0
VERTEX
  5
DE
  8
GABARIT_INTERIEUR_18MM
 10
961.3633960649361
 20
2256.0
 30
0.0
 42
-0.41421356237309503
 70
0
  0
VERTEX
  5
DF
  8
GABARIT_INTERIEUR_18MM
 10
958.1633960649363
 20
2252.8
 30
0.0
 70
0
  0
VERTEX
  5
E0
  8
GABARIT_INTERIEUR_18MM
 10
958.1633960649363
 20
2238.0
 30
0.0
 70
0
  0
VERTEX
  5
E1
  8
GABARIT_INTERIEUR_18MM
 10
998.1633960649363
 20
2238.0
 30
0.0
 70
0
  0
VERTEX
  5
E2
  8
GABARIT_INTERIEUR_18MM
 10
998.1633960649363
 20
2252.8
 30
0.0
 42
-0.41421356237309503
 70
0
  0
VERTEX
  5
E3
  8
GABARIT_INTERIEUR_18MM
 10
994.9633960649364
 20
2256.0
 30
0.0
 42
-0.41421356237309503
 70
0
  0
VERTEX
  5
E4
  8
GABARIT_INTERIEUR_18MM
 10
998.1633960649365
 20
2259.2
 30
0.0
 42
-0.41421356237309503
 70
0
  0
VERTEX
  5
E5
  8
GABARIT_INTERIEUR_18MM
 10
1001.3633960649363
 20
2256.0
 30
0.0
 70
0
  0
VERTEX
  5
E6
  8
GABARIT_INTERIEUR_18MM
 10
1068.0505502024932
 20
2256.0
 30
0.0
 70
0
  0
VERTEX
  5
E7
  8
GABARIT_INTERIEUR_18MM
 10
1017.6505502024934
 20
2445.0
 30
0.0
 70
0
  0
VERTEX
  5
E8
  8
GABARIT_INTERIEUR_18MM
 10
973.7087686018568
 20
2445.0
 30
0.0
 42
-0.41421356237309503
 70
0
  0
VERTEX
  5
E9
  8
GABARIT_INTERIEUR_18MM
 10
970.5087686018569
 20
2441.8
 30
0.0
 42
-0.41421356237309503
 70
0
  0
VERTEX
  5
EA
  8
GABARIT_INTERIEUR_18MM
 10
967.3087686018571
 20
2445.0
 30
0.0
 42
-0.41421356237309503
 70
0
  0
VERTEX
  5
EB
  8
GABARIT_INTERIEUR_18MM
 10
970.5087686018569
 20
2448.2
 30
0.0
 70
0
  0
VERTEX
  5
EC
  8
GABARIT_INTERIEUR_18MM
 10
970.5087686018569
 20
2463.0
 30
0.0
 70
0
  0
VERTEX
  5
ED
  8
GABARIT_INTERIEUR_18MM
 10
930.5087686018569
 20
2463.0
 30
0.0
 70
0
  0
VERTEX
  5
EE
  8
GABARIT_INTERIEUR_18MM
 10
930.5087686018569
 20
2448.2
 30
0.0
 42
-0.41421356237309503
 70
0
  0
VERTEX
  5
EF
  8
GABARIT_INTERIEUR_18MM
 10
933.7087686018567
 20
2445.0
 30
0.0
 42
-0.41421356237309503
 70
0
  0
VERTEX
  5
F0
  8
GABARIT_INTERIEUR_18MM
 10
930.5087686018567
 20
2441.8
 30
0.0
 42
-0.41421356237309503
 70
0
  0
VERTEX
  5
F1
  8
GABARIT_INTERIEUR_18MM
 10
927.3087686018569
 20
2445.0
 30
0.0
 70
0
  0
VERTEX
  5
F2
  8
GABARIT_INTERIEUR_18MM
 10
888.5252751012466
 20
2445.0
 30
0.0
 70
0
  0
VERTEX
  5
F3
  8
GABARIT_INTERIEUR_18MM
 10
888.5252751012466
 20
2353.7
 30
0.0
 42
-0.41421356237309503
 70
0
  0
VERTEX
  5
F4
  8
GABARIT_INTERIEUR_18MM
 10
891.7252751012463
 20
2350.5
 30
0.0
 42
-0.41421356237309503
 70
0
  0
VERTEX
  5
F5
  8
GABARIT_INTERIEUR_18MM
 10
888.5252751012464
 20
2347.3
 30
0.0
 42
-0.41421356237309503
 70
0
  0
VERTEX
  5
F6
  8
GABARIT_INTERIEUR_18MM
 10
885.3252751012467
 20
2350.5
 30
0.0
 70
0
  0
VERTEX
  5
F7
  8
GABARIT_INTERIEUR_18MM
 10
872.7252751012467
 20
2350.5
 30
0.0
 42
-0.41421356237309503
 70
0
  0
VERTEX
  5
F8
  8
GABARIT_INTERIEUR_18MM
 10
869.5252751012467
 20
2347.3
 30
0.0
 42
-0.41421356237309503
 70
0
  0
VERTEX
  5
F9
  8
GABARIT_INTERIEUR_18MM
 10
866.3252751012468
 20
2350.5
 30
0.0
 42
-0.41421356237309503
 70
0
  0
VERTEX
  5
FA
  8
GABARIT_INTERIEUR_18MM
 10
869.5252751012466
 20
2353.7
 30
0.0
 70
0
  0
VERTEX
  5
FB
  8
GABARIT_INTERIEUR_18MM
 10
869.5252751012466
 20
2445.0
 30
0.0
 70
0
  0
VERTEX
  5
FC
  8
GABARIT_INTERIEUR_18MM
 10
830.7417816006364
 20
2445.0
 30
0.0
 42
-0.41421356237309503
 70
0
  0
VERTEX
  5
FD
  8
GABARIT_INTERIEUR_18MM
 10
827.5417816006366
 20
2441.8
 30
0.0
 42
-0.41421356237309503
 70
0
  0
VERTEX
  5
FE
  8
GABARIT_INTERIEUR_18MM
 10
824.3417816006368
 20
2445.0
 30
0.0
 42
-0.41421356237309503
 70
0
  0
VERTEX
  5
FF
  8
GABARIT_INTERIEUR_18MM
 10
827.5417816006365
 20
2448.2
 30
0.0
 70
0
  0
VERTEX
  5
100
  8
GABARIT_INTERIEUR_18MM
 10
827.5417816006365
 20
2463.0
 30
0.0
 70
0
  0
VERTEX
  5
101
  8
GABARIT_INTERIEUR_18MM
 10
787.5417816006365
 20
2463.0
 30
0.0
 70
0
  0
VERTEX
  5
102
  8
GABARIT_INTERIEUR_18MM
 10
787.5417816006365
 20
2448.2
 30
0.0
 42
-0.41421356237309503
 70
0
  0
VERTEX
  5
103
  8
GABARIT_INTERIEUR_18MM
 10
790.7417816006363
 20
2445.0
 30
0.0
 42
-0.41421356237309503
 70
0
  0
VERTEX
  5
104
  8
GABARIT_INTERIEUR_18MM
 10
787.5417816006362
 20
2441.8
 30
0.0
 42
-0.41421356237309503
 70
0
  0
VERTEX
  5
105
  8
GABARIT_INTERIEUR_18MM
 10
784.3417816006364
 20
2445.0
 30
0.0
 70
0
  0
VERTEX
  5
106
  8
GABARIT_INTERIEUR_18MM
 10
740.4
 20
2445.0
 30
0.0
 70
0
  0
SEQEND
  5
D0
  8
GABARIT_INTERIEUR_18MM
  0
CIRCLE
  5
107
  8
GABARIT_INTERIEUR_18MM
 10
216.32527510124666
 20
2252.325275101247
 30
0.0
 40
134.32527510124666
  0
POLYLINE
  5
108
  8
GABARIT_INTERIEUR_18MM
 66
1
 10
0.0
 20
0.0
 30
0.0
 70
1
  0
VERTEX
  5
10A
  8
GABARIT_INTERIEUR_18MM
 10
124.34178160063645
 20
2246.0252751012467
 30
0.0
 42
0.41421356237309503
 70
0
  0
VERTEX
  5
10B
  8
GABARIT_INTERIEUR_18MM
 10
121.14178160063665
 20
2242.825275101247
 30
0.0
 42
0.41421356237309503
 70
0
  0
VERTEX
  5
10C
  8
GABARIT_INTERIEUR_18MM
 10
124.34178160063665
 20
2239.625275101247
 30
0.0
 42
0.41421356237309503
 70
0
  0
VERTEX
  5
10D
  8
GABARIT_INTERIEUR_18MM
 10
127.54178160063645
 20
2242.825275101247
 30
0.0
 70
0
  0
VERTEX
  5
10E
  8
GABARIT_INTERIEUR_18MM
 10
162.14178160063645
 20
2242.825275101247
 30
0.0
 42
0.41421356237309503
 70
0
  0
VERTEX
  5
10F
  8
GABARIT_INTERIEUR_18MM
 10
165.34178160063638
 20
2239.625275101247
 30
0.0
 42
0.41421356237309503
 70
0
  0
VERTEX
  5
110
  8
GABARIT_INTERIEUR_18MM
 10
168.5417816006363
 20
2242.825275101247
 30
0.0
 42
0.41421356237309503
 70
0
  0
VERTEX
  5
111
  8
GABARIT_INTERIEUR_18MM
 10
165.34178160063647
 20
2246.0252751012467
 30
0.0
 70
0
  0
VERTEX
  5
112
  8
GABARIT_INTERIEUR_18MM
 10
165.34178160063647
 20
2258.6252751012466
 30
0.0
 42
0.41421356237309503
 70
0
  0
VERTEX
  5
113
  8
GABARIT_INTERIEUR_18MM
 10
168.54178160063674
 20
2261.825275101247
 30
0.0
 42
0.41421356237309503
 70
0
  0
VERTEX
  5
114
  8
GABARIT_INTERIEUR_18MM
 10
165.34178160063675
 20
2265.025275101247
 30
0.0
 42
0.41421356237309503
 70
0
  0
VERTEX
  5
115
  8
GABARIT_INTERIEUR_18MM
 10
162.14178160063645
 20
2261.825275101247
 30
0.0
 70
0
  0
VERTEX
  5
116
  8
GABARIT_INTERIEUR_18MM
 10
127.54178160063645
 20
2261.825275101247
 30
0.0
 42
0.41421356237309503
 70
0
  0
VERTEX
  5
117
  8
GABARIT_INTERIEUR_18MM
 10
124.34178160063631
 20
2265.025275101247
 30
0.0
 42
0.41421356237309503
 70
0
  0
VERTEX
  5
118
  8
GABARIT_INTERIEUR_18MM
 10
121.14178160063616
 20
2261.825275101247
 30
0.0
 42
0.41421356237309503
 70
0
  0
VERTEX
  5
119
  8
GABARIT_INTERIEUR_18MM
 10
124.34178160063645
 20
2258.6252751012466
 30
0.0
 70
0
  0
SEQEND
  5
109
  8
GABARIT_INTERIEUR_18MM
  0
POLYLINE
  5
11A
  8
GABARIT_INTERIEUR_18MM
 66
1
 10
0.0
 20
0.0
 30
0.0
 70
1
  0
VERTEX
  5
11C
  8
GABARIT_INTERIEUR_18MM
 10
267.30876860185685
 20
2246.0252751012467
 30
0.0
 42
0.41421356237309503
 70
0
  0
VERTEX
  5
11D
  8
GABARIT_INTERIEUR_18MM
 10
264.10876860185704
 20
2242.825275101247
 30
0.0
 42
0.41421356237309503
 70
0
  0
VERTEX
  5
11E
  8
GABARIT_INTERIEUR_18MM
 10
267.3087686018571
 20
2239.625275101247
 30
0.0
 42
0.41421356237309503
 70
0
  0
VERTEX
  5
11F
  8
GABARIT_INTERIEUR_18MM
 10
270.5087686018569
 20
2242.825275101247
 30
0.0
 70
0
  0
VERTEX
  5
120
  8
GABARIT_INTERIEUR_18MM
 10
305.10876860185687
 20
2242.825275101247
 30
0.0
 42
0.41421356237309503
 70
0
  0
VERTEX
  5
121
  8
GABARIT_INTERIEUR_18MM
 10
308.30876860185674
 20
2239.625275101247
 30
0.0
 42
0.41421356237309503
 70
0
  0
VERTEX
  5
122
  8
GABARIT_INTERIEUR_18MM
 10
311.5087686018567
 20
2242.825275101247
 30
0.0
 42
0.41421356237309503
 70
0
  0
VERTEX
  5
123
  8
GABARIT_INTERIEUR_18MM
 10
308.30876860185685
 20
2246.0252751012467
 30
0.0
 70
0
  0
VERTEX
  5
124
  8
GABARIT_INTERIEUR_18MM
 10
308.30876860185685
 20
2258.6252751012466
 30
0.0
 42
0.41421356237309503
 70
0
  0
VERTEX
  5
125
  8
GABARIT_INTERIEUR_18MM
 10
311.5087686018571
 20
2261.825275101247
 30
0.0
 42
0.41421356237309503
 70
0
  0
VERTEX
  5
126
  8
GABARIT_INTERIEUR_18MM
 10
308.3087686018572
 20
2265.025275101247
 30
0.0
 42
0.41421356237309503
 70
0
  0
VERTEX
  5
127
  8
GABARIT_INTERIEUR_18MM
 10
305.10876860185687
 20
2261.825275101247
 30
0.0
 70
0
  0
VERTEX
  5
128
  8
GABARIT_INTERIEUR_18MM
 10
270.5087686018569
 20
2261.825275101247
 30
0.0
 42
0.41421356237309503
 70
0
  0
VERTEX
  5
129
  8
GABARIT_INTERIEUR_18MM
 10
267.30876860185674
 20
2265.025275101247
 30
0.0
 42
0.41421356237309503
 70
0
  0
VERTEX
  5
12A
  8
GABARIT_INTERIEUR_18MM
 10
264.1087686018566
 20
2261.825275101247
 30
0.0
 42
0.41421356237309503
 70
0
  0
VERTEX
  5
12B
  8
GABARIT_INTERIEUR_18MM
 10
267.30876860185685
 20
2258.6252751012466
 30
0.0
 70
0
  0
SEQEND
  5
11B
  8
GABARIT_INTERIEUR_18MM
  0
POLYLINE
  5
12C
  8
GABARIT_INTERIEUR_18MM
 66
1
 10
0.0
 20
0.0
 30
0.0
 70
1
  0
VERTEX
  5
12E
  8
GABARIT_INTERIEUR_18MM
 10
222.62527510124664
 20
2160.3417816006363
 30
0.0
 42
0.41421356237309503
 70
0
  0
VERTEX
  5
12F
  8
GABARIT_INTERIEUR_18MM
 10
225.8252751012468
 20
2157.141781600636
 30
0.0
 42
0.41421356237309503
 70
0
  0
VERTEX
  5
130
  8
GABARIT_INTERIEUR_18MM
 10
229.02527510124696
 20
2160.3417816006363
 30
0.0
 42
0.41421356237309503
 70
0
  0
VERTEX
  5
131
  8
GABARIT_INTERIEUR_18MM
 10
225.82527510124666
 20
2163.5417816006366
 30
0.0
 70
0
  0
VERTEX
  5
132
  8
GABARIT_INTERIEUR_18MM
 10
225.82527510124666
 20
2198.1417816006365
 30
0.0
 42
0.41421356237309503
 70
0
  0
VERTEX
  5
133
  8
GABARIT_INTERIEUR_18MM
 10
229.0252751012465
 20
2201.3417816006363
 30
0.0
 42
0.41421356237309503
 70
0
  0
VERTEX
  5
134
  8
GABARIT_INTERIEUR_18MM
 10
225.8252751012465
 20
2204.541781600636
 30
0.0
 42
0.41421356237309503
 70
0
  0
VERTEX
  5
135
  8
GABARIT_INTERIEUR_18MM
 10
222.62527510124664
 20
2201.3417816006363
 30
0.0
 70
0
  0
VERTEX
  5
136
  8
GABARIT_INTERIEUR_18MM
 10
210.02527510124665
 20
2201.3417816006363
 30
0.0
 42
0.41421356237309503
 70
0
  0
VERTEX
  5
137
  8
GABARIT_INTERIEUR_18MM
 10
206.82527510124675
 20
2204.541781600636
 30
0.0
 42
0.41421356237309503
 70
0
  0
VERTEX
  5
138
  8
GABARIT_INTERIEUR_18MM
 10
203.62527510124684
 20
2201.3417816006363
 30
0.0
 42
0.41421356237309503
 70
0
  0
VERTEX
  5
139
  8
GABARIT_INTERIEUR_18MM
 10
206.82527510124666
 20
2198.1417816006365
 30
0.0
 70
0
  0
VERTEX
  5
13A
  8
GABARIT_INTERIEUR_18MM
 10
206.82527510124666
 20
2163.5417816006366
 30
0.0
 42
0.41421356237309503
 70
0
  0
VERTEX
  5
13B
  8
GABARIT_INTERIEUR_18MM
 10
203.6252751012464
 20
2160.3417816006363
 30
0.0
 42
0.41421356237309503
 70
0
  0
VERTEX
  5
13C
  8
GABARIT_INTERIEUR_18MM
 10
206.82527510124638
 20
2157.141781600636
 30
0.0
 42
0.41421356237309503
 70
0
  0
VERTEX
  5
13D
  8
GABARIT_INTERIEUR_18MM
 10
210.02527510124665
 20
2160.3417816006363
 30
0.0
 70
0
  0
SEQEND
  5
12D
  8
GABARIT_INTERIEUR_18MM
  0
POLYLINE
  5
13E
  8
GABARIT_INTERIEUR_18MM
 66
1
 10
0.0
 20
0.0
 30
0.0
 70
1
  0
VERTEX
  5
140
  8
GABARIT_INTERIEUR_18MM
 10
222.62527510124667
 20
2303.308768601857
 30
0.0
 42
0.41421356237309503
 70
0
  0
VERTEX
  5
141
  8
GABARIT_INTERIEUR_18MM
 10
225.82527510124658
 20
2300.1087686018573
 30
0.0
 42
0.41421356237309503
 70
0
  0
VERTEX
  5
142
  8
GABARIT_INTERIEUR_18MM
 10
229.02527510124648
 20
2303.308768601857
 30
0.0
 42
0.41421356237309503
 70
0
  0
VERTEX
  5
143
  8
GABARIT_INTERIEUR_18MM
 10
225.82527510124666
 20
2306.508768601857
 30
0.0
 70
0
  0
VERTEX
  5
144
  8
GABARIT_INTERIEUR_18MM
 10
225.82527510124666
 20
2341.108768601857
 30
0.0
 42
0.41421356237309503
 70
0
  0
VERTEX
  5
145
  8
GABARIT_INTERIEUR_18MM
 10
229.02527510124693
 20
2344.308768601857
 30
0.0
 42
0.41421356237309503
 70
0
  0
VERTEX
  5
146
  8
GABARIT_INTERIEUR_18MM
 10
225.82527510124694
 20
2347.5087686018574
 30
0.0
 42
0.41421356237309503
 70
0
  0
VERTEX
  5
147
  8
GABARIT_INTERIEUR_18MM
 10
222.62527510124667
 20
2344.308768601857
 30
0.0
 70
0
  0
VERTEX
  5
148
  8
GABARIT_INTERIEUR_18MM
 10
210.02527510124668
 20
2344.308768601857
 30
0.0
 42
0.41421356237309503
 70
0
  0
VERTEX
  5
149
  8
GABARIT_INTERIEUR_18MM
 10
206.82527510124652
 20
2347.5087686018574
 30
0.0
 42
0.41421356237309503
 70
0
  0
VERTEX
  5
14A
  8
GABARIT_INTERIEUR_18MM
 10
203.62527510124636
 20
2344.308768601857
 30
0.0
 42
0.41421356237309503
 70
0
  0
VERTEX
  5
14B
  8
GABARIT_INTERIEUR_18MM
 10
206.82527510124666
 20
2341.108768601857
 30
0.0
 70
0
  0
VERTEX
  5
14C
  8
GABARIT_INTERIEUR_18MM
 10
206.82527510124666
 20
2306.508768601857
 30
0.0
 42
0.41421356237309503
 70
0
  0
VERTEX
  5
14D
  8
GABARIT_INTERIEUR_18MM
 10
203.62527510124684
 20
2303.308768601857
 30
0.0
 42
0.41421356237309503
 70
0
  0
VERTEX
  5
14E
  8
GABARIT_INTERIEUR_18MM
 10
206.8252751012469
 20
2300.1087686018573
 30
0.0
 42
0.41421356237309503
 70
0
  0
VERTEX
  5
14F
  8
GABARIT_INTERIEUR_18MM
 10
210.02527510124668
 20
2303.308768601857
 30
0.0
 70
0
  0
SEQEND
  5
13F
  8
GABARIT_INTERIEUR_18MM
  0
CIRCLE
  5
150
  8
GABARIT_INTERIEUR_18MM
 10
867.5252751012466
 20
1875.5252751012467
 30
0.0
 40
129.52527510124662
  0
POLYLINE
  5
151
  8
GABARIT_INTERIEUR_18MM
 66
1
 10
0.0
 20
0.0
 30
0.0
 70
1
  0
VERTEX
  5
153
  8
GABARIT_INTERIEUR_18MM
 10
808.6399788360685
 20
1807.730433393118
 30
0.0
 42
0.41421356237309503
 70
0
  0
VERTEX
  5
154
  8
GABARIT_INTERIEUR_18MM
 10
808.6399788360686
 20
1803.204949993524
 30
0.0
 42
0.41421356237309503
 70
0
  0
VERTEX
  5
155
  8
GABARIT_INTERIEUR_18MM
 10
813.1654622356625
 20
1803.2049499935242
 30
0.0
 42
0.41421356237309503
 70
0
  0
VERTEX
  5
156
  8
GABARIT_INTERIEUR_18MM
 10
813.1654622356624
 20
1807.730433393118
 30
0.0
 70
0
  0
VERTEX
  5
157
  8
GABARIT_INTERIEUR_18MM
 10
837.631356864717
 20
1832.1963280221726
 30
0.0
 42
0.41421356237309503
 70
0
  0
VERTEX
  5
158
  8
GABARIT_INTERIEUR_18MM
 10
842.1568402643107
 20
1832.1963280221723
 30
0.0
 42
0.41421356237309503
 70
0
  0
VERTEX
  5
159
  8
GABARIT_INTERIEUR_18MM
 10
842.156840264311
 20
1836.7218114217662
 30
0.0
 42
0.41421356237309503
 70
0
  0
VERTEX
  5
15A
  8
GABARIT_INTERIEUR_18MM
 10
837.631356864717
 20
1836.7218114217665
 30
0.0
 70
0
  0
VERTEX
  5
15B
  8
GABARIT_INTERIEUR_18MM
 10
828.7218114217665
 20
1845.631356864717
 30
0.0
 42
0.41421356237309503
 70
0
  0
VERTEX
  5
15C
  8
GABARIT_INTERIEUR_18MM
 10
828.7218114217665
 20
1850.1568402643109
 30
0.0
 42
0.41421356237309503
 70
0
  0
VERTEX
  5
15D
  8
GABARIT_INTERIEUR_18MM
 10
824.1963280221727
 20
1850.156840264311
 30
0.0
 42
0.41421356237309503
 70
0
  0
VERTEX
  5
15E
  8
GABARIT_INTERIEUR_18MM
 10
824.1963280221726
 20
1845.631356864717
 30
0.0
 70
0
  0
VERTEX
  5
15F
  8
GABARIT_INTERIEUR_18MM
 10
799.730433393118
 20
1821.1654622356623
 30
0.0
 42
0.41421356237309503
 70
0
  0
VERTEX
  5
160
  8
GABARIT_INTERIEUR_18MM
 10
795.2049499935243
 20
1821.1654622356623
 30
0.0
 42
0.41421356237309503
 70
0
  0
VERTEX
  5
161
  8
GABARIT_INTERIEUR_18MM
 10
795.2049499935243
 20
1816.6399788360686
 30
0.0
 42
0.41421356237309503
 70
0
  0
VERTEX
  5
162
  8
GABARIT_INTERIEUR_18MM
 10
799.730433393118
 20
1816.6399788360686
 30
0.0
 70
0
  0
SEQEND
  5
152
  8
GABARIT_INTERIEUR_18MM
  0
POLYLINE
  5
163
  8
GABARIT_INTERIEUR_18MM
 66
1
 10
0.0
 20
0.0
 30
0.0
 70
1
  0
VERTEX
  5
165
  8
GABARIT_INTERIEUR_18MM
 10
906.3287387807269
 20
1905.4191933377765
 30
0.0
 42
0.41421356237309503
 70
0
  0
VERTEX
  5
166
  8
GABARIT_INTERIEUR_18MM
 10
906.328738780727
 20
1900.8937099381826
 30
0.0
 42
0.41421356237309503
 70
0
  0
VERTEX
  5
167
  8
GABARIT_INTERIEUR_18MM
 10
910.8542221803209
 20
1900.8937099381828
 30
0.0
 42
0.41421356237309503
 70
0
  0
VERTEX
  5
168
  8
GABARIT_INTERIEUR_18MM
 10
910.8542221803208
 20
1905.4191933377765
 30
0.0
 70
0
  0
VERTEX
  5
169
  8
GABARIT_INTERIEUR_18MM
 10
935.3201168093753
 20
1929.885087966831
 30
0.0
 42
0.41421356237309503
 70
0
  0
VERTEX
  5
16A
  8
GABARIT_INTERIEUR_18MM
 10
939.8456002089691
 20
1929.8850879668307
 30
0.0
 42
0.41421356237309503
 70
0
  0
VERTEX
  5
16B
  8
GABARIT_INTERIEUR_18MM
 10
939.8456002089694
 20
1934.4105713664246
 30
0.0
 42
0.41421356237309503
 70
0
  0
VERTEX
  5
16C
  8
GABARIT_INTERIEUR_18MM
 10
935.3201168093753
 20
1934.4105713664248
 30
0.0
 70
0
  0
VERTEX
  5
16D
  8
GABARIT_INTERIEUR_18MM
 10
926.4105713664248
 20
1943.3201168093753
 30
0.0
 42
0.41421356237309503
 70
0
  0
VERTEX
  5
16E
  8
GABARIT_INTERIEUR_18MM
 10
926.4105713664248
 20
1947.8456002089692
 30
0.0
 42
0.41421356237309503
 70
0
  0
VERTEX
  5
16F
  8
GABARIT_INTERIEUR_18MM
 10
921.885087966831
 20
1947.845600208969
 30
0.0
 42
0.41421356237309503
 70
0
  0
VERTEX
  5
170
  8
GABARIT_INTERIEUR_18MM
 10
921.885087966831
 20
1943.3201168093753
 30
0.0
 70
0
  0
VERTEX
  5
171
  8
GABARIT_INTERIEUR_18MM
 10
897.4191933377764
 20
1918.854222180321
 30
0.0
 42
0.41421356237309503
 70
0
  0
VERTEX
  5
172
  8
GABARIT_INTERIEUR_18MM
 10
892.8937099381823
 20
1918.854222180321
 30
0.0
 42
0.41421356237309503
 70
0
  0
VERTEX
  5
173
  8
GABARIT_INTERIEUR_18MM
 10
892.8937099381823
 20
1914.3287387807268
 30
0.0
 42
0.41421356237309503
 70
0
  0
VERTEX
  5
174
  8
GABARIT_INTERIEUR_18MM
 10
897.4191933377764
 20
1914.3287387807268
 30
0.0
 70
0
  0
SEQEND
  5
164
  8
GABARIT_INTERIEUR_18MM
  0
POLYLINE
  5
175
  8
GABARIT_INTERIEUR_18MM
 66
1
 10
0.0
 20
0.0
 30
0.0
 70
1
  0
VERTEX
  5
177
  8
GABARIT_INTERIEUR_18MM
 10
935.3201168093753
 20
1816.6399788360686
 30
0.0
 42
0.41421356237309503
 70
0
  0
VERTEX
  5
178
  8
GABARIT_INTERIEUR_18MM
 10
939.845600208969
 20
1816.6399788360686
 30
0.0
 42
0.41421356237309503
 70
0
  0
VERTEX
  5
179
  8
GABARIT_INTERIEUR_18MM
 10
939.845600208969
 20
1821.1654622356623
 30
0.0
 42
0.41421356237309503
 70
0
  0
VERTEX
  5
17A
  8
GABARIT_INTERIEUR_18MM
 10
935.3201168093753
 20
1821.1654622356623
 30
0.0
 70
0
  0
VERTEX
  5
17B
  8
GABARIT_INTERIEUR_18MM
 10
910.8542221803208
 20
1845.631356864717
 30
0.0
 42
0.41421356237309503
 70
0
  0
VERTEX
  5
17C
  8
GABARIT_INTERIEUR_18MM
 10
910.8542221803209
 20
1850.1568402643109
 30
0.0
 42
0.41421356237309503
 70
0
  0
VERTEX
  5
17D
  8
GABARIT_INTERIEUR_18MM
 10
906.328738780727
 20
1850.156840264311
 30
0.0
 42
0.41421356237309503
 70
0
  0
VERTEX
  5
17E
  8
GABARIT_INTERIEUR_18MM
 10
906.3287387807269
 20
1845.631356864717
 30
0.0
 70
0
  0
VERTEX
  5
17F
  8
GABARIT_INTERIEUR_18MM
 10
897.4191933377764
 20
1836.7218114217665
 30
0.0
 42
0.41421356237309503
 70
0
  0
VERTEX
  5
180
  8
GABARIT_INTERIEUR_18MM
 10
892.8937099381825
 20
1836.7218114217667
 30
0.0
 42
0.41421356237309503
 70
0
  0
VERTEX
  5
181
  8
GABARIT_INTERIEUR_18MM
 10
892.8937099381825
 20
1832.1963280221728
 30
0.0
 42
0.41421356237309503
 70
0
  0
VERTEX
  5
182
  8
GABARIT_INTERIEUR_18MM
 10
897.4191933377764
 20
1832.1963280221726
 30
0.0
 70
0
  0
VERTEX
  5
183
  8
GABARIT_INTERIEUR_18MM
 10
921.885087966831
 20
1807.730433393118
 30
0.0
 42
0.41421356237309503
 70
0
  0
VERTEX
  5
184
  8
GABARIT_INTERIEUR_18MM
 10
921.8850879668311
 20
1803.204949993524
 30
0.0
 42
0.41421356237309503
 70
0
  0
VERTEX
  5
185
  8
GABARIT_INTERIEUR_18MM
 10
926.410571366425
 20
1803.2049499935242
 30
0.0
 42
0.41421356237309503
 70
0
  0
VERTEX
  5
186
  8
GABARIT_INTERIEUR_18MM
 10
926.4105713664248
 20
1807.730433393118
 30
0.0
 70
0
  0
SEQEND
  5
176
  8
GABARIT_INTERIEUR_18MM
  0
POLYLINE
  5
187
  8
GABARIT_INTERIEUR_18MM
 66
1
 10
0.0
 20
0.0
 30
0.0
 70
1
  0
VERTEX
  5
189
  8
GABARIT_INTERIEUR_18MM
 10
837.631356864717
 20
1914.3287387807268
 30
0.0
 42
0.41421356237309503
 70
0
  0
VERTEX
  5
18A
  8
GABARIT_INTERIEUR_18MM
 10
842.1568402643111
 20
1914.3287387807268
 30
0.0
 42
0.41421356237309503
 70
0
  0
VERTEX
  5
18B
  8
GABARIT_INTERIEUR_18MM
 10
842.1568402643111
 20
1918.854222180321
 30
0.0
 42
0.41421356237309503
 70
0
  0
VERTEX
  5
18C
  8
GABARIT_INTERIEUR_18MM
 10
837.631356864717
 20
1918.854222180321
 30
0.0
 70
0
  0
VERTEX
  5
18D
  8
GABARIT_INTERIEUR_18MM
 10
813.1654622356624
 20
1943.3201168093753
 30
0.0
 42
0.41421356237309503
 70
0
  0
VERTEX
  5
18E
  8
GABARIT_INTERIEUR_18MM
 10
813.1654622356623
 20
1947.8456002089692
 30
0.0
 42
0.41421356237309503
 70
0
  0
VERTEX
  5
18F
  8
GABARIT_INTERIEUR_18MM
 10
808.6399788360685
 20
1947.845600208969
 30
0.0
 42
0.41421356237309503
 70
0
  0
VERTEX
  5
190
  8
GABARIT_INTERIEUR_18MM
 10
808.6399788360685
 20
1943.3201168093753
 30
0.0
 70
0
  0
VERTEX
  5
191
  8
GABARIT_INTERIEUR_18MM
 10
799.730433393118
 20
1934.4105713664248
 30
0.0
 42
0.41421356237309503
 70
0
  0
VERTEX
  5
192
  8
GABARIT_INTERIEUR_18MM
 10
795.204949993524
 20
1934.4105713664246
 30
0.0
 42
0.41421356237309503
 70
0
  0
VERTEX
  5
193
  8
GABARIT_INTERIEUR_18MM
 10
795.2049499935242
 20
1929.8850879668307
 30
0.0
 42
0.41421356237309503
 70
0
  0
VERTEX
  5
194
  8
GABARIT_INTERIEUR_18MM
 10
799.730433393118
 20
1929.885087966831
 30
0.0
 70
0
  0
VERTEX
  5
195
  8
GABARIT_INTERIEUR_18MM
 10
824.1963280221726
 20
1905.4191933377765
 30
0.0
 42
0.41421356237309503
 70
0
  0
VERTEX
  5
196
  8
GABARIT_INTERIEUR_18MM
 10
824.1963280221727
 20
1900.8937099381826
 30
0.0
 42
0.41421356237309503
 70
0
  0
VERTEX
  5
197
  8
GABARIT_INTERIEUR_18MM
 10
828.7218114217666
 20
1900.8937099381828
 30
0.0
 42
0.41421356237309503
 70
0
  0
VERTEX
  5
198
  8
GABARIT_INTERIEUR_18MM
 10
828.7218114217665
 20
1905.4191933377765
 30
0.0
 70
0
  0
SEQEND
  5
188
  8
GABARIT_INTERIEUR_18MM
  0
POLYLINE
  5
199
  8
GABARIT_INTERIEUR_18MM
 66
1
 10
0.0
 20
0.0
 30
0.0
 70
1
  0
VERTEX
  5
19B
  8
GABARIT_INTERIEUR_18MM
 10
36.00000000000006
 20
2708.0505502024935
 30
0.0
 70
0
  0
VERTEX
  5
19C
  8
GABARIT_INTERIEUR_18MM
 10
36.00000000000006
 20
2671.3016597038195
 30
0.0
 42
-0.41421356237309503
 70
0
  0
VERTEX
  5
19D
  8
GABARIT_INTERIEUR_18MM
 10
39.199999999999875
 20
2668.1016597038197
 30
0.0
 42
-0.41421356237309503
 70
0
  0
VERTEX
  5
19E
  8
GABARIT_INTERIEUR_18MM
 10
35.999999999999886
 20
2664.90165970382
 30
0.0
 42
-0.41421356237309503
 70
0
  0
VERTEX
  5
19F
  8
GABARIT_INTERIEUR_18MM
 10
32.80000000000007
 20
2668.1016597038197
 30
0.0
 70
0
  0
VERTEX
  5
1A0
  8
GABARIT_INTERIEUR_18MM
 10
18.000000000000057
 20
2668.1016597038197
 30
0.0
 70
0
  0
VERTEX
  5
1A1
  8
GABARIT_INTERIEUR_18MM
 10
18.00000000000003
 20
2628.1016597038197
 30
0.0
 70
0
  0
VERTEX
  5
1A2
  8
GABARIT_INTERIEUR_18MM
 10
32.80000000000004
 20
2628.1016597038197
 30
0.0
 42
-0.41421356237309503
 70
0
  0
VERTEX
  5
1A3
  8
GABARIT_INTERIEUR_18MM
 10
36.00000000000017
 20
2631.30165970382
 30
0.0
 42
-0.41421356237309503
 70
0
  0
VERTEX
  5
1A4
  8
GABARIT_INTERIEUR_18MM
 10
39.2000000000003
 20
2628.1016597038197
 30
0.0
 42
-0.41421356237309503
 70
0
  0
VERTEX
  5
1A5
  8
GABARIT_INTERIEUR_18MM
 10
36.00000000000003
 20
2624.9016597038194
 30
0.0
 70
0
  0
VERTEX
  5
1A6
  8
GABARIT_INTERIEUR_18MM
 10
36.00000000000003
 20
2588.5252751012467
 30
0.0
 70
0
  0
VERTEX
  5
1A7
  8
GABARIT_INTERIEUR_18MM
 10
127.30000000000004
 20
2588.5252751012467
 30
0.0
 42
-0.41421356237309503
 70
0
  0
VERTEX
  5
1A8
  8
GABARIT_INTERIEUR_18MM
 10
130.49999999999994
 20
2591.7252751012466
 30
0.0
 42
-0.41421356237309503
 70
0
  0
VERTEX
  5
1A9
  8
GABARIT_INTERIEUR_18MM
 10
133.69999999999985
 20
2588.5252751012467
 30
0.0
 42
-0.41421356237309503
 70
0
  0
VERTEX
  5
1AA
  8
GABARIT_INTERIEUR_18MM
 10
130.50000000000003
 20
2585.325275101247
 30
0.0
 70
0
  0
VERTEX
  5
1AB
  8
GABARIT_INTERIEUR_18MM
 10
130.50000000000003
 20
2572.7252751012466
 30
0.0
 42
-0.41421356237309503
 70
0
  0
VERTEX
  5
1AC
  8
GABARIT_INTERIEUR_18MM
 10
133.69999999999985
 20
2569.5252751012467
 30
0.0
 42
-0.41421356237309503
 70
0
  0
VERTEX
  5
1AD
  8
GABARIT_INTERIEUR_18MM
 10
130.49999999999986
 20
2566.325275101247
 30
0.0
 42
-0.41421356237309503
 70
0
  0
VERTEX
  5
1AE
  8
GABARIT_INTERIEUR_18MM
 10
127.30000000000004
 20
2569.5252751012467
 30
0.0
 70
0
  0
VERTEX
  5
1AF
  8
GABARIT_INTERIEUR_18MM
 10
36.00000000000003
 20
2569.5252751012467
 30
0.0
 70
0
  0
VERTEX
  5
1B0
  8
GABARIT_INTERIEUR_18MM
 10
36.00000000000003
 20
2533.148890498674
 30
0.0
 42
-0.41421356237309503
 70
0
  0
VERTEX
  5
1B1
  8
GABARIT_INTERIEUR_18MM
 10
39.2000000000003
 20
2529.948890498674
 30
0.0
 42
-0.41421356237309503
 70
0
  0
VERTEX
  5
1B2
  8
GABARIT_INTERIEUR_18MM
 10
36.00000000000031
 20
2526.7488904986735
 30
0.0
 42
-0.41421356237309503
 70
0
  0
VERTEX
  5
1B3
  8
GABARIT_INTERIEUR_18MM
 10
32.80000000000004
 20
2529.948890498674
 30
0.0
 70
0
  0
VERTEX
  5
1B4
  8
GABARIT_INTERIEUR_18MM
 10
18.00000000000003
 20
2529.948890498674
 30
0.0
 70
0
  0
VERTEX
  5
1B5
  8
GABARIT_INTERIEUR_18MM
 10
18.0
 20
2489.948890498674
 30
0.0
 70
0
  0
VERTEX
  5
1B6
  8
GABARIT_INTERIEUR_18MM
 10
32.80000000000001
 20
2489.948890498674
 30
0.0
 42
-0.41421356237309503
 70
0
  0
VERTEX
  5
1B7
  8
GABARIT_INTERIEUR_18MM
 10
35.999999999999915
 20
2493.1488904986736
 30
0.0
 42
-0.41421356237309503
 70
0
  0
VERTEX
  5
1B8
  8
GABARIT_INTERIEUR_18MM
 10
39.19999999999982
 20
2489.948890498674
 30
0.0
 42
-0.41421356237309503
 70
0
  0
VERTEX
  5
1B9
  8
GABARIT_INTERIEUR_18MM
 10
36.0
 20
2486.748890498674
 30
0.0
 70
0
  0
VERTEX
  5
1BA
  8
GABARIT_INTERIEUR_18MM
 10
36.0
 20
2450.0
 30
0.0
 70
0
  0
VERTEX
  5
1BB
  8
GABARIT_INTERIEUR_18MM
 10
225.00000000000003
 20
2500.4
 30
0.0
 70
0
  0
VERTEX
  5
1BC
  8
GABARIT_INTERIEUR_18MM
 10
225.00000000000003
 20
2514.5056250144276
 30
0.0
 42
-0.41421356237309503
 70
0
  0
VERTEX
  5
1BD
  8
GABARIT_INTERIEUR_18MM
 10
221.8000000000002
 20
2517.7056250144274
 30
0.0
 42
-0.41421356237309503
 70
0
  0
VERTEX
  5
1BE
  8
GABARIT_INTERIEUR_18MM
 10
225.0000000000002
 20
2520.905625014427
 30
0.0
 42
-0.41421356237309503
 70
0
  0
VERTEX
  5
1BF
  8
GABARIT_INTERIEUR_18MM
 10
228.20000000000002
 20
2517.7056250144274
 30
0.0
 70
0
  0
VERTEX
  5
1C0
  8
GABARIT_INTERIEUR_18MM
 10
243.00000000000003
 20
2517.7056250144274
 30
0.0
 70
0
  0
VERTEX
  5
1C1
  8
GABARIT_INTERIEUR_18MM
 10
243.00000000000003
 20
2557.7056250144274
 30
0.0
 70
0
  0
VERTEX
  5
1C2
  8
GABARIT_INTERIEUR_18MM
 10
228.20000000000002
 20
2557.7056250144274
 30
0.0
 42
-0.41421356237309503
 70
0
  0
VERTEX
  5
1C3
  8
GABARIT_INTERIEUR_18MM
 10
224.9999999999999
 20
2554.505625014427
 30
0.0
 42
-0.41421356237309503
 70
0
  0
VERTEX
  5
1C4
  8
GABARIT_INTERIEUR_18MM
 10
221.79999999999976
 20
2557.7056250144274
 30
0.0
 42
-0.41421356237309503
 70
0
  0
VERTEX
  5
1C5
  8
GABARIT_INTERIEUR_18MM
 10
225.00000000000003
 20
2560.9056250144276
 30
0.0
 70
0
  0
VERTEX
  5
1C6
  8
GABARIT_INTERIEUR_18MM
 10
225.00000000000003
 20
2597.144925188066
 30
0.0
 42
-0.41421356237309503
 70
0
  0
VERTEX
  5
1C7
  8
GABARIT_INTERIEUR_18MM
 10
221.8000000000002
 20
2600.3449251880656
 30
0.0
 42
-0.41421356237309503
 70
0
  0
VERTEX
  5
1C8
  8
GABARIT_INTERIEUR_18MM
 10
225.0000000000002
 20
2603.5449251880655
 30
0.0
 42
-0.41421356237309503
 70
0
  0
VERTEX
  5
1C9
  8
GABARIT_INTERIEUR_18MM
 10
228.20000000000002
 20
2600.3449251880656
 30
0.0
 70
0
  0
VERTEX
  5
1CA
  8
GABARIT_INTERIEUR_18MM
 10
243.00000000000003
 20
2600.3449251880656
 30
0.0
 70
0
  0
VERTEX
  5
1CB
  8
GABARIT_INTERIEUR_18MM
 10
243.00000000000003
 20
2640.3449251880656
 30
0.0
 70
0
  0
VERTEX
  5
1CC
  8
GABARIT_INTERIEUR_18MM
 10
228.20000000000002
 20
2640.3449251880656
 30
0.0
 42
-0.41421356237309503
 70
0
  0
VERTEX
  5
1CD
  8
GABARIT_INTERIEUR_18MM
 10
224.9999999999999
 20
2637.1449251880654
 30
0.0
 42
-0.41421356237309503
 70
0
  0
VERTEX
  5
1CE
  8
GABARIT_INTERIEUR_18MM
 10
221.79999999999976
 20
2640.3449251880656
 30
0.0
 42
-0.41421356237309503
 70
0
  0
VERTEX
  5
1CF
  8
GABARIT_INTERIEUR_18MM
 10
225.00000000000003
 20
2643.544925188066
 30
0.0
 70
0
  0
VERTEX
  5
1D0
  8
GABARIT_INTERIEUR_18MM
 10
225.00000000000003
 20
2657.6505502024934
 30
0.0
 70
0
  0
SEQEND
  5
19A
  8
GABARIT_INTERIEUR_18MM
  0
POLYLINE
  5
1D1
  8
GABARIT_INTERIEUR_18MM
 66
1
 10
0.0
 20
0.0
 30
0.0
 70
1
  0
VERTEX
  5
1D3
  8
GABARIT_INTERIEUR_18MM
 10
980.0505502024932
 20
2701.0
 30
0.0
 70
0
  0
VERTEX
  5
1D4
  8
GABARIT_INTERIEUR_18MM
 10
943.3016597038194
 20
2701.0
 30
0.0
 42
-0.41421356237309503
 70
0
  0
VERTEX
  5
1D5
  8
GABARIT_INTERIEUR_18MM
 10
940.1016597038195
 20
2697.8
 30
0.0
 42
-0.41421356237309503
 70
0
  0
VERTEX
  5
1D6
  8
GABARIT_INTERIEUR_18MM
 10
936.9016597038195
 20
2701.0
 30
0.0
 42
-0.41421356237309503
 70
0
  0
VERTEX
  5
1D7
  8
GABARIT_INTERIEUR_18MM
 10
940.1016597038193
 20
2704.2
 30
0.0
 70
0
  0
VERTEX
  5
1D8
  8
GABARIT_INTERIEUR_18MM
 10
940.1016597038193
 20
2719.0
 30
0.0
 70
0
  0
VERTEX
  5
1D9
  8
GABARIT_INTERIEUR_18MM
 10
900.1016597038193
 20
2719.0
 30
0.0
 70
0
  0
VERTEX
  5
1DA
  8
GABARIT_INTERIEUR_18MM
 10
900.1016597038193
 20
2704.2
 30
0.0
 42
-0.41421356237309503
 70
0
  0
VERTEX
  5
1DB
  8
GABARIT_INTERIEUR_18MM
 10
903.301659703819
 20
2701.0
 30
0.0
 42
-0.41421356237309503
 70
0
  0
VERTEX
  5
1DC
  8
GABARIT_INTERIEUR_18MM
 10
900.1016597038191
 20
2697.8
 30
0.0
 42
-0.41421356237309503
 70
0
  0
VERTEX
  5
1DD
  8
GABARIT_INTERIEUR_18MM
 10
896.9016597038194
 20
2701.0
 30
0.0
 70
0
  0
VERTEX
  5
1DE
  8
GABARIT_INTERIEUR_18MM
 10
805.148890498674
 20
2701.0
 30
0.0
 42
-0.41421356237309503
 70
0
  0
VERTEX
  5
1DF
  8
GABARIT_INTERIEUR_18MM
 10
801.948890498674
 20
2697.8
 30
0.0
 42
-0.41421356237309503
 70
0
  0
VERTEX
  5
1E0
  8
GABARIT_INTERIEUR_18MM
 10
798.7488904986741
 20
2701.0
 30
0.0
 42
-0.41421356237309503
 70
0
  0
VERTEX
  5
1E1
  8
GABARIT_INTERIEUR_18MM
 10
801.9488904986739
 20
2704.2
 30
0.0
 70
0
  0
VERTEX
  5
1E2
  8
GABARIT_INTERIEUR_18MM
 10
801.9488904986739
 20
2719.0
 30
0.0
 70
0
  0
VERTEX
  5
1E3
  8
GABARIT_INTERIEUR_18MM
 10
761.9488904986739
 20
2719.0
 30
0.0
 70
0
  0
VERTEX
  5
1E4
  8
GABARIT_INTERIEUR_18MM
 10
761.9488904986739
 20
2704.2
 30
0.0
 42
-0.41421356237309503
 70
0
  0
VERTEX
  5
1E5
  8
GABARIT_INTERIEUR_18MM
 10
765.1488904986736
 20
2701.0
 30
0.0
 42
-0.41421356237309503
 70
0
  0
VERTEX
  5
1E6
  8
GABARIT_INTERIEUR_18MM
 10
761.9488904986737
 20
2697.8
 30
0.0
 42
-0.41421356237309503
 70
0
  0
VERTEX
  5
1E7
  8
GABARIT_INTERIEUR_18MM
 10
758.748890498674
 20
2701.0
 30
0.0
 70
0
  0
VERTEX
  5
1E8
  8
GABARIT_INTERIEUR_18MM
 10
722.0
 20
2701.0
 30
0.0
 70
0
  0
VERTEX
  5
1E9
  8
GABARIT_INTERIEUR_18MM
 10
772.4
 20
2512.0
 30
0.0
 70
0
  0
VERTEX
  5
1EA
  8
GABARIT_INTERIEUR_18MM
 10
786.5056250144274
 20
2512.0
 30
0.0
 42
-0.41421356237309503
 70
0
  0
VERTEX
  5
1EB
  8
GABARIT_INTERIEUR_18MM
 10
789.7056250144274
 20
2515.2
 30
0.0
 42
-0.41421356237309503
 70
0
  0
VERTEX
  5
1EC
  8
GABARIT_INTERIEUR_18MM
 10
792.9056250144272
 20
2512.0
 30
0.0
 42
-0.41421356237309503
 70
0
  0
VERTEX
  5
1ED
  8
GABARIT_INTERIEUR_18MM
 10
789.7056250144274
 20
2508.8
 30
0.0
 70
0
  0
VERTEX
  5
1EE
  8
GABARIT_INTERIEUR_18MM
 10
789.7056250144274
 20
2494.0
 30
0.0
 70
0
  0
VERTEX
  5
1EF
  8
GABARIT_INTERIEUR_18MM
 10
829.7056250144274
 20
2494.0
 30
0.0
 70
0
  0
VERTEX
  5
1F0
  8
GABARIT_INTERIEUR_18MM
 10
829.7056250144274
 20
2508.8
 30
0.0
 42
-0.41421356237309503
 70
0
  0
VERTEX
  5
1F1
  8
GABARIT_INTERIEUR_18MM
 10
826.5056250144276
 20
2512.0
 30
0.0
 42
-0.41421356237309503
 70
0
  0
VERTEX
  5
1F2
  8
GABARIT_INTERIEUR_18MM
 10
829.7056250144276
 20
2515.2
 30
0.0
 42
-0.41421356237309503
 70
0
  0
VERTEX
  5
1F3
  8
GABARIT_INTERIEUR_18MM
 10
832.9056250144274
 20
2512.0
 30
0.0
 70
0
  0
VERTEX
  5
1F4
  8
GABARIT_INTERIEUR_18MM
 10
841.5252751012466
 20
2512.0
 30
0.0
 70
0
  0
VERTEX
  5
1F5
  8
GABARIT_INTERIEUR_18MM
 10
841.5252751012466
 20
2603.3
 30
0.0
 42
-0.41421356237309503
 70
0
  0
VERTEX
  5
1F6
  8
GABARIT_INTERIEUR_18MM
 10
838.3252751012468
 20
2606.5
 30
0.0
 42
-0.41421356237309503
 70
0
  0
VERTEX
  5
1F7
  8
GABARIT_INTERIEUR_18MM
 10
841.5252751012468
 20
2609.7
 30
0.0
 42
-0.41421356237309503
 70
0
  0
VERTEX
  5
1F8
  8
GABARIT_INTERIEUR_18MM
 10
844.7252751012467
 20
2606.5
 30
0.0
 70
0
  0
VERTEX
  5
1F9
  8
GABARIT_INTERIEUR_18MM
 10
857.3252751012467
 20
2606.5
 30
0.0
 42
-0.41421356237309503
 70
0
  0
VERTEX
  5
1FA
  8
GABARIT_INTERIEUR_18MM
 10
860.5252751012465
 20
2609.7
 30
0.0
 42
-0.41421356237309503
 70
0
  0
VERTEX
  5
1FB
  8
GABARIT_INTERIEUR_18MM
 10
863.7252751012463
 20
2606.5
 30
0.0
 42
-0.41421356237309503
 70
0
  0
VERTEX
  5
1FC
  8
GABARIT_INTERIEUR_18MM
 10
860.5252751012466
 20
2603.3
 30
0.0
 70
0
  0
VERTEX
  5
1FD
  8
GABARIT_INTERIEUR_18MM
 10
860.5252751012466
 20
2512.0
 30
0.0
 70
0
  0
VERTEX
  5
1FE
  8
GABARIT_INTERIEUR_18MM
 10
869.1449251880658
 20
2512.0
 30
0.0
 42
-0.41421356237309503
 70
0
  0
VERTEX
  5
1FF
  8
GABARIT_INTERIEUR_18MM
 10
872.3449251880658
 20
2515.2
 30
0.0
 42
-0.41421356237309503
 70
0
  0
VERTEX
  5
200
  8
GABARIT_INTERIEUR_18MM
 10
875.5449251880657
 20
2512.0
 30
0.0
 42
-0.41421356237309503
 70
0
  0
VERTEX
  5
201
  8
GABARIT_INTERIEUR_18MM
 10
872.3449251880659
 20
2508.8
 30
0.0
 70
0
  0
VERTEX
  5
202
  8
GABARIT_INTERIEUR_18MM
 10
872.3449251880659
 20
2494.0
 30
0.0
 70
0
  0
VERTEX
  5
203
  8
GABARIT_INTERIEUR_18MM
 10
912.3449251880659
 20
2494.0
 30
0.0
 70
0
  0
VERTEX
  5
204
  8
GABARIT_INTERIEUR_18MM
 10
912.3449251880659
 20
2508.8
 30
0.0
 42
-0.41421356237309503
 70
0
  0
VERTEX
  5
205
  8
GABARIT_INTERIEUR_18MM
 10
909.144925188066
 20
2512.0
 30
0.0
 42
-0.41421356237309503
 70
0
  0
VERTEX
  5
206
  8
GABARIT_INTERIEUR_18MM
 10
912.3449251880661
 20
2515.2
 30
0.0
 42
-0.41421356237309503
 70
0
  0
VERTEX
  5
207
  8
GABARIT_INTERIEUR_18MM
 10
915.5449251880658
 20
2512.0
 30
0.0
 70
0
  0
VERTEX
  5
208
  8
GABARIT_INTERIEUR_18MM
 10
929.6505502024933
 20
2512.0
 30
0.0
 70
0
  0
SEQEND
  5
1D2
  8
GABARIT_INTERIEUR_18MM
  0
CIRCLE
  5
209
  8
GABARIT_INTERIEUR_18MM
 10
220.32527510124666
 20
1764.3252751012467
 30
0.0
 40
74.32527510124666
  0
POLYLINE
  5
20A
  8
GABARIT_INTERIEUR_18MM
 66
1
 10
0.0
 20
0.0
 30
0.0
 70
1
  0
VERTEX
  5
20C
  8
GABARIT_INTERIEUR_18MM
 10
181.0669540357525
 20
1716.157408592802
 30
0.0
 42
0.41421356237309503
 70
0
  0
VERTEX
  5
20D
  8
GABARIT_INTERIEUR_18MM
 10
181.06695403575247
 20
1711.6319251932082
 30
0.0
 42
0.41421356237309503
 70
0
  0
VERTEX
  5
20E
  8
GABARIT_INTERIEUR_18MM
 10
185.5924374353464
 20
1711.631925193208
 30
0.0
 42
0.41421356237309503
 70
0
  0
VERTEX
  5
20F
  8
GABARIT_INTERIEUR_18MM
 10
185.59243743534643
 20
1716.157408592802
 30
0.0
 70
0
  0
VERTEX
  5
210
  8
GABARIT_INTERIEUR_18MM
 10
210.05833206440096
 20
1740.6233032218565
 30
0.0
 42
0.41421356237309503
 70
0
  0
VERTEX
  5
211
  8
GABARIT_INTERIEUR_18MM
 10
214.5838154639948
 20
1740.6233032218563
 30
0.0
 42
0.41421356237309503
 70
0
  0
VERTEX
  5
212
  8
GABARIT_INTERIEUR_18MM
 10
214.5838154639949
 20
1745.1487866214502
 30
0.0
 42
0.41421356237309503
 70
0
  0
VERTEX
  5
213
  8
GABARIT_INTERIEUR_18MM
 10
210.05833206440096
 20
1745.1487866214504
 30
0.0
 70
0
  0
VERTEX
  5
214
  8
GABARIT_INTERIEUR_18MM
 10
201.14878662145045
 20
1754.058332064401
 30
0.0
 42
0.41421356237309503
 70
0
  0
VERTEX
  5
215
  8
GABARIT_INTERIEUR_18MM
 10
201.1487866214505
 20
1758.5838154639948
 30
0.0
 42
0.41421356237309503
 70
0
  0
VERTEX
  5
216
  8
GABARIT_INTERIEUR_18MM
 10
196.62330322185662
 20
1758.583815463995
 30
0.0
 42
0.41421356237309503
 70
0
  0
VERTEX
  5
217
  8
GABARIT_INTERIEUR_18MM
 10
196.62330322185656
 20
1754.058332064401
 30
0.0
 70
0
  0
VERTEX
  5
218
  8
GABARIT_INTERIEUR_18MM
 10
172.15740859280203
 20
1729.5924374353465
 30
0.0
 42
0.41421356237309503
 70
0
  0
VERTEX
  5
219
  8
GABARIT_INTERIEUR_18MM
 10
167.6319251932082
 20
1729.5924374353467
 30
0.0
 42
0.41421356237309503
 70
0
  0
VERTEX
  5
21A
  8
GABARIT_INTERIEUR_18MM
 10
167.63192519320808
 20
1725.0669540357528
 30
0.0
 42
0.41421356237309503
 70
0
  0
VERTEX
  5
21B
  8
GABARIT_INTERIEUR_18MM
 10
172.157408592802
 20
1725.0669540357526
 30
0.0
 70
0
  0
SEQEND
  5
20B
  8
GABARIT_INTERIEUR_18MM
  0
POLYLINE
  5
21C
  8
GABARIT_INTERIEUR_18MM
 66
1
 10
0.0
 20
0.0
 30
0.0
 70
1
  0
VERTEX
  5
21E
  8
GABARIT_INTERIEUR_18MM
 10
239.50176358104287
 20
1774.5922181380924
 30
0.0
 42
0.41421356237309503
 70
0
  0
VERTEX
  5
21F
  8
GABARIT_INTERIEUR_18MM
 10
239.50176358104292
 20
1770.0667347384986
 30
0.0
 42
0.41421356237309503
 70
0
  0
VERTEX
  5
220
  8
GABARIT_INTERIEUR_18MM
 10
244.02724698063682
 20
1770.0667347384988
 30
0.0
 42
0.41421356237309503
 70
0
  0
VERTEX
  5
221
  8
GABARIT_INTERIEUR_18MM
 10
244.02724698063676
 20
1774.5922181380924
 30
0.0
 70
0
  0
VERTEX
  5
222
  8
GABARIT_INTERIEUR_18MM
 10
268.4931416096913
 20
1799.058112767147
 30
0.0
 42
0.41421356237309503
 70
0
  0
VERTEX
  5
223
  8
GABARIT_INTERIEUR_18MM
 10
273.01862500928513
 20
1799.0581127671467
 30
0.0
 42
0.41421356237309503
 70
0
  0
VERTEX
  5
224
  8
GABARIT_INTERIEUR_18MM
 10
273.01862500928524
 20
1803.5835961667406
 30
0.0
 42
0.41421356237309503
 70
0
  0
VERTEX
  5
225
  8
GABARIT_INTERIEUR_18MM
 10
268.4931416096913
 20
1803.5835961667408
 30
0.0
 70
0
  0
VERTEX
  5
226
  8
GABARIT_INTERIEUR_18MM
 10
259.5835961667408
 20
1812.4931416096913
 30
0.0
 42
0.41421356237309503
 70
0
  0
VERTEX
  5
227
  8
GABARIT_INTERIEUR_18MM
 10
259.58359616674073
 20
1817.0186250092852
 30
0.0
 42
0.41421356237309503
 70
0
  0
VERTEX
  5
228
  8
GABARIT_INTERIEUR_18MM
 10
255.05811276714684
 20
1817.018625009285
 30
0.0
 42
0.41421356237309503
 70
0
  0
VERTEX
  5
229
  8
GABARIT_INTERIEUR_18MM
 10
255.0581127671469
 20
1812.4931416096913
 30
0.0
 70
0
  0
VERTEX
  5
22A
  8
GABARIT_INTERIEUR_18MM
 10
230.59221813809236
 20
1788.0272469806368
 30
0.0
 42
0.41421356237309503
 70
0
  0
VERTEX
  5
22B
  8
GABARIT_INTERIEUR_18MM
 10
226.06673473849824
 20
1788.0272469806368
 30
0.0
 42
0.41421356237309503
 70
0
  0
VERTEX
  5
22C
  8
GABARIT_INTERIEUR_18MM
 10
226.06673473849824
 20
1783.5017635810427
 30
0.0
 42
0.41421356237309503
 70
0
  0
VERTEX
  5
22D
  8
GABARIT_INTERIEUR_18MM
 10
230.59221813809236
 20
1783.5017635810427
 30
0.0
 70
0
  0
SEQEND
  5
21D
  8
GABARIT_INTERIEUR_18MM
  0
POLYLINE
  5
22E
  8
GABARIT_INTERIEUR_18MM
 66
1
 10
0.0
 20
0.0
 30
0.0
 70
1
  0
VERTEX
  5
230
  8
GABARIT_INTERIEUR_18MM
 10
268.4931416096913
 20
1725.0669540357526
 30
0.0
 42
0.41421356237309503
 70
0
  0
VERTEX
  5
231
  8
GABARIT_INTERIEUR_18MM
 10
273.01862500928513
 20
1725.0669540357524
 30
0.0
 42
0.41421356237309503
 70
0
  0
VERTEX
  5
232
  8
GABARIT_INTERIEUR_18MM
 10
273.01862500928524
 20
1729.5924374353463
 30
0.0
 42
0.41421356237309503
 70
0
  0
VERTEX
  5
233
  8
GABARIT_INTERIEUR_18MM
 10
268.4931416096913
 20
1729.5924374353465
 30
0.0
 70
0
  0
VERTEX
  5
234
  8
GABARIT_INTERIEUR_18MM
 10
244.02724698063676
 20
1754.058332064401
 30
0.0
 42
0.41421356237309503
 70
0
  0
VERTEX
  5
235
  8
GABARIT_INTERIEUR_18MM
 10
244.02724698063682
 20
1758.5838154639948
 30
0.0
 42
0.41421356237309503
 70
0
  0
VERTEX
  5
236
  8
GABARIT_INTERIEUR_18MM
 10
239.50176358104292
 20
1758.583815463995
 30
0.0
 42
0.41421356237309503
 70
0
  0
VERTEX
  5
237
  8
GABARIT_INTERIEUR_18MM
 10
239.50176358104287
 20
1754.058332064401
 30
0.0
 70
0
  0
VERTEX
  5
238
  8
GABARIT_INTERIEUR_18MM
 10
230.59221813809236
 20
1745.1487866214504
 30
0.0
 42
0.41421356237309503
 70
0
  0
VERTEX
  5
239
  8
GABARIT_INTERIEUR_18MM
 10
226.06673473849852
 20
1745.1487866214507
 30
0.0
 42
0.41421356237309503
 70
0
  0
VERTEX
  5
23A
  8
GABARIT_INTERIEUR_18MM
 10
226.0667347384984
 20
1740.6233032218568
 30
0.0
 42
0.41421356237309503
 70
0
  0
VERTEX
  5
23B
  8
GABARIT_INTERIEUR_18MM
 10
230.59221813809236
 20
1740.6233032218565
 30
0.0
 70
0
  0
VERTEX
  5
23C
  8
GABARIT_INTERIEUR_18MM
 10
255.0581127671469
 20
1716.157408592802
 30
0.0
 42
0.41421356237309503
 70
0
  0
VERTEX
  5
23D
  8
GABARIT_INTERIEUR_18MM
 10
255.05811276714695
 20
1711.6319251932082
 30
0.0
 42
0.41421356237309503
 70
0
  0
VERTEX
  5
23E
  8
GABARIT_INTERIEUR_18MM
 10
259.58359616674085
 20
1711.6319251932084
 30
0.0
 42
0.41421356237309503
 70
0
  0
VERTEX
  5
23F
  8
GABARIT_INTERIEUR_18MM
 10
259.5835961667408
 20
1716.157408592802
 30
0.0
 70
0
  0
SEQEND
  5
22F
  8
GABARIT_INTERIEUR_18MM
  0
POLYLINE
  5
240
  8
GABARIT_INTERIEUR_18MM
 66
1
 10
0.0
 20
0.0
 30
0.0
 70
1
  0
VERTEX
  5
242
  8
GABARIT_INTERIEUR_18MM
 10
210.05833206440096
 20
1783.5017635810427
 30
0.0
 42
0.41421356237309503
 70
0
  0
VERTEX
  5
243
  8
GABARIT_INTERIEUR_18MM
 10
214.58381546399508
 20
1783.5017635810427
 30
0.0
 42
0.41421356237309503
 70
0
  0
VERTEX
  5
244
  8
GABARIT_INTERIEUR_18MM
 10
214.58381546399508
 20
1788.0272469806368
 30
0.0
 42
0.41421356237309503
 70
0
  0
VERTEX
  5
245
  8
GABARIT_INTERIEUR_18MM
 10
210.05833206440096
 20
1788.0272469806368
 30
0.0
 70
0
  0
VERTEX
  5
246
  8
GABARIT_INTERIEUR_18MM
 10
185.59243743534643
 20
1812.4931416096913
 30
0.0
 42
0.41421356237309503
 70
0
  0
VERTEX
  5
247
  8
GABARIT_INTERIEUR_18MM
 10
185.59243743534637
 20
1817.0186250092852
 30
0.0
 42
0.41421356237309503
 70
0
  0
VERTEX
  5
248
  8
GABARIT_INTERIEUR_18MM
 10
181.06695403575247
 20
1817.018625009285
 30
0.0
 42
0.41421356237309503
 70
0
  0
VERTEX
  5
249
  8
GABARIT_INTERIEUR_18MM
 10
181.06695403575253
 20
1812.4931416096913
 30
0.0
 70
0
  0
VERTEX
  5
24A
  8
GABARIT_INTERIEUR_18MM
 10
172.15740859280203
 20
1803.5835961667408
 30
0.0
 42
0.41421356237309503
 70
0
  0
VERTEX
  5
24B
  8
GABARIT_INTERIEUR_18MM
 10
167.63192519320808
 20
1803.5835961667406
 30
0.0
 42
0.41421356237309503
 70
0
  0
VERTEX
  5
24C
  8
GABARIT_INTERIEUR_18MM
 10
167.6319251932082
 20
1799.0581127671467
 30
0.0
 42
0.41421356237309503
 70
0
  0
VERTEX
  5
24D
  8
GABARIT_INTERIEUR_18MM
 10
172.15740859280203
 20
1799.058112767147
 30
0.0
 70
0
  0
VERTEX
  5
24E
  8
GABARIT_INTERIEUR_18MM
 10
196.62330322185656
 20
1774.5922181380924
 30
0.0
 42
0.41421356237309503
 70
0
  0
VERTEX
  5
24F
  8
GABARIT_INTERIEUR_18MM
 10
196.62330322185662
 20
1770.0667347384986
 30
0.0
 42
0.41421356237309503
 70
0
  0
VERTEX
  5
250
  8
GABARIT_INTERIEUR_18MM
 10
201.1487866214505
 20
1770.0667347384988
 30
0.0
 42
0.41421356237309503
 70
0
  0
VERTEX
  5
251
  8
GABARIT_INTERIEUR_18MM
 10
201.14878662145045
 20
1774.5922181380924
 30
0.0
 70
0
  0
SEQEND
  5
241
  8
GABARIT_INTERIEUR_18MM
  0
ENDSEC
  0
EOF
