  0
SECTION
  2
HEADER
  9
$ACADVER
  1
AC1009
  9
$DWGCODEPAGE
  3
ANSI_1252
  9
$INSBASE
 10
0.0
 20
0.0
 30
0.0
  9
$EXTMIN
 10
0.0000
 20
0.0000
 30
0.0000
  9
$EXTMAX
 10
2440.0000
 20
2740.0000
 30
0.0000
  9
$LIMMIN
 10
0.0000
 20
0.0000
  9
$LIMMAX
 10
2440.0000
 20
2740.0000
  9
$ORTHOMODE
 70
0
  9
$REGENMODE
 70
1
  9
$FILLMODE
 70
1
  9
$DRAGMODE
 70
2
  9
$QTEXTMODE
 70
0
  9
$MIRRTEXT
 70
1
  9
$OSMODE
 70
20583
  9
$LTSCALE
 40
1.0
  9
$ATTMODE
 70
1
  9
$TEXTSIZE
 40
2.5
  9
$TRACEWID
 40
1.0
  9
$TEXTSTYLE
  7
Standard
  9
$CLAYER
  8
0
  9
$CELTYPE
  6
ByLayer
  9
$CECOLOR
 62
256
  9
$DIMSCALE
 40
1.0
  9
$DIMASZ
 40
2.5
  9
$DIMEXO
 40
0.625
  9
$DIMDLI
 40
3.75
  9
$DIMRND
 40
0.0
  9
$DIMDLE
 40
0.0
  9
$DIMEXE
 40
1.25
  9
$DIMTP
 40
0.0
  9
$DIMTM
 40
0.0
  9
$DIMTXT
 40
2.5
  9
$DIMCEN
 40
2.5
  9
$DIMTSZ
 40
0.0
  9
$DIMTOL
 70
0
  9
$DIMLIM
 70
0
  9
$DIMTIH
 70
0
  9
$DIMTOH
 70
0
  9
$DIMSE1
 70
0
  9
$DIMSE2
 70
0
  9
$DIMTAD
 70
1
  9
$DIMZIN
 70
8
  9
$DIMBLK
  1

  9
$DIMASO
 70
1
  9
$DIMSHO
 70
1
  9
$DIMPOST
  1

  9
$DIMAPOST
  1

  9
$DIMALT
 70
0
  9
$DIMALTD
 70
3
  9
$DIMALTF
 40
0.03937007874
  9
$DIMLFAC
 40
1.0
  9
$DIMTOFL
 70
1
  9
$DIMTVP
 40
0.0
  9
$DIMTIX
 70
0
  9
$DIMSOXD
 70
0
  9
$DIMSAH
 70
0
  9
$DIMBLK1
  1

  9
$DIMBLK2
  1

  9
$DIMSTYLE
  2
ISO-25
  9
$DIMCLRD
 70
0
  9
$DIMCLRE
 70
0
  9
$DIMCLRT
 70
0
  9
$DIMTFAC
 40
1.0
  9
$DIMGAP
 40
0.625
  9
$COORDS
 70
1
  9
$ATTDIA
 70
0
  9
$ATTREQ
 70
1
  9
$HANDLING
 70
1
  9
$LUNITS
 70
2
  9
$LUPREC
 70
4
  9
$SKETCHINC
 40
1.0
  9
$FILLETRAD
 40
10.0
  9
$AUNITS
 70
0
  9
$AUPREC
 70
2
  9
$MENU
  1
.
  9
$ELEVATION
 40
0.0
  9
$PELEVATION
 40
0.0
  9
$THICKNESS
 40
0.0
  9
$LIMCHECK
 70
0
  9
$CHAMFERA
 40
0.0
  9
$CHAMFERB
 40
0.0
  9
$SKPOLY
 70
0
  9
$TDCREATE
 40
2461316.7441203706
  9
$TDUPDATE
 40
2461316.7441319446
  9
$TDINDWG
 40
0.0
  9
$TDUSRTIMER
 40
0.0
  9
$USRTIMER
 70
1
  9
$ANGBASE
 50
0.0
  9
$ANGDIR
 70
0
  9
$PDMODE
 70
0
  9
$PDSIZE
 40
0.0
  9
$PLINEWID
 40
0.0
  9
$SPLFRAME
 70
0
  9
$SPLINETYPE
 70
6
  9
$SPLINESEGS
 70
8
  9
$HANDSEED
  5
499
  9
$SURFTAB1
 70
6
  9
$SURFTAB2
 70
6
  9
$SURFTYPE
 70
6
  9
$SURFU
 70
6
  9
$SURFV
 70
6
  9
$UCSNAME
  2

  9
$UCSORG
 10
0.0
 20
0.0
 30
0.0
  9
$UCSXDIR
 10
1.0
 20
0.0
 30
0.0
  9
$UCSYDIR
 10
0.0
 20
1.0
 30
0.0
  9
$PUCSNAME
  2

  9
$PUCSORG
 10
0.0
 20
0.0
 30
0.0
  9
$PUCSXDIR
 10
1.0
 20
0.0
 30
0.0
  9
$PUCSYDIR
 10
0.0
 20
1.0
 30
0.0
  9
$USERI1
 70
0
  9
$USERI2
 70
0
  9
$USERI3
 70
0
  9
$USERI4
 70
0
  9
$USERI5
 70
0
  9
$USERR1
 40
0.0
  9
$USERR2
 40
0.0
  9
$USERR3
 40
0.0
  9
$USERR4
 40
0.0
  9
$USERR5
 40
0.0
  9
$WORLDVIEW
 70
1
  9
$SHADEDGE
 70
3
  9
$SHADEDIF
 70
70
  9
$TILEMODE
 70
1
  9
$MAXACTVP
 70
64
  9
$PLIMCHECK
 70
0
  9
$PEXTMIN
 10
1e+20
 20
1e+20
 30
1e+20
  9
$PEXTMAX
 10
-1e+20
 20
-1e+20
 30
-1e+20
  9
$PLIMMIN
 10
0.0
 20
0.0
  9
$PLIMMAX
 10
420.0
 20
297.0
  9
$UNITMODE
 70
0
  9
$VISRETAIN
 70
1
  9
$PLINEGEN
 70
0
  9
$PSLTSCALE
 70
1
  0
ENDSEC
  0
SECTION
  2
TABLES
  0
TABLE
  2
VPORT
 70
1
  0
VPORT
  5
23
  2
*Active
 70
0
 10
0.0
 20
0.0
 11
1.0
 21
1.0
 12
0.0
 22
0.0
 13
0.0
 23
0.0
 14
0.5
 24
0.5
 15
0.5
 25
0.5
 16
0.0
 26
0.0
 36
1.0
 17
0.0
 27
0.0
 37
0.0
 40
1000.0
 41
1.34
 42
50.0
 43
0.0
 44
0.0
 50
0.0
 51
0.0
 71
0
 72
1000
 73
1
 74
3
 75
0
 76
0
 77
0
 78
0
  0
ENDTAB
  0
TABLE
  2
LTYPE
 70
3
  0
LTYPE
  5
24
  2
ByBlock
 70
0
  3

 72
65
 73
0
 40
0.0
  0
LTYPE
  5
25
  2
ByLayer
 70
0
  3

 72
65
 73
0
 40
0.0
  0
LTYPE
  5
26
  2
Continuous
 70
0
  3

 72
65
 73
0
 40
0.0
  0
ENDTAB
  0
TABLE
  2
LAYER
 70
8
  0
LAYER
  5
27
  2
0
 70
0
 62
7
  6
Continuous
  0
LAYER
  5
28
  2
Defpoints
 70
0
 62
7
  6
Continuous
  0
LAYER
  5
2D
  2
PIECE_5MM
 70
0
 62
1
  6
Continuous
  0
LAYER
  5
2E
  2
POCHE_KERF_4MM
 70
0
 62
6
  6
Continuous
  0
LAYER
  5
2F
  2
GABARIT_INTERIEUR_18MM
 70
0
 62
5
  6
Continuous
  0
LAYER
  5
30
  2
GABARIT_BAGUES_18MM
 70
0
 62
3
  6
Continuous
  0
LAYER
  5
31
  2
PLANCHE_5MM
 70
0
 62
8
  6
Continuous
  0
LAYER
  5
32
  2
PLANCHE_18MM
 70
0
 62
8
  6
Continuous
  0
ENDTAB
  0
TABLE
  2
STYLE
 70
1
  0
STYLE
  5
29
  2
Standard
 70
0
 40
0.0
 41
1.0
 50
0.0
 71
0
 42
2.5
  3
txt
  4

  0
ENDTAB
  0
TABLE
  2
VIEW
 70
0
  0
ENDTAB
  0
TABLE
  2
UCS
 70
0
  0
ENDTAB
  0
TABLE
  2
APPID
 70
3
  0
APPID
  5
2A
  2
ACAD
 70
0
  0
APPID
  5
497
  2
HATCHBACKGROUNDCOLOR
 70
0
  0
APPID
  5
498
  2
EZDXF
 70
0
  0
ENDTAB
  0
TABLE
  2
DIMSTYLE
 70
1
  0
DIMSTYLE
105
2B
  2
Standard
 70
0
  3

  4

  5

  6

  7

 40
1.0
 41
2.5
 42
0.625
 43
3.75
 44
1.25
 45
0.0
 46
0.0
 47
0.0
 48
0.0
140
2.5
141
2.5
142
0.0
143
0.03937007874
144
1.0
145
0.0
146
1.0
147
0.625
 71
0
 72
0
 73
0
 74
0
 75
0
 76
0
 77
1
 78
8
170
0
171
3
172
1
173
0
174
0
175
0
176
0
177
0
178
0
  0
ENDTAB
  0
ENDSEC
  0
SECTION
  2
BLOCKS
  0
BLOCK
  5
18
  8
0
  2
$Model_Space
 70
0
 10
0.0
 20
0.0
 30
0.0
  3
$Model_Space
  1

1001
EZDXF
1000
CREATED_BY_EZDXF
1000
1.4.4 @ 2026-10-02T17:51:32.993715+00:00
1000
WRITTEN_BY_EZDXF
1000
1.4.4 @ 2026-10-02T17:51:33.087424+00:00
  0
ENDBLK
  5
19
  8
0
  0
BLOCK
  5
1C
  8
0
  2
$Paper_Space
 70
0
 10
0.0
 20
0.0
 30
0.0
  3
$Paper_Space
  1

  0
ENDBLK
  5
1D
  8
0
  0
ENDSEC
  0
SECTION
  2
ENTITIES
  0
POLYLINE
  5
33
  8
PLANCHE_5MM
 66
1
 10
0.0
 20
0.0
 30
0.0
 70
1
  0
VERTEX
  5
35
  8
PLANCHE_5MM
 10
0.0
 20
0.0
 30
0.0
 70
0
  0
VERTEX
  5
36
  8
PLANCHE_5MM
 10
2440.0
 20
0.0
 30
0.0
 70
0
  0
VERTEX
  5
37
  8
PLANCHE_5MM
 10
2440.0
 20
1220.0
 30
0.0
 70
0
  0
VERTEX
  5
38
  8
PLANCHE_5MM
 10
0.0
 20
1220.0
 30
0.0
 70
0
  0
SEQEND
  5
34
  8
PLANCHE_5MM
  0
POLYLINE
  5
39
  8
PIECE_5MM
 66
1
 10
0.0
 20
0.0
 30
0.0
 70
1
  0
VERTEX
  5
3B
  8
PIECE_5MM
 10
973.4072285414434
 20
18.0
 30
0.0
 70
0
  0
VERTEX
  5
3C
  8
PIECE_5MM
 10
1212.2590356768042
 20
407.679117002916
 30
0.0
 42
0.2820856960900367
 70
0
  0
VERTEX
  5
3D
  8
PIECE_5MM
 10
18.0
 20
407.679117002916
 30
0.0
 70
0
  0
VERTEX
  5
3E
  8
PIECE_5MM
 10
256.85180713536084
 20
18.0
 30
0.0
 42
-0.2820856960900367
 70
0
  0
SEQEND
  5
3A
  8
PIECE_5MM
  0
POLYLINE
  5
3F
  8
POCHE_KERF_4MM
 66
1
 10
0.0
 20
0.0
 30
0.0
 70
1
  0
VERTEX
  5
41
  8
POCHE_KERF_4MM
 10
962.6160436381555
 20
17.515664301564065
 30
0.0
 70
0
  0
VERTEX
  5
42
  8
POCHE_KERF_4MM
 10
967.7588011236147
 20
14.425025945859424
 30
0.0
 70
0
  0
VERTEX
  5
43
  8
POCHE_KERF_4MM
 10
1209.3724397671494
 20
416.46505965914133
 30
0.0
 70
0
  0
VERTEX
  5
44
  8
POCHE_KERF_4MM
 10
1204.2296822816902
 20
419.555698014846
 30
0.0
 70
0
  0
SEQEND
  5
40
  8
POCHE_KERF_4MM
  0
POLYLINE
  5
45
  8
POCHE_KERF_4MM
 66
1
 10
0.0
 20
0.0
 30
0.0
 70
1
  0
VERTEX
  5
47
  8
POCHE_KERF_4MM
 10
954.9713088232007
 20
21.996874659923048
 30
0.0
 70
0
  0
VERTEX
  5
48
  8
POCHE_KERF_4MM
 10
960.1539277990436
 20
18.973555200912084
 30
0.0
 70
0
  0
VERTEX
  5
49
  8
POCHE_KERF_4MM
 10
1196.5048466715525
 20
424.129799426354
 30
0.0
 70
0
  0
VERTEX
  5
4A
  8
POCHE_KERF_4MM
 10
1191.32222769571
 20
427.15311888536496
 30
0.0
 70
0
  0
SEQEND
  5
46
  8
POCHE_KERF_4MM
  0
POLYLINE
  5
4B
  8
POCHE_KERF_4MM
 66
1
 10
0.0
 20
0.0
 30
0.0
 70
1
  0
VERTEX
  5
4D
  8
POCHE_KERF_4MM
 10
947.2687936135331
 20
26.37802474998919
 30
0.0
 70
0
  0
VERTEX
  5
4E
  8
POCHE_KERF_4MM
 10
952.4903929233567
 20
23.422538216836056
 30
0.0
 70
0
  0
VERTEX
  5
4F
  8
POCHE_KERF_4MM
 10
1183.5384072984605
 20
431.62610770155675
 30
0.0
 70
0
  0
VERTEX
  5
50
  8
POCHE_KERF_4MM
 10
1178.3168079886368
 20
434.5815942347099
 30
0.0
 70
0
  0
SEQEND
  5
4C
  8
POCHE_KERF_4MM
  0
POLYLINE
  5
51
  8
POCHE_KERF_4MM
 66
1
 10
0.0
 20
0.0
 30
0.0
 70
1
  0
VERTEX
  5
53
  8
POCHE_KERF_4MM
 10
939.509807601972
 20
30.658369682263377
 30
0.0
 70
0
  0
VERTEX
  5
54
  8
POCHE_KERF_4MM
 10
944.7694994618806
 20
27.771218571079338
 30
0.0
 70
0
  0
VERTEX
  5
55
  8
POCHE_KERF_4MM
 10
1170.475326220721
 20
438.9527099515325
 30
0.0
 70
0
  0
VERTEX
  5
56
  8
POCHE_KERF_4MM
 10
1165.2156343608124
 20
441.8398610627165
 30
0.0
 70
0
  0
SEQEND
  5
52
  8
POCHE_KERF_4MM
  0
POLYLINE
  5
57
  8
POCHE_KERF_4MM
 66
1
 10
0.0
 20
0.0
 30
0.0
 70
1
  0
VERTEX
  5
59
  8
POCHE_KERF_4MM
 10
931.6956699825843
 20
34.83718170628573
 30
0.0
 70
0
  0
VERTEX
  5
5A
  8
POCHE_KERF_4MM
 10
936.9925601321313
 20
32.01885689469442
 30
0.0
 70
0
  0
VERTEX
  5
5B
  8
POCHE_KERF_4MM
 10
1157.3178244423452
 20
446.10836049672935
 30
0.0
 70
0
  0
VERTEX
  5
5C
  8
POCHE_KERF_4MM
 10
1152.020934292798
 20
448.92668530832066
 30
0.0
 70
0
  0
SEQEND
  5
58
  8
POCHE_KERF_4MM
  0
POLYLINE
  5
5D
  8
POCHE_KERF_4MM
 66
1
 10
0.0
 20
0.0
 30
0.0
 70
1
  0
VERTEX
  5
5F
  8
POCHE_KERF_4MM
 10
923.8277093263929
 20
38.913750334368636
 30
0.0
 70
0
  0
VERTEX
  5
60
  8
POCHE_KERF_4MM
 10
929.1608971806248
 20
36.1647309980465
 30
0.0
 70
0
  0
VERTEX
  5
61
  8
POCHE_KERF_4MM
 10
1144.068139020888
 20
453.09184272305265
 30
0.0
 70
0
  0
VERTEX
  5
62
  8
POCHE_KERF_4MM
 10
1138.7349511666564
 20
455.8408620593748
 30
0.0
 70
0
  0
SEQEND
  5
5E
  8
POCHE_KERF_4MM
  0
POLYLINE
  5
63
  8
POCHE_KERF_4MM
 66
1
 10
0.0
 20
0.0
 30
0.0
 70
1
  0
VERTEX
  5
65
  8
POCHE_KERF_4MM
 10
915.9072633554919
 20
42.887382462395394
 30
0.0
 70
0
  0
VERTEX
  5
66
  8
POCHE_KERF_4MM
 10
921.2758421580667
 20
40.2081359936012
 30
0.0
 70
0
  0
VERTEX
  5
67
  8
POCHE_KERF_4MM
 10
1130.7285226871024
 20
459.90196928871524
 30
0.0
 70
0
  0
VERTEX
  5
68
  8
POCHE_KERF_4MM
 10
1125.3599438845279
 20
462.5812157575094
 30
0.0
 70
0
  0
SEQEND
  5
64
  8
POCHE_KERF_4MM
  0
POLYLINE
  5
69
  8
POCHE_KERF_4MM
 66
1
 10
0.0
 20
0.0
 30
0.0
 70
1
  0
VERTEX
  5
6B
  8
POCHE_KERF_4MM
 10
907.9356787156051
 20
46.757402487662254
 30
0.0
 70
0
  0
VERTEX
  5
6C
  8
POCHE_KERF_4MM
 10
913.33873569296
 20
44.148384415770686
 30
0.0
 70
0
  0
VERTEX
  5
6D
  8
POCHE_KERF_4MM
 10
1117.3012434619247
 20
466.5375823261105
 30
0.0
 70
0
  0
VERTEX
  5
6E
  8
POCHE_KERF_4MM
 10
1111.89818648457
 20
469.1466003980021
 30
0.0
 70
0
  0
SEQEND
  5
6A
  8
POCHE_KERF_4MM
  0
POLYLINE
  5
6F
  8
POCHE_KERF_4MM
 66
1
 10
0.0
 20
0.0
 30
0.0
 70
1
  0
VERTEX
  5
71
  8
POCHE_KERF_4MM
 10
899.9143107471267
 20
50.52315242374603
 30
0.0
 70
0
  0
VERTEX
  5
72
  8
POCHE_KERF_4MM
 10
905.3509272636699
 20
47.98480633779737
 30
0.0
 70
0
  0
VERTEX
  5
73
  8
POCHE_KERF_4MM
 10
1103.7885842708636
 20
472.9975536386764
 30
0.0
 70
0
  0
VERTEX
  5
74
  8
POCHE_KERF_4MM
 10
1098.3519677543204
 20
475.5358997246248
 30
0.0
 70
0
  0
SEQEND
  5
70
  8
POCHE_KERF_4MM
  0
POLYLINE
  5
75
  8
POCHE_KERF_4MM
 66
1
 10
0.0
 20
0.0
 30
0.0
 70
1
  0
VERTEX
  5
77
  8
POCHE_KERF_4MM
 10
891.8445232546846
 20
54.18399201237474
 30
0.0
 70
0
  0
VERTEX
  5
78
  8
POCHE_KERF_4MM
 10
897.3137749689827
 20
51.71674948565617
 30
0.0
 70
0
  0
VERTEX
  5
79
  8
POCHE_KERF_4MM
 10
1090.192842555853
 20
479.2807848927103
 30
0.0
 70
0
  0
VERTEX
  5
7A
  8
POCHE_KERF_4MM
 10
1084.723590841555
 20
481.74802741942887
 30
0.0
 70
0
  0
SEQEND
  5
76
  8
POCHE_KERF_4MM
  0
POLYLINE
  5
7B
  8
POCHE_KERF_4MM
 66
1
 10
0.0
 20
0.0
 30
0.0
 70
1
  0
VERTEX
  5
7D
  8
POCHE_KERF_4MM
 10
883.7276882752648
 20
57.73929883228657
 30
0.0
 70
0
  0
VERTEX
  5
7E
  8
POCHE_KERF_4MM
 10
889.2286452972004
 20
55.34357934895461
 30
0.0
 70
0
  0
VERTEX
  5
7F
  8
POCHE_KERF_4MM
 10
1076.5163298846394
 20
485.38620780411276
 30
0.0
 70
0
  0
VERTEX
  5
80
  8
POCHE_KERF_4MM
 10
1071.015372862704
 20
487.7819272874447
 30
0.0
 70
0
  0
SEQEND
  5
7C
  8
POCHE_KERF_4MM
  0
POLYLINE
  5
81
  8
POCHE_KERF_4MM
 66
1
 10
0.0
 20
0.0
 30
0.0
 70
1
  0
VERTEX
  5
83
  8
POCHE_KERF_4MM
 10
875.5651858449351
 20
61.188468405054316
 30
0.0
 70
0
  0
VERTEX
  5
84
  8
POCHE_KERF_4MM
 10
881.0969128938088
 20
58.86467928881358
 30
0.0
 70
0
  0
VERTEX
  5
85
  8
POCHE_KERF_4MM
 10
1062.7613715577638
 20
491.3127843200157
 30
0.0
 70
0
  0
VERTEX
  5
86
  8
POCHE_KERF_4MM
 10
1057.22964450889
 20
493.6365734362564
 30
0.0
 70
0
  0
SEQEND
  5
82
  8
POCHE_KERF_4MM
  0
POLYLINE
  5
87
  8
POCHE_KERF_4MM
 66
1
 10
0.0
 20
0.0
 30
0.0
 70
1
  0
VERTEX
  5
89
  8
POCHE_KERF_4MM
 10
867.3584037642095
 20
64.53091429785908
 30
0.0
 70
0
  0
VERTEX
  5
8A
  8
POCHE_KERF_4MM
 10
872.919960327757
 20
62.279450642709286
 30
0.0
 70
0
  0
VERTEX
  5
8B
  8
POCHE_KERF_4MM
 10
1048.930306213211
 20
497.059506795275
 30
0.0
 70
0
  0
VERTEX
  5
8C
  8
POCHE_KERF_4MM
 10
1043.3687496496634
 20
499.31097045042503
 30
0.0
 70
0
  0
SEQEND
  5
88
  8
POCHE_KERF_4MM
  0
POLYLINE
  5
8D
  8
POCHE_KERF_4MM
 66
1
 10
0.0
 20
0.0
 30
0.0
 70
1
  0
VERTEX
  5
8F
  8
POCHE_KERF_4MM
 10
859.1087373620928
 20
67.76606822319778
 30
0.0
 70
0
  0
VERTEX
  5
90
  8
POCHE_KERF_4MM
 10
864.6991778563927
 20
65.58731282625823
 30
0.0
 70
0
  0
VERTEX
  5
91
  8
POCHE_KERF_4MM
 10
1035.025485428792
 20
502.6253981637923
 30
0.0
 70
0
  0
VERTEX
  5
92
  8
POCHE_KERF_4MM
 10
1029.4350449344922
 20
504.80415356073206
 30
0.0
 70
0
  0
SEQEND
  5
8E
  8
POCHE_KERF_4MM
  0
POLYLINE
  5
93
  8
POCHE_KERF_4MM
 66
1
 10
0.0
 20
0.0
 30
0.0
 70
1
  0
VERTEX
  5
95
  8
POCHE_KERF_4MM
 10
850.8175892588444
 20
70.8933801355027
 30
0.0
 70
0
  0
VERTEX
  5
96
  8
POCHE_KERF_4MM
 10
856.4359631890868
 20
68.78770343192929
 30
0.0
 70
0
  0
VERTEX
  5
97
  8
POCHE_KERF_4MM
 10
1021.0492733223249
 20
508.0095121046359
 30
0.0
 70
0
  0
VERTEX
  5
98
  8
POCHE_KERF_4MM
 10
1015.4308993920826
 20
510.1151888082093
 30
0.0
 70
0
  0
SEQEND
  5
94
  8
POCHE_KERF_4MM
  0
POLYLINE
  5
99
  8
POCHE_KERF_4MM
 66
1
 10
0.0
 20
0.0
 30
0.0
 70
1
  0
VERTEX
  5
9B
  8
POCHE_KERF_4MM
 10
842.4863691275021
 20
73.91231832466202
 30
0.0
 70
0
  0
VERTEX
  5
9C
  8
POCHE_KERF_4MM
 10
848.1317212495945
 20
71.8800783246652
 30
0.0
 70
0
  0
VERTEX
  5
9D
  8
POCHE_KERF_4MM
 10
1007.004046149684
 20
513.2109332029365
 30
0.0
 70
0
  0
VERTEX
  5
9E
  8
POCHE_KERF_4MM
 10
1001.3586940275916
 20
515.2431732029333
 30
0.0
 70
0
  0
SEQEND
  5
9A
  8
POCHE_KERF_4MM
  0
POLYLINE
  5
9F
  8
POCHE_KERF_4MM
 66
1
 10
0.0
 20
0.0
 30
0.0
 70
1
  0
VERTEX
  5
A1
  8
POCHE_KERF_4MM
 10
834.116493454209
 20
76.82236950642168
 30
0.0
 70
0
  0
VERTEX
  5
A2
  8
POCHE_KERF_4MM
 10
839.7878639371871
 20
74.8639117343967
 30
0.0
 70
0
  0
VERTEX
  5
A3
  8
POCHE_KERF_4MM
 10
992.8921919007845
 20
518.2287771055271
 30
0.0
 70
0
  0
VERTEX
  5
A4
  8
POCHE_KERF_4MM
 10
987.2208214178064
 20
520.1872348775523
 30
0.0
 70
0
  0
SEQEND
  5
A0
  8
POCHE_KERF_4MM
  0
POLYLINE
  5
A5
  8
POCHE_KERF_4MM
 66
1
 10
0.0
 20
0.0
 30
0.0
 70
1
  0
VERTEX
  5
A7
  8
POCHE_KERF_4MM
 10
825.709385297379
 20
79.62303890965495
 30
0.0
 70
0
  0
VERTEX
  5
A8
  8
POCHE_KERF_4MM
 10
831.405809886599
 20
77.73869634543553
 30
0.0
 70
0
  0
VERTEX
  5
A9
  8
POCHE_KERF_4MM
 10
978.7161098935751
 20
523.062190671302
 30
0.0
 70
0
  0
VERTEX
  5
AA
  8
POCHE_KERF_4MM
 10
973.019685304355
 20
524.9465332355214
 30
0.0
 70
0
  0
SEQEND
  5
A6
  8
POCHE_KERF_4MM
  0
POLYLINE
  5
AB
  8
POCHE_KERF_4MM
 66
1
 10
0.0
 20
0.0
 30
0.0
 70
1
  0
VERTEX
  5
AD
  8
POCHE_KERF_4MM
 10
817.2664740457467
 20
82.31385036048323
 30
0.0
 70
0
  0
VERTEX
  5
AE
  8
POCHE_KERF_4MM
 10
822.9869842268297
 20
80.50394338272827
 30
0.0
 70
0
  0
VERTEX
  5
AF
  8
POCHE_KERF_4MM
 10
964.4782103661006
 20
527.7103521162694
 30
0.0
 70
0
  0
VERTEX
  5
B0
  8
POCHE_KERF_4MM
 10
958.7577001850176
 20
529.5202590940244
 30
0.0
 70
0
  0
SEQEND
  5
AC
  8
POCHE_KERF_4MM
  0
POLYLINE
  5
B1
  8
POCHE_KERF_4MM
 66
1
 10
0.0
 20
0.0
 30
0.0
 70
1
  0
VERTEX
  5
B3
  8
POCHE_KERF_4MM
 10
808.7891951753418
 20
84.89434636323737
 30
0.0
 70
0
  0
VERTEX
  5
B4
  8
POCHE_KERF_4MM
 10
814.532818338841
 20
83.1591826949588
 30
0.0
 70
0
  0
VERTEX
  5
B5
  8
POCHE_KERF_4MM
 10
950.1809140667101
 20
532.1724711532717
 30
0.0
 70
0
  0
VERTEX
  5
B6
  8
POCHE_KERF_4MM
 10
944.4372909032107
 20
533.9076348215505
 30
0.0
 70
0
  0
SEQEND
  5
B2
  8
POCHE_KERF_4MM
  0
POLYLINE
  5
B7
  8
POCHE_KERF_4MM
 66
1
 10
0.0
 20
0.0
 30
0.0
 70
1
  0
VERTEX
  5
B9
  8
POCHE_KERF_4MM
 10
800.2789900054252
 20
87.36408817824021
 30
0.0
 70
0
  0
VERTEX
  5
BA
  8
POCHE_KERF_4MM
 10
806.0447496121916
 20
85.70396283448407
 30
0.0
 70
0
  0
VERTEX
  5
BB
  8
POCHE_KERF_4MM
 10
935.8266518424787
 20
536.4477891263521
 30
0.0
 70
0
  0
VERTEX
  5
BC
  8
POCHE_KERF_4MM
 10
930.0608922357121
 20
538.1079144701082
 30
0.0
 70
0
  0
SEQEND
  5
B8
  8
POCHE_KERF_4MM
  0
POLYLINE
  5
BD
  8
POCHE_KERF_4MM
 66
1
 10
0.0
 20
0.0
 30
0.0
 70
1
  0
VERTEX
  5
BF
  8
POCHE_KERF_4MM
 10
791.7373054534362
 20
89.72265589640239
 30
0.0
 70
0
  0
VERTEX
  5
C0
  8
POCHE_KERF_4MM
 10
797.5242212006501
 20
88.13785113409023
 30
0.0
 70
0
  0
VERTEX
  5
C1
  8
POCHE_KERF_4MM
 10
921.41786422591
 20
540.5355791397411
 30
0.0
 70
0
  0
VERTEX
  5
C2
  8
POCHE_KERF_4MM
 10
915.630948478696
 20
542.1203839020533
 30
0.0
 70
0
  0
SEQEND
  5
BE
  8
POCHE_KERF_4MM
  0
POLYLINE
  5
C3
  8
POCHE_KERF_4MM
 66
1
 10
0.0
 20
0.0
 30
0.0
 70
1
  0
VERTEX
  5
C5
  8
POCHE_KERF_4MM
 10
783.1655937889835
 20
91.96964851061658
 30
0.0
 70
0
  0
VERTEX
  5
C6
  8
POCHE_KERF_4MM
 10
788.9726817768278
 20
90.4604337805548
 30
0.0
 70
0
  0
VERTEX
  5
C7
  8
POCHE_KERF_4MM
 10
906.9570010199948
 20
544.4351461814459
 30
0.0
 70
0
  0
VERTEX
  5
C8
  8
POCHE_KERF_4MM
 10
901.1499130321506
 20
545.9443609115075
 30
0.0
 70
0
  0
SEQEND
  5
C4
  8
POCHE_KERF_4MM
  0
POLYLINE
  5
C9
  8
POCHE_KERF_4MM
 66
1
 10
0.0
 20
0.0
 30
0.0
 70
1
  0
VERTEX
  5
CB
  8
POCHE_KERF_4MM
 10
774.5653123869296
 20
94.10468398393564
 30
0.0
 70
0
  0
VERTEX
  5
CC
  8
POCHE_KERF_4MM
 10
780.3915852858732
 20
92.67131588500402
 30
0.0
 70
0
  0
VERTEX
  5
CD
  8
POCHE_KERF_4MM
 10
892.4465208816906
 20
548.1458272414164
 30
0.0
 70
0
  0
VERTEX
  5
CE
  8
POCHE_KERF_4MM
 10
886.620247982747
 20
549.5791953403481
 30
0.0
 70
0
  0
SEQEND
  5
CA
  8
POCHE_KERF_4MM
  0
POLYLINE
  5
CF
  8
POCHE_KERF_4MM
 66
1
 10
0.0
 20
0.0
 30
0.0
 70
1
  0
VERTEX
  5
D1
  8
POCHE_KERF_4MM
 10
765.9379234796048
 20
96.12739931452894
 30
0.0
 70
0
  0
VERTEX
  5
D2
  8
POCHE_KERF_4MM
 10
771.7823906982707
 20
94.77012155005265
 30
0.0
 70
0
  0
VERTEX
  5
D3
  8
POCHE_KERF_4MM
 10
877.8888909038982
 20
551.6669914242711
 30
0.0
 70
0
  0
VERTEX
  5
D4
  8
POCHE_KERF_4MM
 10
872.0444236852325
 20
553.0242691887474
 30
0.0
 70
0
  0
SEQEND
  5
D0
  8
POCHE_KERF_4MM
  0
POLYLINE
  5
D5
  8
POCHE_KERF_4MM
 66
1
 10
0.0
 20
0.0
 30
0.0
 70
1
  0
VERTEX
  5
D7
  8
POCHE_KERF_4MM
 10
757.2848939081974
 20
98.0374505973991
 30
0.0
 70
0
  0
VERTEX
  5
D8
  8
POCHE_KERF_4MM
 10
763.1465617617832
 20
96.75649393371415
 30
0.0
 70
0
  0
VERTEX
  5
D9
  8
POCHE_KERF_4MM
 10
863.286586196002
 20
554.9980400565636
 30
0.0
 70
0
  0
VERTEX
  5
DA
  8
POCHE_KERF_4MM
 10
857.4249183424162
 20
556.2789967202483
 30
0.0
 70
0
  0
SEQEND
  5
D6
  8
POCHE_KERF_4MM
  0
POLYLINE
  5
DB
  8
POCHE_KERF_4MM
 66
1
 10
0.0
 20
0.0
 30
0.0
 70
1
  0
VERTEX
  5
DD
  8
POCHE_KERF_4MM
 10
748.6076948733581
 20
99.83451308285377
 30
0.0
 70
0
  0
VERTEX
  5
DE
  8
POCHE_KERF_4MM
 10
754.4855667525851
 20
98.63009531007212
 30
0.0
 70
0
  0
VERTEX
  5
DF
  8
POCHE_KERF_4MM
 10
848.6420894630495
 20
558.1384067885688
 30
0.0
 70
0
  0
VERTEX
  5
E0
  8
POCHE_KERF_4MM
 10
842.7642175838225
 20
559.3428245613504
 30
0.0
 70
0
  0
SEQEND
  5
DC
  8
POCHE_KERF_4MM
  0
POLYLINE
  5
E1
  8
POCHE_KERF_4MM
 66
1
 10
0.0
 20
0.0
 30
0.0
 70
1
  0
VERTEX
  5
E3
  8
POCHE_KERF_4MM
 10
739.907801685065
 20
101.51828123172031
 30
0.0
 70
0
  0
VERTEX
  5
E4
  8
POCHE_KERF_4MM
 10
745.8008782256223
 20
100.3906071267002
 30
0.0
 70
0
  0
VERTEX
  5
E5
  8
POCHE_KERF_4MM
 10
833.9578905836372
 20
561.087557690576
 30
0.0
 70
0
  0
VERTEX
  5
E6
  8
POCHE_KERF_4MM
 10
828.0648140430799
 20
562.2152317955961
 30
0.0
 70
0
  0
SEQEND
  5
E2
  8
POCHE_KERF_4MM
  0
POLYLINE
  5
E7
  8
POCHE_KERF_4MM
 66
1
 10
0.0
 20
0.0
 30
0.0
 70
1
  0
VERTEX
  5
E9
  8
POCHE_KERF_4MM
 10
731.1866935117893
 20
103.0884687672931
 30
0.0
 70
0
  0
VERTEX
  5
EA
  8
POCHE_KERF_4MM
 10
737.0939727642474
 20
102.03773005882319
 30
0.0
 70
0
  0
VERTEX
  5
EB
  8
POCHE_KERF_4MM
 10
819.2364861865783
 20
563.8449913436666
 30
0.0
 70
0
  0
VERTEX
  5
EC
  8
POCHE_KERF_4MM
 10
813.3292069341201
 20
564.8957300521365
 30
0.0
 70
0
  0
SEQEND
  5
E8
  8
POCHE_KERF_4MM
  0
POLYLINE
  5
ED
  8
POCHE_KERF_4MM
 66
1
 10
0.0
 20
0.0
 30
0.0
 70
1
  0
VERTEX
  5
EF
  8
POCHE_KERF_4MM
 10
722.4458531290045
 20
104.54480872400785
 30
0.0
 70
0
  0
VERTEX
  5
F0
  8
POCHE_KERF_4MM
 10
728.3663307291683
 20
103.57118406020885
 30
0.0
 70
0
  0
VERTEX
  5
F1
  8
POCHE_KERF_4MM
 10
804.480379226422
 20
566.4102389249675
 30
0.0
 70
0
  0
VERTEX
  5
F2
  8
POCHE_KERF_4MM
 10
798.5599016262581
 20
567.3838635887665
 30
0.0
 70
0
  0
SEQEND
  5
EE
  8
POCHE_KERF_4MM
  0
POLYLINE
  5
F3
  8
POCHE_KERF_4MM
 66
1
 10
0.0
 20
0.0
 30
0.0
 70
1
  0
VERTEX
  5
F5
  8
POCHE_KERF_4MM
 10
713.686766667083
 20
105.88705349283065
 30
0.0
 70
0
  0
VERTEX
  5
F6
  8
POCHE_KERF_4MM
 10
719.6194360067552
 20
104.99070841078138
 30
0.0
 70
0
  0
VERTEX
  5
F7
  8
POCHE_KERF_4MM
 10
789.6920785578978
 20
568.7828642873606
 30
0.0
 70
0
  0
VERTEX
  5
F8
  8
POCHE_KERF_4MM
 10
783.7594092182256
 20
569.6792093694098
 30
0.0
 70
0
  0
SEQEND
  5
F4
  8
POCHE_KERF_4MM
  0
POLYLINE
  5
F9
  8
POCHE_KERF_4MM
 66
1
 10
0.0
 20
0.0
 30
0.0
 70
1
  0
VERTEX
  5
FB
  8
POCHE_KERF_4MM
 10
704.9109233586227
 20
107.114974863357
 30
0.0
 70
0
  0
VERTEX
  5
FC
  8
POCHE_KERF_4MM
 10
710.8547757567485
 20
106.29606176094988
 30
0.0
 70
0
  0
VERTEX
  5
FD
  8
POCHE_KERF_4MM
 10
774.8740985093563
 20
570.9624640336373
 30
0.0
 70
0
  0
VERTEX
  5
FE
  8
POCHE_KERF_4MM
 10
768.9302461112304
 20
571.7813771360442
 30
0.0
 70
0
  0
SEQEND
  5
FA
  8
POCHE_KERF_4MM
  0
POLYLINE
  5
FF
  8
POCHE_KERF_4MM
 66
1
 10
0.0
 20
0.0
 30
0.0
 70
1
  0
VERTEX
  5
101
  8
POCHE_KERF_4MM
 10
696.1198152852438
 20
108.22836406261287
 30
0.0
 70
0
  0
VERTEX
  5
102
  8
POCHE_KERF_4MM
 10
702.0738401594087
 20
107.48702217264237
 30
0.0
 70
0
  0
VERTEX
  5
103
  8
POCHE_KERF_4MM
 10
760.0289584552792
 20
572.9486675850835
 30
0.0
 70
0
  0
VERTEX
  5
104
  8
POCHE_KERF_4MM
 10
754.0749335811142
 20
573.690009475054
 30
0.0
 70
0
  0
SEQEND
  5
100
  8
POCHE_KERF_4MM
  0
POLYLINE
  5
105
  8
POCHE_KERF_4MM
 66
1
 10
0.0
 20
0.0
 30
0.0
 70
1
  0
VERTEX
  5
107
  8
POCHE_KERF_4MM
 10
687.3149371239048
 20
109.22703179054989
 30
0.0
 70
0
  0
VERTEX
  5
108
  8
POCHE_KERF_4MM
 10
693.2781221621552
 20
108.5633871570407
 30
0.0
 70
0
  0
VERTEX
  5
109
  8
POCHE_KERF_4MM
 10
745.1591823879315
 20
574.7411372444881
 30
0.0
 70
0
  0
VERTEX
  5
10A
  8
POCHE_KERF_4MM
 10
739.1959973496811
 20
575.4047818779973
 30
0.0
 70
0
  0
SEQEND
  5
106
  8
POCHE_KERF_4MM
  0
POLYLINE
  5
10B
  8
POCHE_KERF_4MM
 66
1
 10
0.0
 20
0.0
 30
0.0
 70
1
  0
VERTEX
  5
10D
  8
POCHE_KERF_4MM
 10
678.4977858927745
 20
110.11080825223114
 30
0.0
 70
0
  0
VERTEX
  5
10E
  8
POCHE_KERF_4MM
 10
684.4691172257325
 20
109.52497370900726
 30
0.0
 70
0
  0
VERTEX
  5
10F
  8
POCHE_KERF_4MM
 10
730.2672984882304
 20
576.3395682535573
 30
0.0
 70
0
  0
VERTEX
  5
110
  8
POCHE_KERF_4MM
 10
724.2959671552724
 20
576.9254027967812
 30
0.0
 70
0
  0
SEQEND
  5
10C
  8
POCHE_KERF_4MM
  0
POLYLINE
  5
111
  8
POCHE_KERF_4MM
 66
1
 10
0.0
 20
0.0
 30
0.0
 70
1
  0
VERTEX
  5
113
  8
POCHE_KERF_4MM
 10
669.6698606967063
 20
110.87954318669944
 30
0.0
 70
0
  0
VERTEX
  5
114
  8
POCHE_KERF_4MM
 10
675.6483230699489
 20
110.37161833820045
 30
0.0
 70
0
  0
VERTEX
  5
115
  8
POCHE_KERF_4MM
 10
715.3558386958965
 20
577.7436888447301
 30
0.0
 70
0
  0
VERTEX
  5
116
  8
POCHE_KERF_4MM
 10
709.377376322654
 20
578.251613693229
 30
0.0
 70
0
  0
SEQEND
  5
112
  8
POCHE_KERF_4MM
  0
POLYLINE
  5
117
  8
POCHE_KERF_4MM
 66
1
 10
0.0
 20
0.0
 30
0.0
 70
1
  0
VERTEX
  5
119
  8
POCHE_KERF_4MM
 10
660.8326624723595
 20
111.53310589252527
 30
0.0
 70
0
  0
VERTEX
  5
11A
  8
POCHE_KERF_4MM
 10
666.817239419034
 20
111.10317709687132
 30
0.0
 70
0
  0
VERTEX
  5
11B
  8
POCHE_KERF_4MM
 10
700.4273382789739
 20
578.9532602873848
 30
0.0
 70
0
  0
VERTEX
  5
11C
  8
POCHE_KERF_4MM
 10
694.4427613322995
 20
579.3831890830385
 30
0.0
 70
0
  0
SEQEND
  5
118
  8
POCHE_KERF_4MM
  0
POLYLINE
  5
11D
  8
POCHE_KERF_4MM
 66
1
 10
0.0
 20
0.0
 30
0.0
 70
1
  0
VERTEX
  5
11F
  8
POCHE_KERF_4MM
 10
651.9876937330064
 20
112.07138525002803
 30
0.0
 70
0
  0
VERTEX
  5
120
  8
POCHE_KERF_4MM
 10
657.9773677466513
 20
111.71952560433739
 30
0.0
 70
0
  0
VERTEX
  5
121
  8
POCHE_KERF_4MM
 10
685.4843354027777
 20
579.9680769284287
 30
0.0
 70
0
  0
VERTEX
  5
122
  8
POCHE_KERF_4MM
 10
679.4946613891326
 20
580.3199365741193
 30
0.0
 70
0
  0
SEQEND
  5
11E
  8
POCHE_KERF_4MM
  0
POLYLINE
  5
123
  8
POCHE_KERF_4MM
 66
1
 10
0.0
 20
0.0
 30
0.0
 70
1
  0
VERTEX
  5
125
  8
POCHE_KERF_4MM
 10
643.1364583130743
 20
112.49428974017044
 30
0.0
 70
0
  0
VERTEX
  5
126
  8
POCHE_KERF_4MM
 10
649.1302110206177
 20
112.22055906813083
 30
0.0
 70
0
  0
VERTEX
  5
127
  8
POCHE_KERF_4MM
 10
670.5293706983529
 20
580.7879662272632
 30
0.0
 70
0
  0
VERTEX
  5
128
  8
POCHE_KERF_4MM
 10
664.5356179908093
 20
581.0616968993028
 30
0.0
 70
0
  0
SEQEND
  5
124
  8
POCHE_KERF_4MM
  0
POLYLINE
  5
129
  8
POCHE_KERF_4MM
 66
1
 10
0.0
 20
0.0
 30
0.0
 70
1
  0
VERTEX
  5
12B
  8
POCHE_KERF_4MM
 10
634.2804611124596
 20
112.80174746011677
 30
0.0
 70
0
  0
VERTEX
  5
12C
  8
POCHE_KERF_4MM
 10
640.277273447364
 20
112.6061923018142
 30
0.0
 70
0
  0
VERTEX
  5
12D
  8
POCHE_KERF_4MM
 10
655.5649868305103
 20
581.4127887851189
 30
0.0
 70
0
  0
VERTEX
  5
12E
  8
POCHE_KERF_4MM
 10
649.568174495606
 20
581.6083439434212
 30
0.0
 70
0
  0
SEQEND
  5
12A
  8
POCHE_KERF_4MM
  0
POLYLINE
  5
12F
  8
POCHE_KERF_4MM
 66
1
 10
0.0
 20
0.0
 30
0.0
 70
1
  0
VERTEX
  5
131
  8
POCHE_KERF_4MM
 10
625.4212078406649
 20
112.99370613545895
 30
0.0
 70
0
  0
VERTEX
  5
132
  8
POCHE_KERF_4MM
 10
631.4200602161903
 20
112.87635973946564
 30
0.0
 70
0
  0
VERTEX
  5
133
  8
POCHE_KERF_4MM
 10
640.5937280655229
 20
581.8424383687578
 30
0.0
 70
0
  0
VERTEX
  5
134
  8
POCHE_KERF_4MM
 10
634.5948756899975
 20
581.9597847647509
 30
0.0
 70
0
  0
SEQEND
  5
130
  8
POCHE_KERF_4MM
  0
POLYLINE
  5
135
  8
POCHE_KERF_4MM
 66
1
 10
0.0
 20
0.0
 30
0.0
 70
1
  0
VERTEX
  5
137
  8
POCHE_KERF_4MM
 10
616.5602047607935
 20
113.07013312910465
 30
0.0
 70
0
  0
VERTEX
  5
138
  8
POCHE_KERF_4MM
 10
622.5600772433495
 20
113.03101544682511
 30
0.0
 70
0
  0
VERTEX
  5
139
  8
POCHE_KERF_4MM
 10
625.6181398385412
 20
582.0768419285339
 30
0.0
 70
0
  0
VERTEX
  5
13A
  8
POCHE_KERF_4MM
 10
619.6182673559852
 20
582.1159596108134
 30
0.0
 70
0
  0
SEQEND
  5
136
  8
POCHE_KERF_4MM
  0
POLYLINE
  5
13B
  8
POCHE_KERF_4MM
 66
1
 10
0.0
 20
0.0
 30
0.0
 70
1
  0
VERTEX
  5
13D
  8
POCHE_KERF_4MM
 10
607.6989584334547
 20
113.03101544682511
 30
0.0
 70
0
  0
VERTEX
  5
13E
  8
POCHE_KERF_4MM
 10
613.6988309160107
 20
113.07013312910465
 30
0.0
 70
0
  0
VERTEX
  5
13F
  8
POCHE_KERF_4MM
 10
610.6407683208191
 20
582.1159596108134
 30
0.0
 70
0
  0
VERTEX
  5
140
  8
POCHE_KERF_4MM
 10
604.6408958382631
 20
582.0768419285339
 30
0.0
 70
0
  0
SEQEND
  5
13C
  8
POCHE_KERF_4MM
  0
POLYLINE
  5
141
  8
POCHE_KERF_4MM
 66
1
 10
0.0
 20
0.0
 30
0.0
 70
1
  0
VERTEX
  5
143
  8
POCHE_KERF_4MM
 10
598.8389754606138
 20
112.87635973946564
 30
0.0
 70
0
  0
VERTEX
  5
144
  8
POCHE_KERF_4MM
 10
604.8378278361394
 20
112.99370613545895
 30
0.0
 70
0
  0
VERTEX
  5
145
  8
POCHE_KERF_4MM
 10
595.6641599868068
 20
581.9597847647509
 30
0.0
 70
0
  0
VERTEX
  5
146
  8
POCHE_KERF_4MM
 10
589.6653076112814
 20
581.8424383687578
 30
0.0
 70
0
  0
SEQEND
  5
142
  8
POCHE_KERF_4MM
  0
POLYLINE
  5
147
  8
POCHE_KERF_4MM
 66
1
 10
0.0
 20
0.0
 30
0.0
 70
1
  0
VERTEX
  5
149
  8
POCHE_KERF_4MM
 10
589.9817622294403
 20
112.6061923018142
 30
0.0
 70
0
  0
VERTEX
  5
14A
  8
POCHE_KERF_4MM
 10
595.9785745643446
 20
112.80174746011677
 30
0.0
 70
0
  0
VERTEX
  5
14B
  8
POCHE_KERF_4MM
 10
580.6908611811983
 20
581.6083439434212
 30
0.0
 70
0
  0
VERTEX
  5
14C
  8
POCHE_KERF_4MM
 10
574.694048846294
 20
581.4127887851189
 30
0.0
 70
0
  0
SEQEND
  5
148
  8
POCHE_KERF_4MM
  0
POLYLINE
  5
14D
  8
POCHE_KERF_4MM
 66
1
 10
0.0
 20
0.0
 30
0.0
 70
1
  0
VERTEX
  5
14F
  8
POCHE_KERF_4MM
 10
581.1288246561866
 20
112.22055906813083
 30
0.0
 70
0
  0
VERTEX
  5
150
  8
POCHE_KERF_4MM
 10
587.12257736373
 20
112.49428974017044
 30
0.0
 70
0
  0
VERTEX
  5
151
  8
POCHE_KERF_4MM
 10
565.723417685995
 20
581.0616968993028
 30
0.0
 70
0
  0
VERTEX
  5
152
  8
POCHE_KERF_4MM
 10
559.7296649784515
 20
580.7879662272632
 30
0.0
 70
0
  0
SEQEND
  5
14E
  8
POCHE_KERF_4MM
  0
POLYLINE
  5
153
  8
POCHE_KERF_4MM
 66
1
 10
0.0
 20
0.0
 30
0.0
 70
1
  0
VERTEX
  5
155
  8
POCHE_KERF_4MM
 10
572.2816679301529
 20
111.71952560433739
 30
0.0
 70
0
  0
VERTEX
  5
156
  8
POCHE_KERF_4MM
 10
578.2713419437979
 20
112.07138525002803
 30
0.0
 70
0
  0
VERTEX
  5
157
  8
POCHE_KERF_4MM
 10
550.7643742876717
 20
580.3199365741193
 30
0.0
 70
0
  0
VERTEX
  5
158
  8
POCHE_KERF_4MM
 10
544.7747002740266
 20
579.9680769284287
 30
0.0
 70
0
  0
SEQEND
  5
154
  8
POCHE_KERF_4MM
  0
POLYLINE
  5
159
  8
POCHE_KERF_4MM
 66
1
 10
0.0
 20
0.0
 30
0.0
 70
1
  0
VERTEX
  5
15B
  8
POCHE_KERF_4MM
 10
563.4417962577703
 20
111.10317709687132
 30
0.0
 70
0
  0
VERTEX
  5
15C
  8
POCHE_KERF_4MM
 10
569.4263732044448
 20
111.53310589252527
 30
0.0
 70
0
  0
VERTEX
  5
15D
  8
POCHE_KERF_4MM
 10
535.8162743445048
 20
579.3831890830385
 30
0.0
 70
0
  0
VERTEX
  5
15E
  8
POCHE_KERF_4MM
 10
529.8316973978303
 20
578.9532602873848
 30
0.0
 70
0
  0
SEQEND
  5
15A
  8
POCHE_KERF_4MM
  0
POLYLINE
  5
15F
  8
POCHE_KERF_4MM
 66
1
 10
0.0
 20
0.0
 30
0.0
 70
1
  0
VERTEX
  5
161
  8
POCHE_KERF_4MM
 10
554.6107126068555
 20
110.37161833820056
 30
0.0
 70
0
  0
VERTEX
  5
162
  8
POCHE_KERF_4MM
 10
560.589174980098
 20
110.87954318669955
 30
0.0
 70
0
  0
VERTEX
  5
163
  8
POCHE_KERF_4MM
 10
520.8816593541507
 20
578.251613693229
 30
0.0
 70
0
  0
VERTEX
  5
164
  8
POCHE_KERF_4MM
 10
514.903196980908
 20
577.7436888447301
 30
0.0
 70
0
  0
SEQEND
  5
160
  8
POCHE_KERF_4MM
  0
POLYLINE
  5
165
  8
POCHE_KERF_4MM
 66
1
 10
0.0
 20
0.0
 30
0.0
 70
1
  0
VERTEX
  5
167
  8
POCHE_KERF_4MM
 10
545.7899184510718
 20
109.52497370900726
 30
0.0
 70
0
  0
VERTEX
  5
168
  8
POCHE_KERF_4MM
 10
551.7612497840298
 20
110.11080825223114
 30
0.0
 70
0
  0
VERTEX
  5
169
  8
POCHE_KERF_4MM
 10
505.9630685215319
 20
576.9254027967812
 30
0.0
 70
0
  0
VERTEX
  5
16A
  8
POCHE_KERF_4MM
 10
499.99173718857395
 20
576.3395682535573
 30
0.0
 70
0
  0
SEQEND
  5
166
  8
POCHE_KERF_4MM
  0
POLYLINE
  5
16B
  8
POCHE_KERF_4MM
 66
1
 10
0.0
 20
0.0
 30
0.0
 70
1
  0
VERTEX
  5
16D
  8
POCHE_KERF_4MM
 10
536.980913514649
 20
108.5633871570407
 30
0.0
 70
0
  0
VERTEX
  5
16E
  8
POCHE_KERF_4MM
 10
542.9440985528995
 20
109.22703179054989
 30
0.0
 70
0
  0
VERTEX
  5
16F
  8
POCHE_KERF_4MM
 10
491.0630383271232
 20
575.4047818779975
 30
0.0
 70
0
  0
VERTEX
  5
170
  8
POCHE_KERF_4MM
 10
485.0998532888727
 20
574.7411372444883
 30
0.0
 70
0
  0
SEQEND
  5
16C
  8
POCHE_KERF_4MM
  0
POLYLINE
  5
171
  8
POCHE_KERF_4MM
 66
1
 10
0.0
 20
0.0
 30
0.0
 70
1
  0
VERTEX
  5
173
  8
POCHE_KERF_4MM
 10
528.1851955173955
 20
107.48702217264237
 30
0.0
 70
0
  0
VERTEX
  5
174
  8
POCHE_KERF_4MM
 10
534.1392203915605
 20
108.22836406261287
 30
0.0
 70
0
  0
VERTEX
  5
175
  8
POCHE_KERF_4MM
 10
476.18410209569004
 20
573.690009475054
 30
0.0
 70
0
  0
VERTEX
  5
176
  8
POCHE_KERF_4MM
 10
470.2300772215251
 20
572.9486675850835
 30
0.0
 70
0
  0
SEQEND
  5
172
  8
POCHE_KERF_4MM
  0
POLYLINE
  5
177
  8
POCHE_KERF_4MM
 66
1
 10
0.0
 20
0.0
 30
0.0
 70
1
  0
VERTEX
  5
179
  8
POCHE_KERF_4MM
 10
519.4042599200559
 20
106.29606176094988
 30
0.0
 70
0
  0
VERTEX
  5
17A
  8
POCHE_KERF_4MM
 10
525.3481123181817
 20
107.114974863357
 30
0.0
 70
0
  0
VERTEX
  5
17B
  8
POCHE_KERF_4MM
 10
461.328789565574
 20
571.7813771360442
 30
0.0
 70
0
  0
VERTEX
  5
17C
  8
POCHE_KERF_4MM
 10
455.38493716744824
 20
570.9624640336373
 30
0.0
 70
0
  0
SEQEND
  5
178
  8
POCHE_KERF_4MM
  0
POLYLINE
  5
17D
  8
POCHE_KERF_4MM
 66
1
 10
0.0
 20
0.0
 30
0.0
 70
1
  0
VERTEX
  5
17F
  8
POCHE_KERF_4MM
 10
510.63959967004905
 20
104.99070841078138
 30
0.0
 70
0
  0
VERTEX
  5
180
  8
POCHE_KERF_4MM
 10
516.5722690097213
 20
105.88705349283065
 30
0.0
 70
0
  0
VERTEX
  5
181
  8
POCHE_KERF_4MM
 10
446.49962645857863
 20
569.6792093694098
 30
0.0
 70
0
  0
VERTEX
  5
182
  8
POCHE_KERF_4MM
 10
440.56695711890643
 20
568.7828642873606
 30
0.0
 70
0
  0
SEQEND
  5
17E
  8
POCHE_KERF_4MM
  0
POLYLINE
  5
183
  8
POCHE_KERF_4MM
 66
1
 10
0.0
 20
0.0
 30
0.0
 70
1
  0
VERTEX
  5
185
  8
POCHE_KERF_4MM
 10
501.89270494763605
 20
103.57118406020885
 30
0.0
 70
0
  0
VERTEX
  5
186
  8
POCHE_KERF_4MM
 10
507.81318254779995
 20
104.54480872400785
 30
0.0
 70
0
  0
VERTEX
  5
187
  8
POCHE_KERF_4MM
 10
431.6991340505465
 20
567.3838635887665
 30
0.0
 70
0
  0
VERTEX
  5
188
  8
POCHE_KERF_4MM
 10
425.77865645038264
 20
566.4102389249675
 30
0.0
 70
0
  0
SEQEND
  5
184
  8
POCHE_KERF_4MM
  0
POLYLINE
  5
189
  8
POCHE_KERF_4MM
 66
1
 10
0.0
 20
0.0
 30
0.0
 70
1
  0
VERTEX
  5
18B
  8
POCHE_KERF_4MM
 10
493.16506291255683
 20
102.03773005882319
 30
0.0
 70
0
  0
VERTEX
  5
18C
  8
POCHE_KERF_4MM
 10
499.072342165015
 20
103.0884687672931
 30
0.0
 70
0
  0
VERTEX
  5
18D
  8
POCHE_KERF_4MM
 10
416.9298287426842
 20
564.8957300521365
 30
0.0
 70
0
  0
VERTEX
  5
18E
  8
POCHE_KERF_4MM
 10
411.0225494902261
 20
563.8449913436666
 30
0.0
 70
0
  0
SEQEND
  5
18A
  8
POCHE_KERF_4MM
  0
POLYLINE
  5
18F
  8
POCHE_KERF_4MM
 66
1
 10
0.0
 20
0.0
 30
0.0
 70
1
  0
VERTEX
  5
191
  8
POCHE_KERF_4MM
 10
484.45815745118205
 20
100.3906071267002
 30
0.0
 70
0
  0
VERTEX
  5
192
  8
POCHE_KERF_4MM
 10
490.3512339917394
 20
101.51828123172031
 30
0.0
 70
0
  0
VERTEX
  5
193
  8
POCHE_KERF_4MM
 10
402.19422163372474
 20
562.2152317955961
 30
0.0
 70
0
  0
VERTEX
  5
194
  8
POCHE_KERF_4MM
 10
396.3011450931674
 20
561.087557690576
 30
0.0
 70
0
  0
SEQEND
  5
190
  8
POCHE_KERF_4MM
  0
POLYLINE
  5
195
  8
POCHE_KERF_4MM
 66
1
 10
0.0
 20
0.0
 30
0.0
 70
1
  0
VERTEX
  5
197
  8
POCHE_KERF_4MM
 10
475.7734689242191
 20
98.63009531007224
 30
0.0
 70
0
  0
VERTEX
  5
198
  8
POCHE_KERF_4MM
 10
481.6513408034461
 20
99.83451308285389
 30
0.0
 70
0
  0
VERTEX
  5
199
  8
POCHE_KERF_4MM
 10
387.4948180929818
 20
559.3428245613507
 30
0.0
 70
0
  0
VERTEX
  5
19A
  8
POCHE_KERF_4MM
 10
381.61694621375483
 20
558.138406788569
 30
0.0
 70
0
  0
SEQEND
  5
196
  8
POCHE_KERF_4MM
  0
POLYLINE
  5
19B
  8
POCHE_KERF_4MM
 66
1
 10
0.0
 20
0.0
 30
0.0
 70
1
  0
VERTEX
  5
19D
  8
POCHE_KERF_4MM
 10
467.11247391502116
 20
96.75649393371415
 30
0.0
 70
0
  0
VERTEX
  5
19E
  8
POCHE_KERF_4MM
 10
472.97414176860696
 20
98.0374505973991
 30
0.0
 70
0
  0
VERTEX
  5
19F
  8
POCHE_KERF_4MM
 10
372.83411733438834
 20
556.2789967202483
 30
0.0
 70
0
  0
VERTEX
  5
1A0
  8
POCHE_KERF_4MM
 10
366.97244948080254
 20
554.9980400565636
 30
0.0
 70
0
  0
SEQEND
  5
19C
  8
POCHE_KERF_4MM
  0
POLYLINE
  5
1A1
  8
POCHE_KERF_4MM
 66
1
 10
0.0
 20
0.0
 30
0.0
 70
1
  0
VERTEX
  5
1A3
  8
POCHE_KERF_4MM
 10
458.47664497853356
 20
94.77012155005265
 30
0.0
 70
0
  0
VERTEX
  5
1A4
  8
POCHE_KERF_4MM
 10
464.3211121971993
 20
96.12739931452894
 30
0.0
 70
0
  0
VERTEX
  5
1A5
  8
POCHE_KERF_4MM
 10
358.21461199157187
 20
553.0242691887474
 30
0.0
 70
0
  0
VERTEX
  5
1A6
  8
POCHE_KERF_4MM
 10
352.37014477290614
 20
551.6669914242711
 30
0.0
 70
0
  0
SEQEND
  5
1A2
  8
POCHE_KERF_4MM
  0
POLYLINE
  5
1A7
  8
POCHE_KERF_4MM
 66
1
 10
0.0
 20
0.0
 30
0.0
 70
1
  0
VERTEX
  5
1A9
  8
POCHE_KERF_4MM
 10
449.86745039093114
 20
92.67131588500413
 30
0.0
 70
0
  0
VERTEX
  5
1AA
  8
POCHE_KERF_4MM
 10
455.69372328987475
 20
94.10468398393576
 30
0.0
 70
0
  0
VERTEX
  5
1AB
  8
POCHE_KERF_4MM
 10
343.63878769405756
 20
549.5791953403481
 30
0.0
 70
0
  0
VERTEX
  5
1AC
  8
POCHE_KERF_4MM
 10
337.8125147951139
 20
548.1458272414164
 30
0.0
 70
0
  0
SEQEND
  5
1A8
  8
POCHE_KERF_4MM
  0
POLYLINE
  5
1AD
  8
POCHE_KERF_4MM
 66
1
 10
0.0
 20
0.0
 30
0.0
 70
1
  0
VERTEX
  5
1AF
  8
POCHE_KERF_4MM
 10
441.28635389997646
 20
90.4604337805548
 30
0.0
 70
0
  0
VERTEX
  5
1B0
  8
POCHE_KERF_4MM
 10
447.0934418878207
 20
91.96964851061658
 30
0.0
 70
0
  0
VERTEX
  5
1B1
  8
POCHE_KERF_4MM
 10
329.1091226446537
 20
545.9443609115075
 30
0.0
 70
0
  0
VERTEX
  5
1B2
  8
POCHE_KERF_4MM
 10
323.30203465680955
 20
544.4351461814459
 30
0.0
 70
0
  0
SEQEND
  5
1AE
  8
POCHE_KERF_4MM
  0
POLYLINE
  5
1B3
  8
POCHE_KERF_4MM
 66
1
 10
0.0
 20
0.0
 30
0.0
 70
1
  0
VERTEX
  5
1B5
  8
POCHE_KERF_4MM
 10
432.73481447615427
 20
88.13785113409034
 30
0.0
 70
0
  0
VERTEX
  5
1B6
  8
POCHE_KERF_4MM
 10
438.5217302233682
 20
89.7226558964025
 30
0.0
 70
0
  0
VERTEX
  5
1B7
  8
POCHE_KERF_4MM
 10
314.62808719810846
 20
542.1203839020533
 30
0.0
 70
0
  0
VERTEX
  5
1B8
  8
POCHE_KERF_4MM
 10
308.84117145089454
 20
540.5355791397411
 30
0.0
 70
0
  0
SEQEND
  5
1B4
  8
POCHE_KERF_4MM
  0
POLYLINE
  5
1B9
  8
POCHE_KERF_4MM
 66
1
 10
0.0
 20
0.0
 30
0.0
 70
1
  0
VERTEX
  5
1BB
  8
POCHE_KERF_4MM
 10
424.2142860646126
 20
85.70396283448407
 30
0.0
 70
0
  0
VERTEX
  5
1BC
  8
POCHE_KERF_4MM
 10
429.980045671379
 20
87.36408817824021
 30
0.0
 70
0
  0
VERTEX
  5
1BD
  8
POCHE_KERF_4MM
 10
300.19814344109216
 20
538.1079144701082
 30
0.0
 70
0
  0
VERTEX
  5
1BE
  8
POCHE_KERF_4MM
 10
294.4323838343257
 20
536.4477891263521
 30
0.0
 70
0
  0
SEQEND
  5
1BA
  8
POCHE_KERF_4MM
  0
POLYLINE
  5
1BF
  8
POCHE_KERF_4MM
 66
1
 10
0.0
 20
0.0
 30
0.0
 70
1
  0
VERTEX
  5
1C1
  8
POCHE_KERF_4MM
 10
415.72621733796325
 20
83.1591826949588
 30
0.0
 70
0
  0
VERTEX
  5
1C2
  8
POCHE_KERF_4MM
 10
421.4698405014625
 20
84.89434636323737
 30
0.0
 70
0
  0
VERTEX
  5
1C3
  8
POCHE_KERF_4MM
 10
285.82174477359354
 20
533.9076348215505
 30
0.0
 70
0
  0
VERTEX
  5
1C4
  8
POCHE_KERF_4MM
 10
280.0781216100942
 20
532.1724711532717
 30
0.0
 70
0
  0
SEQEND
  5
1C0
  8
POCHE_KERF_4MM
  0
POLYLINE
  5
1C5
  8
POCHE_KERF_4MM
 66
1
 10
0.0
 20
0.0
 30
0.0
 70
1
  0
VERTEX
  5
1C7
  8
POCHE_KERF_4MM
 10
407.2720514499745
 20
80.50394338272838
 30
0.0
 70
0
  0
VERTEX
  5
1C8
  8
POCHE_KERF_4MM
 10
412.99256163105747
 20
82.31385036048334
 30
0.0
 70
0
  0
VERTEX
  5
1C9
  8
POCHE_KERF_4MM
 10
271.50133549178673
 20
529.5202590940246
 30
0.0
 70
0
  0
VERTEX
  5
1CA
  8
POCHE_KERF_4MM
 10
265.78082531070373
 20
527.7103521162696
 30
0.0
 70
0
  0
SEQEND
  5
1C6
  8
POCHE_KERF_4MM
  0
POLYLINE
  5
1CB
  8
POCHE_KERF_4MM
 66
1
 10
0.0
 20
0.0
 30
0.0
 70
1
  0
VERTEX
  5
1CD
  8
POCHE_KERF_4MM
 10
398.8532257902053
 20
77.73869634543553
 30
0.0
 70
0
  0
VERTEX
  5
1CE
  8
POCHE_KERF_4MM
 10
404.5496503794254
 20
79.62303890965495
 30
0.0
 70
0
  0
VERTEX
  5
1CF
  8
POCHE_KERF_4MM
 10
257.2393503724492
 20
524.9465332355214
 30
0.0
 70
0
  0
VERTEX
  5
1D0
  8
POCHE_KERF_4MM
 10
251.54292578322915
 20
523.062190671302
 30
0.0
 70
0
  0
SEQEND
  5
1CC
  8
POCHE_KERF_4MM
  0
POLYLINE
  5
1D1
  8
POCHE_KERF_4MM
 66
1
 10
0.0
 20
0.0
 30
0.0
 70
1
  0
VERTEX
  5
1D3
  8
POCHE_KERF_4MM
 10
390.47117173961715
 20
74.86391173439671
 30
0.0
 70
0
  0
VERTEX
  5
1D4
  8
POCHE_KERF_4MM
 10
396.14254222259524
 20
76.8223695064217
 30
0.0
 70
0
  0
VERTEX
  5
1D5
  8
POCHE_KERF_4MM
 10
243.03821425899784
 20
520.1872348775523
 30
0.0
 70
0
  0
VERTEX
  5
1D6
  8
POCHE_KERF_4MM
 10
237.36684377601975
 20
518.2287771055271
 30
0.0
 70
0
  0
SEQEND
  5
1D2
  8
POCHE_KERF_4MM
  0
POLYLINE
  5
1D7
  8
POCHE_KERF_4MM
 66
1
 10
0.0
 20
0.0
 30
0.0
 70
1
  0
VERTEX
  5
1D9
  8
POCHE_KERF_4MM
 10
382.1273144272097
 20
71.8800783246652
 30
0.0
 70
0
  0
VERTEX
  5
1DA
  8
POCHE_KERF_4MM
 10
387.7726665493021
 20
73.91231832466202
 30
0.0
 70
0
  0
VERTEX
  5
1DB
  8
POCHE_KERF_4MM
 10
228.9003416492129
 20
515.2431732029333
 30
0.0
 70
0
  0
VERTEX
  5
1DC
  8
POCHE_KERF_4MM
 10
223.2549895271205
 20
513.2109332029365
 30
0.0
 70
0
  0
SEQEND
  5
1D8
  8
POCHE_KERF_4MM
  0
POLYLINE
  5
1DD
  8
POCHE_KERF_4MM
 66
1
 10
0.0
 20
0.0
 30
0.0
 70
1
  0
VERTEX
  5
1DF
  8
POCHE_KERF_4MM
 10
373.82307248771747
 20
68.78770343192929
 30
0.0
 70
0
  0
VERTEX
  5
1E0
  8
POCHE_KERF_4MM
 10
379.4414464179599
 20
70.8933801355027
 30
0.0
 70
0
  0
VERTEX
  5
1E1
  8
POCHE_KERF_4MM
 10
214.82813628472186
 20
510.1151888082093
 30
0.0
 70
0
  0
VERTEX
  5
1E2
  8
POCHE_KERF_4MM
 10
209.2097623544794
 20
508.0095121046359
 30
0.0
 70
0
  0
SEQEND
  5
1DE
  8
POCHE_KERF_4MM
  0
POLYLINE
  5
1E3
  8
POCHE_KERF_4MM
 66
1
 10
0.0
 20
0.0
 30
0.0
 70
1
  0
VERTEX
  5
1E5
  8
POCHE_KERF_4MM
 10
365.5598578204117
 20
65.58731282625834
 30
0.0
 70
0
  0
VERTEX
  5
1E6
  8
POCHE_KERF_4MM
 10
371.15029831471145
 20
67.76606822319789
 30
0.0
 70
0
  0
VERTEX
  5
1E7
  8
POCHE_KERF_4MM
 10
200.82399074231228
 20
504.80415356073206
 30
0.0
 70
0
  0
VERTEX
  5
1E8
  8
POCHE_KERF_4MM
 10
195.23355024801253
 20
502.6253981637923
 30
0.0
 70
0
  0
SEQEND
  5
1E4
  8
POCHE_KERF_4MM
  0
POLYLINE
  5
1E9
  8
POCHE_KERF_4MM
 66
1
 10
0.0
 20
0.0
 30
0.0
 70
1
  0
VERTEX
  5
1EB
  8
POCHE_KERF_4MM
 10
357.3390753490471
 20
62.279450642709406
 30
0.0
 70
0
  0
VERTEX
  5
1EC
  8
POCHE_KERF_4MM
 10
362.9006319125947
 20
64.5309142978592
 30
0.0
 70
0
  0
VERTEX
  5
1ED
  8
POCHE_KERF_4MM
 10
186.89028602714095
 20
499.31097045042503
 30
0.0
 70
0
  0
VERTEX
  5
1EE
  8
POCHE_KERF_4MM
 10
181.32872946359336
 20
497.059506795275
 30
0.0
 70
0
  0
SEQEND
  5
1EA
  8
POCHE_KERF_4MM
  0
POLYLINE
  5
1EF
  8
POCHE_KERF_4MM
 66
1
 10
0.0
 20
0.0
 30
0.0
 70
1
  0
VERTEX
  5
1F1
  8
POCHE_KERF_4MM
 10
349.1621227829954
 20
58.86467928881358
 30
0.0
 70
0
  0
VERTEX
  5
1F2
  8
POCHE_KERF_4MM
 10
354.6938498318692
 20
61.188468405054316
 30
0.0
 70
0
  0
VERTEX
  5
1F3
  8
POCHE_KERF_4MM
 10
173.0293911679143
 20
493.6365734362564
 30
0.0
 70
0
  0
VERTEX
  5
1F4
  8
POCHE_KERF_4MM
 10
167.4976641190405
 20
491.3127843200157
 30
0.0
 70
0
  0
SEQEND
  5
1F0
  8
POCHE_KERF_4MM
  0
POLYLINE
  5
1F5
  8
POCHE_KERF_4MM
 66
1
 10
0.0
 20
0.0
 30
0.0
 70
1
  0
VERTEX
  5
1F7
  8
POCHE_KERF_4MM
 10
341.0303903796038
 20
55.34357934895461
 30
0.0
 70
0
  0
VERTEX
  5
1F8
  8
POCHE_KERF_4MM
 10
346.5313474015394
 20
57.73929883228657
 30
0.0
 70
0
  0
VERTEX
  5
1F9
  8
POCHE_KERF_4MM
 10
159.2436628141003
 20
487.78192728744494
 30
0.0
 70
0
  0
VERTEX
  5
1FA
  8
POCHE_KERF_4MM
 10
153.74270579216468
 20
485.386207804113
 30
0.0
 70
0
  0
SEQEND
  5
1F6
  8
POCHE_KERF_4MM
  0
POLYLINE
  5
1FB
  8
POCHE_KERF_4MM
 66
1
 10
0.0
 20
0.0
 30
0.0
 70
1
  0
VERTEX
  5
1FD
  8
POCHE_KERF_4MM
 10
332.94526070782143
 20
51.71674948565606
 30
0.0
 70
0
  0
VERTEX
  5
1FE
  8
POCHE_KERF_4MM
 10
338.41451242211946
 20
54.183992012374624
 30
0.0
 70
0
  0
VERTEX
  5
1FF
  8
POCHE_KERF_4MM
 10
145.53544483524885
 20
481.74802741942887
 30
0.0
 70
0
  0
VERTEX
  5
200
  8
POCHE_KERF_4MM
 10
140.06619312095083
 20
479.2807848927103
 30
0.0
 70
0
  0
SEQEND
  5
1FC
  8
POCHE_KERF_4MM
  0
POLYLINE
  5
201
  8
POCHE_KERF_4MM
 66
1
 10
0.0
 20
0.0
 30
0.0
 70
1
  0
VERTEX
  5
203
  8
POCHE_KERF_4MM
 10
324.9081084131343
 20
47.98480633779737
 30
0.0
 70
0
  0
VERTEX
  5
204
  8
POCHE_KERF_4MM
 10
330.34472492967745
 20
50.52315242374603
 30
0.0
 70
0
  0
VERTEX
  5
205
  8
POCHE_KERF_4MM
 10
131.9070679224839
 20
475.5358997246248
 30
0.0
 70
0
  0
VERTEX
  5
206
  8
POCHE_KERF_4MM
 10
126.47045140594074
 20
472.9975536386764
 30
0.0
 70
0
  0
SEQEND
  5
202
  8
POCHE_KERF_4MM
  0
POLYLINE
  5
207
  8
POCHE_KERF_4MM
 66
1
 10
0.0
 20
0.0
 30
0.0
 70
1
  0
VERTEX
  5
209
  8
POCHE_KERF_4MM
 10
316.92029998384436
 20
44.1483844157708
 30
0.0
 70
0
  0
VERTEX
  5
20A
  8
POCHE_KERF_4MM
 10
322.3233569611992
 20
46.75740248766237
 30
0.0
 70
0
  0
VERTEX
  5
20B
  8
POCHE_KERF_4MM
 10
118.36084919223461
 20
469.14660039800253
 30
0.0
 70
0
  0
VERTEX
  5
20C
  8
POCHE_KERF_4MM
 10
112.95779221487979
 20
466.53758232611096
 30
0.0
 70
0
  0
SEQEND
  5
208
  8
POCHE_KERF_4MM
  0
POLYLINE
  5
20D
  8
POCHE_KERF_4MM
 66
1
 10
0.0
 20
0.0
 30
0.0
 70
1
  0
VERTEX
  5
20F
  8
POCHE_KERF_4MM
 10
308.9831935187376
 20
40.2081359936012
 30
0.0
 70
0
  0
VERTEX
  5
210
  8
POCHE_KERF_4MM
 10
314.3517723213123
 20
42.887382462395394
 30
0.0
 70
0
  0
VERTEX
  5
211
  8
POCHE_KERF_4MM
 10
104.89909179227641
 20
462.5812157575094
 30
0.0
 70
0
  0
VERTEX
  5
212
  8
POCHE_KERF_4MM
 10
99.53051298970178
 20
459.90196928871524
 30
0.0
 70
0
  0
SEQEND
  5
20E
  8
POCHE_KERF_4MM
  0
POLYLINE
  5
213
  8
POCHE_KERF_4MM
 66
1
 10
0.0
 20
0.0
 30
0.0
 70
1
  0
VERTEX
  5
215
  8
POCHE_KERF_4MM
 10
301.0981384961794
 20
36.1647309980465
 30
0.0
 70
0
  0
VERTEX
  5
216
  8
POCHE_KERF_4MM
 10
306.4313263504113
 20
38.913750334368636
 30
0.0
 70
0
  0
VERTEX
  5
217
  8
POCHE_KERF_4MM
 10
91.52408451014782
 20
455.8408620593748
 30
0.0
 70
0
  0
VERTEX
  5
218
  8
POCHE_KERF_4MM
 10
86.19089665591588
 20
453.09184272305265
 30
0.0
 70
0
  0
SEQEND
  5
214
  8
POCHE_KERF_4MM
  0
POLYLINE
  5
219
  8
POCHE_KERF_4MM
 66
1
 10
0.0
 20
0.0
 30
0.0
 70
1
  0
VERTEX
  5
21B
  8
POCHE_KERF_4MM
 10
293.2664755446729
 20
32.01885689469442
 30
0.0
 70
0
  0
VERTEX
  5
21C
  8
POCHE_KERF_4MM
 10
298.56336569421995
 20
34.83718170628573
 30
0.0
 70
0
  0
VERTEX
  5
21D
  8
POCHE_KERF_4MM
 10
78.2381013840063
 20
448.92668530832066
 30
0.0
 70
0
  0
VERTEX
  5
21E
  8
POCHE_KERF_4MM
 10
72.94121123445915
 20
446.10836049672935
 30
0.0
 70
0
  0
SEQEND
  5
21A
  8
POCHE_KERF_4MM
  0
POLYLINE
  5
21F
  8
POCHE_KERF_4MM
 66
1
 10
0.0
 20
0.0
 30
0.0
 70
1
  0
VERTEX
  5
221
  8
POCHE_KERF_4MM
 10
285.4895362149237
 20
27.771218571079334
 30
0.0
 70
0
  0
VERTEX
  5
222
  8
POCHE_KERF_4MM
 10
290.7492280748323
 20
30.658369682263373
 30
0.0
 70
0
  0
VERTEX
  5
223
  8
POCHE_KERF_4MM
 10
65.04340131599206
 20
441.83986106271664
 30
0.0
 70
0
  0
VERTEX
  5
224
  8
POCHE_KERF_4MM
 10
59.783709456083486
 20
438.9527099515326
 30
0.0
 70
0
  0
SEQEND
  5
220
  8
POCHE_KERF_4MM
  0
POLYLINE
  5
225
  8
POCHE_KERF_4MM
 66
1
 10
0.0
 20
0.0
 30
0.0
 70
1
  0
VERTEX
  5
227
  8
POCHE_KERF_4MM
 10
277.7686427534475
 20
23.422538216836056
 30
0.0
 70
0
  0
VERTEX
  5
228
  8
POCHE_KERF_4MM
 10
282.99024206327107
 20
26.37802474998919
 30
0.0
 70
0
  0
VERTEX
  5
229
  8
POCHE_KERF_4MM
 10
51.94222768816746
 20
434.5815942347099
 30
0.0
 70
0
  0
VERTEX
  5
22A
  8
POCHE_KERF_4MM
 10
46.720628378343804
 20
431.62610770155675
 30
0.0
 70
0
  0
SEQEND
  5
226
  8
POCHE_KERF_4MM
  0
POLYLINE
  5
22B
  8
POCHE_KERF_4MM
 66
1
 10
0.0
 20
0.0
 30
0.0
 70
1
  0
VERTEX
  5
22D
  8
POCHE_KERF_4MM
 10
270.1051078777606
 20
18.973555200912084
 30
0.0
 70
0
  0
VERTEX
  5
22E
  8
POCHE_KERF_4MM
 10
275.28772685360343
 20
21.996874659923048
 30
0.0
 70
0
  0
VERTEX
  5
22F
  8
POCHE_KERF_4MM
 10
38.93680798109433
 20
427.15311888536496
 30
0.0
 70
0
  0
VERTEX
  5
230
  8
POCHE_KERF_4MM
 10
33.75418900525149
 20
424.129799426354
 30
0.0
 70
0
  0
SEQEND
  5
22C
  8
POCHE_KERF_4MM
  0
POLYLINE
  5
231
  8
POCHE_KERF_4MM
 66
1
 10
0.0
 20
0.0
 30
0.0
 70
1
  0
VERTEX
  5
233
  8
POCHE_KERF_4MM
 10
262.5002345531895
 20
14.425025945859538
 30
0.0
 70
0
  0
VERTEX
  5
234
  8
POCHE_KERF_4MM
 10
267.64299203864874
 20
17.51566430156418
 30
0.0
 70
0
  0
VERTEX
  5
235
  8
POCHE_KERF_4MM
 10
26.029353395114295
 20
419.5556980148461
 30
0.0
 70
0
  0
VERTEX
  5
236
  8
POCHE_KERF_4MM
 10
20.886595909655053
 20
416.46505965914145
 30
0.0
 70
0
  0
SEQEND
  5
232
  8
POCHE_KERF_4MM
  0
POLYLINE
  5
237
  8
PIECE_5MM
 66
1
 10
0.0
 20
0.0
 30
0.0
 70
1
  0
VERTEX
  5
239
  8
PIECE_5MM
 10
18.0
 20
18.0
 30
0.0
 70
0
  0
VERTEX
  5
23A
  8
PIECE_5MM
 10
125.71174812307862
 20
18.0
 30
0.0
 70
0
  0
VERTEX
  5
23B
  8
PIECE_5MM
 10
125.71174812307862
 20
168.0
 30
0.0
 70
0
  0
VERTEX
  5
23C
  8
PIECE_5MM
 10
18.0
 20
168.0
 30
0.0
 70
0
  0
SEQEND
  5
238
  8
PIECE_5MM
  0
POLYLINE
  5
23D
  8
POCHE_KERF_4MM
 66
1
 10
0.0
 20
0.0
 30
0.0
 70
1
  0
VERTEX
  5
23F
  8
POCHE_KERF_4MM
 10
19.487989505128276
 20
12.0
 30
0.0
 70
0
  0
VERTEX
  5
240
  8
POCHE_KERF_4MM
 10
25.487989505128276
 20
12.0
 30
0.0
 70
0
  0
VERTEX
  5
241
  8
POCHE_KERF_4MM
 10
25.487989505128276
 20
174.0
 30
0.0
 70
0
  0
VERTEX
  5
242
  8
POCHE_KERF_4MM
 10
19.487989505128276
 20
174.0
 30
0.0
 70
0
  0
SEQEND
  5
23E
  8
POCHE_KERF_4MM
  0
POLYLINE
  5
243
  8
POCHE_KERF_4MM
 66
1
 10
0.0
 20
0.0
 30
0.0
 70
1
  0
VERTEX
  5
245
  8
POCHE_KERF_4MM
 10
28.463968515384828
 20
12.0
 30
0.0
 70
0
  0
VERTEX
  5
246
  8
POCHE_KERF_4MM
 10
34.46396851538483
 20
12.0
 30
0.0
 70
0
  0
VERTEX
  5
247
  8
POCHE_KERF_4MM
 10
34.46396851538483
 20
174.0
 30
0.0
 70
0
  0
VERTEX
  5
248
  8
POCHE_KERF_4MM
 10
28.463968515384828
 20
174.0
 30
0.0
 70
0
  0
SEQEND
  5
244
  8
POCHE_KERF_4MM
  0
POLYLINE
  5
249
  8
POCHE_KERF_4MM
 66
1
 10
0.0
 20
0.0
 30
0.0
 70
1
  0
VERTEX
  5
24B
  8
POCHE_KERF_4MM
 10
37.43994752564138
 20
12.0
 30
0.0
 70
0
  0
VERTEX
  5
24C
  8
POCHE_KERF_4MM
 10
43.43994752564138
 20
12.0
 30
0.0
 70
0
  0
VERTEX
  5
24D
  8
POCHE_KERF_4MM
 10
43.43994752564138
 20
174.0
 30
0.0
 70
0
  0
VERTEX
  5
24E
  8
POCHE_KERF_4MM
 10
37.43994752564138
 20
174.0
 30
0.0
 70
0
  0
SEQEND
  5
24A
  8
POCHE_KERF_4MM
  0
POLYLINE
  5
24F
  8
POCHE_KERF_4MM
 66
1
 10
0.0
 20
0.0
 30
0.0
 70
1
  0
VERTEX
  5
251
  8
POCHE_KERF_4MM
 10
46.41592653589793
 20
12.0
 30
0.0
 70
0
  0
VERTEX
  5
252
  8
POCHE_KERF_4MM
 10
52.41592653589793
 20
12.0
 30
0.0
 70
0
  0
VERTEX
  5
253
  8
POCHE_KERF_4MM
 10
52.41592653589793
 20
174.0
 30
0.0
 70
0
  0
VERTEX
  5
254
  8
POCHE_KERF_4MM
 10
46.41592653589793
 20
174.0
 30
0.0
 70
0
  0
SEQEND
  5
250
  8
POCHE_KERF_4MM
  0
POLYLINE
  5
255
  8
POCHE_KERF_4MM
 66
1
 10
0.0
 20
0.0
 30
0.0
 70
1
  0
VERTEX
  5
257
  8
POCHE_KERF_4MM
 10
55.39190554615448
 20
12.0
 30
0.0
 70
0
  0
VERTEX
  5
258
  8
POCHE_KERF_4MM
 10
61.39190554615448
 20
12.0
 30
0.0
 70
0
  0
VERTEX
  5
259
  8
POCHE_KERF_4MM
 10
61.39190554615448
 20
174.0
 30
0.0
 70
0
  0
VERTEX
  5
25A
  8
POCHE_KERF_4MM
 10
55.39190554615448
 20
174.0
 30
0.0
 70
0
  0
SEQEND
  5
256
  8
POCHE_KERF_4MM
  0
POLYLINE
  5
25B
  8
POCHE_KERF_4MM
 66
1
 10
0.0
 20
0.0
 30
0.0
 70
1
  0
VERTEX
  5
25D
  8
POCHE_KERF_4MM
 10
64.36788455641104
 20
12.0
 30
0.0
 70
0
  0
VERTEX
  5
25E
  8
POCHE_KERF_4MM
 10
70.36788455641104
 20
12.0
 30
0.0
 70
0
  0
VERTEX
  5
25F
  8
POCHE_KERF_4MM
 10
70.36788455641104
 20
174.0
 30
0.0
 70
0
  0
VERTEX
  5
260
  8
POCHE_KERF_4MM
 10
64.36788455641104
 20
174.0
 30
0.0
 70
0
  0
SEQEND
  5
25C
  8
POCHE_KERF_4MM
  0
POLYLINE
  5
261
  8
POCHE_KERF_4MM
 66
1
 10
0.0
 20
0.0
 30
0.0
 70
1
  0
VERTEX
  5
263
  8
POCHE_KERF_4MM
 10
73.34386356666758
 20
12.0
 30
0.0
 70
0
  0
VERTEX
  5
264
  8
POCHE_KERF_4MM
 10
79.34386356666758
 20
12.0
 30
0.0
 70
0
  0
VERTEX
  5
265
  8
POCHE_KERF_4MM
 10
79.34386356666758
 20
174.0
 30
0.0
 70
0
  0
VERTEX
  5
266
  8
POCHE_KERF_4MM
 10
73.34386356666758
 20
174.0
 30
0.0
 70
0
  0
SEQEND
  5
262
  8
POCHE_KERF_4MM
  0
POLYLINE
  5
267
  8
POCHE_KERF_4MM
 66
1
 10
0.0
 20
0.0
 30
0.0
 70
1
  0
VERTEX
  5
269
  8
POCHE_KERF_4MM
 10
82.31984257692415
 20
12.0
 30
0.0
 70
0
  0
VERTEX
  5
26A
  8
POCHE_KERF_4MM
 10
88.31984257692415
 20
12.0
 30
0.0
 70
0
  0
VERTEX
  5
26B
  8
POCHE_KERF_4MM
 10
88.31984257692415
 20
174.0
 30
0.0
 70
0
  0
VERTEX
  5
26C
  8
POCHE_KERF_4MM
 10
82.31984257692415
 20
174.0
 30
0.0
 70
0
  0
SEQEND
  5
268
  8
POCHE_KERF_4MM
  0
POLYLINE
  5
26D
  8
POCHE_KERF_4MM
 66
1
 10
0.0
 20
0.0
 30
0.0
 70
1
  0
VERTEX
  5
26F
  8
POCHE_KERF_4MM
 10
91.29582158718068
 20
12.0
 30
0.0
 70
0
  0
VERTEX
  5
270
  8
POCHE_KERF_4MM
 10
97.29582158718068
 20
12.0
 30
0.0
 70
0
  0
VERTEX
  5
271
  8
POCHE_KERF_4MM
 10
97.29582158718068
 20
174.0
 30
0.0
 70
0
  0
VERTEX
  5
272
  8
POCHE_KERF_4MM
 10
91.29582158718068
 20
174.0
 30
0.0
 70
0
  0
SEQEND
  5
26E
  8
POCHE_KERF_4MM
  0
POLYLINE
  5
273
  8
POCHE_KERF_4MM
 66
1
 10
0.0
 20
0.0
 30
0.0
 70
1
  0
VERTEX
  5
275
  8
POCHE_KERF_4MM
 10
100.27180059743725
 20
12.0
 30
0.0
 70
0
  0
VERTEX
  5
276
  8
POCHE_KERF_4MM
 10
106.27180059743725
 20
12.0
 30
0.0
 70
0
  0
VERTEX
  5
277
  8
POCHE_KERF_4MM
 10
106.27180059743725
 20
174.0
 30
0.0
 70
0
  0
VERTEX
  5
278
  8
POCHE_KERF_4MM
 10
100.27180059743725
 20
174.0
 30
0.0
 70
0
  0
SEQEND
  5
274
  8
POCHE_KERF_4MM
  0
POLYLINE
  5
279
  8
POCHE_KERF_4MM
 66
1
 10
0.0
 20
0.0
 30
0.0
 70
1
  0
VERTEX
  5
27B
  8
POCHE_KERF_4MM
 10
109.24777960769379
 20
12.0
 30
0.0
 70
0
  0
VERTEX
  5
27C
  8
POCHE_KERF_4MM
 10
115.24777960769379
 20
12.0
 30
0.0
 70
0
  0
VERTEX
  5
27D
  8
POCHE_KERF_4MM
 10
115.24777960769379
 20
174.0
 30
0.0
 70
0
  0
VERTEX
  5
27E
  8
POCHE_KERF_4MM
 10
109.24777960769379
 20
174.0
 30
0.0
 70
0
  0
SEQEND
  5
27A
  8
POCHE_KERF_4MM
  0
POLYLINE
  5
27F
  8
POCHE_KERF_4MM
 66
1
 10
0.0
 20
0.0
 30
0.0
 70
1
  0
VERTEX
  5
281
  8
POCHE_KERF_4MM
 10
118.22375861795035
 20
12.0
 30
0.0
 70
0
  0
VERTEX
  5
282
  8
POCHE_KERF_4MM
 10
124.22375861795035
 20
12.0
 30
0.0
 70
0
  0
VERTEX
  5
283
  8
POCHE_KERF_4MM
 10
124.22375861795035
 20
174.0
 30
0.0
 70
0
  0
VERTEX
  5
284
  8
POCHE_KERF_4MM
 10
118.22375861795035
 20
174.0
 30
0.0
 70
0
  0
SEQEND
  5
280
  8
POCHE_KERF_4MM
  0
POLYLINE
  5
285
  8
PLANCHE_18MM
 66
1
 10
0.0
 20
0.0
 30
0.0
 70
1
  0
VERTEX
  5
287
  8
PLANCHE_18MM
 10
0.0
 20
1520.0
 30
0.0
 70
0
  0
VERTEX
  5
288
  8
PLANCHE_18MM
 10
2440.0
 20
1520.0
 30
0.0
 70
0
  0
VERTEX
  5
289
  8
PLANCHE_18MM
 10
2440.0
 20
2740.0
 30
0.0
 70
0
  0
VERTEX
  5
28A
  8
PLANCHE_18MM
 10
0.0
 20
2740.0
 30
0.0
 70
0
  0
SEQEND
  5
286
  8
PLANCHE_18MM
  0
CIRCLE
  5
28B
  8
GABARIT_BAGUES_18MM
 10
263.5
 20
1783.5
 30
0.0
 40
245.5
  0
CIRCLE
  5
28C
  8
GABARIT_BAGUES_18MM
 10
263.5
 20
1783.5
 30
0.0
 40
200.5
  0
CIRCLE
  5
28D
  8
GABARIT_BAGUES_18MM
 10
243.0
 20
2271.0
 30
0.0
 40
225.0
  0
CIRCLE
  5
28E
  8
GABARIT_BAGUES_18MM
 10
243.0
 20
2271.0
 30
0.0
 40
180.0
  0
CIRCLE
  5
28F
  8
GABARIT_BAGUES_18MM
 10
615.0
 20
2515.0
 30
0.0
 40
205.0
  0
CIRCLE
  5
290
  8
GABARIT_BAGUES_18MM
 10
615.0
 20
2515.0
 30
0.0
 40
160.0
  0
CIRCLE
  5
291
  8
GABARIT_INTERIEUR_18MM
 10
621.221602274655
 20
2061.221602274655
 30
0.0
 40
191.2216022746549
  0
POLYLINE
  5
292
  8
GABARIT_INTERIEUR_18MM
 66
1
 10
0.0
 20
0.0
 30
0.0
 70
1
  0
VERTEX
  5
294
  8
GABARIT_INTERIEUR_18MM
 10
500.7341620829333
 20
2054.921602274655
 30
0.0
 42
0.41421356237309503
 70
0
  0
VERTEX
  5
295
  8
GABARIT_INTERIEUR_18MM
 10
497.53416208293356
 20
2051.721602274655
 30
0.0
 42
0.41421356237309503
 70
0
  0
VERTEX
  5
296
  8
GABARIT_INTERIEUR_18MM
 10
500.73416208293355
 20
2048.5216022746554
 30
0.0
 42
0.41421356237309503
 70
0
  0
VERTEX
  5
297
  8
GABARIT_INTERIEUR_18MM
 10
503.9341620829333
 20
2051.721602274655
 30
0.0
 70
0
  0
VERTEX
  5
298
  8
GABARIT_INTERIEUR_18MM
 10
538.5341620829333
 20
2051.721602274655
 30
0.0
 42
0.41421356237309503
 70
0
  0
VERTEX
  5
299
  8
GABARIT_INTERIEUR_18MM
 10
541.7341620829332
 20
2048.5216022746554
 30
0.0
 42
0.41421356237309503
 70
0
  0
VERTEX
  5
29A
  8
GABARIT_INTERIEUR_18MM
 10
544.934162082933
 20
2051.721602274655
 30
0.0
 42
0.41421356237309503
 70
0
  0
VERTEX
  5
29B
  8
GABARIT_INTERIEUR_18MM
 10
541.7341620829333
 20
2054.921602274655
 30
0.0
 70
0
  0
VERTEX
  5
29C
  8
GABARIT_INTERIEUR_18MM
 10
541.7341620829333
 20
2067.521602274655
 30
0.0
 42
0.41421356237309503
 70
0
  0
VERTEX
  5
29D
  8
GABARIT_INTERIEUR_18MM
 10
544.9341620829337
 20
2070.7216022746547
 30
0.0
 42
0.41421356237309503
 70
0
  0
VERTEX
  5
29E
  8
GABARIT_INTERIEUR_18MM
 10
541.7341620829337
 20
2073.9216022746555
 30
0.0
 42
0.41421356237309503
 70
0
  0
VERTEX
  5
29F
  8
GABARIT_INTERIEUR_18MM
 10
538.5341620829333
 20
2070.721602274655
 30
0.0
 70
0
  0
VERTEX
  5
2A0
  8
GABARIT_INTERIEUR_18MM
 10
503.9341620829333
 20
2070.721602274655
 30
0.0
 42
0.41421356237309503
 70
0
  0
VERTEX
  5
2A1
  8
GABARIT_INTERIEUR_18MM
 10
500.73416208293315
 20
2073.9216022746555
 30
0.0
 42
0.41421356237309503
 70
0
  0
VERTEX
  5
2A2
  8
GABARIT_INTERIEUR_18MM
 10
497.534162082933
 20
2070.721602274655
 30
0.0
 42
0.41421356237309503
 70
0
  0
VERTEX
  5
2A3
  8
GABARIT_INTERIEUR_18MM
 10
500.7341620829333
 20
2067.521602274655
 30
0.0
 70
0
  0
SEQEND
  5
293
  8
GABARIT_INTERIEUR_18MM
  0
POLYLINE
  5
2A4
  8
GABARIT_INTERIEUR_18MM
 66
1
 10
0.0
 20
0.0
 30
0.0
 70
1
  0
VERTEX
  5
2A6
  8
GABARIT_INTERIEUR_18MM
 10
700.7090424663766
 20
2054.921602274655
 30
0.0
 42
0.41421356237309503
 70
0
  0
VERTEX
  5
2A7
  8
GABARIT_INTERIEUR_18MM
 10
697.5090424663767
 20
2051.721602274655
 30
0.0
 42
0.41421356237309503
 70
0
  0
VERTEX
  5
2A8
  8
GABARIT_INTERIEUR_18MM
 10
700.7090424663768
 20
2048.5216022746554
 30
0.0
 42
0.41421356237309503
 70
0
  0
VERTEX
  5
2A9
  8
GABARIT_INTERIEUR_18MM
 10
703.9090424663765
 20
2051.721602274655
 30
0.0
 70
0
  0
VERTEX
  5
2AA
  8
GABARIT_INTERIEUR_18MM
 10
738.5090424663765
 20
2051.721602274655
 30
0.0
 42
0.41421356237309503
 70
0
  0
VERTEX
  5
2AB
  8
GABARIT_INTERIEUR_18MM
 10
741.7090424663764
 20
2048.5216022746554
 30
0.0
 42
0.41421356237309503
 70
0
  0
VERTEX
  5
2AC
  8
GABARIT_INTERIEUR_18MM
 10
744.9090424663764
 20
2051.721602274655
 30
0.0
 42
0.41421356237309503
 70
0
  0
VERTEX
  5
2AD
  8
GABARIT_INTERIEUR_18MM
 10
741.7090424663766
 20
2054.921602274655
 30
0.0
 70
0
  0
VERTEX
  5
2AE
  8
GABARIT_INTERIEUR_18MM
 10
741.7090424663766
 20
2067.521602274655
 30
0.0
 42
0.41421356237309503
 70
0
  0
VERTEX
  5
2AF
  8
GABARIT_INTERIEUR_18MM
 10
744.9090424663768
 20
2070.721602274655
 30
0.0
 42
0.41421356237309503
 70
0
  0
VERTEX
  5
2B0
  8
GABARIT_INTERIEUR_18MM
 10
741.7090424663768
 20
2073.9216022746555
 30
0.0
 42
0.41421356237309503
 70
0
  0
VERTEX
  5
2B1
  8
GABARIT_INTERIEUR_18MM
 10
738.5090424663765
 20
2070.721602274655
 30
0.0
 70
0
  0
VERTEX
  5
2B2
  8
GABARIT_INTERIEUR_18MM
 10
703.9090424663765
 20
2070.721602274655
 30
0.0
 42
0.41421356237309503
 70
0
  0
VERTEX
  5
2B3
  8
GABARIT_INTERIEUR_18MM
 10
700.7090424663763
 20
2073.9216022746555
 30
0.0
 42
0.41421356237309503
 70
0
  0
VERTEX
  5
2B4
  8
GABARIT_INTERIEUR_18MM
 10
697.5090424663763
 20
2070.721602274655
 30
0.0
 42
0.41421356237309503
 70
0
  0
VERTEX
  5
2B5
  8
GABARIT_INTERIEUR_18MM
 10
700.7090424663766
 20
2067.521602274655
 30
0.0
 70
0
  0
SEQEND
  5
2A5
  8
GABARIT_INTERIEUR_18MM
  0
POLYLINE
  5
2B6
  8
GABARIT_INTERIEUR_18MM
 66
1
 10
0.0
 20
0.0
 30
0.0
 70
1
  0
VERTEX
  5
2B8
  8
GABARIT_INTERIEUR_18MM
 10
627.5216022746549
 20
1940.7341620829334
 30
0.0
 42
0.41421356237309503
 70
0
  0
VERTEX
  5
2B9
  8
GABARIT_INTERIEUR_18MM
 10
630.7216022746549
 20
1937.5341620829336
 30
0.0
 42
0.41421356237309503
 70
0
  0
VERTEX
  5
2BA
  8
GABARIT_INTERIEUR_18MM
 10
633.9216022746548
 20
1940.7341620829334
 30
0.0
 42
0.41421356237309503
 70
0
  0
VERTEX
  5
2BB
  8
GABARIT_INTERIEUR_18MM
 10
630.721602274655
 20
1943.9341620829332
 30
0.0
 70
0
  0
VERTEX
  5
2BC
  8
GABARIT_INTERIEUR_18MM
 10
630.721602274655
 20
1978.5341620829333
 30
0.0
 42
0.41421356237309503
 70
0
  0
VERTEX
  5
2BD
  8
GABARIT_INTERIEUR_18MM
 10
633.921602274655
 20
1981.7341620829334
 30
0.0
 42
0.41421356237309503
 70
0
  0
VERTEX
  5
2BE
  8
GABARIT_INTERIEUR_18MM
 10
630.721602274655
 20
1984.9341620829334
 30
0.0
 42
0.41421356237309503
 70
0
  0
VERTEX
  5
2BF
  8
GABARIT_INTERIEUR_18MM
 10
627.5216022746549
 20
1981.7341620829334
 30
0.0
 70
0
  0
VERTEX
  5
2C0
  8
GABARIT_INTERIEUR_18MM
 10
614.9216022746549
 20
1981.7341620829334
 30
0.0
 42
0.41421356237309503
 70
0
  0
VERTEX
  5
2C1
  8
GABARIT_INTERIEUR_18MM
 10
611.721602274655
 20
1984.9341620829334
 30
0.0
 42
0.41421356237309503
 70
0
  0
VERTEX
  5
2C2
  8
GABARIT_INTERIEUR_18MM
 10
608.5216022746549
 20
1981.7341620829334
 30
0.0
 42
0.41421356237309503
 70
0
  0
VERTEX
  5
2C3
  8
GABARIT_INTERIEUR_18MM
 10
611.721602274655
 20
1978.5341620829333
 30
0.0
 70
0
  0
VERTEX
  5
2C4
  8
GABARIT_INTERIEUR_18MM
 10
611.721602274655
 20
1943.9341620829332
 30
0.0
 42
0.41421356237309503
 70
0
  0
VERTEX
  5
2C5
  8
GABARIT_INTERIEUR_18MM
 10
608.5216022746552
 20
1940.7341620829334
 30
0.0
 42
0.41421356237309503
 70
0
  0
VERTEX
  5
2C6
  8
GABARIT_INTERIEUR_18MM
 10
611.7216022746552
 20
1937.5341620829336
 30
0.0
 42
0.41421356237309503
 70
0
  0
VERTEX
  5
2C7
  8
GABARIT_INTERIEUR_18MM
 10
614.9216022746549
 20
1940.7341620829334
 30
0.0
 70
0
  0
SEQEND
  5
2B7
  8
GABARIT_INTERIEUR_18MM
  0
POLYLINE
  5
2C8
  8
GABARIT_INTERIEUR_18MM
 66
1
 10
0.0
 20
0.0
 30
0.0
 70
1
  0
VERTEX
  5
2CA
  8
GABARIT_INTERIEUR_18MM
 10
627.5216022746549
 20
2140.7090424663766
 30
0.0
 42
0.41421356237309503
 70
0
  0
VERTEX
  5
2CB
  8
GABARIT_INTERIEUR_18MM
 10
630.7216022746549
 20
2137.5090424663767
 30
0.0
 42
0.41421356237309503
 70
0
  0
VERTEX
  5
2CC
  8
GABARIT_INTERIEUR_18MM
 10
633.9216022746548
 20
2140.7090424663766
 30
0.0
 42
0.41421356237309503
 70
0
  0
VERTEX
  5
2CD
  8
GABARIT_INTERIEUR_18MM
 10
630.721602274655
 20
2143.9090424663764
 30
0.0
 70
0
  0
VERTEX
  5
2CE
  8
GABARIT_INTERIEUR_18MM
 10
630.721602274655
 20
2178.5090424663767
 30
0.0
 42
0.41421356237309503
 70
0
  0
VERTEX
  5
2CF
  8
GABARIT_INTERIEUR_18MM
 10
633.9216022746548
 20
2181.7090424663766
 30
0.0
 42
0.41421356237309503
 70
0
  0
VERTEX
  5
2D0
  8
GABARIT_INTERIEUR_18MM
 10
630.7216022746547
 20
2184.9090424663764
 30
0.0
 42
0.41421356237309503
 70
0
  0
VERTEX
  5
2D1
  8
GABARIT_INTERIEUR_18MM
 10
627.5216022746549
 20
2181.7090424663766
 30
0.0
 70
0
  0
VERTEX
  5
2D2
  8
GABARIT_INTERIEUR_18MM
 10
614.9216022746549
 20
2181.7090424663766
 30
0.0
 42
0.41421356237309503
 70
0
  0
VERTEX
  5
2D3
  8
GABARIT_INTERIEUR_18MM
 10
611.721602274655
 20
2184.9090424663764
 30
0.0
 42
0.41421356237309503
 70
0
  0
VERTEX
  5
2D4
  8
GABARIT_INTERIEUR_18MM
 10
608.5216022746552
 20
2181.7090424663766
 30
0.0
 42
0.41421356237309503
 70
0
  0
VERTEX
  5
2D5
  8
GABARIT_INTERIEUR_18MM
 10
611.721602274655
 20
2178.5090424663767
 30
0.0
 70
0
  0
VERTEX
  5
2D6
  8
GABARIT_INTERIEUR_18MM
 10
611.721602274655
 20
2143.9090424663764
 30
0.0
 42
0.41421356237309503
 70
0
  0
VERTEX
  5
2D7
  8
GABARIT_INTERIEUR_18MM
 10
608.5216022746552
 20
2140.7090424663766
 30
0.0
 42
0.41421356237309503
 70
0
  0
VERTEX
  5
2D8
  8
GABARIT_INTERIEUR_18MM
 10
611.7216022746552
 20
2137.5090424663767
 30
0.0
 42
0.41421356237309503
 70
0
  0
VERTEX
  5
2D9
  8
GABARIT_INTERIEUR_18MM
 10
614.9216022746549
 20
2140.7090424663766
 30
0.0
 70
0
  0
SEQEND
  5
2C9
  8
GABARIT_INTERIEUR_18MM
  0
CIRCLE
  5
2DA
  8
GABARIT_BAGUES_18MM
 10
819.0
 20
1723.0
 30
0.0
 40
185.0
  0
CIRCLE
  5
2DB
  8
GABARIT_BAGUES_18MM
 10
819.0
 20
1723.0
 30
0.0
 40
140.0
  0
CIRCLE
  5
2DC
  8
GABARIT_INTERIEUR_18MM
 10
236.4216022746549
 20
1772.421602274655
 30
0.0
 40
154.4216022746549
  0
POLYLINE
  5
2DD
  8
GABARIT_INTERIEUR_18MM
 66
1
 10
0.0
 20
0.0
 30
0.0
 70
1
  0
VERTEX
  5
2DF
  8
GABARIT_INTERIEUR_18MM
 10
134.36526777968567
 20
1766.1216022746548
 30
0.0
 42
0.41421356237309503
 70
0
  0
VERTEX
  5
2E0
  8
GABARIT_INTERIEUR_18MM
 10
131.16526777968585
 20
1762.921602274655
 30
0.0
 42
0.41421356237309503
 70
0
  0
VERTEX
  5
2E1
  8
GABARIT_INTERIEUR_18MM
 10
134.36526777968584
 20
1759.7216022746552
 30
0.0
 42
0.41421356237309503
 70
0
  0
VERTEX
  5
2E2
  8
GABARIT_INTERIEUR_18MM
 10
137.56526777968566
 20
1762.921602274655
 30
0.0
 70
0
  0
VERTEX
  5
2E3
  8
GABARIT_INTERIEUR_18MM
 10
172.16526777968565
 20
1762.921602274655
 30
0.0
 42
0.41421356237309503
 70
0
  0
VERTEX
  5
2E4
  8
GABARIT_INTERIEUR_18MM
 10
175.36526777968558
 20
1759.7216022746552
 30
0.0
 42
0.41421356237309503
 70
0
  0
VERTEX
  5
2E5
  8
GABARIT_INTERIEUR_18MM
 10
178.5652677796855
 20
1762.921602274655
 30
0.0
 42
0.41421356237309503
 70
0
  0
VERTEX
  5
2E6
  8
GABARIT_INTERIEUR_18MM
 10
175.36526777968567
 20
1766.1216022746548
 30
0.0
 70
0
  0
VERTEX
  5
2E7
  8
GABARIT_INTERIEUR_18MM
 10
175.36526777968567
 20
1778.721602274655
 30
0.0
 42
0.41421356237309503
 70
0
  0
VERTEX
  5
2E8
  8
GABARIT_INTERIEUR_18MM
 10
178.56526777968574
 20
1781.921602274655
 30
0.0
 42
0.41421356237309503
 70
0
  0
VERTEX
  5
2E9
  8
GABARIT_INTERIEUR_18MM
 10
175.36526777968572
 20
1785.121602274655
 30
0.0
 42
0.41421356237309503
 70
0
  0
VERTEX
  5
2EA
  8
GABARIT_INTERIEUR_18MM
 10
172.16526777968565
 20
1781.921602274655
 30
0.0
 70
0
  0
VERTEX
  5
2EB
  8
GABARIT_INTERIEUR_18MM
 10
137.56526777968566
 20
1781.921602274655
 30
0.0
 42
0.41421356237309503
 70
0
  0
VERTEX
  5
2EC
  8
GABARIT_INTERIEUR_18MM
 10
134.36526777968564
 20
1785.121602274655
 30
0.0
 42
0.41421356237309503
 70
0
  0
VERTEX
  5
2ED
  8
GABARIT_INTERIEUR_18MM
 10
131.16526777968562
 20
1781.921602274655
 30
0.0
 42
0.41421356237309503
 70
0
  0
VERTEX
  5
2EE
  8
GABARIT_INTERIEUR_18MM
 10
134.36526777968567
 20
1778.721602274655
 30
0.0
 70
0
  0
SEQEND
  5
2DE
  8
GABARIT_INTERIEUR_18MM
  0
POLYLINE
  5
2EF
  8
GABARIT_INTERIEUR_18MM
 66
1
 10
0.0
 20
0.0
 30
0.0
 70
1
  0
VERTEX
  5
2F1
  8
GABARIT_INTERIEUR_18MM
 10
297.47793676962414
 20
1766.1216022746548
 30
0.0
 42
0.41421356237309503
 70
0
  0
VERTEX
  5
2F2
  8
GABARIT_INTERIEUR_18MM
 10
294.2779367696244
 20
1762.921602274655
 30
0.0
 42
0.41421356237309503
 70
0
  0
VERTEX
  5
2F3
  8
GABARIT_INTERIEUR_18MM
 10
297.47793676962436
 20
1759.7216022746552
 30
0.0
 42
0.41421356237309503
 70
0
  0
VERTEX
  5
2F4
  8
GABARIT_INTERIEUR_18MM
 10
300.6779367696241
 20
1762.921602274655
 30
0.0
 70
0
  0
VERTEX
  5
2F5
  8
GABARIT_INTERIEUR_18MM
 10
335.27793676962415
 20
1762.921602274655
 30
0.0
 42
0.41421356237309503
 70
0
  0
VERTEX
  5
2F6
  8
GABARIT_INTERIEUR_18MM
 10
338.4779367696241
 20
1759.7216022746552
 30
0.0
 42
0.41421356237309503
 70
0
  0
VERTEX
  5
2F7
  8
GABARIT_INTERIEUR_18MM
 10
341.677936769624
 20
1762.921602274655
 30
0.0
 42
0.41421356237309503
 70
0
  0
VERTEX
  5
2F8
  8
GABARIT_INTERIEUR_18MM
 10
338.47793676962414
 20
1766.1216022746548
 30
0.0
 70
0
  0
VERTEX
  5
2F9
  8
GABARIT_INTERIEUR_18MM
 10
338.47793676962414
 20
1778.721602274655
 30
0.0
 42
0.41421356237309503
 70
0
  0
VERTEX
  5
2FA
  8
GABARIT_INTERIEUR_18MM
 10
341.67793676962424
 20
1781.921602274655
 30
0.0
 42
0.41421356237309503
 70
0
  0
VERTEX
  5
2FB
  8
GABARIT_INTERIEUR_18MM
 10
338.47793676962425
 20
1785.121602274655
 30
0.0
 42
0.41421356237309503
 70
0
  0
VERTEX
  5
2FC
  8
GABARIT_INTERIEUR_18MM
 10
335.27793676962415
 20
1781.921602274655
 30
0.0
 70
0
  0
VERTEX
  5
2FD
  8
GABARIT_INTERIEUR_18MM
 10
300.6779367696241
 20
1781.921602274655
 30
0.0
 42
0.41421356237309503
 70
0
  0
VERTEX
  5
2FE
  8
GABARIT_INTERIEUR_18MM
 10
297.4779367696241
 20
1785.121602274655
 30
0.0
 42
0.41421356237309503
 70
0
  0
VERTEX
  5
2FF
  8
GABARIT_INTERIEUR_18MM
 10
294.27793676962403
 20
1781.921602274655
 30
0.0
 42
0.41421356237309503
 70
0
  0
VERTEX
  5
300
  8
GABARIT_INTERIEUR_18MM
 10
297.47793676962414
 20
1778.721602274655
 30
0.0
 70
0
  0
SEQEND
  5
2F0
  8
GABARIT_INTERIEUR_18MM
  0
POLYLINE
  5
301
  8
GABARIT_INTERIEUR_18MM
 66
1
 10
0.0
 20
0.0
 30
0.0
 70
1
  0
VERTEX
  5
303
  8
GABARIT_INTERIEUR_18MM
 10
242.72160227465488
 20
1670.3652677796856
 30
0.0
 42
0.41421356237309503
 70
0
  0
VERTEX
  5
304
  8
GABARIT_INTERIEUR_18MM
 10
245.92160227465493
 20
1667.1652677796856
 30
0.0
 42
0.41421356237309503
 70
0
  0
VERTEX
  5
305
  8
GABARIT_INTERIEUR_18MM
 10
249.12160227465498
 20
1670.3652677796856
 30
0.0
 42
0.41421356237309503
 70
0
  0
VERTEX
  5
306
  8
GABARIT_INTERIEUR_18MM
 10
245.9216022746549
 20
1673.5652677796857
 30
0.0
 70
0
  0
VERTEX
  5
307
  8
GABARIT_INTERIEUR_18MM
 10
245.9216022746549
 20
1708.1652677796856
 30
0.0
 42
0.41421356237309503
 70
0
  0
VERTEX
  5
308
  8
GABARIT_INTERIEUR_18MM
 10
249.12160227465498
 20
1711.3652677796856
 30
0.0
 42
0.41421356237309503
 70
0
  0
VERTEX
  5
309
  8
GABARIT_INTERIEUR_18MM
 10
245.92160227465496
 20
1714.5652677796857
 30
0.0
 42
0.41421356237309503
 70
0
  0
VERTEX
  5
30A
  8
GABARIT_INTERIEUR_18MM
 10
242.72160227465488
 20
1711.3652677796856
 30
0.0
 70
0
  0
VERTEX
  5
30B
  8
GABARIT_INTERIEUR_18MM
 10
230.1216022746549
 20
1711.3652677796856
 30
0.0
 42
0.41421356237309503
 70
0
  0
VERTEX
  5
30C
  8
GABARIT_INTERIEUR_18MM
 10
226.92160227465487
 20
1714.5652677796857
 30
0.0
 42
0.41421356237309503
 70
0
  0
VERTEX
  5
30D
  8
GABARIT_INTERIEUR_18MM
 10
223.72160227465486
 20
1711.3652677796856
 30
0.0
 42
0.41421356237309503
 70
0
  0
VERTEX
  5
30E
  8
GABARIT_INTERIEUR_18MM
 10
226.9216022746549
 20
1708.1652677796856
 30
0.0
 70
0
  0
VERTEX
  5
30F
  8
GABARIT_INTERIEUR_18MM
 10
226.9216022746549
 20
1673.5652677796857
 30
0.0
 42
0.41421356237309503
 70
0
  0
VERTEX
  5
310
  8
GABARIT_INTERIEUR_18MM
 10
223.72160227465486
 20
1670.3652677796856
 30
0.0
 42
0.41421356237309503
 70
0
  0
VERTEX
  5
311
  8
GABARIT_INTERIEUR_18MM
 10
226.92160227465484
 20
1667.1652677796856
 30
0.0
 42
0.41421356237309503
 70
0
  0
VERTEX
  5
312
  8
GABARIT_INTERIEUR_18MM
 10
230.1216022746549
 20
1670.3652677796856
 30
0.0
 70
0
  0
SEQEND
  5
302
  8
GABARIT_INTERIEUR_18MM
  0
POLYLINE
  5
313
  8
GABARIT_INTERIEUR_18MM
 66
1
 10
0.0
 20
0.0
 30
0.0
 70
1
  0
VERTEX
  5
315
  8
GABARIT_INTERIEUR_18MM
 10
242.7216022746549
 20
1833.4779367696242
 30
0.0
 42
0.41421356237309503
 70
0
  0
VERTEX
  5
316
  8
GABARIT_INTERIEUR_18MM
 10
245.92160227465482
 20
1830.2779367696244
 30
0.0
 42
0.41421356237309503
 70
0
  0
VERTEX
  5
317
  8
GABARIT_INTERIEUR_18MM
 10
249.12160227465472
 20
1833.4779367696242
 30
0.0
 42
0.41421356237309503
 70
0
  0
VERTEX
  5
318
  8
GABARIT_INTERIEUR_18MM
 10
245.9216022746549
 20
1836.677936769624
 30
0.0
 70
0
  0
VERTEX
  5
319
  8
GABARIT_INTERIEUR_18MM
 10
245.9216022746549
 20
1871.2779367696241
 30
0.0
 42
0.41421356237309503
 70
0
  0
VERTEX
  5
31A
  8
GABARIT_INTERIEUR_18MM
 10
249.12160227465495
 20
1874.4779367696242
 30
0.0
 42
0.41421356237309503
 70
0
  0
VERTEX
  5
31B
  8
GABARIT_INTERIEUR_18MM
 10
245.92160227465496
 20
1877.6779367696242
 30
0.0
 42
0.41421356237309503
 70
0
  0
VERTEX
  5
31C
  8
GABARIT_INTERIEUR_18MM
 10
242.7216022746549
 20
1874.4779367696242
 30
0.0
 70
0
  0
VERTEX
  5
31D
  8
GABARIT_INTERIEUR_18MM
 10
230.12160227465492
 20
1874.4779367696242
 30
0.0
 42
0.41421356237309503
 70
0
  0
VERTEX
  5
31E
  8
GABARIT_INTERIEUR_18MM
 10
226.92160227465487
 20
1877.6779367696242
 30
0.0
 42
0.41421356237309503
 70
0
  0
VERTEX
  5
31F
  8
GABARIT_INTERIEUR_18MM
 10
223.72160227465483
 20
1874.4779367696242
 30
0.0
 42
0.41421356237309503
 70
0
  0
VERTEX
  5
320
  8
GABARIT_INTERIEUR_18MM
 10
226.9216022746549
 20
1871.2779367696241
 30
0.0
 70
0
  0
VERTEX
  5
321
  8
GABARIT_INTERIEUR_18MM
 10
226.9216022746549
 20
1836.677936769624
 30
0.0
 42
0.41421356237309503
 70
0
  0
VERTEX
  5
322
  8
GABARIT_INTERIEUR_18MM
 10
223.72160227465508
 20
1833.4779367696242
 30
0.0
 42
0.41421356237309503
 70
0
  0
VERTEX
  5
323
  8
GABARIT_INTERIEUR_18MM
 10
226.92160227465513
 20
1830.2779367696244
 30
0.0
 42
0.41421356237309503
 70
0
  0
VERTEX
  5
324
  8
GABARIT_INTERIEUR_18MM
 10
230.12160227465492
 20
1833.4779367696242
 30
0.0
 70
0
  0
SEQEND
  5
314
  8
GABARIT_INTERIEUR_18MM
  0
CIRCLE
  5
325
  8
GABARIT_INTERIEUR_18MM
 10
233.2216022746549
 20
2265.221602274655
 30
0.0
 40
151.2216022746549
  0
POLYLINE
  5
326
  8
GABARIT_INTERIEUR_18MM
 66
1
 10
0.0
 20
0.0
 30
0.0
 70
1
  0
VERTEX
  5
328
  8
GABARIT_INTERIEUR_18MM
 10
166.64546882464506
 20
2189.7359233816946
 30
0.0
 42
0.41421356237309503
 70
0
  0
VERTEX
  5
329
  8
GABARIT_INTERIEUR_18MM
 10
166.645468824645
 20
2185.2104399821005
 30
0.0
 42
0.41421356237309503
 70
0
  0
VERTEX
  5
32A
  8
GABARIT_INTERIEUR_18MM
 10
171.1709522242389
 20
2185.2104399821005
 30
0.0
 42
0.41421356237309503
 70
0
  0
VERTEX
  5
32B
  8
GABARIT_INTERIEUR_18MM
 10
171.17095222423896
 20
2189.7359233816946
 30
0.0
 70
0
  0
VERTEX
  5
32C
  8
GABARIT_INTERIEUR_18MM
 10
195.63684685329352
 20
2214.201818010749
 30
0.0
 42
0.41421356237309503
 70
0
  0
VERTEX
  5
32D
  8
GABARIT_INTERIEUR_18MM
 10
200.16233025288764
 20
2214.201818010749
 30
0.0
 42
0.41421356237309503
 70
0
  0
VERTEX
  5
32E
  8
GABARIT_INTERIEUR_18MM
 10
200.16233025288764
 20
2218.727301410343
 30
0.0
 42
0.41421356237309503
 70
0
  0
VERTEX
  5
32F
  8
GABARIT_INTERIEUR_18MM
 10
195.63684685329352
 20
2218.727301410343
 30
0.0
 70
0
  0
VERTEX
  5
330
  8
GABARIT_INTERIEUR_18MM
 10
186.72730141034302
 20
2227.6368468532937
 30
0.0
 42
0.41421356237309503
 70
0
  0
VERTEX
  5
331
  8
GABARIT_INTERIEUR_18MM
 10
186.72730141034307
 20
2232.162330252888
 30
0.0
 42
0.41421356237309503
 70
0
  0
VERTEX
  5
332
  8
GABARIT_INTERIEUR_18MM
 10
182.20181801074918
 20
2232.162330252888
 30
0.0
 42
0.41421356237309503
 70
0
  0
VERTEX
  5
333
  8
GABARIT_INTERIEUR_18MM
 10
182.20181801074912
 20
2227.6368468532937
 30
0.0
 70
0
  0
VERTEX
  5
334
  8
GABARIT_INTERIEUR_18MM
 10
157.73592338169456
 20
2203.170952224239
 30
0.0
 42
0.41421356237309503
 70
0
  0
VERTEX
  5
335
  8
GABARIT_INTERIEUR_18MM
 10
153.21043998210044
 20
2203.170952224239
 30
0.0
 42
0.41421356237309503
 70
0
  0
VERTEX
  5
336
  8
GABARIT_INTERIEUR_18MM
 10
153.21043998210044
 20
2198.645468824645
 30
0.0
 42
0.41421356237309503
 70
0
  0
VERTEX
  5
337
  8
GABARIT_INTERIEUR_18MM
 10
157.73592338169456
 20
2198.645468824645
 30
0.0
 70
0
  0
SEQEND
  5
327
  8
GABARIT_INTERIEUR_18MM
  0
POLYLINE
  5
338
  8
GABARIT_INTERIEUR_18MM
 66
1
 10
0.0
 20
0.0
 30
0.0
 70
1
  0
VERTEX
  5
33A
  8
GABARIT_INTERIEUR_18MM
 10
279.71590313896684
 20
2302.806357696016
 30
0.0
 42
0.41421356237309503
 70
0
  0
VERTEX
  5
33B
  8
GABARIT_INTERIEUR_18MM
 10
279.7159031389668
 20
2298.280874296422
 30
0.0
 42
0.41421356237309503
 70
0
  0
VERTEX
  5
33C
  8
GABARIT_INTERIEUR_18MM
 10
284.2413865385607
 20
2298.280874296422
 30
0.0
 42
0.41421356237309503
 70
0
  0
VERTEX
  5
33D
  8
GABARIT_INTERIEUR_18MM
 10
284.24138653856073
 20
2302.806357696016
 30
0.0
 70
0
  0
VERTEX
  5
33E
  8
GABARIT_INTERIEUR_18MM
 10
308.7072811676153
 20
2327.272252325071
 30
0.0
 42
0.41421356237309503
 70
0
  0
VERTEX
  5
33F
  8
GABARIT_INTERIEUR_18MM
 10
313.23276456720885
 20
2327.2722523250704
 30
0.0
 42
0.41421356237309503
 70
0
  0
VERTEX
  5
340
  8
GABARIT_INTERIEUR_18MM
 10
313.2327645672091
 20
2331.797735724664
 30
0.0
 42
0.41421356237309503
 70
0
  0
VERTEX
  5
341
  8
GABARIT_INTERIEUR_18MM
 10
308.7072811676153
 20
2331.7977357246646
 30
0.0
 70
0
  0
VERTEX
  5
342
  8
GABARIT_INTERIEUR_18MM
 10
299.7977357246648
 20
2340.7072811676153
 30
0.0
 42
0.41421356237309503
 70
0
  0
VERTEX
  5
343
  8
GABARIT_INTERIEUR_18MM
 10
299.79773572466485
 20
2345.2327645672094
 30
0.0
 42
0.41421356237309503
 70
0
  0
VERTEX
  5
344
  8
GABARIT_INTERIEUR_18MM
 10
295.27225232507095
 20
2345.2327645672094
 30
0.0
 42
0.41421356237309503
 70
0
  0
VERTEX
  5
345
  8
GABARIT_INTERIEUR_18MM
 10
295.2722523250709
 20
2340.7072811676153
 30
0.0
 70
0
  0
VERTEX
  5
346
  8
GABARIT_INTERIEUR_18MM
 10
270.80635769601633
 20
2316.2413865385606
 30
0.0
 42
0.41421356237309503
 70
0
  0
VERTEX
  5
347
  8
GABARIT_INTERIEUR_18MM
 10
266.2808742964228
 20
2316.241386538561
 30
0.0
 42
0.41421356237309503
 70
0
  0
VERTEX
  5
348
  8
GABARIT_INTERIEUR_18MM
 10
266.28087429642255
 20
2311.7159031389674
 30
0.0
 42
0.41421356237309503
 70
0
  0
VERTEX
  5
349
  8
GABARIT_INTERIEUR_18MM
 10
270.80635769601633
 20
2311.715903138967
 30
0.0
 70
0
  0
SEQEND
  5
339
  8
GABARIT_INTERIEUR_18MM
  0
POLYLINE
  5
34A
  8
GABARIT_INTERIEUR_18MM
 66
1
 10
0.0
 20
0.0
 30
0.0
 70
1
  0
VERTEX
  5
34C
  8
GABARIT_INTERIEUR_18MM
 10
308.70728116761524
 20
2198.645468824645
 30
0.0
 42
0.41421356237309503
 70
0
  0
VERTEX
  5
34D
  8
GABARIT_INTERIEUR_18MM
 10
313.23276456720936
 20
2198.645468824645
 30
0.0
 42
0.41421356237309503
 70
0
  0
VERTEX
  5
34E
  8
GABARIT_INTERIEUR_18MM
 10
313.23276456720936
 20
2203.170952224239
 30
0.0
 42
0.41421356237309503
 70
0
  0
VERTEX
  5
34F
  8
GABARIT_INTERIEUR_18MM
 10
308.70728116761524
 20
2203.170952224239
 30
0.0
 70
0
  0
VERTEX
  5
350
  8
GABARIT_INTERIEUR_18MM
 10
284.24138653856073
 20
2227.6368468532937
 30
0.0
 42
0.41421356237309503
 70
0
  0
VERTEX
  5
351
  8
GABARIT_INTERIEUR_18MM
 10
284.2413865385608
 20
2232.162330252888
 30
0.0
 42
0.41421356237309503
 70
0
  0
VERTEX
  5
352
  8
GABARIT_INTERIEUR_18MM
 10
279.7159031389669
 20
2232.162330252888
 30
0.0
 42
0.41421356237309503
 70
0
  0
VERTEX
  5
353
  8
GABARIT_INTERIEUR_18MM
 10
279.71590313896684
 20
2227.6368468532937
 30
0.0
 70
0
  0
VERTEX
  5
354
  8
GABARIT_INTERIEUR_18MM
 10
270.80635769601633
 20
2218.727301410343
 30
0.0
 42
0.41421356237309503
 70
0
  0
VERTEX
  5
355
  8
GABARIT_INTERIEUR_18MM
 10
266.2808742964222
 20
2218.727301410343
 30
0.0
 42
0.41421356237309503
 70
0
  0
VERTEX
  5
356
  8
GABARIT_INTERIEUR_18MM
 10
266.2808742964222
 20
2214.201818010749
 30
0.0
 42
0.41421356237309503
 70
0
  0
VERTEX
  5
357
  8
GABARIT_INTERIEUR_18MM
 10
270.80635769601633
 20
2214.201818010749
 30
0.0
 70
0
  0
VERTEX
  5
358
  8
GABARIT_INTERIEUR_18MM
 10
295.27225232507084
 20
2189.7359233816946
 30
0.0
 42
0.41421356237309503
 70
0
  0
VERTEX
  5
359
  8
GABARIT_INTERIEUR_18MM
 10
295.2722523250708
 20
2185.2104399821005
 30
0.0
 42
0.41421356237309503
 70
0
  0
VERTEX
  5
35A
  8
GABARIT_INTERIEUR_18MM
 10
299.7977357246647
 20
2185.2104399821005
 30
0.0
 42
0.41421356237309503
 70
0
  0
VERTEX
  5
35B
  8
GABARIT_INTERIEUR_18MM
 10
299.79773572466473
 20
2189.7359233816946
 30
0.0
 70
0
  0
SEQEND
  5
34B
  8
GABARIT_INTERIEUR_18MM
  0
POLYLINE
  5
35C
  8
GABARIT_INTERIEUR_18MM
 66
1
 10
0.0
 20
0.0
 30
0.0
 70
1
  0
VERTEX
  5
35E
  8
GABARIT_INTERIEUR_18MM
 10
195.63684685329352
 20
2311.715903138967
 30
0.0
 42
0.41421356237309503
 70
0
  0
VERTEX
  5
35F
  8
GABARIT_INTERIEUR_18MM
 10
200.16233025288707
 20
2311.7159031389665
 30
0.0
 42
0.41421356237309503
 70
0
  0
VERTEX
  5
360
  8
GABARIT_INTERIEUR_18MM
 10
200.1623302528873
 20
2316.24138653856
 30
0.0
 42
0.41421356237309503
 70
0
  0
VERTEX
  5
361
  8
GABARIT_INTERIEUR_18MM
 10
195.63684685329352
 20
2316.2413865385606
 30
0.0
 70
0
  0
VERTEX
  5
362
  8
GABARIT_INTERIEUR_18MM
 10
171.170952224239
 20
2340.7072811676153
 30
0.0
 42
0.41421356237309503
 70
0
  0
VERTEX
  5
363
  8
GABARIT_INTERIEUR_18MM
 10
171.17095222423904
 20
2345.2327645672094
 30
0.0
 42
0.41421356237309503
 70
0
  0
VERTEX
  5
364
  8
GABARIT_INTERIEUR_18MM
 10
166.64546882464515
 20
2345.2327645672094
 30
0.0
 42
0.41421356237309503
 70
0
  0
VERTEX
  5
365
  8
GABARIT_INTERIEUR_18MM
 10
166.6454688246451
 20
2340.7072811676153
 30
0.0
 70
0
  0
VERTEX
  5
366
  8
GABARIT_INTERIEUR_18MM
 10
157.7359233816946
 20
2331.7977357246646
 30
0.0
 42
0.41421356237309503
 70
0
  0
VERTEX
  5
367
  8
GABARIT_INTERIEUR_18MM
 10
153.21043998210104
 20
2331.797735724665
 30
0.0
 42
0.41421356237309503
 70
0
  0
VERTEX
  5
368
  8
GABARIT_INTERIEUR_18MM
 10
153.2104399821008
 20
2327.2722523250713
 30
0.0
 42
0.41421356237309503
 70
0
  0
VERTEX
  5
369
  8
GABARIT_INTERIEUR_18MM
 10
157.7359233816946
 20
2327.272252325071
 30
0.0
 70
0
  0
VERTEX
  5
36A
  8
GABARIT_INTERIEUR_18MM
 10
182.20181801074912
 20
2302.806357696016
 30
0.0
 42
0.41421356237309503
 70
0
  0
VERTEX
  5
36B
  8
GABARIT_INTERIEUR_18MM
 10
182.20181801074907
 20
2298.280874296422
 30
0.0
 42
0.41421356237309503
 70
0
  0
VERTEX
  5
36C
  8
GABARIT_INTERIEUR_18MM
 10
186.72730141034296
 20
2298.280874296422
 30
0.0
 42
0.41421356237309503
 70
0
  0
VERTEX
  5
36D
  8
GABARIT_INTERIEUR_18MM
 10
186.72730141034302
 20
2302.806357696016
 30
0.0
 70
0
  0
SEQEND
  5
35D
  8
GABARIT_INTERIEUR_18MM
  0
POLYLINE
  5
36E
  8
GABARIT_INTERIEUR_18MM
 66
1
 10
0.0
 20
0.0
 30
0.0
 70
1
  0
VERTEX
  5
370
  8
GABARIT_INTERIEUR_18MM
 10
1147.44320454931
 20
2353.0
 30
0.0
 70
0
  0
VERTEX
  5
371
  8
GABARIT_INTERIEUR_18MM
 10
1079.9090424663764
 20
2353.0
 30
0.0
 42
-0.41421356237309503
 70
0
  0
VERTEX
  5
372
  8
GABARIT_INTERIEUR_18MM
 10
1076.7090424663766
 20
2349.8
 30
0.0
 42
-0.41421356237309503
 70
0
  0
VERTEX
  5
373
  8
GABARIT_INTERIEUR_18MM
 10
1073.5090424663767
 20
2353.0
 30
0.0
 42
-0.41421356237309503
 70
0
  0
VERTEX
  5
374
  8
GABARIT_INTERIEUR_18MM
 10
1076.7090424663766
 20
2356.2
 30
0.0
 70
0
  0
VERTEX
  5
375
  8
GABARIT_INTERIEUR_18MM
 10
1076.7090424663766
 20
2371.0
 30
0.0
 70
0
  0
VERTEX
  5
376
  8
GABARIT_INTERIEUR_18MM
 10
1036.7090424663766
 20
2371.0
 30
0.0
 70
0
  0
VERTEX
  5
377
  8
GABARIT_INTERIEUR_18MM
 10
1036.7090424663766
 20
2356.2
 30
0.0
 42
-0.41421356237309503
 70
0
  0
VERTEX
  5
378
  8
GABARIT_INTERIEUR_18MM
 10
1039.9090424663761
 20
2353.0
 30
0.0
 42
-0.41421356237309503
 70
0
  0
VERTEX
  5
379
  8
GABARIT_INTERIEUR_18MM
 10
1036.709042466376
 20
2349.8
 30
0.0
 42
-0.41421356237309503
 70
0
  0
VERTEX
  5
37A
  8
GABARIT_INTERIEUR_18MM
 10
1033.5090424663765
 20
2353.0
 30
0.0
 70
0
  0
VERTEX
  5
37B
  8
GABARIT_INTERIEUR_18MM
 10
966.221602274655
 20
2353.0
 30
0.0
 70
0
  0
VERTEX
  5
37C
  8
GABARIT_INTERIEUR_18MM
 10
966.221602274655
 20
2261.7
 30
0.0
 42
-0.41421356237309503
 70
0
  0
VERTEX
  5
37D
  8
GABARIT_INTERIEUR_18MM
 10
969.4216022746548
 20
2258.5
 30
0.0
 42
-0.41421356237309503
 70
0
  0
VERTEX
  5
37E
  8
GABARIT_INTERIEUR_18MM
 10
966.2216022746547
 20
2255.3
 30
0.0
 42
-0.41421356237309503
 70
0
  0
VERTEX
  5
37F
  8
GABARIT_INTERIEUR_18MM
 10
963.0216022746549
 20
2258.5
 30
0.0
 70
0
  0
VERTEX
  5
380
  8
GABARIT_INTERIEUR_18MM
 10
950.4216022746549
 20
2258.5
 30
0.0
 42
-0.41421356237309503
 70
0
  0
VERTEX
  5
381
  8
GABARIT_INTERIEUR_18MM
 10
947.221602274655
 20
2255.3
 30
0.0
 42
-0.41421356237309503
 70
0
  0
VERTEX
  5
382
  8
GABARIT_INTERIEUR_18MM
 10
944.0216022746552
 20
2258.5
 30
0.0
 42
-0.41421356237309503
 70
0
  0
VERTEX
  5
383
  8
GABARIT_INTERIEUR_18MM
 10
947.221602274655
 20
2261.7
 30
0.0
 70
0
  0
VERTEX
  5
384
  8
GABARIT_INTERIEUR_18MM
 10
947.221602274655
 20
2353.0
 30
0.0
 70
0
  0
VERTEX
  5
385
  8
GABARIT_INTERIEUR_18MM
 10
879.9341620829333
 20
2353.0
 30
0.0
 42
-0.41421356237309503
 70
0
  0
VERTEX
  5
386
  8
GABARIT_INTERIEUR_18MM
 10
876.7341620829334
 20
2349.8
 30
0.0
 42
-0.41421356237309503
 70
0
  0
VERTEX
  5
387
  8
GABARIT_INTERIEUR_18MM
 10
873.5341620829334
 20
2353.0
 30
0.0
 42
-0.41421356237309503
 70
0
  0
VERTEX
  5
388
  8
GABARIT_INTERIEUR_18MM
 10
876.7341620829333
 20
2356.2
 30
0.0
 70
0
  0
VERTEX
  5
389
  8
GABARIT_INTERIEUR_18MM
 10
876.7341620829333
 20
2371.0
 30
0.0
 70
0
  0
VERTEX
  5
38A
  8
GABARIT_INTERIEUR_18MM
 10
836.7341620829333
 20
2371.0
 30
0.0
 70
0
  0
VERTEX
  5
38B
  8
GABARIT_INTERIEUR_18MM
 10
836.7341620829333
 20
2356.2
 30
0.0
 42
-0.41421356237309503
 70
0
  0
VERTEX
  5
38C
  8
GABARIT_INTERIEUR_18MM
 10
839.934162082933
 20
2353.0
 30
0.0
 42
-0.41421356237309503
 70
0
  0
VERTEX
  5
38D
  8
GABARIT_INTERIEUR_18MM
 10
836.734162082933
 20
2349.8
 30
0.0
 42
-0.41421356237309503
 70
0
  0
VERTEX
  5
38E
  8
GABARIT_INTERIEUR_18MM
 10
833.5341620829333
 20
2353.0
 30
0.0
 70
0
  0
VERTEX
  5
38F
  8
GABARIT_INTERIEUR_18MM
 10
766.0
 20
2353.0
 30
0.0
 70
0
  0
VERTEX
  5
390
  8
GABARIT_INTERIEUR_18MM
 10
799.6
 20
2164.0
 30
0.0
 70
0
  0
VERTEX
  5
391
  8
GABARIT_INTERIEUR_18MM
 10
851.9652677796856
 20
2164.0
 30
0.0
 42
-0.41421356237309503
 70
0
  0
VERTEX
  5
392
  8
GABARIT_INTERIEUR_18MM
 10
855.1652677796856
 20
2167.2
 30
0.0
 42
-0.41421356237309503
 70
0
  0
VERTEX
  5
393
  8
GABARIT_INTERIEUR_18MM
 10
858.3652677796855
 20
2164.0
 30
0.0
 42
-0.41421356237309503
 70
0
  0
VERTEX
  5
394
  8
GABARIT_INTERIEUR_18MM
 10
855.1652677796857
 20
2160.8
 30
0.0
 70
0
  0
VERTEX
  5
395
  8
GABARIT_INTERIEUR_18MM
 10
855.1652677796857
 20
2146.0
 30
0.0
 70
0
  0
VERTEX
  5
396
  8
GABARIT_INTERIEUR_18MM
 10
895.1652677796856
 20
2146.0
 30
0.0
 70
0
  0
VERTEX
  5
397
  8
GABARIT_INTERIEUR_18MM
 10
895.1652677796856
 20
2160.8
 30
0.0
 42
-0.41421356237309503
 70
0
  0
VERTEX
  5
398
  8
GABARIT_INTERIEUR_18MM
 10
891.9652677796857
 20
2164.0
 30
0.0
 42
-0.41421356237309503
 70
0
  0
VERTEX
  5
399
  8
GABARIT_INTERIEUR_18MM
 10
895.1652677796858
 20
2167.2
 30
0.0
 42
-0.41421356237309503
 70
0
  0
VERTEX
  5
39A
  8
GABARIT_INTERIEUR_18MM
 10
898.3652677796856
 20
2164.0
 30
0.0
 70
0
  0
VERTEX
  5
39B
  8
GABARIT_INTERIEUR_18MM
 10
1015.0779367696241
 20
2164.0
 30
0.0
 42
-0.41421356237309503
 70
0
  0
VERTEX
  5
39C
  8
GABARIT_INTERIEUR_18MM
 10
1018.277936769624
 20
2167.2
 30
0.0
 42
-0.41421356237309503
 70
0
  0
VERTEX
  5
39D
  8
GABARIT_INTERIEUR_18MM
 10
1021.477936769624
 20
2164.0
 30
0.0
 42
-0.41421356237309503
 70
0
  0
VERTEX
  5
39E
  8
GABARIT_INTERIEUR_18MM
 10
1018.2779367696241
 20
2160.8
 30
0.0
 70
0
  0
VERTEX
  5
39F
  8
GABARIT_INTERIEUR_18MM
 10
1018.2779367696241
 20
2146.0
 30
0.0
 70
0
  0
VERTEX
  5
3A0
  8
GABARIT_INTERIEUR_18MM
 10
1058.2779367696241
 20
2146.0
 30
0.0
 70
0
  0
VERTEX
  5
3A1
  8
GABARIT_INTERIEUR_18MM
 10
1058.2779367696241
 20
2160.8
 30
0.0
 42
-0.41421356237309503
 70
0
  0
VERTEX
  5
3A2
  8
GABARIT_INTERIEUR_18MM
 10
1055.0779367696246
 20
2164.0
 30
0.0
 42
-0.41421356237309503
 70
0
  0
VERTEX
  5
3A3
  8
GABARIT_INTERIEUR_18MM
 10
1058.2779367696246
 20
2167.2
 30
0.0
 42
-0.41421356237309503
 70
0
  0
VERTEX
  5
3A4
  8
GABARIT_INTERIEUR_18MM
 10
1061.4779367696242
 20
2164.0
 30
0.0
 70
0
  0
VERTEX
  5
3A5
  8
GABARIT_INTERIEUR_18MM
 10
1113.8432045493098
 20
2164.0
 30
0.0
 70
0
  0
SEQEND
  5
36F
  8
GABARIT_INTERIEUR_18MM
  0
POLYLINE
  5
3A6
  8
GABARIT_INTERIEUR_18MM
 66
1
 10
0.0
 20
0.0
 30
0.0
 70
1
  0
VERTEX
  5
3A8
  8
GABARIT_INTERIEUR_18MM
 10
1187.44320454931
 20
2701.0
 30
0.0
 70
0
  0
VERTEX
  5
3A9
  8
GABARIT_INTERIEUR_18MM
 10
1119.9090424663764
 20
2701.0
 30
0.0
 42
-0.41421356237309503
 70
0
  0
VERTEX
  5
3AA
  8
GABARIT_INTERIEUR_18MM
 10
1116.7090424663766
 20
2697.8
 30
0.0
 42
-0.41421356237309503
 70
0
  0
VERTEX
  5
3AB
  8
GABARIT_INTERIEUR_18MM
 10
1113.5090424663767
 20
2701.0
 30
0.0
 42
-0.41421356237309503
 70
0
  0
VERTEX
  5
3AC
  8
GABARIT_INTERIEUR_18MM
 10
1116.7090424663766
 20
2704.2
 30
0.0
 70
0
  0
VERTEX
  5
3AD
  8
GABARIT_INTERIEUR_18MM
 10
1116.7090424663766
 20
2719.0
 30
0.0
 70
0
  0
VERTEX
  5
3AE
  8
GABARIT_INTERIEUR_18MM
 10
1076.7090424663766
 20
2719.0
 30
0.0
 70
0
  0
VERTEX
  5
3AF
  8
GABARIT_INTERIEUR_18MM
 10
1076.7090424663766
 20
2704.2
 30
0.0
 42
-0.41421356237309503
 70
0
  0
VERTEX
  5
3B0
  8
GABARIT_INTERIEUR_18MM
 10
1079.9090424663761
 20
2701.0
 30
0.0
 42
-0.41421356237309503
 70
0
  0
VERTEX
  5
3B1
  8
GABARIT_INTERIEUR_18MM
 10
1076.709042466376
 20
2697.8
 30
0.0
 42
-0.41421356237309503
 70
0
  0
VERTEX
  5
3B2
  8
GABARIT_INTERIEUR_18MM
 10
1073.5090424663765
 20
2701.0
 30
0.0
 70
0
  0
VERTEX
  5
3B3
  8
GABARIT_INTERIEUR_18MM
 10
919.9341620829333
 20
2701.0
 30
0.0
 42
-0.41421356237309503
 70
0
  0
VERTEX
  5
3B4
  8
GABARIT_INTERIEUR_18MM
 10
916.7341620829334
 20
2697.8
 30
0.0
 42
-0.41421356237309503
 70
0
  0
VERTEX
  5
3B5
  8
GABARIT_INTERIEUR_18MM
 10
913.5341620829334
 20
2701.0
 30
0.0
 42
-0.41421356237309503
 70
0
  0
VERTEX
  5
3B6
  8
GABARIT_INTERIEUR_18MM
 10
916.7341620829333
 20
2704.2
 30
0.0
 70
0
  0
VERTEX
  5
3B7
  8
GABARIT_INTERIEUR_18MM
 10
916.7341620829333
 20
2719.0
 30
0.0
 70
0
  0
VERTEX
  5
3B8
  8
GABARIT_INTERIEUR_18MM
 10
876.7341620829333
 20
2719.0
 30
0.0
 70
0
  0
VERTEX
  5
3B9
  8
GABARIT_INTERIEUR_18MM
 10
876.7341620829333
 20
2704.2
 30
0.0
 42
-0.41421356237309503
 70
0
  0
VERTEX
  5
3BA
  8
GABARIT_INTERIEUR_18MM
 10
879.934162082933
 20
2701.0
 30
0.0
 42
-0.41421356237309503
 70
0
  0
VERTEX
  5
3BB
  8
GABARIT_INTERIEUR_18MM
 10
876.734162082933
 20
2697.8
 30
0.0
 42
-0.41421356237309503
 70
0
  0
VERTEX
  5
3BC
  8
GABARIT_INTERIEUR_18MM
 10
873.5341620829333
 20
2701.0
 30
0.0
 70
0
  0
VERTEX
  5
3BD
  8
GABARIT_INTERIEUR_18MM
 10
806.0
 20
2701.0
 30
0.0
 70
0
  0
VERTEX
  5
3BE
  8
GABARIT_INTERIEUR_18MM
 10
839.6
 20
2512.0
 30
0.0
 70
0
  0
VERTEX
  5
3BF
  8
GABARIT_INTERIEUR_18MM
 10
891.9652677796856
 20
2512.0
 30
0.0
 42
-0.41421356237309503
 70
0
  0
VERTEX
  5
3C0
  8
GABARIT_INTERIEUR_18MM
 10
895.1652677796856
 20
2515.2
 30
0.0
 42
-0.41421356237309503
 70
0
  0
VERTEX
  5
3C1
  8
GABARIT_INTERIEUR_18MM
 10
898.3652677796855
 20
2512.0
 30
0.0
 42
-0.41421356237309503
 70
0
  0
VERTEX
  5
3C2
  8
GABARIT_INTERIEUR_18MM
 10
895.1652677796857
 20
2508.8
 30
0.0
 70
0
  0
VERTEX
  5
3C3
  8
GABARIT_INTERIEUR_18MM
 10
895.1652677796857
 20
2494.0
 30
0.0
 70
0
  0
VERTEX
  5
3C4
  8
GABARIT_INTERIEUR_18MM
 10
935.1652677796856
 20
2494.0
 30
0.0
 70
0
  0
VERTEX
  5
3C5
  8
GABARIT_INTERIEUR_18MM
 10
935.1652677796856
 20
2508.8
 30
0.0
 42
-0.41421356237309503
 70
0
  0
VERTEX
  5
3C6
  8
GABARIT_INTERIEUR_18MM
 10
931.9652677796857
 20
2512.0
 30
0.0
 42
-0.41421356237309503
 70
0
  0
VERTEX
  5
3C7
  8
GABARIT_INTERIEUR_18MM
 10
935.1652677796858
 20
2515.2
 30
0.0
 42
-0.41421356237309503
 70
0
  0
VERTEX
  5
3C8
  8
GABARIT_INTERIEUR_18MM
 10
938.3652677796856
 20
2512.0
 30
0.0
 70
0
  0
VERTEX
  5
3C9
  8
GABARIT_INTERIEUR_18MM
 10
987.2216022746549
 20
2512.0
 30
0.0
 70
0
  0
VERTEX
  5
3CA
  8
GABARIT_INTERIEUR_18MM
 10
987.221602274655
 20
2603.3
 30
0.0
 42
-0.41421356237309503
 70
0
  0
VERTEX
  5
3CB
  8
GABARIT_INTERIEUR_18MM
 10
984.0216022746552
 20
2606.5
 30
0.0
 42
-0.41421356237309503
 70
0
  0
VERTEX
  5
3CC
  8
GABARIT_INTERIEUR_18MM
 10
987.2216022746552
 20
2609.7
 30
0.0
 42
-0.41421356237309503
 70
0
  0
VERTEX
  5
3CD
  8
GABARIT_INTERIEUR_18MM
 10
990.4216022746549
 20
2606.5
 30
0.0
 70
0
  0
VERTEX
  5
3CE
  8
GABARIT_INTERIEUR_18MM
 10
1003.0216022746549
 20
2606.5
 30
0.0
 42
-0.41421356237309503
 70
0
  0
VERTEX
  5
3CF
  8
GABARIT_INTERIEUR_18MM
 10
1006.2216022746549
 20
2609.7
 30
0.0
 42
-0.41421356237309503
 70
0
  0
VERTEX
  5
3D0
  8
GABARIT_INTERIEUR_18MM
 10
1009.4216022746548
 20
2606.5
 30
0.0
 42
-0.41421356237309503
 70
0
  0
VERTEX
  5
3D1
  8
GABARIT_INTERIEUR_18MM
 10
1006.221602274655
 20
2603.3
 30
0.0
 70
0
  0
VERTEX
  5
3D2
  8
GABARIT_INTERIEUR_18MM
 10
1006.2216022746549
 20
2512.0
 30
0.0
 70
0
  0
VERTEX
  5
3D3
  8
GABARIT_INTERIEUR_18MM
 10
1055.077936769624
 20
2512.0
 30
0.0
 42
-0.41421356237309503
 70
0
  0
VERTEX
  5
3D4
  8
GABARIT_INTERIEUR_18MM
 10
1058.277936769624
 20
2515.2
 30
0.0
 42
-0.41421356237309503
 70
0
  0
VERTEX
  5
3D5
  8
GABARIT_INTERIEUR_18MM
 10
1061.4779367696237
 20
2512.0
 30
0.0
 42
-0.41421356237309503
 70
0
  0
VERTEX
  5
3D6
  8
GABARIT_INTERIEUR_18MM
 10
1058.2779367696241
 20
2508.8
 30
0.0
 70
0
  0
VERTEX
  5
3D7
  8
GABARIT_INTERIEUR_18MM
 10
1058.2779367696241
 20
2494.0
 30
0.0
 70
0
  0
VERTEX
  5
3D8
  8
GABARIT_INTERIEUR_18MM
 10
1098.2779367696241
 20
2494.0
 30
0.0
 70
0
  0
VERTEX
  5
3D9
  8
GABARIT_INTERIEUR_18MM
 10
1098.2779367696241
 20
2508.8
 30
0.0
 42
-0.41421356237309503
 70
0
  0
VERTEX
  5
3DA
  8
GABARIT_INTERIEUR_18MM
 10
1095.0779367696246
 20
2512.0
 30
0.0
 42
-0.41421356237309503
 70
0
  0
VERTEX
  5
3DB
  8
GABARIT_INTERIEUR_18MM
 10
1098.2779367696246
 20
2515.2
 30
0.0
 42
-0.41421356237309503
 70
0
  0
VERTEX
  5
3DC
  8
GABARIT_INTERIEUR_18MM
 10
1101.4779367696242
 20
2512.0
 30
0.0
 70
0
  0
VERTEX
  5
3DD
  8
GABARIT_INTERIEUR_18MM
 10
1153.8432045493098
 20
2512.0
 30
0.0
 70
0
  0
SEQEND
  5
3A7
  8
GABARIT_INTERIEUR_18MM
  0
POLYLINE
  5
3DE
  8
GABARIT_INTERIEUR_18MM
 66
1
 10
0.0
 20
0.0
 30
0.0
 70
1
  0
VERTEX
  5
3E0
  8
GABARIT_INTERIEUR_18MM
 10
1131.44320454931
 20
2113.0
 30
0.0
 70
0
  0
VERTEX
  5
3E1
  8
GABARIT_INTERIEUR_18MM
 10
1083.8744731300199
 20
2113.0
 30
0.0
 42
-0.41421356237309503
 70
0
  0
VERTEX
  5
3E2
  8
GABARIT_INTERIEUR_18MM
 10
1080.67447313002
 20
2109.8
 30
0.0
 42
-0.41421356237309503
 70
0
  0
VERTEX
  5
3E3
  8
GABARIT_INTERIEUR_18MM
 10
1077.4744731300202
 20
2113.0
 30
0.0
 42
-0.41421356237309503
 70
0
  0
VERTEX
  5
3E4
  8
GABARIT_INTERIEUR_18MM
 10
1080.67447313002
 20
2116.2
 30
0.0
 70
0
  0
VERTEX
  5
3E5
  8
GABARIT_INTERIEUR_18MM
 10
1080.67447313002
 20
2131.0
 30
0.0
 70
0
  0
VERTEX
  5
3E6
  8
GABARIT_INTERIEUR_18MM
 10
1040.67447313002
 20
2131.0
 30
0.0
 70
0
  0
VERTEX
  5
3E7
  8
GABARIT_INTERIEUR_18MM
 10
1040.67447313002
 20
2116.2
 30
0.0
 42
-0.41421356237309503
 70
0
  0
VERTEX
  5
3E8
  8
GABARIT_INTERIEUR_18MM
 10
1043.8744731300196
 20
2113.0
 30
0.0
 42
-0.41421356237309503
 70
0
  0
VERTEX
  5
3E9
  8
GABARIT_INTERIEUR_18MM
 10
1040.6744731300196
 20
2109.8
 30
0.0
 42
-0.41421356237309503
 70
0
  0
VERTEX
  5
3EA
  8
GABARIT_INTERIEUR_18MM
 10
1037.47447313002
 20
2113.0
 30
0.0
 70
0
  0
VERTEX
  5
3EB
  8
GABARIT_INTERIEUR_18MM
 10
990.221602274655
 20
2113.0
 30
0.0
 70
0
  0
VERTEX
  5
3EC
  8
GABARIT_INTERIEUR_18MM
 10
990.221602274655
 20
2021.7
 30
0.0
 42
-0.41421356237309503
 70
0
  0
VERTEX
  5
3ED
  8
GABARIT_INTERIEUR_18MM
 10
993.421602274655
 20
2018.5
 30
0.0
 42
-0.41421356237309503
 70
0
  0
VERTEX
  5
3EE
  8
GABARIT_INTERIEUR_18MM
 10
990.221602274655
 20
2015.3
 30
0.0
 42
-0.41421356237309503
 70
0
  0
VERTEX
  5
3EF
  8
GABARIT_INTERIEUR_18MM
 10
987.0216022746549
 20
2018.5
 30
0.0
 70
0
  0
VERTEX
  5
3F0
  8
GABARIT_INTERIEUR_18MM
 10
974.4216022746549
 20
2018.5
 30
0.0
 42
-0.41421356237309503
 70
0
  0
VERTEX
  5
3F1
  8
GABARIT_INTERIEUR_18MM
 10
971.221602274655
 20
2015.3
 30
0.0
 42
-0.41421356237309503
 70
0
  0
VERTEX
  5
3F2
  8
GABARIT_INTERIEUR_18MM
 10
968.0216022746549
 20
2018.5
 30
0.0
 42
-0.41421356237309503
 70
0
  0
VERTEX
  5
3F3
  8
GABARIT_INTERIEUR_18MM
 10
971.221602274655
 20
2021.7
 30
0.0
 70
0
  0
VERTEX
  5
3F4
  8
GABARIT_INTERIEUR_18MM
 10
971.221602274655
 20
2113.0
 30
0.0
 70
0
  0
VERTEX
  5
3F5
  8
GABARIT_INTERIEUR_18MM
 10
923.96873141929
 20
2113.0
 30
0.0
 42
-0.41421356237309503
 70
0
  0
VERTEX
  5
3F6
  8
GABARIT_INTERIEUR_18MM
 10
920.76873141929
 20
2109.8
 30
0.0
 42
-0.41421356237309503
 70
0
  0
VERTEX
  5
3F7
  8
GABARIT_INTERIEUR_18MM
 10
917.5687314192901
 20
2113.0
 30
0.0
 42
-0.41421356237309503
 70
0
  0
VERTEX
  5
3F8
  8
GABARIT_INTERIEUR_18MM
 10
920.7687314192899
 20
2116.2
 30
0.0
 70
0
  0
VERTEX
  5
3F9
  8
GABARIT_INTERIEUR_18MM
 10
920.7687314192899
 20
2131.0
 30
0.0
 70
0
  0
VERTEX
  5
3FA
  8
GABARIT_INTERIEUR_18MM
 10
880.7687314192899
 20
2131.0
 30
0.0
 70
0
  0
VERTEX
  5
3FB
  8
GABARIT_INTERIEUR_18MM
 10
880.7687314192899
 20
2116.2
 30
0.0
 42
-0.41421356237309503
 70
0
  0
VERTEX
  5
3FC
  8
GABARIT_INTERIEUR_18MM
 10
883.9687314192897
 20
2113.0
 30
0.0
 42
-0.41421356237309503
 70
0
  0
VERTEX
  5
3FD
  8
GABARIT_INTERIEUR_18MM
 10
880.7687314192897
 20
2109.8
 30
0.0
 42
-0.41421356237309503
 70
0
  0
VERTEX
  5
3FE
  8
GABARIT_INTERIEUR_18MM
 10
877.5687314192899
 20
2113.0
 30
0.0
 70
0
  0
VERTEX
  5
3FF
  8
GABARIT_INTERIEUR_18MM
 10
830.0
 20
2113.0
 30
0.0
 70
0
  0
VERTEX
  5
400
  8
GABARIT_INTERIEUR_18MM
 10
863.5999999999999
 20
1924.0
 30
0.0
 70
0
  0
VERTEX
  5
401
  8
GABARIT_INTERIEUR_18MM
 10
896.0236373095568
 20
1924.0
 30
0.0
 42
-0.41421356237309503
 70
0
  0
VERTEX
  5
402
  8
GABARIT_INTERIEUR_18MM
 10
899.2236373095568
 20
1927.2
 30
0.0
 42
-0.41421356237309503
 70
0
  0
VERTEX
  5
403
  8
GABARIT_INTERIEUR_18MM
 10
902.4236373095569
 20
1924.0
 30
0.0
 42
-0.41421356237309503
 70
0
  0
VERTEX
  5
404
  8
GABARIT_INTERIEUR_18MM
 10
899.2236373095568
 20
1920.8
 30
0.0
 70
0
  0
VERTEX
  5
405
  8
GABARIT_INTERIEUR_18MM
 10
899.2236373095568
 20
1906.0
 30
0.0
 70
0
  0
VERTEX
  5
406
  8
GABARIT_INTERIEUR_18MM
 10
939.2236373095568
 20
1906.0
 30
0.0
 70
0
  0
VERTEX
  5
407
  8
GABARIT_INTERIEUR_18MM
 10
939.2236373095568
 20
1920.8
 30
0.0
 42
-0.41421356237309503
 70
0
  0
VERTEX
  5
408
  8
GABARIT_INTERIEUR_18MM
 10
936.0236373095568
 20
1924.0
 30
0.0
 42
-0.41421356237309503
 70
0
  0
VERTEX
  5
409
  8
GABARIT_INTERIEUR_18MM
 10
939.2236373095568
 20
1927.2
 30
0.0
 42
-0.41421356237309503
 70
0
  0
VERTEX
  5
40A
  8
GABARIT_INTERIEUR_18MM
 10
942.4236373095569
 20
1924.0
 30
0.0
 70
0
  0
VERTEX
  5
40B
  8
GABARIT_INTERIEUR_18MM
 10
1019.019567239753
 20
1924.0
 30
0.0
 42
-0.41421356237309503
 70
0
  0
VERTEX
  5
40C
  8
GABARIT_INTERIEUR_18MM
 10
1022.2195672397529
 20
1927.2
 30
0.0
 42
-0.41421356237309503
 70
0
  0
VERTEX
  5
40D
  8
GABARIT_INTERIEUR_18MM
 10
1025.419567239753
 20
1924.0
 30
0.0
 42
-0.41421356237309503
 70
0
  0
VERTEX
  5
40E
  8
GABARIT_INTERIEUR_18MM
 10
1022.2195672397529
 20
1920.8
 30
0.0
 70
0
  0
VERTEX
  5
40F
  8
GABARIT_INTERIEUR_18MM
 10
1022.2195672397529
 20
1906.0
 30
0.0
 70
0
  0
VERTEX
  5
410
  8
GABARIT_INTERIEUR_18MM
 10
1062.219567239753
 20
1906.0
 30
0.0
 70
0
  0
VERTEX
  5
411
  8
GABARIT_INTERIEUR_18MM
 10
1062.219567239753
 20
1920.8
 30
0.0
 42
-0.41421356237309503
 70
0
  0
VERTEX
  5
412
  8
GABARIT_INTERIEUR_18MM
 10
1059.0195672397529
 20
1924.0
 30
0.0
 42
-0.41421356237309503
 70
0
  0
VERTEX
  5
413
  8
GABARIT_INTERIEUR_18MM
 10
1062.219567239753
 20
1927.2
 30
0.0
 42
-0.41421356237309503
 70
0
  0
VERTEX
  5
414
  8
GABARIT_INTERIEUR_18MM
 10
1065.419567239753
 20
1924.0
 30
0.0
 70
0
  0
VERTEX
  5
415
  8
GABARIT_INTERIEUR_18MM
 10
1097.8432045493098
 20
1924.0
 30
0.0
 70
0
  0
SEQEND
  5
3DF
  8
GABARIT_INTERIEUR_18MM
  0
POLYLINE
  5
416
  8
GABARIT_INTERIEUR_18MM
 66
1
 10
0.0
 20
0.0
 30
0.0
 70
1
  0
VERTEX
  5
418
  8
GABARIT_INTERIEUR_18MM
 10
994.0
 20
1556.0
 30
0.0
 70
0
  0
VERTEX
  5
419
  8
GABARIT_INTERIEUR_18MM
 10
1041.5687314192899
 20
1556.0
 30
0.0
 42
-0.41421356237309503
 70
0
  0
VERTEX
  5
41A
  8
GABARIT_INTERIEUR_18MM
 10
1044.76873141929
 20
1559.2
 30
0.0
 42
-0.41421356237309503
 70
0
  0
VERTEX
  5
41B
  8
GABARIT_INTERIEUR_18MM
 10
1047.96873141929
 20
1556.0
 30
0.0
 42
-0.41421356237309503
 70
0
  0
VERTEX
  5
41C
  8
GABARIT_INTERIEUR_18MM
 10
1044.76873141929
 20
1552.8
 30
0.0
 70
0
  0
VERTEX
  5
41D
  8
GABARIT_INTERIEUR_18MM
 10
1044.76873141929
 20
1538.0
 30
0.0
 70
0
  0
VERTEX
  5
41E
  8
GABARIT_INTERIEUR_18MM
 10
1084.76873141929
 20
1538.0
 30
0.0
 70
0
  0
VERTEX
  5
41F
  8
GABARIT_INTERIEUR_18MM
 10
1084.76873141929
 20
1552.8
 30
0.0
 42
-0.41421356237309503
 70
0
  0
VERTEX
  5
420
  8
GABARIT_INTERIEUR_18MM
 10
1081.5687314192899
 20
1556.0
 30
0.0
 42
-0.41421356237309503
 70
0
  0
VERTEX
  5
421
  8
GABARIT_INTERIEUR_18MM
 10
1084.76873141929
 20
1559.2
 30
0.0
 42
-0.41421356237309503
 70
0
  0
VERTEX
  5
422
  8
GABARIT_INTERIEUR_18MM
 10
1087.96873141929
 20
1556.0
 30
0.0
 70
0
  0
VERTEX
  5
423
  8
GABARIT_INTERIEUR_18MM
 10
1201.47447313002
 20
1556.0
 30
0.0
 42
-0.41421356237309503
 70
0
  0
VERTEX
  5
424
  8
GABARIT_INTERIEUR_18MM
 10
1204.67447313002
 20
1559.2
 30
0.0
 42
-0.41421356237309503
 70
0
  0
VERTEX
  5
425
  8
GABARIT_INTERIEUR_18MM
 10
1207.87447313002
 20
1556.0
 30
0.0
 42
-0.41421356237309503
 70
0
  0
VERTEX
  5
426
  8
GABARIT_INTERIEUR_18MM
 10
1204.67447313002
 20
1552.8
 30
0.0
 70
0
  0
VERTEX
  5
427
  8
GABARIT_INTERIEUR_18MM
 10
1204.67447313002
 20
1538.0
 30
0.0
 70
0
  0
VERTEX
  5
428
  8
GABARIT_INTERIEUR_18MM
 10
1244.67447313002
 20
1538.0
 30
0.0
 70
0
  0
VERTEX
  5
429
  8
GABARIT_INTERIEUR_18MM
 10
1244.67447313002
 20
1552.8
 30
0.0
 42
-0.41421356237309503
 70
0
  0
VERTEX
  5
42A
  8
GABARIT_INTERIEUR_18MM
 10
1241.4744731300202
 20
1555.9999999999998
 30
0.0
 42
-0.41421356237309503
 70
0
  0
VERTEX
  5
42B
  8
GABARIT_INTERIEUR_18MM
 10
1244.67447313002
 20
1559.1999999999996
 30
0.0
 42
-0.41421356237309503
 70
0
  0
VERTEX
  5
42C
  8
GABARIT_INTERIEUR_18MM
 10
1247.8744731300199
 20
1556.0
 30
0.0
 70
0
  0
VERTEX
  5
42D
  8
GABARIT_INTERIEUR_18MM
 10
1295.44320454931
 20
1556.0
 30
0.0
 70
0
  0
VERTEX
  5
42E
  8
GABARIT_INTERIEUR_18MM
 10
1261.8432045493098
 20
1745.0
 30
0.0
 70
0
  0
VERTEX
  5
42F
  8
GABARIT_INTERIEUR_18MM
 10
1229.419567239753
 20
1745.0
 30
0.0
 42
-0.41421356237309503
 70
0
  0
VERTEX
  5
430
  8
GABARIT_INTERIEUR_18MM
 10
1226.219567239753
 20
1741.8
 30
0.0
 42
-0.41421356237309503
 70
0
  0
VERTEX
  5
431
  8
GABARIT_INTERIEUR_18MM
 10
1223.0195672397529
 20
1745.0
 30
0.0
 42
-0.41421356237309503
 70
0
  0
VERTEX
  5
432
  8
GABARIT_INTERIEUR_18MM
 10
1226.219567239753
 20
1748.2
 30
0.0
 70
0
  0
VERTEX
  5
433
  8
GABARIT_INTERIEUR_18MM
 10
1226.219567239753
 20
1763.0
 30
0.0
 70
0
  0
VERTEX
  5
434
  8
GABARIT_INTERIEUR_18MM
 10
1186.219567239753
 20
1763.0
 30
0.0
 70
0
  0
VERTEX
  5
435
  8
GABARIT_INTERIEUR_18MM
 10
1186.219567239753
 20
1748.2
 30
0.0
 42
-0.41421356237309503
 70
0
  0
VERTEX
  5
436
  8
GABARIT_INTERIEUR_18MM
 10
1189.4195672397527
 20
1745.0000000000002
 30
0.0
 42
-0.41421356237309503
 70
0
  0
VERTEX
  5
437
  8
GABARIT_INTERIEUR_18MM
 10
1186.219567239753
 20
1741.8000000000004
 30
0.0
 42
-0.41421356237309503
 70
0
  0
VERTEX
  5
438
  8
GABARIT_INTERIEUR_18MM
 10
1183.019567239753
 20
1745.0
 30
0.0
 70
0
  0
VERTEX
  5
439
  8
GABARIT_INTERIEUR_18MM
 10
1154.221602274655
 20
1745.0
 30
0.0
 70
0
  0
VERTEX
  5
43A
  8
GABARIT_INTERIEUR_18MM
 10
1154.221602274655
 20
1653.7
 30
0.0
 42
-0.41421356237309503
 70
0
  0
VERTEX
  5
43B
  8
GABARIT_INTERIEUR_18MM
 10
1157.421602274655
 20
1650.5
 30
0.0
 42
-0.41421356237309503
 70
0
  0
VERTEX
  5
43C
  8
GABARIT_INTERIEUR_18MM
 10
1154.221602274655
 20
1647.3
 30
0.0
 42
-0.41421356237309503
 70
0
  0
VERTEX
  5
43D
  8
GABARIT_INTERIEUR_18MM
 10
1151.021602274655
 20
1650.5
 30
0.0
 70
0
  0
VERTEX
  5
43E
  8
GABARIT_INTERIEUR_18MM
 10
1138.421602274655
 20
1650.5
 30
0.0
 42
-0.41421356237309503
 70
0
  0
VERTEX
  5
43F
  8
GABARIT_INTERIEUR_18MM
 10
1135.221602274655
 20
1647.3
 30
0.0
 42
-0.41421356237309503
 70
0
  0
VERTEX
  5
440
  8
GABARIT_INTERIEUR_18MM
 10
1132.021602274655
 20
1650.5
 30
0.0
 42
-0.41421356237309503
 70
0
  0
VERTEX
  5
441
  8
GABARIT_INTERIEUR_18MM
 10
1135.221602274655
 20
1653.7
 30
0.0
 70
0
  0
VERTEX
  5
442
  8
GABARIT_INTERIEUR_18MM
 10
1135.221602274655
 20
1745.0
 30
0.0
 70
0
  0
VERTEX
  5
443
  8
GABARIT_INTERIEUR_18MM
 10
1106.4236373095569
 20
1745.0
 30
0.0
 42
-0.41421356237309503
 70
0
  0
VERTEX
  5
444
  8
GABARIT_INTERIEUR_18MM
 10
1103.2236373095568
 20
1741.8
 30
0.0
 42
-0.41421356237309503
 70
0
  0
VERTEX
  5
445
  8
GABARIT_INTERIEUR_18MM
 10
1100.0236373095568
 20
1745.0
 30
0.0
 42
-0.41421356237309503
 70
0
  0
VERTEX
  5
446
  8
GABARIT_INTERIEUR_18MM
 10
1103.2236373095568
 20
1748.2
 30
0.0
 70
0
  0
VERTEX
  5
447
  8
GABARIT_INTERIEUR_18MM
 10
1103.2236373095568
 20
1763.0
 30
0.0
 70
0
  0
VERTEX
  5
448
  8
GABARIT_INTERIEUR_18MM
 10
1063.2236373095568
 20
1763.0
 30
0.0
 70
0
  0
VERTEX
  5
449
  8
GABARIT_INTERIEUR_18MM
 10
1063.2236373095568
 20
1748.2
 30
0.0
 42
-0.41421356237309503
 70
0
  0
VERTEX
  5
44A
  8
GABARIT_INTERIEUR_18MM
 10
1066.4236373095569
 20
1745.0
 30
0.0
 42
-0.41421356237309503
 70
0
  0
VERTEX
  5
44B
  8
GABARIT_INTERIEUR_18MM
 10
1063.2236373095568
 20
1741.8
 30
0.0
 42
-0.41421356237309503
 70
0
  0
VERTEX
  5
44C
  8
GABARIT_INTERIEUR_18MM
 10
1060.0236373095568
 20
1745.0
 30
0.0
 70
0
  0
VERTEX
  5
44D
  8
GABARIT_INTERIEUR_18MM
 10
1027.6
 20
1745.0
 30
0.0
 70
0
  0
SEQEND
  5
417
  8
GABARIT_INTERIEUR_18MM
  0
CIRCLE
  5
44E
  8
GABARIT_INTERIEUR_18MM
 10
588.4216022746549
 20
2500.421602274655
 30
0.0
 40
114.4216022746549
  0
POLYLINE
  5
44F
  8
GABARIT_INTERIEUR_18MM
 66
1
 10
0.0
 20
0.0
 30
0.0
 70
1
  0
VERTEX
  5
451
  8
GABARIT_INTERIEUR_18MM
 10
534.8950579258124
 20
2437.985512482862
 30
0.0
 42
0.41421356237309503
 70
0
  0
VERTEX
  5
452
  8
GABARIT_INTERIEUR_18MM
 10
534.8950579258124
 20
2433.4600290832677
 30
0.0
 42
0.41421356237309503
 70
0
  0
VERTEX
  5
453
  8
GABARIT_INTERIEUR_18MM
 10
539.4205413254062
 20
2433.4600290832677
 30
0.0
 42
0.41421356237309503
 70
0
  0
VERTEX
  5
454
  8
GABARIT_INTERIEUR_18MM
 10
539.4205413254062
 20
2437.985512482862
 30
0.0
 70
0
  0
VERTEX
  5
455
  8
GABARIT_INTERIEUR_18MM
 10
563.8864359544608
 20
2462.4514071119165
 30
0.0
 42
0.41421356237309503
 70
0
  0
VERTEX
  5
456
  8
GABARIT_INTERIEUR_18MM
 10
568.4119193540544
 20
2462.451407111916
 30
0.0
 42
0.41421356237309503
 70
0
  0
VERTEX
  5
457
  8
GABARIT_INTERIEUR_18MM
 10
568.4119193540546
 20
2466.9768905115097
 30
0.0
 42
0.41421356237309503
 70
0
  0
VERTEX
  5
458
  8
GABARIT_INTERIEUR_18MM
 10
563.8864359544608
 20
2466.97689051151
 30
0.0
 70
0
  0
VERTEX
  5
459
  8
GABARIT_INTERIEUR_18MM
 10
554.9768905115103
 20
2475.886435954461
 30
0.0
 42
0.41421356237309503
 70
0
  0
VERTEX
  5
45A
  8
GABARIT_INTERIEUR_18MM
 10
554.9768905115104
 20
2480.411919354055
 30
0.0
 42
0.41421356237309503
 70
0
  0
VERTEX
  5
45B
  8
GABARIT_INTERIEUR_18MM
 10
550.4514071119165
 20
2480.411919354055
 30
0.0
 42
0.41421356237309503
 70
0
  0
VERTEX
  5
45C
  8
GABARIT_INTERIEUR_18MM
 10
550.4514071119164
 20
2475.886435954461
 30
0.0
 70
0
  0
VERTEX
  5
45D
  8
GABARIT_INTERIEUR_18MM
 10
525.9855124828619
 20
2451.4205413254062
 30
0.0
 42
0.41421356237309503
 70
0
  0
VERTEX
  5
45E
  8
GABARIT_INTERIEUR_18MM
 10
521.4600290832681
 20
2451.420541325406
 30
0.0
 42
0.41421356237309503
 70
0
  0
VERTEX
  5
45F
  8
GABARIT_INTERIEUR_18MM
 10
521.4600290832683
 20
2446.895057925812
 30
0.0
 42
0.41421356237309503
 70
0
  0
VERTEX
  5
460
  8
GABARIT_INTERIEUR_18MM
 10
525.9855124828619
 20
2446.8950579258126
 30
0.0
 70
0
  0
SEQEND
  5
450
  8
GABARIT_INTERIEUR_18MM
  0
POLYLINE
  5
461
  8
GABARIT_INTERIEUR_18MM
 66
1
 10
0.0
 20
0.0
 30
0.0
 70
1
  0
VERTEX
  5
463
  8
GABARIT_INTERIEUR_18MM
 10
621.8663140377995
 20
2524.956768594849
 30
0.0
 42
0.41421356237309503
 70
0
  0
VERTEX
  5
464
  8
GABARIT_INTERIEUR_18MM
 10
621.8663140377995
 20
2520.431285195255
 30
0.0
 42
0.41421356237309503
 70
0
  0
VERTEX
  5
465
  8
GABARIT_INTERIEUR_18MM
 10
626.3917974373933
 20
2520.431285195255
 30
0.0
 42
0.41421356237309503
 70
0
  0
VERTEX
  5
466
  8
GABARIT_INTERIEUR_18MM
 10
626.3917974373934
 20
2524.956768594849
 30
0.0
 70
0
  0
VERTEX
  5
467
  8
GABARIT_INTERIEUR_18MM
 10
650.857692066448
 20
2549.4226632239033
 30
0.0
 42
0.41421356237309503
 70
0
  0
VERTEX
  5
468
  8
GABARIT_INTERIEUR_18MM
 10
655.3831754660421
 20
2549.4226632239033
 30
0.0
 42
0.41421356237309503
 70
0
  0
VERTEX
  5
469
  8
GABARIT_INTERIEUR_18MM
 10
655.3831754660421
 20
2553.9481466234975
 30
0.0
 42
0.41421356237309503
 70
0
  0
VERTEX
  5
46A
  8
GABARIT_INTERIEUR_18MM
 10
650.857692066448
 20
2553.9481466234975
 30
0.0
 70
0
  0
VERTEX
  5
46B
  8
GABARIT_INTERIEUR_18MM
 10
641.9481466234975
 20
2562.857692066448
 30
0.0
 42
0.41421356237309503
 70
0
  0
VERTEX
  5
46C
  8
GABARIT_INTERIEUR_18MM
 10
641.9481466234975
 20
2567.3831754660423
 30
0.0
 42
0.41421356237309503
 70
0
  0
VERTEX
  5
46D
  8
GABARIT_INTERIEUR_18MM
 10
637.4226632239037
 20
2567.3831754660423
 30
0.0
 42
0.41421356237309503
 70
0
  0
VERTEX
  5
46E
  8
GABARIT_INTERIEUR_18MM
 10
637.4226632239036
 20
2562.857692066448
 30
0.0
 70
0
  0
VERTEX
  5
46F
  8
GABARIT_INTERIEUR_18MM
 10
612.956768594849
 20
2538.3917974373935
 30
0.0
 42
0.41421356237309503
 70
0
  0
VERTEX
  5
470
  8
GABARIT_INTERIEUR_18MM
 10
608.4312851952549
 20
2538.3917974373935
 30
0.0
 42
0.41421356237309503
 70
0
  0
VERTEX
  5
471
  8
GABARIT_INTERIEUR_18MM
 10
608.4312851952549
 20
2533.8663140377994
 30
0.0
 42
0.41421356237309503
 70
0
  0
VERTEX
  5
472
  8
GABARIT_INTERIEUR_18MM
 10
612.956768594849
 20
2533.8663140377994
 30
0.0
 70
0
  0
SEQEND
  5
462
  8
GABARIT_INTERIEUR_18MM
  0
POLYLINE
  5
473
  8
GABARIT_INTERIEUR_18MM
 66
1
 10
0.0
 20
0.0
 30
0.0
 70
1
  0
VERTEX
  5
475
  8
GABARIT_INTERIEUR_18MM
 10
650.857692066448
 20
2446.8950579258126
 30
0.0
 42
0.41421356237309503
 70
0
  0
VERTEX
  5
476
  8
GABARIT_INTERIEUR_18MM
 10
655.3831754660415
 20
2446.895057925812
 30
0.0
 42
0.41421356237309503
 70
0
  0
VERTEX
  5
477
  8
GABARIT_INTERIEUR_18MM
 10
655.3831754660417
 20
2451.420541325406
 30
0.0
 42
0.41421356237309503
 70
0
  0
VERTEX
  5
478
  8
GABARIT_INTERIEUR_18MM
 10
650.857692066448
 20
2451.4205413254062
 30
0.0
 70
0
  0
VERTEX
  5
479
  8
GABARIT_INTERIEUR_18MM
 10
626.3917974373934
 20
2475.886435954461
 30
0.0
 42
0.41421356237309503
 70
0
  0
VERTEX
  5
47A
  8
GABARIT_INTERIEUR_18MM
 10
626.3917974373935
 20
2480.411919354055
 30
0.0
 42
0.41421356237309503
 70
0
  0
VERTEX
  5
47B
  8
GABARIT_INTERIEUR_18MM
 10
621.8663140377996
 20
2480.411919354055
 30
0.0
 42
0.41421356237309503
 70
0
  0
VERTEX
  5
47C
  8
GABARIT_INTERIEUR_18MM
 10
621.8663140377995
 20
2475.886435954461
 30
0.0
 70
0
  0
VERTEX
  5
47D
  8
GABARIT_INTERIEUR_18MM
 10
612.956768594849
 20
2466.97689051151
 30
0.0
 42
0.41421356237309503
 70
0
  0
VERTEX
  5
47E
  8
GABARIT_INTERIEUR_18MM
 10
608.4312851952552
 20
2466.9768905115097
 30
0.0
 42
0.41421356237309503
 70
0
  0
VERTEX
  5
47F
  8
GABARIT_INTERIEUR_18MM
 10
608.4312851952554
 20
2462.451407111916
 30
0.0
 42
0.41421356237309503
 70
0
  0
VERTEX
  5
480
  8
GABARIT_INTERIEUR_18MM
 10
612.956768594849
 20
2462.4514071119165
 30
0.0
 70
0
  0
VERTEX
  5
481
  8
GABARIT_INTERIEUR_18MM
 10
637.4226632239036
 20
2437.985512482862
 30
0.0
 42
0.41421356237309503
 70
0
  0
VERTEX
  5
482
  8
GABARIT_INTERIEUR_18MM
 10
637.4226632239036
 20
2433.4600290832677
 30
0.0
 42
0.41421356237309503
 70
0
  0
VERTEX
  5
483
  8
GABARIT_INTERIEUR_18MM
 10
641.9481466234975
 20
2433.4600290832677
 30
0.0
 42
0.41421356237309503
 70
0
  0
VERTEX
  5
484
  8
GABARIT_INTERIEUR_18MM
 10
641.9481466234975
 20
2437.985512482862
 30
0.0
 70
0
  0
SEQEND
  5
474
  8
GABARIT_INTERIEUR_18MM
  0
POLYLINE
  5
485
  8
GABARIT_INTERIEUR_18MM
 66
1
 10
0.0
 20
0.0
 30
0.0
 70
1
  0
VERTEX
  5
487
  8
GABARIT_INTERIEUR_18MM
 10
563.8864359544608
 20
2533.8663140377994
 30
0.0
 42
0.41421356237309503
 70
0
  0
VERTEX
  5
488
  8
GABARIT_INTERIEUR_18MM
 10
568.4119193540549
 20
2533.8663140377994
 30
0.0
 42
0.41421356237309503
 70
0
  0
VERTEX
  5
489
  8
GABARIT_INTERIEUR_18MM
 10
568.4119193540549
 20
2538.3917974373935
 30
0.0
 42
0.41421356237309503
 70
0
  0
VERTEX
  5
48A
  8
GABARIT_INTERIEUR_18MM
 10
563.8864359544608
 20
2538.3917974373935
 30
0.0
 70
0
  0
VERTEX
  5
48B
  8
GABARIT_INTERIEUR_18MM
 10
539.4205413254062
 20
2562.857692066448
 30
0.0
 42
0.41421356237309503
 70
0
  0
VERTEX
  5
48C
  8
GABARIT_INTERIEUR_18MM
 10
539.4205413254062
 20
2567.3831754660423
 30
0.0
 42
0.41421356237309503
 70
0
  0
VERTEX
  5
48D
  8
GABARIT_INTERIEUR_18MM
 10
534.8950579258125
 20
2567.3831754660423
 30
0.0
 42
0.41421356237309503
 70
0
  0
VERTEX
  5
48E
  8
GABARIT_INTERIEUR_18MM
 10
534.8950579258124
 20
2562.857692066448
 30
0.0
 70
0
  0
VERTEX
  5
48F
  8
GABARIT_INTERIEUR_18MM
 10
525.9855124828619
 20
2553.9481466234975
 30
0.0
 42
0.41421356237309503
 70
0
  0
VERTEX
  5
490
  8
GABARIT_INTERIEUR_18MM
 10
521.4600290832677
 20
2553.9481466234975
 30
0.0
 42
0.41421356237309503
 70
0
  0
VERTEX
  5
491
  8
GABARIT_INTERIEUR_18MM
 10
521.4600290832677
 20
2549.4226632239033
 30
0.0
 42
0.41421356237309503
 70
0
  0
VERTEX
  5
492
  8
GABARIT_INTERIEUR_18MM
 10
525.9855124828619
 20
2549.4226632239033
 30
0.0
 70
0
  0
VERTEX
  5
493
  8
GABARIT_INTERIEUR_18MM
 10
550.4514071119164
 20
2524.956768594849
 30
0.0
 42
0.41421356237309503
 70
0
  0
VERTEX
  5
494
  8
GABARIT_INTERIEUR_18MM
 10
550.4514071119164
 20
2520.431285195255
 30
0.0
 42
0.41421356237309503
 70
0
  0
VERTEX
  5
495
  8
GABARIT_INTERIEUR_18MM
 10
554.9768905115102
 20
2520.431285195255
 30
0.0
 42
0.41421356237309503
 70
0
  0
VERTEX
  5
496
  8
GABARIT_INTERIEUR_18MM
 10
554.9768905115103
 20
2524.956768594849
 30
0.0
 70
0
  0
SEQEND
  5
486
  8
GABARIT_INTERIEUR_18MM
  0
ENDSEC
  0
EOF
