  0
SECTION
  2
HEADER
  9
$ACADVER
  1
AC1009
  9
$DWGCODEPAGE
  3
ANSI_1252
  9
$INSBASE
 10
0.0
 20
0.0
 30
0.0
  9
$EXTMIN
 10
0.0000
 20
0.0000
 30
0.0000
  9
$EXTMAX
 10
2440.0000
 20
2740.0000
 30
0.0000
  9
$LIMMIN
 10
0.0000
 20
0.0000
  9
$LIMMAX
 10
2440.0000
 20
2740.0000
  9
$ORTHOMODE
 70
0
  9
$REGENMODE
 70
1
  9
$FILLMODE
 70
1
  9
$DRAGMODE
 70
2
  9
$QTEXTMODE
 70
0
  9
$MIRRTEXT
 70
1
  9
$OSMODE
 70
20583
  9
$LTSCALE
 40
1.0
  9
$ATTMODE
 70
1
  9
$TEXTSIZE
 40
2.5
  9
$TRACEWID
 40
1.0
  9
$TEXTSTYLE
  7
Standard
  9
$CLAYER
  8
0
  9
$CELTYPE
  6
ByLayer
  9
$CECOLOR
 62
256
  9
$DIMSCALE
 40
1.0
  9
$DIMASZ
 40
2.5
  9
$DIMEXO
 40
0.625
  9
$DIMDLI
 40
3.75
  9
$DIMRND
 40
0.0
  9
$DIMDLE
 40
0.0
  9
$DIMEXE
 40
1.25
  9
$DIMTP
 40
0.0
  9
$DIMTM
 40
0.0
  9
$DIMTXT
 40
2.5
  9
$DIMCEN
 40
2.5
  9
$DIMTSZ
 40
0.0
  9
$DIMTOL
 70
0
  9
$DIMLIM
 70
0
  9
$DIMTIH
 70
0
  9
$DIMTOH
 70
0
  9
$DIMSE1
 70
0
  9
$DIMSE2
 70
0
  9
$DIMTAD
 70
1
  9
$DIMZIN
 70
8
  9
$DIMBLK
  1

  9
$DIMASO
 70
1
  9
$DIMSHO
 70
1
  9
$DIMPOST
  1

  9
$DIMAPOST
  1

  9
$DIMALT
 70
0
  9
$DIMALTD
 70
3
  9
$DIMALTF
 40
0.03937007874
  9
$DIMLFAC
 40
1.0
  9
$DIMTOFL
 70
1
  9
$DIMTVP
 40
0.0
  9
$DIMTIX
 70
0
  9
$DIMSOXD
 70
0
  9
$DIMSAH
 70
0
  9
$DIMBLK1
  1

  9
$DIMBLK2
  1

  9
$DIMSTYLE
  2
ISO-25
  9
$DIMCLRD
 70
0
  9
$DIMCLRE
 70
0
  9
$DIMCLRT
 70
0
  9
$DIMTFAC
 40
1.0
  9
$DIMGAP
 40
0.625
  9
$COORDS
 70
1
  9
$ATTDIA
 70
0
  9
$ATTREQ
 70
1
  9
$HANDLING
 70
1
  9
$LUNITS
 70
2
  9
$LUPREC
 70
4
  9
$SKETCHINC
 40
1.0
  9
$FILLETRAD
 40
10.0
  9
$AUNITS
 70
0
  9
$AUPREC
 70
2
  9
$MENU
  1
.
  9
$ELEVATION
 40
0.0
  9
$PELEVATION
 40
0.0
  9
$THICKNESS
 40
0.0
  9
$LIMCHECK
 70
0
  9
$CHAMFERA
 40
0.0
  9
$CHAMFERB
 40
0.0
  9
$SKPOLY
 70
0
  9
$TDCREATE
 40
2461315.6778472224
  9
$TDUPDATE
 40
2461315.6778472224
  9
$TDINDWG
 40
0.0
  9
$TDUSRTIMER
 40
0.0
  9
$USRTIMER
 70
1
  9
$ANGBASE
 50
0.0
  9
$ANGDIR
 70
0
  9
$PDMODE
 70
0
  9
$PDSIZE
 40
0.0
  9
$PLINEWID
 40
0.0
  9
$SPLFRAME
 70
0
  9
$SPLINETYPE
 70
6
  9
$SPLINESEGS
 70
8
  9
$HANDSEED
  5
495
  9
$SURFTAB1
 70
6
  9
$SURFTAB2
 70
6
  9
$SURFTYPE
 70
6
  9
$SURFU
 70
6
  9
$SURFV
 70
6
  9
$UCSNAME
  2

  9
$UCSORG
 10
0.0
 20
0.0
 30
0.0
  9
$UCSXDIR
 10
1.0
 20
0.0
 30
0.0
  9
$UCSYDIR
 10
0.0
 20
1.0
 30
0.0
  9
$PUCSNAME
  2

  9
$PUCSORG
 10
0.0
 20
0.0
 30
0.0
  9
$PUCSXDIR
 10
1.0
 20
0.0
 30
0.0
  9
$PUCSYDIR
 10
0.0
 20
1.0
 30
0.0
  9
$USERI1
 70
0
  9
$USERI2
 70
0
  9
$USERI3
 70
0
  9
$USERI4
 70
0
  9
$USERI5
 70
0
  9
$USERR1
 40
0.0
  9
$USERR2
 40
0.0
  9
$USERR3
 40
0.0
  9
$USERR4
 40
0.0
  9
$USERR5
 40
0.0
  9
$WORLDVIEW
 70
1
  9
$SHADEDGE
 70
3
  9
$SHADEDIF
 70
70
  9
$TILEMODE
 70
1
  9
$MAXACTVP
 70
64
  9
$PLIMCHECK
 70
0
  9
$PEXTMIN
 10
1e+20
 20
1e+20
 30
1e+20
  9
$PEXTMAX
 10
-1e+20
 20
-1e+20
 30
-1e+20
  9
$PLIMMIN
 10
0.0
 20
0.0
  9
$PLIMMAX
 10
420.0
 20
297.0
  9
$UNITMODE
 70
0
  9
$VISRETAIN
 70
1
  9
$PLINEGEN
 70
0
  9
$PSLTSCALE
 70
1
  0
ENDSEC
  0
SECTION
  2
TABLES
  0
TABLE
  2
VPORT
 70
1
  0
VPORT
  5
23
  2
*Active
 70
0
 10
0.0
 20
0.0
 11
1.0
 21
1.0
 12
0.0
 22
0.0
 13
0.0
 23
0.0
 14
0.5
 24
0.5
 15
0.5
 25
0.5
 16
0.0
 26
0.0
 36
1.0
 17
0.0
 27
0.0
 37
0.0
 40
1000.0
 41
1.34
 42
50.0
 43
0.0
 44
0.0
 50
0.0
 51
0.0
 71
0
 72
1000
 73
1
 74
3
 75
0
 76
0
 77
0
 78
0
  0
ENDTAB
  0
TABLE
  2
LTYPE
 70
3
  0
LTYPE
  5
24
  2
ByBlock
 70
0
  3

 72
65
 73
0
 40
0.0
  0
LTYPE
  5
25
  2
ByLayer
 70
0
  3

 72
65
 73
0
 40
0.0
  0
LTYPE
  5
26
  2
Continuous
 70
0
  3

 72
65
 73
0
 40
0.0
  0
ENDTAB
  0
TABLE
  2
LAYER
 70
8
  0
LAYER
  5
27
  2
0
 70
0
 62
7
  6
Continuous
  0
LAYER
  5
28
  2
Defpoints
 70
0
 62
7
  6
Continuous
  0
LAYER
  5
2D
  2
PIECE_5MM
 70
0
 62
1
  6
Continuous
  0
LAYER
  5
2E
  2
POCHE_KERF_3_5MM
 70
0
 62
6
  6
Continuous
  0
LAYER
  5
2F
  2
GABARIT_INTERIEUR_18MM
 70
0
 62
5
  6
Continuous
  0
LAYER
  5
30
  2
GABARIT_BAGUES_18MM
 70
0
 62
3
  6
Continuous
  0
LAYER
  5
31
  2
PLANCHE_5MM
 70
0
 62
8
  6
Continuous
  0
LAYER
  5
32
  2
PLANCHE_18MM
 70
0
 62
8
  6
Continuous
  0
ENDTAB
  0
TABLE
  2
STYLE
 70
1
  0
STYLE
  5
29
  2
Standard
 70
0
 40
0.0
 41
1.0
 50
0.0
 71
0
 42
2.5
  3
txt
  4

  0
ENDTAB
  0
TABLE
  2
VIEW
 70
0
  0
ENDTAB
  0
TABLE
  2
UCS
 70
0
  0
ENDTAB
  0
TABLE
  2
APPID
 70
3
  0
APPID
  5
2A
  2
ACAD
 70
0
  0
APPID
  5
493
  2
HATCHBACKGROUNDCOLOR
 70
0
  0
APPID
  5
494
  2
EZDXF
 70
0
  0
ENDTAB
  0
TABLE
  2
DIMSTYLE
 70
1
  0
DIMSTYLE
105
2B
  2
Standard
 70
0
  3

  4

  5

  6

  7

 40
1.0
 41
2.5
 42
0.625
 43
3.75
 44
1.25
 45
0.0
 46
0.0
 47
0.0
 48
0.0
140
2.5
141
2.5
142
0.0
143
0.03937007874
144
1.0
145
0.0
146
1.0
147
0.625
 71
0
 72
0
 73
0
 74
0
 75
0
 76
0
 77
1
 78
8
170
0
171
3
172
1
173
0
174
0
175
0
176
0
177
0
178
0
  0
ENDTAB
  0
ENDSEC
  0
SECTION
  2
BLOCKS
  0
BLOCK
  5
18
  8
0
  2
$Model_Space
 70
0
 10
0.0
 20
0.0
 30
0.0
  3
$Model_Space
  1

1001
EZDXF
1000
CREATED_BY_EZDXF
1000
1.4.4 @ 2026-10-01T16:16:06.152605+00:00
1000
WRITTEN_BY_EZDXF
1000
1.4.4 @ 2026-10-01T16:16:06.205268+00:00
  0
ENDBLK
  5
19
  8
0
  0
BLOCK
  5
1C
  8
0
  2
$Paper_Space
 70
0
 10
0.0
 20
0.0
 30
0.0
  3
$Paper_Space
  1

  0
ENDBLK
  5
1D
  8
0
  0
ENDSEC
  0
SECTION
  2
ENTITIES
  0
POLYLINE
  5
33
  8
PLANCHE_5MM
 66
1
 10
0.0
 20
0.0
 30
0.0
 70
1
  0
VERTEX
  5
35
  8
PLANCHE_5MM
 10
0.0
 20
0.0
 30
0.0
 70
0
  0
VERTEX
  5
36
  8
PLANCHE_5MM
 10
2440.0
 20
0.0
 30
0.0
 70
0
  0
VERTEX
  5
37
  8
PLANCHE_5MM
 10
2440.0
 20
1220.0
 30
0.0
 70
0
  0
VERTEX
  5
38
  8
PLANCHE_5MM
 10
0.0
 20
1220.0
 30
0.0
 70
0
  0
SEQEND
  5
34
  8
PLANCHE_5MM
  0
POLYLINE
  5
39
  8
PIECE_5MM
 66
1
 10
0.0
 20
0.0
 30
0.0
 70
1
  0
VERTEX
  5
3B
  8
PIECE_5MM
 10
804.6808360041198
 20
18.0
 30
0.0
 70
0
  0
VERTEX
  5
3C
  8
PIECE_5MM
 10
1141.829765720171
 20
339.2951901154468
 30
0.0
 42
0.20517629136539733
 70
0
  0
VERTEX
  5
3D
  8
PIECE_5MM
 10
579.9148828600853
 20
580.0119414027035
 30
0.0
 42
0.20517629136539733
 70
0
  0
VERTEX
  5
3E
  8
PIECE_5MM
 10
18.0
 20
339.2951901154468
 30
0.0
 70
0
  0
VERTEX
  5
3F
  8
PIECE_5MM
 10
355.14892971605127
 20
18.0
 30
0.0
 42
-0.20517629136539733
 70
0
  0
VERTEX
  5
40
  8
PIECE_5MM
 10
579.9148828600855
 20
114.28670051490266
 30
0.0
 42
-0.20517629136539733
 70
0
  0
SEQEND
  5
3A
  8
PIECE_5MM
  0
POLYLINE
  5
41
  8
POCHE_KERF_3_5MM
 66
1
 10
0.0
 20
0.0
 30
0.0
 70
1
  0
VERTEX
  5
43
  8
POCHE_KERF_3_5MM
 10
792.0248898292907
 20
22.271838242901584
 30
0.0
 70
0
  0
VERTEX
  5
44
  8
POCHE_KERF_3_5MM
 10
796.2883280574417
 20
18.050097550397982
 30
0.0
 70
0
  0
VERTEX
  5
45
  8
POCHE_KERF_3_5MM
 10
1132.4270096061252
 20
357.508773309348
 30
0.0
 70
0
  0
VERTEX
  5
46
  8
POCHE_KERF_3_5MM
 10
1128.1635713779742
 20
361.73051400185153
 30
0.0
 70
0
  0
SEQEND
  5
42
  8
POCHE_KERF_3_5MM
  0
POLYLINE
  5
47
  8
POCHE_KERF_3_5MM
 66
1
 10
0.0
 20
0.0
 30
0.0
 70
1
  0
VERTEX
  5
49
  8
POCHE_KERF_3_5MM
 10
1012.6854145148793
 20
262.16456980075765
 30
0.0
 70
0
  0
VERTEX
  5
4A
  8
POCHE_KERF_3_5MM
 10
1017.0284413110769
 20
258.02474876024024
 30
0.0
 70
0
  0
VERTEX
  5
4B
  8
POCHE_KERF_3_5MM
 10
1121.7870926674163
 20
367.92554532153804
 30
0.0
 70
0
  0
VERTEX
  5
4C
  8
POCHE_KERF_3_5MM
 10
1117.4440658712188
 20
372.06536636205556
 30
0.0
 70
0
  0
SEQEND
  5
48
  8
POCHE_KERF_3_5MM
  0
POLYLINE
  5
4D
  8
POCHE_KERF_3_5MM
 66
1
 10
0.0
 20
0.0
 30
0.0
 70
1
  0
VERTEX
  5
4F
  8
POCHE_KERF_3_5MM
 10
783.555566738048
 20
30.18710606714594
 30
0.0
 70
0
  0
VERTEX
  5
50
  8
POCHE_KERF_3_5MM
 10
787.9766083378225
 20
26.13070480826351
 30
0.0
 70
0
  0
VERTEX
  5
51
  8
POCHE_KERF_3_5MM
 10
1110.9508197606856
 20
378.1378986794783
 30
0.0
 70
0
  0
VERTEX
  5
52
  8
POCHE_KERF_3_5MM
 10
1106.529778160911
 20
382.1942999383608
 30
0.0
 70
0
  0
SEQEND
  5
4E
  8
POCHE_KERF_3_5MM
  0
POLYLINE
  5
53
  8
POCHE_KERF_3_5MM
 66
1
 10
0.0
 20
0.0
 30
0.0
 70
1
  0
VERTEX
  5
55
  8
POCHE_KERF_3_5MM
 10
994.9251023652007
 20
278.30504015811545
 30
0.0
 70
0
  0
VERTEX
  5
56
  8
POCHE_KERF_3_5MM
 10
999.4225567341848
 20
274.3335285820394
 30
0.0
 70
0
  0
VERTEX
  5
57
  8
POCHE_KERF_3_5MM
 10
1099.9221175808586
 20
388.14213277536265
 30
0.0
 70
0
  0
VERTEX
  5
58
  8
POCHE_KERF_3_5MM
 10
1095.4246632118748
 20
392.11364435143884
 30
0.0
 70
0
  0
SEQEND
  5
54
  8
POCHE_KERF_3_5MM
  0
POLYLINE
  5
59
  8
POCHE_KERF_3_5MM
 66
1
 10
0.0
 20
0.0
 30
0.0
 70
1
  0
VERTEX
  5
5B
  8
POCHE_KERF_3_5MM
 10
774.7911006924917
 20
37.774268467521075
 30
0.0
 70
0
  0
VERTEX
  5
5C
  8
POCHE_KERF_3_5MM
 10
779.3633381069417
 20
33.88908571430293
 30
0.0
 70
0
  0
VERTEX
  5
5D
  8
POCHE_KERF_3_5MM
 10
1088.704982552652
 20
397.93462241669283
 30
0.0
 70
0
  0
VERTEX
  5
5E
  8
POCHE_KERF_3_5MM
 10
1084.132745138202
 20
401.81980516991086
 30
0.0
 70
0
  0
SEQEND
  5
5A
  8
POCHE_KERF_3_5MM
  0
POLYLINE
  5
5F
  8
POCHE_KERF_3_5MM
 66
1
 10
0.0
 20
0.0
 30
0.0
 70
1
  0
VERTEX
  5
61
  8
POCHE_KERF_3_5MM
 10
976.563302634934
 20
293.7577998364496
 30
0.0
 70
0
  0
VERTEX
  5
62
  8
POCHE_KERF_3_5MM
 10
981.2086662722868
 20
289.96035376352637
 30
0.0
 70
0
  0
VERTEX
  5
63
  8
POCHE_KERF_3_5MM
 10
1077.3034793824058
 20
407.5118191399227
 30
0.0
 70
0
  0
VERTEX
  5
64
  8
POCHE_KERF_3_5MM
 10
1072.658115745053
 20
411.309265212846
 30
0.0
 70
0
  0
SEQEND
  5
60
  8
POCHE_KERF_3_5MM
  0
POLYLINE
  5
65
  8
POCHE_KERF_3_5MM
 66
1
 10
0.0
 20
0.0
 30
0.0
 70
1
  0
VERTEX
  5
67
  8
POCHE_KERF_3_5MM
 10
765.7441943134951
 20
45.02232912696971
 30
0.0
 70
0
  0
VERTEX
  5
68
  8
POCHE_KERF_3_5MM
 10
770.4610008527438
 20
41.313995799004175
 30
0.0
 70
0
  0
VERTEX
  5
69
  8
POCHE_KERF_3_5MM
 10
1065.7217395851742
 20
416.8702524963022
 30
0.0
 70
0
  0
VERTEX
  5
6A
  8
POCHE_KERF_3_5MM
 10
1061.0049330459256
 20
420.57858582426763
 30
0.0
 70
0
  0
SEQEND
  5
66
  8
POCHE_KERF_3_5MM
  0
POLYLINE
  5
6B
  8
POCHE_KERF_3_5MM
 66
1
 10
0.0
 20
0.0
 30
0.0
 70
1
  0
VERTEX
  5
6D
  8
POCHE_KERF_3_5MM
 10
957.6266276675251
 20
308.50045265707445
 30
0.0
 70
0
  0
VERTEX
  5
6E
  8
POCHE_KERF_3_5MM
 10
962.4131678991972
 20
304.8825758473165
 30
0.0
 70
0
  0
VERTEX
  5
6F
  8
POCHE_KERF_3_5MM
 10
1053.9639599876034
 20
426.0065313094474
 30
0.0
 70
0
  0
VERTEX
  5
70
  8
POCHE_KERF_3_5MM
 10
1049.1774197559314
 20
429.6244081192053
 30
0.0
 70
0
  0
SEQEND
  5
6C
  8
POCHE_KERF_3_5MM
  0
POLYLINE
  5
71
  8
POCHE_KERF_3_5MM
 66
1
 10
0.0
 20
0.0
 30
0.0
 70
1
  0
VERTEX
  5
73
  8
POCHE_KERF_3_5MM
 10
756.4279595717373
 20
51.92078319942985
 30
0.0
 70
0
  0
VERTEX
  5
74
  8
POCHE_KERF_3_5MM
 10
761.2824990172535
 20
48.39467390277875
 30
0.0
 70
0
  0
VERTEX
  5
75
  8
POCHE_KERF_3_5MM
 10
1042.034401207147
 20
434.91734490418787
 30
0.0
 70
0
  0
VERTEX
  5
76
  8
POCHE_KERF_3_5MM
 10
1037.1798617616312
 20
438.443454200839
 30
0.0
 70
0
  0
SEQEND
  5
72
  8
POCHE_KERF_3_5MM
  0
POLYLINE
  5
77
  8
POCHE_KERF_3_5MM
 66
1
 10
0.0
 20
0.0
 30
0.0
 70
1
  0
VERTEX
  5
79
  8
POCHE_KERF_3_5MM
 10
938.142522991482
 20
322.5116316218785
 30
0.0
 70
0
  0
VERTEX
  5
7A
  8
POCHE_KERF_3_5MM
 10
943.0633025316716
 20
319.0785675798234
 30
0.0
 70
0
  0
VERTEX
  5
7B
  8
POCHE_KERF_3_5MM
 10
1029.9373861081633
 20
443.5994643062426
 30
0.0
 70
0
  0
VERTEX
  5
7C
  8
POCHE_KERF_3_5MM
 10
1025.0166065679737
 20
447.0325283482977
 30
0.0
 70
0
  0
SEQEND
  5
78
  8
POCHE_KERF_3_5MM
  0
POLYLINE
  5
7D
  8
POCHE_KERF_3_5MM
 66
1
 10
0.0
 20
0.0
 30
0.0
 70
1
  0
VERTEX
  5
7F
  8
POCHE_KERF_3_5MM
 10
746.8558987841054
 20
58.459632534844474
 30
0.0
 70
0
  0
VERTEX
  5
80
  8
POCHE_KERF_3_5MM
 10
751.841135296652
 20
55.12085777245457
 30
0.0
 70
0
  0
VERTEX
  5
81
  8
POCHE_KERF_3_5MM
 10
1017.6772982354563
 20
452.04974341228893
 30
0.0
 70
0
  0
VERTEX
  5
82
  8
POCHE_KERF_3_5MM
 10
1012.6920617229097
 20
455.38851817467884
 30
0.0
 70
0
  0
SEQEND
  5
7E
  8
POCHE_KERF_3_5MM
  0
POLYLINE
  5
83
  8
POCHE_KERF_3_5MM
 66
1
 10
0.0
 20
0.0
 30
0.0
 70
1
  0
VERTEX
  5
85
  8
POCHE_KERF_3_5MM
 10
918.1392275426927
 20
335.77102988119697
 30
0.0
 70
0
  0
VERTEX
  5
86
  8
POCHE_KERF_3_5MM
 10
923.1871145482762
 20
332.52775425632905
 30
0.0
 70
0
  0
VERTEX
  5
87
  8
POCHE_KERF_3_5MM
 10
1005.2585802258302
 20
460.26512013000325
 30
0.0
 70
0
  0
VERTEX
  5
88
  8
POCHE_KERF_3_5MM
 10
1000.2106932202469
 20
463.5083957548712
 30
0.0
 70
0
  0
SEQEND
  5
84
  8
POCHE_KERF_3_5MM
  0
POLYLINE
  5
89
  8
POCHE_KERF_3_5MM
 66
1
 10
0.0
 20
0.0
 30
0.0
 70
1
  0
VERTEX
  5
8B
  8
POCHE_KERF_3_5MM
 10
737.0418850443538
 20
64.6294001697998
 30
0.0
 70
0
  0
VERTEX
  5
8C
  8
POCHE_KERF_3_5MM
 10
742.1505933612564
 20
61.48279893468754
 30
0.0
 70
0
  0
VERTEX
  5
8D
  8
POCHE_KERF_3_5MM
 10
992.6857321982286
 20
468.24261748765906
 30
0.0
 70
0
  0
VERTEX
  5
8E
  8
POCHE_KERF_3_5MM
 10
987.5770238813259
 20
471.3892187227713
 30
0.0
 70
0
  0
SEQEND
  5
8A
  8
POCHE_KERF_3_5MM
  0
POLYLINE
  5
8F
  8
POCHE_KERF_3_5MM
 66
1
 10
0.0
 20
0.0
 30
0.0
 70
1
  0
VERTEX
  5
91
  8
POCHE_KERF_3_5MM
 10
897.645732736833
 20
348.25943016517925
 30
0.0
 70
0
  0
VERTEX
  5
92
  8
POCHE_KERF_3_5MM
 10
902.8134111437729
 20
345.21064354056165
 30
0.0
 70
0
  0
VERTEX
  5
93
  8
POCHE_KERF_3_5MM
 10
979.9633101230451
 20
475.97934471287937
 30
0.0
 70
0
  0
VERTEX
  5
94
  8
POCHE_KERF_3_5MM
 10
974.7956317161052
 20
479.028131337497
 30
0.0
 70
0
  0
SEQEND
  5
90
  8
POCHE_KERF_3_5MM
  0
POLYLINE
  5
95
  8
POCHE_KERF_3_5MM
 66
1
 10
0.0
 20
0.0
 30
0.0
 70
1
  0
VERTEX
  5
97
  8
POCHE_KERF_3_5MM
 10
727.000142116387
 20
70.42114406279147
 30
0.0
 70
0
  0
VERTEX
  5
98
  8
POCHE_KERF_3_5MM
 10
732.2249180233371
 20
67.47127682473585
 30
0.0
 70
0
  0
VERTEX
  5
99
  8
POCHE_KERF_3_5MM
 10
967.0959241711967
 20
483.4724982801534
 30
0.0
 70
0
  0
VERTEX
  5
9A
  8
POCHE_KERF_3_5MM
 10
961.8711482642466
 20
486.4223655182091
 30
0.0
 70
0
  0
SEQEND
  5
96
  8
POCHE_KERF_3_5MM
  0
POLYLINE
  5
9B
  8
POCHE_KERF_3_5MM
 66
1
 10
0.0
 20
0.0
 30
0.0
 70
1
  0
VERTEX
  5
9D
  8
POCHE_KERF_3_5MM
 10
876.6917404511801
 20
359.9587326359919
 30
0.0
 70
0
  0
VERTEX
  5
9E
  8
POCHE_KERF_3_5MM
 10
881.9717205779307
 20
357.108853715561
 30
0.0
 70
0
  0
VERTEX
  5
9F
  8
POCHE_KERF_3_5MM
 10
954.0882370435539
 20
490.71936292673917
 30
0.0
 70
0
  0
VERTEX
  5
A0
  8
POCHE_KERF_3_5MM
 10
948.8082569168032
 20
493.5692418471701
 30
0.0
 70
0
  0
SEQEND
  5
9C
  8
POCHE_KERF_3_5MM
  0
POLYLINE
  5
A1
  8
POCHE_KERF_3_5MM
 66
1
 10
0.0
 20
0.0
 30
0.0
 70
1
  0
VERTEX
  5
A3
  8
POCHE_KERF_3_5MM
 10
716.7452238193036
 20
75.82647005421124
 30
0.0
 70
0
  0
VERTEX
  5
A4
  8
POCHE_KERF_3_5MM
 10
722.0784948815233
 20
73.07761215011878
 30
0.0
 70
0
  0
VERTEX
  5
A5
  8
POCHE_KERF_3_5MM
 10
940.9449622813383
 20
497.71731263658165
 30
0.0
 70
0
  0
VERTEX
  5
A6
  8
POCHE_KERF_3_5MM
 10
935.6116912191189
 20
500.466170540674
 30
0.0
 70
0
  0
SEQEND
  5
A2
  8
POCHE_KERF_3_5MM
  0
POLYLINE
  5
A7
  8
POCHE_KERF_3_5MM
 66
1
 10
0.0
 20
0.0
 30
0.0
 70
1
  0
VERTEX
  5
A9
  8
POCHE_KERF_3_5MM
 10
855.3076199767324
 20
370.8519811204929
 30
0.0
 70
0
  0
VERTEX
  5
AA
  8
POCHE_KERF_3_5MM
 10
860.6922493792752
 20
368.2051403248893
 30
0.0
 70
0
  0
VERTEX
  5
AB
  8
POCHE_KERF_3_5MM
 10
927.6708625580958
 20
504.4638115918908
 30
0.0
 70
0
  0
VERTEX
  5
AC
  8
POCHE_KERF_3_5MM
 10
922.286233155553
 20
507.1106523874944
 30
0.0
 70
0
  0
SEQEND
  5
A8
  8
POCHE_KERF_3_5MM
  0
POLYLINE
  5
AD
  8
POCHE_KERF_3_5MM
 66
1
 10
0.0
 20
0.0
 30
0.0
 70
1
  0
VERTEX
  5
AF
  8
POCHE_KERF_3_5MM
 10
706.2919929340802
 20
80.83754403227093
 30
0.0
 70
0
  0
VERTEX
  5
B0
  8
POCHE_KERF_3_5MM
 10
711.7260294712937
 20
78.2936794697936
 30
0.0
 70
0
  0
VERTEX
  5
B1
  8
POCHE_KERF_3_5MM
 10
914.2707479538664
 20
510.9564150920361
 30
0.0
 70
0
  0
VERTEX
  5
B2
  8
POCHE_KERF_3_5MM
 10
908.836711416653
 20
513.5002796545135
 30
0.0
 70
0
  0
SEQEND
  5
AE
  8
POCHE_KERF_3_5MM
  0
POLYLINE
  5
B3
  8
POCHE_KERF_3_5MM
 66
1
 10
0.0
 20
0.0
 30
0.0
 70
1
  0
VERTEX
  5
B5
  8
POCHE_KERF_3_5MM
 10
833.5243640030257
 20
380.9233876853547
 30
0.0
 70
0
  0
VERTEX
  5
B6
  8
POCHE_KERF_3_5MM
 10
839.0058385658003
 20
378.48342116557336
 30
0.0
 70
0
  0
VERTEX
  5
B7
  8
POCHE_KERF_3_5MM
 10
900.7494742121766
 20
517.1927704394215
 30
0.0
 70
0
  0
VERTEX
  5
B8
  8
POCHE_KERF_3_5MM
 10
895.267999649402
 20
519.6327369592028
 30
0.0
 70
0
  0
SEQEND
  5
B4
  8
POCHE_KERF_3_5MM
  0
POLYLINE
  5
B9
  8
POCHE_KERF_3_5MM
 66
1
 10
0.0
 20
0.0
 30
0.0
 70
1
  0
VERTEX
  5
BB
  8
POCHE_KERF_3_5MM
 10
695.6555996624684
 20
85.44710328723082
 30
0.0
 70
0
  0
VERTEX
  5
BC
  8
POCHE_KERF_3_5MM
 10
701.1825259517757
 20
83.11191897061602
 30
0.0
 70
0
  0
VERTEX
  5
BD
  8
POCHE_KERF_3_5MM
 10
887.1119409804824
 20
523.1706177920233
 30
0.0
 70
0
  0
VERTEX
  5
BE
  8
POCHE_KERF_3_5MM
 10
881.585014691175
 20
525.5058021086382
 30
0.0
 70
0
  0
SEQEND
  5
BA
  8
POCHE_KERF_3_5MM
  0
POLYLINE
  5
BF
  8
POCHE_KERF_3_5MM
 66
1
 10
0.0
 20
0.0
 30
0.0
 70
1
  0
VERTEX
  5
C1
  8
POCHE_KERF_3_5MM
 10
811.3735436994364
 20
390.15835551902165
 30
0.0
 70
0
  0
VERTEX
  5
C2
  8
POCHE_KERF_3_5MM
 10
816.9439189460954
 20
387.9287995965547
 30
0.0
 70
0
  0
VERTEX
  5
C3
  8
POCHE_KERF_3_5MM
 10
873.3630900347055
 20
528.88779098228
 30
0.0
 70
0
  0
VERTEX
  5
C4
  8
POCHE_KERF_3_5MM
 10
867.7927147880464
 20
531.1173469047469
 30
0.0
 70
0
  0
SEQEND
  5
C0
  8
POCHE_KERF_3_5MM
  0
POLYLINE
  5
C5
  8
POCHE_KERF_3_5MM
 66
1
 10
0.0
 20
0.0
 30
0.0
 70
1
  0
VERTEX
  5
C7
  8
POCHE_KERF_3_5MM
 10
684.8514596693228
 20
89.64846703747774
 30
0.0
 70
0
  0
VERTEX
  5
C8
  8
POCHE_KERF_3_5MM
 10
690.4632653597358
 20
87.52534742402018
 30
0.0
 70
0
  0
VERTEX
  5
C9
  8
POCHE_KERF_3_5MM
 10
859.5079034885026
 20
534.3422183020361
 30
0.0
 70
0
  0
VERTEX
  5
CA
  8
POCHE_KERF_3_5MM
 10
853.8960977980897
 20
536.4653379154936
 30
0.0
 70
0
  0
SEQEND
  5
C6
  8
POCHE_KERF_3_5MM
  0
POLYLINE
  5
CB
  8
POCHE_KERF_3_5MM
 66
1
 10
0.0
 20
0.0
 30
0.0
 70
1
  0
VERTEX
  5
CD
  8
POCHE_KERF_3_5MM
 10
788.8872629580765
 20
398.5435000873354
 30
0.0
 70
0
  0
VERTEX
  5
CE
  8
POCHE_KERF_3_5MM
 10
794.5384655656688
 20
396.52758612886856
 30
0.0
 70
0
  0
VERTEX
  5
CF
  8
POCHE_KERF_3_5MM
 10
845.5514019879181
 20
539.5319232532594
 30
0.0
 70
0
  0
VERTEX
  5
D0
  8
POCHE_KERF_3_5MM
 10
839.9001993803256
 20
541.5478372117262
 30
0.0
 70
0
  0
SEQEND
  5
CC
  8
POCHE_KERF_3_5MM
  0
POLYLINE
  5
D1
  8
POCHE_KERF_3_5MM
 66
1
 10
0.0
 20
0.0
 30
0.0
 70
1
  0
VERTEX
  5
D3
  8
POCHE_KERF_3_5MM
 10
673.8952317401852
 20
93.4355461121946
 30
0.0
 70
0
  0
VERTEX
  5
D4
  8
POCHE_KERF_3_5MM
 10
679.583783462286
 20
91.52756830703444
 30
0.0
 70
0
  0
VERTEX
  5
D5
  8
POCHE_KERF_3_5MM
 10
831.4986428920715
 20
544.4550252642559
 30
0.0
 70
0
  0
VERTEX
  5
D6
  8
POCHE_KERF_3_5MM
 10
825.8100911699707
 20
546.363003069416
 30
0.0
 70
0
  0
SEQEND
  5
D2
  8
POCHE_KERF_3_5MM
  0
POLYLINE
  5
D7
  8
POCHE_KERF_3_5MM
 66
1
 10
0.0
 20
0.0
 30
0.0
 70
1
  0
VERTEX
  5
D9
  8
POCHE_KERF_3_5MM
 10
766.0981118645968
 20
406.06666853216797
 30
0.0
 70
0
  0
VERTEX
  5
DA
  8
POCHE_KERF_3_5MM
 10
771.8219513644926
 20
404.26731826625763
 30
0.0
 70
0
  0
VERTEX
  5
DB
  8
POCHE_KERF_3_5MM
 10
817.3547184405461
 20
549.1097403711256
 30
0.0
 70
0
  0
VERTEX
  5
DC
  8
POCHE_KERF_3_5MM
 10
811.6308789406503
 20
550.9090906370359
 30
0.0
 70
0
  0
SEQEND
  5
D8
  8
POCHE_KERF_3_5MM
  0
POLYLINE
  5
DD
  8
POCHE_KERF_3_5MM
 66
1
 10
0.0
 20
0.0
 30
0.0
 70
1
  0
VERTEX
  5
DF
  8
POCHE_KERF_3_5MM
 10
662.8027950865053
 20
96.8028517765913
 30
0.0
 70
0
  0
VERTEX
  5
E0
  8
POCHE_KERF_3_5MM
 10
668.5598482403984
 20
95.11278107296687
 30
0.0
 70
0
  0
VERTEX
  5
E1
  8
POCHE_KERF_3_5MM
 10
803.1247539081336
 20
553.4943818642079
 30
0.0
 70
0
  0
VERTEX
  5
E2
  8
POCHE_KERF_3_5MM
 10
797.3677007542406
 20
555.1844525678324
 30
0.0
 70
0
  0
SEQEND
  5
DE
  8
POCHE_KERF_3_5MM
  0
POLYLINE
  5
E3
  8
POCHE_KERF_3_5MM
 66
1
 10
0.0
 20
0.0
 30
0.0
 70
1
  0
VERTEX
  5
E5
  8
POCHE_KERF_3_5MM
 10
743.039119464333
 20
412.7169572849477
 30
0.0
 70
0
  0
VERTEX
  5
E6
  8
POCHE_KERF_3_5MM
 10
748.8273001129323
 20
411.1367785674665
 30
0.0
 70
0
  0
VERTEX
  5
E7
  8
POCHE_KERF_3_5MM
 10
788.8139057476105
 20
557.6073608992903
 30
0.0
 70
0
  0
VERTEX
  5
E8
  8
POCHE_KERF_3_5MM
 10
783.0257250990112
 20
559.1875396167715
 30
0.0
 70
0
  0
SEQEND
  5
E4
  8
POCHE_KERF_3_5MM
  0
POLYLINE
  5
E9
  8
POCHE_KERF_3_5MM
 66
1
 10
0.0
 20
0.0
 30
0.0
 70
1
  0
VERTEX
  5
EB
  8
POCHE_KERF_3_5MM
 10
651.5902263313933
 20
99.74550368690262
 30
0.0
 70
0
  0
VERTEX
  5
EC
  8
POCHE_KERF_3_5MM
 10
657.4074370358677
 20
98.27578955832263
 30
0.0
 70
0
  0
VERTEX
  5
ED
  8
POCHE_KERF_3_5MM
 10
774.4273597212153
 20
561.4471870733489
 30
0.0
 70
0
  0
VERTEX
  5
EE
  8
POCHE_KERF_3_5MM
 10
768.6101490167408
 20
562.916901201929
 30
0.0
 70
0
  0
SEQEND
  5
EA
  8
POCHE_KERF_3_5MM
  0
POLYLINE
  5
EF
  8
POCHE_KERF_3_5MM
 66
1
 10
0.0
 20
0.0
 30
0.0
 70
1
  0
VERTEX
  5
F1
  8
POCHE_KERF_3_5MM
 10
719.7437058922549
 20
418.48472786955034
 30
0.0
 70
0
  0
VERTEX
  5
F2
  8
POCHE_KERF_3_5MM
 10
725.5878386942734
 20
417.12601090403786
 30
0.0
 70
0
  0
VERTEX
  5
F3
  8
POCHE_KERF_3_5MM
 10
759.9703290215056
 20
565.0124689646209
 30
0.0
 70
0
  0
VERTEX
  5
F4
  8
POCHE_KERF_3_5MM
 10
754.126196219487
 20
566.3711859301334
 30
0.0
 70
0
  0
SEQEND
  5
F0
  8
POCHE_KERF_3_5MM
  0
POLYLINE
  5
F5
  8
POCHE_KERF_3_5MM
 66
1
 10
0.0
 20
0.0
 30
0.0
 70
1
  0
VERTEX
  5
F7
  8
POCHE_KERF_3_5MM
 10
640.273776209254
 20
102.25923696362726
 30
0.0
 70
0
  0
VERTEX
  5
F8
  8
POCHE_KERF_3_5MM
 10
646.1427133948375
 20
101.01200951377065
 30
0.0
 70
0
  0
VERTEX
  5
F9
  8
POCHE_KERF_3_5MM
 10
745.4480523822762
 20
568.301914636808
 30
0.0
 70
0
  0
VERTEX
  5
FA
  8
POCHE_KERF_3_5MM
 10
739.5791151966927
 20
569.5491420866646
 30
0.0
 70
0
  0
SEQEND
  5
F6
  8
POCHE_KERF_3_5MM
  0
POLYLINE
  5
FB
  8
POCHE_KERF_3_5MM
 66
1
 10
0.0
 20
0.0
 30
0.0
 70
1
  0
VERTEX
  5
FD
  8
POCHE_KERF_3_5MM
 10
696.2456339360955
 20
423.3616208716498
 30
0.0
 70
0
  0
VERTEX
  5
FE
  8
POCHE_KERF_3_5MM
 10
702.137248803004
 20
422.22633489004755
 30
0.0
 70
0
  0
VERTEX
  5
FF
  8
POCHE_KERF_3_5MM
 10
730.8657921802198
 20
571.314332107229
 30
0.0
 70
0
  0
VERTEX
  5
100
  8
POCHE_KERF_3_5MM
 10
724.9741773133113
 20
572.4496180888312
 30
0.0
 70
0
  0
SEQEND
  5
FC
  8
POCHE_KERF_3_5MM
  0
POLYLINE
  5
101
  8
POCHE_KERF_3_5MM
 66
1
 10
0.0
 20
0.0
 30
0.0
 70
1
  0
VERTEX
  5
103
  8
POCHE_KERF_3_5MM
 10
628.8698460130801
 20
104.34040837275352
 30
0.0
 70
0
  0
VERTEX
  5
104
  8
POCHE_KERF_3_5MM
 10
634.7820036414572
 20
103.31747524824202
 30
0.0
 70
0
  0
VERTEX
  5
105
  8
POCHE_KERF_3_5MM
 10
716.2288325280222
 20
574.0486297787551
 30
0.0
 70
0
  0
VERTEX
  5
106
  8
POCHE_KERF_3_5MM
 10
710.3166748996451
 20
575.0715629032667
 30
0.0
 70
0
  0
SEQEND
  5
102
  8
POCHE_KERF_3_5MM
  0
POLYLINE
  5
107
  8
POCHE_KERF_3_5MM
 66
1
 10
0.0
 20
0.0
 30
0.0
 70
1
  0
VERTEX
  5
109
  8
POCHE_KERF_3_5MM
 10
672.578960102864
 20
427.3405680542855
 30
0.0
 70
0
  0
VERTEX
  5
10A
  8
POCHE_KERF_3_5MM
 10
678.5095181288584
 20
426.43035846286597
 30
0.0
 70
0
  0
VERTEX
  5
10B
  8
POCHE_KERF_3_5MM
 10
701.5424773595801
 20
576.5038168353669
 30
0.0
 70
0
  0
VERTEX
  5
10C
  8
POCHE_KERF_3_5MM
 10
695.6119193335855
 20
577.4140264267864
 30
0.0
 70
0
  0
SEQEND
  5
108
  8
POCHE_KERF_3_5MM
  0
POLYLINE
  5
10D
  8
POCHE_KERF_3_5MM
 66
1
 10
0.0
 20
0.0
 30
0.0
 70
1
  0
VERTEX
  5
10F
  8
POCHE_KERF_3_5MM
 10
617.3949638235315
 20
105.98600160601534
 30
0.0
 70
0
  0
VERTEX
  5
110
  8
POCHE_KERF_3_5MM
 10
623.3417732156171
 20
105.18884537653325
 30
0.0
 70
0
  0
VERTEX
  5
111
  8
POCHE_KERF_3_5MM
 10
686.8120485080374
 20
578.6790036011913
 30
0.0
 70
0
  0
VERTEX
  5
112
  8
POCHE_KERF_3_5MM
 10
680.8652391159518
 20
579.4761598306733
 30
0.0
 70
0
  0
SEQEND
  5
10E
  8
POCHE_KERF_3_5MM
  0
POLYLINE
  5
113
  8
POCHE_KERF_3_5MM
 66
1
 10
0.0
 20
0.0
 30
0.0
 70
1
  0
VERTEX
  5
115
  8
POCHE_KERF_3_5MM
 10
648.7779852596606
 20
430.4158026020835
 30
0.0
 70
0
  0
VERTEX
  5
116
  8
POCHE_KERF_3_5MM
 10
654.7388910973714
 20
429.7319885967102
 30
0.0
 70
0
  0
VERTEX
  5
117
  8
POCHE_KERF_3_5MM
 10
672.0428837773344
 20
580.5734018628906
 30
0.0
 70
0
  0
VERTEX
  5
118
  8
POCHE_KERF_3_5MM
 10
666.0819779396235
 20
581.2572158682639
 30
0.0
 70
0
  0
SEQEND
  5
114
  8
POCHE_KERF_3_5MM
  0
POLYLINE
  5
119
  8
POCHE_KERF_3_5MM
 66
1
 10
0.0
 20
0.0
 30
0.0
 70
1
  0
VERTEX
  5
11B
  8
POCHE_KERF_3_5MM
 10
605.8657605542616
 20
107.19363165252368
 30
0.0
 70
0
  0
VERTEX
  5
11C
  8
POCHE_KERF_3_5MM
 10
611.8386028090617
 20
106.62340766208264
 30
0.0
 70
0
  0
VERTEX
  5
11D
  8
POCHE_KERF_3_5MM
 10
657.2403350079693
 20
582.1863251552845
 30
0.0
 70
0
  0
VERTEX
  5
11E
  8
POCHE_KERF_3_5MM
 10
651.2674927531692
 20
582.7565491457256
 30
0.0
 70
0
  0
SEQEND
  5
11A
  8
POCHE_KERF_3_5MM
  0
POLYLINE
  5
11F
  8
POCHE_KERF_3_5MM
 66
1
 10
0.0
 20
0.0
 30
0.0
 70
1
  0
VERTEX
  5
121
  8
POCHE_KERF_3_5MM
 10
624.8772049203335
 20
432.58286747928645
 30
0.0
 70
0
  0
VERTEX
  5
122
  8
POCHE_KERF_3_5MM
 10
630.8598192383372
 20
432.1264401334619
 30
0.0
 70
0
  0
VERTEX
  5
123
  8
POCHE_KERF_3_5MM
 10
642.4097661376757
 20
583.5171890101001
 30
0.0
 70
0
  0
VERTEX
  5
124
  8
POCHE_KERF_3_5MM
 10
636.4271518196718
 20
583.9736163559246
 30
0.0
 70
0
  0
SEQEND
  5
120
  8
POCHE_KERF_3_5MM
  0
POLYLINE
  5
125
  8
POCHE_KERF_3_5MM
 66
1
 10
0.0
 20
0.0
 30
0.0
 70
1
  0
VERTEX
  5
127
  8
POCHE_KERF_3_5MM
 10
594.2989458482008
 20
107.96154825543965
 30
0.0
 70
0
  0
VERTEX
  5
128
  8
POCHE_KERF_3_5MM
 10
600.2891643344609
 20
107.61908294790123
 30
0.0
 70
0
  0
VERTEX
  5
129
  8
POCHE_KERF_3_5MM
 10
627.5565512577135
 20
584.565511167764
 30
0.0
 70
0
  0
VERTEX
  5
12A
  8
POCHE_KERF_3_5MM
 10
621.5663327714534
 20
584.9079764753026
 30
0.0
 70
0
  0
SEQEND
  5
126
  8
POCHE_KERF_3_5MM
  0
POLYLINE
  5
12B
  8
POCHE_KERF_3_5MM
 66
1
 10
0.0
 20
0.0
 30
0.0
 70
1
  0
VERTEX
  5
12D
  8
POCHE_KERF_3_5MM
 10
600.9112592500276
 20
433.8386218894787
 30
0.0
 70
0
  0
VERTEX
  5
12E
  8
POCHE_KERF_3_5MM
 10
606.9069112541061
 20
433.6102427179488
 30
0.0
 70
0
  0
VERTEX
  5
12F
  8
POCHE_KERF_3_5MM
 10
612.686072665483
 20
585.3309117521582
 30
0.0
 70
0
  0
VERTEX
  5
130
  8
POCHE_KERF_3_5MM
 10
606.6904206614045
 20
585.5592909236881
 30
0.0
 70
0
  0
SEQEND
  5
12C
  8
POCHE_KERF_3_5MM
  0
POLYLINE
  5
131
  8
POCHE_KERF_3_5MM
 66
1
 10
0.0
 20
0.0
 30
0.0
 70
1
  0
VERTEX
  5
133
  8
POCHE_KERF_3_5MM
 10
582.7112838597382
 20
108.28863844867756
 30
0.0
 70
0
  0
VERTEX
  5
134
  8
POCHE_KERF_3_5MM
 10
588.7101967622762
 20
108.17442816996181
 30
0.0
 70
0
  0
VERTEX
  5
135
  8
POCHE_KERF_3_5MM
 10
597.8037189141634
 20
585.8131134082707
 30
0.0
 70
0
  0
VERTEX
  5
136
  8
POCHE_KERF_3_5MM
 10
591.8048060116255
 20
585.9273236869865
 30
0.0
 70
0
  0
SEQEND
  5
132
  8
POCHE_KERF_3_5MM
  0
POLYLINE
  5
137
  8
POCHE_KERF_3_5MM
 66
1
 10
0.0
 20
0.0
 30
0.0
 70
1
  0
VERTEX
  5
139
  8
POCHE_KERF_3_5MM
 10
576.9148828600855
 20
434.1812458276424
 30
0.0
 70
0
  0
VERTEX
  5
13A
  8
POCHE_KERF_3_5MM
 10
582.9148828600855
 20
434.1812458276424
 30
0.0
 70
0
  0
VERTEX
  5
13B
  8
POCHE_KERF_3_5MM
 10
582.9148828600855
 20
586.0119414027033
 30
0.0
 70
0
  0
VERTEX
  5
13C
  8
POCHE_KERF_3_5MM
 10
576.9148828600855
 20
586.0119414027033
 30
0.0
 70
0
  0
SEQEND
  5
138
  8
POCHE_KERF_3_5MM
  0
POLYLINE
  5
13D
  8
POCHE_KERF_3_5MM
 66
1
 10
0.0
 20
0.0
 30
0.0
 70
1
  0
VERTEX
  5
13F
  8
POCHE_KERF_3_5MM
 10
571.119568957895
 20
108.17442816996181
 30
0.0
 70
0
  0
VERTEX
  5
140
  8
POCHE_KERF_3_5MM
 10
577.1184818604329
 20
108.28863844867756
 30
0.0
 70
0
  0
VERTEX
  5
141
  8
POCHE_KERF_3_5MM
 10
568.0249597085457
 20
585.9273236869865
 30
0.0
 70
0
  0
VERTEX
  5
142
  8
POCHE_KERF_3_5MM
 10
562.0260468060077
 20
585.8131134082707
 30
0.0
 70
0
  0
SEQEND
  5
13E
  8
POCHE_KERF_3_5MM
  0
POLYLINE
  5
143
  8
POCHE_KERF_3_5MM
 66
1
 10
0.0
 20
0.0
 30
0.0
 70
1
  0
VERTEX
  5
145
  8
POCHE_KERF_3_5MM
 10
552.9228544660648
 20
433.6102427179488
 30
0.0
 70
0
  0
VERTEX
  5
146
  8
POCHE_KERF_3_5MM
 10
558.9185064701434
 20
433.8386218894787
 30
0.0
 70
0
  0
VERTEX
  5
147
  8
POCHE_KERF_3_5MM
 10
553.1393450587665
 20
585.5592909236881
 30
0.0
 70
0
  0
VERTEX
  5
148
  8
POCHE_KERF_3_5MM
 10
547.1436930546879
 20
585.3309117521582
 30
0.0
 70
0
  0
SEQEND
  5
144
  8
POCHE_KERF_3_5MM
  0
POLYLINE
  5
149
  8
POCHE_KERF_3_5MM
 66
1
 10
0.0
 20
0.0
 30
0.0
 70
1
  0
VERTEX
  5
14B
  8
POCHE_KERF_3_5MM
 10
559.5406013857101
 20
107.61908294790123
 30
0.0
 70
0
  0
VERTEX
  5
14C
  8
POCHE_KERF_3_5MM
 10
565.5308198719703
 20
107.96154825543965
 30
0.0
 70
0
  0
VERTEX
  5
14D
  8
POCHE_KERF_3_5MM
 10
538.2634329487177
 20
584.9079764753026
 30
0.0
 70
0
  0
VERTEX
  5
14E
  8
POCHE_KERF_3_5MM
 10
532.2732144624575
 20
584.565511167764
 30
0.0
 70
0
  0
SEQEND
  5
14A
  8
POCHE_KERF_3_5MM
  0
POLYLINE
  5
14F
  8
POCHE_KERF_3_5MM
 66
1
 10
0.0
 20
0.0
 30
0.0
 70
1
  0
VERTEX
  5
151
  8
POCHE_KERF_3_5MM
 10
528.9699464818339
 20
432.1264401334619
 30
0.0
 70
0
  0
VERTEX
  5
152
  8
POCHE_KERF_3_5MM
 10
534.9525607998377
 20
432.58286747928645
 30
0.0
 70
0
  0
VERTEX
  5
153
  8
POCHE_KERF_3_5MM
 10
523.4026139004992
 20
583.9736163559246
 30
0.0
 70
0
  0
VERTEX
  5
154
  8
POCHE_KERF_3_5MM
 10
517.4199995824955
 20
583.5171890101001
 30
0.0
 70
0
  0
SEQEND
  5
150
  8
POCHE_KERF_3_5MM
  0
POLYLINE
  5
155
  8
POCHE_KERF_3_5MM
 66
1
 10
0.0
 20
0.0
 30
0.0
 70
1
  0
VERTEX
  5
157
  8
POCHE_KERF_3_5MM
 10
547.9911629111094
 20
106.62340766208264
 30
0.0
 70
0
  0
VERTEX
  5
158
  8
POCHE_KERF_3_5MM
 10
553.9640051659095
 20
107.19363165252368
 30
0.0
 70
0
  0
VERTEX
  5
159
  8
POCHE_KERF_3_5MM
 10
508.5622729670019
 20
582.7565491457256
 30
0.0
 70
0
  0
VERTEX
  5
15A
  8
POCHE_KERF_3_5MM
 10
502.5894307122018
 20
582.1863251552845
 30
0.0
 70
0
  0
SEQEND
  5
156
  8
POCHE_KERF_3_5MM
  0
POLYLINE
  5
15B
  8
POCHE_KERF_3_5MM
 66
1
 10
0.0
 20
0.0
 30
0.0
 70
1
  0
VERTEX
  5
15D
  8
POCHE_KERF_3_5MM
 10
505.0908746227997
 20
429.7319885967102
 30
0.0
 70
0
  0
VERTEX
  5
15E
  8
POCHE_KERF_3_5MM
 10
511.0517804605106
 20
430.4158026020835
 30
0.0
 70
0
  0
VERTEX
  5
15F
  8
POCHE_KERF_3_5MM
 10
493.74778778054775
 20
581.2572158682639
 30
0.0
 70
0
  0
VERTEX
  5
160
  8
POCHE_KERF_3_5MM
 10
487.7868819428368
 20
580.5734018628906
 30
0.0
 70
0
  0
SEQEND
  5
15C
  8
POCHE_KERF_3_5MM
  0
POLYLINE
  5
161
  8
POCHE_KERF_3_5MM
 66
1
 10
0.0
 20
0.0
 30
0.0
 70
1
  0
VERTEX
  5
163
  8
POCHE_KERF_3_5MM
 10
536.487992504554
 20
105.18884537653325
 30
0.0
 70
0
  0
VERTEX
  5
164
  8
POCHE_KERF_3_5MM
 10
542.4348018966397
 20
105.98600160601534
 30
0.0
 70
0
  0
VERTEX
  5
165
  8
POCHE_KERF_3_5MM
 10
478.9645266042194
 20
579.4761598306733
 30
0.0
 70
0
  0
VERTEX
  5
166
  8
POCHE_KERF_3_5MM
 10
473.0177172121338
 20
578.6790036011913
 30
0.0
 70
0
  0
SEQEND
  5
162
  8
POCHE_KERF_3_5MM
  0
POLYLINE
  5
167
  8
POCHE_KERF_3_5MM
 66
1
 10
0.0
 20
0.0
 30
0.0
 70
1
  0
VERTEX
  5
169
  8
POCHE_KERF_3_5MM
 10
481.3202475913127
 20
426.43035846286597
 30
0.0
 70
0
  0
VERTEX
  5
16A
  8
POCHE_KERF_3_5MM
 10
487.25080561730715
 20
427.3405680542855
 30
0.0
 70
0
  0
VERTEX
  5
16B
  8
POCHE_KERF_3_5MM
 10
464.21784638658556
 20
577.4140264267864
 30
0.0
 70
0
  0
VERTEX
  5
16C
  8
POCHE_KERF_3_5MM
 10
458.2872883605911
 20
576.5038168353669
 30
0.0
 70
0
  0
SEQEND
  5
168
  8
POCHE_KERF_3_5MM
  0
POLYLINE
  5
16D
  8
POCHE_KERF_3_5MM
 66
1
 10
0.0
 20
0.0
 30
0.0
 70
1
  0
VERTEX
  5
16F
  8
POCHE_KERF_3_5MM
 10
525.0477620787138
 20
103.31747524824202
 30
0.0
 70
0
  0
VERTEX
  5
170
  8
POCHE_KERF_3_5MM
 10
530.959919707091
 20
104.34040837275352
 30
0.0
 70
0
  0
VERTEX
  5
171
  8
POCHE_KERF_3_5MM
 10
449.51309082052603
 20
575.0715629032667
 30
0.0
 70
0
  0
VERTEX
  5
172
  8
POCHE_KERF_3_5MM
 10
443.600933192149
 20
574.0486297787551
 30
0.0
 70
0
  0
SEQEND
  5
16E
  8
POCHE_KERF_3_5MM
  0
POLYLINE
  5
173
  8
POCHE_KERF_3_5MM
 66
1
 10
0.0
 20
0.0
 30
0.0
 70
1
  0
VERTEX
  5
175
  8
POCHE_KERF_3_5MM
 10
457.69251691716715
 20
422.22633489004755
 30
0.0
 70
0
  0
VERTEX
  5
176
  8
POCHE_KERF_3_5MM
 10
463.5841317840756
 20
423.3616208716498
 30
0.0
 70
0
  0
VERTEX
  5
177
  8
POCHE_KERF_3_5MM
 10
434.8555884068599
 20
572.4496180888312
 30
0.0
 70
0
  0
VERTEX
  5
178
  8
POCHE_KERF_3_5MM
 10
428.9639735399514
 20
571.314332107229
 30
0.0
 70
0
  0
SEQEND
  5
174
  8
POCHE_KERF_3_5MM
  0
POLYLINE
  5
179
  8
POCHE_KERF_3_5MM
 66
1
 10
0.0
 20
0.0
 30
0.0
 70
1
  0
VERTEX
  5
17B
  8
POCHE_KERF_3_5MM
 10
513.6870523253335
 20
101.01200951377065
 30
0.0
 70
0
  0
VERTEX
  5
17C
  8
POCHE_KERF_3_5MM
 10
519.555989510917
 20
102.25923696362726
 30
0.0
 70
0
  0
VERTEX
  5
17D
  8
POCHE_KERF_3_5MM
 10
420.25065052347844
 20
569.5491420866646
 30
0.0
 70
0
  0
VERTEX
  5
17E
  8
POCHE_KERF_3_5MM
 10
414.381713337895
 20
568.301914636808
 30
0.0
 70
0
  0
SEQEND
  5
17A
  8
POCHE_KERF_3_5MM
  0
POLYLINE
  5
17F
  8
POCHE_KERF_3_5MM
 66
1
 10
0.0
 20
0.0
 30
0.0
 70
1
  0
VERTEX
  5
181
  8
POCHE_KERF_3_5MM
 10
434.2419270258978
 20
417.12601090403786
 30
0.0
 70
0
  0
VERTEX
  5
182
  8
POCHE_KERF_3_5MM
 10
440.0860598279163
 20
418.48472786955034
 30
0.0
 70
0
  0
VERTEX
  5
183
  8
POCHE_KERF_3_5MM
 10
405.70356950068407
 20
566.3711859301334
 30
0.0
 70
0
  0
VERTEX
  5
184
  8
POCHE_KERF_3_5MM
 10
399.85943669866555
 20
565.0124689646209
 30
0.0
 70
0
  0
SEQEND
  5
180
  8
POCHE_KERF_3_5MM
  0
POLYLINE
  5
185
  8
POCHE_KERF_3_5MM
 66
1
 10
0.0
 20
0.0
 30
0.0
 70
1
  0
VERTEX
  5
187
  8
POCHE_KERF_3_5MM
 10
502.4223286843033
 20
98.27578955832263
 30
0.0
 70
0
  0
VERTEX
  5
188
  8
POCHE_KERF_3_5MM
 10
508.2395393887778
 20
99.74550368690262
 30
0.0
 70
0
  0
VERTEX
  5
189
  8
POCHE_KERF_3_5MM
 10
391.2196167034304
 20
562.916901201929
 30
0.0
 70
0
  0
VERTEX
  5
18A
  8
POCHE_KERF_3_5MM
 10
385.4024059989559
 20
561.4471870733489
 30
0.0
 70
0
  0
SEQEND
  5
186
  8
POCHE_KERF_3_5MM
  0
POLYLINE
  5
18B
  8
POCHE_KERF_3_5MM
 66
1
 10
0.0
 20
0.0
 30
0.0
 70
1
  0
VERTEX
  5
18D
  8
POCHE_KERF_3_5MM
 10
411.0024656072388
 20
411.1367785674665
 30
0.0
 70
0
  0
VERTEX
  5
18E
  8
POCHE_KERF_3_5MM
 10
416.7906462558381
 20
412.7169572849477
 30
0.0
 70
0
  0
VERTEX
  5
18F
  8
POCHE_KERF_3_5MM
 10
376.80404062116
 20
559.1875396167715
 30
0.0
 70
0
  0
VERTEX
  5
190
  8
POCHE_KERF_3_5MM
 10
371.0158599725607
 20
557.6073608992903
 30
0.0
 70
0
  0
SEQEND
  5
18C
  8
POCHE_KERF_3_5MM
  0
POLYLINE
  5
191
  8
POCHE_KERF_3_5MM
 66
1
 10
0.0
 20
0.0
 30
0.0
 70
1
  0
VERTEX
  5
193
  8
POCHE_KERF_3_5MM
 10
491.26991747977263
 20
95.11278107296687
 30
0.0
 70
0
  0
VERTEX
  5
194
  8
POCHE_KERF_3_5MM
 10
497.0269706336657
 20
96.8028517765913
 30
0.0
 70
0
  0
VERTEX
  5
195
  8
POCHE_KERF_3_5MM
 10
362.46206496593067
 20
555.1844525678324
 30
0.0
 70
0
  0
VERTEX
  5
196
  8
POCHE_KERF_3_5MM
 10
356.7050118120376
 20
553.4943818642079
 30
0.0
 70
0
  0
SEQEND
  5
192
  8
POCHE_KERF_3_5MM
  0
POLYLINE
  5
197
  8
POCHE_KERF_3_5MM
 66
1
 10
0.0
 20
0.0
 30
0.0
 70
1
  0
VERTEX
  5
199
  8
POCHE_KERF_3_5MM
 10
388.0078143556785
 20
404.26731826625763
 30
0.0
 70
0
  0
VERTEX
  5
19A
  8
POCHE_KERF_3_5MM
 10
393.7316538555744
 20
406.06666853216797
 30
0.0
 70
0
  0
VERTEX
  5
19B
  8
POCHE_KERF_3_5MM
 10
348.19888677952093
 20
550.9090906370359
 30
0.0
 70
0
  0
VERTEX
  5
19C
  8
POCHE_KERF_3_5MM
 10
342.475047279625
 20
549.1097403711256
 30
0.0
 70
0
  0
SEQEND
  5
198
  8
POCHE_KERF_3_5MM
  0
POLYLINE
  5
19D
  8
POCHE_KERF_3_5MM
 66
1
 10
0.0
 20
0.0
 30
0.0
 70
1
  0
VERTEX
  5
19F
  8
POCHE_KERF_3_5MM
 10
480.24598225788515
 20
91.52756830703444
 30
0.0
 70
0
  0
VERTEX
  5
1A0
  8
POCHE_KERF_3_5MM
 10
485.93453397998593
 20
93.4355461121946
 30
0.0
 70
0
  0
VERTEX
  5
1A1
  8
POCHE_KERF_3_5MM
 10
334.01967455020036
 20
546.363003069416
 30
0.0
 70
0
  0
VERTEX
  5
1A2
  8
POCHE_KERF_3_5MM
 10
328.3311228280995
 20
544.4550252642559
 30
0.0
 70
0
  0
SEQEND
  5
19E
  8
POCHE_KERF_3_5MM
  0
POLYLINE
  5
1A3
  8
POCHE_KERF_3_5MM
 66
1
 10
0.0
 20
0.0
 30
0.0
 70
1
  0
VERTEX
  5
1A5
  8
POCHE_KERF_3_5MM
 10
365.2913001545023
 20
396.52758612886856
 30
0.0
 70
0
  0
VERTEX
  5
1A6
  8
POCHE_KERF_3_5MM
 10
370.94250276209465
 20
398.5435000873354
 30
0.0
 70
0
  0
VERTEX
  5
1A7
  8
POCHE_KERF_3_5MM
 10
319.92956633984545
 20
541.5478372117262
 30
0.0
 70
0
  0
VERTEX
  5
1A8
  8
POCHE_KERF_3_5MM
 10
314.27836373225307
 20
539.5319232532594
 30
0.0
 70
0
  0
SEQEND
  5
1A4
  8
POCHE_KERF_3_5MM
  0
POLYLINE
  5
1A9
  8
POCHE_KERF_3_5MM
 66
1
 10
0.0
 20
0.0
 30
0.0
 70
1
  0
VERTEX
  5
1AB
  8
POCHE_KERF_3_5MM
 10
469.3665003604353
 20
87.52534742402018
 30
0.0
 70
0
  0
VERTEX
  5
1AC
  8
POCHE_KERF_3_5MM
 10
474.9783060508483
 20
89.64846703747774
 30
0.0
 70
0
  0
VERTEX
  5
1AD
  8
POCHE_KERF_3_5MM
 10
305.93366792208144
 20
536.4653379154936
 30
0.0
 70
0
  0
VERTEX
  5
1AE
  8
POCHE_KERF_3_5MM
 10
300.32186223166843
 20
534.3422183020361
 30
0.0
 70
0
  0
SEQEND
  5
1AA
  8
POCHE_KERF_3_5MM
  0
POLYLINE
  5
1AF
  8
POCHE_KERF_3_5MM
 66
1
 10
0.0
 20
0.0
 30
0.0
 70
1
  0
VERTEX
  5
1B1
  8
POCHE_KERF_3_5MM
 10
342.88584677407573
 20
387.9287995965547
 30
0.0
 70
0
  0
VERTEX
  5
1B2
  8
POCHE_KERF_3_5MM
 10
348.4562220207348
 20
390.15835551902165
 30
0.0
 70
0
  0
VERTEX
  5
1B3
  8
POCHE_KERF_3_5MM
 10
292.0370509321247
 20
531.1173469047469
 30
0.0
 70
0
  0
VERTEX
  5
1B4
  8
POCHE_KERF_3_5MM
 10
286.46667568546565
 20
528.88779098228
 30
0.0
 70
0
  0
SEQEND
  5
1B0
  8
POCHE_KERF_3_5MM
  0
POLYLINE
  5
1B5
  8
POCHE_KERF_3_5MM
 66
1
 10
0.0
 20
0.0
 30
0.0
 70
1
  0
VERTEX
  5
1B7
  8
POCHE_KERF_3_5MM
 10
458.64723976839537
 20
83.11191897061602
 30
0.0
 70
0
  0
VERTEX
  5
1B8
  8
POCHE_KERF_3_5MM
 10
464.1741660577027
 20
85.44710328723082
 30
0.0
 70
0
  0
VERTEX
  5
1B9
  8
POCHE_KERF_3_5MM
 10
278.24475102899606
 20
525.5058021086382
 30
0.0
 70
0
  0
VERTEX
  5
1BA
  8
POCHE_KERF_3_5MM
 10
272.71782473968875
 20
523.1706177920233
 30
0.0
 70
0
  0
SEQEND
  5
1B6
  8
POCHE_KERF_3_5MM
  0
POLYLINE
  5
1BB
  8
POCHE_KERF_3_5MM
 66
1
 10
0.0
 20
0.0
 30
0.0
 70
1
  0
VERTEX
  5
1BD
  8
POCHE_KERF_3_5MM
 10
320.8239271543708
 20
378.4834211655735
 30
0.0
 70
0
  0
VERTEX
  5
1BE
  8
POCHE_KERF_3_5MM
 10
326.3054017171455
 20
380.92338768535484
 30
0.0
 70
0
  0
VERTEX
  5
1BF
  8
POCHE_KERF_3_5MM
 10
264.5617660707692
 20
519.6327369592028
 30
0.0
 70
0
  0
VERTEX
  5
1C0
  8
POCHE_KERF_3_5MM
 10
259.0802915079945
 20
517.1927704394216
 30
0.0
 70
0
  0
SEQEND
  5
1BC
  8
POCHE_KERF_3_5MM
  0
POLYLINE
  5
1C1
  8
POCHE_KERF_3_5MM
 66
1
 10
0.0
 20
0.0
 30
0.0
 70
1
  0
VERTEX
  5
1C3
  8
POCHE_KERF_3_5MM
 10
448.1037362488774
 20
78.2936794697936
 30
0.0
 70
0
  0
VERTEX
  5
1C4
  8
POCHE_KERF_3_5MM
 10
453.537772786091
 20
80.83754403227093
 30
0.0
 70
0
  0
VERTEX
  5
1C5
  8
POCHE_KERF_3_5MM
 10
250.99305430351814
 20
513.5002796545135
 30
0.0
 70
0
  0
VERTEX
  5
1C6
  8
POCHE_KERF_3_5MM
 10
245.55901776630463
 20
510.9564150920361
 30
0.0
 70
0
  0
SEQEND
  5
1C2
  8
POCHE_KERF_3_5MM
  0
POLYLINE
  5
1C7
  8
POCHE_KERF_3_5MM
 66
1
 10
0.0
 20
0.0
 30
0.0
 70
1
  0
VERTEX
  5
1C9
  8
POCHE_KERF_3_5MM
 10
299.1375163408959
 20
368.20514032488944
 30
0.0
 70
0
  0
VERTEX
  5
1CA
  8
POCHE_KERF_3_5MM
 10
304.5221457434387
 20
370.851981120493
 30
0.0
 70
0
  0
VERTEX
  5
1CB
  8
POCHE_KERF_3_5MM
 10
237.54353256461812
 20
507.1106523874945
 30
0.0
 70
0
  0
VERTEX
  5
1CC
  8
POCHE_KERF_3_5MM
 10
232.1589031620753
 20
504.46381159189093
 30
0.0
 70
0
  0
SEQEND
  5
1C8
  8
POCHE_KERF_3_5MM
  0
POLYLINE
  5
1CD
  8
POCHE_KERF_3_5MM
 66
1
 10
0.0
 20
0.0
 30
0.0
 70
1
  0
VERTEX
  5
1CF
  8
POCHE_KERF_3_5MM
 10
437.75127083864794
 20
73.07761215011884
 30
0.0
 70
0
  0
VERTEX
  5
1D0
  8
POCHE_KERF_3_5MM
 10
443.08454190086746
 20
75.8264700542113
 30
0.0
 70
0
  0
VERTEX
  5
1D1
  8
POCHE_KERF_3_5MM
 10
224.21807450105217
 20
500.466170540674
 30
0.0
 70
0
  0
VERTEX
  5
1D2
  8
POCHE_KERF_3_5MM
 10
218.88480343883265
 20
497.71731263658165
 30
0.0
 70
0
  0
SEQEND
  5
1CE
  8
POCHE_KERF_3_5MM
  0
POLYLINE
  5
1D3
  8
POCHE_KERF_3_5MM
 66
1
 10
0.0
 20
0.0
 30
0.0
 70
1
  0
VERTEX
  5
1D5
  8
POCHE_KERF_3_5MM
 10
277.8580451422403
 20
357.108853715561
 30
0.0
 70
0
  0
VERTEX
  5
1D6
  8
POCHE_KERF_3_5MM
 10
283.13802526899104
 20
359.9587326359919
 30
0.0
 70
0
  0
VERTEX
  5
1D7
  8
POCHE_KERF_3_5MM
 10
211.02150880336777
 20
493.5692418471701
 30
0.0
 70
0
  0
VERTEX
  5
1D8
  8
POCHE_KERF_3_5MM
 10
205.74152867661704
 20
490.71936292673917
 30
0.0
 70
0
  0
SEQEND
  5
1D4
  8
POCHE_KERF_3_5MM
  0
POLYLINE
  5
1D9
  8
POCHE_KERF_3_5MM
 66
1
 10
0.0
 20
0.0
 30
0.0
 70
1
  0
VERTEX
  5
1DB
  8
POCHE_KERF_3_5MM
 10
427.604847696834
 20
67.47127682473585
 30
0.0
 70
0
  0
VERTEX
  5
1DC
  8
POCHE_KERF_3_5MM
 10
432.82962360378406
 20
70.42114406279147
 30
0.0
 70
0
  0
VERTEX
  5
1DD
  8
POCHE_KERF_3_5MM
 10
197.9586174559246
 20
486.4223655182091
 30
0.0
 70
0
  0
VERTEX
  5
1DE
  8
POCHE_KERF_3_5MM
 10
192.73384154897454
 20
483.4724982801534
 30
0.0
 70
0
  0
SEQEND
  5
1DA
  8
POCHE_KERF_3_5MM
  0
POLYLINE
  5
1DF
  8
POCHE_KERF_3_5MM
 66
1
 10
0.0
 20
0.0
 30
0.0
 70
1
  0
VERTEX
  5
1E1
  8
POCHE_KERF_3_5MM
 10
257.01635457639827
 20
345.21064354056165
 30
0.0
 70
0
  0
VERTEX
  5
1E2
  8
POCHE_KERF_3_5MM
 10
262.18403298333817
 20
348.25943016517925
 30
0.0
 70
0
  0
VERTEX
  5
1E3
  8
POCHE_KERF_3_5MM
 10
185.03413400406592
 20
479.028131337497
 30
0.0
 70
0
  0
VERTEX
  5
1E4
  8
POCHE_KERF_3_5MM
 10
179.86645559712602
 20
475.97934471287937
 30
0.0
 70
0
  0
SEQEND
  5
1E0
  8
POCHE_KERF_3_5MM
  0
POLYLINE
  5
1E5
  8
POCHE_KERF_3_5MM
 66
1
 10
0.0
 20
0.0
 30
0.0
 70
1
  0
VERTEX
  5
1E7
  8
POCHE_KERF_3_5MM
 10
417.6791723589146
 20
61.48279893468754
 30
0.0
 70
0
  0
VERTEX
  5
1E8
  8
POCHE_KERF_3_5MM
 10
422.7878806758173
 20
64.6294001697998
 30
0.0
 70
0
  0
VERTEX
  5
1E9
  8
POCHE_KERF_3_5MM
 10
172.25274183884525
 20
471.38921872277143
 30
0.0
 70
0
  0
VERTEX
  5
1EA
  8
POCHE_KERF_3_5MM
 10
167.14403352194265
 20
468.2426174876592
 30
0.0
 70
0
  0
SEQEND
  5
1E6
  8
POCHE_KERF_3_5MM
  0
POLYLINE
  5
1EB
  8
POCHE_KERF_3_5MM
 66
1
 10
0.0
 20
0.0
 30
0.0
 70
1
  0
VERTEX
  5
1ED
  8
POCHE_KERF_3_5MM
 10
236.642651171895
 20
332.52775425632916
 30
0.0
 70
0
  0
VERTEX
  5
1EE
  8
POCHE_KERF_3_5MM
 10
241.69053817747846
 20
335.7710298811971
 30
0.0
 70
0
  0
VERTEX
  5
1EF
  8
POCHE_KERF_3_5MM
 10
159.61907249992444
 20
463.5083957548714
 30
0.0
 70
0
  0
VERTEX
  5
1F0
  8
POCHE_KERF_3_5MM
 10
154.571185494341
 20
460.2651201300035
 30
0.0
 70
0
  0
SEQEND
  5
1EC
  8
POCHE_KERF_3_5MM
  0
POLYLINE
  5
1F1
  8
POCHE_KERF_3_5MM
 66
1
 10
0.0
 20
0.0
 30
0.0
 70
1
  0
VERTEX
  5
1F3
  8
POCHE_KERF_3_5MM
 10
407.9886304235191
 20
55.12085777245463
 30
0.0
 70
0
  0
VERTEX
  5
1F4
  8
POCHE_KERF_3_5MM
 10
412.97386693606575
 20
58.45963253484453
 30
0.0
 70
0
  0
VERTEX
  5
1F5
  8
POCHE_KERF_3_5MM
 10
147.13770399726147
 20
455.38851817467895
 30
0.0
 70
0
  0
VERTEX
  5
1F6
  8
POCHE_KERF_3_5MM
 10
142.15246748471483
 20
452.04974341228905
 30
0.0
 70
0
  0
SEQEND
  5
1F2
  8
POCHE_KERF_3_5MM
  0
POLYLINE
  5
1F7
  8
POCHE_KERF_3_5MM
 66
1
 10
0.0
 20
0.0
 30
0.0
 70
1
  0
VERTEX
  5
1F9
  8
POCHE_KERF_3_5MM
 10
216.76646318849953
 20
319.0785675798234
 30
0.0
 70
0
  0
VERTEX
  5
1FA
  8
POCHE_KERF_3_5MM
 10
221.68724272868917
 20
322.5116316218785
 30
0.0
 70
0
  0
VERTEX
  5
1FB
  8
POCHE_KERF_3_5MM
 10
134.81315915219741
 20
447.0325283482978
 30
0.0
 70
0
  0
VERTEX
  5
1FC
  8
POCHE_KERF_3_5MM
 10
129.89237961200777
 20
443.5994643062427
 30
0.0
 70
0
  0
SEQEND
  5
1F8
  8
POCHE_KERF_3_5MM
  0
POLYLINE
  5
1FD
  8
POCHE_KERF_3_5MM
 66
1
 10
0.0
 20
0.0
 30
0.0
 70
1
  0
VERTEX
  5
1FF
  8
POCHE_KERF_3_5MM
 10
398.5472667029176
 20
48.39467390277875
 30
0.0
 70
0
  0
VERTEX
  5
200
  8
POCHE_KERF_3_5MM
 10
403.40180614843365
 20
51.92078319942985
 30
0.0
 70
0
  0
VERTEX
  5
201
  8
POCHE_KERF_3_5MM
 10
122.64990395854
 20
438.443454200839
 30
0.0
 70
0
  0
VERTEX
  5
202
  8
POCHE_KERF_3_5MM
 10
117.79536451302397
 20
434.91734490418787
 30
0.0
 70
0
  0
SEQEND
  5
1FE
  8
POCHE_KERF_3_5MM
  0
POLYLINE
  5
203
  8
POCHE_KERF_3_5MM
 66
1
 10
0.0
 20
0.0
 30
0.0
 70
1
  0
VERTEX
  5
205
  8
POCHE_KERF_3_5MM
 10
197.41659782097383
 20
304.88257584731645
 30
0.0
 70
0
  0
VERTEX
  5
206
  8
POCHE_KERF_3_5MM
 10
202.20313805264595
 20
308.5004526570744
 30
0.0
 70
0
  0
VERTEX
  5
207
  8
POCHE_KERF_3_5MM
 10
110.65234596423969
 20
429.6244081192052
 30
0.0
 70
0
  0
VERTEX
  5
208
  8
POCHE_KERF_3_5MM
 10
105.86580573256757
 20
426.00653130944727
 30
0.0
 70
0
  0
SEQEND
  5
204
  8
POCHE_KERF_3_5MM
  0
POLYLINE
  5
209
  8
POCHE_KERF_3_5MM
 66
1
 10
0.0
 20
0.0
 30
0.0
 70
1
  0
VERTEX
  5
20B
  8
POCHE_KERF_3_5MM
 10
389.36876486742716
 20
41.3139957990042
 30
0.0
 70
0
  0
VERTEX
  5
20C
  8
POCHE_KERF_3_5MM
 10
394.08557140667597
 20
45.02232912696974
 30
0.0
 70
0
  0
VERTEX
  5
20D
  8
POCHE_KERF_3_5MM
 10
98.82483267424577
 20
420.57858582426763
 30
0.0
 70
0
  0
VERTEX
  5
20E
  8
POCHE_KERF_3_5MM
 10
94.10802613499702
 20
416.8702524963022
 30
0.0
 70
0
  0
SEQEND
  5
20A
  8
POCHE_KERF_3_5MM
  0
POLYLINE
  5
20F
  8
POCHE_KERF_3_5MM
 66
1
 10
0.0
 20
0.0
 30
0.0
 70
1
  0
VERTEX
  5
211
  8
POCHE_KERF_3_5MM
 10
178.62109944788426
 20
289.9603537635264
 30
0.0
 70
0
  0
VERTEX
  5
212
  8
POCHE_KERF_3_5MM
 10
183.2664630852371
 20
293.75779983644964
 30
0.0
 70
0
  0
VERTEX
  5
213
  8
POCHE_KERF_3_5MM
 10
87.17164997511803
 20
411.3092652128461
 30
0.0
 70
0
  0
VERTEX
  5
214
  8
POCHE_KERF_3_5MM
 10
82.5262863377652
 20
407.5118191399228
 30
0.0
 70
0
  0
SEQEND
  5
210
  8
POCHE_KERF_3_5MM
  0
POLYLINE
  5
215
  8
POCHE_KERF_3_5MM
 66
1
 10
0.0
 20
0.0
 30
0.0
 70
1
  0
VERTEX
  5
217
  8
POCHE_KERF_3_5MM
 10
380.4664276132294
 20
33.88908571430293
 30
0.0
 70
0
  0
VERTEX
  5
218
  8
POCHE_KERF_3_5MM
 10
385.03866502767943
 20
37.774268467521075
 30
0.0
 70
0
  0
VERTEX
  5
219
  8
POCHE_KERF_3_5MM
 10
75.69702058196916
 20
401.81980516991086
 30
0.0
 70
0
  0
VERTEX
  5
21A
  8
POCHE_KERF_3_5MM
 10
71.12478316751915
 20
397.93462241669283
 30
0.0
 70
0
  0
SEQEND
  5
216
  8
POCHE_KERF_3_5MM
  0
POLYLINE
  5
21B
  8
POCHE_KERF_3_5MM
 66
1
 10
0.0
 20
0.0
 30
0.0
 70
1
  0
VERTEX
  5
21D
  8
POCHE_KERF_3_5MM
 10
160.40720898598653
 20
274.33352858203955
 30
0.0
 70
0
  0
VERTEX
  5
21E
  8
POCHE_KERF_3_5MM
 10
164.90466335497052
 20
278.3050401581156
 30
0.0
 70
0
  0
VERTEX
  5
21F
  8
POCHE_KERF_3_5MM
 10
64.40510250829671
 20
392.11364435143906
 30
0.0
 70
0
  0
VERTEX
  5
220
  8
POCHE_KERF_3_5MM
 10
59.907648139312656
 20
388.1421327753629
 30
0.0
 70
0
  0
SEQEND
  5
21C
  8
POCHE_KERF_3_5MM
  0
POLYLINE
  5
221
  8
POCHE_KERF_3_5MM
 66
1
 10
0.0
 20
0.0
 30
0.0
 70
1
  0
VERTEX
  5
223
  8
POCHE_KERF_3_5MM
 10
371.85315738234857
 20
26.130704808263538
 30
0.0
 70
0
  0
VERTEX
  5
224
  8
POCHE_KERF_3_5MM
 10
376.27419898212315
 20
30.18710606714597
 30
0.0
 70
0
  0
VERTEX
  5
225
  8
POCHE_KERF_3_5MM
 10
53.29998755926011
 20
382.1942999383609
 30
0.0
 70
0
  0
VERTEX
  5
226
  8
POCHE_KERF_3_5MM
 10
48.878945959485584
 20
378.13789867947844
 30
0.0
 70
0
  0
SEQEND
  5
222
  8
POCHE_KERF_3_5MM
  0
POLYLINE
  5
227
  8
POCHE_KERF_3_5MM
 66
1
 10
0.0
 20
0.0
 30
0.0
 70
1
  0
VERTEX
  5
229
  8
POCHE_KERF_3_5MM
 10
142.80132440909426
 20
258.02474876024036
 30
0.0
 70
0
  0
VERTEX
  5
22A
  8
POCHE_KERF_3_5MM
 10
147.14435120529174
 20
262.16456980075776
 30
0.0
 70
0
  0
VERTEX
  5
22B
  8
POCHE_KERF_3_5MM
 10
42.3856998489524
 20
372.06536636205567
 30
0.0
 70
0
  0
VERTEX
  5
22C
  8
POCHE_KERF_3_5MM
 10
38.042673052755035
 20
367.92554532153815
 30
0.0
 70
0
  0
SEQEND
  5
228
  8
POCHE_KERF_3_5MM
  0
POLYLINE
  5
22D
  8
POCHE_KERF_3_5MM
 66
1
 10
0.0
 20
0.0
 30
0.0
 70
1
  0
VERTEX
  5
22F
  8
POCHE_KERF_3_5MM
 10
363.5414376627293
 20
18.05009755039798
 30
0.0
 70
0
  0
VERTEX
  5
230
  8
POCHE_KERF_3_5MM
 10
367.80487589088034
 20
22.27183824290158
 30
0.0
 70
0
  0
VERTEX
  5
231
  8
POCHE_KERF_3_5MM
 10
31.666194342196857
 20
361.73051400185153
 30
0.0
 70
0
  0
VERTEX
  5
232
  8
POCHE_KERF_3_5MM
 10
27.40275611404584
 20
357.508773309348
 30
0.0
 70
0
  0
SEQEND
  5
22E
  8
POCHE_KERF_3_5MM
  0
POLYLINE
  5
233
  8
PIECE_5MM
 66
1
 10
0.0
 20
0.0
 30
0.0
 70
1
  0
VERTEX
  5
235
  8
PIECE_5MM
 10
18.0
 20
18.0
 30
0.0
 70
0
  0
VERTEX
  5
236
  8
PIECE_5MM
 10
161.61566416410483
 20
18.0
 30
0.0
 70
0
  0
VERTEX
  5
237
  8
PIECE_5MM
 10
161.61566416410483
 20
168.0
 30
0.0
 70
0
  0
VERTEX
  5
238
  8
PIECE_5MM
 10
18.0
 20
168.0
 30
0.0
 70
0
  0
SEQEND
  5
234
  8
PIECE_5MM
  0
POLYLINE
  5
239
  8
POCHE_KERF_3_5MM
 66
1
 10
0.0
 20
0.0
 30
0.0
 70
1
  0
VERTEX
  5
23B
  8
POCHE_KERF_3_5MM
 10
20.9839860068377
 20
12.0
 30
0.0
 70
0
  0
VERTEX
  5
23C
  8
POCHE_KERF_3_5MM
 10
26.9839860068377
 20
12.0
 30
0.0
 70
0
  0
VERTEX
  5
23D
  8
POCHE_KERF_3_5MM
 10
26.9839860068377
 20
174.0
 30
0.0
 70
0
  0
VERTEX
  5
23E
  8
POCHE_KERF_3_5MM
 10
20.9839860068377
 20
174.0
 30
0.0
 70
0
  0
SEQEND
  5
23A
  8
POCHE_KERF_3_5MM
  0
POLYLINE
  5
23F
  8
POCHE_KERF_3_5MM
 66
1
 10
0.0
 20
0.0
 30
0.0
 70
1
  0
VERTEX
  5
241
  8
POCHE_KERF_3_5MM
 10
32.9519580205131
 20
12.0
 30
0.0
 70
0
  0
VERTEX
  5
242
  8
POCHE_KERF_3_5MM
 10
38.9519580205131
 20
12.0
 30
0.0
 70
0
  0
VERTEX
  5
243
  8
POCHE_KERF_3_5MM
 10
38.9519580205131
 20
174.0
 30
0.0
 70
0
  0
VERTEX
  5
244
  8
POCHE_KERF_3_5MM
 10
32.9519580205131
 20
174.0
 30
0.0
 70
0
  0
SEQEND
  5
240
  8
POCHE_KERF_3_5MM
  0
POLYLINE
  5
245
  8
POCHE_KERF_3_5MM
 66
1
 10
0.0
 20
0.0
 30
0.0
 70
1
  0
VERTEX
  5
247
  8
POCHE_KERF_3_5MM
 10
44.9199300341885
 20
12.0
 30
0.0
 70
0
  0
VERTEX
  5
248
  8
POCHE_KERF_3_5MM
 10
50.9199300341885
 20
12.0
 30
0.0
 70
0
  0
VERTEX
  5
249
  8
POCHE_KERF_3_5MM
 10
50.9199300341885
 20
174.0
 30
0.0
 70
0
  0
VERTEX
  5
24A
  8
POCHE_KERF_3_5MM
 10
44.9199300341885
 20
174.0
 30
0.0
 70
0
  0
SEQEND
  5
246
  8
POCHE_KERF_3_5MM
  0
POLYLINE
  5
24B
  8
POCHE_KERF_3_5MM
 66
1
 10
0.0
 20
0.0
 30
0.0
 70
1
  0
VERTEX
  5
24D
  8
POCHE_KERF_3_5MM
 10
56.8879020478639
 20
12.0
 30
0.0
 70
0
  0
VERTEX
  5
24E
  8
POCHE_KERF_3_5MM
 10
62.8879020478639
 20
12.0
 30
0.0
 70
0
  0
VERTEX
  5
24F
  8
POCHE_KERF_3_5MM
 10
62.8879020478639
 20
174.0
 30
0.0
 70
0
  0
VERTEX
  5
250
  8
POCHE_KERF_3_5MM
 10
56.8879020478639
 20
174.0
 30
0.0
 70
0
  0
SEQEND
  5
24C
  8
POCHE_KERF_3_5MM
  0
POLYLINE
  5
251
  8
POCHE_KERF_3_5MM
 66
1
 10
0.0
 20
0.0
 30
0.0
 70
1
  0
VERTEX
  5
253
  8
POCHE_KERF_3_5MM
 10
68.85587406153931
 20
12.0
 30
0.0
 70
0
  0
VERTEX
  5
254
  8
POCHE_KERF_3_5MM
 10
74.85587406153931
 20
12.0
 30
0.0
 70
0
  0
VERTEX
  5
255
  8
POCHE_KERF_3_5MM
 10
74.85587406153931
 20
174.0
 30
0.0
 70
0
  0
VERTEX
  5
256
  8
POCHE_KERF_3_5MM
 10
68.85587406153931
 20
174.0
 30
0.0
 70
0
  0
SEQEND
  5
252
  8
POCHE_KERF_3_5MM
  0
POLYLINE
  5
257
  8
POCHE_KERF_3_5MM
 66
1
 10
0.0
 20
0.0
 30
0.0
 70
1
  0
VERTEX
  5
259
  8
POCHE_KERF_3_5MM
 10
80.8238460752147
 20
12.0
 30
0.0
 70
0
  0
VERTEX
  5
25A
  8
POCHE_KERF_3_5MM
 10
86.8238460752147
 20
12.0
 30
0.0
 70
0
  0
VERTEX
  5
25B
  8
POCHE_KERF_3_5MM
 10
86.8238460752147
 20
174.0
 30
0.0
 70
0
  0
VERTEX
  5
25C
  8
POCHE_KERF_3_5MM
 10
80.8238460752147
 20
174.0
 30
0.0
 70
0
  0
SEQEND
  5
258
  8
POCHE_KERF_3_5MM
  0
POLYLINE
  5
25D
  8
POCHE_KERF_3_5MM
 66
1
 10
0.0
 20
0.0
 30
0.0
 70
1
  0
VERTEX
  5
25F
  8
POCHE_KERF_3_5MM
 10
92.79181808889011
 20
12.0
 30
0.0
 70
0
  0
VERTEX
  5
260
  8
POCHE_KERF_3_5MM
 10
98.79181808889011
 20
12.0
 30
0.0
 70
0
  0
VERTEX
  5
261
  8
POCHE_KERF_3_5MM
 10
98.79181808889011
 20
174.0
 30
0.0
 70
0
  0
VERTEX
  5
262
  8
POCHE_KERF_3_5MM
 10
92.79181808889011
 20
174.0
 30
0.0
 70
0
  0
SEQEND
  5
25E
  8
POCHE_KERF_3_5MM
  0
POLYLINE
  5
263
  8
POCHE_KERF_3_5MM
 66
1
 10
0.0
 20
0.0
 30
0.0
 70
1
  0
VERTEX
  5
265
  8
POCHE_KERF_3_5MM
 10
104.75979010256552
 20
12.0
 30
0.0
 70
0
  0
VERTEX
  5
266
  8
POCHE_KERF_3_5MM
 10
110.75979010256552
 20
12.0
 30
0.0
 70
0
  0
VERTEX
  5
267
  8
POCHE_KERF_3_5MM
 10
110.75979010256552
 20
174.0
 30
0.0
 70
0
  0
VERTEX
  5
268
  8
POCHE_KERF_3_5MM
 10
104.75979010256552
 20
174.0
 30
0.0
 70
0
  0
SEQEND
  5
264
  8
POCHE_KERF_3_5MM
  0
POLYLINE
  5
269
  8
POCHE_KERF_3_5MM
 66
1
 10
0.0
 20
0.0
 30
0.0
 70
1
  0
VERTEX
  5
26B
  8
POCHE_KERF_3_5MM
 10
116.72776211624091
 20
12.0
 30
0.0
 70
0
  0
VERTEX
  5
26C
  8
POCHE_KERF_3_5MM
 10
122.72776211624091
 20
12.0
 30
0.0
 70
0
  0
VERTEX
  5
26D
  8
POCHE_KERF_3_5MM
 10
122.72776211624091
 20
174.0
 30
0.0
 70
0
  0
VERTEX
  5
26E
  8
POCHE_KERF_3_5MM
 10
116.72776211624091
 20
174.0
 30
0.0
 70
0
  0
SEQEND
  5
26A
  8
POCHE_KERF_3_5MM
  0
POLYLINE
  5
26F
  8
POCHE_KERF_3_5MM
 66
1
 10
0.0
 20
0.0
 30
0.0
 70
1
  0
VERTEX
  5
271
  8
POCHE_KERF_3_5MM
 10
128.69573412991633
 20
12.0
 30
0.0
 70
0
  0
VERTEX
  5
272
  8
POCHE_KERF_3_5MM
 10
134.69573412991633
 20
12.0
 30
0.0
 70
0
  0
VERTEX
  5
273
  8
POCHE_KERF_3_5MM
 10
134.69573412991633
 20
174.0
 30
0.0
 70
0
  0
VERTEX
  5
274
  8
POCHE_KERF_3_5MM
 10
128.69573412991633
 20
174.0
 30
0.0
 70
0
  0
SEQEND
  5
270
  8
POCHE_KERF_3_5MM
  0
POLYLINE
  5
275
  8
POCHE_KERF_3_5MM
 66
1
 10
0.0
 20
0.0
 30
0.0
 70
1
  0
VERTEX
  5
277
  8
POCHE_KERF_3_5MM
 10
140.66370614359172
 20
12.0
 30
0.0
 70
0
  0
VERTEX
  5
278
  8
POCHE_KERF_3_5MM
 10
146.66370614359172
 20
12.0
 30
0.0
 70
0
  0
VERTEX
  5
279
  8
POCHE_KERF_3_5MM
 10
146.66370614359172
 20
174.0
 30
0.0
 70
0
  0
VERTEX
  5
27A
  8
POCHE_KERF_3_5MM
 10
140.66370614359172
 20
174.0
 30
0.0
 70
0
  0
SEQEND
  5
276
  8
POCHE_KERF_3_5MM
  0
POLYLINE
  5
27B
  8
POCHE_KERF_3_5MM
 66
1
 10
0.0
 20
0.0
 30
0.0
 70
1
  0
VERTEX
  5
27D
  8
POCHE_KERF_3_5MM
 10
152.63167815726712
 20
12.0
 30
0.0
 70
0
  0
VERTEX
  5
27E
  8
POCHE_KERF_3_5MM
 10
158.63167815726712
 20
12.0
 30
0.0
 70
0
  0
VERTEX
  5
27F
  8
POCHE_KERF_3_5MM
 10
158.63167815726712
 20
174.0
 30
0.0
 70
0
  0
VERTEX
  5
280
  8
POCHE_KERF_3_5MM
 10
152.63167815726712
 20
174.0
 30
0.0
 70
0
  0
SEQEND
  5
27C
  8
POCHE_KERF_3_5MM
  0
POLYLINE
  5
281
  8
PLANCHE_18MM
 66
1
 10
0.0
 20
0.0
 30
0.0
 70
1
  0
VERTEX
  5
283
  8
PLANCHE_18MM
 10
0.0
 20
1520.0
 30
0.0
 70
0
  0
VERTEX
  5
284
  8
PLANCHE_18MM
 10
2440.0
 20
1520.0
 30
0.0
 70
0
  0
VERTEX
  5
285
  8
PLANCHE_18MM
 10
2440.0
 20
2740.0
 30
0.0
 70
0
  0
VERTEX
  5
286
  8
PLANCHE_18MM
 10
0.0
 20
2740.0
 30
0.0
 70
0
  0
SEQEND
  5
282
  8
PLANCHE_18MM
  0
CIRCLE
  5
287
  8
GABARIT_BAGUES_18MM
 10
263.5
 20
1783.5
 30
0.0
 40
245.5
  0
CIRCLE
  5
288
  8
GABARIT_BAGUES_18MM
 10
263.5
 20
1783.5
 30
0.0
 40
200.5
  0
CIRCLE
  5
289
  8
GABARIT_BAGUES_18MM
 10
233.0
 20
2261.0
 30
0.0
 40
215.0
  0
CIRCLE
  5
28A
  8
GABARIT_BAGUES_18MM
 10
233.0
 20
2261.0
 30
0.0
 40
170.0
  0
CIRCLE
  5
28B
  8
GABARIT_INTERIEUR_18MM
 10
555.5252751012466
 20
2531.5252751012467
 30
0.0
 40
189.52527510124662
  0
POLYLINE
  5
28C
  8
GABARIT_INTERIEUR_18MM
 66
1
 10
0.0
 20
0.0
 30
0.0
 70
1
  0
VERTEX
  5
28E
  8
GABARIT_INTERIEUR_18MM
 10
435.887154137557
 20
2525.2252751012466
 30
0.0
 42
0.41421356237309503
 70
0
  0
VERTEX
  5
28F
  8
GABARIT_INTERIEUR_18MM
 10
432.6871541375572
 20
2522.0252751012467
 30
0.0
 42
0.41421356237309503
 70
0
  0
VERTEX
  5
290
  8
GABARIT_INTERIEUR_18MM
 10
435.8871541375572
 20
2518.825275101247
 30
0.0
 42
0.41421356237309503
 70
0
  0
VERTEX
  5
291
  8
GABARIT_INTERIEUR_18MM
 10
439.08715413755704
 20
2522.0252751012467
 30
0.0
 70
0
  0
VERTEX
  5
292
  8
GABARIT_INTERIEUR_18MM
 10
473.687154137557
 20
2522.0252751012467
 30
0.0
 42
0.41421356237309503
 70
0
  0
VERTEX
  5
293
  8
GABARIT_INTERIEUR_18MM
 10
476.8871541375569
 20
2518.825275101247
 30
0.0
 42
0.41421356237309503
 70
0
  0
VERTEX
  5
294
  8
GABARIT_INTERIEUR_18MM
 10
480.0871541375568
 20
2522.0252751012467
 30
0.0
 42
0.41421356237309503
 70
0
  0
VERTEX
  5
295
  8
GABARIT_INTERIEUR_18MM
 10
476.887154137557
 20
2525.2252751012466
 30
0.0
 70
0
  0
VERTEX
  5
296
  8
GABARIT_INTERIEUR_18MM
 10
476.887154137557
 20
2537.825275101247
 30
0.0
 42
0.41421356237309503
 70
0
  0
VERTEX
  5
297
  8
GABARIT_INTERIEUR_18MM
 10
480.0871541375568
 20
2541.0252751012467
 30
0.0
 42
0.41421356237309503
 70
0
  0
VERTEX
  5
298
  8
GABARIT_INTERIEUR_18MM
 10
476.8871541375569
 20
2544.2252751012466
 30
0.0
 42
0.41421356237309503
 70
0
  0
VERTEX
  5
299
  8
GABARIT_INTERIEUR_18MM
 10
473.687154137557
 20
2541.0252751012467
 30
0.0
 70
0
  0
VERTEX
  5
29A
  8
GABARIT_INTERIEUR_18MM
 10
439.08715413755704
 20
2541.0252751012467
 30
0.0
 42
0.41421356237309503
 70
0
  0
VERTEX
  5
29B
  8
GABARIT_INTERIEUR_18MM
 10
435.8871541375571
 20
2544.2252751012466
 30
0.0
 42
0.41421356237309503
 70
0
  0
VERTEX
  5
29C
  8
GABARIT_INTERIEUR_18MM
 10
432.6871541375572
 20
2541.0252751012467
 30
0.0
 42
0.41421356237309503
 70
0
  0
VERTEX
  5
29D
  8
GABARIT_INTERIEUR_18MM
 10
435.887154137557
 20
2537.825275101247
 30
0.0
 70
0
  0
SEQEND
  5
28D
  8
GABARIT_INTERIEUR_18MM
  0
POLYLINE
  5
29E
  8
GABARIT_INTERIEUR_18MM
 66
1
 10
0.0
 20
0.0
 30
0.0
 70
1
  0
VERTEX
  5
2A0
  8
GABARIT_INTERIEUR_18MM
 10
634.1633960649363
 20
2525.2252751012466
 30
0.0
 42
0.41421356237309503
 70
0
  0
VERTEX
  5
2A1
  8
GABARIT_INTERIEUR_18MM
 10
630.9633960649364
 20
2522.0252751012467
 30
0.0
 42
0.41421356237309503
 70
0
  0
VERTEX
  5
2A2
  8
GABARIT_INTERIEUR_18MM
 10
634.1633960649365
 20
2518.825275101247
 30
0.0
 42
0.41421356237309503
 70
0
  0
VERTEX
  5
2A3
  8
GABARIT_INTERIEUR_18MM
 10
637.3633960649363
 20
2522.0252751012467
 30
0.0
 70
0
  0
VERTEX
  5
2A4
  8
GABARIT_INTERIEUR_18MM
 10
671.9633960649362
 20
2522.0252751012467
 30
0.0
 42
0.41421356237309503
 70
0
  0
VERTEX
  5
2A5
  8
GABARIT_INTERIEUR_18MM
 10
675.1633960649361
 20
2518.825275101247
 30
0.0
 42
0.41421356237309503
 70
0
  0
VERTEX
  5
2A6
  8
GABARIT_INTERIEUR_18MM
 10
678.3633960649361
 20
2522.0252751012467
 30
0.0
 42
0.41421356237309503
 70
0
  0
VERTEX
  5
2A7
  8
GABARIT_INTERIEUR_18MM
 10
675.1633960649363
 20
2525.2252751012466
 30
0.0
 70
0
  0
VERTEX
  5
2A8
  8
GABARIT_INTERIEUR_18MM
 10
675.1633960649363
 20
2537.825275101247
 30
0.0
 42
0.41421356237309503
 70
0
  0
VERTEX
  5
2A9
  8
GABARIT_INTERIEUR_18MM
 10
678.3633960649361
 20
2541.0252751012467
 30
0.0
 42
0.41421356237309503
 70
0
  0
VERTEX
  5
2AA
  8
GABARIT_INTERIEUR_18MM
 10
675.163396064936
 20
2544.2252751012466
 30
0.0
 42
0.41421356237309503
 70
0
  0
VERTEX
  5
2AB
  8
GABARIT_INTERIEUR_18MM
 10
671.9633960649362
 20
2541.0252751012467
 30
0.0
 70
0
  0
VERTEX
  5
2AC
  8
GABARIT_INTERIEUR_18MM
 10
637.3633960649363
 20
2541.0252751012467
 30
0.0
 42
0.41421356237309503
 70
0
  0
VERTEX
  5
2AD
  8
GABARIT_INTERIEUR_18MM
 10
634.1633960649364
 20
2544.2252751012466
 30
0.0
 42
0.41421356237309503
 70
0
  0
VERTEX
  5
2AE
  8
GABARIT_INTERIEUR_18MM
 10
630.9633960649364
 20
2541.0252751012467
 30
0.0
 42
0.41421356237309503
 70
0
  0
VERTEX
  5
2AF
  8
GABARIT_INTERIEUR_18MM
 10
634.1633960649363
 20
2537.825275101247
 30
0.0
 70
0
  0
SEQEND
  5
29F
  8
GABARIT_INTERIEUR_18MM
  0
POLYLINE
  5
2B0
  8
GABARIT_INTERIEUR_18MM
 66
1
 10
0.0
 20
0.0
 30
0.0
 70
1
  0
VERTEX
  5
2B2
  8
GABARIT_INTERIEUR_18MM
 10
561.8252751012467
 20
2411.887154137557
 30
0.0
 42
0.41421356237309503
 70
0
  0
VERTEX
  5
2B3
  8
GABARIT_INTERIEUR_18MM
 10
565.0252751012467
 20
2408.6871541375567
 30
0.0
 42
0.41421356237309503
 70
0
  0
VERTEX
  5
2B4
  8
GABARIT_INTERIEUR_18MM
 10
568.2252751012468
 20
2411.887154137557
 30
0.0
 42
0.41421356237309503
 70
0
  0
VERTEX
  5
2B5
  8
GABARIT_INTERIEUR_18MM
 10
565.0252751012466
 20
2415.0871541375573
 30
0.0
 70
0
  0
VERTEX
  5
2B6
  8
GABARIT_INTERIEUR_18MM
 10
565.0252751012466
 20
2449.687154137557
 30
0.0
 42
0.41421356237309503
 70
0
  0
VERTEX
  5
2B7
  8
GABARIT_INTERIEUR_18MM
 10
568.2252751012466
 20
2452.887154137557
 30
0.0
 42
0.41421356237309503
 70
0
  0
VERTEX
  5
2B8
  8
GABARIT_INTERIEUR_18MM
 10
565.0252751012466
 20
2456.087154137557
 30
0.0
 42
0.41421356237309503
 70
0
  0
VERTEX
  5
2B9
  8
GABARIT_INTERIEUR_18MM
 10
561.8252751012467
 20
2452.887154137557
 30
0.0
 70
0
  0
VERTEX
  5
2BA
  8
GABARIT_INTERIEUR_18MM
 10
549.2252751012467
 20
2452.887154137557
 30
0.0
 42
0.41421356237309503
 70
0
  0
VERTEX
  5
2BB
  8
GABARIT_INTERIEUR_18MM
 10
546.0252751012467
 20
2456.087154137557
 30
0.0
 42
0.41421356237309503
 70
0
  0
VERTEX
  5
2BC
  8
GABARIT_INTERIEUR_18MM
 10
542.8252751012468
 20
2452.887154137557
 30
0.0
 42
0.41421356237309503
 70
0
  0
VERTEX
  5
2BD
  8
GABARIT_INTERIEUR_18MM
 10
546.0252751012466
 20
2449.687154137557
 30
0.0
 70
0
  0
VERTEX
  5
2BE
  8
GABARIT_INTERIEUR_18MM
 10
546.0252751012466
 20
2415.0871541375573
 30
0.0
 42
0.41421356237309503
 70
0
  0
VERTEX
  5
2BF
  8
GABARIT_INTERIEUR_18MM
 10
542.8252751012463
 20
2411.887154137557
 30
0.0
 42
0.41421356237309503
 70
0
  0
VERTEX
  5
2C0
  8
GABARIT_INTERIEUR_18MM
 10
546.0252751012464
 20
2408.6871541375567
 30
0.0
 42
0.41421356237309503
 70
0
  0
VERTEX
  5
2C1
  8
GABARIT_INTERIEUR_18MM
 10
549.2252751012467
 20
2411.887154137557
 30
0.0
 70
0
  0
SEQEND
  5
2B1
  8
GABARIT_INTERIEUR_18MM
  0
POLYLINE
  5
2C2
  8
GABARIT_INTERIEUR_18MM
 66
1
 10
0.0
 20
0.0
 30
0.0
 70
1
  0
VERTEX
  5
2C4
  8
GABARIT_INTERIEUR_18MM
 10
561.8252751012467
 20
2610.163396064936
 30
0.0
 42
0.41421356237309503
 70
0
  0
VERTEX
  5
2C5
  8
GABARIT_INTERIEUR_18MM
 10
565.0252751012467
 20
2606.9633960649358
 30
0.0
 42
0.41421356237309503
 70
0
  0
VERTEX
  5
2C6
  8
GABARIT_INTERIEUR_18MM
 10
568.2252751012468
 20
2610.163396064936
 30
0.0
 42
0.41421356237309503
 70
0
  0
VERTEX
  5
2C7
  8
GABARIT_INTERIEUR_18MM
 10
565.0252751012466
 20
2613.3633960649363
 30
0.0
 70
0
  0
VERTEX
  5
2C8
  8
GABARIT_INTERIEUR_18MM
 10
565.0252751012466
 20
2647.963396064936
 30
0.0
 42
0.41421356237309503
 70
0
  0
VERTEX
  5
2C9
  8
GABARIT_INTERIEUR_18MM
 10
568.2252751012466
 20
2651.163396064936
 30
0.0
 42
0.41421356237309503
 70
0
  0
VERTEX
  5
2CA
  8
GABARIT_INTERIEUR_18MM
 10
565.0252751012466
 20
2654.363396064936
 30
0.0
 42
0.41421356237309503
 70
0
  0
VERTEX
  5
2CB
  8
GABARIT_INTERIEUR_18MM
 10
561.8252751012467
 20
2651.163396064936
 30
0.0
 70
0
  0
VERTEX
  5
2CC
  8
GABARIT_INTERIEUR_18MM
 10
549.2252751012467
 20
2651.163396064936
 30
0.0
 42
0.41421356237309503
 70
0
  0
VERTEX
  5
2CD
  8
GABARIT_INTERIEUR_18MM
 10
546.0252751012467
 20
2654.363396064936
 30
0.0
 42
0.41421356237309503
 70
0
  0
VERTEX
  5
2CE
  8
GABARIT_INTERIEUR_18MM
 10
542.8252751012468
 20
2651.163396064936
 30
0.0
 42
0.41421356237309503
 70
0
  0
VERTEX
  5
2CF
  8
GABARIT_INTERIEUR_18MM
 10
546.0252751012466
 20
2647.963396064936
 30
0.0
 70
0
  0
VERTEX
  5
2D0
  8
GABARIT_INTERIEUR_18MM
 10
546.0252751012466
 20
2613.3633960649363
 30
0.0
 42
0.41421356237309503
 70
0
  0
VERTEX
  5
2D1
  8
GABARIT_INTERIEUR_18MM
 10
542.8252751012463
 20
2610.163396064936
 30
0.0
 42
0.41421356237309503
 70
0
  0
VERTEX
  5
2D2
  8
GABARIT_INTERIEUR_18MM
 10
546.0252751012464
 20
2606.9633960649358
 30
0.0
 42
0.41421356237309503
 70
0
  0
VERTEX
  5
2D3
  8
GABARIT_INTERIEUR_18MM
 10
549.2252751012467
 20
2610.163396064936
 30
0.0
 70
0
  0
SEQEND
  5
2C3
  8
GABARIT_INTERIEUR_18MM
  0
CIRCLE
  5
2D4
  8
GABARIT_BAGUES_18MM
 10
603.0
 20
2075.0
 30
0.0
 40
185.0
  0
CIRCLE
  5
2D5
  8
GABARIT_BAGUES_18MM
 10
603.0
 20
2075.0
 30
0.0
 40
140.0
  0
CIRCLE
  5
2D6
  8
GABARIT_BAGUES_18MM
 10
237.0
 20
1773.0
 30
0.0
 40
155.0
  0
CIRCLE
  5
2D7
  8
GABARIT_BAGUES_18MM
 10
237.0
 20
1773.0
 30
0.0
 40
110.0
  0
POLYLINE
  5
2D8
  8
GABARIT_INTERIEUR_18MM
 66
1
 10
0.0
 20
0.0
 30
0.0
 70
1
  0
VERTEX
  5
2DA
  8
GABARIT_INTERIEUR_18MM
 10
474.0
 20
1556.0
 30
0.0
 70
0
  0
VERTEX
  5
2DB
  8
GABARIT_INTERIEUR_18MM
 10
540.6871541375571
 20
1556.0
 30
0.0
 42
-0.41421356237309503
 70
0
  0
VERTEX
  5
2DC
  8
GABARIT_INTERIEUR_18MM
 10
543.887154137557
 20
1559.2
 30
0.0
 42
-0.41421356237309503
 70
0
  0
VERTEX
  5
2DD
  8
GABARIT_INTERIEUR_18MM
 10
547.087154137557
 20
1556.0
 30
0.0
 42
-0.41421356237309503
 70
0
  0
VERTEX
  5
2DE
  8
GABARIT_INTERIEUR_18MM
 10
543.887154137557
 20
1552.8
 30
0.0
 70
0
  0
VERTEX
  5
2DF
  8
GABARIT_INTERIEUR_18MM
 10
543.887154137557
 20
1538.0
 30
0.0
 70
0
  0
VERTEX
  5
2E0
  8
GABARIT_INTERIEUR_18MM
 10
583.887154137557
 20
1538.0
 30
0.0
 70
0
  0
VERTEX
  5
2E1
  8
GABARIT_INTERIEUR_18MM
 10
583.887154137557
 20
1552.8
 30
0.0
 42
-0.41421356237309503
 70
0
  0
VERTEX
  5
2E2
  8
GABARIT_INTERIEUR_18MM
 10
580.687154137557
 20
1556.0
 30
0.0
 42
-0.41421356237309503
 70
0
  0
VERTEX
  5
2E3
  8
GABARIT_INTERIEUR_18MM
 10
583.887154137557
 20
1559.2
 30
0.0
 42
-0.41421356237309503
 70
0
  0
VERTEX
  5
2E4
  8
GABARIT_INTERIEUR_18MM
 10
587.087154137557
 20
1556.0
 30
0.0
 70
0
  0
VERTEX
  5
2E5
  8
GABARIT_INTERIEUR_18MM
 10
653.5252751012466
 20
1556.0
 30
0.0
 70
0
  0
VERTEX
  5
2E6
  8
GABARIT_INTERIEUR_18MM
 10
653.5252751012466
 20
1647.3
 30
0.0
 42
-0.41421356237309503
 70
0
  0
VERTEX
  5
2E7
  8
GABARIT_INTERIEUR_18MM
 10
650.3252751012466
 20
1650.5
 30
0.0
 42
-0.41421356237309503
 70
0
  0
VERTEX
  5
2E8
  8
GABARIT_INTERIEUR_18MM
 10
653.5252751012466
 20
1653.7
 30
0.0
 42
-0.41421356237309503
 70
0
  0
VERTEX
  5
2E9
  8
GABARIT_INTERIEUR_18MM
 10
656.7252751012467
 20
1650.5
 30
0.0
 70
0
  0
VERTEX
  5
2EA
  8
GABARIT_INTERIEUR_18MM
 10
669.3252751012467
 20
1650.5
 30
0.0
 42
-0.41421356237309503
 70
0
  0
VERTEX
  5
2EB
  8
GABARIT_INTERIEUR_18MM
 10
672.5252751012467
 20
1653.7
 30
0.0
 42
-0.41421356237309503
 70
0
  0
VERTEX
  5
2EC
  8
GABARIT_INTERIEUR_18MM
 10
675.7252751012468
 20
1650.5
 30
0.0
 42
-0.41421356237309503
 70
0
  0
VERTEX
  5
2ED
  8
GABARIT_INTERIEUR_18MM
 10
672.5252751012466
 20
1647.3
 30
0.0
 70
0
  0
VERTEX
  5
2EE
  8
GABARIT_INTERIEUR_18MM
 10
672.5252751012466
 20
1556.0
 30
0.0
 70
0
  0
VERTEX
  5
2EF
  8
GABARIT_INTERIEUR_18MM
 10
738.9633960649362
 20
1556.0
 30
0.0
 42
-0.41421356237309503
 70
0
  0
VERTEX
  5
2F0
  8
GABARIT_INTERIEUR_18MM
 10
742.1633960649363
 20
1559.2
 30
0.0
 42
-0.41421356237309503
 70
0
  0
VERTEX
  5
2F1
  8
GABARIT_INTERIEUR_18MM
 10
745.3633960649363
 20
1556.0
 30
0.0
 42
-0.41421356237309503
 70
0
  0
VERTEX
  5
2F2
  8
GABARIT_INTERIEUR_18MM
 10
742.1633960649363
 20
1552.8
 30
0.0
 70
0
  0
VERTEX
  5
2F3
  8
GABARIT_INTERIEUR_18MM
 10
742.1633960649363
 20
1538.0
 30
0.0
 70
0
  0
VERTEX
  5
2F4
  8
GABARIT_INTERIEUR_18MM
 10
782.1633960649363
 20
1538.0
 30
0.0
 70
0
  0
VERTEX
  5
2F5
  8
GABARIT_INTERIEUR_18MM
 10
782.1633960649363
 20
1552.8
 30
0.0
 42
-0.41421356237309503
 70
0
  0
VERTEX
  5
2F6
  8
GABARIT_INTERIEUR_18MM
 10
778.9633960649362
 20
1556.0
 30
0.0
 42
-0.41421356237309503
 70
0
  0
VERTEX
  5
2F7
  8
GABARIT_INTERIEUR_18MM
 10
782.1633960649363
 20
1559.2
 30
0.0
 42
-0.41421356237309503
 70
0
  0
VERTEX
  5
2F8
  8
GABARIT_INTERIEUR_18MM
 10
785.3633960649363
 20
1556.0
 30
0.0
 70
0
  0
VERTEX
  5
2F9
  8
GABARIT_INTERIEUR_18MM
 10
852.0505502024932
 20
1556.0
 30
0.0
 70
0
  0
VERTEX
  5
2FA
  8
GABARIT_INTERIEUR_18MM
 10
801.6505502024934
 20
1745.0
 30
0.0
 70
0
  0
VERTEX
  5
2FB
  8
GABARIT_INTERIEUR_18MM
 10
757.7087686018568
 20
1745.0
 30
0.0
 42
-0.41421356237309503
 70
0
  0
VERTEX
  5
2FC
  8
GABARIT_INTERIEUR_18MM
 10
754.5087686018569
 20
1741.8
 30
0.0
 42
-0.41421356237309503
 70
0
  0
VERTEX
  5
2FD
  8
GABARIT_INTERIEUR_18MM
 10
751.3087686018569
 20
1745.0
 30
0.0
 42
-0.41421356237309503
 70
0
  0
VERTEX
  5
2FE
  8
GABARIT_INTERIEUR_18MM
 10
754.5087686018569
 20
1748.2
 30
0.0
 70
0
  0
VERTEX
  5
2FF
  8
GABARIT_INTERIEUR_18MM
 10
754.5087686018569
 20
1763.0
 30
0.0
 70
0
  0
VERTEX
  5
300
  8
GABARIT_INTERIEUR_18MM
 10
714.5087686018569
 20
1763.0
 30
0.0
 70
0
  0
VERTEX
  5
301
  8
GABARIT_INTERIEUR_18MM
 10
714.5087686018569
 20
1748.2
 30
0.0
 42
-0.41421356237309503
 70
0
  0
VERTEX
  5
302
  8
GABARIT_INTERIEUR_18MM
 10
717.708768601857
 20
1745.0
 30
0.0
 42
-0.41421356237309503
 70
0
  0
VERTEX
  5
303
  8
GABARIT_INTERIEUR_18MM
 10
714.5087686018569
 20
1741.8
 30
0.0
 42
-0.41421356237309503
 70
0
  0
VERTEX
  5
304
  8
GABARIT_INTERIEUR_18MM
 10
711.3087686018569
 20
1745.0
 30
0.0
 70
0
  0
VERTEX
  5
305
  8
GABARIT_INTERIEUR_18MM
 10
614.7417816006364
 20
1745.0
 30
0.0
 42
-0.41421356237309503
 70
0
  0
VERTEX
  5
306
  8
GABARIT_INTERIEUR_18MM
 10
611.5417816006363
 20
1741.8
 30
0.0
 42
-0.41421356237309503
 70
0
  0
VERTEX
  5
307
  8
GABARIT_INTERIEUR_18MM
 10
608.3417816006363
 20
1745.0
 30
0.0
 42
-0.41421356237309503
 70
0
  0
VERTEX
  5
308
  8
GABARIT_INTERIEUR_18MM
 10
611.5417816006365
 20
1748.2
 30
0.0
 70
0
  0
VERTEX
  5
309
  8
GABARIT_INTERIEUR_18MM
 10
611.5417816006365
 20
1763.0
 30
0.0
 70
0
  0
VERTEX
  5
30A
  8
GABARIT_INTERIEUR_18MM
 10
571.5417816006365
 20
1763.0
 30
0.0
 70
0
  0
VERTEX
  5
30B
  8
GABARIT_INTERIEUR_18MM
 10
571.5417816006365
 20
1748.2
 30
0.0
 42
-0.41421356237309503
 70
0
  0
VERTEX
  5
30C
  8
GABARIT_INTERIEUR_18MM
 10
574.7417816006365
 20
1745.0
 30
0.0
 42
-0.41421356237309503
 70
0
  0
VERTEX
  5
30D
  8
GABARIT_INTERIEUR_18MM
 10
571.5417816006365
 20
1741.8
 30
0.0
 42
-0.41421356237309503
 70
0
  0
VERTEX
  5
30E
  8
GABARIT_INTERIEUR_18MM
 10
568.3417816006364
 20
1745.0
 30
0.0
 70
0
  0
VERTEX
  5
30F
  8
GABARIT_INTERIEUR_18MM
 10
524.4
 20
1745.0
 30
0.0
 70
0
  0
SEQEND
  5
2D9
  8
GABARIT_INTERIEUR_18MM
  0
POLYLINE
  5
310
  8
GABARIT_INTERIEUR_18MM
 66
1
 10
0.0
 20
0.0
 30
0.0
 70
1
  0
VERTEX
  5
312
  8
GABARIT_INTERIEUR_18MM
 10
690.0
 20
2256.0
 30
0.0
 70
0
  0
VERTEX
  5
313
  8
GABARIT_INTERIEUR_18MM
 10
756.6871541375571
 20
2256.0
 30
0.0
 42
-0.41421356237309503
 70
0
  0
VERTEX
  5
314
  8
GABARIT_INTERIEUR_18MM
 10
759.887154137557
 20
2259.2
 30
0.0
 42
-0.41421356237309503
 70
0
  0
VERTEX
  5
315
  8
GABARIT_INTERIEUR_18MM
 10
763.0871541375568
 20
2256.0
 30
0.0
 42
-0.41421356237309503
 70
0
  0
VERTEX
  5
316
  8
GABARIT_INTERIEUR_18MM
 10
759.887154137557
 20
2252.8
 30
0.0
 70
0
  0
VERTEX
  5
317
  8
GABARIT_INTERIEUR_18MM
 10
759.887154137557
 20
2238.0
 30
0.0
 70
0
  0
VERTEX
  5
318
  8
GABARIT_INTERIEUR_18MM
 10
799.887154137557
 20
2238.0
 30
0.0
 70
0
  0
VERTEX
  5
319
  8
GABARIT_INTERIEUR_18MM
 10
799.887154137557
 20
2252.8
 30
0.0
 42
-0.41421356237309503
 70
0
  0
VERTEX
  5
31A
  8
GABARIT_INTERIEUR_18MM
 10
796.6871541375572
 20
2256.0
 30
0.0
 42
-0.41421356237309503
 70
0
  0
VERTEX
  5
31B
  8
GABARIT_INTERIEUR_18MM
 10
799.8871541375572
 20
2259.2
 30
0.0
 42
-0.41421356237309503
 70
0
  0
VERTEX
  5
31C
  8
GABARIT_INTERIEUR_18MM
 10
803.087154137557
 20
2256.0
 30
0.0
 70
0
  0
VERTEX
  5
31D
  8
GABARIT_INTERIEUR_18MM
 10
954.9633960649362
 20
2256.0
 30
0.0
 42
-0.41421356237309503
 70
0
  0
VERTEX
  5
31E
  8
GABARIT_INTERIEUR_18MM
 10
958.1633960649361
 20
2259.2
 30
0.0
 42
-0.41421356237309503
 70
0
  0
VERTEX
  5
31F
  8
GABARIT_INTERIEUR_18MM
 10
961.3633960649361
 20
2256.0
 30
0.0
 42
-0.41421356237309503
 70
0
  0
VERTEX
  5
320
  8
GABARIT_INTERIEUR_18MM
 10
958.1633960649363
 20
2252.8
 30
0.0
 70
0
  0
VERTEX
  5
321
  8
GABARIT_INTERIEUR_18MM
 10
958.1633960649363
 20
2238.0
 30
0.0
 70
0
  0
VERTEX
  5
322
  8
GABARIT_INTERIEUR_18MM
 10
998.1633960649363
 20
2238.0
 30
0.0
 70
0
  0
VERTEX
  5
323
  8
GABARIT_INTERIEUR_18MM
 10
998.1633960649363
 20
2252.8
 30
0.0
 42
-0.41421356237309503
 70
0
  0
VERTEX
  5
324
  8
GABARIT_INTERIEUR_18MM
 10
994.9633960649364
 20
2256.0
 30
0.0
 42
-0.41421356237309503
 70
0
  0
VERTEX
  5
325
  8
GABARIT_INTERIEUR_18MM
 10
998.1633960649365
 20
2259.2
 30
0.0
 42
-0.41421356237309503
 70
0
  0
VERTEX
  5
326
  8
GABARIT_INTERIEUR_18MM
 10
1001.3633960649363
 20
2256.0
 30
0.0
 70
0
  0
VERTEX
  5
327
  8
GABARIT_INTERIEUR_18MM
 10
1068.0505502024932
 20
2256.0
 30
0.0
 70
0
  0
VERTEX
  5
328
  8
GABARIT_INTERIEUR_18MM
 10
1017.6505502024934
 20
2445.0
 30
0.0
 70
0
  0
VERTEX
  5
329
  8
GABARIT_INTERIEUR_18MM
 10
973.7087686018568
 20
2445.0
 30
0.0
 42
-0.41421356237309503
 70
0
  0
VERTEX
  5
32A
  8
GABARIT_INTERIEUR_18MM
 10
970.5087686018569
 20
2441.8
 30
0.0
 42
-0.41421356237309503
 70
0
  0
VERTEX
  5
32B
  8
GABARIT_INTERIEUR_18MM
 10
967.3087686018571
 20
2445.0
 30
0.0
 42
-0.41421356237309503
 70
0
  0
VERTEX
  5
32C
  8
GABARIT_INTERIEUR_18MM
 10
970.5087686018569
 20
2448.2
 30
0.0
 70
0
  0
VERTEX
  5
32D
  8
GABARIT_INTERIEUR_18MM
 10
970.5087686018569
 20
2463.0
 30
0.0
 70
0
  0
VERTEX
  5
32E
  8
GABARIT_INTERIEUR_18MM
 10
930.5087686018569
 20
2463.0
 30
0.0
 70
0
  0
VERTEX
  5
32F
  8
GABARIT_INTERIEUR_18MM
 10
930.5087686018569
 20
2448.2
 30
0.0
 42
-0.41421356237309503
 70
0
  0
VERTEX
  5
330
  8
GABARIT_INTERIEUR_18MM
 10
933.7087686018567
 20
2445.0
 30
0.0
 42
-0.41421356237309503
 70
0
  0
VERTEX
  5
331
  8
GABARIT_INTERIEUR_18MM
 10
930.5087686018567
 20
2441.8
 30
0.0
 42
-0.41421356237309503
 70
0
  0
VERTEX
  5
332
  8
GABARIT_INTERIEUR_18MM
 10
927.3087686018569
 20
2445.0
 30
0.0
 70
0
  0
VERTEX
  5
333
  8
GABARIT_INTERIEUR_18MM
 10
888.5252751012466
 20
2445.0
 30
0.0
 70
0
  0
VERTEX
  5
334
  8
GABARIT_INTERIEUR_18MM
 10
888.5252751012466
 20
2353.7
 30
0.0
 42
-0.41421356237309503
 70
0
  0
VERTEX
  5
335
  8
GABARIT_INTERIEUR_18MM
 10
891.7252751012463
 20
2350.5
 30
0.0
 42
-0.41421356237309503
 70
0
  0
VERTEX
  5
336
  8
GABARIT_INTERIEUR_18MM
 10
888.5252751012464
 20
2347.3
 30
0.0
 42
-0.41421356237309503
 70
0
  0
VERTEX
  5
337
  8
GABARIT_INTERIEUR_18MM
 10
885.3252751012467
 20
2350.5
 30
0.0
 70
0
  0
VERTEX
  5
338
  8
GABARIT_INTERIEUR_18MM
 10
872.7252751012467
 20
2350.5
 30
0.0
 42
-0.41421356237309503
 70
0
  0
VERTEX
  5
339
  8
GABARIT_INTERIEUR_18MM
 10
869.5252751012467
 20
2347.3
 30
0.0
 42
-0.41421356237309503
 70
0
  0
VERTEX
  5
33A
  8
GABARIT_INTERIEUR_18MM
 10
866.3252751012468
 20
2350.5
 30
0.0
 42
-0.41421356237309503
 70
0
  0
VERTEX
  5
33B
  8
GABARIT_INTERIEUR_18MM
 10
869.5252751012466
 20
2353.7
 30
0.0
 70
0
  0
VERTEX
  5
33C
  8
GABARIT_INTERIEUR_18MM
 10
869.5252751012466
 20
2445.0
 30
0.0
 70
0
  0
VERTEX
  5
33D
  8
GABARIT_INTERIEUR_18MM
 10
830.7417816006364
 20
2445.0
 30
0.0
 42
-0.41421356237309503
 70
0
  0
VERTEX
  5
33E
  8
GABARIT_INTERIEUR_18MM
 10
827.5417816006366
 20
2441.8
 30
0.0
 42
-0.41421356237309503
 70
0
  0
VERTEX
  5
33F
  8
GABARIT_INTERIEUR_18MM
 10
824.3417816006368
 20
2445.0
 30
0.0
 42
-0.41421356237309503
 70
0
  0
VERTEX
  5
340
  8
GABARIT_INTERIEUR_18MM
 10
827.5417816006365
 20
2448.2
 30
0.0
 70
0
  0
VERTEX
  5
341
  8
GABARIT_INTERIEUR_18MM
 10
827.5417816006365
 20
2463.0
 30
0.0
 70
0
  0
VERTEX
  5
342
  8
GABARIT_INTERIEUR_18MM
 10
787.5417816006365
 20
2463.0
 30
0.0
 70
0
  0
VERTEX
  5
343
  8
GABARIT_INTERIEUR_18MM
 10
787.5417816006365
 20
2448.2
 30
0.0
 42
-0.41421356237309503
 70
0
  0
VERTEX
  5
344
  8
GABARIT_INTERIEUR_18MM
 10
790.7417816006363
 20
2445.0
 30
0.0
 42
-0.41421356237309503
 70
0
  0
VERTEX
  5
345
  8
GABARIT_INTERIEUR_18MM
 10
787.5417816006362
 20
2441.8
 30
0.0
 42
-0.41421356237309503
 70
0
  0
VERTEX
  5
346
  8
GABARIT_INTERIEUR_18MM
 10
784.3417816006364
 20
2445.0
 30
0.0
 70
0
  0
VERTEX
  5
347
  8
GABARIT_INTERIEUR_18MM
 10
740.4
 20
2445.0
 30
0.0
 70
0
  0
SEQEND
  5
311
  8
GABARIT_INTERIEUR_18MM
  0
CIRCLE
  5
348
  8
GABARIT_INTERIEUR_18MM
 10
216.32527510124666
 20
2252.325275101247
 30
0.0
 40
134.32527510124666
  0
POLYLINE
  5
349
  8
GABARIT_INTERIEUR_18MM
 66
1
 10
0.0
 20
0.0
 30
0.0
 70
1
  0
VERTEX
  5
34B
  8
GABARIT_INTERIEUR_18MM
 10
124.34178160063645
 20
2246.0252751012467
 30
0.0
 42
0.41421356237309503
 70
0
  0
VERTEX
  5
34C
  8
GABARIT_INTERIEUR_18MM
 10
121.14178160063665
 20
2242.825275101247
 30
0.0
 42
0.41421356237309503
 70
0
  0
VERTEX
  5
34D
  8
GABARIT_INTERIEUR_18MM
 10
124.34178160063665
 20
2239.625275101247
 30
0.0
 42
0.41421356237309503
 70
0
  0
VERTEX
  5
34E
  8
GABARIT_INTERIEUR_18MM
 10
127.54178160063645
 20
2242.825275101247
 30
0.0
 70
0
  0
VERTEX
  5
34F
  8
GABARIT_INTERIEUR_18MM
 10
162.14178160063645
 20
2242.825275101247
 30
0.0
 42
0.41421356237309503
 70
0
  0
VERTEX
  5
350
  8
GABARIT_INTERIEUR_18MM
 10
165.34178160063638
 20
2239.625275101247
 30
0.0
 42
0.41421356237309503
 70
0
  0
VERTEX
  5
351
  8
GABARIT_INTERIEUR_18MM
 10
168.5417816006363
 20
2242.825275101247
 30
0.0
 42
0.41421356237309503
 70
0
  0
VERTEX
  5
352
  8
GABARIT_INTERIEUR_18MM
 10
165.34178160063647
 20
2246.0252751012467
 30
0.0
 70
0
  0
VERTEX
  5
353
  8
GABARIT_INTERIEUR_18MM
 10
165.34178160063647
 20
2258.6252751012466
 30
0.0
 42
0.41421356237309503
 70
0
  0
VERTEX
  5
354
  8
GABARIT_INTERIEUR_18MM
 10
168.54178160063674
 20
2261.825275101247
 30
0.0
 42
0.41421356237309503
 70
0
  0
VERTEX
  5
355
  8
GABARIT_INTERIEUR_18MM
 10
165.34178160063675
 20
2265.025275101247
 30
0.0
 42
0.41421356237309503
 70
0
  0
VERTEX
  5
356
  8
GABARIT_INTERIEUR_18MM
 10
162.14178160063645
 20
2261.825275101247
 30
0.0
 70
0
  0
VERTEX
  5
357
  8
GABARIT_INTERIEUR_18MM
 10
127.54178160063645
 20
2261.825275101247
 30
0.0
 42
0.41421356237309503
 70
0
  0
VERTEX
  5
358
  8
GABARIT_INTERIEUR_18MM
 10
124.34178160063631
 20
2265.025275101247
 30
0.0
 42
0.41421356237309503
 70
0
  0
VERTEX
  5
359
  8
GABARIT_INTERIEUR_18MM
 10
121.14178160063616
 20
2261.825275101247
 30
0.0
 42
0.41421356237309503
 70
0
  0
VERTEX
  5
35A
  8
GABARIT_INTERIEUR_18MM
 10
124.34178160063645
 20
2258.6252751012466
 30
0.0
 70
0
  0
SEQEND
  5
34A
  8
GABARIT_INTERIEUR_18MM
  0
POLYLINE
  5
35B
  8
GABARIT_INTERIEUR_18MM
 66
1
 10
0.0
 20
0.0
 30
0.0
 70
1
  0
VERTEX
  5
35D
  8
GABARIT_INTERIEUR_18MM
 10
267.30876860185685
 20
2246.0252751012467
 30
0.0
 42
0.41421356237309503
 70
0
  0
VERTEX
  5
35E
  8
GABARIT_INTERIEUR_18MM
 10
264.10876860185704
 20
2242.825275101247
 30
0.0
 42
0.41421356237309503
 70
0
  0
VERTEX
  5
35F
  8
GABARIT_INTERIEUR_18MM
 10
267.3087686018571
 20
2239.625275101247
 30
0.0
 42
0.41421356237309503
 70
0
  0
VERTEX
  5
360
  8
GABARIT_INTERIEUR_18MM
 10
270.5087686018569
 20
2242.825275101247
 30
0.0
 70
0
  0
VERTEX
  5
361
  8
GABARIT_INTERIEUR_18MM
 10
305.10876860185687
 20
2242.825275101247
 30
0.0
 42
0.41421356237309503
 70
0
  0
VERTEX
  5
362
  8
GABARIT_INTERIEUR_18MM
 10
308.30876860185674
 20
2239.625275101247
 30
0.0
 42
0.41421356237309503
 70
0
  0
VERTEX
  5
363
  8
GABARIT_INTERIEUR_18MM
 10
311.5087686018567
 20
2242.825275101247
 30
0.0
 42
0.41421356237309503
 70
0
  0
VERTEX
  5
364
  8
GABARIT_INTERIEUR_18MM
 10
308.30876860185685
 20
2246.0252751012467
 30
0.0
 70
0
  0
VERTEX
  5
365
  8
GABARIT_INTERIEUR_18MM
 10
308.30876860185685
 20
2258.6252751012466
 30
0.0
 42
0.41421356237309503
 70
0
  0
VERTEX
  5
366
  8
GABARIT_INTERIEUR_18MM
 10
311.5087686018571
 20
2261.825275101247
 30
0.0
 42
0.41421356237309503
 70
0
  0
VERTEX
  5
367
  8
GABARIT_INTERIEUR_18MM
 10
308.3087686018572
 20
2265.025275101247
 30
0.0
 42
0.41421356237309503
 70
0
  0
VERTEX
  5
368
  8
GABARIT_INTERIEUR_18MM
 10
305.10876860185687
 20
2261.825275101247
 30
0.0
 70
0
  0
VERTEX
  5
369
  8
GABARIT_INTERIEUR_18MM
 10
270.5087686018569
 20
2261.825275101247
 30
0.0
 42
0.41421356237309503
 70
0
  0
VERTEX
  5
36A
  8
GABARIT_INTERIEUR_18MM
 10
267.30876860185674
 20
2265.025275101247
 30
0.0
 42
0.41421356237309503
 70
0
  0
VERTEX
  5
36B
  8
GABARIT_INTERIEUR_18MM
 10
264.1087686018566
 20
2261.825275101247
 30
0.0
 42
0.41421356237309503
 70
0
  0
VERTEX
  5
36C
  8
GABARIT_INTERIEUR_18MM
 10
267.30876860185685
 20
2258.6252751012466
 30
0.0
 70
0
  0
SEQEND
  5
35C
  8
GABARIT_INTERIEUR_18MM
  0
POLYLINE
  5
36D
  8
GABARIT_INTERIEUR_18MM
 66
1
 10
0.0
 20
0.0
 30
0.0
 70
1
  0
VERTEX
  5
36F
  8
GABARIT_INTERIEUR_18MM
 10
222.62527510124664
 20
2160.3417816006363
 30
0.0
 42
0.41421356237309503
 70
0
  0
VERTEX
  5
370
  8
GABARIT_INTERIEUR_18MM
 10
225.8252751012468
 20
2157.141781600636
 30
0.0
 42
0.41421356237309503
 70
0
  0
VERTEX
  5
371
  8
GABARIT_INTERIEUR_18MM
 10
229.02527510124696
 20
2160.3417816006363
 30
0.0
 42
0.41421356237309503
 70
0
  0
VERTEX
  5
372
  8
GABARIT_INTERIEUR_18MM
 10
225.82527510124666
 20
2163.5417816006366
 30
0.0
 70
0
  0
VERTEX
  5
373
  8
GABARIT_INTERIEUR_18MM
 10
225.82527510124666
 20
2198.1417816006365
 30
0.0
 42
0.41421356237309503
 70
0
  0
VERTEX
  5
374
  8
GABARIT_INTERIEUR_18MM
 10
229.0252751012465
 20
2201.3417816006363
 30
0.0
 42
0.41421356237309503
 70
0
  0
VERTEX
  5
375
  8
GABARIT_INTERIEUR_18MM
 10
225.8252751012465
 20
2204.541781600636
 30
0.0
 42
0.41421356237309503
 70
0
  0
VERTEX
  5
376
  8
GABARIT_INTERIEUR_18MM
 10
222.62527510124664
 20
2201.3417816006363
 30
0.0
 70
0
  0
VERTEX
  5
377
  8
GABARIT_INTERIEUR_18MM
 10
210.02527510124665
 20
2201.3417816006363
 30
0.0
 42
0.41421356237309503
 70
0
  0
VERTEX
  5
378
  8
GABARIT_INTERIEUR_18MM
 10
206.82527510124675
 20
2204.541781600636
 30
0.0
 42
0.41421356237309503
 70
0
  0
VERTEX
  5
379
  8
GABARIT_INTERIEUR_18MM
 10
203.62527510124684
 20
2201.3417816006363
 30
0.0
 42
0.41421356237309503
 70
0
  0
VERTEX
  5
37A
  8
GABARIT_INTERIEUR_18MM
 10
206.82527510124666
 20
2198.1417816006365
 30
0.0
 70
0
  0
VERTEX
  5
37B
  8
GABARIT_INTERIEUR_18MM
 10
206.82527510124666
 20
2163.5417816006366
 30
0.0
 42
0.41421356237309503
 70
0
  0
VERTEX
  5
37C
  8
GABARIT_INTERIEUR_18MM
 10
203.6252751012464
 20
2160.3417816006363
 30
0.0
 42
0.41421356237309503
 70
0
  0
VERTEX
  5
37D
  8
GABARIT_INTERIEUR_18MM
 10
206.82527510124638
 20
2157.141781600636
 30
0.0
 42
0.41421356237309503
 70
0
  0
VERTEX
  5
37E
  8
GABARIT_INTERIEUR_18MM
 10
210.02527510124665
 20
2160.3417816006363
 30
0.0
 70
0
  0
SEQEND
  5
36E
  8
GABARIT_INTERIEUR_18MM
  0
POLYLINE
  5
37F
  8
GABARIT_INTERIEUR_18MM
 66
1
 10
0.0
 20
0.0
 30
0.0
 70
1
  0
VERTEX
  5
381
  8
GABARIT_INTERIEUR_18MM
 10
222.62527510124667
 20
2303.308768601857
 30
0.0
 42
0.41421356237309503
 70
0
  0
VERTEX
  5
382
  8
GABARIT_INTERIEUR_18MM
 10
225.82527510124658
 20
2300.1087686018573
 30
0.0
 42
0.41421356237309503
 70
0
  0
VERTEX
  5
383
  8
GABARIT_INTERIEUR_18MM
 10
229.02527510124648
 20
2303.308768601857
 30
0.0
 42
0.41421356237309503
 70
0
  0
VERTEX
  5
384
  8
GABARIT_INTERIEUR_18MM
 10
225.82527510124666
 20
2306.508768601857
 30
0.0
 70
0
  0
VERTEX
  5
385
  8
GABARIT_INTERIEUR_18MM
 10
225.82527510124666
 20
2341.108768601857
 30
0.0
 42
0.41421356237309503
 70
0
  0
VERTEX
  5
386
  8
GABARIT_INTERIEUR_18MM
 10
229.02527510124693
 20
2344.308768601857
 30
0.0
 42
0.41421356237309503
 70
0
  0
VERTEX
  5
387
  8
GABARIT_INTERIEUR_18MM
 10
225.82527510124694
 20
2347.5087686018574
 30
0.0
 42
0.41421356237309503
 70
0
  0
VERTEX
  5
388
  8
GABARIT_INTERIEUR_18MM
 10
222.62527510124667
 20
2344.308768601857
 30
0.0
 70
0
  0
VERTEX
  5
389
  8
GABARIT_INTERIEUR_18MM
 10
210.02527510124668
 20
2344.308768601857
 30
0.0
 42
0.41421356237309503
 70
0
  0
VERTEX
  5
38A
  8
GABARIT_INTERIEUR_18MM
 10
206.82527510124652
 20
2347.5087686018574
 30
0.0
 42
0.41421356237309503
 70
0
  0
VERTEX
  5
38B
  8
GABARIT_INTERIEUR_18MM
 10
203.62527510124636
 20
2344.308768601857
 30
0.0
 42
0.41421356237309503
 70
0
  0
VERTEX
  5
38C
  8
GABARIT_INTERIEUR_18MM
 10
206.82527510124666
 20
2341.108768601857
 30
0.0
 70
0
  0
VERTEX
  5
38D
  8
GABARIT_INTERIEUR_18MM
 10
206.82527510124666
 20
2306.508768601857
 30
0.0
 42
0.41421356237309503
 70
0
  0
VERTEX
  5
38E
  8
GABARIT_INTERIEUR_18MM
 10
203.62527510124684
 20
2303.308768601857
 30
0.0
 42
0.41421356237309503
 70
0
  0
VERTEX
  5
38F
  8
GABARIT_INTERIEUR_18MM
 10
206.8252751012469
 20
2300.1087686018573
 30
0.0
 42
0.41421356237309503
 70
0
  0
VERTEX
  5
390
  8
GABARIT_INTERIEUR_18MM
 10
210.02527510124668
 20
2303.308768601857
 30
0.0
 70
0
  0
SEQEND
  5
380
  8
GABARIT_INTERIEUR_18MM
  0
CIRCLE
  5
391
  8
GABARIT_INTERIEUR_18MM
 10
867.5252751012466
 20
1875.5252751012467
 30
0.0
 40
129.52527510124662
  0
POLYLINE
  5
392
  8
GABARIT_INTERIEUR_18MM
 66
1
 10
0.0
 20
0.0
 30
0.0
 70
1
  0
VERTEX
  5
394
  8
GABARIT_INTERIEUR_18MM
 10
808.6399788360685
 20
1807.730433393118
 30
0.0
 42
0.41421356237309503
 70
0
  0
VERTEX
  5
395
  8
GABARIT_INTERIEUR_18MM
 10
808.6399788360686
 20
1803.204949993524
 30
0.0
 42
0.41421356237309503
 70
0
  0
VERTEX
  5
396
  8
GABARIT_INTERIEUR_18MM
 10
813.1654622356625
 20
1803.2049499935242
 30
0.0
 42
0.41421356237309503
 70
0
  0
VERTEX
  5
397
  8
GABARIT_INTERIEUR_18MM
 10
813.1654622356624
 20
1807.730433393118
 30
0.0
 70
0
  0
VERTEX
  5
398
  8
GABARIT_INTERIEUR_18MM
 10
837.631356864717
 20
1832.1963280221726
 30
0.0
 42
0.41421356237309503
 70
0
  0
VERTEX
  5
399
  8
GABARIT_INTERIEUR_18MM
 10
842.1568402643107
 20
1832.1963280221723
 30
0.0
 42
0.41421356237309503
 70
0
  0
VERTEX
  5
39A
  8
GABARIT_INTERIEUR_18MM
 10
842.156840264311
 20
1836.7218114217662
 30
0.0
 42
0.41421356237309503
 70
0
  0
VERTEX
  5
39B
  8
GABARIT_INTERIEUR_18MM
 10
837.631356864717
 20
1836.7218114217665
 30
0.0
 70
0
  0
VERTEX
  5
39C
  8
GABARIT_INTERIEUR_18MM
 10
828.7218114217665
 20
1845.631356864717
 30
0.0
 42
0.41421356237309503
 70
0
  0
VERTEX
  5
39D
  8
GABARIT_INTERIEUR_18MM
 10
828.7218114217665
 20
1850.1568402643109
 30
0.0
 42
0.41421356237309503
 70
0
  0
VERTEX
  5
39E
  8
GABARIT_INTERIEUR_18MM
 10
824.1963280221727
 20
1850.156840264311
 30
0.0
 42
0.41421356237309503
 70
0
  0
VERTEX
  5
39F
  8
GABARIT_INTERIEUR_18MM
 10
824.1963280221726
 20
1845.631356864717
 30
0.0
 70
0
  0
VERTEX
  5
3A0
  8
GABARIT_INTERIEUR_18MM
 10
799.730433393118
 20
1821.1654622356623
 30
0.0
 42
0.41421356237309503
 70
0
  0
VERTEX
  5
3A1
  8
GABARIT_INTERIEUR_18MM
 10
795.2049499935243
 20
1821.1654622356623
 30
0.0
 42
0.41421356237309503
 70
0
  0
VERTEX
  5
3A2
  8
GABARIT_INTERIEUR_18MM
 10
795.2049499935243
 20
1816.6399788360686
 30
0.0
 42
0.41421356237309503
 70
0
  0
VERTEX
  5
3A3
  8
GABARIT_INTERIEUR_18MM
 10
799.730433393118
 20
1816.6399788360686
 30
0.0
 70
0
  0
SEQEND
  5
393
  8
GABARIT_INTERIEUR_18MM
  0
POLYLINE
  5
3A4
  8
GABARIT_INTERIEUR_18MM
 66
1
 10
0.0
 20
0.0
 30
0.0
 70
1
  0
VERTEX
  5
3A6
  8
GABARIT_INTERIEUR_18MM
 10
906.3287387807269
 20
1905.4191933377765
 30
0.0
 42
0.41421356237309503
 70
0
  0
VERTEX
  5
3A7
  8
GABARIT_INTERIEUR_18MM
 10
906.328738780727
 20
1900.8937099381826
 30
0.0
 42
0.41421356237309503
 70
0
  0
VERTEX
  5
3A8
  8
GABARIT_INTERIEUR_18MM
 10
910.8542221803209
 20
1900.8937099381828
 30
0.0
 42
0.41421356237309503
 70
0
  0
VERTEX
  5
3A9
  8
GABARIT_INTERIEUR_18MM
 10
910.8542221803208
 20
1905.4191933377765
 30
0.0
 70
0
  0
VERTEX
  5
3AA
  8
GABARIT_INTERIEUR_18MM
 10
935.3201168093753
 20
1929.885087966831
 30
0.0
 42
0.41421356237309503
 70
0
  0
VERTEX
  5
3AB
  8
GABARIT_INTERIEUR_18MM
 10
939.8456002089691
 20
1929.8850879668307
 30
0.0
 42
0.41421356237309503
 70
0
  0
VERTEX
  5
3AC
  8
GABARIT_INTERIEUR_18MM
 10
939.8456002089694
 20
1934.4105713664246
 30
0.0
 42
0.41421356237309503
 70
0
  0
VERTEX
  5
3AD
  8
GABARIT_INTERIEUR_18MM
 10
935.3201168093753
 20
1934.4105713664248
 30
0.0
 70
0
  0
VERTEX
  5
3AE
  8
GABARIT_INTERIEUR_18MM
 10
926.4105713664248
 20
1943.3201168093753
 30
0.0
 42
0.41421356237309503
 70
0
  0
VERTEX
  5
3AF
  8
GABARIT_INTERIEUR_18MM
 10
926.4105713664248
 20
1947.8456002089692
 30
0.0
 42
0.41421356237309503
 70
0
  0
VERTEX
  5
3B0
  8
GABARIT_INTERIEUR_18MM
 10
921.885087966831
 20
1947.845600208969
 30
0.0
 42
0.41421356237309503
 70
0
  0
VERTEX
  5
3B1
  8
GABARIT_INTERIEUR_18MM
 10
921.885087966831
 20
1943.3201168093753
 30
0.0
 70
0
  0
VERTEX
  5
3B2
  8
GABARIT_INTERIEUR_18MM
 10
897.4191933377764
 20
1918.854222180321
 30
0.0
 42
0.41421356237309503
 70
0
  0
VERTEX
  5
3B3
  8
GABARIT_INTERIEUR_18MM
 10
892.8937099381823
 20
1918.854222180321
 30
0.0
 42
0.41421356237309503
 70
0
  0
VERTEX
  5
3B4
  8
GABARIT_INTERIEUR_18MM
 10
892.8937099381823
 20
1914.3287387807268
 30
0.0
 42
0.41421356237309503
 70
0
  0
VERTEX
  5
3B5
  8
GABARIT_INTERIEUR_18MM
 10
897.4191933377764
 20
1914.3287387807268
 30
0.0
 70
0
  0
SEQEND
  5
3A5
  8
GABARIT_INTERIEUR_18MM
  0
POLYLINE
  5
3B6
  8
GABARIT_INTERIEUR_18MM
 66
1
 10
0.0
 20
0.0
 30
0.0
 70
1
  0
VERTEX
  5
3B8
  8
GABARIT_INTERIEUR_18MM
 10
935.3201168093753
 20
1816.6399788360686
 30
0.0
 42
0.41421356237309503
 70
0
  0
VERTEX
  5
3B9
  8
GABARIT_INTERIEUR_18MM
 10
939.845600208969
 20
1816.6399788360686
 30
0.0
 42
0.41421356237309503
 70
0
  0
VERTEX
  5
3BA
  8
GABARIT_INTERIEUR_18MM
 10
939.845600208969
 20
1821.1654622356623
 30
0.0
 42
0.41421356237309503
 70
0
  0
VERTEX
  5
3BB
  8
GABARIT_INTERIEUR_18MM
 10
935.3201168093753
 20
1821.1654622356623
 30
0.0
 70
0
  0
VERTEX
  5
3BC
  8
GABARIT_INTERIEUR_18MM
 10
910.8542221803208
 20
1845.631356864717
 30
0.0
 42
0.41421356237309503
 70
0
  0
VERTEX
  5
3BD
  8
GABARIT_INTERIEUR_18MM
 10
910.8542221803209
 20
1850.1568402643109
 30
0.0
 42
0.41421356237309503
 70
0
  0
VERTEX
  5
3BE
  8
GABARIT_INTERIEUR_18MM
 10
906.328738780727
 20
1850.156840264311
 30
0.0
 42
0.41421356237309503
 70
0
  0
VERTEX
  5
3BF
  8
GABARIT_INTERIEUR_18MM
 10
906.3287387807269
 20
1845.631356864717
 30
0.0
 70
0
  0
VERTEX
  5
3C0
  8
GABARIT_INTERIEUR_18MM
 10
897.4191933377764
 20
1836.7218114217665
 30
0.0
 42
0.41421356237309503
 70
0
  0
VERTEX
  5
3C1
  8
GABARIT_INTERIEUR_18MM
 10
892.8937099381825
 20
1836.7218114217667
 30
0.0
 42
0.41421356237309503
 70
0
  0
VERTEX
  5
3C2
  8
GABARIT_INTERIEUR_18MM
 10
892.8937099381825
 20
1832.1963280221728
 30
0.0
 42
0.41421356237309503
 70
0
  0
VERTEX
  5
3C3
  8
GABARIT_INTERIEUR_18MM
 10
897.4191933377764
 20
1832.1963280221726
 30
0.0
 70
0
  0
VERTEX
  5
3C4
  8
GABARIT_INTERIEUR_18MM
 10
921.885087966831
 20
1807.730433393118
 30
0.0
 42
0.41421356237309503
 70
0
  0
VERTEX
  5
3C5
  8
GABARIT_INTERIEUR_18MM
 10
921.8850879668311
 20
1803.204949993524
 30
0.0
 42
0.41421356237309503
 70
0
  0
VERTEX
  5
3C6
  8
GABARIT_INTERIEUR_18MM
 10
926.410571366425
 20
1803.2049499935242
 30
0.0
 42
0.41421356237309503
 70
0
  0
VERTEX
  5
3C7
  8
GABARIT_INTERIEUR_18MM
 10
926.4105713664248
 20
1807.730433393118
 30
0.0
 70
0
  0
SEQEND
  5
3B7
  8
GABARIT_INTERIEUR_18MM
  0
POLYLINE
  5
3C8
  8
GABARIT_INTERIEUR_18MM
 66
1
 10
0.0
 20
0.0
 30
0.0
 70
1
  0
VERTEX
  5
3CA
  8
GABARIT_INTERIEUR_18MM
 10
837.631356864717
 20
1914.3287387807268
 30
0.0
 42
0.41421356237309503
 70
0
  0
VERTEX
  5
3CB
  8
GABARIT_INTERIEUR_18MM
 10
842.1568402643111
 20
1914.3287387807268
 30
0.0
 42
0.41421356237309503
 70
0
  0
VERTEX
  5
3CC
  8
GABARIT_INTERIEUR_18MM
 10
842.1568402643111
 20
1918.854222180321
 30
0.0
 42
0.41421356237309503
 70
0
  0
VERTEX
  5
3CD
  8
GABARIT_INTERIEUR_18MM
 10
837.631356864717
 20
1918.854222180321
 30
0.0
 70
0
  0
VERTEX
  5
3CE
  8
GABARIT_INTERIEUR_18MM
 10
813.1654622356624
 20
1943.3201168093753
 30
0.0
 42
0.41421356237309503
 70
0
  0
VERTEX
  5
3CF
  8
GABARIT_INTERIEUR_18MM
 10
813.1654622356623
 20
1947.8456002089692
 30
0.0
 42
0.41421356237309503
 70
0
  0
VERTEX
  5
3D0
  8
GABARIT_INTERIEUR_18MM
 10
808.6399788360685
 20
1947.845600208969
 30
0.0
 42
0.41421356237309503
 70
0
  0
VERTEX
  5
3D1
  8
GABARIT_INTERIEUR_18MM
 10
808.6399788360685
 20
1943.3201168093753
 30
0.0
 70
0
  0
VERTEX
  5
3D2
  8
GABARIT_INTERIEUR_18MM
 10
799.730433393118
 20
1934.4105713664248
 30
0.0
 42
0.41421356237309503
 70
0
  0
VERTEX
  5
3D3
  8
GABARIT_INTERIEUR_18MM
 10
795.204949993524
 20
1934.4105713664246
 30
0.0
 42
0.41421356237309503
 70
0
  0
VERTEX
  5
3D4
  8
GABARIT_INTERIEUR_18MM
 10
795.2049499935242
 20
1929.8850879668307
 30
0.0
 42
0.41421356237309503
 70
0
  0
VERTEX
  5
3D5
  8
GABARIT_INTERIEUR_18MM
 10
799.730433393118
 20
1929.885087966831
 30
0.0
 70
0
  0
VERTEX
  5
3D6
  8
GABARIT_INTERIEUR_18MM
 10
824.1963280221726
 20
1905.4191933377765
 30
0.0
 42
0.41421356237309503
 70
0
  0
VERTEX
  5
3D7
  8
GABARIT_INTERIEUR_18MM
 10
824.1963280221727
 20
1900.8937099381826
 30
0.0
 42
0.41421356237309503
 70
0
  0
VERTEX
  5
3D8
  8
GABARIT_INTERIEUR_18MM
 10
828.7218114217666
 20
1900.8937099381828
 30
0.0
 42
0.41421356237309503
 70
0
  0
VERTEX
  5
3D9
  8
GABARIT_INTERIEUR_18MM
 10
828.7218114217665
 20
1905.4191933377765
 30
0.0
 70
0
  0
SEQEND
  5
3C9
  8
GABARIT_INTERIEUR_18MM
  0
POLYLINE
  5
3DA
  8
GABARIT_INTERIEUR_18MM
 66
1
 10
0.0
 20
0.0
 30
0.0
 70
1
  0
VERTEX
  5
3DC
  8
GABARIT_INTERIEUR_18MM
 10
36.00000000000006
 20
2708.0505502024935
 30
0.0
 70
0
  0
VERTEX
  5
3DD
  8
GABARIT_INTERIEUR_18MM
 10
36.00000000000006
 20
2671.3016597038195
 30
0.0
 42
-0.41421356237309503
 70
0
  0
VERTEX
  5
3DE
  8
GABARIT_INTERIEUR_18MM
 10
39.199999999999875
 20
2668.1016597038197
 30
0.0
 42
-0.41421356237309503
 70
0
  0
VERTEX
  5
3DF
  8
GABARIT_INTERIEUR_18MM
 10
35.999999999999886
 20
2664.90165970382
 30
0.0
 42
-0.41421356237309503
 70
0
  0
VERTEX
  5
3E0
  8
GABARIT_INTERIEUR_18MM
 10
32.80000000000007
 20
2668.1016597038197
 30
0.0
 70
0
  0
VERTEX
  5
3E1
  8
GABARIT_INTERIEUR_18MM
 10
18.000000000000057
 20
2668.1016597038197
 30
0.0
 70
0
  0
VERTEX
  5
3E2
  8
GABARIT_INTERIEUR_18MM
 10
18.00000000000003
 20
2628.1016597038197
 30
0.0
 70
0
  0
VERTEX
  5
3E3
  8
GABARIT_INTERIEUR_18MM
 10
32.80000000000004
 20
2628.1016597038197
 30
0.0
 42
-0.41421356237309503
 70
0
  0
VERTEX
  5
3E4
  8
GABARIT_INTERIEUR_18MM
 10
36.00000000000017
 20
2631.30165970382
 30
0.0
 42
-0.41421356237309503
 70
0
  0
VERTEX
  5
3E5
  8
GABARIT_INTERIEUR_18MM
 10
39.2000000000003
 20
2628.1016597038197
 30
0.0
 42
-0.41421356237309503
 70
0
  0
VERTEX
  5
3E6
  8
GABARIT_INTERIEUR_18MM
 10
36.00000000000003
 20
2624.9016597038194
 30
0.0
 70
0
  0
VERTEX
  5
3E7
  8
GABARIT_INTERIEUR_18MM
 10
36.00000000000003
 20
2588.5252751012467
 30
0.0
 70
0
  0
VERTEX
  5
3E8
  8
GABARIT_INTERIEUR_18MM
 10
127.30000000000004
 20
2588.5252751012467
 30
0.0
 42
-0.41421356237309503
 70
0
  0
VERTEX
  5
3E9
  8
GABARIT_INTERIEUR_18MM
 10
130.49999999999994
 20
2591.7252751012466
 30
0.0
 42
-0.41421356237309503
 70
0
  0
VERTEX
  5
3EA
  8
GABARIT_INTERIEUR_18MM
 10
133.69999999999985
 20
2588.5252751012467
 30
0.0
 42
-0.41421356237309503
 70
0
  0
VERTEX
  5
3EB
  8
GABARIT_INTERIEUR_18MM
 10
130.50000000000003
 20
2585.325275101247
 30
0.0
 70
0
  0
VERTEX
  5
3EC
  8
GABARIT_INTERIEUR_18MM
 10
130.50000000000003
 20
2572.7252751012466
 30
0.0
 42
-0.41421356237309503
 70
0
  0
VERTEX
  5
3ED
  8
GABARIT_INTERIEUR_18MM
 10
133.69999999999985
 20
2569.5252751012467
 30
0.0
 42
-0.41421356237309503
 70
0
  0
VERTEX
  5
3EE
  8
GABARIT_INTERIEUR_18MM
 10
130.49999999999986
 20
2566.325275101247
 30
0.0
 42
-0.41421356237309503
 70
0
  0
VERTEX
  5
3EF
  8
GABARIT_INTERIEUR_18MM
 10
127.30000000000004
 20
2569.5252751012467
 30
0.0
 70
0
  0
VERTEX
  5
3F0
  8
GABARIT_INTERIEUR_18MM
 10
36.00000000000003
 20
2569.5252751012467
 30
0.0
 70
0
  0
VERTEX
  5
3F1
  8
GABARIT_INTERIEUR_18MM
 10
36.00000000000003
 20
2533.148890498674
 30
0.0
 42
-0.41421356237309503
 70
0
  0
VERTEX
  5
3F2
  8
GABARIT_INTERIEUR_18MM
 10
39.2000000000003
 20
2529.948890498674
 30
0.0
 42
-0.41421356237309503
 70
0
  0
VERTEX
  5
3F3
  8
GABARIT_INTERIEUR_18MM
 10
36.00000000000031
 20
2526.7488904986735
 30
0.0
 42
-0.41421356237309503
 70
0
  0
VERTEX
  5
3F4
  8
GABARIT_INTERIEUR_18MM
 10
32.80000000000004
 20
2529.948890498674
 30
0.0
 70
0
  0
VERTEX
  5
3F5
  8
GABARIT_INTERIEUR_18MM
 10
18.00000000000003
 20
2529.948890498674
 30
0.0
 70
0
  0
VERTEX
  5
3F6
  8
GABARIT_INTERIEUR_18MM
 10
18.0
 20
2489.948890498674
 30
0.0
 70
0
  0
VERTEX
  5
3F7
  8
GABARIT_INTERIEUR_18MM
 10
32.80000000000001
 20
2489.948890498674
 30
0.0
 42
-0.41421356237309503
 70
0
  0
VERTEX
  5
3F8
  8
GABARIT_INTERIEUR_18MM
 10
35.999999999999915
 20
2493.1488904986736
 30
0.0
 42
-0.41421356237309503
 70
0
  0
VERTEX
  5
3F9
  8
GABARIT_INTERIEUR_18MM
 10
39.19999999999982
 20
2489.948890498674
 30
0.0
 42
-0.41421356237309503
 70
0
  0
VERTEX
  5
3FA
  8
GABARIT_INTERIEUR_18MM
 10
36.0
 20
2486.748890498674
 30
0.0
 70
0
  0
VERTEX
  5
3FB
  8
GABARIT_INTERIEUR_18MM
 10
36.0
 20
2450.0
 30
0.0
 70
0
  0
VERTEX
  5
3FC
  8
GABARIT_INTERIEUR_18MM
 10
225.00000000000003
 20
2500.4
 30
0.0
 70
0
  0
VERTEX
  5
3FD
  8
GABARIT_INTERIEUR_18MM
 10
225.00000000000003
 20
2514.5056250144276
 30
0.0
 42
-0.41421356237309503
 70
0
  0
VERTEX
  5
3FE
  8
GABARIT_INTERIEUR_18MM
 10
221.8000000000002
 20
2517.7056250144274
 30
0.0
 42
-0.41421356237309503
 70
0
  0
VERTEX
  5
3FF
  8
GABARIT_INTERIEUR_18MM
 10
225.0000000000002
 20
2520.905625014427
 30
0.0
 42
-0.41421356237309503
 70
0
  0
VERTEX
  5
400
  8
GABARIT_INTERIEUR_18MM
 10
228.20000000000002
 20
2517.7056250144274
 30
0.0
 70
0
  0
VERTEX
  5
401
  8
GABARIT_INTERIEUR_18MM
 10
243.00000000000003
 20
2517.7056250144274
 30
0.0
 70
0
  0
VERTEX
  5
402
  8
GABARIT_INTERIEUR_18MM
 10
243.00000000000003
 20
2557.7056250144274
 30
0.0
 70
0
  0
VERTEX
  5
403
  8
GABARIT_INTERIEUR_18MM
 10
228.20000000000002
 20
2557.7056250144274
 30
0.0
 42
-0.41421356237309503
 70
0
  0
VERTEX
  5
404
  8
GABARIT_INTERIEUR_18MM
 10
224.9999999999999
 20
2554.505625014427
 30
0.0
 42
-0.41421356237309503
 70
0
  0
VERTEX
  5
405
  8
GABARIT_INTERIEUR_18MM
 10
221.79999999999976
 20
2557.7056250144274
 30
0.0
 42
-0.41421356237309503
 70
0
  0
VERTEX
  5
406
  8
GABARIT_INTERIEUR_18MM
 10
225.00000000000003
 20
2560.9056250144276
 30
0.0
 70
0
  0
VERTEX
  5
407
  8
GABARIT_INTERIEUR_18MM
 10
225.00000000000003
 20
2597.144925188066
 30
0.0
 42
-0.41421356237309503
 70
0
  0
VERTEX
  5
408
  8
GABARIT_INTERIEUR_18MM
 10
221.8000000000002
 20
2600.3449251880656
 30
0.0
 42
-0.41421356237309503
 70
0
  0
VERTEX
  5
409
  8
GABARIT_INTERIEUR_18MM
 10
225.0000000000002
 20
2603.5449251880655
 30
0.0
 42
-0.41421356237309503
 70
0
  0
VERTEX
  5
40A
  8
GABARIT_INTERIEUR_18MM
 10
228.20000000000002
 20
2600.3449251880656
 30
0.0
 70
0
  0
VERTEX
  5
40B
  8
GABARIT_INTERIEUR_18MM
 10
243.00000000000003
 20
2600.3449251880656
 30
0.0
 70
0
  0
VERTEX
  5
40C
  8
GABARIT_INTERIEUR_18MM
 10
243.00000000000003
 20
2640.3449251880656
 30
0.0
 70
0
  0
VERTEX
  5
40D
  8
GABARIT_INTERIEUR_18MM
 10
228.20000000000002
 20
2640.3449251880656
 30
0.0
 42
-0.41421356237309503
 70
0
  0
VERTEX
  5
40E
  8
GABARIT_INTERIEUR_18MM
 10
224.9999999999999
 20
2637.1449251880654
 30
0.0
 42
-0.41421356237309503
 70
0
  0
VERTEX
  5
40F
  8
GABARIT_INTERIEUR_18MM
 10
221.79999999999976
 20
2640.3449251880656
 30
0.0
 42
-0.41421356237309503
 70
0
  0
VERTEX
  5
410
  8
GABARIT_INTERIEUR_18MM
 10
225.00000000000003
 20
2643.544925188066
 30
0.0
 70
0
  0
VERTEX
  5
411
  8
GABARIT_INTERIEUR_18MM
 10
225.00000000000003
 20
2657.6505502024934
 30
0.0
 70
0
  0
SEQEND
  5
3DB
  8
GABARIT_INTERIEUR_18MM
  0
POLYLINE
  5
412
  8
GABARIT_INTERIEUR_18MM
 66
1
 10
0.0
 20
0.0
 30
0.0
 70
1
  0
VERTEX
  5
414
  8
GABARIT_INTERIEUR_18MM
 10
980.0505502024932
 20
2701.0
 30
0.0
 70
0
  0
VERTEX
  5
415
  8
GABARIT_INTERIEUR_18MM
 10
943.3016597038194
 20
2701.0
 30
0.0
 42
-0.41421356237309503
 70
0
  0
VERTEX
  5
416
  8
GABARIT_INTERIEUR_18MM
 10
940.1016597038195
 20
2697.8
 30
0.0
 42
-0.41421356237309503
 70
0
  0
VERTEX
  5
417
  8
GABARIT_INTERIEUR_18MM
 10
936.9016597038195
 20
2701.0
 30
0.0
 42
-0.41421356237309503
 70
0
  0
VERTEX
  5
418
  8
GABARIT_INTERIEUR_18MM
 10
940.1016597038193
 20
2704.2
 30
0.0
 70
0
  0
VERTEX
  5
419
  8
GABARIT_INTERIEUR_18MM
 10
940.1016597038193
 20
2719.0
 30
0.0
 70
0
  0
VERTEX
  5
41A
  8
GABARIT_INTERIEUR_18MM
 10
900.1016597038193
 20
2719.0
 30
0.0
 70
0
  0
VERTEX
  5
41B
  8
GABARIT_INTERIEUR_18MM
 10
900.1016597038193
 20
2704.2
 30
0.0
 42
-0.41421356237309503
 70
0
  0
VERTEX
  5
41C
  8
GABARIT_INTERIEUR_18MM
 10
903.301659703819
 20
2701.0
 30
0.0
 42
-0.41421356237309503
 70
0
  0
VERTEX
  5
41D
  8
GABARIT_INTERIEUR_18MM
 10
900.1016597038191
 20
2697.8
 30
0.0
 42
-0.41421356237309503
 70
0
  0
VERTEX
  5
41E
  8
GABARIT_INTERIEUR_18MM
 10
896.9016597038194
 20
2701.0
 30
0.0
 70
0
  0
VERTEX
  5
41F
  8
GABARIT_INTERIEUR_18MM
 10
805.148890498674
 20
2701.0
 30
0.0
 42
-0.41421356237309503
 70
0
  0
VERTEX
  5
420
  8
GABARIT_INTERIEUR_18MM
 10
801.948890498674
 20
2697.8
 30
0.0
 42
-0.41421356237309503
 70
0
  0
VERTEX
  5
421
  8
GABARIT_INTERIEUR_18MM
 10
798.7488904986741
 20
2701.0
 30
0.0
 42
-0.41421356237309503
 70
0
  0
VERTEX
  5
422
  8
GABARIT_INTERIEUR_18MM
 10
801.9488904986739
 20
2704.2
 30
0.0
 70
0
  0
VERTEX
  5
423
  8
GABARIT_INTERIEUR_18MM
 10
801.9488904986739
 20
2719.0
 30
0.0
 70
0
  0
VERTEX
  5
424
  8
GABARIT_INTERIEUR_18MM
 10
761.9488904986739
 20
2719.0
 30
0.0
 70
0
  0
VERTEX
  5
425
  8
GABARIT_INTERIEUR_18MM
 10
761.9488904986739
 20
2704.2
 30
0.0
 42
-0.41421356237309503
 70
0
  0
VERTEX
  5
426
  8
GABARIT_INTERIEUR_18MM
 10
765.1488904986736
 20
2701.0
 30
0.0
 42
-0.41421356237309503
 70
0
  0
VERTEX
  5
427
  8
GABARIT_INTERIEUR_18MM
 10
761.9488904986737
 20
2697.8
 30
0.0
 42
-0.41421356237309503
 70
0
  0
VERTEX
  5
428
  8
GABARIT_INTERIEUR_18MM
 10
758.748890498674
 20
2701.0
 30
0.0
 70
0
  0
VERTEX
  5
429
  8
GABARIT_INTERIEUR_18MM
 10
722.0
 20
2701.0
 30
0.0
 70
0
  0
VERTEX
  5
42A
  8
GABARIT_INTERIEUR_18MM
 10
772.4
 20
2512.0
 30
0.0
 70
0
  0
VERTEX
  5
42B
  8
GABARIT_INTERIEUR_18MM
 10
786.5056250144274
 20
2512.0
 30
0.0
 42
-0.41421356237309503
 70
0
  0
VERTEX
  5
42C
  8
GABARIT_INTERIEUR_18MM
 10
789.7056250144274
 20
2515.2
 30
0.0
 42
-0.41421356237309503
 70
0
  0
VERTEX
  5
42D
  8
GABARIT_INTERIEUR_18MM
 10
792.9056250144272
 20
2512.0
 30
0.0
 42
-0.41421356237309503
 70
0
  0
VERTEX
  5
42E
  8
GABARIT_INTERIEUR_18MM
 10
789.7056250144274
 20
2508.8
 30
0.0
 70
0
  0
VERTEX
  5
42F
  8
GABARIT_INTERIEUR_18MM
 10
789.7056250144274
 20
2494.0
 30
0.0
 70
0
  0
VERTEX
  5
430
  8
GABARIT_INTERIEUR_18MM
 10
829.7056250144274
 20
2494.0
 30
0.0
 70
0
  0
VERTEX
  5
431
  8
GABARIT_INTERIEUR_18MM
 10
829.7056250144274
 20
2508.8
 30
0.0
 42
-0.41421356237309503
 70
0
  0
VERTEX
  5
432
  8
GABARIT_INTERIEUR_18MM
 10
826.5056250144276
 20
2512.0
 30
0.0
 42
-0.41421356237309503
 70
0
  0
VERTEX
  5
433
  8
GABARIT_INTERIEUR_18MM
 10
829.7056250144276
 20
2515.2
 30
0.0
 42
-0.41421356237309503
 70
0
  0
VERTEX
  5
434
  8
GABARIT_INTERIEUR_18MM
 10
832.9056250144274
 20
2512.0
 30
0.0
 70
0
  0
VERTEX
  5
435
  8
GABARIT_INTERIEUR_18MM
 10
841.5252751012466
 20
2512.0
 30
0.0
 70
0
  0
VERTEX
  5
436
  8
GABARIT_INTERIEUR_18MM
 10
841.5252751012466
 20
2603.3
 30
0.0
 42
-0.41421356237309503
 70
0
  0
VERTEX
  5
437
  8
GABARIT_INTERIEUR_18MM
 10
838.3252751012468
 20
2606.5
 30
0.0
 42
-0.41421356237309503
 70
0
  0
VERTEX
  5
438
  8
GABARIT_INTERIEUR_18MM
 10
841.5252751012468
 20
2609.7
 30
0.0
 42
-0.41421356237309503
 70
0
  0
VERTEX
  5
439
  8
GABARIT_INTERIEUR_18MM
 10
844.7252751012467
 20
2606.5
 30
0.0
 70
0
  0
VERTEX
  5
43A
  8
GABARIT_INTERIEUR_18MM
 10
857.3252751012467
 20
2606.5
 30
0.0
 42
-0.41421356237309503
 70
0
  0
VERTEX
  5
43B
  8
GABARIT_INTERIEUR_18MM
 10
860.5252751012465
 20
2609.7
 30
0.0
 42
-0.41421356237309503
 70
0
  0
VERTEX
  5
43C
  8
GABARIT_INTERIEUR_18MM
 10
863.7252751012463
 20
2606.5
 30
0.0
 42
-0.41421356237309503
 70
0
  0
VERTEX
  5
43D
  8
GABARIT_INTERIEUR_18MM
 10
860.5252751012466
 20
2603.3
 30
0.0
 70
0
  0
VERTEX
  5
43E
  8
GABARIT_INTERIEUR_18MM
 10
860.5252751012466
 20
2512.0
 30
0.0
 70
0
  0
VERTEX
  5
43F
  8
GABARIT_INTERIEUR_18MM
 10
869.1449251880658
 20
2512.0
 30
0.0
 42
-0.41421356237309503
 70
0
  0
VERTEX
  5
440
  8
GABARIT_INTERIEUR_18MM
 10
872.3449251880658
 20
2515.2
 30
0.0
 42
-0.41421356237309503
 70
0
  0
VERTEX
  5
441
  8
GABARIT_INTERIEUR_18MM
 10
875.5449251880657
 20
2512.0
 30
0.0
 42
-0.41421356237309503
 70
0
  0
VERTEX
  5
442
  8
GABARIT_INTERIEUR_18MM
 10
872.3449251880659
 20
2508.8
 30
0.0
 70
0
  0
VERTEX
  5
443
  8
GABARIT_INTERIEUR_18MM
 10
872.3449251880659
 20
2494.0
 30
0.0
 70
0
  0
VERTEX
  5
444
  8
GABARIT_INTERIEUR_18MM
 10
912.3449251880659
 20
2494.0
 30
0.0
 70
0
  0
VERTEX
  5
445
  8
GABARIT_INTERIEUR_18MM
 10
912.3449251880659
 20
2508.8
 30
0.0
 42
-0.41421356237309503
 70
0
  0
VERTEX
  5
446
  8
GABARIT_INTERIEUR_18MM
 10
909.144925188066
 20
2512.0
 30
0.0
 42
-0.41421356237309503
 70
0
  0
VERTEX
  5
447
  8
GABARIT_INTERIEUR_18MM
 10
912.3449251880661
 20
2515.2
 30
0.0
 42
-0.41421356237309503
 70
0
  0
VERTEX
  5
448
  8
GABARIT_INTERIEUR_18MM
 10
915.5449251880658
 20
2512.0
 30
0.0
 70
0
  0
VERTEX
  5
449
  8
GABARIT_INTERIEUR_18MM
 10
929.6505502024933
 20
2512.0
 30
0.0
 70
0
  0
SEQEND
  5
413
  8
GABARIT_INTERIEUR_18MM
  0
CIRCLE
  5
44A
  8
GABARIT_INTERIEUR_18MM
 10
220.32527510124666
 20
1764.3252751012467
 30
0.0
 40
74.32527510124666
  0
POLYLINE
  5
44B
  8
GABARIT_INTERIEUR_18MM
 66
1
 10
0.0
 20
0.0
 30
0.0
 70
1
  0
VERTEX
  5
44D
  8
GABARIT_INTERIEUR_18MM
 10
181.0669540357525
 20
1716.157408592802
 30
0.0
 42
0.41421356237309503
 70
0
  0
VERTEX
  5
44E
  8
GABARIT_INTERIEUR_18MM
 10
181.06695403575247
 20
1711.6319251932082
 30
0.0
 42
0.41421356237309503
 70
0
  0
VERTEX
  5
44F
  8
GABARIT_INTERIEUR_18MM
 10
185.5924374353464
 20
1711.631925193208
 30
0.0
 42
0.41421356237309503
 70
0
  0
VERTEX
  5
450
  8
GABARIT_INTERIEUR_18MM
 10
185.59243743534643
 20
1716.157408592802
 30
0.0
 70
0
  0
VERTEX
  5
451
  8
GABARIT_INTERIEUR_18MM
 10
210.05833206440096
 20
1740.6233032218565
 30
0.0
 42
0.41421356237309503
 70
0
  0
VERTEX
  5
452
  8
GABARIT_INTERIEUR_18MM
 10
214.5838154639948
 20
1740.6233032218563
 30
0.0
 42
0.41421356237309503
 70
0
  0
VERTEX
  5
453
  8
GABARIT_INTERIEUR_18MM
 10
214.5838154639949
 20
1745.1487866214502
 30
0.0
 42
0.41421356237309503
 70
0
  0
VERTEX
  5
454
  8
GABARIT_INTERIEUR_18MM
 10
210.05833206440096
 20
1745.1487866214504
 30
0.0
 70
0
  0
VERTEX
  5
455
  8
GABARIT_INTERIEUR_18MM
 10
201.14878662145045
 20
1754.058332064401
 30
0.0
 42
0.41421356237309503
 70
0
  0
VERTEX
  5
456
  8
GABARIT_INTERIEUR_18MM
 10
201.1487866214505
 20
1758.5838154639948
 30
0.0
 42
0.41421356237309503
 70
0
  0
VERTEX
  5
457
  8
GABARIT_INTERIEUR_18MM
 10
196.62330322185662
 20
1758.583815463995
 30
0.0
 42
0.41421356237309503
 70
0
  0
VERTEX
  5
458
  8
GABARIT_INTERIEUR_18MM
 10
196.62330322185656
 20
1754.058332064401
 30
0.0
 70
0
  0
VERTEX
  5
459
  8
GABARIT_INTERIEUR_18MM
 10
172.15740859280203
 20
1729.5924374353465
 30
0.0
 42
0.41421356237309503
 70
0
  0
VERTEX
  5
45A
  8
GABARIT_INTERIEUR_18MM
 10
167.6319251932082
 20
1729.5924374353467
 30
0.0
 42
0.41421356237309503
 70
0
  0
VERTEX
  5
45B
  8
GABARIT_INTERIEUR_18MM
 10
167.63192519320808
 20
1725.0669540357528
 30
0.0
 42
0.41421356237309503
 70
0
  0
VERTEX
  5
45C
  8
GABARIT_INTERIEUR_18MM
 10
172.157408592802
 20
1725.0669540357526
 30
0.0
 70
0
  0
SEQEND
  5
44C
  8
GABARIT_INTERIEUR_18MM
  0
POLYLINE
  5
45D
  8
GABARIT_INTERIEUR_18MM
 66
1
 10
0.0
 20
0.0
 30
0.0
 70
1
  0
VERTEX
  5
45F
  8
GABARIT_INTERIEUR_18MM
 10
239.50176358104287
 20
1774.5922181380924
 30
0.0
 42
0.41421356237309503
 70
0
  0
VERTEX
  5
460
  8
GABARIT_INTERIEUR_18MM
 10
239.50176358104292
 20
1770.0667347384986
 30
0.0
 42
0.41421356237309503
 70
0
  0
VERTEX
  5
461
  8
GABARIT_INTERIEUR_18MM
 10
244.02724698063682
 20
1770.0667347384988
 30
0.0
 42
0.41421356237309503
 70
0
  0
VERTEX
  5
462
  8
GABARIT_INTERIEUR_18MM
 10
244.02724698063676
 20
1774.5922181380924
 30
0.0
 70
0
  0
VERTEX
  5
463
  8
GABARIT_INTERIEUR_18MM
 10
268.4931416096913
 20
1799.058112767147
 30
0.0
 42
0.41421356237309503
 70
0
  0
VERTEX
  5
464
  8
GABARIT_INTERIEUR_18MM
 10
273.01862500928513
 20
1799.0581127671467
 30
0.0
 42
0.41421356237309503
 70
0
  0
VERTEX
  5
465
  8
GABARIT_INTERIEUR_18MM
 10
273.01862500928524
 20
1803.5835961667406
 30
0.0
 42
0.41421356237309503
 70
0
  0
VERTEX
  5
466
  8
GABARIT_INTERIEUR_18MM
 10
268.4931416096913
 20
1803.5835961667408
 30
0.0
 70
0
  0
VERTEX
  5
467
  8
GABARIT_INTERIEUR_18MM
 10
259.5835961667408
 20
1812.4931416096913
 30
0.0
 42
0.41421356237309503
 70
0
  0
VERTEX
  5
468
  8
GABARIT_INTERIEUR_18MM
 10
259.58359616674073
 20
1817.0186250092852
 30
0.0
 42
0.41421356237309503
 70
0
  0
VERTEX
  5
469
  8
GABARIT_INTERIEUR_18MM
 10
255.05811276714684
 20
1817.018625009285
 30
0.0
 42
0.41421356237309503
 70
0
  0
VERTEX
  5
46A
  8
GABARIT_INTERIEUR_18MM
 10
255.0581127671469
 20
1812.4931416096913
 30
0.0
 70
0
  0
VERTEX
  5
46B
  8
GABARIT_INTERIEUR_18MM
 10
230.59221813809236
 20
1788.0272469806368
 30
0.0
 42
0.41421356237309503
 70
0
  0
VERTEX
  5
46C
  8
GABARIT_INTERIEUR_18MM
 10
226.06673473849824
 20
1788.0272469806368
 30
0.0
 42
0.41421356237309503
 70
0
  0
VERTEX
  5
46D
  8
GABARIT_INTERIEUR_18MM
 10
226.06673473849824
 20
1783.5017635810427
 30
0.0
 42
0.41421356237309503
 70
0
  0
VERTEX
  5
46E
  8
GABARIT_INTERIEUR_18MM
 10
230.59221813809236
 20
1783.5017635810427
 30
0.0
 70
0
  0
SEQEND
  5
45E
  8
GABARIT_INTERIEUR_18MM
  0
POLYLINE
  5
46F
  8
GABARIT_INTERIEUR_18MM
 66
1
 10
0.0
 20
0.0
 30
0.0
 70
1
  0
VERTEX
  5
471
  8
GABARIT_INTERIEUR_18MM
 10
268.4931416096913
 20
1725.0669540357526
 30
0.0
 42
0.41421356237309503
 70
0
  0
VERTEX
  5
472
  8
GABARIT_INTERIEUR_18MM
 10
273.01862500928513
 20
1725.0669540357524
 30
0.0
 42
0.41421356237309503
 70
0
  0
VERTEX
  5
473
  8
GABARIT_INTERIEUR_18MM
 10
273.01862500928524
 20
1729.5924374353463
 30
0.0
 42
0.41421356237309503
 70
0
  0
VERTEX
  5
474
  8
GABARIT_INTERIEUR_18MM
 10
268.4931416096913
 20
1729.5924374353465
 30
0.0
 70
0
  0
VERTEX
  5
475
  8
GABARIT_INTERIEUR_18MM
 10
244.02724698063676
 20
1754.058332064401
 30
0.0
 42
0.41421356237309503
 70
0
  0
VERTEX
  5
476
  8
GABARIT_INTERIEUR_18MM
 10
244.02724698063682
 20
1758.5838154639948
 30
0.0
 42
0.41421356237309503
 70
0
  0
VERTEX
  5
477
  8
GABARIT_INTERIEUR_18MM
 10
239.50176358104292
 20
1758.583815463995
 30
0.0
 42
0.41421356237309503
 70
0
  0
VERTEX
  5
478
  8
GABARIT_INTERIEUR_18MM
 10
239.50176358104287
 20
1754.058332064401
 30
0.0
 70
0
  0
VERTEX
  5
479
  8
GABARIT_INTERIEUR_18MM
 10
230.59221813809236
 20
1745.1487866214504
 30
0.0
 42
0.41421356237309503
 70
0
  0
VERTEX
  5
47A
  8
GABARIT_INTERIEUR_18MM
 10
226.06673473849852
 20
1745.1487866214507
 30
0.0
 42
0.41421356237309503
 70
0
  0
VERTEX
  5
47B
  8
GABARIT_INTERIEUR_18MM
 10
226.0667347384984
 20
1740.6233032218568
 30
0.0
 42
0.41421356237309503
 70
0
  0
VERTEX
  5
47C
  8
GABARIT_INTERIEUR_18MM
 10
230.59221813809236
 20
1740.6233032218565
 30
0.0
 70
0
  0
VERTEX
  5
47D
  8
GABARIT_INTERIEUR_18MM
 10
255.0581127671469
 20
1716.157408592802
 30
0.0
 42
0.41421356237309503
 70
0
  0
VERTEX
  5
47E
  8
GABARIT_INTERIEUR_18MM
 10
255.05811276714695
 20
1711.6319251932082
 30
0.0
 42
0.41421356237309503
 70
0
  0
VERTEX
  5
47F
  8
GABARIT_INTERIEUR_18MM
 10
259.58359616674085
 20
1711.6319251932084
 30
0.0
 42
0.41421356237309503
 70
0
  0
VERTEX
  5
480
  8
GABARIT_INTERIEUR_18MM
 10
259.5835961667408
 20
1716.157408592802
 30
0.0
 70
0
  0
SEQEND
  5
470
  8
GABARIT_INTERIEUR_18MM
  0
POLYLINE
  5
481
  8
GABARIT_INTERIEUR_18MM
 66
1
 10
0.0
 20
0.0
 30
0.0
 70
1
  0
VERTEX
  5
483
  8
GABARIT_INTERIEUR_18MM
 10
210.05833206440096
 20
1783.5017635810427
 30
0.0
 42
0.41421356237309503
 70
0
  0
VERTEX
  5
484
  8
GABARIT_INTERIEUR_18MM
 10
214.58381546399508
 20
1783.5017635810427
 30
0.0
 42
0.41421356237309503
 70
0
  0
VERTEX
  5
485
  8
GABARIT_INTERIEUR_18MM
 10
214.58381546399508
 20
1788.0272469806368
 30
0.0
 42
0.41421356237309503
 70
0
  0
VERTEX
  5
486
  8
GABARIT_INTERIEUR_18MM
 10
210.05833206440096
 20
1788.0272469806368
 30
0.0
 70
0
  0
VERTEX
  5
487
  8
GABARIT_INTERIEUR_18MM
 10
185.59243743534643
 20
1812.4931416096913
 30
0.0
 42
0.41421356237309503
 70
0
  0
VERTEX
  5
488
  8
GABARIT_INTERIEUR_18MM
 10
185.59243743534637
 20
1817.0186250092852
 30
0.0
 42
0.41421356237309503
 70
0
  0
VERTEX
  5
489
  8
GABARIT_INTERIEUR_18MM
 10
181.06695403575247
 20
1817.018625009285
 30
0.0
 42
0.41421356237309503
 70
0
  0
VERTEX
  5
48A
  8
GABARIT_INTERIEUR_18MM
 10
181.06695403575253
 20
1812.4931416096913
 30
0.0
 70
0
  0
VERTEX
  5
48B
  8
GABARIT_INTERIEUR_18MM
 10
172.15740859280203
 20
1803.5835961667408
 30
0.0
 42
0.41421356237309503
 70
0
  0
VERTEX
  5
48C
  8
GABARIT_INTERIEUR_18MM
 10
167.63192519320808
 20
1803.5835961667406
 30
0.0
 42
0.41421356237309503
 70
0
  0
VERTEX
  5
48D
  8
GABARIT_INTERIEUR_18MM
 10
167.6319251932082
 20
1799.0581127671467
 30
0.0
 42
0.41421356237309503
 70
0
  0
VERTEX
  5
48E
  8
GABARIT_INTERIEUR_18MM
 10
172.15740859280203
 20
1799.058112767147
 30
0.0
 70
0
  0
VERTEX
  5
48F
  8
GABARIT_INTERIEUR_18MM
 10
196.62330322185656
 20
1774.5922181380924
 30
0.0
 42
0.41421356237309503
 70
0
  0
VERTEX
  5
490
  8
GABARIT_INTERIEUR_18MM
 10
196.62330322185662
 20
1770.0667347384986
 30
0.0
 42
0.41421356237309503
 70
0
  0
VERTEX
  5
491
  8
GABARIT_INTERIEUR_18MM
 10
201.1487866214505
 20
1770.0667347384988
 30
0.0
 42
0.41421356237309503
 70
0
  0
VERTEX
  5
492
  8
GABARIT_INTERIEUR_18MM
 10
201.14878662145045
 20
1774.5922181380924
 30
0.0
 70
0
  0
SEQEND
  5
482
  8
GABARIT_INTERIEUR_18MM
  0
ENDSEC
  0
EOF
