  0
SECTION
  2
HEADER
  9
$ACADVER
  1
AC1024
  9
$ACADMAINTVER
 70
6
  9
$DWGCODEPAGE
  3
ANSI_1252
  9
$LASTSAVEDBY
  1
ezdxf
  9
$INSBASE
 10
0.0
 20
0.0
 30
0.0
  9
$EXTMIN
 10
1e+20
 20
1e+20
 30
1e+20
  9
$EXTMAX
 10
-1e+20
 20
-1e+20
 30
-1e+20
  9
$LIMMIN
 10
0.0
 20
0.0
  9
$LIMMAX
 10
420.0
 20
297.0
  9
$ORTHOMODE
 70
0
  9
$REGENMODE
 70
1
  9
$FILLMODE
 70
1
  9
$QTEXTMODE
 70
0
  9
$MIRRTEXT
 70
1
  9
$LTSCALE
 40
1.0
  9
$ATTMODE
 70
1
  9
$TEXTSIZE
 40
2.5
  9
$TRACEWID
 40
1.0
  9
$TEXTSTYLE
  7
OpenSans
  9
$CLAYER
  8
0
  9
$CELTYPE
  6
ByLayer
  9
$CECOLOR
 62
256
  9
$CELTSCALE
 40
1.0
  9
$DISPSILH
 70
0
  9
$DIMSCALE
 40
1.0
  9
$DIMASZ
 40
0.175
  9
$DIMEXO
 40
0.125
  9
$DIMDLI
 40
3.75
  9
$DIMRND
 40
0.0
  9
$DIMDLE
 40
0.0
  9
$DIMEXE
 40
0.375
  9
$DIMTP
 40
0.0
  9
$DIMTM
 40
0.0
  9
$DIMTXT
 40
0.25
  9
$DIMCEN
 40
2.5
  9
$DIMTSZ
 40
0.0
  9
$DIMTOL
 70
0
  9
$DIMLIM
 70
0
  9
$DIMTIH
 70
0
  9
$DIMTOH
 70
0
  9
$DIMSE1
 70
0
  9
$DIMSE2
 70
0
  9
$DIMTAD
 70
1
  9
$DIMZIN
 70
12
  9
$DIMBLK
  1
ARCHTICK
  9
$DIMASO
 70
1
  9
$DIMSHO
 70
1
  9
$DIMPOST
  1

  9
$DIMAPOST
  1

  9
$DIMALT
 70
0
  9
$DIMALTD
 70
3
  9
$DIMALTF
 40
0.03937007874
  9
$DIMLFAC
 40
100.0
  9
$DIMTOFL
 70
1
  9
$DIMTVP
 40
0.0
  9
$DIMTIX
 70
0
  9
$DIMSOXD
 70
0
  9
$DIMSAH
 70
0
  9
$DIMBLK1
  1

  9
$DIMBLK2
  1

  9
$DIMSTYLE
  2
EZDXF
  9
$DIMCLRD
 70
0
  9
$DIMCLRE
 70
0
  9
$DIMCLRT
 70
0
  9
$DIMTFAC
 40
0.5
  9
$DIMGAP
 40
0.1
  9
$DIMJUST
 70
0
  9
$DIMSD1
 70
0
  9
$DIMSD2
 70
0
  9
$DIMTOLJ
 70
0
  9
$DIMTZIN
 70
8
  9
$DIMALTZ
 70
0
  9
$DIMALTTZ
 70
0
  9
$DIMUPT
 70
1
  9
$DIMDEC
 70
2
  9
$DIMTDEC
 70
2
  9
$DIMALTU
 70
2
  9
$DIMALTTD
 70
3
  9
$DIMTXSTY
  7
OpenSansCondensed-Light
  9
$DIMAUNIT
 70
0
  9
$DIMADEC
 70
2
  9
$DIMALTRND
 40
0.0
  9
$DIMAZIN
 70
3
  9
$DIMDSEP
 70
46
  9
$DIMATFIT
 70
3
  9
$DIMFRAC
 70
0
  9
$DIMLDRBLK
  1

  9
$DIMLUNIT
 70
2
  9
$DIMLWD
 70
-2
  9
$DIMLWE
 70
-2
  9
$DIMTMOVE
 70
2
  9
$DIMFXL
 40
1.0
  9
$DIMFXLON
 70
0
  9
$DIMJOGANG
 40
0.785398163397
  9
$DIMTFILL
 70
0
  9
$DIMTFILLCLR
 70
0
  9
$DIMARCSYM
 70
0
  9
$DIMLTYPE
  6

  9
$DIMLTEX1
  6

  9
$DIMLTEX2
  6

  9
$DIMTXTDIRECTION
 70
0
  9
$LUNITS
 70
2
  9
$LUPREC
 70
4
  9
$SKETCHINC
 40
1.0
  9
$FILLETRAD
 40
10.0
  9
$AUNITS
 70
0
  9
$AUPREC
 70
2
  9
$MENU
  1
.
  9
$ELEVATION
 40
0.0
  9
$PELEVATION
 40
0.0
  9
$THICKNESS
 40
0.0
  9
$LIMCHECK
 70
0
  9
$CHAMFERA
 40
0.0
  9
$CHAMFERB
 40
0.0
  9
$CHAMFERC
 40
0.0
  9
$CHAMFERD
 40
0.0
  9
$SKPOLY
 70
0
  9
$TDCREATE
 40
2461311.643425926
  9
$TDUCREATE
 40
2458532.153996898
  9
$TDUPDATE
 40
2461311.643425926
  9
$TDUUPDATE
 40
2458532.1544311
  9
$TDINDWG
 40
0.0
  9
$TDUSRTIMER
 40
0.0
  9
$USRTIMER
 70
1
  9
$ANGBASE
 50
0.0
  9
$ANGDIR
 70
0
  9
$PDMODE
 70
0
  9
$PDSIZE
 40
0.0
  9
$PLINEWID
 40
0.0
  9
$SPLFRAME
 70
0
  9
$SPLINETYPE
 70
6
  9
$SPLINESEGS
 70
8
  9
$HANDSEED
  5
E3
  9
$SURFTAB1
 70
6
  9
$SURFTAB2
 70
6
  9
$SURFTYPE
 70
6
  9
$SURFU
 70
6
  9
$SURFV
 70
6
  9
$UCSBASE
  2

  9
$UCSNAME
  2

  9
$UCSORG
 10
0.0
 20
0.0
 30
0.0
  9
$UCSXDIR
 10
1.0
 20
0.0
 30
0.0
  9
$UCSYDIR
 10
0.0
 20
1.0
 30
0.0
  9
$UCSORTHOREF
  2

  9
$UCSORTHOVIEW
 70
0
  9
$UCSORGTOP
 10
0.0
 20
0.0
 30
0.0
  9
$UCSORGBOTTOM
 10
0.0
 20
0.0
 30
0.0
  9
$UCSORGLEFT
 10
0.0
 20
0.0
 30
0.0
  9
$UCSORGRIGHT
 10
0.0
 20
0.0
 30
0.0
  9
$UCSORGFRONT
 10
0.0
 20
0.0
 30
0.0
  9
$UCSORGBACK
 10
0.0
 20
0.0
 30
0.0
  9
$PUCSBASE
  2

  9
$PUCSNAME
  2

  9
$PUCSORG
 10
0.0
 20
0.0
 30
0.0
  9
$PUCSXDIR
 10
1.0
 20
0.0
 30
0.0
  9
$PUCSYDIR
 10
0.0
 20
1.0
 30
0.0
  9
$PUCSORTHOREF
  2

  9
$PUCSORTHOVIEW
 70
0
  9
$PUCSORGTOP
 10
0.0
 20
0.0
 30
0.0
  9
$PUCSORGBOTTOM
 10
0.0
 20
0.0
 30
0.0
  9
$PUCSORGLEFT
 10
0.0
 20
0.0
 30
0.0
  9
$PUCSORGRIGHT
 10
0.0
 20
0.0
 30
0.0
  9
$PUCSORGFRONT
 10
0.0
 20
0.0
 30
0.0
  9
$PUCSORGBACK
 10
0.0
 20
0.0
 30
0.0
  9
$USERI1
 70
0
  9
$USERI2
 70
0
  9
$USERI3
 70
0
  9
$USERI4
 70
0
  9
$USERI5
 70
0
  9
$USERR1
 40
0.0
  9
$USERR2
 40
0.0
  9
$USERR3
 40
0.0
  9
$USERR4
 40
0.0
  9
$USERR5
 40
0.0
  9
$WORLDVIEW
 70
1
  9
$SHADEDGE
 70
3
  9
$SHADEDIF
 70
70
  9
$TILEMODE
 70
1
  9
$MAXACTVP
 70
64
  9
$PINSBASE
 10
0.0
 20
0.0
 30
0.0
  9
$PLIMCHECK
 70
0
  9
$PEXTMIN
 10
1e+20
 20
1e+20
 30
1e+20
  9
$PEXTMAX
 10
-1e+20
 20
-1e+20
 30
-1e+20
  9
$PLIMMIN
 10
0.0
 20
0.0
  9
$PLIMMAX
 10
420.0
 20
297.0
  9
$UNITMODE
 70
0
  9
$VISRETAIN
 70
1
  9
$PLINEGEN
 70
0
  9
$PSLTSCALE
 70
1
  9
$TREEDEPTH
 70
3020
  9
$CMLSTYLE
  2
Standard
  9
$CMLJUST
 70
0
  9
$CMLSCALE
 40
20.0
  9
$PROXYGRAPHICS
 70
1
  9
$MEASUREMENT
 70
1
  9
$CELWEIGHT
370
-1
  9
$ENDCAPS
280
0
  9
$JOINSTYLE
280
0
  9
$LWDISPLAY
290
0
  9
$INSUNITS
 70
4
  9
$HYPERLINKBASE
  1

  9
$STYLESHEET
  1

  9
$XEDIT
290
1
  9
$CEPSNTYPE
380
0
  9
$PSTYLEMODE
290
1
  9
$FINGERPRINTGUID
  2
{29CCEEF5-4197-471B-B1D6-D1619AE0CBD0}
  9
$VERSIONGUID
  2
{6A1F1942-4ACE-48CE-8C6F-EDBE641488F7}
  9
$EXTNAMES
290
1
  9
$PSVPSCALE
 40
0.0
  9
$OLESTARTUP
290
0
  9
$SORTENTS
280
127
  9
$INDEXCTL
280
0
  9
$HIDETEXT
280
1
  9
$XCLIPFRAME
280
1
  9
$HALOGAP
280
0
  9
$OBSCOLOR
 70
257
  9
$OBSLTYPE
280
0
  9
$INTERSECTIONDISPLAY
280
0
  9
$INTERSECTIONCOLOR
 70
257
  9
$DIMASSOC
280
2
  9
$PROJECTNAME
  1

  9
$CAMERADISPLAY
290
0
  9
$LENSLENGTH
 40
50.0
  9
$CAMERAHEIGHT
 40
0.0
  9
$STEPSPERSEC
 40
24.0
  9
$STEPSIZE
 40
100.0
  9
$3DDWFPREC
 40
2.0
  9
$PSOLWIDTH
 40
0.005
  9
$PSOLHEIGHT
 40
0.08
  9
$LOFTANG1
 40
1.570796326795
  9
$LOFTANG2
 40
1.570796326795
  9
$LOFTMAG1
 40
0.0
  9
$LOFTMAG2
 40
0.0
  9
$LOFTPARAM
 70
7
  9
$LOFTNORMALS
280
1
  9
$LATITUDE
 40
37.795
  9
$LONGITUDE
 40
-122.394
  9
$NORTHDIRECTION
 40
0.0
  9
$TIMEZONE
 70
-8000
  9
$LIGHTGLYPHDISPLAY
280
1
  9
$TILEMODELIGHTSYNCH
280
1
  9
$CMATERIAL
347
20
  9
$SOLIDHIST
280
0
  9
$SHOWHIST
280
1
  9
$DWFFRAME
280
2
  9
$DGNFRAME
280
2
  9
$REALWORLDSCALE
290
1
  9
$INTERFERECOLOR
 62
256
  9
$CSHADOW
280
0
  9
$SHADOWPLANELOCATION
 40
0.0
  0
ENDSEC
  0
SECTION
  2
CLASSES
  0
CLASS
  1
ACDBDICTIONARYWDFLT
  2
AcDbDictionaryWithDefault
  3
ObjectDBX Classes
 90
0
 91
0
280
0
281
0
  0
CLASS
  1
SUN
  2
AcDbSun
  3
SCENEOE
 90
1153
 91
0
280
0
281
0
  0
CLASS
  1
VISUALSTYLE
  2
AcDbVisualStyle
  3
ObjectDBX Classes
 90
4095
 91
0
280
0
281
0
  0
CLASS
  1
MATERIAL
  2
AcDbMaterial
  3
ObjectDBX Classes
 90
1153
 91
0
280
0
281
0
  0
CLASS
  1
SCALE
  2
AcDbScale
  3
ObjectDBX Classes
 90
1153
 91
0
280
0
281
0
  0
CLASS
  1
TABLESTYLE
  2
AcDbTableStyle
  3
ObjectDBX Classes
 90
4095
 91
0
280
0
281
0
  0
CLASS
  1
MLEADERSTYLE
  2
AcDbMLeaderStyle
  3
ACDB_MLEADERSTYLE_CLASS
 90
4095
 91
0
280
0
281
0
  0
CLASS
  1
DICTIONARYVAR
  2
AcDbDictionaryVar
  3
ObjectDBX Classes
 90
0
 91
0
280
0
281
0
  0
CLASS
  1
CELLSTYLEMAP
  2
AcDbCellStyleMap
  3
ObjectDBX Classes
 90
1152
 91
0
280
0
281
0
  0
CLASS
  1
MENTALRAYRENDERSETTINGS
  2
AcDbMentalRayRenderSettings
  3
SCENEOE
 90
1024
 91
0
280
0
281
0
  0
CLASS
  1
ACDBDETAILVIEWSTYLE
  2
AcDbDetailViewStyle
  3
ObjectDBX Classes
 90
1025
 91
0
280
0
281
0
  0
CLASS
  1
ACDBSECTIONVIEWSTYLE
  2
AcDbSectionViewStyle
  3
ObjectDBX Classes
 90
1025
 91
0
280
0
281
0
  0
CLASS
  1
RASTERVARIABLES
  2
AcDbRasterVariables
  3
ISM
 90
0
 91
0
280
0
281
0
  0
CLASS
  1
LAYOUT
  2
AcDbLayout
  3
ObjectDBX Classes
 90
0
 91
0
280
0
281
0
  0
CLASS
  1
ACDBPLACEHOLDER
  2
AcDbPlaceHolder
  3
ObjectDBX Classes
 90
0
 91
0
280
0
281
0
  0
ENDSEC
  0
SECTION
  2
TABLES
  0
TABLE
  2
VPORT
  5
8
330
0
100
AcDbSymbolTable
 70
1
  0
VPORT
  5
23
330
8
100
AcDbSymbolTableRecord
100
AcDbViewportTableRecord
  2
*Active
 70
0
 10
0.0
 20
0.0
 11
1.0
 21
1.0
 12
0.0
 22
0.0
 13
0.0
 23
0.0
 14
0.5
 24
0.5
 15
0.5
 25
0.5
 16
0.0
 26
0.0
 36
1.0
 17
0.0
 27
0.0
 37
0.0
 40
1000.0
 41
1.34
 42
50.0
 43
0.0
 44
0.0
 50
0.0
 51
0.0
 71
0
 72
1000
 73
1
 74
3
 75
0
 76
0
 77
0
 78
0
281
0
 65
0
146
0.0
  0
ENDTAB
  0
TABLE
  2
LTYPE
  5
2
330
0
100
AcDbSymbolTable
 70
21
  0
LTYPE
  5
24
330
2
100
AcDbSymbolTableRecord
100
AcDbLinetypeTableRecord
  2
ByBlock
 70
0
  3

 72
65
 73
0
 40
0.0
  0
LTYPE
  5
25
330
2
100
AcDbSymbolTableRecord
100
AcDbLinetypeTableRecord
  2
ByLayer
 70
0
  3

 72
65
 73
0
 40
0.0
  0
LTYPE
  5
26
330
2
100
AcDbSymbolTableRecord
100
AcDbLinetypeTableRecord
  2
Continuous
 70
0
  3

 72
65
 73
0
 40
0.0
  0
LTYPE
  5
2F
330
2
100
AcDbSymbolTableRecord
100
AcDbLinetypeTableRecord
  2
CENTER
 70
0
  3
Center ____ _ ____ _ ____ _ ____ _ ____ _ ____
 72
65
 73
4
 40
5.08
 49
3.175
 74
0
 49
-0.635
 74
0
 49
0.635
 74
0
 49
-0.635
 74
0
  0
LTYPE
  5
30
330
2
100
AcDbSymbolTableRecord
100
AcDbLinetypeTableRecord
  2
CENTERX2
 70
0
  3
Center (2x) ________  __  ________  __  ________
 72
65
 73
4
 40
8.89
 49
6.35
 74
0
 49
-0.635
 74
0
 49
1.27
 74
0
 49
-0.635
 74
0
  0
LTYPE
  5
31
330
2
100
AcDbSymbolTableRecord
100
AcDbLinetypeTableRecord
  2
CENTER2
 70
0
  3
Center (.5x) ____ _ ____ _ ____ _ ____ _ ____
 72
65
 73
4
 40
2.54
 49
1.587
 74
0
 49
-0.318
 74
0
 49
0.318
 74
0
 49
-0.318
 74
0
  0
LTYPE
  5
32
330
2
100
AcDbSymbolTableRecord
100
AcDbLinetypeTableRecord
  2
DASHED
 70
0
  3
Dashed __ __ __ __ __ __ __ __ __ __ __ __ __ _
 72
65
 73
2
 40
1.524
 49
1.27
 74
0
 49
-0.254
 74
0
  0
LTYPE
  5
33
330
2
100
AcDbSymbolTableRecord
100
AcDbLinetypeTableRecord
  2
DASHEDX2
 70
0
  3
Dashed (2x) ____  ____  ____  ____  ____  ____
 72
65
 73
2
 40
3.048
 49
2.54
 74
0
 49
-0.508
 74
0
  0
LTYPE
  5
34
330
2
100
AcDbSymbolTableRecord
100
AcDbLinetypeTableRecord
  2
DASHED2
 70
0
  3
Dashed (.5x) _ _ _ _ _ _ _ _ _ _ _ _ _ _
 72
65
 73
2
 40
0.762
 49
0.635
 74
0
 49
-0.127
 74
0
  0
LTYPE
  5
35
330
2
100
AcDbSymbolTableRecord
100
AcDbLinetypeTableRecord
  2
PHANTOM
 70
0
  3
Phantom ______  __  __  ______  __  __  ______
 72
65
 73
6
 40
6.35
 49
3.175
 74
0
 49
-0.635
 74
0
 49
0.635
 74
0
 49
-0.635
 74
0
 49
0.635
 74
0
 49
-0.635
 74
0
  0
LTYPE
  5
36
330
2
100
AcDbSymbolTableRecord
100
AcDbLinetypeTableRecord
  2
PHANTOMX2
 70
0
  3
Phantom (2x)____________    ____    ____    ____________
 72
65
 73
6
 40
10.795
 49
6.35
 74
0
 49
-0.635
 74
0
 49
1.27
 74
0
 49
-0.635
 74
0
 49
1.27
 74
0
 49
-0.635
 74
0
  0
LTYPE
  5
37
330
2
100
AcDbSymbolTableRecord
100
AcDbLinetypeTableRecord
  2
PHANTOM2
 70
0
  3
Phantom (.5x) ___ _ _ ___ _ _ ___ _ _ ___ _ _ ___
 72
65
 73
6
 40
3.175
 49
1.587
 74
0
 49
-0.318
 74
0
 49
0.318
 74
0
 49
-0.318
 74
0
 49
0.318
 74
0
 49
-0.318
 74
0
  0
LTYPE
  5
38
330
2
100
AcDbSymbolTableRecord
100
AcDbLinetypeTableRecord
  2
DASHDOT
 70
0
  3
Dash dot __ . __ . __ . __ . __ . __ . __ . __
 72
65
 73
4
 40
3.556
 49
2.54
 74
0
 49
-0.508
 74
0
 49
0.0
 74
0
 49
-0.508
 74
0
  0
LTYPE
  5
39
330
2
100
AcDbSymbolTableRecord
100
AcDbLinetypeTableRecord
  2
DASHDOTX2
 70
0
  3
Dash dot (2x) ____  .  ____  .  ____  .  ____
 72
65
 73
4
 40
6.096
 49
5.08
 74
0
 49
-0.508
 74
0
 49
0.0
 74
0
 49
-0.508
 74
0
  0
LTYPE
  5
3A
330
2
100
AcDbSymbolTableRecord
100
AcDbLinetypeTableRecord
  2
DASHDOT2
 70
0
  3
Dash dot (.5x) _ . _ . _ . _ . _ . _ . _ . _
 72
65
 73
4
 40
1.778
 49
1.27
 74
0
 49
-0.254
 74
0
 49
0.0
 74
0
 49
-0.254
 74
0
  0
LTYPE
  5
3B
330
2
100
AcDbSymbolTableRecord
100
AcDbLinetypeTableRecord
  2
DOT
 70
0
  3
Dot .  .  .  .  .  .  .  .  .  .  .  .  .  .  .  .
 72
65
 73
2
 40
0.508
 49
0.0
 74
0
 49
-0.508
 74
0
  0
LTYPE
  5
3C
330
2
100
AcDbSymbolTableRecord
100
AcDbLinetypeTableRecord
  2
DOTX2
 70
0
  3
Dot (2x) .    .    .    .    .    .    .    . 
 72
65
 73
2
 40
1.016
 49
0.0
 74
0
 49
-1.016
 74
0
  0
LTYPE
  5
3D
330
2
100
AcDbSymbolTableRecord
100
AcDbLinetypeTableRecord
  2
DOT2
 70
0
  3
Dot (.5) . . . . . . . . . . . . . . . . . . . 
 72
65
 73
2
 40
0.254
 49
0.0
 74
0
 49
-0.254
 74
0
  0
LTYPE
  5
3E
330
2
100
AcDbSymbolTableRecord
100
AcDbLinetypeTableRecord
  2
DIVIDE
 70
0
  3
Divide __ . . __ . . __ . . __ . . __ . . __
 72
65
 73
6
 40
4.064
 49
2.54
 74
0
 49
-0.508
 74
0
 49
0.0
 74
0
 49
-0.508
 74
0
 49
0.0
 74
0
 49
-0.508
 74
0
  0
LTYPE
  5
3F
330
2
100
AcDbSymbolTableRecord
100
AcDbLinetypeTableRecord
  2
DIVIDEX2
 70
0
  3
Divide (2x) ____  . .  ____  . .  ____  . .  ____
 72
65
 73
6
 40
6.604
 49
5.08
 74
0
 49
-0.508
 74
0
 49
0.0
 74
0
 49
-0.508
 74
0
 49
0.0
 74
0
 49
-0.508
 74
0
  0
LTYPE
  5
40
330
2
100
AcDbSymbolTableRecord
100
AcDbLinetypeTableRecord
  2
DIVIDE2
 70
0
  3
Divide(.5x) _ . _ . _ . _ . _ . _ . _ . _
 72
65
 73
6
 40
2.032
 49
1.27
 74
0
 49
-0.254
 74
0
 49
0.0
 74
0
 49
-0.254
 74
0
 49
0.0
 74
0
 49
-0.254
 74
0
  0
ENDTAB
  0
TABLE
  2
LAYER
  5
1
330
0
100
AcDbSymbolTable
 70
4
  0
LAYER
  5
27
330
1
100
AcDbSymbolTableRecord
100
AcDbLayerTableRecord
  2
0
 70
0
 62
7
  6
Continuous
370
-3
390
13
347
21
  0
LAYER
  5
28
330
1
100
AcDbSymbolTableRecord
100
AcDbLayerTableRecord
  2
Defpoints
 70
0
 62
7
  6
Continuous
290
0
370
-3
390
13
347
21
  0
LAYER
  5
8A
330
1
100
AcDbSymbolTableRecord
100
AcDbLayerTableRecord
  2
CUT
 70
0
 62
1
  6
Continuous
370
-3
390
13
347
21
  0
LAYER
  5
8B
330
1
100
AcDbSymbolTableRecord
100
AcDbLayerTableRecord
  2
POCKET-KERF-15.5
 70
0
 62
5
  6
Continuous
370
-3
390
13
347
21
  0
ENDTAB
  0
TABLE
  2
STYLE
  5
5
330
0
100
AcDbSymbolTable
 70
26
  0
STYLE
  5
29
330
5
100
AcDbSymbolTableRecord
100
AcDbTextStyleTableRecord
  2
Standard
 70
0
 40
0.0
 41
1.0
 50
0.0
 71
0
 42
2.5
  3
txt
  4

  0
STYLE
  5
41
330
5
100
AcDbSymbolTableRecord
100
AcDbTextStyleTableRecord
  2
OpenSans-Light
 70
0
 40
0.0
 41
1.0
 50
0.0
 71
0
 42
2.5
  3
OpenSans-Light.ttf
  4

  0
STYLE
  5
42
330
5
100
AcDbSymbolTableRecord
100
AcDbTextStyleTableRecord
  2
OpenSans-Light-Italic
 70
0
 40
0.0
 41
1.0
 50
0.0
 71
0
 42
2.5
  3
OpenSans-LightItalic.ttf
  4

  0
STYLE
  5
43
330
5
100
AcDbSymbolTableRecord
100
AcDbTextStyleTableRecord
  2
OpenSans
 70
0
 40
0.0
 41
1.0
 50
0.0
 71
0
 42
2.5
  3
OpenSans-Regular.ttf
  4

  0
STYLE
  5
44
330
5
100
AcDbSymbolTableRecord
100
AcDbTextStyleTableRecord
  2
OpenSans-Italic
 70
0
 40
0.0
 41
1.0
 50
0.0
 71
0
 42
2.5
  3
OpenSans-Italic.ttf
  4

  0
STYLE
  5
45
330
5
100
AcDbSymbolTableRecord
100
AcDbTextStyleTableRecord
  2
OpenSans-SemiBold
 70
0
 40
0.0
 41
1.0
 50
0.0
 71
0
 42
2.5
  3
OpenSans-SemiBold.ttf
  4

  0
STYLE
  5
46
330
5
100
AcDbSymbolTableRecord
100
AcDbTextStyleTableRecord
  2
OpenSans-SemiBoldItalic
 70
0
 40
0.0
 41
1.0
 50
0.0
 71
0
 42
2.5
  3
OpenSans-SemiBoldItalic.ttf
  4

  0
STYLE
  5
47
330
5
100
AcDbSymbolTableRecord
100
AcDbTextStyleTableRecord
  2
OpenSans-Bold
 70
0
 40
0.0
 41
1.0
 50
0.0
 71
0
 42
2.5
  3
OpenSans-Bold.ttf
  4

  0
STYLE
  5
48
330
5
100
AcDbSymbolTableRecord
100
AcDbTextStyleTableRecord
  2
OpenSans-BoldItalic
 70
0
 40
0.0
 41
1.0
 50
0.0
 71
0
 42
2.5
  3
OpenSans-BoldItalic.ttf
  4

  0
STYLE
  5
49
330
5
100
AcDbSymbolTableRecord
100
AcDbTextStyleTableRecord
  2
OpenSans-ExtraBold
 70
0
 40
0.0
 41
1.0
 50
0.0
 71
0
 42
2.5
  3
OpenSans-ExtraBold.ttf
  4

  0
STYLE
  5
4A
330
5
100
AcDbSymbolTableRecord
100
AcDbTextStyleTableRecord
  2
OpenSans-ExtraBoldItalic
 70
0
 40
0.0
 41
1.0
 50
0.0
 71
0
 42
2.5
  3
OpenSans-ExtraBoldItalic.ttf
  4

  0
STYLE
  5
4B
330
5
100
AcDbSymbolTableRecord
100
AcDbTextStyleTableRecord
  2
OpenSansCondensed-Bold
 70
0
 40
0.0
 41
1.0
 50
0.0
 71
0
 42
2.5
  3
OpenSansCondensed-Bold.ttf
  4

  0
STYLE
  5
4C
330
5
100
AcDbSymbolTableRecord
100
AcDbTextStyleTableRecord
  2
OpenSansCondensed-Light
 70
0
 40
0.0
 41
1.0
 50
0.0
 71
0
 42
2.5
  3
OpenSansCondensed-Light.ttf
  4

  0
STYLE
  5
4D
330
5
100
AcDbSymbolTableRecord
100
AcDbTextStyleTableRecord
  2
OpenSansCondensed-Italic
 70
0
 40
0.0
 41
1.0
 50
0.0
 71
0
 42
2.5
  3
OpenSansCondensed-LightItalic.ttf
  4

  0
STYLE
  5
4E
330
5
100
AcDbSymbolTableRecord
100
AcDbTextStyleTableRecord
  2
LiberationSans
 70
0
 40
0.0
 41
1.0
 50
0.0
 71
0
 42
2.5
  3
LiberationSans-Regular.ttf
  4

  0
STYLE
  5
4F
330
5
100
AcDbSymbolTableRecord
100
AcDbTextStyleTableRecord
  2
LiberationSans-Bold
 70
0
 40
0.0
 41
1.0
 50
0.0
 71
0
 42
2.5
  3
LiberationSans-Bold.ttf
  4

  0
STYLE
  5
50
330
5
100
AcDbSymbolTableRecord
100
AcDbTextStyleTableRecord
  2
LiberationSans-BoldItalic
 70
0
 40
0.0
 41
1.0
 50
0.0
 71
0
 42
2.5
  3
LiberationSans-BoldItalic.ttf
  4

  0
STYLE
  5
51
330
5
100
AcDbSymbolTableRecord
100
AcDbTextStyleTableRecord
  2
LiberationSans-Italic
 70
0
 40
0.0
 41
1.0
 50
0.0
 71
0
 42
2.5
  3
LiberationSans-Italic.ttf
  4

  0
STYLE
  5
52
330
5
100
AcDbSymbolTableRecord
100
AcDbTextStyleTableRecord
  2
LiberationSerif
 70
0
 40
0.0
 41
1.0
 50
0.0
 71
0
 42
2.5
  3
LiberationSerif-Regular.ttf
  4

  0
STYLE
  5
53
330
5
100
AcDbSymbolTableRecord
100
AcDbTextStyleTableRecord
  2
LiberationSerif-Bold
 70
0
 40
0.0
 41
1.0
 50
0.0
 71
0
 42
2.5
  3
LiberationSerif-Bold.ttf
  4

  0
STYLE
  5
54
330
5
100
AcDbSymbolTableRecord
100
AcDbTextStyleTableRecord
  2
LiberationSerif-BoldItalic
 70
0
 40
0.0
 41
1.0
 50
0.0
 71
0
 42
2.5
  3
LiberationSerif-BoldItalic.ttf
  4

  0
STYLE
  5
55
330
5
100
AcDbSymbolTableRecord
100
AcDbTextStyleTableRecord
  2
LiberationSerif-Italic
 70
0
 40
0.0
 41
1.0
 50
0.0
 71
0
 42
2.5
  3
LiberationSerif-Italic.ttf
  4

  0
STYLE
  5
56
330
5
100
AcDbSymbolTableRecord
100
AcDbTextStyleTableRecord
  2
LiberationMono
 70
0
 40
0.0
 41
1.0
 50
0.0
 71
0
 42
2.5
  3
LiberationMono-Regular.ttf
  4

  0
STYLE
  5
57
330
5
100
AcDbSymbolTableRecord
100
AcDbTextStyleTableRecord
  2
LiberationMono-Bold
 70
0
 40
0.0
 41
1.0
 50
0.0
 71
0
 42
2.5
  3
LiberationMono-Bold.ttf
  4

  0
STYLE
  5
58
330
5
100
AcDbSymbolTableRecord
100
AcDbTextStyleTableRecord
  2
LiberationMono-BoldItalic
 70
0
 40
0.0
 41
1.0
 50
0.0
 71
0
 42
2.5
  3
LiberationMono-BoldItalic.ttf
  4

  0
STYLE
  5
59
330
5
100
AcDbSymbolTableRecord
100
AcDbTextStyleTableRecord
  2
LiberationMono-Italic
 70
0
 40
0.0
 41
1.0
 50
0.0
 71
0
 42
2.5
  3
LiberationMono-Italic.ttf
  4

  0
ENDTAB
  0
TABLE
  2
VIEW
  5
7
330
0
100
AcDbSymbolTable
 70
0
  0
ENDTAB
  0
TABLE
  2
UCS
  5
6
330
0
100
AcDbSymbolTable
 70
0
  0
ENDTAB
  0
TABLE
  2
APPID
  5
3
330
0
100
AcDbSymbolTable
 70
3
  0
APPID
  5
2A
330
3
100
AcDbSymbolTableRecord
100
AcDbRegAppTableRecord
  2
ACAD
 70
0
  0
APPID
  5
E0
330
3
100
AcDbSymbolTableRecord
100
AcDbRegAppTableRecord
  2
HATCHBACKGROUNDCOLOR
 70
0
  0
APPID
  5
E1
330
3
100
AcDbSymbolTableRecord
100
AcDbRegAppTableRecord
  2
EZDXF
 70
0
  0
ENDTAB
  0
TABLE
  2
DIMSTYLE
  5
4
330
0
100
AcDbSymbolTable
 70
12
100
AcDbDimStyleTable
  0
DIMSTYLE
105
2B
330
4
100
AcDbSymbolTableRecord
100
AcDbDimStyleTableRecord
  2
Standard
 70
0
 40
1.0
 41
2.5
 42
0.625
 43
3.75
 44
1.25
 45
0.0
 46
0.0
 47
0.0
 48
0.0
 49
2.5
140
2.5
141
2.5
142
0.0
143
0.03937007874
144
1.0
145
0.0
146
1.0
147
0.625
148
0.0
 69
0
 70
0
 71
0
 72
0
 73
0
 74
0
 75
0
 76
0
 77
1
 78
8
 79
3
170
0
171
3
172
1
173
0
174
0
175
0
176
0
177
0
178
0
179
2
271
2
272
2
273
2
274
3
275
0
276
0
277
2
278
44
279
0
280
0
281
0
282
0
283
0
284
8
285
0
286
0
288
0
289
3
290
0
371
-2
372
-2
  0
DIMSTYLE
105
73
330
4
100
AcDbSymbolTableRecord
100
AcDbDimStyleTableRecord
  2
EZDXF
 70
0
 40
1.0
 41
0.175
 42
0.125
 43
3.75
 44
0.375
 45
0.0
 46
0.0
 47
0.0
 48
0.0
 49
2.5
140
0.25
141
2.5
142
0.0
143
0.03937007874
144
100.0
145
0.0
146
0.5
147
0.1
148
0.0
 69
0
 70
0
 71
0
 72
0
 73
0
 74
0
 75
0
 76
0
 77
1
 78
12
 79
3
170
0
171
3
172
1
173
0
174
0
175
0
176
0
177
0
178
0
179
2
271
2
272
2
273
2
274
3
275
0
276
0
277
2
278
46
279
2
280
0
281
0
282
0
283
0
284
8
285
0
286
0
288
1
289
3
290
0
340
4C
342
74
371
-2
372
-2
  0
DIMSTYLE
105
7C
330
4
100
AcDbSymbolTableRecord
100
AcDbDimStyleTableRecord
  2
EZ_M_100_H25_CM
 70
0
 40
1.0
 41
0.25
 42
0.125
 43
3.75
 44
0.375
 45
0.0
 46
0.0
 47
0.0
 48
0.0
 49
2.5
140
0.25
141
2.5
142
0.125
143
0.03937007874
144
100.0
145
0.0
146
0.5
147
0.1
148
0.0
 69
0
 70
0
 71
0
 72
0
 73
0
 74
0
 75
0
 76
0
 77
1
 78
12
 79
3
170
0
171
3
172
1
173
0
174
0
175
0
176
0
177
0
178
0
179
2
271
2
272
2
273
2
274
3
275
0
276
0
277
2
278
46
279
2
280
0
281
0
282
0
283
0
284
8
285
0
286
0
288
1
289
3
290
0
340
4C
371
-2
372
-2
  0
DIMSTYLE
105
7D
330
4
100
AcDbSymbolTableRecord
100
AcDbDimStyleTableRecord
  2
EZ_M_50_H25_CM
 70
0
 40
1.0
 41
0.125
 42
0.0625
 43
3.75
 44
0.1875
 45
0.0
 46
0.0
 47
0.0
 48
0.0
 49
2.5
140
0.125
141
2.5
142
0.0625
143
0.03937007874
144
100.0
145
0.0
146
0.5
147
0.05
148
0.0
 69
0
 70
0
 71
0
 72
0
 73
0
 74
0
 75
0
 76
0
 77
1
 78
12
 79
3
170
0
171
3
172
1
173
0
174
0
175
0
176
0
177
0
178
0
179
2
271
2
272
2
273
2
274
3
275
0
276
0
277
2
278
46
279
2
280
0
281
0
282
0
283
0
284
8
285
0
286
0
288
1
289
3
290
0
340
4C
371
-2
372
-2
  0
DIMSTYLE
105
7E
330
4
100
AcDbSymbolTableRecord
100
AcDbDimStyleTableRecord
  2
EZ_M_25_H25_CM
 70
0
 40
1.0
 41
0.0625
 42
0.03125
 43
3.75
 44
0.09375
 45
0.0
 46
0.0
 47
0.0
 48
0.0
 49
2.5
140
0.0625
141
2.5
142
0.03125
143
0.03937007874
144
100.0
145
0.0
146
0.5
147
0.025
148
0.0
 69
0
 70
0
 71
0
 72
0
 73
0
 74
0
 75
0
 76
0
 77
1
 78
12
 79
3
170
0
171
3
172
1
173
0
174
0
175
0
176
0
177
0
178
0
179
2
271
2
272
2
273
2
274
3
275
0
276
0
277
2
278
46
279
2
280
0
281
0
282
0
283
0
284
8
285
0
286
0
288
1
289
3
290
0
340
4C
371
-2
372
-2
  0
DIMSTYLE
105
7F
330
4
100
AcDbSymbolTableRecord
100
AcDbDimStyleTableRecord
  2
EZ_M_20_H25_CM
 70
0
 40
1.0
 41
0.05
 42
0.025
 43
3.75
 44
0.07500000000000001
 45
0.0
 46
0.0
 47
0.0
 48
0.0
 49
2.5
140
0.05
141
2.5
142
0.025
143
0.03937007874
144
100.0
145
0.0
146
0.5
147
0.020000000000000004
148
0.0
 69
0
 70
0
 71
0
 72
0
 73
0
 74
0
 75
0
 76
0
 77
1
 78
12
 79
3
170
0
171
3
172
1
173
0
174
0
175
0
176
0
177
0
178
0
179
2
271
2
272
2
273
2
274
3
275
0
276
0
277
2
278
46
279
2
280
0
281
0
282
0
283
0
284
8
285
0
286
0
288
1
289
3
290
0
340
4C
371
-2
372
-2
  0
DIMSTYLE
105
80
330
4
100
AcDbSymbolTableRecord
100
AcDbDimStyleTableRecord
  2
EZ_M_10_H25_CM
 70
0
 40
1.0
 41
0.025
 42
0.0125
 43
3.75
 44
0.037500000000000006
 45
0.0
 46
0.0
 47
0.0
 48
0.0
 49
2.5
140
0.025
141
2.5
142
0.0125
143
0.03937007874
144
100.0
145
0.0
146
0.5
147
0.010000000000000002
148
0.0
 69
0
 70
0
 71
0
 72
0
 73
0
 74
0
 75
0
 76
0
 77
1
 78
12
 79
3
170
0
171
3
172
1
173
0
174
0
175
0
176
0
177
0
178
0
179
2
271
2
272
2
273
2
274
3
275
0
276
0
277
2
278
46
279
2
280
0
281
0
282
0
283
0
284
8
285
0
286
0
288
1
289
3
290
0
340
4C
371
-2
372
-2
  0
DIMSTYLE
105
81
330
4
100
AcDbSymbolTableRecord
100
AcDbDimStyleTableRecord
  2
EZ_M_5_H25_CM
 70
0
 40
1.0
 41
0.0125
 42
0.00625
 43
3.75
 44
0.018750000000000003
 45
0.0
 46
0.0
 47
0.0
 48
0.0
 49
2.5
140
0.0125
141
2.5
142
0.00625
143
0.03937007874
144
100.0
145
0.0
146
0.5
147
0.005000000000000001
148
0.0
 69
0
 70
0
 71
0
 72
0
 73
0
 74
0
 75
0
 76
0
 77
1
 78
12
 79
3
170
0
171
3
172
1
173
0
174
0
175
0
176
0
177
0
178
0
179
2
271
2
272
2
273
2
274
3
275
0
276
0
277
2
278
46
279
2
280
0
281
0
282
0
283
0
284
8
285
0
286
0
288
1
289
3
290
0
340
4C
371
-2
372
-2
  0
DIMSTYLE
105
82
330
4
100
AcDbSymbolTableRecord
100
AcDbDimStyleTableRecord
  2
EZ_M_1_H25_CM
 70
0
 40
1.0
 41
0.0025
 42
0.00125
 43
3.75
 44
0.00375
 45
0.0
 46
0.0
 47
0.0
 48
0.0
 49
2.5
140
0.0025
141
2.5
142
0.00125
143
0.03937007874
144
100.0
145
0.0
146
0.5
147
0.001
148
0.0
 69
0
 70
0
 71
0
 72
0
 73
0
 74
0
 75
0
 76
0
 77
1
 78
12
 79
3
170
0
171
3
172
1
173
0
174
0
175
0
176
0
177
0
178
0
179
2
271
2
272
2
273
2
274
3
275
0
276
0
277
2
278
46
279
2
280
0
281
0
282
0
283
0
284
8
285
0
286
0
288
1
289
3
290
0
340
4C
371
-2
372
-2
  0
DIMSTYLE
105
83
330
4
100
AcDbSymbolTableRecord
100
AcDbDimStyleTableRecord
  2
EZ_RADIUS
 70
0
 40
1.0
 41
0.25
 42
0.125
 43
3.75
 44
0.375
 45
0.0
 46
0.0
 47
0.0
 48
0.0
 49
2.5
140
0.25
141
0.0
142
0.0
143
0.03937007874
144
100.0
145
0.0
146
0.5
147
0.1
148
0.0
 69
0
 70
0
 71
0
 72
0
 73
0
 74
0
 75
0
 76
0
 77
1
 78
12
 79
3
170
0
171
3
172
0
173
0
174
0
175
0
176
0
177
0
178
0
179
2
271
2
272
2
273
2
274
3
275
0
276
0
277
2
278
46
279
1
280
0
281
0
282
0
283
0
284
8
285
0
286
0
288
1
289
3
290
0
340
4C
342
84
371
-2
372
-2
  0
DIMSTYLE
105
88
330
4
100
AcDbSymbolTableRecord
100
AcDbDimStyleTableRecord
  2
EZ_RADIUS_INSIDE
 70
0
 40
1.0
 41
0.25
 42
0.125
 43
3.75
 44
0.375
 45
0.0
 46
0.0
 47
0.0
 48
0.0
 49
2.5
140
0.25
141
0.0
142
0.0
143
0.03937007874
144
100.0
145
0.0
146
0.5
147
0.1
148
0.0
 69
0
 70
0
 71
0
 72
0
 73
0
 74
0
 75
0
 76
0
 77
0
 78
12
 79
3
170
0
171
3
172
0
173
0
174
1
175
0
176
0
177
0
178
0
179
2
271
2
272
2
273
2
274
3
275
0
276
0
277
2
278
46
279
0
280
0
281
0
282
0
283
0
284
8
285
0
286
0
288
1
289
0
290
0
340
4C
342
84
371
-2
372
-2
  0
DIMSTYLE
105
89
330
4
100
AcDbSymbolTableRecord
100
AcDbDimStyleTableRecord
  2
EZ_CURVED
 70
0
 40
1.0
 41
0.25
 42
0.125
 43
3.75
 44
0.375
 45
0.0
 46
0.0
 47
0.0
 48
0.0
 49
2.5
140
0.25
141
2.5
142
0.0
143
0.03937007874
144
100.0
145
0.0
146
0.5
147
0.1
148
0.0
 69
0
 70
0
 71
0
 72
0
 73
0
 74
0
 75
0
 76
0
 77
1
 78
12
 79
2
 90
2
170
0
171
3
172
1
173
0
174
0
175
0
176
0
177
0
178
0
179
2
271
2
272
2
273
2
274
3
275
0
276
0
277
2
278
46
279
2
280
0
281
0
282
0
283
0
284
8
285
0
286
0
288
1
289
3
290
0
340
4C
371
-2
372
-2
  0
ENDTAB
  0
TABLE
  2
BLOCK_RECORD
  5
9
330
0
100
AcDbSymbolTable
 70
5
  0
BLOCK_RECORD
  5
17
330
9
100
AcDbSymbolTableRecord
100
AcDbBlockTableRecord
  2
*Model_Space
340
1A
 70
0
280
1
281
0
  0
BLOCK_RECORD
  5
1B
330
9
100
AcDbSymbolTableRecord
100
AcDbBlockTableRecord
  2
*Paper_Space
340
1E
 70
0
280
1
281
0
  0
BLOCK_RECORD
  5
74
330
9
100
AcDbSymbolTableRecord
100
AcDbBlockTableRecord
  2
_ARCHTICK
340
0
 70
0
280
1
281
0
  0
BLOCK_RECORD
  5
78
330
9
100
AcDbSymbolTableRecord
100
AcDbBlockTableRecord
  2
_CLOSEDFILLED
340
0
 70
0
280
1
281
0
  0
BLOCK_RECORD
  5
84
330
9
100
AcDbSymbolTableRecord
100
AcDbBlockTableRecord
  2
_CLOSEDBLANK
340
0
 70
0
280
1
281
0
  0
ENDTAB
  0
ENDSEC
  0
SECTION
  2
BLOCKS
  0
BLOCK
  5
18
330
17
100
AcDbEntity
  8
0
100
AcDbBlockBegin
  2
*Model_Space
 70
0
 10
0.0
 20
0.0
 30
0.0
  3
*Model_Space
  1

  0
ENDBLK
  5
19
330
17
100
AcDbEntity
  8
0
100
AcDbBlockEnd
  0
BLOCK
  5
1C
330
1B
100
AcDbEntity
  8
0
100
AcDbBlockBegin
  2
*Paper_Space
 70
0
 10
0.0
 20
0.0
 30
0.0
  3
*Paper_Space
  1

  0
ENDBLK
  5
1D
330
1B
100
AcDbEntity
  8
0
100
AcDbBlockEnd
  0
BLOCK
  5
75
330
74
100
AcDbEntity
  8
0
100
AcDbBlockBegin
  2
_ARCHTICK
 70
0
 10
0.0
 20
0.0
 30
0.0
  3
_ARCHTICK
  1

  0
LWPOLYLINE
  5
77
330
74
100
AcDbEntity
  8
0
  6
BYBLOCK
 62
0
100
AcDbPolyline
 90
2
 70
0
 43
0.15
 10
-0.5
 20
-0.5
 10
0.5
 20
0.5
  0
ENDBLK
  5
76
330
74
100
AcDbEntity
  8
0
100
AcDbBlockEnd
  0
BLOCK
  5
79
330
78
100
AcDbEntity
  8
0
100
AcDbBlockBegin
  2
_CLOSEDFILLED
 70
0
 10
0.0
 20
0.0
 30
0.0
  3
_CLOSEDFILLED
  1

  0
SOLID
  5
7B
330
78
100
AcDbEntity
  8
0
  6
BYBLOCK
 62
0
100
AcDbTrace
 10
-1.0
 20
0.16439898372402537
 30
0.0
 11
0.0
 21
0.0
 31
0.0
 12
-1.0
 22
-0.16439898372402537
 32
0.0
 13
-1.0
 23
-0.16439898372402537
 33
0.0
  0
ENDBLK
  5
7A
330
78
100
AcDbEntity
  8
0
100
AcDbBlockEnd
  0
BLOCK
  5
85
330
84
100
AcDbEntity
  8
0
100
AcDbBlockBegin
  2
_CLOSEDBLANK
 70
0
 10
0.0
 20
0.0
 30
0.0
  3
_CLOSEDBLANK
  1

  0
LWPOLYLINE
  5
87
330
84
100
AcDbEntity
  8
0
  6
BYBLOCK
 62
0
100
AcDbPolyline
 90
3
 70
1
 10
-1.0
 20
0.16439898372402537
 10
0.0
 20
0.0
 10
-1.0
 20
-0.16439898372402537
  0
ENDBLK
  5
86
330
84
100
AcDbEntity
  8
0
100
AcDbBlockEnd
  0
ENDSEC
  0
SECTION
  2
ENTITIES
  0
LWPOLYLINE
  5
8C
330
17
100
AcDbEntity
  8
CUT
100
AcDbPolyline
 90
4
 70
1
 10
786.6808360041198
 20
0.0
 10
1123.829765720171
 20
321.2951901154468
 42
0.4283865023507377
 10
0.0
 20
321.2951901154468
 10
337.14892971605127
 20
0.0
 42
-0.4283865023507377
  0
LWPOLYLINE
  5
8D
330
17
100
AcDbEntity
  8
POCKET-KERF-15.5
100
AcDbPolyline
 90
4
 70
1
 10
778.5984422461696
 20
8.890562990065181
 10
782.8618804743206
 20
4.668822297561579
 10
1109.8534571892465
 20
334.8900485621844
 10
1105.5900189610957
 20
339.11178925468795
  0
LWPOLYLINE
  5
8E
330
17
100
AcDbEntity
  8
POCKET-KERF-15.5
100
AcDbPolyline
 90
4
 70
1
 10
994.6854145148793
 20
244.16456980075765
 10
999.0284413110769
 20
240.02474876024024
 10
1099.3022865401888
 20
345.22059962565754
 10
1094.9592597439917
 20
349.36042066617506
  0
LWPOLYLINE
  5
8F
330
17
100
AcDbEntity
  8
POCKET-KERF-15.5
100
AcDbPolyline
 90
4
 70
1
 10
769.9500014351705
 20
16.976567800235028
 10
774.3710430349452
 20
12.920166541352597
 10
1088.5563850635629
 20
355.3484369463892
 10
1084.1353434637883
 20
359.4048382052717
  0
LWPOLYLINE
  5
90
330
17
100
AcDbEntity
  8
POCKET-KERF-15.5
100
AcDbPolyline
 90
4
 70
1
 10
976.9251023652007
 20
260.30504015811545
 10
981.4225567341848
 20
256.3335285820394
 10
1077.6196467067762
 20
365.2698905422967
 10
1073.122192337792
 20
369.2414021183729
  0
LWPOLYLINE
  5
91
330
17
100
AcDbEntity
  8
POCKET-KERF-15.5
100
AcDbPolyline
 90
4
 70
1
 10
761.0000486751447
 20
24.727525666508573
 10
765.5722860895947
 20
20.842342913290427
 10
1066.496034569999
 20
374.98136521770533
 10
1061.923797155549
 20
378.86654797092336
  0
LWPOLYLINE
  5
92
330
17
100
AcDbEntity
  8
POCKET-KERF-15.5
100
AcDbPolyline
 90
4
 70
1
 10
958.563302634934
 20
275.7577998364496
 10
963.2086662722868
 20
271.96035376352637
 10
1055.1895794700724
 20
384.4793418661238
 10
1050.5442158327198
 20
388.2767879390471
  0
LWPOLYLINE
  5
93
330
17
100
AcDbEntity
  8
POCKET-KERF-15.5
100
AcDbPolyline
 90
4
 70
1
 10
751.7615554187911
 20
32.13220287782255
 10
756.47836195804
 20
28.42386954985702
 10
1043.7043784798782
 20
393.7603787454493
 10
1038.9875719406296
 20
397.46871207341474
  0
LWPOLYLINE
  5
94
330
17
100
AcDbEntity
  8
POCKET-KERF-15.5
100
AcDbPolyline
 90
4
 70
1
 10
939.6266276675251
 20
290.50045265707445
 10
944.4131678991972
 20
286.8825758473165
 10
1032.044593443699
 20
402.821112725136
 10
1027.2580532120269
 20
406.43898953489395
  0
LWPOLYLINE
  5
95
330
17
100
AcDbEntity
  8
POCKET-KERF-15.5
100
AcDbPolyline
 90
4
 70
1
 10
742.2479113097761
 20
39.17986759873886
 10
747.102450755292
 20
35.65375830208776
 10
1020.2144494691084
 20
411.65826050487897
 10
1015.3599100235924
 20
415.1843698015301
  0
LWPOLYLINE
  5
96
330
17
100
AcDbEntity
  8
POCKET-KERF-15.5
100
AcDbPolyline
 90
4
 70
1
 10
920.142522991482
 20
304.5116316218785
 10
925.0633025316716
 20
301.0785675798234
 10
1008.2182333959371
 20
420.26861980437064
 10
1003.2974538557474
 20
423.70168384642574
  0
LWPOLYLINE
  5
97
330
17
100
AcDbEntity
  8
POCKET-KERF-15.5
100
AcDbPolyline
 90
4
 70
1
 10
732.4729047766945
 20
45.860305423436664
 10
737.4581412892411
 20
42.52153066104676
 10
996.0602922428674
 20
428.6490705236967
 10
991.0750557303207
 20
431.9878452860866
  0
LWPOLYLINE
  5
98
330
17
100
AcDbEntity
  8
POCKET-KERF-15.5
100
AcDbPolyline
 90
4
 70
1
 10
900.1392275426927
 20
317.77102988119697
 10
905.1871145482762
 20
314.52775425632905
 10
983.7450316322235
 20
436.79657587395457
 10
978.69714462664
 20
440.0398514988225
  0
LWPOLYLINE
  5
99
330
17
100
AcDbEntity
  8
POCKET-KERF-15.5
100
AcDbPolyline
 90
4
 70
1
 10
722.4507030490587
 20
52.163834179777645
 10
727.5594113659613
 20
49.01723294466539
 10
971.2769141935236
 20
444.70818347768113
 10
966.1682058766211
 20
447.8547847127934
  0
LWPOLYLINE
  5
9A
330
17
100
AcDbEntity
  8
POCKET-KERF-15.5
100
AcDbPolyline
 90
4
 70
1
 10
879.645732736833
 20
330.25943016517925
 10
884.8134111437729
 20
327.21064354056165
 10
958.660457946376
 20
452.38102643869456
 10
953.4927795394361
 20
455.42981306331217
  0
LWPOLYLINE
  5
9B
330
17
100
AcDbEntity
  8
POCKET-KERF-15.5
100
AcDbPolyline
 90
4
 70
1
 10
712.1958316242806
 20
58.081317961987445
 10
717.4206075312306
 20
55.13145072393183
 10
945.900234663303
 20
459.8123243809575
 10
940.6754587563529
 20
462.7621916190132
  0
LWPOLYLINE
  5
9C
330
17
100
AcDbEntity
  8
POCKET-KERF-15.5
100
AcDbPolyline
 90
4
 70
1
 10
858.6917404511801
 20
341.9587326359919
 10
863.9717205779307
 20
339.108853715561
 10
933.0008682130871
 20
466.99938445609257
 10
927.7208880863363
 20
469.8492633765235
  0
LWPOLYLINE
  5
9D
330
17
100
AcDbEntity
  8
POCKET-KERF-15.5
100
AcDbPolyline
 90
4
 70
1
 10
701.7231532154037
 20
63.604180371615755
 10
707.0564242776234
 20
60.855322467523294
 10
919.9670328852383
 20
473.9396023191771
 10
914.6337618230189
 20
476.68846022326943
  0
LWPOLYLINE
  5
9E
330
17
100
AcDbEntity
  8
POCKET-KERF-15.5
100
AcDbPolyline
 90
4
 70
1
 10
837.3076199767324
 20
352.8519811204929
 10
842.6922493792752
 20
350.2051403248893
 10
906.803451696192
 20
480.6304630724693
 10
901.4188222936493
 20
483.27730386807286
  0
LWPOLYLINE
  5
9F
330
17
100
AcDbEntity
  8
POCKET-KERF-15.5
100
AcDbPolyline
 90
4
 70
1
 10
691.0478462100972
 20
68.72441694758558
 10
696.4818827473108
 20
66.18055238510826
 10
893.5148946778494
 20
487.06954217672137
 10
888.0808581406359
 20
489.6134067391988
  0
LWPOLYLINE
  5
A0
330
17
100
AcDbEntity
  8
POCKET-KERF-15.5
100
AcDbPolyline
 90
4
 70
1
 10
815.5243640030257
 20
362.9233876853547
 10
821.0058385658003
 20
360.48342116557336
 10
880.1061771490803
 20
493.2545063297488
 10
874.6247025863055
 20
495.69447284953014
  0
LWPOLYLINE
  5
A1
330
17
100
AcDbEntity
  8
POCKET-KERF-15.5
100
AcDbPolyline
 90
4
 70
1
 10
680.1853826721344
 20
73.43460676731372
 10
685.7123089614417
 20
71.09942245069892
 10
866.5821579708164
 20
499.1831143119405
 10
861.0552316815091
 20
501.51829862855544
  0
LWPOLYLINE
  5
A2
330
17
100
AcDbEntity
  8
POCKET-KERF-15.5
100
AcDbPolyline
 90
4
 70
1
 10
793.3735436994364
 20
372.15835551902165
 10
798.9439189460954
 20
369.9287995965547
 10
852.9477377853663
 20
504.8532177983994
 10
847.3773625387072
 20
507.0827737208663
  0
LWPOLYLINE
  5
A3
330
17
100
AcDbEntity
  8
POCKET-KERF-15.5
100
AcDbPolyline
 90
4
 70
1
 10
669.1515059172351
 20
77.7279232020919
 10
674.7633116076481
 20
75.60480358863434
 10
839.2078572405904
 20
510.262762137422
 10
833.5960515501773
 20
512.3858817508794
  0
LWPOLYLINE
  5
A4
330
17
100
AcDbEntity
  8
POCKET-KERF-15.5
100
AcDbPolyline
 90
4
 70
1
 10
770.8872629580765
 20
380.5435000873354
 10
776.5384655656688
 20
378.52758612886856
 10
825.3674951995789
 20
515.4097870950342
 10
819.7162925919866
 20
517.425701053501
  0
LWPOLYLINE
  5
A5
330
17
100
AcDbEntity
  8
POCKET-KERF-15.5
100
AcDbPolyline
 90
4
 70
1
 10
657.9622076957754
 20
81.5981438111372
 10
663.6507594178762
 20
79.69016600597705
 10
811.4316669364814
 20
520.2924275653133
 10
805.7431152143805
 20
522.2004053704734
  0
LWPOLYLINE
  5
A6
330
17
100
AcDbEntity
  8
POCKET-KERF-15.5
100
AcDbPolyline
 90
4
 70
1
 10
748.0981118645968
 20
388.06666853216797
 10
753.8219513644926
 20
386.26731826625763
 10
797.4054223191434
 20
524.9089142462382
 10
791.6815828192475
 20
526.7082645121485
  0
LWPOLYLINE
  5
A7
330
17
100
AcDbEntity
  8
POCKET-KERF-15.5
100
AcDbPolyline
 90
4
 70
1
 10
646.6337050154318
 20
85.03965935997545
 10
652.3907581693248
 20
83.34958865635102
 10
783.293843979207
 20
529.2575742808237
 10
777.536790825314
 20
530.9476449844483
  0
LWPOLYLINE
  5
A8
330
17
100
AcDbEntity
  8
POCKET-KERF-15.5
100
AcDbPolyline
 90
4
 70
1
 10
725.039119464333
 20
394.7169572849477
 10
730.8273001129323
 20
393.1367785674665
 10
769.1020454703392
 20
533.3368318633077
 10
763.3138648217399
 20
534.9170105807889
  0
LWPOLYLINE
  5
A9
330
17
100
AcDbEntity
  8
POCKET-KERF-15.5
100
AcDbPolyline
 90
4
 70
1
 10
635.1824166373549
 20
88.04748195008327
 10
640.9996273418294
 20
86.57776782150327
 10
754.8351694152536
 20
537.1452088101684
 10
749.0179587107791
 20
538.6149229387485
  0
LWPOLYLINE
  5
AA
330
17
100
AcDbEntity
  8
POCKET-KERF-15.5
100
AcDbPolyline
 90
4
 70
1
 10
701.7437058922549
 20
400.48472786955034
 10
707.5878386942734
 20
399.12601090403786
 10
740.4983856422004
 20
540.6813250957675
 10
734.6542528401819
 20
542.04004206128
  0
LWPOLYLINE
  5
AB
330
17
100
AcDbEntity
  8
POCKET-KERF-15.5
100
AcDbPolyline
 90
4
 70
1
 10
623.624939279932
 20
90.6172522480093
 10
629.4938764655155
 20
89.37002479815268
 10
726.0968893115981
 20
543.9438993524259
 10
720.2279521260147
 20
545.1911268022825
  0
LWPOLYLINE
  5
AC
330
17
100
AcDbEntity
  8
POCKET-KERF-15.5
100
AcDbPolyline
 90
4
 70
1
 10
678.2456339360955
 20
405.3616208716498
 10
684.137248803004
 20
404.22633489004755
 10
711.635899033484
 20
546.9317493347447
 10
705.7442841665754
 20
548.067035316347
  0
LWPOLYLINE
  5
AD
330
17
100
AcDbEntity
  8
POCKET-KERF-15.5
100
AcDbPolyline
 90
4
 70
1
 10
611.9780235646342
 20
92.74524580349531
 10
617.8901811930112
 20
91.72231267898381
 10
697.120654976468
 20
549.6437923480133
 10
691.208497348091
 20
550.666725472525
  0
LWPOLYLINE
  5
AE
330
17
100
AcDbEntity
  8
POCKET-KERF-15.5
100
AcDbPolyline
 90
4
 70
1
 10
654.578960102864
 20
409.3405680542855
 10
660.5095181288584
 20
408.43035846286597
 10
682.5564169688755
 20
552.0790456405394
 10
676.625858942881
 20
552.989255231959
  0
LWPOLYLINE
  5
AF
330
17
100
AcDbEntity
  8
POCKET-KERF-15.5
100
AcDbPolyline
 90
4
 70
1
 10
600.2585497388037
 20
94.42837844744142
 10
606.2053591308894
 20
93.63122221795933
 10
667.9484625927652
 20
554.2366267597653
 10
662.0016532006795
 20
555.0337829892472
  0
LWPOLYLINE
  5
B0
330
17
100
AcDbEntity
  8
POCKET-KERF-15.5
100
AcDbPolyline
 90
4
 70
1
 10
630.7779852596606
 20
412.4158026020835
 10
636.7388910973714
 20
411.7319885967102
 10
653.3020852715134
 20
556.1157538720372
 10
647.3411794338026
 20
556.7995678774105
  0
LWPOLYLINE
  5
B1
330
17
100
AcDbEntity
  8
POCKET-KERF-15.5
100
AcDbPolyline
 90
4
 70
1
 10
588.4835032105726
 20
95.66421076189043
 10
594.4563454653728
 20
95.0939867714494
 10
638.6225923516582
 20
557.7157460459177
 10
632.6497500968582
 20
558.2859700363588
  0
LWPOLYLINE
  5
B2
330
17
100
AcDbEntity
  8
POCKET-KERF-15.5
100
AcDbPolyline
 90
4
 70
1
 10
606.8772049203335
 20
414.58286747928645
 10
612.8598192383372
 20
414.1264401334619
 10
623.915303179699
 20
559.0360234989292
 10
617.9326888616952
 20
559.4924508447538
  0
LWPOLYLINE
  5
B3
330
17
100
AcDbEntity
  8
POCKET-KERF-15.5
100
AcDbPolyline
 90
4
 70
1
 10
576.6699499313673
 20
96.4509516155548
 10
582.6601684176276
 20
96.10848630801638
 10
609.1855471745469
 20
560.076107807649
 10
603.1953286882867
 20
560.4185731151875
  0
LWPOLYLINE
  5
B4
330
17
100
AcDbEntity
  8
POCKET-KERF-15.5
100
AcDbPolyline
 90
4
 70
1
 10
582.9112592500276
 20
415.8386218894787
 10
588.9069112541061
 20
415.6102427179488
 10
594.4386618963255
 20
560.835622081073
 10
588.4430098922469
 20
561.0640012526029
  0
LWPOLYLINE
  5
B5
330
17
100
AcDbEntity
  8
POCKET-KERF-15.5
100
AcDbPolyline
 90
4
 70
1
 10
564.8350116616801
 20
96.78746075976026
 10
570.833924564218
 20
96.67325048104452
 10
579.6799911122215
 20
561.3142910971881
 10
573.6810782096835
 20
561.4285013759038
  0
LWPOLYLINE
  5
B6
330
17
100
AcDbEntity
  8
POCKET-KERF-15.5
100
AcDbPolyline
 90
4
 70
1
 10
558.9148828600855
 20
416.1812458276424
 10
564.9148828600855
 20
416.1812458276424
 10
564.9148828600855
 20
561.5119414027033
 10
558.9148828600855
 20
561.5119414027033
  0
LWPOLYLINE
  5
B7
330
17
100
AcDbEntity
  8
POCKET-KERF-15.5
100
AcDbPolyline
 90
4
 70
1
 10
552.995841155953
 20
96.67325048104452
 10
558.9947540584909
 20
96.78746075976026
 10
550.1486875104875
 20
561.4285013759038
 10
544.1497746079497
 20
561.3142910971881
  0
LWPOLYLINE
  5
B8
330
17
100
AcDbEntity
  8
POCKET-KERF-15.5
100
AcDbPolyline
 90
4
 70
1
 10
534.9228544660648
 20
415.6102427179488
 10
540.9185064701434
 20
415.8386218894787
 10
535.386755827924
 20
561.0640012526029
 10
529.3911038238455
 20
560.835622081073
  0
LWPOLYLINE
  5
B9
330
17
100
AcDbEntity
  8
POCKET-KERF-15.5
100
AcDbPolyline
 90
4
 70
1
 10
541.1695973025435
 20
96.10848630801638
 10
547.1598157888036
 20
96.4509516155548
 10
520.6344370318842
 20
560.4185731151875
 10
514.6442185456241
 20
560.076107807649
  0
LWPOLYLINE
  5
BA
330
17
100
AcDbEntity
  8
POCKET-KERF-15.5
100
AcDbPolyline
 90
4
 70
1
 10
510.9699464818339
 20
414.1264401334619
 10
516.9525607998377
 20
414.58286747928645
 10
505.89707685847594
 20
559.4924508447538
 10
499.9144625404722
 20
559.0360234989292
  0
LWPOLYLINE
  5
BB
330
17
100
AcDbEntity
  8
POCKET-KERF-15.5
100
AcDbPolyline
 90
4
 70
1
 10
529.3734202547984
 20
95.0939867714494
 10
535.3462625095984
 20
95.66421076189043
 10
491.180015623313
 20
558.2859700363588
 10
485.20717336851294
 20
557.7157460459177
  0
LWPOLYLINE
  5
BC
330
17
100
AcDbEntity
  8
POCKET-KERF-15.5
100
AcDbPolyline
 90
4
 70
1
 10
487.0908746227997
 20
411.7319885967102
 10
493.0517804605106
 20
412.4158026020835
 10
476.4885862863686
 20
556.7995678774105
 10
470.5276804486578
 20
556.1157538720372
  0
LWPOLYLINE
  5
BD
330
17
100
AcDbEntity
  8
POCKET-KERF-15.5
100
AcDbPolyline
 90
4
 70
1
 10
517.6244065892818
 20
93.63122221795933
 10
523.5712159813673
 20
94.42837844744142
 10
461.8281125194916
 20
555.0337829892472
 10
455.88130312740594
 20
554.2366267597653
  0
LWPOLYLINE
  5
BE
330
17
100
AcDbEntity
  8
POCKET-KERF-15.5
100
AcDbPolyline
 90
4
 70
1
 10
463.3202475913127
 20
408.43035846286597
 10
469.25080561730715
 20
409.3405680542855
 10
447.2039067772901
 20
552.989255231959
 10
441.2733487512956
 20
552.0790456405394
  0
LWPOLYLINE
  5
BF
330
17
100
AcDbEntity
  8
POCKET-KERF-15.5
100
AcDbPolyline
 90
4
 70
1
 10
505.93958452715975
 20
91.72231267898381
 10
511.8517421555368
 20
92.74524580349531
 10
432.62126837208024
 20
550.666725472525
 10
426.7091107437032
 20
549.6437923480133
  0
LWPOLYLINE
  5
C0
330
17
100
AcDbEntity
  8
POCKET-KERF-15.5
100
AcDbPolyline
 90
4
 70
1
 10
439.69251691716715
 20
404.22633489004755
 10
445.5841317840756
 20
405.3616208716498
 10
418.0854815535957
 20
548.067035316347
 10
412.19386668668716
 20
546.9317493347447
  0
LWPOLYLINE
  5
C1
330
17
100
AcDbEntity
  8
POCKET-KERF-15.5
100
AcDbPolyline
 90
4
 70
1
 10
494.33588925465557
 20
89.37002479815268
 10
500.204826440239
 20
90.6172522480093
 10
403.60181359415645
 20
545.1911268022825
 10
397.732876408573
 20
543.9438993524259
  0
LWPOLYLINE
  5
C2
330
17
100
AcDbEntity
  8
POCKET-KERF-15.5
100
AcDbPolyline
 90
4
 70
1
 10
416.2419270258978
 20
399.12601090403786
 10
422.0860598279163
 20
400.48472786955034
 10
389.1755128799892
 20
542.04004206128
 10
383.33138007797066
 20
540.6813250957675
  0
LWPOLYLINE
  5
C3
330
17
100
AcDbEntity
  8
POCKET-KERF-15.5
100
AcDbPolyline
 90
4
 70
1
 10
482.8301383783417
 20
86.57776782150327
 10
488.6473490828161
 20
88.04748195008327
 10
374.811807009392
 20
538.6149229387485
 10
368.9945963049176
 20
537.1452088101684
  0
LWPOLYLINE
  5
C4
330
17
100
AcDbEntity
  8
POCKET-KERF-15.5
100
AcDbPolyline
 90
4
 70
1
 10
393.0024656072388
 20
393.1367785674665
 10
398.7906462558381
 20
394.7169572849477
 10
360.5159008984312
 20
534.9170105807889
 10
354.72772024983186
 20
533.3368318633077
  0
LWPOLYLINE
  5
C5
330
17
100
AcDbEntity
  8
POCKET-KERF-15.5
100
AcDbPolyline
 90
4
 70
1
 10
471.43900755084616
 20
83.34958865635102
 10
477.19606070473924
 20
85.03965935997545
 10
346.2929748948572
 20
530.9476449844483
 10
340.53592174096406
 20
529.2575742808237
  0
LWPOLYLINE
  5
C6
330
17
100
AcDbEntity
  8
POCKET-KERF-15.5
100
AcDbPolyline
 90
4
 70
1
 10
370.0078143556785
 20
386.26731826625763
 10
375.7316538555744
 20
388.06666853216797
 10
332.1481829009237
 20
526.7082645121485
 10
326.4243434010278
 20
524.9089142462382
  0
LWPOLYLINE
  5
C7
330
17
100
AcDbEntity
  8
POCKET-KERF-15.5
100
AcDbPolyline
 90
4
 70
1
 10
460.17900630229497
 20
79.69016600597705
 10
465.86755802439575
 20
81.5981438111372
 10
318.08665050579054
 20
522.2004053704734
 10
312.3980987836897
 20
520.2924275653133
  0
LWPOLYLINE
  5
C8
330
17
100
AcDbEntity
  8
POCKET-KERF-15.5
100
AcDbPolyline
 90
4
 70
1
 10
347.2913001545023
 20
378.52758612886856
 10
352.94250276209465
 20
380.5435000873354
 10
304.1134731281845
 20
517.425701053501
 10
298.46227052059214
 20
515.4097870950342
  0
LWPOLYLINE
  5
C9
330
17
100
AcDbEntity
  8
POCKET-KERF-15.5
100
AcDbPolyline
 90
4
 70
1
 10
449.066454112523
 20
75.60480358863434
 10
454.67825980293605
 20
77.7279232020919
 10
290.23371416999373
 20
512.3858817508794
 10
284.6219084795807
 20
510.262762137422
  0
LWPOLYLINE
  5
CA
330
17
100
AcDbEntity
  8
POCKET-KERF-15.5
100
AcDbPolyline
 90
4
 70
1
 10
324.88584677407573
 20
369.9287995965547
 10
330.4562220207348
 20
372.15835551902165
 10
276.452403181464
 20
507.0827737208663
 10
270.8820279348049
 20
504.8532177983994
  0
LWPOLYLINE
  5
CB
330
17
100
AcDbEntity
  8
POCKET-KERF-15.5
100
AcDbPolyline
 90
4
 70
1
 10
438.1174567587293
 20
71.09942245069892
 10
443.6443830480366
 20
73.43460676731372
 10
262.7745340386622
 20
501.51829862855544
 10
257.24760774935487
 20
499.1831143119405
  0
LWPOLYLINE
  5
CC
330
17
100
AcDbEntity
  8
POCKET-KERF-15.5
100
AcDbPolyline
 90
4
 70
1
 10
302.8239271543708
 20
360.4834211655735
 10
308.3054017171455
 20
362.92338768535484
 10
249.2050631338656
 20
495.69447284953026
 10
243.72358857109091
 20
493.2545063297489
  0
LWPOLYLINE
  5
CD
330
17
100
AcDbEntity
  8
POCKET-KERF-15.5
100
AcDbPolyline
 90
4
 70
1
 10
427.34788297286025
 20
66.18055238510826
 10
432.7819195100738
 20
68.72441694758558
 10
235.7489075795353
 20
489.6134067391988
 10
230.3148710423218
 20
487.06954217672137
  0
LWPOLYLINE
  5
CE
330
17
100
AcDbEntity
  8
POCKET-KERF-15.5
100
AcDbPolyline
 90
4
 70
1
 10
281.1375163408959
 20
350.20514032488944
 10
286.5221457434387
 20
352.851981120493
 10
222.4109434265219
 20
483.277303868073
 10
217.02631402397907
 20
480.6304630724694
  0
LWPOLYLINE
  5
CF
330
17
100
AcDbEntity
  8
POCKET-KERF-15.5
100
AcDbPolyline
 90
4
 70
1
 10
416.77334144254775
 20
60.855322467523344
 10
422.1066125047674
 20
63.604180371615804
 10
209.19600389715234
 20
476.68846022326954
 10
203.8627328349328
 20
473.9396023191772
  0
LWPOLYLINE
  5
D0
330
17
100
AcDbEntity
  8
POCKET-KERF-15.5
100
AcDbPolyline
 90
4
 70
1
 10
259.8580451422403
 20
339.108853715561
 10
265.13802526899104
 20
341.9587326359919
 10
196.10887763383462
 20
469.8492633765235
 10
190.8288975070839
 20
466.99938445609257
  0
LWPOLYLINE
  5
D1
330
17
100
AcDbEntity
  8
POCKET-KERF-15.5
100
AcDbPolyline
 90
4
 70
1
 10
406.40915818894035
 20
55.13145072393183
 10
411.6339340958904
 20
58.081317961987445
 10
183.15430696381821
 20
462.7621916190132
 10
177.92953105686814
 20
459.8123243809575
  0
LWPOLYLINE
  5
D2
330
17
100
AcDbEntity
  8
POCKET-KERF-15.5
100
AcDbPolyline
 90
4
 70
1
 10
239.01635457639827
 20
327.21064354056165
 10
244.18403298333817
 20
330.25943016517925
 10
170.33698618073498
 20
455.42981306331217
 10
165.16930777379508
 20
452.38102643869456
  0
LWPOLYLINE
  5
D3
330
17
100
AcDbEntity
  8
POCKET-KERF-15.5
100
AcDbPolyline
 90
4
 70
1
 10
396.27035435420976
 20
49.017232944665444
 10
401.3790626711125
 20
52.1638341797777
 10
157.66155984355012
 20
447.8547847127935
 10
152.55285152664752
 20
444.70818347768125
  0
LWPOLYLINE
  5
D4
330
17
100
AcDbEntity
  8
POCKET-KERF-15.5
100
AcDbPolyline
 90
4
 70
1
 10
218.642651171895
 20
314.52775425632916
 10
223.69053817747846
 20
317.7710298811971
 10
145.13262109353124
 20
440.0398514988226
 10
140.0847340879478
 20
436.7965758739547
  0
LWPOLYLINE
  5
D5
330
17
100
AcDbEntity
  8
POCKET-KERF-15.5
100
AcDbPolyline
 90
4
 70
1
 10
386.37162443093007
 20
42.52153066104682
 10
391.3568609434767
 20
45.86030542343672
 10
132.75470998985054
 20
431.9878452860867
 10
127.7694734773039
 20
428.6490705236968
  0
LWPOLYLINE
  5
D6
330
17
100
AcDbEntity
  8
POCKET-KERF-15.5
100
AcDbPolyline
 90
4
 70
1
 10
198.76646318849953
 20
301.0785675798234
 10
203.68724272868917
 20
304.5116316218785
 10
120.53231186442373
 20
423.70168384642574
 10
115.61153232423409
 20
420.26861980437064
  0
LWPOLYLINE
  5
D7
330
17
100
AcDbEntity
  8
POCKET-KERF-15.5
100
AcDbPolyline
 90
4
 70
1
 10
376.727314964879
 20
35.65375830208776
 10
381.58185441039495
 20
39.17986759873886
 10
108.46985569657866
 20
415.1843698015301
 10
103.61531625106264
 20
411.65826050487897
  0
LWPOLYLINE
  5
D8
330
17
100
AcDbEntity
  8
POCKET-KERF-15.5
100
AcDbPolyline
 90
4
 70
1
 10
179.41659782097383
 20
286.88257584731645
 10
184.20313805264595
 20
290.5004526570744
 10
96.57171250814422
 20
406.43898953489384
 10
91.7851722764721
 20
402.8211127251359
  0
LWPOLYLINE
  5
D9
330
17
100
AcDbEntity
  8
POCKET-KERF-15.5
100
AcDbPolyline
 90
4
 70
1
 10
367.35140376213127
 20
28.423869549857073
 10
372.06821030138
 20
32.13220287782261
 10
84.84219377954174
 20
397.46871207341485
 10
80.125387240293
 20
393.76037874544943
  0
LWPOLYLINE
  5
DA
330
17
100
AcDbEntity
  8
POCKET-KERF-15.5
100
AcDbPolyline
 90
4
 70
1
 10
160.62109944788426
 20
271.9603537635264
 10
165.2664630852371
 20
275.75779983644964
 10
73.28554988745151
 20
388.2767879390472
 10
68.64018625009868
 20
384.4793418661239
  0
LWPOLYLINE
  5
DB
330
17
100
AcDbEntity
  8
POCKET-KERF-15.5
100
AcDbPolyline
 90
4
 70
1
 10
358.25747963057637
 20
20.842342913290427
 10
362.82971704502637
 20
24.727525666508573
 10
61.905968564622135
 20
378.86654797092336
 10
57.333731150172135
 20
374.98136521770533
  0
LWPOLYLINE
  5
DC
330
17
100
AcDbEntity
  8
POCKET-KERF-15.5
100
AcDbPolyline
 90
4
 70
1
 10
142.40720898598653
 20
256.33352858203955
 10
146.90466335497052
 20
260.3050401581156
 10
50.707573382379145
 20
369.241402118373
 10
46.21011901339515
 20
365.2698905422968
  0
LWPOLYLINE
  5
DD
330
17
100
AcDbEntity
  8
POCKET-KERF-15.5
100
AcDbPolyline
 90
4
 70
1
 10
349.45872268522595
 20
12.920166541352627
 10
353.8797642850005
 20
16.976567800235056
 10
39.69442225638276
 20
359.4048382052717
 10
35.27338065660823
 20
355.3484369463892
  0
LWPOLYLINE
  5
DE
330
17
100
AcDbEntity
  8
POCKET-KERF-15.5
100
AcDbPolyline
 90
4
 70
1
 10
124.80132440909426
 20
240.02474876024036
 10
129.14435120529174
 20
244.16456980075776
 10
28.87050597617955
 20
349.3604206661752
 10
24.527479179982187
 20
345.22059962565766
  0
LWPOLYLINE
  5
DF
330
17
100
AcDbEntity
  8
POCKET-KERF-15.5
100
AcDbPolyline
 90
4
 70
1
 10
340.9678852458504
 20
4.6688222975615785
 10
345.23132347400144
 20
8.890562990065181
 10
18.239746759075715
 20
339.11178925468795
 10
13.976308530924697
 20
334.8900485621844
  0
ENDSEC
  0
SECTION
  2
OBJECTS
  0
DICTIONARY
  5
A
330
0
100
AcDbDictionary
281
1
  3
ACAD_COLOR
350
B
  3
ACAD_GROUP
350
C
  3
ACAD_LAYOUT
350
D
  3
ACAD_MATERIAL
350
E
  3
ACAD_MLEADERSTYLE
350
F
  3
ACAD_MLINESTYLE
350
10
  3
ACAD_PLOTSETTINGS
350
11
  3
ACAD_PLOTSTYLENAME
350
12
  3
ACAD_SCALELIST
350
14
  3
ACAD_TABLESTYLE
350
15
  3
ACAD_VISUALSTYLE
350
16
  3
EZDXF_META
350
2D
  0
DICTIONARY
  5
B
330
A
100
AcDbDictionary
281
1
  0
DICTIONARY
  5
C
330
A
100
AcDbDictionary
281
1
  0
DICTIONARY
  5
D
330
A
100
AcDbDictionary
281
1
  3
Model
350
1A
  3
Layout1
350
1E
  0
DICTIONARY
  5
E
330
A
100
AcDbDictionary
281
1
  3
ByBlock
350
1F
  3
ByLayer
350
20
  3
Global
350
21
  0
DICTIONARY
  5
F
330
A
100
AcDbDictionary
281
1
  3
Standard
350
2C
  0
DICTIONARY
  5
10
330
A
100
AcDbDictionary
281
1
  3
Standard
350
22
  0
DICTIONARY
  5
11
330
A
100
AcDbDictionary
281
1
  0
ACDBDICTIONARYWDFLT
  5
12
330
A
100
AcDbDictionary
281
1
  3
Normal
350
13
100
AcDbDictionaryWithDefault
340
13
  0
ACDBPLACEHOLDER
  5
13
330
12
  0
DICTIONARY
  5
14
330
A
100
AcDbDictionary
281
1
  0
DICTIONARY
  5
15
330
A
100
AcDbDictionary
281
1
  0
DICTIONARY
  5
16
330
A
100
AcDbDictionary
281
1
  3
2dWireframe
350
5A
  3
Basic
350
5B
  3
Brighten
350
5C
  3
ColorChange
350
5D
  3
Conceptual
350
5E
  3
Dim
350
5F
  3
EdgeColorOff
350
60
  3
Facepattern
350
61
  3
Flat
350
62
  3
FlatWithEdges
350
63
  3
Gouraud
350
64
  3
GouraudWithEdges
350
65
  3
Hidden
350
66
  3
JitterOff
350
67
  3
Linepattern
350
68
  3
Modeling
350
69
  3
OverhangOff
350
6A
  3
Realistic
350
6B
  3
Shaded
350
6C
  3
Shaded with edges
350
6D
  3
Shades of Gray
350
6E
  3
Sketchy
350
6F
  3
Thicken
350
70
  3
Wireframe
350
71
  3
X-Ray
350
72
  0
LAYOUT
  5
1A
330
D
100
AcDbPlotSettings
  1

  4
A3
  6

 40
7.5
 41
20.0
 42
7.5
 43
20.0
 44
420.0
 45
297.0
 46
0.0
 47
0.0
 48
0.0
 49
0.0
140
0.0
141
0.0
142
1.0
143
1.0
 70
1024
 72
1
 73
0
 74
5
  7

 75
16
 76
0
 77
2
 78
300
147
1.0
148
0.0
149
0.0
100
AcDbLayout
  1
Model
 70
1
 71
0
 10
0.0
 20
0.0
 11
420.0
 21
297.0
 12
0.0
 22
0.0
 32
0.0
 14
1e+20
 24
1e+20
 34
1e+20
 15
-1e+20
 25
-1e+20
 35
-1e+20
146
0.0
 13
0.0
 23
0.0
 33
0.0
 16
1.0
 26
0.0
 36
0.0
 17
0.0
 27
1.0
 37
0.0
 76
1
330
17
  0
LAYOUT
  5
1E
330
D
100
AcDbPlotSettings
  1

  4
A3
  6

 40
7.5
 41
20.0
 42
7.5
 43
20.0
 44
420.0
 45
297.0
 46
0.0
 47
0.0
 48
0.0
 49
0.0
140
0.0
141
0.0
142
1.0
143
1.0
 70
0
 72
1
 73
0
 74
5
  7

 75
16
 76
0
 77
2
 78
300
147
1.0
148
0.0
149
0.0
100
AcDbLayout
  1
Layout1
 70
1
 71
1
 10
0.0
 20
0.0
 11
420.0
 21
297.0
 12
0.0
 22
0.0
 32
0.0
 14
1e+20
 24
1e+20
 34
1e+20
 15
-1e+20
 25
-1e+20
 35
-1e+20
146
0.0
 13
0.0
 23
0.0
 33
0.0
 16
1.0
 26
0.0
 36
0.0
 17
0.0
 27
1.0
 37
0.0
 76
1
330
1B
  0
MATERIAL
  5
1F
102
{ACAD_REACTORS
330
E
102
}
330
E
100
AcDbMaterial
  1
ByBlock
  2

 70
0
 40
1.0
 71
1
 41
1.0
 91
-1023410177
 42
1.0
 72
1
  3

 73
1
 74
1
 75
1
 44
0.5
 73
0
 45
1.0
 46
1.0
 77
1
  4

 78
1
 79
1
170
1
 48
1.0
171
1
  6

172
1
173
1
174
1
140
1.0
141
1.0
175
1
  7

176
1
177
1
178
1
143
1.0
179
1
  8

270
1
271
1
272
1
145
1.0
146
1.0
273
1
  9

274
1
275
1
276
1
 42
1.0
 72
1
  3

 73
1
 74
1
 75
1
 94
63
  0
MATERIAL
  5
20
102
{ACAD_REACTORS
330
E
102
}
330
E
100
AcDbMaterial
  1
ByLayer
  2

 70
0
 40
1.0
 71
1
 41
1.0
 91
-1023410177
 42
1.0
 72
1
  3

 73
1
 74
1
 75
1
 44
0.5
 73
0
 45
1.0
 46
1.0
 77
1
  4

 78
1
 79
1
170
1
 48
1.0
171
1
  6

172
1
173
1
174
1
140
1.0
141
1.0
175
1
  7

176
1
177
1
178
1
143
1.0
179
1
  8

270
1
271
1
272
1
145
1.0
146
1.0
273
1
  9

274
1
275
1
276
1
 42
1.0
 72
1
  3

 73
1
 74
1
 75
1
 94
63
  0
MATERIAL
  5
21
102
{ACAD_REACTORS
330
E
102
}
330
E
100
AcDbMaterial
  1
Global
  2

 70
0
 40
1.0
 71
1
 41
1.0
 91
-1023410177
 42
1.0
 72
1
  3

 73
1
 74
1
 75
1
 44
0.5
 73
0
 45
1.0
 46
1.0
 77
1
  4

 78
1
 79
1
170
1
 48
1.0
171
1
  6

172
1
173
1
174
1
140
1.0
141
1.0
175
1
  7

176
1
177
1
178
1
143
1.0
179
1
  8

270
1
271
1
272
1
145
1.0
146
1.0
273
1
  9

274
1
275
1
276
1
 42
1.0
 72
1
  3

 73
1
 74
1
 75
1
 94
63
  0
MLINESTYLE
  5
22
102
{ACAD_REACTORS
330
10
102
}
330
10
100
AcDbMlineStyle
  2
Standard
 70
0
  3

 62
256
 51
90.0
 52
90.0
 71
2
 49
0.5
 62
256
  6
BYLAYER
 49
-0.5
 62
256
  6
BYLAYER
  0
MLEADERSTYLE
  5
2C
102
{ACAD_REACTORS
330
F
102
}
330
F
100
AcDbMLeaderStyle
179
2
170
2
171
1
172
0
 90
2
 40
0.0
 41
0.0
173
1
 91
-1056964608
 92
-2
290
1
 42
2.0
291
1
 43
8.0
  3
Standard
 44
4.0
300

342
29
174
1
175
1
176
0
178
1
 93
-1056964608
 45
4.0
292
0
297
0
 46
4.0
 94
-1056964608
 47
1.0
 49
1.0
140
1.0
294
1
141
0.0
177
0
142
1.0
295
0
296
0
143
3.75
271
0
272
9
273
9
  0
DICTIONARY
  5
2D
330
A
100
AcDbDictionary
280
1
281
1
  3
CREATED_BY_EZDXF
350
2E
  3
WRITTEN_BY_EZDXF
350
E2
  0
DICTIONARYVAR
  5
2E
330
2D
100
DictionaryVariables
280
0
  1
1.4.4 @ 2026-09-27T15:26:32.115358+00:00
  0
VISUALSTYLE
  5
5A
102
{ACAD_REACTORS
330
16
102
}
330
16
100
AcDbVisualStyle
  2
2dWireframe
 70
4
 90
0
 40
0.6
 62
7
290
0
291
0
  0
VISUALSTYLE
  5
5B
102
{ACAD_REACTORS
330
16
102
}
330
16
100
AcDbVisualStyle
  2
Basic
 70
7
 90
1
 40
0.6
 62
7
290
0
291
1
  0
VISUALSTYLE
  5
5C
102
{ACAD_REACTORS
330
16
102
}
330
16
100
AcDbVisualStyle
  2
Brighten
 70
12
 90
2
 40
0.6
 62
7
290
0
291
1
  0
VISUALSTYLE
  5
5D
102
{ACAD_REACTORS
330
16
102
}
330
16
100
AcDbVisualStyle
  2
ColorChange
 70
16
 90
2
 40
0.6
 62
8
290
0
291
1
  0
VISUALSTYLE
  5
5E
102
{ACAD_REACTORS
330
16
102
}
330
16
100
AcDbVisualStyle
  2
Conceptual
 70
9
 90
3
 40
0.6
 62
7
290
0
291
0
  0
VISUALSTYLE
  5
5F
102
{ACAD_REACTORS
330
16
102
}
330
16
100
AcDbVisualStyle
  2
Dim
 70
11
 90
2
 40
0.6
 62
7
290
0
291
1
  0
VISUALSTYLE
  5
60
102
{ACAD_REACTORS
330
16
102
}
330
16
100
AcDbVisualStyle
  2
EdgeColorOff
 70
22
 90
2
 40
0.6
 62
7
290
0
291
1
  0
VISUALSTYLE
  5
61
102
{ACAD_REACTORS
330
16
102
}
330
16
100
AcDbVisualStyle
  2
Facepattern
 70
15
 90
2
 40
0.6
 62
7
290
0
291
1
  0
VISUALSTYLE
  5
62
102
{ACAD_REACTORS
330
16
102
}
330
16
100
AcDbVisualStyle
  2
Flat
 70
0
 90
2
 40
0.6
 62
7
290
0
291
1
  0
VISUALSTYLE
  5
63
102
{ACAD_REACTORS
330
16
102
}
330
16
100
AcDbVisualStyle
  2
FlatWithEdges
 70
1
 90
2
 40
0.6
 62
7
290
0
291
1
  0
VISUALSTYLE
  5
64
102
{ACAD_REACTORS
330
16
102
}
330
16
100
AcDbVisualStyle
  2
Gouraud
 70
2
 90
2
 40
0.6
 62
7
290
0
291
1
  0
VISUALSTYLE
  5
65
102
{ACAD_REACTORS
330
16
102
}
330
16
100
AcDbVisualStyle
  2
GouraudWithEdges
 70
3
 90
2
 40
0.6
 62
7
290
0
291
1
  0
VISUALSTYLE
  5
66
102
{ACAD_REACTORS
330
16
102
}
330
16
100
AcDbVisualStyle
  2
Hidden
 70
6
 90
1
 40
0.6
 62
7
290
0
291
0
  0
VISUALSTYLE
  5
67
102
{ACAD_REACTORS
330
16
102
}
330
16
100
AcDbVisualStyle
  2
JitterOff
 70
20
 90
2
 40
0.6
 62
7
290
0
291
1
  0
VISUALSTYLE
  5
68
102
{ACAD_REACTORS
330
16
102
}
330
16
100
AcDbVisualStyle
  2
Linepattern
 70
14
 90
2
 40
0.6
 62
7
290
0
291
1
  0
VISUALSTYLE
  5
69
102
{ACAD_REACTORS
330
16
102
}
330
16
100
AcDbVisualStyle
  2
Modeling
 70
10
 90
2
 40
0.6
 62
7
290
0
291
0
  0
VISUALSTYLE
  5
6A
102
{ACAD_REACTORS
330
16
102
}
330
16
100
AcDbVisualStyle
  2
OverhangOff
 70
21
 90
2
 40
0.6
 62
7
290
0
291
1
  0
VISUALSTYLE
  5
6B
102
{ACAD_REACTORS
330
16
102
}
330
16
100
AcDbVisualStyle
  2
Realistic
 70
8
 90
2
 40
0.6
 62
7
290
0
291
0
  0
VISUALSTYLE
  5
6C
102
{ACAD_REACTORS
330
16
102
}
330
16
100
AcDbVisualStyle
  2
Shaded
 70
27
 90
2
 40
0.6
 62
7
290
0
291
0
  0
VISUALSTYLE
  5
6D
102
{ACAD_REACTORS
330
16
102
}
330
16
100
AcDbVisualStyle
  2
Shaded with edges
 70
26
 90
2
 40
0.6
 62
7
290
0
291
0
  0
VISUALSTYLE
  5
6E
102
{ACAD_REACTORS
330
16
102
}
330
16
100
AcDbVisualStyle
  2
Shades of Gray
 70
23
 90
2
 40
0.6
 62
7
290
0
291
0
  0
VISUALSTYLE
  5
6F
102
{ACAD_REACTORS
330
16
102
}
330
16
100
AcDbVisualStyle
  2
Sketchy
 70
24
 90
1
 40
0.6
 62
7
290
0
291
0
  0
VISUALSTYLE
  5
70
102
{ACAD_REACTORS
330
16
102
}
330
16
100
AcDbVisualStyle
  2
Thicken
 70
13
 90
2
 40
0.6
 62
7
290
0
291
1
  0
VISUALSTYLE
  5
71
102
{ACAD_REACTORS
330
16
102
}
330
16
100
AcDbVisualStyle
  2
Wireframe
 70
5
 90
0
 40
0.6
 62
7
290
0
291
0
  0
VISUALSTYLE
  5
72
102
{ACAD_REACTORS
330
16
102
}
330
16
100
AcDbVisualStyle
  2
X-Ray
 70
25
 90
2
 40
0.5
 62
7
290
0
291
0
  0
DICTIONARYVAR
  5
E2
330
2D
100
DictionaryVariables
280
0
  1
1.4.4 @ 2026-09-27T15:26:32.151949+00:00
  0
ENDSEC
  0
EOF
