  0
SECTION
  2
HEADER
  9
$ACADVER
  1
AC1024
  9
$ACADMAINTVER
 70
6
  9
$DWGCODEPAGE
  3
ANSI_1252
  9
$LASTSAVEDBY
  1
ezdxf
  9
$INSBASE
 10
0.0
 20
0.0
 30
0.0
  9
$EXTMIN
 10
1e+20
 20
1e+20
 30
1e+20
  9
$EXTMAX
 10
-1e+20
 20
-1e+20
 30
-1e+20
  9
$LIMMIN
 10
0.0
 20
0.0
  9
$LIMMAX
 10
420.0
 20
297.0
  9
$ORTHOMODE
 70
0
  9
$REGENMODE
 70
1
  9
$FILLMODE
 70
1
  9
$QTEXTMODE
 70
0
  9
$MIRRTEXT
 70
1
  9
$LTSCALE
 40
1.0
  9
$ATTMODE
 70
1
  9
$TEXTSIZE
 40
2.5
  9
$TRACEWID
 40
1.0
  9
$TEXTSTYLE
  7
OpenSans
  9
$CLAYER
  8
0
  9
$CELTYPE
  6
ByLayer
  9
$CECOLOR
 62
256
  9
$CELTSCALE
 40
1.0
  9
$DISPSILH
 70
0
  9
$DIMSCALE
 40
1.0
  9
$DIMASZ
 40
0.175
  9
$DIMEXO
 40
0.125
  9
$DIMDLI
 40
3.75
  9
$DIMRND
 40
0.0
  9
$DIMDLE
 40
0.0
  9
$DIMEXE
 40
0.375
  9
$DIMTP
 40
0.0
  9
$DIMTM
 40
0.0
  9
$DIMTXT
 40
0.25
  9
$DIMCEN
 40
2.5
  9
$DIMTSZ
 40
0.0
  9
$DIMTOL
 70
0
  9
$DIMLIM
 70
0
  9
$DIMTIH
 70
0
  9
$DIMTOH
 70
0
  9
$DIMSE1
 70
0
  9
$DIMSE2
 70
0
  9
$DIMTAD
 70
1
  9
$DIMZIN
 70
12
  9
$DIMBLK
  1
ARCHTICK
  9
$DIMASO
 70
1
  9
$DIMSHO
 70
1
  9
$DIMPOST
  1

  9
$DIMAPOST
  1

  9
$DIMALT
 70
0
  9
$DIMALTD
 70
3
  9
$DIMALTF
 40
0.03937007874
  9
$DIMLFAC
 40
100.0
  9
$DIMTOFL
 70
1
  9
$DIMTVP
 40
0.0
  9
$DIMTIX
 70
0
  9
$DIMSOXD
 70
0
  9
$DIMSAH
 70
0
  9
$DIMBLK1
  1

  9
$DIMBLK2
  1

  9
$DIMSTYLE
  2
EZDXF
  9
$DIMCLRD
 70
0
  9
$DIMCLRE
 70
0
  9
$DIMCLRT
 70
0
  9
$DIMTFAC
 40
0.5
  9
$DIMGAP
 40
0.1
  9
$DIMJUST
 70
0
  9
$DIMSD1
 70
0
  9
$DIMSD2
 70
0
  9
$DIMTOLJ
 70
0
  9
$DIMTZIN
 70
8
  9
$DIMALTZ
 70
0
  9
$DIMALTTZ
 70
0
  9
$DIMUPT
 70
1
  9
$DIMDEC
 70
2
  9
$DIMTDEC
 70
2
  9
$DIMALTU
 70
2
  9
$DIMALTTD
 70
3
  9
$DIMTXSTY
  7
OpenSansCondensed-Light
  9
$DIMAUNIT
 70
0
  9
$DIMADEC
 70
2
  9
$DIMALTRND
 40
0.0
  9
$DIMAZIN
 70
3
  9
$DIMDSEP
 70
46
  9
$DIMATFIT
 70
3
  9
$DIMFRAC
 70
0
  9
$DIMLDRBLK
  1

  9
$DIMLUNIT
 70
2
  9
$DIMLWD
 70
-2
  9
$DIMLWE
 70
-2
  9
$DIMTMOVE
 70
2
  9
$DIMFXL
 40
1.0
  9
$DIMFXLON
 70
0
  9
$DIMJOGANG
 40
0.785398163397
  9
$DIMTFILL
 70
0
  9
$DIMTFILLCLR
 70
0
  9
$DIMARCSYM
 70
0
  9
$DIMLTYPE
  6

  9
$DIMLTEX1
  6

  9
$DIMLTEX2
  6

  9
$DIMTXTDIRECTION
 70
0
  9
$LUNITS
 70
2
  9
$LUPREC
 70
4
  9
$SKETCHINC
 40
1.0
  9
$FILLETRAD
 40
10.0
  9
$AUNITS
 70
0
  9
$AUPREC
 70
2
  9
$MENU
  1
.
  9
$ELEVATION
 40
0.0
  9
$PELEVATION
 40
0.0
  9
$THICKNESS
 40
0.0
  9
$LIMCHECK
 70
0
  9
$CHAMFERA
 40
0.0
  9
$CHAMFERB
 40
0.0
  9
$CHAMFERC
 40
0.0
  9
$CHAMFERD
 40
0.0
  9
$SKPOLY
 70
0
  9
$TDCREATE
 40
2461311.406238426
  9
$TDUCREATE
 40
2458532.153996898
  9
$TDUPDATE
 40
2461311.406238426
  9
$TDUUPDATE
 40
2458532.1544311
  9
$TDINDWG
 40
0.0
  9
$TDUSRTIMER
 40
0.0
  9
$USRTIMER
 70
1
  9
$ANGBASE
 50
0.0
  9
$ANGDIR
 70
0
  9
$PDMODE
 70
0
  9
$PDSIZE
 40
0.0
  9
$PLINEWID
 40
0.0
  9
$SPLFRAME
 70
0
  9
$SPLINETYPE
 70
6
  9
$SPLINESEGS
 70
8
  9
$HANDSEED
  5
124
  9
$SURFTAB1
 70
6
  9
$SURFTAB2
 70
6
  9
$SURFTYPE
 70
6
  9
$SURFU
 70
6
  9
$SURFV
 70
6
  9
$UCSBASE
  2

  9
$UCSNAME
  2

  9
$UCSORG
 10
0.0
 20
0.0
 30
0.0
  9
$UCSXDIR
 10
1.0
 20
0.0
 30
0.0
  9
$UCSYDIR
 10
0.0
 20
1.0
 30
0.0
  9
$UCSORTHOREF
  2

  9
$UCSORTHOVIEW
 70
0
  9
$UCSORGTOP
 10
0.0
 20
0.0
 30
0.0
  9
$UCSORGBOTTOM
 10
0.0
 20
0.0
 30
0.0
  9
$UCSORGLEFT
 10
0.0
 20
0.0
 30
0.0
  9
$UCSORGRIGHT
 10
0.0
 20
0.0
 30
0.0
  9
$UCSORGFRONT
 10
0.0
 20
0.0
 30
0.0
  9
$UCSORGBACK
 10
0.0
 20
0.0
 30
0.0
  9
$PUCSBASE
  2

  9
$PUCSNAME
  2

  9
$PUCSORG
 10
0.0
 20
0.0
 30
0.0
  9
$PUCSXDIR
 10
1.0
 20
0.0
 30
0.0
  9
$PUCSYDIR
 10
0.0
 20
1.0
 30
0.0
  9
$PUCSORTHOREF
  2

  9
$PUCSORTHOVIEW
 70
0
  9
$PUCSORGTOP
 10
0.0
 20
0.0
 30
0.0
  9
$PUCSORGBOTTOM
 10
0.0
 20
0.0
 30
0.0
  9
$PUCSORGLEFT
 10
0.0
 20
0.0
 30
0.0
  9
$PUCSORGRIGHT
 10
0.0
 20
0.0
 30
0.0
  9
$PUCSORGFRONT
 10
0.0
 20
0.0
 30
0.0
  9
$PUCSORGBACK
 10
0.0
 20
0.0
 30
0.0
  9
$USERI1
 70
0
  9
$USERI2
 70
0
  9
$USERI3
 70
0
  9
$USERI4
 70
0
  9
$USERI5
 70
0
  9
$USERR1
 40
0.0
  9
$USERR2
 40
0.0
  9
$USERR3
 40
0.0
  9
$USERR4
 40
0.0
  9
$USERR5
 40
0.0
  9
$WORLDVIEW
 70
1
  9
$SHADEDGE
 70
3
  9
$SHADEDIF
 70
70
  9
$TILEMODE
 70
1
  9
$MAXACTVP
 70
64
  9
$PINSBASE
 10
0.0
 20
0.0
 30
0.0
  9
$PLIMCHECK
 70
0
  9
$PEXTMIN
 10
1e+20
 20
1e+20
 30
1e+20
  9
$PEXTMAX
 10
-1e+20
 20
-1e+20
 30
-1e+20
  9
$PLIMMIN
 10
0.0
 20
0.0
  9
$PLIMMAX
 10
420.0
 20
297.0
  9
$UNITMODE
 70
0
  9
$VISRETAIN
 70
1
  9
$PLINEGEN
 70
0
  9
$PSLTSCALE
 70
1
  9
$TREEDEPTH
 70
3020
  9
$CMLSTYLE
  2
Standard
  9
$CMLJUST
 70
0
  9
$CMLSCALE
 40
20.0
  9
$PROXYGRAPHICS
 70
1
  9
$MEASUREMENT
 70
1
  9
$CELWEIGHT
370
-1
  9
$ENDCAPS
280
0
  9
$JOINSTYLE
280
0
  9
$LWDISPLAY
290
0
  9
$INSUNITS
 70
4
  9
$HYPERLINKBASE
  1

  9
$STYLESHEET
  1

  9
$XEDIT
290
1
  9
$CEPSNTYPE
380
0
  9
$PSTYLEMODE
290
1
  9
$FINGERPRINTGUID
  2
{99BF181F-0B59-4F7E-8CD8-C54FFEC5D0AC}
  9
$VERSIONGUID
  2
{673C5948-3352-44A4-8DE4-6E1C6EF413A0}
  9
$EXTNAMES
290
1
  9
$PSVPSCALE
 40
0.0
  9
$OLESTARTUP
290
0
  9
$SORTENTS
280
127
  9
$INDEXCTL
280
0
  9
$HIDETEXT
280
1
  9
$XCLIPFRAME
280
1
  9
$HALOGAP
280
0
  9
$OBSCOLOR
 70
257
  9
$OBSLTYPE
280
0
  9
$INTERSECTIONDISPLAY
280
0
  9
$INTERSECTIONCOLOR
 70
257
  9
$DIMASSOC
280
2
  9
$PROJECTNAME
  1

  9
$CAMERADISPLAY
290
0
  9
$LENSLENGTH
 40
50.0
  9
$CAMERAHEIGHT
 40
0.0
  9
$STEPSPERSEC
 40
24.0
  9
$STEPSIZE
 40
100.0
  9
$3DDWFPREC
 40
2.0
  9
$PSOLWIDTH
 40
0.005
  9
$PSOLHEIGHT
 40
0.08
  9
$LOFTANG1
 40
1.570796326795
  9
$LOFTANG2
 40
1.570796326795
  9
$LOFTMAG1
 40
0.0
  9
$LOFTMAG2
 40
0.0
  9
$LOFTPARAM
 70
7
  9
$LOFTNORMALS
280
1
  9
$LATITUDE
 40
37.795
  9
$LONGITUDE
 40
-122.394
  9
$NORTHDIRECTION
 40
0.0
  9
$TIMEZONE
 70
-8000
  9
$LIGHTGLYPHDISPLAY
280
1
  9
$TILEMODELIGHTSYNCH
280
1
  9
$CMATERIAL
347
20
  9
$SOLIDHIST
280
0
  9
$SHOWHIST
280
1
  9
$DWFFRAME
280
2
  9
$DGNFRAME
280
2
  9
$REALWORLDSCALE
290
1
  9
$INTERFERECOLOR
 62
256
  9
$CSHADOW
280
0
  9
$SHADOWPLANELOCATION
 40
0.0
  0
ENDSEC
  0
SECTION
  2
CLASSES
  0
CLASS
  1
ACDBDICTIONARYWDFLT
  2
AcDbDictionaryWithDefault
  3
ObjectDBX Classes
 90
0
 91
0
280
0
281
0
  0
CLASS
  1
SUN
  2
AcDbSun
  3
SCENEOE
 90
1153
 91
0
280
0
281
0
  0
CLASS
  1
VISUALSTYLE
  2
AcDbVisualStyle
  3
ObjectDBX Classes
 90
4095
 91
0
280
0
281
0
  0
CLASS
  1
MATERIAL
  2
AcDbMaterial
  3
ObjectDBX Classes
 90
1153
 91
0
280
0
281
0
  0
CLASS
  1
SCALE
  2
AcDbScale
  3
ObjectDBX Classes
 90
1153
 91
0
280
0
281
0
  0
CLASS
  1
TABLESTYLE
  2
AcDbTableStyle
  3
ObjectDBX Classes
 90
4095
 91
0
280
0
281
0
  0
CLASS
  1
MLEADERSTYLE
  2
AcDbMLeaderStyle
  3
ACDB_MLEADERSTYLE_CLASS
 90
4095
 91
0
280
0
281
0
  0
CLASS
  1
DICTIONARYVAR
  2
AcDbDictionaryVar
  3
ObjectDBX Classes
 90
0
 91
0
280
0
281
0
  0
CLASS
  1
CELLSTYLEMAP
  2
AcDbCellStyleMap
  3
ObjectDBX Classes
 90
1152
 91
0
280
0
281
0
  0
CLASS
  1
MENTALRAYRENDERSETTINGS
  2
AcDbMentalRayRenderSettings
  3
SCENEOE
 90
1024
 91
0
280
0
281
0
  0
CLASS
  1
ACDBDETAILVIEWSTYLE
  2
AcDbDetailViewStyle
  3
ObjectDBX Classes
 90
1025
 91
0
280
0
281
0
  0
CLASS
  1
ACDBSECTIONVIEWSTYLE
  2
AcDbSectionViewStyle
  3
ObjectDBX Classes
 90
1025
 91
0
280
0
281
0
  0
CLASS
  1
RASTERVARIABLES
  2
AcDbRasterVariables
  3
ISM
 90
0
 91
0
280
0
281
0
  0
CLASS
  1
ACDBPLACEHOLDER
  2
AcDbPlaceHolder
  3
ObjectDBX Classes
 90
0
 91
0
280
0
281
0
  0
CLASS
  1
LAYOUT
  2
AcDbLayout
  3
ObjectDBX Classes
 90
0
 91
0
280
0
281
0
  0
ENDSEC
  0
SECTION
  2
TABLES
  0
TABLE
  2
VPORT
  5
8
330
0
100
AcDbSymbolTable
 70
1
  0
VPORT
  5
23
330
8
100
AcDbSymbolTableRecord
100
AcDbViewportTableRecord
  2
*Active
 70
0
 10
0.0
 20
0.0
 11
1.0
 21
1.0
 12
0.0
 22
0.0
 13
0.0
 23
0.0
 14
0.5
 24
0.5
 15
0.5
 25
0.5
 16
0.0
 26
0.0
 36
1.0
 17
0.0
 27
0.0
 37
0.0
 40
1000.0
 41
1.34
 42
50.0
 43
0.0
 44
0.0
 50
0.0
 51
0.0
 71
0
 72
1000
 73
1
 74
3
 75
0
 76
0
 77
0
 78
0
281
0
 65
0
146
0.0
  0
ENDTAB
  0
TABLE
  2
LTYPE
  5
2
330
0
100
AcDbSymbolTable
 70
21
  0
LTYPE
  5
24
330
2
100
AcDbSymbolTableRecord
100
AcDbLinetypeTableRecord
  2
ByBlock
 70
0
  3

 72
65
 73
0
 40
0.0
  0
LTYPE
  5
25
330
2
100
AcDbSymbolTableRecord
100
AcDbLinetypeTableRecord
  2
ByLayer
 70
0
  3

 72
65
 73
0
 40
0.0
  0
LTYPE
  5
26
330
2
100
AcDbSymbolTableRecord
100
AcDbLinetypeTableRecord
  2
Continuous
 70
0
  3

 72
65
 73
0
 40
0.0
  0
LTYPE
  5
2F
330
2
100
AcDbSymbolTableRecord
100
AcDbLinetypeTableRecord
  2
CENTER
 70
0
  3
Center ____ _ ____ _ ____ _ ____ _ ____ _ ____
 72
65
 73
4
 40
5.08
 49
3.175
 74
0
 49
-0.635
 74
0
 49
0.635
 74
0
 49
-0.635
 74
0
  0
LTYPE
  5
30
330
2
100
AcDbSymbolTableRecord
100
AcDbLinetypeTableRecord
  2
CENTERX2
 70
0
  3
Center (2x) ________  __  ________  __  ________
 72
65
 73
4
 40
8.89
 49
6.35
 74
0
 49
-0.635
 74
0
 49
1.27
 74
0
 49
-0.635
 74
0
  0
LTYPE
  5
31
330
2
100
AcDbSymbolTableRecord
100
AcDbLinetypeTableRecord
  2
CENTER2
 70
0
  3
Center (.5x) ____ _ ____ _ ____ _ ____ _ ____
 72
65
 73
4
 40
2.54
 49
1.587
 74
0
 49
-0.318
 74
0
 49
0.318
 74
0
 49
-0.318
 74
0
  0
LTYPE
  5
32
330
2
100
AcDbSymbolTableRecord
100
AcDbLinetypeTableRecord
  2
DASHED
 70
0
  3
Dashed __ __ __ __ __ __ __ __ __ __ __ __ __ _
 72
65
 73
2
 40
1.524
 49
1.27
 74
0
 49
-0.254
 74
0
  0
LTYPE
  5
33
330
2
100
AcDbSymbolTableRecord
100
AcDbLinetypeTableRecord
  2
DASHEDX2
 70
0
  3
Dashed (2x) ____  ____  ____  ____  ____  ____
 72
65
 73
2
 40
3.048
 49
2.54
 74
0
 49
-0.508
 74
0
  0
LTYPE
  5
34
330
2
100
AcDbSymbolTableRecord
100
AcDbLinetypeTableRecord
  2
DASHED2
 70
0
  3
Dashed (.5x) _ _ _ _ _ _ _ _ _ _ _ _ _ _
 72
65
 73
2
 40
0.762
 49
0.635
 74
0
 49
-0.127
 74
0
  0
LTYPE
  5
35
330
2
100
AcDbSymbolTableRecord
100
AcDbLinetypeTableRecord
  2
PHANTOM
 70
0
  3
Phantom ______  __  __  ______  __  __  ______
 72
65
 73
6
 40
6.35
 49
3.175
 74
0
 49
-0.635
 74
0
 49
0.635
 74
0
 49
-0.635
 74
0
 49
0.635
 74
0
 49
-0.635
 74
0
  0
LTYPE
  5
36
330
2
100
AcDbSymbolTableRecord
100
AcDbLinetypeTableRecord
  2
PHANTOMX2
 70
0
  3
Phantom (2x)____________    ____    ____    ____________
 72
65
 73
6
 40
10.795
 49
6.35
 74
0
 49
-0.635
 74
0
 49
1.27
 74
0
 49
-0.635
 74
0
 49
1.27
 74
0
 49
-0.635
 74
0
  0
LTYPE
  5
37
330
2
100
AcDbSymbolTableRecord
100
AcDbLinetypeTableRecord
  2
PHANTOM2
 70
0
  3
Phantom (.5x) ___ _ _ ___ _ _ ___ _ _ ___ _ _ ___
 72
65
 73
6
 40
3.175
 49
1.587
 74
0
 49
-0.318
 74
0
 49
0.318
 74
0
 49
-0.318
 74
0
 49
0.318
 74
0
 49
-0.318
 74
0
  0
LTYPE
  5
38
330
2
100
AcDbSymbolTableRecord
100
AcDbLinetypeTableRecord
  2
DASHDOT
 70
0
  3
Dash dot __ . __ . __ . __ . __ . __ . __ . __
 72
65
 73
4
 40
3.556
 49
2.54
 74
0
 49
-0.508
 74
0
 49
0.0
 74
0
 49
-0.508
 74
0
  0
LTYPE
  5
39
330
2
100
AcDbSymbolTableRecord
100
AcDbLinetypeTableRecord
  2
DASHDOTX2
 70
0
  3
Dash dot (2x) ____  .  ____  .  ____  .  ____
 72
65
 73
4
 40
6.096
 49
5.08
 74
0
 49
-0.508
 74
0
 49
0.0
 74
0
 49
-0.508
 74
0
  0
LTYPE
  5
3A
330
2
100
AcDbSymbolTableRecord
100
AcDbLinetypeTableRecord
  2
DASHDOT2
 70
0
  3
Dash dot (.5x) _ . _ . _ . _ . _ . _ . _ . _
 72
65
 73
4
 40
1.778
 49
1.27
 74
0
 49
-0.254
 74
0
 49
0.0
 74
0
 49
-0.254
 74
0
  0
LTYPE
  5
3B
330
2
100
AcDbSymbolTableRecord
100
AcDbLinetypeTableRecord
  2
DOT
 70
0
  3
Dot .  .  .  .  .  .  .  .  .  .  .  .  .  .  .  .
 72
65
 73
2
 40
0.508
 49
0.0
 74
0
 49
-0.508
 74
0
  0
LTYPE
  5
3C
330
2
100
AcDbSymbolTableRecord
100
AcDbLinetypeTableRecord
  2
DOTX2
 70
0
  3
Dot (2x) .    .    .    .    .    .    .    . 
 72
65
 73
2
 40
1.016
 49
0.0
 74
0
 49
-1.016
 74
0
  0
LTYPE
  5
3D
330
2
100
AcDbSymbolTableRecord
100
AcDbLinetypeTableRecord
  2
DOT2
 70
0
  3
Dot (.5) . . . . . . . . . . . . . . . . . . . 
 72
65
 73
2
 40
0.254
 49
0.0
 74
0
 49
-0.254
 74
0
  0
LTYPE
  5
3E
330
2
100
AcDbSymbolTableRecord
100
AcDbLinetypeTableRecord
  2
DIVIDE
 70
0
  3
Divide __ . . __ . . __ . . __ . . __ . . __
 72
65
 73
6
 40
4.064
 49
2.54
 74
0
 49
-0.508
 74
0
 49
0.0
 74
0
 49
-0.508
 74
0
 49
0.0
 74
0
 49
-0.508
 74
0
  0
LTYPE
  5
3F
330
2
100
AcDbSymbolTableRecord
100
AcDbLinetypeTableRecord
  2
DIVIDEX2
 70
0
  3
Divide (2x) ____  . .  ____  . .  ____  . .  ____
 72
65
 73
6
 40
6.604
 49
5.08
 74
0
 49
-0.508
 74
0
 49
0.0
 74
0
 49
-0.508
 74
0
 49
0.0
 74
0
 49
-0.508
 74
0
  0
LTYPE
  5
40
330
2
100
AcDbSymbolTableRecord
100
AcDbLinetypeTableRecord
  2
DIVIDE2
 70
0
  3
Divide(.5x) _ . _ . _ . _ . _ . _ . _ . _
 72
65
 73
6
 40
2.032
 49
1.27
 74
0
 49
-0.254
 74
0
 49
0.0
 74
0
 49
-0.254
 74
0
 49
0.0
 74
0
 49
-0.254
 74
0
  0
ENDTAB
  0
TABLE
  2
LAYER
  5
1
330
0
100
AcDbSymbolTable
 70
5
  0
LAYER
  5
27
330
1
100
AcDbSymbolTableRecord
100
AcDbLayerTableRecord
  2
0
 70
0
 62
7
  6
Continuous
370
-3
390
13
347
21
  0
LAYER
  5
28
330
1
100
AcDbSymbolTableRecord
100
AcDbLayerTableRecord
  2
Defpoints
 70
0
 62
7
  6
Continuous
290
0
370
-3
390
13
347
21
  0
LAYER
  5
8A
330
1
100
AcDbSymbolTableRecord
100
AcDbLayerTableRecord
  2
CUT
 70
0
 62
1
  6
Continuous
370
-3
390
13
347
21
  0
LAYER
  5
8B
330
1
100
AcDbSymbolTableRecord
100
AcDbLayerTableRecord
  2
ENGRAVE-LABEL
 70
0
 62
3
  6
Continuous
370
-3
390
13
347
21
  0
LAYER
  5
8C
330
1
100
AcDbSymbolTableRecord
100
AcDbLayerTableRecord
  2
REFERENCE-SHEET
 70
0
 62
8
  6
Continuous
370
-3
390
13
347
21
  0
ENDTAB
  0
TABLE
  2
STYLE
  5
5
330
0
100
AcDbSymbolTable
 70
26
  0
STYLE
  5
29
330
5
100
AcDbSymbolTableRecord
100
AcDbTextStyleTableRecord
  2
Standard
 70
0
 40
0.0
 41
1.0
 50
0.0
 71
0
 42
2.5
  3
txt
  4

  0
STYLE
  5
41
330
5
100
AcDbSymbolTableRecord
100
AcDbTextStyleTableRecord
  2
OpenSans-Light
 70
0
 40
0.0
 41
1.0
 50
0.0
 71
0
 42
2.5
  3
OpenSans-Light.ttf
  4

  0
STYLE
  5
42
330
5
100
AcDbSymbolTableRecord
100
AcDbTextStyleTableRecord
  2
OpenSans-Light-Italic
 70
0
 40
0.0
 41
1.0
 50
0.0
 71
0
 42
2.5
  3
OpenSans-LightItalic.ttf
  4

  0
STYLE
  5
43
330
5
100
AcDbSymbolTableRecord
100
AcDbTextStyleTableRecord
  2
OpenSans
 70
0
 40
0.0
 41
1.0
 50
0.0
 71
0
 42
2.5
  3
OpenSans-Regular.ttf
  4

  0
STYLE
  5
44
330
5
100
AcDbSymbolTableRecord
100
AcDbTextStyleTableRecord
  2
OpenSans-Italic
 70
0
 40
0.0
 41
1.0
 50
0.0
 71
0
 42
2.5
  3
OpenSans-Italic.ttf
  4

  0
STYLE
  5
45
330
5
100
AcDbSymbolTableRecord
100
AcDbTextStyleTableRecord
  2
OpenSans-SemiBold
 70
0
 40
0.0
 41
1.0
 50
0.0
 71
0
 42
2.5
  3
OpenSans-SemiBold.ttf
  4

  0
STYLE
  5
46
330
5
100
AcDbSymbolTableRecord
100
AcDbTextStyleTableRecord
  2
OpenSans-SemiBoldItalic
 70
0
 40
0.0
 41
1.0
 50
0.0
 71
0
 42
2.5
  3
OpenSans-SemiBoldItalic.ttf
  4

  0
STYLE
  5
47
330
5
100
AcDbSymbolTableRecord
100
AcDbTextStyleTableRecord
  2
OpenSans-Bold
 70
0
 40
0.0
 41
1.0
 50
0.0
 71
0
 42
2.5
  3
OpenSans-Bold.ttf
  4

  0
STYLE
  5
48
330
5
100
AcDbSymbolTableRecord
100
AcDbTextStyleTableRecord
  2
OpenSans-BoldItalic
 70
0
 40
0.0
 41
1.0
 50
0.0
 71
0
 42
2.5
  3
OpenSans-BoldItalic.ttf
  4

  0
STYLE
  5
49
330
5
100
AcDbSymbolTableRecord
100
AcDbTextStyleTableRecord
  2
OpenSans-ExtraBold
 70
0
 40
0.0
 41
1.0
 50
0.0
 71
0
 42
2.5
  3
OpenSans-ExtraBold.ttf
  4

  0
STYLE
  5
4A
330
5
100
AcDbSymbolTableRecord
100
AcDbTextStyleTableRecord
  2
OpenSans-ExtraBoldItalic
 70
0
 40
0.0
 41
1.0
 50
0.0
 71
0
 42
2.5
  3
OpenSans-ExtraBoldItalic.ttf
  4

  0
STYLE
  5
4B
330
5
100
AcDbSymbolTableRecord
100
AcDbTextStyleTableRecord
  2
OpenSansCondensed-Bold
 70
0
 40
0.0
 41
1.0
 50
0.0
 71
0
 42
2.5
  3
OpenSansCondensed-Bold.ttf
  4

  0
STYLE
  5
4C
330
5
100
AcDbSymbolTableRecord
100
AcDbTextStyleTableRecord
  2
OpenSansCondensed-Light
 70
0
 40
0.0
 41
1.0
 50
0.0
 71
0
 42
2.5
  3
OpenSansCondensed-Light.ttf
  4

  0
STYLE
  5
4D
330
5
100
AcDbSymbolTableRecord
100
AcDbTextStyleTableRecord
  2
OpenSansCondensed-Italic
 70
0
 40
0.0
 41
1.0
 50
0.0
 71
0
 42
2.5
  3
OpenSansCondensed-LightItalic.ttf
  4

  0
STYLE
  5
4E
330
5
100
AcDbSymbolTableRecord
100
AcDbTextStyleTableRecord
  2
LiberationSans
 70
0
 40
0.0
 41
1.0
 50
0.0
 71
0
 42
2.5
  3
LiberationSans-Regular.ttf
  4

  0
STYLE
  5
4F
330
5
100
AcDbSymbolTableRecord
100
AcDbTextStyleTableRecord
  2
LiberationSans-Bold
 70
0
 40
0.0
 41
1.0
 50
0.0
 71
0
 42
2.5
  3
LiberationSans-Bold.ttf
  4

  0
STYLE
  5
50
330
5
100
AcDbSymbolTableRecord
100
AcDbTextStyleTableRecord
  2
LiberationSans-BoldItalic
 70
0
 40
0.0
 41
1.0
 50
0.0
 71
0
 42
2.5
  3
LiberationSans-BoldItalic.ttf
  4

  0
STYLE
  5
51
330
5
100
AcDbSymbolTableRecord
100
AcDbTextStyleTableRecord
  2
LiberationSans-Italic
 70
0
 40
0.0
 41
1.0
 50
0.0
 71
0
 42
2.5
  3
LiberationSans-Italic.ttf
  4

  0
STYLE
  5
52
330
5
100
AcDbSymbolTableRecord
100
AcDbTextStyleTableRecord
  2
LiberationSerif
 70
0
 40
0.0
 41
1.0
 50
0.0
 71
0
 42
2.5
  3
LiberationSerif-Regular.ttf
  4

  0
STYLE
  5
53
330
5
100
AcDbSymbolTableRecord
100
AcDbTextStyleTableRecord
  2
LiberationSerif-Bold
 70
0
 40
0.0
 41
1.0
 50
0.0
 71
0
 42
2.5
  3
LiberationSerif-Bold.ttf
  4

  0
STYLE
  5
54
330
5
100
AcDbSymbolTableRecord
100
AcDbTextStyleTableRecord
  2
LiberationSerif-BoldItalic
 70
0
 40
0.0
 41
1.0
 50
0.0
 71
0
 42
2.5
  3
LiberationSerif-BoldItalic.ttf
  4

  0
STYLE
  5
55
330
5
100
AcDbSymbolTableRecord
100
AcDbTextStyleTableRecord
  2
LiberationSerif-Italic
 70
0
 40
0.0
 41
1.0
 50
0.0
 71
0
 42
2.5
  3
LiberationSerif-Italic.ttf
  4

  0
STYLE
  5
56
330
5
100
AcDbSymbolTableRecord
100
AcDbTextStyleTableRecord
  2
LiberationMono
 70
0
 40
0.0
 41
1.0
 50
0.0
 71
0
 42
2.5
  3
LiberationMono-Regular.ttf
  4

  0
STYLE
  5
57
330
5
100
AcDbSymbolTableRecord
100
AcDbTextStyleTableRecord
  2
LiberationMono-Bold
 70
0
 40
0.0
 41
1.0
 50
0.0
 71
0
 42
2.5
  3
LiberationMono-Bold.ttf
  4

  0
STYLE
  5
58
330
5
100
AcDbSymbolTableRecord
100
AcDbTextStyleTableRecord
  2
LiberationMono-BoldItalic
 70
0
 40
0.0
 41
1.0
 50
0.0
 71
0
 42
2.5
  3
LiberationMono-BoldItalic.ttf
  4

  0
STYLE
  5
59
330
5
100
AcDbSymbolTableRecord
100
AcDbTextStyleTableRecord
  2
LiberationMono-Italic
 70
0
 40
0.0
 41
1.0
 50
0.0
 71
0
 42
2.5
  3
LiberationMono-Italic.ttf
  4

  0
ENDTAB
  0
TABLE
  2
VIEW
  5
7
330
0
100
AcDbSymbolTable
 70
0
  0
ENDTAB
  0
TABLE
  2
UCS
  5
6
330
0
100
AcDbSymbolTable
 70
0
  0
ENDTAB
  0
TABLE
  2
APPID
  5
3
330
0
100
AcDbSymbolTable
 70
3
  0
APPID
  5
2A
330
3
100
AcDbSymbolTableRecord
100
AcDbRegAppTableRecord
  2
ACAD
 70
0
  0
APPID
  5
121
330
3
100
AcDbSymbolTableRecord
100
AcDbRegAppTableRecord
  2
HATCHBACKGROUNDCOLOR
 70
0
  0
APPID
  5
122
330
3
100
AcDbSymbolTableRecord
100
AcDbRegAppTableRecord
  2
EZDXF
 70
0
  0
ENDTAB
  0
TABLE
  2
DIMSTYLE
  5
4
330
0
100
AcDbSymbolTable
 70
12
100
AcDbDimStyleTable
  0
DIMSTYLE
105
2B
330
4
100
AcDbSymbolTableRecord
100
AcDbDimStyleTableRecord
  2
Standard
 70
0
 40
1.0
 41
2.5
 42
0.625
 43
3.75
 44
1.25
 45
0.0
 46
0.0
 47
0.0
 48
0.0
 49
2.5
140
2.5
141
2.5
142
0.0
143
0.03937007874
144
1.0
145
0.0
146
1.0
147
0.625
148
0.0
 69
0
 70
0
 71
0
 72
0
 73
0
 74
0
 75
0
 76
0
 77
1
 78
8
 79
3
170
0
171
3
172
1
173
0
174
0
175
0
176
0
177
0
178
0
179
2
271
2
272
2
273
2
274
3
275
0
276
0
277
2
278
44
279
0
280
0
281
0
282
0
283
0
284
8
285
0
286
0
288
0
289
3
290
0
371
-2
372
-2
  0
DIMSTYLE
105
73
330
4
100
AcDbSymbolTableRecord
100
AcDbDimStyleTableRecord
  2
EZDXF
 70
0
 40
1.0
 41
0.175
 42
0.125
 43
3.75
 44
0.375
 45
0.0
 46
0.0
 47
0.0
 48
0.0
 49
2.5
140
0.25
141
2.5
142
0.0
143
0.03937007874
144
100.0
145
0.0
146
0.5
147
0.1
148
0.0
 69
0
 70
0
 71
0
 72
0
 73
0
 74
0
 75
0
 76
0
 77
1
 78
12
 79
3
170
0
171
3
172
1
173
0
174
0
175
0
176
0
177
0
178
0
179
2
271
2
272
2
273
2
274
3
275
0
276
0
277
2
278
46
279
2
280
0
281
0
282
0
283
0
284
8
285
0
286
0
288
1
289
3
290
0
340
4C
342
74
371
-2
372
-2
  0
DIMSTYLE
105
7C
330
4
100
AcDbSymbolTableRecord
100
AcDbDimStyleTableRecord
  2
EZ_M_100_H25_CM
 70
0
 40
1.0
 41
0.25
 42
0.125
 43
3.75
 44
0.375
 45
0.0
 46
0.0
 47
0.0
 48
0.0
 49
2.5
140
0.25
141
2.5
142
0.125
143
0.03937007874
144
100.0
145
0.0
146
0.5
147
0.1
148
0.0
 69
0
 70
0
 71
0
 72
0
 73
0
 74
0
 75
0
 76
0
 77
1
 78
12
 79
3
170
0
171
3
172
1
173
0
174
0
175
0
176
0
177
0
178
0
179
2
271
2
272
2
273
2
274
3
275
0
276
0
277
2
278
46
279
2
280
0
281
0
282
0
283
0
284
8
285
0
286
0
288
1
289
3
290
0
340
4C
371
-2
372
-2
  0
DIMSTYLE
105
7D
330
4
100
AcDbSymbolTableRecord
100
AcDbDimStyleTableRecord
  2
EZ_M_50_H25_CM
 70
0
 40
1.0
 41
0.125
 42
0.0625
 43
3.75
 44
0.1875
 45
0.0
 46
0.0
 47
0.0
 48
0.0
 49
2.5
140
0.125
141
2.5
142
0.0625
143
0.03937007874
144
100.0
145
0.0
146
0.5
147
0.05
148
0.0
 69
0
 70
0
 71
0
 72
0
 73
0
 74
0
 75
0
 76
0
 77
1
 78
12
 79
3
170
0
171
3
172
1
173
0
174
0
175
0
176
0
177
0
178
0
179
2
271
2
272
2
273
2
274
3
275
0
276
0
277
2
278
46
279
2
280
0
281
0
282
0
283
0
284
8
285
0
286
0
288
1
289
3
290
0
340
4C
371
-2
372
-2
  0
DIMSTYLE
105
7E
330
4
100
AcDbSymbolTableRecord
100
AcDbDimStyleTableRecord
  2
EZ_M_25_H25_CM
 70
0
 40
1.0
 41
0.0625
 42
0.03125
 43
3.75
 44
0.09375
 45
0.0
 46
0.0
 47
0.0
 48
0.0
 49
2.5
140
0.0625
141
2.5
142
0.03125
143
0.03937007874
144
100.0
145
0.0
146
0.5
147
0.025
148
0.0
 69
0
 70
0
 71
0
 72
0
 73
0
 74
0
 75
0
 76
0
 77
1
 78
12
 79
3
170
0
171
3
172
1
173
0
174
0
175
0
176
0
177
0
178
0
179
2
271
2
272
2
273
2
274
3
275
0
276
0
277
2
278
46
279
2
280
0
281
0
282
0
283
0
284
8
285
0
286
0
288
1
289
3
290
0
340
4C
371
-2
372
-2
  0
DIMSTYLE
105
7F
330
4
100
AcDbSymbolTableRecord
100
AcDbDimStyleTableRecord
  2
EZ_M_20_H25_CM
 70
0
 40
1.0
 41
0.05
 42
0.025
 43
3.75
 44
0.07500000000000001
 45
0.0
 46
0.0
 47
0.0
 48
0.0
 49
2.5
140
0.05
141
2.5
142
0.025
143
0.03937007874
144
100.0
145
0.0
146
0.5
147
0.020000000000000004
148
0.0
 69
0
 70
0
 71
0
 72
0
 73
0
 74
0
 75
0
 76
0
 77
1
 78
12
 79
3
170
0
171
3
172
1
173
0
174
0
175
0
176
0
177
0
178
0
179
2
271
2
272
2
273
2
274
3
275
0
276
0
277
2
278
46
279
2
280
0
281
0
282
0
283
0
284
8
285
0
286
0
288
1
289
3
290
0
340
4C
371
-2
372
-2
  0
DIMSTYLE
105
80
330
4
100
AcDbSymbolTableRecord
100
AcDbDimStyleTableRecord
  2
EZ_M_10_H25_CM
 70
0
 40
1.0
 41
0.025
 42
0.0125
 43
3.75
 44
0.037500000000000006
 45
0.0
 46
0.0
 47
0.0
 48
0.0
 49
2.5
140
0.025
141
2.5
142
0.0125
143
0.03937007874
144
100.0
145
0.0
146
0.5
147
0.010000000000000002
148
0.0
 69
0
 70
0
 71
0
 72
0
 73
0
 74
0
 75
0
 76
0
 77
1
 78
12
 79
3
170
0
171
3
172
1
173
0
174
0
175
0
176
0
177
0
178
0
179
2
271
2
272
2
273
2
274
3
275
0
276
0
277
2
278
46
279
2
280
0
281
0
282
0
283
0
284
8
285
0
286
0
288
1
289
3
290
0
340
4C
371
-2
372
-2
  0
DIMSTYLE
105
81
330
4
100
AcDbSymbolTableRecord
100
AcDbDimStyleTableRecord
  2
EZ_M_5_H25_CM
 70
0
 40
1.0
 41
0.0125
 42
0.00625
 43
3.75
 44
0.018750000000000003
 45
0.0
 46
0.0
 47
0.0
 48
0.0
 49
2.5
140
0.0125
141
2.5
142
0.00625
143
0.03937007874
144
100.0
145
0.0
146
0.5
147
0.005000000000000001
148
0.0
 69
0
 70
0
 71
0
 72
0
 73
0
 74
0
 75
0
 76
0
 77
1
 78
12
 79
3
170
0
171
3
172
1
173
0
174
0
175
0
176
0
177
0
178
0
179
2
271
2
272
2
273
2
274
3
275
0
276
0
277
2
278
46
279
2
280
0
281
0
282
0
283
0
284
8
285
0
286
0
288
1
289
3
290
0
340
4C
371
-2
372
-2
  0
DIMSTYLE
105
82
330
4
100
AcDbSymbolTableRecord
100
AcDbDimStyleTableRecord
  2
EZ_M_1_H25_CM
 70
0
 40
1.0
 41
0.0025
 42
0.00125
 43
3.75
 44
0.00375
 45
0.0
 46
0.0
 47
0.0
 48
0.0
 49
2.5
140
0.0025
141
2.5
142
0.00125
143
0.03937007874
144
100.0
145
0.0
146
0.5
147
0.001
148
0.0
 69
0
 70
0
 71
0
 72
0
 73
0
 74
0
 75
0
 76
0
 77
1
 78
12
 79
3
170
0
171
3
172
1
173
0
174
0
175
0
176
0
177
0
178
0
179
2
271
2
272
2
273
2
274
3
275
0
276
0
277
2
278
46
279
2
280
0
281
0
282
0
283
0
284
8
285
0
286
0
288
1
289
3
290
0
340
4C
371
-2
372
-2
  0
DIMSTYLE
105
83
330
4
100
AcDbSymbolTableRecord
100
AcDbDimStyleTableRecord
  2
EZ_RADIUS
 70
0
 40
1.0
 41
0.25
 42
0.125
 43
3.75
 44
0.375
 45
0.0
 46
0.0
 47
0.0
 48
0.0
 49
2.5
140
0.25
141
0.0
142
0.0
143
0.03937007874
144
100.0
145
0.0
146
0.5
147
0.1
148
0.0
 69
0
 70
0
 71
0
 72
0
 73
0
 74
0
 75
0
 76
0
 77
1
 78
12
 79
3
170
0
171
3
172
0
173
0
174
0
175
0
176
0
177
0
178
0
179
2
271
2
272
2
273
2
274
3
275
0
276
0
277
2
278
46
279
1
280
0
281
0
282
0
283
0
284
8
285
0
286
0
288
1
289
3
290
0
340
4C
342
84
371
-2
372
-2
  0
DIMSTYLE
105
88
330
4
100
AcDbSymbolTableRecord
100
AcDbDimStyleTableRecord
  2
EZ_RADIUS_INSIDE
 70
0
 40
1.0
 41
0.25
 42
0.125
 43
3.75
 44
0.375
 45
0.0
 46
0.0
 47
0.0
 48
0.0
 49
2.5
140
0.25
141
0.0
142
0.0
143
0.03937007874
144
100.0
145
0.0
146
0.5
147
0.1
148
0.0
 69
0
 70
0
 71
0
 72
0
 73
0
 74
0
 75
0
 76
0
 77
0
 78
12
 79
3
170
0
171
3
172
0
173
0
174
1
175
0
176
0
177
0
178
0
179
2
271
2
272
2
273
2
274
3
275
0
276
0
277
2
278
46
279
0
280
0
281
0
282
0
283
0
284
8
285
0
286
0
288
1
289
0
290
0
340
4C
342
84
371
-2
372
-2
  0
DIMSTYLE
105
89
330
4
100
AcDbSymbolTableRecord
100
AcDbDimStyleTableRecord
  2
EZ_CURVED
 70
0
 40
1.0
 41
0.25
 42
0.125
 43
3.75
 44
0.375
 45
0.0
 46
0.0
 47
0.0
 48
0.0
 49
2.5
140
0.25
141
2.5
142
0.0
143
0.03937007874
144
100.0
145
0.0
146
0.5
147
0.1
148
0.0
 69
0
 70
0
 71
0
 72
0
 73
0
 74
0
 75
0
 76
0
 77
1
 78
12
 79
2
 90
2
170
0
171
3
172
1
173
0
174
0
175
0
176
0
177
0
178
0
179
2
271
2
272
2
273
2
274
3
275
0
276
0
277
2
278
46
279
2
280
0
281
0
282
0
283
0
284
8
285
0
286
0
288
1
289
3
290
0
340
4C
371
-2
372
-2
  0
ENDTAB
  0
TABLE
  2
BLOCK_RECORD
  5
9
330
0
100
AcDbSymbolTable
 70
5
  0
BLOCK_RECORD
  5
17
330
9
100
AcDbSymbolTableRecord
100
AcDbBlockTableRecord
  2
*Model_Space
340
1A
 70
0
280
1
281
0
  0
BLOCK_RECORD
  5
1B
330
9
100
AcDbSymbolTableRecord
100
AcDbBlockTableRecord
  2
*Paper_Space
340
1E
 70
0
280
1
281
0
  0
BLOCK_RECORD
  5
74
330
9
100
AcDbSymbolTableRecord
100
AcDbBlockTableRecord
  2
_ARCHTICK
340
0
 70
0
280
1
281
0
  0
BLOCK_RECORD
  5
78
330
9
100
AcDbSymbolTableRecord
100
AcDbBlockTableRecord
  2
_CLOSEDFILLED
340
0
 70
0
280
1
281
0
  0
BLOCK_RECORD
  5
84
330
9
100
AcDbSymbolTableRecord
100
AcDbBlockTableRecord
  2
_CLOSEDBLANK
340
0
 70
0
280
1
281
0
  0
ENDTAB
  0
ENDSEC
  0
SECTION
  2
BLOCKS
  0
BLOCK
  5
18
330
17
100
AcDbEntity
  8
0
100
AcDbBlockBegin
  2
*Model_Space
 70
0
 10
0.0
 20
0.0
 30
0.0
  3
*Model_Space
  1

  0
ENDBLK
  5
19
330
17
100
AcDbEntity
  8
0
100
AcDbBlockEnd
  0
BLOCK
  5
1C
330
1B
100
AcDbEntity
  8
0
100
AcDbBlockBegin
  2
*Paper_Space
 70
0
 10
0.0
 20
0.0
 30
0.0
  3
*Paper_Space
  1

  0
ENDBLK
  5
1D
330
1B
100
AcDbEntity
  8
0
100
AcDbBlockEnd
  0
BLOCK
  5
75
330
74
100
AcDbEntity
  8
0
100
AcDbBlockBegin
  2
_ARCHTICK
 70
0
 10
0.0
 20
0.0
 30
0.0
  3
_ARCHTICK
  1

  0
LWPOLYLINE
  5
77
330
74
100
AcDbEntity
  8
0
  6
BYBLOCK
 62
0
100
AcDbPolyline
 90
2
 70
0
 43
0.15
 10
-0.5
 20
-0.5
 10
0.5
 20
0.5
  0
ENDBLK
  5
76
330
74
100
AcDbEntity
  8
0
100
AcDbBlockEnd
  0
BLOCK
  5
79
330
78
100
AcDbEntity
  8
0
100
AcDbBlockBegin
  2
_CLOSEDFILLED
 70
0
 10
0.0
 20
0.0
 30
0.0
  3
_CLOSEDFILLED
  1

  0
SOLID
  5
7B
330
78
100
AcDbEntity
  8
0
  6
BYBLOCK
 62
0
100
AcDbTrace
 10
-1.0
 20
0.16439898372402537
 30
0.0
 11
0.0
 21
0.0
 31
0.0
 12
-1.0
 22
-0.16439898372402537
 32
0.0
 13
-1.0
 23
-0.16439898372402537
 33
0.0
  0
ENDBLK
  5
7A
330
78
100
AcDbEntity
  8
0
100
AcDbBlockEnd
  0
BLOCK
  5
85
330
84
100
AcDbEntity
  8
0
100
AcDbBlockBegin
  2
_CLOSEDBLANK
 70
0
 10
0.0
 20
0.0
 30
0.0
  3
_CLOSEDBLANK
  1

  0
LWPOLYLINE
  5
87
330
84
100
AcDbEntity
  8
0
  6
BYBLOCK
 62
0
100
AcDbPolyline
 90
3
 70
1
 10
-1.0
 20
0.16439898372402537
 10
0.0
 20
0.0
 10
-1.0
 20
-0.16439898372402537
  0
ENDBLK
  5
86
330
84
100
AcDbEntity
  8
0
100
AcDbBlockEnd
  0
ENDSEC
  0
SECTION
  2
ENTITIES
  0
LWPOLYLINE
  5
8D
330
17
100
AcDbEntity
  8
REFERENCE-SHEET
100
AcDbPolyline
 90
4
 70
1
 10
0.0
 20
0.0
 10
2440.0
 20
0.0
 10
2440.0
 20
1220.0
 10
0.0
 20
1220.0
  0
TEXT
  5
8E
330
17
100
AcDbEntity
  8
REFERENCE-SHEET
100
AcDbText
 10
0.0
 20
1275.0
 30
0.0
 40
40.0
  1
SHEET 1/2  -  2440 x 1220 x 18 mm MDF
 11
0.0
 21
1275.0
 31
0.0
100
AcDbText
  0
LWPOLYLINE
  5
8F
330
17
100
AcDbEntity
  8
CUT
100
AcDbPolyline
 90
180
 70
1
 10
930.4999999999998
 20
459.79999999999984
 10
930.4607738816759
 20
475.7486916591196
 10
930.2805723375894
 20
491.72372747831366
 10
929.8909435882157
 20
507.7423450492033
 10
929.2352535579055
 20
523.8142777296583
 10
928.2616491360169
 20
539.9426667889788
 10
926.9206746682551
 20
556.1244004571683
 10
925.1642426133542
 20
572.3502115657545
 10
922.9452556005496
 20
588.6046668482057
 10
920.2176333283869
 20
604.8661277988839
 10
916.9366353386457
 20
621.1067434878568
 10
913.0594203107643
 20
637.2925270619885
 10
908.5457994465465
 20
653.3835621652597
 10
903.3591435797355
 20
669.3343796697071
 10
897.4673981582782
 20
685.0945369598185
 10
890.8441511796341
 20
700.60942046098
 10
883.4696894305845
 20
715.8212767989801
 10
875.3319705915618
 20
730.6704593743733
 10
866.4274352915216
 20
745.0968565273636
 10
856.7615859976449
 20
759.0414469255014
 10
846.3492698804944
 20
772.4479099336465
 10
835.2146205894869
 20
785.2642062493583
 10
823.3906379861246
 20
797.4440393195844
 10
810.9184128516908
 20
808.9481123605797
 10
797.8460320572003
 20
819.7451092092099
 10
784.2272249992183
 20
829.8123483114991
 10
770.1198310054997
 20
839.1360852299662
 10
755.5841776630912
 20
847.7114667063393
 10
740.6814607978001
 20
855.5421650469073
 10
725.4722087950628
 20
862.6397424612198
 10
710.0148989758126
 20
869.0228090712353
 10
694.3647744440842
 20
874.7160449434007
 10
678.5728890043756
 20
879.7491561690413
 10
662.6853878921412
 20
884.1558290976066
 10
646.7430150087056
 20
887.9727371808954
 10
630.7808241510527
 20
891.2386435133668
 10
614.8280626627608
 20
893.9936309137578
 10
598.9081906641085
 20
896.2784818870065
 10
583.0389967573503
 20
898.1342244396417
 10
567.2327707577991
 20
899.6018580246139
 10
551.496494234806
 20
900.7222792928688
 10
535.8320087189803
 20
901.5364451438255
 10
520.2361165506657
 20
902.085854924502
 10
504.7005544426775
 20
902.4135495449254
 10
489.2117364648431
 20
902.5662016009419
 10
473.7499999999999
 20
902.5999999999997
 10
458.2882635351567
 20
902.5662016009419
 10
442.7994455573222
 20
902.4135495449254
 10
427.2638834493341
 20
902.085854924502
 10
411.6679912810195
 20
901.5364451438255
 10
396.0035057651938
 20
900.7222792928688
 10
380.2672292422007
 20
899.6018580246139
 10
364.46100324264944
 20
898.1342244396417
 10
348.59180933589136
 20
896.2784818870065
 10
332.671937337239
 20
893.9936309137579
 10
316.7191758489472
 20
891.2386435133667
 10
300.75698499129413
 20
887.9727371808954
 10
284.8146121078585
 20
884.1558290976066
 10
268.92711099562405
 20
879.7491561690413
 10
253.13522555591555
 20
874.7160449434007
 10
237.48510102418737
 20
869.0228090712353
 10
222.02779120493707
 20
862.6397424612198
 10
206.8185392021997
 20
855.5421650469073
 10
191.91582233690866
 20
847.7114667063394
 10
177.38016899450014
 20
839.1360852299662
 10
163.2727750007815
 20
829.8123483114991
 10
149.6539679427994
 20
819.7451092092099
 10
136.5815871483088
 20
808.9481123605797
 10
124.10936201387511
 20
797.4440393195844
 10
112.28537941051297
 20
785.2642062493583
 10
101.15073011950551
 20
772.4479099336467
 10
90.73841400235489
 20
759.0414469255015
 10
81.07256470847813
 20
745.0968565273637
 10
72.16802940843797
 20
730.6704593743733
 10
64.03031056941529
 20
715.8212767989801
 10
56.65584882036575
 20
700.60942046098
 10
50.032601841721544
 20
685.0945369598185
 10
44.1408564202643
 20
669.334379669707
 10
38.95420055345318
 20
653.38356216526
 10
34.440579689235506
 20
637.2925270619887
 10
30.563364661354058
 20
621.1067434878569
 10
27.282366671612976
 20
604.866127798884
 10
24.554744399450215
 20
588.6046668482059
 10
22.335757386645525
 20
572.3502115657545
 10
20.579325331744712
 20
556.1244004571683
 10
19.238350863982873
 20
539.9426667889788
 10
18.264746442094236
 20
523.8142777296582
 10
17.60905641178408
 20
507.74234504920344
 10
17.21942766241034
 20
491.7237274783138
 10
17.03922611832388
 20
475.74869165911963
 10
17.0
 20
459.7999999999999
 10
17.03922611832388
 20
443.85130834088017
 10
17.21942766241034
 20
427.876272521686
 10
17.60905641178408
 20
411.85765495079636
 10
18.26474644209418
 20
395.7857222703413
 10
19.238350863982873
 20
379.6573332110207
 10
20.579325331744712
 20
363.4755995428312
 10
22.335757386645525
 20
347.24978843424526
 10
24.554744399450215
 20
330.995333151794
 10
27.282366671612976
 20
314.73387220111584
 10
30.563364661354
 20
298.4932565121429
 10
34.440579689235506
 20
282.30747293801113
 10
38.954200553453234
 20
266.2164378347399
 10
44.1408564202643
 20
250.26562033029253
 10
50.032601841721544
 20
234.50546304018113
 10
56.65584882036575
 20
218.99057953901954
 10
64.03031056941524
 20
203.7787232010196
 10
72.16802940843792
 20
188.9295406256265
 10
81.07256470847807
 20
174.50314347263617
 10
90.73841400235477
 20
160.55855307449826
 10
101.1507301195054
 20
147.15209006635314
 10
112.28537941051286
 20
134.33579375064147
 10
124.10936201387517
 20
122.15596068041532
 10
136.58158714830887
 20
110.6518876394199
 10
149.65396794279945
 20
99.85489079078968
 10
163.2727750007814
 20
89.78765168850049
 10
177.3801689945002
 20
80.46391477003345
 10
191.9158223369086
 20
71.88853329366043
 10
206.81853920219976
 20
64.05783495309242
 10
222.02779120493696
 20
56.9602575387799
 10
237.48510102418703
 20
50.57719092876442
 10
253.13522555591564
 20
44.88395505659895
 10
268.92711099562393
 20
39.85084383095841
 10
284.8146121078587
 20
35.444170902393125
 10
300.756984991294
 20
31.627262819104317
 10
316.7191758489472
 20
28.36135648663287
 10
332.67193733723894
 20
25.606369086241898
 10
348.59180933589147
 20
23.32151811299326
 10
364.46100324264944
 20
21.46577556035794
 10
380.2672292422005
 20
19.998141975385806
 10
396.0035057651938
 20
18.877720707130834
 10
411.6679912810193
 20
18.063554856174164
 10
427.26388344933423
 20
17.51414507549765
 10
442.7994455573221
 20
17.18645045507418
 10
458.2882635351568
 20
17.033798399057844
 10
473.74999999999983
 20
17.0
 10
489.2117364648432
 20
17.033798399057844
 10
504.7005544426775
 20
17.186450455074237
 10
520.2361165506654
 20
17.51414507549765
 10
535.8320087189803
 20
18.063554856174164
 10
551.4964942348058
 20
18.877720707130834
 10
567.2327707577991
 20
19.998141975385806
 10
583.0389967573502
 20
21.465775560357883
 10
598.9081906641086
 20
23.32151811299326
 10
614.8280626627607
 20
25.60636908624184
 10
630.7808241510527
 20
28.36135648663293
 10
646.7430150087056
 20
31.62726281910426
 10
662.685387892141
 20
35.44417090239307
 10
678.5728890043756
 20
39.850843830958354
 10
694.364774444084
 20
44.88395505659889
 10
710.0148989758126
 20
50.57719092876437
 10
725.4722087950627
 20
56.96025753877984
 10
740.6814607978002
 20
64.05783495309254
 10
755.584177663091
 20
71.88853329366032
 10
770.1198310054998
 20
80.46391477003357
 10
784.2272249992183
 20
89.78765168850043
 10
797.8460320572001
 20
99.85489079078957
 10
810.9184128516908
 20
110.6518876394199
 10
823.3906379861245
 20
122.1559606804152
 10
835.2146205894869
 20
134.33579375064153
 10
846.3492698804941
 20
147.15209006635297
 10
856.7615859976449
 20
160.55855307449826
 10
866.4274352915216
 20
174.50314347263594
 10
875.3319705915619
 20
188.92954062562654
 10
883.4696894305845
 20
203.7787232010195
 10
890.8441511796339
 20
218.99057953901936
 10
897.4673981582782
 20
234.50546304018116
 10
903.3591435797355
 20
250.26562033029236
 10
908.5457994465467
 20
266.21643783473996
 10
913.0594203107643
 20
282.30747293801096
 10
916.9366353386458
 20
298.493256512143
 10
920.2176333283868
 20
314.7338722011157
 10
922.9452556005496
 20
330.99533315179406
 10
925.1642426133542
 20
347.2497884342451
 10
926.9206746682551
 20
363.4755995428311
 10
928.2616491360169
 20
379.6573332110207
 10
929.2352535579055
 20
395.7857222703411
 10
929.8909435882157
 20
411.85765495079636
 10
930.2805723375894
 20
427.8762725216859
 10
930.4607738816759
 20
443.85130834088017
  0
LWPOLYLINE
  5
90
330
17
100
AcDbEntity
  8
CUT
100
AcDbPolyline
 90
180
 70
1
 10
787.280047637159
 20
448.85128947772597
 10
787.3122926037846
 20
437.8735885325189
 10
787.283193096589
 20
426.84633350917716
 10
787.1399743007686
 20
415.7559114244087
 10
786.8341217897726
 20
404.5948220970479
 10
786.3191781079586
 20
393.3613702173472
 10
785.5497917871398
 20
382.05958062679264
 10
784.4813689276536
 20
370.6992137494774
 10
783.0700993414283
 20
359.29580728325044
 10
781.2732564910345
 20
347.8706882926526
 10
779.0497163358817
 20
336.4509078602694
 10
776.3606558470071
 20
325.06905553688296
 10
773.1703938610558
 20
313.76291623273715
 10
769.4473318700568
 20
302.57493972755617
 10
765.1649439583987
 20
291.5515036597384
 10
760.3027561015747
 20
280.7419650069771
 10
754.8472478360701
 20
270.1975122736042
 10
748.7926060970378
 20
259.96984965707514
 10
742.141263607843
 20
250.10976346321655
 10
734.9041636897081
 20
240.66563756755454
 10
727.1007098143791
 20
231.68199625740442
 10
718.7583805201921
 20
223.19815719798987
 10
709.9120161757857
 20
215.24707328407482
 10
700.6028104036104
 20
207.85442974157556
 10
690.8770623855544
 20
201.03804335258803
 10
680.784763750545
 20
194.80758656441873
 10
670.3781032211241
 20
189.16463366990462
 10
659.7099729136506
 20
184.103002452535
 10
648.8325527528407
 20
179.60934539697723
 10
637.7960356120417
 20
175.6639315396901
 10
626.6475379460653
 20
172.24155389853917
 10
615.4302214315795
 20
169.3124977230268
 10
604.1826327696951
 20
166.84351028211978
 10
592.9382530366943
 20
164.7987218272225
 10
581.7252357614854
 20
163.14047788502967
 10
570.5663045263557
 20
161.83005342908848
 10
559.4787760157658
 20
160.82822826981612
 10
548.4746723460805
 20
160.09570888962622
 10
537.5608861896872
 20
159.59338351949424
 10
526.7393624227487
 20
159.28239225872971
 10
516.0072591678671
 20
159.12397756601484
 10
505.3570465889488
 20
159.07903943114587
 10
494.776488015172
 20
159.10721234427
 10
484.24840786950205
 20
159.1649331815841
 10
473.74999999999983
 20
159.2
 10
463.2515921304979
 20
159.1649331815841
 10
452.72351198482767
 20
159.1072123442699
 10
442.1429534110509
 20
159.07903943114587
 10
431.49274083213254
 20
159.1239775660148
 10
420.7606375772509
 20
159.28239225872971
 10
409.93911381031245
 20
159.59338351949424
 10
399.0253276539192
 20
160.09570888962628
 10
388.0212239842342
 20
160.82822826981607
 10
376.93369547364404
 20
161.83005342908854
 10
365.7747642385146
 20
163.1404778850296
 10
354.5617469633054
 20
164.79872182722255
 10
343.3173672303045
 20
166.84351028211984
 10
332.06977856842013
 20
169.3124977230268
 10
320.8524620539343
 20
172.24155389853922
 10
309.70396438795797
 20
175.66393153969017
 10
298.6674472471589
 20
179.6093453969773
 10
287.7900270863493
 20
184.10300245253495
 10
277.12189677887557
 20
189.16463366990473
 10
266.71523624945485
 20
194.80758656441867
 10
256.6229376144453
 20
201.0380433525881
 10
246.8971895963892
 20
207.85442974157561
 10
237.58798382421412
 20
215.24707328407482
 10
228.74161947980764
 20
223.19815719798996
 10
220.3992901856207
 20
231.68199625740436
 10
212.5958363102916
 20
240.66563756755463
 10
205.3587363921567
 20
250.10976346321655
 10
198.70739390296194
 20
259.9698496570753
 10
192.65275216392968
 20
270.19751227360416
 10
187.19724389842503
 20
280.74196500697724
 10
182.33505604160104
 20
291.5515036597385
 10
178.0526681299429
 20
302.5749397275561
 10
174.32960613894403
 20
313.76291623273727
 10
171.13934415299263
 20
325.0690555368829
 10
168.450283664118
 20
336.4509078602695
 10
166.22674350896528
 20
347.8706882926526
 10
164.42990065857146
 20
359.29580728325055
 10
163.01863107234618
 20
370.6992137494774
 10
161.95020821286
 20
382.05958062679275
 10
161.1808218920412
 20
393.36137021734737
 10
160.66587821022728
 20
404.5948220970479
 10
160.36002569923113
 20
415.75591142440874
 10
160.2168069034107
 20
426.84633350917716
 10
160.18770739621516
 20
437.873588532519
 10
160.21995236284084
 20
448.85128947772597
 10
160.25000000000006
 20
459.7999999999999
 10
160.21995236284084
 20
470.7487105222738
 10
160.18770739621516
 20
481.7264114674808
 10
160.2168069034107
 20
492.7536664908226
 10
160.3600256992312
 20
503.84408857559083
 10
160.66587821022728
 20
515.0051779029518
 10
161.18082189204125
 20
526.2386297826522
 10
161.95020821286
 20
537.540419373207
 10
163.01863107234618
 20
548.9007862505224
 10
164.42990065857146
 20
560.3041927167492
 10
166.22674350896528
 20
571.7293117073472
 10
168.45028366411805
 20
583.1490921397302
 10
171.13934415299258
 20
594.5309444631168
 10
174.32960613894403
 20
605.8370837672624
 10
178.05266812994284
 20
617.0250602724435
 10
182.33505604160104
 20
628.0484963402611
 10
187.19724389842503
 20
638.8580349930226
 10
192.65275216392973
 20
649.4024877263955
 10
198.70739390296194
 20
659.6301503429245
 10
205.35873639215674
 20
669.4902365367832
 10
212.59583631029165
 20
678.9343624324451
 10
220.39929018562077
 20
687.9180037425954
 10
228.74161947980755
 20
696.4018428020097
 10
237.5879838242141
 20
704.3529267159248
 10
246.89718959638915
 20
711.745570258424
 10
256.6229376144454
 20
718.5619566474115
 10
266.71523624945485
 20
724.792413435581
 10
277.1218967788757
 20
730.435366330095
 10
287.79002708634926
 20
735.4969975474647
 10
298.667447247159
 20
739.9906546030224
 10
309.7039643879582
 20
743.9360684603096
 10
320.85246205393423
 20
747.3584461014605
 10
332.06977856842025
 20
750.2875022769729
 10
343.3173672303044
 20
752.75648971788
 10
354.56174696330544
 20
754.8012781727772
 10
365.77476423851454
 20
756.45952211497
 10
376.9336954736441
 20
757.7699465709111
 10
388.0212239842341
 20
758.7717717301837
 10
399.0253276539192
 20
759.5042911103734
 10
409.9391138103126
 20
760.0066164805055
 10
420.7606375772509
 20
760.31760774127
 10
431.4927408321327
 20
760.4760224339848
 10
442.1429534110508
 20
760.5209605688538
 10
452.7235119848277
 20
760.4927876557298
 10
463.25159213049784
 20
760.4350668184156
 10
473.7499999999999
 20
760.3999999999996
 10
484.248407869502
 20
760.4350668184156
 10
494.776488015172
 20
760.4927876557298
 10
505.35704658894895
 20
760.5209605688538
 10
516.0072591678671
 20
760.4760224339848
 10
526.7393624227489
 20
760.31760774127
 10
537.5608861896872
 20
760.0066164805055
 10
548.4746723460805
 20
759.5042911103734
 10
559.4787760157657
 20
758.7717717301837
 10
570.5663045263557
 20
757.7699465709111
 10
581.7252357614852
 20
756.45952211497
 10
592.9382530366943
 20
754.8012781727772
 10
604.1826327696954
 20
752.75648971788
 10
615.4302214315795
 20
750.2875022769729
 10
626.6475379460655
 20
747.3584461014605
 10
637.7960356120417
 20
743.9360684603096
 10
648.8325527528408
 20
739.9906546030224
 10
659.7099729136505
 20
735.4969975474647
 10
670.3781032211241
 20
730.435366330095
 10
680.7847637505449
 20
724.792413435581
 10
690.8770623855544
 20
718.5619566474115
 10
700.6028104036106
 20
711.745570258424
 10
709.9120161757857
 20
704.3529267159249
 10
718.7583805201922
 20
696.4018428020097
 10
727.1007098143791
 20
687.9180037425954
 10
734.9041636897082
 20
678.934362432445
 10
742.141263607843
 20
669.4902365367832
 10
748.7926060970378
 20
659.6301503429245
 10
754.84724783607
 20
649.4024877263955
 10
760.3027561015747
 20
638.8580349930226
 10
765.1649439583987
 20
628.0484963402611
 10
769.4473318700568
 20
617.0250602724435
 10
773.1703938610558
 20
605.8370837672624
 10
776.3606558470071
 20
594.5309444631168
 10
779.0497163358818
 20
583.1490921397301
 10
781.2732564910344
 20
571.729311707347
 10
783.0700993414284
 20
560.3041927167492
 10
784.4813689276536
 20
548.9007862505224
 10
785.5497917871398
 20
537.540419373207
 10
786.3191781079586
 20
526.2386297826523
 10
786.8341217897726
 20
515.0051779029518
 10
787.1399743007686
 20
503.8440885755909
 10
787.283193096589
 20
492.7536664908225
 10
787.3122926037846
 20
481.72641146748066
 10
787.280047637159
 20
470.74871052227377
 10
787.2499999999998
 20
459.79999999999984
  0
LWPOLYLINE
  5
91
330
17
100
AcDbEntity
  8
CUT
100
AcDbPolyline
 90
8
 70
1
 10
820.095722317528
 20
508.2772430955944
 42
2.414213562373095
 10
823.7569152955613
 20
505.61723069381867
 10
857.930931880153
 20
511.0298631842107
 42
2.414213562373095
 10
860.5909442819288
 20
514.6910561622439
 10
858.6198700224218
 20
527.1359292537426
 42
2.414213562373095
 10
854.9586770443887
 20
529.7959416555183
 10
820.7846604597969
 20
524.3833091651263
 42
2.414213562373095
 10
818.1246480580212
 20
520.7221161870931
  0
LWPOLYLINE
  5
92
330
17
100
AcDbEntity
  8
CUT
100
AcDbPolyline
 90
8
 70
1
 10
803.1951034948694
 20
620.5900091448653
 42
2.414213562373095
 10
807.4990939714387
 20
619.1915578666291
 10
838.3279197083561
 20
634.8996291576174
 42
2.414213562373095
 10
839.7263709865924
 20
639.2036196341867
 10
834.0060906898741
 20
650.4303018389602
 42
2.414213562373095
 10
829.7021002133049
 20
651.8287531171964
 10
798.8732744763872
 20
636.120681826208
 42
2.414213562373095
 10
797.4748231981511
 20
631.8166913496387
  0
LWPOLYLINE
  5
93
330
17
100
AcDbEntity
  8
CUT
100
AcDbPolyline
 90
8
 70
1
 10
741.8315065232526
 20
718.9719610803021
 42
2.414213562373095
 10
746.3569899228465
 20
718.9719610803021
 10
770.8228845519011
 20
743.4378557093567
 42
2.414213562373095
 10
770.8228845519011
 20
747.9633391089505
 10
761.9133391089506
 20
756.872884551901
 42
2.414213562373095
 10
757.3878557093567
 20
756.872884551901
 10
732.9219610803021
 20
732.4069899228465
 42
2.414213562373095
 10
732.9219610803021
 20
727.8815065232526
  0
LWPOLYLINE
  5
94
330
17
100
AcDbEntity
  8
CUT
100
AcDbPolyline
 90
8
 70
1
 10
641.4129907921214
 20
774.9802047461435
 42
2.414213562373095
 10
645.7169812686907
 20
776.3786560243798
 10
661.425052559679
 20
807.2074817612973
 42
2.414213562373095
 10
660.0266012814428
 20
811.5114722378667
 10
648.7999190766693
 20
817.231752534585
 42
2.414213562373095
 10
644.4959286001
 20
815.8333012563487
 10
628.7878573091117
 20
785.0044755194311
 42
2.414213562373095
 10
630.1863085873479
 20
780.7004850428618
  0
LWPOLYLINE
  5
95
330
17
100
AcDbEntity
  8
CUT
100
AcDbPolyline
 90
8
 70
1
 10
532.6690511523227
 20
791.5277931607465
 42
2.414213562373095
 10
536.3302441303559
 20
794.1878055625223
 10
541.7428766207479
 20
828.361822147114
 42
2.414213562373095
 10
539.0828642189722
 20
832.0230151251471
 10
526.6379911274735
 20
833.9940893846541
 42
2.414213562373095
 10
522.9767981494402
 20
831.3340769828783
 10
517.5641656590483
 20
797.1600603982865
 42
2.414213562373095
 10
520.224178060824
 20
793.4988674202534
  0
LWPOLYLINE
  5
96
330
17
100
AcDbEntity
  8
CUT
100
AcDbPolyline
 90
8
 70
1
 10
427.27582193917584
 20
793.4988674202534
 42
2.414213562373095
 10
429.93583434095154
 20
797.1600603982865
 10
424.52320185055953
 20
831.3340769828783
 42
2.414213562373095
 10
420.86200887252636
 20
833.9940893846541
 10
408.41713578102764
 20
832.0230151251471
 42
2.414213562373095
 10
405.75712337925194
 20
828.361822147114
 10
411.1697558696439
 20
794.1878055625223
 42
2.414213562373095
 10
414.83094884767706
 20
791.5277931607465
  0
LWPOLYLINE
  5
97
330
17
100
AcDbEntity
  8
CUT
100
AcDbPolyline
 90
8
 70
1
 10
317.3136914126519
 20
780.7004850428618
 42
2.414213562373095
 10
318.7121426908882
 20
785.004475519431
 10
303.0040713998999
 20
815.8333012563487
 42
2.414213562373095
 10
298.7000809233306
 20
817.2317525345849
 10
287.47339871855706
 20
811.5114722378665
 42
2.414213562373095
 10
286.0749474403209
 20
807.2074817612972
 10
301.7830187313092
 20
776.3786560243798
 42
2.414213562373095
 10
306.0870092078785
 20
774.9802047461435
  0
LWPOLYLINE
  5
98
330
17
100
AcDbEntity
  8
CUT
100
AcDbPolyline
 90
8
 70
1
 10
214.57803891969763
 20
727.8815065232526
 42
2.414213562373095
 10
214.57803891969763
 20
732.4069899228465
 10
190.11214429064307
 20
756.872884551901
 42
2.414213562373095
 10
185.58666089104918
 20
756.872884551901
 10
176.67711544809868
 20
747.9633391089505
 42
2.414213562373095
 10
176.67711544809868
 20
743.4378557093567
 10
201.14301007715324
 20
718.9719610803021
 42
2.414213562373095
 10
205.66849347674713
 20
718.9719610803021
  0
LWPOLYLINE
  5
99
330
17
100
AcDbEntity
  8
CUT
100
AcDbPolyline
 90
8
 70
1
 10
150.02517680184872
 20
631.8166913496389
 42
2.414213562373095
 10
148.6267255236125
 20
636.1206818262082
 10
117.79789978669493
 20
651.8287531171965
 42
2.414213562373095
 10
113.49390931012567
 20
650.4303018389603
 10
107.77362901340734
 20
639.2036196341868
 42
2.414213562373095
 10
109.17208029164357
 20
634.8996291576175
 10
140.00090602856113
 20
619.1915578666292
 42
2.414213562373095
 10
144.3048965051304
 20
620.5900091448653
  0
LWPOLYLINE
  5
9A
330
17
100
AcDbEntity
  8
CUT
100
AcDbPolyline
 90
8
 70
1
 10
129.37535194197858
 20
520.7221161870932
 42
2.414213562373095
 10
126.71533954020282
 20
524.3833091651263
 10
92.54132295561107
 20
529.7959416555184
 42
2.414213562373095
 10
88.8801299775779
 20
527.1359292537427
 10
86.90905571807093
 20
514.691056162244
 42
2.414213562373095
 10
89.56906811984669
 20
511.02986318421074
 10
123.74308470443844
 20
505.6172306938187
 42
2.414213562373095
 10
127.40427768247162
 20
508.27724309559443
  0
LWPOLYLINE
  5
9B
330
17
100
AcDbEntity
  8
CUT
100
AcDbPolyline
 90
8
 70
1
 10
127.40427768247167
 20
411.32275690440537
 42
2.414213562373095
 10
123.7430847044385
 20
413.98276930618107
 10
89.56906811984675
 20
408.57013681578906
 42
2.414213562373095
 10
86.90905571807099
 20
404.9089438377559
 10
88.88012997757795
 20
392.46407074625716
 42
2.414213562373095
 10
92.54132295561112
 20
389.80405834448146
 10
126.71533954020288
 20
395.2166908348734
 42
2.414213562373095
 10
129.37535194197864
 20
398.8778838129066
  0
LWPOLYLINE
  5
9C
330
17
100
AcDbEntity
  8
CUT
100
AcDbPolyline
 90
8
 70
1
 10
144.3048965051304
 20
299.0099908551344
 42
2.414213562373095
 10
140.00090602856113
 20
300.4084421333706
 10
109.17208029164357
 20
284.7003708423823
 42
2.414213562373095
 10
107.77362901340734
 20
280.396380365813
 10
113.49390931012567
 20
269.16969816103955
 42
2.414213562373095
 10
117.79789978669493
 20
267.7712468828033
 10
148.6267255236125
 20
283.4793181737916
 42
2.414213562373095
 10
150.02517680184872
 20
287.78330865036094
  0
LWPOLYLINE
  5
9D
330
17
100
AcDbEntity
  8
CUT
100
AcDbPolyline
 90
8
 70
1
 10
205.66849347674713
 20
200.6280389196977
 42
2.414213562373095
 10
201.14301007715324
 20
200.6280389196977
 10
176.67711544809868
 20
176.16214429064314
 42
2.414213562373095
 10
176.67711544809868
 20
171.63666089104925
 10
185.58666089104918
 20
162.72711544809874
 42
2.414213562373095
 10
190.11214429064307
 20
162.72711544809874
 10
214.57803891969763
 20
187.1930100771533
 42
2.414213562373095
 10
214.57803891969763
 20
191.7184934767472
  0
LWPOLYLINE
  5
9E
330
17
100
AcDbEntity
  8
CUT
100
AcDbPolyline
 90
8
 70
1
 10
306.0870092078784
 20
144.61979525385618
 42
2.414213562373095
 10
301.7830187313091
 20
143.22134397561996
 10
286.0749474403208
 20
112.3925182387024
 42
2.414213562373095
 10
287.47339871855695
 20
108.08852776213314
 10
298.7000809233304
 20
102.36824746541481
 42
2.414213562373095
 10
303.0040713998998
 20
103.76669874365103
 10
318.7121426908881
 20
134.5955244805686
 42
2.414213562373095
 10
317.31369141265185
 20
138.89951495713785
  0
LWPOLYLINE
  5
9F
330
17
100
AcDbEntity
  8
CUT
100
AcDbPolyline
 90
8
 70
1
 10
414.830948847677
 20
128.07220683925328
 42
2.414213562373095
 10
411.16975586964384
 20
125.41219443747752
 10
405.7571233792518
 20
91.23817785288577
 42
2.414213562373095
 10
408.4171357810276
 20
87.5769848748526
 10
420.8620088725263
 20
85.60591061534564
 42
2.414213562373095
 10
424.5232018505595
 20
88.2659230171214
 10
429.9358343409515
 20
122.43993960171315
 42
2.414213562373095
 10
427.2758219391757
 20
126.10113257974632
  0
LWPOLYLINE
  5
A0
330
17
100
AcDbEntity
  8
CUT
100
AcDbPolyline
 90
8
 70
1
 10
520.2241780608239
 20
126.10113257974626
 42
2.414213562373095
 10
517.5641656590482
 20
122.43993960171309
 10
522.9767981494401
 20
88.26592301712134
 42
2.414213562373095
 10
526.6379911274734
 20
85.60591061534558
 10
539.0828642189721
 20
87.57698487485254
 42
2.414213562373095
 10
541.7428766207478
 20
91.23817785288571
 10
536.3302441303558
 20
125.41219443747747
 42
2.414213562373095
 10
532.6690511523226
 20
128.07220683925323
  0
LWPOLYLINE
  5
A1
330
17
100
AcDbEntity
  8
CUT
100
AcDbPolyline
 90
8
 70
1
 10
630.1863085873479
 20
138.89951495713785
 42
2.414213562373095
 10
628.7878573091116
 20
134.5955244805686
 10
644.4959286000999
 20
103.76669874365103
 42
2.414213562373095
 10
648.7999190766692
 20
102.36824746541481
 10
660.0266012814427
 20
108.08852776213314
 42
2.414213562373095
 10
661.4250525596789
 20
112.3925182387024
 10
645.7169812686906
 20
143.22134397561996
 42
2.414213562373095
 10
641.4129907921213
 20
144.61979525385618
  0
LWPOLYLINE
  5
A2
330
17
100
AcDbEntity
  8
CUT
100
AcDbPolyline
 90
8
 70
1
 10
732.921961080302
 20
191.71849347674703
 42
2.414213562373095
 10
732.921961080302
 20
187.19301007715313
 10
757.3878557093567
 20
162.72711544809857
 42
2.414213562373095
 10
761.9133391089506
 20
162.72711544809857
 10
770.8228845519011
 20
171.63666089104908
 42
2.414213562373095
 10
770.8228845519011
 20
176.16214429064297
 10
746.3569899228464
 20
200.62803891969753
 42
2.414213562373095
 10
741.8315065232525
 20
200.62803891969753
  0
LWPOLYLINE
  5
A3
330
17
100
AcDbEntity
  8
CUT
100
AcDbPolyline
 90
8
 70
1
 10
797.4748231981511
 20
287.7833086503608
 42
2.414213562373095
 10
798.8732744763872
 20
283.4793181737915
 10
829.7021002133049
 20
267.7712468828032
 42
2.414213562373095
 10
834.0060906898741
 20
269.1696981610394
 10
839.7263709865924
 20
280.39638036581283
 42
2.414213562373095
 10
838.3279197083561
 20
284.7003708423822
 10
807.4990939714387
 20
300.4084421333705
 42
2.414213562373095
 10
803.1951034948694
 20
299.0099908551343
  0
LWPOLYLINE
  5
A4
330
17
100
AcDbEntity
  8
CUT
100
AcDbPolyline
 90
8
 70
1
 10
818.1246480580212
 20
398.8778838129065
 42
2.414213562373095
 10
820.7846604597969
 20
395.21669083487325
 10
854.9586770443887
 20
389.8040583444813
 42
2.414213562373095
 10
858.6198700224219
 20
392.464070746257
 10
860.5909442819288
 20
404.9089438377557
 42
2.414213562373095
 10
857.9309318801531
 20
408.5701368157889
 10
823.7569152955614
 20
413.9827693061809
 42
2.414213562373095
 10
820.0957223175282
 20
411.3227569044052
  0
LWPOLYLINE
  5
A5
330
17
100
AcDbEntity
  8
CUT
100
AcDbPolyline
 90
8
 70
1
 10
863.5850765768535
 20
326.5106933250157
 42
2.414213562373095
 10
865.639603046998
 20
322.4784580908714
 10
898.5461585108103
 20
311.7864700854983
 42
2.414213562373095
 10
902.5783937449546
 20
313.84099655564296
 10
906.472007874079
 20
325.82430866096183
 42
2.414213562373095
 10
904.4174814039343
 20
329.85654389510614
 10
871.510925940122
 20
340.54853190047936
 42
2.414213562373095
 10
867.4786907059777
 20
338.4940054303347
  0
LWPOLYLINE
  5
A6
330
17
100
AcDbEntity
  8
CUT
100
AcDbPolyline
 90
8
 70
1
 10
872.9999999999998
 20
453.49999999999983
 42
2.414213562373095
 10
876.1999999999998
 20
450.29999999999984
 10
910.7999999999997
 20
450.29999999999984
 42
2.414213562373095
 10
913.9999999999998
 20
453.49999999999983
 10
913.9999999999998
 20
466.09999999999985
 42
2.414213562373095
 10
910.7999999999997
 20
469.29999999999984
 10
876.1999999999998
 20
469.29999999999984
 42
2.414213562373095
 10
872.9999999999998
 20
466.09999999999985
  0
LWPOLYLINE
  5
A7
330
17
100
AcDbEntity
  8
CUT
100
AcDbPolyline
 90
8
 70
1
 10
867.4786907059777
 20
581.105994569665
 42
2.414213562373095
 10
871.510925940122
 20
579.0514680995203
 10
904.4174814039343
 20
589.7434561048935
 42
2.414213562373095
 10
906.472007874079
 20
593.7756913390378
 10
902.5783937449546
 20
605.7590034443567
 42
2.414213562373095
 10
898.5461585108103
 20
607.8135299145014
 10
865.639603046998
 20
597.1215419091283
 42
2.414213562373095
 10
863.5850765768535
 20
593.089306674984
  0
LWPOLYLINE
  5
A8
330
17
100
AcDbEntity
  8
CUT
100
AcDbPolyline
 90
8
 70
1
 10
823.6120052044048
 20
706.2023974559842
 42
2.414213562373095
 10
828.0817723937405
 20
705.4944558813203
 10
856.0737603991137
 20
725.8318256106398
 42
2.414213562373095
 10
856.7817019737777
 20
730.3015927999757
 10
849.3756077948924
 20
740.4952069290998
 42
2.414213562373095
 10
844.9058406055567
 20
741.2031485037638
 10
816.9138526001835
 20
720.8657787744443
 42
2.414213562373095
 10
816.2059110255195
 20
716.3960115851085
  0
LWPOLYLINE
  5
A9
330
17
100
AcDbEntity
  8
CUT
100
AcDbPolyline
 90
8
 70
1
 10
726.8833327208362
 20
797.4899424403372
 42
2.414213562373095
 10
731.3530999101719
 20
798.1978840150011
 10
751.6904696394914
 20
826.1898720203744
 42
2.414213562373095
 10
750.9825280648274
 20
830.6596392097101
 10
740.7889139357032
 20
838.0657333885953
 42
2.414213562373095
 10
736.3191467463674
 20
837.3577918139313
 10
715.9817770170479
 20
809.3658038085582
 42
2.414213562373095
 10
716.6897185917118
 20
804.8960366192224
  0
LWPOLYLINE
  5
AA
330
17
100
AcDbEntity
  8
CUT
100
AcDbPolyline
 90
8
 70
1
 10
603.0512415388607
 20
837.3610741622243
 42
2.414213562373095
 10
607.083476773005
 20
839.415600632369
 10
617.7754647783783
 20
872.3221560961813
 42
2.414213562373095
 10
615.7209383082336
 20
876.3543913303256
 10
603.7376262029147
 20
880.2480054594499
 42
2.414213562373095
 10
599.7053909687703
 20
878.1934789893053
 10
589.0134029633972
 20
845.286923525493
 42
2.414213562373095
 10
591.0679294335418
 20
841.2546882913487
  0
LWPOLYLINE
  5
AB
330
17
100
AcDbEntity
  8
CUT
100
AcDbPolyline
 90
8
 70
1
 10
480.0499999999999
 20
845.0999999999997
 42
2.414213562373095
 10
483.2499999999999
 20
848.2999999999997
 10
483.2499999999999
 20
882.8999999999996
 42
2.414213562373095
 10
480.0499999999999
 20
886.0999999999997
 10
467.44999999999993
 20
886.0999999999997
 42
2.414213562373095
 10
464.2499999999999
 20
882.8999999999996
 10
464.2499999999999
 20
848.2999999999997
 42
2.414213562373095
 10
467.44999999999993
 20
845.0999999999997
  0
LWPOLYLINE
  5
AC
330
17
100
AcDbEntity
  8
CUT
100
AcDbPolyline
 90
8
 70
1
 10
356.432070566458
 20
841.2546882913487
 42
2.414213562373095
 10
358.48659703660263
 20
845.286923525493
 10
347.79460903122947
 20
878.1934789893053
 42
2.414213562373095
 10
343.76237379708516
 20
880.24800545945
 10
331.7790616917662
 20
876.3543913303256
 42
2.414213562373095
 10
329.7245352216215
 20
872.3221560961813
 10
340.41652322699474
 20
839.415600632369
 42
2.414213562373095
 10
344.44875846113905
 20
837.3610741622244
  0
LWPOLYLINE
  5
AD
330
17
100
AcDbEntity
  8
CUT
100
AcDbPolyline
 90
8
 70
1
 10
230.81028140828803
 20
804.8960366192225
 42
2.414213562373095
 10
231.51822298295195
 20
809.3658038085582
 10
211.1808532536324
 20
837.3577918139314
 42
2.414213562373095
 10
206.71108606429664
 20
838.0657333885954
 10
196.51747193517235
 20
830.6596392097101
 42
2.414213562373095
 10
195.8095303605084
 20
826.1898720203744
 10
216.14690008982797
 20
798.1978840150013
 42
2.414213562373095
 10
220.6166672791637
 20
797.4899424403372
  0
LWPOLYLINE
  5
AE
330
17
100
AcDbEntity
  8
CUT
100
AcDbPolyline
 90
8
 70
1
 10
131.2940889744802
 20
716.3960115851087
 42
2.414213562373095
 10
130.58614739981624
 20
720.8657787744444
 10
102.59415939444307
 20
741.2031485037639
 42
2.414213562373095
 10
98.12439220510731
 20
740.4952069291
 10
90.71829802622216
 20
730.3015927999757
 42
2.414213562373095
 10
91.4262396008861
 20
725.83182561064
 10
119.41822760625928
 20
705.4944558813204
 42
2.414213562373095
 10
123.88799479559503
 20
706.2023974559843
  0
LWPOLYLINE
  5
AF
330
17
100
AcDbEntity
  8
CUT
100
AcDbPolyline
 90
8
 70
1
 10
83.91492342314643
 20
593.089306674984
 42
2.414213562373095
 10
81.86039695300178
 20
597.1215419091283
 10
48.95384148918947
 20
607.8135299145015
 42
2.414213562373095
 10
44.92160625504516
 20
605.7590034443568
 10
41.02799212592083
 20
593.7756913390378
 42
2.414213562373095
 10
43.08251859606548
 20
589.7434561048935
 10
75.9890740598778
 20
579.0514680995203
 42
2.414213562373095
 10
80.0213092940221
 20
581.105994569665
  0
LWPOLYLINE
  5
B0
330
17
100
AcDbEntity
  8
CUT
100
AcDbPolyline
 90
8
 70
1
 10
74.5
 20
466.0999999999999
 42
2.414213562373095
 10
71.30000000000001
 20
469.2999999999999
 10
36.69999999999999
 20
469.2999999999999
 42
2.414213562373095
 10
33.5
 20
466.0999999999999
 10
33.5
 20
453.4999999999999
 42
2.414213562373095
 10
36.69999999999999
 20
450.2999999999999
 10
71.30000000000001
 20
450.2999999999999
 42
2.414213562373095
 10
74.5
 20
453.4999999999999
  0
LWPOLYLINE
  5
B1
330
17
100
AcDbEntity
  8
CUT
100
AcDbPolyline
 90
8
 70
1
 10
80.0213092940221
 20
338.49400543033477
 42
2.414213562373095
 10
75.9890740598778
 20
340.5485319004794
 10
43.08251859606548
 20
329.85654389510626
 42
2.414213562373095
 10
41.02799212592083
 20
325.82430866096195
 10
44.92160625504516
 20
313.840996555643
 42
2.414213562373095
 10
48.95384148918947
 20
311.78647008549837
 10
81.86039695300178
 20
322.4784580908715
 42
2.414213562373095
 10
83.91492342314643
 20
326.51069332501584
  0
TEXT
  5
B2
330
17
100
AcDbEntity
  8
ENGRAVE-LABEL
100
AcDbText
 10
125.78687453269859
 20
208.22310242580116
 30
0.0
 40
22.0
  1
02 SEAT-RING
 50
120.0
 72
1
 11
125.78687453269859
 21
208.22310242580116
 31
0.0
100
AcDbText
 73
2
  0
LWPOLYLINE
  5
B3
330
17
100
AcDbEntity
  8
CUT
100
AcDbPolyline
 90
180
 70
1
 10
1729.9999999999995
 20
800.5999999999999
 10
1729.972176203973
 20
814.8641627090113
 10
1729.830877378468
 20
829.1532764731726
 10
1729.512773156575
 20
843.4838705012496
 10
1728.9654408312176
 20
857.8655331667971
 10
1728.1408583259322
 20
872.3017547813101
 10
1726.9932001776701
 20
886.7902404103395
 10
1725.4778857833594
 20
901.3229994551755
 10
1723.5512300417938
 20
915.8863350531373
 10
1721.170468389468
 20
930.4608071823692
 10
1718.2940554656957
 20
945.0212253232856
 10
1714.8821825197265
 20
959.5367185142418
 10
1710.8974743230542
 20
973.9709255553178
 10
1706.3058282594766
 20
988.2823427122247
 10
1701.0773531916548
 20
1002.4248587371031
 10
1695.1873573179205
 20
1016.3484963402611
 10
1688.6173252364351
 20
1030.0003650951771
 10
1681.355817228799
 20
1043.3258135561166
 10
1673.3992205626578
 20
1056.2697493107094
 10
1664.7522852004815
 20
1068.7780766927208
 10
1655.428385786011
 20
1080.7991853526664
 10
1645.4494682347315
 20
1092.285411346687
 10
1634.845661552364
 20
1103.1943879956143
 10
1623.6545613693904
 20
1113.4902077480967
 10
1611.920218007702
 20
1123.1443286787764
 10
1599.6918853057755
 20
1132.1361787437145
 10
1587.0226039064823
 20
1140.4534350282195
 10
1573.967702188909
 20
1148.091980795715
 10
1560.5832987433714
 20
1155.0555669401938
 10
1546.9248828549953
 20
1161.3552237378829
 10
1533.0460356120416
 20
1167.0084818198313
 10
1518.997336410725
 20
1172.0384674230586
 10
1504.8254803765417
 20
1176.4729366753938
 10
1490.5726138618963
 20
1180.343308193927
 10
1476.275879411206
 20
1183.683744356622
 10
1461.9671493774238
 20
1186.5303210896313
 10
1447.6729189919756
 20
1188.9203156189508
 10
1433.4143248183805
 20
1190.8916328443238
 10
1419.2072524280488
 20
1192.482385106593
 10
1405.0624968173743
 20
1193.730638550217
 10
1390.9859393011072
 20
1194.6743442774298
 10
1376.9787037590731
 20
1195.3514889644339
 10
1363.037250599376
 20
1195.8005406288398
 10
1349.153353020864
 20
1196.061372430413
 10
1335.3138600562395
 20
1196.1771953852297
 10
1321.4999999999998
 20
1196.1999999999998
 10
1307.6861399437603
 20
1196.1771953852297
 10
1293.8466469791358
 20
1196.061372430413
 10
1279.9627494006236
 20
1195.8005406288398
 10
1266.0212962409264
 20
1195.3514889644339
 10
1252.0140606988925
 20
1194.6743442774298
 10
1237.9375031826253
 20
1193.730638550217
 10
1223.7927475719507
 20
1192.482385106593
 10
1209.585675181619
 20
1190.8916328443238
 10
1195.327081008024
 20
1188.9203156189508
 10
1181.032850622576
 20
1186.5303210896313
 10
1166.7241205887938
 20
1183.683744356622
 10
1152.4273861381034
 20
1180.343308193927
 10
1138.1745196234579
 20
1176.4729366753938
 10
1124.0026635892746
 20
1172.0384674230586
 10
1109.9539643879582
 20
1167.0084818198313
 10
1096.0751171450045
 20
1161.3552237378829
 10
1082.4167012566284
 20
1155.0555669401938
 10
1069.0322978110908
 20
1148.091980795715
 10
1055.9773960935172
 20
1140.4534350282195
 10
1043.308114694224
 20
1132.1361787437145
 10
1031.0797819922975
 20
1123.1443286787764
 10
1019.3454386306094
 20
1113.4902077480967
 10
1008.1543384476356
 20
1103.1943879956143
 10
997.5505317652683
 20
1092.285411346687
 10
987.5716142139887
 20
1080.7991853526664
 10
978.2477147995181
 20
1068.7780766927208
 10
969.6007794373419
 20
1056.2697493107094
 10
961.6441827712008
 20
1043.3258135561166
 10
954.3826747635645
 20
1030.0003650951771
 10
947.8126426820793
 20
1016.3484963402611
 10
941.9226468083448
 20
1002.4248587371031
 10
936.6941717405231
 20
988.2823427122247
 10
932.1025256769454
 20
973.970925555318
 10
928.1178174802732
 20
959.5367185142419
 10
924.7059445343039
 20
945.0212253232858
 10
921.8295316105318
 20
930.4608071823692
 10
919.4487699582058
 20
915.8863350531374
 10
917.5221142166403
 20
901.3229994551755
 10
916.0067998223296
 20
886.7902404103395
 10
914.8591416740675
 20
872.3017547813101
 10
914.0345591687819
 20
857.865533166797
 10
913.4872268434247
 20
843.4838705012497
 10
913.1691226215319
 20
829.1532764731727
 10
913.0278237960267
 20
814.8641627090115
 10
913.0
 20
800.5999999999999
 10
913.0278237960267
 20
786.3358372909884
 10
913.1691226215319
 20
772.0467235268271
 10
913.4872268434247
 20
757.7161294987501
 10
914.0345591687819
 20
743.3344668332026
 10
914.8591416740675
 20
728.8982452186895
 10
916.0067998223296
 20
714.4097595896602
 10
917.5221142166403
 20
699.8770005448243
 10
919.4487699582058
 20
685.3136649468624
 10
921.8295316105318
 20
670.7391928176305
 10
924.7059445343039
 20
656.178774676714
 10
928.1178174802731
 20
641.6632814857579
 10
932.1025256769456
 20
627.2290744446819
 10
936.6941717405231
 20
612.9176572877749
 10
941.9226468083448
 20
598.7751412628966
 10
947.8126426820793
 20
584.8515036597385
 10
954.3826747635645
 20
571.1996349048228
 10
961.6441827712006
 20
557.8741864438832
 10
969.6007794373419
 20
544.9302506892903
 10
978.247714799518
 20
532.421923307279
 10
987.5716142139886
 20
520.4008146473334
 10
997.5505317652683
 20
508.9145886533129
 10
1008.1543384476357
 20
498.0056120043852
 10
1019.3454386306094
 20
487.70979225190297
 10
1031.0797819922977
 20
478.05567132122314
 10
1043.308114694224
 20
469.0638212562852
 10
1055.9773960935172
 20
460.74656497178006
 10
1069.0322978110905
 20
453.10801920428474
 10
1082.4167012566284
 20
446.144433059806
 10
1096.0751171450045
 20
439.8447762621168
 10
1109.953964387958
 20
434.19151818016854
 10
1124.0026635892746
 20
429.16153257694117
 10
1138.1745196234576
 20
424.727063324606
 10
1152.4273861381034
 20
420.8566918060727
 10
1166.7241205887935
 20
417.51625564337775
 10
1181.032850622576
 20
414.6696789103683
 10
1195.327081008024
 20
412.279684381049
 10
1209.5856751816193
 20
410.3083671556758
 10
1223.7927475719507
 20
408.7176148934066
 10
1237.9375031826253
 20
407.4693614497827
 10
1252.0140606988925
 20
406.52565572257
 10
1266.0212962409262
 20
405.84851103556565
 10
1279.9627494006238
 20
405.39945937115994
 10
1293.8466469791356
 20
405.1386275695866
 10
1307.6861399437603
 20
405.02280461477
 10
1321.4999999999998
 20
405.0
 10
1335.3138600562397
 20
405.02280461477
 10
1349.153353020864
 20
405.1386275695867
 10
1363.0372505993757
 20
405.39945937115994
 10
1376.9787037590731
 20
405.8485110355657
 10
1390.985939301107
 20
406.52565572257
 10
1405.0624968173743
 20
407.4693614497827
 10
1419.2072524280488
 20
408.71761489340656
 10
1433.4143248183807
 20
410.30836715567585
 10
1447.6729189919756
 20
412.27968438104887
 10
1461.9671493774238
 20
414.66967891036836
 10
1476.275879411206
 20
417.5162556433777
 10
1490.5726138618961
 20
420.8566918060727
 10
1504.8254803765417
 20
424.7270633246059
 10
1518.997336410725
 20
429.1615325769411
 10
1533.0460356120416
 20
434.19151818016843
 10
1546.924882854995
 20
439.8447762621168
 10
1560.5832987433714
 20
446.14443305980603
 10
1573.967702188909
 20
453.10801920428463
 10
1587.0226039064826
 20
460.7465649717802
 10
1599.6918853057755
 20
469.06382125628517
 10
1611.9202180077018
 20
478.0556713212231
 10
1623.6545613693902
 20
487.70979225190297
 10
1634.8456615523637
 20
498.0056120043851
 10
1645.4494682347315
 20
508.9145886533129
 10
1655.428385786011
 20
520.4008146473333
 10
1664.7522852004818
 20
532.421923307279
 10
1673.3992205626578
 20
544.9302506892902
 10
1681.355817228799
 20
557.8741864438833
 10
1688.6173252364351
 20
571.1996349048227
 10
1695.1873573179203
 20
584.8515036597383
 10
1701.0773531916548
 20
598.7751412628966
 10
1706.3058282594766
 20
612.9176572877748
 10
1710.8974743230542
 20
627.2290744446819
 10
1714.8821825197265
 20
641.6632814857578
 10
1718.2940554656957
 20
656.178774676714
 10
1721.170468389468
 20
670.7391928176304
 10
1723.5512300417938
 20
685.3136649468624
 10
1725.4778857833594
 20
699.8770005448242
 10
1726.9932001776701
 20
714.4097595896601
 10
1728.1408583259322
 20
728.8982452186895
 10
1728.9654408312176
 20
743.3344668332024
 10
1729.512773156575
 20
757.7161294987501
 10
1729.830877378468
 20
772.046723526827
 10
1729.972176203973
 20
786.3358372909884
  0
LWPOLYLINE
  5
B4
330
17
100
AcDbEntity
  8
CUT
100
AcDbPolyline
 90
180
 70
1
 10
1620.0391852318724
 20
790.1747819282634
 10
1620.0988318498871
 20
779.7199356386808
 10
1620.115364666065
 20
769.214260458192
 10
1620.035953269645
 20
758.6435079388096
 10
1619.8120054945894
 20
747.9995447620519
 10
1619.3969640969515
 20
737.2800455796137
 10
1618.7453558929997
 20
726.4884090607877
 10
1617.8124434885788
 20
715.6337740867324
 10
1616.554251597001
 20
704.7310621988747
 10
1614.9278671792458
 20
693.8009904425376
 10
1612.8919585173799
 20
682.8700067615081
 10
1610.4074739823682
 20
671.97010518302
 10
1607.4384831665682
 20
661.1384834345733
 10
1603.953117977173
 20
650.4170131693445
 10
1599.924562901632
 20
639.8515036597385
 10
1595.3320346592284
 20
629.4907539704752
 10
1590.1616842477445
 20
619.3854058256654
 10
1584.4073511814136
 20
609.5866284414623
 10
1578.0711023037422
 20
600.1446855931015
 10
1571.1634970429234
 20
591.1074517128527
 10
1563.7035374322181
 20
582.5189553527873
 10
1555.7182835151123
 20
574.4180327548748
 10
1547.2421406189005
 20
566.8371702891546
 10
1538.3158513082276
 20
559.8016021237365
 10
1528.9852482402562
 20
553.3287099993727
 10
1519.2998416206601
 20
547.4277478685195
 10
1509.3113244367369
 20
542.0998885855288
 10
1499.0720793615892
 20
537.3385660408607
 10
1488.6337637893425
 20
533.1300668393237
 10
1478.0460356120416
 20
529.4543125964567
 10
1467.3554645042768
 20
526.285767791423
 10
1456.6046542297433
 20
523.5944084175144
 10
1445.8315831235582
 20
521.3466921467589
 10
1435.0691541354556
 20
519.5064796457243
 10
1424.3449336116003
 20
518.0358671968183
 10
1413.6810496107314
 20
516.8959011735158
 10
1403.0942156785106
 20
516.0471537088908
 10
1392.5958439120855
 20
515.4501447837662
 10
1382.1922108274207
 20
515.0655975305012
 10
1371.8846397577447
 20
514.8545085539129
 10
1361.669662653466
 20
514.7779985971384
 10
1351.539119639934
 20
514.79686786167
 10
1341.48014090901
 20
514.8706730981673
 10
1331.4749154189644
 20
514.9557955868706
 10
1321.4999999999998
 20
515.0
 10
1311.5250845810353
 20
514.9557955868706
 10
1301.5198590909895
 20
514.8706730981673
 10
1291.4608803600656
 20
514.79686786167
 10
1281.3303373465335
 20
514.7779985971383
 10
1271.1153602422548
 20
514.8545085539129
 10
1260.8077891725789
 20
515.0655975305012
 10
1250.404156087914
 20
515.4501447837663
 10
1239.9057843214891
 20
516.0471537088908
 10
1229.3189503892681
 20
516.8959011735159
 10
1218.6550663883995
 20
518.0358671968182
 10
1207.930845864544
 20
519.5064796457243
 10
1197.1684168764414
 20
521.3466921467589
 10
1186.3953457702562
 20
523.5944084175144
 10
1175.6445354957227
 20
526.285767791423
 10
1164.953964387958
 20
529.4543125964567
 10
1154.366236210657
 20
533.1300668393237
 10
1143.9279206384103
 20
537.3385660408605
 10
1133.6886755632627
 20
542.099888585529
 10
1123.7001583793397
 20
547.4277478685195
 10
1114.0147517597434
 20
553.3287099993728
 10
1104.684148691772
 20
559.8016021237365
 10
1095.757859381099
 20
566.8371702891546
 10
1087.2817164848873
 20
574.418032754875
 10
1079.2964625677816
 20
582.5189553527873
 10
1071.8365029570762
 20
591.1074517128527
 10
1064.9288976962575
 20
600.1446855931015
 10
1058.592648818586
 20
609.5866284414624
 10
1052.8383157522553
 20
619.3854058256654
 10
1047.6679653407714
 20
629.4907539704753
 10
1043.0754370983675
 20
639.8515036597386
 10
1039.0468820228266
 20
650.4170131693445
 10
1035.5615168334314
 20
661.1384834345735
 10
1032.5925260176316
 20
671.9701051830199
 10
1030.1080414826197
 20
682.8700067615082
 10
1028.0721328207537
 20
693.8009904425376
 10
1026.4457484029988
 20
704.7310621988747
 10
1025.187556511421
 20
715.6337740867324
 10
1024.2546441069999
 20
726.4884090607877
 10
1023.6030359030483
 20
737.2800455796137
 10
1023.1879945054104
 20
747.9995447620519
 10
1022.9640467303545
 20
758.6435079388098
 10
1022.8846353339347
 20
769.214260458192
 10
1022.9011681501124
 20
779.7199356386809
 10
1022.9608147681272
 20
790.1747819282634
 10
1023.0
 20
800.5999999999999
 10
1022.9608147681272
 20
811.0252180717363
 10
1022.9011681501124
 20
821.4800643613189
 10
1022.8846353339347
 20
831.9857395418078
 10
1022.9640467303548
 20
842.5564920611898
 10
1023.1879945054104
 20
853.2004552379478
 10
1023.6030359030483
 20
863.9199544203859
 10
1024.2546441069999
 20
874.711590939212
 10
1025.187556511421
 20
885.5662259132673
 10
1026.4457484029986
 20
896.468937801125
 10
1028.0721328207537
 20
907.3990095574623
 10
1030.1080414826197
 20
918.3299932384916
 10
1032.5925260176316
 20
929.2298948169799
 10
1035.5615168334316
 20
940.0615165654262
 10
1039.0468820228266
 20
950.7829868306551
 10
1043.0754370983675
 20
961.3484963402611
 10
1047.6679653407714
 20
971.7092460295245
 10
1052.8383157522553
 20
981.8145941743344
 10
1058.592648818586
 20
991.6133715585374
 10
1064.9288976962575
 20
1001.0553144068983
 10
1071.8365029570764
 20
1010.092548287147
 10
1079.2964625677816
 20
1018.6810446472125
 10
1087.2817164848873
 20
1026.7819672451246
 10
1095.757859381099
 20
1034.362829710845
 10
1104.684148691772
 20
1041.398397876263
 10
1114.0147517597434
 20
1047.871290000627
 10
1123.7001583793397
 20
1053.7722521314802
 10
1133.6886755632627
 20
1059.1001114144708
 10
1143.9279206384103
 20
1063.861433959139
 10
1154.366236210657
 20
1068.069933160676
 10
1164.9539643879582
 20
1071.7456874035431
 10
1175.6445354957225
 20
1074.9142322085765
 10
1186.3953457702564
 20
1077.6055915824854
 10
1197.1684168764414
 20
1079.853307853241
 10
1207.9308458645442
 20
1081.6935203542753
 10
1218.6550663883995
 20
1083.1641328031815
 10
1229.3189503892681
 20
1084.3040988264838
 10
1239.9057843214891
 20
1085.1528462911087
 10
1250.404156087914
 20
1085.7498552162335
 10
1260.8077891725789
 20
1086.1344024694984
 10
1271.1153602422548
 20
1086.3454914460867
 10
1281.3303373465337
 20
1086.4220014028613
 10
1291.4608803600656
 20
1086.4031321383297
 10
1301.5198590909895
 20
1086.3293269018325
 10
1311.5250845810353
 20
1086.2442044131292
 10
1321.4999999999998
 20
1086.1999999999998
 10
1331.4749154189644
 20
1086.2442044131292
 10
1341.48014090901
 20
1086.3293269018325
 10
1351.5391196399341
 20
1086.4031321383297
 10
1361.669662653466
 20
1086.4220014028613
 10
1371.884639757745
 20
1086.3454914460867
 10
1382.1922108274207
 20
1086.1344024694984
 10
1392.5958439120855
 20
1085.7498552162335
 10
1403.0942156785106
 20
1085.1528462911087
 10
1413.6810496107314
 20
1084.3040988264838
 10
1424.3449336116003
 20
1083.1641328031815
 10
1435.0691541354556
 20
1081.6935203542753
 10
1445.8315831235582
 20
1079.853307853241
 10
1456.6046542297433
 20
1077.6055915824854
 10
1467.355464504277
 20
1074.9142322085765
 10
1478.0460356120416
 20
1071.745687403543
 10
1488.6337637893425
 20
1068.069933160676
 10
1499.0720793615892
 20
1063.861433959139
 10
1509.3113244367369
 20
1059.1001114144708
 10
1519.2998416206601
 20
1053.7722521314802
 10
1528.9852482402562
 20
1047.871290000627
 10
1538.3158513082276
 20
1041.398397876263
 10
1547.2421406189005
 20
1034.362829710845
 10
1555.7182835151125
 20
1026.7819672451246
 10
1563.7035374322181
 20
1018.6810446472125
 10
1571.1634970429236
 20
1010.092548287147
 10
1578.0711023037422
 20
1001.0553144068983
 10
1584.4073511814136
 20
991.6133715585373
 10
1590.1616842477442
 20
981.8145941743344
 10
1595.3320346592284
 20
971.7092460295245
 10
1599.924562901632
 20
961.3484963402611
 10
1603.953117977173
 20
950.7829868306552
 10
1607.4384831665682
 20
940.0615165654262
 10
1610.4074739823682
 20
929.2298948169798
 10
1612.8919585173799
 20
918.3299932384915
 10
1614.9278671792458
 20
907.399009557462
 10
1616.554251597001
 20
896.468937801125
 10
1617.8124434885788
 20
885.5662259132673
 10
1618.7453558929997
 20
874.711590939212
 10
1619.3969640969513
 20
863.9199544203859
 10
1619.8120054945894
 20
853.2004552379478
 10
1620.035953269645
 20
842.5564920611898
 10
1620.115364666065
 20
831.9857395418078
 10
1620.0988318498871
 20
821.4800643613188
 10
1620.0391852318724
 20
811.0252180717363
 10
1619.9999999999995
 20
800.5999999999999
  0
LWPOLYLINE
  5
B5
330
17
100
AcDbEntity
  8
CUT
100
AcDbPolyline
 90
8
 70
1
 10
1667.845722317528
 20
849.0772430955944
 42
2.414213562373095
 10
1671.5069152955612
 20
846.4172306938187
 10
1705.680931880153
 20
851.8298631842107
 42
2.414213562373095
 10
1708.3409442819288
 20
855.4910561622439
 10
1706.3698700224218
 20
867.9359292537426
 42
2.414213562373095
 10
1702.7086770443887
 20
870.5959416555183
 10
1668.534660459797
 20
865.1833091651263
 42
2.414213562373095
 10
1665.8746480580212
 20
861.5221161870932
  0
LWPOLYLINE
  5
B6
330
17
100
AcDbEntity
  8
CUT
100
AcDbPolyline
 90
8
 70
1
 10
1650.9451034948693
 20
961.3900091448653
 42
2.414213562373095
 10
1655.2490939714385
 20
959.9915578666291
 10
1686.0779197083561
 20
975.6996291576174
 42
2.414213562373095
 10
1687.4763709865924
 20
980.0036196341867
 10
1681.756090689874
 20
991.2303018389601
 42
2.414213562373095
 10
1677.4521002133047
 20
992.6287531171964
 10
1646.6232744763872
 20
976.9206818262081
 42
2.414213562373095
 10
1645.224823198151
 20
972.6166913496388
  0
LWPOLYLINE
  5
B7
330
17
100
AcDbEntity
  8
CUT
100
AcDbPolyline
 90
8
 70
1
 10
1589.5815065232525
 20
1059.7719610803022
 42
2.414213562373095
 10
1594.1069899228464
 20
1059.7719610803022
 10
1618.572884551901
 20
1084.2378557093566
 42
2.414213562373095
 10
1618.572884551901
 20
1088.7633391089505
 10
1609.6633391089506
 20
1097.672884551901
 42
2.414213562373095
 10
1605.1378557093567
 20
1097.672884551901
 10
1580.671961080302
 20
1073.2069899228466
 42
2.414213562373095
 10
1580.671961080302
 20
1068.6815065232527
  0
LWPOLYLINE
  5
B8
330
17
100
AcDbEntity
  8
CUT
100
AcDbPolyline
 90
8
 70
1
 10
1489.1629907921213
 20
1115.7802047461437
 42
2.414213562373095
 10
1493.4669812686907
 20
1117.1786560243797
 10
1509.175052559679
 20
1148.0074817612974
 42
2.414213562373095
 10
1507.7766012814427
 20
1152.3114722378666
 10
1496.5499190766693
 20
1158.031752534585
 42
2.414213562373095
 10
1492.2459286001
 20
1156.6333012563487
 10
1476.5378573091116
 20
1125.8044755194312
 42
2.414213562373095
 10
1477.9363085873479
 20
1121.5004850428618
  0
LWPOLYLINE
  5
B9
330
17
100
AcDbEntity
  8
CUT
100
AcDbPolyline
 90
8
 70
1
 10
1380.4190511523227
 20
1132.3277931607465
 42
2.414213562373095
 10
1384.0802441303558
 20
1134.9878055625222
 10
1389.492876620748
 20
1169.161822147114
 42
2.414213562373095
 10
1386.8328642189722
 20
1172.823015125147
 10
1374.3879911274735
 20
1174.7940893846542
 42
2.414213562373095
 10
1370.7267981494401
 20
1172.1340769828785
 10
1365.3141656590483
 20
1137.9600603982867
 42
2.414213562373095
 10
1367.974178060824
 20
1134.2988674202534
  0
LWPOLYLINE
  5
BA
330
17
100
AcDbEntity
  8
CUT
100
AcDbPolyline
 90
8
 70
1
 10
1275.0258219391758
 20
1134.2988674202534
 42
2.414213562373095
 10
1277.6858343409515
 20
1137.9600603982867
 10
1272.2732018505594
 20
1172.1340769828785
 42
2.414213562373095
 10
1268.6120088725263
 20
1174.7940893846542
 10
1256.1671357810276
 20
1172.823015125147
 42
2.414213562373095
 10
1253.5071233792519
 20
1169.161822147114
 10
1258.9197558696437
 20
1134.9878055625222
 42
2.414213562373095
 10
1262.580948847677
 20
1132.3277931607465
  0
LWPOLYLINE
  5
BB
330
17
100
AcDbEntity
  8
CUT
100
AcDbPolyline
 90
8
 70
1
 10
1165.063691412652
 20
1121.5004850428618
 42
2.414213562373095
 10
1166.4621426908882
 20
1125.804475519431
 10
1150.7540713998999
 20
1156.6333012563487
 42
2.414213562373095
 10
1146.4500809233305
 20
1158.031752534585
 10
1135.223398718557
 20
1152.3114722378666
 42
2.414213562373095
 10
1133.8249474403208
 20
1148.0074817612972
 10
1149.533018731309
 20
1117.1786560243797
 42
2.414213562373095
 10
1153.8370092078785
 20
1115.7802047461435
  0
LWPOLYLINE
  5
BC
330
17
100
AcDbEntity
  8
CUT
100
AcDbPolyline
 90
8
 70
1
 10
1062.3280389196975
 20
1068.6815065232527
 42
2.414213562373095
 10
1062.3280389196975
 20
1073.2069899228466
 10
1037.862144290643
 20
1097.672884551901
 42
2.414213562373095
 10
1033.3366608910492
 20
1097.672884551901
 10
1024.4271154480987
 20
1088.7633391089505
 42
2.414213562373095
 10
1024.4271154480987
 20
1084.2378557093566
 10
1048.8930100771531
 20
1059.7719610803022
 42
2.414213562373095
 10
1053.418493476747
 20
1059.7719610803022
  0
LWPOLYLINE
  5
BD
330
17
100
AcDbEntity
  8
CUT
100
AcDbPolyline
 90
8
 70
1
 10
997.7751768018486
 20
972.6166913496388
 42
2.414213562373095
 10
996.3767255236124
 20
976.9206818262082
 10
965.5478997866949
 20
992.6287531171965
 42
2.414213562373095
 10
961.2439093101257
 20
991.2303018389603
 10
955.5236290134073
 20
980.0036196341869
 42
2.414213562373095
 10
956.9220802916435
 20
975.6996291576174
 10
987.7509060285611
 20
959.9915578666291
 42
2.414213562373095
 10
992.0548965051303
 20
961.3900091448654
  0
LWPOLYLINE
  5
BE
330
17
100
AcDbEntity
  8
CUT
100
AcDbPolyline
 90
8
 70
1
 10
977.1253519419786
 20
861.5221161870932
 42
2.414213562373095
 10
974.4653395402028
 20
865.1833091651264
 10
940.291322955611
 20
870.5959416555183
 42
2.414213562373095
 10
936.6301299775778
 20
867.9359292537426
 10
934.6590557180709
 20
855.4910561622439
 42
2.414213562373095
 10
937.3190681198466
 20
851.8298631842108
 10
971.4930847044384
 20
846.4172306938187
 42
2.414213562373095
 10
975.1542776824715
 20
849.0772430955944
  0
LWPOLYLINE
  5
BF
330
17
100
AcDbEntity
  8
CUT
100
AcDbPolyline
 90
8
 70
1
 10
975.1542776824716
 20
752.1227569044054
 42
2.414213562373095
 10
971.4930847044384
 20
754.7827693061811
 10
937.3190681198466
 20
749.370136815789
 42
2.414213562373095
 10
934.6590557180709
 20
745.7089438377559
 10
936.6301299775779
 20
733.2640707462572
 42
2.414213562373095
 10
940.2913229556111
 20
730.6040583444815
 10
974.4653395402029
 20
736.0166908348734
 42
2.414213562373095
 10
977.1253519419786
 20
739.6778838129067
  0
LWPOLYLINE
  5
C0
330
17
100
AcDbEntity
  8
CUT
100
AcDbPolyline
 90
8
 70
1
 10
992.0548965051303
 20
639.8099908551344
 42
2.414213562373095
 10
987.7509060285611
 20
641.2084421333707
 10
956.9220802916435
 20
625.5003708423824
 42
2.414213562373095
 10
955.5236290134073
 20
621.196380365813
 10
961.2439093101257
 20
609.9696981610396
 42
2.414213562373095
 10
965.5478997866949
 20
608.5712468828033
 10
996.3767255236124
 20
624.2793181737916
 42
2.414213562373095
 10
997.7751768018486
 20
628.583308650361
  0
LWPOLYLINE
  5
C1
330
17
100
AcDbEntity
  8
CUT
100
AcDbPolyline
 90
8
 70
1
 10
1053.418493476747
 20
541.4280389196977
 42
2.414213562373095
 10
1048.8930100771531
 20
541.4280389196977
 10
1024.4271154480987
 20
516.9621442906432
 42
2.414213562373095
 10
1024.4271154480987
 20
512.4366608910493
 10
1033.3366608910492
 20
503.52711544809875
 42
2.414213562373095
 10
1037.862144290643
 20
503.52711544809875
 10
1062.3280389196975
 20
527.9930100771533
 42
2.414213562373095
 10
1062.3280389196975
 20
532.5184934767472
  0
LWPOLYLINE
  5
C2
330
17
100
AcDbEntity
  8
CUT
100
AcDbPolyline
 90
8
 70
1
 10
1153.8370092078783
 20
485.4197952538562
 42
2.414213562373095
 10
1149.533018731309
 20
484.02134397561997
 10
1133.8249474403208
 20
453.1925182387024
 42
2.414213562373095
 10
1135.2233987185568
 20
448.88852776213315
 10
1146.4500809233305
 20
443.1682474654148
 42
2.414213562373095
 10
1150.7540713998997
 20
444.56669874365105
 10
1166.462142690888
 20
475.3955244805686
 42
2.414213562373095
 10
1165.0636914126517
 20
479.69951495713786
  0
LWPOLYLINE
  5
C3
330
17
100
AcDbEntity
  8
CUT
100
AcDbPolyline
 90
8
 70
1
 10
1262.580948847677
 20
468.8722068392533
 42
2.414213562373095
 10
1258.9197558696437
 20
466.21219443747754
 10
1253.5071233792519
 20
432.0381778528858
 42
2.414213562373095
 10
1256.1671357810274
 20
428.3769848748526
 10
1268.6120088725263
 20
426.40591061534565
 42
2.414213562373095
 10
1272.2732018505594
 20
429.0659230171214
 10
1277.6858343409513
 20
463.23993960171316
 42
2.414213562373095
 10
1275.0258219391758
 20
466.90113257974633
  0
LWPOLYLINE
  5
C4
330
17
100
AcDbEntity
  8
CUT
100
AcDbPolyline
 90
8
 70
1
 10
1367.9741780608238
 20
466.9011325797463
 42
2.414213562373095
 10
1365.314165659048
 20
463.2399396017131
 10
1370.7267981494401
 20
429.06592301712135
 42
2.414213562373095
 10
1374.3879911274732
 20
426.4059106153456
 10
1386.832864218972
 20
428.37698487485255
 42
2.414213562373095
 10
1389.4928766207477
 20
432.0381778528857
 10
1384.0802441303558
 20
466.2121944374775
 42
2.414213562373095
 10
1380.4190511523225
 20
468.87220683925324
  0
LWPOLYLINE
  5
C5
330
17
100
AcDbEntity
  8
CUT
100
AcDbPolyline
 90
8
 70
1
 10
1477.9363085873479
 20
479.69951495713786
 42
2.414213562373095
 10
1476.5378573091116
 20
475.3955244805686
 10
1492.2459286001
 20
444.56669874365105
 42
2.414213562373095
 10
1496.549919076669
 20
443.1682474654148
 10
1507.7766012814427
 20
448.88852776213315
 42
2.414213562373095
 10
1509.1750525596788
 20
453.1925182387024
 10
1493.4669812686905
 20
484.02134397561997
 42
2.414213562373095
 10
1489.1629907921213
 20
485.4197952538562
  0
LWPOLYLINE
  5
C6
330
17
100
AcDbEntity
  8
CUT
100
AcDbPolyline
 90
8
 70
1
 10
1580.671961080302
 20
532.518493476747
 42
2.414213562373095
 10
1580.671961080302
 20
527.9930100771531
 10
1605.1378557093567
 20
503.5271154480986
 42
2.414213562373095
 10
1609.6633391089504
 20
503.5271154480986
 10
1618.572884551901
 20
512.4366608910491
 42
2.414213562373095
 10
1618.572884551901
 20
516.962144290643
 10
1594.1069899228464
 20
541.4280389196975
 42
2.414213562373095
 10
1589.5815065232525
 20
541.4280389196975
  0
LWPOLYLINE
  5
C7
330
17
100
AcDbEntity
  8
CUT
100
AcDbPolyline
 90
8
 70
1
 10
1645.224823198151
 20
628.5833086503608
 42
2.414213562373095
 10
1646.6232744763872
 20
624.2793181737915
 10
1677.4521002133047
 20
608.5712468828032
 42
2.414213562373095
 10
1681.756090689874
 20
609.9696981610393
 10
1687.4763709865924
 20
621.1963803658128
 42
2.414213562373095
 10
1686.0779197083561
 20
625.5003708423822
 10
1655.2490939714385
 20
641.2084421333705
 42
2.414213562373095
 10
1650.9451034948693
 20
639.8099908551343
  0
LWPOLYLINE
  5
C8
330
17
100
AcDbEntity
  8
CUT
100
AcDbPolyline
 90
8
 70
1
 10
1665.8746480580212
 20
739.6778838129064
 42
2.414213562373095
 10
1668.534660459797
 20
736.0166908348733
 10
1702.7086770443887
 20
730.6040583444812
 42
2.414213562373095
 10
1706.3698700224218
 20
733.264070746257
 10
1708.3409442819288
 20
745.7089438377557
 42
2.414213562373095
 10
1705.680931880153
 20
749.3701368157889
 10
1671.5069152955612
 20
754.7827693061809
 42
2.414213562373095
 10
1667.845722317528
 20
752.1227569044052
  0
TEXT
  5
C9
330
17
100
AcDbEntity
  8
ENGRAVE-LABEL
100
AcDbText
 10
1009.039556659476
 20
1026.9461871480657
 30
0.0
 40
11.0
  1
01 BASE-RING
 72
1
 11
1009.039556659476
 21
1026.9461871480657
 31
0.0
100
AcDbText
 73
2
  0
LWPOLYLINE
  5
CA
330
17
100
AcDbEntity
  8
CUT
100
AcDbPolyline
 90
122
 70
1
 10
732.2496702461308
 20
1022.1370849898476
 10
722.3464952104371
 20
1030.9344243965568
 10
712.103479307443
 20
1039.3202555855403
 10
701.5438423621102
 20
1047.28522764656
 10
690.6921129503539
 20
1054.8228325294751
 10
679.5737428315246
 20
1061.9294038126575
 10
668.214717832006
 20
1068.6040564606208
 10
656.641176879895
 20
1074.8485733561433
 10
644.8790496740298
 20
1080.6672461770418
 10
632.9537217958873
 20
1086.0666794179285
 10
620.8897340988781
 20
1091.0555670137064
 10
608.7105210992072
 20
1095.6444511348109
 10
596.438190996292
 20
1099.8454723649293
 10
584.0933479946368
 20
1103.6721197381942
 10
571.6949558767227
 20
1107.138988117241
 10
559.2602403465165
 20
1110.2615492514904
 10
546.8046265506146
 20
1113.0559416759502
 10
534.3417073841777
 20
1115.5387834927947
 10
521.8832376733252
 20
1117.7270111064433
 10
509.4391490483988
 20
1119.637746234163
 10
497.01758022479726
 20
1121.2881930642727
 10
484.62491742178975
 20
1122.6955673755858
 10
472.2658396972198
 20
1123.8770599060724
 10
459.94336396459386
 20
1124.8498375188922
 10
447.6588842652603
 20
1125.6310882611674
 10
435.4121993008094
 20
1126.2381213216026
 10
423.2015209390841
 20
1126.6885426986498
 10
411.0234536363399
 20
1127.000548810368
 10
398.8729285285927
 20
1127.1934345544496
 10
386.7430600286527
 20
1127.2885884260068
 10
374.62483512306534
 20
1127.3122498667822
 10
362.50661021747806
 20
1127.2885884260068
 10
350.37674171753804
 20
1127.1934345544496
 10
338.2262166097908
 20
1127.000548810368
 10
326.0481493070465
 20
1126.6885426986498
 10
313.83747094532134
 20
1126.2381213216026
 10
301.59078598087035
 20
1125.6310882611674
 10
289.30630628153676
 20
1124.8498375188922
 10
276.983830548911
 20
1123.8770599060724
 10
264.624752824341
 20
1122.6955673755858
 10
252.23209002133336
 20
1121.2881930642727
 10
239.81052119773193
 20
1119.637746234163
 10
227.36643257280554
 20
1117.7270111064433
 10
214.9079628619529
 20
1115.5387834927947
 10
202.44504369551615
 20
1113.0559416759502
 10
189.98942989961418
 20
1110.2615492514904
 10
177.55471436940798
 20
1107.138988117241
 10
165.15632225149412
 20
1103.672119738194
 10
152.81147924983887
 20
1099.8454723649293
 10
140.53914914692342
 20
1095.6444511348109
 10
128.35993614725282
 20
1091.0555670137064
 10
116.29594845024349
 20
1086.0666794179285
 10
104.37062057210079
 20
1080.6672461770418
 10
92.60849336623568
 20
1074.8485733561436
 10
81.03495241412463
 20
1068.6040564606208
 10
69.67592741460612
 20
1061.9294038126575
 10
58.5575572957768
 20
1054.8228325294751
 10
47.70582788402049
 20
1047.28522764656
 10
37.14619093868771
 20
1039.3202555855403
 10
26.903175035693835
 20
1030.934424396557
 10
17.0
 20
1022.1370849898476
 10
130.13708498984758
 20
909.0
 10
137.03990714669445
 20
914.8745250345909
 10
144.20708795610503
 20
920.4170835091572
 10
151.61751561684986
 20
925.6202731505551
 10
159.24881986375075
 20
930.4794786963598
 10
167.07775605600145
 20
934.9928693660598
 10
175.0805927809203
 20
939.1613373606291
 10
183.2334912742089
 20
942.9883831766209
 10
191.5128661745051
 20
946.479955305774
 10
199.8957188047953
 20
949.6442531212738
 10
208.3599361472528
 20
952.4915024081963
 10
216.88455078846079
 20
955.0337131088964
 10
225.44995920816635
 20
957.2844284947903
 10
234.0380977408213
 20
959.2584742422164
 10
242.63257726153603
 20
960.971714894425
 10
251.21877907802852
 20
962.4408240496845
 10
259.7839156227642
 20
963.683073436398
 10
268.31706033935626
 20
964.7161449180461
 10
276.8091516727971
 20
965.5579684992188
 10
285.2529763503595
 20
966.226588655252
 10
293.6431372377367
 20
966.7400608580218
 10
301.97601104128586
 20
967.1163801119576
 10
310.2497010797524
 20
967.3734437886635
 10
318.4639903602804
 20
967.5290523086594
 10
326.62030038730734
 20
967.6009537659453
 10
334.7216617005296
 20
967.6069435017929
 10
342.77270342987106
 20
967.5650394397262
 10
350.779671926246
 20
967.4937754130674
 10
358.75049471640904
 20
967.4127089937177
 10
366.69492194673774
 20
967.3434164299175
 10
374.62483512306534
 20
967.312249866782
 10
382.554748299393
 20
967.3434164299175
 10
390.49917552972164
 20
967.4127089937177
 10
398.4699983198847
 20
967.4937754130674
 10
406.47696681625956
 20
967.5650394397262
 10
414.5280085456011
 20
967.6069435017929
 10
422.6293698588234
 20
967.6009537659453
 10
430.7856798858503
 20
967.5290523086594
 10
438.99996916637826
 20
967.3734437886635
 10
447.2736592048449
 20
967.1163801119576
 10
455.60653300839397
 20
966.7400608580218
 10
463.99669389577116
 20
966.226588655252
 10
472.4405185733336
 20
965.5579684992188
 10
480.93260990677436
 20
964.7161449180461
 10
489.46575462336654
 20
963.683073436398
 10
498.0308911681022
 20
962.4408240496844
 10
506.61709298459465
 20
960.971714894425
 10
515.2115725053095
 20
959.2584742422164
 10
523.7997110379645
 20
957.2844284947904
 10
532.3651194576698
 20
955.0337131088964
 10
540.889734098878
 20
952.4915024081963
 10
549.3539514413354
 20
949.6442531212738
 10
557.7368040716256
 20
946.479955305774
 10
566.0161789719218
 20
942.9883831766209
 10
574.1690774652104
 20
939.1613373606291
 10
582.1719141901292
 20
934.9928693660598
 10
590.0008503823799
 20
930.4794786963597
 10
597.6321546292809
 20
925.620273150555
 10
605.0425822900256
 20
920.4170835091572
 10
612.2097630994364
 20
914.8745250345909
 10
619.1125852562832
 20
909.0
  0
LWPOLYLINE
  5
CB
330
17
100
AcDbEntity
  8
CUT
100
AcDbPolyline
 90
8
 70
1
 10
593.6666232109382
 20
955.2792066333727
 42
2.414213562373095
 10
598.1363904002739
 20
955.9871482080366
 10
659.6187277900665
 20
1040.610325819656
 42
2.414213562373095
 10
658.9107862154026
 20
1045.0800930089918
 10
648.7171720862783
 20
1052.486187187877
 42
2.414213562373095
 10
644.2474048969425
 20
1051.7782456132131
 10
582.7650675071499
 20
967.1550680015936
 42
2.414213562373095
 10
583.4730090818138
 20
962.6853008122579
  0
LWPOLYLINE
  5
CC
330
17
100
AcDbEntity
  8
CUT
100
AcDbPolyline
 90
8
 70
1
 10
486.0030909881793
 20
986.9120460838877
 42
2.414213562373095
 10
490.0353262223236
 20
988.9665725540325
 10
522.3585038339431
 20
1088.4470841585055
 42
2.414213562373095
 10
520.3039773637984
 20
1092.4793193926498
 10
508.3206652584795
 20
1096.3729335217743
 42
2.414213562373095
 10
504.2884300243352
 20
1094.3184070516295
 10
471.9652524127157
 20
994.8378954471565
 42
2.414213562373095
 10
474.01977888286035
 20
990.8056602130121
  0
LWPOLYLINE
  5
CD
330
17
100
AcDbEntity
  8
CUT
100
AcDbPolyline
 90
8
 70
1
 10
380.92483512306535
 20
991.812249866782
 42
2.414213562373095
 10
384.12483512306534
 20
995.0122498667821
 10
384.12483512306534
 20
1099.6122498667821
 42
2.414213562373095
 10
380.92483512306535
 20
1102.8122498667822
 10
368.3248351230654
 20
1102.8122498667822
 42
2.414213562373095
 10
365.12483512306534
 20
1099.6122498667821
 10
365.12483512306534
 20
995.0122498667821
 42
2.414213562373095
 10
368.3248351230654
 20
991.812249866782
  0
LWPOLYLINE
  5
CE
330
17
100
AcDbEntity
  8
CUT
100
AcDbPolyline
 90
8
 70
1
 10
275.2298913632704
 20
990.8056602130122
 42
2.414213562373095
 10
277.28441783341503
 20
994.8378954471565
 10
244.96124022179555
 20
1094.3184070516295
 42
2.414213562373095
 10
240.9290049876512
 20
1096.3729335217743
 10
228.94569288233228
 20
1092.4793193926498
 42
2.414213562373095
 10
226.8911664121876
 20
1088.4470841585055
 10
259.21434402380714
 20
988.9665725540325
 42
2.414213562373095
 10
263.24657925795145
 20
986.9120460838878
  0
LWPOLYLINE
  5
CF
330
17
100
AcDbEntity
  8
CUT
100
AcDbPolyline
 90
8
 70
1
 10
165.7766611643169
 20
962.6853008122579
 42
2.414213562373095
 10
166.4846027389808
 20
967.1550680015937
 10
105.00226534918812
 20
1051.7782456132131
 42
2.414213562373095
 10
100.53249815985237
 20
1052.486187187877
 10
90.33888403072808
 20
1045.080093008992
 42
2.414213562373095
 10
89.63094245606413
 20
1040.610325819656
 10
151.11327984585682
 20
955.9871482080367
 42
2.414213562373095
 10
155.58304703519255
 20
955.2792066333727
  0
TEXT
  5
D0
330
17
100
AcDbEntity
  8
ENGRAVE-LABEL
100
AcDbText
 10
180.17521243115067
 20
1045.6722517888495
 30
0.0
 40
11.0
  1
16 BACK-BAND-2
 50
60.0
 72
1
 11
180.17521243115067
 21
1045.6722517888495
 31
0.0
100
AcDbText
 73
2
  0
LWPOLYLINE
  5
D1
330
17
100
AcDbEntity
  8
CUT
100
AcDbPolyline
 90
122
 70
1
 10
761.1462625294213
 20
461.0855830165186
 10
751.2764667387465
 20
464.677675269084
 10
741.3361864169445
 20
468.00899975462744
 10
731.3365963785261
 20
471.0863092432207
 10
721.288253399161
 20
473.9169935345306
 10
711.201042696933
 20
476.5089973025675
 10
701.0841347122247
 20
478.87074130351715
 10
690.9459515496053
 20
481.0110484519395
 10
680.7941422458455
 20
482.93907610523263
 10
670.6355658668747
 20
484.66425575625203
 10
660.4762813086904
 20
486.19624123755557
 10
650.3215425759489
 20
487.54486650991157
 10
640.1757982275984
 20
488.72011417206016
 10
630.0426935986825
 20
489.73209603274006
 10
619.9250743139507
 20
490.5910475028041
 10
609.8249894772796
 20
491.3073383244991
 10
599.7436927124031
 20
491.8915035027954
 10
589.6816388791262
 20
492.3543007419757
 10
579.6384736707716
 20
492.70680533408336
 10
569.6130121515837
 20
492.9605630526423
 10
559.603199987908
 20
493.1278440887917
 10
549.6060458464272
 20
493.22210469636303
 10
539.6174980967802
 20
493.25901693306133
 10
529.6321721493505
 20
493.25901693306133
 10
519.6436243997036
 20
493.22210469636303
 10
509.64647025822273
 20
493.1278440887917
 10
499.636658094547
 20
492.9605630526423
 10
489.6111965753591
 20
492.70680533408336
 10
479.56803136700455
 20
492.3543007419757
 10
469.50597753372756
 20
491.8915035027954
 10
459.4246807688512
 20
491.3073383244991
 10
449.32459593217993
 20
490.5910475028041
 10
439.2069766474482
 20
489.73209603274006
 10
429.0738720185323
 20
488.72011417206016
 10
418.9281276701819
 20
487.54486650991157
 10
408.77338893744025
 20
486.19624123755557
 10
398.614104379256
 20
484.66425575625203
 10
388.4555280002852
 20
482.93907610523263
 10
378.3037186965254
 20
481.0110484519395
 10
368.1655355339061
 20
478.87074130351715
 10
358.04862754919776
 20
476.5089973025675
 10
347.9614168469697
 20
473.9169935345306
 10
337.9130738676046
 20
471.0863092432207
 10
327.91348382918613
 20
468.00899975462744
 10
317.97320350738426
 20
464.677675269084
 10
308.1034077167095
 20
461.0855830165186
 10
298.31582509548775
 20
457.22669109528124
 10
288.62266307450136
 20
453.09577214780586
 10
279.036522221277
 20
448.6884848815911
 10
269.5703004910878
 20
444.00145133656974
 10
260.2370882713587
 20
439.0323277437504
 10
251.0500554649991
 20
433.77986682712014
 10
242.0223322046183
 20
428.24396948062076
 10
233.1668851065537
 20
422.42572391045076
 10
224.49639124372595
 20
416.3274305716176
 10
216.02311222292377
 20
409.9526115433354
 10
207.75877088075674
 20
403.3060033722563
 10
199.7144331521552
 20
396.3935328524083
 10
191.90039760936304
 20
389.22227568859006
 10
184.3260950165698
 20
381.80039848496386
 10
177.0
 20
374.13708498984755
 10
290.1370849898476
 20
261.0
 10
295.0690028358349
 20
266.31876198922595
 10
300.2005527585888
 20
271.4467417494326
 10
305.5243316039396
 20
276.37576171153484
 10
311.0320009165889
 20
281.0986387907136
 10
316.71437479089775
 20
285.60925771022005
 10
322.5615198282022
 20
289.90262859150715
 10
328.5628651010523
 20
293.97492787987244
 10
334.70731977944695
 20
297.8235221640521
 10
340.98339592134005
 20
301.44697494319024
 10
347.379333873763
 20
304.8450368724826
 10
353.88322777055623
 20
308.01862045867153
 10
360.48314874133644
 20
310.9697605609601
 10
367.1672636529239
 20
313.70156236857554
 10
373.92394747453636
 20
316.2181387648825
 10
380.741887675037
 20
318.52453914637977
 10
387.61017940695666
 20
320.62667184473304
 10
394.51841059085035
 20
322.53122230709647
 10
401.4567363691695
 20
324.2455691337837
 10
408.4159427379244
 20
325.7776999649314
 10
415.3874994764458
 20
327.13612906301523
 10
422.3636027731527
 20
328.3298182708411
 10
429.3372081842166
 20
329.36810285040576
 10
436.3020547612591
 20
330.2606235426283
 10
443.25268134553266
 20
331.0172660479412
 10
450.18443615384354
 20
331.64810903130467
 10
457.09348088275476
 20
332.1633817243698
 10
463.97679064197916
 20
332.5734322618606
 10
470.8321511081084
 20
332.88870809326454
 10
477.6581543833133
 20
333.11975022772543
 10
484.4541951752881
 20
333.277203829277
 10
491.2204691232163
 20
333.3718490273644
 10
497.9579754458632
 20
333.4146582459122
 10
504.66852670632136
 20
333.4168909975906
 10
511.354769634968
 20
333.39024669672904
 10
518.0202232570938
 20
333.34711852805987
 10
524.6693458522042
 20
333.30105503784597
 10
531.3076576079499
 20
333.2677898345794
 10
537.9420126381808
 20
333.2677898345794
 10
544.5803243939265
 20
333.30105503784597
 10
551.2294469890369
 20
333.34711852805987
 10
557.8949006111627
 20
333.39024669672904
 10
564.5811435398093
 20
333.4168909975906
 10
571.2916948002676
 20
333.4146582459122
 10
578.0292011229144
 20
333.3718490273644
 10
584.7954750708426
 20
333.277203829277
 10
591.5915158628175
 20
333.11975022772543
 10
598.4175191380223
 20
332.88870809326454
 10
605.2728796041515
 20
332.5734322618606
 10
612.1561893633759
 20
332.1633817243698
 10
619.0652340922871
 20
331.64810903130467
 10
625.996988900598
 20
331.0172660479412
 10
632.9476154848717
 20
330.2606235426283
 10
639.9124620619141
 20
329.36810285040576
 10
646.8860674729781
 20
328.3298182708411
 10
653.8621707696849
 20
327.13612906301523
 10
660.8337275082063
 20
325.7776999649314
 10
667.7929338769612
 20
324.2455691337837
 10
674.7312596552804
 20
322.53122230709647
 10
681.6394908391741
 20
320.62667184473304
 10
688.5077825710938
 20
318.52453914637977
  0
LWPOLYLINE
  5
D2
330
17
100
AcDbEntity
  8
CUT
100
AcDbPolyline
 90
8
 70
1
 10
649.9911561243025
 20
351.1860484985167
 42
2.414213562373095
 10
654.0233913584468
 20
353.2405749686614
 10
686.3465689700663
 20
452.7210865731344
 42
2.414213562373095
 10
684.2920424999216
 20
456.7533218072788
 10
672.3087303946027
 20
460.6469359364031
 42
2.414213562373095
 10
668.2764951604584
 20
458.5924094662584
 10
635.9533175488389
 20
359.1118978617854
 42
2.414213562373095
 10
638.0078440189835
 20
355.079662627641
  0
LWPOLYLINE
  5
D3
330
17
100
AcDbEntity
  8
CUT
100
AcDbPolyline
 90
8
 70
1
 10
540.9248351230653
 20
357.76224986678204
 42
2.414213562373095
 10
544.1248351230654
 20
360.96224986678203
 10
544.1248351230654
 20
465.56224986678205
 42
2.414213562373095
 10
540.9248351230653
 20
468.76224986678204
 10
528.3248351230654
 20
468.76224986678204
 42
2.414213562373095
 10
525.1248351230654
 20
465.56224986678205
 10
525.1248351230654
 20
360.96224986678203
 42
2.414213562373095
 10
528.3248351230654
 20
357.76224986678204
  0
LWPOLYLINE
  5
D4
330
17
100
AcDbEntity
  8
CUT
100
AcDbPolyline
 90
8
 70
1
 10
431.24182622714716
 20
355.079662627641
 42
2.414213562373095
 10
433.2963526972918
 20
359.1118978617854
 10
400.9731750856723
 20
458.5924094662584
 42
2.414213562373095
 10
396.940939851528
 20
460.6469359364031
 10
384.9576277462091
 20
456.7533218072788
 42
2.414213562373095
 10
382.90310127606443
 20
452.7210865731344
 10
415.22627888768386
 20
353.2405749686614
 42
2.414213562373095
 10
419.2585141218282
 20
351.1860484985167
  0
LWPOLYLINE
  5
D5
330
17
100
AcDbEntity
  8
CUT
100
AcDbPolyline
 90
8
 70
1
 10
322.3139823000445
 20
319.45126939744006
 42
2.414213562373095
 10
323.02192387470836
 20
323.9210365867758
 10
261.5395864849157
 20
408.54421419839525
 42
2.414213562373095
 10
257.06981929557986
 20
409.2521557730592
 10
246.87620516645558
 20
401.84606159417405
 42
2.414213562373095
 10
246.16826359179169
 20
397.3762944048383
 10
307.6506009815844
 20
312.75311679321885
 42
2.414213562373095
 10
312.12036817092013
 20
312.0451752185549
  0
TEXT
  5
D6
330
17
100
AcDbEntity
  8
ENGRAVE-LABEL
100
AcDbText
 10
335.33948747861274
 20
407.66621021999225
 30
0.0
 40
11.0
  1
15 BACK-BAND-1
 72
1
 11
335.33948747861274
 21
407.66621021999225
 31
0.0
100
AcDbText
 73
2
  0
LWPOLYLINE
  5
D7
330
17
100
AcDbEntity
  8
CUT
100
AcDbPolyline
 90
122
 70
1
 10
857.0
 20
136.12193194321384
 10
864.3260950165698
 20
128.45861844809747
 10
871.900397609363
 20
121.03674124447133
 10
879.7144331521554
 20
113.86548408065295
 10
887.7587708807569
 20
106.95301356080495
 10
896.0231122229238
 20
100.30640538972591
 10
904.4963912437258
 20
93.93158636144392
 10
913.1668851065538
 20
87.83329302261052
 10
922.0223322046182
 20
82.01504745244063
 10
931.0500554649992
 20
76.47915010594113
 10
940.2370882713586
 20
71.226689189311
 10
949.5703004910878
 20
66.25756559649165
 10
959.0365222212771
 20
61.570532051470195
 10
968.6226630745012
 20
57.16324478525553
 10
978.315825095488
 20
53.032325837780036
 10
988.1034077167094
 20
49.173433916542706
 10
997.9732035073841
 20
45.581341663977355
 10
1007.9134838291861
 20
42.25001717843389
 10
1017.9130738676046
 20
39.17270768984065
 10
1027.9614168469698
 20
36.34202339853073
 10
1038.0486275491978
 20
33.75001963049385
 10
1048.1655355339058
 20
31.38827562954424
 10
1058.3037186965255
 20
29.24796848112186
 10
1068.455528000285
 20
27.319940827828646
 10
1078.614104379256
 20
25.5947611768093
 10
1088.7733889374401
 20
24.062775695505877
 10
1098.9281276701818
 20
22.71415042314976
 10
1109.0738720185325
 20
21.538902761001168
 10
1119.206976647448
 20
20.52692090032133
 10
1129.32459593218
 20
19.6679694302573
 10
1139.424680768851
 20
18.95167860856219
 10
1149.5059775337274
 20
18.367513430265944
 10
1159.5680313670046
 20
17.90471619108564
 10
1169.611196575359
 20
17.552211598977976
 10
1179.6366580945469
 20
17.298453880419004
 10
1189.6464702582227
 20
17.131172844269656
 10
1199.6436243997034
 20
17.0369122366983
 10
1209.6321721493505
 20
17.0
 10
1219.61749809678
 20
17.0
 10
1229.6060458464272
 20
17.0369122366983
 10
1239.6031999879078
 20
17.131172844269656
 10
1249.6130121515837
 20
17.298453880419004
 10
1259.6384736707719
 20
17.552211598977976
 10
1269.681638879126
 20
17.90471619108564
 10
1279.7436927124033
 20
18.367513430265944
 10
1289.8249894772794
 20
18.951678608562247
 10
1299.9250743139507
 20
19.6679694302573
 10
1310.0426935986825
 20
20.526920900321272
 10
1320.1757982275983
 20
21.538902761001168
 10
1330.321542575949
 20
22.71415042314976
 10
1340.4762813086904
 20
24.06277569550582
 10
1350.6355658668745
 20
25.5947611768093
 10
1360.7941422458457
 20
27.319940827828646
 10
1370.945951549605
 20
29.24796848112186
 10
1381.0841347122246
 20
31.388275629544182
 10
1391.201042696933
 20
33.75001963049391
 10
1401.288253399161
 20
36.34202339853067
 10
1411.3365963785263
 20
39.172707689840706
 10
1421.3361864169444
 20
42.25001717843378
 10
1431.2764667387466
 20
45.581341663977355
 10
1441.1462625294212
 20
49.173433916542706
 10
1368.5077825710937
 20
191.73447778668157
 10
1361.6394908391742
 20
189.6323450883283
 10
1354.7312596552804
 20
187.72779462596475
 10
1347.7929338769613
 20
186.01344779927769
 10
1340.8337275082063
 20
184.48131696812987
 10
1333.862170769685
 20
183.12288787004616
 10
1326.886067472978
 20
181.92919866222024
 10
1319.912462061914
 20
180.89091408265557
 10
1312.9476154848717
 20
179.99839339043297
 10
1305.996988900598
 20
179.2417508851202
 10
1299.0652340922873
 20
178.61090790175672
 10
1292.156189363376
 20
178.09563520869153
 10
1285.2728796041515
 20
177.68558467120073
 10
1278.4175191380223
 20
177.3703088397968
 10
1271.5915158628175
 20
177.139266705336
 10
1264.7954750708427
 20
176.9818131037843
 10
1258.0292011229146
 20
176.8871679056969
 10
1251.2916948002676
 20
176.8443586871491
 10
1244.5811435398095
 20
176.84212593547073
 10
1237.8949006111627
 20
176.8687702363323
 10
1231.229446989037
 20
176.91189840500147
 10
1224.5803243939267
 20
176.95796189521536
 10
1217.9420126381808
 20
176.99122709848194
 10
1211.30765760795
 20
176.99122709848194
 10
1204.669345852204
 20
176.95796189521536
 10
1198.0202232570937
 20
176.91189840500147
 10
1191.354769634968
 20
176.8687702363323
 10
1184.6685267063212
 20
176.84212593547073
 10
1177.9579754458632
 20
176.8443586871491
 10
1171.2204691232162
 20
176.8871679056969
 10
1164.454195175288
 20
176.98181310378425
 10
1157.6581543833133
 20
177.139266705336
 10
1150.8321511081083
 20
177.3703088397968
 10
1143.9767906419793
 20
177.68558467120073
 10
1137.0934808827546
 20
178.09563520869153
 10
1130.1844361538435
 20
178.61090790175678
 10
1123.252681345533
 20
179.24175088512015
 10
1116.3020547612591
 20
179.99839339043297
 10
1109.3372081842167
 20
180.89091408265557
 10
1102.3636027731527
 20
181.92919866222024
 10
1095.3874994764458
 20
183.1228878700461
 10
1088.4159427379245
 20
184.48131696812993
 10
1081.4567363691694
 20
186.01344779927763
 10
1074.5184105908504
 20
187.72779462596486
 10
1067.6101794069566
 20
189.6323450883283
 10
1060.7418876750369
 20
191.73447778668157
 10
1053.9239474745366
 20
194.04087816817884
 10
1047.1672636529238
 20
196.55745456448585
 10
1040.4831487413364
 20
199.2892563721012
 10
1033.8832277705562
 20
202.24039647438985
 10
1027.379333873763
 20
205.4139800605788
 10
1020.98339592134
 20
208.81204198987103
 10
1014.7073197794468
 20
212.43549476900927
 10
1008.5628651010522
 20
216.28408905318884
 10
1002.5615198282021
 20
220.35638834155435
 10
996.7143747908978
 20
224.64975922284128
 10
991.0320009165889
 20
229.16037814234767
 10
985.5243316039396
 20
233.8832552215265
 10
980.2005527585887
 20
238.81227518362883
 10
975.0690028358349
 20
243.94025494383544
 10
970.1370849898476
 20
249.25901693306145
  0
LWPOLYLINE
  5
D8
330
17
100
AcDbEntity
  8
CUT
100
AcDbPolyline
 90
8
 70
1
 10
992.1203681709201
 20
198.21384171450643
 42
2.414213562373095
 10
987.6506009815843
 20
197.50590013984248
 10
926.1682635917916
 20
112.88272252822304
 42
2.414213562373095
 10
926.8762051664555
 20
108.41295533888729
 10
937.0698192955799
 20
101.00686116000213
 42
2.414213562373095
 10
941.5395864849156
 20
101.71480273466608
 10
1003.0219238747082
 20
186.33798034628552
 42
2.414213562373095
 10
1002.3139823000444
 20
190.80774753562127
  0
LWPOLYLINE
  5
D9
330
17
100
AcDbEntity
  8
CUT
100
AcDbPolyline
 90
8
 70
1
 10
1099.2585141218283
 20
159.0729684345447
 42
2.414213562373095
 10
1095.226278887684
 20
157.01844196439998
 10
1062.9031012760645
 20
57.537930359926975
 42
2.414213562373095
 10
1064.957627746209
 20
53.50569512578261
 10
1076.940939851528
 20
49.61208099665828
 42
2.414213562373095
 10
1080.9731750856722
 20
51.666607466802986
 10
1113.2963526972917
 20
151.147119071276
 42
2.414213562373095
 10
1111.2418262271472
 20
155.17935430542036
  0
LWPOLYLINE
  5
DA
330
17
100
AcDbEntity
  8
CUT
100
AcDbPolyline
 90
8
 70
1
 10
1208.3248351230654
 20
152.4967670662793
 42
2.414213562373095
 10
1205.1248351230654
 20
149.2967670662793
 10
1205.1248351230654
 20
44.69676706627928
 42
2.414213562373095
 10
1208.3248351230654
 20
41.49676706627929
 10
1220.9248351230653
 20
41.49676706627929
 42
2.414213562373095
 10
1224.1248351230654
 20
44.69676706627928
 10
1224.1248351230654
 20
149.2967670662793
 42
2.414213562373095
 10
1220.9248351230653
 20
152.4967670662793
  0
LWPOLYLINE
  5
DB
330
17
100
AcDbEntity
  8
CUT
100
AcDbPolyline
 90
8
 70
1
 10
1318.0078440189836
 20
155.17935430542036
 42
2.414213562373095
 10
1315.9533175488389
 20
151.14711907127605
 10
1348.2764951604584
 20
51.66660746680293
 42
2.414213562373095
 10
1352.3087303946027
 20
49.61208099665828
 10
1364.2920424999215
 20
53.50569512578261
 42
2.414213562373095
 10
1366.346568970066
 20
57.53793035992692
 10
1334.0233913584468
 20
157.01844196440004
 42
2.414213562373095
 10
1329.9911561243025
 20
159.0729684345447
  0
TEXT
  5
DC
330
17
100
AcDbEntity
  8
ENGRAVE-LABEL
100
AcDbText
 10
1015.3394874786127
 20
102.59280671306915
 30
0.0
 40
11.0
  1
17 BACK-BAND-3
 72
1
 11
1015.3394874786127
 21
102.59280671306915
 31
0.0
100
AcDbText
 73
2
  0
LWPOLYLINE
  5
DD
330
17
100
AcDbEntity
  8
CUT
100
AcDbPolyline
 90
17
 70
1
 10
199.00000000000003
 20
631.0
 10
199.0
 20
566.2
 42
-2.414213562373095
 10
195.8
 20
563.0
 10
181.0
 20
563.0
 10
181.0
 20
523.0
 10
195.8
 20
523.0
 42
-2.414213562373095
 10
199.0
 20
519.8000000000001
 10
199.0
 20
501.0
 10
389.0
 20
501.0
 10
389.0
 20
507.79999999999995
 42
-2.414213562373095
 10
392.2
 20
511.0
 10
639.0
 20
510.99999999999994
 10
669.0
 20
541.0
 10
669.0
 20
621.0
 10
392.20000000000005
 20
621.0
 42
-2.414213562373095
 10
389.0
 20
624.2
 10
389.0
 20
631.0
  0
TEXT
  5
DE
330
17
100
AcDbEntity
  8
ENGRAVE-LABEL
100
AcDbText
 10
300.78125
 20
565.53125
 30
0.0
 40
22.0
  1
14 BACK-RIB-G
 50
15.0
 72
1
 11
300.78125
 21
565.53125
 31
0.0
100
AcDbText
 73
2
  0
LWPOLYLINE
  5
DF
330
17
100
AcDbEntity
  8
CUT
100
AcDbPolyline
 90
17
 70
1
 10
955.0
 20
395.0
 10
955.0
 20
330.20000000000005
 42
-2.414213562373095
 10
951.8
 20
327.0
 10
937.0
 20
327.0
 10
937.0
 20
287.0
 10
951.8
 20
287.0
 42
-2.414213562373095
 10
955.0
 20
283.8
 10
955.0
 20
265.0
 10
1145.0
 20
265.0
 10
1145.0
 20
271.79999999999995
 42
-2.414213562373095
 10
1148.2
 20
275.0
 10
1384.8653275364873
 20
274.99999999999994
 10
1414.8653275364873
 20
304.99999999999994
 10
1414.8653275364873
 20
384.99999999999994
 10
1148.2
 20
385.0
 42
-2.414213562373095
 10
1145.0
 20
388.2
 10
1145.0
 20
395.0
  0
TEXT
  5
E0
330
17
100
AcDbEntity
  8
ENGRAVE-LABEL
100
AcDbText
 10
1036.900247514771
 20
329.54114714107766
 30
0.0
 40
14.0
  1
13 BACK-RIB-F 1/2
 50
15.0
 72
1
 11
1036.900247514771
 21
329.54114714107766
 31
0.0
100
AcDbText
 73
2
  0
LWPOLYLINE
  5
E1
330
17
100
AcDbEntity
  8
CUT
100
AcDbPolyline
 90
17
 70
1
 10
1055.0
 20
863.0
 10
1055.0
 20
798.2
 42
-2.414213562373095
 10
1051.8
 20
795.0
 10
1037.0
 20
795.0
 10
1037.0
 20
755.0
 10
1051.8
 20
755.0
 42
-2.414213562373095
 10
1055.0
 20
751.8000000000001
 10
1055.0
 20
733.0
 10
1245.0
 20
733.0
 10
1245.0
 20
739.8
 42
-2.414213562373095
 10
1248.2
 20
743.0
 10
1484.8653275364873
 20
743.0
 10
1514.8653275364873
 20
773.0
 10
1514.8653275364873
 20
853.0
 10
1248.2
 20
853.0
 42
-2.414213562373095
 10
1245.0
 20
856.2
 10
1245.0
 20
863.0
  0
TEXT
  5
E2
330
17
100
AcDbEntity
  8
ENGRAVE-LABEL
100
AcDbText
 10
1134.1471303612373
 20
797.5411471410777
 30
0.0
 40
14.0
  1
13 BACK-RIB-F 2/2
 50
15.0
 72
1
 11
1134.1471303612373
 21
797.5411471410777
 31
0.0
100
AcDbText
 73
2
  0
LWPOLYLINE
  5
E3
330
17
100
AcDbEntity
  8
CUT
100
AcDbPolyline
 90
17
 70
1
 10
1492.1854897735311
 20
869.0
 10
1492.1854897735311
 20
933.8
 42
-2.414213562373095
 10
1495.3854897735312
 20
937.0
 10
1510.1854897735311
 20
937.0
 10
1510.1854897735311
 20
977.0
 10
1495.3854897735312
 20
977.0
 42
-2.414213562373095
 10
1492.1854897735311
 20
980.2
 10
1492.1854897735311
 20
999.0
 10
1302.1854897735311
 20
999.0
 10
1302.1854897735311
 20
992.2
 42
-2.414213562373095
 10
1298.9854897735313
 20
989.0
 10
1091.0
 20
989.0
 10
1061.0
 20
959.0
 10
1061.0
 20
879.0
 10
1298.9854897735313
 20
879.0
 42
-2.414213562373095
 10
1302.1854897735311
 20
875.8
 10
1302.1854897735311
 20
869.0
  0
TEXT
  5
E4
330
17
100
AcDbEntity
  8
ENGRAVE-LABEL
100
AcDbText
 10
1405.7985570418582
 20
933.5691547951429
 30
0.0
 40
14.0
  1
12 BACK-RIB-E 1/2
 50
15.0
 72
1
 11
1405.7985570418582
 21
933.5691547951429
 31
0.0
100
AcDbText
 73
2
  0
LWPOLYLINE
  5
E5
330
17
100
AcDbEntity
  8
CUT
100
AcDbPolyline
 90
17
 70
1
 10
1095.0
 20
719.0
 10
1095.0
 20
654.2
 42
-2.414213562373095
 10
1091.8
 20
651.0
 10
1077.0
 20
651.0
 10
1077.0
 20
611.0
 10
1091.8
 20
611.0
 42
-2.414213562373095
 10
1095.0
 20
607.8000000000001
 10
1095.0
 20
589.0
 10
1285.0
 20
589.0
 10
1285.0
 20
595.8
 42
-2.414213562373095
 10
1288.2
 20
599.0
 10
1496.1854897735311
 20
599.0
 10
1526.1854897735311
 20
629.0
 10
1526.1854897735311
 20
709.0
 10
1288.2
 20
709.0
 42
-2.414213562373095
 10
1285.0
 20
712.2
 10
1285.0
 20
719.0
  0
TEXT
  5
E6
330
17
100
AcDbEntity
  8
ENGRAVE-LABEL
100
AcDbText
 10
1221.8863819882272
 20
653.5691547951429
 30
0.0
 40
18.0
  1
12 BACK-RIB-E 2/2
 72
1
 11
1221.8863819882272
 21
653.5691547951429
 31
0.0
100
AcDbText
 73
2
  0
LWPOLYLINE
  5
E7
330
17
100
AcDbEntity
  8
CUT
100
AcDbPolyline
 90
17
 70
1
 10
1781.920711500272
 20
169.0
 10
1781.920711500272
 20
233.8
 42
-2.414213562373095
 10
1785.1207115002721
 20
237.0
 10
1799.920711500272
 20
237.0
 10
1799.920711500272
 20
277.0
 10
1785.1207115002721
 20
277.0
 42
-2.414213562373095
 10
1781.920711500272
 20
280.2
 10
1781.920711500272
 20
299.0
 10
1591.920711500272
 20
299.0
 10
1591.920711500272
 20
292.20000000000005
 42
-2.414213562373095
 10
1588.720711500272
 20
289.0
 10
1423.0
 20
289.0
 10
1393.0
 20
259.0
 10
1393.0
 20
179.00000000000003
 10
1588.720711500272
 20
179.0
 42
-2.414213562373095
 10
1591.920711500272
 20
175.8
 10
1591.920711500272
 20
169.0
  0
TEXT
  5
E8
330
17
100
AcDbEntity
  8
ENGRAVE-LABEL
100
AcDbText
 10
1679.4389803102508
 20
234.38957100732446
 30
0.0
 40
14.0
  1
11 BACK-RIB-D 1/2
 72
1
 11
1679.4389803102508
 21
234.38957100732446
 31
0.0
100
AcDbText
 73
2
  0
LWPOLYLINE
  5
E9
330
17
100
AcDbEntity
  8
CUT
100
AcDbPolyline
 90
17
 70
1
 10
1845.920711500272
 20
17.0
 10
1845.920711500272
 20
81.8
 42
-2.414213562373095
 10
1849.1207115002721
 20
85.0
 10
1863.920711500272
 20
85.0
 10
1863.920711500272
 20
125.0
 10
1849.1207115002721
 20
125.0
 42
-2.414213562373095
 10
1845.920711500272
 20
128.2
 10
1845.920711500272
 20
147.0
 10
1655.920711500272
 20
147.0
 10
1655.920711500272
 20
140.20000000000002
 42
-2.414213562373095
 10
1652.720711500272
 20
137.0
 10
1487.0
 20
137.00000000000003
 10
1457.0
 20
107.00000000000003
 10
1457.0
 20
27.00000000000002
 10
1652.720711500272
 20
27.00000000000001
 42
-2.414213562373095
 10
1655.920711500272
 20
23.80000000000001
 10
1655.920711500272
 20
17.00000000000001
  0
TEXT
  5
EA
330
17
100
AcDbEntity
  8
ENGRAVE-LABEL
100
AcDbText
 10
1704.4818795778028
 20
82.38957100732448
 30
0.0
 40
22.0
  1
11 BACK-RIB-D 2/2
 50
15.0
 72
1
 11
1704.4818795778028
 21
82.38957100732448
 31
0.0
100
AcDbText
 73
2
  0
LWPOLYLINE
  5
EB
330
17
100
AcDbEntity
  8
CUT
100
AcDbPolyline
 90
17
 70
1
 10
883.0
 20
1181.7106781186549
 10
818.2
 20
1181.7106781186549
 42
-2.414213562373095
 10
815.0
 20
1184.9106781186547
 10
815.0
 20
1199.7106781186549
 10
775.0
 20
1199.7106781186549
 10
775.0
 20
1184.9106781186547
 42
-2.414213562373095
 10
771.8000000000001
 20
1181.7106781186549
 10
753.0
 20
1181.7106781186549
 10
753.0
 20
991.7106781186548
 10
759.8
 20
991.7106781186548
 42
-2.414213562373095
 10
763.0
 20
988.5106781186548
 10
763.0
 20
871.0
 10
793.0
 20
841.0
 10
873.0
 20
841.0
 10
873.0
 20
988.5106781186548
 42
-2.414213562373095
 10
876.2
 20
991.7106781186548
 10
883.0
 20
991.7106781186548
  0
TEXT
  5
EC
330
17
100
AcDbEntity
  8
ENGRAVE-LABEL
100
AcDbText
 10
818.0
 20
1086.7106781186549
 30
0.0
 40
18.0
  1
10 BACK-RIB-C 1/2
 50
105.0
 72
1
 11
818.0
 21
1086.7106781186549
 31
0.0
100
AcDbText
 73
2
  0
LWPOLYLINE
  5
ED
330
17
100
AcDbEntity
  8
CUT
100
AcDbPolyline
 90
17
 70
1
 10
1881.7106781186549
 20
313.0
 10
1881.7106781186549
 20
377.8
 42
-2.414213562373095
 10
1884.9106781186547
 20
381.0
 10
1899.7106781186549
 20
381.0
 10
1899.7106781186549
 20
421.0
 10
1884.9106781186547
 20
421.0
 42
-2.414213562373095
 10
1881.7106781186549
 20
424.2
 10
1881.7106781186549
 20
443.0
 10
1691.7106781186549
 20
443.0
 10
1691.7106781186549
 20
436.20000000000005
 42
-2.414213562373095
 10
1688.5106781186548
 20
433.0
 10
1571.0
 20
433.0
 10
1541.0
 20
403.0
 10
1541.0
 20
323.0
 10
1688.5106781186548
 20
323.0
 42
-2.414213562373095
 10
1691.7106781186549
 20
319.8
 10
1691.7106781186549
 20
313.0
  0
TEXT
  5
EE
330
17
100
AcDbEntity
  8
ENGRAVE-LABEL
100
AcDbText
 10
1797.758281690984
 20
377.3150182067995
 30
0.0
 40
14.0
  1
10 BACK-RIB-C 2/2
 50
15.0
 72
1
 11
1797.758281690984
 21
377.3150182067995
 31
0.0
100
AcDbText
 73
2
  0
LWPOLYLINE
  5
EF
330
17
100
AcDbEntity
  8
CUT
100
AcDbPolyline
 90
43
 70
1
 10
1643.0
 20
1197.8445819297203
 10
1643.0
 20
1193.0445819297202
 42
-2.414213562373095
 10
1639.8
 20
1189.8445819297203
 10
1625.0
 20
1189.8445819297203
 10
1625.0
 20
1149.8445819297203
 10
1639.8
 20
1149.8445819297203
 42
-2.414213562373095
 10
1643.0
 20
1146.6445819297203
 10
1643.0
 20
1114.5730636317003
 10
1653.5
 20
1107.4662208186649
 10
1664.0
 20
1100.8271815171036
 10
1674.5
 20
1094.655945727016
 10
1685.0
 20
1088.9525134484024
 10
1695.5
 20
1083.7168846812626
 10
1706.0
 20
1078.9490594255965
 10
1716.5
 20
1074.6490376814045
 10
1727.0
 20
1070.8168194486864
 10
1737.5
 20
1067.452404727442
 10
1748.0
 20
1064.5557935176716
 10
1758.5
 20
1062.126985819375
 10
1769.0
 20
1060.1659816325523
 10
1779.5
 20
1058.6727809572035
 10
1790.0
 20
1057.6473837933283
 10
1800.5
 20
1057.0897901409273
 10
1811.0
 20
1057.0
 10
1821.5
 20
1057.3780133705466
 10
1832.0
 20
1058.223830252567
 10
1842.5
 20
1059.5374506460614
 10
1853.0
 20
1061.3188745510297
 10
1863.5
 20
1063.5681019674716
 10
1874.0
 20
1066.2851328953877
 10
1884.5
 20
1069.4699673347775
 10
1895.0
 20
1073.1226052856412
 10
1905.5
 20
1077.2430467479787
 10
1916.0
 20
1081.83129172179
 10
1926.5
 20
1086.8873402070753
 10
1937.0
 20
1092.4111922038346
 10
1937.0
 20
1146.6445819297203
 42
-2.414213562373095
 10
1940.2
 20
1149.84458192972
 10
1955.0
 20
1149.84458192972
 10
1955.0
 20
1189.84458192972
 10
1940.2
 20
1189.84458192972
 42
-2.414213562373095
 10
1937.0
 20
1193.0445819297202
 10
1937.0
 20
1197.84458192972
  0
TEXT
  5
F0
330
17
100
AcDbEntity
  8
ENGRAVE-LABEL
100
AcDbText
 10
1796.91796875
 20
1128.0515049960254
 30
0.0
 40
22.0
  1
05 BODY-RIB-C 1/4
 72
1
 11
1796.91796875
 21
1128.0515049960254
 31
0.0
100
AcDbText
 73
2
  0
LWPOLYLINE
  5
F1
330
17
100
AcDbEntity
  8
CUT
100
AcDbPolyline
 90
43
 70
1
 10
1997.0
 20
457.0
 10
1997.0
 20
461.8
 42
-2.414213562373095
 10
2000.2
 20
465.0
 10
2015.0
 20
465.0
 10
2015.0
 20
505.0
 10
2000.2
 20
505.0
 42
-2.414213562373095
 10
1997.0
 20
508.2
 10
1997.0
 20
540.27151829802
 10
1986.5
 20
547.3783611110553
 10
1976.0
 20
554.0174004126168
 10
1965.5
 20
560.1886362027042
 10
1955.0
 20
565.8920684813179
 10
1944.5
 20
571.1276972484577
 10
1934.0
 20
575.8955225041236
 10
1923.5
 20
580.1955442483156
 10
1913.0
 20
584.027762481034
 10
1902.5
 20
587.3921772022782
 10
1892.0
 20
590.2887884120487
 10
1881.5
 20
592.7175961103453
 10
1871.0
 20
594.678600297168
 10
1860.5
 20
596.1718009725168
 10
1850.0
 20
597.1971981363918
 10
1839.5
 20
597.754791788793
 10
1829.0
 20
597.8445819297202
 10
1818.5
 20
597.4665685591735
 10
1808.0
 20
596.6207516771531
 10
1797.5
 20
595.3071312836588
 10
1787.0
 20
593.5257073786906
 10
1776.5
 20
591.2764799622486
 10
1766.0
 20
588.5594490343326
 10
1755.5
 20
585.3746145949428
 10
1745.0
 20
581.7219766440791
 10
1734.5
 20
577.6015351817416
 10
1724.0
 20
573.0132902079301
 10
1713.5
 20
567.9572417226449
 10
1703.0
 20
562.4333897258857
 10
1703.0
 20
508.20000000000005
 42
-2.414213562373095
 10
1699.8
 20
505.0
 10
1685.0
 20
505.0
 10
1685.0
 20
465.0
 10
1699.8
 20
465.0
 42
-2.414213562373095
 10
1703.0
 20
461.8
 10
1703.0
 20
457.0
  0
TEXT
  5
F2
330
17
100
AcDbEntity
  8
ENGRAVE-LABEL
100
AcDbText
 10
1817.92578125
 20
526.7930769336949
 30
0.0
 40
18.0
  1
05 BODY-RIB-C 2/4
 72
1
 11
1817.92578125
 21
526.7930769336949
 31
0.0
100
AcDbText
 73
2
  0
LWPOLYLINE
  5
F3
330
17
100
AcDbEntity
  8
CUT
100
AcDbPolyline
 90
43
 70
1
 10
1739.0
 20
1037.8445819297203
 10
1739.0
 20
1033.0445819297202
 42
-2.414213562373095
 10
1735.8
 20
1029.8445819297203
 10
1721.0
 20
1029.8445819297203
 10
1721.0
 20
989.8445819297202
 10
1735.8
 20
989.8445819297202
 42
-2.414213562373095
 10
1739.0
 20
986.6445819297203
 10
1739.0
 20
954.5730636317002
 10
1749.5
 20
947.466220818665
 10
1760.0
 20
940.8271815171036
 10
1770.5
 20
934.655945727016
 10
1781.0
 20
928.9525134484023
 10
1791.5
 20
923.7168846812626
 10
1802.0
 20
918.9490594255966
 10
1812.5
 20
914.6490376814046
 10
1823.0
 20
910.8168194486864
 10
1833.5
 20
907.452404727442
 10
1844.0
 20
904.5557935176715
 10
1854.5
 20
902.126985819375
 10
1865.0
 20
900.1659816325523
 10
1875.5
 20
898.6727809572035
 10
1886.0
 20
897.6473837933283
 10
1896.5
 20
897.0897901409273
 10
1907.0
 20
897.0
 10
1917.5
 20
897.3780133705466
 10
1928.0
 20
898.223830252567
 10
1938.5
 20
899.5374506460614
 10
1949.0
 20
901.3188745510297
 10
1959.5
 20
903.5681019674716
 10
1970.0
 20
906.2851328953876
 10
1980.5
 20
909.4699673347774
 10
1991.0
 20
913.1226052856412
 10
2001.5
 20
917.2430467479786
 10
2012.0
 20
921.8312917217901
 10
2022.5
 20
926.8873402070753
 10
2033.0
 20
932.4111922038345
 10
2033.0
 20
986.6445819297202
 42
-2.414213562373095
 10
2036.2
 20
989.8445819297202
 10
2051.0
 20
989.8445819297202
 10
2051.0
 20
1029.84458192972
 10
2036.2
 20
1029.84458192972
 42
-2.414213562373095
 10
2033.0
 20
1033.0445819297202
 10
2033.0
 20
1037.84458192972
  0
TEXT
  5
F4
330
17
100
AcDbEntity
  8
ENGRAVE-LABEL
100
AcDbText
 10
1892.91796875
 20
968.0515049960254
 30
0.0
 40
22.0
  1
05 BODY-RIB-C 3/4
 72
1
 11
1892.91796875
 21
968.0515049960254
 31
0.0
100
AcDbText
 73
2
  0
LWPOLYLINE
  5
F5
330
17
100
AcDbEntity
  8
CUT
100
AcDbPolyline
 90
43
 70
1
 10
2049.0
 20
613.0
 10
2049.0
 20
617.8
 42
-2.414213562373095
 10
2052.2
 20
621.0
 10
2067.0
 20
621.0
 10
2067.0
 20
661.0
 10
2052.2
 20
661.0
 42
-2.414213562373095
 10
2049.0
 20
664.2
 10
2049.0
 20
696.27151829802
 10
2038.5
 20
703.3783611110553
 10
2028.0
 20
710.0174004126168
 10
2017.5
 20
716.1886362027042
 10
2007.0
 20
721.8920684813179
 10
1996.5
 20
727.1276972484577
 10
1986.0
 20
731.8955225041236
 10
1975.5
 20
736.1955442483156
 10
1965.0
 20
740.027762481034
 10
1954.5
 20
743.3921772022782
 10
1944.0
 20
746.2887884120487
 10
1933.5
 20
748.7175961103453
 10
1923.0
 20
750.678600297168
 10
1912.5
 20
752.1718009725168
 10
1902.0
 20
753.1971981363918
 10
1891.5
 20
753.754791788793
 10
1881.0
 20
753.8445819297202
 10
1870.5
 20
753.4665685591735
 10
1860.0
 20
752.6207516771531
 10
1849.5
 20
751.3071312836588
 10
1839.0
 20
749.5257073786906
 10
1828.5
 20
747.2764799622486
 10
1818.0
 20
744.5594490343326
 10
1807.5
 20
741.3746145949428
 10
1797.0
 20
737.7219766440791
 10
1786.5
 20
733.6015351817416
 10
1776.0
 20
729.0132902079301
 10
1765.5
 20
723.9572417226449
 10
1755.0
 20
718.4333897258857
 10
1755.0
 20
664.2
 42
-2.414213562373095
 10
1751.8
 20
661.0
 10
1737.0
 20
661.0
 10
1737.0
 20
621.0
 10
1751.8
 20
621.0
 42
-2.414213562373095
 10
1755.0
 20
617.8000000000001
 10
1755.0
 20
613.0
  0
TEXT
  5
F6
330
17
100
AcDbEntity
  8
ENGRAVE-LABEL
100
AcDbText
 10
1869.92578125
 20
682.7930769336949
 30
0.0
 40
18.0
  1
05 BODY-RIB-C 4/4
 72
1
 11
1869.92578125
 21
682.7930769336949
 31
0.0
100
AcDbText
 73
2
  0
LWPOLYLINE
  5
F7
330
17
100
AcDbEntity
  8
CUT
100
AcDbPolyline
 90
43
 70
1
 10
2109.0
 20
161.0
 10
2109.0
 20
165.8
 42
-2.414213562373095
 10
2112.2
 20
169.0
 10
2127.0
 20
169.0
 10
2127.0
 20
209.0
 10
2112.2
 20
209.0
 42
-2.414213562373095
 10
2109.0
 20
212.2
 10
2109.0
 20
244.0797695494113
 10
2098.5
 20
251.0839317056176
 10
2088.0
 20
257.6270492407728
 10
2077.5
 20
263.7091221548768
 10
2067.0
 20
269.3301504479298
 10
2056.5
 20
274.4901341199316
 10
2046.0
 20
279.18907317088235
 10
2035.5
 20
283.42696760078195
 10
2025.0
 20
287.20381740963046
 10
2014.5
 20
290.5196225974278
 10
2004.0
 20
293.3743831641741
 10
1993.5
 20
295.76809910986924
 10
1983.0
 20
297.7007704345133
 10
1972.5
 20
299.1723971381062
 10
1962.0
 20
300.182979220648
 10
1951.5
 20
300.73251668213874
 10
1941.0
 20
300.8210095225783
 10
1930.5
 20
300.44845774196676
 10
1920.0
 20
299.6148613403041
 10
1909.5
 20
298.3202203175904
 10
1899.0
 20
296.5645346738255
 10
1888.5
 20
294.34780440900954
 10
1878.0
 20
291.6700295231425
 10
1867.5
 20
288.53121001622424
 10
1857.0
 20
284.9313458882549
 10
1846.5
 20
280.87043713923447
 10
1836.0
 20
276.3484837691629
 10
1825.5
 20
271.3654857780402
 10
1815.0
 20
265.92144316586644
 10
1815.0
 20
212.20000000000002
 42
-2.414213562373095
 10
1811.8
 20
209.00000000000003
 10
1797.0
 20
209.00000000000003
 10
1797.0
 20
169.00000000000003
 10
1811.8
 20
169.00000000000003
 42
-2.414213562373095
 10
1815.0
 20
165.8
 10
1815.0
 20
161.00000000000003
  0
TEXT
  5
F8
330
17
100
AcDbEntity
  8
ENGRAVE-LABEL
100
AcDbText
 10
1927.41015625
 20
230.28129955733212
 30
0.0
 40
14.0
  1
04 BODY-RIB-B 1/4
 72
1
 11
1927.41015625
 21
230.28129955733212
 31
0.0
100
AcDbText
 73
2
  0
LWPOLYLINE
  5
F9
330
17
100
AcDbEntity
  8
CUT
100
AcDbPolyline
 90
43
 70
1
 10
1887.0
 20
880.8210095225784
 10
1887.0
 20
876.0210095225783
 42
-2.414213562373095
 10
1883.8
 20
872.8210095225784
 10
1869.0
 20
872.8210095225784
 10
1869.0
 20
832.8210095225784
 10
1883.8
 20
832.8210095225784
 42
-2.414213562373095
 10
1887.0
 20
829.6210095225783
 10
1887.0
 20
797.741239973167
 10
1897.5
 20
790.7370778169608
 10
1908.0
 20
784.1939602818055
 10
1918.5
 20
778.1118873677016
 10
1929.0
 20
772.4908590746486
 10
1939.5
 20
767.3308754026467
 10
1950.0
 20
762.631936351696
 10
1960.5
 20
758.3940419217964
 10
1971.0
 20
754.6171921129479
 10
1981.5
 20
751.3013869251505
 10
1992.0
 20
748.4466263584043
 10
2002.5
 20
746.052910412709
 10
2013.0
 20
744.1202390880651
 10
2023.5
 20
742.6486123844721
 10
2034.0
 20
741.6380303019303
 10
2044.5
 20
741.0884928404396
 10
2055.0
 20
741.0
 10
2065.5
 20
741.3725517806115
 10
2076.0
 20
742.2061481822742
 10
2086.5
 20
743.500789204988
 10
2097.0
 20
745.2564748487528
 10
2107.5
 20
747.4732051135687
 10
2118.0
 20
750.1509799994359
 10
2128.5
 20
753.289799506354
 10
2139.0
 20
756.8896636343234
 10
2149.5
 20
760.9505723833438
 10
2160.0
 20
765.4725257534154
 10
2170.5
 20
770.4555237445381
 10
2181.0
 20
775.8995663567118
 10
2181.0
 20
829.6210095225783
 42
-2.414213562373095
 10
2184.2
 20
832.8210095225783
 10
2199.0
 20
832.8210095225783
 10
2199.0
 20
872.8210095225783
 10
2184.2
 20
872.8210095225783
 42
-2.414213562373095
 10
2181.0
 20
876.0210095225783
 10
2181.0
 20
880.8210095225783
  0
TEXT
  5
FA
330
17
100
AcDbEntity
  8
ENGRAVE-LABEL
100
AcDbText
 10
2032.11328125
 20
811.5397099652462
 30
0.0
 40
22.0
  1
04 BODY-RIB-B 2/4
 72
1
 11
2032.11328125
 21
811.5397099652462
 31
0.0
100
AcDbText
 73
2
  0
LWPOLYLINE
  5
FB
330
17
100
AcDbEntity
  8
CUT
100
AcDbPolyline
 90
43
 70
1
 10
1935.0
 20
432.8210095225784
 10
1935.0
 20
428.0210095225783
 42
-2.414213562373095
 10
1931.8
 20
424.8210095225784
 10
1917.0
 20
424.8210095225784
 10
1917.0
 20
384.8210095225784
 10
1931.8
 20
384.8210095225784
 42
-2.414213562373095
 10
1935.0
 20
381.62100952257833
 10
1935.0
 20
349.741239973167
 10
1945.5
 20
342.7370778169608
 10
1956.0
 20
336.1939602818055
 10
1966.5
 20
330.1118873677015
 10
1977.0
 20
324.49085907464854
 10
1987.5
 20
319.3308754026467
 10
1998.0
 20
314.63193635169597
 10
2008.5
 20
310.3940419217964
 10
2019.0
 20
306.61719211294786
 10
2029.5
 20
303.3013869251505
 10
2040.0
 20
300.4466263584042
 10
2050.5
 20
298.0529104127091
 10
2061.0
 20
296.12023908806503
 10
2071.5
 20
294.64861238447213
 10
2082.0
 20
293.6380303019303
 10
2092.5
 20
293.0884928404396
 10
2103.0
 20
293.0
 10
2113.5
 20
293.37255178061156
 10
2124.0
 20
294.2061481822742
 10
2134.5
 20
295.50078920498794
 10
2145.0
 20
297.2564748487528
 10
2155.5
 20
299.4732051135687
 10
2166.0
 20
302.1509799994359
 10
2176.5
 20
305.2897995063541
 10
2187.0
 20
308.8896636343234
 10
2197.5
 20
312.9505723833438
 10
2208.0
 20
317.4725257534154
 10
2218.5
 20
322.45552374453814
 10
2229.0
 20
327.89956635671183
 10
2229.0
 20
381.6210095225783
 42
-2.414213562373095
 10
2232.2
 20
384.82100952257827
 10
2247.0
 20
384.82100952257827
 10
2247.0
 20
424.82100952257827
 10
2232.2
 20
424.82100952257827
 42
-2.414213562373095
 10
2229.0
 20
428.0210095225783
 10
2229.0
 20
432.82100952257827
  0
TEXT
  5
FC
330
17
100
AcDbEntity
  8
ENGRAVE-LABEL
100
AcDbText
 10
2083.88671875
 20
363.53970996524623
 30
0.0
 40
22.0
  1
04 BODY-RIB-B 3/4
 72
1
 11
2083.88671875
 21
363.53970996524623
 31
0.0
100
AcDbText
 73
2
  0
LWPOLYLINE
  5
FD
330
17
100
AcDbEntity
  8
CUT
100
AcDbPolyline
 90
43
 70
1
 10
2265.0
 20
1053.0
 10
2265.0
 20
1057.8
 42
-2.414213562373095
 10
2268.2
 20
1061.0
 10
2283.0
 20
1061.0
 10
2283.0
 20
1101.0
 10
2268.2
 20
1101.0
 42
-2.414213562373095
 10
2265.0
 20
1104.2
 10
2265.0
 20
1136.0797695494114
 10
2254.5
 20
1143.0839317056175
 10
2244.0
 20
1149.6270492407727
 10
2233.5
 20
1155.7091221548767
 10
2223.0
 20
1161.3301504479298
 10
2212.5
 20
1166.4901341199316
 10
2202.0
 20
1171.1890731708822
 10
2191.5
 20
1175.426967600782
 10
2181.0
 20
1179.2038174096306
 10
2170.5
 20
1182.5196225974278
 10
2160.0
 20
1185.374383164174
 10
2149.5
 20
1187.7680991098691
 10
2139.0
 20
1189.7007704345133
 10
2128.5
 20
1191.1723971381061
 10
2118.0
 20
1192.1829792206481
 10
2107.5
 20
1192.7325166821388
 10
2097.0
 20
1192.8210095225784
 10
2086.5
 20
1192.4484577419666
 10
2076.0
 20
1191.614861340304
 10
2065.5
 20
1190.3202203175904
 10
2055.0
 20
1188.5645346738256
 10
2044.5
 20
1186.3478044090095
 10
2034.0
 20
1183.6700295231424
 10
2023.5
 20
1180.5312100162243
 10
2013.0
 20
1176.931345888255
 10
2002.5
 20
1172.8704371392346
 10
1992.0
 20
1168.3484837691628
 10
1981.5
 20
1163.3654857780402
 10
1971.0
 20
1157.9214431658665
 10
1971.0
 20
1104.2
 42
-2.414213562373095
 10
1967.8
 20
1101.0
 10
1953.0
 20
1101.0
 10
1953.0
 20
1061.0
 10
1967.8
 20
1061.0
 42
-2.414213562373095
 10
1971.0
 20
1057.8
 10
1971.0
 20
1053.0
  0
TEXT
  5
FE
330
17
100
AcDbEntity
  8
ENGRAVE-LABEL
100
AcDbText
 10
2118.62890625
 20
1122.2812995573322
 30
0.0
 40
22.0
  1
04 BODY-RIB-B 4/4
 72
1
 11
2118.62890625
 21
1122.2812995573322
 31
0.0
100
AcDbText
 73
2
  0
LWPOLYLINE
  5
FF
330
17
100
AcDbEntity
  8
CUT
100
AcDbPolyline
 90
43
 70
1
 10
2031.0
 20
587.2603602288559
 10
2031.0
 20
582.4603602288558
 42
-2.414213562373095
 10
2027.8
 20
579.2603602288559
 10
2013.0
 20
579.2603602288559
 10
2013.0
 20
539.2603602288559
 10
2027.8
 20
539.2603602288559
 42
-2.414213562373095
 10
2031.0
 20
536.0603602288559
 10
2031.0
 20
504.4729515783906
 10
2041.5
 20
497.625347466775
 10
2052.0
 20
491.22848264022144
 10
2062.5
 20
485.2823570987302
 10
2073.0
 20
479.78697084230106
 10
2083.5
 20
474.7423238709341
 10
2094.0
 20
470.14841618462924
 10
2104.5
 20
466.0052477833866
 10
2115.0
 20
462.3128186672061
 10
2125.5
 20
459.0711288360878
 10
2136.0
 20
456.2801782900316
 10
2146.5
 20
453.9399670290376
 10
2157.0
 20
452.0504950531058
 10
2167.5
 20
450.6117623622361
 10
2178.0
 20
449.6237689564286
 10
2188.5
 20
449.0865148356832
 10
2199.0
 20
449.0
 10
2209.5
 20
449.36422444937904
 10
2220.0
 20
450.1791881838201
 10
2230.5
 20
451.4448912033234
 10
2241.0
 20
453.16133350788886
 10
2251.5
 20
455.3285150975164
 10
2262.0
 20
457.94643597220625
 10
2272.5
 20
461.01509613195816
 10
2283.0
 20
464.53449557677226
 10
2293.5
 20
468.50463430664854
 10
2304.0
 20
472.9255123215869
 10
2314.5
 20
477.7971296215876
 10
2325.0
 20
483.1194862066503
 10
2325.0
 20
536.0603602288559
 42
-2.414213562373095
 10
2328.2
 20
539.2603602288558
 10
2343.0
 20
539.2603602288558
 10
2343.0
 20
579.2603602288558
 10
2328.2
 20
579.2603602288558
 42
-2.414213562373095
 10
2325.0
 20
582.4603602288558
 10
2325.0
 20
587.2603602288558
  0
TEXT
  5
100
330
17
100
AcDbEntity
  8
ENGRAVE-LABEL
100
AcDbText
 10
2178.62890625
 20
518.759372106476
 30
0.0
 40
22.0
  1
06 BODY-RIB-D 1/4
 72
1
 11
2178.62890625
 21
518.759372106476
 31
0.0
100
AcDbText
 73
2
  0
LWPOLYLINE
  5
101
330
17
100
AcDbEntity
  8
CUT
100
AcDbPolyline
 90
43
 70
1
 10
2341.0
 20
17.0
 10
2341.0
 20
21.8
 42
-2.414213562373095
 10
2344.2
 20
25.0
 10
2359.0
 20
25.0
 10
2359.0
 20
65.0
 10
2344.2
 20
65.0
 42
-2.414213562373095
 10
2341.0
 20
68.2
 10
2341.0
 20
99.7874086504653
 10
2330.5
 20
106.63501276208092
 10
2320.0
 20
113.03187758863442
 10
2309.5
 20
118.97800313012567
 10
2299.0
 20
124.4733893865548
 10
2288.5
 20
129.51803635792174
 10
2278.0
 20
134.11194404422662
 10
2267.5
 20
138.25511244546925
 10
2257.0
 20
141.94754156164976
 10
2246.5
 20
145.18923139276808
 10
2236.0
 20
147.98018193882427
 10
2225.5
 20
150.32039319981828
 10
2215.0
 20
152.20986517575005
 10
2204.5
 20
153.64859786661975
 10
2194.0
 20
154.63659127242727
 10
2183.5
 20
155.17384539317266
 10
2173.0
 20
155.26036022885586
 10
2162.5
 20
154.89613577947682
 10
2152.0
 20
154.08117204503577
 10
2141.5
 20
152.81546902553248
 10
2131.0
 20
151.099026720967
 10
2120.5
 20
148.93184513133943
 10
2110.0
 20
146.31392425664964
 10
2099.5
 20
143.2452640968977
 10
2089.0
 20
139.7258646520836
 10
2078.5
 20
135.75572592220732
 10
2068.0
 20
131.3348479072689
 10
2057.5
 20
126.46323060726827
 10
2047.0
 20
121.14087402220555
 10
2047.0
 20
68.20000000000002
 42
-2.414213562373095
 10
2043.8
 20
65.00000000000003
 10
2029.0
 20
65.00000000000003
 10
2029.0
 20
25.000000000000018
 10
2043.8
 20
25.000000000000018
 42
-2.414213562373095
 10
2047.0
 20
21.80000000000002
 10
2047.0
 20
17.000000000000018
  0
TEXT
  5
102
330
17
100
AcDbEntity
  8
ENGRAVE-LABEL
100
AcDbText
 10
2159.41015625
 20
85.50098812237985
 30
0.0
 40
14.0
  1
06 BODY-RIB-D 2/4
 72
1
 11
2159.41015625
 21
85.50098812237985
 31
0.0
100
AcDbText
 73
2
  0
LWPOLYLINE
  5
103
330
17
100
AcDbEntity
  8
CUT
100
AcDbPolyline
 90
43
 70
1
 10
2361.0
 20
897.0
 10
2361.0
 20
901.8
 42
-2.414213562373095
 10
2364.2
 20
905.0
 10
2379.0
 20
905.0
 10
2379.0
 20
945.0
 10
2364.2
 20
945.0
 42
-2.414213562373095
 10
2361.0
 20
948.2
 10
2361.0
 20
979.7874086504653
 10
2350.5
 20
986.6350127620809
 10
2340.0
 20
993.0318775886344
 10
2329.5
 20
998.9780031301257
 10
2319.0
 20
1004.4733893865548
 10
2308.5
 20
1009.5180363579218
 10
2298.0
 20
1014.1119440442267
 10
2287.5
 20
1018.2551124454692
 10
2277.0
 20
1021.9475415616498
 10
2266.5
 20
1025.189231392768
 10
2256.0
 20
1027.9801819388242
 10
2245.5
 20
1030.3203931998182
 10
2235.0
 20
1032.20986517575
 10
2224.5
 20
1033.6485978666196
 10
2214.0
 20
1034.6365912724273
 10
2203.5
 20
1035.1738453931725
 10
2193.0
 20
1035.260360228856
 10
2182.5
 20
1034.896135779477
 10
2172.0
 20
1034.0811720450358
 10
2161.5
 20
1032.8154690255324
 10
2151.0
 20
1031.099026720967
 10
2140.5
 20
1028.9318451313395
 10
2130.0
 20
1026.3139242566497
 10
2119.5
 20
1023.2452640968977
 10
2109.0
 20
1019.7258646520836
 10
2098.5
 20
1015.7557259222074
 10
2088.0
 20
1011.3348479072689
 10
2077.5
 20
1006.4632306072683
 10
2067.0
 20
1001.1408740222056
 10
2067.0
 20
948.2
 42
-2.414213562373095
 10
2063.8
 20
945.0
 10
2049.0
 20
945.0
 10
2049.0
 20
905.0
 10
2063.8
 20
905.0
 42
-2.414213562373095
 10
2067.0
 20
901.8000000000001
 10
2067.0
 20
897.0
  0
TEXT
  5
104
330
17
100
AcDbEntity
  8
ENGRAVE-LABEL
100
AcDbText
 10
2179.41015625
 20
965.5009881223799
 30
0.0
 40
14.0
  1
06 BODY-RIB-D 3/4
 72
1
 11
2179.41015625
 21
965.5009881223799
 31
0.0
100
AcDbText
 73
2
  0
LWPOLYLINE
  5
105
330
17
100
AcDbEntity
  8
CUT
100
AcDbPolyline
 90
43
 70
1
 10
2393.0
 20
605.0
 10
2393.0
 20
609.8
 42
-2.414213562373095
 10
2396.2
 20
613.0
 10
2411.0
 20
613.0
 10
2411.0
 20
653.0
 10
2396.2
 20
653.0
 42
-2.414213562373095
 10
2393.0
 20
656.2
 10
2393.0
 20
687.7874086504653
 10
2382.5
 20
694.6350127620809
 10
2372.0
 20
701.0318775886344
 10
2361.5
 20
706.9780031301257
 10
2351.0
 20
712.4733893865548
 10
2340.5
 20
717.5180363579218
 10
2330.0
 20
722.1119440442267
 10
2319.5
 20
726.2551124454692
 10
2309.0
 20
729.9475415616498
 10
2298.5
 20
733.1892313927681
 10
2288.0
 20
735.9801819388242
 10
2277.5
 20
738.3203931998182
 10
2267.0
 20
740.2098651757501
 10
2256.5
 20
741.6485978666198
 10
2246.0
 20
742.6365912724273
 10
2235.5
 20
743.1738453931727
 10
2225.0
 20
743.2603602288559
 10
2214.5
 20
742.8961357794768
 10
2204.0
 20
742.0811720450358
 10
2193.5
 20
740.8154690255325
 10
2183.0
 20
739.099026720967
 10
2172.5
 20
736.9318451313394
 10
2162.0
 20
734.3139242566497
 10
2151.5
 20
731.2452640968977
 10
2141.0
 20
727.7258646520836
 10
2130.5
 20
723.7557259222074
 10
2120.0
 20
719.3348479072689
 10
2109.5
 20
714.4632306072683
 10
2099.0
 20
709.1408740222056
 10
2099.0
 20
656.2
 42
-2.414213562373095
 10
2095.8
 20
653.0
 10
2081.0
 20
653.0
 10
2081.0
 20
613.0
 10
2095.8
 20
613.0
 42
-2.414213562373095
 10
2099.0
 20
609.8000000000001
 10
2099.0
 20
605.0
  0
TEXT
  5
106
330
17
100
AcDbEntity
  8
ENGRAVE-LABEL
100
AcDbText
 10
2211.41015625
 20
673.5009881223799
 30
0.0
 40
14.0
  1
06 BODY-RIB-D 4/4
 72
1
 11
2211.41015625
 21
673.5009881223799
 31
0.0
100
AcDbText
 73
2
  0
LWPOLYLINE
  5
107
330
17
100
AcDbEntity
  8
CUT
100
AcDbPolyline
 90
43
 70
1
 10
2378.075634632111
 20
445.0
 10
2373.2756346321107
 20
445.0
 42
-2.414213562373095
 10
2370.075634632111
 20
448.2
 10
2370.075634632111
 20
463.0
 10
2330.075634632111
 20
463.0
 10
2330.075634632111
 20
448.2
 42
-2.414213562373095
 10
2326.8756346321106
 20
445.0
 10
2295.510164018501
 20
445.0
 10
2288.781406801924
 20
434.5
 10
2282.4955658474028
 20
424.0
 10
2276.652641154938
 20
413.5
 10
2271.252632724529
 20
403.0
 10
2266.2955405561765
 20
392.5
 10
2261.78136464988
 20
382.0
 10
2257.7101050056394
 20
371.5
 10
2254.081761623455
 20
361.0
 10
2250.8963345033267
 20
350.5
 10
2248.1538236452548
 20
340.0
 10
2245.8542290492387
 20
329.5
 10
2243.9975507152785
 20
319.0
 10
2242.5837886433746
 20
308.5
 10
2241.612942833527
 20
298.0
 10
2241.0850132857354
 20
287.5
 10
2241.0
 20
277.0
 10
2241.3579029763205
 20
266.5
 10
2242.1587222146973
 20
256.0
 10
2243.4024577151304
 20
245.50000000000003
 10
2245.0891094776193
 20
235.00000000000003
 10
2247.218677502164
 20
224.50000000000003
 10
2249.7911617887653
 20
214.00000000000003
 10
2252.8065623374227
 20
203.5
 10
2256.264879148136
 20
193.0
 10
2260.1661122209057
 20
182.5
 10
2264.510261555731
 20
172.0
 10
2269.297327152613
 20
161.5
 10
2274.5273090115506
 20
151.0
 10
2326.8756346321106
 20
151.0
 42
-2.414213562373095
 10
2330.075634632111
 20
147.8
 10
2330.075634632111
 20
133.0
 10
2370.075634632111
 20
133.0
 10
2370.075634632111
 20
147.8
 42
-2.414213562373095
 10
2373.2756346321107
 20
151.0
 10
2378.075634632111
 20
151.0
  0
TEXT
  5
108
330
17
100
AcDbEntity
  8
ENGRAVE-LABEL
100
AcDbText
 10
2310.1669994778467
 20
283.53515625
 30
0.0
 40
18.0
  1
03 BODY-RIB-A 1/4
 50
75.0
 72
1
 11
2310.1669994778467
 21
283.53515625
 31
0.0
100
AcDbText
 73
2
  0
LWPOLYLINE
  5
109
330
17
100
AcDbEntity
  8
CUT
100
AcDbPolyline
 90
17
 70
1
 10
387.0
 20
307.0
 10
387.0
 20
242.20000000000005
 42
-2.414213562373095
 10
383.8
 20
239.00000000000003
 10
369.0
 20
239.00000000000003
 10
369.0
 20
199.00000000000003
 10
383.8
 20
199.00000000000003
 42
-2.414213562373095
 10
387.0
 20
195.8
 10
387.0
 20
177.00000000000003
 10
577.0
 20
177.0
 10
577.0
 20
183.79999999999998
 42
-2.414213562373095
 10
580.2
 20
187.0
 10
627.0
 20
187.0
 10
657.0
 20
216.99999999999997
 10
657.0
 20
297.0
 10
580.2
 20
297.0
 42
-2.414213562373095
 10
577.0
 20
300.2
 10
577.0
 20
307.0
  0
TEXT
  5
10A
330
17
100
AcDbEntity
  8
ENGRAVE-LABEL
100
AcDbText
 10
513.0
 20
242.0
 30
0.0
 40
18.0
  1
08 BACK-RIB-A 1/2
 72
1
 11
513.0
 21
242.0
 31
0.0
100
AcDbText
 73
2
  0
LWPOLYLINE
  5
10B
330
17
100
AcDbEntity
  8
REFERENCE-SHEET
100
AcDbPolyline
 90
4
 70
1
 10
0.0
 20
-1470.0
 10
2440.0
 20
-1470.0
 10
2440.0
 20
-250.0
 10
0.0
 20
-250.0
  0
TEXT
  5
10C
330
17
100
AcDbEntity
  8
REFERENCE-SHEET
100
AcDbText
 10
0.0
 20
-195.0
 30
0.0
 40
40.0
  1
SHEET 2/2  -  2440 x 1220 x 18 mm MDF
 11
0.0
 21
-195.0
 31
0.0
100
AcDbText
  0
LWPOLYLINE
  5
10D
330
17
100
AcDbEntity
  8
CUT
100
AcDbPolyline
 90
43
 70
1
 10
17.0
 20
-1435.0
 10
21.8
 20
-1435.0
 42
-2.414213562373095
 10
25.0
 20
-1438.2
 10
25.0
 20
-1453.0
 10
65.0
 20
-1453.0
 10
65.0
 20
-1438.2
 42
-2.414213562373095
 10
68.2
 20
-1435.0
 10
99.5654706136097
 20
-1435.0
 10
106.29422783018686
 20
-1424.5
 10
112.58006878470792
 20
-1414.0
 10
118.42299347717278
 20
-1403.5
 10
123.82300190758161
 20
-1393.0
 10
128.7800940759343
 20
-1382.5
 10
133.29426998223096
 20
-1372.0
 10
137.3655296264714
 20
-1361.5
 10
140.99387300865578
 20
-1351.0
 10
144.179300128784
 20
-1340.5
 10
146.9218109868562
 20
-1330.0
 10
149.2214055828722
 20
-1319.5
 10
151.0780839168321
 20
-1309.0
 10
152.49184598873592
 20
-1298.5
 10
153.46269179858365
 20
-1288.0
 10
153.99062134637524
 20
-1277.5
 10
154.0756346321108
 20
-1267.0
 10
153.7177316557901
 20
-1256.5
 10
152.9169124174134
 20
-1246.0
 10
151.67317691698054
 20
-1235.5
 10
149.98652515449157
 20
-1225.0
 10
147.85695712994652
 20
-1214.5
 10
145.28447284334533
 20
-1204.0
 10
142.2690722946881
 20
-1193.5
 10
138.81075548397467
 20
-1183.0
 10
134.90952241120522
 20
-1172.5
 10
130.56537307637961
 20
-1162.0
 10
125.77830747949781
 20
-1151.5
 10
120.54832562055998
 20
-1141.0
 10
68.2
 20
-1141.0
 42
-2.414213562373095
 10
65.0
 20
-1137.8
 10
65.0
 20
-1123.0
 10
25.0
 20
-1123.0
 10
25.0
 20
-1137.8
 42
-2.414213562373095
 10
21.8
 20
-1141.0
 10
17.0
 20
-1141.0
  0
TEXT
  5
10E
330
17
100
AcDbEntity
  8
ENGRAVE-LABEL
100
AcDbText
 10
84.90863515426439
 20
-1254.66796875
 30
0.0
 40
14.0
  1
03 BODY-RIB-A 2/4
 50
60.0
 72
1
 11
84.90863515426439
 21
-1254.66796875
 31
0.0
100
AcDbText
 73
2
  0
LWPOLYLINE
  5
10F
330
17
100
AcDbEntity
  8
CUT
100
AcDbPolyline
 90
43
 70
1
 10
35.00000000000001
 20
-999.9243653678892
 10
35.00000000000001
 20
-1004.7243653678892
 42
-2.414213562373095
 10
31.800000000000008
 20
-1007.9243653678892
 10
17.000000000000007
 20
-1007.9243653678892
 10
17.0
 20
-1047.924365367889
 10
31.8
 20
-1047.924365367889
 42
-2.414213562373095
 10
35.0
 20
-1051.1243653678891
 10
34.99999999999999
 20
-1082.4898359814988
 10
45.499999999999986
 20
-1089.2185931980762
 10
55.99999999999999
 20
-1095.5044341525972
 10
66.49999999999999
 20
-1101.347358845062
 10
76.99999999999999
 20
-1106.7473672754709
 10
87.5
 20
-1111.7044594438235
 10
97.99999999999999
 20
-1116.2186353501202
 10
108.49999999999999
 20
-1120.2898949943606
 10
118.99999999999999
 20
-1123.918238376545
 10
129.5
 20
-1127.1036654966733
 10
140.0
 20
-1129.8461763547455
 10
150.49999999999997
 20
-1132.1457709507613
 10
160.99999999999997
 20
-1134.0024492847213
 10
171.49999999999997
 20
-1135.4162113566251
 10
181.99999999999997
 20
-1136.387057166473
 10
192.49999999999997
 20
-1136.9149867142644
 10
202.99999999999997
 20
-1137.0
 10
213.49999999999997
 20
-1136.6420970236793
 10
223.99999999999997
 20
-1135.8412777853027
 10
234.49999999999997
 20
-1134.5975422848696
 10
244.99999999999997
 20
-1132.9108905223807
 10
255.49999999999997
 20
-1130.7813224978358
 10
266.0
 20
-1128.2088382112347
 10
276.5
 20
-1125.1934376625773
 10
287.0
 20
-1121.735120851864
 10
297.5
 20
-1117.8338877790943
 10
308.0
 20
-1113.4897384442688
 10
318.5
 20
-1108.702672847387
 10
329.0
 20
-1103.4726909884494
 10
329.0
 20
-1051.1243653678894
 42
-2.414213562373095
 10
332.2
 20
-1047.924365367889
 10
347.0
 20
-1047.924365367889
 10
347.0
 20
-1007.9243653678892
 10
332.2
 20
-1007.9243653678892
 42
-2.414213562373095
 10
329.0
 20
-1004.7243653678893
 10
329.0
 20
-999.9243653678892
  0
TEXT
  5
110
330
17
100
AcDbEntity
  8
ENGRAVE-LABEL
100
AcDbText
 10
190.17578125
 20
-1067.8330005221537
 30
0.0
 40
22.0
  1
03 BODY-RIB-A 3/4
 72
1
 11
190.17578125
 21
-1067.8330005221537
 31
0.0
100
AcDbText
 73
2
  0
LWPOLYLINE
  5
111
330
17
100
AcDbEntity
  8
CUT
100
AcDbPolyline
 90
43
 70
1
 10
17.0
 20
-967.0
 10
21.8
 20
-967.0
 42
-2.414213562373095
 10
25.0
 20
-970.2
 10
25.0
 20
-985.0
 10
65.0
 20
-985.0
 10
65.0
 20
-970.2
 42
-2.414213562373095
 10
68.2
 20
-967.0
 10
99.5654706136097
 20
-967.0
 10
106.29422783018686
 20
-956.5
 10
112.58006878470792
 20
-946.0
 10
118.42299347717278
 20
-935.5
 10
123.82300190758161
 20
-925.0
 10
128.7800940759343
 20
-914.5
 10
133.29426998223096
 20
-904.0
 10
137.3655296264714
 20
-893.5
 10
140.99387300865578
 20
-883.0
 10
144.179300128784
 20
-872.5
 10
146.9218109868562
 20
-862.0
 10
149.2214055828722
 20
-851.5
 10
151.0780839168321
 20
-841.0
 10
152.49184598873592
 20
-830.5
 10
153.46269179858365
 20
-820.0
 10
153.99062134637524
 20
-809.5
 10
154.0756346321108
 20
-799.0
 10
153.7177316557901
 20
-788.5
 10
152.9169124174134
 20
-778.0
 10
151.67317691698054
 20
-767.5
 10
149.98652515449157
 20
-757.0
 10
147.85695712994652
 20
-746.5
 10
145.28447284334533
 20
-736.0
 10
142.2690722946881
 20
-725.5
 10
138.81075548397467
 20
-715.0
 10
134.90952241120522
 20
-704.5
 10
130.56537307637961
 20
-694.0
 10
125.77830747949781
 20
-683.5
 10
120.54832562055998
 20
-673.0
 10
68.2
 20
-673.0
 42
-2.414213562373095
 10
65.0
 20
-669.8
 10
65.0
 20
-655.0
 10
25.0
 20
-655.0
 10
25.0
 20
-669.8
 42
-2.414213562373095
 10
21.8
 20
-673.0
 10
17.0
 20
-673.0
  0
TEXT
  5
112
330
17
100
AcDbEntity
  8
ENGRAVE-LABEL
100
AcDbText
 10
84.90863515426439
 20
-786.66796875
 30
0.0
 40
14.0
  1
03 BODY-RIB-A 4/4
 50
60.0
 72
1
 11
84.90863515426439
 21
-786.66796875
 31
0.0
100
AcDbText
 73
2
  0
LWPOLYLINE
  5
113
330
17
100
AcDbEntity
  8
CUT
100
AcDbPolyline
 90
43
 70
1
 10
35.00000000000001
 20
-534.0081658694539
 10
35.00000000000001
 20
-538.808165869454
 42
-2.414213562373095
 10
31.800000000000008
 20
-542.0081658694539
 10
17.000000000000007
 20
-542.0081658694539
 10
17.0
 20
-582.0081658694539
 10
31.8
 20
-582.0081658694539
 42
-2.414213562373095
 10
35.0
 20
-585.208165869454
 10
34.99999999999999
 20
-616.1832721710352
 10
45.499999999999986
 20
-622.7029909232025
 10
55.99999999999999
 20
-628.7935532403222
 10
66.49999999999999
 20
-634.4549591223944
 10
76.99999999999999
 20
-639.6872085694189
 10
87.5
 20
-644.4903015813957
 10
98.0
 20
-648.8642381583251
 10
108.49999999999999
 20
-652.8090183002067
 10
118.99999999999999
 20
-656.3246420070409
 10
129.5
 20
-659.4111092788273
 10
140.0
 20
-662.0684201155663
 10
150.49999999999997
 20
-664.2965745172576
 10
160.99999999999997
 20
-666.0955724839012
 10
171.49999999999997
 20
-667.4654140154973
 10
181.99999999999997
 20
-668.4060991120458
 10
192.49999999999997
 20
-668.9176277735467
 10
202.99999999999997
 20
-669.0
 10
213.49999999999997
 20
-668.6532157914056
 10
223.99999999999997
 20
-667.8772751477637
 10
234.49999999999997
 20
-666.6721780690741
 10
244.99999999999997
 20
-665.037924555337
 10
255.49999999999997
 20
-662.9745146065524
 10
266.0
 20
-660.48194822272
 10
276.5
 20
-657.56022540384
 10
287.0
 20
-654.2093461499126
 10
297.5
 20
-650.4293104609374
 10
308.0
 20
-646.2201183369147
 10
318.5
 20
-641.5817697778443
 10
329.0
 20
-636.5142647837264
 10
329.0
 20
-585.208165869454
 42
-2.414213562373095
 10
332.2
 20
-582.008165869454
 10
347.0
 20
-582.008165869454
 10
347.0
 20
-542.008165869454
 10
332.2
 20
-542.008165869454
 42
-2.414213562373095
 10
329.0
 20
-538.808165869454
 10
329.0
 20
-534.008165869454
  0
TEXT
  5
114
330
17
100
AcDbEntity
  8
ENGRAVE-LABEL
100
AcDbText
 10
182.0
 20
-600.9738121717528
 30
0.0
 40
22.0
  1
07 BODY-RIB-E 1/4
 72
1
 11
182.0
 21
-600.9738121717528
 31
0.0
100
AcDbText
 73
2
  0
LWPOLYLINE
  5
115
330
17
100
AcDbEntity
  8
CUT
100
AcDbPolyline
 90
43
 70
1
 10
329.0
 20
-517.0
 10
329.0
 20
-512.2
 42
-2.414213562373095
 10
332.2
 20
-509.0
 10
347.0
 20
-509.0
 10
347.0
 20
-469.0
 10
332.2
 20
-469.0
 42
-2.414213562373095
 10
329.0
 20
-465.79999999999995
 10
329.0
 20
-434.8248936984187
 10
318.5
 20
-428.30517494625155
 10
308.0
 20
-422.2146126291318
 10
297.5
 20
-416.5532067470597
 10
287.0
 20
-411.32095730003516
 10
276.5
 20
-406.51786428805826
 10
266.0
 20
-402.143927711129
 10
255.5
 20
-398.1991475692471
 10
245.0
 20
-394.68352386241304
 10
234.5
 20
-391.5970565906266
 10
224.0
 20
-388.9397457538878
 10
213.5
 20
-386.71159135219636
 10
203.0
 20
-384.9125933855528
 10
192.5
 20
-383.5427518539568
 10
182.0
 20
-382.60206675740824
 10
171.5
 20
-382.0905380959073
 10
161.0
 20
-382.00816586945393
 10
150.5
 20
-382.35495007804843
 10
140.0
 20
-383.1308907216903
 10
129.5
 20
-384.3359878003798
 10
119.0
 20
-385.97024131411695
 10
108.5
 20
-388.0336512629017
 10
98.0
 20
-390.52621764673404
 10
87.5
 20
-393.447940465614
 10
77.0
 20
-396.79881971954137
 10
66.5
 20
-400.5788554085166
 10
56.0
 20
-404.7880475325394
 10
45.5
 20
-409.4263960916096
 10
35.0
 20
-414.49390108572766
 10
35.0
 20
-465.79999999999995
 42
-2.414213562373095
 10
31.80000000000001
 20
-469.0
 10
17.0
 20
-469.0
 10
17.0
 20
-509.0
 10
31.80000000000001
 20
-509.0
 42
-2.414213562373095
 10
35.0
 20
-512.1999999999999
 10
35.0
 20
-517.0
  0
TEXT
  5
116
330
17
100
AcDbEntity
  8
ENGRAVE-LABEL
100
AcDbText
 10
182.0
 20
-450.034353697701
 30
0.0
 40
22.0
  1
07 BODY-RIB-E 2/4
 72
1
 11
182.0
 21
-450.034353697701
 31
0.0
100
AcDbText
 73
2
  0
LWPOLYLINE
  5
117
330
17
100
AcDbEntity
  8
CUT
100
AcDbPolyline
 90
43
 70
1
 10
449.0
 20
-1453.0
 10
449.0
 20
-1448.2
 42
-2.414213562373095
 10
452.2
 20
-1445.0
 10
467.0
 20
-1445.0
 10
467.0
 20
-1405.0
 10
452.2
 20
-1405.0
 42
-2.414213562373095
 10
449.0
 20
-1401.8
 10
449.0
 20
-1370.8248936984187
 10
438.5
 20
-1364.3051749462516
 10
428.0
 20
-1358.2146126291318
 10
417.5
 20
-1352.5532067470597
 10
407.0
 20
-1347.3209573000352
 10
396.5
 20
-1342.5178642880583
 10
386.0
 20
-1338.143927711129
 10
375.5
 20
-1334.199147569247
 10
365.0
 20
-1330.683523862413
 10
354.5
 20
-1327.5970565906266
 10
344.0
 20
-1324.9397457538878
 10
333.5
 20
-1322.7115913521964
 10
323.0
 20
-1320.9125933855528
 10
312.5
 20
-1319.5427518539568
 10
302.0
 20
-1318.6020667574082
 10
291.5
 20
-1318.0905380959073
 10
281.0
 20
-1318.008165869454
 10
270.5
 20
-1318.3549500780484
 10
260.0
 20
-1319.1308907216903
 10
249.5
 20
-1320.3359878003798
 10
239.0
 20
-1321.970241314117
 10
228.5
 20
-1324.0336512629017
 10
218.0
 20
-1326.526217646734
 10
207.5
 20
-1329.447940465614
 10
197.0
 20
-1332.7988197195414
 10
186.5
 20
-1336.5788554085166
 10
176.0
 20
-1340.7880475325394
 10
165.5
 20
-1345.4263960916096
 10
155.0
 20
-1350.4939010857277
 10
155.0
 20
-1401.8
 42
-2.414213562373095
 10
151.8
 20
-1405.0
 10
137.0
 20
-1405.0
 10
137.0
 20
-1445.0
 10
151.8
 20
-1445.0
 42
-2.414213562373095
 10
155.0
 20
-1448.2
 10
155.0
 20
-1453.0
  0
TEXT
  5
118
330
17
100
AcDbEntity
  8
ENGRAVE-LABEL
100
AcDbText
 10
302.0
 20
-1386.0343536977011
 30
0.0
 40
22.0
  1
07 BODY-RIB-E 3/4
 72
1
 11
302.0
 21
-1386.0343536977011
 31
0.0
100
AcDbText
 73
2
  0
LWPOLYLINE
  5
119
330
17
100
AcDbEntity
  8
CUT
100
AcDbPolyline
 90
43
 70
1
 10
449.0
 20
-985.0
 10
449.0
 20
-980.2
 42
-2.414213562373095
 10
452.2
 20
-977.0
 10
467.0
 20
-977.0
 10
467.0
 20
-937.0
 10
452.2
 20
-937.0
 42
-2.414213562373095
 10
449.0
 20
-933.8
 10
449.0
 20
-902.8248936984187
 10
438.5
 20
-896.3051749462514
 10
428.0
 20
-890.2146126291317
 10
417.5
 20
-884.5532067470597
 10
407.0
 20
-879.3209573000352
 10
396.5
 20
-874.5178642880583
 10
386.0
 20
-870.1439277111289
 10
375.5
 20
-866.1991475692472
 10
365.0
 20
-862.683523862413
 10
354.5
 20
-859.5970565906266
 10
344.0
 20
-856.9397457538878
 10
333.5
 20
-854.7115913521964
 10
323.0
 20
-852.9125933855528
 10
312.5
 20
-851.5427518539567
 10
302.0
 20
-850.6020667574082
 10
291.5
 20
-850.0905380959073
 10
281.0
 20
-850.0081658694539
 10
270.5
 20
-850.3549500780484
 10
260.0
 20
-851.1308907216903
 10
249.5
 20
-852.3359878003798
 10
239.0
 20
-853.970241314117
 10
228.5
 20
-856.0336512629017
 10
218.0
 20
-858.526217646734
 10
207.5
 20
-861.4479404656139
 10
197.0
 20
-864.7988197195415
 10
186.5
 20
-868.5788554085166
 10
176.0
 20
-872.7880475325393
 10
165.5
 20
-877.4263960916097
 10
155.0
 20
-882.4939010857277
 10
155.0
 20
-933.8
 42
-2.414213562373095
 10
151.8
 20
-937.0
 10
137.0
 20
-937.0
 10
137.0
 20
-977.0
 10
151.8
 20
-977.0
 42
-2.414213562373095
 10
155.0
 20
-980.2
 10
155.0
 20
-985.0
  0
TEXT
  5
11A
330
17
100
AcDbEntity
  8
ENGRAVE-LABEL
100
AcDbText
 10
302.0
 20
-918.0343536977011
 30
0.0
 40
22.0
  1
07 BODY-RIB-E 4/4
 72
1
 11
302.0
 21
-918.0343536977011
 31
0.0
100
AcDbText
 73
2
  0
LWPOLYLINE
  5
11B
330
17
100
AcDbEntity
  8
CUT
100
AcDbPolyline
 90
17
 70
1
 10
465.33445539991567
 20
-1301.0
 10
465.33445539991567
 20
-1236.2
 42
-2.414213562373095
 10
468.53445539991566
 20
-1233.0
 10
483.33445539991567
 20
-1233.0
 10
483.33445539991567
 20
-1193.0
 10
468.53445539991566
 20
-1193.0
 42
-2.414213562373095
 10
465.33445539991567
 20
-1189.8
 10
465.33445539991567
 20
-1171.0
 10
275.33445539991567
 20
-1171.0
 10
275.33445539991567
 20
-1177.8
 42
-2.414213562373095
 10
272.1344553999157
 20
-1181.0
 10
199.0
 20
-1181.0
 10
169.0
 20
-1211.0
 10
169.0
 20
-1291.0
 10
272.1344553999157
 20
-1291.0
 42
-2.414213562373095
 10
275.33445539991567
 20
-1294.2
 10
275.33445539991567
 20
-1301.0
  0
TEXT
  5
11C
330
17
100
AcDbEntity
  8
ENGRAVE-LABEL
100
AcDbText
 10
326.16722769995783
 20
-1236.0
 30
0.0
 40
22.0
  1
09 BACK-RIB-B 1/2
 50
15.0
 72
1
 11
326.16722769995783
 21
-1236.0
 31
0.0
100
AcDbText
 73
2
  0
LWPOLYLINE
  5
11D
330
17
100
AcDbEntity
  8
CUT
100
AcDbPolyline
 90
17
 70
1
 10
465.33445539991567
 20
-833.0
 10
465.33445539991567
 20
-768.2
 42
-2.414213562373095
 10
468.53445539991566
 20
-765.0
 10
483.33445539991567
 20
-765.0
 10
483.33445539991567
 20
-725.0
 10
468.53445539991566
 20
-725.0
 42
-2.414213562373095
 10
465.33445539991567
 20
-721.8
 10
465.33445539991567
 20
-703.0
 10
275.33445539991567
 20
-703.0
 10
275.33445539991567
 20
-709.8
 42
-2.414213562373095
 10
272.1344553999157
 20
-713.0
 10
199.0
 20
-713.0
 10
169.0
 20
-743.0
 10
169.0
 20
-823.0
 10
272.1344553999157
 20
-823.0
 42
-2.414213562373095
 10
275.33445539991567
 20
-826.2
 10
275.33445539991567
 20
-833.0
  0
TEXT
  5
11E
330
17
100
AcDbEntity
  8
ENGRAVE-LABEL
100
AcDbText
 10
326.16722769995783
 20
-768.0
 30
0.0
 40
22.0
  1
09 BACK-RIB-B 2/2
 50
15.0
 72
1
 11
326.16722769995783
 21
-768.0
 31
0.0
100
AcDbText
 73
2
  0
LWPOLYLINE
  5
11F
330
17
100
AcDbEntity
  8
CUT
100
AcDbPolyline
 90
17
 70
1
 10
547.0
 20
-401.0
 10
547.0
 20
-336.20000000000005
 42
-2.414213562373095
 10
550.2
 20
-333.0
 10
565.0
 20
-333.0
 10
565.0
 20
-293.0
 10
550.2
 20
-293.0
 42
-2.414213562373095
 10
547.0
 20
-289.79999999999995
 10
547.0
 20
-271.0
 10
357.0
 20
-271.0
 10
357.0
 20
-277.79999999999995
 42
-2.414213562373095
 10
353.8
 20
-281.0
 10
307.0
 20
-281.0
 10
277.0
 20
-311.0
 10
277.0
 20
-391.0
 10
353.8
 20
-391.0
 42
-2.414213562373095
 10
357.0
 20
-394.20000000000005
 10
357.0
 20
-401.0
  0
TEXT
  5
120
330
17
100
AcDbEntity
  8
ENGRAVE-LABEL
100
AcDbText
 10
421.0
 20
-336.0
 30
0.0
 40
18.0
  1
08 BACK-RIB-A 2/2
 72
1
 11
421.0
 21
-336.0
 31
0.0
100
AcDbText
 73
2
  0
ENDSEC
  0
SECTION
  2
OBJECTS
  0
DICTIONARY
  5
A
330
0
100
AcDbDictionary
281
1
  3
ACAD_COLOR
350
B
  3
ACAD_GROUP
350
C
  3
ACAD_LAYOUT
350
D
  3
ACAD_MATERIAL
350
E
  3
ACAD_MLEADERSTYLE
350
F
  3
ACAD_MLINESTYLE
350
10
  3
ACAD_PLOTSETTINGS
350
11
  3
ACAD_PLOTSTYLENAME
350
12
  3
ACAD_SCALELIST
350
14
  3
ACAD_TABLESTYLE
350
15
  3
ACAD_VISUALSTYLE
350
16
  3
EZDXF_META
350
2D
  0
DICTIONARY
  5
B
330
A
100
AcDbDictionary
281
1
  0
DICTIONARY
  5
C
330
A
100
AcDbDictionary
281
1
  0
DICTIONARY
  5
D
330
A
100
AcDbDictionary
281
1
  3
Model
350
1A
  3
Layout1
350
1E
  0
DICTIONARY
  5
E
330
A
100
AcDbDictionary
281
1
  3
ByBlock
350
1F
  3
ByLayer
350
20
  3
Global
350
21
  0
DICTIONARY
  5
F
330
A
100
AcDbDictionary
281
1
  3
Standard
350
2C
  0
DICTIONARY
  5
10
330
A
100
AcDbDictionary
281
1
  3
Standard
350
22
  0
DICTIONARY
  5
11
330
A
100
AcDbDictionary
281
1
  0
ACDBDICTIONARYWDFLT
  5
12
330
A
100
AcDbDictionary
281
1
  3
Normal
350
13
100
AcDbDictionaryWithDefault
340
13
  0
ACDBPLACEHOLDER
  5
13
330
12
  0
DICTIONARY
  5
14
330
A
100
AcDbDictionary
281
1
  0
DICTIONARY
  5
15
330
A
100
AcDbDictionary
281
1
  0
DICTIONARY
  5
16
330
A
100
AcDbDictionary
281
1
  3
2dWireframe
350
5A
  3
Basic
350
5B
  3
Brighten
350
5C
  3
ColorChange
350
5D
  3
Conceptual
350
5E
  3
Dim
350
5F
  3
EdgeColorOff
350
60
  3
Facepattern
350
61
  3
Flat
350
62
  3
FlatWithEdges
350
63
  3
Gouraud
350
64
  3
GouraudWithEdges
350
65
  3
Hidden
350
66
  3
JitterOff
350
67
  3
Linepattern
350
68
  3
Modeling
350
69
  3
OverhangOff
350
6A
  3
Realistic
350
6B
  3
Shaded
350
6C
  3
Shaded with edges
350
6D
  3
Shades of Gray
350
6E
  3
Sketchy
350
6F
  3
Thicken
350
70
  3
Wireframe
350
71
  3
X-Ray
350
72
  0
LAYOUT
  5
1A
330
D
100
AcDbPlotSettings
  1

  4
A3
  6

 40
7.5
 41
20.0
 42
7.5
 43
20.0
 44
420.0
 45
297.0
 46
0.0
 47
0.0
 48
0.0
 49
0.0
140
0.0
141
0.0
142
1.0
143
1.0
 70
1024
 72
1
 73
0
 74
5
  7

 75
16
 76
0
 77
2
 78
300
147
1.0
148
0.0
149
0.0
100
AcDbLayout
  1
Model
 70
1
 71
0
 10
0.0
 20
0.0
 11
420.0
 21
297.0
 12
0.0
 22
0.0
 32
0.0
 14
1e+20
 24
1e+20
 34
1e+20
 15
-1e+20
 25
-1e+20
 35
-1e+20
146
0.0
 13
0.0
 23
0.0
 33
0.0
 16
1.0
 26
0.0
 36
0.0
 17
0.0
 27
1.0
 37
0.0
 76
1
330
17
  0
LAYOUT
  5
1E
330
D
100
AcDbPlotSettings
  1

  4
A3
  6

 40
7.5
 41
20.0
 42
7.5
 43
20.0
 44
420.0
 45
297.0
 46
0.0
 47
0.0
 48
0.0
 49
0.0
140
0.0
141
0.0
142
1.0
143
1.0
 70
0
 72
1
 73
0
 74
5
  7

 75
16
 76
0
 77
2
 78
300
147
1.0
148
0.0
149
0.0
100
AcDbLayout
  1
Layout1
 70
1
 71
1
 10
0.0
 20
0.0
 11
420.0
 21
297.0
 12
0.0
 22
0.0
 32
0.0
 14
1e+20
 24
1e+20
 34
1e+20
 15
-1e+20
 25
-1e+20
 35
-1e+20
146
0.0
 13
0.0
 23
0.0
 33
0.0
 16
1.0
 26
0.0
 36
0.0
 17
0.0
 27
1.0
 37
0.0
 76
1
330
1B
  0
MATERIAL
  5
1F
102
{ACAD_REACTORS
330
E
102
}
330
E
100
AcDbMaterial
  1
ByBlock
  2

 70
0
 40
1.0
 71
1
 41
1.0
 91
-1023410177
 42
1.0
 72
1
  3

 73
1
 74
1
 75
1
 44
0.5
 73
0
 45
1.0
 46
1.0
 77
1
  4

 78
1
 79
1
170
1
 48
1.0
171
1
  6

172
1
173
1
174
1
140
1.0
141
1.0
175
1
  7

176
1
177
1
178
1
143
1.0
179
1
  8

270
1
271
1
272
1
145
1.0
146
1.0
273
1
  9

274
1
275
1
276
1
 42
1.0
 72
1
  3

 73
1
 74
1
 75
1
 94
63
  0
MATERIAL
  5
20
102
{ACAD_REACTORS
330
E
102
}
330
E
100
AcDbMaterial
  1
ByLayer
  2

 70
0
 40
1.0
 71
1
 41
1.0
 91
-1023410177
 42
1.0
 72
1
  3

 73
1
 74
1
 75
1
 44
0.5
 73
0
 45
1.0
 46
1.0
 77
1
  4

 78
1
 79
1
170
1
 48
1.0
171
1
  6

172
1
173
1
174
1
140
1.0
141
1.0
175
1
  7

176
1
177
1
178
1
143
1.0
179
1
  8

270
1
271
1
272
1
145
1.0
146
1.0
273
1
  9

274
1
275
1
276
1
 42
1.0
 72
1
  3

 73
1
 74
1
 75
1
 94
63
  0
MATERIAL
  5
21
102
{ACAD_REACTORS
330
E
102
}
330
E
100
AcDbMaterial
  1
Global
  2

 70
0
 40
1.0
 71
1
 41
1.0
 91
-1023410177
 42
1.0
 72
1
  3

 73
1
 74
1
 75
1
 44
0.5
 73
0
 45
1.0
 46
1.0
 77
1
  4

 78
1
 79
1
170
1
 48
1.0
171
1
  6

172
1
173
1
174
1
140
1.0
141
1.0
175
1
  7

176
1
177
1
178
1
143
1.0
179
1
  8

270
1
271
1
272
1
145
1.0
146
1.0
273
1
  9

274
1
275
1
276
1
 42
1.0
 72
1
  3

 73
1
 74
1
 75
1
 94
63
  0
MLINESTYLE
  5
22
102
{ACAD_REACTORS
330
10
102
}
330
10
100
AcDbMlineStyle
  2
Standard
 70
0
  3

 62
256
 51
90.0
 52
90.0
 71
2
 49
0.5
 62
256
  6
BYLAYER
 49
-0.5
 62
256
  6
BYLAYER
  0
MLEADERSTYLE
  5
2C
102
{ACAD_REACTORS
330
F
102
}
330
F
100
AcDbMLeaderStyle
179
2
170
2
171
1
172
0
 90
2
 40
0.0
 41
0.0
173
1
 91
-1056964608
 92
-2
290
1
 42
2.0
291
1
 43
8.0
  3
Standard
 44
4.0
300

342
29
174
1
175
1
176
0
178
1
 93
-1056964608
 45
4.0
292
0
297
0
 46
4.0
 94
-1056964608
 47
1.0
 49
1.0
140
1.0
294
1
141
0.0
177
0
142
1.0
295
0
296
0
143
3.75
271
0
272
9
273
9
  0
DICTIONARY
  5
2D
330
A
100
AcDbDictionary
280
1
281
1
  3
CREATED_BY_EZDXF
350
2E
  3
WRITTEN_BY_EZDXF
350
123
  0
DICTIONARYVAR
  5
2E
330
2D
100
DictionaryVariables
280
0
  1
1.4.4 @ 2026-09-27T09:44:59.493751+00:00
  0
VISUALSTYLE
  5
5A
102
{ACAD_REACTORS
330
16
102
}
330
16
100
AcDbVisualStyle
  2
2dWireframe
 70
4
 90
0
 40
0.6
 62
7
290
0
291
0
  0
VISUALSTYLE
  5
5B
102
{ACAD_REACTORS
330
16
102
}
330
16
100
AcDbVisualStyle
  2
Basic
 70
7
 90
1
 40
0.6
 62
7
290
0
291
1
  0
VISUALSTYLE
  5
5C
102
{ACAD_REACTORS
330
16
102
}
330
16
100
AcDbVisualStyle
  2
Brighten
 70
12
 90
2
 40
0.6
 62
7
290
0
291
1
  0
VISUALSTYLE
  5
5D
102
{ACAD_REACTORS
330
16
102
}
330
16
100
AcDbVisualStyle
  2
ColorChange
 70
16
 90
2
 40
0.6
 62
8
290
0
291
1
  0
VISUALSTYLE
  5
5E
102
{ACAD_REACTORS
330
16
102
}
330
16
100
AcDbVisualStyle
  2
Conceptual
 70
9
 90
3
 40
0.6
 62
7
290
0
291
0
  0
VISUALSTYLE
  5
5F
102
{ACAD_REACTORS
330
16
102
}
330
16
100
AcDbVisualStyle
  2
Dim
 70
11
 90
2
 40
0.6
 62
7
290
0
291
1
  0
VISUALSTYLE
  5
60
102
{ACAD_REACTORS
330
16
102
}
330
16
100
AcDbVisualStyle
  2
EdgeColorOff
 70
22
 90
2
 40
0.6
 62
7
290
0
291
1
  0
VISUALSTYLE
  5
61
102
{ACAD_REACTORS
330
16
102
}
330
16
100
AcDbVisualStyle
  2
Facepattern
 70
15
 90
2
 40
0.6
 62
7
290
0
291
1
  0
VISUALSTYLE
  5
62
102
{ACAD_REACTORS
330
16
102
}
330
16
100
AcDbVisualStyle
  2
Flat
 70
0
 90
2
 40
0.6
 62
7
290
0
291
1
  0
VISUALSTYLE
  5
63
102
{ACAD_REACTORS
330
16
102
}
330
16
100
AcDbVisualStyle
  2
FlatWithEdges
 70
1
 90
2
 40
0.6
 62
7
290
0
291
1
  0
VISUALSTYLE
  5
64
102
{ACAD_REACTORS
330
16
102
}
330
16
100
AcDbVisualStyle
  2
Gouraud
 70
2
 90
2
 40
0.6
 62
7
290
0
291
1
  0
VISUALSTYLE
  5
65
102
{ACAD_REACTORS
330
16
102
}
330
16
100
AcDbVisualStyle
  2
GouraudWithEdges
 70
3
 90
2
 40
0.6
 62
7
290
0
291
1
  0
VISUALSTYLE
  5
66
102
{ACAD_REACTORS
330
16
102
}
330
16
100
AcDbVisualStyle
  2
Hidden
 70
6
 90
1
 40
0.6
 62
7
290
0
291
0
  0
VISUALSTYLE
  5
67
102
{ACAD_REACTORS
330
16
102
}
330
16
100
AcDbVisualStyle
  2
JitterOff
 70
20
 90
2
 40
0.6
 62
7
290
0
291
1
  0
VISUALSTYLE
  5
68
102
{ACAD_REACTORS
330
16
102
}
330
16
100
AcDbVisualStyle
  2
Linepattern
 70
14
 90
2
 40
0.6
 62
7
290
0
291
1
  0
VISUALSTYLE
  5
69
102
{ACAD_REACTORS
330
16
102
}
330
16
100
AcDbVisualStyle
  2
Modeling
 70
10
 90
2
 40
0.6
 62
7
290
0
291
0
  0
VISUALSTYLE
  5
6A
102
{ACAD_REACTORS
330
16
102
}
330
16
100
AcDbVisualStyle
  2
OverhangOff
 70
21
 90
2
 40
0.6
 62
7
290
0
291
1
  0
VISUALSTYLE
  5
6B
102
{ACAD_REACTORS
330
16
102
}
330
16
100
AcDbVisualStyle
  2
Realistic
 70
8
 90
2
 40
0.6
 62
7
290
0
291
0
  0
VISUALSTYLE
  5
6C
102
{ACAD_REACTORS
330
16
102
}
330
16
100
AcDbVisualStyle
  2
Shaded
 70
27
 90
2
 40
0.6
 62
7
290
0
291
0
  0
VISUALSTYLE
  5
6D
102
{ACAD_REACTORS
330
16
102
}
330
16
100
AcDbVisualStyle
  2
Shaded with edges
 70
26
 90
2
 40
0.6
 62
7
290
0
291
0
  0
VISUALSTYLE
  5
6E
102
{ACAD_REACTORS
330
16
102
}
330
16
100
AcDbVisualStyle
  2
Shades of Gray
 70
23
 90
2
 40
0.6
 62
7
290
0
291
0
  0
VISUALSTYLE
  5
6F
102
{ACAD_REACTORS
330
16
102
}
330
16
100
AcDbVisualStyle
  2
Sketchy
 70
24
 90
1
 40
0.6
 62
7
290
0
291
0
  0
VISUALSTYLE
  5
70
102
{ACAD_REACTORS
330
16
102
}
330
16
100
AcDbVisualStyle
  2
Thicken
 70
13
 90
2
 40
0.6
 62
7
290
0
291
1
  0
VISUALSTYLE
  5
71
102
{ACAD_REACTORS
330
16
102
}
330
16
100
AcDbVisualStyle
  2
Wireframe
 70
5
 90
0
 40
0.6
 62
7
290
0
291
0
  0
VISUALSTYLE
  5
72
102
{ACAD_REACTORS
330
16
102
}
330
16
100
AcDbVisualStyle
  2
X-Ray
 70
25
 90
2
 40
0.5
 62
7
290
0
291
0
  0
DICTIONARYVAR
  5
123
330
2D
100
DictionaryVariables
280
0
  1
1.4.4 @ 2026-09-27T09:44:59.680435+00:00
  0
ENDSEC
  0
EOF
