  0
SECTION
  2
HEADER
  9
$ACADVER
  1
AC1024
  9
$ACADMAINTVER
 70
6
  9
$DWGCODEPAGE
  3
ANSI_1252
  9
$LASTSAVEDBY
  1
ezdxf
  9
$INSBASE
 10
0.0
 20
0.0
 30
0.0
  9
$EXTMIN
 10
1e+20
 20
1e+20
 30
1e+20
  9
$EXTMAX
 10
-1e+20
 20
-1e+20
 30
-1e+20
  9
$LIMMIN
 10
0.0
 20
0.0
  9
$LIMMAX
 10
420.0
 20
297.0
  9
$ORTHOMODE
 70
0
  9
$REGENMODE
 70
1
  9
$FILLMODE
 70
1
  9
$QTEXTMODE
 70
0
  9
$MIRRTEXT
 70
1
  9
$LTSCALE
 40
1.0
  9
$ATTMODE
 70
1
  9
$TEXTSIZE
 40
2.5
  9
$TRACEWID
 40
1.0
  9
$TEXTSTYLE
  7
OpenSans
  9
$CLAYER
  8
0
  9
$CELTYPE
  6
ByLayer
  9
$CECOLOR
 62
256
  9
$CELTSCALE
 40
1.0
  9
$DISPSILH
 70
0
  9
$DIMSCALE
 40
1.0
  9
$DIMASZ
 40
0.175
  9
$DIMEXO
 40
0.125
  9
$DIMDLI
 40
3.75
  9
$DIMRND
 40
0.0
  9
$DIMDLE
 40
0.0
  9
$DIMEXE
 40
0.375
  9
$DIMTP
 40
0.0
  9
$DIMTM
 40
0.0
  9
$DIMTXT
 40
0.25
  9
$DIMCEN
 40
2.5
  9
$DIMTSZ
 40
0.0
  9
$DIMTOL
 70
0
  9
$DIMLIM
 70
0
  9
$DIMTIH
 70
0
  9
$DIMTOH
 70
0
  9
$DIMSE1
 70
0
  9
$DIMSE2
 70
0
  9
$DIMTAD
 70
1
  9
$DIMZIN
 70
12
  9
$DIMBLK
  1
ARCHTICK
  9
$DIMASO
 70
1
  9
$DIMSHO
 70
1
  9
$DIMPOST
  1

  9
$DIMAPOST
  1

  9
$DIMALT
 70
0
  9
$DIMALTD
 70
3
  9
$DIMALTF
 40
0.03937007874
  9
$DIMLFAC
 40
100.0
  9
$DIMTOFL
 70
1
  9
$DIMTVP
 40
0.0
  9
$DIMTIX
 70
0
  9
$DIMSOXD
 70
0
  9
$DIMSAH
 70
0
  9
$DIMBLK1
  1

  9
$DIMBLK2
  1

  9
$DIMSTYLE
  2
EZDXF
  9
$DIMCLRD
 70
0
  9
$DIMCLRE
 70
0
  9
$DIMCLRT
 70
0
  9
$DIMTFAC
 40
0.5
  9
$DIMGAP
 40
0.1
  9
$DIMJUST
 70
0
  9
$DIMSD1
 70
0
  9
$DIMSD2
 70
0
  9
$DIMTOLJ
 70
0
  9
$DIMTZIN
 70
8
  9
$DIMALTZ
 70
0
  9
$DIMALTTZ
 70
0
  9
$DIMUPT
 70
1
  9
$DIMDEC
 70
2
  9
$DIMTDEC
 70
2
  9
$DIMALTU
 70
2
  9
$DIMALTTD
 70
3
  9
$DIMTXSTY
  7
OpenSansCondensed-Light
  9
$DIMAUNIT
 70
0
  9
$DIMADEC
 70
2
  9
$DIMALTRND
 40
0.0
  9
$DIMAZIN
 70
3
  9
$DIMDSEP
 70
46
  9
$DIMATFIT
 70
3
  9
$DIMFRAC
 70
0
  9
$DIMLDRBLK
  1

  9
$DIMLUNIT
 70
2
  9
$DIMLWD
 70
-2
  9
$DIMLWE
 70
-2
  9
$DIMTMOVE
 70
2
  9
$DIMFXL
 40
1.0
  9
$DIMFXLON
 70
0
  9
$DIMJOGANG
 40
0.785398163397
  9
$DIMTFILL
 70
0
  9
$DIMTFILLCLR
 70
0
  9
$DIMARCSYM
 70
0
  9
$DIMLTYPE
  6

  9
$DIMLTEX1
  6

  9
$DIMLTEX2
  6

  9
$DIMTXTDIRECTION
 70
0
  9
$LUNITS
 70
2
  9
$LUPREC
 70
4
  9
$SKETCHINC
 40
1.0
  9
$FILLETRAD
 40
10.0
  9
$AUNITS
 70
0
  9
$AUPREC
 70
2
  9
$MENU
  1
.
  9
$ELEVATION
 40
0.0
  9
$PELEVATION
 40
0.0
  9
$THICKNESS
 40
0.0
  9
$LIMCHECK
 70
0
  9
$CHAMFERA
 40
0.0
  9
$CHAMFERB
 40
0.0
  9
$CHAMFERC
 40
0.0
  9
$CHAMFERD
 40
0.0
  9
$SKPOLY
 70
0
  9
$TDCREATE
 40
2461313.2032175926
  9
$TDUCREATE
 40
2458532.153996898
  9
$TDUPDATE
 40
2461313.2032175926
  9
$TDUUPDATE
 40
2458532.1544311
  9
$TDINDWG
 40
0.0
  9
$TDUSRTIMER
 40
0.0
  9
$USRTIMER
 70
1
  9
$ANGBASE
 50
0.0
  9
$ANGDIR
 70
0
  9
$PDMODE
 70
0
  9
$PDSIZE
 40
0.0
  9
$PLINEWID
 40
0.0
  9
$SPLFRAME
 70
0
  9
$SPLINETYPE
 70
6
  9
$SPLINESEGS
 70
8
  9
$HANDSEED
  5
A6
  9
$SURFTAB1
 70
6
  9
$SURFTAB2
 70
6
  9
$SURFTYPE
 70
6
  9
$SURFU
 70
6
  9
$SURFV
 70
6
  9
$UCSBASE
  2

  9
$UCSNAME
  2

  9
$UCSORG
 10
0.0
 20
0.0
 30
0.0
  9
$UCSXDIR
 10
1.0
 20
0.0
 30
0.0
  9
$UCSYDIR
 10
0.0
 20
1.0
 30
0.0
  9
$UCSORTHOREF
  2

  9
$UCSORTHOVIEW
 70
0
  9
$UCSORGTOP
 10
0.0
 20
0.0
 30
0.0
  9
$UCSORGBOTTOM
 10
0.0
 20
0.0
 30
0.0
  9
$UCSORGLEFT
 10
0.0
 20
0.0
 30
0.0
  9
$UCSORGRIGHT
 10
0.0
 20
0.0
 30
0.0
  9
$UCSORGFRONT
 10
0.0
 20
0.0
 30
0.0
  9
$UCSORGBACK
 10
0.0
 20
0.0
 30
0.0
  9
$PUCSBASE
  2

  9
$PUCSNAME
  2

  9
$PUCSORG
 10
0.0
 20
0.0
 30
0.0
  9
$PUCSXDIR
 10
1.0
 20
0.0
 30
0.0
  9
$PUCSYDIR
 10
0.0
 20
1.0
 30
0.0
  9
$PUCSORTHOREF
  2

  9
$PUCSORTHOVIEW
 70
0
  9
$PUCSORGTOP
 10
0.0
 20
0.0
 30
0.0
  9
$PUCSORGBOTTOM
 10
0.0
 20
0.0
 30
0.0
  9
$PUCSORGLEFT
 10
0.0
 20
0.0
 30
0.0
  9
$PUCSORGRIGHT
 10
0.0
 20
0.0
 30
0.0
  9
$PUCSORGFRONT
 10
0.0
 20
0.0
 30
0.0
  9
$PUCSORGBACK
 10
0.0
 20
0.0
 30
0.0
  9
$USERI1
 70
0
  9
$USERI2
 70
0
  9
$USERI3
 70
0
  9
$USERI4
 70
0
  9
$USERI5
 70
0
  9
$USERR1
 40
0.0
  9
$USERR2
 40
0.0
  9
$USERR3
 40
0.0
  9
$USERR4
 40
0.0
  9
$USERR5
 40
0.0
  9
$WORLDVIEW
 70
1
  9
$SHADEDGE
 70
3
  9
$SHADEDIF
 70
70
  9
$TILEMODE
 70
1
  9
$MAXACTVP
 70
64
  9
$PINSBASE
 10
0.0
 20
0.0
 30
0.0
  9
$PLIMCHECK
 70
0
  9
$PEXTMIN
 10
1e+20
 20
1e+20
 30
1e+20
  9
$PEXTMAX
 10
-1e+20
 20
-1e+20
 30
-1e+20
  9
$PLIMMIN
 10
0.0
 20
0.0
  9
$PLIMMAX
 10
420.0
 20
297.0
  9
$UNITMODE
 70
0
  9
$VISRETAIN
 70
1
  9
$PLINEGEN
 70
0
  9
$PSLTSCALE
 70
1
  9
$TREEDEPTH
 70
3020
  9
$CMLSTYLE
  2
Standard
  9
$CMLJUST
 70
0
  9
$CMLSCALE
 40
20.0
  9
$PROXYGRAPHICS
 70
1
  9
$MEASUREMENT
 70
1
  9
$CELWEIGHT
370
-1
  9
$ENDCAPS
280
0
  9
$JOINSTYLE
280
0
  9
$LWDISPLAY
290
0
  9
$INSUNITS
 70
4
  9
$HYPERLINKBASE
  1

  9
$STYLESHEET
  1

  9
$XEDIT
290
1
  9
$CEPSNTYPE
380
0
  9
$PSTYLEMODE
290
1
  9
$FINGERPRINTGUID
  2
{3C461EC4-5F63-44E2-9380-14D152BF7503}
  9
$VERSIONGUID
  2
{4226AF38-BBA1-4884-ACAE-32CAB48B4695}
  9
$EXTNAMES
290
1
  9
$PSVPSCALE
 40
0.0
  9
$OLESTARTUP
290
0
  9
$SORTENTS
280
127
  9
$INDEXCTL
280
0
  9
$HIDETEXT
280
1
  9
$XCLIPFRAME
280
1
  9
$HALOGAP
280
0
  9
$OBSCOLOR
 70
257
  9
$OBSLTYPE
280
0
  9
$INTERSECTIONDISPLAY
280
0
  9
$INTERSECTIONCOLOR
 70
257
  9
$DIMASSOC
280
2
  9
$PROJECTNAME
  1

  9
$CAMERADISPLAY
290
0
  9
$LENSLENGTH
 40
50.0
  9
$CAMERAHEIGHT
 40
0.0
  9
$STEPSPERSEC
 40
24.0
  9
$STEPSIZE
 40
100.0
  9
$3DDWFPREC
 40
2.0
  9
$PSOLWIDTH
 40
0.005
  9
$PSOLHEIGHT
 40
0.08
  9
$LOFTANG1
 40
1.570796326795
  9
$LOFTANG2
 40
1.570796326795
  9
$LOFTMAG1
 40
0.0
  9
$LOFTMAG2
 40
0.0
  9
$LOFTPARAM
 70
7
  9
$LOFTNORMALS
280
1
  9
$LATITUDE
 40
37.795
  9
$LONGITUDE
 40
-122.394
  9
$NORTHDIRECTION
 40
0.0
  9
$TIMEZONE
 70
-8000
  9
$LIGHTGLYPHDISPLAY
280
1
  9
$TILEMODELIGHTSYNCH
280
1
  9
$CMATERIAL
347
20
  9
$SOLIDHIST
280
0
  9
$SHOWHIST
280
1
  9
$DWFFRAME
280
2
  9
$DGNFRAME
280
2
  9
$REALWORLDSCALE
290
1
  9
$INTERFERECOLOR
 62
256
  9
$CSHADOW
280
0
  9
$SHADOWPLANELOCATION
 40
0.0
  0
ENDSEC
  0
SECTION
  2
CLASSES
  0
CLASS
  1
ACDBDICTIONARYWDFLT
  2
AcDbDictionaryWithDefault
  3
ObjectDBX Classes
 90
0
 91
0
280
0
281
0
  0
CLASS
  1
SUN
  2
AcDbSun
  3
SCENEOE
 90
1153
 91
0
280
0
281
0
  0
CLASS
  1
VISUALSTYLE
  2
AcDbVisualStyle
  3
ObjectDBX Classes
 90
4095
 91
0
280
0
281
0
  0
CLASS
  1
MATERIAL
  2
AcDbMaterial
  3
ObjectDBX Classes
 90
1153
 91
0
280
0
281
0
  0
CLASS
  1
SCALE
  2
AcDbScale
  3
ObjectDBX Classes
 90
1153
 91
0
280
0
281
0
  0
CLASS
  1
TABLESTYLE
  2
AcDbTableStyle
  3
ObjectDBX Classes
 90
4095
 91
0
280
0
281
0
  0
CLASS
  1
MLEADERSTYLE
  2
AcDbMLeaderStyle
  3
ACDB_MLEADERSTYLE_CLASS
 90
4095
 91
0
280
0
281
0
  0
CLASS
  1
DICTIONARYVAR
  2
AcDbDictionaryVar
  3
ObjectDBX Classes
 90
0
 91
0
280
0
281
0
  0
CLASS
  1
CELLSTYLEMAP
  2
AcDbCellStyleMap
  3
ObjectDBX Classes
 90
1152
 91
0
280
0
281
0
  0
CLASS
  1
MENTALRAYRENDERSETTINGS
  2
AcDbMentalRayRenderSettings
  3
SCENEOE
 90
1024
 91
0
280
0
281
0
  0
CLASS
  1
ACDBDETAILVIEWSTYLE
  2
AcDbDetailViewStyle
  3
ObjectDBX Classes
 90
1025
 91
0
280
0
281
0
  0
CLASS
  1
ACDBSECTIONVIEWSTYLE
  2
AcDbSectionViewStyle
  3
ObjectDBX Classes
 90
1025
 91
0
280
0
281
0
  0
CLASS
  1
RASTERVARIABLES
  2
AcDbRasterVariables
  3
ISM
 90
0
 91
0
280
0
281
0
  0
CLASS
  1
ACDBPLACEHOLDER
  2
AcDbPlaceHolder
  3
ObjectDBX Classes
 90
0
 91
0
280
0
281
0
  0
CLASS
  1
LAYOUT
  2
AcDbLayout
  3
ObjectDBX Classes
 90
0
 91
0
280
0
281
0
  0
ENDSEC
  0
SECTION
  2
TABLES
  0
TABLE
  2
VPORT
  5
8
330
0
100
AcDbSymbolTable
 70
1
  0
VPORT
  5
23
330
8
100
AcDbSymbolTableRecord
100
AcDbViewportTableRecord
  2
*Active
 70
0
 10
0.0
 20
0.0
 11
1.0
 21
1.0
 12
0.0
 22
0.0
 13
0.0
 23
0.0
 14
0.5
 24
0.5
 15
0.5
 25
0.5
 16
0.0
 26
0.0
 36
1.0
 17
0.0
 27
0.0
 37
0.0
 40
1000.0
 41
1.34
 42
50.0
 43
0.0
 44
0.0
 50
0.0
 51
0.0
 71
0
 72
1000
 73
1
 74
3
 75
0
 76
0
 77
0
 78
0
281
0
 65
0
146
0.0
  0
ENDTAB
  0
TABLE
  2
LTYPE
  5
2
330
0
100
AcDbSymbolTable
 70
21
  0
LTYPE
  5
24
330
2
100
AcDbSymbolTableRecord
100
AcDbLinetypeTableRecord
  2
ByBlock
 70
0
  3

 72
65
 73
0
 40
0.0
  0
LTYPE
  5
25
330
2
100
AcDbSymbolTableRecord
100
AcDbLinetypeTableRecord
  2
ByLayer
 70
0
  3

 72
65
 73
0
 40
0.0
  0
LTYPE
  5
26
330
2
100
AcDbSymbolTableRecord
100
AcDbLinetypeTableRecord
  2
Continuous
 70
0
  3

 72
65
 73
0
 40
0.0
  0
LTYPE
  5
2F
330
2
100
AcDbSymbolTableRecord
100
AcDbLinetypeTableRecord
  2
CENTER
 70
0
  3
Center ____ _ ____ _ ____ _ ____ _ ____ _ ____
 72
65
 73
4
 40
5.08
 49
3.175
 74
0
 49
-0.635
 74
0
 49
0.635
 74
0
 49
-0.635
 74
0
  0
LTYPE
  5
30
330
2
100
AcDbSymbolTableRecord
100
AcDbLinetypeTableRecord
  2
CENTERX2
 70
0
  3
Center (2x) ________  __  ________  __  ________
 72
65
 73
4
 40
8.89
 49
6.35
 74
0
 49
-0.635
 74
0
 49
1.27
 74
0
 49
-0.635
 74
0
  0
LTYPE
  5
31
330
2
100
AcDbSymbolTableRecord
100
AcDbLinetypeTableRecord
  2
CENTER2
 70
0
  3
Center (.5x) ____ _ ____ _ ____ _ ____ _ ____
 72
65
 73
4
 40
2.54
 49
1.587
 74
0
 49
-0.318
 74
0
 49
0.318
 74
0
 49
-0.318
 74
0
  0
LTYPE
  5
32
330
2
100
AcDbSymbolTableRecord
100
AcDbLinetypeTableRecord
  2
DASHED
 70
0
  3
Dashed __ __ __ __ __ __ __ __ __ __ __ __ __ _
 72
65
 73
2
 40
1.524
 49
1.27
 74
0
 49
-0.254
 74
0
  0
LTYPE
  5
33
330
2
100
AcDbSymbolTableRecord
100
AcDbLinetypeTableRecord
  2
DASHEDX2
 70
0
  3
Dashed (2x) ____  ____  ____  ____  ____  ____
 72
65
 73
2
 40
3.048
 49
2.54
 74
0
 49
-0.508
 74
0
  0
LTYPE
  5
34
330
2
100
AcDbSymbolTableRecord
100
AcDbLinetypeTableRecord
  2
DASHED2
 70
0
  3
Dashed (.5x) _ _ _ _ _ _ _ _ _ _ _ _ _ _
 72
65
 73
2
 40
0.762
 49
0.635
 74
0
 49
-0.127
 74
0
  0
LTYPE
  5
35
330
2
100
AcDbSymbolTableRecord
100
AcDbLinetypeTableRecord
  2
PHANTOM
 70
0
  3
Phantom ______  __  __  ______  __  __  ______
 72
65
 73
6
 40
6.35
 49
3.175
 74
0
 49
-0.635
 74
0
 49
0.635
 74
0
 49
-0.635
 74
0
 49
0.635
 74
0
 49
-0.635
 74
0
  0
LTYPE
  5
36
330
2
100
AcDbSymbolTableRecord
100
AcDbLinetypeTableRecord
  2
PHANTOMX2
 70
0
  3
Phantom (2x)____________    ____    ____    ____________
 72
65
 73
6
 40
10.795
 49
6.35
 74
0
 49
-0.635
 74
0
 49
1.27
 74
0
 49
-0.635
 74
0
 49
1.27
 74
0
 49
-0.635
 74
0
  0
LTYPE
  5
37
330
2
100
AcDbSymbolTableRecord
100
AcDbLinetypeTableRecord
  2
PHANTOM2
 70
0
  3
Phantom (.5x) ___ _ _ ___ _ _ ___ _ _ ___ _ _ ___
 72
65
 73
6
 40
3.175
 49
1.587
 74
0
 49
-0.318
 74
0
 49
0.318
 74
0
 49
-0.318
 74
0
 49
0.318
 74
0
 49
-0.318
 74
0
  0
LTYPE
  5
38
330
2
100
AcDbSymbolTableRecord
100
AcDbLinetypeTableRecord
  2
DASHDOT
 70
0
  3
Dash dot __ . __ . __ . __ . __ . __ . __ . __
 72
65
 73
4
 40
3.556
 49
2.54
 74
0
 49
-0.508
 74
0
 49
0.0
 74
0
 49
-0.508
 74
0
  0
LTYPE
  5
39
330
2
100
AcDbSymbolTableRecord
100
AcDbLinetypeTableRecord
  2
DASHDOTX2
 70
0
  3
Dash dot (2x) ____  .  ____  .  ____  .  ____
 72
65
 73
4
 40
6.096
 49
5.08
 74
0
 49
-0.508
 74
0
 49
0.0
 74
0
 49
-0.508
 74
0
  0
LTYPE
  5
3A
330
2
100
AcDbSymbolTableRecord
100
AcDbLinetypeTableRecord
  2
DASHDOT2
 70
0
  3
Dash dot (.5x) _ . _ . _ . _ . _ . _ . _ . _
 72
65
 73
4
 40
1.778
 49
1.27
 74
0
 49
-0.254
 74
0
 49
0.0
 74
0
 49
-0.254
 74
0
  0
LTYPE
  5
3B
330
2
100
AcDbSymbolTableRecord
100
AcDbLinetypeTableRecord
  2
DOT
 70
0
  3
Dot .  .  .  .  .  .  .  .  .  .  .  .  .  .  .  .
 72
65
 73
2
 40
0.508
 49
0.0
 74
0
 49
-0.508
 74
0
  0
LTYPE
  5
3C
330
2
100
AcDbSymbolTableRecord
100
AcDbLinetypeTableRecord
  2
DOTX2
 70
0
  3
Dot (2x) .    .    .    .    .    .    .    . 
 72
65
 73
2
 40
1.016
 49
0.0
 74
0
 49
-1.016
 74
0
  0
LTYPE
  5
3D
330
2
100
AcDbSymbolTableRecord
100
AcDbLinetypeTableRecord
  2
DOT2
 70
0
  3
Dot (.5) . . . . . . . . . . . . . . . . . . . 
 72
65
 73
2
 40
0.254
 49
0.0
 74
0
 49
-0.254
 74
0
  0
LTYPE
  5
3E
330
2
100
AcDbSymbolTableRecord
100
AcDbLinetypeTableRecord
  2
DIVIDE
 70
0
  3
Divide __ . . __ . . __ . . __ . . __ . . __
 72
65
 73
6
 40
4.064
 49
2.54
 74
0
 49
-0.508
 74
0
 49
0.0
 74
0
 49
-0.508
 74
0
 49
0.0
 74
0
 49
-0.508
 74
0
  0
LTYPE
  5
3F
330
2
100
AcDbSymbolTableRecord
100
AcDbLinetypeTableRecord
  2
DIVIDEX2
 70
0
  3
Divide (2x) ____  . .  ____  . .  ____  . .  ____
 72
65
 73
6
 40
6.604
 49
5.08
 74
0
 49
-0.508
 74
0
 49
0.0
 74
0
 49
-0.508
 74
0
 49
0.0
 74
0
 49
-0.508
 74
0
  0
LTYPE
  5
40
330
2
100
AcDbSymbolTableRecord
100
AcDbLinetypeTableRecord
  2
DIVIDE2
 70
0
  3
Divide(.5x) _ . _ . _ . _ . _ . _ . _ . _
 72
65
 73
6
 40
2.032
 49
1.27
 74
0
 49
-0.254
 74
0
 49
0.0
 74
0
 49
-0.254
 74
0
 49
0.0
 74
0
 49
-0.254
 74
0
  0
ENDTAB
  0
TABLE
  2
LAYER
  5
1
330
0
100
AcDbSymbolTable
 70
4
  0
LAYER
  5
27
330
1
100
AcDbSymbolTableRecord
100
AcDbLayerTableRecord
  2
0
 70
0
 62
7
  6
Continuous
370
-3
390
13
347
21
  0
LAYER
  5
28
330
1
100
AcDbSymbolTableRecord
100
AcDbLayerTableRecord
  2
Defpoints
 70
0
 62
7
  6
Continuous
290
0
370
-3
390
13
347
21
  0
LAYER
  5
8A
330
1
100
AcDbSymbolTableRecord
100
AcDbLayerTableRecord
  2
CUT
 70
0
 62
1
  6
Continuous
370
-3
390
13
347
21
  0
LAYER
  5
8B
330
1
100
AcDbSymbolTableRecord
100
AcDbLayerTableRecord
  2
ENGRAVE-LABEL
 70
0
 62
3
  6
Continuous
370
-3
390
13
347
21
  0
ENDTAB
  0
TABLE
  2
STYLE
  5
5
330
0
100
AcDbSymbolTable
 70
26
  0
STYLE
  5
29
330
5
100
AcDbSymbolTableRecord
100
AcDbTextStyleTableRecord
  2
Standard
 70
0
 40
0.0
 41
1.0
 50
0.0
 71
0
 42
2.5
  3
txt
  4

  0
STYLE
  5
41
330
5
100
AcDbSymbolTableRecord
100
AcDbTextStyleTableRecord
  2
OpenSans-Light
 70
0
 40
0.0
 41
1.0
 50
0.0
 71
0
 42
2.5
  3
OpenSans-Light.ttf
  4

  0
STYLE
  5
42
330
5
100
AcDbSymbolTableRecord
100
AcDbTextStyleTableRecord
  2
OpenSans-Light-Italic
 70
0
 40
0.0
 41
1.0
 50
0.0
 71
0
 42
2.5
  3
OpenSans-LightItalic.ttf
  4

  0
STYLE
  5
43
330
5
100
AcDbSymbolTableRecord
100
AcDbTextStyleTableRecord
  2
OpenSans
 70
0
 40
0.0
 41
1.0
 50
0.0
 71
0
 42
2.5
  3
OpenSans-Regular.ttf
  4

  0
STYLE
  5
44
330
5
100
AcDbSymbolTableRecord
100
AcDbTextStyleTableRecord
  2
OpenSans-Italic
 70
0
 40
0.0
 41
1.0
 50
0.0
 71
0
 42
2.5
  3
OpenSans-Italic.ttf
  4

  0
STYLE
  5
45
330
5
100
AcDbSymbolTableRecord
100
AcDbTextStyleTableRecord
  2
OpenSans-SemiBold
 70
0
 40
0.0
 41
1.0
 50
0.0
 71
0
 42
2.5
  3
OpenSans-SemiBold.ttf
  4

  0
STYLE
  5
46
330
5
100
AcDbSymbolTableRecord
100
AcDbTextStyleTableRecord
  2
OpenSans-SemiBoldItalic
 70
0
 40
0.0
 41
1.0
 50
0.0
 71
0
 42
2.5
  3
OpenSans-SemiBoldItalic.ttf
  4

  0
STYLE
  5
47
330
5
100
AcDbSymbolTableRecord
100
AcDbTextStyleTableRecord
  2
OpenSans-Bold
 70
0
 40
0.0
 41
1.0
 50
0.0
 71
0
 42
2.5
  3
OpenSans-Bold.ttf
  4

  0
STYLE
  5
48
330
5
100
AcDbSymbolTableRecord
100
AcDbTextStyleTableRecord
  2
OpenSans-BoldItalic
 70
0
 40
0.0
 41
1.0
 50
0.0
 71
0
 42
2.5
  3
OpenSans-BoldItalic.ttf
  4

  0
STYLE
  5
49
330
5
100
AcDbSymbolTableRecord
100
AcDbTextStyleTableRecord
  2
OpenSans-ExtraBold
 70
0
 40
0.0
 41
1.0
 50
0.0
 71
0
 42
2.5
  3
OpenSans-ExtraBold.ttf
  4

  0
STYLE
  5
4A
330
5
100
AcDbSymbolTableRecord
100
AcDbTextStyleTableRecord
  2
OpenSans-ExtraBoldItalic
 70
0
 40
0.0
 41
1.0
 50
0.0
 71
0
 42
2.5
  3
OpenSans-ExtraBoldItalic.ttf
  4

  0
STYLE
  5
4B
330
5
100
AcDbSymbolTableRecord
100
AcDbTextStyleTableRecord
  2
OpenSansCondensed-Bold
 70
0
 40
0.0
 41
1.0
 50
0.0
 71
0
 42
2.5
  3
OpenSansCondensed-Bold.ttf
  4

  0
STYLE
  5
4C
330
5
100
AcDbSymbolTableRecord
100
AcDbTextStyleTableRecord
  2
OpenSansCondensed-Light
 70
0
 40
0.0
 41
1.0
 50
0.0
 71
0
 42
2.5
  3
OpenSansCondensed-Light.ttf
  4

  0
STYLE
  5
4D
330
5
100
AcDbSymbolTableRecord
100
AcDbTextStyleTableRecord
  2
OpenSansCondensed-Italic
 70
0
 40
0.0
 41
1.0
 50
0.0
 71
0
 42
2.5
  3
OpenSansCondensed-LightItalic.ttf
  4

  0
STYLE
  5
4E
330
5
100
AcDbSymbolTableRecord
100
AcDbTextStyleTableRecord
  2
LiberationSans
 70
0
 40
0.0
 41
1.0
 50
0.0
 71
0
 42
2.5
  3
LiberationSans-Regular.ttf
  4

  0
STYLE
  5
4F
330
5
100
AcDbSymbolTableRecord
100
AcDbTextStyleTableRecord
  2
LiberationSans-Bold
 70
0
 40
0.0
 41
1.0
 50
0.0
 71
0
 42
2.5
  3
LiberationSans-Bold.ttf
  4

  0
STYLE
  5
50
330
5
100
AcDbSymbolTableRecord
100
AcDbTextStyleTableRecord
  2
LiberationSans-BoldItalic
 70
0
 40
0.0
 41
1.0
 50
0.0
 71
0
 42
2.5
  3
LiberationSans-BoldItalic.ttf
  4

  0
STYLE
  5
51
330
5
100
AcDbSymbolTableRecord
100
AcDbTextStyleTableRecord
  2
LiberationSans-Italic
 70
0
 40
0.0
 41
1.0
 50
0.0
 71
0
 42
2.5
  3
LiberationSans-Italic.ttf
  4

  0
STYLE
  5
52
330
5
100
AcDbSymbolTableRecord
100
AcDbTextStyleTableRecord
  2
LiberationSerif
 70
0
 40
0.0
 41
1.0
 50
0.0
 71
0
 42
2.5
  3
LiberationSerif-Regular.ttf
  4

  0
STYLE
  5
53
330
5
100
AcDbSymbolTableRecord
100
AcDbTextStyleTableRecord
  2
LiberationSerif-Bold
 70
0
 40
0.0
 41
1.0
 50
0.0
 71
0
 42
2.5
  3
LiberationSerif-Bold.ttf
  4

  0
STYLE
  5
54
330
5
100
AcDbSymbolTableRecord
100
AcDbTextStyleTableRecord
  2
LiberationSerif-BoldItalic
 70
0
 40
0.0
 41
1.0
 50
0.0
 71
0
 42
2.5
  3
LiberationSerif-BoldItalic.ttf
  4

  0
STYLE
  5
55
330
5
100
AcDbSymbolTableRecord
100
AcDbTextStyleTableRecord
  2
LiberationSerif-Italic
 70
0
 40
0.0
 41
1.0
 50
0.0
 71
0
 42
2.5
  3
LiberationSerif-Italic.ttf
  4

  0
STYLE
  5
56
330
5
100
AcDbSymbolTableRecord
100
AcDbTextStyleTableRecord
  2
LiberationMono
 70
0
 40
0.0
 41
1.0
 50
0.0
 71
0
 42
2.5
  3
LiberationMono-Regular.ttf
  4

  0
STYLE
  5
57
330
5
100
AcDbSymbolTableRecord
100
AcDbTextStyleTableRecord
  2
LiberationMono-Bold
 70
0
 40
0.0
 41
1.0
 50
0.0
 71
0
 42
2.5
  3
LiberationMono-Bold.ttf
  4

  0
STYLE
  5
58
330
5
100
AcDbSymbolTableRecord
100
AcDbTextStyleTableRecord
  2
LiberationMono-BoldItalic
 70
0
 40
0.0
 41
1.0
 50
0.0
 71
0
 42
2.5
  3
LiberationMono-BoldItalic.ttf
  4

  0
STYLE
  5
59
330
5
100
AcDbSymbolTableRecord
100
AcDbTextStyleTableRecord
  2
LiberationMono-Italic
 70
0
 40
0.0
 41
1.0
 50
0.0
 71
0
 42
2.5
  3
LiberationMono-Italic.ttf
  4

  0
ENDTAB
  0
TABLE
  2
VIEW
  5
7
330
0
100
AcDbSymbolTable
 70
0
  0
ENDTAB
  0
TABLE
  2
UCS
  5
6
330
0
100
AcDbSymbolTable
 70
0
  0
ENDTAB
  0
TABLE
  2
APPID
  5
3
330
0
100
AcDbSymbolTable
 70
3
  0
APPID
  5
2A
330
3
100
AcDbSymbolTableRecord
100
AcDbRegAppTableRecord
  2
ACAD
 70
0
  0
APPID
  5
A3
330
3
100
AcDbSymbolTableRecord
100
AcDbRegAppTableRecord
  2
HATCHBACKGROUNDCOLOR
 70
0
  0
APPID
  5
A4
330
3
100
AcDbSymbolTableRecord
100
AcDbRegAppTableRecord
  2
EZDXF
 70
0
  0
ENDTAB
  0
TABLE
  2
DIMSTYLE
  5
4
330
0
100
AcDbSymbolTable
 70
12
100
AcDbDimStyleTable
  0
DIMSTYLE
105
2B
330
4
100
AcDbSymbolTableRecord
100
AcDbDimStyleTableRecord
  2
Standard
 70
0
 40
1.0
 41
2.5
 42
0.625
 43
3.75
 44
1.25
 45
0.0
 46
0.0
 47
0.0
 48
0.0
 49
2.5
140
2.5
141
2.5
142
0.0
143
0.03937007874
144
1.0
145
0.0
146
1.0
147
0.625
148
0.0
 69
0
 70
0
 71
0
 72
0
 73
0
 74
0
 75
0
 76
0
 77
1
 78
8
 79
3
170
0
171
3
172
1
173
0
174
0
175
0
176
0
177
0
178
0
179
2
271
2
272
2
273
2
274
3
275
0
276
0
277
2
278
44
279
0
280
0
281
0
282
0
283
0
284
8
285
0
286
0
288
0
289
3
290
0
371
-2
372
-2
  0
DIMSTYLE
105
73
330
4
100
AcDbSymbolTableRecord
100
AcDbDimStyleTableRecord
  2
EZDXF
 70
0
 40
1.0
 41
0.175
 42
0.125
 43
3.75
 44
0.375
 45
0.0
 46
0.0
 47
0.0
 48
0.0
 49
2.5
140
0.25
141
2.5
142
0.0
143
0.03937007874
144
100.0
145
0.0
146
0.5
147
0.1
148
0.0
 69
0
 70
0
 71
0
 72
0
 73
0
 74
0
 75
0
 76
0
 77
1
 78
12
 79
3
170
0
171
3
172
1
173
0
174
0
175
0
176
0
177
0
178
0
179
2
271
2
272
2
273
2
274
3
275
0
276
0
277
2
278
46
279
2
280
0
281
0
282
0
283
0
284
8
285
0
286
0
288
1
289
3
290
0
340
4C
342
74
371
-2
372
-2
  0
DIMSTYLE
105
7C
330
4
100
AcDbSymbolTableRecord
100
AcDbDimStyleTableRecord
  2
EZ_M_100_H25_CM
 70
0
 40
1.0
 41
0.25
 42
0.125
 43
3.75
 44
0.375
 45
0.0
 46
0.0
 47
0.0
 48
0.0
 49
2.5
140
0.25
141
2.5
142
0.125
143
0.03937007874
144
100.0
145
0.0
146
0.5
147
0.1
148
0.0
 69
0
 70
0
 71
0
 72
0
 73
0
 74
0
 75
0
 76
0
 77
1
 78
12
 79
3
170
0
171
3
172
1
173
0
174
0
175
0
176
0
177
0
178
0
179
2
271
2
272
2
273
2
274
3
275
0
276
0
277
2
278
46
279
2
280
0
281
0
282
0
283
0
284
8
285
0
286
0
288
1
289
3
290
0
340
4C
371
-2
372
-2
  0
DIMSTYLE
105
7D
330
4
100
AcDbSymbolTableRecord
100
AcDbDimStyleTableRecord
  2
EZ_M_50_H25_CM
 70
0
 40
1.0
 41
0.125
 42
0.0625
 43
3.75
 44
0.1875
 45
0.0
 46
0.0
 47
0.0
 48
0.0
 49
2.5
140
0.125
141
2.5
142
0.0625
143
0.03937007874
144
100.0
145
0.0
146
0.5
147
0.05
148
0.0
 69
0
 70
0
 71
0
 72
0
 73
0
 74
0
 75
0
 76
0
 77
1
 78
12
 79
3
170
0
171
3
172
1
173
0
174
0
175
0
176
0
177
0
178
0
179
2
271
2
272
2
273
2
274
3
275
0
276
0
277
2
278
46
279
2
280
0
281
0
282
0
283
0
284
8
285
0
286
0
288
1
289
3
290
0
340
4C
371
-2
372
-2
  0
DIMSTYLE
105
7E
330
4
100
AcDbSymbolTableRecord
100
AcDbDimStyleTableRecord
  2
EZ_M_25_H25_CM
 70
0
 40
1.0
 41
0.0625
 42
0.03125
 43
3.75
 44
0.09375
 45
0.0
 46
0.0
 47
0.0
 48
0.0
 49
2.5
140
0.0625
141
2.5
142
0.03125
143
0.03937007874
144
100.0
145
0.0
146
0.5
147
0.025
148
0.0
 69
0
 70
0
 71
0
 72
0
 73
0
 74
0
 75
0
 76
0
 77
1
 78
12
 79
3
170
0
171
3
172
1
173
0
174
0
175
0
176
0
177
0
178
0
179
2
271
2
272
2
273
2
274
3
275
0
276
0
277
2
278
46
279
2
280
0
281
0
282
0
283
0
284
8
285
0
286
0
288
1
289
3
290
0
340
4C
371
-2
372
-2
  0
DIMSTYLE
105
7F
330
4
100
AcDbSymbolTableRecord
100
AcDbDimStyleTableRecord
  2
EZ_M_20_H25_CM
 70
0
 40
1.0
 41
0.05
 42
0.025
 43
3.75
 44
0.07500000000000001
 45
0.0
 46
0.0
 47
0.0
 48
0.0
 49
2.5
140
0.05
141
2.5
142
0.025
143
0.03937007874
144
100.0
145
0.0
146
0.5
147
0.020000000000000004
148
0.0
 69
0
 70
0
 71
0
 72
0
 73
0
 74
0
 75
0
 76
0
 77
1
 78
12
 79
3
170
0
171
3
172
1
173
0
174
0
175
0
176
0
177
0
178
0
179
2
271
2
272
2
273
2
274
3
275
0
276
0
277
2
278
46
279
2
280
0
281
0
282
0
283
0
284
8
285
0
286
0
288
1
289
3
290
0
340
4C
371
-2
372
-2
  0
DIMSTYLE
105
80
330
4
100
AcDbSymbolTableRecord
100
AcDbDimStyleTableRecord
  2
EZ_M_10_H25_CM
 70
0
 40
1.0
 41
0.025
 42
0.0125
 43
3.75
 44
0.037500000000000006
 45
0.0
 46
0.0
 47
0.0
 48
0.0
 49
2.5
140
0.025
141
2.5
142
0.0125
143
0.03937007874
144
100.0
145
0.0
146
0.5
147
0.010000000000000002
148
0.0
 69
0
 70
0
 71
0
 72
0
 73
0
 74
0
 75
0
 76
0
 77
1
 78
12
 79
3
170
0
171
3
172
1
173
0
174
0
175
0
176
0
177
0
178
0
179
2
271
2
272
2
273
2
274
3
275
0
276
0
277
2
278
46
279
2
280
0
281
0
282
0
283
0
284
8
285
0
286
0
288
1
289
3
290
0
340
4C
371
-2
372
-2
  0
DIMSTYLE
105
81
330
4
100
AcDbSymbolTableRecord
100
AcDbDimStyleTableRecord
  2
EZ_M_5_H25_CM
 70
0
 40
1.0
 41
0.0125
 42
0.00625
 43
3.75
 44
0.018750000000000003
 45
0.0
 46
0.0
 47
0.0
 48
0.0
 49
2.5
140
0.0125
141
2.5
142
0.00625
143
0.03937007874
144
100.0
145
0.0
146
0.5
147
0.005000000000000001
148
0.0
 69
0
 70
0
 71
0
 72
0
 73
0
 74
0
 75
0
 76
0
 77
1
 78
12
 79
3
170
0
171
3
172
1
173
0
174
0
175
0
176
0
177
0
178
0
179
2
271
2
272
2
273
2
274
3
275
0
276
0
277
2
278
46
279
2
280
0
281
0
282
0
283
0
284
8
285
0
286
0
288
1
289
3
290
0
340
4C
371
-2
372
-2
  0
DIMSTYLE
105
82
330
4
100
AcDbSymbolTableRecord
100
AcDbDimStyleTableRecord
  2
EZ_M_1_H25_CM
 70
0
 40
1.0
 41
0.0025
 42
0.00125
 43
3.75
 44
0.00375
 45
0.0
 46
0.0
 47
0.0
 48
0.0
 49
2.5
140
0.0025
141
2.5
142
0.00125
143
0.03937007874
144
100.0
145
0.0
146
0.5
147
0.001
148
0.0
 69
0
 70
0
 71
0
 72
0
 73
0
 74
0
 75
0
 76
0
 77
1
 78
12
 79
3
170
0
171
3
172
1
173
0
174
0
175
0
176
0
177
0
178
0
179
2
271
2
272
2
273
2
274
3
275
0
276
0
277
2
278
46
279
2
280
0
281
0
282
0
283
0
284
8
285
0
286
0
288
1
289
3
290
0
340
4C
371
-2
372
-2
  0
DIMSTYLE
105
83
330
4
100
AcDbSymbolTableRecord
100
AcDbDimStyleTableRecord
  2
EZ_RADIUS
 70
0
 40
1.0
 41
0.25
 42
0.125
 43
3.75
 44
0.375
 45
0.0
 46
0.0
 47
0.0
 48
0.0
 49
2.5
140
0.25
141
0.0
142
0.0
143
0.03937007874
144
100.0
145
0.0
146
0.5
147
0.1
148
0.0
 69
0
 70
0
 71
0
 72
0
 73
0
 74
0
 75
0
 76
0
 77
1
 78
12
 79
3
170
0
171
3
172
0
173
0
174
0
175
0
176
0
177
0
178
0
179
2
271
2
272
2
273
2
274
3
275
0
276
0
277
2
278
46
279
1
280
0
281
0
282
0
283
0
284
8
285
0
286
0
288
1
289
3
290
0
340
4C
342
84
371
-2
372
-2
  0
DIMSTYLE
105
88
330
4
100
AcDbSymbolTableRecord
100
AcDbDimStyleTableRecord
  2
EZ_RADIUS_INSIDE
 70
0
 40
1.0
 41
0.25
 42
0.125
 43
3.75
 44
0.375
 45
0.0
 46
0.0
 47
0.0
 48
0.0
 49
2.5
140
0.25
141
0.0
142
0.0
143
0.03937007874
144
100.0
145
0.0
146
0.5
147
0.1
148
0.0
 69
0
 70
0
 71
0
 72
0
 73
0
 74
0
 75
0
 76
0
 77
0
 78
12
 79
3
170
0
171
3
172
0
173
0
174
1
175
0
176
0
177
0
178
0
179
2
271
2
272
2
273
2
274
3
275
0
276
0
277
2
278
46
279
0
280
0
281
0
282
0
283
0
284
8
285
0
286
0
288
1
289
0
290
0
340
4C
342
84
371
-2
372
-2
  0
DIMSTYLE
105
89
330
4
100
AcDbSymbolTableRecord
100
AcDbDimStyleTableRecord
  2
EZ_CURVED
 70
0
 40
1.0
 41
0.25
 42
0.125
 43
3.75
 44
0.375
 45
0.0
 46
0.0
 47
0.0
 48
0.0
 49
2.5
140
0.25
141
2.5
142
0.0
143
0.03937007874
144
100.0
145
0.0
146
0.5
147
0.1
148
0.0
 69
0
 70
0
 71
0
 72
0
 73
0
 74
0
 75
0
 76
0
 77
1
 78
12
 79
2
 90
2
170
0
171
3
172
1
173
0
174
0
175
0
176
0
177
0
178
0
179
2
271
2
272
2
273
2
274
3
275
0
276
0
277
2
278
46
279
2
280
0
281
0
282
0
283
0
284
8
285
0
286
0
288
1
289
3
290
0
340
4C
371
-2
372
-2
  0
ENDTAB
  0
TABLE
  2
BLOCK_RECORD
  5
9
330
0
100
AcDbSymbolTable
 70
5
  0
BLOCK_RECORD
  5
17
330
9
100
AcDbSymbolTableRecord
100
AcDbBlockTableRecord
  2
*Model_Space
340
1A
 70
0
280
1
281
0
  0
BLOCK_RECORD
  5
1B
330
9
100
AcDbSymbolTableRecord
100
AcDbBlockTableRecord
  2
*Paper_Space
340
1E
 70
0
280
1
281
0
  0
BLOCK_RECORD
  5
74
330
9
100
AcDbSymbolTableRecord
100
AcDbBlockTableRecord
  2
_ARCHTICK
340
0
 70
0
280
1
281
0
  0
BLOCK_RECORD
  5
78
330
9
100
AcDbSymbolTableRecord
100
AcDbBlockTableRecord
  2
_CLOSEDFILLED
340
0
 70
0
280
1
281
0
  0
BLOCK_RECORD
  5
84
330
9
100
AcDbSymbolTableRecord
100
AcDbBlockTableRecord
  2
_CLOSEDBLANK
340
0
 70
0
280
1
281
0
  0
ENDTAB
  0
ENDSEC
  0
SECTION
  2
BLOCKS
  0
BLOCK
  5
18
330
17
100
AcDbEntity
  8
0
100
AcDbBlockBegin
  2
*Model_Space
 70
0
 10
0.0
 20
0.0
 30
0.0
  3
*Model_Space
  1

  0
ENDBLK
  5
19
330
17
100
AcDbEntity
  8
0
100
AcDbBlockEnd
  0
BLOCK
  5
1C
330
1B
100
AcDbEntity
  8
0
100
AcDbBlockBegin
  2
*Paper_Space
 70
0
 10
0.0
 20
0.0
 30
0.0
  3
*Paper_Space
  1

  0
ENDBLK
  5
1D
330
1B
100
AcDbEntity
  8
0
100
AcDbBlockEnd
  0
BLOCK
  5
75
330
74
100
AcDbEntity
  8
0
100
AcDbBlockBegin
  2
_ARCHTICK
 70
0
 10
0.0
 20
0.0
 30
0.0
  3
_ARCHTICK
  1

  0
LWPOLYLINE
  5
77
330
74
100
AcDbEntity
  8
0
  6
BYBLOCK
 62
0
100
AcDbPolyline
 90
2
 70
0
 43
0.15
 10
-0.5
 20
-0.5
 10
0.5
 20
0.5
  0
ENDBLK
  5
76
330
74
100
AcDbEntity
  8
0
100
AcDbBlockEnd
  0
BLOCK
  5
79
330
78
100
AcDbEntity
  8
0
100
AcDbBlockBegin
  2
_CLOSEDFILLED
 70
0
 10
0.0
 20
0.0
 30
0.0
  3
_CLOSEDFILLED
  1

  0
SOLID
  5
7B
330
78
100
AcDbEntity
  8
0
  6
BYBLOCK
 62
0
100
AcDbTrace
 10
-1.0
 20
0.16439898372402537
 30
0.0
 11
0.0
 21
0.0
 31
0.0
 12
-1.0
 22
-0.16439898372402537
 32
0.0
 13
-1.0
 23
-0.16439898372402537
 33
0.0
  0
ENDBLK
  5
7A
330
78
100
AcDbEntity
  8
0
100
AcDbBlockEnd
  0
BLOCK
  5
85
330
84
100
AcDbEntity
  8
0
100
AcDbBlockBegin
  2
_CLOSEDBLANK
 70
0
 10
0.0
 20
0.0
 30
0.0
  3
_CLOSEDBLANK
  1

  0
LWPOLYLINE
  5
87
330
84
100
AcDbEntity
  8
0
  6
BYBLOCK
 62
0
100
AcDbPolyline
 90
3
 70
1
 10
-1.0
 20
0.16439898372402537
 10
0.0
 20
0.0
 10
-1.0
 20
-0.16439898372402537
  0
ENDBLK
  5
86
330
84
100
AcDbEntity
  8
0
100
AcDbBlockEnd
  0
ENDSEC
  0
SECTION
  2
ENTITIES
  0
LWPOLYLINE
  5
8C
330
17
100
AcDbEntity
  8
CUT
100
AcDbPolyline
 90
180
 70
1
 10
862.4
 20
387.20000000000005
 10
862.3258816245111
 20
402.2552475341361
 10
862.0081450678697
 20
417.32504014389355
 10
861.3606591671853
 20
432.41170712314636
 10
860.3212232664223
 20
447.50905490637433
 10
858.8380590224699
 20
462.6041277834605
 10
856.8659956479942
 20
477.67810045478427
 10
854.3650261250698
 20
492.70689083684607
 10
851.2998226876907
 20
507.66168571378876
 10
847.6397245827143
 20
522.5094688107308
 10
843.3589755445652
 20
537.2135988838734
 10
838.437085180615
 20
551.7344625456342
 10
832.8592297732878
 20
566.0302108140003
 10
826.6166284559691
 20
580.0575757588153
 10
819.7068432664594
 20
593.7727528298044
 10
812.1339617264643
 20
607.1323253462448
 10
803.9086307567686
 20
620.094200551995
 10
795.0479217983063
 20
632.6185220883749
 10
785.5750189574555
 20
644.6685221352975
 10
775.518734261711
 20
656.2112780156608
 10
764.9128658214402
 20
667.2183426298836
 10
753.7954248736467
 20
677.6662252282115
 10
742.2077654649818
 20
687.5367079873641
 10
730.1936553008584
 20
696.8169936950874
 10
717.7983277854454
 20
705.499689567635
 10
705.0675536221254
 20
713.5826409241554
 10
692.0467659905214
 20
721.0686354141941
 10
678.7802669613209
 20
727.9650033109888
 10
665.3105352712028
 20
734.2831419107104
 10
651.6776476724414
 20
740.0379924519552
 10
637.9188185065852
 20
745.2474965340151
 10
624.0680554688985
 20
749.9320562402418
 10
610.1559240685476
 20
754.1140185911163
 10
596.209409189249
 20
757.8172010792615
 10
582.2518593853737
 20
761.0664713488254
 10
568.3029979455309
 20
763.8873909948795
 10
554.3789840611887
 20
766.3059313710933
 10
540.4925073274442
 20
768.3482686573175
 10
526.6528988921762
 20
770.0406669274653
 10
512.8662423817184
 20
771.4094628369978
 10
499.1354665860095
 20
772.481176556482
 10
485.460398601968
 20
773.2827973369417
 10
471.8377481818744
 20
773.8423468012744
 10
458.26097475680723
 20
774.189968578407
 10
444.7199353537086
 20
774.3602931574433
 10
431.2
 20
774.4000000000001
 10
417.68006464629144
 20
774.3602931574433
 10
404.1390252431927
 20
774.189968578407
 10
390.56225181812556
 20
773.8423468012744
 10
376.939601398032
 20
773.2827973369417
 10
363.26453341399053
 20
772.481176556482
 10
349.5337576182816
 20
771.4094628369978
 10
335.7471011078237
 20
770.0406669274653
 10
321.9074926725558
 20
768.3482686573175
 10
308.0210159388114
 20
766.3059313710933
 10
294.09700205446916
 20
763.8873909948795
 10
280.1481406146263
 20
761.0664713488253
 10
266.190590810751
 20
757.8172010792615
 10
252.24407593145224
 20
754.1140185911163
 10
238.3319445311015
 20
749.9320562402416
 10
224.48118149341485
 20
745.2474965340152
 10
210.72235232755867
 20
740.0379924519552
 10
197.0894647287973
 20
734.2831419107104
 10
183.61973303867907
 20
727.9650033109888
 10
170.35323400947857
 20
721.0686354141941
 10
157.33244637787465
 20
713.5826409241554
 10
144.60167221455458
 20
705.499689567635
 10
132.20634469914154
 20
696.8169936950874
 10
120.19223453501814
 20
687.536707987364
 10
108.60457512635332
 20
677.6662252282116
 10
97.48713417855993
 20
667.2183426298836
 10
86.88126573828913
 20
656.2112780156608
 10
76.82498104254444
 20
644.6685221352975
 10
67.35207820169364
 20
632.6185220883749
 10
58.491369243231304
 20
620.094200551995
 10
50.26603827353563
 20
607.1323253462448
 10
42.693156733540604
 20
593.7727528298043
 10
35.783371544030786
 20
580.0575757588153
 10
29.540770226712198
 20
566.0302108140004
 10
23.96291481938505
 20
551.7344625456343
 10
19.04102445543481
 20
537.2135988838735
 10
14.76027541728564
 20
522.5094688107308
 10
11.1001773123092
 20
507.66168571378876
 10
8.034973874930188
 20
492.70689083684607
 10
5.534004352005695
 20
477.67810045478427
 10
3.561940977530071
 20
462.6041277834605
 10
2.0787767335776834
 20
447.5090549063743
 10
1.0393408328147302
 20
432.41170712314647
 10
0.39185493213034306
 20
417.3250401438936
 10
0.07411837548886524
 20
402.2552475341362
 10
0.0
 20
387.2000000000001
 10
0.07411837548886524
 20
372.14475246586403
 10
0.39185493213034306
 20
357.0749598561066
 10
1.0393408328146734
 20
341.98829287685373
 10
2.0787767335776834
 20
326.89094509362576
 10
3.561940977530128
 20
311.7958722165395
 10
5.534004352005695
 20
296.7218995452157
 10
8.034973874930131
 20
281.6931091631541
 10
11.1001773123092
 20
266.73831428621145
 10
14.760275417285698
 20
251.8905311892694
 10
19.04102445543481
 20
237.18640111612672
 10
23.96291481938499
 20
222.6655374543659
 10
29.54077022671214
 20
208.36978918599985
 10
35.783371544030786
 20
194.34242424118472
 10
42.693156733540604
 20
180.62724717019566
 10
50.266038273535685
 20
167.26767465375522
 10
58.491369243231304
 20
154.30579944800525
 10
67.35207820169359
 20
141.78147791162527
 10
76.82498104254432
 20
129.73147786470264
 10
86.88126573828907
 20
118.18872198433934
 10
97.48713417855987
 20
107.18165737011651
 10
108.60457512635327
 20
96.73377477178855
 10
120.19223453501826
 20
86.86329201263595
 10
132.2063446991416
 20
77.58300630491271
 10
144.60167221455464
 20
68.90031043236519
 10
157.33244637787465
 20
60.81735907584482
 10
170.35323400947868
 20
53.33136458580594
 10
183.61973303867896
 20
46.434996689011314
 10
197.08946472879737
 20
40.11685808928962
 10
210.72235232755858
 20
34.362007548044915
 10
224.48118149341454
 20
29.15250346598492
 10
238.33194453110158
 20
24.46794375975844
 10
252.24407593145213
 20
20.285981408883856
 10
266.19059081075113
 20
16.58279892073864
 10
280.1481406146262
 20
13.333528651174731
 10
294.09700205446916
 20
10.51260900512051
 10
308.0210159388113
 20
8.094068628906825
 10
321.90749267255586
 20
6.051731342682672
 10
335.7471011078237
 20
4.3593330725348665
 10
349.5337576182814
 20
2.990537163002216
 10
363.26453341399053
 20
1.9188234435181357
 10
376.9396013980318
 20
1.1172026630583218
 10
390.5622518181256
 20
0.5576531987258022
 10
404.1390252431926
 20
0.2100314215930439
 10
417.6800646462915
 20
0.03970684255688184
 10
431.19999999999993
 20
0.0
 10
444.71993535370865
 20
0.03970684255688184
 10
458.26097475680723
 20
0.2100314215930439
 10
471.8377481818742
 20
0.5576531987258022
 10
485.460398601968
 20
1.1172026630583787
 10
499.13546658600933
 20
1.9188234435181926
 10
512.8662423817184
 20
2.990537163002216
 10
526.6528988921762
 20
4.359333072534753
 10
540.4925073274443
 20
6.051731342682615
 10
554.3789840611886
 20
8.094068628906825
 10
568.3029979455309
 20
10.51260900512051
 10
582.2518593853737
 20
13.333528651174731
 10
596.2094091892487
 20
16.582798920738583
 10
610.1559240685476
 20
20.285981408883856
 10
624.0680554688983
 20
24.467943759758327
 10
637.9188185065852
 20
29.152503465984978
 10
651.6776476724413
 20
34.36200754804486
 10
665.3105352712028
 20
40.11685808928968
 10
678.7802669613209
 20
46.43499668901126
 10
692.0467659905214
 20
53.331364585806114
 10
705.0675536221252
 20
60.81735907584476
 10
717.7983277854452
 20
68.90031043236507
 10
730.1936553008584
 20
77.58300630491271
 10
742.2077654649817
 20
86.86329201263584
 10
753.7954248736467
 20
96.7337747717886
 10
764.9128658214399
 20
107.1816573701164
 10
775.518734261711
 20
118.18872198433934
 10
785.5750189574555
 20
129.73147786470253
 10
795.0479217983064
 20
141.78147791162527
 10
803.9086307567686
 20
154.30579944800516
 10
812.1339617264641
 20
167.26767465375508
 10
819.7068432664594
 20
180.6272471701957
 10
826.6166284559691
 20
194.34242424118457
 10
832.8592297732879
 20
208.36978918599988
 10
838.437085180615
 20
222.66553745436576
 10
843.3589755445652
 20
237.18640111612675
 10
847.6397245827143
 20
251.89053118926924
 10
851.2998226876907
 20
266.73831428621145
 10
854.3650261250698
 20
281.69310916315396
 10
856.8659956479942
 20
296.72189954521554
 10
858.8380590224699
 20
311.7958722165396
 10
860.3212232664223
 20
326.8909450936256
 10
861.3606591671853
 20
341.98829287685373
 10
862.0081450678697
 20
357.07495985610643
 10
862.3258816245111
 20
372.14475246586403
  0
LWPOLYLINE
  5
8D
330
17
100
AcDbEntity
  8
CUT
100
AcDbPolyline
 90
180
 70
1
 10
752.3928906524106
 20
375.98369710313915
 10
752.2760995392889
 20
364.7481719679602
 10
751.9632506766752
 20
353.4864238362956
 10
751.3917357048495
 20
342.19998619923285
 10
750.5092061911271
 20
330.8971717599019
 10
749.2697595672755
 20
319.59218553516916
 10
747.6324962347102
 20
308.3045176791174
 10
745.5610361344757
 20
297.05842342608133
 10
743.0235077902473
 20
285.8824005705135
 10
739.9927872581152
 20
274.8086168819503
 10
736.4468611782684
 20
263.8722627301161
 10
732.3692294326017
 20
253.1108199243379
 10
727.7492833630608
 20
242.56325038798312
 10
722.5826080519774
 20
232.26911907664368
 10
716.8711673101759
 20
222.26767465375514
 10
710.6233401795618
 20
212.5969185136577
 10
703.8537888172518
 20
203.2926972934074
 10
696.5831495762113
 20
194.3878556168746
 10
688.8375513649714
 20
185.91148427016176
 10
680.6479770783525
 20
177.88829443563574
 10
672.0494940711333
 20
170.338141471263
 10
663.0803874277301
 20
163.27571276312557
 10
653.7812345503687
 20
156.71038434216436
 10
644.1939610859708
 20
150.6462412348785
 10
634.3609165566058
 20
145.0822478189324
 10
624.3240037046991
 20
140.0125474825455
 10
614.1238892091488
 20
135.42686607025547
 10
603.7993158894207
 20
131.31099107034427
 10
593.3865286067887
 20
127.64729812525172
 10
582.9188185065852
 20
124.4152978822732
 10
572.4261835624503
 20
121.59217897424031
 10
561.9350979217492
 20
119.15332650179226
 10
551.4683784509108
 20
117.07279926142468
 10
541.0451341096233
 20
115.32375265352135
 10
530.6807821797074
 20
113.87879729157038
 10
520.3871146799444
 20
112.71028542137373
 10
510.1723981875744
 20
111.79051789589772
 10
500.0414903762127
 20
111.09186296289437
 10
489.9959563917649
 20
110.58677324372081
 10
480.034167042647
 20
110.24767627486113
 10
470.1513574963608
 20
110.0466902246311
 10
460.33961722243237
 20
109.95506168923583
 10
450.58776264495344
 20
109.94207695017371
 10
440.88099071643353
 20
109.97269781465741
 10
431.19999999999993
 20
110.0
 10
421.5190092835666
 20
109.97269781465741
 10
411.8122373550464
 20
109.94207695017366
 10
402.0603827775675
 20
109.95506168923583
 10
392.2486425036391
 20
110.04669022463105
 10
382.36583295735284
 20
110.24767627486102
 10
372.404043608235
 20
110.58677324372081
 10
362.3585096237872
 20
111.09186296289448
 10
352.22760181242575
 20
111.79051789589772
 10
342.01288532005555
 20
112.71028542137373
 10
331.7192178202927
 20
113.87879729157044
 10
321.3548658903765
 20
115.3237526535213
 10
310.9316215490891
 20
117.07279926142473
 10
300.4649020782507
 20
119.15332650179221
 10
289.97381643754954
 20
121.59217897424037
 10
279.48118149341457
 20
124.4152978822732
 10
269.01347139321115
 20
127.64729812525178
 10
258.60068411057944
 20
131.31099107034422
 10
248.27611079085102
 20
135.4268660702555
 10
238.07599629530108
 20
140.0125474825454
 10
228.03908344339396
 20
145.08224781893242
 10
218.20603891402905
 20
150.64624123487854
 10
208.61876544963127
 20
156.71038434216436
 10
199.31961257226988
 20
163.27571276312563
 10
190.35050592886665
 20
170.33814147126296
 10
181.75202292164744
 20
177.88829443563586
 10
173.5624486350285
 20
185.91148427016176
 10
165.8168504237886
 20
194.38785561687465
 10
158.54621118274815
 20
203.2926972934074
 10
151.77665982043817
 20
212.59691851365778
 10
145.52883268982396
 20
222.26767465375525
 10
139.81739194802253
 20
232.26911907664368
 10
134.6507166369392
 20
242.56325038798323
 10
130.03077056739824
 20
253.11081992433787
 10
125.95313882173161
 20
263.87226273011623
 10
122.40721274188473
 20
274.8086168819503
 10
119.3764922097526
 20
285.8824005705136
 10
116.8389638655243
 20
297.0584234260813
 10
114.76750376528975
 20
308.3045176791175
 10
113.13024043272435
 20
319.5921855351693
 10
111.89079380887301
 20
330.8971717599019
 10
111.00826429515041
 20
342.19998619923297
 10
110.43674932332476
 20
353.4864238362956
 10
110.12390046071101
 20
364.7481719679604
 10
110.00710934758939
 20
375.9836971031391
 10
110.0
 20
387.2000000000001
 10
110.00710934758939
 20
398.41630289686105
 10
110.12390046071101
 20
409.6518280320398
 10
110.43674932332482
 20
420.91357616370453
 10
111.00826429515041
 20
432.20001380076707
 10
111.89079380887296
 20
443.50282824009815
 10
113.13024043272435
 20
454.80781446483076
 10
114.7675037652898
 20
466.09548232088264
 10
116.8389638655243
 20
477.34157657391887
 10
119.37649220975254
 20
488.5175994294866
 10
122.40721274188473
 20
499.59138311804986
 10
125.95313882173167
 20
510.5277372698839
 10
130.0307705673983
 20
521.2891800756623
 10
134.65071663693914
 20
531.8367496120168
 10
139.8173919480226
 20
542.1308809233564
 10
145.5288326898239
 20
552.1323253462448
 10
151.77665982043817
 20
561.8030814863424
 10
158.5462111827482
 20
571.1073027065928
 10
165.81685042378865
 20
580.0121443831255
 10
173.56244863502855
 20
588.4885157298384
 10
181.75202292164752
 20
596.5117055643643
 10
190.35050592886668
 20
604.0618585287373
 10
199.3196125722698
 20
611.1242872368744
 10
208.61876544963124
 20
617.6896156578357
 10
218.20603891402897
 20
623.7537587651216
 10
228.039083443394
 20
629.3177521810677
 10
238.075996295301
 20
634.3874525174547
 10
248.2761107908511
 20
638.9731339297446
 10
258.60068411057944
 20
643.0890089296558
 10
269.0134713932112
 20
646.7527018747484
 10
279.48118149341485
 20
649.9847021177269
 10
289.9738164375495
 20
652.8078210257597
 10
300.46490207825076
 20
655.2466734982079
 10
310.931621549089
 20
657.3272007385754
 10
321.35486589037663
 20
659.0762473464787
 10
331.71921782029267
 20
660.5212027084297
 10
342.0128853200556
 20
661.6897145786263
 10
352.22760181242575
 20
662.6094821041023
 10
362.3585096237872
 20
663.3081370371056
 10
372.4040436082351
 20
663.8132267562793
 10
382.36583295735284
 20
664.152323725139
 10
392.2486425036392
 20
664.353309775369
 10
402.06038277756744
 20
664.4449383107643
 10
411.8122373550465
 20
664.4579230498264
 10
421.51900928356656
 20
664.4273021853427
 10
431.2
 20
664.4000000000001
 10
440.8809907164335
 20
664.4273021853427
 10
450.58776264495344
 20
664.4579230498264
 10
460.33961722243254
 20
664.4449383107643
 10
470.1513574963608
 20
664.353309775369
 10
480.03416704264714
 20
664.152323725139
 10
489.99595639176493
 20
663.8132267562793
 10
500.0414903762128
 20
663.3081370371057
 10
510.1723981875743
 20
662.6094821041023
 10
520.3871146799444
 20
661.6897145786263
 10
530.6807821797073
 20
660.5212027084297
 10
541.0451341096233
 20
659.0762473464788
 10
551.4683784509109
 20
657.3272007385754
 10
561.9350979217492
 20
655.2466734982079
 10
572.4261835624504
 20
652.8078210257597
 10
582.9188185065852
 20
649.9847021177269
 10
593.3865286067888
 20
646.7527018747483
 10
603.7993158894205
 20
643.0890089296558
 10
614.1238892091488
 20
638.9731339297446
 10
624.324003704699
 20
634.3874525174547
 10
634.360916556606
 20
629.3177521810677
 10
644.1939610859711
 20
623.7537587651216
 10
653.7812345503687
 20
617.6896156578357
 10
663.0803874277301
 20
611.1242872368744
 10
672.0494940711333
 20
604.0618585287372
 10
680.6479770783526
 20
596.5117055643642
 10
688.8375513649714
 20
588.4885157298384
 10
696.5831495762113
 20
580.0121443831255
 10
703.8537888172518
 20
571.1073027065928
 10
710.6233401795619
 20
561.8030814863424
 10
716.8711673101761
 20
552.1323253462448
 10
722.5826080519773
 20
542.1308809233564
 10
727.7492833630608
 20
531.8367496120168
 10
732.3692294326017
 20
521.2891800756622
 10
736.4468611782684
 20
510.52773726988386
 10
739.9927872581152
 20
499.59138311804986
 10
743.0235077902474
 20
488.51759942948655
 10
745.5610361344757
 20
477.3415765739188
 10
747.6324962347102
 20
466.09548232088264
 10
749.2697595672755
 20
454.80781446483076
 10
750.5092061911271
 20
443.50282824009815
 10
751.3917357048496
 20
432.2000138007671
 10
751.9632506766752
 20
420.9135761637045
 10
752.2760995392889
 20
409.65182803203976
 10
752.3928906524106
 20
398.416302896861
 10
752.4
 20
387.20000000000005
  0
LWPOLYLINE
  5
8E
330
17
100
AcDbEntity
  8
CUT
100
AcDbPolyline
 90
8
 70
1
 10
798.8930776469965
 20
439.0583320218614
 42
2.414213562373095
 10
802.5542706250297
 20
436.3983196200857
 10
836.7282872096215
 20
441.81095211047773
 42
2.414213562373095
 10
839.3882996113973
 20
445.4721450885109
 10
837.4172253518902
 20
457.9170181800097
 42
2.414213562373095
 10
833.7560323738571
 20
460.5770305817853
 10
799.5820157892654
 20
455.16439809139337
 42
2.414213562373095
 10
796.9220033874897
 20
451.5032051133602
  0
LWPOLYLINE
  5
8F
330
17
100
AcDbEntity
  8
CUT
100
AcDbPolyline
 90
8
 70
1
 10
770.4172648876076
 20
552.9691740710325
 42
2.414213562373095
 10
774.7212553641768
 20
551.5707227927962
 10
805.5500811010944
 20
567.2787940837845
 42
2.414213562373095
 10
806.9485323793306
 20
571.582784560354
 10
801.2282520826122
 20
582.8094667651274
 42
2.414213562373095
 10
796.924261606043
 20
584.2079180433636
 10
766.0954358691255
 20
568.4998467523753
 42
2.414213562373095
 10
764.6969845908893
 20
564.1958562758059
  0
LWPOLYLINE
  5
90
330
17
100
AcDbEntity
  8
CUT
100
AcDbPolyline
 90
8
 70
1
 10
696.5118118250753
 20
643.6022663821248
 42
2.414213562373095
 10
701.0372952246692
 20
643.6022663821248
 10
725.5031898537238
 20
668.0681610111794
 42
2.414213562373095
 10
725.5031898537238
 20
672.5936444107733
 10
716.5936444107733
 20
681.5031898537238
 42
2.414213562373095
 10
712.0681610111794
 20
681.5031898537238
 10
687.6022663821248
 20
657.0372952246692
 42
2.414213562373095
 10
687.6022663821248
 20
652.5118118250753
  0
LWPOLYLINE
  5
91
330
17
100
AcDbEntity
  8
CUT
100
AcDbPolyline
 90
8
 70
1
 10
594.3568241876466
 20
693.536354828645
 42
2.414213562373095
 10
598.6608146642159
 20
694.9348061068812
 10
614.3688859552042
 20
725.7636318437987
 42
2.414213562373095
 10
612.970434676968
 20
730.067622320368
 10
601.7437524721946
 20
735.7879026170863
 42
2.414213562373095
 10
597.4397619956253
 20
734.3894513388501
 10
581.731690704637
 20
703.5606256019325
 42
2.414213562373095
 10
583.1301419828732
 20
699.2566351253633
  0
LWPOLYLINE
  5
92
330
17
100
AcDbEntity
  8
CUT
100
AcDbPolyline
 90
8
 70
1
 10
488.7363833517808
 20
710.197972240782
 42
2.414213562373095
 10
492.397576329814
 20
712.8579846425578
 10
497.81020882020596
 20
747.0320012271495
 42
2.414213562373095
 10
495.15019641843026
 20
750.6931942051826
 10
482.70532332693153
 20
752.6642684646896
 42
2.414213562373095
 10
479.0441303488983
 20
750.0042560629138
 10
473.63149785850635
 20
715.830239478322
 42
2.414213562373095
 10
476.29151026028205
 20
712.1690465002889
  0
LWPOLYLINE
  5
93
330
17
100
AcDbEntity
  8
CUT
100
AcDbPolyline
 90
8
 70
1
 10
386.108489739718
 20
712.1690465002889
 42
2.414213562373095
 10
388.7685021414937
 20
715.830239478322
 10
383.35586965110167
 20
750.0042560629138
 42
2.414213562373095
 10
379.6946766730685
 20
752.6642684646896
 10
367.2498035815698
 20
750.6931942051826
 42
2.414213562373095
 10
364.5897911797941
 20
747.0320012271495
 10
370.00242367018603
 20
712.8579846425578
 42
2.414213562373095
 10
373.6636166482192
 20
710.197972240782
  0
LWPOLYLINE
  5
94
330
17
100
AcDbEntity
  8
CUT
100
AcDbPolyline
 90
8
 70
1
 10
279.2698580171268
 20
699.2566351253633
 42
2.414213562373095
 10
280.6683092953631
 20
703.5606256019325
 10
264.9602380043748
 20
734.3894513388501
 42
2.414213562373095
 10
260.6562475278055
 20
735.7879026170863
 10
249.429565323032
 20
730.067622320368
 42
2.414213562373095
 10
248.03111404479577
 20
725.7636318437987
 10
263.7391853357841
 20
694.9348061068812
 42
2.414213562373095
 10
268.0431758123534
 20
693.536354828645
  0
LWPOLYLINE
  5
95
330
17
100
AcDbEntity
  8
CUT
100
AcDbPolyline
 90
8
 70
1
 10
174.79773361787522
 20
652.5118118250754
 42
2.414213562373095
 10
174.79773361787522
 20
657.0372952246693
 10
150.33183898882066
 20
681.5031898537238
 42
2.414213562373095
 10
145.80635558922677
 20
681.5031898537238
 10
136.89681014627627
 20
672.5936444107733
 42
2.414213562373095
 10
136.89681014627627
 20
668.0681610111794
 10
161.36270477533083
 20
643.6022663821249
 42
2.414213562373095
 10
165.88818817492472
 20
643.6022663821249
  0
LWPOLYLINE
  5
96
330
17
100
AcDbEntity
  8
CUT
100
AcDbPolyline
 90
8
 70
1
 10
97.70301540911078
 20
564.1958562758059
 42
2.414213562373095
 10
96.30456413087455
 20
568.4998467523753
 10
65.47573839395699
 20
584.2079180433636
 42
2.414213562373095
 10
61.171747917387734
 20
582.8094667651274
 10
55.451467620669405
 20
571.582784560354
 42
2.414213562373095
 10
56.84991889890563
 20
567.2787940837846
 10
87.6787446358232
 20
551.5707227927963
 42
2.414213562373095
 10
91.98273511239245
 20
552.9691740710325
  0
LWPOLYLINE
  5
97
330
17
100
AcDbEntity
  8
CUT
100
AcDbPolyline
 90
8
 70
1
 10
65.47799661251031
 20
451.50320511336025
 42
2.414213562373095
 10
62.81798421073455
 20
455.1643980913934
 10
28.643967626142796
 20
460.5770305817854
 42
2.414213562373095
 10
24.982774648109626
 20
457.9170181800097
 10
23.011700388602662
 20
445.47214508851096
 42
2.414213562373095
 10
25.67171279037842
 20
441.8109521104778
 10
59.845729374970176
 20
436.3983196200858
 42
2.414213562373095
 10
63.50692235300335
 20
439.0583320218615
  0
LWPOLYLINE
  5
98
330
17
100
AcDbEntity
  8
CUT
100
AcDbPolyline
 90
8
 70
1
 10
63.506922353003404
 20
335.3416679781387
 42
2.414213562373095
 10
59.84572937497023
 20
338.00168037991443
 10
25.67171279037848
 20
332.5890478895224
 42
2.414213562373095
 10
23.01170038860272
 20
328.92785491148925
 10
24.982774648109682
 20
316.4829818199905
 42
2.414213562373095
 10
28.643967626142853
 20
313.8229694182148
 10
62.81798421073461
 20
319.2356019086068
 42
2.414213562373095
 10
65.47799661251037
 20
322.89679488663995
  0
LWPOLYLINE
  5
99
330
17
100
AcDbEntity
  8
CUT
100
AcDbPolyline
 90
8
 70
1
 10
91.98273511239239
 20
221.4308259289676
 42
2.414213562373095
 10
87.67874463582314
 20
222.82927720720383
 10
56.84991889890557
 20
207.12120591621553
 42
2.414213562373095
 10
55.45146762066935
 20
202.81721543964622
 10
61.17174791738768
 20
191.59053323487277
 42
2.414213562373095
 10
65.47573839395693
 20
190.19208195663654
 10
96.3045641308745
 20
205.90015324762484
 42
2.414213562373095
 10
97.70301540911072
 20
210.20414372419415
  0
LWPOLYLINE
  5
9A
330
17
100
AcDbEntity
  8
CUT
100
AcDbPolyline
 90
8
 70
1
 10
165.88818817492466
 20
130.79773361787534
 42
2.414213562373095
 10
161.36270477533077
 20
130.79773361787534
 10
136.8968101462762
 20
106.33183898882078
 42
2.414213562373095
 10
136.8968101462762
 20
101.80635558922688
 10
145.8063555892267
 20
92.89681014627638
 42
2.414213562373095
 10
150.3318389888206
 20
92.89681014627638
 10
174.79773361787517
 20
117.36270477533094
 42
2.414213562373095
 10
174.79773361787517
 20
121.88818817492484
  0
LWPOLYLINE
  5
9B
330
17
100
AcDbEntity
  8
CUT
100
AcDbPolyline
 90
8
 70
1
 10
268.0431758123533
 20
80.86364517135513
 42
2.414213562373095
 10
263.739185335784
 20
79.46519389311891
 10
248.0311140447957
 20
48.63636815620134
 42
2.414213562373095
 10
249.42956532303188
 20
44.33237767963209
 10
260.65624752780536
 20
38.61209738291376
 42
2.414213562373095
 10
264.9602380043747
 20
40.01054866114998
 10
280.668309295363
 20
70.83937439806755
 42
2.414213562373095
 10
279.2698580171268
 20
75.1433648746368
  0
LWPOLYLINE
  5
9C
330
17
100
AcDbEntity
  8
CUT
100
AcDbPolyline
 90
8
 70
1
 10
373.66361664821915
 20
64.20202775921808
 42
2.414213562373095
 10
370.002423670186
 20
61.542015357442324
 10
364.58979117979396
 20
27.36799877285057
 42
2.414213562373095
 10
367.24980358156967
 20
23.7068057948174
 10
379.69467667306844
 20
21.735731535310435
 42
2.414213562373095
 10
383.35586965110156
 20
24.395743937086195
 10
388.76850214149357
 20
58.56976052167795
 42
2.414213562373095
 10
386.10848973971787
 20
62.23095349971112
  0
LWPOLYLINE
  5
9D
330
17
100
AcDbEntity
  8
CUT
100
AcDbPolyline
 90
8
 70
1
 10
476.29151026028194
 20
62.23095349971118
 42
2.414213562373095
 10
473.63149785850624
 20
58.569760521678006
 10
479.04413034889825
 20
24.39574393708625
 42
2.414213562373095
 10
482.7053233269314
 20
21.735731535310492
 10
495.15019641843014
 20
23.706805794817456
 42
2.414213562373095
 10
497.81020882020584
 20
27.367998772850626
 10
492.3975763298139
 20
61.54201535744238
 42
2.414213562373095
 10
488.7363833517807
 20
64.20202775921814
  0
LWPOLYLINE
  5
9E
330
17
100
AcDbEntity
  8
CUT
100
AcDbPolyline
 90
8
 70
1
 10
583.130141982873
 20
75.1433648746368
 42
2.414213562373095
 10
581.7316907046369
 20
70.83937439806755
 10
597.4397619956252
 20
40.01054866114998
 42
2.414213562373095
 10
601.7437524721945
 20
38.61209738291376
 10
612.9704346769679
 20
44.33237767963209
 42
2.414213562373095
 10
614.3688859552042
 20
48.63636815620134
 10
598.6608146642159
 20
79.46519389311891
 42
2.414213562373095
 10
594.3568241876466
 20
80.86364517135513
  0
LWPOLYLINE
  5
9F
330
17
100
AcDbEntity
  8
CUT
100
AcDbPolyline
 90
8
 70
1
 10
687.6022663821248
 20
121.88818817492472
 42
2.414213562373095
 10
687.6022663821248
 20
117.36270477533083
 10
712.0681610111792
 20
92.89681014627627
 42
2.414213562373095
 10
716.5936444107731
 20
92.89681014627627
 10
725.5031898537236
 20
101.80635558922677
 42
2.414213562373095
 10
725.5031898537236
 20
106.33183898882066
 10
701.0372952246692
 20
130.79773361787522
 42
2.414213562373095
 10
696.5118118250753
 20
130.79773361787522
  0
LWPOLYLINE
  5
A0
330
17
100
AcDbEntity
  8
CUT
100
AcDbPolyline
 90
8
 70
1
 10
764.6969845908892
 20
210.20414372419407
 42
2.414213562373095
 10
766.0954358691254
 20
205.90015324762473
 10
796.924261606043
 20
190.19208195663643
 42
2.414213562373095
 10
801.2282520826122
 20
191.59053323487262
 10
806.9485323793306
 20
202.81721543964608
 42
2.414213562373095
 10
805.5500811010943
 20
207.12120591621542
 10
774.7212553641768
 20
222.82927720720372
 42
2.414213562373095
 10
770.4172648876075
 20
221.43082592896752
  0
LWPOLYLINE
  5
A1
330
17
100
AcDbEntity
  8
CUT
100
AcDbPolyline
 90
8
 70
1
 10
796.9220033874897
 20
322.89679488663984
 42
2.414213562373095
 10
799.5820157892654
 20
319.23560190860667
 10
833.7560323738571
 20
313.82296941821465
 42
2.414213562373095
 10
837.4172253518902
 20
316.48298181999036
 10
839.3882996113973
 20
328.9278549114891
 42
2.414213562373095
 10
836.7282872096215
 20
332.58904788952225
 10
802.5542706250297
 20
338.00168037991426
 42
2.414213562373095
 10
798.8930776469965
 20
335.34166797813856
  0
TEXT
  5
A2
330
17
100
AcDbEntity
  8
ENGRAVE-LABEL
100
AcDbText
 10
800.828083059161
 20
506.5156114615353
 30
0.0
 40
11.0
  1
01 BASE-RING
 50
45.0
 72
1
 11
800.828083059161
 21
506.5156114615353
 31
0.0
100
AcDbText
 73
2
  0
ENDSEC
  0
SECTION
  2
OBJECTS
  0
DICTIONARY
  5
A
330
0
100
AcDbDictionary
281
1
  3
ACAD_COLOR
350
B
  3
ACAD_GROUP
350
C
  3
ACAD_LAYOUT
350
D
  3
ACAD_MATERIAL
350
E
  3
ACAD_MLEADERSTYLE
350
F
  3
ACAD_MLINESTYLE
350
10
  3
ACAD_PLOTSETTINGS
350
11
  3
ACAD_PLOTSTYLENAME
350
12
  3
ACAD_SCALELIST
350
14
  3
ACAD_TABLESTYLE
350
15
  3
ACAD_VISUALSTYLE
350
16
  3
EZDXF_META
350
2D
  0
DICTIONARY
  5
B
330
A
100
AcDbDictionary
281
1
  0
DICTIONARY
  5
C
330
A
100
AcDbDictionary
281
1
  0
DICTIONARY
  5
D
330
A
100
AcDbDictionary
281
1
  3
Model
350
1A
  3
Layout1
350
1E
  0
DICTIONARY
  5
E
330
A
100
AcDbDictionary
281
1
  3
ByBlock
350
1F
  3
ByLayer
350
20
  3
Global
350
21
  0
DICTIONARY
  5
F
330
A
100
AcDbDictionary
281
1
  3
Standard
350
2C
  0
DICTIONARY
  5
10
330
A
100
AcDbDictionary
281
1
  3
Standard
350
22
  0
DICTIONARY
  5
11
330
A
100
AcDbDictionary
281
1
  0
ACDBDICTIONARYWDFLT
  5
12
330
A
100
AcDbDictionary
281
1
  3
Normal
350
13
100
AcDbDictionaryWithDefault
340
13
  0
ACDBPLACEHOLDER
  5
13
330
12
  0
DICTIONARY
  5
14
330
A
100
AcDbDictionary
281
1
  0
DICTIONARY
  5
15
330
A
100
AcDbDictionary
281
1
  0
DICTIONARY
  5
16
330
A
100
AcDbDictionary
281
1
  3
2dWireframe
350
5A
  3
Basic
350
5B
  3
Brighten
350
5C
  3
ColorChange
350
5D
  3
Conceptual
350
5E
  3
Dim
350
5F
  3
EdgeColorOff
350
60
  3
Facepattern
350
61
  3
Flat
350
62
  3
FlatWithEdges
350
63
  3
Gouraud
350
64
  3
GouraudWithEdges
350
65
  3
Hidden
350
66
  3
JitterOff
350
67
  3
Linepattern
350
68
  3
Modeling
350
69
  3
OverhangOff
350
6A
  3
Realistic
350
6B
  3
Shaded
350
6C
  3
Shaded with edges
350
6D
  3
Shades of Gray
350
6E
  3
Sketchy
350
6F
  3
Thicken
350
70
  3
Wireframe
350
71
  3
X-Ray
350
72
  0
LAYOUT
  5
1A
330
D
100
AcDbPlotSettings
  1

  4
A3
  6

 40
7.5
 41
20.0
 42
7.5
 43
20.0
 44
420.0
 45
297.0
 46
0.0
 47
0.0
 48
0.0
 49
0.0
140
0.0
141
0.0
142
1.0
143
1.0
 70
1024
 72
1
 73
0
 74
5
  7

 75
16
 76
0
 77
2
 78
300
147
1.0
148
0.0
149
0.0
100
AcDbLayout
  1
Model
 70
1
 71
0
 10
0.0
 20
0.0
 11
420.0
 21
297.0
 12
0.0
 22
0.0
 32
0.0
 14
1e+20
 24
1e+20
 34
1e+20
 15
-1e+20
 25
-1e+20
 35
-1e+20
146
0.0
 13
0.0
 23
0.0
 33
0.0
 16
1.0
 26
0.0
 36
0.0
 17
0.0
 27
1.0
 37
0.0
 76
1
330
17
  0
LAYOUT
  5
1E
330
D
100
AcDbPlotSettings
  1

  4
A3
  6

 40
7.5
 41
20.0
 42
7.5
 43
20.0
 44
420.0
 45
297.0
 46
0.0
 47
0.0
 48
0.0
 49
0.0
140
0.0
141
0.0
142
1.0
143
1.0
 70
0
 72
1
 73
0
 74
5
  7

 75
16
 76
0
 77
2
 78
300
147
1.0
148
0.0
149
0.0
100
AcDbLayout
  1
Layout1
 70
1
 71
1
 10
0.0
 20
0.0
 11
420.0
 21
297.0
 12
0.0
 22
0.0
 32
0.0
 14
1e+20
 24
1e+20
 34
1e+20
 15
-1e+20
 25
-1e+20
 35
-1e+20
146
0.0
 13
0.0
 23
0.0
 33
0.0
 16
1.0
 26
0.0
 36
0.0
 17
0.0
 27
1.0
 37
0.0
 76
1
330
1B
  0
MATERIAL
  5
1F
102
{ACAD_REACTORS
330
E
102
}
330
E
100
AcDbMaterial
  1
ByBlock
  2

 70
0
 40
1.0
 71
1
 41
1.0
 91
-1023410177
 42
1.0
 72
1
  3

 73
1
 74
1
 75
1
 44
0.5
 73
0
 45
1.0
 46
1.0
 77
1
  4

 78
1
 79
1
170
1
 48
1.0
171
1
  6

172
1
173
1
174
1
140
1.0
141
1.0
175
1
  7

176
1
177
1
178
1
143
1.0
179
1
  8

270
1
271
1
272
1
145
1.0
146
1.0
273
1
  9

274
1
275
1
276
1
 42
1.0
 72
1
  3

 73
1
 74
1
 75
1
 94
63
  0
MATERIAL
  5
20
102
{ACAD_REACTORS
330
E
102
}
330
E
100
AcDbMaterial
  1
ByLayer
  2

 70
0
 40
1.0
 71
1
 41
1.0
 91
-1023410177
 42
1.0
 72
1
  3

 73
1
 74
1
 75
1
 44
0.5
 73
0
 45
1.0
 46
1.0
 77
1
  4

 78
1
 79
1
170
1
 48
1.0
171
1
  6

172
1
173
1
174
1
140
1.0
141
1.0
175
1
  7

176
1
177
1
178
1
143
1.0
179
1
  8

270
1
271
1
272
1
145
1.0
146
1.0
273
1
  9

274
1
275
1
276
1
 42
1.0
 72
1
  3

 73
1
 74
1
 75
1
 94
63
  0
MATERIAL
  5
21
102
{ACAD_REACTORS
330
E
102
}
330
E
100
AcDbMaterial
  1
Global
  2

 70
0
 40
1.0
 71
1
 41
1.0
 91
-1023410177
 42
1.0
 72
1
  3

 73
1
 74
1
 75
1
 44
0.5
 73
0
 45
1.0
 46
1.0
 77
1
  4

 78
1
 79
1
170
1
 48
1.0
171
1
  6

172
1
173
1
174
1
140
1.0
141
1.0
175
1
  7

176
1
177
1
178
1
143
1.0
179
1
  8

270
1
271
1
272
1
145
1.0
146
1.0
273
1
  9

274
1
275
1
276
1
 42
1.0
 72
1
  3

 73
1
 74
1
 75
1
 94
63
  0
MLINESTYLE
  5
22
102
{ACAD_REACTORS
330
10
102
}
330
10
100
AcDbMlineStyle
  2
Standard
 70
0
  3

 62
256
 51
90.0
 52
90.0
 71
2
 49
0.5
 62
256
  6
BYLAYER
 49
-0.5
 62
256
  6
BYLAYER
  0
MLEADERSTYLE
  5
2C
102
{ACAD_REACTORS
330
F
102
}
330
F
100
AcDbMLeaderStyle
179
2
170
2
171
1
172
0
 90
2
 40
0.0
 41
0.0
173
1
 91
-1056964608
 92
-2
290
1
 42
2.0
291
1
 43
8.0
  3
Standard
 44
4.0
300

342
29
174
1
175
1
176
0
178
1
 93
-1056964608
 45
4.0
292
0
297
0
 46
4.0
 94
-1056964608
 47
1.0
 49
1.0
140
1.0
294
1
141
0.0
177
0
142
1.0
295
0
296
0
143
3.75
271
0
272
9
273
9
  0
DICTIONARY
  5
2D
330
A
100
AcDbDictionary
280
1
281
1
  3
CREATED_BY_EZDXF
350
2E
  3
WRITTEN_BY_EZDXF
350
A5
  0
DICTIONARYVAR
  5
2E
330
2D
100
DictionaryVariables
280
0
  1
1.4.4 @ 2026-09-29T04:52:38.911971+00:00
  0
VISUALSTYLE
  5
5A
102
{ACAD_REACTORS
330
16
102
}
330
16
100
AcDbVisualStyle
  2
2dWireframe
 70
4
 90
0
 40
0.6
 62
7
290
0
291
0
  0
VISUALSTYLE
  5
5B
102
{ACAD_REACTORS
330
16
102
}
330
16
100
AcDbVisualStyle
  2
Basic
 70
7
 90
1
 40
0.6
 62
7
290
0
291
1
  0
VISUALSTYLE
  5
5C
102
{ACAD_REACTORS
330
16
102
}
330
16
100
AcDbVisualStyle
  2
Brighten
 70
12
 90
2
 40
0.6
 62
7
290
0
291
1
  0
VISUALSTYLE
  5
5D
102
{ACAD_REACTORS
330
16
102
}
330
16
100
AcDbVisualStyle
  2
ColorChange
 70
16
 90
2
 40
0.6
 62
8
290
0
291
1
  0
VISUALSTYLE
  5
5E
102
{ACAD_REACTORS
330
16
102
}
330
16
100
AcDbVisualStyle
  2
Conceptual
 70
9
 90
3
 40
0.6
 62
7
290
0
291
0
  0
VISUALSTYLE
  5
5F
102
{ACAD_REACTORS
330
16
102
}
330
16
100
AcDbVisualStyle
  2
Dim
 70
11
 90
2
 40
0.6
 62
7
290
0
291
1
  0
VISUALSTYLE
  5
60
102
{ACAD_REACTORS
330
16
102
}
330
16
100
AcDbVisualStyle
  2
EdgeColorOff
 70
22
 90
2
 40
0.6
 62
7
290
0
291
1
  0
VISUALSTYLE
  5
61
102
{ACAD_REACTORS
330
16
102
}
330
16
100
AcDbVisualStyle
  2
Facepattern
 70
15
 90
2
 40
0.6
 62
7
290
0
291
1
  0
VISUALSTYLE
  5
62
102
{ACAD_REACTORS
330
16
102
}
330
16
100
AcDbVisualStyle
  2
Flat
 70
0
 90
2
 40
0.6
 62
7
290
0
291
1
  0
VISUALSTYLE
  5
63
102
{ACAD_REACTORS
330
16
102
}
330
16
100
AcDbVisualStyle
  2
FlatWithEdges
 70
1
 90
2
 40
0.6
 62
7
290
0
291
1
  0
VISUALSTYLE
  5
64
102
{ACAD_REACTORS
330
16
102
}
330
16
100
AcDbVisualStyle
  2
Gouraud
 70
2
 90
2
 40
0.6
 62
7
290
0
291
1
  0
VISUALSTYLE
  5
65
102
{ACAD_REACTORS
330
16
102
}
330
16
100
AcDbVisualStyle
  2
GouraudWithEdges
 70
3
 90
2
 40
0.6
 62
7
290
0
291
1
  0
VISUALSTYLE
  5
66
102
{ACAD_REACTORS
330
16
102
}
330
16
100
AcDbVisualStyle
  2
Hidden
 70
6
 90
1
 40
0.6
 62
7
290
0
291
0
  0
VISUALSTYLE
  5
67
102
{ACAD_REACTORS
330
16
102
}
330
16
100
AcDbVisualStyle
  2
JitterOff
 70
20
 90
2
 40
0.6
 62
7
290
0
291
1
  0
VISUALSTYLE
  5
68
102
{ACAD_REACTORS
330
16
102
}
330
16
100
AcDbVisualStyle
  2
Linepattern
 70
14
 90
2
 40
0.6
 62
7
290
0
291
1
  0
VISUALSTYLE
  5
69
102
{ACAD_REACTORS
330
16
102
}
330
16
100
AcDbVisualStyle
  2
Modeling
 70
10
 90
2
 40
0.6
 62
7
290
0
291
0
  0
VISUALSTYLE
  5
6A
102
{ACAD_REACTORS
330
16
102
}
330
16
100
AcDbVisualStyle
  2
OverhangOff
 70
21
 90
2
 40
0.6
 62
7
290
0
291
1
  0
VISUALSTYLE
  5
6B
102
{ACAD_REACTORS
330
16
102
}
330
16
100
AcDbVisualStyle
  2
Realistic
 70
8
 90
2
 40
0.6
 62
7
290
0
291
0
  0
VISUALSTYLE
  5
6C
102
{ACAD_REACTORS
330
16
102
}
330
16
100
AcDbVisualStyle
  2
Shaded
 70
27
 90
2
 40
0.6
 62
7
290
0
291
0
  0
VISUALSTYLE
  5
6D
102
{ACAD_REACTORS
330
16
102
}
330
16
100
AcDbVisualStyle
  2
Shaded with edges
 70
26
 90
2
 40
0.6
 62
7
290
0
291
0
  0
VISUALSTYLE
  5
6E
102
{ACAD_REACTORS
330
16
102
}
330
16
100
AcDbVisualStyle
  2
Shades of Gray
 70
23
 90
2
 40
0.6
 62
7
290
0
291
0
  0
VISUALSTYLE
  5
6F
102
{ACAD_REACTORS
330
16
102
}
330
16
100
AcDbVisualStyle
  2
Sketchy
 70
24
 90
1
 40
0.6
 62
7
290
0
291
0
  0
VISUALSTYLE
  5
70
102
{ACAD_REACTORS
330
16
102
}
330
16
100
AcDbVisualStyle
  2
Thicken
 70
13
 90
2
 40
0.6
 62
7
290
0
291
1
  0
VISUALSTYLE
  5
71
102
{ACAD_REACTORS
330
16
102
}
330
16
100
AcDbVisualStyle
  2
Wireframe
 70
5
 90
0
 40
0.6
 62
7
290
0
291
0
  0
VISUALSTYLE
  5
72
102
{ACAD_REACTORS
330
16
102
}
330
16
100
AcDbVisualStyle
  2
X-Ray
 70
25
 90
2
 40
0.5
 62
7
290
0
291
0
  0
DICTIONARYVAR
  5
A5
330
2D
100
DictionaryVariables
280
0
  1
1.4.4 @ 2026-09-29T04:52:38.943253+00:00
  0
ENDSEC
  0
EOF
