  0
SECTION
  2
HEADER
  9
$ACADVER
  1
AC1024
  9
$ACADMAINTVER
 70
6
  9
$DWGCODEPAGE
  3
ANSI_1252
  9
$LASTSAVEDBY
  1
ezdxf
  9
$INSBASE
 10
0.0
 20
0.0
 30
0.0
  9
$EXTMIN
 10
1e+20
 20
1e+20
 30
1e+20
  9
$EXTMAX
 10
-1e+20
 20
-1e+20
 30
-1e+20
  9
$LIMMIN
 10
0.0
 20
0.0
  9
$LIMMAX
 10
420.0
 20
297.0
  9
$ORTHOMODE
 70
0
  9
$REGENMODE
 70
1
  9
$FILLMODE
 70
1
  9
$QTEXTMODE
 70
0
  9
$MIRRTEXT
 70
1
  9
$LTSCALE
 40
1.0
  9
$ATTMODE
 70
1
  9
$TEXTSIZE
 40
2.5
  9
$TRACEWID
 40
1.0
  9
$TEXTSTYLE
  7
OpenSans
  9
$CLAYER
  8
0
  9
$CELTYPE
  6
ByLayer
  9
$CECOLOR
 62
256
  9
$CELTSCALE
 40
1.0
  9
$DISPSILH
 70
0
  9
$DIMSCALE
 40
1.0
  9
$DIMASZ
 40
0.175
  9
$DIMEXO
 40
0.125
  9
$DIMDLI
 40
3.75
  9
$DIMRND
 40
0.0
  9
$DIMDLE
 40
0.0
  9
$DIMEXE
 40
0.375
  9
$DIMTP
 40
0.0
  9
$DIMTM
 40
0.0
  9
$DIMTXT
 40
0.25
  9
$DIMCEN
 40
2.5
  9
$DIMTSZ
 40
0.0
  9
$DIMTOL
 70
0
  9
$DIMLIM
 70
0
  9
$DIMTIH
 70
0
  9
$DIMTOH
 70
0
  9
$DIMSE1
 70
0
  9
$DIMSE2
 70
0
  9
$DIMTAD
 70
1
  9
$DIMZIN
 70
12
  9
$DIMBLK
  1
ARCHTICK
  9
$DIMASO
 70
1
  9
$DIMSHO
 70
1
  9
$DIMPOST
  1

  9
$DIMAPOST
  1

  9
$DIMALT
 70
0
  9
$DIMALTD
 70
3
  9
$DIMALTF
 40
0.03937007874
  9
$DIMLFAC
 40
100.0
  9
$DIMTOFL
 70
1
  9
$DIMTVP
 40
0.0
  9
$DIMTIX
 70
0
  9
$DIMSOXD
 70
0
  9
$DIMSAH
 70
0
  9
$DIMBLK1
  1

  9
$DIMBLK2
  1

  9
$DIMSTYLE
  2
EZDXF
  9
$DIMCLRD
 70
0
  9
$DIMCLRE
 70
0
  9
$DIMCLRT
 70
0
  9
$DIMTFAC
 40
0.5
  9
$DIMGAP
 40
0.1
  9
$DIMJUST
 70
0
  9
$DIMSD1
 70
0
  9
$DIMSD2
 70
0
  9
$DIMTOLJ
 70
0
  9
$DIMTZIN
 70
8
  9
$DIMALTZ
 70
0
  9
$DIMALTTZ
 70
0
  9
$DIMUPT
 70
1
  9
$DIMDEC
 70
2
  9
$DIMTDEC
 70
2
  9
$DIMALTU
 70
2
  9
$DIMALTTD
 70
3
  9
$DIMTXSTY
  7
OpenSansCondensed-Light
  9
$DIMAUNIT
 70
0
  9
$DIMADEC
 70
2
  9
$DIMALTRND
 40
0.0
  9
$DIMAZIN
 70
3
  9
$DIMDSEP
 70
46
  9
$DIMATFIT
 70
3
  9
$DIMFRAC
 70
0
  9
$DIMLDRBLK
  1

  9
$DIMLUNIT
 70
2
  9
$DIMLWD
 70
-2
  9
$DIMLWE
 70
-2
  9
$DIMTMOVE
 70
2
  9
$DIMFXL
 40
1.0
  9
$DIMFXLON
 70
0
  9
$DIMJOGANG
 40
0.785398163397
  9
$DIMTFILL
 70
0
  9
$DIMTFILLCLR
 70
0
  9
$DIMARCSYM
 70
0
  9
$DIMLTYPE
  6

  9
$DIMLTEX1
  6

  9
$DIMLTEX2
  6

  9
$DIMTXTDIRECTION
 70
0
  9
$LUNITS
 70
2
  9
$LUPREC
 70
4
  9
$SKETCHINC
 40
1.0
  9
$FILLETRAD
 40
10.0
  9
$AUNITS
 70
0
  9
$AUPREC
 70
2
  9
$MENU
  1
.
  9
$ELEVATION
 40
0.0
  9
$PELEVATION
 40
0.0
  9
$THICKNESS
 40
0.0
  9
$LIMCHECK
 70
0
  9
$CHAMFERA
 40
0.0
  9
$CHAMFERB
 40
0.0
  9
$CHAMFERC
 40
0.0
  9
$CHAMFERD
 40
0.0
  9
$SKPOLY
 70
0
  9
$TDCREATE
 40
2461313.2032175926
  9
$TDUCREATE
 40
2458532.153996898
  9
$TDUPDATE
 40
2461313.2032175926
  9
$TDUUPDATE
 40
2458532.1544311
  9
$TDINDWG
 40
0.0
  9
$TDUSRTIMER
 40
0.0
  9
$USRTIMER
 70
1
  9
$ANGBASE
 50
0.0
  9
$ANGDIR
 70
0
  9
$PDMODE
 70
0
  9
$PDSIZE
 40
0.0
  9
$PLINEWID
 40
0.0
  9
$SPLFRAME
 70
0
  9
$SPLINETYPE
 70
6
  9
$SPLINESEGS
 70
8
  9
$HANDSEED
  5
B3
  9
$SURFTAB1
 70
6
  9
$SURFTAB2
 70
6
  9
$SURFTYPE
 70
6
  9
$SURFU
 70
6
  9
$SURFV
 70
6
  9
$UCSBASE
  2

  9
$UCSNAME
  2

  9
$UCSORG
 10
0.0
 20
0.0
 30
0.0
  9
$UCSXDIR
 10
1.0
 20
0.0
 30
0.0
  9
$UCSYDIR
 10
0.0
 20
1.0
 30
0.0
  9
$UCSORTHOREF
  2

  9
$UCSORTHOVIEW
 70
0
  9
$UCSORGTOP
 10
0.0
 20
0.0
 30
0.0
  9
$UCSORGBOTTOM
 10
0.0
 20
0.0
 30
0.0
  9
$UCSORGLEFT
 10
0.0
 20
0.0
 30
0.0
  9
$UCSORGRIGHT
 10
0.0
 20
0.0
 30
0.0
  9
$UCSORGFRONT
 10
0.0
 20
0.0
 30
0.0
  9
$UCSORGBACK
 10
0.0
 20
0.0
 30
0.0
  9
$PUCSBASE
  2

  9
$PUCSNAME
  2

  9
$PUCSORG
 10
0.0
 20
0.0
 30
0.0
  9
$PUCSXDIR
 10
1.0
 20
0.0
 30
0.0
  9
$PUCSYDIR
 10
0.0
 20
1.0
 30
0.0
  9
$PUCSORTHOREF
  2

  9
$PUCSORTHOVIEW
 70
0
  9
$PUCSORGTOP
 10
0.0
 20
0.0
 30
0.0
  9
$PUCSORGBOTTOM
 10
0.0
 20
0.0
 30
0.0
  9
$PUCSORGLEFT
 10
0.0
 20
0.0
 30
0.0
  9
$PUCSORGRIGHT
 10
0.0
 20
0.0
 30
0.0
  9
$PUCSORGFRONT
 10
0.0
 20
0.0
 30
0.0
  9
$PUCSORGBACK
 10
0.0
 20
0.0
 30
0.0
  9
$USERI1
 70
0
  9
$USERI2
 70
0
  9
$USERI3
 70
0
  9
$USERI4
 70
0
  9
$USERI5
 70
0
  9
$USERR1
 40
0.0
  9
$USERR2
 40
0.0
  9
$USERR3
 40
0.0
  9
$USERR4
 40
0.0
  9
$USERR5
 40
0.0
  9
$WORLDVIEW
 70
1
  9
$SHADEDGE
 70
3
  9
$SHADEDIF
 70
70
  9
$TILEMODE
 70
1
  9
$MAXACTVP
 70
64
  9
$PINSBASE
 10
0.0
 20
0.0
 30
0.0
  9
$PLIMCHECK
 70
0
  9
$PEXTMIN
 10
1e+20
 20
1e+20
 30
1e+20
  9
$PEXTMAX
 10
-1e+20
 20
-1e+20
 30
-1e+20
  9
$PLIMMIN
 10
0.0
 20
0.0
  9
$PLIMMAX
 10
420.0
 20
297.0
  9
$UNITMODE
 70
0
  9
$VISRETAIN
 70
1
  9
$PLINEGEN
 70
0
  9
$PSLTSCALE
 70
1
  9
$TREEDEPTH
 70
3020
  9
$CMLSTYLE
  2
Standard
  9
$CMLJUST
 70
0
  9
$CMLSCALE
 40
20.0
  9
$PROXYGRAPHICS
 70
1
  9
$MEASUREMENT
 70
1
  9
$CELWEIGHT
370
-1
  9
$ENDCAPS
280
0
  9
$JOINSTYLE
280
0
  9
$LWDISPLAY
290
0
  9
$INSUNITS
 70
4
  9
$HYPERLINKBASE
  1

  9
$STYLESHEET
  1

  9
$XEDIT
290
1
  9
$CEPSNTYPE
380
0
  9
$PSTYLEMODE
290
1
  9
$FINGERPRINTGUID
  2
{529F758D-8F02-4CED-BC27-B58A1200221B}
  9
$VERSIONGUID
  2
{0C34B456-D191-4866-968E-0CE75F4A6EB7}
  9
$EXTNAMES
290
1
  9
$PSVPSCALE
 40
0.0
  9
$OLESTARTUP
290
0
  9
$SORTENTS
280
127
  9
$INDEXCTL
280
0
  9
$HIDETEXT
280
1
  9
$XCLIPFRAME
280
1
  9
$HALOGAP
280
0
  9
$OBSCOLOR
 70
257
  9
$OBSLTYPE
280
0
  9
$INTERSECTIONDISPLAY
280
0
  9
$INTERSECTIONCOLOR
 70
257
  9
$DIMASSOC
280
2
  9
$PROJECTNAME
  1

  9
$CAMERADISPLAY
290
0
  9
$LENSLENGTH
 40
50.0
  9
$CAMERAHEIGHT
 40
0.0
  9
$STEPSPERSEC
 40
24.0
  9
$STEPSIZE
 40
100.0
  9
$3DDWFPREC
 40
2.0
  9
$PSOLWIDTH
 40
0.005
  9
$PSOLHEIGHT
 40
0.08
  9
$LOFTANG1
 40
1.570796326795
  9
$LOFTANG2
 40
1.570796326795
  9
$LOFTMAG1
 40
0.0
  9
$LOFTMAG2
 40
0.0
  9
$LOFTPARAM
 70
7
  9
$LOFTNORMALS
280
1
  9
$LATITUDE
 40
37.795
  9
$LONGITUDE
 40
-122.394
  9
$NORTHDIRECTION
 40
0.0
  9
$TIMEZONE
 70
-8000
  9
$LIGHTGLYPHDISPLAY
280
1
  9
$TILEMODELIGHTSYNCH
280
1
  9
$CMATERIAL
347
20
  9
$SOLIDHIST
280
0
  9
$SHOWHIST
280
1
  9
$DWFFRAME
280
2
  9
$DGNFRAME
280
2
  9
$REALWORLDSCALE
290
1
  9
$INTERFERECOLOR
 62
256
  9
$CSHADOW
280
0
  9
$SHADOWPLANELOCATION
 40
0.0
  0
ENDSEC
  0
SECTION
  2
CLASSES
  0
CLASS
  1
ACDBDICTIONARYWDFLT
  2
AcDbDictionaryWithDefault
  3
ObjectDBX Classes
 90
0
 91
0
280
0
281
0
  0
CLASS
  1
SUN
  2
AcDbSun
  3
SCENEOE
 90
1153
 91
0
280
0
281
0
  0
CLASS
  1
VISUALSTYLE
  2
AcDbVisualStyle
  3
ObjectDBX Classes
 90
4095
 91
0
280
0
281
0
  0
CLASS
  1
MATERIAL
  2
AcDbMaterial
  3
ObjectDBX Classes
 90
1153
 91
0
280
0
281
0
  0
CLASS
  1
SCALE
  2
AcDbScale
  3
ObjectDBX Classes
 90
1153
 91
0
280
0
281
0
  0
CLASS
  1
TABLESTYLE
  2
AcDbTableStyle
  3
ObjectDBX Classes
 90
4095
 91
0
280
0
281
0
  0
CLASS
  1
MLEADERSTYLE
  2
AcDbMLeaderStyle
  3
ACDB_MLEADERSTYLE_CLASS
 90
4095
 91
0
280
0
281
0
  0
CLASS
  1
DICTIONARYVAR
  2
AcDbDictionaryVar
  3
ObjectDBX Classes
 90
0
 91
0
280
0
281
0
  0
CLASS
  1
CELLSTYLEMAP
  2
AcDbCellStyleMap
  3
ObjectDBX Classes
 90
1152
 91
0
280
0
281
0
  0
CLASS
  1
MENTALRAYRENDERSETTINGS
  2
AcDbMentalRayRenderSettings
  3
SCENEOE
 90
1024
 91
0
280
0
281
0
  0
CLASS
  1
ACDBDETAILVIEWSTYLE
  2
AcDbDetailViewStyle
  3
ObjectDBX Classes
 90
1025
 91
0
280
0
281
0
  0
CLASS
  1
ACDBSECTIONVIEWSTYLE
  2
AcDbSectionViewStyle
  3
ObjectDBX Classes
 90
1025
 91
0
280
0
281
0
  0
CLASS
  1
RASTERVARIABLES
  2
AcDbRasterVariables
  3
ISM
 90
0
 91
0
280
0
281
0
  0
CLASS
  1
ACDBPLACEHOLDER
  2
AcDbPlaceHolder
  3
ObjectDBX Classes
 90
0
 91
0
280
0
281
0
  0
CLASS
  1
LAYOUT
  2
AcDbLayout
  3
ObjectDBX Classes
 90
0
 91
0
280
0
281
0
  0
ENDSEC
  0
SECTION
  2
TABLES
  0
TABLE
  2
VPORT
  5
8
330
0
100
AcDbSymbolTable
 70
1
  0
VPORT
  5
23
330
8
100
AcDbSymbolTableRecord
100
AcDbViewportTableRecord
  2
*Active
 70
0
 10
0.0
 20
0.0
 11
1.0
 21
1.0
 12
0.0
 22
0.0
 13
0.0
 23
0.0
 14
0.5
 24
0.5
 15
0.5
 25
0.5
 16
0.0
 26
0.0
 36
1.0
 17
0.0
 27
0.0
 37
0.0
 40
1000.0
 41
1.34
 42
50.0
 43
0.0
 44
0.0
 50
0.0
 51
0.0
 71
0
 72
1000
 73
1
 74
3
 75
0
 76
0
 77
0
 78
0
281
0
 65
0
146
0.0
  0
ENDTAB
  0
TABLE
  2
LTYPE
  5
2
330
0
100
AcDbSymbolTable
 70
21
  0
LTYPE
  5
24
330
2
100
AcDbSymbolTableRecord
100
AcDbLinetypeTableRecord
  2
ByBlock
 70
0
  3

 72
65
 73
0
 40
0.0
  0
LTYPE
  5
25
330
2
100
AcDbSymbolTableRecord
100
AcDbLinetypeTableRecord
  2
ByLayer
 70
0
  3

 72
65
 73
0
 40
0.0
  0
LTYPE
  5
26
330
2
100
AcDbSymbolTableRecord
100
AcDbLinetypeTableRecord
  2
Continuous
 70
0
  3

 72
65
 73
0
 40
0.0
  0
LTYPE
  5
2F
330
2
100
AcDbSymbolTableRecord
100
AcDbLinetypeTableRecord
  2
CENTER
 70
0
  3
Center ____ _ ____ _ ____ _ ____ _ ____ _ ____
 72
65
 73
4
 40
5.08
 49
3.175
 74
0
 49
-0.635
 74
0
 49
0.635
 74
0
 49
-0.635
 74
0
  0
LTYPE
  5
30
330
2
100
AcDbSymbolTableRecord
100
AcDbLinetypeTableRecord
  2
CENTERX2
 70
0
  3
Center (2x) ________  __  ________  __  ________
 72
65
 73
4
 40
8.89
 49
6.35
 74
0
 49
-0.635
 74
0
 49
1.27
 74
0
 49
-0.635
 74
0
  0
LTYPE
  5
31
330
2
100
AcDbSymbolTableRecord
100
AcDbLinetypeTableRecord
  2
CENTER2
 70
0
  3
Center (.5x) ____ _ ____ _ ____ _ ____ _ ____
 72
65
 73
4
 40
2.54
 49
1.587
 74
0
 49
-0.318
 74
0
 49
0.318
 74
0
 49
-0.318
 74
0
  0
LTYPE
  5
32
330
2
100
AcDbSymbolTableRecord
100
AcDbLinetypeTableRecord
  2
DASHED
 70
0
  3
Dashed __ __ __ __ __ __ __ __ __ __ __ __ __ _
 72
65
 73
2
 40
1.524
 49
1.27
 74
0
 49
-0.254
 74
0
  0
LTYPE
  5
33
330
2
100
AcDbSymbolTableRecord
100
AcDbLinetypeTableRecord
  2
DASHEDX2
 70
0
  3
Dashed (2x) ____  ____  ____  ____  ____  ____
 72
65
 73
2
 40
3.048
 49
2.54
 74
0
 49
-0.508
 74
0
  0
LTYPE
  5
34
330
2
100
AcDbSymbolTableRecord
100
AcDbLinetypeTableRecord
  2
DASHED2
 70
0
  3
Dashed (.5x) _ _ _ _ _ _ _ _ _ _ _ _ _ _
 72
65
 73
2
 40
0.762
 49
0.635
 74
0
 49
-0.127
 74
0
  0
LTYPE
  5
35
330
2
100
AcDbSymbolTableRecord
100
AcDbLinetypeTableRecord
  2
PHANTOM
 70
0
  3
Phantom ______  __  __  ______  __  __  ______
 72
65
 73
6
 40
6.35
 49
3.175
 74
0
 49
-0.635
 74
0
 49
0.635
 74
0
 49
-0.635
 74
0
 49
0.635
 74
0
 49
-0.635
 74
0
  0
LTYPE
  5
36
330
2
100
AcDbSymbolTableRecord
100
AcDbLinetypeTableRecord
  2
PHANTOMX2
 70
0
  3
Phantom (2x)____________    ____    ____    ____________
 72
65
 73
6
 40
10.795
 49
6.35
 74
0
 49
-0.635
 74
0
 49
1.27
 74
0
 49
-0.635
 74
0
 49
1.27
 74
0
 49
-0.635
 74
0
  0
LTYPE
  5
37
330
2
100
AcDbSymbolTableRecord
100
AcDbLinetypeTableRecord
  2
PHANTOM2
 70
0
  3
Phantom (.5x) ___ _ _ ___ _ _ ___ _ _ ___ _ _ ___
 72
65
 73
6
 40
3.175
 49
1.587
 74
0
 49
-0.318
 74
0
 49
0.318
 74
0
 49
-0.318
 74
0
 49
0.318
 74
0
 49
-0.318
 74
0
  0
LTYPE
  5
38
330
2
100
AcDbSymbolTableRecord
100
AcDbLinetypeTableRecord
  2
DASHDOT
 70
0
  3
Dash dot __ . __ . __ . __ . __ . __ . __ . __
 72
65
 73
4
 40
3.556
 49
2.54
 74
0
 49
-0.508
 74
0
 49
0.0
 74
0
 49
-0.508
 74
0
  0
LTYPE
  5
39
330
2
100
AcDbSymbolTableRecord
100
AcDbLinetypeTableRecord
  2
DASHDOTX2
 70
0
  3
Dash dot (2x) ____  .  ____  .  ____  .  ____
 72
65
 73
4
 40
6.096
 49
5.08
 74
0
 49
-0.508
 74
0
 49
0.0
 74
0
 49
-0.508
 74
0
  0
LTYPE
  5
3A
330
2
100
AcDbSymbolTableRecord
100
AcDbLinetypeTableRecord
  2
DASHDOT2
 70
0
  3
Dash dot (.5x) _ . _ . _ . _ . _ . _ . _ . _
 72
65
 73
4
 40
1.778
 49
1.27
 74
0
 49
-0.254
 74
0
 49
0.0
 74
0
 49
-0.254
 74
0
  0
LTYPE
  5
3B
330
2
100
AcDbSymbolTableRecord
100
AcDbLinetypeTableRecord
  2
DOT
 70
0
  3
Dot .  .  .  .  .  .  .  .  .  .  .  .  .  .  .  .
 72
65
 73
2
 40
0.508
 49
0.0
 74
0
 49
-0.508
 74
0
  0
LTYPE
  5
3C
330
2
100
AcDbSymbolTableRecord
100
AcDbLinetypeTableRecord
  2
DOTX2
 70
0
  3
Dot (2x) .    .    .    .    .    .    .    . 
 72
65
 73
2
 40
1.016
 49
0.0
 74
0
 49
-1.016
 74
0
  0
LTYPE
  5
3D
330
2
100
AcDbSymbolTableRecord
100
AcDbLinetypeTableRecord
  2
DOT2
 70
0
  3
Dot (.5) . . . . . . . . . . . . . . . . . . . 
 72
65
 73
2
 40
0.254
 49
0.0
 74
0
 49
-0.254
 74
0
  0
LTYPE
  5
3E
330
2
100
AcDbSymbolTableRecord
100
AcDbLinetypeTableRecord
  2
DIVIDE
 70
0
  3
Divide __ . . __ . . __ . . __ . . __ . . __
 72
65
 73
6
 40
4.064
 49
2.54
 74
0
 49
-0.508
 74
0
 49
0.0
 74
0
 49
-0.508
 74
0
 49
0.0
 74
0
 49
-0.508
 74
0
  0
LTYPE
  5
3F
330
2
100
AcDbSymbolTableRecord
100
AcDbLinetypeTableRecord
  2
DIVIDEX2
 70
0
  3
Divide (2x) ____  . .  ____  . .  ____  . .  ____
 72
65
 73
6
 40
6.604
 49
5.08
 74
0
 49
-0.508
 74
0
 49
0.0
 74
0
 49
-0.508
 74
0
 49
0.0
 74
0
 49
-0.508
 74
0
  0
LTYPE
  5
40
330
2
100
AcDbSymbolTableRecord
100
AcDbLinetypeTableRecord
  2
DIVIDE2
 70
0
  3
Divide(.5x) _ . _ . _ . _ . _ . _ . _ . _
 72
65
 73
6
 40
2.032
 49
1.27
 74
0
 49
-0.254
 74
0
 49
0.0
 74
0
 49
-0.254
 74
0
 49
0.0
 74
0
 49
-0.254
 74
0
  0
ENDTAB
  0
TABLE
  2
LAYER
  5
1
330
0
100
AcDbSymbolTable
 70
4
  0
LAYER
  5
27
330
1
100
AcDbSymbolTableRecord
100
AcDbLayerTableRecord
  2
0
 70
0
 62
7
  6
Continuous
370
-3
390
13
347
21
  0
LAYER
  5
28
330
1
100
AcDbSymbolTableRecord
100
AcDbLayerTableRecord
  2
Defpoints
 70
0
 62
7
  6
Continuous
290
0
370
-3
390
13
347
21
  0
LAYER
  5
8A
330
1
100
AcDbSymbolTableRecord
100
AcDbLayerTableRecord
  2
CUT
 70
0
 62
1
  6
Continuous
370
-3
390
13
347
21
  0
LAYER
  5
8B
330
1
100
AcDbSymbolTableRecord
100
AcDbLayerTableRecord
  2
ENGRAVE-LABEL
 70
0
 62
3
  6
Continuous
370
-3
390
13
347
21
  0
ENDTAB
  0
TABLE
  2
STYLE
  5
5
330
0
100
AcDbSymbolTable
 70
26
  0
STYLE
  5
29
330
5
100
AcDbSymbolTableRecord
100
AcDbTextStyleTableRecord
  2
Standard
 70
0
 40
0.0
 41
1.0
 50
0.0
 71
0
 42
2.5
  3
txt
  4

  0
STYLE
  5
41
330
5
100
AcDbSymbolTableRecord
100
AcDbTextStyleTableRecord
  2
OpenSans-Light
 70
0
 40
0.0
 41
1.0
 50
0.0
 71
0
 42
2.5
  3
OpenSans-Light.ttf
  4

  0
STYLE
  5
42
330
5
100
AcDbSymbolTableRecord
100
AcDbTextStyleTableRecord
  2
OpenSans-Light-Italic
 70
0
 40
0.0
 41
1.0
 50
0.0
 71
0
 42
2.5
  3
OpenSans-LightItalic.ttf
  4

  0
STYLE
  5
43
330
5
100
AcDbSymbolTableRecord
100
AcDbTextStyleTableRecord
  2
OpenSans
 70
0
 40
0.0
 41
1.0
 50
0.0
 71
0
 42
2.5
  3
OpenSans-Regular.ttf
  4

  0
STYLE
  5
44
330
5
100
AcDbSymbolTableRecord
100
AcDbTextStyleTableRecord
  2
OpenSans-Italic
 70
0
 40
0.0
 41
1.0
 50
0.0
 71
0
 42
2.5
  3
OpenSans-Italic.ttf
  4

  0
STYLE
  5
45
330
5
100
AcDbSymbolTableRecord
100
AcDbTextStyleTableRecord
  2
OpenSans-SemiBold
 70
0
 40
0.0
 41
1.0
 50
0.0
 71
0
 42
2.5
  3
OpenSans-SemiBold.ttf
  4

  0
STYLE
  5
46
330
5
100
AcDbSymbolTableRecord
100
AcDbTextStyleTableRecord
  2
OpenSans-SemiBoldItalic
 70
0
 40
0.0
 41
1.0
 50
0.0
 71
0
 42
2.5
  3
OpenSans-SemiBoldItalic.ttf
  4

  0
STYLE
  5
47
330
5
100
AcDbSymbolTableRecord
100
AcDbTextStyleTableRecord
  2
OpenSans-Bold
 70
0
 40
0.0
 41
1.0
 50
0.0
 71
0
 42
2.5
  3
OpenSans-Bold.ttf
  4

  0
STYLE
  5
48
330
5
100
AcDbSymbolTableRecord
100
AcDbTextStyleTableRecord
  2
OpenSans-BoldItalic
 70
0
 40
0.0
 41
1.0
 50
0.0
 71
0
 42
2.5
  3
OpenSans-BoldItalic.ttf
  4

  0
STYLE
  5
49
330
5
100
AcDbSymbolTableRecord
100
AcDbTextStyleTableRecord
  2
OpenSans-ExtraBold
 70
0
 40
0.0
 41
1.0
 50
0.0
 71
0
 42
2.5
  3
OpenSans-ExtraBold.ttf
  4

  0
STYLE
  5
4A
330
5
100
AcDbSymbolTableRecord
100
AcDbTextStyleTableRecord
  2
OpenSans-ExtraBoldItalic
 70
0
 40
0.0
 41
1.0
 50
0.0
 71
0
 42
2.5
  3
OpenSans-ExtraBoldItalic.ttf
  4

  0
STYLE
  5
4B
330
5
100
AcDbSymbolTableRecord
100
AcDbTextStyleTableRecord
  2
OpenSansCondensed-Bold
 70
0
 40
0.0
 41
1.0
 50
0.0
 71
0
 42
2.5
  3
OpenSansCondensed-Bold.ttf
  4

  0
STYLE
  5
4C
330
5
100
AcDbSymbolTableRecord
100
AcDbTextStyleTableRecord
  2
OpenSansCondensed-Light
 70
0
 40
0.0
 41
1.0
 50
0.0
 71
0
 42
2.5
  3
OpenSansCondensed-Light.ttf
  4

  0
STYLE
  5
4D
330
5
100
AcDbSymbolTableRecord
100
AcDbTextStyleTableRecord
  2
OpenSansCondensed-Italic
 70
0
 40
0.0
 41
1.0
 50
0.0
 71
0
 42
2.5
  3
OpenSansCondensed-LightItalic.ttf
  4

  0
STYLE
  5
4E
330
5
100
AcDbSymbolTableRecord
100
AcDbTextStyleTableRecord
  2
LiberationSans
 70
0
 40
0.0
 41
1.0
 50
0.0
 71
0
 42
2.5
  3
LiberationSans-Regular.ttf
  4

  0
STYLE
  5
4F
330
5
100
AcDbSymbolTableRecord
100
AcDbTextStyleTableRecord
  2
LiberationSans-Bold
 70
0
 40
0.0
 41
1.0
 50
0.0
 71
0
 42
2.5
  3
LiberationSans-Bold.ttf
  4

  0
STYLE
  5
50
330
5
100
AcDbSymbolTableRecord
100
AcDbTextStyleTableRecord
  2
LiberationSans-BoldItalic
 70
0
 40
0.0
 41
1.0
 50
0.0
 71
0
 42
2.5
  3
LiberationSans-BoldItalic.ttf
  4

  0
STYLE
  5
51
330
5
100
AcDbSymbolTableRecord
100
AcDbTextStyleTableRecord
  2
LiberationSans-Italic
 70
0
 40
0.0
 41
1.0
 50
0.0
 71
0
 42
2.5
  3
LiberationSans-Italic.ttf
  4

  0
STYLE
  5
52
330
5
100
AcDbSymbolTableRecord
100
AcDbTextStyleTableRecord
  2
LiberationSerif
 70
0
 40
0.0
 41
1.0
 50
0.0
 71
0
 42
2.5
  3
LiberationSerif-Regular.ttf
  4

  0
STYLE
  5
53
330
5
100
AcDbSymbolTableRecord
100
AcDbTextStyleTableRecord
  2
LiberationSerif-Bold
 70
0
 40
0.0
 41
1.0
 50
0.0
 71
0
 42
2.5
  3
LiberationSerif-Bold.ttf
  4

  0
STYLE
  5
54
330
5
100
AcDbSymbolTableRecord
100
AcDbTextStyleTableRecord
  2
LiberationSerif-BoldItalic
 70
0
 40
0.0
 41
1.0
 50
0.0
 71
0
 42
2.5
  3
LiberationSerif-BoldItalic.ttf
  4

  0
STYLE
  5
55
330
5
100
AcDbSymbolTableRecord
100
AcDbTextStyleTableRecord
  2
LiberationSerif-Italic
 70
0
 40
0.0
 41
1.0
 50
0.0
 71
0
 42
2.5
  3
LiberationSerif-Italic.ttf
  4

  0
STYLE
  5
56
330
5
100
AcDbSymbolTableRecord
100
AcDbTextStyleTableRecord
  2
LiberationMono
 70
0
 40
0.0
 41
1.0
 50
0.0
 71
0
 42
2.5
  3
LiberationMono-Regular.ttf
  4

  0
STYLE
  5
57
330
5
100
AcDbSymbolTableRecord
100
AcDbTextStyleTableRecord
  2
LiberationMono-Bold
 70
0
 40
0.0
 41
1.0
 50
0.0
 71
0
 42
2.5
  3
LiberationMono-Bold.ttf
  4

  0
STYLE
  5
58
330
5
100
AcDbSymbolTableRecord
100
AcDbTextStyleTableRecord
  2
LiberationMono-BoldItalic
 70
0
 40
0.0
 41
1.0
 50
0.0
 71
0
 42
2.5
  3
LiberationMono-BoldItalic.ttf
  4

  0
STYLE
  5
59
330
5
100
AcDbSymbolTableRecord
100
AcDbTextStyleTableRecord
  2
LiberationMono-Italic
 70
0
 40
0.0
 41
1.0
 50
0.0
 71
0
 42
2.5
  3
LiberationMono-Italic.ttf
  4

  0
ENDTAB
  0
TABLE
  2
VIEW
  5
7
330
0
100
AcDbSymbolTable
 70
0
  0
ENDTAB
  0
TABLE
  2
UCS
  5
6
330
0
100
AcDbSymbolTable
 70
0
  0
ENDTAB
  0
TABLE
  2
APPID
  5
3
330
0
100
AcDbSymbolTable
 70
3
  0
APPID
  5
2A
330
3
100
AcDbSymbolTableRecord
100
AcDbRegAppTableRecord
  2
ACAD
 70
0
  0
APPID
  5
B0
330
3
100
AcDbSymbolTableRecord
100
AcDbRegAppTableRecord
  2
HATCHBACKGROUNDCOLOR
 70
0
  0
APPID
  5
B1
330
3
100
AcDbSymbolTableRecord
100
AcDbRegAppTableRecord
  2
EZDXF
 70
0
  0
ENDTAB
  0
TABLE
  2
DIMSTYLE
  5
4
330
0
100
AcDbSymbolTable
 70
12
100
AcDbDimStyleTable
  0
DIMSTYLE
105
2B
330
4
100
AcDbSymbolTableRecord
100
AcDbDimStyleTableRecord
  2
Standard
 70
0
 40
1.0
 41
2.5
 42
0.625
 43
3.75
 44
1.25
 45
0.0
 46
0.0
 47
0.0
 48
0.0
 49
2.5
140
2.5
141
2.5
142
0.0
143
0.03937007874
144
1.0
145
0.0
146
1.0
147
0.625
148
0.0
 69
0
 70
0
 71
0
 72
0
 73
0
 74
0
 75
0
 76
0
 77
1
 78
8
 79
3
170
0
171
3
172
1
173
0
174
0
175
0
176
0
177
0
178
0
179
2
271
2
272
2
273
2
274
3
275
0
276
0
277
2
278
44
279
0
280
0
281
0
282
0
283
0
284
8
285
0
286
0
288
0
289
3
290
0
371
-2
372
-2
  0
DIMSTYLE
105
73
330
4
100
AcDbSymbolTableRecord
100
AcDbDimStyleTableRecord
  2
EZDXF
 70
0
 40
1.0
 41
0.175
 42
0.125
 43
3.75
 44
0.375
 45
0.0
 46
0.0
 47
0.0
 48
0.0
 49
2.5
140
0.25
141
2.5
142
0.0
143
0.03937007874
144
100.0
145
0.0
146
0.5
147
0.1
148
0.0
 69
0
 70
0
 71
0
 72
0
 73
0
 74
0
 75
0
 76
0
 77
1
 78
12
 79
3
170
0
171
3
172
1
173
0
174
0
175
0
176
0
177
0
178
0
179
2
271
2
272
2
273
2
274
3
275
0
276
0
277
2
278
46
279
2
280
0
281
0
282
0
283
0
284
8
285
0
286
0
288
1
289
3
290
0
340
4C
342
74
371
-2
372
-2
  0
DIMSTYLE
105
7C
330
4
100
AcDbSymbolTableRecord
100
AcDbDimStyleTableRecord
  2
EZ_M_100_H25_CM
 70
0
 40
1.0
 41
0.25
 42
0.125
 43
3.75
 44
0.375
 45
0.0
 46
0.0
 47
0.0
 48
0.0
 49
2.5
140
0.25
141
2.5
142
0.125
143
0.03937007874
144
100.0
145
0.0
146
0.5
147
0.1
148
0.0
 69
0
 70
0
 71
0
 72
0
 73
0
 74
0
 75
0
 76
0
 77
1
 78
12
 79
3
170
0
171
3
172
1
173
0
174
0
175
0
176
0
177
0
178
0
179
2
271
2
272
2
273
2
274
3
275
0
276
0
277
2
278
46
279
2
280
0
281
0
282
0
283
0
284
8
285
0
286
0
288
1
289
3
290
0
340
4C
371
-2
372
-2
  0
DIMSTYLE
105
7D
330
4
100
AcDbSymbolTableRecord
100
AcDbDimStyleTableRecord
  2
EZ_M_50_H25_CM
 70
0
 40
1.0
 41
0.125
 42
0.0625
 43
3.75
 44
0.1875
 45
0.0
 46
0.0
 47
0.0
 48
0.0
 49
2.5
140
0.125
141
2.5
142
0.0625
143
0.03937007874
144
100.0
145
0.0
146
0.5
147
0.05
148
0.0
 69
0
 70
0
 71
0
 72
0
 73
0
 74
0
 75
0
 76
0
 77
1
 78
12
 79
3
170
0
171
3
172
1
173
0
174
0
175
0
176
0
177
0
178
0
179
2
271
2
272
2
273
2
274
3
275
0
276
0
277
2
278
46
279
2
280
0
281
0
282
0
283
0
284
8
285
0
286
0
288
1
289
3
290
0
340
4C
371
-2
372
-2
  0
DIMSTYLE
105
7E
330
4
100
AcDbSymbolTableRecord
100
AcDbDimStyleTableRecord
  2
EZ_M_25_H25_CM
 70
0
 40
1.0
 41
0.0625
 42
0.03125
 43
3.75
 44
0.09375
 45
0.0
 46
0.0
 47
0.0
 48
0.0
 49
2.5
140
0.0625
141
2.5
142
0.03125
143
0.03937007874
144
100.0
145
0.0
146
0.5
147
0.025
148
0.0
 69
0
 70
0
 71
0
 72
0
 73
0
 74
0
 75
0
 76
0
 77
1
 78
12
 79
3
170
0
171
3
172
1
173
0
174
0
175
0
176
0
177
0
178
0
179
2
271
2
272
2
273
2
274
3
275
0
276
0
277
2
278
46
279
2
280
0
281
0
282
0
283
0
284
8
285
0
286
0
288
1
289
3
290
0
340
4C
371
-2
372
-2
  0
DIMSTYLE
105
7F
330
4
100
AcDbSymbolTableRecord
100
AcDbDimStyleTableRecord
  2
EZ_M_20_H25_CM
 70
0
 40
1.0
 41
0.05
 42
0.025
 43
3.75
 44
0.07500000000000001
 45
0.0
 46
0.0
 47
0.0
 48
0.0
 49
2.5
140
0.05
141
2.5
142
0.025
143
0.03937007874
144
100.0
145
0.0
146
0.5
147
0.020000000000000004
148
0.0
 69
0
 70
0
 71
0
 72
0
 73
0
 74
0
 75
0
 76
0
 77
1
 78
12
 79
3
170
0
171
3
172
1
173
0
174
0
175
0
176
0
177
0
178
0
179
2
271
2
272
2
273
2
274
3
275
0
276
0
277
2
278
46
279
2
280
0
281
0
282
0
283
0
284
8
285
0
286
0
288
1
289
3
290
0
340
4C
371
-2
372
-2
  0
DIMSTYLE
105
80
330
4
100
AcDbSymbolTableRecord
100
AcDbDimStyleTableRecord
  2
EZ_M_10_H25_CM
 70
0
 40
1.0
 41
0.025
 42
0.0125
 43
3.75
 44
0.037500000000000006
 45
0.0
 46
0.0
 47
0.0
 48
0.0
 49
2.5
140
0.025
141
2.5
142
0.0125
143
0.03937007874
144
100.0
145
0.0
146
0.5
147
0.010000000000000002
148
0.0
 69
0
 70
0
 71
0
 72
0
 73
0
 74
0
 75
0
 76
0
 77
1
 78
12
 79
3
170
0
171
3
172
1
173
0
174
0
175
0
176
0
177
0
178
0
179
2
271
2
272
2
273
2
274
3
275
0
276
0
277
2
278
46
279
2
280
0
281
0
282
0
283
0
284
8
285
0
286
0
288
1
289
3
290
0
340
4C
371
-2
372
-2
  0
DIMSTYLE
105
81
330
4
100
AcDbSymbolTableRecord
100
AcDbDimStyleTableRecord
  2
EZ_M_5_H25_CM
 70
0
 40
1.0
 41
0.0125
 42
0.00625
 43
3.75
 44
0.018750000000000003
 45
0.0
 46
0.0
 47
0.0
 48
0.0
 49
2.5
140
0.0125
141
2.5
142
0.00625
143
0.03937007874
144
100.0
145
0.0
146
0.5
147
0.005000000000000001
148
0.0
 69
0
 70
0
 71
0
 72
0
 73
0
 74
0
 75
0
 76
0
 77
1
 78
12
 79
3
170
0
171
3
172
1
173
0
174
0
175
0
176
0
177
0
178
0
179
2
271
2
272
2
273
2
274
3
275
0
276
0
277
2
278
46
279
2
280
0
281
0
282
0
283
0
284
8
285
0
286
0
288
1
289
3
290
0
340
4C
371
-2
372
-2
  0
DIMSTYLE
105
82
330
4
100
AcDbSymbolTableRecord
100
AcDbDimStyleTableRecord
  2
EZ_M_1_H25_CM
 70
0
 40
1.0
 41
0.0025
 42
0.00125
 43
3.75
 44
0.00375
 45
0.0
 46
0.0
 47
0.0
 48
0.0
 49
2.5
140
0.0025
141
2.5
142
0.00125
143
0.03937007874
144
100.0
145
0.0
146
0.5
147
0.001
148
0.0
 69
0
 70
0
 71
0
 72
0
 73
0
 74
0
 75
0
 76
0
 77
1
 78
12
 79
3
170
0
171
3
172
1
173
0
174
0
175
0
176
0
177
0
178
0
179
2
271
2
272
2
273
2
274
3
275
0
276
0
277
2
278
46
279
2
280
0
281
0
282
0
283
0
284
8
285
0
286
0
288
1
289
3
290
0
340
4C
371
-2
372
-2
  0
DIMSTYLE
105
83
330
4
100
AcDbSymbolTableRecord
100
AcDbDimStyleTableRecord
  2
EZ_RADIUS
 70
0
 40
1.0
 41
0.25
 42
0.125
 43
3.75
 44
0.375
 45
0.0
 46
0.0
 47
0.0
 48
0.0
 49
2.5
140
0.25
141
0.0
142
0.0
143
0.03937007874
144
100.0
145
0.0
146
0.5
147
0.1
148
0.0
 69
0
 70
0
 71
0
 72
0
 73
0
 74
0
 75
0
 76
0
 77
1
 78
12
 79
3
170
0
171
3
172
0
173
0
174
0
175
0
176
0
177
0
178
0
179
2
271
2
272
2
273
2
274
3
275
0
276
0
277
2
278
46
279
1
280
0
281
0
282
0
283
0
284
8
285
0
286
0
288
1
289
3
290
0
340
4C
342
84
371
-2
372
-2
  0
DIMSTYLE
105
88
330
4
100
AcDbSymbolTableRecord
100
AcDbDimStyleTableRecord
  2
EZ_RADIUS_INSIDE
 70
0
 40
1.0
 41
0.25
 42
0.125
 43
3.75
 44
0.375
 45
0.0
 46
0.0
 47
0.0
 48
0.0
 49
2.5
140
0.25
141
0.0
142
0.0
143
0.03937007874
144
100.0
145
0.0
146
0.5
147
0.1
148
0.0
 69
0
 70
0
 71
0
 72
0
 73
0
 74
0
 75
0
 76
0
 77
0
 78
12
 79
3
170
0
171
3
172
0
173
0
174
1
175
0
176
0
177
0
178
0
179
2
271
2
272
2
273
2
274
3
275
0
276
0
277
2
278
46
279
0
280
0
281
0
282
0
283
0
284
8
285
0
286
0
288
1
289
0
290
0
340
4C
342
84
371
-2
372
-2
  0
DIMSTYLE
105
89
330
4
100
AcDbSymbolTableRecord
100
AcDbDimStyleTableRecord
  2
EZ_CURVED
 70
0
 40
1.0
 41
0.25
 42
0.125
 43
3.75
 44
0.375
 45
0.0
 46
0.0
 47
0.0
 48
0.0
 49
2.5
140
0.25
141
2.5
142
0.0
143
0.03937007874
144
100.0
145
0.0
146
0.5
147
0.1
148
0.0
 69
0
 70
0
 71
0
 72
0
 73
0
 74
0
 75
0
 76
0
 77
1
 78
12
 79
2
 90
2
170
0
171
3
172
1
173
0
174
0
175
0
176
0
177
0
178
0
179
2
271
2
272
2
273
2
274
3
275
0
276
0
277
2
278
46
279
2
280
0
281
0
282
0
283
0
284
8
285
0
286
0
288
1
289
3
290
0
340
4C
371
-2
372
-2
  0
ENDTAB
  0
TABLE
  2
BLOCK_RECORD
  5
9
330
0
100
AcDbSymbolTable
 70
5
  0
BLOCK_RECORD
  5
17
330
9
100
AcDbSymbolTableRecord
100
AcDbBlockTableRecord
  2
*Model_Space
340
1A
 70
0
280
1
281
0
  0
BLOCK_RECORD
  5
1B
330
9
100
AcDbSymbolTableRecord
100
AcDbBlockTableRecord
  2
*Paper_Space
340
1E
 70
0
280
1
281
0
  0
BLOCK_RECORD
  5
74
330
9
100
AcDbSymbolTableRecord
100
AcDbBlockTableRecord
  2
_ARCHTICK
340
0
 70
0
280
1
281
0
  0
BLOCK_RECORD
  5
78
330
9
100
AcDbSymbolTableRecord
100
AcDbBlockTableRecord
  2
_CLOSEDFILLED
340
0
 70
0
280
1
281
0
  0
BLOCK_RECORD
  5
84
330
9
100
AcDbSymbolTableRecord
100
AcDbBlockTableRecord
  2
_CLOSEDBLANK
340
0
 70
0
280
1
281
0
  0
ENDTAB
  0
ENDSEC
  0
SECTION
  2
BLOCKS
  0
BLOCK
  5
18
330
17
100
AcDbEntity
  8
0
100
AcDbBlockBegin
  2
*Model_Space
 70
0
 10
0.0
 20
0.0
 30
0.0
  3
*Model_Space
  1

  0
ENDBLK
  5
19
330
17
100
AcDbEntity
  8
0
100
AcDbBlockEnd
  0
BLOCK
  5
1C
330
1B
100
AcDbEntity
  8
0
100
AcDbBlockBegin
  2
*Paper_Space
 70
0
 10
0.0
 20
0.0
 30
0.0
  3
*Paper_Space
  1

  0
ENDBLK
  5
1D
330
1B
100
AcDbEntity
  8
0
100
AcDbBlockEnd
  0
BLOCK
  5
75
330
74
100
AcDbEntity
  8
0
100
AcDbBlockBegin
  2
_ARCHTICK
 70
0
 10
0.0
 20
0.0
 30
0.0
  3
_ARCHTICK
  1

  0
LWPOLYLINE
  5
77
330
74
100
AcDbEntity
  8
0
  6
BYBLOCK
 62
0
100
AcDbPolyline
 90
2
 70
0
 43
0.15
 10
-0.5
 20
-0.5
 10
0.5
 20
0.5
  0
ENDBLK
  5
76
330
74
100
AcDbEntity
  8
0
100
AcDbBlockEnd
  0
BLOCK
  5
79
330
78
100
AcDbEntity
  8
0
100
AcDbBlockBegin
  2
_CLOSEDFILLED
 70
0
 10
0.0
 20
0.0
 30
0.0
  3
_CLOSEDFILLED
  1

  0
SOLID
  5
7B
330
78
100
AcDbEntity
  8
0
  6
BYBLOCK
 62
0
100
AcDbTrace
 10
-1.0
 20
0.16439898372402537
 30
0.0
 11
0.0
 21
0.0
 31
0.0
 12
-1.0
 22
-0.16439898372402537
 32
0.0
 13
-1.0
 23
-0.16439898372402537
 33
0.0
  0
ENDBLK
  5
7A
330
78
100
AcDbEntity
  8
0
100
AcDbBlockEnd
  0
BLOCK
  5
85
330
84
100
AcDbEntity
  8
0
100
AcDbBlockBegin
  2
_CLOSEDBLANK
 70
0
 10
0.0
 20
0.0
 30
0.0
  3
_CLOSEDBLANK
  1

  0
LWPOLYLINE
  5
87
330
84
100
AcDbEntity
  8
0
  6
BYBLOCK
 62
0
100
AcDbPolyline
 90
3
 70
1
 10
-1.0
 20
0.16439898372402537
 10
0.0
 20
0.0
 10
-1.0
 20
-0.16439898372402537
  0
ENDBLK
  5
86
330
84
100
AcDbEntity
  8
0
100
AcDbBlockEnd
  0
ENDSEC
  0
SECTION
  2
ENTITIES
  0
LWPOLYLINE
  5
8C
330
17
100
AcDbEntity
  8
CUT
100
AcDbPolyline
 90
180
 70
1
 10
941.4000000000001
 20
424.2000000000001
 10
941.312532758463
 20
440.634151776386
 10
940.949341336987
 20
457.08303725823123
 10
940.2194341412996
 20
473.5484810677945
 10
939.0571319831381
 20
490.02330226772847
 10
937.4077923075661
 20
506.4931758907066
 10
935.2237775935464
 20
522.9375769792543
 10
932.4629294126796
 20
539.3304289774801
 10
929.0880562340208
 20
555.6406600120545
 10
925.0669203147959
 20
571.8327617269647
 10
920.3724884668405
 20
587.8674009703423
 10
914.9833137480155
 20
603.7021104551476
 10
908.8839587841364
 20
619.292067892751
 10
902.0653930400005
 20
634.5909597651297
 10
894.5253096176649
 20
649.551914500559
 10
886.2683178813256
 20
664.1284801954633
 10
877.3059789466588
 20
678.2756145468563
 10
867.6566627615358
 20
691.950649850003
 10
857.3452181320262
 20
705.1141942228265
 10
846.4024600124999
 20
717.730931850981
 10
834.864490753534
 20
729.7702898791524
 10
822.7718827599922
 20
741.2069471206519
 10
810.1687582351174
 20
752.0211692253494
 10
797.1018067271104
 20
762.1989653419334
 10
783.6192827777286
 20
771.7320715843206
 10
769.7700242232261
 20
780.617775805267
 10
755.6025270971404
 20
788.8586055486469
 10
741.1641063685104
 20
796.4619061420102
 10
726.500163781855
 20
803.4393385621447
 10
711.6535757082373
 20
809.8063271017991
 10
696.6642059217322
 20
815.5814853483962
 10
681.5685411532379
 20
820.7860460558667
 10
666.3994415015515
 20
825.4433167055536
 10
651.1859934484115
 20
829.5781784597677
 10
635.953450297145
 20
833.2166423121469
 10
620.723243160503
 20
836.3854729768319
 10
605.5130448893805
 20
839.1118888525145
 10
590.3368692173949
 20
841.4233457246489
 10
575.2051874904995
 20
843.347413442484
 10
560.125045152037
 20
844.9117599637436
 10
545.1001589434004
 20
846.1442687923743
 10
530.1309723096626
 20
847.0733409440279
 10
515.2146380957685
 20
847.728490390962
 10
500.3448772468787
 20
848.1414957288049
 10
485.5116059493432
 20
848.3488994921299
 10
470.70000000000005
 20
848.4000000000002
 10
455.8883940506569
 20
848.3488994921299
 10
441.0551227531214
 20
848.1414957288049
 10
426.18536190423157
 20
847.728490390962
 10
411.26902769033745
 20
847.0733409440279
 10
396.29984105659975
 20
846.1442687923743
 10
381.27495484796304
 20
844.9117599637436
 10
366.1948125095006
 20
843.3474134424839
 10
351.0631307826052
 20
841.4233457246489
 10
335.8869551106197
 20
839.1118888525147
 10
320.6767568394972
 20
836.3854729768318
 10
305.4465497028551
 20
833.2166423121469
 10
290.2140065515885
 20
829.5781784597677
 10
275.00055849844864
 20
825.4433167055536
 10
259.83145884676213
 20
820.7860460558667
 10
244.73579407826804
 20
815.5814853483963
 10
229.74642429176285
 20
809.8063271017991
 10
214.89983621814508
 20
803.4393385621447
 10
200.23589363148966
 20
796.4619061420103
 10
185.79747290285962
 20
788.8586055486469
 10
171.62997577677407
 20
780.617775805267
 10
157.78071722227145
 20
771.7320715843206
 10
144.29819327288965
 20
762.1989653419334
 10
131.2312417648826
 20
752.0211692253494
 10
118.62811724000801
 20
741.2069471206521
 10
106.53550924646618
 20
729.7702898791524
 10
94.99753998750026
 20
717.730931850981
 10
84.05478186797399
 20
705.1141942228267
 10
73.74333723846428
 20
691.950649850003
 10
64.0940210533413
 20
678.2756145468563
 10
55.13168211867452
 20
664.1284801954633
 10
46.87469038233519
 20
649.551914500559
 10
39.334606959999576
 20
634.5909597651297
 10
32.51604121586371
 20
619.2920678927511
 10
26.416686251984686
 20
603.7021104551477
 10
21.02751153315961
 20
587.8674009703423
 10
16.33307968520421
 20
571.8327617269648
 10
12.311943765979322
 20
555.6406600120545
 10
8.93707058732042
 20
539.3304289774801
 10
6.176222406453576
 20
522.9375769792543
 10
3.992207692433965
 20
506.49317589070654
 10
2.342868016861985
 20
490.02330226772835
 10
1.180565858700561
 20
473.5484810677947
 10
0.4506586630130869
 20
457.08303725823134
 10
0.0874672415370128
 20
440.63415177638603
 10
0.0
 20
424.20000000000016
 10
0.0874672415370128
 20
407.7658482236143
 10
0.4506586630130869
 20
391.316962741769
 10
1.1805658587005041
 20
374.85151893220564
 10
2.3428680168620417
 20
358.37669773227174
 10
3.992207692433965
 20
341.90682410929355
 10
6.176222406453576
 20
325.4624230207457
 10
8.937070587320363
 20
309.06957102252017
 10
12.311943765979322
 20
292.7593399879458
 10
16.33307968520421
 20
276.5672382730355
 10
21.027511533159554
 20
260.53259902965806
 10
26.41668625198463
 20
244.69788954485261
 10
32.51604121586365
 20
229.10793210724924
 10
39.33460695999963
 20
213.80904023487045
 10
46.87469038233519
 20
198.8480854994412
 10
55.131682118674576
 20
184.2715198045368
 10
64.0940210533413
 20
170.1243854531439
 10
73.74333723846416
 20
156.44935014999731
 10
84.05478186797387
 20
143.28580577717366
 10
94.9975399875002
 20
130.66906814901927
 10
106.53550924646612
 20
118.62971012084785
 10
118.62811724000795
 20
107.19305287934827
 10
131.23124176488272
 20
96.3788307746508
 10
144.2981932728897
 20
86.20103465806665
 10
157.7807172222715
 20
76.66792841567957
 10
171.62997577677402
 20
67.7822241947332
 10
185.79747290285968
 20
59.541394451353256
 10
200.23589363148955
 20
51.93809385799
 10
214.89983621814514
 20
44.960661437855435
 10
229.74642429176274
 20
38.593672898201135
 10
244.73579407826767
 20
32.81851465160395
 10
259.8314588467622
 20
27.613953944133527
 10
275.0005584984485
 20
22.956683294446634
 10
290.2140065515886
 20
18.821821540232463
 10
305.44654970285495
 20
15.183357687853345
 10
320.6767568394972
 20
12.014527023168284
 10
335.8869551106196
 20
9.288111147485608
 10
351.0631307826053
 20
6.976654275351223
 10
366.1948125095006
 20
5.052586557516236
 10
381.2749548479629
 20
3.4882400362566273
 10
396.2998410565997
 20
2.2557312076258995
 10
411.2690276903372
 20
1.3266590559721863
 10
426.1853619042317
 20
0.6715096090384236
 10
441.0551227531213
 20
0.2585042711953065
 10
455.888394050657
 20
0.05110050787027376
 10
470.7
 20
0.0
 10
485.51160594934333
 20
0.05110050787027376
 10
500.34487724687864
 20
0.2585042711953065
 10
515.2146380957682
 20
0.6715096090384236
 10
530.1309723096626
 20
1.326659055972243
 10
545.1001589434002
 20
2.2557312076259564
 10
560.125045152037
 20
3.4882400362566273
 10
575.2051874904994
 20
5.052586557516122
 10
590.3368692173951
 20
6.976654275351223
 10
605.5130448893804
 20
9.288111147485552
 10
620.7232431605031
 20
12.014527023168284
 10
635.953450297145
 20
15.183357687853345
 10
651.1859934484113
 20
18.821821540232463
 10
666.3994415015513
 20
22.956683294446577
 10
681.5685411532377
 20
27.61395394413347
 10
696.6642059217322
 20
32.81851465160395
 10
711.6535757082372
 20
38.59367289820102
 10
726.5001637818552
 20
44.96066143785555
 10
741.1641063685104
 20
51.93809385798994
 10
755.6025270971406
 20
59.54139445135337
 10
769.770024223226
 20
67.78222419473315
 10
783.6192827777284
 20
76.66792841567951
 10
797.1018067271104
 20
86.20103465806665
 10
810.1687582351173
 20
96.37883077465068
 10
822.7718827599922
 20
107.19305287934833
 10
834.8644907535338
 20
118.62971012084768
 10
846.4024600124999
 20
130.66906814901927
 10
857.345218132026
 20
143.28580577717355
 10
867.6566627615359
 20
156.44935014999737
 10
877.3059789466588
 20
170.1243854531438
 10
886.2683178813254
 20
184.27151980453667
 10
894.5253096176649
 20
198.84808549944123
 10
902.0653930400003
 20
213.80904023487028
 10
908.8839587841364
 20
229.10793210724927
 10
914.9833137480155
 20
244.69788954485244
 10
920.3724884668405
 20
260.53259902965806
 10
925.0669203147959
 20
276.5672382730354
 10
929.0880562340208
 20
292.7593399879458
 10
932.4629294126796
 20
309.06957102252
 10
935.2237775935464
 20
325.4624230207455
 10
937.4077923075661
 20
341.9068241092936
 10
939.057131983138
 20
358.37669773227157
 10
940.2194341412996
 20
374.8515189322057
 10
940.949341336987
 20
391.3169627417688
 10
941.312532758463
 20
407.7658482236143
  0
LWPOLYLINE
  5
8D
330
17
100
AcDbEntity
  8
CUT
100
AcDbPolyline
 90
180
 70
1
 10
806.883753057697
 20
412.46020465260165
 10
806.7395602931864
 20
400.7018248617984
 10
806.3810791071994
 20
388.91849688728087
 10
805.7457567359731
 20
377.1123896848319
 10
804.7813224863103
 20
365.292449094898
 10
803.4419735782827
 20
353.4735101729028
 10
801.6869321288502
 20
341.67568924512244
 10
799.4799615735506
 20
329.9238630888264
 10
796.7893555346748
 20
318.2471456548893
 10
793.5881765699039
 20
306.6783147320653
 10
789.8546189967701
 20
295.2531638288775
 10
785.5724112972408
 20
284.0097702782009
 10
780.7311940575484
 20
272.987683186147
 10
775.3268219448614
 20
262.22704563485536
 10
769.3615483669425
 20
251.7676746537552
 10
762.8440616219082
 20
241.6481295501597
 10
755.7893524055776
 20
231.90480374134626
 10
748.2184044918356
 20
222.57107683248753
 10
740.1577126690723
 20
213.67656214027696
 10
731.6386437251372
 20
205.2464802903377
 10
722.6966664532943
 20
197.3011823758802
 10
713.3704844328099
 20
189.85583720624066
 10
703.7011101072537
 20
182.92028733708463
 10
693.7309201813538
 20
176.4990688527176
 10
683.502730701904
 20
170.59158117214776
 10
673.058925834584
 20
165.19238617844474
 10
662.440667993536
 20
160.2916111546313
 10
651.6872094414819
 20
155.87542748201872
 10
640.8353175702869
 20
151.92657668290536
 10
629.9188185065852
 20
148.42491682550667
 10
618.9682570042387
 20
145.34796508135645
 10
608.0106651235853
 20
142.6714158073048
 10
597.0694280970479
 20
140.3696173967857
 10
586.1642330108621
 20
138.4159948350196
 10
575.3110843295925
 20
136.78340797978183
 10
564.5223695955686
 20
135.44443767694645
 10
553.8069585248295
 20
134.37159245682295
 10
543.1703188102077
 20
133.53742706875448
 10
532.6146317540314
 20
132.91455923271377
 10
522.1388897076511
 20
132.47555997967805
 10
511.73895401076186
 20
132.19266919350758
 10
501.4075441714472
 20
132.0372332587118
 10
491.1341097511154
 20
131.9786161962764
 10
480.9044831669711
 20
131.981835409371
 10
470.7
 20
132.00000000000006
 10
460.49551683302917
 20
131.981835409371
 10
450.2658902488846
 20
131.9786161962764
 10
439.99245582855275
 20
132.0372332587118
 10
429.6610459892381
 20
132.19266919350758
 10
419.261110292349
 20
132.47555997967794
 10
408.78536824596864
 20
132.91455923271377
 10
398.22968118979225
 20
133.5374270687546
 10
387.5930414751708
 20
134.371592456823
 10
376.8776304044314
 20
135.4444376769465
 10
366.08891567040774
 20
136.78340797978183
 10
355.2357669891379
 20
138.41599483501955
 10
344.33057190295216
 20
140.36961739678577
 10
333.3893348764146
 20
142.67141580730475
 10
322.4317429957613
 20
145.34796508135656
 10
311.4811814934146
 20
148.42491682550667
 10
300.5646824297131
 20
151.92657668290548
 10
289.71279055851835
 20
155.8754274820186
 10
278.959332006464
 20
160.29161115463137
 10
268.3410741654163
 20
165.19238617844462
 10
257.8972692980959
 20
170.59158117214778
 10
247.66907981864622
 20
176.4990688527177
 10
237.69888989274637
 20
182.92028733708463
 10
228.02951556719015
 20
189.85583720624072
 10
218.70333354670578
 20
197.30118237588013
 10
209.7613562748628
 20
205.24648029033781
 10
201.24228733092775
 20
213.67656214027696
 10
193.18159550816443
 20
222.57107683248762
 10
185.61064759442257
 20
231.90480374134626
 10
178.55593837809187
 20
241.64812955015975
 10
172.03845163305743
 20
251.7676746537553
 10
166.07317805513873
 20
262.22704563485536
 10
160.66880594245174
 20
272.98768318614714
 10
155.82758870275927
 20
284.0097702782009
 10
151.54538100322986
 20
295.25316382887763
 10
147.81182343009613
 20
306.6783147320653
 10
144.61064446532532
 20
318.24714565488944
 10
141.92003842644954
 20
329.92386308882635
 10
139.71306787114986
 20
341.67568924512256
 10
137.9580264217173
 20
353.47351017290293
 10
136.61867751368993
 20
365.29244909489796
 10
135.65424326402695
 20
377.112389684832
 10
135.01892089280068
 20
388.91849688728087
 10
134.6604397068137
 20
400.7018248617985
 10
134.51624694230304
 20
412.46020465260165
 10
134.50000000000006
 20
424.20000000000016
 10
134.51624694230304
 20
435.9397953473986
 10
134.6604397068137
 20
447.69817513820175
 10
135.01892089280074
 20
459.4815031127194
 10
135.6542432640269
 20
471.28761031516814
 10
136.61867751368987
 20
483.10755090510213
 10
137.9580264217173
 20
494.9264898270972
 10
139.71306787114992
 20
506.7243107548777
 10
141.92003842644954
 20
518.4761369111739
 10
144.61064446532527
 20
530.1528543451109
 10
147.81182343009618
 20
541.721685267935
 10
151.54538100322992
 20
553.1468361711227
 10
155.82758870275933
 20
564.3902297217994
 10
160.66880594245168
 20
575.4123168138531
 10
166.07317805513873
 20
586.1729543651447
 10
172.03845163305738
 20
596.6323253462449
 10
178.5559383780918
 20
606.7518704498405
 10
185.61064759442263
 20
616.495196258654
 10
193.1815955081645
 20
625.8289231675127
 10
201.24228733092775
 20
634.7234378597234
 10
209.76135627486292
 20
643.1535197096624
 10
218.70333354670584
 20
651.0988176241201
 10
228.02951556719006
 20
658.5441627937594
 10
237.69888989274634
 20
665.4797126629155
 10
247.66907981864617
 20
671.9009311472826
 10
257.897269298096
 20
677.8084188278524
 10
268.3410741654162
 20
683.2076138215555
 10
278.959332006464
 20
688.1083888453688
 10
289.7127905585183
 20
692.5245725179816
 10
300.5646824297132
 20
696.4734233170948
 10
311.48118149341485
 20
699.9750831744935
 10
322.43174299576117
 20
703.0520349186437
 10
333.38933487641464
 20
705.7285841926954
 10
344.3305719029521
 20
708.0303826032144
 10
355.235766989138
 20
709.9840051649805
 10
366.08891567040774
 20
711.6165920202184
 10
376.87763040443144
 20
712.9555623230538
 10
387.59304147517076
 20
714.0284075431771
 10
398.22968118979225
 20
714.8625729312456
 10
408.7853682459688
 20
715.4854407672864
 10
419.261110292349
 20
715.9244400203222
 10
429.6610459892383
 20
716.2073308064926
 10
439.9924558285527
 20
716.3627667412884
 10
450.26589024888466
 20
716.4213838037238
 10
460.4955168330291
 20
716.4181645906292
 10
470.70000000000005
 20
716.4000000000001
 10
480.90448316697103
 20
716.4181645906292
 10
491.1341097511154
 20
716.4213838037238
 10
501.4075441714474
 20
716.3627667412884
 10
511.73895401076186
 20
716.2073308064926
 10
522.1388897076512
 20
715.9244400203222
 10
532.6146317540314
 20
715.4854407672865
 10
543.1703188102078
 20
714.8625729312457
 10
553.8069585248294
 20
714.0284075431771
 10
564.5223695955686
 20
712.9555623230538
 10
575.3110843295924
 20
711.6165920202184
 10
586.1642330108621
 20
709.9840051649805
 10
597.069428097048
 20
708.0303826032144
 10
608.0106651235853
 20
705.7285841926954
 10
618.9682570042389
 20
703.0520349186437
 10
629.9188185065852
 20
699.9750831744935
 10
640.835317570287
 20
696.4734233170948
 10
651.6872094414819
 20
692.5245725179816
 10
662.4406679935361
 20
688.1083888453688
 10
673.0589258345839
 20
683.2076138215555
 10
683.502730701904
 20
677.8084188278524
 10
693.7309201813539
 20
671.9009311472826
 10
703.7011101072537
 20
665.4797126629155
 10
713.3704844328099
 20
658.5441627937594
 10
722.6966664532943
 20
651.0988176241201
 10
731.6386437251373
 20
643.1535197096624
 10
740.1577126690723
 20
634.7234378597234
 10
748.2184044918356
 20
625.8289231675126
 10
755.7893524055775
 20
616.495196258654
 10
762.8440616219083
 20
606.7518704498405
 10
769.3615483669428
 20
596.6323253462449
 10
775.3268219448614
 20
586.1729543651447
 10
780.7311940575484
 20
575.4123168138531
 10
785.5724112972408
 20
564.3902297217993
 10
789.8546189967702
 20
553.1468361711226
 10
793.5881765699039
 20
541.721685267935
 10
796.7893555346748
 20
530.1528543451108
 10
799.4799615735506
 20
518.4761369111739
 10
801.6869321288502
 20
506.7243107548777
 10
803.4419735782827
 20
494.9264898270972
 10
804.7813224863103
 20
483.1075509051022
 10
805.7457567359731
 20
471.28761031516814
 10
806.3810791071994
 20
459.48150311271934
 10
806.7395602931864
 20
447.6981751382017
 10
806.883753057697
 20
435.93979534739856
 10
806.9000000000001
 20
424.2000000000001
  0
LWPOLYLINE
  5
8E
330
17
100
AcDbEntity
  8
CUT
100
AcDbPolyline
 90
8
 70
1
 10
838.3930776469966
 20
476.0583320218615
 42
2.414213562373095
 10
842.0542706250299
 20
473.3983196200858
 10
876.2282872096216
 20
478.8109521104778
 42
2.414213562373095
 10
878.8882996113973
 20
482.47214508851096
 10
876.9172253518904
 20
494.9170181800097
 42
2.414213562373095
 10
873.2560323738571
 20
497.5770305817854
 10
839.0820157892654
 20
492.1643980913934
 42
2.414213562373095
 10
836.4220033874897
 20
488.5032051133602
  0
LWPOLYLINE
  5
8F
330
17
100
AcDbEntity
  8
CUT
100
AcDbPolyline
 90
8
 70
1
 10
809.9172648876076
 20
589.9691740710325
 42
2.414213562373095
 10
814.2212553641768
 20
588.5707227927963
 10
845.0500811010945
 20
604.2787940837846
 42
2.414213562373095
 10
846.4485323793307
 20
608.582784560354
 10
840.7282520826124
 20
619.8094667651275
 42
2.414213562373095
 10
836.424261606043
 20
621.2079180433636
 10
805.5954358691256
 20
605.4998467523753
 42
2.414213562373095
 10
804.1969845908893
 20
601.195856275806
  0
LWPOLYLINE
  5
90
330
17
100
AcDbEntity
  8
CUT
100
AcDbPolyline
 90
8
 70
1
 10
736.0118118250754
 20
680.6022663821249
 42
2.414213562373095
 10
740.5372952246693
 20
680.6022663821249
 10
765.0031898537238
 20
705.0681610111794
 42
2.414213562373095
 10
765.0031898537238
 20
709.5936444107733
 10
756.0936444107733
 20
718.5031898537238
 42
2.414213562373095
 10
751.5681610111794
 20
718.5031898537238
 10
727.1022663821249
 20
694.0372952246693
 42
2.414213562373095
 10
727.1022663821249
 20
689.5118118250754
  0
LWPOLYLINE
  5
91
330
17
100
AcDbEntity
  8
CUT
100
AcDbPolyline
 90
8
 70
1
 10
633.8568241876467
 20
730.536354828645
 42
2.414213562373095
 10
638.160814664216
 20
731.9348061068813
 10
653.8688859552043
 20
762.7636318437987
 42
2.414213562373095
 10
652.4704346769681
 20
767.0676223203681
 10
641.2437524721946
 20
772.7879026170864
 42
2.414213562373095
 10
636.9397619956253
 20
771.3894513388502
 10
621.231690704637
 20
740.5606256019325
 42
2.414213562373095
 10
622.6301419828732
 20
736.2566351253633
  0
LWPOLYLINE
  5
92
330
17
100
AcDbEntity
  8
CUT
100
AcDbPolyline
 90
8
 70
1
 10
528.2363833517809
 20
747.1979722407821
 42
2.414213562373095
 10
531.897576329814
 20
749.8579846425578
 10
537.3102088202061
 20
784.0320012271495
 42
2.414213562373095
 10
534.6501964184304
 20
787.6931942051826
 10
522.2053233269315
 20
789.6642684646897
 42
2.414213562373095
 10
518.5441303488984
 20
787.0042560629139
 10
513.1314978585065
 20
752.8302394783221
 42
2.414213562373095
 10
515.7915102602822
 20
749.1690465002889
  0
LWPOLYLINE
  5
93
330
17
100
AcDbEntity
  8
CUT
100
AcDbPolyline
 90
8
 70
1
 10
425.60848973971804
 20
749.1690465002889
 42
2.414213562373095
 10
428.26850214149374
 20
752.8302394783221
 10
422.8558696511017
 20
787.0042560629139
 42
2.414213562373095
 10
419.19467667306856
 20
789.6642684646897
 10
406.74980358156984
 20
787.6931942051826
 42
2.414213562373095
 10
404.08979117979413
 20
784.0320012271495
 10
409.5024236701861
 20
749.8579846425578
 42
2.414213562373095
 10
413.1636166482193
 20
747.1979722407821
  0
LWPOLYLINE
  5
94
330
17
100
AcDbEntity
  8
CUT
100
AcDbPolyline
 90
8
 70
1
 10
318.7698580171269
 20
736.2566351253633
 42
2.414213562373095
 10
320.1683092953631
 20
740.5606256019325
 10
304.4602380043748
 20
771.3894513388502
 42
2.414213562373095
 10
300.1562475278055
 20
772.7879026170864
 10
288.9295653230321
 20
767.0676223203681
 42
2.414213562373095
 10
287.5311140447958
 20
762.7636318437987
 10
303.2391853357841
 20
731.9348061068813
 42
2.414213562373095
 10
307.5431758123534
 20
730.536354828645
  0
LWPOLYLINE
  5
95
330
17
100
AcDbEntity
  8
CUT
100
AcDbPolyline
 90
8
 70
1
 10
214.29773361787528
 20
689.5118118250755
 42
2.414213562373095
 10
214.29773361787528
 20
694.0372952246694
 10
189.83183898882072
 20
718.5031898537238
 42
2.414213562373095
 10
185.30635558922683
 20
718.5031898537238
 10
176.39681014627632
 20
709.5936444107733
 42
2.414213562373095
 10
176.39681014627632
 20
705.0681610111794
 10
200.86270477533088
 20
680.602266382125
 42
2.414213562373095
 10
205.38818817492478
 20
680.602266382125
  0
LWPOLYLINE
  5
96
330
17
100
AcDbEntity
  8
CUT
100
AcDbPolyline
 90
8
 70
1
 10
137.20301540911083
 20
601.195856275806
 42
2.414213562373095
 10
135.8045641308746
 20
605.4998467523753
 10
104.97573839395704
 20
621.2079180433636
 42
2.414213562373095
 10
100.67174791738779
 20
619.8094667651275
 10
94.95146762066946
 20
608.582784560354
 42
2.414213562373095
 10
96.34991889890568
 20
604.2787940837846
 10
127.17874463582325
 20
588.5707227927963
 42
2.414213562373095
 10
131.4827351123925
 20
589.9691740710325
  0
LWPOLYLINE
  5
97
330
17
100
AcDbEntity
  8
CUT
100
AcDbPolyline
 90
8
 70
1
 10
104.97799661251037
 20
488.5032051133603
 42
2.414213562373095
 10
102.31798421073461
 20
492.1643980913935
 10
68.14396762614285
 20
497.5770305817855
 42
2.414213562373095
 10
64.48277464810968
 20
494.9170181800098
 10
62.51170038860272
 20
482.472145088511
 42
2.414213562373095
 10
65.17171279037848
 20
478.81095211047784
 10
99.34572937497023
 20
473.3983196200859
 42
2.414213562373095
 10
103.0069223530034
 20
476.0583320218616
  0
LWPOLYLINE
  5
98
330
17
100
AcDbEntity
  8
CUT
100
AcDbPolyline
 90
8
 70
1
 10
103.00692235300346
 20
372.34166797813873
 42
2.414213562373095
 10
99.34572937497029
 20
375.00168037991443
 10
65.17171279037854
 20
369.5890478895225
 42
2.414213562373095
 10
62.511700388602776
 20
365.9278549114893
 10
64.48277464810974
 20
353.4829818199905
 42
2.414213562373095
 10
68.14396762614291
 20
350.8229694182148
 10
102.31798421073466
 20
356.23560190860684
 42
2.414213562373095
 10
104.97799661251042
 20
359.89679488664
  0
LWPOLYLINE
  5
99
330
17
100
AcDbEntity
  8
CUT
100
AcDbPolyline
 90
8
 70
1
 10
131.48273511239245
 20
258.4308259289677
 42
2.414213562373095
 10
127.1787446358232
 20
259.82927720720386
 10
96.34991889890563
 20
244.1212059162156
 42
2.414213562373095
 10
94.9514676206694
 20
239.81721543964628
 10
100.67174791738773
 20
228.59053323487282
 42
2.414213562373095
 10
104.97573839395699
 20
227.1920819566366
 10
135.80456413087455
 20
242.9001532476249
 42
2.414213562373095
 10
137.20301540911078
 20
247.2041437241942
  0
LWPOLYLINE
  5
9A
330
17
100
AcDbEntity
  8
CUT
100
AcDbPolyline
 90
8
 70
1
 10
205.38818817492472
 20
167.7977336178754
 42
2.414213562373095
 10
200.86270477533083
 20
167.7977336178754
 10
176.39681014627627
 20
143.33183898882083
 42
2.414213562373095
 10
176.39681014627627
 20
138.80635558922694
 10
185.30635558922677
 20
129.89681014627644
 42
2.414213562373095
 10
189.83183898882066
 20
129.89681014627644
 10
214.29773361787522
 20
154.362704775331
 42
2.414213562373095
 10
214.29773361787522
 20
158.8881881749249
  0
LWPOLYLINE
  5
9B
330
17
100
AcDbEntity
  8
CUT
100
AcDbPolyline
 90
8
 70
1
 10
307.5431758123534
 20
117.86364517135519
 42
2.414213562373095
 10
303.23918533578404
 20
116.46519389311896
 10
287.53111404479574
 20
85.6363681562014
 42
2.414213562373095
 10
288.92956532303197
 20
81.33237767963215
 10
300.15624752780536
 20
75.61209738291382
 42
2.414213562373095
 10
304.46023800437473
 20
77.01054866115004
 10
320.16830929536303
 20
107.8393743980676
 42
2.414213562373095
 10
318.7698580171268
 20
112.14336487463686
  0
LWPOLYLINE
  5
9C
330
17
100
AcDbEntity
  8
CUT
100
AcDbPolyline
 90
8
 70
1
 10
413.1636166482192
 20
101.20202775921814
 42
2.414213562373095
 10
409.50242367018603
 20
98.54201535744238
 10
404.089791179794
 20
64.36799877285063
 42
2.414213562373095
 10
406.7498035815697
 20
60.706805794817456
 10
419.19467667306844
 20
58.73573153531049
 42
2.414213562373095
 10
422.85586965110167
 20
61.39574393708625
 10
428.2685021414936
 20
95.569760521678
 42
2.414213562373095
 10
425.6084897397179
 20
99.23095349971118
  0
LWPOLYLINE
  5
9D
330
17
100
AcDbEntity
  8
CUT
100
AcDbPolyline
 90
8
 70
1
 10
515.791510260282
 20
99.23095349971123
 42
2.414213562373095
 10
513.1314978585063
 20
95.56976052167806
 10
518.5441303488983
 20
61.39574393708631
 42
2.414213562373095
 10
522.2053233269314
 20
58.73573153531055
 10
534.6501964184303
 20
60.70680579481751
 42
2.414213562373095
 10
537.310208820206
 20
64.36799877285068
 10
531.8975763298139
 20
98.54201535744244
 42
2.414213562373095
 10
528.2363833517808
 20
101.2020277592182
  0
LWPOLYLINE
  5
9E
330
17
100
AcDbEntity
  8
CUT
100
AcDbPolyline
 90
8
 70
1
 10
622.6301419828732
 20
112.14336487463686
 42
2.414213562373095
 10
621.2316907046369
 20
107.8393743980676
 10
636.9397619956252
 20
77.01054866115004
 42
2.414213562373095
 10
641.2437524721945
 20
75.61209738291382
 10
652.470434676968
 20
81.33237767963215
 42
2.414213562373095
 10
653.8688859552042
 20
85.6363681562014
 10
638.1608146642159
 20
116.46519389311896
 42
2.414213562373095
 10
633.8568241876466
 20
117.86364517135519
  0
LWPOLYLINE
  5
9F
330
17
100
AcDbEntity
  8
CUT
100
AcDbPolyline
 90
8
 70
1
 10
727.1022663821248
 20
158.88818817492478
 42
2.414213562373095
 10
727.1022663821248
 20
154.36270477533088
 10
751.5681610111793
 20
129.89681014627632
 42
2.414213562373095
 10
756.0936444107732
 20
129.89681014627632
 10
765.0031898537237
 20
138.80635558922683
 42
2.414213562373095
 10
765.0031898537237
 20
143.33183898882072
 10
740.5372952246692
 20
167.79773361787528
 42
2.414213562373095
 10
736.0118118250753
 20
167.79773361787528
  0
LWPOLYLINE
  5
A0
330
17
100
AcDbEntity
  8
CUT
100
AcDbPolyline
 90
8
 70
1
 10
804.1969845908893
 20
247.20414372419413
 42
2.414213562373095
 10
805.5954358691255
 20
242.9001532476248
 10
836.424261606043
 20
227.19208195663649
 42
2.414213562373095
 10
840.7282520826122
 20
228.59053323487268
 10
846.4485323793306
 20
239.81721543964613
 42
2.414213562373095
 10
845.0500811010944
 20
244.12120591621547
 10
814.2212553641768
 20
259.82927720720375
 42
2.414213562373095
 10
809.9172648876076
 20
258.4308259289676
  0
LWPOLYLINE
  5
A1
330
17
100
AcDbEntity
  8
CUT
100
AcDbPolyline
 90
8
 70
1
 10
836.4220033874897
 20
359.8967948866399
 42
2.414213562373095
 10
839.0820157892654
 20
356.23560190860667
 10
873.2560323738571
 20
350.8229694182147
 42
2.414213562373095
 10
876.9172253518904
 20
353.4829818199904
 10
878.8882996113973
 20
365.92785491148913
 42
2.414213562373095
 10
876.2282872096216
 20
369.5890478895223
 10
842.0542706250299
 20
375.0016803799143
 42
2.414213562373095
 10
838.3930776469966
 20
372.3416679781386
  0
LWPOLYLINE
  5
A2
330
17
100
AcDbEntity
  8
CUT
100
AcDbPolyline
 90
8
 70
1
 10
702.2696472971311
 20
94.7535239451069
 42
2.414213562373095
 10
701.5617057224672
 20
90.28375675577115
 10
721.8990754517868
 20
62.29176875039798
 42
2.414213562373095
 10
726.3688426411225
 20
61.58382717573403
 10
736.5624567702469
 20
68.98992135461918
 42
2.414213562373095
 10
737.2703983449107
 20
73.45968854395494
 10
716.9330286155912
 20
101.45167654932811
 42
2.414213562373095
 10
712.4632614262554
 20
102.15961812399206
  0
LWPOLYLINE
  5
A3
330
17
100
AcDbEntity
  8
CUT
100
AcDbPolyline
 90
8
 70
1
 10
807.123693866024
 20
171.98665071942864
 42
2.414213562373095
 10
807.831635440688
 20
167.5168835300929
 10
835.8236234460612
 20
147.17951380077335
 42
2.414213562373095
 10
840.2933906353969
 20
147.8874553754373
 10
847.6994848142822
 20
158.08106950456158
 42
2.414213562373095
 10
846.9915432396182
 20
162.55083669389734
 10
818.999555234245
 20
182.8882064232169
 42
2.414213562373095
 10
814.5297880449093
 20
182.18026484855298
  0
LWPOLYLINE
  5
A4
330
17
100
AcDbEntity
  8
CUT
100
AcDbPolyline
 90
8
 70
1
 10
868.4343635632624
 20
288.34405939693545
 42
2.414213562373095
 10
870.4888900334071
 20
284.31182416279114
 10
903.3954454972194
 20
273.61983615741804
 42
2.414213562373095
 10
907.4276807313637
 20
275.6743626275627
 10
911.321294860488
 20
287.65767473288156
 42
2.414213562373095
 10
909.2667683903434
 20
291.68990996702587
 10
876.3602129265311
 20
302.3818979723991
 42
2.414213562373095
 10
872.3279776923868
 20
300.32737150225444
  0
LWPOLYLINE
  5
A5
330
17
100
AcDbEntity
  8
CUT
100
AcDbPolyline
 90
8
 70
1
 10
883.9000000000001
 20
417.9000000000001
 42
2.414213562373095
 10
887.1000000000001
 20
414.7000000000001
 10
921.7
 20
414.7000000000001
 42
2.414213562373095
 10
924.9000000000001
 20
417.9000000000001
 10
924.9000000000001
 20
430.5000000000001
 42
2.414213562373095
 10
921.7
 20
433.7000000000001
 10
887.1000000000001
 20
433.7000000000001
 42
2.414213562373095
 10
883.9000000000001
 20
430.5000000000001
  0
LWPOLYLINE
  5
A6
330
17
100
AcDbEntity
  8
CUT
100
AcDbPolyline
 90
8
 70
1
 10
872.3279776923868
 20
548.0726284977458
 42
2.414213562373095
 10
876.3602129265311
 20
546.0181020276011
 10
909.2667683903434
 20
556.7100900329743
 42
2.414213562373095
 10
911.321294860488
 20
560.7423252671186
 10
907.4276807313637
 20
572.7256373724375
 42
2.414213562373095
 10
903.3954454972194
 20
574.7801638425822
 10
870.4888900334071
 20
564.0881758372091
 42
2.414213562373095
 10
868.4343635632624
 20
560.0559406030648
  0
LWPOLYLINE
  5
A7
330
17
100
AcDbEntity
  8
CUT
100
AcDbPolyline
 90
8
 70
1
 10
814.5297880449093
 20
666.2197351514473
 42
2.414213562373095
 10
818.999555234245
 20
665.5117935767832
 10
846.9915432396182
 20
685.8491633061028
 42
2.414213562373095
 10
847.6994848142822
 20
690.3189304954386
 10
840.2933906353969
 20
700.5125446245629
 42
2.414213562373095
 10
835.8236234460612
 20
701.2204861992268
 10
807.831635440688
 20
680.8831164699072
 42
2.414213562373095
 10
807.123693866024
 20
676.4133492805715
  0
LWPOLYLINE
  5
A8
330
17
100
AcDbEntity
  8
CUT
100
AcDbPolyline
 90
8
 70
1
 10
712.4632614262554
 20
746.2403818760081
 42
2.414213562373095
 10
716.9330286155912
 20
746.9483234506721
 10
737.2703983449107
 20
774.9403114560453
 42
2.414213562373095
 10
736.5624567702469
 20
779.410078645381
 10
726.3688426411225
 20
786.8161728242662
 42
2.414213562373095
 10
721.8990754517868
 20
786.1082312496022
 10
701.5617057224672
 20
758.116243244229
 42
2.414213562373095
 10
702.2696472971311
 20
753.6464760548934
  0
LWPOLYLINE
  5
A9
330
17
100
AcDbEntity
  8
CUT
100
AcDbPolyline
 90
8
 70
1
 10
593.7362237654804
 20
782.4793321009811
 42
2.414213562373095
 10
597.7684589996247
 20
784.5338585711257
 10
608.460447004998
 20
817.440414034938
 42
2.414213562373095
 10
606.4059205348533
 20
821.4726492690824
 10
594.4226084295344
 20
825.3662633982067
 42
2.414213562373095
 10
590.39037319539
 20
823.311736928062
 10
579.6983851900169
 20
790.4051814642497
 42
2.414213562373095
 10
581.7529116601615
 20
786.3729462301054
  0
LWPOLYLINE
  5
AA
330
17
100
AcDbEntity
  8
CUT
100
AcDbPolyline
 90
8
 70
1
 10
477.00000000000006
 20
790.9000000000002
 42
2.414213562373095
 10
480.20000000000005
 20
794.1000000000001
 10
480.20000000000005
 20
828.7000000000003
 42
2.414213562373095
 10
477.00000000000006
 20
831.9000000000002
 10
464.4000000000001
 20
831.9000000000002
 42
2.414213562373095
 10
461.20000000000005
 20
828.7000000000003
 10
461.20000000000005
 20
794.1000000000001
 42
2.414213562373095
 10
464.4000000000001
 20
790.9000000000002
  0
LWPOLYLINE
  5
AB
330
17
100
AcDbEntity
  8
CUT
100
AcDbPolyline
 90
8
 70
1
 10
359.6470883398386
 20
786.3729462301055
 42
2.414213562373095
 10
361.7016148099833
 20
790.4051814642498
 10
351.0096268046101
 20
823.3117369280621
 42
2.414213562373095
 10
346.9773915704658
 20
825.3662633982067
 10
334.99407946514685
 20
821.4726492690825
 42
2.414213562373095
 10
332.9395529950022
 20
817.4404140349382
 10
343.63154100037536
 20
784.5338585711258
 42
2.414213562373095
 10
347.6637762345197
 20
782.4793321009811
  0
LWPOLYLINE
  5
AC
330
17
100
AcDbEntity
  8
CUT
100
AcDbPolyline
 90
8
 70
1
 10
239.13035270286903
 20
753.6464760548934
 42
2.414213562373095
 10
239.83829427753295
 20
758.116243244229
 10
219.5009245482134
 20
786.1082312496023
 42
2.414213562373095
 10
215.03115735887766
 20
786.8161728242662
 10
204.83754322975335
 20
779.4100786453811
 42
2.414213562373095
 10
204.1296016550894
 20
774.9403114560453
 10
224.46697138440896
 20
746.9483234506722
 42
2.414213562373095
 10
228.9367385737447
 20
746.2403818760082
  0
LWPOLYLINE
  5
AD
330
17
100
AcDbEntity
  8
CUT
100
AcDbPolyline
 90
8
 70
1
 10
134.27630613397605
 20
676.4133492805715
 42
2.414213562373095
 10
133.5683645593121
 20
680.8831164699073
 10
105.57637655393893
 20
701.2204861992269
 42
2.414213562373095
 10
101.10660936460317
 20
700.5125446245629
 10
93.70051518571802
 20
690.3189304954387
 42
2.414213562373095
 10
94.40845676038197
 20
685.8491633061029
 10
122.40044476575514
 20
665.5117935767834
 42
2.414213562373095
 10
126.8702119550909
 20
666.2197351514473
  0
LWPOLYLINE
  5
AE
330
17
100
AcDbEntity
  8
CUT
100
AcDbPolyline
 90
8
 70
1
 10
72.96563643673767
 20
560.0559406030648
 42
2.414213562373095
 10
70.91110996659302
 20
564.0881758372091
 10
38.00455450278071
 20
574.7801638425823
 42
2.414213562373095
 10
33.9723192686364
 20
572.7256373724376
 10
30.078705139512067
 20
560.7423252671186
 42
2.414213562373095
 10
32.13323160965672
 20
556.7100900329743
 10
65.03978707346903
 20
546.0181020276012
 42
2.414213562373095
 10
69.07202230761334
 20
548.0726284977459
  0
TEXT
  5
AF
330
17
100
AcDbEntity
  8
ENGRAVE-LABEL
100
AcDbText
 10
128.42299076799864
 20
174.8983701066515
 30
0.0
 40
11.0
  1
02 SEAT-RING
 72
1
 11
128.42299076799864
 21
174.8983701066515
 31
0.0
100
AcDbText
 73
2
  0
ENDSEC
  0
SECTION
  2
OBJECTS
  0
DICTIONARY
  5
A
330
0
100
AcDbDictionary
281
1
  3
ACAD_COLOR
350
B
  3
ACAD_GROUP
350
C
  3
ACAD_LAYOUT
350
D
  3
ACAD_MATERIAL
350
E
  3
ACAD_MLEADERSTYLE
350
F
  3
ACAD_MLINESTYLE
350
10
  3
ACAD_PLOTSETTINGS
350
11
  3
ACAD_PLOTSTYLENAME
350
12
  3
ACAD_SCALELIST
350
14
  3
ACAD_TABLESTYLE
350
15
  3
ACAD_VISUALSTYLE
350
16
  3
EZDXF_META
350
2D
  0
DICTIONARY
  5
B
330
A
100
AcDbDictionary
281
1
  0
DICTIONARY
  5
C
330
A
100
AcDbDictionary
281
1
  0
DICTIONARY
  5
D
330
A
100
AcDbDictionary
281
1
  3
Model
350
1A
  3
Layout1
350
1E
  0
DICTIONARY
  5
E
330
A
100
AcDbDictionary
281
1
  3
ByBlock
350
1F
  3
ByLayer
350
20
  3
Global
350
21
  0
DICTIONARY
  5
F
330
A
100
AcDbDictionary
281
1
  3
Standard
350
2C
  0
DICTIONARY
  5
10
330
A
100
AcDbDictionary
281
1
  3
Standard
350
22
  0
DICTIONARY
  5
11
330
A
100
AcDbDictionary
281
1
  0
ACDBDICTIONARYWDFLT
  5
12
330
A
100
AcDbDictionary
281
1
  3
Normal
350
13
100
AcDbDictionaryWithDefault
340
13
  0
ACDBPLACEHOLDER
  5
13
330
12
  0
DICTIONARY
  5
14
330
A
100
AcDbDictionary
281
1
  0
DICTIONARY
  5
15
330
A
100
AcDbDictionary
281
1
  0
DICTIONARY
  5
16
330
A
100
AcDbDictionary
281
1
  3
2dWireframe
350
5A
  3
Basic
350
5B
  3
Brighten
350
5C
  3
ColorChange
350
5D
  3
Conceptual
350
5E
  3
Dim
350
5F
  3
EdgeColorOff
350
60
  3
Facepattern
350
61
  3
Flat
350
62
  3
FlatWithEdges
350
63
  3
Gouraud
350
64
  3
GouraudWithEdges
350
65
  3
Hidden
350
66
  3
JitterOff
350
67
  3
Linepattern
350
68
  3
Modeling
350
69
  3
OverhangOff
350
6A
  3
Realistic
350
6B
  3
Shaded
350
6C
  3
Shaded with edges
350
6D
  3
Shades of Gray
350
6E
  3
Sketchy
350
6F
  3
Thicken
350
70
  3
Wireframe
350
71
  3
X-Ray
350
72
  0
LAYOUT
  5
1A
330
D
100
AcDbPlotSettings
  1

  4
A3
  6

 40
7.5
 41
20.0
 42
7.5
 43
20.0
 44
420.0
 45
297.0
 46
0.0
 47
0.0
 48
0.0
 49
0.0
140
0.0
141
0.0
142
1.0
143
1.0
 70
1024
 72
1
 73
0
 74
5
  7

 75
16
 76
0
 77
2
 78
300
147
1.0
148
0.0
149
0.0
100
AcDbLayout
  1
Model
 70
1
 71
0
 10
0.0
 20
0.0
 11
420.0
 21
297.0
 12
0.0
 22
0.0
 32
0.0
 14
1e+20
 24
1e+20
 34
1e+20
 15
-1e+20
 25
-1e+20
 35
-1e+20
146
0.0
 13
0.0
 23
0.0
 33
0.0
 16
1.0
 26
0.0
 36
0.0
 17
0.0
 27
1.0
 37
0.0
 76
1
330
17
  0
LAYOUT
  5
1E
330
D
100
AcDbPlotSettings
  1

  4
A3
  6

 40
7.5
 41
20.0
 42
7.5
 43
20.0
 44
420.0
 45
297.0
 46
0.0
 47
0.0
 48
0.0
 49
0.0
140
0.0
141
0.0
142
1.0
143
1.0
 70
0
 72
1
 73
0
 74
5
  7

 75
16
 76
0
 77
2
 78
300
147
1.0
148
0.0
149
0.0
100
AcDbLayout
  1
Layout1
 70
1
 71
1
 10
0.0
 20
0.0
 11
420.0
 21
297.0
 12
0.0
 22
0.0
 32
0.0
 14
1e+20
 24
1e+20
 34
1e+20
 15
-1e+20
 25
-1e+20
 35
-1e+20
146
0.0
 13
0.0
 23
0.0
 33
0.0
 16
1.0
 26
0.0
 36
0.0
 17
0.0
 27
1.0
 37
0.0
 76
1
330
1B
  0
MATERIAL
  5
1F
102
{ACAD_REACTORS
330
E
102
}
330
E
100
AcDbMaterial
  1
ByBlock
  2

 70
0
 40
1.0
 71
1
 41
1.0
 91
-1023410177
 42
1.0
 72
1
  3

 73
1
 74
1
 75
1
 44
0.5
 73
0
 45
1.0
 46
1.0
 77
1
  4

 78
1
 79
1
170
1
 48
1.0
171
1
  6

172
1
173
1
174
1
140
1.0
141
1.0
175
1
  7

176
1
177
1
178
1
143
1.0
179
1
  8

270
1
271
1
272
1
145
1.0
146
1.0
273
1
  9

274
1
275
1
276
1
 42
1.0
 72
1
  3

 73
1
 74
1
 75
1
 94
63
  0
MATERIAL
  5
20
102
{ACAD_REACTORS
330
E
102
}
330
E
100
AcDbMaterial
  1
ByLayer
  2

 70
0
 40
1.0
 71
1
 41
1.0
 91
-1023410177
 42
1.0
 72
1
  3

 73
1
 74
1
 75
1
 44
0.5
 73
0
 45
1.0
 46
1.0
 77
1
  4

 78
1
 79
1
170
1
 48
1.0
171
1
  6

172
1
173
1
174
1
140
1.0
141
1.0
175
1
  7

176
1
177
1
178
1
143
1.0
179
1
  8

270
1
271
1
272
1
145
1.0
146
1.0
273
1
  9

274
1
275
1
276
1
 42
1.0
 72
1
  3

 73
1
 74
1
 75
1
 94
63
  0
MATERIAL
  5
21
102
{ACAD_REACTORS
330
E
102
}
330
E
100
AcDbMaterial
  1
Global
  2

 70
0
 40
1.0
 71
1
 41
1.0
 91
-1023410177
 42
1.0
 72
1
  3

 73
1
 74
1
 75
1
 44
0.5
 73
0
 45
1.0
 46
1.0
 77
1
  4

 78
1
 79
1
170
1
 48
1.0
171
1
  6

172
1
173
1
174
1
140
1.0
141
1.0
175
1
  7

176
1
177
1
178
1
143
1.0
179
1
  8

270
1
271
1
272
1
145
1.0
146
1.0
273
1
  9

274
1
275
1
276
1
 42
1.0
 72
1
  3

 73
1
 74
1
 75
1
 94
63
  0
MLINESTYLE
  5
22
102
{ACAD_REACTORS
330
10
102
}
330
10
100
AcDbMlineStyle
  2
Standard
 70
0
  3

 62
256
 51
90.0
 52
90.0
 71
2
 49
0.5
 62
256
  6
BYLAYER
 49
-0.5
 62
256
  6
BYLAYER
  0
MLEADERSTYLE
  5
2C
102
{ACAD_REACTORS
330
F
102
}
330
F
100
AcDbMLeaderStyle
179
2
170
2
171
1
172
0
 90
2
 40
0.0
 41
0.0
173
1
 91
-1056964608
 92
-2
290
1
 42
2.0
291
1
 43
8.0
  3
Standard
 44
4.0
300

342
29
174
1
175
1
176
0
178
1
 93
-1056964608
 45
4.0
292
0
297
0
 46
4.0
 94
-1056964608
 47
1.0
 49
1.0
140
1.0
294
1
141
0.0
177
0
142
1.0
295
0
296
0
143
3.75
271
0
272
9
273
9
  0
DICTIONARY
  5
2D
330
A
100
AcDbDictionary
280
1
281
1
  3
CREATED_BY_EZDXF
350
2E
  3
WRITTEN_BY_EZDXF
350
B2
  0
DICTIONARYVAR
  5
2E
330
2D
100
DictionaryVariables
280
0
  1
1.4.4 @ 2026-09-29T04:52:38.951749+00:00
  0
VISUALSTYLE
  5
5A
102
{ACAD_REACTORS
330
16
102
}
330
16
100
AcDbVisualStyle
  2
2dWireframe
 70
4
 90
0
 40
0.6
 62
7
290
0
291
0
  0
VISUALSTYLE
  5
5B
102
{ACAD_REACTORS
330
16
102
}
330
16
100
AcDbVisualStyle
  2
Basic
 70
7
 90
1
 40
0.6
 62
7
290
0
291
1
  0
VISUALSTYLE
  5
5C
102
{ACAD_REACTORS
330
16
102
}
330
16
100
AcDbVisualStyle
  2
Brighten
 70
12
 90
2
 40
0.6
 62
7
290
0
291
1
  0
VISUALSTYLE
  5
5D
102
{ACAD_REACTORS
330
16
102
}
330
16
100
AcDbVisualStyle
  2
ColorChange
 70
16
 90
2
 40
0.6
 62
8
290
0
291
1
  0
VISUALSTYLE
  5
5E
102
{ACAD_REACTORS
330
16
102
}
330
16
100
AcDbVisualStyle
  2
Conceptual
 70
9
 90
3
 40
0.6
 62
7
290
0
291
0
  0
VISUALSTYLE
  5
5F
102
{ACAD_REACTORS
330
16
102
}
330
16
100
AcDbVisualStyle
  2
Dim
 70
11
 90
2
 40
0.6
 62
7
290
0
291
1
  0
VISUALSTYLE
  5
60
102
{ACAD_REACTORS
330
16
102
}
330
16
100
AcDbVisualStyle
  2
EdgeColorOff
 70
22
 90
2
 40
0.6
 62
7
290
0
291
1
  0
VISUALSTYLE
  5
61
102
{ACAD_REACTORS
330
16
102
}
330
16
100
AcDbVisualStyle
  2
Facepattern
 70
15
 90
2
 40
0.6
 62
7
290
0
291
1
  0
VISUALSTYLE
  5
62
102
{ACAD_REACTORS
330
16
102
}
330
16
100
AcDbVisualStyle
  2
Flat
 70
0
 90
2
 40
0.6
 62
7
290
0
291
1
  0
VISUALSTYLE
  5
63
102
{ACAD_REACTORS
330
16
102
}
330
16
100
AcDbVisualStyle
  2
FlatWithEdges
 70
1
 90
2
 40
0.6
 62
7
290
0
291
1
  0
VISUALSTYLE
  5
64
102
{ACAD_REACTORS
330
16
102
}
330
16
100
AcDbVisualStyle
  2
Gouraud
 70
2
 90
2
 40
0.6
 62
7
290
0
291
1
  0
VISUALSTYLE
  5
65
102
{ACAD_REACTORS
330
16
102
}
330
16
100
AcDbVisualStyle
  2
GouraudWithEdges
 70
3
 90
2
 40
0.6
 62
7
290
0
291
1
  0
VISUALSTYLE
  5
66
102
{ACAD_REACTORS
330
16
102
}
330
16
100
AcDbVisualStyle
  2
Hidden
 70
6
 90
1
 40
0.6
 62
7
290
0
291
0
  0
VISUALSTYLE
  5
67
102
{ACAD_REACTORS
330
16
102
}
330
16
100
AcDbVisualStyle
  2
JitterOff
 70
20
 90
2
 40
0.6
 62
7
290
0
291
1
  0
VISUALSTYLE
  5
68
102
{ACAD_REACTORS
330
16
102
}
330
16
100
AcDbVisualStyle
  2
Linepattern
 70
14
 90
2
 40
0.6
 62
7
290
0
291
1
  0
VISUALSTYLE
  5
69
102
{ACAD_REACTORS
330
16
102
}
330
16
100
AcDbVisualStyle
  2
Modeling
 70
10
 90
2
 40
0.6
 62
7
290
0
291
0
  0
VISUALSTYLE
  5
6A
102
{ACAD_REACTORS
330
16
102
}
330
16
100
AcDbVisualStyle
  2
OverhangOff
 70
21
 90
2
 40
0.6
 62
7
290
0
291
1
  0
VISUALSTYLE
  5
6B
102
{ACAD_REACTORS
330
16
102
}
330
16
100
AcDbVisualStyle
  2
Realistic
 70
8
 90
2
 40
0.6
 62
7
290
0
291
0
  0
VISUALSTYLE
  5
6C
102
{ACAD_REACTORS
330
16
102
}
330
16
100
AcDbVisualStyle
  2
Shaded
 70
27
 90
2
 40
0.6
 62
7
290
0
291
0
  0
VISUALSTYLE
  5
6D
102
{ACAD_REACTORS
330
16
102
}
330
16
100
AcDbVisualStyle
  2
Shaded with edges
 70
26
 90
2
 40
0.6
 62
7
290
0
291
0
  0
VISUALSTYLE
  5
6E
102
{ACAD_REACTORS
330
16
102
}
330
16
100
AcDbVisualStyle
  2
Shades of Gray
 70
23
 90
2
 40
0.6
 62
7
290
0
291
0
  0
VISUALSTYLE
  5
6F
102
{ACAD_REACTORS
330
16
102
}
330
16
100
AcDbVisualStyle
  2
Sketchy
 70
24
 90
1
 40
0.6
 62
7
290
0
291
0
  0
VISUALSTYLE
  5
70
102
{ACAD_REACTORS
330
16
102
}
330
16
100
AcDbVisualStyle
  2
Thicken
 70
13
 90
2
 40
0.6
 62
7
290
0
291
1
  0
VISUALSTYLE
  5
71
102
{ACAD_REACTORS
330
16
102
}
330
16
100
AcDbVisualStyle
  2
Wireframe
 70
5
 90
0
 40
0.6
 62
7
290
0
291
0
  0
VISUALSTYLE
  5
72
102
{ACAD_REACTORS
330
16
102
}
330
16
100
AcDbVisualStyle
  2
X-Ray
 70
25
 90
2
 40
0.5
 62
7
290
0
291
0
  0
DICTIONARYVAR
  5
B2
330
2D
100
DictionaryVariables
280
0
  1
1.4.4 @ 2026-09-29T04:52:38.997777+00:00
  0
ENDSEC
  0
EOF
