  0
SECTION
  2
HEADER
  9
$ACADVER
  1
AC1009
  9
$DWGCODEPAGE
  3
ANSI_1252
  9
$INSBASE
 10
0.0
 20
0.0
 30
0.0
  9
$EXTMIN
 10
0.0000
 20
0.0000
 30
0.0000
  9
$EXTMAX
 10
951.0000
 20
511.0000
 30
0.0000
  9
$LIMMIN
 10
0.0000
 20
0.0000
  9
$LIMMAX
 10
951.0000
 20
511.0000
  9
$ORTHOMODE
 70
0
  9
$REGENMODE
 70
1
  9
$FILLMODE
 70
1
  9
$DRAGMODE
 70
2
  9
$QTEXTMODE
 70
0
  9
$MIRRTEXT
 70
1
  9
$OSMODE
 70
20583
  9
$LTSCALE
 40
1.0
  9
$ATTMODE
 70
1
  9
$TEXTSIZE
 40
2.5
  9
$TRACEWID
 40
1.0
  9
$TEXTSTYLE
  7
Standard
  9
$CLAYER
  8
0
  9
$CELTYPE
  6
ByLayer
  9
$CECOLOR
 62
256
  9
$DIMSCALE
 40
1.0
  9
$DIMASZ
 40
2.5
  9
$DIMEXO
 40
0.625
  9
$DIMDLI
 40
3.75
  9
$DIMRND
 40
0.0
  9
$DIMDLE
 40
0.0
  9
$DIMEXE
 40
1.25
  9
$DIMTP
 40
0.0
  9
$DIMTM
 40
0.0
  9
$DIMTXT
 40
2.5
  9
$DIMCEN
 40
2.5
  9
$DIMTSZ
 40
0.0
  9
$DIMTOL
 70
0
  9
$DIMLIM
 70
0
  9
$DIMTIH
 70
0
  9
$DIMTOH
 70
0
  9
$DIMSE1
 70
0
  9
$DIMSE2
 70
0
  9
$DIMTAD
 70
1
  9
$DIMZIN
 70
8
  9
$DIMBLK
  1

  9
$DIMASO
 70
1
  9
$DIMSHO
 70
1
  9
$DIMPOST
  1

  9
$DIMAPOST
  1

  9
$DIMALT
 70
0
  9
$DIMALTD
 70
3
  9
$DIMALTF
 40
0.03937007874
  9
$DIMLFAC
 40
1.0
  9
$DIMTOFL
 70
1
  9
$DIMTVP
 40
0.0
  9
$DIMTIX
 70
0
  9
$DIMSOXD
 70
0
  9
$DIMSAH
 70
0
  9
$DIMBLK1
  1

  9
$DIMBLK2
  1

  9
$DIMSTYLE
  2
ISO-25
  9
$DIMCLRD
 70
0
  9
$DIMCLRE
 70
0
  9
$DIMCLRT
 70
0
  9
$DIMTFAC
 40
1.0
  9
$DIMGAP
 40
0.625
  9
$COORDS
 70
1
  9
$ATTDIA
 70
0
  9
$ATTREQ
 70
1
  9
$HANDLING
 70
1
  9
$LUNITS
 70
2
  9
$LUPREC
 70
4
  9
$SKETCHINC
 40
1.0
  9
$FILLETRAD
 40
10.0
  9
$AUNITS
 70
0
  9
$AUPREC
 70
2
  9
$MENU
  1
.
  9
$ELEVATION
 40
0.0
  9
$PELEVATION
 40
0.0
  9
$THICKNESS
 40
0.0
  9
$LIMCHECK
 70
0
  9
$CHAMFERA
 40
0.0
  9
$CHAMFERB
 40
0.0
  9
$SKPOLY
 70
0
  9
$TDCREATE
 40
2461317.265289352
  9
$TDUPDATE
 40
2461317.265289352
  9
$TDINDWG
 40
0.0
  9
$TDUSRTIMER
 40
0.0
  9
$USRTIMER
 70
1
  9
$ANGBASE
 50
0.0
  9
$ANGDIR
 70
0
  9
$PDMODE
 70
0
  9
$PDSIZE
 40
0.0
  9
$PLINEWID
 40
0.0
  9
$SPLFRAME
 70
0
  9
$SPLINETYPE
 70
6
  9
$SPLINESEGS
 70
8
  9
$HANDSEED
  5
6D0
  9
$SURFTAB1
 70
6
  9
$SURFTAB2
 70
6
  9
$SURFTYPE
 70
6
  9
$SURFU
 70
6
  9
$SURFV
 70
6
  9
$UCSNAME
  2

  9
$UCSORG
 10
0.0
 20
0.0
 30
0.0
  9
$UCSXDIR
 10
1.0
 20
0.0
 30
0.0
  9
$UCSYDIR
 10
0.0
 20
1.0
 30
0.0
  9
$PUCSNAME
  2

  9
$PUCSORG
 10
0.0
 20
0.0
 30
0.0
  9
$PUCSXDIR
 10
1.0
 20
0.0
 30
0.0
  9
$PUCSYDIR
 10
0.0
 20
1.0
 30
0.0
  9
$USERI1
 70
0
  9
$USERI2
 70
0
  9
$USERI3
 70
0
  9
$USERI4
 70
0
  9
$USERI5
 70
0
  9
$USERR1
 40
0.0
  9
$USERR2
 40
0.0
  9
$USERR3
 40
0.0
  9
$USERR4
 40
0.0
  9
$USERR5
 40
0.0
  9
$WORLDVIEW
 70
1
  9
$SHADEDGE
 70
3
  9
$SHADEDIF
 70
70
  9
$TILEMODE
 70
1
  9
$MAXACTVP
 70
64
  9
$PLIMCHECK
 70
0
  9
$PEXTMIN
 10
1e+20
 20
1e+20
 30
1e+20
  9
$PEXTMAX
 10
-1e+20
 20
-1e+20
 30
-1e+20
  9
$PLIMMIN
 10
0.0
 20
0.0
  9
$PLIMMAX
 10
420.0
 20
297.0
  9
$UNITMODE
 70
0
  9
$VISRETAIN
 70
1
  9
$PLINEGEN
 70
0
  9
$PSLTSCALE
 70
1
  0
ENDSEC
  0
SECTION
  2
TABLES
  0
TABLE
  2
VPORT
 70
1
  0
VPORT
  5
23
  2
*Active
 70
0
 10
0.0
 20
0.0
 11
1.0
 21
1.0
 12
0.0
 22
0.0
 13
0.0
 23
0.0
 14
0.5
 24
0.5
 15
0.5
 25
0.5
 16
0.0
 26
0.0
 36
1.0
 17
0.0
 27
0.0
 37
0.0
 40
1000.0
 41
1.34
 42
50.0
 43
0.0
 44
0.0
 50
0.0
 51
0.0
 71
0
 72
1000
 73
1
 74
3
 75
0
 76
0
 77
0
 78
0
  0
ENDTAB
  0
TABLE
  2
LTYPE
 70
3
  0
LTYPE
  5
24
  2
ByBlock
 70
0
  3

 72
65
 73
0
 40
0.0
  0
LTYPE
  5
25
  2
ByLayer
 70
0
  3

 72
65
 73
0
 40
0.0
  0
LTYPE
  5
26
  2
Continuous
 70
0
  3

 72
65
 73
0
 40
0.0
  0
ENDTAB
  0
TABLE
  2
LAYER
 70
5
  0
LAYER
  5
27
  2
0
 70
0
 62
7
  6
Continuous
  0
LAYER
  5
28
  2
Defpoints
 70
0
 62
7
  6
Continuous
  0
LAYER
  5
2D
  2
CUT
 70
0
 62
1
  6
Continuous
  0
LAYER
  5
2E
  2
ENGRAVE-LABEL
 70
0
 62
3
  6
Continuous
  0
LAYER
  5
2F
  2
REFERENCE-SHEET
 70
0
 62
8
  6
Continuous
  0
ENDTAB
  0
TABLE
  2
STYLE
 70
1
  0
STYLE
  5
29
  2
Standard
 70
0
 40
0.0
 41
1.0
 50
0.0
 71
0
 42
2.5
  3
txt
  4

  0
ENDTAB
  0
TABLE
  2
VIEW
 70
0
  0
ENDTAB
  0
TABLE
  2
UCS
 70
0
  0
ENDTAB
  0
TABLE
  2
APPID
 70
3
  0
APPID
  5
2A
  2
ACAD
 70
0
  0
APPID
  5
6CE
  2
HATCHBACKGROUNDCOLOR
 70
0
  0
APPID
  5
6CF
  2
EZDXF
 70
0
  0
ENDTAB
  0
TABLE
  2
DIMSTYLE
 70
1
  0
DIMSTYLE
105
2B
  2
Standard
 70
0
  3

  4

  5

  6

  7

 40
1.0
 41
2.5
 42
0.625
 43
3.75
 44
1.25
 45
0.0
 46
0.0
 47
0.0
 48
0.0
140
2.5
141
2.5
142
0.0
143
0.03937007874
144
1.0
145
0.0
146
1.0
147
0.625
 71
0
 72
0
 73
0
 74
0
 75
0
 76
0
 77
1
 78
8
170
0
171
3
172
1
173
0
174
0
175
0
176
0
177
0
178
0
  0
ENDTAB
  0
ENDSEC
  0
SECTION
  2
BLOCKS
  0
BLOCK
  5
18
  8
0
  2
$Model_Space
 70
0
 10
0.0
 20
0.0
 30
0.0
  3
$Model_Space
  1

1001
EZDXF
1000
CREATED_BY_EZDXF
1000
1.4.4 @ 2026-10-03T06:22:01.869212+00:00
1000
WRITTEN_BY_EZDXF
1000
1.4.4 @ 2026-10-03T06:22:01.915201+00:00
  0
ENDBLK
  5
19
  8
0
  0
BLOCK
  5
1C
  8
0
  2
$Paper_Space
 70
0
 10
0.0
 20
0.0
 30
0.0
  3
$Paper_Space
  1

  0
ENDBLK
  5
1D
  8
0
  0
ENDSEC
  0
SECTION
  2
ENTITIES
  0
POLYLINE
  5
30
  8
CUT
 66
1
 10
0.0
 20
0.0
 30
0.0
 70
1
  0
VERTEX
  5
32
  8
CUT
 10
501.0
 20
255.5
 30
0.0
 70
0
  0
VERTEX
  5
33
  8
CUT
 10
500.92121298527366
 20
261.7191813638876
 30
0.0
 70
0
  0
VERTEX
  5
34
  8
CUT
 10
500.68490251049343
 20
267.93437094990395
 30
0.0
 70
0
  0
VERTEX
  5
35
  8
CUT
 10
500.2912202513975
 20
274.14157954229796
 30
0.0
 70
0
  0
VERTEX
  5
36
  8
CUT
 10
499.7404188927103
 20
280.3368230479146
 30
0.0
 70
0
  0
VERTEX
  5
37
  8
CUT
 10
499.03285196595743
 20
286.5161250533827
 30
0.0
 70
0
  0
VERTEX
  5
38
  8
CUT
 10
498.16897362255133
 20
292.6755193773736
 30
0.0
 70
0
  0
VERTEX
  5
39
  8
CUT
 10
497.14933834229464
 20
298.811052616292
 30
0.0
 70
0
  0
VERTEX
  5
3A
  8
CUT
 10
495.9746005774874
 20
304.91878668176605
 30
0.0
 70
0
  0
VERTEX
  5
3B
  8
CUT
 10
494.6455143328675
 20
310.9948013283069
 30
0.0
 70
0
  0
VERTEX
  5
3C
  8
CUT
 10
493.16293268165316
 20
317.03519666951587
 30
0.0
 70
0
  0
VERTEX
  5
3D
  8
CUT
 10
491.5278072179982
 20
323.03609568122437
 30
0.0
 70
0
  0
VERTEX
  5
3E
  8
CUT
 10
489.741187446212
 20
328.9936466899594
 30
0.0
 70
0
  0
VERTEX
  5
3F
  8
CUT
 10
487.80422010713596
 20
334.90402584513794
 30
0.0
 70
0
  0
VERTEX
  5
40
  8
CUT
 10
485.71814844210826
 20
340.7634395734034
 30
0.0
 70
0
  0
VERTEX
  5
41
  8
CUT
 10
483.4843113949904
 20
346.56812701352794
 30
0.0
 70
0
  0
VERTEX
  5
42
  8
CUT
 10
481.1041427527666
 20
352.3143624303197
 30
0.0
 70
0
  0
VERTEX
  5
43
  8
CUT
 10
478.5791702252689
 20
357.998457605983
 30
0.0
 70
0
  0
VERTEX
  5
44
  8
CUT
 10
475.9110144646171
 20
363.6167642073992
 30
0.0
 70
0
  0
VERTEX
  5
45
  8
CUT
 10
473.1013880250042
 20
369.16567612780716
 30
0.0
 70
0
  0
VERTEX
  5
46
  8
CUT
 10
470.1520942634949
 20
374.6416318013804
 30
0.0
 70
0
  0
VERTEX
  5
47
  8
CUT
 10
467.06502618254143
 20
380.0411164892164
 30
0.0
 70
0
  0
VERTEX
  5
48
  8
CUT
 10
463.84216521496137
 20
385.3606645352693
 30
0.0
 70
0
  0
VERTEX
  5
49
  8
CUT
 10
460.48557995215606
 20
390.59686159077955
 30
0.0
 70
0
  0
VERTEX
  5
4A
  8
CUT
 10
456.99742481638634
 20
395.7463468057715
 30
0.0
 70
0
  0
VERTEX
  5
4B
  8
CUT
 10
453.3799386779582
 20
400.80581498621274
 30
0.0
 70
0
  0
VERTEX
  5
4C
  8
CUT
 10
449.635443418205
 20
405.7720187154512
 30
0.0
 70
0
  0
VERTEX
  5
4D
  8
CUT
 10
445.7663424391891
 20
410.6417704385676
 30
0.0
 70
0
  0
VERTEX
  5
4E
  8
CUT
 10
441.77511912108014
 20
415.4119445083055
 30
0.0
 70
0
  0
VERTEX
  5
4F
  8
CUT
 10
437.66433522819864
 20
420.0794791912664
 30
0.0
 70
0
  0
VERTEX
  5
50
  8
CUT
 10
433.43662926474894
 20
424.64137863308105
 30
0.0
 70
0
  0
VERTEX
  5
51
  8
CUT
 10
429.0947147812974
 20
429.0947147812974
 30
0.0
 70
0
  0
VERTEX
  5
52
  8
CUT
 10
424.6413786330811
 20
433.43662926474894
 30
0.0
 70
0
  0
VERTEX
  5
53
  8
CUT
 10
420.0794791912664
 20
437.66433522819864
 30
0.0
 70
0
  0
VERTEX
  5
54
  8
CUT
 10
415.4119445083055
 20
441.7751191210802
 30
0.0
 70
0
  0
VERTEX
  5
55
  8
CUT
 10
410.6417704385676
 20
445.7663424391891
 30
0.0
 70
0
  0
VERTEX
  5
56
  8
CUT
 10
405.7720187154513
 20
449.635443418205
 30
0.0
 70
0
  0
VERTEX
  5
57
  8
CUT
 10
400.8058149862128
 20
453.3799386779582
 30
0.0
 70
0
  0
VERTEX
  5
58
  8
CUT
 10
395.7463468057715
 20
456.99742481638634
 30
0.0
 70
0
  0
VERTEX
  5
59
  8
CUT
 10
390.59686159077955
 20
460.485579952156
 30
0.0
 70
0
  0
VERTEX
  5
5A
  8
CUT
 10
385.3606645352693
 20
463.84216521496137
 30
0.0
 70
0
  0
VERTEX
  5
5B
  8
CUT
 10
380.0411164892164
 20
467.06502618254143
 30
0.0
 70
0
  0
VERTEX
  5
5C
  8
CUT
 10
374.6416318013804
 20
470.1520942634949
 30
0.0
 70
0
  0
VERTEX
  5
5D
  8
CUT
 10
369.16567612780716
 20
473.1013880250042
 30
0.0
 70
0
  0
VERTEX
  5
5E
  8
CUT
 10
363.6167642073993
 20
475.9110144646171
 30
0.0
 70
0
  0
VERTEX
  5
5F
  8
CUT
 10
357.99845760598305
 20
478.5791702252689
 30
0.0
 70
0
  0
VERTEX
  5
60
  8
CUT
 10
352.31436243031976
 20
481.1041427527666
 30
0.0
 70
0
  0
VERTEX
  5
61
  8
CUT
 10
346.56812701352794
 20
483.4843113949904
 30
0.0
 70
0
  0
VERTEX
  5
62
  8
CUT
 10
340.7634395734034
 20
485.71814844210826
 30
0.0
 70
0
  0
VERTEX
  5
63
  8
CUT
 10
334.904025845138
 20
487.80422010713596
 30
0.0
 70
0
  0
VERTEX
  5
64
  8
CUT
 10
328.9936466899594
 20
489.741187446212
 30
0.0
 70
0
  0
VERTEX
  5
65
  8
CUT
 10
323.0360956812244
 20
491.5278072179982
 30
0.0
 70
0
  0
VERTEX
  5
66
  8
CUT
 10
317.03519666951587
 20
493.16293268165316
 30
0.0
 70
0
  0
VERTEX
  5
67
  8
CUT
 10
310.99480132830695
 20
494.6455143328675
 30
0.0
 70
0
  0
VERTEX
  5
68
  8
CUT
 10
304.91878668176605
 20
495.9746005774874
 30
0.0
 70
0
  0
VERTEX
  5
69
  8
CUT
 10
298.81105261629193
 20
497.14933834229464
 30
0.0
 70
0
  0
VERTEX
  5
6A
  8
CUT
 10
292.6755193773736
 20
498.16897362255133
 30
0.0
 70
0
  0
VERTEX
  5
6B
  8
CUT
 10
286.5161250533828
 20
499.03285196595743
 30
0.0
 70
0
  0
VERTEX
  5
6C
  8
CUT
 10
280.3368230479146
 20
499.7404188927103
 30
0.0
 70
0
  0
VERTEX
  5
6D
  8
CUT
 10
274.141579542298
 20
500.2912202513975
 30
0.0
 70
0
  0
VERTEX
  5
6E
  8
CUT
 10
267.93437094990406
 20
500.68490251049343
 30
0.0
 70
0
  0
VERTEX
  5
6F
  8
CUT
 10
261.7191813638876
 20
500.92121298527366
 30
0.0
 70
0
  0
VERTEX
  5
70
  8
CUT
 10
255.50000000000003
 20
501.0
 30
0.0
 70
0
  0
VERTEX
  5
71
  8
CUT
 10
249.28081863611234
 20
500.92121298527366
 30
0.0
 70
0
  0
VERTEX
  5
72
  8
CUT
 10
243.06562905009605
 20
500.68490251049343
 30
0.0
 70
0
  0
VERTEX
  5
73
  8
CUT
 10
236.8584204577021
 20
500.2912202513975
 30
0.0
 70
0
  0
VERTEX
  5
74
  8
CUT
 10
230.66317695208542
 20
499.7404188927103
 30
0.0
 70
0
  0
VERTEX
  5
75
  8
CUT
 10
224.48387494661733
 20
499.03285196595743
 30
0.0
 70
0
  0
VERTEX
  5
76
  8
CUT
 10
218.3244806226264
 20
498.16897362255133
 30
0.0
 70
0
  0
VERTEX
  5
77
  8
CUT
 10
212.188947383708
 20
497.14933834229464
 30
0.0
 70
0
  0
VERTEX
  5
78
  8
CUT
 10
206.08121331823398
 20
495.9746005774874
 30
0.0
 70
0
  0
VERTEX
  5
79
  8
CUT
 10
200.0051986716931
 20
494.6455143328675
 30
0.0
 70
0
  0
VERTEX
  5
7A
  8
CUT
 10
193.96480333048413
 20
493.16293268165316
 30
0.0
 70
0
  0
VERTEX
  5
7B
  8
CUT
 10
187.9639043187757
 20
491.5278072179982
 30
0.0
 70
0
  0
VERTEX
  5
7C
  8
CUT
 10
182.00635331004065
 20
489.74118744621205
 30
0.0
 70
0
  0
VERTEX
  5
7D
  8
CUT
 10
176.09597415486206
 20
487.80422010713596
 30
0.0
 70
0
  0
VERTEX
  5
7E
  8
CUT
 10
170.23656042659667
 20
485.71814844210826
 30
0.0
 70
0
  0
VERTEX
  5
7F
  8
CUT
 10
164.431872986472
 20
483.4843113949904
 30
0.0
 70
0
  0
VERTEX
  5
80
  8
CUT
 10
158.68563756968032
 20
481.1041427527666
 30
0.0
 70
0
  0
VERTEX
  5
81
  8
CUT
 10
153.00154239401695
 20
478.57917022526885
 30
0.0
 70
0
  0
VERTEX
  5
82
  8
CUT
 10
147.38323579260077
 20
475.9110144646171
 30
0.0
 70
0
  0
VERTEX
  5
83
  8
CUT
 10
141.83432387219284
 20
473.1013880250042
 30
0.0
 70
0
  0
VERTEX
  5
84
  8
CUT
 10
136.35836819861964
 20
470.1520942634949
 30
0.0
 70
0
  0
VERTEX
  5
85
  8
CUT
 10
130.9588835107836
 20
467.0650261825414
 30
0.0
 70
0
  0
VERTEX
  5
86
  8
CUT
 10
125.63933546473072
 20
463.84216521496137
 30
0.0
 70
0
  0
VERTEX
  5
87
  8
CUT
 10
120.40313840922042
 20
460.485579952156
 30
0.0
 70
0
  0
VERTEX
  5
88
  8
CUT
 10
115.25365319422855
 20
456.99742481638634
 30
0.0
 70
0
  0
VERTEX
  5
89
  8
CUT
 10
110.19418501378732
 20
453.3799386779583
 30
0.0
 70
0
  0
VERTEX
  5
8A
  8
CUT
 10
105.22798128454883
 20
449.6354434182051
 30
0.0
 70
0
  0
VERTEX
  5
8B
  8
CUT
 10
100.35822956143238
 20
445.76634243918915
 30
0.0
 70
0
  0
VERTEX
  5
8C
  8
CUT
 10
95.58805549169449
 20
441.7751191210802
 30
0.0
 70
0
  0
VERTEX
  5
8D
  8
CUT
 10
90.92052080873367
 20
437.66433522819864
 30
0.0
 70
0
  0
VERTEX
  5
8E
  8
CUT
 10
86.35862136691901
 20
433.436629264749
 30
0.0
 70
0
  0
VERTEX
  5
8F
  8
CUT
 10
81.9052852187026
 20
429.0947147812974
 30
0.0
 70
0
  0
VERTEX
  5
90
  8
CUT
 10
77.56337073525103
 20
424.641378633081
 30
0.0
 70
0
  0
VERTEX
  5
91
  8
CUT
 10
73.33566477180136
 20
420.0794791912664
 30
0.0
 70
0
  0
VERTEX
  5
92
  8
CUT
 10
69.22488087891983
 20
415.41194450830557
 30
0.0
 70
0
  0
VERTEX
  5
93
  8
CUT
 10
65.23365756081088
 20
410.6417704385676
 30
0.0
 70
0
  0
VERTEX
  5
94
  8
CUT
 10
61.36455658179503
 20
405.7720187154513
 30
0.0
 70
0
  0
VERTEX
  5
95
  8
CUT
 10
57.62006132204175
 20
400.8058149862127
 30
0.0
 70
0
  0
VERTEX
  5
96
  8
CUT
 10
54.00257518361366
 20
395.7463468057715
 30
0.0
 70
0
  0
VERTEX
  5
97
  8
CUT
 10
50.51442004784403
 20
390.59686159077955
 30
0.0
 70
0
  0
VERTEX
  5
98
  8
CUT
 10
47.15783478503869
 20
385.36066453526934
 30
0.0
 70
0
  0
VERTEX
  5
99
  8
CUT
 10
43.934973817458626
 20
380.0411164892164
 30
0.0
 70
0
  0
VERTEX
  5
9A
  8
CUT
 10
40.84790573650508
 20
374.6416318013804
 30
0.0
 70
0
  0
VERTEX
  5
9B
  8
CUT
 10
37.898611974995816
 20
369.16567612780716
 30
0.0
 70
0
  0
VERTEX
  5
9C
  8
CUT
 10
35.08898553538293
 20
363.6167642073993
 30
0.0
 70
0
  0
VERTEX
  5
9D
  8
CUT
 10
32.42082977473109
 20
357.998457605983
 30
0.0
 70
0
  0
VERTEX
  5
9E
  8
CUT
 10
29.89585724723338
 20
352.3143624303197
 30
0.0
 70
0
  0
VERTEX
  5
9F
  8
CUT
 10
27.515688605009643
 20
346.56812701352806
 30
0.0
 70
0
  0
VERTEX
  5
A0
  8
CUT
 10
25.28185155789174
 20
340.76343957340333
 30
0.0
 70
0
  0
VERTEX
  5
A1
  8
CUT
 10
23.19577989286404
 20
334.90402584513794
 30
0.0
 70
0
  0
VERTEX
  5
A2
  8
CUT
 10
21.258812553788005
 20
328.9936466899594
 30
0.0
 70
0
  0
VERTEX
  5
A3
  8
CUT
 10
19.472192782001855
 20
323.0360956812244
 30
0.0
 70
0
  0
VERTEX
  5
A4
  8
CUT
 10
17.837067318346868
 20
317.0351966695159
 30
0.0
 70
0
  0
VERTEX
  5
A5
  8
CUT
 10
16.35448566713248
 20
310.9948013283069
 30
0.0
 70
0
  0
VERTEX
  5
A6
  8
CUT
 10
15.025399422512606
 20
304.91878668176605
 30
0.0
 70
0
  0
VERTEX
  5
A7
  8
CUT
 10
13.850661657705388
 20
298.81105261629205
 30
0.0
 70
0
  0
VERTEX
  5
A8
  8
CUT
 10
12.831026377448666
 20
292.67551937737363
 30
0.0
 70
0
  0
VERTEX
  5
A9
  8
CUT
 10
11.967148034042623
 20
286.51612505338284
 30
0.0
 70
0
  0
VERTEX
  5
AA
  8
CUT
 10
11.259581107289762
 20
280.3368230479147
 30
0.0
 70
0
  0
VERTEX
  5
AB
  8
CUT
 10
10.708779748602524
 20
274.1415795422979
 30
0.0
 70
0
  0
VERTEX
  5
AC
  8
CUT
 10
10.315097489506542
 20
267.93437094990395
 30
0.0
 70
0
  0
VERTEX
  5
AD
  8
CUT
 10
10.078787014726316
 20
261.7191813638876
 30
0.0
 70
0
  0
VERTEX
  5
AE
  8
CUT
 10
10.0
 20
255.5
 30
0.0
 70
0
  0
VERTEX
  5
AF
  8
CUT
 10
10.078787014726316
 20
249.28081863611243
 30
0.0
 70
0
  0
VERTEX
  5
B0
  8
CUT
 10
10.315097489506542
 20
243.065629050096
 30
0.0
 70
0
  0
VERTEX
  5
B1
  8
CUT
 10
10.708779748602524
 20
236.85842045770204
 30
0.0
 70
0
  0
VERTEX
  5
B2
  8
CUT
 10
11.259581107289733
 20
230.66317695208542
 30
0.0
 70
0
  0
VERTEX
  5
B3
  8
CUT
 10
11.967148034042594
 20
224.48387494661733
 30
0.0
 70
0
  0
VERTEX
  5
B4
  8
CUT
 10
12.831026377448666
 20
218.32448062262642
 30
0.0
 70
0
  0
VERTEX
  5
B5
  8
CUT
 10
13.85066165770536
 20
212.18894738370804
 30
0.0
 70
0
  0
VERTEX
  5
B6
  8
CUT
 10
15.025399422512606
 20
206.081213318234
 30
0.0
 70
0
  0
VERTEX
  5
B7
  8
CUT
 10
16.35448566713245
 20
200.00519867169317
 30
0.0
 70
0
  0
VERTEX
  5
B8
  8
CUT
 10
17.83706731834684
 20
193.9648033304841
 30
0.0
 70
0
  0
VERTEX
  5
B9
  8
CUT
 10
19.472192782001827
 20
187.96390431877563
 30
0.0
 70
0
  0
VERTEX
  5
BA
  8
CUT
 10
21.258812553787976
 20
182.00635331004065
 30
0.0
 70
0
  0
VERTEX
  5
BB
  8
CUT
 10
23.19577989286401
 20
176.09597415486212
 30
0.0
 70
0
  0
VERTEX
  5
BC
  8
CUT
 10
25.28185155789177
 20
170.2365604265966
 30
0.0
 70
0
  0
VERTEX
  5
BD
  8
CUT
 10
27.515688605009615
 20
164.43187298647203
 30
0.0
 70
0
  0
VERTEX
  5
BE
  8
CUT
 10
29.89585724723335
 20
158.68563756968035
 30
0.0
 70
0
  0
VERTEX
  5
BF
  8
CUT
 10
32.42082977473106
 20
153.00154239401706
 30
0.0
 70
0
  0
VERTEX
  5
C0
  8
CUT
 10
35.0889855353829
 20
147.38323579260077
 30
0.0
 70
0
  0
VERTEX
  5
C1
  8
CUT
 10
37.89861197499579
 20
141.83432387219287
 30
0.0
 70
0
  0
VERTEX
  5
C2
  8
CUT
 10
40.84790573650508
 20
136.35836819861964
 30
0.0
 70
0
  0
VERTEX
  5
C3
  8
CUT
 10
43.9349738174586
 20
130.95888351078364
 30
0.0
 70
0
  0
VERTEX
  5
C4
  8
CUT
 10
47.15783478503866
 20
125.63933546473072
 30
0.0
 70
0
  0
VERTEX
  5
C5
  8
CUT
 10
50.51442004784397
 20
120.40313840922042
 30
0.0
 70
0
  0
VERTEX
  5
C6
  8
CUT
 10
54.00257518361363
 20
115.25365319422855
 30
0.0
 70
0
  0
VERTEX
  5
C7
  8
CUT
 10
57.62006132204172
 20
110.19418501378732
 30
0.0
 70
0
  0
VERTEX
  5
C8
  8
CUT
 10
61.36455658179497
 20
105.22798128454878
 30
0.0
 70
0
  0
VERTEX
  5
C9
  8
CUT
 10
65.23365756081085
 20
100.35822956143238
 30
0.0
 70
0
  0
VERTEX
  5
CA
  8
CUT
 10
69.22488087891978
 20
95.58805549169449
 30
0.0
 70
0
  0
VERTEX
  5
CB
  8
CUT
 10
73.33566477180139
 20
90.92052080873358
 30
0.0
 70
0
  0
VERTEX
  5
CC
  8
CUT
 10
77.56337073525106
 20
86.35862136691895
 30
0.0
 70
0
  0
VERTEX
  5
CD
  8
CUT
 10
81.90528521870255
 20
81.9052852187026
 30
0.0
 70
0
  0
VERTEX
  5
CE
  8
CUT
 10
86.3586213669189
 20
77.56337073525108
 30
0.0
 70
0
  0
VERTEX
  5
CF
  8
CUT
 10
90.92052080873356
 20
73.33566477180145
 30
0.0
 70
0
  0
VERTEX
  5
D0
  8
CUT
 10
95.58805549169435
 20
69.22488087891992
 30
0.0
 70
0
  0
VERTEX
  5
D1
  8
CUT
 10
100.35822956143241
 20
65.23365756081083
 30
0.0
 70
0
  0
VERTEX
  5
D2
  8
CUT
 10
105.2279812845488
 20
61.36455658179497
 30
0.0
 70
0
  0
VERTEX
  5
D3
  8
CUT
 10
110.19418501378726
 20
57.62006132204178
 30
0.0
 70
0
  0
VERTEX
  5
D4
  8
CUT
 10
115.25365319422849
 20
54.00257518361366
 30
0.0
 70
0
  0
VERTEX
  5
D5
  8
CUT
 10
120.40313840922039
 20
50.51442004784403
 30
0.0
 70
0
  0
VERTEX
  5
D6
  8
CUT
 10
125.63933546473066
 20
47.15783478503869
 30
0.0
 70
0
  0
VERTEX
  5
D7
  8
CUT
 10
130.95888351078355
 20
43.934973817458626
 30
0.0
 70
0
  0
VERTEX
  5
D8
  8
CUT
 10
136.3583681986197
 20
40.847905736505055
 30
0.0
 70
0
  0
VERTEX
  5
D9
  8
CUT
 10
141.8343238721927
 20
37.89861197499587
 30
0.0
 70
0
  0
VERTEX
  5
DA
  8
CUT
 10
147.3832357926008
 20
35.0889855353829
 30
0.0
 70
0
  0
VERTEX
  5
DB
  8
CUT
 10
153.001542394017
 20
32.42082977473109
 30
0.0
 70
0
  0
VERTEX
  5
DC
  8
CUT
 10
158.68563756968027
 20
29.89585724723338
 30
0.0
 70
0
  0
VERTEX
  5
DD
  8
CUT
 10
164.43187298647194
 20
27.515688605009643
 30
0.0
 70
0
  0
VERTEX
  5
DE
  8
CUT
 10
170.23656042659655
 20
25.281851557891798
 30
0.0
 70
0
  0
VERTEX
  5
DF
  8
CUT
 10
176.09597415486195
 20
23.195779892864095
 30
0.0
 70
0
  0
VERTEX
  5
E0
  8
CUT
 10
182.00635331004048
 20
21.258812553788033
 30
0.0
 70
0
  0
VERTEX
  5
E1
  8
CUT
 10
187.9639043187757
 20
19.472192782001827
 30
0.0
 70
0
  0
VERTEX
  5
E2
  8
CUT
 10
193.96480333048413
 20
17.83706731834684
 30
0.0
 70
0
  0
VERTEX
  5
E3
  8
CUT
 10
200.00519867169308
 20
16.35448566713248
 30
0.0
 70
0
  0
VERTEX
  5
E4
  8
CUT
 10
206.08121331823392
 20
15.025399422512606
 30
0.0
 70
0
  0
VERTEX
  5
E5
  8
CUT
 10
212.18894738370795
 20
13.850661657705388
 30
0.0
 70
0
  0
VERTEX
  5
E6
  8
CUT
 10
218.32448062262634
 20
12.831026377448666
 30
0.0
 70
0
  0
VERTEX
  5
E7
  8
CUT
 10
224.48387494661716
 20
11.967148034042623
 30
0.0
 70
0
  0
VERTEX
  5
E8
  8
CUT
 10
230.66317695208548
 20
11.259581107289733
 30
0.0
 70
0
  0
VERTEX
  5
E9
  8
CUT
 10
236.85842045770187
 20
10.708779748602552
 30
0.0
 70
0
  0
VERTEX
  5
EA
  8
CUT
 10
243.06562905009605
 20
10.315097489506542
 30
0.0
 70
0
  0
VERTEX
  5
EB
  8
CUT
 10
249.28081863611234
 20
10.078787014726316
 30
0.0
 70
0
  0
VERTEX
  5
EC
  8
CUT
 10
255.49999999999994
 20
10.0
 30
0.0
 70
0
  0
VERTEX
  5
ED
  8
CUT
 10
261.71918136388757
 20
10.078787014726316
 30
0.0
 70
0
  0
VERTEX
  5
EE
  8
CUT
 10
267.9343709499039
 20
10.315097489506513
 30
0.0
 70
0
  0
VERTEX
  5
EF
  8
CUT
 10
274.14157954229785
 20
10.708779748602524
 30
0.0
 70
0
  0
VERTEX
  5
F0
  8
CUT
 10
280.33682304791444
 20
11.259581107289705
 30
0.0
 70
0
  0
VERTEX
  5
F1
  8
CUT
 10
286.5161250533827
 20
11.967148034042594
 30
0.0
 70
0
  0
VERTEX
  5
F2
  8
CUT
 10
292.6755193773736
 20
12.831026377448666
 30
0.0
 70
0
  0
VERTEX
  5
F3
  8
CUT
 10
298.81105261629193
 20
13.85066165770536
 30
0.0
 70
0
  0
VERTEX
  5
F4
  8
CUT
 10
304.918786681766
 20
15.025399422512606
 30
0.0
 70
0
  0
VERTEX
  5
F5
  8
CUT
 10
310.99480132830683
 20
16.35448566713245
 30
0.0
 70
0
  0
VERTEX
  5
F6
  8
CUT
 10
317.0351966695158
 20
17.83706731834681
 30
0.0
 70
0
  0
VERTEX
  5
F7
  8
CUT
 10
323.03609568122425
 20
19.472192782001798
 30
0.0
 70
0
  0
VERTEX
  5
F8
  8
CUT
 10
328.9936466899594
 20
21.258812553788005
 30
0.0
 70
0
  0
VERTEX
  5
F9
  8
CUT
 10
334.904025845138
 20
23.195779892864067
 30
0.0
 70
0
  0
VERTEX
  5
FA
  8
CUT
 10
340.7634395734034
 20
25.28185155789177
 30
0.0
 70
0
  0
VERTEX
  5
FB
  8
CUT
 10
346.56812701352794
 20
27.515688605009615
 30
0.0
 70
0
  0
VERTEX
  5
FC
  8
CUT
 10
352.31436243031965
 20
29.89585724723335
 30
0.0
 70
0
  0
VERTEX
  5
FD
  8
CUT
 10
357.9984576059831
 20
32.420829774731146
 30
0.0
 70
0
  0
VERTEX
  5
FE
  8
CUT
 10
363.6167642073991
 20
35.088985535382875
 30
0.0
 70
0
  0
VERTEX
  5
FF
  8
CUT
 10
369.1656761278072
 20
37.898611974995816
 30
0.0
 70
0
  0
VERTEX
  5
100
  8
CUT
 10
374.64163180138024
 20
40.84790573650503
 30
0.0
 70
0
  0
VERTEX
  5
101
  8
CUT
 10
380.0411164892164
 20
43.93497381745857
 30
0.0
 70
0
  0
VERTEX
  5
102
  8
CUT
 10
385.3606645352693
 20
47.15783478503863
 30
0.0
 70
0
  0
VERTEX
  5
103
  8
CUT
 10
390.59686159077955
 20
50.51442004784397
 30
0.0
 70
0
  0
VERTEX
  5
104
  8
CUT
 10
395.74634680577145
 20
54.00257518361363
 30
0.0
 70
0
  0
VERTEX
  5
105
  8
CUT
 10
400.8058149862127
 20
57.62006132204172
 30
0.0
 70
0
  0
VERTEX
  5
106
  8
CUT
 10
405.77201871545117
 20
61.364556581794915
 30
0.0
 70
0
  0
VERTEX
  5
107
  8
CUT
 10
410.6417704385675
 20
65.23365756081077
 30
0.0
 70
0
  0
VERTEX
  5
108
  8
CUT
 10
415.41194450830557
 20
69.22488087891983
 30
0.0
 70
0
  0
VERTEX
  5
109
  8
CUT
 10
420.0794791912662
 20
73.33566477180128
 30
0.0
 70
0
  0
VERTEX
  5
10A
  8
CUT
 10
424.64137863308105
 20
77.56337073525106
 30
0.0
 70
0
  0
VERTEX
  5
10B
  8
CUT
 10
429.0947147812974
 20
81.90528521870255
 30
0.0
 70
0
  0
VERTEX
  5
10C
  8
CUT
 10
433.43662926474894
 20
86.35862136691887
 30
0.0
 70
0
  0
VERTEX
  5
10D
  8
CUT
 10
437.66433522819864
 20
90.9205208087337
 30
0.0
 70
0
  0
VERTEX
  5
10E
  8
CUT
 10
441.7751191210801
 20
95.58805549169435
 30
0.0
 70
0
  0
VERTEX
  5
10F
  8
CUT
 10
445.76634243918915
 20
100.35822956143241
 30
0.0
 70
0
  0
VERTEX
  5
110
  8
CUT
 10
449.6354434182049
 20
105.22798128454863
 30
0.0
 70
0
  0
VERTEX
  5
111
  8
CUT
 10
453.3799386779582
 20
110.19418501378726
 30
0.0
 70
0
  0
VERTEX
  5
112
  8
CUT
 10
456.99742481638634
 20
115.25365319422846
 30
0.0
 70
0
  0
VERTEX
  5
113
  8
CUT
 10
460.48557995215594
 20
120.40313840922039
 30
0.0
 70
0
  0
VERTEX
  5
114
  8
CUT
 10
463.8421652149613
 20
125.63933546473066
 30
0.0
 70
0
  0
VERTEX
  5
115
  8
CUT
 10
467.0650261825414
 20
130.95888351078355
 30
0.0
 70
0
  0
VERTEX
  5
116
  8
CUT
 10
470.152094263495
 20
136.35836819861967
 30
0.0
 70
0
  0
VERTEX
  5
117
  8
CUT
 10
473.1013880250041
 20
141.83432387219267
 30
0.0
 70
0
  0
VERTEX
  5
118
  8
CUT
 10
475.9110144646171
 20
147.38323579260077
 30
0.0
 70
0
  0
VERTEX
  5
119
  8
CUT
 10
478.5791702252689
 20
153.001542394017
 30
0.0
 70
0
  0
VERTEX
  5
11A
  8
CUT
 10
481.1041427527666
 20
158.68563756968024
 30
0.0
 70
0
  0
VERTEX
  5
11B
  8
CUT
 10
483.48431139499036
 20
164.43187298647194
 30
0.0
 70
0
  0
VERTEX
  5
11C
  8
CUT
 10
485.7181484421082
 20
170.23656042659653
 30
0.0
 70
0
  0
VERTEX
  5
11D
  8
CUT
 10
487.80422010713596
 20
176.09597415486212
 30
0.0
 70
0
  0
VERTEX
  5
11E
  8
CUT
 10
489.74118744621194
 20
182.00635331004048
 30
0.0
 70
0
  0
VERTEX
  5
11F
  8
CUT
 10
491.5278072179982
 20
187.96390431877566
 30
0.0
 70
0
  0
VERTEX
  5
120
  8
CUT
 10
493.1629326816531
 20
193.9648033304839
 30
0.0
 70
0
  0
VERTEX
  5
121
  8
CUT
 10
494.6455143328675
 20
200.00519867169308
 30
0.0
 70
0
  0
VERTEX
  5
122
  8
CUT
 10
495.9746005774874
 20
206.0812133182339
 30
0.0
 70
0
  0
VERTEX
  5
123
  8
CUT
 10
497.14933834229464
 20
212.18894738370795
 30
0.0
 70
0
  0
VERTEX
  5
124
  8
CUT
 10
498.16897362255133
 20
218.3244806226263
 30
0.0
 70
0
  0
VERTEX
  5
125
  8
CUT
 10
499.0328519659574
 20
224.48387494661716
 30
0.0
 70
0
  0
VERTEX
  5
126
  8
CUT
 10
499.74041889271024
 20
230.66317695208522
 30
0.0
 70
0
  0
VERTEX
  5
127
  8
CUT
 10
500.2912202513975
 20
236.85842045770207
 30
0.0
 70
0
  0
VERTEX
  5
128
  8
CUT
 10
500.68490251049343
 20
243.06562905009602
 30
0.0
 70
0
  0
VERTEX
  5
129
  8
CUT
 10
500.92121298527366
 20
249.28081863611234
 30
0.0
 70
0
  0
SEQEND
  5
31
  8
CUT
  0
POLYLINE
  5
12A
  8
CUT
 66
1
 10
0.0
 20
0.0
 30
0.0
 70
1
  0
VERTEX
  5
12C
  8
CUT
 10
55.0
 20
255.5
 30
0.0
 70
0
  0
VERTEX
  5
12D
  8
CUT
 10
55.078871410197905
 20
261.1232743833117
 30
0.0
 70
0
  0
VERTEX
  5
12E
  8
CUT
 10
55.31542358892776
 20
266.74212467105696
 30
0.0
 70
0
  0
VERTEX
  5
12F
  8
CUT
 10
55.709470429417365
 20
272.3521302483142
 30
0.0
 70
0
  0
VERTEX
  5
130
  8
CUT
 10
56.260701916404855
 20
277.94887745871324
 30
0.0
 70
0
  0
VERTEX
  5
131
  8
CUT
 10
56.96868437004264
 20
283.52796307686765
 30
0.0
 70
0
  0
VERTEX
  5
132
  8
CUT
 10
57.83286078709369
 20
289.08499777259965
 30
0.0
 70
0
  0
VERTEX
  5
133
  8
CUT
 10
58.852551279152294
 20
294.6156095642338
 30
0.0
 70
0
  0
VERTEX
  5
134
  8
CUT
 10
60.02695360754436
 20
300.11544725824103
 30
0.0
 70
0
  0
VERTEX
  5
135
  8
CUT
 10
61.35514381448658
 20
305.58018387252895
 30
0.0
 70
0
  0
VERTEX
  5
136
  8
CUT
 10
62.836076950007566
 20
311.0055200406823
 30
0.0
 70
0
  0
VERTEX
  5
137
  8
CUT
 10
64.46858789405928
 20
316.38718739447773
 30
0.0
 70
0
  0
VERTEX
  5
138
  8
CUT
 10
66.25139227317231
 20
321.720951922011
 30
0.0
 70
0
  0
VERTEX
  5
139
  8
CUT
 10
68.18308747093275
 20
327.00261729879384
 30
0.0
 70
0
  0
VERTEX
  5
13A
  8
CUT
 10
70.26215373148702
 20
332.22802818920053
 30
0.0
 70
0
  0
VERTEX
  5
13B
  8
CUT
 10
72.48695535520557
 20
337.3930735156672
 30
0.0
 70
0
  0
VERTEX
  5
13C
  8
CUT
 10
74.85574198556498
 20
342.49368969307045
 30
0.0
 70
0
  0
VERTEX
  5
13D
  8
CUT
 10
77.36664998623613
 20
347.52586382574134
 30
0.0
 70
0
  0
VERTEX
  5
13E
  8
CUT
 10
80.01770390729487
 20
352.48563686460056
 30
0.0
 70
0
  0
VERTEX
  5
13F
  8
CUT
 10
82.80681803940206
 20
357.3691067219292
 30
0.0
 70
0
  0
VERTEX
  5
140
  8
CUT
 10
85.73179805472904
 20
362.172431341325
 30
0.0
 70
0
  0
VERTEX
  5
141
  8
CUT
 10
88.79034273333966
 20
366.8918317204302
 30
0.0
 70
0
  0
VERTEX
  5
142
  8
CUT
 10
91.98004577366834
 20
371.5235948840511
 30
0.0
 70
0
  0
VERTEX
  5
143
  8
CUT
 10
95.29839768567112
 20
376.0640768053304
 30
0.0
 70
0
  0
VERTEX
  5
144
  8
CUT
 10
98.74278776516002
 20
380.5097052726761
 30
0.0
 70
0
  0
VERTEX
  5
145
  8
CUT
 10
102.31050614776771
 20
384.85698270018855
 30
0.0
 70
0
  0
VERTEX
  5
146
  8
CUT
 10
105.99874594092529
 20
389.1024888793768
 30
0.0
 70
0
  0
VERTEX
  5
147
  8
CUT
 10
109.80460543217762
 20
393.2428836699978
 30
0.0
 70
0
  0
VERTEX
  5
148
  8
CUT
 10
113.72509037209724
 20
397.2749096279028
 30
0.0
 70
0
  0
VERTEX
  5
149
  8
CUT
 10
117.75711633000222
 20
401.1953945678224
 30
0.0
 70
0
  0
VERTEX
  5
14A
  8
CUT
 10
121.89751112062322
 20
405.0012540590747
 30
0.0
 70
0
  0
VERTEX
  5
14B
  8
CUT
 10
126.14301729981148
 20
408.6894938522323
 30
0.0
 70
0
  0
VERTEX
  5
14C
  8
CUT
 10
130.49029472732394
 20
412.25721223484004
 30
0.0
 70
0
  0
VERTEX
  5
14D
  8
CUT
 10
134.9359231946696
 20
415.7016023143289
 30
0.0
 70
0
  0
VERTEX
  5
14E
  8
CUT
 10
139.47640511594895
 20
419.01995422633166
 30
0.0
 70
0
  0
VERTEX
  5
14F
  8
CUT
 10
144.1081682795698
 20
422.2096572666604
 30
0.0
 70
0
  0
VERTEX
  5
150
  8
CUT
 10
148.82756865867503
 20
425.268201945271
 30
0.0
 70
0
  0
VERTEX
  5
151
  8
CUT
 10
153.63089327807083
 20
428.19318196059794
 30
0.0
 70
0
  0
VERTEX
  5
152
  8
CUT
 10
158.51436313539944
 20
430.98229609270516
 30
0.0
 70
0
  0
VERTEX
  5
153
  8
CUT
 10
163.47413617425875
 20
433.6333500137639
 30
0.0
 70
0
  0
VERTEX
  5
154
  8
CUT
 10
168.5063103069296
 20
436.1442580144351
 30
0.0
 70
0
  0
VERTEX
  5
155
  8
CUT
 10
173.6069264843328
 20
438.51304464479443
 30
0.0
 70
0
  0
VERTEX
  5
156
  8
CUT
 10
178.77197181079953
 20
440.73784626851295
 30
0.0
 70
0
  0
VERTEX
  5
157
  8
CUT
 10
183.99738270120625
 20
442.8169125290673
 30
0.0
 70
0
  0
VERTEX
  5
158
  8
CUT
 10
189.279048077989
 20
444.7486077268277
 30
0.0
 70
0
  0
VERTEX
  5
159
  8
CUT
 10
194.61281260552227
 20
446.5314121059407
 30
0.0
 70
0
  0
VERTEX
  5
15A
  8
CUT
 10
199.99447995931772
 20
448.1639230499925
 30
0.0
 70
0
  0
VERTEX
  5
15B
  8
CUT
 10
205.41981612747102
 20
449.6448561855134
 30
0.0
 70
0
  0
VERTEX
  5
15C
  8
CUT
 10
210.88455274175897
 20
450.9730463924557
 30
0.0
 70
0
  0
VERTEX
  5
15D
  8
CUT
 10
216.3843904357663
 20
452.1474487208477
 30
0.0
 70
0
  0
VERTEX
  5
15E
  8
CUT
 10
221.91500222740035
 20
453.1671392129063
 30
0.0
 70
0
  0
VERTEX
  5
15F
  8
CUT
 10
227.47203692313238
 20
454.03131562995736
 30
0.0
 70
0
  0
VERTEX
  5
160
  8
CUT
 10
233.05112254128682
 20
454.73929808359514
 30
0.0
 70
0
  0
VERTEX
  5
161
  8
CUT
 10
238.64786975168587
 20
455.29052957058263
 30
0.0
 70
0
  0
VERTEX
  5
162
  8
CUT
 10
244.25787532894304
 20
455.68457641107227
 30
0.0
 70
0
  0
VERTEX
  5
163
  8
CUT
 10
249.87672561668828
 20
455.9211285898021
 30
0.0
 70
0
  0
VERTEX
  5
164
  8
CUT
 10
255.5
 20
456.0
 30
0.0
 70
0
  0
VERTEX
  5
165
  8
CUT
 10
261.12327438331175
 20
455.9211285898021
 30
0.0
 70
0
  0
VERTEX
  5
166
  8
CUT
 10
266.74212467105696
 20
455.68457641107227
 30
0.0
 70
0
  0
VERTEX
  5
167
  8
CUT
 10
272.35213024831415
 20
455.29052957058263
 30
0.0
 70
0
  0
VERTEX
  5
168
  8
CUT
 10
277.9488774587132
 20
454.73929808359514
 30
0.0
 70
0
  0
VERTEX
  5
169
  8
CUT
 10
283.52796307686765
 20
454.03131562995736
 30
0.0
 70
0
  0
VERTEX
  5
16A
  8
CUT
 10
289.08499777259965
 20
453.1671392129063
 30
0.0
 70
0
  0
VERTEX
  5
16B
  8
CUT
 10
294.61560956423375
 20
452.1474487208477
 30
0.0
 70
0
  0
VERTEX
  5
16C
  8
CUT
 10
300.11544725824103
 20
450.9730463924557
 30
0.0
 70
0
  0
VERTEX
  5
16D
  8
CUT
 10
305.580183872529
 20
449.6448561855134
 30
0.0
 70
0
  0
VERTEX
  5
16E
  8
CUT
 10
311.0055200406823
 20
448.16392304999243
 30
0.0
 70
0
  0
VERTEX
  5
16F
  8
CUT
 10
316.3871873944778
 20
446.5314121059407
 30
0.0
 70
0
  0
VERTEX
  5
170
  8
CUT
 10
321.72095192201107
 20
444.7486077268277
 30
0.0
 70
0
  0
VERTEX
  5
171
  8
CUT
 10
327.0026172987938
 20
442.8169125290673
 30
0.0
 70
0
  0
VERTEX
  5
172
  8
CUT
 10
332.22802818920053
 20
440.73784626851295
 30
0.0
 70
0
  0
VERTEX
  5
173
  8
CUT
 10
337.39307351566725
 20
438.51304464479443
 30
0.0
 70
0
  0
VERTEX
  5
174
  8
CUT
 10
342.4936896930704
 20
436.1442580144351
 30
0.0
 70
0
  0
VERTEX
  5
175
  8
CUT
 10
347.5258638257413
 20
433.6333500137639
 30
0.0
 70
0
  0
VERTEX
  5
176
  8
CUT
 10
352.48563686460056
 20
430.98229609270516
 30
0.0
 70
0
  0
VERTEX
  5
177
  8
CUT
 10
357.36910672192914
 20
428.19318196059805
 30
0.0
 70
0
  0
VERTEX
  5
178
  8
CUT
 10
362.17243134132497
 20
425.26820194527096
 30
0.0
 70
0
  0
VERTEX
  5
179
  8
CUT
 10
366.8918317204303
 20
422.2096572666603
 30
0.0
 70
0
  0
VERTEX
  5
17A
  8
CUT
 10
371.523594884051
 20
419.01995422633166
 30
0.0
 70
0
  0
VERTEX
  5
17B
  8
CUT
 10
376.0640768053304
 20
415.7016023143289
 30
0.0
 70
0
  0
VERTEX
  5
17C
  8
CUT
 10
380.5097052726761
 20
412.25721223484
 30
0.0
 70
0
  0
VERTEX
  5
17D
  8
CUT
 10
384.85698270018855
 20
408.6894938522323
 30
0.0
 70
0
  0
VERTEX
  5
17E
  8
CUT
 10
389.1024888793768
 20
405.0012540590747
 30
0.0
 70
0
  0
VERTEX
  5
17F
  8
CUT
 10
393.2428836699978
 20
401.1953945678224
 30
0.0
 70
0
  0
VERTEX
  5
180
  8
CUT
 10
397.2749096279028
 20
397.27490962790273
 30
0.0
 70
0
  0
VERTEX
  5
181
  8
CUT
 10
401.19539456782246
 20
393.24288366999775
 30
0.0
 70
0
  0
VERTEX
  5
182
  8
CUT
 10
405.0012540590747
 20
389.1024888793768
 30
0.0
 70
0
  0
VERTEX
  5
183
  8
CUT
 10
408.6894938522323
 20
384.8569827001886
 30
0.0
 70
0
  0
VERTEX
  5
184
  8
CUT
 10
412.2572122348399
 20
380.5097052726761
 30
0.0
 70
0
  0
VERTEX
  5
185
  8
CUT
 10
415.70160231432897
 20
376.06407680533033
 30
0.0
 70
0
  0
VERTEX
  5
186
  8
CUT
 10
419.01995422633166
 20
371.523594884051
 30
0.0
 70
0
  0
VERTEX
  5
187
  8
CUT
 10
422.2096572666603
 20
366.8918317204303
 30
0.0
 70
0
  0
VERTEX
  5
188
  8
CUT
 10
425.26820194527096
 20
362.17243134132497
 30
0.0
 70
0
  0
VERTEX
  5
189
  8
CUT
 10
428.19318196059794
 20
357.3691067219292
 30
0.0
 70
0
  0
VERTEX
  5
18A
  8
CUT
 10
430.98229609270516
 20
352.48563686460056
 30
0.0
 70
0
  0
VERTEX
  5
18B
  8
CUT
 10
433.6333500137639
 20
347.5258638257413
 30
0.0
 70
0
  0
VERTEX
  5
18C
  8
CUT
 10
436.1442580144351
 20
342.4936896930704
 30
0.0
 70
0
  0
VERTEX
  5
18D
  8
CUT
 10
438.5130446447944
 20
337.39307351566725
 30
0.0
 70
0
  0
VERTEX
  5
18E
  8
CUT
 10
440.73784626851295
 20
332.2280281892005
 30
0.0
 70
0
  0
VERTEX
  5
18F
  8
CUT
 10
442.8169125290673
 20
327.0026172987937
 30
0.0
 70
0
  0
VERTEX
  5
190
  8
CUT
 10
444.7486077268277
 20
321.720951922011
 30
0.0
 70
0
  0
VERTEX
  5
191
  8
CUT
 10
446.5314121059407
 20
316.3871873944777
 30
0.0
 70
0
  0
VERTEX
  5
192
  8
CUT
 10
448.1639230499925
 20
311.0055200406823
 30
0.0
 70
0
  0
VERTEX
  5
193
  8
CUT
 10
449.6448561855134
 20
305.580183872529
 30
0.0
 70
0
  0
VERTEX
  5
194
  8
CUT
 10
450.9730463924557
 20
300.1154472582409
 30
0.0
 70
0
  0
VERTEX
  5
195
  8
CUT
 10
452.1474487208477
 20
294.6156095642337
 30
0.0
 70
0
  0
VERTEX
  5
196
  8
CUT
 10
453.1671392129063
 20
289.08499777259965
 30
0.0
 70
0
  0
VERTEX
  5
197
  8
CUT
 10
454.03131562995736
 20
283.5279630768677
 30
0.0
 70
0
  0
VERTEX
  5
198
  8
CUT
 10
454.73929808359514
 20
277.94887745871324
 30
0.0
 70
0
  0
VERTEX
  5
199
  8
CUT
 10
455.29052957058263
 20
272.35213024831415
 30
0.0
 70
0
  0
VERTEX
  5
19A
  8
CUT
 10
455.68457641107227
 20
266.74212467105696
 30
0.0
 70
0
  0
VERTEX
  5
19B
  8
CUT
 10
455.9211285898021
 20
261.1232743833117
 30
0.0
 70
0
  0
VERTEX
  5
19C
  8
CUT
 10
456.0
 20
255.5
 30
0.0
 70
0
  0
VERTEX
  5
19D
  8
CUT
 10
455.9211285898021
 20
249.87672561668828
 30
0.0
 70
0
  0
VERTEX
  5
19E
  8
CUT
 10
455.68457641107227
 20
244.25787532894304
 30
0.0
 70
0
  0
VERTEX
  5
19F
  8
CUT
 10
455.29052957058263
 20
238.64786975168587
 30
0.0
 70
0
  0
VERTEX
  5
1A0
  8
CUT
 10
454.73929808359514
 20
233.0511225412868
 30
0.0
 70
0
  0
VERTEX
  5
1A1
  8
CUT
 10
454.03131562995736
 20
227.47203692313235
 30
0.0
 70
0
  0
VERTEX
  5
1A2
  8
CUT
 10
453.1671392129063
 20
221.91500222740035
 30
0.0
 70
0
  0
VERTEX
  5
1A3
  8
CUT
 10
452.1474487208477
 20
216.38439043576628
 30
0.0
 70
0
  0
VERTEX
  5
1A4
  8
CUT
 10
450.9730463924557
 20
210.88455274175897
 30
0.0
 70
0
  0
VERTEX
  5
1A5
  8
CUT
 10
449.6448561855134
 20
205.41981612747102
 30
0.0
 70
0
  0
VERTEX
  5
1A6
  8
CUT
 10
448.1639230499925
 20
199.9944799593177
 30
0.0
 70
0
  0
VERTEX
  5
1A7
  8
CUT
 10
446.5314121059407
 20
194.61281260552227
 30
0.0
 70
0
  0
VERTEX
  5
1A8
  8
CUT
 10
444.7486077268277
 20
189.279048077989
 30
0.0
 70
0
  0
VERTEX
  5
1A9
  8
CUT
 10
442.8169125290673
 20
183.99738270120622
 30
0.0
 70
0
  0
VERTEX
  5
1AA
  8
CUT
 10
440.73784626851295
 20
178.7719718107995
 30
0.0
 70
0
  0
VERTEX
  5
1AB
  8
CUT
 10
438.51304464479443
 20
173.6069264843328
 30
0.0
 70
0
  0
VERTEX
  5
1AC
  8
CUT
 10
436.1442580144351
 20
168.5063103069296
 30
0.0
 70
0
  0
VERTEX
  5
1AD
  8
CUT
 10
433.6333500137639
 20
163.4741361742587
 30
0.0
 70
0
  0
VERTEX
  5
1AE
  8
CUT
 10
430.98229609270516
 20
158.51436313539944
 30
0.0
 70
0
  0
VERTEX
  5
1AF
  8
CUT
 10
428.193181960598
 20
153.63089327807086
 30
0.0
 70
0
  0
VERTEX
  5
1B0
  8
CUT
 10
425.26820194527096
 20
148.82756865867503
 30
0.0
 70
0
  0
VERTEX
  5
1B1
  8
CUT
 10
422.2096572666603
 20
144.10816827956978
 30
0.0
 70
0
  0
VERTEX
  5
1B2
  8
CUT
 10
419.0199542263317
 20
139.47640511594898
 30
0.0
 70
0
  0
VERTEX
  5
1B3
  8
CUT
 10
415.70160231432897
 20
134.9359231946696
 30
0.0
 70
0
  0
VERTEX
  5
1B4
  8
CUT
 10
412.25721223484
 20
130.49029472732394
 30
0.0
 70
0
  0
VERTEX
  5
1B5
  8
CUT
 10
408.6894938522323
 20
126.14301729981145
 30
0.0
 70
0
  0
VERTEX
  5
1B6
  8
CUT
 10
405.0012540590747
 20
121.8975111206232
 30
0.0
 70
0
  0
VERTEX
  5
1B7
  8
CUT
 10
401.1953945678224
 20
117.75711633000222
 30
0.0
 70
0
  0
VERTEX
  5
1B8
  8
CUT
 10
397.2749096279028
 20
113.72509037209724
 30
0.0
 70
0
  0
VERTEX
  5
1B9
  8
CUT
 10
393.2428836699978
 20
109.8046054321776
 30
0.0
 70
0
  0
VERTEX
  5
1BA
  8
CUT
 10
389.1024888793768
 20
105.99874594092532
 30
0.0
 70
0
  0
VERTEX
  5
1BB
  8
CUT
 10
384.8569827001886
 20
102.31050614776771
 30
0.0
 70
0
  0
VERTEX
  5
1BC
  8
CUT
 10
380.5097052726761
 20
98.74278776516002
 30
0.0
 70
0
  0
VERTEX
  5
1BD
  8
CUT
 10
376.0640768053304
 20
95.29839768567106
 30
0.0
 70
0
  0
VERTEX
  5
1BE
  8
CUT
 10
371.523594884051
 20
91.98004577366834
 30
0.0
 70
0
  0
VERTEX
  5
1BF
  8
CUT
 10
366.8918317204303
 20
88.79034273333968
 30
0.0
 70
0
  0
VERTEX
  5
1C0
  8
CUT
 10
362.17243134132497
 20
85.73179805472904
 30
0.0
 70
0
  0
VERTEX
  5
1C1
  8
CUT
 10
357.36910672192914
 20
82.806818039402
 30
0.0
 70
0
  0
VERTEX
  5
1C2
  8
CUT
 10
352.48563686460056
 20
80.01770390729487
 30
0.0
 70
0
  0
VERTEX
  5
1C3
  8
CUT
 10
347.52586382574134
 20
77.3666499862361
 30
0.0
 70
0
  0
VERTEX
  5
1C4
  8
CUT
 10
342.4936896930704
 20
74.85574198556495
 30
0.0
 70
0
  0
VERTEX
  5
1C5
  8
CUT
 10
337.39307351566725
 20
72.48695535520557
 30
0.0
 70
0
  0
VERTEX
  5
1C6
  8
CUT
 10
332.22802818920053
 20
70.26215373148702
 30
0.0
 70
0
  0
VERTEX
  5
1C7
  8
CUT
 10
327.0026172987938
 20
68.18308747093275
 30
0.0
 70
0
  0
VERTEX
  5
1C8
  8
CUT
 10
321.72095192201107
 20
66.25139227317231
 30
0.0
 70
0
  0
VERTEX
  5
1C9
  8
CUT
 10
316.3871873944778
 20
64.46858789405928
 30
0.0
 70
0
  0
VERTEX
  5
1CA
  8
CUT
 10
311.0055200406823
 20
62.836076950007566
 30
0.0
 70
0
  0
VERTEX
  5
1CB
  8
CUT
 10
305.580183872529
 20
61.35514381448658
 30
0.0
 70
0
  0
VERTEX
  5
1CC
  8
CUT
 10
300.11544725824103
 20
60.02695360754436
 30
0.0
 70
0
  0
VERTEX
  5
1CD
  8
CUT
 10
294.61560956423375
 20
58.852551279152294
 30
0.0
 70
0
  0
VERTEX
  5
1CE
  8
CUT
 10
289.08499777259965
 20
57.83286078709369
 30
0.0
 70
0
  0
VERTEX
  5
1CF
  8
CUT
 10
283.52796307686765
 20
56.968684370042666
 30
0.0
 70
0
  0
VERTEX
  5
1D0
  8
CUT
 10
277.9488774587132
 20
56.260701916404855
 30
0.0
 70
0
  0
VERTEX
  5
1D1
  8
CUT
 10
272.35213024831415
 20
55.709470429417365
 30
0.0
 70
0
  0
VERTEX
  5
1D2
  8
CUT
 10
266.74212467105696
 20
55.31542358892776
 30
0.0
 70
0
  0
VERTEX
  5
1D3
  8
CUT
 10
261.12327438331175
 20
55.078871410197905
 30
0.0
 70
0
  0
VERTEX
  5
1D4
  8
CUT
 10
255.5
 20
55.0
 30
0.0
 70
0
  0
VERTEX
  5
1D5
  8
CUT
 10
249.87672561668828
 20
55.078871410197905
 30
0.0
 70
0
  0
VERTEX
  5
1D6
  8
CUT
 10
244.25787532894304
 20
55.31542358892776
 30
0.0
 70
0
  0
VERTEX
  5
1D7
  8
CUT
 10
238.64786975168587
 20
55.709470429417365
 30
0.0
 70
0
  0
VERTEX
  5
1D8
  8
CUT
 10
233.05112254128682
 20
56.260701916404855
 30
0.0
 70
0
  0
VERTEX
  5
1D9
  8
CUT
 10
227.47203692313238
 20
56.96868437004264
 30
0.0
 70
0
  0
VERTEX
  5
1DA
  8
CUT
 10
221.91500222740035
 20
57.83286078709369
 30
0.0
 70
0
  0
VERTEX
  5
1DB
  8
CUT
 10
216.3843904357663
 20
58.852551279152294
 30
0.0
 70
0
  0
VERTEX
  5
1DC
  8
CUT
 10
210.88455274175897
 20
60.02695360754436
 30
0.0
 70
0
  0
VERTEX
  5
1DD
  8
CUT
 10
205.41981612747102
 20
61.35514381448658
 30
0.0
 70
0
  0
VERTEX
  5
1DE
  8
CUT
 10
199.99447995931772
 20
62.83607695000754
 30
0.0
 70
0
  0
VERTEX
  5
1DF
  8
CUT
 10
194.61281260552227
 20
64.46858789405928
 30
0.0
 70
0
  0
VERTEX
  5
1E0
  8
CUT
 10
189.279048077989
 20
66.25139227317231
 30
0.0
 70
0
  0
VERTEX
  5
1E1
  8
CUT
 10
183.99738270120625
 20
68.18308747093272
 30
0.0
 70
0
  0
VERTEX
  5
1E2
  8
CUT
 10
178.77197181079953
 20
70.26215373148702
 30
0.0
 70
0
  0
VERTEX
  5
1E3
  8
CUT
 10
173.6069264843328
 20
72.48695535520557
 30
0.0
 70
0
  0
VERTEX
  5
1E4
  8
CUT
 10
168.5063103069296
 20
74.85574198556495
 30
0.0
 70
0
  0
VERTEX
  5
1E5
  8
CUT
 10
163.47413617425875
 20
77.3666499862361
 30
0.0
 70
0
  0
VERTEX
  5
1E6
  8
CUT
 10
158.51436313539944
 20
80.01770390729487
 30
0.0
 70
0
  0
VERTEX
  5
1E7
  8
CUT
 10
153.63089327807091
 20
82.80681803940197
 30
0.0
 70
0
  0
VERTEX
  5
1E8
  8
CUT
 10
148.82756865867503
 20
85.73179805472901
 30
0.0
 70
0
  0
VERTEX
  5
1E9
  8
CUT
 10
144.10816827956972
 20
88.79034273333971
 30
0.0
 70
0
  0
VERTEX
  5
1EA
  8
CUT
 10
139.47640511594895
 20
91.98004577366834
 30
0.0
 70
0
  0
VERTEX
  5
1EB
  8
CUT
 10
134.9359231946696
 20
95.29839768567109
 30
0.0
 70
0
  0
VERTEX
  5
1EC
  8
CUT
 10
130.49029472732394
 20
98.74278776515999
 30
0.0
 70
0
  0
VERTEX
  5
1ED
  8
CUT
 10
126.14301729981148
 20
102.31050614776765
 30
0.0
 70
0
  0
VERTEX
  5
1EE
  8
CUT
 10
121.89751112062322
 20
105.99874594092529
 30
0.0
 70
0
  0
VERTEX
  5
1EF
  8
CUT
 10
117.75711633000222
 20
109.8046054321776
 30
0.0
 70
0
  0
VERTEX
  5
1F0
  8
CUT
 10
113.72509037209724
 20
113.72509037209721
 30
0.0
 70
0
  0
VERTEX
  5
1F1
  8
CUT
 10
109.80460543217757
 20
117.75711633000222
 30
0.0
 70
0
  0
VERTEX
  5
1F2
  8
CUT
 10
105.99874594092529
 20
121.8975111206232
 30
0.0
 70
0
  0
VERTEX
  5
1F3
  8
CUT
 10
102.31050614776774
 20
126.14301729981139
 30
0.0
 70
0
  0
VERTEX
  5
1F4
  8
CUT
 10
98.7427877651601
 20
130.49029472732383
 30
0.0
 70
0
  0
VERTEX
  5
1F5
  8
CUT
 10
95.29839768567103
 20
134.93592319466967
 30
0.0
 70
0
  0
VERTEX
  5
1F6
  8
CUT
 10
91.98004577366834
 20
139.47640511594892
 30
0.0
 70
0
  0
VERTEX
  5
1F7
  8
CUT
 10
88.79034273333971
 20
144.1081682795697
 30
0.0
 70
0
  0
VERTEX
  5
1F8
  8
CUT
 10
85.73179805472904
 20
148.82756865867498
 30
0.0
 70
0
  0
VERTEX
  5
1F9
  8
CUT
 10
82.80681803940206
 20
153.6308932780708
 30
0.0
 70
0
  0
VERTEX
  5
1FA
  8
CUT
 10
80.01770390729487
 20
158.5143631353994
 30
0.0
 70
0
  0
VERTEX
  5
1FB
  8
CUT
 10
77.3666499862361
 20
163.47413617425872
 30
0.0
 70
0
  0
VERTEX
  5
1FC
  8
CUT
 10
74.85574198556498
 20
168.50631030692958
 30
0.0
 70
0
  0
VERTEX
  5
1FD
  8
CUT
 10
72.4869553552056
 20
173.60692648433272
 30
0.0
 70
0
  0
VERTEX
  5
1FE
  8
CUT
 10
70.26215373148702
 20
178.77197181079947
 30
0.0
 70
0
  0
VERTEX
  5
1FF
  8
CUT
 10
68.18308747093272
 20
183.99738270120628
 30
0.0
 70
0
  0
VERTEX
  5
200
  8
CUT
 10
66.25139227317231
 20
189.279048077989
 30
0.0
 70
0
  0
VERTEX
  5
201
  8
CUT
 10
64.46858789405928
 20
194.61281260552227
 30
0.0
 70
0
  0
VERTEX
  5
202
  8
CUT
 10
62.836076950007566
 20
199.9944799593177
 30
0.0
 70
0
  0
VERTEX
  5
203
  8
CUT
 10
61.35514381448661
 20
205.41981612747094
 30
0.0
 70
0
  0
VERTEX
  5
204
  8
CUT
 10
60.02695360754433
 20
210.88455274175902
 30
0.0
 70
0
  0
VERTEX
  5
205
  8
CUT
 10
58.852551279152294
 20
216.3843904357663
 30
0.0
 70
0
  0
VERTEX
  5
206
  8
CUT
 10
57.83286078709369
 20
221.91500222740032
 30
0.0
 70
0
  0
VERTEX
  5
207
  8
CUT
 10
56.968684370042666
 20
227.4720369231323
 30
0.0
 70
0
  0
VERTEX
  5
208
  8
CUT
 10
56.260701916404855
 20
233.05112254128676
 30
0.0
 70
0
  0
VERTEX
  5
209
  8
CUT
 10
55.709470429417365
 20
238.6478697516858
 30
0.0
 70
0
  0
VERTEX
  5
20A
  8
CUT
 10
55.31542358892776
 20
244.25787532894302
 30
0.0
 70
0
  0
VERTEX
  5
20B
  8
CUT
 10
55.078871410197905
 20
249.8767256166883
 30
0.0
 70
0
  0
SEQEND
  5
12B
  8
CUT
  0
POLYLINE
  5
20C
  8
CUT
 66
1
 10
0.0
 20
0.0
 30
0.0
 70
1
  0
VERTEX
  5
20E
  8
CUT
 10
941.0
 20
225.0
 30
0.0
 70
0
  0
VERTEX
  5
20F
  8
CUT
 10
940.921156538006
 20
230.8220677053689
 30
0.0
 70
0
  0
VERTEX
  5
210
  8
CUT
 10
940.6846839779917
 20
236.63986534586476
 30
0.0
 70
0
  0
VERTEX
  5
211
  8
CUT
 10
940.2907557554479
 20
242.44912598839772
 30
0.0
 70
0
  0
VERTEX
  5
212
  8
CUT
 10
939.7396607881873
 20
248.2455889611475
 30
0.0
 70
0
  0
VERTEX
  5
213
  8
CUT
 10
939.0318032644434
 20
254.02500297845737
 30
0.0
 70
0
  0
VERTEX
  5
214
  8
CUT
 10
938.1677023464281
 20
259.78312925884444
 30
0.0
 70
0
  0
VERTEX
  5
215
  8
CUT
 10
937.1479917895635
 20
265.51574463383844
 30
0.0
 70
0
  0
VERTEX
  5
216
  8
CUT
 10
935.9734194776686
 20
271.2186446453702
 30
0.0
 70
0
  0
VERTEX
  5
217
  8
CUT
 10
934.6448468744404
 20
276.8876466294367
 30
0.0
 70
0
  0
VERTEX
  5
218
  8
CUT
 10
933.1632483916329
 20
282.5185927837825
 30
0.0
 70
0
  0
VERTEX
  5
219
  8
CUT
 10
931.5297106743965
 20
288.107353217346
 30
0.0
 70
0
  0
VERTEX
  5
21A
  8
CUT
 10
929.7454318043026
 20
293.64982897923574
 30
0.0
 70
0
  0
VERTEX
  5
21B
  8
CUT
 10
927.8117204206374
 20
299.14195506501363
 30
0.0
 70
0
  0
VERTEX
  5
21C
  8
CUT
 10
925.7299947606102
 20
304.57970339808156
 30
0.0
 70
0
  0
VERTEX
  5
21D
  8
CUT
 10
923.5017816191787
 20
309.95908578398337
 30
0.0
 70
0
  0
VERTEX
  5
21E
  8
CUT
 10
921.1287152292557
 20
315.2761568354569
 30
0.0
 70
0
  0
VERTEX
  5
21F
  8
CUT
 10
918.6125360631179
 20
320.5270168660893
 30
0.0
 70
0
  0
VERTEX
  5
220
  8
CUT
 10
915.9550895558949
 20
325.7078147504549
 30
0.0
 70
0
  0
VERTEX
  5
221
  8
CUT
 10
913.158324752077
 20
330.8147507486366
 30
0.0
 70
0
  0
VERTEX
  5
222
  8
CUT
 10
910.2242928760317
 20
335.8440792930597
 30
0.0
 70
0
  0
VERTEX
  5
223
  8
CUT
 10
907.1551458275795
 20
340.7921117355944
 30
0.0
 70
0
  0
VERTEX
  5
224
  8
CUT
 10
903.9531346037315
 20
345.6552190529122
 30
0.0
 70
0
  0
VERTEX
  5
225
  8
CUT
 10
900.6206076477454
 20
350.4298345081112
 30
0.0
 70
0
  0
VERTEX
  5
226
  8
CUT
 10
897.1600091267135
 20
355.11245626665954
 30
0.0
 70
0
  0
VERTEX
  5
227
  8
CUT
 10
893.5738771389422
 20
359.6996499647371
 30
0.0
 70
0
  0
VERTEX
  5
228
  8
CUT
 10
889.8648418524418
 20
364.18805122809295
 30
0.0
 70
0
  0
VERTEX
  5
229
  8
CUT
 10
886.0356235758882
 20
368.5743681395695
 30
0.0
 70
0
  0
VERTEX
  5
22A
  8
CUT
 10
882.0890307634731
 20
372.855383653486
 30
0.0
 70
0
  0
VERTEX
  5
22B
  8
CUT
 10
878.0279579551077
 20
377.0279579551077
 30
0.0
 70
0
  0
VERTEX
  5
22C
  8
CUT
 10
873.855383653486
 20
381.08903076347315
 30
0.0
 70
0
  0
VERTEX
  5
22D
  8
CUT
 10
869.5743681395695
 20
385.0356235758881
 30
0.0
 70
0
  0
VERTEX
  5
22E
  8
CUT
 10
865.188051228093
 20
388.8648418524418
 30
0.0
 70
0
  0
VERTEX
  5
22F
  8
CUT
 10
860.6996499647371
 20
392.5738771389422
 30
0.0
 70
0
  0
VERTEX
  5
230
  8
CUT
 10
856.1124562666595
 20
396.1600091267134
 30
0.0
 70
0
  0
VERTEX
  5
231
  8
CUT
 10
851.4298345081112
 20
399.6206076477454
 30
0.0
 70
0
  0
VERTEX
  5
232
  8
CUT
 10
846.6552190529122
 20
402.9531346037315
 30
0.0
 70
0
  0
VERTEX
  5
233
  8
CUT
 10
841.7921117355944
 20
406.15514582757953
 30
0.0
 70
0
  0
VERTEX
  5
234
  8
CUT
 10
836.8440792930596
 20
409.22429287603165
 30
0.0
 70
0
  0
VERTEX
  5
235
  8
CUT
 10
831.8147507486366
 20
412.15832475207696
 30
0.0
 70
0
  0
VERTEX
  5
236
  8
CUT
 10
826.7078147504549
 20
414.9550895558949
 30
0.0
 70
0
  0
VERTEX
  5
237
  8
CUT
 10
821.5270168660893
 20
417.6125360631179
 30
0.0
 70
0
  0
VERTEX
  5
238
  8
CUT
 10
816.2761568354568
 20
420.12871522925576
 30
0.0
 70
0
  0
VERTEX
  5
239
  8
CUT
 10
810.9590857839835
 20
422.5017816191787
 30
0.0
 70
0
  0
VERTEX
  5
23A
  8
CUT
 10
805.5797033980816
 20
424.72999476061017
 30
0.0
 70
0
  0
VERTEX
  5
23B
  8
CUT
 10
800.1419550650137
 20
426.81172042063736
 30
0.0
 70
0
  0
VERTEX
  5
23C
  8
CUT
 10
794.6498289792357
 20
428.7454318043025
 30
0.0
 70
0
  0
VERTEX
  5
23D
  8
CUT
 10
789.107353217346
 20
430.5297106743965
 30
0.0
 70
0
  0
VERTEX
  5
23E
  8
CUT
 10
783.5185927837824
 20
432.1632483916329
 30
0.0
 70
0
  0
VERTEX
  5
23F
  8
CUT
 10
777.8876466294367
 20
433.6448468744404
 30
0.0
 70
0
  0
VERTEX
  5
240
  8
CUT
 10
772.2186446453702
 20
434.97341947766864
 30
0.0
 70
0
  0
VERTEX
  5
241
  8
CUT
 10
766.5157446338385
 20
436.14799178956355
 30
0.0
 70
0
  0
VERTEX
  5
242
  8
CUT
 10
760.7831292588444
 20
437.1677023464281
 30
0.0
 70
0
  0
VERTEX
  5
243
  8
CUT
 10
755.0250029784573
 20
438.03180326444345
 30
0.0
 70
0
  0
VERTEX
  5
244
  8
CUT
 10
749.2455889611475
 20
438.7396607881873
 30
0.0
 70
0
  0
VERTEX
  5
245
  8
CUT
 10
743.4491259883977
 20
439.2907557554479
 30
0.0
 70
0
  0
VERTEX
  5
246
  8
CUT
 10
737.6398653458648
 20
439.68468397799165
 30
0.0
 70
0
  0
VERTEX
  5
247
  8
CUT
 10
731.8220677053689
 20
439.921156538006
 30
0.0
 70
0
  0
VERTEX
  5
248
  8
CUT
 10
726.0
 20
440.0
 30
0.0
 70
0
  0
VERTEX
  5
249
  8
CUT
 10
720.1779322946311
 20
439.921156538006
 30
0.0
 70
0
  0
VERTEX
  5
24A
  8
CUT
 10
714.3601346541353
 20
439.68468397799165
 30
0.0
 70
0
  0
VERTEX
  5
24B
  8
CUT
 10
708.5508740116023
 20
439.2907557554479
 30
0.0
 70
0
  0
VERTEX
  5
24C
  8
CUT
 10
702.7544110388525
 20
438.7396607881873
 30
0.0
 70
0
  0
VERTEX
  5
24D
  8
CUT
 10
696.9749970215425
 20
438.03180326444345
 30
0.0
 70
0
  0
VERTEX
  5
24E
  8
CUT
 10
691.2168707411556
 20
437.1677023464281
 30
0.0
 70
0
  0
VERTEX
  5
24F
  8
CUT
 10
685.4842553661616
 20
436.14799178956355
 30
0.0
 70
0
  0
VERTEX
  5
250
  8
CUT
 10
679.7813553546298
 20
434.97341947766864
 30
0.0
 70
0
  0
VERTEX
  5
251
  8
CUT
 10
674.1123533705633
 20
433.6448468744405
 30
0.0
 70
0
  0
VERTEX
  5
252
  8
CUT
 10
668.4814072162175
 20
432.1632483916329
 30
0.0
 70
0
  0
VERTEX
  5
253
  8
CUT
 10
662.8926467826541
 20
430.5297106743965
 30
0.0
 70
0
  0
VERTEX
  5
254
  8
CUT
 10
657.3501710207644
 20
428.74543180430254
 30
0.0
 70
0
  0
VERTEX
  5
255
  8
CUT
 10
651.8580449349863
 20
426.81172042063736
 30
0.0
 70
0
  0
VERTEX
  5
256
  8
CUT
 10
646.4202966019184
 20
424.72999476061017
 30
0.0
 70
0
  0
VERTEX
  5
257
  8
CUT
 10
641.0409142160166
 20
422.5017816191787
 30
0.0
 70
0
  0
VERTEX
  5
258
  8
CUT
 10
635.723843164543
 20
420.12871522925576
 30
0.0
 70
0
  0
VERTEX
  5
259
  8
CUT
 10
630.4729831339108
 20
417.61253606311794
 30
0.0
 70
0
  0
VERTEX
  5
25A
  8
CUT
 10
625.2921852495451
 20
414.9550895558949
 30
0.0
 70
0
  0
VERTEX
  5
25B
  8
CUT
 10
620.1852492513634
 20
412.15832475207696
 30
0.0
 70
0
  0
VERTEX
  5
25C
  8
CUT
 10
615.1559207069404
 20
409.2242928760317
 30
0.0
 70
0
  0
VERTEX
  5
25D
  8
CUT
 10
610.2078882644056
 20
406.15514582757953
 30
0.0
 70
0
  0
VERTEX
  5
25E
  8
CUT
 10
605.3447809470878
 20
402.9531346037315
 30
0.0
 70
0
  0
VERTEX
  5
25F
  8
CUT
 10
600.5701654918889
 20
399.62060764774543
 30
0.0
 70
0
  0
VERTEX
  5
260
  8
CUT
 10
595.8875437333405
 20
396.1600091267134
 30
0.0
 70
0
  0
VERTEX
  5
261
  8
CUT
 10
591.3003500352628
 20
392.5738771389422
 30
0.0
 70
0
  0
VERTEX
  5
262
  8
CUT
 10
586.811948771907
 20
388.8648418524418
 30
0.0
 70
0
  0
VERTEX
  5
263
  8
CUT
 10
582.4256318604305
 20
385.0356235758881
 30
0.0
 70
0
  0
VERTEX
  5
264
  8
CUT
 10
578.144616346514
 20
381.08903076347315
 30
0.0
 70
0
  0
VERTEX
  5
265
  8
CUT
 10
573.9720420448923
 20
377.0279579551077
 30
0.0
 70
0
  0
VERTEX
  5
266
  8
CUT
 10
569.9109692365269
 20
372.85538365348606
 30
0.0
 70
0
  0
VERTEX
  5
267
  8
CUT
 10
565.9643764241118
 20
368.5743681395695
 30
0.0
 70
0
  0
VERTEX
  5
268
  8
CUT
 10
562.1351581475582
 20
364.18805122809295
 30
0.0
 70
0
  0
VERTEX
  5
269
  8
CUT
 10
558.4261228610578
 20
359.6996499647371
 30
0.0
 70
0
  0
VERTEX
  5
26A
  8
CUT
 10
554.8399908732866
 20
355.1124562666596
 30
0.0
 70
0
  0
VERTEX
  5
26B
  8
CUT
 10
551.3793923522546
 20
350.42983450811124
 30
0.0
 70
0
  0
VERTEX
  5
26C
  8
CUT
 10
548.0468653962686
 20
345.65521905291223
 30
0.0
 70
0
  0
VERTEX
  5
26D
  8
CUT
 10
544.8448541724205
 20
340.7921117355944
 30
0.0
 70
0
  0
VERTEX
  5
26E
  8
CUT
 10
541.7757071239683
 20
335.8440792930596
 30
0.0
 70
0
  0
VERTEX
  5
26F
  8
CUT
 10
538.841675247923
 20
330.81475074863664
 30
0.0
 70
0
  0
VERTEX
  5
270
  8
CUT
 10
536.0449104441051
 20
325.7078147504549
 30
0.0
 70
0
  0
VERTEX
  5
271
  8
CUT
 10
533.3874639368821
 20
320.5270168660893
 30
0.0
 70
0
  0
VERTEX
  5
272
  8
CUT
 10
530.8712847707442
 20
315.27615683545685
 30
0.0
 70
0
  0
VERTEX
  5
273
  8
CUT
 10
528.4982183808213
 20
309.9590857839835
 30
0.0
 70
0
  0
VERTEX
  5
274
  8
CUT
 10
526.2700052393898
 20
304.5797033980816
 30
0.0
 70
0
  0
VERTEX
  5
275
  8
CUT
 10
524.1882795793626
 20
299.1419550650137
 30
0.0
 70
0
  0
VERTEX
  5
276
  8
CUT
 10
522.2545681956974
 20
293.6498289792356
 30
0.0
 70
0
  0
VERTEX
  5
277
  8
CUT
 10
520.4702893256035
 20
288.107353217346
 30
0.0
 70
0
  0
VERTEX
  5
278
  8
CUT
 10
518.8367516083671
 20
282.5185927837825
 30
0.0
 70
0
  0
VERTEX
  5
279
  8
CUT
 10
517.3551531255596
 20
276.8876466294368
 30
0.0
 70
0
  0
VERTEX
  5
27A
  8
CUT
 10
516.0265805223314
 20
271.2186446453702
 30
0.0
 70
0
  0
VERTEX
  5
27B
  8
CUT
 10
514.8520082104365
 20
265.51574463383855
 30
0.0
 70
0
  0
VERTEX
  5
27C
  8
CUT
 10
513.8322976535719
 20
259.7831292588444
 30
0.0
 70
0
  0
VERTEX
  5
27D
  8
CUT
 10
512.9681967355566
 20
254.02500297845734
 30
0.0
 70
0
  0
VERTEX
  5
27E
  8
CUT
 10
512.2603392118127
 20
248.24558896114752
 30
0.0
 70
0
  0
VERTEX
  5
27F
  8
CUT
 10
511.7092442445521
 20
242.44912598839772
 30
0.0
 70
0
  0
VERTEX
  5
280
  8
CUT
 10
511.31531602200835
 20
236.63986534586485
 30
0.0
 70
0
  0
VERTEX
  5
281
  8
CUT
 10
511.078843461994
 20
230.82206770536888
 30
0.0
 70
0
  0
VERTEX
  5
282
  8
CUT
 10
511.0
 20
225.0
 30
0.0
 70
0
  0
VERTEX
  5
283
  8
CUT
 10
511.078843461994
 20
219.1779322946311
 30
0.0
 70
0
  0
VERTEX
  5
284
  8
CUT
 10
511.31531602200835
 20
213.3601346541353
 30
0.0
 70
0
  0
VERTEX
  5
285
  8
CUT
 10
511.7092442445521
 20
207.55087401160233
 30
0.0
 70
0
  0
VERTEX
  5
286
  8
CUT
 10
512.2603392118127
 20
201.75441103885254
 30
0.0
 70
0
  0
VERTEX
  5
287
  8
CUT
 10
512.9681967355566
 20
195.9749970215426
 30
0.0
 70
0
  0
VERTEX
  5
288
  8
CUT
 10
513.8322976535719
 20
190.21687074115565
 30
0.0
 70
0
  0
VERTEX
  5
289
  8
CUT
 10
514.8520082104365
 20
184.4842553661616
 30
0.0
 70
0
  0
VERTEX
  5
28A
  8
CUT
 10
516.0265805223314
 20
178.78135535462985
 30
0.0
 70
0
  0
VERTEX
  5
28B
  8
CUT
 10
517.3551531255596
 20
173.11235337056326
 30
0.0
 70
0
  0
VERTEX
  5
28C
  8
CUT
 10
518.8367516083671
 20
167.48140721621758
 30
0.0
 70
0
  0
VERTEX
  5
28D
  8
CUT
 10
520.4702893256035
 20
161.89264678265405
 30
0.0
 70
0
  0
VERTEX
  5
28E
  8
CUT
 10
522.2545681956974
 20
156.35017102076432
 30
0.0
 70
0
  0
VERTEX
  5
28F
  8
CUT
 10
524.1882795793626
 20
150.85804493498642
 30
0.0
 70
0
  0
VERTEX
  5
290
  8
CUT
 10
526.2700052393898
 20
145.42029660191844
 30
0.0
 70
0
  0
VERTEX
  5
291
  8
CUT
 10
528.4982183808213
 20
140.0409142160166
 30
0.0
 70
0
  0
VERTEX
  5
292
  8
CUT
 10
530.8712847707443
 20
134.7238431645431
 30
0.0
 70
0
  0
VERTEX
  5
293
  8
CUT
 10
533.3874639368821
 20
129.4729831339108
 30
0.0
 70
0
  0
VERTEX
  5
294
  8
CUT
 10
536.0449104441051
 20
124.29218524954516
 30
0.0
 70
0
  0
VERTEX
  5
295
  8
CUT
 10
538.841675247923
 20
119.18524925136343
 30
0.0
 70
0
  0
VERTEX
  5
296
  8
CUT
 10
541.7757071239682
 20
114.15592070694039
 30
0.0
 70
0
  0
VERTEX
  5
297
  8
CUT
 10
544.8448541724204
 20
109.20788826440561
 30
0.0
 70
0
  0
VERTEX
  5
298
  8
CUT
 10
548.0468653962685
 20
104.34478094708781
 30
0.0
 70
0
  0
VERTEX
  5
299
  8
CUT
 10
551.3793923522546
 20
99.5701654918888
 30
0.0
 70
0
  0
VERTEX
  5
29A
  8
CUT
 10
554.8399908732866
 20
94.88754373334046
 30
0.0
 70
0
  0
VERTEX
  5
29B
  8
CUT
 10
558.4261228610578
 20
90.30035003526291
 30
0.0
 70
0
  0
VERTEX
  5
29C
  8
CUT
 10
562.1351581475582
 20
85.81194877190708
 30
0.0
 70
0
  0
VERTEX
  5
29D
  8
CUT
 10
565.9643764241118
 20
81.42563186043051
 30
0.0
 70
0
  0
VERTEX
  5
29E
  8
CUT
 10
569.9109692365269
 20
77.14461634651403
 30
0.0
 70
0
  0
VERTEX
  5
29F
  8
CUT
 10
573.9720420448923
 20
72.9720420448923
 30
0.0
 70
0
  0
VERTEX
  5
2A0
  8
CUT
 10
578.144616346514
 20
68.91096923652688
 30
0.0
 70
0
  0
VERTEX
  5
2A1
  8
CUT
 10
582.4256318604305
 20
64.96437642411186
 30
0.0
 70
0
  0
VERTEX
  5
2A2
  8
CUT
 10
586.811948771907
 20
61.135158147558144
 30
0.0
 70
0
  0
VERTEX
  5
2A3
  8
CUT
 10
591.3003500352628
 20
57.42612286105788
 30
0.0
 70
0
  0
VERTEX
  5
2A4
  8
CUT
 10
595.8875437333404
 20
53.83999087328664
 30
0.0
 70
0
  0
VERTEX
  5
2A5
  8
CUT
 10
600.5701654918887
 20
50.379392352254655
 30
0.0
 70
0
  0
VERTEX
  5
2A6
  8
CUT
 10
605.3447809470878
 20
47.046865396268544
 30
0.0
 70
0
  0
VERTEX
  5
2A7
  8
CUT
 10
610.2078882644056
 20
43.84485417242044
 30
0.0
 70
0
  0
VERTEX
  5
2A8
  8
CUT
 10
615.1559207069404
 20
40.77570712396832
 30
0.0
 70
0
  0
VERTEX
  5
2A9
  8
CUT
 10
620.1852492513634
 20
37.84167524792301
 30
0.0
 70
0
  0
VERTEX
  5
2AA
  8
CUT
 10
625.292185249545
 20
35.04491044410514
 30
0.0
 70
0
  0
VERTEX
  5
2AB
  8
CUT
 10
630.4729831339107
 20
32.38746393688214
 30
0.0
 70
0
  0
VERTEX
  5
2AC
  8
CUT
 10
635.723843164543
 20
29.871284770744268
 30
0.0
 70
0
  0
VERTEX
  5
2AD
  8
CUT
 10
641.0409142160165
 20
27.498218380821356
 30
0.0
 70
0
  0
VERTEX
  5
2AE
  8
CUT
 10
646.4202966019184
 20
25.270005239389832
 30
0.0
 70
0
  0
VERTEX
  5
2AF
  8
CUT
 10
651.8580449349863
 20
23.188279579362643
 30
0.0
 70
0
  0
VERTEX
  5
2B0
  8
CUT
 10
657.3501710207644
 20
21.25456819569746
 30
0.0
 70
0
  0
VERTEX
  5
2B1
  8
CUT
 10
662.8926467826539
 20
19.470289325603545
 30
0.0
 70
0
  0
VERTEX
  5
2B2
  8
CUT
 10
668.4814072162176
 20
17.836751608367052
 30
0.0
 70
0
  0
VERTEX
  5
2B3
  8
CUT
 10
674.1123533705633
 20
16.355153125559553
 30
0.0
 70
0
  0
VERTEX
  5
2B4
  8
CUT
 10
679.7813553546298
 20
15.026580522331358
 30
0.0
 70
0
  0
VERTEX
  5
2B5
  8
CUT
 10
685.4842553661615
 20
13.85200821043648
 30
0.0
 70
0
  0
VERTEX
  5
2B6
  8
CUT
 10
691.2168707411556
 20
12.832297653571885
 30
0.0
 70
0
  0
VERTEX
  5
2B7
  8
CUT
 10
696.9749970215427
 20
11.968196735556546
 30
0.0
 70
0
  0
VERTEX
  5
2B8
  8
CUT
 10
702.7544110388524
 20
11.26033921181272
 30
0.0
 70
0
  0
VERTEX
  5
2B9
  8
CUT
 10
708.5508740116023
 20
10.70924424455211
 30
0.0
 70
0
  0
VERTEX
  5
2BA
  8
CUT
 10
714.3601346541351
 20
10.315316022008375
 30
0.0
 70
0
  0
VERTEX
  5
2BB
  8
CUT
 10
720.177932294631
 20
10.078843461993955
 30
0.0
 70
0
  0
VERTEX
  5
2BC
  8
CUT
 10
726.0
 20
10.0
 30
0.0
 70
0
  0
VERTEX
  5
2BD
  8
CUT
 10
731.8220677053689
 20
10.078843461993955
 30
0.0
 70
0
  0
VERTEX
  5
2BE
  8
CUT
 10
737.6398653458648
 20
10.315316022008375
 30
0.0
 70
0
  0
VERTEX
  5
2BF
  8
CUT
 10
743.4491259883976
 20
10.70924424455211
 30
0.0
 70
0
  0
VERTEX
  5
2C0
  8
CUT
 10
749.2455889611475
 20
11.260339211812692
 30
0.0
 70
0
  0
VERTEX
  5
2C1
  8
CUT
 10
755.0250029784572
 20
11.968196735556546
 30
0.0
 70
0
  0
VERTEX
  5
2C2
  8
CUT
 10
760.7831292588444
 20
12.832297653571857
 30
0.0
 70
0
  0
VERTEX
  5
2C3
  8
CUT
 10
766.5157446338384
 20
13.852008210436452
 30
0.0
 70
0
  0
VERTEX
  5
2C4
  8
CUT
 10
772.2186446453702
 20
15.026580522331358
 30
0.0
 70
0
  0
VERTEX
  5
2C5
  8
CUT
 10
777.8876466294367
 20
16.355153125559553
 30
0.0
 70
0
  0
VERTEX
  5
2C6
  8
CUT
 10
783.5185927837825
 20
17.83675160836708
 30
0.0
 70
0
  0
VERTEX
  5
2C7
  8
CUT
 10
789.107353217346
 20
19.470289325603517
 30
0.0
 70
0
  0
VERTEX
  5
2C8
  8
CUT
 10
794.6498289792356
 20
21.25456819569746
 30
0.0
 70
0
  0
VERTEX
  5
2C9
  8
CUT
 10
800.1419550650136
 20
23.188279579362614
 30
0.0
 70
0
  0
VERTEX
  5
2CA
  8
CUT
 10
805.5797033980815
 20
25.270005239389832
 30
0.0
 70
0
  0
VERTEX
  5
2CB
  8
CUT
 10
810.9590857839834
 20
27.4982183808213
 30
0.0
 70
0
  0
VERTEX
  5
2CC
  8
CUT
 10
816.2761568354568
 20
29.87128477074424
 30
0.0
 70
0
  0
VERTEX
  5
2CD
  8
CUT
 10
821.5270168660891
 20
32.387463936882
 30
0.0
 70
0
  0
VERTEX
  5
2CE
  8
CUT
 10
826.7078147504549
 20
35.044910444105085
 30
0.0
 70
0
  0
VERTEX
  5
2CF
  8
CUT
 10
831.8147507486365
 20
37.84167524792295
 30
0.0
 70
0
  0
VERTEX
  5
2D0
  8
CUT
 10
836.8440792930596
 20
40.77570712396826
 30
0.0
 70
0
  0
VERTEX
  5
2D1
  8
CUT
 10
841.7921117355944
 20
43.84485417242041
 30
0.0
 70
0
  0
VERTEX
  5
2D2
  8
CUT
 10
846.6552190529122
 20
47.046865396268515
 30
0.0
 70
0
  0
VERTEX
  5
2D3
  8
CUT
 10
851.4298345081112
 20
50.3793923522546
 30
0.0
 70
0
  0
VERTEX
  5
2D4
  8
CUT
 10
856.1124562666594
 20
53.839990873286496
 30
0.0
 70
0
  0
VERTEX
  5
2D5
  8
CUT
 10
860.6996499647371
 20
57.42612286105782
 30
0.0
 70
0
  0
VERTEX
  5
2D6
  8
CUT
 10
865.1880512280928
 20
61.13515814755809
 30
0.0
 70
0
  0
VERTEX
  5
2D7
  8
CUT
 10
869.5743681395696
 20
64.96437642411195
 30
0.0
 70
0
  0
VERTEX
  5
2D8
  8
CUT
 10
873.855383653486
 20
68.91096923652682
 30
0.0
 70
0
  0
VERTEX
  5
2D9
  8
CUT
 10
878.0279579551077
 20
72.97204204489225
 30
0.0
 70
0
  0
VERTEX
  5
2DA
  8
CUT
 10
882.0890307634731
 20
77.144616346514
 30
0.0
 70
0
  0
VERTEX
  5
2DB
  8
CUT
 10
886.0356235758882
 20
81.42563186043046
 30
0.0
 70
0
  0
VERTEX
  5
2DC
  8
CUT
 10
889.8648418524418
 20
85.81194877190708
 30
0.0
 70
0
  0
VERTEX
  5
2DD
  8
CUT
 10
893.5738771389422
 20
90.30035003526277
 30
0.0
 70
0
  0
VERTEX
  5
2DE
  8
CUT
 10
897.1600091267134
 20
94.88754373334041
 30
0.0
 70
0
  0
VERTEX
  5
2DF
  8
CUT
 10
900.6206076477454
 20
99.57016549188873
 30
0.0
 70
0
  0
VERTEX
  5
2E0
  8
CUT
 10
903.9531346037314
 20
104.34478094708774
 30
0.0
 70
0
  0
VERTEX
  5
2E1
  8
CUT
 10
907.1551458275795
 20
109.20788826440554
 30
0.0
 70
0
  0
VERTEX
  5
2E2
  8
CUT
 10
910.2242928760317
 20
114.15592070694032
 30
0.0
 70
0
  0
VERTEX
  5
2E3
  8
CUT
 10
913.158324752077
 20
119.18524925136344
 30
0.0
 70
0
  0
VERTEX
  5
2E4
  8
CUT
 10
915.9550895558948
 20
124.292185249545
 30
0.0
 70
0
  0
VERTEX
  5
2E5
  8
CUT
 10
918.6125360631179
 20
129.47298313391082
 30
0.0
 70
0
  0
VERTEX
  5
2E6
  8
CUT
 10
921.1287152292557
 20
134.72384316454304
 30
0.0
 70
0
  0
VERTEX
  5
2E7
  8
CUT
 10
923.5017816191787
 20
140.04091421601652
 30
0.0
 70
0
  0
VERTEX
  5
2E8
  8
CUT
 10
925.7299947606102
 20
145.42029660191838
 30
0.0
 70
0
  0
VERTEX
  5
2E9
  8
CUT
 10
927.8117204206372
 20
150.85804493498617
 30
0.0
 70
0
  0
VERTEX
  5
2EA
  8
CUT
 10
929.7454318043026
 20
156.35017102076432
 30
0.0
 70
0
  0
VERTEX
  5
2EB
  8
CUT
 10
931.5297106743965
 20
161.89264678265388
 30
0.0
 70
0
  0
VERTEX
  5
2EC
  8
CUT
 10
933.1632483916329
 20
167.48140721621758
 30
0.0
 70
0
  0
VERTEX
  5
2ED
  8
CUT
 10
934.6448468744404
 20
173.1123533705632
 30
0.0
 70
0
  0
VERTEX
  5
2EE
  8
CUT
 10
935.9734194776686
 20
178.78135535462977
 30
0.0
 70
0
  0
VERTEX
  5
2EF
  8
CUT
 10
937.1479917895635
 20
184.4842553661615
 30
0.0
 70
0
  0
VERTEX
  5
2F0
  8
CUT
 10
938.1677023464281
 20
190.21687074115556
 30
0.0
 70
0
  0
VERTEX
  5
2F1
  8
CUT
 10
939.0318032644434
 20
195.97499702154263
 30
0.0
 70
0
  0
VERTEX
  5
2F2
  8
CUT
 10
939.7396607881873
 20
201.75441103885237
 30
0.0
 70
0
  0
VERTEX
  5
2F3
  8
CUT
 10
940.2907557554479
 20
207.55087401160233
 30
0.0
 70
0
  0
VERTEX
  5
2F4
  8
CUT
 10
940.6846839779917
 20
213.36013465413512
 30
0.0
 70
0
  0
VERTEX
  5
2F5
  8
CUT
 10
940.921156538006
 20
219.1779322946312
 30
0.0
 70
0
  0
SEQEND
  5
20D
  8
CUT
  0
POLYLINE
  5
2F6
  8
CUT
 66
1
 10
0.0
 20
0.0
 30
0.0
 70
1
  0
VERTEX
  5
2F8
  8
CUT
 10
556.0
 20
225.0
 30
0.0
 70
0
  0
VERTEX
  5
2F9
  8
CUT
 10
556.0790697840303
 20
230.18434899862405
 30
0.0
 70
0
  0
VERTEX
  5
2FA
  8
CUT
 10
556.316205582818
 20
235.36387534600502
 30
0.0
 70
0
  0
VERTEX
  5
2FB
  8
CUT
 10
556.7111868048764
 20
240.53376087708813
 30
0.0
 70
0
  0
VERTEX
  5
2FC
  8
CUT
 10
557.2636460257356
 20
245.6891963950214
 30
0.0
 70
0
  0
VERTEX
  5
2FD
  8
CUT
 10
557.9730693297337
 20
250.82538614482866
 30
0.0
 70
0
  0
VERTEX
  5
2FE
  8
CUT
 10
558.838796788077
 20
255.93755227457746
 30
0.0
 70
0
  0
VERTEX
  5
2FF
  8
CUT
 10
559.8600230727288
 20
261.0209392798937
 30
0.0
 70
0
  0
VERTEX
  5
300
  8
CUT
 10
561.0357982055502
 20
266.07081842768713
 30
0.0
 70
0
  0
VERTEX
  5
301
  8
CUT
 10
562.3650284420023
 20
271.08249215497443
 30
0.0
 70
0
  0
VERTEX
  5
302
  8
CUT
 10
563.8464772885825
 20
276.05129843870566
 30
0.0
 70
0
  0
VERTEX
  5
303
  8
CUT
 10
565.4787666530513
 20
280.97261513253085
 30
0.0
 70
0
  0
VERTEX
  5
304
  8
CUT
 10
567.260378126379
 20
285.84186426647216
 30
0.0
 70
0
  0
VERTEX
  5
305
  8
CUT
 10
569.1896543952196
 20
290.6545163055011
 30
0.0
 70
0
  0
VERTEX
  5
306
  8
CUT
 10
571.2648007835975
 20
295.4060943630608
 30
0.0
 70
0
  0
VERTEX
  5
307
  8
CUT
 10
573.4838869223744
 20
300.0921783656122
 30
0.0
 70
0
  0
VERTEX
  5
308
  8
CUT
 10
575.8448485449417
 20
304.70840916433156
 30
0.0
 70
0
  0
VERTEX
  5
309
  8
CUT
 10
578.3454894074687
 20
309.2504925901331
 30
0.0
 70
0
  0
VERTEX
  5
30A
  8
CUT
 10
580.983483331921
 20
313.7142034482458
 30
0.0
 70
0
  0
VERTEX
  5
30B
  8
CUT
 10
583.7563763699468
 20
318.09538944862834
 30
0.0
 70
0
  0
VERTEX
  5
30C
  8
CUT
 10
586.661589085621
 20
322.38997506856487
 30
0.0
 70
0
  0
VERTEX
  5
30D
  8
CUT
 10
589.6964189549202
 20
326.59396534384985
 30
0.0
 70
0
  0
VERTEX
  5
30E
  8
CUT
 10
592.858042879699
 20
330.7034495850346
 30
0.0
 70
0
  0
VERTEX
  5
30F
  8
CUT
 10
596.1435198138294
 20
334.714605015279
 30
0.0
 70
0
  0
VERTEX
  5
310
  8
CUT
 10
599.5497934990567
 20
338.62370032642303
 30
0.0
 70
0
  0
VERTEX
  5
311
  8
CUT
 10
603.0736953080324
 20
342.4270991499727
 30
0.0
 70
0
  0
VERTEX
  5
312
  8
CUT
 10
606.7119471918742
 20
346.1212634397684
 30
0.0
 70
0
  0
VERTEX
  5
313
  8
CUT
 10
610.4611647295152
 20
349.70275676319176
 30
0.0
 70
0
  0
VERTEX
  5
314
  8
CUT
 10
614.3178602760025
 20
353.1682474978476
 30
0.0
 70
0
  0
VERTEX
  5
315
  8
CUT
 10
618.2784462068195
 20
356.5145119307482
 30
0.0
 70
0
  0
VERTEX
  5
316
  8
CUT
 10
622.3392382552107
 20
359.73843725711697
 30
0.0
 70
0
  0
VERTEX
  5
317
  8
CUT
 10
626.4964589394089
 20
362.83702447602116
 30
0.0
 70
0
  0
VERTEX
  5
318
  8
CUT
 10
630.7462410765705
 20
365.8073911801407
 30
0.0
 70
0
  0
VERTEX
  5
319
  8
CUT
 10
635.0846313801574
 20
368.64677423707826
 30
0.0
 70
0
  0
VERTEX
  5
31A
  8
CUT
 10
639.5075941374125
 20
371.35253235971504
 30
0.0
 70
0
  0
VERTEX
  5
31B
  8
CUT
 10
644.0110149635125
 20
373.9221485632229
 30
0.0
 70
0
  0
VERTEX
  5
31C
  8
CUT
 10
648.5907046289029
 20
376.3532325064458
 30
0.0
 70
0
  0
VERTEX
  5
31D
  8
CUT
 10
653.2424029562573
 20
378.6435227154739
 30
0.0
 70
0
  0
VERTEX
  5
31E
  8
CUT
 10
657.9617827834328
 20
380.79088868734016
 30
0.0
 70
0
  0
VERTEX
  5
31F
  8
CUT
 10
662.7444539887391
 20
382.7933328718842
 30
0.0
 70
0
  0
VERTEX
  5
320
  8
CUT
 10
667.5859675747728
 20
384.64899252993894
 30
0.0
 70
0
  0
VERTEX
  5
321
  8
CUT
 10
672.4818198070205
 20
386.35614146611147
 30
0.0
 70
0
  0
VERTEX
  5
322
  8
CUT
 10
677.4274564033807
 20
387.91319163454665
 30
0.0
 70
0
  0
VERTEX
  5
323
  8
CUT
 10
682.4182767707053
 20
389.3186946161792
 30
0.0
 70
0
  0
VERTEX
  5
324
  8
CUT
 10
687.449638284423
 20
390.5713429661008
 30
0.0
 70
0
  0
VERTEX
  5
325
  8
CUT
 10
692.51686060726
 20
391.669971429788
 30
0.0
 70
0
  0
VERTEX
  5
326
  8
CUT
 10
697.6152300430432
 20
392.6135580270601
 30
0.0
 70
0
  0
VERTEX
  5
327
  8
CUT
 10
702.7400039215353
 20
393.40122500275885
 30
0.0
 70
0
  0
VERTEX
  5
328
  8
CUT
 10
707.8864150102211
 20
394.0322396432647
 30
0.0
 70
0
  0
VERTEX
  5
329
  8
CUT
 10
713.0496759489439
 20
394.5060149580912
 30
0.0
 70
0
  0
VERTEX
  5
32A
  8
CUT
 10
718.224983703265
 20
394.82211022592287
 30
0.0
 70
0
  0
VERTEX
  5
32B
  8
CUT
 10
723.4075240324026
 20
394.98023140458844
 30
0.0
 70
0
  0
VERTEX
  5
32C
  8
CUT
 10
728.5924759675975
 20
394.98023140458844
 30
0.0
 70
0
  0
VERTEX
  5
32D
  8
CUT
 10
733.7750162967351
 20
394.82211022592287
 30
0.0
 70
0
  0
VERTEX
  5
32E
  8
CUT
 10
738.9503240510561
 20
394.5060149580912
 30
0.0
 70
0
  0
VERTEX
  5
32F
  8
CUT
 10
744.1135849897789
 20
394.0322396432647
 30
0.0
 70
0
  0
VERTEX
  5
330
  8
CUT
 10
749.2599960784647
 20
393.4012250027588
 30
0.0
 70
0
  0
VERTEX
  5
331
  8
CUT
 10
754.3847699569568
 20
392.6135580270601
 30
0.0
 70
0
  0
VERTEX
  5
332
  8
CUT
 10
759.4831393927401
 20
391.669971429788
 30
0.0
 70
0
  0
VERTEX
  5
333
  8
CUT
 10
764.550361715577
 20
390.5713429661008
 30
0.0
 70
0
  0
VERTEX
  5
334
  8
CUT
 10
769.5817232292947
 20
389.3186946161792
 30
0.0
 70
0
  0
VERTEX
  5
335
  8
CUT
 10
774.5725435966193
 20
387.91319163454665
 30
0.0
 70
0
  0
VERTEX
  5
336
  8
CUT
 10
779.5181801929795
 20
386.35614146611147
 30
0.0
 70
0
  0
VERTEX
  5
337
  8
CUT
 10
784.4140324252272
 20
384.64899252993894
 30
0.0
 70
0
  0
VERTEX
  5
338
  8
CUT
 10
789.2555460112609
 20
382.7933328718842
 30
0.0
 70
0
  0
VERTEX
  5
339
  8
CUT
 10
794.0382172165672
 20
380.79088868734016
 30
0.0
 70
0
  0
VERTEX
  5
33A
  8
CUT
 10
798.7575970437427
 20
378.6435227154739
 30
0.0
 70
0
  0
VERTEX
  5
33B
  8
CUT
 10
803.4092953710971
 20
376.3532325064458
 30
0.0
 70
0
  0
VERTEX
  5
33C
  8
CUT
 10
807.9889850364875
 20
373.9221485632229
 30
0.0
 70
0
  0
VERTEX
  5
33D
  8
CUT
 10
812.4924058625875
 20
371.35253235971504
 30
0.0
 70
0
  0
VERTEX
  5
33E
  8
CUT
 10
816.9153686198426
 20
368.64677423707826
 30
0.0
 70
0
  0
VERTEX
  5
33F
  8
CUT
 10
821.2537589234295
 20
365.8073911801407
 30
0.0
 70
0
  0
VERTEX
  5
340
  8
CUT
 10
825.5035410605911
 20
362.83702447602116
 30
0.0
 70
0
  0
VERTEX
  5
341
  8
CUT
 10
829.6607617447892
 20
359.73843725711697
 30
0.0
 70
0
  0
VERTEX
  5
342
  8
CUT
 10
833.7215537931806
 20
356.5145119307482
 30
0.0
 70
0
  0
VERTEX
  5
343
  8
CUT
 10
837.6821397239975
 20
353.1682474978476
 30
0.0
 70
0
  0
VERTEX
  5
344
  8
CUT
 10
841.5388352704848
 20
349.70275676319176
 30
0.0
 70
0
  0
VERTEX
  5
345
  8
CUT
 10
845.2880528081258
 20
346.12126343976837
 30
0.0
 70
0
  0
VERTEX
  5
346
  8
CUT
 10
848.9263046919677
 20
342.42709914997266
 30
0.0
 70
0
  0
VERTEX
  5
347
  8
CUT
 10
852.4502065009433
 20
338.62370032642303
 30
0.0
 70
0
  0
VERTEX
  5
348
  8
CUT
 10
855.8564801861706
 20
334.71460501527895
 30
0.0
 70
0
  0
VERTEX
  5
349
  8
CUT
 10
859.1419571203008
 20
330.7034495850346
 30
0.0
 70
0
  0
VERTEX
  5
34A
  8
CUT
 10
862.3035810450798
 20
326.59396534384985
 30
0.0
 70
0
  0
VERTEX
  5
34B
  8
CUT
 10
865.338410914379
 20
322.3899750685648
 30
0.0
 70
0
  0
VERTEX
  5
34C
  8
CUT
 10
868.2436236300532
 20
318.09538944862834
 30
0.0
 70
0
  0
VERTEX
  5
34D
  8
CUT
 10
871.016516668079
 20
313.7142034482458
 30
0.0
 70
0
  0
VERTEX
  5
34E
  8
CUT
 10
873.6545105925313
 20
309.25049259013304
 30
0.0
 70
0
  0
VERTEX
  5
34F
  8
CUT
 10
876.1551514550583
 20
304.70840916433156
 30
0.0
 70
0
  0
VERTEX
  5
350
  8
CUT
 10
878.5161130776256
 20
300.09217836561226
 30
0.0
 70
0
  0
VERTEX
  5
351
  8
CUT
 10
880.7351992164026
 20
295.40609436306073
 30
0.0
 70
0
  0
VERTEX
  5
352
  8
CUT
 10
882.8103456047804
 20
290.65451630550103
 30
0.0
 70
0
  0
VERTEX
  5
353
  8
CUT
 10
884.739621873621
 20
285.84186426647216
 30
0.0
 70
0
  0
VERTEX
  5
354
  8
CUT
 10
886.5212333469487
 20
280.9726151325309
 30
0.0
 70
0
  0
VERTEX
  5
355
  8
CUT
 10
888.1535227114175
 20
276.0512984387057
 30
0.0
 70
0
  0
VERTEX
  5
356
  8
CUT
 10
889.6349715579977
 20
271.0824921549744
 30
0.0
 70
0
  0
VERTEX
  5
357
  8
CUT
 10
890.9642017944498
 20
266.0708184276871
 30
0.0
 70
0
  0
VERTEX
  5
358
  8
CUT
 10
892.1399769272713
 20
261.0209392798936
 30
0.0
 70
0
  0
VERTEX
  5
359
  8
CUT
 10
893.161203211923
 20
255.9375522745775
 30
0.0
 70
0
  0
VERTEX
  5
35A
  8
CUT
 10
894.0269306702663
 20
250.8253861448287
 30
0.0
 70
0
  0
VERTEX
  5
35B
  8
CUT
 10
894.7363539742644
 20
245.68919639502133
 30
0.0
 70
0
  0
VERTEX
  5
35C
  8
CUT
 10
895.2888131951236
 20
240.53376087708804
 30
0.0
 70
0
  0
VERTEX
  5
35D
  8
CUT
 10
895.683794417182
 20
235.363875346005
 30
0.0
 70
0
  0
VERTEX
  5
35E
  8
CUT
 10
895.9209302159697
 20
230.18434899862402
 30
0.0
 70
0
  0
VERTEX
  5
35F
  8
CUT
 10
896.0
 20
225.0
 30
0.0
 70
0
  0
VERTEX
  5
360
  8
CUT
 10
895.9209302159697
 20
219.81565100137595
 30
0.0
 70
0
  0
VERTEX
  5
361
  8
CUT
 10
895.683794417182
 20
214.63612465399495
 30
0.0
 70
0
  0
VERTEX
  5
362
  8
CUT
 10
895.2888131951236
 20
209.4662391229119
 30
0.0
 70
0
  0
VERTEX
  5
363
  8
CUT
 10
894.7363539742644
 20
204.31080360497862
 30
0.0
 70
0
  0
VERTEX
  5
364
  8
CUT
 10
894.0269306702663
 20
199.17461385517134
 30
0.0
 70
0
  0
VERTEX
  5
365
  8
CUT
 10
893.161203211923
 20
194.06244772542254
 30
0.0
 70
0
  0
VERTEX
  5
366
  8
CUT
 10
892.1399769272712
 20
188.9790607201064
 30
0.0
 70
0
  0
VERTEX
  5
367
  8
CUT
 10
890.9642017944498
 20
183.92918157231293
 30
0.0
 70
0
  0
VERTEX
  5
368
  8
CUT
 10
889.6349715579977
 20
178.91750784502557
 30
0.0
 70
0
  0
VERTEX
  5
369
  8
CUT
 10
888.1535227114175
 20
173.94870156129434
 30
0.0
 70
0
  0
VERTEX
  5
36A
  8
CUT
 10
886.5212333469487
 20
169.02738486746915
 30
0.0
 70
0
  0
VERTEX
  5
36B
  8
CUT
 10
884.739621873621
 20
164.1581357335279
 30
0.0
 70
0
  0
VERTEX
  5
36C
  8
CUT
 10
882.8103456047804
 20
159.34548369449894
 30
0.0
 70
0
  0
VERTEX
  5
36D
  8
CUT
 10
880.7351992164026
 20
154.59390563693927
 30
0.0
 70
0
  0
VERTEX
  5
36E
  8
CUT
 10
878.5161130776256
 20
149.9078216343878
 30
0.0
 70
0
  0
VERTEX
  5
36F
  8
CUT
 10
876.1551514550583
 20
145.29159083566844
 30
0.0
 70
0
  0
VERTEX
  5
370
  8
CUT
 10
873.6545105925313
 20
140.74950740986696
 30
0.0
 70
0
  0
VERTEX
  5
371
  8
CUT
 10
871.016516668079
 20
136.2857965517542
 30
0.0
 70
0
  0
VERTEX
  5
372
  8
CUT
 10
868.2436236300532
 20
131.90461055137166
 30
0.0
 70
0
  0
VERTEX
  5
373
  8
CUT
 10
865.338410914379
 20
127.61002493143513
 30
0.0
 70
0
  0
VERTEX
  5
374
  8
CUT
 10
862.3035810450798
 20
123.40603465615018
 30
0.0
 70
0
  0
VERTEX
  5
375
  8
CUT
 10
859.141957120301
 20
119.29655041496538
 30
0.0
 70
0
  0
VERTEX
  5
376
  8
CUT
 10
855.8564801861706
 20
115.28539498472105
 30
0.0
 70
0
  0
VERTEX
  5
377
  8
CUT
 10
852.4502065009433
 20
111.37629967357695
 30
0.0
 70
0
  0
VERTEX
  5
378
  8
CUT
 10
848.9263046919677
 20
107.57290085002728
 30
0.0
 70
0
  0
VERTEX
  5
379
  8
CUT
 10
845.2880528081258
 20
103.87873656023157
 30
0.0
 70
0
  0
VERTEX
  5
37A
  8
CUT
 10
841.5388352704848
 20
100.29724323680826
 30
0.0
 70
0
  0
VERTEX
  5
37B
  8
CUT
 10
837.6821397239975
 20
96.83175250215245
 30
0.0
 70
0
  0
VERTEX
  5
37C
  8
CUT
 10
833.7215537931805
 20
93.48548806925183
 30
0.0
 70
0
  0
VERTEX
  5
37D
  8
CUT
 10
829.6607617447893
 20
90.26156274288306
 30
0.0
 70
0
  0
VERTEX
  5
37E
  8
CUT
 10
825.5035410605911
 20
87.16297552397884
 30
0.0
 70
0
  0
VERTEX
  5
37F
  8
CUT
 10
821.2537589234295
 20
84.19260881985926
 30
0.0
 70
0
  0
VERTEX
  5
380
  8
CUT
 10
816.9153686198426
 20
81.35322576292174
 30
0.0
 70
0
  0
VERTEX
  5
381
  8
CUT
 10
812.4924058625875
 20
78.64746764028493
 30
0.0
 70
0
  0
VERTEX
  5
382
  8
CUT
 10
807.9889850364875
 20
76.07785143677714
 30
0.0
 70
0
  0
VERTEX
  5
383
  8
CUT
 10
803.4092953710971
 20
73.6467674935542
 30
0.0
 70
0
  0
VERTEX
  5
384
  8
CUT
 10
798.7575970437427
 20
71.35647728452608
 30
0.0
 70
0
  0
VERTEX
  5
385
  8
CUT
 10
794.0382172165673
 20
69.20911131265984
 30
0.0
 70
0
  0
VERTEX
  5
386
  8
CUT
 10
789.2555460112609
 20
67.20666712811578
 30
0.0
 70
0
  0
VERTEX
  5
387
  8
CUT
 10
784.4140324252272
 20
65.35100747006103
 30
0.0
 70
0
  0
VERTEX
  5
388
  8
CUT
 10
779.5181801929795
 20
63.643858533888505
 30
0.0
 70
0
  0
VERTEX
  5
389
  8
CUT
 10
774.5725435966193
 20
62.08680836545335
 30
0.0
 70
0
  0
VERTEX
  5
38A
  8
CUT
 10
769.5817232292947
 20
60.681305383820785
 30
0.0
 70
0
  0
VERTEX
  5
38B
  8
CUT
 10
764.550361715577
 20
59.42865703389921
 30
0.0
 70
0
  0
VERTEX
  5
38C
  8
CUT
 10
759.4831393927401
 20
58.33002857021202
 30
0.0
 70
0
  0
VERTEX
  5
38D
  8
CUT
 10
754.3847699569568
 20
57.386441972939906
 30
0.0
 70
0
  0
VERTEX
  5
38E
  8
CUT
 10
749.2599960784647
 20
56.59877499724115
 30
0.0
 70
0
  0
VERTEX
  5
38F
  8
CUT
 10
744.1135849897789
 20
55.96776035673534
 30
0.0
 70
0
  0
VERTEX
  5
390
  8
CUT
 10
738.9503240510561
 20
55.493985041908786
 30
0.0
 70
0
  0
VERTEX
  5
391
  8
CUT
 10
733.7750162967351
 20
55.1778897740771
 30
0.0
 70
0
  0
VERTEX
  5
392
  8
CUT
 10
728.5924759675975
 20
55.01976859541156
 30
0.0
 70
0
  0
VERTEX
  5
393
  8
CUT
 10
723.4075240324025
 20
55.01976859541156
 30
0.0
 70
0
  0
VERTEX
  5
394
  8
CUT
 10
718.2249837032649
 20
55.1778897740771
 30
0.0
 70
0
  0
VERTEX
  5
395
  8
CUT
 10
713.049675948944
 20
55.493985041908786
 30
0.0
 70
0
  0
VERTEX
  5
396
  8
CUT
 10
707.8864150102211
 20
55.96776035673534
 30
0.0
 70
0
  0
VERTEX
  5
397
  8
CUT
 10
702.7400039215353
 20
56.59877499724115
 30
0.0
 70
0
  0
VERTEX
  5
398
  8
CUT
 10
697.6152300430433
 20
57.386441972939906
 30
0.0
 70
0
  0
VERTEX
  5
399
  8
CUT
 10
692.51686060726
 20
58.33002857021202
 30
0.0
 70
0
  0
VERTEX
  5
39A
  8
CUT
 10
687.449638284423
 20
59.428657033899185
 30
0.0
 70
0
  0
VERTEX
  5
39B
  8
CUT
 10
682.4182767707053
 20
60.681305383820785
 30
0.0
 70
0
  0
VERTEX
  5
39C
  8
CUT
 10
677.4274564033807
 20
62.08680836545335
 30
0.0
 70
0
  0
VERTEX
  5
39D
  8
CUT
 10
672.4818198070207
 20
63.643858533888505
 30
0.0
 70
0
  0
VERTEX
  5
39E
  8
CUT
 10
667.5859675747728
 20
65.35100747006103
 30
0.0
 70
0
  0
VERTEX
  5
39F
  8
CUT
 10
662.7444539887391
 20
67.20666712811578
 30
0.0
 70
0
  0
VERTEX
  5
3A0
  8
CUT
 10
657.9617827834328
 20
69.20911131265981
 30
0.0
 70
0
  0
VERTEX
  5
3A1
  8
CUT
 10
653.2424029562573
 20
71.35647728452608
 30
0.0
 70
0
  0
VERTEX
  5
3A2
  8
CUT
 10
648.5907046289029
 20
73.64676749355417
 30
0.0
 70
0
  0
VERTEX
  5
3A3
  8
CUT
 10
644.0110149635125
 20
76.07785143677714
 30
0.0
 70
0
  0
VERTEX
  5
3A4
  8
CUT
 10
639.5075941374125
 20
78.64746764028496
 30
0.0
 70
0
  0
VERTEX
  5
3A5
  8
CUT
 10
635.0846313801574
 20
81.35322576292171
 30
0.0
 70
0
  0
VERTEX
  5
3A6
  8
CUT
 10
630.7462410765705
 20
84.19260881985926
 30
0.0
 70
0
  0
VERTEX
  5
3A7
  8
CUT
 10
626.4964589394089
 20
87.16297552397884
 30
0.0
 70
0
  0
VERTEX
  5
3A8
  8
CUT
 10
622.3392382552108
 20
90.261562742883
 30
0.0
 70
0
  0
VERTEX
  5
3A9
  8
CUT
 10
618.2784462068195
 20
93.48548806925183
 30
0.0
 70
0
  0
VERTEX
  5
3AA
  8
CUT
 10
614.3178602760025
 20
96.83175250215245
 30
0.0
 70
0
  0
VERTEX
  5
3AB
  8
CUT
 10
610.4611647295152
 20
100.29724323680823
 30
0.0
 70
0
  0
VERTEX
  5
3AC
  8
CUT
 10
606.7119471918742
 20
103.87873656023162
 30
0.0
 70
0
  0
VERTEX
  5
3AD
  8
CUT
 10
603.0736953080323
 20
107.57290085002731
 30
0.0
 70
0
  0
VERTEX
  5
3AE
  8
CUT
 10
599.5497934990567
 20
111.37629967357695
 30
0.0
 70
0
  0
VERTEX
  5
3AF
  8
CUT
 10
596.1435198138294
 20
115.28539498472101
 30
0.0
 70
0
  0
VERTEX
  5
3B0
  8
CUT
 10
592.8580428796992
 20
119.29655041496534
 30
0.0
 70
0
  0
VERTEX
  5
3B1
  8
CUT
 10
589.6964189549202
 20
123.40603465615013
 30
0.0
 70
0
  0
VERTEX
  5
3B2
  8
CUT
 10
586.661589085621
 20
127.61002493143513
 30
0.0
 70
0
  0
VERTEX
  5
3B3
  8
CUT
 10
583.7563763699468
 20
131.90461055137163
 30
0.0
 70
0
  0
VERTEX
  5
3B4
  8
CUT
 10
580.983483331921
 20
136.28579655175417
 30
0.0
 70
0
  0
VERTEX
  5
3B5
  8
CUT
 10
578.3454894074687
 20
140.7495074098669
 30
0.0
 70
0
  0
VERTEX
  5
3B6
  8
CUT
 10
575.8448485449417
 20
145.2915908356684
 30
0.0
 70
0
  0
VERTEX
  5
3B7
  8
CUT
 10
573.4838869223744
 20
149.90782163438774
 30
0.0
 70
0
  0
VERTEX
  5
3B8
  8
CUT
 10
571.2648007835975
 20
154.59390563693924
 30
0.0
 70
0
  0
VERTEX
  5
3B9
  8
CUT
 10
569.1896543952196
 20
159.3454836944989
 30
0.0
 70
0
  0
VERTEX
  5
3BA
  8
CUT
 10
567.260378126379
 20
164.15813573352784
 30
0.0
 70
0
  0
VERTEX
  5
3BB
  8
CUT
 10
565.4787666530513
 20
169.02738486746907
 30
0.0
 70
0
  0
VERTEX
  5
3BC
  8
CUT
 10
563.8464772885825
 20
173.94870156129426
 30
0.0
 70
0
  0
VERTEX
  5
3BD
  8
CUT
 10
562.3650284420023
 20
178.91750784502563
 30
0.0
 70
0
  0
VERTEX
  5
3BE
  8
CUT
 10
561.0357982055502
 20
183.92918157231293
 30
0.0
 70
0
  0
VERTEX
  5
3BF
  8
CUT
 10
559.8600230727287
 20
188.97906072010642
 30
0.0
 70
0
  0
VERTEX
  5
3C0
  8
CUT
 10
558.8387967880772
 20
194.06244772542246
 30
0.0
 70
0
  0
VERTEX
  5
3C1
  8
CUT
 10
557.9730693297337
 20
199.17461385517126
 30
0.0
 70
0
  0
VERTEX
  5
3C2
  8
CUT
 10
557.2636460257356
 20
204.31080360497864
 30
0.0
 70
0
  0
VERTEX
  5
3C3
  8
CUT
 10
556.7111868048764
 20
209.46623912291193
 30
0.0
 70
0
  0
VERTEX
  5
3C4
  8
CUT
 10
556.316205582818
 20
214.63612465399498
 30
0.0
 70
0
  0
VERTEX
  5
3C5
  8
CUT
 10
556.0790697840303
 20
219.81565100137595
 30
0.0
 70
0
  0
SEQEND
  5
2F7
  8
CUT
  0
POLYLINE
  5
3C6
  8
CUT
 66
1
 10
0.0
 20
0.0
 30
0.0
 70
1
  0
VERTEX
  5
3C8
  8
CUT
 10
440.5
 20
255.5
 30
0.0
 70
0
  0
VERTEX
  5
3C9
  8
CUT
 10
440.4202661519947
 20
260.93094524695675
 30
0.0
 70
0
  0
VERTEX
  5
3CA
  8
CUT
 10
440.18113333756276
 20
266.3572090867476
 30
0.0
 70
0
  0
VERTEX
  5
3CB
  8
CUT
 10
439.7828076862121
 20
271.7741141475213
 30
0.0
 70
0
  0
VERTEX
  5
3CC
  8
CUT
 10
439.2256325496935
 20
277.1769911245776
 30
0.0
 70
0
  0
VERTEX
  5
3CD
  8
CUT
 10
438.5100882060354
 20
282.5611828052497
 30
0.0
 70
0
  0
VERTEX
  5
3CE
  8
CUT
 10
437.6367914455508
 20
287.9220480833636
 30
0.0
 70
0
  0
VERTEX
  5
3CF
  8
CUT
 10
436.60649503917114
 20
293.25496595981366
 30
0.0
 70
0
  0
VERTEX
  5
3D0
  8
CUT
 10
435.42008708956735
 20
298.55533952580663
 30
0.0
 70
0
  0
VERTEX
  5
3D1
  8
CUT
 10
434.07859026561664
 20
303.8185999253394
 30
0.0
 70
0
  0
VERTEX
  5
3D2
  8
CUT
 10
432.5831609208741
 20
309.0402102934962
 30
0.0
 70
0
  0
VERTEX
  5
3D3
  8
CUT
 10
430.93508809681094
 20
314.21566966716966
 30
0.0
 70
0
  0
VERTEX
  5
3D4
  8
CUT
 10
429.13579241167633
 20
319.34051686483474
 30
0.0
 70
0
  0
VERTEX
  5
3D5
  8
CUT
 10
427.18682483594245
 20
324.41033433203194
 30
0.0
 70
0
  0
VERTEX
  5
3D6
  8
CUT
 10
425.08986535538713
 20
329.420751949244
 30
0.0
 70
0
  0
VERTEX
  5
3D7
  8
CUT
 10
422.84672152296713
 20
334.36745079888465
 30
0.0
 70
0
  0
VERTEX
  5
3D8
  8
CUT
 10
420.4593269007298
 20
339.2461668881516
 30
0.0
 70
0
  0
VERTEX
  5
3D9
  8
CUT
 10
417.92973939310707
 20
344.0526948245355
 30
0.0
 70
0
  0
VERTEX
  5
3DA
  8
CUT
 10
415.2601394730269
 20
348.7828914408156
 30
0.0
 70
0
  0
VERTEX
  5
3DB
  8
CUT
 10
412.4528283023733
 20
353.43267936641854
 30
0.0
 70
0
  0
VERTEX
  5
3DC
  8
CUT
 10
409.51022574841295
 20
357.9980505420609
 30
0.0
 70
0
  0
VERTEX
  5
3DD
  8
CUT
 10
406.4348682979004
 20
362.4750696746464
 30
0.0
 70
0
  0
VERTEX
  5
3DE
  8
CUT
 10
403.22940687065744
 20
366.85987762943955
 30
0.0
 70
0
  0
VERTEX
  5
3DF
  8
CUT
 10
399.8966045345135
 20
371.1486947565917
 30
0.0
 70
0
  0
VERTEX
  5
3E0
  8
CUT
 10
396.4393341235757
 20
375.3378241491521
 30
0.0
 70
0
  0
VERTEX
  5
3E1
  8
CUT
 10
392.86057576188136
 20
379.42365482975583
 30
0.0
 70
0
  0
VERTEX
  5
3E2
  8
CUT
 10
389.1634142945684
 20
383.40266486324106
 30
0.0
 70
0
  0
VERTEX
  5
3E3
  8
CUT
 10
385.35103662877736
 20
387.2714243925136
 30
0.0
 70
0
  0
VERTEX
  5
3E4
  8
CUT
 10
381.4267289865766
 20
391.0265985950407
 30
0.0
 70
0
  0
VERTEX
  5
3E5
  8
CUT
 10
377.39387407228054
 20
394.66495055742666
 30
0.0
 70
0
  0
VERTEX
  5
3E6
  8
CUT
 10
373.2559481566001
 20
398.183344065592
 30
0.0
 70
0
  0
VERTEX
  5
3E7
  8
CUT
 10
369.0165180801409
 20
401.5787463081507
 30
0.0
 70
0
  0
VERTEX
  5
3E8
  8
CUT
 10
364.67923817883093
 20
404.84823049065596
 30
0.0
 70
0
  0
VERTEX
  5
3E9
  8
CUT
 10
360.24784713392864
 20
407.9889783584607
 30
0.0
 70
0
  0
VERTEX
  5
3EA
  8
CUT
 10
355.72616474932636
 20
410.9982826260178
 30
0.0
 70
0
  0
VERTEX
  5
3EB
  8
CUT
 10
351.1180886589264
 20
413.87354931052624
 30
0.0
 70
0
  0
VERTEX
  5
3EC
  8
CUT
 10
346.42759096692987
 20
416.61229996791275
 30
0.0
 70
0
  0
VERTEX
  5
3ED
  8
CUT
 10
341.65871482393175
 20
419.21217382921895
 30
0.0
 70
0
  0
VERTEX
  5
3EE
  8
CUT
 10
336.8155709417758
 20
421.6709298355553
 30
0.0
 70
0
  0
VERTEX
  5
3EF
  8
CUT
 10
331.9023340501718
 20
423.98644856986556
 30
0.0
 70
0
  0
VERTEX
  5
3F0
  8
CUT
 10
326.9232392981311
 20
426.15673408383833
 30
0.0
 70
0
  0
VERTEX
  5
3F1
  8
CUT
 10
321.8825786033202
 20
428.1799156183892
 30
0.0
 70
0
  0
VERTEX
  5
3F2
  8
CUT
 10
316.78469695248157
 20
430.05424921623217
 30
0.0
 70
0
  0
VERTEX
  5
3F3
  8
CUT
 10
311.63398865610935
 20
431.7781192251488
 30
0.0
 70
0
  0
VERTEX
  5
3F4
  8
CUT
 10
306.4348935606081
 20
433.35003969066054
 30
0.0
 70
0
  0
VERTEX
  5
3F5
  8
CUT
 10
301.1918932212006
 20
434.7686556369027
 30
0.0
 70
0
  0
VERTEX
  5
3F6
  8
CUT
 10
295.90950703888313
 20
436.0327442345971
 30
0.0
 70
0
  0
VERTEX
  5
3F7
  8
CUT
 10
290.5922883647579
 20
437.14121585511555
 30
0.0
 70
0
  0
VERTEX
  5
3F8
  8
CUT
 10
285.24482057510164
 20
438.0931150097259
 30
0.0
 70
0
  0
VERTEX
  5
3F9
  8
CUT
 10
279.87171312055153
 20
438.8876211732121
 30
0.0
 70
0
  0
VERTEX
  5
3FA
  8
CUT
 10
274.47759755281663
 20
439.52404949115567
 30
0.0
 70
0
  0
VERTEX
  5
3FB
  8
CUT
 10
269.06712353233826
 20
440.0018513702729
 30
0.0
 70
0
  0
VERTEX
  5
3FC
  8
CUT
 10
263.6449548203398
 20
440.3206149512944
 30
0.0
 70
0
  0
VERTEX
  5
3FD
  8
CUT
 10
258.2157652587236
 20
440.48006546398324
 30
0.0
 70
0
  0
VERTEX
  5
3FE
  8
CUT
 10
252.78423474127646
 20
440.48006546398324
 30
0.0
 70
0
  0
VERTEX
  5
3FF
  8
CUT
 10
247.35504517966012
 20
440.3206149512944
 30
0.0
 70
0
  0
VERTEX
  5
400
  8
CUT
 10
241.9328764676618
 20
440.0018513702729
 30
0.0
 70
0
  0
VERTEX
  5
401
  8
CUT
 10
236.52240244718337
 20
439.52404949115567
 30
0.0
 70
0
  0
VERTEX
  5
402
  8
CUT
 10
231.12828687944852
 20
438.8876211732121
 30
0.0
 70
0
  0
VERTEX
  5
403
  8
CUT
 10
225.75517942489842
 20
438.0931150097259
 30
0.0
 70
0
  0
VERTEX
  5
404
  8
CUT
 10
220.4077116352421
 20
437.14121585511555
 30
0.0
 70
0
  0
VERTEX
  5
405
  8
CUT
 10
215.09049296111695
 20
436.0327442345971
 30
0.0
 70
0
  0
VERTEX
  5
406
  8
CUT
 10
209.80810677879947
 20
434.76865563690274
 30
0.0
 70
0
  0
VERTEX
  5
407
  8
CUT
 10
204.5651064393919
 20
433.35003969066054
 30
0.0
 70
0
  0
VERTEX
  5
408
  8
CUT
 10
199.3660113438907
 20
431.7781192251488
 30
0.0
 70
0
  0
VERTEX
  5
409
  8
CUT
 10
194.21530304751846
 20
430.0542492162322
 30
0.0
 70
0
  0
VERTEX
  5
40A
  8
CUT
 10
189.11742139667987
 20
428.17991561838926
 30
0.0
 70
0
  0
VERTEX
  5
40B
  8
CUT
 10
184.07676070186892
 20
426.15673408383833
 30
0.0
 70
0
  0
VERTEX
  5
40C
  8
CUT
 10
179.09766594982813
 20
423.9864485698655
 30
0.0
 70
0
  0
VERTEX
  5
40D
  8
CUT
 10
174.1844290582242
 20
421.6709298355553
 30
0.0
 70
0
  0
VERTEX
  5
40E
  8
CUT
 10
169.34128517606825
 20
419.21217382921895
 30
0.0
 70
0
  0
VERTEX
  5
40F
  8
CUT
 10
164.57240903307013
 20
416.6122999679127
 30
0.0
 70
0
  0
VERTEX
  5
410
  8
CUT
 10
159.8819113410736
 20
413.8735493105263
 30
0.0
 70
0
  0
VERTEX
  5
411
  8
CUT
 10
155.2738352506737
 20
410.9982826260178
 30
0.0
 70
0
  0
VERTEX
  5
412
  8
CUT
 10
150.75215286607136
 20
407.98897835846077
 30
0.0
 70
0
  0
VERTEX
  5
413
  8
CUT
 10
146.32076182116916
 20
404.8482304906561
 30
0.0
 70
0
  0
VERTEX
  5
414
  8
CUT
 10
141.98348191985914
 20
401.5787463081507
 30
0.0
 70
0
  0
VERTEX
  5
415
  8
CUT
 10
137.74405184339992
 20
398.18334406559205
 30
0.0
 70
0
  0
VERTEX
  5
416
  8
CUT
 10
133.60612592771946
 20
394.66495055742666
 30
0.0
 70
0
  0
VERTEX
  5
417
  8
CUT
 10
129.57327101342338
 20
391.0265985950407
 30
0.0
 70
0
  0
VERTEX
  5
418
  8
CUT
 10
125.64896337122266
 20
387.2714243925136
 30
0.0
 70
0
  0
VERTEX
  5
419
  8
CUT
 10
121.83658570543162
 20
383.4026648632411
 30
0.0
 70
0
  0
VERTEX
  5
41A
  8
CUT
 10
118.13942423811875
 20
379.42365482975583
 30
0.0
 70
0
  0
VERTEX
  5
41B
  8
CUT
 10
114.56066587642431
 20
375.3378241491521
 30
0.0
 70
0
  0
VERTEX
  5
41C
  8
CUT
 10
111.1033954654865
 20
371.1486947565917
 30
0.0
 70
0
  0
VERTEX
  5
41D
  8
CUT
 10
107.77059312934259
 20
366.8598776294396
 30
0.0
 70
0
  0
VERTEX
  5
41E
  8
CUT
 10
104.56513170209959
 20
362.4750696746464
 30
0.0
 70
0
  0
VERTEX
  5
41F
  8
CUT
 10
101.48977425158705
 20
357.9980505420609
 30
0.0
 70
0
  0
VERTEX
  5
420
  8
CUT
 10
98.5471716976268
 20
353.4326793664186
 30
0.0
 70
0
  0
VERTEX
  5
421
  8
CUT
 10
95.73986052697305
 20
348.78289144081555
 30
0.0
 70
0
  0
VERTEX
  5
422
  8
CUT
 10
93.0702606068929
 20
344.0526948245355
 30
0.0
 70
0
  0
VERTEX
  5
423
  8
CUT
 10
90.54067309927015
 20
339.24616688815166
 30
0.0
 70
0
  0
VERTEX
  5
424
  8
CUT
 10
88.1532784770329
 20
334.3674507988847
 30
0.0
 70
0
  0
VERTEX
  5
425
  8
CUT
 10
85.9101346446129
 20
329.42075194924405
 30
0.0
 70
0
  0
VERTEX
  5
426
  8
CUT
 10
83.81317516405755
 20
324.41033433203194
 30
0.0
 70
0
  0
VERTEX
  5
427
  8
CUT
 10
81.8642075883237
 20
319.3405168648348
 30
0.0
 70
0
  0
VERTEX
  5
428
  8
CUT
 10
80.06491190318906
 20
314.21566966716966
 30
0.0
 70
0
  0
VERTEX
  5
429
  8
CUT
 10
78.41683907912588
 20
309.0402102934963
 30
0.0
 70
0
  0
VERTEX
  5
42A
  8
CUT
 10
76.92140973438339
 20
303.81859992533947
 30
0.0
 70
0
  0
VERTEX
  5
42B
  8
CUT
 10
75.57991291043263
 20
298.5553395258066
 30
0.0
 70
0
  0
VERTEX
  5
42C
  8
CUT
 10
74.39350496082889
 20
293.25496595981366
 30
0.0
 70
0
  0
VERTEX
  5
42D
  8
CUT
 10
73.36320855444922
 20
287.9220480833636
 30
0.0
 70
0
  0
VERTEX
  5
42E
  8
CUT
 10
72.48991179396461
 20
282.5611828052498
 30
0.0
 70
0
  0
VERTEX
  5
42F
  8
CUT
 10
71.77436745030653
 20
277.1769911245776
 30
0.0
 70
0
  0
VERTEX
  5
430
  8
CUT
 10
71.21719231378788
 20
271.7741141475213
 30
0.0
 70
0
  0
VERTEX
  5
431
  8
CUT
 10
70.81886666243722
 20
266.3572090867476
 30
0.0
 70
0
  0
VERTEX
  5
432
  8
CUT
 10
70.5797338480053
 20
260.93094524695675
 30
0.0
 70
0
  0
VERTEX
  5
433
  8
CUT
 10
70.5
 20
255.5
 30
0.0
 70
0
  0
VERTEX
  5
434
  8
CUT
 10
70.5797338480053
 20
250.0690547530433
 30
0.0
 70
0
  0
VERTEX
  5
435
  8
CUT
 10
70.81886666243722
 20
244.64279091325244
 30
0.0
 70
0
  0
VERTEX
  5
436
  8
CUT
 10
71.21719231378788
 20
239.22588585247877
 30
0.0
 70
0
  0
VERTEX
  5
437
  8
CUT
 10
71.77436745030653
 20
233.8230088754224
 30
0.0
 70
0
  0
VERTEX
  5
438
  8
CUT
 10
72.48991179396458
 20
228.43881719475033
 30
0.0
 70
0
  0
VERTEX
  5
439
  8
CUT
 10
73.36320855444922
 20
223.0779519166364
 30
0.0
 70
0
  0
VERTEX
  5
43A
  8
CUT
 10
74.39350496082889
 20
217.74503404018637
 30
0.0
 70
0
  0
VERTEX
  5
43B
  8
CUT
 10
75.57991291043263
 20
212.44466047419337
 30
0.0
 70
0
  0
VERTEX
  5
43C
  8
CUT
 10
76.92140973438333
 20
207.18140007466064
 30
0.0
 70
0
  0
VERTEX
  5
43D
  8
CUT
 10
78.41683907912588
 20
201.95978970650378
 30
0.0
 70
0
  0
VERTEX
  5
43E
  8
CUT
 10
80.06491190318906
 20
196.7843303328304
 30
0.0
 70
0
  0
VERTEX
  5
43F
  8
CUT
 10
81.8642075883237
 20
191.65948313516526
 30
0.0
 70
0
  0
VERTEX
  5
440
  8
CUT
 10
83.81317516405755
 20
186.58966566796812
 30
0.0
 70
0
  0
VERTEX
  5
441
  8
CUT
 10
85.91013464461287
 20
181.579248050756
 30
0.0
 70
0
  0
VERTEX
  5
442
  8
CUT
 10
88.15327847703284
 20
176.6325492011154
 30
0.0
 70
0
  0
VERTEX
  5
443
  8
CUT
 10
90.54067309927012
 20
171.7538331118484
 30
0.0
 70
0
  0
VERTEX
  5
444
  8
CUT
 10
93.07026060689287
 20
166.94730517546455
 30
0.0
 70
0
  0
VERTEX
  5
445
  8
CUT
 10
95.73986052697308
 20
162.2171085591844
 30
0.0
 70
0
  0
VERTEX
  5
446
  8
CUT
 10
98.54717169762671
 20
157.56732063358152
 30
0.0
 70
0
  0
VERTEX
  5
447
  8
CUT
 10
101.48977425158702
 20
153.00194945793908
 30
0.0
 70
0
  0
VERTEX
  5
448
  8
CUT
 10
104.56513170209956
 20
148.5249303253536
 30
0.0
 70
0
  0
VERTEX
  5
449
  8
CUT
 10
107.77059312934253
 20
144.1401223705605
 30
0.0
 70
0
  0
VERTEX
  5
44A
  8
CUT
 10
111.10339546548647
 20
139.85130524340838
 30
0.0
 70
0
  0
VERTEX
  5
44B
  8
CUT
 10
114.56066587642434
 20
135.66217585084792
 30
0.0
 70
0
  0
VERTEX
  5
44C
  8
CUT
 10
118.13942423811864
 20
131.57634517024422
 30
0.0
 70
0
  0
VERTEX
  5
44D
  8
CUT
 10
121.83658570543159
 20
127.59733513675891
 30
0.0
 70
0
  0
VERTEX
  5
44E
  8
CUT
 10
125.64896337122266
 20
123.72857560748642
 30
0.0
 70
0
  0
VERTEX
  5
44F
  8
CUT
 10
129.57327101342338
 20
119.9734014049593
 30
0.0
 70
0
  0
VERTEX
  5
450
  8
CUT
 10
133.6061259277194
 20
116.33504944257334
 30
0.0
 70
0
  0
VERTEX
  5
451
  8
CUT
 10
137.74405184339983
 20
112.81665593440803
 30
0.0
 70
0
  0
VERTEX
  5
452
  8
CUT
 10
141.98348191985917
 20
109.42125369184927
 30
0.0
 70
0
  0
VERTEX
  5
453
  8
CUT
 10
146.32076182116913
 20
106.15176950934398
 30
0.0
 70
0
  0
VERTEX
  5
454
  8
CUT
 10
150.7521528660713
 20
103.01102164153926
 30
0.0
 70
0
  0
VERTEX
  5
455
  8
CUT
 10
155.2738352506736
 20
100.00171737398227
 30
0.0
 70
0
  0
VERTEX
  5
456
  8
CUT
 10
159.88191134107348
 20
97.12645068947381
 30
0.0
 70
0
  0
VERTEX
  5
457
  8
CUT
 10
164.57240903307013
 20
94.38770003208725
 30
0.0
 70
0
  0
VERTEX
  5
458
  8
CUT
 10
169.3412851760682
 20
91.78782617078107
 30
0.0
 70
0
  0
VERTEX
  5
459
  8
CUT
 10
174.18442905822417
 20
89.32907016444477
 30
0.0
 70
0
  0
VERTEX
  5
45A
  8
CUT
 10
179.09766594982818
 20
87.01355143013441
 30
0.0
 70
0
  0
VERTEX
  5
45B
  8
CUT
 10
184.07676070186892
 20
84.84326591616167
 30
0.0
 70
0
  0
VERTEX
  5
45C
  8
CUT
 10
189.11742139667984
 20
82.8200843816108
 30
0.0
 70
0
  0
VERTEX
  5
45D
  8
CUT
 10
194.21530304751838
 20
80.94575078376783
 30
0.0
 70
0
  0
VERTEX
  5
45E
  8
CUT
 10
199.36601134389056
 20
79.22188077485117
 30
0.0
 70
0
  0
VERTEX
  5
45F
  8
CUT
 10
204.5651064393918
 20
77.64996030933952
 30
0.0
 70
0
  0
VERTEX
  5
460
  8
CUT
 10
209.8081067787994
 20
76.23134436309732
 30
0.0
 70
0
  0
VERTEX
  5
461
  8
CUT
 10
215.09049296111687
 20
74.96725576540288
 30
0.0
 70
0
  0
VERTEX
  5
462
  8
CUT
 10
220.40771163524212
 20
73.85878414488445
 30
0.0
 70
0
  0
VERTEX
  5
463
  8
CUT
 10
225.75517942489842
 20
72.90688499027405
 30
0.0
 70
0
  0
VERTEX
  5
464
  8
CUT
 10
231.1282868794485
 20
72.11237882678793
 30
0.0
 70
0
  0
VERTEX
  5
465
  8
CUT
 10
236.5224024471833
 20
71.4759505088443
 30
0.0
 70
0
  0
VERTEX
  5
466
  8
CUT
 10
241.93287646766169
 20
70.9981486297271
 30
0.0
 70
0
  0
VERTEX
  5
467
  8
CUT
 10
247.35504517966018
 20
70.6793850487056
 30
0.0
 70
0
  0
VERTEX
  5
468
  8
CUT
 10
252.7842347412764
 20
70.51993453601679
 30
0.0
 70
0
  0
VERTEX
  5
469
  8
CUT
 10
258.21576525872354
 20
70.51993453601679
 30
0.0
 70
0
  0
VERTEX
  5
46A
  8
CUT
 10
263.64495482033993
 20
70.6793850487056
 30
0.0
 70
0
  0
VERTEX
  5
46B
  8
CUT
 10
269.06712353233826
 20
70.9981486297271
 30
0.0
 70
0
  0
VERTEX
  5
46C
  8
CUT
 10
274.47759755281663
 20
71.4759505088443
 30
0.0
 70
0
  0
VERTEX
  5
46D
  8
CUT
 10
279.8717131205514
 20
72.11237882678793
 30
0.0
 70
0
  0
VERTEX
  5
46E
  8
CUT
 10
285.2448205751015
 20
72.90688499027402
 30
0.0
 70
0
  0
VERTEX
  5
46F
  8
CUT
 10
290.5922883647578
 20
73.85878414488445
 30
0.0
 70
0
  0
VERTEX
  5
470
  8
CUT
 10
295.9095070388831
 20
74.96725576540288
 30
0.0
 70
0
  0
VERTEX
  5
471
  8
CUT
 10
301.19189322120053
 20
76.23134436309729
 30
0.0
 70
0
  0
VERTEX
  5
472
  8
CUT
 10
306.43489356060815
 20
77.64996030933949
 30
0.0
 70
0
  0
VERTEX
  5
473
  8
CUT
 10
311.63398865610935
 20
79.22188077485117
 30
0.0
 70
0
  0
VERTEX
  5
474
  8
CUT
 10
316.78469695248157
 20
80.9457507837678
 30
0.0
 70
0
  0
VERTEX
  5
475
  8
CUT
 10
321.8825786033201
 20
82.82008438161074
 30
0.0
 70
0
  0
VERTEX
  5
476
  8
CUT
 10
326.923239298131
 20
84.84326591616167
 30
0.0
 70
0
  0
VERTEX
  5
477
  8
CUT
 10
331.9023340501719
 20
87.01355143013447
 30
0.0
 70
0
  0
VERTEX
  5
478
  8
CUT
 10
336.8155709417758
 20
89.32907016444474
 30
0.0
 70
0
  0
VERTEX
  5
479
  8
CUT
 10
341.65871482393175
 20
91.78782617078105
 30
0.0
 70
0
  0
VERTEX
  5
47A
  8
CUT
 10
346.42759096693
 20
94.38770003208731
 30
0.0
 70
0
  0
VERTEX
  5
47B
  8
CUT
 10
351.11808865892647
 20
97.12645068947378
 30
0.0
 70
0
  0
VERTEX
  5
47C
  8
CUT
 10
355.72616474932636
 20
100.00171737398225
 30
0.0
 70
0
  0
VERTEX
  5
47D
  8
CUT
 10
360.24784713392864
 20
103.01102164153923
 30
0.0
 70
0
  0
VERTEX
  5
47E
  8
CUT
 10
364.6792381788308
 20
106.15176950934395
 30
0.0
 70
0
  0
VERTEX
  5
47F
  8
CUT
 10
369.01651808014077
 20
109.42125369184922
 30
0.0
 70
0
  0
VERTEX
  5
480
  8
CUT
 10
373.25594815659997
 20
112.81665593440789
 30
0.0
 70
0
  0
VERTEX
  5
481
  8
CUT
 10
377.39387407228054
 20
116.33504944257331
 30
0.0
 70
0
  0
VERTEX
  5
482
  8
CUT
 10
381.4267289865767
 20
119.97340140495936
 30
0.0
 70
0
  0
VERTEX
  5
483
  8
CUT
 10
385.35103662877736
 20
123.72857560748642
 30
0.0
 70
0
  0
VERTEX
  5
484
  8
CUT
 10
389.1634142945684
 20
127.59733513675894
 30
0.0
 70
0
  0
VERTEX
  5
485
  8
CUT
 10
392.8605757618813
 20
131.57634517024417
 30
0.0
 70
0
  0
VERTEX
  5
486
  8
CUT
 10
396.43933412357563
 20
135.66217585084786
 30
0.0
 70
0
  0
VERTEX
  5
487
  8
CUT
 10
399.8966045345135
 20
139.85130524340823
 30
0.0
 70
0
  0
VERTEX
  5
488
  8
CUT
 10
403.22940687065733
 20
144.14012237056033
 30
0.0
 70
0
  0
VERTEX
  5
489
  8
CUT
 10
406.4348682979004
 20
148.52493032535358
 30
0.0
 70
0
  0
VERTEX
  5
48A
  8
CUT
 10
409.51022574841295
 20
153.00194945793905
 30
0.0
 70
0
  0
VERTEX
  5
48B
  8
CUT
 10
412.4528283023732
 20
157.56732063358135
 30
0.0
 70
0
  0
VERTEX
  5
48C
  8
CUT
 10
415.2601394730269
 20
162.2171085591844
 30
0.0
 70
0
  0
VERTEX
  5
48D
  8
CUT
 10
417.92973939310707
 20
166.9473051754645
 30
0.0
 70
0
  0
VERTEX
  5
48E
  8
CUT
 10
420.4593269007298
 20
171.75383311184834
 30
0.0
 70
0
  0
VERTEX
  5
48F
  8
CUT
 10
422.8467215229671
 20
176.63254920111527
 30
0.0
 70
0
  0
VERTEX
  5
490
  8
CUT
 10
425.0898653553871
 20
181.57924805075584
 30
0.0
 70
0
  0
VERTEX
  5
491
  8
CUT
 10
427.18682483594245
 20
186.589665667968
 30
0.0
 70
0
  0
VERTEX
  5
492
  8
CUT
 10
429.13579241167633
 20
191.6594831351652
 30
0.0
 70
0
  0
VERTEX
  5
493
  8
CUT
 10
430.93508809681094
 20
196.7843303328304
 30
0.0
 70
0
  0
VERTEX
  5
494
  8
CUT
 10
432.58316092087415
 20
201.95978970650378
 30
0.0
 70
0
  0
VERTEX
  5
495
  8
CUT
 10
434.07859026561664
 20
207.1814000746606
 30
0.0
 70
0
  0
VERTEX
  5
496
  8
CUT
 10
435.42008708956735
 20
212.4446604741933
 30
0.0
 70
0
  0
VERTEX
  5
497
  8
CUT
 10
436.60649503917114
 20
217.74503404018623
 30
0.0
 70
0
  0
VERTEX
  5
498
  8
CUT
 10
437.6367914455508
 20
223.07795191663627
 30
0.0
 70
0
  0
VERTEX
  5
499
  8
CUT
 10
438.51008820603533
 20
228.4388171947501
 30
0.0
 70
0
  0
VERTEX
  5
49A
  8
CUT
 10
439.2256325496935
 20
233.82300887542232
 30
0.0
 70
0
  0
VERTEX
  5
49B
  8
CUT
 10
439.78280768621215
 20
239.22588585247877
 30
0.0
 70
0
  0
VERTEX
  5
49C
  8
CUT
 10
440.18113333756276
 20
244.64279091325244
 30
0.0
 70
0
  0
VERTEX
  5
49D
  8
CUT
 10
440.4202661519947
 20
250.06905475304325
 30
0.0
 70
0
  0
SEQEND
  5
3C7
  8
CUT
  0
POLYLINE
  5
49E
  8
CUT
 66
1
 10
0.0
 20
0.0
 30
0.0
 70
1
  0
VERTEX
  5
4A0
  8
CUT
 10
115.5
 20
255.5
 30
0.0
 70
0
  0
VERTEX
  5
4A1
  8
CUT
 10
115.57987126983949
 20
260.2283798636855
 30
0.0
 70
0
  0
VERTEX
  5
4A2
  8
CUT
 10
115.81939394479011
 20
264.95136456017116
 30
0.0
 70
0
  0
VERTEX
  5
4A3
  8
CUT
 10
116.21829472513468
 20
269.66356507824054
 30
0.0
 70
0
  0
VERTEX
  5
4A4
  8
CUT
 10
116.77611845784656
 20
274.35960471162053
 30
0.0
 70
0
  0
VERTEX
  5
4A5
  8
CUT
 10
117.49222865592748
 20
279.03412519390076
 30
0.0
 70
0
  0
VERTEX
  5
4A6
  8
CUT
 10
118.36580822465078
 20
283.6817928124124
 30
0.0
 70
0
  0
VERTEX
  5
4A7
  8
CUT
 10
119.39586039388129
 20
288.29730449409146
 30
0.0
 70
0
  0
VERTEX
  5
4A8
  8
CUT
 10
120.58120985540828
 20
292.87539385638127
 30
0.0
 70
0
  0
VERTEX
  5
4A9
  8
CUT
 10
121.92050410399315
 20
297.4108372162701
 30
0.0
 70
0
  0
VERTEX
  5
4AA
  8
CUT
 10
123.41221498060278
 20
301.89845955060906
 30
0.0
 70
0
  0
VERTEX
  5
4AB
  8
CUT
 10
125.05464041606643
 20
306.3331404009065
 30
0.0
 70
0
  0
VERTEX
  5
4AC
  8
CUT
 10
126.84590637316771
 20
310.7098197158646
 30
0.0
 70
0
  0
VERTEX
  5
4AD
  8
CUT
 10
128.78396898495504
 20
315.0235036249897
 30
0.0
 70
0
  0
VERTEX
  5
4AE
  8
CUT
 10
130.8666168868308
 20
319.26927013668876
 30
0.0
 70
0
  0
VERTEX
  5
4AF
  8
CUT
 10
133.0914737397585
 20
323.44227475435133
 30
0.0
 70
0
  0
VERTEX
  5
4B0
  8
CUT
 10
135.45600094170888
 20
327.5377560040081
 30
0.0
 70
0
  0
VERTEX
  5
4B1
  8
CUT
 10
137.95750052425058
 20
331.5510408672586
 30
0.0
 70
0
  0
VERTEX
  5
4B2
  8
CUT
 10
140.5931182309813
 20
335.4775501132709
 30
0.0
 70
0
  0
VERTEX
  5
4B3
  8
CUT
 10
143.35984677428615
 20
339.3128035237661
 30
0.0
 70
0
  0
VERTEX
  5
4B4
  8
CUT
 10
146.25452926670715
 20
343.05242500502914
 30
0.0
 70
0
  0
VERTEX
  5
4B5
  8
CUT
 10
149.27386282300927
 20
346.6921475811111
 30
0.0
 70
0
  0
VERTEX
  5
4B6
  8
CUT
 10
152.4144023288324
 20
350.22781826252606
 30
0.0
 70
0
  0
VERTEX
  5
4B7
  8
CUT
 10
155.67256437162916
 20
353.6554027848874
 30
0.0
 70
0
  0
VERTEX
  5
4B8
  8
CUT
 10
159.04463132940387
 20
356.9709902120768
 30
0.0
 70
0
  0
VERTEX
  5
4B9
  8
CUT
 10
162.52675561258656
 20
360.17079739869325
 30
0.0
 70
0
  0
VERTEX
  5
4BA
  8
CUT
 10
166.11496405420232
 20
363.25117330669053
 30
0.0
 70
0
  0
VERTEX
  5
4BB
  8
CUT
 10
169.8051624433272
 20
366.2086031712778
 30
0.0
 70
0
  0
VERTEX
  5
4BC
  8
CUT
 10
173.59314019665698
 20
369.0397125113302
 30
0.0
 70
0
  0
VERTEX
  5
4BD
  8
CUT
 10
177.4745751628589
 20
371.7412709797327
 30
0.0
 70
0
  0
VERTEX
  5
4BE
  8
CUT
 10
181.44503855422525
 20
374.31019604926513
 30
0.0
 70
0
  0
VERTEX
  5
4BF
  8
CUT
 10
185.49999999999997
 20
376.7435565298214
 30
0.0
 70
0
  0
VERTEX
  5
4C0
  8
CUT
 10
189.6348327156142
 20
379.0385759129507
 30
0.0
 70
0
  0
VERTEX
  5
4C1
  8
CUT
 10
193.84481878193122
 20
381.19263553990385
 30
0.0
 70
0
  0
VERTEX
  5
4C2
  8
CUT
 10
198.12515452847776
 20
383.2032775895707
 30
0.0
 70
0
  0
VERTEX
  5
4C3
  8
CUT
 10
202.47095601451934
 20
385.0682078828984
 30
0.0
 70
0
  0
VERTEX
  5
4C4
  8
CUT
 10
206.8772646017252
 20
386.78529850059124
 30
0.0
 70
0
  0
VERTEX
  5
4C5
  8
CUT
 10
211.33905261206425
 20
388.3525902111057
 30
0.0
 70
0
  0
VERTEX
  5
4C6
  8
CUT
 10
215.85122906447742
 20
389.76829470616826
 30
0.0
 70
0
  0
VERTEX
  5
4C7
  8
CUT
 10
220.40864548377914
 20
391.0307966412686
 30
0.0
 70
0
  0
VERTEX
  5
4C8
  8
CUT
 10
225.0061017751608
 20
392.1386554787962
 30
0.0
 70
0
  0
VERTEX
  5
4C9
  8
CUT
 10
229.6383521575935
 20
393.09060713172016
 30
0.0
 70
0
  0
VERTEX
  5
4CA
  8
CUT
 10
234.30011114935928
 20
393.8855654059356
 30
0.0
 70
0
  0
VERTEX
  5
4CB
  8
CUT
 10
238.98605959888155
 20
394.5226232396307
 30
0.0
 70
0
  0
VERTEX
  5
4CC
  8
CUT
 10
243.69085075397373
 20
395.0010537382606
 30
0.0
 70
0
  0
VERTEX
  5
4CD
  8
CUT
 10
248.40911636258022
 20
395.3203110039474
 30
0.0
 70
0
  0
VERTEX
  5
4CE
  8
CUT
 10
253.13547279804965
 20
395.48003075835936
 30
0.0
 70
0
  0
VERTEX
  5
4CF
  8
CUT
 10
257.8645272019504
 20
395.48003075835936
 30
0.0
 70
0
  0
VERTEX
  5
4D0
  8
CUT
 10
262.5908836374198
 20
395.3203110039474
 30
0.0
 70
0
  0
VERTEX
  5
4D1
  8
CUT
 10
267.30914924602627
 20
395.0010537382606
 30
0.0
 70
0
  0
VERTEX
  5
4D2
  8
CUT
 10
272.0139404011185
 20
394.5226232396307
 30
0.0
 70
0
  0
VERTEX
  5
4D3
  8
CUT
 10
276.6998888506407
 20
393.8855654059356
 30
0.0
 70
0
  0
VERTEX
  5
4D4
  8
CUT
 10
281.3616478424065
 20
393.0906071317201
 30
0.0
 70
0
  0
VERTEX
  5
4D5
  8
CUT
 10
285.99389822483926
 20
392.1386554787961
 30
0.0
 70
0
  0
VERTEX
  5
4D6
  8
CUT
 10
290.59135451622086
 20
391.0307966412686
 30
0.0
 70
0
  0
VERTEX
  5
4D7
  8
CUT
 10
295.1487709355226
 20
389.76829470616826
 30
0.0
 70
0
  0
VERTEX
  5
4D8
  8
CUT
 10
299.6609473879358
 20
388.3525902111056
 30
0.0
 70
0
  0
VERTEX
  5
4D9
  8
CUT
 10
304.1227353982748
 20
386.78529850059124
 30
0.0
 70
0
  0
VERTEX
  5
4DA
  8
CUT
 10
308.52904398548066
 20
385.0682078828983
 30
0.0
 70
0
  0
VERTEX
  5
4DB
  8
CUT
 10
312.87484547152224
 20
383.2032775895707
 30
0.0
 70
0
  0
VERTEX
  5
4DC
  8
CUT
 10
317.1551812180688
 20
381.19263553990385
 30
0.0
 70
0
  0
VERTEX
  5
4DD
  8
CUT
 10
321.3651672843858
 20
379.0385759129507
 30
0.0
 70
0
  0
VERTEX
  5
4DE
  8
CUT
 10
325.5
 20
376.74355652982143
 30
0.0
 70
0
  0
VERTEX
  5
4DF
  8
CUT
 10
329.5549614457748
 20
374.31019604926513
 30
0.0
 70
0
  0
VERTEX
  5
4E0
  8
CUT
 10
333.5254248371411
 20
371.7412709797327
 30
0.0
 70
0
  0
VERTEX
  5
4E1
  8
CUT
 10
337.4068598033431
 20
369.0397125113302
 30
0.0
 70
0
  0
VERTEX
  5
4E2
  8
CUT
 10
341.19483755667284
 20
366.2086031712778
 30
0.0
 70
0
  0
VERTEX
  5
4E3
  8
CUT
 10
344.8850359457977
 20
363.25117330669053
 30
0.0
 70
0
  0
VERTEX
  5
4E4
  8
CUT
 10
348.4732443874135
 20
360.17079739869325
 30
0.0
 70
0
  0
VERTEX
  5
4E5
  8
CUT
 10
351.95536867059616
 20
356.9709902120768
 30
0.0
 70
0
  0
VERTEX
  5
4E6
  8
CUT
 10
355.32743562837084
 20
353.6554027848874
 30
0.0
 70
0
  0
VERTEX
  5
4E7
  8
CUT
 10
358.58559767116765
 20
350.227818262526
 30
0.0
 70
0
  0
VERTEX
  5
4E8
  8
CUT
 10
361.72613717699073
 20
346.6921475811111
 30
0.0
 70
0
  0
VERTEX
  5
4E9
  8
CUT
 10
364.74547073329285
 20
343.05242500502914
 30
0.0
 70
0
  0
VERTEX
  5
4EA
  8
CUT
 10
367.6401532257139
 20
339.3128035237661
 30
0.0
 70
0
  0
VERTEX
  5
4EB
  8
CUT
 10
370.4068817690187
 20
335.4775501132709
 30
0.0
 70
0
  0
VERTEX
  5
4EC
  8
CUT
 10
373.0424994757494
 20
331.5510408672586
 30
0.0
 70
0
  0
VERTEX
  5
4ED
  8
CUT
 10
375.54399905829115
 20
327.537756004008
 30
0.0
 70
0
  0
VERTEX
  5
4EE
  8
CUT
 10
377.9085262602415
 20
323.44227475435133
 30
0.0
 70
0
  0
VERTEX
  5
4EF
  8
CUT
 10
380.1333831131692
 20
319.26927013668876
 30
0.0
 70
0
  0
VERTEX
  5
4F0
  8
CUT
 10
382.21603101504496
 20
315.02350362498964
 30
0.0
 70
0
  0
VERTEX
  5
4F1
  8
CUT
 10
384.15409362683226
 20
310.70981971586457
 30
0.0
 70
0
  0
VERTEX
  5
4F2
  8
CUT
 10
385.94535958393357
 20
306.3331404009065
 30
0.0
 70
0
  0
VERTEX
  5
4F3
  8
CUT
 10
387.58778501939724
 20
301.898459550609
 30
0.0
 70
0
  0
VERTEX
  5
4F4
  8
CUT
 10
389.07949589600685
 20
297.4108372162701
 30
0.0
 70
0
  0
VERTEX
  5
4F5
  8
CUT
 10
390.41879014459175
 20
292.87539385638127
 30
0.0
 70
0
  0
VERTEX
  5
4F6
  8
CUT
 10
391.6041396061187
 20
288.2973044940915
 30
0.0
 70
0
  0
VERTEX
  5
4F7
  8
CUT
 10
392.6341917753492
 20
283.6817928124124
 30
0.0
 70
0
  0
VERTEX
  5
4F8
  8
CUT
 10
393.5077713440725
 20
279.03412519390076
 30
0.0
 70
0
  0
VERTEX
  5
4F9
  8
CUT
 10
394.22388154215344
 20
274.35960471162053
 30
0.0
 70
0
  0
VERTEX
  5
4FA
  8
CUT
 10
394.7817052748653
 20
269.6635650782405
 30
0.0
 70
0
  0
VERTEX
  5
4FB
  8
CUT
 10
395.18060605520986
 20
264.95136456017116
 30
0.0
 70
0
  0
VERTEX
  5
4FC
  8
CUT
 10
395.4201287301605
 20
260.2283798636856
 30
0.0
 70
0
  0
VERTEX
  5
4FD
  8
CUT
 10
395.5
 20
255.5
 30
0.0
 70
0
  0
VERTEX
  5
4FE
  8
CUT
 10
395.4201287301605
 20
250.77162013631445
 30
0.0
 70
0
  0
VERTEX
  5
4FF
  8
CUT
 10
395.18060605520986
 20
246.04863543982884
 30
0.0
 70
0
  0
VERTEX
  5
500
  8
CUT
 10
394.7817052748653
 20
241.3364349217595
 30
0.0
 70
0
  0
VERTEX
  5
501
  8
CUT
 10
394.22388154215344
 20
236.64039528837947
 30
0.0
 70
0
  0
VERTEX
  5
502
  8
CUT
 10
393.5077713440725
 20
231.96587480609927
 30
0.0
 70
0
  0
VERTEX
  5
503
  8
CUT
 10
392.6341917753492
 20
227.3182071875876
 30
0.0
 70
0
  0
VERTEX
  5
504
  8
CUT
 10
391.6041396061187
 20
222.7026955059085
 30
0.0
 70
0
  0
VERTEX
  5
505
  8
CUT
 10
390.41879014459175
 20
218.12460614361876
 30
0.0
 70
0
  0
VERTEX
  5
506
  8
CUT
 10
389.07949589600685
 20
213.58916278372988
 30
0.0
 70
0
  0
VERTEX
  5
507
  8
CUT
 10
387.58778501939724
 20
209.101540449391
 30
0.0
 70
0
  0
VERTEX
  5
508
  8
CUT
 10
385.94535958393357
 20
204.66685959909356
 30
0.0
 70
0
  0
VERTEX
  5
509
  8
CUT
 10
384.15409362683226
 20
200.2901802841354
 30
0.0
 70
0
  0
VERTEX
  5
50A
  8
CUT
 10
382.21603101504496
 20
195.9764963750103
 30
0.0
 70
0
  0
VERTEX
  5
50B
  8
CUT
 10
380.1333831131692
 20
191.73072986331124
 30
0.0
 70
0
  0
VERTEX
  5
50C
  8
CUT
 10
377.9085262602415
 20
187.55772524564867
 30
0.0
 70
0
  0
VERTEX
  5
50D
  8
CUT
 10
375.54399905829115
 20
183.46224399599197
 30
0.0
 70
0
  0
VERTEX
  5
50E
  8
CUT
 10
373.0424994757494
 20
179.44895913274138
 30
0.0
 70
0
  0
VERTEX
  5
50F
  8
CUT
 10
370.4068817690187
 20
175.52244988672908
 30
0.0
 70
0
  0
VERTEX
  5
510
  8
CUT
 10
367.64015322571385
 20
171.6871964762339
 30
0.0
 70
0
  0
VERTEX
  5
511
  8
CUT
 10
364.74547073329285
 20
167.94757499497084
 30
0.0
 70
0
  0
VERTEX
  5
512
  8
CUT
 10
361.72613717699073
 20
164.3078524188889
 30
0.0
 70
0
  0
VERTEX
  5
513
  8
CUT
 10
358.58559767116765
 20
160.772181737474
 30
0.0
 70
0
  0
VERTEX
  5
514
  8
CUT
 10
355.32743562837084
 20
157.34459721511263
 30
0.0
 70
0
  0
VERTEX
  5
515
  8
CUT
 10
351.95536867059616
 20
154.0290097879232
 30
0.0
 70
0
  0
VERTEX
  5
516
  8
CUT
 10
348.47324438741344
 20
150.82920260130675
 30
0.0
 70
0
  0
VERTEX
  5
517
  8
CUT
 10
344.8850359457977
 20
147.74882669330947
 30
0.0
 70
0
  0
VERTEX
  5
518
  8
CUT
 10
341.19483755667284
 20
144.7913968287222
 30
0.0
 70
0
  0
VERTEX
  5
519
  8
CUT
 10
337.4068598033431
 20
141.96028748866985
 30
0.0
 70
0
  0
VERTEX
  5
51A
  8
CUT
 10
333.5254248371411
 20
139.2587290202673
 30
0.0
 70
0
  0
VERTEX
  5
51B
  8
CUT
 10
329.5549614457748
 20
136.68980395073487
 30
0.0
 70
0
  0
VERTEX
  5
51C
  8
CUT
 10
325.5
 20
134.2564434701786
 30
0.0
 70
0
  0
VERTEX
  5
51D
  8
CUT
 10
321.3651672843858
 20
131.96142408704932
 30
0.0
 70
0
  0
VERTEX
  5
51E
  8
CUT
 10
317.1551812180688
 20
129.80736446009615
 30
0.0
 70
0
  0
VERTEX
  5
51F
  8
CUT
 10
312.87484547152224
 20
127.79672241042933
 30
0.0
 70
0
  0
VERTEX
  5
520
  8
CUT
 10
308.52904398548066
 20
125.93179211710168
 30
0.0
 70
0
  0
VERTEX
  5
521
  8
CUT
 10
304.1227353982748
 20
124.21470149940873
 30
0.0
 70
0
  0
VERTEX
  5
522
  8
CUT
 10
299.6609473879358
 20
122.64740978889432
 30
0.0
 70
0
  0
VERTEX
  5
523
  8
CUT
 10
295.1487709355226
 20
121.23170529383171
 30
0.0
 70
0
  0
VERTEX
  5
524
  8
CUT
 10
290.59135451622086
 20
119.96920335873139
 30
0.0
 70
0
  0
VERTEX
  5
525
  8
CUT
 10
285.9938982248392
 20
118.86134452120385
 30
0.0
 70
0
  0
VERTEX
  5
526
  8
CUT
 10
281.3616478424065
 20
117.9093928682799
 30
0.0
 70
0
  0
VERTEX
  5
527
  8
CUT
 10
276.6998888506407
 20
117.11443459406442
 30
0.0
 70
0
  0
VERTEX
  5
528
  8
CUT
 10
272.0139404011185
 20
116.47737676036928
 30
0.0
 70
0
  0
VERTEX
  5
529
  8
CUT
 10
267.3091492460263
 20
115.99894626173938
 30
0.0
 70
0
  0
VERTEX
  5
52A
  8
CUT
 10
262.5908836374198
 20
115.67968899605262
 30
0.0
 70
0
  0
VERTEX
  5
52B
  8
CUT
 10
257.8645272019504
 20
115.51996924164064
 30
0.0
 70
0
  0
VERTEX
  5
52C
  8
CUT
 10
253.13547279804965
 20
115.51996924164064
 30
0.0
 70
0
  0
VERTEX
  5
52D
  8
CUT
 10
248.40911636258022
 20
115.67968899605262
 30
0.0
 70
0
  0
VERTEX
  5
52E
  8
CUT
 10
243.69085075397376
 20
115.99894626173938
 30
0.0
 70
0
  0
VERTEX
  5
52F
  8
CUT
 10
238.98605959888155
 20
116.47737676036928
 30
0.0
 70
0
  0
VERTEX
  5
530
  8
CUT
 10
234.30011114935928
 20
117.11443459406442
 30
0.0
 70
0
  0
VERTEX
  5
531
  8
CUT
 10
229.6383521575935
 20
117.90939286827987
 30
0.0
 70
0
  0
VERTEX
  5
532
  8
CUT
 10
225.00610177516077
 20
118.86134452120388
 30
0.0
 70
0
  0
VERTEX
  5
533
  8
CUT
 10
220.40864548377914
 20
119.96920335873139
 30
0.0
 70
0
  0
VERTEX
  5
534
  8
CUT
 10
215.85122906447742
 20
121.23170529383171
 30
0.0
 70
0
  0
VERTEX
  5
535
  8
CUT
 10
211.33905261206422
 20
122.64740978889432
 30
0.0
 70
0
  0
VERTEX
  5
536
  8
CUT
 10
206.8772646017252
 20
124.21470149940873
 30
0.0
 70
0
  0
VERTEX
  5
537
  8
CUT
 10
202.47095601451934
 20
125.93179211710165
 30
0.0
 70
0
  0
VERTEX
  5
538
  8
CUT
 10
198.12515452847776
 20
127.79672241042931
 30
0.0
 70
0
  0
VERTEX
  5
539
  8
CUT
 10
193.84481878193122
 20
129.80736446009615
 30
0.0
 70
0
  0
VERTEX
  5
53A
  8
CUT
 10
189.6348327156142
 20
131.9614240870493
 30
0.0
 70
0
  0
VERTEX
  5
53B
  8
CUT
 10
185.50000000000003
 20
134.25644347017857
 30
0.0
 70
0
  0
VERTEX
  5
53C
  8
CUT
 10
181.44503855422525
 20
136.68980395073487
 30
0.0
 70
0
  0
VERTEX
  5
53D
  8
CUT
 10
177.4745751628589
 20
139.2587290202673
 30
0.0
 70
0
  0
VERTEX
  5
53E
  8
CUT
 10
173.59314019665698
 20
141.96028748866982
 30
0.0
 70
0
  0
VERTEX
  5
53F
  8
CUT
 10
169.8051624433272
 20
144.7913968287222
 30
0.0
 70
0
  0
VERTEX
  5
540
  8
CUT
 10
166.11496405420232
 20
147.74882669330947
 30
0.0
 70
0
  0
VERTEX
  5
541
  8
CUT
 10
162.5267556125865
 20
150.82920260130675
 30
0.0
 70
0
  0
VERTEX
  5
542
  8
CUT
 10
159.04463132940387
 20
154.0290097879232
 30
0.0
 70
0
  0
VERTEX
  5
543
  8
CUT
 10
155.67256437162916
 20
157.34459721511263
 30
0.0
 70
0
  0
VERTEX
  5
544
  8
CUT
 10
152.41440232883235
 20
160.772181737474
 30
0.0
 70
0
  0
VERTEX
  5
545
  8
CUT
 10
149.27386282300927
 20
164.3078524188889
 30
0.0
 70
0
  0
VERTEX
  5
546
  8
CUT
 10
146.25452926670715
 20
167.94757499497084
 30
0.0
 70
0
  0
VERTEX
  5
547
  8
CUT
 10
143.35984677428615
 20
171.6871964762339
 30
0.0
 70
0
  0
VERTEX
  5
548
  8
CUT
 10
140.5931182309813
 20
175.52244988672908
 30
0.0
 70
0
  0
VERTEX
  5
549
  8
CUT
 10
137.95750052425058
 20
179.44895913274135
 30
0.0
 70
0
  0
VERTEX
  5
54A
  8
CUT
 10
135.45600094170885
 20
183.46224399599197
 30
0.0
 70
0
  0
VERTEX
  5
54B
  8
CUT
 10
133.0914737397585
 20
187.55772524564867
 30
0.0
 70
0
  0
VERTEX
  5
54C
  8
CUT
 10
130.8666168868308
 20
191.7307298633112
 30
0.0
 70
0
  0
VERTEX
  5
54D
  8
CUT
 10
128.78396898495504
 20
195.9764963750103
 30
0.0
 70
0
  0
VERTEX
  5
54E
  8
CUT
 10
126.84590637316771
 20
200.2901802841354
 30
0.0
 70
0
  0
VERTEX
  5
54F
  8
CUT
 10
125.05464041606643
 20
204.66685959909353
 30
0.0
 70
0
  0
VERTEX
  5
550
  8
CUT
 10
123.41221498060276
 20
209.101540449391
 30
0.0
 70
0
  0
VERTEX
  5
551
  8
CUT
 10
121.92050410399315
 20
213.58916278372988
 30
0.0
 70
0
  0
VERTEX
  5
552
  8
CUT
 10
120.58120985540828
 20
218.12460614361873
 30
0.0
 70
0
  0
VERTEX
  5
553
  8
CUT
 10
119.39586039388132
 20
222.70269550590845
 30
0.0
 70
0
  0
VERTEX
  5
554
  8
CUT
 10
118.36580822465078
 20
227.31820718758757
 30
0.0
 70
0
  0
VERTEX
  5
555
  8
CUT
 10
117.49222865592748
 20
231.96587480609924
 30
0.0
 70
0
  0
VERTEX
  5
556
  8
CUT
 10
116.77611845784656
 20
236.64039528837947
 30
0.0
 70
0
  0
VERTEX
  5
557
  8
CUT
 10
116.21829472513468
 20
241.3364349217595
 30
0.0
 70
0
  0
VERTEX
  5
558
  8
CUT
 10
115.81939394479011
 20
246.04863543982881
 30
0.0
 70
0
  0
VERTEX
  5
559
  8
CUT
 10
115.57987126983949
 20
250.7716201363144
 30
0.0
 70
0
  0
SEQEND
  5
49F
  8
CUT
  0
POLYLINE
  5
55A
  8
CUT
 66
1
 10
0.0
 20
0.0
 30
0.0
 70
1
  0
VERTEX
  5
55C
  8
CUT
 10
881.0
 20
225.0
 30
0.0
 70
0
  0
VERTEX
  5
55D
  8
CUT
 10
880.9203635111066
 20
229.96799452360656
 30
0.0
 70
0
  0
VERTEX
  5
55E
  8
CUT
 10
880.6815358763022
 20
234.9308840970105
 30
0.0
 70
0
  0
VERTEX
  5
55F
  8
CUT
 10
880.2837625071257
 20
239.88356901569068
 30
0.0
 70
0
  0
VERTEX
  5
560
  8
CUT
 10
879.7274521426032
 20
244.82096006109842
 30
0.0
 70
0
  0
VERTEX
  5
561
  8
CUT
 10
879.0131764292398
 20
249.73798373017377
 30
0.0
 70
0
  0
VERTEX
  5
562
  8
CUT
 10
878.1416693336151
 20
254.6295874487127
 30
0.0
 70
0
  0
VERTEX
  5
563
  8
CUT
 10
877.1138263881827
 20
259.49074476322875
 30
0.0
 70
0
  0
VERTEX
  5
564
  8
CUT
 10
875.9307037710496
 20
264.3164605059736
 30
0.0
 70
0
  0
VERTEX
  5
565
  8
CUT
 10
874.5935172206824
 20
269.10177592781
 30
0.0
 70
0
  0
VERTEX
  5
566
  8
CUT
 10
873.1036407866536
 20
273.8417737936612
 30
0.0
 70
0
  0
VERTEX
  5
567
  8
CUT
 10
871.4626054177129
 20
278.53158343530265
 30
0.0
 70
0
  0
VERTEX
  5
568
  8
CUT
 10
869.6720973886333
 20
283.166385756303
 30
0.0
 70
0
  0
VERTEX
  5
569
  8
CUT
 10
867.733956567451
 20
287.74141818397106
 30
0.0
 70
0
  0
VERTEX
  5
56A
  8
CUT
 10
865.650174524875
 20
292.25197956322154
 30
0.0
 70
0
  0
VERTEX
  5
56B
  8
CUT
 10
863.422892487815
 20
296.69343498732945
 30
0.0
 70
0
  0
VERTEX
  5
56C
  8
CUT
 10
861.0543991391254
 20
301.06122056061037
 30
0.0
 70
0
  0
VERTEX
  5
56D
  8
CUT
 10
858.5471282658286
 20
305.3508480881314
 30
0.0
 70
0
  0
VERTEX
  5
56E
  8
CUT
 10
855.9036562582353
 20
309.55790968763506
 30
0.0
 70
0
  0
VERTEX
  5
56F
  8
CUT
 10
853.1266994625282
 20
313.6780823189363
 30
0.0
 70
0
  0
VERTEX
  5
570
  8
CUT
 10
850.2191113895333
 20
317.70713222613847
 30
0.0
 70
0
  0
VERTEX
  5
571
  8
CUT
 10
847.1838797825446
 20
321.6409192881037
 30
0.0
 70
0
  0
VERTEX
  5
572
  8
CUT
 10
844.0241235472158
 20
325.4754012727072
 30
0.0
 70
0
  0
VERTEX
  5
573
  8
CUT
 10
840.7430895466739
 20
329.2066379905041
 30
0.0
 70
0
  0
VERTEX
  5
574
  8
CUT
 10
837.3441492651477
 20
332.8307953435404
 30
0.0
 70
0
  0
VERTEX
  5
575
  8
CUT
 10
833.8307953435403
 20
336.3441492651478
 30
0.0
 70
0
  0
VERTEX
  5
576
  8
CUT
 10
830.2066379905041
 20
339.7430895466739
 30
0.0
 70
0
  0
VERTEX
  5
577
  8
CUT
 10
826.4754012727072
 20
343.0241235472158
 30
0.0
 70
0
  0
VERTEX
  5
578
  8
CUT
 10
822.6409192881038
 20
346.18387978254464
 30
0.0
 70
0
  0
VERTEX
  5
579
  8
CUT
 10
818.7071322261385
 20
349.2191113895333
 30
0.0
 70
0
  0
VERTEX
  5
57A
  8
CUT
 10
814.6780823189363
 20
352.12669946252817
 30
0.0
 70
0
  0
VERTEX
  5
57B
  8
CUT
 10
810.5579096876351
 20
354.9036562582353
 30
0.0
 70
0
  0
VERTEX
  5
57C
  8
CUT
 10
806.3508480881314
 20
357.54712826582863
 30
0.0
 70
0
  0
VERTEX
  5
57D
  8
CUT
 10
802.0612205606104
 20
360.05439913912534
 30
0.0
 70
0
  0
VERTEX
  5
57E
  8
CUT
 10
797.6934349873295
 20
362.42289248781503
 30
0.0
 70
0
  0
VERTEX
  5
57F
  8
CUT
 10
793.2519795632215
 20
364.65017452487496
 30
0.0
 70
0
  0
VERTEX
  5
580
  8
CUT
 10
788.7414181839711
 20
366.73395656745095
 30
0.0
 70
0
  0
VERTEX
  5
581
  8
CUT
 10
784.166385756303
 20
368.67209738863335
 30
0.0
 70
0
  0
VERTEX
  5
582
  8
CUT
 10
779.5315834353028
 20
370.4626054177129
 30
0.0
 70
0
  0
VERTEX
  5
583
  8
CUT
 10
774.8417737936612
 20
372.1036407866536
 30
0.0
 70
0
  0
VERTEX
  5
584
  8
CUT
 10
770.1017759278101
 20
373.59351722068243
 30
0.0
 70
0
  0
VERTEX
  5
585
  8
CUT
 10
765.3164605059736
 20
374.93070377104954
 30
0.0
 70
0
  0
VERTEX
  5
586
  8
CUT
 10
760.4907447632287
 20
376.1138263881827
 30
0.0
 70
0
  0
VERTEX
  5
587
  8
CUT
 10
755.6295874487128
 20
377.14166933361514
 30
0.0
 70
0
  0
VERTEX
  5
588
  8
CUT
 10
750.7379837301738
 20
378.01317642923976
 30
0.0
 70
0
  0
VERTEX
  5
589
  8
CUT
 10
745.8209600610984
 20
378.72745214260317
 30
0.0
 70
0
  0
VERTEX
  5
58A
  8
CUT
 10
740.8835690156907
 20
379.28376250712574
 30
0.0
 70
0
  0
VERTEX
  5
58B
  8
CUT
 10
735.9308840970106
 20
379.6815358763021
 30
0.0
 70
0
  0
VERTEX
  5
58C
  8
CUT
 10
730.9679945236065
 20
379.92036351110664
 30
0.0
 70
0
  0
VERTEX
  5
58D
  8
CUT
 10
726.0
 20
380.0
 30
0.0
 70
0
  0
VERTEX
  5
58E
  8
CUT
 10
721.0320054763935
 20
379.92036351110664
 30
0.0
 70
0
  0
VERTEX
  5
58F
  8
CUT
 10
716.0691159029896
 20
379.6815358763021
 30
0.0
 70
0
  0
VERTEX
  5
590
  8
CUT
 10
711.1164309843093
 20
379.28376250712574
 30
0.0
 70
0
  0
VERTEX
  5
591
  8
CUT
 10
706.1790399389016
 20
378.72745214260317
 30
0.0
 70
0
  0
VERTEX
  5
592
  8
CUT
 10
701.2620162698262
 20
378.01317642923976
 30
0.0
 70
0
  0
VERTEX
  5
593
  8
CUT
 10
696.3704125512872
 20
377.14166933361514
 30
0.0
 70
0
  0
VERTEX
  5
594
  8
CUT
 10
691.5092552367713
 20
376.1138263881827
 30
0.0
 70
0
  0
VERTEX
  5
595
  8
CUT
 10
686.6835394940264
 20
374.9307037710496
 30
0.0
 70
0
  0
VERTEX
  5
596
  8
CUT
 10
681.89822407219
 20
373.59351722068243
 30
0.0
 70
0
  0
VERTEX
  5
597
  8
CUT
 10
677.1582262063388
 20
372.1036407866536
 30
0.0
 70
0
  0
VERTEX
  5
598
  8
CUT
 10
672.4684165646973
 20
370.4626054177129
 30
0.0
 70
0
  0
VERTEX
  5
599
  8
CUT
 10
667.833614243697
 20
368.67209738863335
 30
0.0
 70
0
  0
VERTEX
  5
59A
  8
CUT
 10
663.2585818160289
 20
366.73395656745095
 30
0.0
 70
0
  0
VERTEX
  5
59B
  8
CUT
 10
658.7480204367785
 20
364.65017452487496
 30
0.0
 70
0
  0
VERTEX
  5
59C
  8
CUT
 10
654.3065650126706
 20
362.42289248781503
 30
0.0
 70
0
  0
VERTEX
  5
59D
  8
CUT
 10
649.9387794393897
 20
360.0543991391254
 30
0.0
 70
0
  0
VERTEX
  5
59E
  8
CUT
 10
645.6491519118686
 20
357.54712826582863
 30
0.0
 70
0
  0
VERTEX
  5
59F
  8
CUT
 10
641.4420903123649
 20
354.9036562582353
 30
0.0
 70
0
  0
VERTEX
  5
5A0
  8
CUT
 10
637.3219176810637
 20
352.1266994625281
 30
0.0
 70
0
  0
VERTEX
  5
5A1
  8
CUT
 10
633.2928677738615
 20
349.2191113895333
 30
0.0
 70
0
  0
VERTEX
  5
5A2
  8
CUT
 10
629.3590807118964
 20
346.18387978254464
 30
0.0
 70
0
  0
VERTEX
  5
5A3
  8
CUT
 10
625.5245987272928
 20
343.0241235472158
 30
0.0
 70
0
  0
VERTEX
  5
5A4
  8
CUT
 10
621.7933620094959
 20
339.7430895466739
 30
0.0
 70
0
  0
VERTEX
  5
5A5
  8
CUT
 10
618.1692046564597
 20
336.3441492651478
 30
0.0
 70
0
  0
VERTEX
  5
5A6
  8
CUT
 10
614.6558507348523
 20
332.8307953435404
 30
0.0
 70
0
  0
VERTEX
  5
5A7
  8
CUT
 10
611.2569104533261
 20
329.20663799050413
 30
0.0
 70
0
  0
VERTEX
  5
5A8
  8
CUT
 10
607.9758764527842
 20
325.47540127270724
 30
0.0
 70
0
  0
VERTEX
  5
5A9
  8
CUT
 10
604.8161202174554
 20
321.6409192881037
 30
0.0
 70
0
  0
VERTEX
  5
5AA
  8
CUT
 10
601.7808886104667
 20
317.70713222613847
 30
0.0
 70
0
  0
VERTEX
  5
5AB
  8
CUT
 10
598.8733005374718
 20
313.6780823189363
 30
0.0
 70
0
  0
VERTEX
  5
5AC
  8
CUT
 10
596.0963437417647
 20
309.55790968763506
 30
0.0
 70
0
  0
VERTEX
  5
5AD
  8
CUT
 10
593.4528717341714
 20
305.3508480881314
 30
0.0
 70
0
  0
VERTEX
  5
5AE
  8
CUT
 10
590.9456008608747
 20
301.0612205606104
 30
0.0
 70
0
  0
VERTEX
  5
5AF
  8
CUT
 10
588.577107512185
 20
296.69343498732945
 30
0.0
 70
0
  0
VERTEX
  5
5B0
  8
CUT
 10
586.349825475125
 20
292.25197956322154
 30
0.0
 70
0
  0
VERTEX
  5
5B1
  8
CUT
 10
584.266043432549
 20
287.74141818397106
 30
0.0
 70
0
  0
VERTEX
  5
5B2
  8
CUT
 10
582.3279026113667
 20
283.16638575630304
 30
0.0
 70
0
  0
VERTEX
  5
5B3
  8
CUT
 10
580.5373945822871
 20
278.53158343530276
 30
0.0
 70
0
  0
VERTEX
  5
5B4
  8
CUT
 10
578.8963592133464
 20
273.8417737936613
 30
0.0
 70
0
  0
VERTEX
  5
5B5
  8
CUT
 10
577.4064827793176
 20
269.10177592781
 30
0.0
 70
0
  0
VERTEX
  5
5B6
  8
CUT
 10
576.0692962289504
 20
264.3164605059736
 30
0.0
 70
0
  0
VERTEX
  5
5B7
  8
CUT
 10
574.8861736118173
 20
259.49074476322875
 30
0.0
 70
0
  0
VERTEX
  5
5B8
  8
CUT
 10
573.8583306663849
 20
254.62958744871275
 30
0.0
 70
0
  0
VERTEX
  5
5B9
  8
CUT
 10
572.9868235707602
 20
249.73798373017382
 30
0.0
 70
0
  0
VERTEX
  5
5BA
  8
CUT
 10
572.2725478573968
 20
244.82096006109845
 30
0.0
 70
0
  0
VERTEX
  5
5BB
  8
CUT
 10
571.7162374928743
 20
239.8835690156907
 30
0.0
 70
0
  0
VERTEX
  5
5BC
  8
CUT
 10
571.3184641236978
 20
234.93088409701056
 30
0.0
 70
0
  0
VERTEX
  5
5BD
  8
CUT
 10
571.0796364888934
 20
229.96799452360662
 30
0.0
 70
0
  0
VERTEX
  5
5BE
  8
CUT
 10
571.0
 20
225.0
 30
0.0
 70
0
  0
VERTEX
  5
5BF
  8
CUT
 10
571.0796364888934
 20
220.0320054763935
 30
0.0
 70
0
  0
VERTEX
  5
5C0
  8
CUT
 10
571.3184641236978
 20
215.0691159029895
 30
0.0
 70
0
  0
VERTEX
  5
5C1
  8
CUT
 10
571.7162374928743
 20
210.11643098430935
 30
0.0
 70
0
  0
VERTEX
  5
5C2
  8
CUT
 10
572.2725478573968
 20
205.1790399389016
 30
0.0
 70
0
  0
VERTEX
  5
5C3
  8
CUT
 10
572.9868235707602
 20
200.26201626982626
 30
0.0
 70
0
  0
VERTEX
  5
5C4
  8
CUT
 10
573.8583306663849
 20
195.3704125512873
 30
0.0
 70
0
  0
VERTEX
  5
5C5
  8
CUT
 10
574.8861736118173
 20
190.50925523677128
 30
0.0
 70
0
  0
VERTEX
  5
5C6
  8
CUT
 10
576.0692962289504
 20
185.6835394940264
 30
0.0
 70
0
  0
VERTEX
  5
5C7
  8
CUT
 10
577.4064827793176
 20
180.89822407218998
 30
0.0
 70
0
  0
VERTEX
  5
5C8
  8
CUT
 10
578.8963592133464
 20
176.1582262063388
 30
0.0
 70
0
  0
VERTEX
  5
5C9
  8
CUT
 10
580.5373945822871
 20
171.46841656469735
 30
0.0
 70
0
  0
VERTEX
  5
5CA
  8
CUT
 10
582.3279026113667
 20
166.83361424369707
 30
0.0
 70
0
  0
VERTEX
  5
5CB
  8
CUT
 10
584.266043432549
 20
162.25858181602896
 30
0.0
 70
0
  0
VERTEX
  5
5CC
  8
CUT
 10
586.349825475125
 20
157.74802043677852
 30
0.0
 70
0
  0
VERTEX
  5
5CD
  8
CUT
 10
588.577107512185
 20
153.30656501267057
 30
0.0
 70
0
  0
VERTEX
  5
5CE
  8
CUT
 10
590.9456008608746
 20
148.9387794393897
 30
0.0
 70
0
  0
VERTEX
  5
5CF
  8
CUT
 10
593.4528717341714
 20
144.6491519118686
 30
0.0
 70
0
  0
VERTEX
  5
5D0
  8
CUT
 10
596.0963437417647
 20
140.442090312365
 30
0.0
 70
0
  0
VERTEX
  5
5D1
  8
CUT
 10
598.8733005374718
 20
136.32191768106375
 30
0.0
 70
0
  0
VERTEX
  5
5D2
  8
CUT
 10
601.7808886104667
 20
132.29286777386153
 30
0.0
 70
0
  0
VERTEX
  5
5D3
  8
CUT
 10
604.8161202174554
 20
128.35908071189633
 30
0.0
 70
0
  0
VERTEX
  5
5D4
  8
CUT
 10
607.9758764527842
 20
124.52459872729283
 30
0.0
 70
0
  0
VERTEX
  5
5D5
  8
CUT
 10
611.2569104533261
 20
120.79336200949595
 30
0.0
 70
0
  0
VERTEX
  5
5D6
  8
CUT
 10
614.6558507348523
 20
117.16920465645961
 30
0.0
 70
0
  0
VERTEX
  5
5D7
  8
CUT
 10
618.1692046564596
 20
113.65585073485225
 30
0.0
 70
0
  0
VERTEX
  5
5D8
  8
CUT
 10
621.7933620094959
 20
110.25691045332609
 30
0.0
 70
0
  0
VERTEX
  5
5D9
  8
CUT
 10
625.5245987272928
 20
106.97587645278416
 30
0.0
 70
0
  0
VERTEX
  5
5DA
  8
CUT
 10
629.3590807118962
 20
103.81612021745539
 30
0.0
 70
0
  0
VERTEX
  5
5DB
  8
CUT
 10
633.2928677738615
 20
100.78088861046675
 30
0.0
 70
0
  0
VERTEX
  5
5DC
  8
CUT
 10
637.3219176810636
 20
97.87330053747188
 30
0.0
 70
0
  0
VERTEX
  5
5DD
  8
CUT
 10
641.4420903123648
 20
95.09634374176474
 30
0.0
 70
0
  0
VERTEX
  5
5DE
  8
CUT
 10
645.6491519118686
 20
92.4528717341714
 30
0.0
 70
0
  0
VERTEX
  5
5DF
  8
CUT
 10
649.9387794393897
 20
89.94560086087463
 30
0.0
 70
0
  0
VERTEX
  5
5E0
  8
CUT
 10
654.3065650126705
 20
87.577107512185
 30
0.0
 70
0
  0
VERTEX
  5
5E1
  8
CUT
 10
658.7480204367785
 20
85.34982547512504
 30
0.0
 70
0
  0
VERTEX
  5
5E2
  8
CUT
 10
663.2585818160289
 20
83.26604343254908
 30
0.0
 70
0
  0
VERTEX
  5
5E3
  8
CUT
 10
667.833614243697
 20
81.32790261136665
 30
0.0
 70
0
  0
VERTEX
  5
5E4
  8
CUT
 10
672.4684165646972
 20
79.53739458228716
 30
0.0
 70
0
  0
VERTEX
  5
5E5
  8
CUT
 10
677.1582262063387
 20
77.89635921334639
 30
0.0
 70
0
  0
VERTEX
  5
5E6
  8
CUT
 10
681.89822407219
 20
76.4064827793176
 30
0.0
 70
0
  0
VERTEX
  5
5E7
  8
CUT
 10
686.6835394940264
 20
75.06929622895044
 30
0.0
 70
0
  0
VERTEX
  5
5E8
  8
CUT
 10
691.5092552367712
 20
73.88617361181733
 30
0.0
 70
0
  0
VERTEX
  5
5E9
  8
CUT
 10
696.3704125512872
 20
72.85833066638489
 30
0.0
 70
0
  0
VERTEX
  5
5EA
  8
CUT
 10
701.2620162698262
 20
71.98682357076024
 30
0.0
 70
0
  0
VERTEX
  5
5EB
  8
CUT
 10
706.1790399389016
 20
71.27254785739686
 30
0.0
 70
0
  0
VERTEX
  5
5EC
  8
CUT
 10
711.1164309843092
 20
70.71623749287428
 30
0.0
 70
0
  0
VERTEX
  5
5ED
  8
CUT
 10
716.0691159029896
 20
70.31846412369788
 30
0.0
 70
0
  0
VERTEX
  5
5EE
  8
CUT
 10
721.0320054763935
 20
70.07963648889339
 30
0.0
 70
0
  0
VERTEX
  5
5EF
  8
CUT
 10
726.0
 20
70.0
 30
0.0
 70
0
  0
VERTEX
  5
5F0
  8
CUT
 10
730.9679945236065
 20
70.07963648889339
 30
0.0
 70
0
  0
VERTEX
  5
5F1
  8
CUT
 10
735.9308840970104
 20
70.31846412369788
 30
0.0
 70
0
  0
VERTEX
  5
5F2
  8
CUT
 10
740.8835690156907
 20
70.71623749287428
 30
0.0
 70
0
  0
VERTEX
  5
5F3
  8
CUT
 10
745.8209600610983
 20
71.27254785739686
 30
0.0
 70
0
  0
VERTEX
  5
5F4
  8
CUT
 10
750.7379837301738
 20
71.98682357076024
 30
0.0
 70
0
  0
VERTEX
  5
5F5
  8
CUT
 10
755.6295874487128
 20
72.85833066638489
 30
0.0
 70
0
  0
VERTEX
  5
5F6
  8
CUT
 10
760.4907447632287
 20
73.88617361181733
 30
0.0
 70
0
  0
VERTEX
  5
5F7
  8
CUT
 10
765.3164605059736
 20
75.06929622895044
 30
0.0
 70
0
  0
VERTEX
  5
5F8
  8
CUT
 10
770.10177592781
 20
76.40648277931757
 30
0.0
 70
0
  0
VERTEX
  5
5F9
  8
CUT
 10
774.8417737936612
 20
77.89635921334639
 30
0.0
 70
0
  0
VERTEX
  5
5FA
  8
CUT
 10
779.5315834353025
 20
79.5373945822871
 30
0.0
 70
0
  0
VERTEX
  5
5FB
  8
CUT
 10
784.166385756303
 20
81.32790261136662
 30
0.0
 70
0
  0
VERTEX
  5
5FC
  8
CUT
 10
788.7414181839711
 20
83.26604343254905
 30
0.0
 70
0
  0
VERTEX
  5
5FD
  8
CUT
 10
793.2519795632215
 20
85.34982547512502
 30
0.0
 70
0
  0
VERTEX
  5
5FE
  8
CUT
 10
797.6934349873294
 20
87.57710751218497
 30
0.0
 70
0
  0
VERTEX
  5
5FF
  8
CUT
 10
802.0612205606103
 20
89.9456008608746
 30
0.0
 70
0
  0
VERTEX
  5
600
  8
CUT
 10
806.3508480881314
 20
92.45287173417137
 30
0.0
 70
0
  0
VERTEX
  5
601
  8
CUT
 10
810.557909687635
 20
95.09634374176463
 30
0.0
 70
0
  0
VERTEX
  5
602
  8
CUT
 10
814.6780823189363
 20
97.87330053747183
 30
0.0
 70
0
  0
VERTEX
  5
603
  8
CUT
 10
818.7071322261385
 20
100.7808886104667
 30
0.0
 70
0
  0
VERTEX
  5
604
  8
CUT
 10
822.6409192881036
 20
103.81612021745536
 30
0.0
 70
0
  0
VERTEX
  5
605
  8
CUT
 10
826.4754012727072
 20
106.97587645278422
 30
0.0
 70
0
  0
VERTEX
  5
606
  8
CUT
 10
830.2066379905041
 20
110.25691045332604
 30
0.0
 70
0
  0
VERTEX
  5
607
  8
CUT
 10
833.8307953435404
 20
113.65585073485225
 30
0.0
 70
0
  0
VERTEX
  5
608
  8
CUT
 10
837.3441492651477
 20
117.16920465645953
 30
0.0
 70
0
  0
VERTEX
  5
609
  8
CUT
 10
840.7430895466739
 20
120.7933620094959
 30
0.0
 70
0
  0
VERTEX
  5
60A
  8
CUT
 10
844.0241235472157
 20
124.52459872729267
 30
0.0
 70
0
  0
VERTEX
  5
60B
  8
CUT
 10
847.1838797825446
 20
128.35908071189627
 30
0.0
 70
0
  0
VERTEX
  5
60C
  8
CUT
 10
850.2191113895333
 20
132.29286777386147
 30
0.0
 70
0
  0
VERTEX
  5
60D
  8
CUT
 10
853.1266994625281
 20
136.32191768106367
 30
0.0
 70
0
  0
VERTEX
  5
60E
  8
CUT
 10
855.9036562582353
 20
140.442090312365
 30
0.0
 70
0
  0
VERTEX
  5
60F
  8
CUT
 10
858.5471282658286
 20
144.64915191186853
 30
0.0
 70
0
  0
VERTEX
  5
610
  8
CUT
 10
861.0543991391254
 20
148.93877943938963
 30
0.0
 70
0
  0
VERTEX
  5
611
  8
CUT
 10
863.422892487815
 20
153.30656501267052
 30
0.0
 70
0
  0
VERTEX
  5
612
  8
CUT
 10
865.650174524875
 20
157.74802043677846
 30
0.0
 70
0
  0
VERTEX
  5
613
  8
CUT
 10
867.733956567451
 20
162.2585818160289
 30
0.0
 70
0
  0
VERTEX
  5
614
  8
CUT
 10
869.6720973886333
 20
166.83361424369693
 30
0.0
 70
0
  0
VERTEX
  5
615
  8
CUT
 10
871.4626054177129
 20
171.46841656469724
 30
0.0
 70
0
  0
VERTEX
  5
616
  8
CUT
 10
873.1036407866536
 20
176.1582262063387
 30
0.0
 70
0
  0
VERTEX
  5
617
  8
CUT
 10
874.5935172206824
 20
180.89822407218998
 30
0.0
 70
0
  0
VERTEX
  5
618
  8
CUT
 10
875.9307037710496
 20
185.68353949402632
 30
0.0
 70
0
  0
VERTEX
  5
619
  8
CUT
 10
877.1138263881826
 20
190.50925523677122
 30
0.0
 70
0
  0
VERTEX
  5
61A
  8
CUT
 10
878.1416693336151
 20
195.37041255128725
 30
0.0
 70
0
  0
VERTEX
  5
61B
  8
CUT
 10
879.0131764292398
 20
200.26201626982615
 30
0.0
 70
0
  0
VERTEX
  5
61C
  8
CUT
 10
879.7274521426032
 20
205.1790399389016
 30
0.0
 70
0
  0
VERTEX
  5
61D
  8
CUT
 10
880.2837625071257
 20
210.1164309843092
 30
0.0
 70
0
  0
VERTEX
  5
61E
  8
CUT
 10
880.6815358763022
 20
215.0691159029895
 30
0.0
 70
0
  0
VERTEX
  5
61F
  8
CUT
 10
880.9203635111066
 20
220.0320054763933
 30
0.0
 70
0
  0
SEQEND
  5
55B
  8
CUT
  0
POLYLINE
  5
620
  8
CUT
 66
1
 10
0.0
 20
0.0
 30
0.0
 70
1
  0
VERTEX
  5
622
  8
CUT
 10
616.0
 20
225.0
 30
0.0
 70
0
  0
VERTEX
  5
623
  8
CUT
 10
616.0787869702035
 20
229.16256243894375
 30
0.0
 70
0
  0
VERTEX
  5
624
  8
CUT
 10
616.3150350192383
 20
233.31916204729026
 30
0.0
 70
0
  0
VERTEX
  5
625
  8
CUT
 10
616.7084057240496
 20
237.4638445361397
 30
0.0
 70
0
  0
VERTEX
  5
626
  8
CUT
 10
617.2583355848923
 20
241.59067268775115
 30
0.0
 70
0
  0
VERTEX
  5
627
  8
CUT
 10
617.9640368325377
 20
245.69373486054974
 30
0.0
 70
0
  0
VERTEX
  5
628
  8
CUT
 10
618.8244985567466
 20
249.76715345749636
 30
0.0
 70
0
  0
VERTEX
  5
629
  8
CUT
 10
619.8384881543873
 20
253.80509334568876
 30
0.0
 70
0
  0
VERTEX
  5
62A
  8
CUT
 10
621.0045530951289
 20
257.8017702151332
 30
0.0
 70
0
  0
VERTEX
  5
62B
  8
CUT
 10
622.321023002176
 20
261.7514588647129
 30
0.0
 70
0
  0
VERTEX
  5
62C
  8
CUT
 10
623.7860120450679
 20
265.6485014034833
 30
0.0
 70
0
  0
VERTEX
  5
62D
  8
CUT
 10
625.3974216411123
 20
269.48731535554646
 30
0.0
 70
0
  0
VERTEX
  5
62E
  8
CUT
 10
627.152943461585
 20
273.2624016568942
 30
0.0
 70
0
  0
VERTEX
  5
62F
  8
CUT
 10
629.0500627383886
 20
276.96835253276384
 30
0.0
 70
0
  0
VERTEX
  5
630
  8
CUT
 10
631.0860618664335
 20
280.5998592442239
 30
0.0
 70
0
  0
VERTEX
  5
631
  8
CUT
 10
633.2580242965807
 20
284.15171969289133
 30
0.0
 70
0
  0
VERTEX
  5
632
  8
CUT
 10
635.562838713571
 20
287.6188458728873
 30
0.0
 70
0
  0
VERTEX
  5
633
  8
CUT
 10
637.9972034929532
 20
290.9962711593565
 30
0.0
 70
0
  0
VERTEX
  5
634
  8
CUT
 10
640.5576314306306
 20
294.27915742310984
 30
0.0
 70
0
  0
VERTEX
  5
635
  8
CUT
 10
643.2404547382461
 20
297.46280196119733
 30
0.0
 70
0
  0
VERTEX
  5
636
  8
CUT
 10
646.0418302972541
 20
300.54264423348513
 30
0.0
 70
0
  0
VERTEX
  5
637
  8
CUT
 10
648.9577451641514
 20
303.5142723955853
 30
0.0
 70
0
  0
VERTEX
  5
638
  8
CUT
 10
651.9840223189789
 20
306.3734296187803
 30
0.0
 70
0
  0
VERTEX
  5
639
  8
CUT
 10
655.1163266488635
 20
309.1160201878892
 30
0.0
 70
0
  0
VERTEX
  5
63A
  8
CUT
 10
658.3501711580251
 20
311.73811536834023
 30
0.0
 70
0
  0
VERTEX
  5
63B
  8
CUT
 10
661.6809233953549
 20
314.23595903404515
 30
0.0
 70
0
  0
VERTEX
  5
63C
  8
CUT
 10
665.1038120903567
 20
316.6059730480137
 30
0.0
 70
0
  0
VERTEX
  5
63D
  8
CUT
 10
668.6139339879467
 20
318.84476238800045
 30
0.0
 70
0
  0
VERTEX
  5
63E
  8
CUT
 10
672.2062608723184
 20
320.9491200098413
 30
0.0
 70
0
  0
VERTEX
  5
63F
  8
CUT
 10
675.8756467698134
 20
322.9160314415136
 30
0.0
 70
0
  0
VERTEX
  5
640
  8
CUT
 10
679.6168353204797
 20
324.74267910133807
 30
0.0
 70
0
  0
VERTEX
  5
641
  8
CUT
 10
683.4244673077561
 20
326.4264463341375
 30
0.0
 70
0
  0
VERTEX
  5
642
  8
CUT
 10
687.2930883354984
 20
327.96492115957
 30
0.0
 70
0
  0
VERTEX
  5
643
  8
CUT
 10
691.2171566413493
 20
329.3558997272678
 30
0.0
 70
0
  0
VERTEX
  5
644
  8
CUT
 10
695.1910510352602
 20
330.5973894738315
 30
0.0
 70
0
  0
VERTEX
  5
645
  8
CUT
 10
699.2090789517908
 20
331.687611977158
 30
0.0
 70
0
  0
VERTEX
  5
646
  8
CUT
 10
703.2654846046552
 20
332.625005504013
 30
0.0
 70
0
  0
VERTEX
  5
647
  8
CUT
 10
707.3544572318294
 20
333.4082272471989
 30
0.0
 70
0
  0
VERTEX
  5
648
  8
CUT
 10
711.4701394194127
 20
334.0361552491131
 30
0.0
 70
0
  0
VERTEX
  5
649
  8
CUT
 10
715.6066354923165
 20
334.5078900089415
 30
0.0
 70
0
  0
VERTEX
  5
64A
  8
CUT
 10
719.7580199597619
 20
334.82275577118463
 30
0.0
 70
0
  0
VERTEX
  5
64B
  8
CUT
 10
723.9183460034878
 20
334.98030149367116
 30
0.0
 70
0
  0
VERTEX
  5
64C
  8
CUT
 10
728.081653996512
 20
334.98030149367116
 30
0.0
 70
0
  0
VERTEX
  5
64D
  8
CUT
 10
732.2419800402381
 20
334.82275577118463
 30
0.0
 70
0
  0
VERTEX
  5
64E
  8
CUT
 10
736.3933645076834
 20
334.5078900089415
 30
0.0
 70
0
  0
VERTEX
  5
64F
  8
CUT
 10
740.5298605805873
 20
334.0361552491131
 30
0.0
 70
0
  0
VERTEX
  5
650
  8
CUT
 10
744.6455427681706
 20
333.4082272471989
 30
0.0
 70
0
  0
VERTEX
  5
651
  8
CUT
 10
748.7345153953448
 20
332.625005504013
 30
0.0
 70
0
  0
VERTEX
  5
652
  8
CUT
 10
752.7909210482092
 20
331.687611977158
 30
0.0
 70
0
  0
VERTEX
  5
653
  8
CUT
 10
756.8089489647398
 20
330.5973894738315
 30
0.0
 70
0
  0
VERTEX
  5
654
  8
CUT
 10
760.7828433586507
 20
329.3558997272678
 30
0.0
 70
0
  0
VERTEX
  5
655
  8
CUT
 10
764.7069116645016
 20
327.96492115957
 30
0.0
 70
0
  0
VERTEX
  5
656
  8
CUT
 10
768.5755326922439
 20
326.4264463341375
 30
0.0
 70
0
  0
VERTEX
  5
657
  8
CUT
 10
772.3831646795203
 20
324.74267910133807
 30
0.0
 70
0
  0
VERTEX
  5
658
  8
CUT
 10
776.1243532301866
 20
322.9160314415136
 30
0.0
 70
0
  0
VERTEX
  5
659
  8
CUT
 10
779.7937391276816
 20
320.9491200098413
 30
0.0
 70
0
  0
VERTEX
  5
65A
  8
CUT
 10
783.3860660120533
 20
318.84476238800045
 30
0.0
 70
0
  0
VERTEX
  5
65B
  8
CUT
 10
786.8961879096433
 20
316.6059730480137
 30
0.0
 70
0
  0
VERTEX
  5
65C
  8
CUT
 10
790.3190766046451
 20
314.23595903404515
 30
0.0
 70
0
  0
VERTEX
  5
65D
  8
CUT
 10
793.6498288419749
 20
311.73811536834023
 30
0.0
 70
0
  0
VERTEX
  5
65E
  8
CUT
 10
796.8836733511364
 20
309.11602018788926
 30
0.0
 70
0
  0
VERTEX
  5
65F
  8
CUT
 10
800.0159776810211
 20
306.3734296187803
 30
0.0
 70
0
  0
VERTEX
  5
660
  8
CUT
 10
803.0422548358486
 20
303.5142723955853
 30
0.0
 70
0
  0
VERTEX
  5
661
  8
CUT
 10
805.9581697027459
 20
300.54264423348513
 30
0.0
 70
0
  0
VERTEX
  5
662
  8
CUT
 10
808.7595452617539
 20
297.46280196119733
 30
0.0
 70
0
  0
VERTEX
  5
663
  8
CUT
 10
811.4423685693694
 20
294.27915742310984
 30
0.0
 70
0
  0
VERTEX
  5
664
  8
CUT
 10
814.0027965070468
 20
290.9962711593565
 30
0.0
 70
0
  0
VERTEX
  5
665
  8
CUT
 10
816.437161286429
 20
287.6188458728873
 30
0.0
 70
0
  0
VERTEX
  5
666
  8
CUT
 10
818.7419757034193
 20
284.1517196928913
 30
0.0
 70
0
  0
VERTEX
  5
667
  8
CUT
 10
820.9139381335665
 20
280.59985924422386
 30
0.0
 70
0
  0
VERTEX
  5
668
  8
CUT
 10
822.9499372616114
 20
276.96835253276384
 30
0.0
 70
0
  0
VERTEX
  5
669
  8
CUT
 10
824.847056538415
 20
273.26240165689416
 30
0.0
 70
0
  0
VERTEX
  5
66A
  8
CUT
 10
826.6025783588877
 20
269.48731535554646
 30
0.0
 70
0
  0
VERTEX
  5
66B
  8
CUT
 10
828.2139879549321
 20
265.6485014034833
 30
0.0
 70
0
  0
VERTEX
  5
66C
  8
CUT
 10
829.6789769978241
 20
261.75145886471284
 30
0.0
 70
0
  0
VERTEX
  5
66D
  8
CUT
 10
830.9954469048711
 20
257.8017702151332
 30
0.0
 70
0
  0
VERTEX
  5
66E
  8
CUT
 10
832.1615118456127
 20
253.80509334568876
 30
0.0
 70
0
  0
VERTEX
  5
66F
  8
CUT
 10
833.1755014432534
 20
249.76715345749636
 30
0.0
 70
0
  0
VERTEX
  5
670
  8
CUT
 10
834.0359631674623
 20
245.6937348605497
 30
0.0
 70
0
  0
VERTEX
  5
671
  8
CUT
 10
834.7416644151077
 20
241.59067268775112
 30
0.0
 70
0
  0
VERTEX
  5
672
  8
CUT
 10
835.2915942759504
 20
237.46384453613967
 30
0.0
 70
0
  0
VERTEX
  5
673
  8
CUT
 10
835.6849649807617
 20
233.31916204729023
 30
0.0
 70
0
  0
VERTEX
  5
674
  8
CUT
 10
835.9212130297965
 20
229.16256243894378
 30
0.0
 70
0
  0
VERTEX
  5
675
  8
CUT
 10
836.0
 20
225.0
 30
0.0
 70
0
  0
VERTEX
  5
676
  8
CUT
 10
835.9212130297965
 20
220.83743756105628
 30
0.0
 70
0
  0
VERTEX
  5
677
  8
CUT
 10
835.6849649807617
 20
216.68083795270977
 30
0.0
 70
0
  0
VERTEX
  5
678
  8
CUT
 10
835.2915942759504
 20
212.53615546386033
 30
0.0
 70
0
  0
VERTEX
  5
679
  8
CUT
 10
834.7416644151077
 20
208.40932731224888
 30
0.0
 70
0
  0
VERTEX
  5
67A
  8
CUT
 10
834.0359631674623
 20
204.3062651394503
 30
0.0
 70
0
  0
VERTEX
  5
67B
  8
CUT
 10
833.1755014432534
 20
200.23284654250367
 30
0.0
 70
0
  0
VERTEX
  5
67C
  8
CUT
 10
832.1615118456127
 20
196.19490665431127
 30
0.0
 70
0
  0
VERTEX
  5
67D
  8
CUT
 10
830.9954469048711
 20
192.1982297848668
 30
0.0
 70
0
  0
VERTEX
  5
67E
  8
CUT
 10
829.6789769978241
 20
188.24854113528713
 30
0.0
 70
0
  0
VERTEX
  5
67F
  8
CUT
 10
828.2139879549322
 20
184.35149859651673
 30
0.0
 70
0
  0
VERTEX
  5
680
  8
CUT
 10
826.6025783588877
 20
180.51268464445354
 30
0.0
 70
0
  0
VERTEX
  5
681
  8
CUT
 10
824.847056538415
 20
176.73759834310584
 30
0.0
 70
0
  0
VERTEX
  5
682
  8
CUT
 10
822.9499372616114
 20
173.03164746723618
 30
0.0
 70
0
  0
VERTEX
  5
683
  8
CUT
 10
820.9139381335665
 20
169.4001407557761
 30
0.0
 70
0
  0
VERTEX
  5
684
  8
CUT
 10
818.7419757034193
 20
165.8482803071087
 30
0.0
 70
0
  0
VERTEX
  5
685
  8
CUT
 10
816.437161286429
 20
162.38115412711275
 30
0.0
 70
0
  0
VERTEX
  5
686
  8
CUT
 10
814.0027965070468
 20
159.00372884064348
 30
0.0
 70
0
  0
VERTEX
  5
687
  8
CUT
 10
811.4423685693694
 20
155.72084257689016
 30
0.0
 70
0
  0
VERTEX
  5
688
  8
CUT
 10
808.7595452617539
 20
152.53719803880267
 30
0.0
 70
0
  0
VERTEX
  5
689
  8
CUT
 10
805.9581697027459
 20
149.45735576651487
 30
0.0
 70
0
  0
VERTEX
  5
68A
  8
CUT
 10
803.0422548358486
 20
146.4857276044147
 30
0.0
 70
0
  0
VERTEX
  5
68B
  8
CUT
 10
800.0159776810211
 20
143.62657038121972
 30
0.0
 70
0
  0
VERTEX
  5
68C
  8
CUT
 10
796.8836733511365
 20
140.8839798121108
 30
0.0
 70
0
  0
VERTEX
  5
68D
  8
CUT
 10
793.6498288419749
 20
138.26188463165977
 30
0.0
 70
0
  0
VERTEX
  5
68E
  8
CUT
 10
790.3190766046451
 20
135.76404096595485
 30
0.0
 70
0
  0
VERTEX
  5
68F
  8
CUT
 10
786.8961879096433
 20
133.3940269519863
 30
0.0
 70
0
  0
VERTEX
  5
690
  8
CUT
 10
783.3860660120533
 20
131.15523761199955
 30
0.0
 70
0
  0
VERTEX
  5
691
  8
CUT
 10
779.7937391276816
 20
129.0508799901587
 30
0.0
 70
0
  0
VERTEX
  5
692
  8
CUT
 10
776.1243532301866
 20
127.08396855848638
 30
0.0
 70
0
  0
VERTEX
  5
693
  8
CUT
 10
772.3831646795203
 20
125.25732089866192
 30
0.0
 70
0
  0
VERTEX
  5
694
  8
CUT
 10
768.5755326922439
 20
123.5735536658625
 30
0.0
 70
0
  0
VERTEX
  5
695
  8
CUT
 10
764.7069116645016
 20
122.03507884042999
 30
0.0
 70
0
  0
VERTEX
  5
696
  8
CUT
 10
760.7828433586507
 20
120.64410027273219
 30
0.0
 70
0
  0
VERTEX
  5
697
  8
CUT
 10
756.8089489647398
 20
119.4026105261685
 30
0.0
 70
0
  0
VERTEX
  5
698
  8
CUT
 10
752.7909210482092
 20
118.31238802284201
 30
0.0
 70
0
  0
VERTEX
  5
699
  8
CUT
 10
748.7345153953448
 20
117.374994495987
 30
0.0
 70
0
  0
VERTEX
  5
69A
  8
CUT
 10
744.6455427681706
 20
116.59177275280109
 30
0.0
 70
0
  0
VERTEX
  5
69B
  8
CUT
 10
740.5298605805873
 20
115.96384475088689
 30
0.0
 70
0
  0
VERTEX
  5
69C
  8
CUT
 10
736.3933645076835
 20
115.49210999105851
 30
0.0
 70
0
  0
VERTEX
  5
69D
  8
CUT
 10
732.2419800402381
 20
115.17724422881535
 30
0.0
 70
0
  0
VERTEX
  5
69E
  8
CUT
 10
728.0816539965122
 20
115.01969850632885
 30
0.0
 70
0
  0
VERTEX
  5
69F
  8
CUT
 10
723.918346003488
 20
115.01969850632885
 30
0.0
 70
0
  0
VERTEX
  5
6A0
  8
CUT
 10
719.7580199597619
 20
115.17724422881535
 30
0.0
 70
0
  0
VERTEX
  5
6A1
  8
CUT
 10
715.6066354923166
 20
115.49210999105851
 30
0.0
 70
0
  0
VERTEX
  5
6A2
  8
CUT
 10
711.4701394194127
 20
115.96384475088689
 30
0.0
 70
0
  0
VERTEX
  5
6A3
  8
CUT
 10
707.3544572318294
 20
116.59177275280109
 30
0.0
 70
0
  0
VERTEX
  5
6A4
  8
CUT
 10
703.2654846046552
 20
117.374994495987
 30
0.0
 70
0
  0
VERTEX
  5
6A5
  8
CUT
 10
699.2090789517908
 20
118.312388022842
 30
0.0
 70
0
  0
VERTEX
  5
6A6
  8
CUT
 10
695.1910510352602
 20
119.4026105261685
 30
0.0
 70
0
  0
VERTEX
  5
6A7
  8
CUT
 10
691.2171566413493
 20
120.64410027273219
 30
0.0
 70
0
  0
VERTEX
  5
6A8
  8
CUT
 10
687.2930883354984
 20
122.03507884042999
 30
0.0
 70
0
  0
VERTEX
  5
6A9
  8
CUT
 10
683.4244673077561
 20
123.5735536658625
 30
0.0
 70
0
  0
VERTEX
  5
6AA
  8
CUT
 10
679.6168353204798
 20
125.2573208986619
 30
0.0
 70
0
  0
VERTEX
  5
6AB
  8
CUT
 10
675.8756467698134
 20
127.08396855848636
 30
0.0
 70
0
  0
VERTEX
  5
6AC
  8
CUT
 10
672.2062608723184
 20
129.05087999015868
 30
0.0
 70
0
  0
VERTEX
  5
6AD
  8
CUT
 10
668.6139339879467
 20
131.15523761199955
 30
0.0
 70
0
  0
VERTEX
  5
6AE
  8
CUT
 10
665.1038120903567
 20
133.3940269519863
 30
0.0
 70
0
  0
VERTEX
  5
6AF
  8
CUT
 10
661.6809233953549
 20
135.76404096595485
 30
0.0
 70
0
  0
VERTEX
  5
6B0
  8
CUT
 10
658.3501711580251
 20
138.26188463165977
 30
0.0
 70
0
  0
VERTEX
  5
6B1
  8
CUT
 10
655.1163266488636
 20
140.88397981211074
 30
0.0
 70
0
  0
VERTEX
  5
6B2
  8
CUT
 10
651.9840223189789
 20
143.62657038121972
 30
0.0
 70
0
  0
VERTEX
  5
6B3
  8
CUT
 10
648.9577451641514
 20
146.4857276044147
 30
0.0
 70
0
  0
VERTEX
  5
6B4
  8
CUT
 10
646.0418302972541
 20
149.45735576651487
 30
0.0
 70
0
  0
VERTEX
  5
6B5
  8
CUT
 10
643.2404547382461
 20
152.53719803880267
 30
0.0
 70
0
  0
VERTEX
  5
6B6
  8
CUT
 10
640.5576314306306
 20
155.72084257689013
 30
0.0
 70
0
  0
VERTEX
  5
6B7
  8
CUT
 10
637.9972034929532
 20
159.00372884064348
 30
0.0
 70
0
  0
VERTEX
  5
6B8
  8
CUT
 10
635.562838713571
 20
162.38115412711272
 30
0.0
 70
0
  0
VERTEX
  5
6B9
  8
CUT
 10
633.2580242965807
 20
165.8482803071087
 30
0.0
 70
0
  0
VERTEX
  5
6BA
  8
CUT
 10
631.0860618664335
 20
169.40014075577614
 30
0.0
 70
0
  0
VERTEX
  5
6BB
  8
CUT
 10
629.0500627383886
 20
173.03164746723616
 30
0.0
 70
0
  0
VERTEX
  5
6BC
  8
CUT
 10
627.152943461585
 20
176.73759834310584
 30
0.0
 70
0
  0
VERTEX
  5
6BD
  8
CUT
 10
625.3974216411123
 20
180.5126846444535
 30
0.0
 70
0
  0
VERTEX
  5
6BE
  8
CUT
 10
623.7860120450679
 20
184.3514985965167
 30
0.0
 70
0
  0
VERTEX
  5
6BF
  8
CUT
 10
622.3210230021759
 20
188.24854113528716
 30
0.0
 70
0
  0
VERTEX
  5
6C0
  8
CUT
 10
621.0045530951289
 20
192.19822978486678
 30
0.0
 70
0
  0
VERTEX
  5
6C1
  8
CUT
 10
619.8384881543873
 20
196.19490665431124
 30
0.0
 70
0
  0
VERTEX
  5
6C2
  8
CUT
 10
618.8244985567466
 20
200.23284654250364
 30
0.0
 70
0
  0
VERTEX
  5
6C3
  8
CUT
 10
617.9640368325377
 20
204.30626513945026
 30
0.0
 70
0
  0
VERTEX
  5
6C4
  8
CUT
 10
617.2583355848923
 20
208.40932731224885
 30
0.0
 70
0
  0
VERTEX
  5
6C5
  8
CUT
 10
616.7084057240496
 20
212.5361554638603
 30
0.0
 70
0
  0
VERTEX
  5
6C6
  8
CUT
 10
616.3150350192383
 20
216.68083795270974
 30
0.0
 70
0
  0
VERTEX
  5
6C7
  8
CUT
 10
616.0787869702035
 20
220.8374375610562
 30
0.0
 70
0
  0
SEQEND
  5
621
  8
CUT
  0
POLYLINE
  5
6C8
  8
REFERENCE-SHEET
 66
1
 10
0.0
 20
0.0
 30
0.0
 70
1
  0
VERTEX
  5
6CA
  8
REFERENCE-SHEET
 10
0.0
 20
0.0
 30
0.0
 70
0
  0
VERTEX
  5
6CB
  8
REFERENCE-SHEET
 10
951.0
 20
0.0
 30
0.0
 70
0
  0
VERTEX
  5
6CC
  8
REFERENCE-SHEET
 10
951.0
 20
511.0
 30
0.0
 70
0
  0
VERTEX
  5
6CD
  8
REFERENCE-SHEET
 10
0.0
 20
511.0
 30
0.0
 70
0
  0
SEQEND
  5
6C9
  8
REFERENCE-SHEET
  0
ENDSEC
  0
EOF
