  0
SECTION
  2
HEADER
  9
$ACADVER
  1
AC1024
  9
$ACADMAINTVER
 70
6
  9
$DWGCODEPAGE
  3
ANSI_1252
  9
$LASTSAVEDBY
  1
ezdxf
  9
$INSBASE
 10
0.0
 20
0.0
 30
0.0
  9
$EXTMIN
 10
1e+20
 20
1e+20
 30
1e+20
  9
$EXTMAX
 10
-1e+20
 20
-1e+20
 30
-1e+20
  9
$LIMMIN
 10
0.0
 20
0.0
  9
$LIMMAX
 10
420.0
 20
297.0
  9
$ORTHOMODE
 70
0
  9
$REGENMODE
 70
1
  9
$FILLMODE
 70
1
  9
$QTEXTMODE
 70
0
  9
$MIRRTEXT
 70
1
  9
$LTSCALE
 40
1.0
  9
$ATTMODE
 70
1
  9
$TEXTSIZE
 40
2.5
  9
$TRACEWID
 40
1.0
  9
$TEXTSTYLE
  7
OpenSans
  9
$CLAYER
  8
0
  9
$CELTYPE
  6
ByLayer
  9
$CECOLOR
 62
256
  9
$CELTSCALE
 40
1.0
  9
$DISPSILH
 70
0
  9
$DIMSCALE
 40
1.0
  9
$DIMASZ
 40
0.175
  9
$DIMEXO
 40
0.125
  9
$DIMDLI
 40
3.75
  9
$DIMRND
 40
0.0
  9
$DIMDLE
 40
0.0
  9
$DIMEXE
 40
0.375
  9
$DIMTP
 40
0.0
  9
$DIMTM
 40
0.0
  9
$DIMTXT
 40
0.25
  9
$DIMCEN
 40
2.5
  9
$DIMTSZ
 40
0.0
  9
$DIMTOL
 70
0
  9
$DIMLIM
 70
0
  9
$DIMTIH
 70
0
  9
$DIMTOH
 70
0
  9
$DIMSE1
 70
0
  9
$DIMSE2
 70
0
  9
$DIMTAD
 70
1
  9
$DIMZIN
 70
12
  9
$DIMBLK
  1
ARCHTICK
  9
$DIMASO
 70
1
  9
$DIMSHO
 70
1
  9
$DIMPOST
  1

  9
$DIMAPOST
  1

  9
$DIMALT
 70
0
  9
$DIMALTD
 70
3
  9
$DIMALTF
 40
0.03937007874
  9
$DIMLFAC
 40
100.0
  9
$DIMTOFL
 70
1
  9
$DIMTVP
 40
0.0
  9
$DIMTIX
 70
0
  9
$DIMSOXD
 70
0
  9
$DIMSAH
 70
0
  9
$DIMBLK1
  1

  9
$DIMBLK2
  1

  9
$DIMSTYLE
  2
EZDXF
  9
$DIMCLRD
 70
0
  9
$DIMCLRE
 70
0
  9
$DIMCLRT
 70
0
  9
$DIMTFAC
 40
0.5
  9
$DIMGAP
 40
0.1
  9
$DIMJUST
 70
0
  9
$DIMSD1
 70
0
  9
$DIMSD2
 70
0
  9
$DIMTOLJ
 70
0
  9
$DIMTZIN
 70
8
  9
$DIMALTZ
 70
0
  9
$DIMALTTZ
 70
0
  9
$DIMUPT
 70
1
  9
$DIMDEC
 70
2
  9
$DIMTDEC
 70
2
  9
$DIMALTU
 70
2
  9
$DIMALTTD
 70
3
  9
$DIMTXSTY
  7
OpenSansCondensed-Light
  9
$DIMAUNIT
 70
0
  9
$DIMADEC
 70
2
  9
$DIMALTRND
 40
0.0
  9
$DIMAZIN
 70
3
  9
$DIMDSEP
 70
46
  9
$DIMATFIT
 70
3
  9
$DIMFRAC
 70
0
  9
$DIMLDRBLK
  1

  9
$DIMLUNIT
 70
2
  9
$DIMLWD
 70
-2
  9
$DIMLWE
 70
-2
  9
$DIMTMOVE
 70
2
  9
$DIMFXL
 40
1.0
  9
$DIMFXLON
 70
0
  9
$DIMJOGANG
 40
0.785398163397
  9
$DIMTFILL
 70
0
  9
$DIMTFILLCLR
 70
0
  9
$DIMARCSYM
 70
0
  9
$DIMLTYPE
  6

  9
$DIMLTEX1
  6

  9
$DIMLTEX2
  6

  9
$DIMTXTDIRECTION
 70
0
  9
$LUNITS
 70
2
  9
$LUPREC
 70
4
  9
$SKETCHINC
 40
1.0
  9
$FILLETRAD
 40
10.0
  9
$AUNITS
 70
0
  9
$AUPREC
 70
2
  9
$MENU
  1
.
  9
$ELEVATION
 40
0.0
  9
$PELEVATION
 40
0.0
  9
$THICKNESS
 40
0.0
  9
$LIMCHECK
 70
0
  9
$CHAMFERA
 40
0.0
  9
$CHAMFERB
 40
0.0
  9
$CHAMFERC
 40
0.0
  9
$CHAMFERD
 40
0.0
  9
$SKPOLY
 70
0
  9
$TDCREATE
 40
2461315.594710648
  9
$TDUCREATE
 40
2458532.153996898
  9
$TDUPDATE
 40
2461315.594710648
  9
$TDUUPDATE
 40
2458532.1544311
  9
$TDINDWG
 40
0.0
  9
$TDUSRTIMER
 40
0.0
  9
$USRTIMER
 70
1
  9
$ANGBASE
 50
0.0
  9
$ANGDIR
 70
0
  9
$PDMODE
 70
0
  9
$PDSIZE
 40
0.0
  9
$PLINEWID
 40
0.0
  9
$SPLFRAME
 70
0
  9
$SPLINETYPE
 70
6
  9
$SPLINESEGS
 70
8
  9
$HANDSEED
  5
117
  9
$SURFTAB1
 70
6
  9
$SURFTAB2
 70
6
  9
$SURFTYPE
 70
6
  9
$SURFU
 70
6
  9
$SURFV
 70
6
  9
$UCSBASE
  2

  9
$UCSNAME
  2

  9
$UCSORG
 10
0.0
 20
0.0
 30
0.0
  9
$UCSXDIR
 10
1.0
 20
0.0
 30
0.0
  9
$UCSYDIR
 10
0.0
 20
1.0
 30
0.0
  9
$UCSORTHOREF
  2

  9
$UCSORTHOVIEW
 70
0
  9
$UCSORGTOP
 10
0.0
 20
0.0
 30
0.0
  9
$UCSORGBOTTOM
 10
0.0
 20
0.0
 30
0.0
  9
$UCSORGLEFT
 10
0.0
 20
0.0
 30
0.0
  9
$UCSORGRIGHT
 10
0.0
 20
0.0
 30
0.0
  9
$UCSORGFRONT
 10
0.0
 20
0.0
 30
0.0
  9
$UCSORGBACK
 10
0.0
 20
0.0
 30
0.0
  9
$PUCSBASE
  2

  9
$PUCSNAME
  2

  9
$PUCSORG
 10
0.0
 20
0.0
 30
0.0
  9
$PUCSXDIR
 10
1.0
 20
0.0
 30
0.0
  9
$PUCSYDIR
 10
0.0
 20
1.0
 30
0.0
  9
$PUCSORTHOREF
  2

  9
$PUCSORTHOVIEW
 70
0
  9
$PUCSORGTOP
 10
0.0
 20
0.0
 30
0.0
  9
$PUCSORGBOTTOM
 10
0.0
 20
0.0
 30
0.0
  9
$PUCSORGLEFT
 10
0.0
 20
0.0
 30
0.0
  9
$PUCSORGRIGHT
 10
0.0
 20
0.0
 30
0.0
  9
$PUCSORGFRONT
 10
0.0
 20
0.0
 30
0.0
  9
$PUCSORGBACK
 10
0.0
 20
0.0
 30
0.0
  9
$USERI1
 70
0
  9
$USERI2
 70
0
  9
$USERI3
 70
0
  9
$USERI4
 70
0
  9
$USERI5
 70
0
  9
$USERR1
 40
0.0
  9
$USERR2
 40
0.0
  9
$USERR3
 40
0.0
  9
$USERR4
 40
0.0
  9
$USERR5
 40
0.0
  9
$WORLDVIEW
 70
1
  9
$SHADEDGE
 70
3
  9
$SHADEDIF
 70
70
  9
$TILEMODE
 70
1
  9
$MAXACTVP
 70
64
  9
$PINSBASE
 10
0.0
 20
0.0
 30
0.0
  9
$PLIMCHECK
 70
0
  9
$PEXTMIN
 10
1e+20
 20
1e+20
 30
1e+20
  9
$PEXTMAX
 10
-1e+20
 20
-1e+20
 30
-1e+20
  9
$PLIMMIN
 10
0.0
 20
0.0
  9
$PLIMMAX
 10
420.0
 20
297.0
  9
$UNITMODE
 70
0
  9
$VISRETAIN
 70
1
  9
$PLINEGEN
 70
0
  9
$PSLTSCALE
 70
1
  9
$TREEDEPTH
 70
3020
  9
$CMLSTYLE
  2
Standard
  9
$CMLJUST
 70
0
  9
$CMLSCALE
 40
20.0
  9
$PROXYGRAPHICS
 70
1
  9
$MEASUREMENT
 70
1
  9
$CELWEIGHT
370
-1
  9
$ENDCAPS
280
0
  9
$JOINSTYLE
280
0
  9
$LWDISPLAY
290
0
  9
$INSUNITS
 70
4
  9
$HYPERLINKBASE
  1

  9
$STYLESHEET
  1

  9
$XEDIT
290
1
  9
$CEPSNTYPE
380
0
  9
$PSTYLEMODE
290
1
  9
$FINGERPRINTGUID
  2
{4127CA78-0041-440A-88B4-38FF45DF8D1C}
  9
$VERSIONGUID
  2
{9E2D75AA-CA26-42E1-BDC0-FE33A74A275E}
  9
$EXTNAMES
290
1
  9
$PSVPSCALE
 40
0.0
  9
$OLESTARTUP
290
0
  9
$SORTENTS
280
127
  9
$INDEXCTL
280
0
  9
$HIDETEXT
280
1
  9
$XCLIPFRAME
280
1
  9
$HALOGAP
280
0
  9
$OBSCOLOR
 70
257
  9
$OBSLTYPE
280
0
  9
$INTERSECTIONDISPLAY
280
0
  9
$INTERSECTIONCOLOR
 70
257
  9
$DIMASSOC
280
2
  9
$PROJECTNAME
  1

  9
$CAMERADISPLAY
290
0
  9
$LENSLENGTH
 40
50.0
  9
$CAMERAHEIGHT
 40
0.0
  9
$STEPSPERSEC
 40
24.0
  9
$STEPSIZE
 40
100.0
  9
$3DDWFPREC
 40
2.0
  9
$PSOLWIDTH
 40
0.005
  9
$PSOLHEIGHT
 40
0.08
  9
$LOFTANG1
 40
1.570796326795
  9
$LOFTANG2
 40
1.570796326795
  9
$LOFTMAG1
 40
0.0
  9
$LOFTMAG2
 40
0.0
  9
$LOFTPARAM
 70
7
  9
$LOFTNORMALS
280
1
  9
$LATITUDE
 40
37.795
  9
$LONGITUDE
 40
-122.394
  9
$NORTHDIRECTION
 40
0.0
  9
$TIMEZONE
 70
-8000
  9
$LIGHTGLYPHDISPLAY
280
1
  9
$TILEMODELIGHTSYNCH
280
1
  9
$CMATERIAL
347
20
  9
$SOLIDHIST
280
0
  9
$SHOWHIST
280
1
  9
$DWFFRAME
280
2
  9
$DGNFRAME
280
2
  9
$REALWORLDSCALE
290
1
  9
$INTERFERECOLOR
 62
256
  9
$CSHADOW
280
0
  9
$SHADOWPLANELOCATION
 40
0.0
  0
ENDSEC
  0
SECTION
  2
CLASSES
  0
CLASS
  1
ACDBDICTIONARYWDFLT
  2
AcDbDictionaryWithDefault
  3
ObjectDBX Classes
 90
0
 91
0
280
0
281
0
  0
CLASS
  1
SUN
  2
AcDbSun
  3
SCENEOE
 90
1153
 91
0
280
0
281
0
  0
CLASS
  1
VISUALSTYLE
  2
AcDbVisualStyle
  3
ObjectDBX Classes
 90
4095
 91
0
280
0
281
0
  0
CLASS
  1
MATERIAL
  2
AcDbMaterial
  3
ObjectDBX Classes
 90
1153
 91
0
280
0
281
0
  0
CLASS
  1
SCALE
  2
AcDbScale
  3
ObjectDBX Classes
 90
1153
 91
0
280
0
281
0
  0
CLASS
  1
TABLESTYLE
  2
AcDbTableStyle
  3
ObjectDBX Classes
 90
4095
 91
0
280
0
281
0
  0
CLASS
  1
MLEADERSTYLE
  2
AcDbMLeaderStyle
  3
ACDB_MLEADERSTYLE_CLASS
 90
4095
 91
0
280
0
281
0
  0
CLASS
  1
DICTIONARYVAR
  2
AcDbDictionaryVar
  3
ObjectDBX Classes
 90
0
 91
0
280
0
281
0
  0
CLASS
  1
CELLSTYLEMAP
  2
AcDbCellStyleMap
  3
ObjectDBX Classes
 90
1152
 91
0
280
0
281
0
  0
CLASS
  1
MENTALRAYRENDERSETTINGS
  2
AcDbMentalRayRenderSettings
  3
SCENEOE
 90
1024
 91
0
280
0
281
0
  0
CLASS
  1
ACDBDETAILVIEWSTYLE
  2
AcDbDetailViewStyle
  3
ObjectDBX Classes
 90
1025
 91
0
280
0
281
0
  0
CLASS
  1
ACDBSECTIONVIEWSTYLE
  2
AcDbSectionViewStyle
  3
ObjectDBX Classes
 90
1025
 91
0
280
0
281
0
  0
CLASS
  1
RASTERVARIABLES
  2
AcDbRasterVariables
  3
ISM
 90
0
 91
0
280
0
281
0
  0
CLASS
  1
ACDBPLACEHOLDER
  2
AcDbPlaceHolder
  3
ObjectDBX Classes
 90
0
 91
0
280
0
281
0
  0
CLASS
  1
LAYOUT
  2
AcDbLayout
  3
ObjectDBX Classes
 90
0
 91
0
280
0
281
0
  0
ENDSEC
  0
SECTION
  2
TABLES
  0
TABLE
  2
VPORT
  5
8
330
0
100
AcDbSymbolTable
 70
1
  0
VPORT
  5
23
330
8
100
AcDbSymbolTableRecord
100
AcDbViewportTableRecord
  2
*Active
 70
0
 10
0.0
 20
0.0
 11
1.0
 21
1.0
 12
0.0
 22
0.0
 13
0.0
 23
0.0
 14
0.5
 24
0.5
 15
0.5
 25
0.5
 16
0.0
 26
0.0
 36
1.0
 17
0.0
 27
0.0
 37
0.0
 40
1000.0
 41
1.34
 42
50.0
 43
0.0
 44
0.0
 50
0.0
 51
0.0
 71
0
 72
1000
 73
1
 74
3
 75
0
 76
0
 77
0
 78
0
281
0
 65
0
146
0.0
  0
ENDTAB
  0
TABLE
  2
LTYPE
  5
2
330
0
100
AcDbSymbolTable
 70
21
  0
LTYPE
  5
24
330
2
100
AcDbSymbolTableRecord
100
AcDbLinetypeTableRecord
  2
ByBlock
 70
0
  3

 72
65
 73
0
 40
0.0
  0
LTYPE
  5
25
330
2
100
AcDbSymbolTableRecord
100
AcDbLinetypeTableRecord
  2
ByLayer
 70
0
  3

 72
65
 73
0
 40
0.0
  0
LTYPE
  5
26
330
2
100
AcDbSymbolTableRecord
100
AcDbLinetypeTableRecord
  2
Continuous
 70
0
  3

 72
65
 73
0
 40
0.0
  0
LTYPE
  5
2F
330
2
100
AcDbSymbolTableRecord
100
AcDbLinetypeTableRecord
  2
CENTER
 70
0
  3
Center ____ _ ____ _ ____ _ ____ _ ____ _ ____
 72
65
 73
4
 40
5.08
 49
3.175
 74
0
 49
-0.635
 74
0
 49
0.635
 74
0
 49
-0.635
 74
0
  0
LTYPE
  5
30
330
2
100
AcDbSymbolTableRecord
100
AcDbLinetypeTableRecord
  2
CENTERX2
 70
0
  3
Center (2x) ________  __  ________  __  ________
 72
65
 73
4
 40
8.89
 49
6.35
 74
0
 49
-0.635
 74
0
 49
1.27
 74
0
 49
-0.635
 74
0
  0
LTYPE
  5
31
330
2
100
AcDbSymbolTableRecord
100
AcDbLinetypeTableRecord
  2
CENTER2
 70
0
  3
Center (.5x) ____ _ ____ _ ____ _ ____ _ ____
 72
65
 73
4
 40
2.54
 49
1.587
 74
0
 49
-0.318
 74
0
 49
0.318
 74
0
 49
-0.318
 74
0
  0
LTYPE
  5
32
330
2
100
AcDbSymbolTableRecord
100
AcDbLinetypeTableRecord
  2
DASHED
 70
0
  3
Dashed __ __ __ __ __ __ __ __ __ __ __ __ __ _
 72
65
 73
2
 40
1.524
 49
1.27
 74
0
 49
-0.254
 74
0
  0
LTYPE
  5
33
330
2
100
AcDbSymbolTableRecord
100
AcDbLinetypeTableRecord
  2
DASHEDX2
 70
0
  3
Dashed (2x) ____  ____  ____  ____  ____  ____
 72
65
 73
2
 40
3.048
 49
2.54
 74
0
 49
-0.508
 74
0
  0
LTYPE
  5
34
330
2
100
AcDbSymbolTableRecord
100
AcDbLinetypeTableRecord
  2
DASHED2
 70
0
  3
Dashed (.5x) _ _ _ _ _ _ _ _ _ _ _ _ _ _
 72
65
 73
2
 40
0.762
 49
0.635
 74
0
 49
-0.127
 74
0
  0
LTYPE
  5
35
330
2
100
AcDbSymbolTableRecord
100
AcDbLinetypeTableRecord
  2
PHANTOM
 70
0
  3
Phantom ______  __  __  ______  __  __  ______
 72
65
 73
6
 40
6.35
 49
3.175
 74
0
 49
-0.635
 74
0
 49
0.635
 74
0
 49
-0.635
 74
0
 49
0.635
 74
0
 49
-0.635
 74
0
  0
LTYPE
  5
36
330
2
100
AcDbSymbolTableRecord
100
AcDbLinetypeTableRecord
  2
PHANTOMX2
 70
0
  3
Phantom (2x)____________    ____    ____    ____________
 72
65
 73
6
 40
10.795
 49
6.35
 74
0
 49
-0.635
 74
0
 49
1.27
 74
0
 49
-0.635
 74
0
 49
1.27
 74
0
 49
-0.635
 74
0
  0
LTYPE
  5
37
330
2
100
AcDbSymbolTableRecord
100
AcDbLinetypeTableRecord
  2
PHANTOM2
 70
0
  3
Phantom (.5x) ___ _ _ ___ _ _ ___ _ _ ___ _ _ ___
 72
65
 73
6
 40
3.175
 49
1.587
 74
0
 49
-0.318
 74
0
 49
0.318
 74
0
 49
-0.318
 74
0
 49
0.318
 74
0
 49
-0.318
 74
0
  0
LTYPE
  5
38
330
2
100
AcDbSymbolTableRecord
100
AcDbLinetypeTableRecord
  2
DASHDOT
 70
0
  3
Dash dot __ . __ . __ . __ . __ . __ . __ . __
 72
65
 73
4
 40
3.556
 49
2.54
 74
0
 49
-0.508
 74
0
 49
0.0
 74
0
 49
-0.508
 74
0
  0
LTYPE
  5
39
330
2
100
AcDbSymbolTableRecord
100
AcDbLinetypeTableRecord
  2
DASHDOTX2
 70
0
  3
Dash dot (2x) ____  .  ____  .  ____  .  ____
 72
65
 73
4
 40
6.096
 49
5.08
 74
0
 49
-0.508
 74
0
 49
0.0
 74
0
 49
-0.508
 74
0
  0
LTYPE
  5
3A
330
2
100
AcDbSymbolTableRecord
100
AcDbLinetypeTableRecord
  2
DASHDOT2
 70
0
  3
Dash dot (.5x) _ . _ . _ . _ . _ . _ . _ . _
 72
65
 73
4
 40
1.778
 49
1.27
 74
0
 49
-0.254
 74
0
 49
0.0
 74
0
 49
-0.254
 74
0
  0
LTYPE
  5
3B
330
2
100
AcDbSymbolTableRecord
100
AcDbLinetypeTableRecord
  2
DOT
 70
0
  3
Dot .  .  .  .  .  .  .  .  .  .  .  .  .  .  .  .
 72
65
 73
2
 40
0.508
 49
0.0
 74
0
 49
-0.508
 74
0
  0
LTYPE
  5
3C
330
2
100
AcDbSymbolTableRecord
100
AcDbLinetypeTableRecord
  2
DOTX2
 70
0
  3
Dot (2x) .    .    .    .    .    .    .    . 
 72
65
 73
2
 40
1.016
 49
0.0
 74
0
 49
-1.016
 74
0
  0
LTYPE
  5
3D
330
2
100
AcDbSymbolTableRecord
100
AcDbLinetypeTableRecord
  2
DOT2
 70
0
  3
Dot (.5) . . . . . . . . . . . . . . . . . . . 
 72
65
 73
2
 40
0.254
 49
0.0
 74
0
 49
-0.254
 74
0
  0
LTYPE
  5
3E
330
2
100
AcDbSymbolTableRecord
100
AcDbLinetypeTableRecord
  2
DIVIDE
 70
0
  3
Divide __ . . __ . . __ . . __ . . __ . . __
 72
65
 73
6
 40
4.064
 49
2.54
 74
0
 49
-0.508
 74
0
 49
0.0
 74
0
 49
-0.508
 74
0
 49
0.0
 74
0
 49
-0.508
 74
0
  0
LTYPE
  5
3F
330
2
100
AcDbSymbolTableRecord
100
AcDbLinetypeTableRecord
  2
DIVIDEX2
 70
0
  3
Divide (2x) ____  . .  ____  . .  ____  . .  ____
 72
65
 73
6
 40
6.604
 49
5.08
 74
0
 49
-0.508
 74
0
 49
0.0
 74
0
 49
-0.508
 74
0
 49
0.0
 74
0
 49
-0.508
 74
0
  0
LTYPE
  5
40
330
2
100
AcDbSymbolTableRecord
100
AcDbLinetypeTableRecord
  2
DIVIDE2
 70
0
  3
Divide(.5x) _ . _ . _ . _ . _ . _ . _ . _
 72
65
 73
6
 40
2.032
 49
1.27
 74
0
 49
-0.254
 74
0
 49
0.0
 74
0
 49
-0.254
 74
0
 49
0.0
 74
0
 49
-0.254
 74
0
  0
ENDTAB
  0
TABLE
  2
LAYER
  5
1
330
0
100
AcDbSymbolTable
 70
5
  0
LAYER
  5
27
330
1
100
AcDbSymbolTableRecord
100
AcDbLayerTableRecord
  2
0
 70
0
 62
7
  6
Continuous
370
-3
390
13
347
21
  0
LAYER
  5
28
330
1
100
AcDbSymbolTableRecord
100
AcDbLayerTableRecord
  2
Defpoints
 70
0
 62
7
  6
Continuous
290
0
370
-3
390
13
347
21
  0
LAYER
  5
8A
330
1
100
AcDbSymbolTableRecord
100
AcDbLayerTableRecord
  2
CUT
 70
0
 62
1
  6
Continuous
370
-3
390
13
347
21
  0
LAYER
  5
8B
330
1
100
AcDbSymbolTableRecord
100
AcDbLayerTableRecord
  2
ENGRAVE-LABEL
 70
0
 62
3
  6
Continuous
370
-3
390
13
347
21
  0
LAYER
  5
8C
330
1
100
AcDbSymbolTableRecord
100
AcDbLayerTableRecord
  2
REFERENCE-SHEET
 70
0
 62
8
  6
Continuous
370
-3
390
13
347
21
  0
ENDTAB
  0
TABLE
  2
STYLE
  5
5
330
0
100
AcDbSymbolTable
 70
26
  0
STYLE
  5
29
330
5
100
AcDbSymbolTableRecord
100
AcDbTextStyleTableRecord
  2
Standard
 70
0
 40
0.0
 41
1.0
 50
0.0
 71
0
 42
2.5
  3
txt
  4

  0
STYLE
  5
41
330
5
100
AcDbSymbolTableRecord
100
AcDbTextStyleTableRecord
  2
OpenSans-Light
 70
0
 40
0.0
 41
1.0
 50
0.0
 71
0
 42
2.5
  3
OpenSans-Light.ttf
  4

  0
STYLE
  5
42
330
5
100
AcDbSymbolTableRecord
100
AcDbTextStyleTableRecord
  2
OpenSans-Light-Italic
 70
0
 40
0.0
 41
1.0
 50
0.0
 71
0
 42
2.5
  3
OpenSans-LightItalic.ttf
  4

  0
STYLE
  5
43
330
5
100
AcDbSymbolTableRecord
100
AcDbTextStyleTableRecord
  2
OpenSans
 70
0
 40
0.0
 41
1.0
 50
0.0
 71
0
 42
2.5
  3
OpenSans-Regular.ttf
  4

  0
STYLE
  5
44
330
5
100
AcDbSymbolTableRecord
100
AcDbTextStyleTableRecord
  2
OpenSans-Italic
 70
0
 40
0.0
 41
1.0
 50
0.0
 71
0
 42
2.5
  3
OpenSans-Italic.ttf
  4

  0
STYLE
  5
45
330
5
100
AcDbSymbolTableRecord
100
AcDbTextStyleTableRecord
  2
OpenSans-SemiBold
 70
0
 40
0.0
 41
1.0
 50
0.0
 71
0
 42
2.5
  3
OpenSans-SemiBold.ttf
  4

  0
STYLE
  5
46
330
5
100
AcDbSymbolTableRecord
100
AcDbTextStyleTableRecord
  2
OpenSans-SemiBoldItalic
 70
0
 40
0.0
 41
1.0
 50
0.0
 71
0
 42
2.5
  3
OpenSans-SemiBoldItalic.ttf
  4

  0
STYLE
  5
47
330
5
100
AcDbSymbolTableRecord
100
AcDbTextStyleTableRecord
  2
OpenSans-Bold
 70
0
 40
0.0
 41
1.0
 50
0.0
 71
0
 42
2.5
  3
OpenSans-Bold.ttf
  4

  0
STYLE
  5
48
330
5
100
AcDbSymbolTableRecord
100
AcDbTextStyleTableRecord
  2
OpenSans-BoldItalic
 70
0
 40
0.0
 41
1.0
 50
0.0
 71
0
 42
2.5
  3
OpenSans-BoldItalic.ttf
  4

  0
STYLE
  5
49
330
5
100
AcDbSymbolTableRecord
100
AcDbTextStyleTableRecord
  2
OpenSans-ExtraBold
 70
0
 40
0.0
 41
1.0
 50
0.0
 71
0
 42
2.5
  3
OpenSans-ExtraBold.ttf
  4

  0
STYLE
  5
4A
330
5
100
AcDbSymbolTableRecord
100
AcDbTextStyleTableRecord
  2
OpenSans-ExtraBoldItalic
 70
0
 40
0.0
 41
1.0
 50
0.0
 71
0
 42
2.5
  3
OpenSans-ExtraBoldItalic.ttf
  4

  0
STYLE
  5
4B
330
5
100
AcDbSymbolTableRecord
100
AcDbTextStyleTableRecord
  2
OpenSansCondensed-Bold
 70
0
 40
0.0
 41
1.0
 50
0.0
 71
0
 42
2.5
  3
OpenSansCondensed-Bold.ttf
  4

  0
STYLE
  5
4C
330
5
100
AcDbSymbolTableRecord
100
AcDbTextStyleTableRecord
  2
OpenSansCondensed-Light
 70
0
 40
0.0
 41
1.0
 50
0.0
 71
0
 42
2.5
  3
OpenSansCondensed-Light.ttf
  4

  0
STYLE
  5
4D
330
5
100
AcDbSymbolTableRecord
100
AcDbTextStyleTableRecord
  2
OpenSansCondensed-Italic
 70
0
 40
0.0
 41
1.0
 50
0.0
 71
0
 42
2.5
  3
OpenSansCondensed-LightItalic.ttf
  4

  0
STYLE
  5
4E
330
5
100
AcDbSymbolTableRecord
100
AcDbTextStyleTableRecord
  2
LiberationSans
 70
0
 40
0.0
 41
1.0
 50
0.0
 71
0
 42
2.5
  3
LiberationSans-Regular.ttf
  4

  0
STYLE
  5
4F
330
5
100
AcDbSymbolTableRecord
100
AcDbTextStyleTableRecord
  2
LiberationSans-Bold
 70
0
 40
0.0
 41
1.0
 50
0.0
 71
0
 42
2.5
  3
LiberationSans-Bold.ttf
  4

  0
STYLE
  5
50
330
5
100
AcDbSymbolTableRecord
100
AcDbTextStyleTableRecord
  2
LiberationSans-BoldItalic
 70
0
 40
0.0
 41
1.0
 50
0.0
 71
0
 42
2.5
  3
LiberationSans-BoldItalic.ttf
  4

  0
STYLE
  5
51
330
5
100
AcDbSymbolTableRecord
100
AcDbTextStyleTableRecord
  2
LiberationSans-Italic
 70
0
 40
0.0
 41
1.0
 50
0.0
 71
0
 42
2.5
  3
LiberationSans-Italic.ttf
  4

  0
STYLE
  5
52
330
5
100
AcDbSymbolTableRecord
100
AcDbTextStyleTableRecord
  2
LiberationSerif
 70
0
 40
0.0
 41
1.0
 50
0.0
 71
0
 42
2.5
  3
LiberationSerif-Regular.ttf
  4

  0
STYLE
  5
53
330
5
100
AcDbSymbolTableRecord
100
AcDbTextStyleTableRecord
  2
LiberationSerif-Bold
 70
0
 40
0.0
 41
1.0
 50
0.0
 71
0
 42
2.5
  3
LiberationSerif-Bold.ttf
  4

  0
STYLE
  5
54
330
5
100
AcDbSymbolTableRecord
100
AcDbTextStyleTableRecord
  2
LiberationSerif-BoldItalic
 70
0
 40
0.0
 41
1.0
 50
0.0
 71
0
 42
2.5
  3
LiberationSerif-BoldItalic.ttf
  4

  0
STYLE
  5
55
330
5
100
AcDbSymbolTableRecord
100
AcDbTextStyleTableRecord
  2
LiberationSerif-Italic
 70
0
 40
0.0
 41
1.0
 50
0.0
 71
0
 42
2.5
  3
LiberationSerif-Italic.ttf
  4

  0
STYLE
  5
56
330
5
100
AcDbSymbolTableRecord
100
AcDbTextStyleTableRecord
  2
LiberationMono
 70
0
 40
0.0
 41
1.0
 50
0.0
 71
0
 42
2.5
  3
LiberationMono-Regular.ttf
  4

  0
STYLE
  5
57
330
5
100
AcDbSymbolTableRecord
100
AcDbTextStyleTableRecord
  2
LiberationMono-Bold
 70
0
 40
0.0
 41
1.0
 50
0.0
 71
0
 42
2.5
  3
LiberationMono-Bold.ttf
  4

  0
STYLE
  5
58
330
5
100
AcDbSymbolTableRecord
100
AcDbTextStyleTableRecord
  2
LiberationMono-BoldItalic
 70
0
 40
0.0
 41
1.0
 50
0.0
 71
0
 42
2.5
  3
LiberationMono-BoldItalic.ttf
  4

  0
STYLE
  5
59
330
5
100
AcDbSymbolTableRecord
100
AcDbTextStyleTableRecord
  2
LiberationMono-Italic
 70
0
 40
0.0
 41
1.0
 50
0.0
 71
0
 42
2.5
  3
LiberationMono-Italic.ttf
  4

  0
ENDTAB
  0
TABLE
  2
VIEW
  5
7
330
0
100
AcDbSymbolTable
 70
0
  0
ENDTAB
  0
TABLE
  2
UCS
  5
6
330
0
100
AcDbSymbolTable
 70
0
  0
ENDTAB
  0
TABLE
  2
APPID
  5
3
330
0
100
AcDbSymbolTable
 70
3
  0
APPID
  5
2A
330
3
100
AcDbSymbolTableRecord
100
AcDbRegAppTableRecord
  2
ACAD
 70
0
  0
APPID
  5
114
330
3
100
AcDbSymbolTableRecord
100
AcDbRegAppTableRecord
  2
HATCHBACKGROUNDCOLOR
 70
0
  0
APPID
  5
115
330
3
100
AcDbSymbolTableRecord
100
AcDbRegAppTableRecord
  2
EZDXF
 70
0
  0
ENDTAB
  0
TABLE
  2
DIMSTYLE
  5
4
330
0
100
AcDbSymbolTable
 70
12
100
AcDbDimStyleTable
  0
DIMSTYLE
105
2B
330
4
100
AcDbSymbolTableRecord
100
AcDbDimStyleTableRecord
  2
Standard
 70
0
 40
1.0
 41
2.5
 42
0.625
 43
3.75
 44
1.25
 45
0.0
 46
0.0
 47
0.0
 48
0.0
 49
2.5
140
2.5
141
2.5
142
0.0
143
0.03937007874
144
1.0
145
0.0
146
1.0
147
0.625
148
0.0
 69
0
 70
0
 71
0
 72
0
 73
0
 74
0
 75
0
 76
0
 77
1
 78
8
 79
3
170
0
171
3
172
1
173
0
174
0
175
0
176
0
177
0
178
0
179
2
271
2
272
2
273
2
274
3
275
0
276
0
277
2
278
44
279
0
280
0
281
0
282
0
283
0
284
8
285
0
286
0
288
0
289
3
290
0
371
-2
372
-2
  0
DIMSTYLE
105
73
330
4
100
AcDbSymbolTableRecord
100
AcDbDimStyleTableRecord
  2
EZDXF
 70
0
 40
1.0
 41
0.175
 42
0.125
 43
3.75
 44
0.375
 45
0.0
 46
0.0
 47
0.0
 48
0.0
 49
2.5
140
0.25
141
2.5
142
0.0
143
0.03937007874
144
100.0
145
0.0
146
0.5
147
0.1
148
0.0
 69
0
 70
0
 71
0
 72
0
 73
0
 74
0
 75
0
 76
0
 77
1
 78
12
 79
3
170
0
171
3
172
1
173
0
174
0
175
0
176
0
177
0
178
0
179
2
271
2
272
2
273
2
274
3
275
0
276
0
277
2
278
46
279
2
280
0
281
0
282
0
283
0
284
8
285
0
286
0
288
1
289
3
290
0
340
4C
342
74
371
-2
372
-2
  0
DIMSTYLE
105
7C
330
4
100
AcDbSymbolTableRecord
100
AcDbDimStyleTableRecord
  2
EZ_M_100_H25_CM
 70
0
 40
1.0
 41
0.25
 42
0.125
 43
3.75
 44
0.375
 45
0.0
 46
0.0
 47
0.0
 48
0.0
 49
2.5
140
0.25
141
2.5
142
0.125
143
0.03937007874
144
100.0
145
0.0
146
0.5
147
0.1
148
0.0
 69
0
 70
0
 71
0
 72
0
 73
0
 74
0
 75
0
 76
0
 77
1
 78
12
 79
3
170
0
171
3
172
1
173
0
174
0
175
0
176
0
177
0
178
0
179
2
271
2
272
2
273
2
274
3
275
0
276
0
277
2
278
46
279
2
280
0
281
0
282
0
283
0
284
8
285
0
286
0
288
1
289
3
290
0
340
4C
371
-2
372
-2
  0
DIMSTYLE
105
7D
330
4
100
AcDbSymbolTableRecord
100
AcDbDimStyleTableRecord
  2
EZ_M_50_H25_CM
 70
0
 40
1.0
 41
0.125
 42
0.0625
 43
3.75
 44
0.1875
 45
0.0
 46
0.0
 47
0.0
 48
0.0
 49
2.5
140
0.125
141
2.5
142
0.0625
143
0.03937007874
144
100.0
145
0.0
146
0.5
147
0.05
148
0.0
 69
0
 70
0
 71
0
 72
0
 73
0
 74
0
 75
0
 76
0
 77
1
 78
12
 79
3
170
0
171
3
172
1
173
0
174
0
175
0
176
0
177
0
178
0
179
2
271
2
272
2
273
2
274
3
275
0
276
0
277
2
278
46
279
2
280
0
281
0
282
0
283
0
284
8
285
0
286
0
288
1
289
3
290
0
340
4C
371
-2
372
-2
  0
DIMSTYLE
105
7E
330
4
100
AcDbSymbolTableRecord
100
AcDbDimStyleTableRecord
  2
EZ_M_25_H25_CM
 70
0
 40
1.0
 41
0.0625
 42
0.03125
 43
3.75
 44
0.09375
 45
0.0
 46
0.0
 47
0.0
 48
0.0
 49
2.5
140
0.0625
141
2.5
142
0.03125
143
0.03937007874
144
100.0
145
0.0
146
0.5
147
0.025
148
0.0
 69
0
 70
0
 71
0
 72
0
 73
0
 74
0
 75
0
 76
0
 77
1
 78
12
 79
3
170
0
171
3
172
1
173
0
174
0
175
0
176
0
177
0
178
0
179
2
271
2
272
2
273
2
274
3
275
0
276
0
277
2
278
46
279
2
280
0
281
0
282
0
283
0
284
8
285
0
286
0
288
1
289
3
290
0
340
4C
371
-2
372
-2
  0
DIMSTYLE
105
7F
330
4
100
AcDbSymbolTableRecord
100
AcDbDimStyleTableRecord
  2
EZ_M_20_H25_CM
 70
0
 40
1.0
 41
0.05
 42
0.025
 43
3.75
 44
0.07500000000000001
 45
0.0
 46
0.0
 47
0.0
 48
0.0
 49
2.5
140
0.05
141
2.5
142
0.025
143
0.03937007874
144
100.0
145
0.0
146
0.5
147
0.020000000000000004
148
0.0
 69
0
 70
0
 71
0
 72
0
 73
0
 74
0
 75
0
 76
0
 77
1
 78
12
 79
3
170
0
171
3
172
1
173
0
174
0
175
0
176
0
177
0
178
0
179
2
271
2
272
2
273
2
274
3
275
0
276
0
277
2
278
46
279
2
280
0
281
0
282
0
283
0
284
8
285
0
286
0
288
1
289
3
290
0
340
4C
371
-2
372
-2
  0
DIMSTYLE
105
80
330
4
100
AcDbSymbolTableRecord
100
AcDbDimStyleTableRecord
  2
EZ_M_10_H25_CM
 70
0
 40
1.0
 41
0.025
 42
0.0125
 43
3.75
 44
0.037500000000000006
 45
0.0
 46
0.0
 47
0.0
 48
0.0
 49
2.5
140
0.025
141
2.5
142
0.0125
143
0.03937007874
144
100.0
145
0.0
146
0.5
147
0.010000000000000002
148
0.0
 69
0
 70
0
 71
0
 72
0
 73
0
 74
0
 75
0
 76
0
 77
1
 78
12
 79
3
170
0
171
3
172
1
173
0
174
0
175
0
176
0
177
0
178
0
179
2
271
2
272
2
273
2
274
3
275
0
276
0
277
2
278
46
279
2
280
0
281
0
282
0
283
0
284
8
285
0
286
0
288
1
289
3
290
0
340
4C
371
-2
372
-2
  0
DIMSTYLE
105
81
330
4
100
AcDbSymbolTableRecord
100
AcDbDimStyleTableRecord
  2
EZ_M_5_H25_CM
 70
0
 40
1.0
 41
0.0125
 42
0.00625
 43
3.75
 44
0.018750000000000003
 45
0.0
 46
0.0
 47
0.0
 48
0.0
 49
2.5
140
0.0125
141
2.5
142
0.00625
143
0.03937007874
144
100.0
145
0.0
146
0.5
147
0.005000000000000001
148
0.0
 69
0
 70
0
 71
0
 72
0
 73
0
 74
0
 75
0
 76
0
 77
1
 78
12
 79
3
170
0
171
3
172
1
173
0
174
0
175
0
176
0
177
0
178
0
179
2
271
2
272
2
273
2
274
3
275
0
276
0
277
2
278
46
279
2
280
0
281
0
282
0
283
0
284
8
285
0
286
0
288
1
289
3
290
0
340
4C
371
-2
372
-2
  0
DIMSTYLE
105
82
330
4
100
AcDbSymbolTableRecord
100
AcDbDimStyleTableRecord
  2
EZ_M_1_H25_CM
 70
0
 40
1.0
 41
0.0025
 42
0.00125
 43
3.75
 44
0.00375
 45
0.0
 46
0.0
 47
0.0
 48
0.0
 49
2.5
140
0.0025
141
2.5
142
0.00125
143
0.03937007874
144
100.0
145
0.0
146
0.5
147
0.001
148
0.0
 69
0
 70
0
 71
0
 72
0
 73
0
 74
0
 75
0
 76
0
 77
1
 78
12
 79
3
170
0
171
3
172
1
173
0
174
0
175
0
176
0
177
0
178
0
179
2
271
2
272
2
273
2
274
3
275
0
276
0
277
2
278
46
279
2
280
0
281
0
282
0
283
0
284
8
285
0
286
0
288
1
289
3
290
0
340
4C
371
-2
372
-2
  0
DIMSTYLE
105
83
330
4
100
AcDbSymbolTableRecord
100
AcDbDimStyleTableRecord
  2
EZ_RADIUS
 70
0
 40
1.0
 41
0.25
 42
0.125
 43
3.75
 44
0.375
 45
0.0
 46
0.0
 47
0.0
 48
0.0
 49
2.5
140
0.25
141
0.0
142
0.0
143
0.03937007874
144
100.0
145
0.0
146
0.5
147
0.1
148
0.0
 69
0
 70
0
 71
0
 72
0
 73
0
 74
0
 75
0
 76
0
 77
1
 78
12
 79
3
170
0
171
3
172
0
173
0
174
0
175
0
176
0
177
0
178
0
179
2
271
2
272
2
273
2
274
3
275
0
276
0
277
2
278
46
279
1
280
0
281
0
282
0
283
0
284
8
285
0
286
0
288
1
289
3
290
0
340
4C
342
84
371
-2
372
-2
  0
DIMSTYLE
105
88
330
4
100
AcDbSymbolTableRecord
100
AcDbDimStyleTableRecord
  2
EZ_RADIUS_INSIDE
 70
0
 40
1.0
 41
0.25
 42
0.125
 43
3.75
 44
0.375
 45
0.0
 46
0.0
 47
0.0
 48
0.0
 49
2.5
140
0.25
141
0.0
142
0.0
143
0.03937007874
144
100.0
145
0.0
146
0.5
147
0.1
148
0.0
 69
0
 70
0
 71
0
 72
0
 73
0
 74
0
 75
0
 76
0
 77
0
 78
12
 79
3
170
0
171
3
172
0
173
0
174
1
175
0
176
0
177
0
178
0
179
2
271
2
272
2
273
2
274
3
275
0
276
0
277
2
278
46
279
0
280
0
281
0
282
0
283
0
284
8
285
0
286
0
288
1
289
0
290
0
340
4C
342
84
371
-2
372
-2
  0
DIMSTYLE
105
89
330
4
100
AcDbSymbolTableRecord
100
AcDbDimStyleTableRecord
  2
EZ_CURVED
 70
0
 40
1.0
 41
0.25
 42
0.125
 43
3.75
 44
0.375
 45
0.0
 46
0.0
 47
0.0
 48
0.0
 49
2.5
140
0.25
141
2.5
142
0.0
143
0.03937007874
144
100.0
145
0.0
146
0.5
147
0.1
148
0.0
 69
0
 70
0
 71
0
 72
0
 73
0
 74
0
 75
0
 76
0
 77
1
 78
12
 79
2
 90
2
170
0
171
3
172
1
173
0
174
0
175
0
176
0
177
0
178
0
179
2
271
2
272
2
273
2
274
3
275
0
276
0
277
2
278
46
279
2
280
0
281
0
282
0
283
0
284
8
285
0
286
0
288
1
289
3
290
0
340
4C
371
-2
372
-2
  0
ENDTAB
  0
TABLE
  2
BLOCK_RECORD
  5
9
330
0
100
AcDbSymbolTable
 70
5
  0
BLOCK_RECORD
  5
17
330
9
100
AcDbSymbolTableRecord
100
AcDbBlockTableRecord
  2
*Model_Space
340
1A
 70
0
280
1
281
0
  0
BLOCK_RECORD
  5
1B
330
9
100
AcDbSymbolTableRecord
100
AcDbBlockTableRecord
  2
*Paper_Space
340
1E
 70
0
280
1
281
0
  0
BLOCK_RECORD
  5
74
330
9
100
AcDbSymbolTableRecord
100
AcDbBlockTableRecord
  2
_ARCHTICK
340
0
 70
0
280
1
281
0
  0
BLOCK_RECORD
  5
78
330
9
100
AcDbSymbolTableRecord
100
AcDbBlockTableRecord
  2
_CLOSEDFILLED
340
0
 70
0
280
1
281
0
  0
BLOCK_RECORD
  5
84
330
9
100
AcDbSymbolTableRecord
100
AcDbBlockTableRecord
  2
_CLOSEDBLANK
340
0
 70
0
280
1
281
0
  0
ENDTAB
  0
ENDSEC
  0
SECTION
  2
BLOCKS
  0
BLOCK
  5
18
330
17
100
AcDbEntity
  8
0
100
AcDbBlockBegin
  2
*Model_Space
 70
0
 10
0.0
 20
0.0
 30
0.0
  3
*Model_Space
  1

  0
ENDBLK
  5
19
330
17
100
AcDbEntity
  8
0
100
AcDbBlockEnd
  0
BLOCK
  5
1C
330
1B
100
AcDbEntity
  8
0
100
AcDbBlockBegin
  2
*Paper_Space
 70
0
 10
0.0
 20
0.0
 30
0.0
  3
*Paper_Space
  1

  0
ENDBLK
  5
1D
330
1B
100
AcDbEntity
  8
0
100
AcDbBlockEnd
  0
BLOCK
  5
75
330
74
100
AcDbEntity
  8
0
100
AcDbBlockBegin
  2
_ARCHTICK
 70
0
 10
0.0
 20
0.0
 30
0.0
  3
_ARCHTICK
  1

  0
LWPOLYLINE
  5
77
330
74
100
AcDbEntity
  8
0
  6
BYBLOCK
 62
0
100
AcDbPolyline
 90
2
 70
0
 43
0.15
 10
-0.5
 20
-0.5
 10
0.5
 20
0.5
  0
ENDBLK
  5
76
330
74
100
AcDbEntity
  8
0
100
AcDbBlockEnd
  0
BLOCK
  5
79
330
78
100
AcDbEntity
  8
0
100
AcDbBlockBegin
  2
_CLOSEDFILLED
 70
0
 10
0.0
 20
0.0
 30
0.0
  3
_CLOSEDFILLED
  1

  0
SOLID
  5
7B
330
78
100
AcDbEntity
  8
0
  6
BYBLOCK
 62
0
100
AcDbTrace
 10
-1.0
 20
0.16439898372402537
 30
0.0
 11
0.0
 21
0.0
 31
0.0
 12
-1.0
 22
-0.16439898372402537
 32
0.0
 13
-1.0
 23
-0.16439898372402537
 33
0.0
  0
ENDBLK
  5
7A
330
78
100
AcDbEntity
  8
0
100
AcDbBlockEnd
  0
BLOCK
  5
85
330
84
100
AcDbEntity
  8
0
100
AcDbBlockBegin
  2
_CLOSEDBLANK
 70
0
 10
0.0
 20
0.0
 30
0.0
  3
_CLOSEDBLANK
  1

  0
LWPOLYLINE
  5
87
330
84
100
AcDbEntity
  8
0
  6
BYBLOCK
 62
0
100
AcDbPolyline
 90
3
 70
1
 10
-1.0
 20
0.16439898372402537
 10
0.0
 20
0.0
 10
-1.0
 20
-0.16439898372402537
  0
ENDBLK
  5
86
330
84
100
AcDbEntity
  8
0
100
AcDbBlockEnd
  0
ENDSEC
  0
SECTION
  2
ENTITIES
  0
LWPOLYLINE
  5
8D
330
17
100
AcDbEntity
  8
REFERENCE-SHEET
100
AcDbPolyline
 90
4
 70
1
 10
0.0
 20
0.0
 10
2440.0
 20
0.0
 10
2440.0
 20
1220.0
 10
0.0
 20
1220.0
  0
TEXT
  5
8E
330
17
100
AcDbEntity
  8
REFERENCE-SHEET
100
AcDbText
 10
0.0
 20
1275.0
 30
0.0
 40
40.0
  1
SHEET 1/4  -  2440 x 1220 x 18 mm MDF
 11
0.0
 21
1275.0
 31
0.0
100
AcDbText
  0
LWPOLYLINE
  5
8F
330
17
100
AcDbEntity
  8
CUT
100
AcDbPolyline
 90
4
 70
1
 10
897.0
 20
17.0
 10
897.0
 20
642.0
 10
17.0
 20
642.0
 10
17.0
 20
17.0
  0
LWPOLYLINE
  5
90
330
17
100
AcDbEntity
  8
CUT
100
AcDbPolyline
 90
8
 70
1
 10
443.0
 20
169.7
 42
2.414213562373095
 10
446.20000000000005
 20
166.5
 10
458.79999999999995
 20
166.5
 42
2.414213562373095
 10
462.0
 20
169.7
 10
462.0
 20
204.3
 42
2.414213562373095
 10
458.79999999999995
 20
207.5
 10
446.20000000000005
 20
207.5
 42
2.414213562373095
 10
443.0
 20
204.3
  0
LWPOLYLINE
  5
91
330
17
100
AcDbEntity
  8
CUT
100
AcDbPolyline
 90
8
 70
1
 10
443.0
 20
469.7
 42
2.414213562373095
 10
446.20000000000005
 20
466.5
 10
458.79999999999995
 20
466.5
 42
2.414213562373095
 10
462.0
 20
469.7
 10
462.0
 20
504.3
 42
2.414213562373095
 10
458.79999999999995
 20
507.5
 10
446.20000000000005
 20
507.5
 42
2.414213562373095
 10
443.0
 20
504.3
  0
LWPOLYLINE
  5
92
330
17
100
AcDbEntity
  8
CUT
100
AcDbPolyline
 90
32
 70
1
 10
347.0
 20
112.0
 10
354.80359999999996
 20
112.7686
 10
362.30730000000005
 20
115.0448
 10
369.2228
 20
118.7412
 10
375.28430000000003
 20
123.7157
 10
380.25879999999995
 20
129.7772
 10
383.9552
 20
136.6927
 10
386.2314
 20
144.19639999999998
 10
387.0
 20
277.0
 10
386.2314
 20
284.8036
 10
383.9552
 20
292.3073
 10
380.25879999999995
 20
299.2228
 10
375.28430000000003
 20
305.2843
 10
369.2228
 20
310.2588
 10
362.30730000000005
 20
313.9552
 10
354.80359999999996
 20
316.2314
 10
127.0
 20
317.0
 10
119.19639999999998
 20
316.2314
 10
111.6927
 20
313.9552
 10
104.7772
 20
310.2588
 10
98.71570000000003
 20
305.2843
 10
93.74119999999999
 20
299.2228
 10
90.04480000000001
 20
292.3073
 10
87.76859999999999
 20
284.8036
 10
87.0
 20
152.0
 10
87.76859999999999
 20
144.19639999999998
 10
90.04480000000001
 20
136.6927
 10
93.74119999999999
 20
129.7772
 10
98.71570000000003
 20
123.7157
 10
104.7772
 20
118.7412
 10
111.6927
 20
115.0448
 10
119.19639999999998
 20
112.7686
  0
LWPOLYLINE
  5
93
330
17
100
AcDbEntity
  8
CUT
100
AcDbPolyline
 90
32
 70
1
 10
787.0
 20
112.0
 10
794.8036
 20
112.7686
 10
802.3073
 20
115.0448
 10
809.2228
 20
118.7412
 10
815.2843
 20
123.7157
 10
820.2588
 20
129.7772
 10
823.9552000000001
 20
136.6927
 10
826.2313999999999
 20
144.19639999999998
 10
827.0
 20
277.0
 10
826.2313999999999
 20
284.8036
 10
823.9552000000001
 20
292.3073
 10
820.2588
 20
299.2228
 10
815.2843
 20
305.2843
 10
809.2228
 20
310.2588
 10
802.3073
 20
313.9552
 10
794.8036
 20
316.2314
 10
557.0
 20
317.0
 10
549.1964
 20
316.2314
 10
541.6927
 20
313.9552
 10
534.7772
 20
310.2588
 10
528.7157
 20
305.2843
 10
523.7412
 20
299.2228
 10
520.0448
 20
292.3073
 10
517.7686
 20
284.8036
 10
517.0
 20
152.0
 10
517.7686
 20
144.19639999999998
 10
520.0448
 20
136.6927
 10
523.7412
 20
129.7772
 10
528.7157
 20
123.7157
 10
534.7772
 20
118.7412
 10
541.6927
 20
115.0448
 10
549.1964
 20
112.7686
  0
LWPOLYLINE
  5
94
330
17
100
AcDbEntity
  8
CUT
100
AcDbPolyline
 90
32
 70
1
 10
347.0
 20
417.0
 10
354.80359999999996
 20
417.7686
 10
362.30730000000005
 20
420.0448
 10
369.2228
 20
423.7412
 10
375.28430000000003
 20
428.7157
 10
380.25879999999995
 20
434.7772
 10
383.9552
 20
441.6927
 10
386.2314
 20
449.1964
 10
387.0
 20
537.0
 10
386.2314
 20
544.8036
 10
383.9552
 20
552.3073
 10
380.25879999999995
 20
559.2228
 10
375.28430000000003
 20
565.2843
 10
369.2228
 20
570.2588
 10
362.30730000000005
 20
573.9552
 10
354.80359999999996
 20
576.2314
 10
127.0
 20
577.0
 10
119.19639999999998
 20
576.2314
 10
111.6927
 20
573.9552
 10
104.7772
 20
570.2588
 10
98.71570000000003
 20
565.2843
 10
93.74119999999999
 20
559.2228
 10
90.04480000000001
 20
552.3073
 10
87.76859999999999
 20
544.8036
 10
87.0
 20
457.0
 10
87.76859999999999
 20
449.1964
 10
90.04480000000001
 20
441.6927
 10
93.74119999999999
 20
434.7772
 10
98.71570000000003
 20
428.7157
 10
104.7772
 20
423.7412
 10
111.6927
 20
420.0448
 10
119.19639999999998
 20
417.7686
  0
LWPOLYLINE
  5
95
330
17
100
AcDbEntity
  8
CUT
100
AcDbPolyline
 90
32
 70
1
 10
787.0
 20
417.0
 10
794.8036
 20
417.7686
 10
802.3073
 20
420.0448
 10
809.2228
 20
423.7412
 10
815.2843
 20
428.7157
 10
820.2588
 20
434.7772
 10
823.9552000000001
 20
441.6927
 10
826.2313999999999
 20
449.1964
 10
827.0
 20
537.0
 10
826.2313999999999
 20
544.8036
 10
823.9552000000001
 20
552.3073
 10
820.2588
 20
559.2228
 10
815.2843
 20
565.2843
 10
809.2228
 20
570.2588
 10
802.3073
 20
573.9552
 10
794.8036
 20
576.2314
 10
557.0
 20
577.0
 10
549.1964
 20
576.2314
 10
541.6927
 20
573.9552
 10
534.7772
 20
570.2588
 10
528.7157
 20
565.2843
 10
523.7412
 20
559.2228
 10
520.0448
 20
552.3073
 10
517.7686
 20
544.8036
 10
517.0
 20
457.0
 10
517.7686
 20
449.1964
 10
520.0448
 20
441.6927
 10
523.7412
 20
434.7772
 10
528.7157
 20
428.7157
 10
534.7772
 20
423.7412
 10
541.6927
 20
420.0448
 10
549.1964
 20
417.7686
  0
TEXT
  5
96
330
17
100
AcDbEntity
  8
ENGRAVE-LABEL
100
AcDbText
 10
452.31640625
 20
365.69140625
 30
0.0
 40
22.0
  1
11 SEAT-DECK 1/2
 72
1
 11
452.31640625
 21
365.69140625
 31
0.0
100
AcDbText
 73
2
  0
LWPOLYLINE
  5
97
330
17
100
AcDbEntity
  8
CUT
100
AcDbPolyline
 90
4
 70
1
 10
1793.0
 20
17.0
 10
1793.0
 20
642.0
 10
913.0
 20
642.0
 10
913.0
 20
17.0
  0
LWPOLYLINE
  5
98
330
17
100
AcDbEntity
  8
CUT
100
AcDbPolyline
 90
8
 70
1
 10
1339.0
 20
169.7
 42
2.414213562373095
 10
1342.2
 20
166.5
 10
1354.8
 20
166.5
 42
2.414213562373095
 10
1358.0
 20
169.7
 10
1358.0
 20
204.3
 42
2.414213562373095
 10
1354.8
 20
207.5
 10
1342.2
 20
207.5
 42
2.414213562373095
 10
1339.0
 20
204.3
  0
LWPOLYLINE
  5
99
330
17
100
AcDbEntity
  8
CUT
100
AcDbPolyline
 90
8
 70
1
 10
1339.0
 20
469.7
 42
2.414213562373095
 10
1342.2
 20
466.5
 10
1354.8
 20
466.5
 42
2.414213562373095
 10
1358.0
 20
469.7
 10
1358.0
 20
504.3
 42
2.414213562373095
 10
1354.8
 20
507.5
 10
1342.2
 20
507.5
 42
2.414213562373095
 10
1339.0
 20
504.3
  0
LWPOLYLINE
  5
9A
330
17
100
AcDbEntity
  8
CUT
100
AcDbPolyline
 90
32
 70
1
 10
1243.0
 20
112.0
 10
1250.8036
 20
112.7686
 10
1258.3073
 20
115.0448
 10
1265.2228
 20
118.7412
 10
1271.2843
 20
123.7157
 10
1276.2588
 20
129.7772
 10
1279.9551999999999
 20
136.6927
 10
1282.2314000000001
 20
144.19639999999998
 10
1283.0
 20
277.0
 10
1282.2314000000001
 20
284.8036
 10
1279.9551999999999
 20
292.3073
 10
1276.2588
 20
299.2228
 10
1271.2843
 20
305.2843
 10
1265.2228
 20
310.2588
 10
1258.3073
 20
313.9552
 10
1250.8036
 20
316.2314
 10
1023.0
 20
317.0
 10
1015.1964
 20
316.2314
 10
1007.6927000000001
 20
313.9552
 10
1000.7772
 20
310.2588
 10
994.7157
 20
305.2843
 10
989.7411999999999
 20
299.2228
 10
986.0448
 20
292.3073
 10
983.7686
 20
284.8036
 10
983.0
 20
152.0
 10
983.7686
 20
144.19639999999998
 10
986.0448
 20
136.6927
 10
989.7411999999999
 20
129.7772
 10
994.7157
 20
123.7157
 10
1000.7772
 20
118.7412
 10
1007.6927000000001
 20
115.0448
 10
1015.1964
 20
112.7686
  0
LWPOLYLINE
  5
9B
330
17
100
AcDbEntity
  8
CUT
100
AcDbPolyline
 90
32
 70
1
 10
1683.0
 20
112.0
 10
1690.8036
 20
112.7686
 10
1698.3073
 20
115.0448
 10
1705.2228
 20
118.7412
 10
1711.2843
 20
123.7157
 10
1716.2588
 20
129.7772
 10
1719.9552
 20
136.6927
 10
1722.2314
 20
144.19639999999998
 10
1723.0
 20
277.0
 10
1722.2314
 20
284.8036
 10
1719.9552
 20
292.3073
 10
1716.2588
 20
299.2228
 10
1711.2843
 20
305.2843
 10
1705.2228
 20
310.2588
 10
1698.3073
 20
313.9552
 10
1690.8036
 20
316.2314
 10
1453.0
 20
317.0
 10
1445.1964
 20
316.2314
 10
1437.6927
 20
313.9552
 10
1430.7772
 20
310.2588
 10
1424.7157
 20
305.2843
 10
1419.7412
 20
299.2228
 10
1416.0448000000001
 20
292.3073
 10
1413.7685999999999
 20
284.8036
 10
1413.0
 20
152.0
 10
1413.7685999999999
 20
144.19639999999998
 10
1416.0448000000001
 20
136.6927
 10
1419.7412
 20
129.7772
 10
1424.7157
 20
123.7157
 10
1430.7772
 20
118.7412
 10
1437.6927
 20
115.0448
 10
1445.1964
 20
112.7686
  0
LWPOLYLINE
  5
9C
330
17
100
AcDbEntity
  8
CUT
100
AcDbPolyline
 90
32
 70
1
 10
1243.0
 20
417.0
 10
1250.8036
 20
417.7686
 10
1258.3073
 20
420.0448
 10
1265.2228
 20
423.7412
 10
1271.2843
 20
428.7157
 10
1276.2588
 20
434.7772
 10
1279.9551999999999
 20
441.6927
 10
1282.2314000000001
 20
449.1964
 10
1283.0
 20
537.0
 10
1282.2314000000001
 20
544.8036
 10
1279.9551999999999
 20
552.3073
 10
1276.2588
 20
559.2228
 10
1271.2843
 20
565.2843
 10
1265.2228
 20
570.2588
 10
1258.3073
 20
573.9552
 10
1250.8036
 20
576.2314
 10
1023.0
 20
577.0
 10
1015.1964
 20
576.2314
 10
1007.6927000000001
 20
573.9552
 10
1000.7772
 20
570.2588
 10
994.7157
 20
565.2843
 10
989.7411999999999
 20
559.2228
 10
986.0448
 20
552.3073
 10
983.7686
 20
544.8036
 10
983.0
 20
457.0
 10
983.7686
 20
449.1964
 10
986.0448
 20
441.6927
 10
989.7411999999999
 20
434.7772
 10
994.7157
 20
428.7157
 10
1000.7772
 20
423.7412
 10
1007.6927000000001
 20
420.0448
 10
1015.1964
 20
417.7686
  0
LWPOLYLINE
  5
9D
330
17
100
AcDbEntity
  8
CUT
100
AcDbPolyline
 90
32
 70
1
 10
1683.0
 20
417.0
 10
1690.8036
 20
417.7686
 10
1698.3073
 20
420.0448
 10
1705.2228
 20
423.7412
 10
1711.2843
 20
428.7157
 10
1716.2588
 20
434.7772
 10
1719.9552
 20
441.6927
 10
1722.2314
 20
449.1964
 10
1723.0
 20
537.0
 10
1722.2314
 20
544.8036
 10
1719.9552
 20
552.3073
 10
1716.2588
 20
559.2228
 10
1711.2843
 20
565.2843
 10
1705.2228
 20
570.2588
 10
1698.3073
 20
573.9552
 10
1690.8036
 20
576.2314
 10
1453.0
 20
577.0
 10
1445.1964
 20
576.2314
 10
1437.6927
 20
573.9552
 10
1430.7772
 20
570.2588
 10
1424.7157
 20
565.2843
 10
1419.7412
 20
559.2228
 10
1416.0448000000001
 20
552.3073
 10
1413.7685999999999
 20
544.8036
 10
1413.0
 20
457.0
 10
1413.7685999999999
 20
449.1964
 10
1416.0448000000001
 20
441.6927
 10
1419.7412
 20
434.7772
 10
1424.7157
 20
428.7157
 10
1430.7772
 20
423.7412
 10
1437.6927
 20
420.0448
 10
1445.1964
 20
417.7686
  0
TEXT
  5
9E
330
17
100
AcDbEntity
  8
ENGRAVE-LABEL
100
AcDbText
 10
1348.31640625
 20
365.69140625
 30
0.0
 40
22.0
  1
11 SEAT-DECK 2/2
 72
1
 11
1348.31640625
 21
365.69140625
 31
0.0
100
AcDbText
 73
2
  0
LWPOLYLINE
  5
9F
330
17
100
AcDbEntity
  8
CUT
100
AcDbPolyline
 90
46
 70
1
 10
17.0
 20
837.0
 10
31.80000000000001
 20
837.0
 42
-2.414213562373095
 10
35.0
 20
833.8
 10
35.0
 20
750.2
 42
-2.414213562373095
 10
31.80000000000001
 20
747.0
 10
17.0
 20
747.0
 10
17.0
 20
707.0
 10
31.80000000000001
 20
707.0
 42
-2.414213562373095
 10
35.0
 20
703.8
 10
35.0
 20
657.0
 10
461.0
 20
657.0
 10
461.0
 20
784.8
 42
-2.414213562373095
 10
464.20000000000005
 20
788.0
 10
476.79999999999995
 20
788.0
 42
-2.414213562373095
 10
480.0
 20
784.8
 10
480.0
 20
657.0
 10
905.5
 20
657.0
 10
905.5
 20
784.8
 42
-2.414213562373095
 10
908.7
 20
788.0
 10
921.3
 20
788.0
 42
-2.414213562373095
 10
924.5
 20
784.8
 10
924.5
 20
657.0
 10
1350.0
 20
657.0
 10
1350.0
 20
784.8
 42
-2.414213562373095
 10
1353.2
 20
788.0
 10
1365.8
 20
788.0
 42
-2.414213562373095
 10
1369.0
 20
784.8
 10
1369.0
 20
657.0
 10
1795.0
 20
657.0
 10
1795.0
 20
703.8
 42
-2.414213562373095
 10
1798.2
 20
707.0
 10
1813.0
 20
707.0
 10
1813.0
 20
747.0
 10
1798.2
 20
747.0
 42
-2.414213562373095
 10
1795.0
 20
750.2
 10
1795.0
 20
833.8
 42
-2.414213562373095
 10
1798.2
 20
837.0
 10
1813.0
 20
837.0
 10
1813.0
 20
877.0
 10
1798.2
 20
877.0
 42
-2.414213562373095
 10
1795.0
 20
880.2
 10
1795.0
 20
919.0
 10
35.0
 20
919.0
 10
35.0
 20
880.2
 42
-2.414213562373095
 10
31.80000000000001
 20
877.0
 10
17.0
 20
877.0
  0
TEXT
  5
A0
330
17
100
AcDbEntity
  8
ENGRAVE-LABEL
100
AcDbText
 10
246.40240908758963
 20
788.0
 30
0.0
 40
22.0
  1
04 RAIL-FRONT
 72
1
 11
246.40240908758963
 21
788.0
 31
0.0
100
AcDbText
 73
2
  0
LWPOLYLINE
  5
A1
330
17
100
AcDbEntity
  8
CUT
100
AcDbPolyline
 90
61
 70
1
 10
2289.0
 20
301.0
 10
2289.0
 20
421.0
 10
2252.2
 20
421.0
 42
-2.414213562373095
 10
2249.0
 20
424.2
 10
2249.0
 20
1037.8
 42
-2.414213562373095
 10
2252.2
 20
1041.0
 10
2289.0
 20
1041.0
 10
2289.0
 20
1161.0
 10
1649.0
 20
1161.0
 10
1643.7676999999999
 20
1160.8287
 10
1638.5579
 20
1160.3156
 10
1633.3928
 20
1159.4628
 10
1628.2945
 20
1158.2741
 10
1623.2848
 20
1156.7544
 10
1618.3853
 20
1154.9104
 10
1613.6169
 20
1152.7498
 10
1609.0
 20
1150.2820000000002
 10
1604.5544
 20
1147.5176000000001
 10
1600.2991
 20
1144.4683
 10
1596.2523
 20
1141.1471999999999
 10
1592.4315000000001
 20
1137.5684999999999
 10
1588.8528000000001
 20
1133.7477
 10
1585.5317
 20
1129.7009
 10
1582.4823999999999
 20
1125.4456
 10
1579.7179999999998
 20
1121.0
 10
1577.2502
 20
1116.3831
 10
1575.0896
 20
1111.6147
 10
1573.2456
 20
1106.7152
 10
1571.7259
 20
1101.7055
 10
1570.5372
 20
1096.6072
 10
1569.6844
 20
1091.4421
 10
1569.1713
 20
1086.2323000000001
 10
1569.0
 20
1081.0
 10
1569.0
 20
931.0
 10
1825.8000000000002
 20
931.0
 42
-2.414213562373095
 10
1829.0
 20
927.8
 10
1829.0
 20
401.0
 10
1829.2141
 20
394.4597
 10
1829.8555000000001
 20
387.9474
 10
1830.9215
 20
381.49100000000004
 10
1832.4074
 20
375.1181
 10
1834.307
 20
368.8561
 10
1836.612
 20
362.73170000000005
 10
1839.3127
 20
356.77110000000005
 10
1842.3975
 20
351.0
 10
1845.853
 20
345.44300000000004
 10
1849.6647
 20
340.12390000000005
 10
1853.816
 20
335.0654
 10
1858.2893
 20
330.2893
 10
1863.0654
 20
325.81600000000003
 10
1868.1239
 20
321.66470000000004
 10
1873.443
 20
317.853
 10
1879.0
 20
314.39750000000004
 10
1884.7711
 20
311.3127
 10
1890.7317
 20
308.612
 10
1896.8561
 20
306.307
 10
1903.1181000000001
 20
304.4074
 10
1909.491
 20
302.92150000000004
 10
1915.9474
 20
301.8555
 10
1922.4596999999999
 20
301.21410000000003
 10
1929.0
 20
301.0
  0
LWPOLYLINE
  5
A2
330
17
100
AcDbEntity
  8
CUT
100
AcDbPolyline
 90
8
 70
1
 10
2146.3
 20
390.5
 42
2.414213562373095
 10
2149.5
 20
393.70000000000005
 10
2149.5
 20
406.3
 42
2.414213562373095
 10
2146.3
 20
409.5
 10
2111.7
 20
409.5
 42
2.414213562373095
 10
2108.5
 20
406.3
 10
2108.5
 20
393.70000000000005
 42
2.414213562373095
 10
2111.7
 20
390.5
  0
LWPOLYLINE
  5
A3
330
17
100
AcDbEntity
  8
CUT
100
AcDbPolyline
 90
8
 70
1
 10
1946.3
 20
390.5
 42
2.414213562373095
 10
1949.5
 20
393.70000000000005
 10
1949.5
 20
406.3
 42
2.414213562373095
 10
1946.3
 20
409.5
 10
1911.7
 20
409.5
 42
2.414213562373095
 10
1908.5
 20
406.3
 10
1908.5
 20
393.70000000000005
 42
2.414213562373095
 10
1911.7
 20
390.5
  0
LWPOLYLINE
  5
A4
330
17
100
AcDbEntity
  8
CUT
100
AcDbPolyline
 90
8
 70
1
 10
2146.3
 20
600.5
 42
2.414213562373095
 10
2149.5
 20
603.7
 10
2149.5
 20
616.3
 42
2.414213562373095
 10
2146.3
 20
619.5
 10
2111.7
 20
619.5
 42
2.414213562373095
 10
2108.5
 20
616.3
 10
2108.5
 20
603.7
 42
2.414213562373095
 10
2111.7
 20
600.5
  0
LWPOLYLINE
  5
A5
330
17
100
AcDbEntity
  8
CUT
100
AcDbPolyline
 90
8
 70
1
 10
1946.3
 20
600.5
 42
2.414213562373095
 10
1949.5
 20
603.7
 10
1949.5
 20
616.3
 42
2.414213562373095
 10
1946.3
 20
619.5
 10
1911.7
 20
619.5
 42
2.414213562373095
 10
1908.5
 20
616.3
 10
1908.5
 20
603.7
 42
2.414213562373095
 10
1911.7
 20
600.5
  0
LWPOLYLINE
  5
A6
330
17
100
AcDbEntity
  8
CUT
100
AcDbPolyline
 90
8
 70
1
 10
2146.3
 20
810.5
 42
2.414213562373095
 10
2149.5
 20
813.7
 10
2149.5
 20
826.3
 42
2.414213562373095
 10
2146.3
 20
829.5
 10
2111.7
 20
829.5
 42
2.414213562373095
 10
2108.5
 20
826.3
 10
2108.5
 20
813.7
 42
2.414213562373095
 10
2111.7
 20
810.5
  0
LWPOLYLINE
  5
A7
330
17
100
AcDbEntity
  8
CUT
100
AcDbPolyline
 90
8
 70
1
 10
1946.3000000000002
 20
810.5
 42
2.414213562373095
 10
1949.5
 20
813.7
 10
1949.5
 20
826.3
 42
2.414213562373095
 10
1946.3000000000002
 20
829.5
 10
1911.7
 20
829.5
 42
2.414213562373095
 10
1908.5
 20
826.3
 10
1908.5
 20
813.7
 42
2.414213562373095
 10
1911.7
 20
810.5
  0
LWPOLYLINE
  5
A8
330
17
100
AcDbEntity
  8
CUT
100
AcDbPolyline
 90
8
 70
1
 10
2186.3
 20
330.5
 42
2.414213562373095
 10
2189.5
 20
333.7
 10
2189.5
 20
346.3
 42
2.414213562373095
 10
2186.3
 20
349.5
 10
2151.7
 20
349.5
 42
2.414213562373095
 10
2148.5
 20
346.3
 10
2148.5
 20
333.7
 42
2.414213562373095
 10
2151.7
 20
330.5
  0
LWPOLYLINE
  5
A9
330
17
100
AcDbEntity
  8
CUT
100
AcDbPolyline
 90
8
 70
1
 10
2056.3
 20
330.5
 42
2.414213562373095
 10
2059.5
 20
333.70000000000005
 10
2059.5
 20
346.3
 42
2.414213562373095
 10
2056.3
 20
349.5
 10
2021.7
 20
349.5
 42
2.414213562373095
 10
2018.5
 20
346.3
 10
2018.5
 20
333.70000000000005
 42
2.414213562373095
 10
2021.7
 20
330.5
  0
LWPOLYLINE
  5
AA
330
17
100
AcDbEntity
  8
CUT
100
AcDbPolyline
 90
8
 70
1
 10
2075.3
 20
640.5
 42
2.414213562373095
 10
2078.5
 20
643.7
 10
2078.5
 20
656.3
 42
2.414213562373095
 10
2075.3
 20
659.5
 10
2040.7
 20
659.5
 42
2.414213562373095
 10
2037.5
 20
656.3
 10
2037.5
 20
643.7
 42
2.414213562373095
 10
2040.7
 20
640.5
  0
LWPOLYLINE
  5
AB
330
17
100
AcDbEntity
  8
CUT
100
AcDbPolyline
 90
8
 70
1
 10
2146.3
 20
900.5
 42
2.414213562373095
 10
2149.5
 20
903.7
 10
2149.5
 20
916.3
 42
2.414213562373095
 10
2146.3
 20
919.5
 10
2111.7
 20
919.5
 42
2.414213562373095
 10
2108.5
 20
916.3
 10
2108.5
 20
903.7
 42
2.414213562373095
 10
2111.7
 20
900.5
  0
LWPOLYLINE
  5
AC
330
17
100
AcDbEntity
  8
CUT
100
AcDbPolyline
 90
8
 70
1
 10
2046.3000000000002
 20
900.5
 42
2.414213562373095
 10
2049.5
 20
903.7
 10
2049.5
 20
916.3
 42
2.414213562373095
 10
2046.3000000000002
 20
919.5
 10
2011.7
 20
919.5
 42
2.414213562373095
 10
2008.5
 20
916.3
 10
2008.5
 20
903.7
 42
2.414213562373095
 10
2011.7
 20
900.5
  0
LWPOLYLINE
  5
AD
330
17
100
AcDbEntity
  8
CUT
100
AcDbPolyline
 90
8
 70
1
 10
1946.3000000000002
 20
960.5
 42
2.414213562373095
 10
1949.5
 20
963.7
 10
1949.5
 20
976.3
 42
2.414213562373095
 10
1946.3000000000002
 20
979.5
 10
1911.7
 20
979.5
 42
2.414213562373095
 10
1908.5
 20
976.3
 10
1908.5
 20
963.7
 42
2.414213562373095
 10
1911.7
 20
960.5
  0
LWPOLYLINE
  5
AE
330
17
100
AcDbEntity
  8
CUT
100
AcDbPolyline
 90
8
 70
1
 10
1806.3000000000002
 20
960.5
 42
2.414213562373095
 10
1809.5
 20
963.7
 10
1809.5
 20
976.3
 42
2.414213562373095
 10
1806.3000000000002
 20
979.5
 10
1771.7
 20
979.5
 42
2.414213562373095
 10
1768.5
 20
976.3
 10
1768.5
 20
963.7
 42
2.414213562373095
 10
1771.7
 20
960.5
  0
LWPOLYLINE
  5
AF
330
17
100
AcDbEntity
  8
CUT
100
AcDbPolyline
 90
32
 70
1
 10
2214.0
 20
551.0
 10
2213.4236
 20
556.8527
 10
2211.7164000000002
 20
562.4805
 10
2208.9441
 20
567.6671
 10
2205.2132
 20
572.2131999999999
 10
2200.6671
 20
575.9440999999999
 10
2195.4805
 20
578.7164
 10
2189.8527
 20
580.4236000000001
 10
1999.0
 20
581.0
 10
1993.1473
 20
580.4236000000001
 10
1987.5194999999999
 20
578.7164
 10
1982.3328999999999
 20
575.9440999999999
 10
1977.7868
 20
572.2131999999999
 10
1974.0559
 20
567.6671
 10
1971.2836
 20
562.4805
 10
1969.5764
 20
556.8527
 10
1969.0
 20
461.0
 10
1969.5764
 20
455.14730000000003
 10
1971.2836
 20
449.5195
 10
1974.0559
 20
444.3329
 10
1977.7868
 20
439.7868
 10
1982.3328999999999
 20
436.05590000000007
 10
1987.5194999999999
 20
433.28360000000004
 10
1993.1473
 20
431.57640000000004
 10
2184.0
 20
431.0
 10
2189.8527
 20
431.57640000000004
 10
2195.4805
 20
433.2836
 10
2200.6671
 20
436.0559
 10
2205.2132
 20
439.78679999999997
 10
2208.9441
 20
444.3329
 10
2211.7164000000002
 20
449.5195
 10
2213.4236
 20
455.1473
  0
LWPOLYLINE
  5
B0
330
17
100
AcDbEntity
  8
CUT
100
AcDbPolyline
 90
32
 70
1
 10
2214.0
 20
761.0
 10
2213.4236
 20
766.8527
 10
2211.7164000000002
 20
772.4805
 10
2208.9441
 20
777.6671
 10
2205.2132
 20
782.2131999999999
 10
2200.6671
 20
785.9440999999999
 10
2195.4805
 20
788.7164
 10
2189.8527
 20
790.4236000000001
 10
1999.0
 20
791.0
 10
1993.1473
 20
790.4236000000001
 10
1987.5195
 20
788.7164
 10
1982.3329
 20
785.9440999999999
 10
1977.7868
 20
782.2131999999999
 10
1974.0559
 20
777.6671
 10
1971.2836
 20
772.4805
 10
1969.5764
 20
766.8527
 10
1969.0
 20
706.0
 10
1969.5764
 20
700.1473
 10
1971.2836
 20
694.5195
 10
1974.0559
 20
689.3329
 10
1977.7868
 20
684.7868000000001
 10
1982.3328999999999
 20
681.0559000000001
 10
1987.5194999999999
 20
678.2836
 10
1993.1473
 20
676.5763999999999
 10
2184.0
 20
676.0
 10
2189.8527
 20
676.5763999999999
 10
2195.4805
 20
678.2836
 10
2200.6671
 20
681.0559000000001
 10
2205.2132
 20
684.7868000000001
 10
2208.9441
 20
689.3329
 10
2211.7164000000002
 20
694.5195
 10
2213.4236
 20
700.1473
  0
LWPOLYLINE
  5
B1
330
17
100
AcDbEntity
  8
CUT
100
AcDbPolyline
 90
32
 70
1
 10
1909.0
 20
1081.0
 10
1908.4236
 20
1086.8527
 10
1906.7164
 20
1092.4805000000001
 10
1903.9441000000002
 20
1097.6671000000001
 10
1900.2132000000001
 20
1102.2132000000001
 10
1895.6671000000001
 20
1105.9441000000002
 10
1890.4805000000001
 20
1108.7164
 10
1884.8527000000001
 20
1110.4236
 10
1679.0
 20
1111.0
 10
1673.1473
 20
1110.4236
 10
1667.5194999999999
 20
1108.7164
 10
1662.3328999999999
 20
1105.9441000000002
 10
1657.7867999999999
 20
1102.2132000000001
 10
1654.0558999999998
 20
1097.6671000000001
 10
1651.2836
 20
1092.4805000000001
 10
1649.5764
 20
1086.8527
 10
1649.0
 20
1051.0
 10
1649.5764
 20
1045.1473
 10
1651.2836
 20
1039.5194999999999
 10
1654.0558999999998
 20
1034.3328999999999
 10
1657.7867999999999
 20
1029.7867999999999
 10
1662.3328999999999
 20
1026.0558999999998
 10
1667.5194999999999
 20
1023.2836
 10
1673.1473
 20
1021.5764
 10
1879.0
 20
1021.0
 10
1884.8527000000001
 20
1021.5764
 10
1890.4805000000001
 20
1023.2836
 10
1895.6671000000001
 20
1026.0558999999998
 10
1900.2132000000001
 20
1029.7867999999999
 10
1903.9441000000002
 20
1034.3328999999999
 10
1906.7164
 20
1039.5194999999999
 10
1908.4236
 20
1045.1473
  0
TEXT
  5
B2
330
17
100
AcDbEntity
  8
ENGRAVE-LABEL
100
AcDbText
 10
2079.181640625
 20
1040.099609375
 30
0.0
 40
22.0
  1
07 ARM-INNER-L
 72
1
 11
2079.181640625
 21
1040.099609375
 31
0.0
100
AcDbText
 73
2
  0
LWPOLYLINE
  5
B3
330
17
100
AcDbEntity
  8
CUT
100
AcDbPolyline
 90
67
 70
1
 10
407.0
 20
933.0
 10
447.0
 20
933.0
 10
447.0
 20
948.3
 42
-2.414213562373095
 10
450.2
 20
951.5
 10
527.0
 20
951.5
 10
527.0
 20
1134.5
 10
450.2
 20
1134.5
 42
-2.414213562373095
 10
447.0
 20
1137.7
 10
447.0
 20
1153.0
 10
407.0
 20
1153.0
 10
407.0
 20
1137.7
 42
-2.414213562373095
 10
403.8
 20
1134.5
 10
250.2
 20
1134.5
 42
-2.414213562373095
 10
247.0
 20
1137.7
 10
247.0
 20
1153.0
 10
207.0
 20
1153.0
 10
207.0
 20
1137.7
 42
-2.414213562373095
 10
203.8
 20
1134.5
 10
130.2
 20
1134.5
 42
-2.414213562373095
 10
127.0
 20
1137.7
 10
127.0
 20
1153.0
 10
117.41289999999998
 20
1152.5814
 10
107.89870000000002
 20
1151.3289
 10
98.5299
 20
1149.2518
 10
89.37779999999998
 20
1146.3662
 10
80.512
 20
1142.6939
 10
72.0
 20
1138.2628
 10
63.906600000000026
 20
1133.1067
 10
56.29340000000002
 20
1127.2649000000001
 10
49.2183
 20
1120.7817
 10
42.73509999999999
 20
1113.7066
 10
36.893299999999954
 20
1106.0934
 10
31.73720000000003
 20
1098.0
 10
27.306100000000015
 20
1089.488
 10
23.63379999999995
 20
1080.6222
 10
20.748199999999997
 20
1071.4701
 10
18.671100000000024
 20
1062.1013
 10
17.41859999999997
 20
1052.5871
 10
17.0
 20
1043.0
 10
17.41859999999997
 20
1033.4129
 10
18.671100000000024
 20
1023.8987
 10
20.748199999999997
 20
1014.5299
 10
23.63379999999995
 20
1005.3778
 10
27.306100000000015
 20
996.5120000000001
 10
31.73720000000003
 20
988.0
 10
36.893299999999954
 20
979.9066
 10
42.73509999999999
 20
972.2934
 10
49.2183
 20
965.2183
 10
56.29340000000002
 20
958.7351
 10
63.906600000000026
 20
952.8933000000001
 10
72.0
 20
947.7372
 10
80.512
 20
943.3061
 10
89.37779999999998
 20
939.6338000000001
 10
98.5299
 20
936.7482
 10
107.89870000000002
 20
934.6711
 10
117.41289999999998
 20
933.4186
 10
127.0
 20
933.0
 10
127.0
 20
948.3000000000001
 42
-2.414213562373095
 10
130.2
 20
951.5
 10
203.8
 20
951.5
 42
-2.414213562373095
 10
207.0
 20
948.3000000000001
 10
207.0
 20
933.0
 10
247.0
 20
933.0
 10
247.0
 20
948.3000000000001
 42
-2.414213562373095
 10
250.2
 20
951.5
 10
403.8
 20
951.5
 42
-2.414213562373095
 10
407.0
 20
948.3
  0
TEXT
  5
B4
330
17
100
AcDbEntity
  8
ENGRAVE-LABEL
100
AcDbText
 10
272.00190553570854
 20
1043.0
 30
0.0
 40
22.0
  1
09 ARM-SPACER 1/6
 72
1
 11
272.00190553570854
 21
1043.0
 31
0.0
100
AcDbText
 73
2
  0
LWPOLYLINE
  5
B5
330
17
100
AcDbEntity
  8
CUT
100
AcDbPolyline
 90
67
 70
1
 10
931.0
 20
933.0
 10
971.0
 20
933.0
 10
971.0
 20
948.3
 42
-2.414213562373095
 10
974.2
 20
951.5
 10
1051.0
 20
951.5
 10
1051.0
 20
1134.5
 10
974.2
 20
1134.5
 42
-2.414213562373095
 10
971.0
 20
1137.7
 10
971.0
 20
1153.0
 10
931.0
 20
1153.0
 10
931.0
 20
1137.7
 42
-2.414213562373095
 10
927.8
 20
1134.5
 10
774.2
 20
1134.5
 42
-2.414213562373095
 10
771.0
 20
1137.7
 10
771.0
 20
1153.0
 10
731.0
 20
1153.0
 10
731.0
 20
1137.7
 42
-2.414213562373095
 10
727.8
 20
1134.5
 10
654.2
 20
1134.5
 42
-2.414213562373095
 10
651.0
 20
1137.7
 10
651.0
 20
1153.0
 10
641.4129
 20
1152.5814
 10
631.8987
 20
1151.3289
 10
622.5299
 20
1149.2518
 10
613.3778
 20
1146.3662
 10
604.512
 20
1142.6939
 10
596.0
 20
1138.2628
 10
587.9066
 20
1133.1067
 10
580.2934
 20
1127.2649000000001
 10
573.2183
 20
1120.7817
 10
566.7351
 20
1113.7066
 10
560.8933
 20
1106.0934
 10
555.7372
 20
1098.0
 10
551.3061
 20
1089.488
 10
547.6338
 20
1080.6222
 10
544.7482
 20
1071.4701
 10
542.6711
 20
1062.1013
 10
541.4186
 20
1052.5871
 10
541.0
 20
1043.0
 10
541.4186
 20
1033.4129
 10
542.6711
 20
1023.8987
 10
544.7482
 20
1014.5299
 10
547.6338
 20
1005.3778
 10
551.3061
 20
996.5120000000001
 10
555.7372
 20
988.0
 10
560.8933
 20
979.9066
 10
566.7351
 20
972.2934
 10
573.2183
 20
965.2183
 10
580.2934
 20
958.7351
 10
587.9066
 20
952.8933000000001
 10
596.0
 20
947.7372
 10
604.512
 20
943.3061
 10
613.3778
 20
939.6338000000001
 10
622.5299
 20
936.7482
 10
631.8987
 20
934.6711
 10
641.4129
 20
933.4186
 10
651.0
 20
933.0
 10
651.0
 20
948.3000000000001
 42
-2.414213562373095
 10
654.2
 20
951.5
 10
727.8
 20
951.5
 42
-2.414213562373095
 10
731.0
 20
948.3000000000001
 10
731.0
 20
933.0
 10
771.0
 20
933.0
 10
771.0
 20
948.3000000000001
 42
-2.414213562373095
 10
774.2
 20
951.5
 10
927.8
 20
951.5
 42
-2.414213562373095
 10
931.0
 20
948.3
  0
TEXT
  5
B6
330
17
100
AcDbEntity
  8
ENGRAVE-LABEL
100
AcDbText
 10
796.0019055357086
 20
1043.0
 30
0.0
 40
22.0
  1
09 ARM-SPACER 2/6
 72
1
 11
796.0019055357086
 21
1043.0
 31
0.0
100
AcDbText
 73
2
  0
LWPOLYLINE
  5
B7
330
17
100
AcDbEntity
  8
CUT
100
AcDbPolyline
 90
67
 70
1
 10
2199.0
 20
17.000000000000004
 10
2239.0
 20
17.0
 10
2239.0
 20
32.3
 42
-2.414213562373095
 10
2242.2
 20
35.5
 10
2319.0
 20
35.5
 10
2319.0
 20
218.5
 10
2242.2
 20
218.5
 42
-2.414213562373095
 10
2239.0
 20
221.7
 10
2239.0
 20
237.0
 10
2199.0
 20
237.0
 10
2199.0
 20
221.7
 42
-2.414213562373095
 10
2195.8
 20
218.5
 10
2042.2
 20
218.50000000000003
 42
-2.414213562373095
 10
2039.0
 20
221.70000000000002
 10
2039.0
 20
237.00000000000003
 10
1999.0
 20
237.00000000000003
 10
1999.0
 20
221.70000000000002
 42
-2.414213562373095
 10
1995.8
 20
218.50000000000003
 10
1922.2
 20
218.50000000000003
 42
-2.414213562373095
 10
1919.0
 20
221.70000000000002
 10
1919.0
 20
237.00000000000003
 10
1909.4129
 20
236.58140000000003
 10
1899.8987
 20
235.32890000000003
 10
1890.5299
 20
233.25180000000003
 10
1881.3778
 20
230.36620000000002
 10
1872.512
 20
226.69390000000004
 10
1864.0
 20
222.26280000000003
 10
1855.9066
 20
217.10670000000002
 10
1848.2934
 20
211.26490000000004
 10
1841.2183
 20
204.78170000000003
 10
1834.7350999999999
 20
197.70660000000004
 10
1828.8933
 20
190.09340000000003
 10
1823.7372
 20
182.00000000000003
 10
1819.3061
 20
173.48800000000003
 10
1815.6338
 20
164.62220000000002
 10
1812.7482
 20
155.47010000000003
 10
1810.6711
 20
146.10130000000004
 10
1809.4186
 20
136.58710000000002
 10
1809.0
 20
127.00000000000001
 10
1809.4186
 20
117.41290000000001
 10
1810.6711
 20
107.89870000000002
 10
1812.7482
 20
98.52990000000001
 10
1815.6338
 20
89.37780000000001
 10
1819.3061
 20
80.51200000000003
 10
1823.7372
 20
72.00000000000003
 10
1828.8933
 20
63.906600000000026
 10
1834.7350999999999
 20
56.29340000000003
 10
1841.2183
 20
49.21830000000003
 10
1848.2934
 20
42.735100000000024
 10
1855.9066
 20
36.893300000000025
 10
1864.0
 20
31.737200000000023
 10
1872.512
 20
27.306100000000022
 10
1881.3778
 20
23.633800000000022
 10
1890.5299
 20
20.748200000000022
 10
1899.8987
 20
18.67110000000002
 10
1909.4129
 20
17.41860000000002
 10
1919.0
 20
17.00000000000002
 10
1919.0
 20
32.30000000000002
 42
-2.414213562373095
 10
1922.2
 20
35.50000000000002
 10
1995.8
 20
35.500000000000014
 42
-2.414213562373095
 10
1999.0
 20
32.30000000000001
 10
1999.0
 20
17.000000000000014
 10
2039.0
 20
17.00000000000001
 10
2039.0
 20
32.30000000000001
 42
-2.414213562373095
 10
2042.2
 20
35.500000000000014
 10
2195.8
 20
35.5
 42
-2.414213562373095
 10
2199.0
 20
32.300000000000004
  0
TEXT
  5
B8
330
17
100
AcDbEntity
  8
ENGRAVE-LABEL
100
AcDbText
 10
2064.0019055357084
 20
127.00000000000001
 30
0.0
 40
22.0
  1
09 ARM-SPACER 3/6
 72
1
 11
2064.0019055357084
 21
127.00000000000001
 31
0.0
100
AcDbText
 73
2
  0
LWPOLYLINE
  5
B9
330
17
100
AcDbEntity
  8
REFERENCE-SHEET
100
AcDbPolyline
 90
4
 70
1
 10
0.0
 20
-1470.0
 10
2440.0
 20
-1470.0
 10
2440.0
 20
-250.0
 10
0.0
 20
-250.0
  0
TEXT
  5
BA
330
17
100
AcDbEntity
  8
REFERENCE-SHEET
100
AcDbText
 10
0.0
 20
-195.0
 30
0.0
 40
40.0
  1
SHEET 2/4  -  2440 x 1220 x 18 mm MDF
 11
0.0
 21
-195.0
 31
0.0
100
AcDbText
  0
LWPOLYLINE
  5
BB
330
17
100
AcDbEntity
  8
CUT
100
AcDbPolyline
 90
61
 70
1
 10
17.0
 20
-1453.0
 10
137.0
 20
-1453.0
 10
137.0
 20
-1416.2
 42
-2.414213562373095
 10
140.2
 20
-1413.0
 10
753.8
 20
-1413.0
 42
-2.414213562373095
 10
757.0
 20
-1416.2
 10
757.0
 20
-1453.0
 10
877.0
 20
-1453.0
 10
877.0
 20
-813.0
 10
876.8287
 20
-807.7677
 10
876.3156
 20
-802.5579
 10
875.4628
 20
-797.3928
 10
874.2741
 20
-792.2945
 10
872.7544
 20
-787.2848
 10
870.9104
 20
-782.3853
 10
868.7498
 20
-777.6169
 10
866.282
 20
-773.0
 10
863.5176
 20
-768.5544
 10
860.4683
 20
-764.2991
 10
857.1472
 20
-760.2523
 10
853.5685
 20
-756.4315
 10
849.7477
 20
-752.8528
 10
845.7009
 20
-749.5317
 10
841.4456
 20
-746.4824
 10
837.0
 20
-743.718
 10
832.3831
 20
-741.2502
 10
827.6147
 20
-739.0896
 10
822.7152
 20
-737.2456
 10
817.7055
 20
-735.7259
 10
812.6072
 20
-734.5372
 10
807.4421
 20
-733.6844
 10
802.2323
 20
-733.1713
 10
797.0
 20
-733.0
 10
647.0
 20
-733.0
 10
647.0
 20
-989.8
 42
-2.414213562373095
 10
643.8
 20
-993.0
 10
117.0
 20
-993.0
 10
110.4597
 20
-993.2140999999999
 10
103.9474
 20
-993.8555
 10
97.491
 20
-994.9214999999999
 10
91.1181
 20
-996.4074
 10
84.8561
 20
-998.307
 10
78.73169999999999
 20
-1000.6120000000001
 10
72.77109999999999
 20
-1003.3127
 10
67.0
 20
-1006.3975
 10
61.443
 20
-1009.8530000000001
 10
56.1239
 20
-1013.6647
 10
51.0654
 20
-1017.816
 10
46.2893
 20
-1022.2893
 10
41.816
 20
-1027.0654
 10
37.664699999999996
 20
-1032.1239
 10
33.853
 20
-1037.443
 10
30.3975
 20
-1043.0
 10
27.3127
 20
-1048.7711
 10
24.612000000000002
 20
-1054.7317
 10
22.307000000000002
 20
-1060.8561
 10
20.4074
 20
-1067.1181000000001
 10
18.9215
 20
-1073.491
 10
17.8555
 20
-1079.9474
 10
17.2141
 20
-1086.4596999999999
 10
17.0
 20
-1093.0
  0
LWPOLYLINE
  5
BC
330
17
100
AcDbEntity
  8
CUT
100
AcDbPolyline
 90
8
 70
1
 10
106.5
 20
-1310.3
 42
2.414213562373095
 10
109.7
 20
-1313.5
 10
122.3
 20
-1313.5
 42
2.414213562373095
 10
125.5
 20
-1310.3
 10
125.5
 20
-1275.7
 42
2.414213562373095
 10
122.3
 20
-1272.5
 10
109.7
 20
-1272.5
 42
2.414213562373095
 10
106.5
 20
-1275.7
  0
LWPOLYLINE
  5
BD
330
17
100
AcDbEntity
  8
CUT
100
AcDbPolyline
 90
8
 70
1
 10
106.5
 20
-1110.3
 42
2.414213562373095
 10
109.7
 20
-1113.5
 10
122.3
 20
-1113.5
 42
2.414213562373095
 10
125.5
 20
-1110.3
 10
125.5
 20
-1075.7
 42
2.414213562373095
 10
122.3
 20
-1072.5
 10
109.7
 20
-1072.5
 42
2.414213562373095
 10
106.5
 20
-1075.7
  0
LWPOLYLINE
  5
BE
330
17
100
AcDbEntity
  8
CUT
100
AcDbPolyline
 90
8
 70
1
 10
316.5
 20
-1310.3
 42
2.414213562373095
 10
319.7
 20
-1313.5
 10
332.3
 20
-1313.5
 42
2.414213562373095
 10
335.5
 20
-1310.3
 10
335.5
 20
-1275.7
 42
2.414213562373095
 10
332.3
 20
-1272.5
 10
319.7
 20
-1272.5
 42
2.414213562373095
 10
316.5
 20
-1275.7
  0
LWPOLYLINE
  5
BF
330
17
100
AcDbEntity
  8
CUT
100
AcDbPolyline
 90
8
 70
1
 10
316.5
 20
-1110.3
 42
2.414213562373095
 10
319.7
 20
-1113.5
 10
332.3
 20
-1113.5
 42
2.414213562373095
 10
335.5
 20
-1110.3
 10
335.5
 20
-1075.7
 42
2.414213562373095
 10
332.3
 20
-1072.5
 10
319.7
 20
-1072.5
 42
2.414213562373095
 10
316.5
 20
-1075.7
  0
LWPOLYLINE
  5
C0
330
17
100
AcDbEntity
  8
CUT
100
AcDbPolyline
 90
8
 70
1
 10
526.5
 20
-1310.3
 42
2.414213562373095
 10
529.7
 20
-1313.5
 10
542.3
 20
-1313.5
 42
2.414213562373095
 10
545.5
 20
-1310.3
 10
545.5
 20
-1275.7
 42
2.414213562373095
 10
542.3
 20
-1272.5
 10
529.7
 20
-1272.5
 42
2.414213562373095
 10
526.5
 20
-1275.7
  0
LWPOLYLINE
  5
C1
330
17
100
AcDbEntity
  8
CUT
100
AcDbPolyline
 90
8
 70
1
 10
526.5
 20
-1110.3
 42
2.414213562373095
 10
529.7
 20
-1113.5
 10
542.3
 20
-1113.5
 42
2.414213562373095
 10
545.5
 20
-1110.3
 10
545.5
 20
-1075.7
 42
2.414213562373095
 10
542.3
 20
-1072.5
 10
529.7
 20
-1072.5
 42
2.414213562373095
 10
526.5
 20
-1075.7
  0
LWPOLYLINE
  5
C2
330
17
100
AcDbEntity
  8
CUT
100
AcDbPolyline
 90
32
 70
1
 10
267.0
 20
-1378.0
 10
272.8527
 20
-1377.4236
 10
278.4805
 20
-1375.7164
 10
283.6671
 20
-1372.9441
 10
288.2132
 20
-1369.2132
 10
291.9441
 20
-1364.6671000000001
 10
294.7164
 20
-1359.4805000000001
 10
296.4236
 20
-1353.8527
 10
297.0
 20
-1163.0
 10
296.4236
 20
-1157.1473
 10
294.7164
 20
-1151.5194999999999
 10
291.9441
 20
-1146.3328999999999
 10
288.2132
 20
-1141.7868
 10
283.6671
 20
-1138.0559
 10
278.4805
 20
-1135.2836
 10
272.8527
 20
-1133.5764
 10
177.0
 20
-1133.0
 10
171.1473
 20
-1133.5764
 10
165.5195
 20
-1135.2836
 10
160.3329
 20
-1138.0559
 10
155.7868
 20
-1141.7868
 10
152.0559
 20
-1146.3328999999999
 10
149.2836
 20
-1151.5194999999999
 10
147.5764
 20
-1157.1473
 10
147.0
 20
-1348.0
 10
147.5764
 20
-1353.8527
 10
149.2836
 20
-1359.4805000000001
 10
152.0559
 20
-1364.6671000000001
 10
155.7868
 20
-1369.2132
 10
160.3329
 20
-1372.9441
 10
165.5195
 20
-1375.7164
 10
171.1473
 20
-1377.4236
  0
LWPOLYLINE
  5
C3
330
17
100
AcDbEntity
  8
CUT
100
AcDbPolyline
 90
32
 70
1
 10
477.0
 20
-1378.0
 10
482.8527
 20
-1377.4236
 10
488.4805
 20
-1375.7164
 10
493.6671
 20
-1372.9441
 10
498.2132
 20
-1369.2132
 10
501.9441
 20
-1364.6671000000001
 10
504.7164
 20
-1359.4805000000001
 10
506.4236
 20
-1353.8527
 10
507.0
 20
-1163.0
 10
506.4236
 20
-1157.1473
 10
504.7164
 20
-1151.5194999999999
 10
501.9441
 20
-1146.3328999999999
 10
498.2132
 20
-1141.7868
 10
493.6671
 20
-1138.0559
 10
488.4805
 20
-1135.2836
 10
482.8527
 20
-1133.5764
 10
422.0
 20
-1133.0
 10
416.1473
 20
-1133.5764
 10
410.5195
 20
-1135.2836
 10
405.3329
 20
-1138.0559
 10
400.7868
 20
-1141.7868
 10
397.0559
 20
-1146.3328999999999
 10
394.2836
 20
-1151.5194999999999
 10
392.5764
 20
-1157.1473
 10
392.0
 20
-1348.0
 10
392.5764
 20
-1353.8527
 10
394.2836
 20
-1359.4805000000001
 10
397.0559
 20
-1364.6671000000001
 10
400.7868
 20
-1369.2132
 10
405.3329
 20
-1372.9441
 10
410.5195
 20
-1375.7164
 10
416.1473
 20
-1377.4236
  0
LWPOLYLINE
  5
C4
330
17
100
AcDbEntity
  8
CUT
100
AcDbPolyline
 90
32
 70
1
 10
797.0
 20
-1073.0
 10
802.8527
 20
-1072.4236
 10
808.4805
 20
-1070.7164
 10
813.6671
 20
-1067.9441
 10
818.2132
 20
-1064.2132
 10
821.9441
 20
-1059.6671000000001
 10
824.7164
 20
-1054.4805000000001
 10
826.4236
 20
-1048.8527
 10
827.0
 20
-843.0
 10
826.4236
 20
-837.1473
 10
824.7164
 20
-831.5195
 10
821.9441
 20
-826.3329
 10
818.2132
 20
-821.7868
 10
813.6671
 20
-818.0559
 10
808.4805
 20
-815.2836
 10
802.8527
 20
-813.5764
 10
767.0
 20
-813.0
 10
761.1473
 20
-813.5764
 10
755.5195
 20
-815.2836
 10
750.3329
 20
-818.0559
 10
745.7868
 20
-821.7868
 10
742.0559
 20
-826.3329
 10
739.2836
 20
-831.5195
 10
737.5764
 20
-837.1473
 10
737.0
 20
-1043.0
 10
737.5764
 20
-1048.8527
 10
739.2836
 20
-1054.4805000000001
 10
742.0559
 20
-1059.6671000000001
 10
745.7868
 20
-1064.2132
 10
750.3329
 20
-1067.9441
 10
755.5195
 20
-1070.7164
 10
761.1473
 20
-1072.4236
  0
TEXT
  5
C5
330
17
100
AcDbEntity
  8
ENGRAVE-LABEL
100
AcDbText
 10
710.337890625
 20
-1231.533203125
 30
0.0
 40
22.0
  1
10 ARM-OUTER 1/2
 72
1
 11
710.337890625
 21
-1231.533203125
 31
0.0
100
AcDbText
 73
2
  0
LWPOLYLINE
  5
C6
330
17
100
AcDbEntity
  8
CUT
100
AcDbPolyline
 90
61
 70
1
 10
1353.0
 20
-1349.0
 10
1353.0
 20
-1229.0
 10
1316.2
 20
-1229.0
 42
-2.414213562373095
 10
1313.0
 20
-1225.8
 10
1313.0
 20
-612.2
 42
-2.414213562373095
 10
1316.2
 20
-609.0
 10
1353.0
 20
-609.0
 10
1353.0
 20
-489.0
 10
713.0
 20
-489.0
 10
707.7677
 20
-489.1713
 10
702.5579
 20
-489.6844
 10
697.3928
 20
-490.5372
 10
692.2945
 20
-491.7259
 10
687.2848
 20
-493.24559999999997
 10
682.3853
 20
-495.0896
 10
677.6169
 20
-497.25019999999995
 10
673.0
 20
-499.71799999999996
 10
668.5544
 20
-502.4824
 10
664.2991
 20
-505.5317
 10
660.2523
 20
-508.8528
 10
656.4315
 20
-512.4315
 10
652.8528
 20
-516.2523
 10
649.5317
 20
-520.2991
 10
646.4824
 20
-524.5544
 10
643.718
 20
-529.0
 10
641.2502
 20
-533.6169
 10
639.0896
 20
-538.3853
 10
637.2456
 20
-543.2848
 10
635.7259
 20
-548.2945
 10
634.5372
 20
-553.3928
 10
633.6844
 20
-558.5579
 10
633.1713
 20
-563.7677
 10
633.0
 20
-569.0
 10
633.0
 20
-719.0
 10
889.8000000000001
 20
-719.0
 42
-2.414213562373095
 10
893.0
 20
-722.2
 10
893.0
 20
-1249.0
 10
893.2140999999999
 20
-1255.5403
 10
893.8555
 20
-1262.0526
 10
894.9214999999999
 20
-1268.509
 10
896.4074
 20
-1274.8818999999999
 10
898.307
 20
-1281.1439
 10
900.6120000000001
 20
-1287.2683
 10
903.3127
 20
-1293.2289
 10
906.3975
 20
-1299.0
 10
909.8530000000001
 20
-1304.557
 10
913.6647
 20
-1309.8761
 10
917.816
 20
-1314.9346
 10
922.2893
 20
-1319.7107
 10
927.0654
 20
-1324.184
 10
932.1239
 20
-1328.3353
 10
937.443
 20
-1332.147
 10
943.0
 20
-1335.6025
 10
948.7710999999999
 20
-1338.6873
 10
954.7317
 20
-1341.388
 10
960.8561
 20
-1343.693
 10
967.1181
 20
-1345.5926
 10
973.491
 20
-1347.0785
 10
979.9474
 20
-1348.1444999999999
 10
986.4597
 20
-1348.7859
 10
993.0
 20
-1349.0
  0
LWPOLYLINE
  5
C7
330
17
100
AcDbEntity
  8
CUT
100
AcDbPolyline
 90
8
 70
1
 10
1210.3
 20
-1259.5
 42
2.414213562373095
 10
1213.5
 20
-1256.3
 10
1213.5
 20
-1243.7
 42
2.414213562373095
 10
1210.3
 20
-1240.5
 10
1175.7
 20
-1240.5
 42
2.414213562373095
 10
1172.5
 20
-1243.7
 10
1172.5
 20
-1256.3
 42
2.414213562373095
 10
1175.7
 20
-1259.5
  0
LWPOLYLINE
  5
C8
330
17
100
AcDbEntity
  8
CUT
100
AcDbPolyline
 90
8
 70
1
 10
1010.3
 20
-1259.5
 42
2.414213562373095
 10
1013.5
 20
-1256.3
 10
1013.5
 20
-1243.7
 42
2.414213562373095
 10
1010.3
 20
-1240.5
 10
975.7
 20
-1240.5
 42
2.414213562373095
 10
972.5
 20
-1243.7
 10
972.5
 20
-1256.3
 42
2.414213562373095
 10
975.7
 20
-1259.5
  0
LWPOLYLINE
  5
C9
330
17
100
AcDbEntity
  8
CUT
100
AcDbPolyline
 90
8
 70
1
 10
1210.3000000000002
 20
-1049.5
 42
2.414213562373095
 10
1213.5
 20
-1046.3
 10
1213.5
 20
-1033.7
 42
2.414213562373095
 10
1210.3000000000002
 20
-1030.5
 10
1175.7
 20
-1030.5
 42
2.414213562373095
 10
1172.5
 20
-1033.7
 10
1172.5
 20
-1046.3
 42
2.414213562373095
 10
1175.7
 20
-1049.5
  0
LWPOLYLINE
  5
CA
330
17
100
AcDbEntity
  8
CUT
100
AcDbPolyline
 90
8
 70
1
 10
1010.3
 20
-1049.5
 42
2.414213562373095
 10
1013.5
 20
-1046.3
 10
1013.5
 20
-1033.7
 42
2.414213562373095
 10
1010.3
 20
-1030.5
 10
975.7
 20
-1030.5
 42
2.414213562373095
 10
972.5
 20
-1033.7
 10
972.5
 20
-1046.3
 42
2.414213562373095
 10
975.7
 20
-1049.5
  0
LWPOLYLINE
  5
CB
330
17
100
AcDbEntity
  8
CUT
100
AcDbPolyline
 90
8
 70
1
 10
1210.3000000000002
 20
-839.5
 42
2.414213562373095
 10
1213.5
 20
-836.3
 10
1213.5
 20
-823.7
 42
2.414213562373095
 10
1210.3000000000002
 20
-820.5
 10
1175.7
 20
-820.5
 42
2.414213562373095
 10
1172.5
 20
-823.7
 10
1172.5
 20
-836.3
 42
2.414213562373095
 10
1175.7
 20
-839.5
  0
LWPOLYLINE
  5
CC
330
17
100
AcDbEntity
  8
CUT
100
AcDbPolyline
 90
8
 70
1
 10
1010.3000000000001
 20
-839.5
 42
2.414213562373095
 10
1013.5
 20
-836.3
 10
1013.5
 20
-823.7
 42
2.414213562373095
 10
1010.3000000000001
 20
-820.5
 10
975.7
 20
-820.5
 42
2.414213562373095
 10
972.5
 20
-823.7
 10
972.5
 20
-836.3
 42
2.414213562373095
 10
975.7
 20
-839.5
  0
LWPOLYLINE
  5
CD
330
17
100
AcDbEntity
  8
CUT
100
AcDbPolyline
 90
32
 70
1
 10
1278.0
 20
-1099.0
 10
1277.4236
 20
-1093.1473
 10
1275.7164
 20
-1087.5194999999999
 10
1272.9441000000002
 20
-1082.3328999999999
 10
1269.2132000000001
 20
-1077.7868
 10
1264.6671000000001
 20
-1074.0559
 10
1259.4805000000001
 20
-1071.2836
 10
1253.8527
 20
-1069.5764
 10
1063.0
 20
-1069.0
 10
1057.1473
 20
-1069.5764
 10
1051.5194999999999
 20
-1071.2836
 10
1046.3328999999999
 20
-1074.0559
 10
1041.7868
 20
-1077.7868
 10
1038.0559
 20
-1082.3328999999999
 10
1035.2836
 20
-1087.5194999999999
 10
1033.5764
 20
-1093.1473
 10
1033.0
 20
-1189.0
 10
1033.5764
 20
-1194.8527
 10
1035.2836
 20
-1200.4805000000001
 10
1038.0559
 20
-1205.6671000000001
 10
1041.7868
 20
-1210.2132
 10
1046.3328999999999
 20
-1213.9441
 10
1051.5194999999999
 20
-1216.7164
 10
1057.1473
 20
-1218.4236
 10
1248.0
 20
-1219.0
 10
1253.8527
 20
-1218.4236
 10
1259.4805000000001
 20
-1216.7164
 10
1264.6671000000001
 20
-1213.9441
 10
1269.2132000000001
 20
-1210.2132000000001
 10
1272.9441000000002
 20
-1205.6671000000001
 10
1275.7164
 20
-1200.4805000000001
 10
1277.4236
 20
-1194.8527
  0
LWPOLYLINE
  5
CE
330
17
100
AcDbEntity
  8
CUT
100
AcDbPolyline
 90
32
 70
1
 10
1278.0
 20
-889.0
 10
1277.4236
 20
-883.1473
 10
1275.7164
 20
-877.5195
 10
1272.9441000000002
 20
-872.3329
 10
1269.2132000000001
 20
-867.7868000000001
 10
1264.6671000000001
 20
-864.0559000000001
 10
1259.4805000000001
 20
-861.2836
 10
1253.8527
 20
-859.5763999999999
 10
1063.0
 20
-859.0
 10
1057.1473
 20
-859.5763999999999
 10
1051.5195
 20
-861.2836
 10
1046.3329
 20
-864.0559000000001
 10
1041.7868
 20
-867.7868000000001
 10
1038.0559
 20
-872.3329
 10
1035.2836
 20
-877.5195
 10
1033.5764
 20
-883.1473
 10
1033.0
 20
-944.0
 10
1033.5764
 20
-949.8527
 10
1035.2836
 20
-955.4805
 10
1038.0559
 20
-960.6671
 10
1041.7868
 20
-965.2131999999999
 10
1046.3328999999999
 20
-968.9440999999999
 10
1051.5194999999999
 20
-971.7164
 10
1057.1473
 20
-973.4236000000001
 10
1248.0
 20
-974.0
 10
1253.8527
 20
-973.4236000000001
 10
1259.4805000000001
 20
-971.7164
 10
1264.6671000000001
 20
-968.9440999999999
 10
1269.2132000000001
 20
-965.2131999999999
 10
1272.9441000000002
 20
-960.6671
 10
1275.7164
 20
-955.4805
 10
1277.4236
 20
-949.8527
  0
LWPOLYLINE
  5
CF
330
17
100
AcDbEntity
  8
CUT
100
AcDbPolyline
 90
32
 70
1
 10
973.0
 20
-569.0
 10
972.4236000000001
 20
-563.1473
 10
970.7164
 20
-557.5195
 10
967.9441
 20
-552.3329
 10
964.2132
 20
-547.7868
 10
959.6671000000001
 20
-544.0559
 10
954.4805000000001
 20
-541.2836
 10
948.8527000000001
 20
-539.5764
 10
743.0
 20
-539.0
 10
737.1473
 20
-539.5764
 10
731.5195
 20
-541.2836
 10
726.3329
 20
-544.0559
 10
721.7868
 20
-547.7868
 10
718.0559
 20
-552.3329
 10
715.2836
 20
-557.5195
 10
713.5764
 20
-563.1473
 10
713.0
 20
-599.0
 10
713.5764
 20
-604.8527
 10
715.2836
 20
-610.4805
 10
718.0559
 20
-615.6671
 10
721.7868
 20
-620.2132
 10
726.3329
 20
-623.9441
 10
731.5195
 20
-626.7164
 10
737.1473
 20
-628.4236
 10
943.0
 20
-629.0
 10
948.8527000000001
 20
-628.4236
 10
954.4805000000001
 20
-626.7164
 10
959.6671000000001
 20
-623.9441
 10
964.2132
 20
-620.2132
 10
967.9441
 20
-615.6671
 10
970.7164
 20
-610.4805
 10
972.4236000000001
 20
-604.8527
  0
TEXT
  5
D0
330
17
100
AcDbEntity
  8
ENGRAVE-LABEL
100
AcDbText
 10
1131.533203125
 20
-655.662109375
 30
0.0
 40
22.0
  1
10 ARM-OUTER 2/2
 72
1
 11
1131.533203125
 21
-655.662109375
 31
0.0
100
AcDbText
 73
2
  0
LWPOLYLINE
  5
D1
330
17
100
AcDbEntity
  8
CUT
100
AcDbPolyline
 90
61
 70
1
 10
1329.0
 20
-1213.0
 10
1449.0
 20
-1213.0
 10
1449.0
 20
-1176.2
 42
-2.414213562373095
 10
1452.2
 20
-1173.0
 10
2065.8
 20
-1173.0
 42
-2.414213562373095
 10
2069.0
 20
-1176.2
 10
2069.0
 20
-1213.0
 10
2189.0
 20
-1213.0
 10
2189.0
 20
-573.0
 10
2188.8287
 20
-567.7677
 10
2188.3156
 20
-562.5579
 10
2187.4628000000002
 20
-557.3928
 10
2186.2741
 20
-552.2945
 10
2184.7544
 20
-547.2848
 10
2182.9103999999998
 20
-542.3853
 10
2180.7498
 20
-537.6169
 10
2178.282
 20
-533.0
 10
2175.5176
 20
-528.5544
 10
2172.4683
 20
-524.2991
 10
2169.1472
 20
-520.2523
 10
2165.5685
 20
-516.4315
 10
2161.7477
 20
-512.8528
 10
2157.7009
 20
-509.5317
 10
2153.4456
 20
-506.4824
 10
2149.0
 20
-503.71799999999996
 10
2144.3831
 20
-501.25019999999995
 10
2139.6147
 20
-499.0896
 10
2134.7152
 20
-497.24559999999997
 10
2129.7055
 20
-495.7259
 10
2124.6072
 20
-494.5372
 10
2119.4421
 20
-493.6844
 10
2114.2323
 20
-493.1713
 10
2109.0
 20
-493.0
 10
1959.0
 20
-493.0
 10
1959.0
 20
-749.8
 42
-2.414213562373095
 10
1955.8
 20
-753.0
 10
1429.0
 20
-753.0
 10
1422.4596999999999
 20
-753.2140999999999
 10
1415.9474
 20
-753.8555
 10
1409.491
 20
-754.9214999999999
 10
1403.1181
 20
-756.4074
 10
1396.8561
 20
-758.307
 10
1390.7317
 20
-760.6120000000001
 10
1384.7711
 20
-763.3127
 10
1379.0
 20
-766.3975
 10
1373.443
 20
-769.8530000000001
 10
1368.1239
 20
-773.6647
 10
1363.0654
 20
-777.816
 10
1358.2893
 20
-782.2893
 10
1353.816
 20
-787.0654
 10
1349.6647
 20
-792.1239
 10
1345.853
 20
-797.443
 10
1342.3975
 20
-803.0
 10
1339.3127
 20
-808.7710999999999
 10
1336.612
 20
-814.7317
 10
1334.307
 20
-820.8561
 10
1332.4074
 20
-827.1181
 10
1330.9215
 20
-833.491
 10
1329.8555
 20
-839.9474
 10
1329.2141
 20
-846.4597
 10
1329.0
 20
-853.0
  0
LWPOLYLINE
  5
D2
330
17
100
AcDbEntity
  8
CUT
100
AcDbPolyline
 90
8
 70
1
 10
1418.5
 20
-1070.3
 42
2.414213562373095
 10
1421.7
 20
-1073.5
 10
1434.3
 20
-1073.5
 42
2.414213562373095
 10
1437.5
 20
-1070.3
 10
1437.5
 20
-1035.7
 42
2.414213562373095
 10
1434.3
 20
-1032.5
 10
1421.7
 20
-1032.5
 42
2.414213562373095
 10
1418.5
 20
-1035.7
  0
LWPOLYLINE
  5
D3
330
17
100
AcDbEntity
  8
CUT
100
AcDbPolyline
 90
8
 70
1
 10
1418.5
 20
-870.3
 42
2.414213562373095
 10
1421.7
 20
-873.5
 10
1434.3
 20
-873.5
 42
2.414213562373095
 10
1437.5
 20
-870.3
 10
1437.5
 20
-835.7
 42
2.414213562373095
 10
1434.3
 20
-832.5
 10
1421.7
 20
-832.5
 42
2.414213562373095
 10
1418.5
 20
-835.7
  0
LWPOLYLINE
  5
D4
330
17
100
AcDbEntity
  8
CUT
100
AcDbPolyline
 90
8
 70
1
 10
1628.5
 20
-1070.3
 42
2.414213562373095
 10
1631.7
 20
-1073.5
 10
1644.3
 20
-1073.5
 42
2.414213562373095
 10
1647.5
 20
-1070.3
 10
1647.5
 20
-1035.7
 42
2.414213562373095
 10
1644.3
 20
-1032.5
 10
1631.7
 20
-1032.5
 42
2.414213562373095
 10
1628.5
 20
-1035.7
  0
LWPOLYLINE
  5
D5
330
17
100
AcDbEntity
  8
CUT
100
AcDbPolyline
 90
8
 70
1
 10
1628.5
 20
-870.3
 42
2.414213562373095
 10
1631.7
 20
-873.5
 10
1644.3
 20
-873.5
 42
2.414213562373095
 10
1647.5
 20
-870.3
 10
1647.5
 20
-835.7
 42
2.414213562373095
 10
1644.3
 20
-832.5
 10
1631.7
 20
-832.5
 42
2.414213562373095
 10
1628.5
 20
-835.7
  0
LWPOLYLINE
  5
D6
330
17
100
AcDbEntity
  8
CUT
100
AcDbPolyline
 90
8
 70
1
 10
1838.5
 20
-1070.3
 42
2.414213562373095
 10
1841.7
 20
-1073.5
 10
1854.3
 20
-1073.5
 42
2.414213562373095
 10
1857.5
 20
-1070.3
 10
1857.5
 20
-1035.7
 42
2.414213562373095
 10
1854.3
 20
-1032.5
 10
1841.7
 20
-1032.5
 42
2.414213562373095
 10
1838.5
 20
-1035.7
  0
LWPOLYLINE
  5
D7
330
17
100
AcDbEntity
  8
CUT
100
AcDbPolyline
 90
8
 70
1
 10
1838.5
 20
-870.3
 42
2.414213562373095
 10
1841.7
 20
-873.5
 10
1854.3
 20
-873.5
 42
2.414213562373095
 10
1857.5
 20
-870.3
 10
1857.5
 20
-835.7
 42
2.414213562373095
 10
1854.3
 20
-832.5
 10
1841.7
 20
-832.5
 42
2.414213562373095
 10
1838.5
 20
-835.7
  0
LWPOLYLINE
  5
D8
330
17
100
AcDbEntity
  8
CUT
100
AcDbPolyline
 90
8
 70
1
 10
1358.5
 20
-1110.3
 42
2.414213562373095
 10
1361.7
 20
-1113.5
 10
1374.3
 20
-1113.5
 42
2.414213562373095
 10
1377.5
 20
-1110.3
 10
1377.5
 20
-1075.7
 42
2.414213562373095
 10
1374.3
 20
-1072.5
 10
1361.7
 20
-1072.5
 42
2.414213562373095
 10
1358.5
 20
-1075.7
  0
LWPOLYLINE
  5
D9
330
17
100
AcDbEntity
  8
CUT
100
AcDbPolyline
 90
8
 70
1
 10
1358.5
 20
-980.3
 42
2.414213562373095
 10
1361.7
 20
-983.5
 10
1374.3
 20
-983.5
 42
2.414213562373095
 10
1377.5
 20
-980.3
 10
1377.5
 20
-945.7
 42
2.414213562373095
 10
1374.3
 20
-942.5
 10
1361.7
 20
-942.5
 42
2.414213562373095
 10
1358.5
 20
-945.7
  0
LWPOLYLINE
  5
DA
330
17
100
AcDbEntity
  8
CUT
100
AcDbPolyline
 90
8
 70
1
 10
1668.5
 20
-999.3
 42
2.414213562373095
 10
1671.7
 20
-1002.5
 10
1684.3
 20
-1002.5
 42
2.414213562373095
 10
1687.5
 20
-999.3
 10
1687.5
 20
-964.7
 42
2.414213562373095
 10
1684.3
 20
-961.5
 10
1671.7
 20
-961.5
 42
2.414213562373095
 10
1668.5
 20
-964.7
  0
LWPOLYLINE
  5
DB
330
17
100
AcDbEntity
  8
CUT
100
AcDbPolyline
 90
8
 70
1
 10
1928.5
 20
-1070.3
 42
2.414213562373095
 10
1931.7
 20
-1073.5
 10
1944.3
 20
-1073.5
 42
2.414213562373095
 10
1947.5
 20
-1070.3
 10
1947.5
 20
-1035.7
 42
2.414213562373095
 10
1944.3
 20
-1032.5
 10
1931.7
 20
-1032.5
 42
2.414213562373095
 10
1928.5
 20
-1035.7
  0
LWPOLYLINE
  5
DC
330
17
100
AcDbEntity
  8
CUT
100
AcDbPolyline
 90
8
 70
1
 10
1928.5
 20
-970.3
 42
2.414213562373095
 10
1931.7
 20
-973.5
 10
1944.3
 20
-973.5
 42
2.414213562373095
 10
1947.5
 20
-970.3
 10
1947.5
 20
-935.7
 42
2.414213562373095
 10
1944.3
 20
-932.5
 10
1931.7
 20
-932.5
 42
2.414213562373095
 10
1928.5
 20
-935.7
  0
LWPOLYLINE
  5
DD
330
17
100
AcDbEntity
  8
CUT
100
AcDbPolyline
 90
8
 70
1
 10
1988.5
 20
-800.3
 42
2.414213562373095
 10
1991.7
 20
-803.5
 10
2004.3
 20
-803.5
 42
2.414213562373095
 10
2007.5
 20
-800.3
 10
2007.5
 20
-765.7
 42
2.414213562373095
 10
2004.3
 20
-762.5
 10
1991.7
 20
-762.5
 42
2.414213562373095
 10
1988.5
 20
-765.7
  0
LWPOLYLINE
  5
DE
330
17
100
AcDbEntity
  8
CUT
100
AcDbPolyline
 90
8
 70
1
 10
1988.5
 20
-670.3
 42
2.414213562373095
 10
1991.7
 20
-673.5
 10
2004.3
 20
-673.5
 42
2.414213562373095
 10
2007.5
 20
-670.3
 10
2007.5
 20
-635.7
 42
2.414213562373095
 10
2004.3
 20
-632.5
 10
1991.7
 20
-632.5
 42
2.414213562373095
 10
1988.5
 20
-635.7
  0
LWPOLYLINE
  5
DF
330
17
100
AcDbEntity
  8
CUT
100
AcDbPolyline
 90
32
 70
1
 10
1579.0
 20
-1138.0
 10
1584.8527
 20
-1137.4236
 10
1590.4805000000001
 20
-1135.7164
 10
1595.6671000000001
 20
-1132.9441
 10
1600.2132
 20
-1129.2132000000001
 10
1603.9441
 20
-1124.6671000000001
 10
1606.7164
 20
-1119.4805000000001
 10
1608.4236
 20
-1113.8527
 10
1609.0
 20
-923.0
 10
1608.4236
 20
-917.1473
 10
1606.7164
 20
-911.5195
 10
1603.9441
 20
-906.3329
 10
1600.2132
 20
-901.7868000000001
 10
1595.6671000000001
 20
-898.0559000000001
 10
1590.4805000000001
 20
-895.2836
 10
1584.8527
 20
-893.5763999999999
 10
1489.0
 20
-893.0
 10
1483.1473
 20
-893.5763999999999
 10
1477.5194999999999
 20
-895.2836
 10
1472.3328999999999
 20
-898.0559000000001
 10
1467.7868
 20
-901.7868000000001
 10
1464.0559
 20
-906.3329
 10
1461.2836
 20
-911.5195
 10
1459.5764
 20
-917.1473
 10
1459.0
 20
-1108.0
 10
1459.5764
 20
-1113.8527
 10
1461.2836
 20
-1119.4805000000001
 10
1464.0559
 20
-1124.6671000000001
 10
1467.7868
 20
-1129.2132000000001
 10
1472.3328999999999
 20
-1132.9441
 10
1477.5194999999999
 20
-1135.7164
 10
1483.1473
 20
-1137.4236
  0
LWPOLYLINE
  5
E0
330
17
100
AcDbEntity
  8
CUT
100
AcDbPolyline
 90
32
 70
1
 10
1789.0
 20
-1138.0
 10
1794.8527
 20
-1137.4236
 10
1800.4805000000001
 20
-1135.7164
 10
1805.6671000000001
 20
-1132.9441
 10
1810.2132
 20
-1129.2132000000001
 10
1813.9441
 20
-1124.6671000000001
 10
1816.7164
 20
-1119.4805000000001
 10
1818.4236
 20
-1113.8527
 10
1819.0
 20
-923.0
 10
1818.4236
 20
-917.1473
 10
1816.7164
 20
-911.5195
 10
1813.9441
 20
-906.3329
 10
1810.2132
 20
-901.7868000000001
 10
1805.6671000000001
 20
-898.0559000000001
 10
1800.4805000000001
 20
-895.2836
 10
1794.8527
 20
-893.5763999999999
 10
1734.0
 20
-893.0
 10
1728.1473
 20
-893.5763999999999
 10
1722.5194999999999
 20
-895.2836
 10
1717.3328999999999
 20
-898.0559000000001
 10
1712.7868
 20
-901.7868000000001
 10
1709.0559
 20
-906.3329
 10
1706.2836
 20
-911.5195
 10
1704.5764
 20
-917.1473
 10
1704.0
 20
-1108.0
 10
1704.5764
 20
-1113.8527
 10
1706.2836
 20
-1119.4805000000001
 10
1709.0559
 20
-1124.6671000000001
 10
1712.7868
 20
-1129.2132000000001
 10
1717.3328999999999
 20
-1132.9441
 10
1722.5194999999999
 20
-1135.7164
 10
1728.1473
 20
-1137.4236
  0
LWPOLYLINE
  5
E1
330
17
100
AcDbEntity
  8
CUT
100
AcDbPolyline
 90
32
 70
1
 10
2109.0
 20
-833.0
 10
2114.8527
 20
-832.4236000000001
 10
2120.4805
 20
-830.7164
 10
2125.6671
 20
-827.9440999999999
 10
2130.2132
 20
-824.2131999999999
 10
2133.9441
 20
-819.6671
 10
2136.7164000000002
 20
-814.4805
 10
2138.4236
 20
-808.8527
 10
2139.0
 20
-603.0
 10
2138.4236
 20
-597.1473
 10
2136.7164000000002
 20
-591.5195
 10
2133.9441
 20
-586.3329
 10
2130.2132
 20
-581.7868
 10
2125.6671
 20
-578.0559
 10
2120.4805
 20
-575.2836
 10
2114.8527
 20
-573.5764
 10
2079.0
 20
-573.0
 10
2073.1473
 20
-573.5764
 10
2067.5195
 20
-575.2836
 10
2062.3329
 20
-578.0559
 10
2057.7868
 20
-581.7868
 10
2054.0559
 20
-586.3329
 10
2051.2835999999998
 20
-591.5195
 10
2049.5764
 20
-597.1473
 10
2049.0
 20
-803.0
 10
2049.5764
 20
-808.8527
 10
2051.2835999999998
 20
-814.4805
 10
2054.0559
 20
-819.6671
 10
2057.7868
 20
-824.2131999999999
 10
2062.3329
 20
-827.9440999999999
 10
2067.5195
 20
-830.7164
 10
2073.1473
 20
-832.4236000000001
  0
TEXT
  5
E2
330
17
100
AcDbEntity
  8
ENGRAVE-LABEL
100
AcDbText
 10
2068.099609375
 20
-1003.181640625
 30
0.0
 40
22.0
  1
08 ARM-INNER-R
 72
1
 11
2068.099609375
 21
-1003.181640625
 31
0.0
100
AcDbText
 73
2
  0
LWPOLYLINE
  5
E3
330
17
100
AcDbEntity
  8
CUT
100
AcDbPolyline
 90
34
 70
1
 10
35.0
 20
-311.0
 10
35.0
 20
-368.79999999999995
 42
-2.414213562373095
 10
31.80000000000001
 20
-372.0
 10
17.0
 20
-372.0
 10
17.0
 20
-412.0
 10
31.80000000000001
 20
-412.0
 42
-2.414213562373095
 10
35.0
 20
-415.20000000000005
 10
35.0
 20
-473.0
 10
461.0
 20
-473.0
 10
461.0
 20
-395.20000000000005
 42
-2.414213562373095
 10
464.20000000000005
 20
-392.0
 10
476.79999999999995
 20
-392.0
 42
-2.414213562373095
 10
480.0
 20
-395.20000000000005
 10
480.0
 20
-473.0
 10
905.5
 20
-473.0
 10
905.5
 20
-395.20000000000005
 42
-2.414213562373095
 10
908.7
 20
-392.0
 10
921.3
 20
-392.0
 42
-2.414213562373095
 10
924.5
 20
-395.20000000000005
 10
924.5
 20
-473.0
 10
1350.0
 20
-473.0
 10
1350.0
 20
-395.20000000000005
 42
-2.414213562373095
 10
1353.2
 20
-392.0
 10
1365.8
 20
-392.0
 42
-2.414213562373095
 10
1369.0
 20
-395.20000000000005
 10
1369.0
 20
-473.0
 10
1795.0
 20
-473.0
 10
1795.0
 20
-415.20000000000005
 42
-2.414213562373095
 10
1798.2
 20
-412.0
 10
1813.0
 20
-412.0
 10
1813.0
 20
-372.0
 10
1798.2
 20
-372.0
 42
-2.414213562373095
 10
1795.0
 20
-368.79999999999995
 10
1795.0
 20
-311.0
  0
TEXT
  5
E4
330
17
100
AcDbEntity
  8
ENGRAVE-LABEL
100
AcDbText
 10
237.40240908758963
 20
-392.0
 30
0.0
 40
22.0
  1
05 RAIL-MID
 72
1
 11
237.40240908758963
 21
-392.0
 31
0.0
100
AcDbText
 73
2
  0
LWPOLYLINE
  5
E5
330
17
100
AcDbEntity
  8
CUT
100
AcDbPolyline
 90
51
 70
1
 10
17.0
 20
-927.0
 10
17.0
 20
-967.0
 10
32.30000000000001
 20
-967.0
 42
-2.414213562373095
 10
35.5
 20
-970.2
 10
35.5
 20
-977.0
 10
461.0
 20
-977.0
 10
461.0
 20
-900.2
 42
-2.414213562373095
 10
464.20000000000005
 20
-897.0
 10
479.5
 20
-897.0
 10
479.5
 20
-857.0
 10
464.20000000000005
 20
-857.0
 42
-2.414213562373095
 10
461.0
 20
-853.8
 10
461.0
 20
-770.2
 42
-2.414213562373095
 10
464.20000000000005
 20
-767.0
 10
479.5
 20
-767.0
 10
479.5
 20
-727.0
 10
464.20000000000005
 20
-727.0
 42
-2.414213562373095
 10
461.0
 20
-723.8
 10
461.0
 20
-719.75
 10
459.1799
 20
-691.9806
 10
453.75070000000005
 20
-664.6862
 10
444.80539999999996
 20
-638.3341
 10
432.4969
 20
-613.375
 10
417.03589999999997
 20
-590.236
 10
398.687
 20
-569.313
 10
377.764
 20
-550.9641
 10
354.625
 20
-535.5031
 10
329.66589999999997
 20
-523.1946
 10
303.3138
 20
-514.2493
 10
276.0194
 20
-508.8201
 10
248.25
 20
-507.0
 10
220.48059999999998
 20
-508.8201
 10
193.18619999999999
 20
-514.2493
 10
166.83409999999998
 20
-523.1946
 10
141.875
 20
-535.5031
 10
118.73599999999999
 20
-550.9641
 10
97.81299999999999
 20
-569.313
 10
79.46409999999997
 20
-590.236
 10
64.00309999999999
 20
-613.375
 10
51.69460000000001
 20
-638.3341
 10
42.749300000000005
 20
-664.6862
 10
37.3201
 20
-691.9806
 10
35.5
 20
-719.75
 10
35.5
 20
-783.8
 42
-2.414213562373095
 10
32.30000000000001
 20
-787.0
 10
17.0
 20
-787.0
 10
17.0
 20
-827.0
 10
32.30000000000001
 20
-827.0
 42
-2.414213562373095
 10
35.5
 20
-830.2
 10
35.5
 20
-923.8
 42
-2.414213562373095
 10
32.30000000000001
 20
-927.0
  0
TEXT
  5
E6
330
17
100
AcDbEntity
  8
ENGRAVE-LABEL
100
AcDbText
 10
246.896509519507
 20
-746.9670897576707
 30
0.0
 40
22.0
  1
03 BACK-ARCH 1/4
 72
1
 11
246.896509519507
 21
-746.9670897576707
 31
0.0
100
AcDbText
 73
2
  0
LWPOLYLINE
  5
E7
330
17
100
AcDbEntity
  8
CUT
100
AcDbPolyline
 90
67
 70
1
 10
1759.0
 20
-1453.0
 10
1799.0
 20
-1453.0
 10
1799.0
 20
-1437.7
 42
-2.414213562373095
 10
1802.2
 20
-1434.5
 10
1879.0
 20
-1434.5
 10
1879.0
 20
-1251.5
 10
1802.2
 20
-1251.5
 42
-2.414213562373095
 10
1799.0
 20
-1248.3
 10
1799.0
 20
-1233.0
 10
1759.0
 20
-1233.0
 10
1759.0
 20
-1248.3
 42
-2.414213562373095
 10
1755.8
 20
-1251.5
 10
1602.2
 20
-1251.5
 42
-2.414213562373095
 10
1599.0
 20
-1248.3
 10
1599.0
 20
-1233.0
 10
1559.0
 20
-1233.0
 10
1559.0
 20
-1248.3
 42
-2.414213562373095
 10
1555.8
 20
-1251.5
 10
1482.2
 20
-1251.5
 42
-2.414213562373095
 10
1479.0
 20
-1248.3
 10
1479.0
 20
-1233.0
 10
1469.4129
 20
-1233.4186
 10
1459.8987
 20
-1234.6711
 10
1450.5299
 20
-1236.7482
 10
1441.3778
 20
-1239.6338
 10
1432.512
 20
-1243.3061
 10
1424.0
 20
-1247.7372
 10
1415.9066
 20
-1252.8933
 10
1408.2934
 20
-1258.7350999999999
 10
1401.2183
 20
-1265.2183
 10
1394.7350999999999
 20
-1272.2934
 10
1388.8933
 20
-1279.9066
 10
1383.7372
 20
-1288.0
 10
1379.3061
 20
-1296.512
 10
1375.6338
 20
-1305.3778
 10
1372.7482
 20
-1314.5299
 10
1370.6711
 20
-1323.8987
 10
1369.4186
 20
-1333.4129
 10
1369.0
 20
-1343.0
 10
1369.4186
 20
-1352.5871
 10
1370.6711
 20
-1362.1013
 10
1372.7482
 20
-1371.4701
 10
1375.6338
 20
-1380.6222
 10
1379.3061
 20
-1389.488
 10
1383.7372
 20
-1398.0
 10
1388.8933
 20
-1406.0934
 10
1394.7350999999999
 20
-1413.7066
 10
1401.2183
 20
-1420.7817
 10
1408.2934
 20
-1427.2649
 10
1415.9066
 20
-1433.1067
 10
1424.0
 20
-1438.2628
 10
1432.512
 20
-1442.6939
 10
1441.3778
 20
-1446.3662
 10
1450.5299
 20
-1449.2518
 10
1459.8987
 20
-1451.3289
 10
1469.4129
 20
-1452.5814
 10
1479.0
 20
-1453.0
 10
1479.0
 20
-1437.7
 42
-2.414213562373095
 10
1482.2
 20
-1434.5
 10
1555.8
 20
-1434.5
 42
-2.414213562373095
 10
1559.0
 20
-1437.7
 10
1559.0
 20
-1453.0
 10
1599.0
 20
-1453.0
 10
1599.0
 20
-1437.7
 42
-2.414213562373095
 10
1602.2
 20
-1434.5
 10
1755.8
 20
-1434.5
 42
-2.414213562373095
 10
1759.0
 20
-1437.7
  0
TEXT
  5
E8
330
17
100
AcDbEntity
  8
ENGRAVE-LABEL
100
AcDbText
 10
1624.0019055357084
 20
-1343.0
 30
0.0
 40
22.0
  1
09 ARM-SPACER 4/6
 72
1
 11
1624.0019055357084
 21
-1343.0
 31
0.0
100
AcDbText
 73
2
  0
LWPOLYLINE
  5
E9
330
17
100
AcDbEntity
  8
CUT
100
AcDbPolyline
 90
67
 70
1
 10
1759.0
 20
-737.0
 10
1799.0
 20
-737.0
 10
1799.0
 20
-721.7
 42
-2.414213562373095
 10
1802.2
 20
-718.5
 10
1879.0
 20
-718.5
 10
1879.0
 20
-535.5
 10
1802.2
 20
-535.5
 42
-2.414213562373095
 10
1799.0
 20
-532.3
 10
1799.0
 20
-517.0
 10
1759.0
 20
-517.0
 10
1759.0
 20
-532.3
 42
-2.414213562373095
 10
1755.8
 20
-535.5
 10
1602.2
 20
-535.5
 42
-2.414213562373095
 10
1599.0
 20
-532.3
 10
1599.0
 20
-517.0
 10
1559.0
 20
-517.0
 10
1559.0
 20
-532.3
 42
-2.414213562373095
 10
1555.8
 20
-535.5
 10
1482.2
 20
-535.5
 42
-2.414213562373095
 10
1479.0
 20
-532.3
 10
1479.0
 20
-517.0
 10
1469.4129
 20
-517.4186
 10
1459.8987
 20
-518.6711
 10
1450.5299
 20
-520.7482
 10
1441.3778
 20
-523.6338
 10
1432.512
 20
-527.3061
 10
1424.0
 20
-531.7372
 10
1415.9066
 20
-536.8933
 10
1408.2934
 20
-542.7351
 10
1401.2183
 20
-549.2183
 10
1394.7350999999999
 20
-556.2934
 10
1388.8933
 20
-563.9066
 10
1383.7372
 20
-572.0
 10
1379.3061
 20
-580.512
 10
1375.6338
 20
-589.3778
 10
1372.7482
 20
-598.5299
 10
1370.6711
 20
-607.8987
 10
1369.4186
 20
-617.4129
 10
1369.0
 20
-627.0
 10
1369.4186
 20
-636.5871
 10
1370.6711
 20
-646.1013
 10
1372.7482
 20
-655.4701
 10
1375.6338
 20
-664.6222
 10
1379.3061
 20
-673.4879999999999
 10
1383.7372
 20
-682.0
 10
1388.8933
 20
-690.0934
 10
1394.7350999999999
 20
-697.7066
 10
1401.2183
 20
-704.7817
 10
1408.2934
 20
-711.2649
 10
1415.9066
 20
-717.1066999999999
 10
1424.0
 20
-722.2628
 10
1432.512
 20
-726.6939
 10
1441.3778
 20
-730.3661999999999
 10
1450.5299
 20
-733.2518
 10
1459.8987
 20
-735.3289
 10
1469.4129
 20
-736.5814
 10
1479.0
 20
-737.0
 10
1479.0
 20
-721.6999999999999
 42
-2.414213562373095
 10
1482.2
 20
-718.5
 10
1555.8
 20
-718.5
 42
-2.414213562373095
 10
1559.0
 20
-721.6999999999999
 10
1559.0
 20
-737.0
 10
1599.0
 20
-737.0
 10
1599.0
 20
-721.6999999999999
 42
-2.414213562373095
 10
1602.2
 20
-718.5
 10
1755.8
 20
-718.5
 42
-2.414213562373095
 10
1759.0
 20
-721.7
  0
TEXT
  5
EA
330
17
100
AcDbEntity
  8
ENGRAVE-LABEL
100
AcDbText
 10
1624.0019055357084
 20
-627.0
 30
0.0
 40
22.0
  1
09 ARM-SPACER 5/6
 72
1
 11
1624.0019055357084
 21
-627.0
 31
0.0
100
AcDbText
 73
2
  0
LWPOLYLINE
  5
EB
330
17
100
AcDbEntity
  8
CUT
100
AcDbPolyline
 90
67
 70
1
 10
2283.0
 20
-1453.0
 10
2323.0
 20
-1453.0
 10
2323.0
 20
-1437.7
 42
-2.414213562373095
 10
2326.2
 20
-1434.5
 10
2403.0
 20
-1434.5
 10
2403.0
 20
-1251.5
 10
2326.2
 20
-1251.5
 42
-2.414213562373095
 10
2323.0
 20
-1248.3
 10
2323.0
 20
-1233.0
 10
2283.0
 20
-1233.0
 10
2283.0
 20
-1248.3
 42
-2.414213562373095
 10
2279.8
 20
-1251.5
 10
2126.2
 20
-1251.5
 42
-2.414213562373095
 10
2123.0
 20
-1248.3
 10
2123.0
 20
-1233.0
 10
2083.0
 20
-1233.0
 10
2083.0
 20
-1248.3
 42
-2.414213562373095
 10
2079.8
 20
-1251.5
 10
2006.2
 20
-1251.5
 42
-2.414213562373095
 10
2003.0
 20
-1248.3
 10
2003.0
 20
-1233.0
 10
1993.4129
 20
-1233.4186
 10
1983.8987
 20
-1234.6711
 10
1974.5299
 20
-1236.7482
 10
1965.3778
 20
-1239.6338
 10
1956.512
 20
-1243.3061
 10
1948.0
 20
-1247.7372
 10
1939.9066
 20
-1252.8933
 10
1932.2934
 20
-1258.7350999999999
 10
1925.2183
 20
-1265.2183
 10
1918.7350999999999
 20
-1272.2934
 10
1912.8933
 20
-1279.9066
 10
1907.7372
 20
-1288.0
 10
1903.3061
 20
-1296.512
 10
1899.6338
 20
-1305.3778
 10
1896.7482
 20
-1314.5299
 10
1894.6711
 20
-1323.8987
 10
1893.4186
 20
-1333.4129
 10
1893.0
 20
-1343.0
 10
1893.4186
 20
-1352.5871
 10
1894.6711
 20
-1362.1013
 10
1896.7482
 20
-1371.4701
 10
1899.6338
 20
-1380.6222
 10
1903.3061
 20
-1389.488
 10
1907.7372
 20
-1398.0
 10
1912.8933
 20
-1406.0934
 10
1918.7350999999999
 20
-1413.7066
 10
1925.2183
 20
-1420.7817
 10
1932.2934
 20
-1427.2649
 10
1939.9066
 20
-1433.1067
 10
1948.0
 20
-1438.2628
 10
1956.512
 20
-1442.6939
 10
1965.3778
 20
-1446.3662
 10
1974.5299
 20
-1449.2518
 10
1983.8987
 20
-1451.3289
 10
1993.4129
 20
-1452.5814
 10
2003.0
 20
-1453.0
 10
2003.0
 20
-1437.7
 42
-2.414213562373095
 10
2006.2
 20
-1434.5
 10
2079.8
 20
-1434.5
 42
-2.414213562373095
 10
2083.0
 20
-1437.7
 10
2083.0
 20
-1453.0
 10
2123.0
 20
-1453.0
 10
2123.0
 20
-1437.7
 42
-2.414213562373095
 10
2126.2
 20
-1434.5
 10
2279.8
 20
-1434.5
 42
-2.414213562373095
 10
2283.0
 20
-1437.7
  0
TEXT
  5
EC
330
17
100
AcDbEntity
  8
ENGRAVE-LABEL
100
AcDbText
 10
2148.0019055357084
 20
-1343.0
 30
0.0
 40
22.0
  1
09 ARM-SPACER 6/6
 72
1
 11
2148.0019055357084
 21
-1343.0
 31
0.0
100
AcDbText
 73
2
  0
LWPOLYLINE
  5
ED
330
17
100
AcDbEntity
  8
REFERENCE-SHEET
100
AcDbPolyline
 90
4
 70
1
 10
0.0
 20
-2940.0
 10
2440.0
 20
-2940.0
 10
2440.0
 20
-1720.0
 10
0.0
 20
-1720.0
  0
TEXT
  5
EE
330
17
100
AcDbEntity
  8
REFERENCE-SHEET
100
AcDbText
 10
0.0
 20
-1665.0
 30
0.0
 40
40.0
  1
SHEET 3/4  -  2440 x 1220 x 18 mm MDF
 11
0.0
 21
-1665.0
 31
0.0
100
AcDbText
  0
LWPOLYLINE
  5
EF
330
17
100
AcDbEntity
  8
CUT
100
AcDbPolyline
 90
46
 70
1
 10
17.0
 20
-2783.0
 10
31.80000000000001
 20
-2783.0
 42
-2.414213562373095
 10
35.0
 20
-2786.2
 10
35.0
 20
-2839.8
 42
-2.414213562373095
 10
31.80000000000001
 20
-2843.0
 10
17.0
 20
-2843.0
 10
17.0
 20
-2883.0
 10
31.80000000000001
 20
-2883.0
 42
-2.414213562373095
 10
35.0
 20
-2886.2
 10
35.0
 20
-2923.0
 10
461.0
 20
-2923.0
 10
461.0
 20
-2820.2
 42
-2.414213562373095
 10
464.20000000000005
 20
-2817.0
 10
476.79999999999995
 20
-2817.0
 42
-2.414213562373095
 10
480.0
 20
-2820.2
 10
480.0
 20
-2923.0
 10
905.5
 20
-2923.0
 10
905.5
 20
-2820.2
 42
-2.414213562373095
 10
908.7
 20
-2817.0
 10
921.3
 20
-2817.0
 42
-2.414213562373095
 10
924.5
 20
-2820.2
 10
924.5
 20
-2923.0
 10
1350.0
 20
-2923.0
 10
1350.0
 20
-2820.2
 42
-2.414213562373095
 10
1353.2
 20
-2817.0
 10
1365.8
 20
-2817.0
 42
-2.414213562373095
 10
1369.0
 20
-2820.2
 10
1369.0
 20
-2923.0
 10
1795.0
 20
-2923.0
 10
1795.0
 20
-2886.2
 42
-2.414213562373095
 10
1798.2
 20
-2883.0
 10
1813.0
 20
-2883.0
 10
1813.0
 20
-2843.0
 10
1798.2
 20
-2843.0
 42
-2.414213562373095
 10
1795.0
 20
-2839.8
 10
1795.0
 20
-2786.2
 42
-2.414213562373095
 10
1798.2
 20
-2783.0
 10
1813.0
 20
-2783.0
 10
1813.0
 20
-2743.0
 10
1798.2
 20
-2743.0
 42
-2.414213562373095
 10
1795.0
 20
-2739.8
 10
1795.0
 20
-2711.0
 10
35.0
 20
-2711.0
 10
35.0
 20
-2739.8
 42
-2.414213562373095
 10
31.80000000000001
 20
-2743.0
 10
17.0
 20
-2743.0
  0
TEXT
  5
F0
330
17
100
AcDbEntity
  8
ENGRAVE-LABEL
100
AcDbText
 10
246.4024090875897
 20
-2817.0
 30
0.0
 40
22.0
  1
06 RAIL-BACK
 72
1
 11
246.4024090875897
 21
-2817.0
 31
0.0
100
AcDbText
 73
2
  0
LWPOLYLINE
  5
F1
330
17
100
AcDbEntity
  8
CUT
100
AcDbPolyline
 90
67
 70
1
 10
356.5
 20
-2383.0
 10
210.2
 20
-2383.0
 42
-2.414213562373095
 10
207.0
 20
-2379.8
 10
207.0
 20
-2365.0
 10
167.0
 20
-2365.0
 10
167.0
 20
-2379.8
 42
-2.414213562373095
 10
163.8
 20
-2383.0
 10
65.5
 20
-2383.0
 10
65.5
 20
-2510.8
 42
-2.414213562373095
 10
62.3
 20
-2514.0
 10
49.7
 20
-2514.0
 42
-2.414213562373095
 10
46.5
 20
-2510.8
 10
46.5
 20
-2383.0
 10
17.0
 20
-2383.0
 10
17.0
 20
-2695.0
 10
137.0
 20
-2695.0
 10
137.0
 20
-2658.2
 42
-2.414213562373095
 10
140.2
 20
-2655.0
 10
753.8
 20
-2655.0
 42
-2.414213562373095
 10
757.0
 20
-2658.2
 10
757.0
 20
-2695.0
 10
877.0
 20
-2695.0
 10
877.0
 20
-2055.0
 10
876.8287
 20
-2049.7677
 10
876.3156
 20
-2044.5579
 10
875.4628
 20
-2039.3928
 10
874.2741
 20
-2034.2945
 10
872.7544
 20
-2029.2848
 10
870.9104
 20
-2024.3853
 10
868.7498
 20
-2019.6169
 10
866.282
 20
-2015.0
 10
863.5176
 20
-2010.5544
 10
860.4683
 20
-2006.2991
 10
857.1472
 20
-2002.2523
 10
853.5685
 20
-1998.4315000000001
 10
849.7477
 20
-1994.8528000000001
 10
845.7009
 20
-1991.5317
 10
841.4456
 20
-1988.4823999999999
 10
837.0
 20
-1985.7179999999998
 10
832.3831
 20
-1983.2502
 10
827.6147
 20
-1981.0896
 10
822.7152
 20
-1979.2456
 10
817.7055
 20
-1977.7259
 10
812.6072
 20
-1976.5372
 10
807.4421
 20
-1975.6844
 10
802.2323
 20
-1975.1713
 10
797.0
 20
-1975.0
 10
647.0
 20
-1975.0
 10
647.0
 20
-2379.8
 42
-2.414213562373095
 10
643.8
 20
-2383.0
 10
635.5
 20
-2383.0
 10
635.5
 20
-2485.8
 42
-2.414213562373095
 10
632.3
 20
-2489.0
 10
619.7
 20
-2489.0
 42
-2.414213562373095
 10
616.5
 20
-2485.8
 10
616.5
 20
-2383.0
 10
510.2
 20
-2383.0
 42
-2.414213562373095
 10
507.0
 20
-2379.8
 10
507.0
 20
-2365.0
 10
467.0
 20
-2365.0
 10
467.0
 20
-2379.8
 42
-2.414213562373095
 10
463.8
 20
-2383.0
 10
375.5
 20
-2383.0
 10
375.5
 20
-2460.8
 42
-2.414213562373095
 10
372.3
 20
-2464.0
 10
359.7
 20
-2464.0
 42
-2.414213562373095
 10
356.5
 20
-2460.8
  0
LWPOLYLINE
  5
F2
330
17
100
AcDbEntity
  8
CUT
100
AcDbPolyline
 90
8
 70
1
 10
676.5
 20
-2352.3
 42
2.414213562373095
 10
679.7
 20
-2355.5
 10
692.3
 20
-2355.5
 42
2.414213562373095
 10
695.5
 20
-2352.3
 10
695.5
 20
-2317.7
 42
2.414213562373095
 10
692.3
 20
-2314.5
 10
679.7
 20
-2314.5
 42
2.414213562373095
 10
676.5
 20
-2317.7
  0
LWPOLYLINE
  5
F3
330
17
100
AcDbEntity
  8
CUT
100
AcDbPolyline
 90
8
 70
1
 10
676.5
 20
-2212.3
 42
2.414213562373095
 10
679.7
 20
-2215.5
 10
692.3
 20
-2215.5
 42
2.414213562373095
 10
695.5
 20
-2212.3
 10
695.5
 20
-2177.7
 42
2.414213562373095
 10
692.3
 20
-2174.5
 10
679.7
 20
-2174.5
 42
2.414213562373095
 10
676.5
 20
-2177.7
  0
LWPOLYLINE
  5
F4
330
17
100
AcDbEntity
  8
CUT
100
AcDbPolyline
 90
8
 70
1
 10
676.5
 20
-2282.3
 42
2.414213562373095
 10
679.7
 20
-2285.5
 10
692.3
 20
-2285.5
 42
2.414213562373095
 10
695.5
 20
-2282.3
 10
695.5
 20
-2247.7
 42
2.414213562373095
 10
692.3
 20
-2244.5
 10
679.7
 20
-2244.5
 42
2.414213562373095
 10
676.5
 20
-2247.7
  0
LWPOLYLINE
  5
F5
330
17
100
AcDbEntity
  8
CUT
100
AcDbPolyline
 90
8
 70
1
 10
676.5
 20
-2152.3
 42
2.414213562373095
 10
679.7
 20
-2155.5
 10
692.3
 20
-2155.5
 42
2.414213562373095
 10
695.5
 20
-2152.3
 10
695.5
 20
-2117.7
 42
2.414213562373095
 10
692.3
 20
-2114.5
 10
679.7
 20
-2114.5
 42
2.414213562373095
 10
676.5
 20
-2117.7
  0
LWPOLYLINE
  5
F6
330
17
100
AcDbEntity
  8
CUT
100
AcDbPolyline
 90
32
 70
1
 10
297.0
 20
-2620.0
 10
302.8527
 20
-2619.4236
 10
308.4805
 20
-2617.7164000000002
 10
313.6671
 20
-2614.9441
 10
318.2132
 20
-2611.2132
 10
321.9441
 20
-2606.6671
 10
324.7164
 20
-2601.4805
 10
326.4236
 20
-2595.8527
 10
327.0
 20
-2575.0
 10
326.4236
 20
-2569.1473
 10
324.7164
 20
-2563.5195
 10
321.9441
 20
-2558.3329
 10
318.2132
 20
-2553.7868
 10
313.6671
 20
-2550.0559
 10
308.4805
 20
-2547.2835999999998
 10
302.8527
 20
-2545.5764
 10
127.0
 20
-2545.0
 10
121.1473
 20
-2545.5764
 10
115.5195
 20
-2547.2835999999998
 10
110.3329
 20
-2550.0559
 10
105.7868
 20
-2553.7868
 10
102.0559
 20
-2558.3329
 10
99.2836
 20
-2563.5195
 10
97.5764
 20
-2569.1473
 10
97.0
 20
-2590.0
 10
97.5764
 20
-2595.8527
 10
99.2836
 20
-2601.4805
 10
102.0559
 20
-2606.6671
 10
105.7868
 20
-2611.2132
 10
110.3329
 20
-2614.9441
 10
115.5195
 20
-2617.7164000000002
 10
121.1473
 20
-2619.4236
  0
LWPOLYLINE
  5
F7
330
17
100
AcDbEntity
  8
CUT
100
AcDbPolyline
 90
32
 70
1
 10
557.0
 20
-2620.0
 10
562.8527
 20
-2619.4236
 10
568.4805
 20
-2617.7164000000002
 10
573.6671
 20
-2614.9441
 10
578.2132
 20
-2611.2132
 10
581.9441
 20
-2606.6671
 10
584.7164
 20
-2601.4805
 10
586.4236
 20
-2595.8527
 10
587.0
 20
-2555.0
 10
586.4236
 20
-2549.1473
 10
584.7164
 20
-2543.5195
 10
581.9441
 20
-2538.3329
 10
578.2132
 20
-2533.7868
 10
573.6671
 20
-2530.0559
 10
568.4805
 20
-2527.2835999999998
 10
562.8527
 20
-2525.5764
 10
437.0
 20
-2525.0
 10
431.1473
 20
-2525.5764
 10
425.5195
 20
-2527.2835999999998
 10
420.3329
 20
-2530.0559
 10
415.7868
 20
-2533.7868
 10
412.0559
 20
-2538.3329
 10
409.2836
 20
-2543.5195
 10
407.5764
 20
-2549.1473
 10
407.0
 20
-2590.0
 10
407.5764
 20
-2595.8527
 10
409.2836
 20
-2601.4805
 10
412.0559
 20
-2606.6671
 10
415.7868
 20
-2611.2132
 10
420.3329
 20
-2614.9441
 10
425.5195
 20
-2617.7164000000002
 10
431.1473
 20
-2619.4236
  0
LWPOLYLINE
  5
F8
330
17
100
AcDbEntity
  8
CUT
100
AcDbPolyline
 90
32
 70
1
 10
797.0
 20
-2315.0
 10
802.8527
 20
-2314.4236
 10
808.4805
 20
-2312.7164000000002
 10
813.6671
 20
-2309.9440999999997
 10
818.2132
 20
-2306.2132
 10
821.9441
 20
-2301.6671
 10
824.7164
 20
-2296.4805
 10
826.4236
 20
-2290.8527
 10
827.0
 20
-2085.0
 10
826.4236
 20
-2079.1473
 10
824.7164
 20
-2073.5195
 10
821.9441
 20
-2068.3329
 10
818.2132
 20
-2063.7868
 10
813.6671
 20
-2060.0559
 10
808.4805
 20
-2057.2835999999998
 10
802.8527
 20
-2055.5764
 10
767.0
 20
-2055.0
 10
761.1473
 20
-2055.5764
 10
755.5195
 20
-2057.2835999999998
 10
750.3329
 20
-2060.0559
 10
745.7868
 20
-2063.7868
 10
742.0559
 20
-2068.3329
 10
739.2836
 20
-2073.5195
 10
737.5764
 20
-2079.1473
 10
737.0
 20
-2285.0
 10
737.5764
 20
-2290.8527
 10
739.2836
 20
-2296.4805
 10
742.0559
 20
-2301.6671
 10
745.7868
 20
-2306.2132
 10
750.3329
 20
-2309.9440999999997
 10
755.5195
 20
-2312.7164000000002
 10
761.1473
 20
-2314.4236
  0
TEXT
  5
F9
330
17
100
AcDbEntity
  8
ENGRAVE-LABEL
100
AcDbText
 10
754.8515625
 20
-2529.6953125
 30
0.0
 40
22.0
  1
01 RIB-A 1/2
 72
1
 11
754.8515625
 21
-2529.6953125
 31
0.0
100
AcDbText
 73
2
  0
LWPOLYLINE
  5
FA
330
17
100
AcDbEntity
  8
CUT
100
AcDbPolyline
 90
67
 70
1
 10
1245.0
 20
-2259.5
 10
1245.0
 20
-2405.8
 42
-2.414213562373095
 10
1241.8
 20
-2409.0
 10
1227.0
 20
-2409.0
 10
1227.0
 20
-2449.0
 10
1241.8
 20
-2449.0
 42
-2.414213562373095
 10
1245.0
 20
-2452.2
 10
1245.0
 20
-2550.5
 10
1372.8
 20
-2550.5
 42
-2.414213562373095
 10
1376.0
 20
-2553.7
 10
1376.0
 20
-2566.3
 42
-2.414213562373095
 10
1372.8
 20
-2569.5
 10
1245.0
 20
-2569.5
 10
1245.0
 20
-2599.0
 10
1557.0
 20
-2599.0
 10
1557.0
 20
-2479.0
 10
1520.2
 20
-2479.0
 42
-2.414213562373095
 10
1517.0
 20
-2475.8
 10
1517.0
 20
-1862.2
 42
-2.414213562373095
 10
1520.2
 20
-1859.0
 10
1557.0
 20
-1859.0
 10
1557.0
 20
-1739.0
 10
917.0
 20
-1739.0
 10
911.7677
 20
-1739.1713
 10
906.5579
 20
-1739.6844
 10
901.3928
 20
-1740.5372
 10
896.2945
 20
-1741.7259
 10
891.2848
 20
-1743.2456
 10
886.3853
 20
-1745.0896
 10
881.6169
 20
-1747.2502
 10
877.0
 20
-1749.7179999999998
 10
872.5544
 20
-1752.4823999999999
 10
868.2991
 20
-1755.5317
 10
864.2523
 20
-1758.8528000000001
 10
860.4315
 20
-1762.4315000000001
 10
856.8528
 20
-1766.2523
 10
853.5317
 20
-1770.2991
 10
850.4824
 20
-1774.5544
 10
847.718
 20
-1779.0
 10
845.2502
 20
-1783.6169
 10
843.0896
 20
-1788.3853
 10
841.2456
 20
-1793.2848
 10
839.7259
 20
-1798.2945
 10
838.5372
 20
-1803.3928
 10
837.6844
 20
-1808.5579
 10
837.1713
 20
-1813.7676999999999
 10
837.0
 20
-1819.0
 10
837.0
 20
-1969.0
 10
1241.8000000000002
 20
-1969.0
 42
-2.414213562373095
 10
1245.0
 20
-1972.2
 10
1245.0
 20
-1980.5
 10
1347.8000000000002
 20
-1980.5
 42
-2.414213562373095
 10
1351.0
 20
-1983.7
 10
1351.0
 20
-1996.3
 42
-2.414213562373095
 10
1347.8000000000002
 20
-1999.5
 10
1245.0
 20
-1999.5
 10
1245.0
 20
-2105.8
 42
-2.414213562373095
 10
1241.8000000000002
 20
-2109.0
 10
1227.0
 20
-2109.0
 10
1227.0
 20
-2149.0
 10
1241.8
 20
-2149.0
 42
-2.414213562373095
 10
1245.0
 20
-2152.2
 10
1245.0
 20
-2240.5
 10
1322.8000000000002
 20
-2240.5
 42
-2.414213562373095
 10
1326.0
 20
-2243.7
 10
1326.0
 20
-2256.3
 42
-2.414213562373095
 10
1322.8000000000002
 20
-2259.5
  0
LWPOLYLINE
  5
FB
330
17
100
AcDbEntity
  8
CUT
100
AcDbPolyline
 90
8
 70
1
 10
1214.3000000000002
 20
-1939.5
 42
2.414213562373095
 10
1217.5
 20
-1936.3
 10
1217.5
 20
-1923.7
 42
2.414213562373095
 10
1214.3000000000002
 20
-1920.5
 10
1179.7
 20
-1920.5
 42
2.414213562373095
 10
1176.5
 20
-1923.7
 10
1176.5
 20
-1936.3
 42
2.414213562373095
 10
1179.7
 20
-1939.5
  0
LWPOLYLINE
  5
FC
330
17
100
AcDbEntity
  8
CUT
100
AcDbPolyline
 90
8
 70
1
 10
1074.3000000000002
 20
-1939.5
 42
2.414213562373095
 10
1077.5
 20
-1936.3
 10
1077.5
 20
-1923.7
 42
2.414213562373095
 10
1074.3000000000002
 20
-1920.5
 10
1039.7
 20
-1920.5
 42
2.414213562373095
 10
1036.5
 20
-1923.7
 10
1036.5
 20
-1936.3
 42
2.414213562373095
 10
1039.7
 20
-1939.5
  0
LWPOLYLINE
  5
FD
330
17
100
AcDbEntity
  8
CUT
100
AcDbPolyline
 90
8
 70
1
 10
1144.3000000000002
 20
-1939.5
 42
2.414213562373095
 10
1147.5
 20
-1936.3
 10
1147.5
 20
-1923.7
 42
2.414213562373095
 10
1144.3000000000002
 20
-1920.5
 10
1109.7
 20
-1920.5
 42
2.414213562373095
 10
1106.5
 20
-1923.7
 10
1106.5
 20
-1936.3
 42
2.414213562373095
 10
1109.7
 20
-1939.5
  0
LWPOLYLINE
  5
FE
330
17
100
AcDbEntity
  8
CUT
100
AcDbPolyline
 90
8
 70
1
 10
1014.3
 20
-1939.5
 42
2.414213562373095
 10
1017.5
 20
-1936.3
 10
1017.5
 20
-1923.7
 42
2.414213562373095
 10
1014.3
 20
-1920.5
 10
979.7
 20
-1920.5
 42
2.414213562373095
 10
976.5
 20
-1923.7
 10
976.5
 20
-1936.3
 42
2.414213562373095
 10
979.7
 20
-1939.5
  0
LWPOLYLINE
  5
FF
330
17
100
AcDbEntity
  8
CUT
100
AcDbPolyline
 90
32
 70
1
 10
1482.0
 20
-2319.0
 10
1481.4236
 20
-2313.1473
 10
1479.7164
 20
-2307.5195
 10
1476.9441000000002
 20
-2302.3329
 10
1473.2132000000001
 20
-2297.7868
 10
1468.6671000000001
 20
-2294.0559000000003
 10
1463.4805000000001
 20
-2291.2835999999998
 10
1457.8527
 20
-2289.5764
 10
1437.0
 20
-2289.0
 10
1431.1473
 20
-2289.5764
 10
1425.5194999999999
 20
-2291.2835999999998
 10
1420.3328999999999
 20
-2294.0559000000003
 10
1415.7868
 20
-2297.7868
 10
1412.0559
 20
-2302.3329
 10
1409.2836
 20
-2307.5195
 10
1407.5764
 20
-2313.1473
 10
1407.0
 20
-2489.0
 10
1407.5764
 20
-2494.8527
 10
1409.2836
 20
-2500.4805
 10
1412.0559
 20
-2505.6671
 10
1415.7867999999999
 20
-2510.2132
 10
1420.3328999999999
 20
-2513.9441
 10
1425.5194999999999
 20
-2516.7164
 10
1431.1473
 20
-2518.4236
 10
1452.0
 20
-2519.0
 10
1457.8527
 20
-2518.4236
 10
1463.4805000000001
 20
-2516.7164000000002
 10
1468.6671000000001
 20
-2513.9441
 10
1473.2132000000001
 20
-2510.2132
 10
1476.9441000000002
 20
-2505.6671
 10
1479.7164
 20
-2500.4805
 10
1481.4236
 20
-2494.8527
  0
LWPOLYLINE
  5
100
330
17
100
AcDbEntity
  8
CUT
100
AcDbPolyline
 90
32
 70
1
 10
1482.0
 20
-2059.0
 10
1481.4236
 20
-2053.1473
 10
1479.7164
 20
-2047.5194999999999
 10
1476.9441000000002
 20
-2042.3328999999999
 10
1473.2132000000001
 20
-2037.7867999999999
 10
1468.6671000000001
 20
-2034.0558999999998
 10
1463.4805000000001
 20
-2031.2836
 10
1457.8527
 20
-2029.5764
 10
1417.0
 20
-2029.0
 10
1411.1473
 20
-2029.5764
 10
1405.5194999999999
 20
-2031.2836
 10
1400.3328999999999
 20
-2034.0558999999998
 10
1395.7868
 20
-2037.7867999999999
 10
1392.0559
 20
-2042.3328999999999
 10
1389.2836
 20
-2047.5194999999999
 10
1387.5764
 20
-2053.1473
 10
1387.0
 20
-2179.0
 10
1387.5764
 20
-2184.8527
 10
1389.2836
 20
-2190.4805
 10
1392.0559
 20
-2195.6671
 10
1395.7868
 20
-2200.2132
 10
1400.3328999999999
 20
-2203.9440999999997
 10
1405.5194999999999
 20
-2206.7164000000002
 10
1411.1473
 20
-2208.4236
 10
1452.0
 20
-2209.0
 10
1457.8527
 20
-2208.4236
 10
1463.4805000000001
 20
-2206.7164000000002
 10
1468.6671000000001
 20
-2203.9440999999997
 10
1473.2132000000001
 20
-2200.2132
 10
1476.9441000000002
 20
-2195.6671
 10
1479.7164
 20
-2190.4805
 10
1481.4236
 20
-2184.8527
  0
LWPOLYLINE
  5
101
330
17
100
AcDbEntity
  8
CUT
100
AcDbPolyline
 90
32
 70
1
 10
1177.0
 20
-1819.0
 10
1176.4236
 20
-1813.1473
 10
1174.7164
 20
-1807.5194999999999
 10
1171.9441000000002
 20
-1802.3328999999999
 10
1168.2132000000001
 20
-1797.7867999999999
 10
1163.6671000000001
 20
-1794.0558999999998
 10
1158.4805000000001
 20
-1791.2836
 10
1152.8527000000001
 20
-1789.5764
 10
947.0
 20
-1789.0
 10
941.1473
 20
-1789.5764
 10
935.5195
 20
-1791.2836
 10
930.3329
 20
-1794.0558999999998
 10
925.7868
 20
-1797.7867999999999
 10
922.0559
 20
-1802.3328999999999
 10
919.2836
 20
-1807.5194999999999
 10
917.5764
 20
-1813.1473
 10
917.0
 20
-1849.0
 10
917.5764
 20
-1854.8527
 10
919.2836
 20
-1860.4805000000001
 10
922.0559
 20
-1865.6671000000001
 10
925.7868
 20
-1870.2132000000001
 10
930.3329
 20
-1873.9441000000002
 10
935.5195
 20
-1876.7164
 10
941.1473
 20
-1878.4236
 10
1147.0
 20
-1879.0
 10
1152.8527000000001
 20
-1878.4236
 10
1158.4805000000001
 20
-1876.7164
 10
1163.6671000000001
 20
-1873.9441000000002
 10
1168.2132000000001
 20
-1870.2132000000001
 10
1171.9441000000002
 20
-1865.6671000000001
 10
1174.7164
 20
-1860.4805000000001
 10
1176.4236
 20
-1854.8527
  0
TEXT
  5
102
330
17
100
AcDbEntity
  8
ENGRAVE-LABEL
100
AcDbText
 10
1391.6953125
 20
-1861.1484375
 30
0.0
 40
22.0
  1
01 RIB-A 2/2
 72
1
 11
1391.6953125
 21
-1861.1484375
 31
0.0
100
AcDbText
 73
2
  0
LWPOLYLINE
  5
103
330
17
100
AcDbEntity
  8
CUT
100
AcDbPolyline
 90
55
 70
1
 10
1533.0
 20
-2143.0
 10
1533.0
 20
-2293.0
 10
1937.8000000000002
 20
-2293.0
 42
-2.414213562373095
 10
1941.0
 20
-2296.2
 10
1941.0
 20
-2304.5
 10
2043.8000000000002
 20
-2304.5
 42
-2.414213562373095
 10
2047.0
 20
-2307.7
 10
2047.0
 20
-2320.3
 42
-2.414213562373095
 10
2043.8000000000002
 20
-2323.5
 10
1941.0
 20
-2323.5
 10
1941.0
 20
-2564.5
 10
2018.8000000000002
 20
-2564.5
 42
-2.414213562373095
 10
2022.0
 20
-2567.7
 10
2022.0
 20
-2580.3
 42
-2.414213562373095
 10
2018.8000000000002
 20
-2583.5
 10
1941.0
 20
-2583.5
 10
1941.0
 20
-2874.5
 10
2068.8
 20
-2874.5
 42
-2.414213562373095
 10
2072.0
 20
-2877.7
 10
2072.0
 20
-2890.3
 42
-2.414213562373095
 10
2068.8
 20
-2893.5
 10
1941.0
 20
-2893.5
 10
1941.0
 20
-2923.0
 10
2253.0
 20
-2923.0
 10
2253.0
 20
-2803.0
 10
2216.2
 20
-2803.0
 42
-2.414213562373095
 10
2213.0
 20
-2799.8
 10
2213.0
 20
-2186.2
 42
-2.414213562373095
 10
2216.2
 20
-2183.0
 10
2253.0
 20
-2183.0
 10
2253.0
 20
-2063.0
 10
1613.0
 20
-2063.0
 10
1607.7676999999999
 20
-2063.1713
 10
1602.5579
 20
-2063.6844
 10
1597.3928
 20
-2064.5371999999998
 10
1592.2945
 20
-2065.7259
 10
1587.2848
 20
-2067.2456
 10
1582.3853
 20
-2069.0896000000002
 10
1577.6169
 20
-2071.2502
 10
1573.0
 20
-2073.718
 10
1568.5544
 20
-2076.4824
 10
1564.2991
 20
-2079.5317
 10
1560.2523
 20
-2082.8528
 10
1556.4315000000001
 20
-2086.4315
 10
1552.8528000000001
 20
-2090.2523
 10
1549.5317
 20
-2094.2991
 10
1546.4823999999999
 20
-2098.5544
 10
1543.7179999999998
 20
-2103.0
 10
1541.2502
 20
-2107.6169
 10
1539.0896
 20
-2112.3853
 10
1537.2456
 20
-2117.2848
 10
1535.7259
 20
-2122.2945
 10
1534.5372
 20
-2127.3928
 10
1533.6844
 20
-2132.5579
 10
1533.1713
 20
-2137.7677
  0
LWPOLYLINE
  5
104
330
17
100
AcDbEntity
  8
CUT
100
AcDbPolyline
 90
8
 70
1
 10
1910.3000000000002
 20
-2263.5
 42
2.414213562373095
 10
1913.5
 20
-2260.3
 10
1913.5
 20
-2247.7
 42
2.414213562373095
 10
1910.3000000000002
 20
-2244.5
 10
1875.7
 20
-2244.5
 42
2.414213562373095
 10
1872.5
 20
-2247.7
 10
1872.5
 20
-2260.3
 42
2.414213562373095
 10
1875.7
 20
-2263.5
  0
LWPOLYLINE
  5
105
330
17
100
AcDbEntity
  8
CUT
100
AcDbPolyline
 90
8
 70
1
 10
1770.3000000000002
 20
-2263.5
 42
2.414213562373095
 10
1773.5
 20
-2260.3
 10
1773.5
 20
-2247.7
 42
2.414213562373095
 10
1770.3000000000002
 20
-2244.5
 10
1735.7
 20
-2244.5
 42
2.414213562373095
 10
1732.5
 20
-2247.7
 10
1732.5
 20
-2260.3
 42
2.414213562373095
 10
1735.7
 20
-2263.5
  0
LWPOLYLINE
  5
106
330
17
100
AcDbEntity
  8
CUT
100
AcDbPolyline
 90
8
 70
1
 10
1840.3000000000002
 20
-2263.5
 42
2.414213562373095
 10
1843.5
 20
-2260.3
 10
1843.5
 20
-2247.7
 42
2.414213562373095
 10
1840.3000000000002
 20
-2244.5
 10
1805.7
 20
-2244.5
 42
2.414213562373095
 10
1802.5
 20
-2247.7
 10
1802.5
 20
-2260.3
 42
2.414213562373095
 10
1805.7
 20
-2263.5
  0
LWPOLYLINE
  5
107
330
17
100
AcDbEntity
  8
CUT
100
AcDbPolyline
 90
8
 70
1
 10
1710.3
 20
-2263.5
 42
2.414213562373095
 10
1713.5
 20
-2260.3
 10
1713.5
 20
-2247.7
 42
2.414213562373095
 10
1710.3
 20
-2244.5
 10
1675.7
 20
-2244.5
 42
2.414213562373095
 10
1672.5
 20
-2247.7
 10
1672.5
 20
-2260.3
 42
2.414213562373095
 10
1675.7
 20
-2263.5
  0
LWPOLYLINE
  5
108
330
17
100
AcDbEntity
  8
CUT
100
AcDbPolyline
 90
32
 70
1
 10
2178.0
 20
-2643.0
 10
2177.4236
 20
-2637.1473
 10
2175.7164000000002
 20
-2631.5195
 10
2172.9441
 20
-2626.3329
 10
2169.2132
 20
-2621.7868
 10
2164.6671
 20
-2618.0559
 10
2159.4805
 20
-2615.2835999999998
 10
2153.8527
 20
-2613.5764
 10
2133.0
 20
-2613.0
 10
2127.1473
 20
-2613.5764
 10
2121.5195
 20
-2615.2835999999998
 10
2116.3329
 20
-2618.0559
 10
2111.7868
 20
-2621.7868
 10
2108.0559000000003
 20
-2626.3329
 10
2105.2835999999998
 20
-2631.5195
 10
2103.5764
 20
-2637.1473
 10
2103.0
 20
-2813.0
 10
2103.5764
 20
-2818.8527
 10
2105.2835999999998
 20
-2824.4805
 10
2108.0559000000003
 20
-2829.6671
 10
2111.7868
 20
-2834.2132
 10
2116.3329
 20
-2837.9441
 10
2121.5195
 20
-2840.7164
 10
2127.1473
 20
-2842.4236
 10
2148.0
 20
-2843.0
 10
2153.8527
 20
-2842.4236
 10
2159.4805
 20
-2840.7164
 10
2164.6671
 20
-2837.9441
 10
2169.2132
 20
-2834.2132
 10
2172.9441
 20
-2829.6671
 10
2175.7164000000002
 20
-2824.4805
 10
2177.4236
 20
-2818.8527
  0
LWPOLYLINE
  5
109
330
17
100
AcDbEntity
  8
CUT
100
AcDbPolyline
 90
32
 70
1
 10
2178.0
 20
-2383.0
 10
2177.4236
 20
-2377.1473
 10
2175.7164000000002
 20
-2371.5195
 10
2172.9441
 20
-2366.3329
 10
2169.2132
 20
-2361.7868
 10
2164.6671
 20
-2358.0559
 10
2159.4805
 20
-2355.2835999999998
 10
2153.8527
 20
-2353.5764
 10
2113.0
 20
-2353.0
 10
2107.1473
 20
-2353.5764
 10
2101.5195
 20
-2355.2835999999998
 10
2096.3329
 20
-2358.0559
 10
2091.7868
 20
-2361.7868
 10
2088.0559000000003
 20
-2366.3329
 10
2085.2835999999998
 20
-2371.5195
 10
2083.5764
 20
-2377.1473
 10
2083.0
 20
-2503.0
 10
2083.5764
 20
-2508.8527
 10
2085.2835999999998
 20
-2514.4805
 10
2088.0559000000003
 20
-2519.6671
 10
2091.7868
 20
-2524.2132
 10
2096.3329
 20
-2527.9441
 10
2101.5195
 20
-2530.7164000000002
 10
2107.1473
 20
-2532.4236
 10
2148.0
 20
-2533.0
 10
2153.8527
 20
-2532.4236
 10
2159.4805
 20
-2530.7164000000002
 10
2164.6671
 20
-2527.9441
 10
2169.2132
 20
-2524.2132
 10
2172.9441
 20
-2519.6671
 10
2175.7164000000002
 20
-2514.4805
 10
2177.4236
 20
-2508.8527
  0
LWPOLYLINE
  5
10A
330
17
100
AcDbEntity
  8
CUT
100
AcDbPolyline
 90
32
 70
1
 10
1873.0
 20
-2143.0
 10
1872.4236
 20
-2137.1473
 10
1870.7164
 20
-2131.5195
 10
1867.9441000000002
 20
-2126.3329
 10
1864.2132000000001
 20
-2121.7868
 10
1859.6671000000001
 20
-2118.0559
 10
1854.4805000000001
 20
-2115.2835999999998
 10
1848.8527000000001
 20
-2113.5764
 10
1643.0
 20
-2113.0
 10
1637.1473
 20
-2113.5764
 10
1631.5194999999999
 20
-2115.2835999999998
 10
1626.3328999999999
 20
-2118.0559
 10
1621.7867999999999
 20
-2121.7868
 10
1618.0558999999998
 20
-2126.3329
 10
1615.2836
 20
-2131.5195
 10
1613.5764
 20
-2137.1473
 10
1613.0
 20
-2173.0
 10
1613.5764
 20
-2178.8527
 10
1615.2836
 20
-2184.4805
 10
1618.0558999999998
 20
-2189.6671
 10
1621.7867999999999
 20
-2194.2132
 10
1626.3328999999999
 20
-2197.9441
 10
1631.5194999999999
 20
-2200.7164000000002
 10
1637.1473
 20
-2202.4236
 10
1843.0
 20
-2203.0
 10
1848.8527000000001
 20
-2202.4236
 10
1854.4805000000001
 20
-2200.7164000000002
 10
1859.6671000000001
 20
-2197.9441
 10
1864.2132000000001
 20
-2194.2132
 10
1867.9441000000002
 20
-2189.6671
 10
1870.7164
 20
-2184.4805
 10
1872.4236
 20
-2178.8527
  0
TEXT
  5
10B
330
17
100
AcDbEntity
  8
ENGRAVE-LABEL
100
AcDbText
 10
2087.6953125
 20
-2185.1484375
 30
0.0
 40
22.0
  1
02 RIB-B
 72
1
 11
2087.6953125
 21
-2185.1484375
 31
0.0
100
AcDbText
 73
2
  0
LWPOLYLINE
  5
10C
330
17
100
AcDbEntity
  8
CUT
100
AcDbPolyline
 90
51
 70
1
 10
67.00000000000006
 20
-1904.5
 10
27.000000000000057
 20
-1904.5
 10
27.000000000000057
 20
-1919.8
 42
-2.414213562373095
 10
23.800000000000068
 20
-1923.0
 10
17.000000000000057
 20
-1923.0
 10
17.0
 20
-2348.5
 10
93.80000000000001
 20
-2348.5
 42
-2.414213562373095
 10
97.0
 20
-2351.7
 10
97.0
 20
-2367.0
 10
137.0
 20
-2367.0
 10
137.0
 20
-2351.7
 42
-2.414213562373095
 10
140.2
 20
-2348.5
 10
223.79999999999995
 20
-2348.5
 42
-2.414213562373095
 10
227.0
 20
-2351.7
 10
227.0
 20
-2367.0
 10
267.0
 20
-2367.0
 10
267.0
 20
-2351.7
 42
-2.414213562373095
 10
270.20000000000005
 20
-2348.5
 10
274.25
 20
-2348.5
 10
302.0194
 20
-2346.6799
 10
329.3138
 20
-2341.2507
 10
355.66589999999997
 20
-2332.3054
 10
380.625
 20
-2319.9969
 10
403.764
 20
-2304.5359
 10
424.687
 20
-2286.187
 10
443.03589999999997
 20
-2265.264
 10
458.4969
 20
-2242.125
 10
470.80539999999996
 20
-2217.1659
 10
479.75070000000005
 20
-2190.8138
 10
485.1799
 20
-2163.5194
 10
487.0
 20
-2135.75
 10
485.1799
 20
-2107.9806
 10
479.75070000000005
 20
-2080.6862
 10
470.80539999999996
 20
-2054.3341
 10
458.4969
 20
-2029.375
 10
443.0359000000001
 20
-2006.2359999999999
 10
424.6870000000001
 20
-1985.313
 10
403.7640000000001
 20
-1966.9641
 10
380.6250000000001
 20
-1951.5031
 10
355.6659000000001
 20
-1939.1946
 10
329.3138000000001
 20
-1930.2493
 10
302.01940000000013
 20
-1924.8201
 10
274.2500000000001
 20
-1923.0
 10
210.20000000000016
 20
-1923.0
 42
-2.414213562373095
 10
207.0000000000001
 20
-1919.8
 10
207.0000000000001
 20
-1904.5
 10
167.00000000000006
 20
-1904.5
 10
167.00000000000006
 20
-1919.8
 42
-2.414213562373095
 10
163.80000000000007
 20
-1923.0
 10
70.20000000000005
 20
-1923.0
 42
-2.414213562373095
 10
67.00000000000006
 20
-1919.8
  0
TEXT
  5
10D
330
17
100
AcDbEntity
  8
ENGRAVE-LABEL
100
AcDbText
 10
246.13058325533396
 20
-2134.396509519507
 30
0.0
 40
22.0
  1
03 BACK-ARCH 2/4
 72
1
 11
246.13058325533396
 21
-2134.396509519507
 31
0.0
100
AcDbText
 73
2
  0
LWPOLYLINE
  5
10E
330
17
100
AcDbEntity
  8
REFERENCE-SHEET
100
AcDbPolyline
 90
4
 70
1
 10
0.0
 20
-4410.0
 10
2440.0
 20
-4410.0
 10
2440.0
 20
-3190.0
 10
0.0
 20
-3190.0
  0
TEXT
  5
10F
330
17
100
AcDbEntity
  8
REFERENCE-SHEET
100
AcDbText
 10
0.0
 20
-3135.0
 30
0.0
 40
40.0
  1
SHEET 4/4  -  2440 x 1220 x 18 mm MDF
 11
0.0
 21
-3135.0
 31
0.0
100
AcDbText
  0
LWPOLYLINE
  5
110
330
17
100
AcDbEntity
  8
CUT
100
AcDbPolyline
 90
51
 70
1
 10
17.0
 20
-4343.0
 10
17.0
 20
-4383.0
 10
32.30000000000001
 20
-4383.0
 42
-2.414213562373095
 10
35.5
 20
-4386.2
 10
35.5
 20
-4393.0
 10
461.0
 20
-4393.0
 10
461.0
 20
-4316.2
 42
-2.414213562373095
 10
464.20000000000005
 20
-4313.0
 10
479.5
 20
-4313.0
 10
479.5
 20
-4273.0
 10
464.20000000000005
 20
-4273.0
 42
-2.414213562373095
 10
461.0
 20
-4269.8
 10
461.0
 20
-4186.2
 42
-2.414213562373095
 10
464.20000000000005
 20
-4183.0
 10
479.5
 20
-4183.0
 10
479.5
 20
-4143.0
 10
464.20000000000005
 20
-4143.0
 42
-2.414213562373095
 10
461.0
 20
-4139.8
 10
461.0
 20
-4135.75
 10
459.1799
 20
-4107.9806
 10
453.75070000000005
 20
-4080.6862
 10
444.80539999999996
 20
-4054.3341
 10
432.4969
 20
-4029.375
 10
417.03589999999997
 20
-4006.236
 10
398.687
 20
-3985.313
 10
377.764
 20
-3966.9641
 10
354.625
 20
-3951.5031
 10
329.66589999999997
 20
-3939.1946
 10
303.3138
 20
-3930.2493
 10
276.0194
 20
-3924.8201
 10
248.25
 20
-3923.0
 10
220.48059999999998
 20
-3924.8201
 10
193.18619999999999
 20
-3930.2493
 10
166.83409999999998
 20
-3939.1946
 10
141.875
 20
-3951.5031
 10
118.73599999999999
 20
-3966.9641
 10
97.81299999999999
 20
-3985.313
 10
79.46409999999997
 20
-4006.236
 10
64.00309999999999
 20
-4029.375
 10
51.69460000000001
 20
-4054.3341
 10
42.749300000000005
 20
-4080.6862
 10
37.3201
 20
-4107.9806
 10
35.5
 20
-4135.75
 10
35.5
 20
-4199.8
 42
-2.414213562373095
 10
32.30000000000001
 20
-4203.0
 10
17.0
 20
-4203.0
 10
17.0
 20
-4243.0
 10
32.30000000000001
 20
-4243.0
 42
-2.414213562373095
 10
35.5
 20
-4246.2
 10
35.5
 20
-4339.8
 42
-2.414213562373095
 10
32.30000000000001
 20
-4343.0
  0
TEXT
  5
111
330
17
100
AcDbEntity
  8
ENGRAVE-LABEL
100
AcDbText
 10
246.89650951950702
 20
-4162.967089757671
 30
0.0
 40
22.0
  1
03 BACK-ARCH 3/4
 72
1
 11
246.89650951950702
 21
-4162.967089757671
 31
0.0
100
AcDbText
 73
2
  0
LWPOLYLINE
  5
112
330
17
100
AcDbEntity
  8
CUT
100
AcDbPolyline
 90
51
 70
1
 10
437.0
 20
-3913.0
 10
477.0
 20
-3913.0
 10
477.0
 20
-3897.7
 42
-2.414213562373095
 10
480.2
 20
-3894.5
 10
487.0
 20
-3894.5
 10
487.00000000000006
 20
-3469.0
 10
410.20000000000005
 20
-3469.0
 42
-2.414213562373095
 10
407.00000000000006
 20
-3465.8
 10
407.00000000000006
 20
-3450.5
 10
367.00000000000006
 20
-3450.5
 10
367.00000000000006
 20
-3465.8
 42
-2.414213562373095
 10
363.80000000000007
 20
-3469.0
 10
280.20000000000005
 20
-3469.0
 42
-2.414213562373095
 10
277.0
 20
-3465.8
 10
277.0
 20
-3450.5
 10
237.0
 20
-3450.5
 10
237.0
 20
-3465.8
 42
-2.414213562373095
 10
233.79999999999995
 20
-3469.0
 10
229.75
 20
-3469.0
 10
201.98059999999998
 20
-3470.8201
 10
174.68619999999999
 20
-3476.2493
 10
148.33410000000003
 20
-3485.1946
 10
123.375
 20
-3497.5031
 10
100.23599999999999
 20
-3512.9641
 10
79.31299999999999
 20
-3531.313
 10
60.96410000000003
 20
-3552.236
 10
45.50310000000002
 20
-3575.375
 10
33.19460000000004
 20
-3600.3341
 10
24.24929999999995
 20
-3626.6862
 10
18.820100000000025
 20
-3653.9806
 10
17.0
 20
-3681.75
 10
18.820100000000025
 20
-3709.5194
 10
24.24929999999995
 20
-3736.8138
 10
33.19460000000004
 20
-3763.1659
 10
45.50310000000002
 20
-3788.125
 10
60.96410000000003
 20
-3811.264
 10
79.31299999999999
 20
-3832.187
 10
100.23599999999999
 20
-3850.5359
 10
123.375
 20
-3865.9969
 10
148.33410000000003
 20
-3878.3054
 10
174.68619999999999
 20
-3887.2507
 10
201.98059999999998
 20
-3892.6799
 10
229.75
 20
-3894.5
 10
293.79999999999995
 20
-3894.5
 42
-2.414213562373095
 10
297.0
 20
-3897.7
 10
297.0
 20
-3913.0
 10
337.0
 20
-3913.0
 10
337.0
 20
-3897.7
 42
-2.414213562373095
 10
340.2
 20
-3894.5
 10
433.8
 20
-3894.5
 42
-2.414213562373095
 10
437.0
 20
-3897.7
  0
TEXT
  5
113
330
17
100
AcDbEntity
  8
ENGRAVE-LABEL
100
AcDbText
 10
256.06476277067543
 20
-3683.103490480493
 30
0.0
 40
22.0
  1
03 BACK-ARCH 4/4
 72
1
 11
256.06476277067543
 21
-3683.103490480493
 31
0.0
100
AcDbText
 73
2
  0
ENDSEC
  0
SECTION
  2
OBJECTS
  0
DICTIONARY
  5
A
330
0
100
AcDbDictionary
281
1
  3
ACAD_COLOR
350
B
  3
ACAD_GROUP
350
C
  3
ACAD_LAYOUT
350
D
  3
ACAD_MATERIAL
350
E
  3
ACAD_MLEADERSTYLE
350
F
  3
ACAD_MLINESTYLE
350
10
  3
ACAD_PLOTSETTINGS
350
11
  3
ACAD_PLOTSTYLENAME
350
12
  3
ACAD_SCALELIST
350
14
  3
ACAD_TABLESTYLE
350
15
  3
ACAD_VISUALSTYLE
350
16
  3
EZDXF_META
350
2D
  0
DICTIONARY
  5
B
330
A
100
AcDbDictionary
281
1
  0
DICTIONARY
  5
C
330
A
100
AcDbDictionary
281
1
  0
DICTIONARY
  5
D
330
A
100
AcDbDictionary
281
1
  3
Model
350
1A
  3
Layout1
350
1E
  0
DICTIONARY
  5
E
330
A
100
AcDbDictionary
281
1
  3
ByBlock
350
1F
  3
ByLayer
350
20
  3
Global
350
21
  0
DICTIONARY
  5
F
330
A
100
AcDbDictionary
281
1
  3
Standard
350
2C
  0
DICTIONARY
  5
10
330
A
100
AcDbDictionary
281
1
  3
Standard
350
22
  0
DICTIONARY
  5
11
330
A
100
AcDbDictionary
281
1
  0
ACDBDICTIONARYWDFLT
  5
12
330
A
100
AcDbDictionary
281
1
  3
Normal
350
13
100
AcDbDictionaryWithDefault
340
13
  0
ACDBPLACEHOLDER
  5
13
330
12
  0
DICTIONARY
  5
14
330
A
100
AcDbDictionary
281
1
  0
DICTIONARY
  5
15
330
A
100
AcDbDictionary
281
1
  0
DICTIONARY
  5
16
330
A
100
AcDbDictionary
281
1
  3
2dWireframe
350
5A
  3
Basic
350
5B
  3
Brighten
350
5C
  3
ColorChange
350
5D
  3
Conceptual
350
5E
  3
Dim
350
5F
  3
EdgeColorOff
350
60
  3
Facepattern
350
61
  3
Flat
350
62
  3
FlatWithEdges
350
63
  3
Gouraud
350
64
  3
GouraudWithEdges
350
65
  3
Hidden
350
66
  3
JitterOff
350
67
  3
Linepattern
350
68
  3
Modeling
350
69
  3
OverhangOff
350
6A
  3
Realistic
350
6B
  3
Shaded
350
6C
  3
Shaded with edges
350
6D
  3
Shades of Gray
350
6E
  3
Sketchy
350
6F
  3
Thicken
350
70
  3
Wireframe
350
71
  3
X-Ray
350
72
  0
LAYOUT
  5
1A
330
D
100
AcDbPlotSettings
  1

  4
A3
  6

 40
7.5
 41
20.0
 42
7.5
 43
20.0
 44
420.0
 45
297.0
 46
0.0
 47
0.0
 48
0.0
 49
0.0
140
0.0
141
0.0
142
1.0
143
1.0
 70
1024
 72
1
 73
0
 74
5
  7

 75
16
 76
0
 77
2
 78
300
147
1.0
148
0.0
149
0.0
100
AcDbLayout
  1
Model
 70
1
 71
0
 10
0.0
 20
0.0
 11
420.0
 21
297.0
 12
0.0
 22
0.0
 32
0.0
 14
1e+20
 24
1e+20
 34
1e+20
 15
-1e+20
 25
-1e+20
 35
-1e+20
146
0.0
 13
0.0
 23
0.0
 33
0.0
 16
1.0
 26
0.0
 36
0.0
 17
0.0
 27
1.0
 37
0.0
 76
1
330
17
  0
LAYOUT
  5
1E
330
D
100
AcDbPlotSettings
  1

  4
A3
  6

 40
7.5
 41
20.0
 42
7.5
 43
20.0
 44
420.0
 45
297.0
 46
0.0
 47
0.0
 48
0.0
 49
0.0
140
0.0
141
0.0
142
1.0
143
1.0
 70
0
 72
1
 73
0
 74
5
  7

 75
16
 76
0
 77
2
 78
300
147
1.0
148
0.0
149
0.0
100
AcDbLayout
  1
Layout1
 70
1
 71
1
 10
0.0
 20
0.0
 11
420.0
 21
297.0
 12
0.0
 22
0.0
 32
0.0
 14
1e+20
 24
1e+20
 34
1e+20
 15
-1e+20
 25
-1e+20
 35
-1e+20
146
0.0
 13
0.0
 23
0.0
 33
0.0
 16
1.0
 26
0.0
 36
0.0
 17
0.0
 27
1.0
 37
0.0
 76
1
330
1B
  0
MATERIAL
  5
1F
102
{ACAD_REACTORS
330
E
102
}
330
E
100
AcDbMaterial
  1
ByBlock
  2

 70
0
 40
1.0
 71
1
 41
1.0
 91
-1023410177
 42
1.0
 72
1
  3

 73
1
 74
1
 75
1
 44
0.5
 73
0
 45
1.0
 46
1.0
 77
1
  4

 78
1
 79
1
170
1
 48
1.0
171
1
  6

172
1
173
1
174
1
140
1.0
141
1.0
175
1
  7

176
1
177
1
178
1
143
1.0
179
1
  8

270
1
271
1
272
1
145
1.0
146
1.0
273
1
  9

274
1
275
1
276
1
 42
1.0
 72
1
  3

 73
1
 74
1
 75
1
 94
63
  0
MATERIAL
  5
20
102
{ACAD_REACTORS
330
E
102
}
330
E
100
AcDbMaterial
  1
ByLayer
  2

 70
0
 40
1.0
 71
1
 41
1.0
 91
-1023410177
 42
1.0
 72
1
  3

 73
1
 74
1
 75
1
 44
0.5
 73
0
 45
1.0
 46
1.0
 77
1
  4

 78
1
 79
1
170
1
 48
1.0
171
1
  6

172
1
173
1
174
1
140
1.0
141
1.0
175
1
  7

176
1
177
1
178
1
143
1.0
179
1
  8

270
1
271
1
272
1
145
1.0
146
1.0
273
1
  9

274
1
275
1
276
1
 42
1.0
 72
1
  3

 73
1
 74
1
 75
1
 94
63
  0
MATERIAL
  5
21
102
{ACAD_REACTORS
330
E
102
}
330
E
100
AcDbMaterial
  1
Global
  2

 70
0
 40
1.0
 71
1
 41
1.0
 91
-1023410177
 42
1.0
 72
1
  3

 73
1
 74
1
 75
1
 44
0.5
 73
0
 45
1.0
 46
1.0
 77
1
  4

 78
1
 79
1
170
1
 48
1.0
171
1
  6

172
1
173
1
174
1
140
1.0
141
1.0
175
1
  7

176
1
177
1
178
1
143
1.0
179
1
  8

270
1
271
1
272
1
145
1.0
146
1.0
273
1
  9

274
1
275
1
276
1
 42
1.0
 72
1
  3

 73
1
 74
1
 75
1
 94
63
  0
MLINESTYLE
  5
22
102
{ACAD_REACTORS
330
10
102
}
330
10
100
AcDbMlineStyle
  2
Standard
 70
0
  3

 62
256
 51
90.0
 52
90.0
 71
2
 49
0.5
 62
256
  6
BYLAYER
 49
-0.5
 62
256
  6
BYLAYER
  0
MLEADERSTYLE
  5
2C
102
{ACAD_REACTORS
330
F
102
}
330
F
100
AcDbMLeaderStyle
179
2
170
2
171
1
172
0
 90
2
 40
0.0
 41
0.0
173
1
 91
-1056964608
 92
-2
290
1
 42
2.0
291
1
 43
8.0
  3
Standard
 44
4.0
300

342
29
174
1
175
1
176
0
178
1
 93
-1056964608
 45
4.0
292
0
297
0
 46
4.0
 94
-1056964608
 47
1.0
 49
1.0
140
1.0
294
1
141
0.0
177
0
142
1.0
295
0
296
0
143
3.75
271
0
272
9
273
9
  0
DICTIONARY
  5
2D
330
A
100
AcDbDictionary
280
1
281
1
  3
CREATED_BY_EZDXF
350
2E
  3
WRITTEN_BY_EZDXF
350
116
  0
DICTIONARYVAR
  5
2E
330
2D
100
DictionaryVariables
280
0
  1
1.4.4 @ 2026-10-01T14:16:23.436058+00:00
  0
VISUALSTYLE
  5
5A
102
{ACAD_REACTORS
330
16
102
}
330
16
100
AcDbVisualStyle
  2
2dWireframe
 70
4
 90
0
 40
0.6
 62
7
290
0
291
0
  0
VISUALSTYLE
  5
5B
102
{ACAD_REACTORS
330
16
102
}
330
16
100
AcDbVisualStyle
  2
Basic
 70
7
 90
1
 40
0.6
 62
7
290
0
291
1
  0
VISUALSTYLE
  5
5C
102
{ACAD_REACTORS
330
16
102
}
330
16
100
AcDbVisualStyle
  2
Brighten
 70
12
 90
2
 40
0.6
 62
7
290
0
291
1
  0
VISUALSTYLE
  5
5D
102
{ACAD_REACTORS
330
16
102
}
330
16
100
AcDbVisualStyle
  2
ColorChange
 70
16
 90
2
 40
0.6
 62
8
290
0
291
1
  0
VISUALSTYLE
  5
5E
102
{ACAD_REACTORS
330
16
102
}
330
16
100
AcDbVisualStyle
  2
Conceptual
 70
9
 90
3
 40
0.6
 62
7
290
0
291
0
  0
VISUALSTYLE
  5
5F
102
{ACAD_REACTORS
330
16
102
}
330
16
100
AcDbVisualStyle
  2
Dim
 70
11
 90
2
 40
0.6
 62
7
290
0
291
1
  0
VISUALSTYLE
  5
60
102
{ACAD_REACTORS
330
16
102
}
330
16
100
AcDbVisualStyle
  2
EdgeColorOff
 70
22
 90
2
 40
0.6
 62
7
290
0
291
1
  0
VISUALSTYLE
  5
61
102
{ACAD_REACTORS
330
16
102
}
330
16
100
AcDbVisualStyle
  2
Facepattern
 70
15
 90
2
 40
0.6
 62
7
290
0
291
1
  0
VISUALSTYLE
  5
62
102
{ACAD_REACTORS
330
16
102
}
330
16
100
AcDbVisualStyle
  2
Flat
 70
0
 90
2
 40
0.6
 62
7
290
0
291
1
  0
VISUALSTYLE
  5
63
102
{ACAD_REACTORS
330
16
102
}
330
16
100
AcDbVisualStyle
  2
FlatWithEdges
 70
1
 90
2
 40
0.6
 62
7
290
0
291
1
  0
VISUALSTYLE
  5
64
102
{ACAD_REACTORS
330
16
102
}
330
16
100
AcDbVisualStyle
  2
Gouraud
 70
2
 90
2
 40
0.6
 62
7
290
0
291
1
  0
VISUALSTYLE
  5
65
102
{ACAD_REACTORS
330
16
102
}
330
16
100
AcDbVisualStyle
  2
GouraudWithEdges
 70
3
 90
2
 40
0.6
 62
7
290
0
291
1
  0
VISUALSTYLE
  5
66
102
{ACAD_REACTORS
330
16
102
}
330
16
100
AcDbVisualStyle
  2
Hidden
 70
6
 90
1
 40
0.6
 62
7
290
0
291
0
  0
VISUALSTYLE
  5
67
102
{ACAD_REACTORS
330
16
102
}
330
16
100
AcDbVisualStyle
  2
JitterOff
 70
20
 90
2
 40
0.6
 62
7
290
0
291
1
  0
VISUALSTYLE
  5
68
102
{ACAD_REACTORS
330
16
102
}
330
16
100
AcDbVisualStyle
  2
Linepattern
 70
14
 90
2
 40
0.6
 62
7
290
0
291
1
  0
VISUALSTYLE
  5
69
102
{ACAD_REACTORS
330
16
102
}
330
16
100
AcDbVisualStyle
  2
Modeling
 70
10
 90
2
 40
0.6
 62
7
290
0
291
0
  0
VISUALSTYLE
  5
6A
102
{ACAD_REACTORS
330
16
102
}
330
16
100
AcDbVisualStyle
  2
OverhangOff
 70
21
 90
2
 40
0.6
 62
7
290
0
291
1
  0
VISUALSTYLE
  5
6B
102
{ACAD_REACTORS
330
16
102
}
330
16
100
AcDbVisualStyle
  2
Realistic
 70
8
 90
2
 40
0.6
 62
7
290
0
291
0
  0
VISUALSTYLE
  5
6C
102
{ACAD_REACTORS
330
16
102
}
330
16
100
AcDbVisualStyle
  2
Shaded
 70
27
 90
2
 40
0.6
 62
7
290
0
291
0
  0
VISUALSTYLE
  5
6D
102
{ACAD_REACTORS
330
16
102
}
330
16
100
AcDbVisualStyle
  2
Shaded with edges
 70
26
 90
2
 40
0.6
 62
7
290
0
291
0
  0
VISUALSTYLE
  5
6E
102
{ACAD_REACTORS
330
16
102
}
330
16
100
AcDbVisualStyle
  2
Shades of Gray
 70
23
 90
2
 40
0.6
 62
7
290
0
291
0
  0
VISUALSTYLE
  5
6F
102
{ACAD_REACTORS
330
16
102
}
330
16
100
AcDbVisualStyle
  2
Sketchy
 70
24
 90
1
 40
0.6
 62
7
290
0
291
0
  0
VISUALSTYLE
  5
70
102
{ACAD_REACTORS
330
16
102
}
330
16
100
AcDbVisualStyle
  2
Thicken
 70
13
 90
2
 40
0.6
 62
7
290
0
291
1
  0
VISUALSTYLE
  5
71
102
{ACAD_REACTORS
330
16
102
}
330
16
100
AcDbVisualStyle
  2
Wireframe
 70
5
 90
0
 40
0.6
 62
7
290
0
291
0
  0
VISUALSTYLE
  5
72
102
{ACAD_REACTORS
330
16
102
}
330
16
100
AcDbVisualStyle
  2
X-Ray
 70
25
 90
2
 40
0.5
 62
7
290
0
291
0
  0
DICTIONARYVAR
  5
116
330
2D
100
DictionaryVariables
280
0
  1
1.4.4 @ 2026-10-01T14:16:23.596943+00:00
  0
ENDSEC
  0
EOF
