  0
SECTION
  2
HEADER
  9
$ACADVER
  1
AC1024
  9
$ACADMAINTVER
 70
6
  9
$DWGCODEPAGE
  3
ANSI_1252
  9
$LASTSAVEDBY
  1
ezdxf
  9
$INSBASE
 10
0.0
 20
0.0
 30
0.0
  9
$EXTMIN
 10
1e+20
 20
1e+20
 30
1e+20
  9
$EXTMAX
 10
-1e+20
 20
-1e+20
 30
-1e+20
  9
$LIMMIN
 10
0.0
 20
0.0
  9
$LIMMAX
 10
420.0
 20
297.0
  9
$ORTHOMODE
 70
0
  9
$REGENMODE
 70
1
  9
$FILLMODE
 70
1
  9
$QTEXTMODE
 70
0
  9
$MIRRTEXT
 70
1
  9
$LTSCALE
 40
1.0
  9
$ATTMODE
 70
1
  9
$TEXTSIZE
 40
2.5
  9
$TRACEWID
 40
1.0
  9
$TEXTSTYLE
  7
OpenSans
  9
$CLAYER
  8
0
  9
$CELTYPE
  6
ByLayer
  9
$CECOLOR
 62
256
  9
$CELTSCALE
 40
1.0
  9
$DISPSILH
 70
0
  9
$DIMSCALE
 40
1.0
  9
$DIMASZ
 40
0.175
  9
$DIMEXO
 40
0.125
  9
$DIMDLI
 40
3.75
  9
$DIMRND
 40
0.0
  9
$DIMDLE
 40
0.0
  9
$DIMEXE
 40
0.375
  9
$DIMTP
 40
0.0
  9
$DIMTM
 40
0.0
  9
$DIMTXT
 40
0.25
  9
$DIMCEN
 40
2.5
  9
$DIMTSZ
 40
0.0
  9
$DIMTOL
 70
0
  9
$DIMLIM
 70
0
  9
$DIMTIH
 70
0
  9
$DIMTOH
 70
0
  9
$DIMSE1
 70
0
  9
$DIMSE2
 70
0
  9
$DIMTAD
 70
1
  9
$DIMZIN
 70
12
  9
$DIMBLK
  1
ARCHTICK
  9
$DIMASO
 70
1
  9
$DIMSHO
 70
1
  9
$DIMPOST
  1

  9
$DIMAPOST
  1

  9
$DIMALT
 70
0
  9
$DIMALTD
 70
3
  9
$DIMALTF
 40
0.03937007874
  9
$DIMLFAC
 40
100.0
  9
$DIMTOFL
 70
1
  9
$DIMTVP
 40
0.0
  9
$DIMTIX
 70
0
  9
$DIMSOXD
 70
0
  9
$DIMSAH
 70
0
  9
$DIMBLK1
  1

  9
$DIMBLK2
  1

  9
$DIMSTYLE
  2
EZDXF
  9
$DIMCLRD
 70
0
  9
$DIMCLRE
 70
0
  9
$DIMCLRT
 70
0
  9
$DIMTFAC
 40
0.5
  9
$DIMGAP
 40
0.1
  9
$DIMJUST
 70
0
  9
$DIMSD1
 70
0
  9
$DIMSD2
 70
0
  9
$DIMTOLJ
 70
0
  9
$DIMTZIN
 70
8
  9
$DIMALTZ
 70
0
  9
$DIMALTTZ
 70
0
  9
$DIMUPT
 70
1
  9
$DIMDEC
 70
2
  9
$DIMTDEC
 70
2
  9
$DIMALTU
 70
2
  9
$DIMALTTD
 70
3
  9
$DIMTXSTY
  7
OpenSansCondensed-Light
  9
$DIMAUNIT
 70
0
  9
$DIMADEC
 70
2
  9
$DIMALTRND
 40
0.0
  9
$DIMAZIN
 70
3
  9
$DIMDSEP
 70
46
  9
$DIMATFIT
 70
3
  9
$DIMFRAC
 70
0
  9
$DIMLDRBLK
  1

  9
$DIMLUNIT
 70
2
  9
$DIMLWD
 70
-2
  9
$DIMLWE
 70
-2
  9
$DIMTMOVE
 70
2
  9
$DIMFXL
 40
1.0
  9
$DIMFXLON
 70
0
  9
$DIMJOGANG
 40
0.785398163397
  9
$DIMTFILL
 70
0
  9
$DIMTFILLCLR
 70
0
  9
$DIMARCSYM
 70
0
  9
$DIMLTYPE
  6

  9
$DIMLTEX1
  6

  9
$DIMLTEX2
  6

  9
$DIMTXTDIRECTION
 70
0
  9
$LUNITS
 70
2
  9
$LUPREC
 70
4
  9
$SKETCHINC
 40
1.0
  9
$FILLETRAD
 40
10.0
  9
$AUNITS
 70
0
  9
$AUPREC
 70
2
  9
$MENU
  1
.
  9
$ELEVATION
 40
0.0
  9
$PELEVATION
 40
0.0
  9
$THICKNESS
 40
0.0
  9
$LIMCHECK
 70
0
  9
$CHAMFERA
 40
0.0
  9
$CHAMFERB
 40
0.0
  9
$CHAMFERC
 40
0.0
  9
$CHAMFERD
 40
0.0
  9
$SKPOLY
 70
0
  9
$TDCREATE
 40
2461311.406238426
  9
$TDUCREATE
 40
2458532.153996898
  9
$TDUPDATE
 40
2461311.406238426
  9
$TDUUPDATE
 40
2458532.1544311
  9
$TDINDWG
 40
0.0
  9
$TDUSRTIMER
 40
0.0
  9
$USRTIMER
 70
1
  9
$ANGBASE
 50
0.0
  9
$ANGDIR
 70
0
  9
$PDMODE
 70
0
  9
$PDSIZE
 40
0.0
  9
$PLINEWID
 40
0.0
  9
$SPLFRAME
 70
0
  9
$SPLINETYPE
 70
6
  9
$SPLINESEGS
 70
8
  9
$HANDSEED
  5
A6
  9
$SURFTAB1
 70
6
  9
$SURFTAB2
 70
6
  9
$SURFTYPE
 70
6
  9
$SURFU
 70
6
  9
$SURFV
 70
6
  9
$UCSBASE
  2

  9
$UCSNAME
  2

  9
$UCSORG
 10
0.0
 20
0.0
 30
0.0
  9
$UCSXDIR
 10
1.0
 20
0.0
 30
0.0
  9
$UCSYDIR
 10
0.0
 20
1.0
 30
0.0
  9
$UCSORTHOREF
  2

  9
$UCSORTHOVIEW
 70
0
  9
$UCSORGTOP
 10
0.0
 20
0.0
 30
0.0
  9
$UCSORGBOTTOM
 10
0.0
 20
0.0
 30
0.0
  9
$UCSORGLEFT
 10
0.0
 20
0.0
 30
0.0
  9
$UCSORGRIGHT
 10
0.0
 20
0.0
 30
0.0
  9
$UCSORGFRONT
 10
0.0
 20
0.0
 30
0.0
  9
$UCSORGBACK
 10
0.0
 20
0.0
 30
0.0
  9
$PUCSBASE
  2

  9
$PUCSNAME
  2

  9
$PUCSORG
 10
0.0
 20
0.0
 30
0.0
  9
$PUCSXDIR
 10
1.0
 20
0.0
 30
0.0
  9
$PUCSYDIR
 10
0.0
 20
1.0
 30
0.0
  9
$PUCSORTHOREF
  2

  9
$PUCSORTHOVIEW
 70
0
  9
$PUCSORGTOP
 10
0.0
 20
0.0
 30
0.0
  9
$PUCSORGBOTTOM
 10
0.0
 20
0.0
 30
0.0
  9
$PUCSORGLEFT
 10
0.0
 20
0.0
 30
0.0
  9
$PUCSORGRIGHT
 10
0.0
 20
0.0
 30
0.0
  9
$PUCSORGFRONT
 10
0.0
 20
0.0
 30
0.0
  9
$PUCSORGBACK
 10
0.0
 20
0.0
 30
0.0
  9
$USERI1
 70
0
  9
$USERI2
 70
0
  9
$USERI3
 70
0
  9
$USERI4
 70
0
  9
$USERI5
 70
0
  9
$USERR1
 40
0.0
  9
$USERR2
 40
0.0
  9
$USERR3
 40
0.0
  9
$USERR4
 40
0.0
  9
$USERR5
 40
0.0
  9
$WORLDVIEW
 70
1
  9
$SHADEDGE
 70
3
  9
$SHADEDIF
 70
70
  9
$TILEMODE
 70
1
  9
$MAXACTVP
 70
64
  9
$PINSBASE
 10
0.0
 20
0.0
 30
0.0
  9
$PLIMCHECK
 70
0
  9
$PEXTMIN
 10
1e+20
 20
1e+20
 30
1e+20
  9
$PEXTMAX
 10
-1e+20
 20
-1e+20
 30
-1e+20
  9
$PLIMMIN
 10
0.0
 20
0.0
  9
$PLIMMAX
 10
420.0
 20
297.0
  9
$UNITMODE
 70
0
  9
$VISRETAIN
 70
1
  9
$PLINEGEN
 70
0
  9
$PSLTSCALE
 70
1
  9
$TREEDEPTH
 70
3020
  9
$CMLSTYLE
  2
Standard
  9
$CMLJUST
 70
0
  9
$CMLSCALE
 40
20.0
  9
$PROXYGRAPHICS
 70
1
  9
$MEASUREMENT
 70
1
  9
$CELWEIGHT
370
-1
  9
$ENDCAPS
280
0
  9
$JOINSTYLE
280
0
  9
$LWDISPLAY
290
0
  9
$INSUNITS
 70
4
  9
$HYPERLINKBASE
  1

  9
$STYLESHEET
  1

  9
$XEDIT
290
1
  9
$CEPSNTYPE
380
0
  9
$PSTYLEMODE
290
1
  9
$FINGERPRINTGUID
  2
{FAC13BD7-8B6F-48B9-BCCA-C3F909D90F8D}
  9
$VERSIONGUID
  2
{881D74C5-AD10-4327-88DC-EE608651CF0A}
  9
$EXTNAMES
290
1
  9
$PSVPSCALE
 40
0.0
  9
$OLESTARTUP
290
0
  9
$SORTENTS
280
127
  9
$INDEXCTL
280
0
  9
$HIDETEXT
280
1
  9
$XCLIPFRAME
280
1
  9
$HALOGAP
280
0
  9
$OBSCOLOR
 70
257
  9
$OBSLTYPE
280
0
  9
$INTERSECTIONDISPLAY
280
0
  9
$INTERSECTIONCOLOR
 70
257
  9
$DIMASSOC
280
2
  9
$PROJECTNAME
  1

  9
$CAMERADISPLAY
290
0
  9
$LENSLENGTH
 40
50.0
  9
$CAMERAHEIGHT
 40
0.0
  9
$STEPSPERSEC
 40
24.0
  9
$STEPSIZE
 40
100.0
  9
$3DDWFPREC
 40
2.0
  9
$PSOLWIDTH
 40
0.005
  9
$PSOLHEIGHT
 40
0.08
  9
$LOFTANG1
 40
1.570796326795
  9
$LOFTANG2
 40
1.570796326795
  9
$LOFTMAG1
 40
0.0
  9
$LOFTMAG2
 40
0.0
  9
$LOFTPARAM
 70
7
  9
$LOFTNORMALS
280
1
  9
$LATITUDE
 40
37.795
  9
$LONGITUDE
 40
-122.394
  9
$NORTHDIRECTION
 40
0.0
  9
$TIMEZONE
 70
-8000
  9
$LIGHTGLYPHDISPLAY
280
1
  9
$TILEMODELIGHTSYNCH
280
1
  9
$CMATERIAL
347
20
  9
$SOLIDHIST
280
0
  9
$SHOWHIST
280
1
  9
$DWFFRAME
280
2
  9
$DGNFRAME
280
2
  9
$REALWORLDSCALE
290
1
  9
$INTERFERECOLOR
 62
256
  9
$CSHADOW
280
0
  9
$SHADOWPLANELOCATION
 40
0.0
  0
ENDSEC
  0
SECTION
  2
CLASSES
  0
CLASS
  1
ACDBDICTIONARYWDFLT
  2
AcDbDictionaryWithDefault
  3
ObjectDBX Classes
 90
0
 91
0
280
0
281
0
  0
CLASS
  1
SUN
  2
AcDbSun
  3
SCENEOE
 90
1153
 91
0
280
0
281
0
  0
CLASS
  1
VISUALSTYLE
  2
AcDbVisualStyle
  3
ObjectDBX Classes
 90
4095
 91
0
280
0
281
0
  0
CLASS
  1
MATERIAL
  2
AcDbMaterial
  3
ObjectDBX Classes
 90
1153
 91
0
280
0
281
0
  0
CLASS
  1
SCALE
  2
AcDbScale
  3
ObjectDBX Classes
 90
1153
 91
0
280
0
281
0
  0
CLASS
  1
TABLESTYLE
  2
AcDbTableStyle
  3
ObjectDBX Classes
 90
4095
 91
0
280
0
281
0
  0
CLASS
  1
MLEADERSTYLE
  2
AcDbMLeaderStyle
  3
ACDB_MLEADERSTYLE_CLASS
 90
4095
 91
0
280
0
281
0
  0
CLASS
  1
DICTIONARYVAR
  2
AcDbDictionaryVar
  3
ObjectDBX Classes
 90
0
 91
0
280
0
281
0
  0
CLASS
  1
CELLSTYLEMAP
  2
AcDbCellStyleMap
  3
ObjectDBX Classes
 90
1152
 91
0
280
0
281
0
  0
CLASS
  1
MENTALRAYRENDERSETTINGS
  2
AcDbMentalRayRenderSettings
  3
SCENEOE
 90
1024
 91
0
280
0
281
0
  0
CLASS
  1
ACDBDETAILVIEWSTYLE
  2
AcDbDetailViewStyle
  3
ObjectDBX Classes
 90
1025
 91
0
280
0
281
0
  0
CLASS
  1
ACDBSECTIONVIEWSTYLE
  2
AcDbSectionViewStyle
  3
ObjectDBX Classes
 90
1025
 91
0
280
0
281
0
  0
CLASS
  1
RASTERVARIABLES
  2
AcDbRasterVariables
  3
ISM
 90
0
 91
0
280
0
281
0
  0
CLASS
  1
ACDBPLACEHOLDER
  2
AcDbPlaceHolder
  3
ObjectDBX Classes
 90
0
 91
0
280
0
281
0
  0
CLASS
  1
LAYOUT
  2
AcDbLayout
  3
ObjectDBX Classes
 90
0
 91
0
280
0
281
0
  0
ENDSEC
  0
SECTION
  2
TABLES
  0
TABLE
  2
VPORT
  5
8
330
0
100
AcDbSymbolTable
 70
1
  0
VPORT
  5
23
330
8
100
AcDbSymbolTableRecord
100
AcDbViewportTableRecord
  2
*Active
 70
0
 10
0.0
 20
0.0
 11
1.0
 21
1.0
 12
0.0
 22
0.0
 13
0.0
 23
0.0
 14
0.5
 24
0.5
 15
0.5
 25
0.5
 16
0.0
 26
0.0
 36
1.0
 17
0.0
 27
0.0
 37
0.0
 40
1000.0
 41
1.34
 42
50.0
 43
0.0
 44
0.0
 50
0.0
 51
0.0
 71
0
 72
1000
 73
1
 74
3
 75
0
 76
0
 77
0
 78
0
281
0
 65
0
146
0.0
  0
ENDTAB
  0
TABLE
  2
LTYPE
  5
2
330
0
100
AcDbSymbolTable
 70
21
  0
LTYPE
  5
24
330
2
100
AcDbSymbolTableRecord
100
AcDbLinetypeTableRecord
  2
ByBlock
 70
0
  3

 72
65
 73
0
 40
0.0
  0
LTYPE
  5
25
330
2
100
AcDbSymbolTableRecord
100
AcDbLinetypeTableRecord
  2
ByLayer
 70
0
  3

 72
65
 73
0
 40
0.0
  0
LTYPE
  5
26
330
2
100
AcDbSymbolTableRecord
100
AcDbLinetypeTableRecord
  2
Continuous
 70
0
  3

 72
65
 73
0
 40
0.0
  0
LTYPE
  5
2F
330
2
100
AcDbSymbolTableRecord
100
AcDbLinetypeTableRecord
  2
CENTER
 70
0
  3
Center ____ _ ____ _ ____ _ ____ _ ____ _ ____
 72
65
 73
4
 40
5.08
 49
3.175
 74
0
 49
-0.635
 74
0
 49
0.635
 74
0
 49
-0.635
 74
0
  0
LTYPE
  5
30
330
2
100
AcDbSymbolTableRecord
100
AcDbLinetypeTableRecord
  2
CENTERX2
 70
0
  3
Center (2x) ________  __  ________  __  ________
 72
65
 73
4
 40
8.89
 49
6.35
 74
0
 49
-0.635
 74
0
 49
1.27
 74
0
 49
-0.635
 74
0
  0
LTYPE
  5
31
330
2
100
AcDbSymbolTableRecord
100
AcDbLinetypeTableRecord
  2
CENTER2
 70
0
  3
Center (.5x) ____ _ ____ _ ____ _ ____ _ ____
 72
65
 73
4
 40
2.54
 49
1.587
 74
0
 49
-0.318
 74
0
 49
0.318
 74
0
 49
-0.318
 74
0
  0
LTYPE
  5
32
330
2
100
AcDbSymbolTableRecord
100
AcDbLinetypeTableRecord
  2
DASHED
 70
0
  3
Dashed __ __ __ __ __ __ __ __ __ __ __ __ __ _
 72
65
 73
2
 40
1.524
 49
1.27
 74
0
 49
-0.254
 74
0
  0
LTYPE
  5
33
330
2
100
AcDbSymbolTableRecord
100
AcDbLinetypeTableRecord
  2
DASHEDX2
 70
0
  3
Dashed (2x) ____  ____  ____  ____  ____  ____
 72
65
 73
2
 40
3.048
 49
2.54
 74
0
 49
-0.508
 74
0
  0
LTYPE
  5
34
330
2
100
AcDbSymbolTableRecord
100
AcDbLinetypeTableRecord
  2
DASHED2
 70
0
  3
Dashed (.5x) _ _ _ _ _ _ _ _ _ _ _ _ _ _
 72
65
 73
2
 40
0.762
 49
0.635
 74
0
 49
-0.127
 74
0
  0
LTYPE
  5
35
330
2
100
AcDbSymbolTableRecord
100
AcDbLinetypeTableRecord
  2
PHANTOM
 70
0
  3
Phantom ______  __  __  ______  __  __  ______
 72
65
 73
6
 40
6.35
 49
3.175
 74
0
 49
-0.635
 74
0
 49
0.635
 74
0
 49
-0.635
 74
0
 49
0.635
 74
0
 49
-0.635
 74
0
  0
LTYPE
  5
36
330
2
100
AcDbSymbolTableRecord
100
AcDbLinetypeTableRecord
  2
PHANTOMX2
 70
0
  3
Phantom (2x)____________    ____    ____    ____________
 72
65
 73
6
 40
10.795
 49
6.35
 74
0
 49
-0.635
 74
0
 49
1.27
 74
0
 49
-0.635
 74
0
 49
1.27
 74
0
 49
-0.635
 74
0
  0
LTYPE
  5
37
330
2
100
AcDbSymbolTableRecord
100
AcDbLinetypeTableRecord
  2
PHANTOM2
 70
0
  3
Phantom (.5x) ___ _ _ ___ _ _ ___ _ _ ___ _ _ ___
 72
65
 73
6
 40
3.175
 49
1.587
 74
0
 49
-0.318
 74
0
 49
0.318
 74
0
 49
-0.318
 74
0
 49
0.318
 74
0
 49
-0.318
 74
0
  0
LTYPE
  5
38
330
2
100
AcDbSymbolTableRecord
100
AcDbLinetypeTableRecord
  2
DASHDOT
 70
0
  3
Dash dot __ . __ . __ . __ . __ . __ . __ . __
 72
65
 73
4
 40
3.556
 49
2.54
 74
0
 49
-0.508
 74
0
 49
0.0
 74
0
 49
-0.508
 74
0
  0
LTYPE
  5
39
330
2
100
AcDbSymbolTableRecord
100
AcDbLinetypeTableRecord
  2
DASHDOTX2
 70
0
  3
Dash dot (2x) ____  .  ____  .  ____  .  ____
 72
65
 73
4
 40
6.096
 49
5.08
 74
0
 49
-0.508
 74
0
 49
0.0
 74
0
 49
-0.508
 74
0
  0
LTYPE
  5
3A
330
2
100
AcDbSymbolTableRecord
100
AcDbLinetypeTableRecord
  2
DASHDOT2
 70
0
  3
Dash dot (.5x) _ . _ . _ . _ . _ . _ . _ . _
 72
65
 73
4
 40
1.778
 49
1.27
 74
0
 49
-0.254
 74
0
 49
0.0
 74
0
 49
-0.254
 74
0
  0
LTYPE
  5
3B
330
2
100
AcDbSymbolTableRecord
100
AcDbLinetypeTableRecord
  2
DOT
 70
0
  3
Dot .  .  .  .  .  .  .  .  .  .  .  .  .  .  .  .
 72
65
 73
2
 40
0.508
 49
0.0
 74
0
 49
-0.508
 74
0
  0
LTYPE
  5
3C
330
2
100
AcDbSymbolTableRecord
100
AcDbLinetypeTableRecord
  2
DOTX2
 70
0
  3
Dot (2x) .    .    .    .    .    .    .    . 
 72
65
 73
2
 40
1.016
 49
0.0
 74
0
 49
-1.016
 74
0
  0
LTYPE
  5
3D
330
2
100
AcDbSymbolTableRecord
100
AcDbLinetypeTableRecord
  2
DOT2
 70
0
  3
Dot (.5) . . . . . . . . . . . . . . . . . . . 
 72
65
 73
2
 40
0.254
 49
0.0
 74
0
 49
-0.254
 74
0
  0
LTYPE
  5
3E
330
2
100
AcDbSymbolTableRecord
100
AcDbLinetypeTableRecord
  2
DIVIDE
 70
0
  3
Divide __ . . __ . . __ . . __ . . __ . . __
 72
65
 73
6
 40
4.064
 49
2.54
 74
0
 49
-0.508
 74
0
 49
0.0
 74
0
 49
-0.508
 74
0
 49
0.0
 74
0
 49
-0.508
 74
0
  0
LTYPE
  5
3F
330
2
100
AcDbSymbolTableRecord
100
AcDbLinetypeTableRecord
  2
DIVIDEX2
 70
0
  3
Divide (2x) ____  . .  ____  . .  ____  . .  ____
 72
65
 73
6
 40
6.604
 49
5.08
 74
0
 49
-0.508
 74
0
 49
0.0
 74
0
 49
-0.508
 74
0
 49
0.0
 74
0
 49
-0.508
 74
0
  0
LTYPE
  5
40
330
2
100
AcDbSymbolTableRecord
100
AcDbLinetypeTableRecord
  2
DIVIDE2
 70
0
  3
Divide(.5x) _ . _ . _ . _ . _ . _ . _ . _
 72
65
 73
6
 40
2.032
 49
1.27
 74
0
 49
-0.254
 74
0
 49
0.0
 74
0
 49
-0.254
 74
0
 49
0.0
 74
0
 49
-0.254
 74
0
  0
ENDTAB
  0
TABLE
  2
LAYER
  5
1
330
0
100
AcDbSymbolTable
 70
4
  0
LAYER
  5
27
330
1
100
AcDbSymbolTableRecord
100
AcDbLayerTableRecord
  2
0
 70
0
 62
7
  6
Continuous
370
-3
390
13
347
21
  0
LAYER
  5
28
330
1
100
AcDbSymbolTableRecord
100
AcDbLayerTableRecord
  2
Defpoints
 70
0
 62
7
  6
Continuous
290
0
370
-3
390
13
347
21
  0
LAYER
  5
8A
330
1
100
AcDbSymbolTableRecord
100
AcDbLayerTableRecord
  2
CUT
 70
0
 62
1
  6
Continuous
370
-3
390
13
347
21
  0
LAYER
  5
8B
330
1
100
AcDbSymbolTableRecord
100
AcDbLayerTableRecord
  2
ENGRAVE-LABEL
 70
0
 62
3
  6
Continuous
370
-3
390
13
347
21
  0
ENDTAB
  0
TABLE
  2
STYLE
  5
5
330
0
100
AcDbSymbolTable
 70
26
  0
STYLE
  5
29
330
5
100
AcDbSymbolTableRecord
100
AcDbTextStyleTableRecord
  2
Standard
 70
0
 40
0.0
 41
1.0
 50
0.0
 71
0
 42
2.5
  3
txt
  4

  0
STYLE
  5
41
330
5
100
AcDbSymbolTableRecord
100
AcDbTextStyleTableRecord
  2
OpenSans-Light
 70
0
 40
0.0
 41
1.0
 50
0.0
 71
0
 42
2.5
  3
OpenSans-Light.ttf
  4

  0
STYLE
  5
42
330
5
100
AcDbSymbolTableRecord
100
AcDbTextStyleTableRecord
  2
OpenSans-Light-Italic
 70
0
 40
0.0
 41
1.0
 50
0.0
 71
0
 42
2.5
  3
OpenSans-LightItalic.ttf
  4

  0
STYLE
  5
43
330
5
100
AcDbSymbolTableRecord
100
AcDbTextStyleTableRecord
  2
OpenSans
 70
0
 40
0.0
 41
1.0
 50
0.0
 71
0
 42
2.5
  3
OpenSans-Regular.ttf
  4

  0
STYLE
  5
44
330
5
100
AcDbSymbolTableRecord
100
AcDbTextStyleTableRecord
  2
OpenSans-Italic
 70
0
 40
0.0
 41
1.0
 50
0.0
 71
0
 42
2.5
  3
OpenSans-Italic.ttf
  4

  0
STYLE
  5
45
330
5
100
AcDbSymbolTableRecord
100
AcDbTextStyleTableRecord
  2
OpenSans-SemiBold
 70
0
 40
0.0
 41
1.0
 50
0.0
 71
0
 42
2.5
  3
OpenSans-SemiBold.ttf
  4

  0
STYLE
  5
46
330
5
100
AcDbSymbolTableRecord
100
AcDbTextStyleTableRecord
  2
OpenSans-SemiBoldItalic
 70
0
 40
0.0
 41
1.0
 50
0.0
 71
0
 42
2.5
  3
OpenSans-SemiBoldItalic.ttf
  4

  0
STYLE
  5
47
330
5
100
AcDbSymbolTableRecord
100
AcDbTextStyleTableRecord
  2
OpenSans-Bold
 70
0
 40
0.0
 41
1.0
 50
0.0
 71
0
 42
2.5
  3
OpenSans-Bold.ttf
  4

  0
STYLE
  5
48
330
5
100
AcDbSymbolTableRecord
100
AcDbTextStyleTableRecord
  2
OpenSans-BoldItalic
 70
0
 40
0.0
 41
1.0
 50
0.0
 71
0
 42
2.5
  3
OpenSans-BoldItalic.ttf
  4

  0
STYLE
  5
49
330
5
100
AcDbSymbolTableRecord
100
AcDbTextStyleTableRecord
  2
OpenSans-ExtraBold
 70
0
 40
0.0
 41
1.0
 50
0.0
 71
0
 42
2.5
  3
OpenSans-ExtraBold.ttf
  4

  0
STYLE
  5
4A
330
5
100
AcDbSymbolTableRecord
100
AcDbTextStyleTableRecord
  2
OpenSans-ExtraBoldItalic
 70
0
 40
0.0
 41
1.0
 50
0.0
 71
0
 42
2.5
  3
OpenSans-ExtraBoldItalic.ttf
  4

  0
STYLE
  5
4B
330
5
100
AcDbSymbolTableRecord
100
AcDbTextStyleTableRecord
  2
OpenSansCondensed-Bold
 70
0
 40
0.0
 41
1.0
 50
0.0
 71
0
 42
2.5
  3
OpenSansCondensed-Bold.ttf
  4

  0
STYLE
  5
4C
330
5
100
AcDbSymbolTableRecord
100
AcDbTextStyleTableRecord
  2
OpenSansCondensed-Light
 70
0
 40
0.0
 41
1.0
 50
0.0
 71
0
 42
2.5
  3
OpenSansCondensed-Light.ttf
  4

  0
STYLE
  5
4D
330
5
100
AcDbSymbolTableRecord
100
AcDbTextStyleTableRecord
  2
OpenSansCondensed-Italic
 70
0
 40
0.0
 41
1.0
 50
0.0
 71
0
 42
2.5
  3
OpenSansCondensed-LightItalic.ttf
  4

  0
STYLE
  5
4E
330
5
100
AcDbSymbolTableRecord
100
AcDbTextStyleTableRecord
  2
LiberationSans
 70
0
 40
0.0
 41
1.0
 50
0.0
 71
0
 42
2.5
  3
LiberationSans-Regular.ttf
  4

  0
STYLE
  5
4F
330
5
100
AcDbSymbolTableRecord
100
AcDbTextStyleTableRecord
  2
LiberationSans-Bold
 70
0
 40
0.0
 41
1.0
 50
0.0
 71
0
 42
2.5
  3
LiberationSans-Bold.ttf
  4

  0
STYLE
  5
50
330
5
100
AcDbSymbolTableRecord
100
AcDbTextStyleTableRecord
  2
LiberationSans-BoldItalic
 70
0
 40
0.0
 41
1.0
 50
0.0
 71
0
 42
2.5
  3
LiberationSans-BoldItalic.ttf
  4

  0
STYLE
  5
51
330
5
100
AcDbSymbolTableRecord
100
AcDbTextStyleTableRecord
  2
LiberationSans-Italic
 70
0
 40
0.0
 41
1.0
 50
0.0
 71
0
 42
2.5
  3
LiberationSans-Italic.ttf
  4

  0
STYLE
  5
52
330
5
100
AcDbSymbolTableRecord
100
AcDbTextStyleTableRecord
  2
LiberationSerif
 70
0
 40
0.0
 41
1.0
 50
0.0
 71
0
 42
2.5
  3
LiberationSerif-Regular.ttf
  4

  0
STYLE
  5
53
330
5
100
AcDbSymbolTableRecord
100
AcDbTextStyleTableRecord
  2
LiberationSerif-Bold
 70
0
 40
0.0
 41
1.0
 50
0.0
 71
0
 42
2.5
  3
LiberationSerif-Bold.ttf
  4

  0
STYLE
  5
54
330
5
100
AcDbSymbolTableRecord
100
AcDbTextStyleTableRecord
  2
LiberationSerif-BoldItalic
 70
0
 40
0.0
 41
1.0
 50
0.0
 71
0
 42
2.5
  3
LiberationSerif-BoldItalic.ttf
  4

  0
STYLE
  5
55
330
5
100
AcDbSymbolTableRecord
100
AcDbTextStyleTableRecord
  2
LiberationSerif-Italic
 70
0
 40
0.0
 41
1.0
 50
0.0
 71
0
 42
2.5
  3
LiberationSerif-Italic.ttf
  4

  0
STYLE
  5
56
330
5
100
AcDbSymbolTableRecord
100
AcDbTextStyleTableRecord
  2
LiberationMono
 70
0
 40
0.0
 41
1.0
 50
0.0
 71
0
 42
2.5
  3
LiberationMono-Regular.ttf
  4

  0
STYLE
  5
57
330
5
100
AcDbSymbolTableRecord
100
AcDbTextStyleTableRecord
  2
LiberationMono-Bold
 70
0
 40
0.0
 41
1.0
 50
0.0
 71
0
 42
2.5
  3
LiberationMono-Bold.ttf
  4

  0
STYLE
  5
58
330
5
100
AcDbSymbolTableRecord
100
AcDbTextStyleTableRecord
  2
LiberationMono-BoldItalic
 70
0
 40
0.0
 41
1.0
 50
0.0
 71
0
 42
2.5
  3
LiberationMono-BoldItalic.ttf
  4

  0
STYLE
  5
59
330
5
100
AcDbSymbolTableRecord
100
AcDbTextStyleTableRecord
  2
LiberationMono-Italic
 70
0
 40
0.0
 41
1.0
 50
0.0
 71
0
 42
2.5
  3
LiberationMono-Italic.ttf
  4

  0
ENDTAB
  0
TABLE
  2
VIEW
  5
7
330
0
100
AcDbSymbolTable
 70
0
  0
ENDTAB
  0
TABLE
  2
UCS
  5
6
330
0
100
AcDbSymbolTable
 70
0
  0
ENDTAB
  0
TABLE
  2
APPID
  5
3
330
0
100
AcDbSymbolTable
 70
3
  0
APPID
  5
2A
330
3
100
AcDbSymbolTableRecord
100
AcDbRegAppTableRecord
  2
ACAD
 70
0
  0
APPID
  5
A3
330
3
100
AcDbSymbolTableRecord
100
AcDbRegAppTableRecord
  2
HATCHBACKGROUNDCOLOR
 70
0
  0
APPID
  5
A4
330
3
100
AcDbSymbolTableRecord
100
AcDbRegAppTableRecord
  2
EZDXF
 70
0
  0
ENDTAB
  0
TABLE
  2
DIMSTYLE
  5
4
330
0
100
AcDbSymbolTable
 70
12
100
AcDbDimStyleTable
  0
DIMSTYLE
105
2B
330
4
100
AcDbSymbolTableRecord
100
AcDbDimStyleTableRecord
  2
Standard
 70
0
 40
1.0
 41
2.5
 42
0.625
 43
3.75
 44
1.25
 45
0.0
 46
0.0
 47
0.0
 48
0.0
 49
2.5
140
2.5
141
2.5
142
0.0
143
0.03937007874
144
1.0
145
0.0
146
1.0
147
0.625
148
0.0
 69
0
 70
0
 71
0
 72
0
 73
0
 74
0
 75
0
 76
0
 77
1
 78
8
 79
3
170
0
171
3
172
1
173
0
174
0
175
0
176
0
177
0
178
0
179
2
271
2
272
2
273
2
274
3
275
0
276
0
277
2
278
44
279
0
280
0
281
0
282
0
283
0
284
8
285
0
286
0
288
0
289
3
290
0
371
-2
372
-2
  0
DIMSTYLE
105
73
330
4
100
AcDbSymbolTableRecord
100
AcDbDimStyleTableRecord
  2
EZDXF
 70
0
 40
1.0
 41
0.175
 42
0.125
 43
3.75
 44
0.375
 45
0.0
 46
0.0
 47
0.0
 48
0.0
 49
2.5
140
0.25
141
2.5
142
0.0
143
0.03937007874
144
100.0
145
0.0
146
0.5
147
0.1
148
0.0
 69
0
 70
0
 71
0
 72
0
 73
0
 74
0
 75
0
 76
0
 77
1
 78
12
 79
3
170
0
171
3
172
1
173
0
174
0
175
0
176
0
177
0
178
0
179
2
271
2
272
2
273
2
274
3
275
0
276
0
277
2
278
46
279
2
280
0
281
0
282
0
283
0
284
8
285
0
286
0
288
1
289
3
290
0
340
4C
342
74
371
-2
372
-2
  0
DIMSTYLE
105
7C
330
4
100
AcDbSymbolTableRecord
100
AcDbDimStyleTableRecord
  2
EZ_M_100_H25_CM
 70
0
 40
1.0
 41
0.25
 42
0.125
 43
3.75
 44
0.375
 45
0.0
 46
0.0
 47
0.0
 48
0.0
 49
2.5
140
0.25
141
2.5
142
0.125
143
0.03937007874
144
100.0
145
0.0
146
0.5
147
0.1
148
0.0
 69
0
 70
0
 71
0
 72
0
 73
0
 74
0
 75
0
 76
0
 77
1
 78
12
 79
3
170
0
171
3
172
1
173
0
174
0
175
0
176
0
177
0
178
0
179
2
271
2
272
2
273
2
274
3
275
0
276
0
277
2
278
46
279
2
280
0
281
0
282
0
283
0
284
8
285
0
286
0
288
1
289
3
290
0
340
4C
371
-2
372
-2
  0
DIMSTYLE
105
7D
330
4
100
AcDbSymbolTableRecord
100
AcDbDimStyleTableRecord
  2
EZ_M_50_H25_CM
 70
0
 40
1.0
 41
0.125
 42
0.0625
 43
3.75
 44
0.1875
 45
0.0
 46
0.0
 47
0.0
 48
0.0
 49
2.5
140
0.125
141
2.5
142
0.0625
143
0.03937007874
144
100.0
145
0.0
146
0.5
147
0.05
148
0.0
 69
0
 70
0
 71
0
 72
0
 73
0
 74
0
 75
0
 76
0
 77
1
 78
12
 79
3
170
0
171
3
172
1
173
0
174
0
175
0
176
0
177
0
178
0
179
2
271
2
272
2
273
2
274
3
275
0
276
0
277
2
278
46
279
2
280
0
281
0
282
0
283
0
284
8
285
0
286
0
288
1
289
3
290
0
340
4C
371
-2
372
-2
  0
DIMSTYLE
105
7E
330
4
100
AcDbSymbolTableRecord
100
AcDbDimStyleTableRecord
  2
EZ_M_25_H25_CM
 70
0
 40
1.0
 41
0.0625
 42
0.03125
 43
3.75
 44
0.09375
 45
0.0
 46
0.0
 47
0.0
 48
0.0
 49
2.5
140
0.0625
141
2.5
142
0.03125
143
0.03937007874
144
100.0
145
0.0
146
0.5
147
0.025
148
0.0
 69
0
 70
0
 71
0
 72
0
 73
0
 74
0
 75
0
 76
0
 77
1
 78
12
 79
3
170
0
171
3
172
1
173
0
174
0
175
0
176
0
177
0
178
0
179
2
271
2
272
2
273
2
274
3
275
0
276
0
277
2
278
46
279
2
280
0
281
0
282
0
283
0
284
8
285
0
286
0
288
1
289
3
290
0
340
4C
371
-2
372
-2
  0
DIMSTYLE
105
7F
330
4
100
AcDbSymbolTableRecord
100
AcDbDimStyleTableRecord
  2
EZ_M_20_H25_CM
 70
0
 40
1.0
 41
0.05
 42
0.025
 43
3.75
 44
0.07500000000000001
 45
0.0
 46
0.0
 47
0.0
 48
0.0
 49
2.5
140
0.05
141
2.5
142
0.025
143
0.03937007874
144
100.0
145
0.0
146
0.5
147
0.020000000000000004
148
0.0
 69
0
 70
0
 71
0
 72
0
 73
0
 74
0
 75
0
 76
0
 77
1
 78
12
 79
3
170
0
171
3
172
1
173
0
174
0
175
0
176
0
177
0
178
0
179
2
271
2
272
2
273
2
274
3
275
0
276
0
277
2
278
46
279
2
280
0
281
0
282
0
283
0
284
8
285
0
286
0
288
1
289
3
290
0
340
4C
371
-2
372
-2
  0
DIMSTYLE
105
80
330
4
100
AcDbSymbolTableRecord
100
AcDbDimStyleTableRecord
  2
EZ_M_10_H25_CM
 70
0
 40
1.0
 41
0.025
 42
0.0125
 43
3.75
 44
0.037500000000000006
 45
0.0
 46
0.0
 47
0.0
 48
0.0
 49
2.5
140
0.025
141
2.5
142
0.0125
143
0.03937007874
144
100.0
145
0.0
146
0.5
147
0.010000000000000002
148
0.0
 69
0
 70
0
 71
0
 72
0
 73
0
 74
0
 75
0
 76
0
 77
1
 78
12
 79
3
170
0
171
3
172
1
173
0
174
0
175
0
176
0
177
0
178
0
179
2
271
2
272
2
273
2
274
3
275
0
276
0
277
2
278
46
279
2
280
0
281
0
282
0
283
0
284
8
285
0
286
0
288
1
289
3
290
0
340
4C
371
-2
372
-2
  0
DIMSTYLE
105
81
330
4
100
AcDbSymbolTableRecord
100
AcDbDimStyleTableRecord
  2
EZ_M_5_H25_CM
 70
0
 40
1.0
 41
0.0125
 42
0.00625
 43
3.75
 44
0.018750000000000003
 45
0.0
 46
0.0
 47
0.0
 48
0.0
 49
2.5
140
0.0125
141
2.5
142
0.00625
143
0.03937007874
144
100.0
145
0.0
146
0.5
147
0.005000000000000001
148
0.0
 69
0
 70
0
 71
0
 72
0
 73
0
 74
0
 75
0
 76
0
 77
1
 78
12
 79
3
170
0
171
3
172
1
173
0
174
0
175
0
176
0
177
0
178
0
179
2
271
2
272
2
273
2
274
3
275
0
276
0
277
2
278
46
279
2
280
0
281
0
282
0
283
0
284
8
285
0
286
0
288
1
289
3
290
0
340
4C
371
-2
372
-2
  0
DIMSTYLE
105
82
330
4
100
AcDbSymbolTableRecord
100
AcDbDimStyleTableRecord
  2
EZ_M_1_H25_CM
 70
0
 40
1.0
 41
0.0025
 42
0.00125
 43
3.75
 44
0.00375
 45
0.0
 46
0.0
 47
0.0
 48
0.0
 49
2.5
140
0.0025
141
2.5
142
0.00125
143
0.03937007874
144
100.0
145
0.0
146
0.5
147
0.001
148
0.0
 69
0
 70
0
 71
0
 72
0
 73
0
 74
0
 75
0
 76
0
 77
1
 78
12
 79
3
170
0
171
3
172
1
173
0
174
0
175
0
176
0
177
0
178
0
179
2
271
2
272
2
273
2
274
3
275
0
276
0
277
2
278
46
279
2
280
0
281
0
282
0
283
0
284
8
285
0
286
0
288
1
289
3
290
0
340
4C
371
-2
372
-2
  0
DIMSTYLE
105
83
330
4
100
AcDbSymbolTableRecord
100
AcDbDimStyleTableRecord
  2
EZ_RADIUS
 70
0
 40
1.0
 41
0.25
 42
0.125
 43
3.75
 44
0.375
 45
0.0
 46
0.0
 47
0.0
 48
0.0
 49
2.5
140
0.25
141
0.0
142
0.0
143
0.03937007874
144
100.0
145
0.0
146
0.5
147
0.1
148
0.0
 69
0
 70
0
 71
0
 72
0
 73
0
 74
0
 75
0
 76
0
 77
1
 78
12
 79
3
170
0
171
3
172
0
173
0
174
0
175
0
176
0
177
0
178
0
179
2
271
2
272
2
273
2
274
3
275
0
276
0
277
2
278
46
279
1
280
0
281
0
282
0
283
0
284
8
285
0
286
0
288
1
289
3
290
0
340
4C
342
84
371
-2
372
-2
  0
DIMSTYLE
105
88
330
4
100
AcDbSymbolTableRecord
100
AcDbDimStyleTableRecord
  2
EZ_RADIUS_INSIDE
 70
0
 40
1.0
 41
0.25
 42
0.125
 43
3.75
 44
0.375
 45
0.0
 46
0.0
 47
0.0
 48
0.0
 49
2.5
140
0.25
141
0.0
142
0.0
143
0.03937007874
144
100.0
145
0.0
146
0.5
147
0.1
148
0.0
 69
0
 70
0
 71
0
 72
0
 73
0
 74
0
 75
0
 76
0
 77
0
 78
12
 79
3
170
0
171
3
172
0
173
0
174
1
175
0
176
0
177
0
178
0
179
2
271
2
272
2
273
2
274
3
275
0
276
0
277
2
278
46
279
0
280
0
281
0
282
0
283
0
284
8
285
0
286
0
288
1
289
0
290
0
340
4C
342
84
371
-2
372
-2
  0
DIMSTYLE
105
89
330
4
100
AcDbSymbolTableRecord
100
AcDbDimStyleTableRecord
  2
EZ_CURVED
 70
0
 40
1.0
 41
0.25
 42
0.125
 43
3.75
 44
0.375
 45
0.0
 46
0.0
 47
0.0
 48
0.0
 49
2.5
140
0.25
141
2.5
142
0.0
143
0.03937007874
144
100.0
145
0.0
146
0.5
147
0.1
148
0.0
 69
0
 70
0
 71
0
 72
0
 73
0
 74
0
 75
0
 76
0
 77
1
 78
12
 79
2
 90
2
170
0
171
3
172
1
173
0
174
0
175
0
176
0
177
0
178
0
179
2
271
2
272
2
273
2
274
3
275
0
276
0
277
2
278
46
279
2
280
0
281
0
282
0
283
0
284
8
285
0
286
0
288
1
289
3
290
0
340
4C
371
-2
372
-2
  0
ENDTAB
  0
TABLE
  2
BLOCK_RECORD
  5
9
330
0
100
AcDbSymbolTable
 70
5
  0
BLOCK_RECORD
  5
17
330
9
100
AcDbSymbolTableRecord
100
AcDbBlockTableRecord
  2
*Model_Space
340
1A
 70
0
280
1
281
0
  0
BLOCK_RECORD
  5
1B
330
9
100
AcDbSymbolTableRecord
100
AcDbBlockTableRecord
  2
*Paper_Space
340
1E
 70
0
280
1
281
0
  0
BLOCK_RECORD
  5
74
330
9
100
AcDbSymbolTableRecord
100
AcDbBlockTableRecord
  2
_ARCHTICK
340
0
 70
0
280
1
281
0
  0
BLOCK_RECORD
  5
78
330
9
100
AcDbSymbolTableRecord
100
AcDbBlockTableRecord
  2
_CLOSEDFILLED
340
0
 70
0
280
1
281
0
  0
BLOCK_RECORD
  5
84
330
9
100
AcDbSymbolTableRecord
100
AcDbBlockTableRecord
  2
_CLOSEDBLANK
340
0
 70
0
280
1
281
0
  0
ENDTAB
  0
ENDSEC
  0
SECTION
  2
BLOCKS
  0
BLOCK
  5
18
330
17
100
AcDbEntity
  8
0
100
AcDbBlockBegin
  2
*Model_Space
 70
0
 10
0.0
 20
0.0
 30
0.0
  3
*Model_Space
  1

  0
ENDBLK
  5
19
330
17
100
AcDbEntity
  8
0
100
AcDbBlockEnd
  0
BLOCK
  5
1C
330
1B
100
AcDbEntity
  8
0
100
AcDbBlockBegin
  2
*Paper_Space
 70
0
 10
0.0
 20
0.0
 30
0.0
  3
*Paper_Space
  1

  0
ENDBLK
  5
1D
330
1B
100
AcDbEntity
  8
0
100
AcDbBlockEnd
  0
BLOCK
  5
75
330
74
100
AcDbEntity
  8
0
100
AcDbBlockBegin
  2
_ARCHTICK
 70
0
 10
0.0
 20
0.0
 30
0.0
  3
_ARCHTICK
  1

  0
LWPOLYLINE
  5
77
330
74
100
AcDbEntity
  8
0
  6
BYBLOCK
 62
0
100
AcDbPolyline
 90
2
 70
0
 43
0.15
 10
-0.5
 20
-0.5
 10
0.5
 20
0.5
  0
ENDBLK
  5
76
330
74
100
AcDbEntity
  8
0
100
AcDbBlockEnd
  0
BLOCK
  5
79
330
78
100
AcDbEntity
  8
0
100
AcDbBlockBegin
  2
_CLOSEDFILLED
 70
0
 10
0.0
 20
0.0
 30
0.0
  3
_CLOSEDFILLED
  1

  0
SOLID
  5
7B
330
78
100
AcDbEntity
  8
0
  6
BYBLOCK
 62
0
100
AcDbTrace
 10
-1.0
 20
0.16439898372402537
 30
0.0
 11
0.0
 21
0.0
 31
0.0
 12
-1.0
 22
-0.16439898372402537
 32
0.0
 13
-1.0
 23
-0.16439898372402537
 33
0.0
  0
ENDBLK
  5
7A
330
78
100
AcDbEntity
  8
0
100
AcDbBlockEnd
  0
BLOCK
  5
85
330
84
100
AcDbEntity
  8
0
100
AcDbBlockBegin
  2
_CLOSEDBLANK
 70
0
 10
0.0
 20
0.0
 30
0.0
  3
_CLOSEDBLANK
  1

  0
LWPOLYLINE
  5
87
330
84
100
AcDbEntity
  8
0
  6
BYBLOCK
 62
0
100
AcDbPolyline
 90
3
 70
1
 10
-1.0
 20
0.16439898372402537
 10
0.0
 20
0.0
 10
-1.0
 20
-0.16439898372402537
  0
ENDBLK
  5
86
330
84
100
AcDbEntity
  8
0
100
AcDbBlockEnd
  0
ENDSEC
  0
SECTION
  2
ENTITIES
  0
LWPOLYLINE
  5
8C
330
17
100
AcDbEntity
  8
CUT
100
AcDbPolyline
 90
180
 70
1
 10
816.9999999999997
 20
395.59999999999985
 10
816.9721762039729
 20
409.86416270901134
 10
816.8308773784679
 20
424.1532764731726
 10
816.512773156575
 20
438.4838705012496
 10
815.9654408312176
 20
452.8655331667971
 10
815.1408583259322
 20
467.30175478131014
 10
813.99320017767
 20
481.79024041033944
 10
812.4778857833594
 20
496.3229994551755
 10
810.5512300417938
 20
510.88633505313726
 10
808.1704683894679
 20
525.4608071823692
 10
805.2940554656957
 20
540.0212253232856
 10
801.8821825197265
 20
554.5367185142418
 10
797.8974743230542
 20
568.9709255553178
 10
793.3058282594766
 20
583.2823427122247
 10
788.0773531916549
 20
597.4248587371031
 10
782.1873573179204
 20
611.3484963402611
 10
775.6173252364351
 20
625.000365095177
 10
768.355817228799
 20
638.3258135561166
 10
760.3992205626578
 20
651.2697493107094
 10
751.7522852004815
 20
663.7780766927208
 10
742.4283857860111
 20
675.7991853526663
 10
732.4494682347315
 20
687.2854113466868
 10
721.8456615523639
 20
698.1943879956144
 10
710.6545613693904
 20
708.4902077480967
 10
698.920218007702
 20
718.1443286787764
 10
686.6918853057756
 20
727.1361787437145
 10
674.0226039064823
 20
735.4534350282195
 10
660.967702188909
 20
743.091980795715
 10
647.5832987433714
 20
750.0555669401937
 10
633.9248828549952
 20
756.3552237378829
 10
620.0460356120417
 20
762.0084818198313
 10
605.9973364107251
 20
767.0384674230586
 10
591.8254803765418
 20
771.4729366753938
 10
577.5726138618963
 20
775.343308193927
 10
563.2758794112059
 20
778.683744356622
 10
548.9671493774238
 20
781.5303210896313
 10
534.6729189919756
 20
783.9203156189508
 10
520.4143248183806
 20
785.8916328443239
 10
506.20725242804895
 20
787.482385106593
 10
492.06249681737427
 20
788.730638550217
 10
477.98593930110724
 20
789.6743442774298
 10
463.97870375907326
 20
790.351488964434
 10
450.03725059937597
 20
790.8005406288398
 10
436.15335302086385
 20
791.061372430413
 10
422.31386005623955
 20
791.1771953852297
 10
408.49999999999983
 20
791.1999999999997
 10
394.68613994376017
 20
791.1771953852297
 10
380.84664697913576
 20
791.061372430413
 10
366.9627494006237
 20
790.8005406288398
 10
353.0212962409264
 20
790.351488964434
 10
339.0140606988925
 20
789.6743442774298
 10
324.9375031826254
 20
788.730638550217
 10
310.7927475719507
 20
787.482385106593
 10
296.58567518161914
 20
785.8916328443239
 10
282.32708100802404
 20
783.9203156189508
 10
268.032850622576
 20
781.5303210896313
 10
253.7241205887937
 20
778.683744356622
 10
239.42738613810334
 20
775.343308193927
 10
225.1745196234578
 20
771.4729366753938
 10
211.00266358927453
 20
767.0384674230586
 10
196.95396438795814
 20
762.0084818198313
 10
183.0751171450045
 20
756.3552237378829
 10
169.41670125662827
 20
750.0555669401937
 10
156.03229781109067
 20
743.091980795715
 10
142.97739609351726
 20
735.4534350282195
 10
130.30811469422406
 20
727.1361787437145
 10
118.07978199229757
 20
718.1443286787764
 10
106.3454386306093
 20
708.4902077480967
 10
95.15433844763561
 20
698.1943879956144
 10
84.55053176526832
 20
687.2854113466869
 10
74.57161421398871
 20
675.7991853526664
 10
65.24771479951812
 20
663.7780766927208
 10
56.600779437341885
 20
651.2697493107095
 10
48.64418277120075
 20
638.3258135561166
 10
41.38267476356452
 20
625.000365095177
 10
34.812642682079286
 20
611.3484963402611
 10
28.922646808344723
 20
597.4248587371031
 10
23.694171740523075
 20
583.2823427122247
 10
19.102525676945447
 20
568.970925555318
 10
15.117817480273175
 20
554.5367185142419
 10
11.70594453430391
 20
540.0212253232858
 10
8.829531610531774
 20
525.4608071823692
 10
6.448769958205844
 20
510.8863350531373
 10
4.5221142166402615
 20
496.3229994551755
 10
3.00679982232964
 20
481.79024041033944
 10
1.859141674067473
 20
467.30175478131014
 10
1.034559168781982
 20
452.86553316679704
 10
0.4872268434246507
 20
438.4838705012497
 10
0.16912262153181246
 20
424.1532764731727
 10
0.027823796026723357
 20
409.86416270901145
 10
0.0
 20
395.5999999999999
 10
0.027823796026723357
 20
381.33583729098837
 10
0.16912262153181246
 20
367.0467235268271
 10
0.4872268434246507
 20
352.7161294987501
 10
1.0345591687818683
 20
338.33446683320255
 10
1.859141674067473
 20
323.89824521868945
 10
3.00679982232964
 20
309.4097595896602
 10
4.5221142166402615
 20
294.87700054482434
 10
6.448769958205844
 20
280.3136649468625
 10
8.82953161053183
 20
265.73919281763057
 10
11.70594453430391
 20
251.17877467671406
 10
15.117817480273118
 20
236.6632814857579
 10
19.102525676945504
 20
222.2290744446819
 10
23.694171740523075
 20
207.91765728777492
 10
28.92264680834478
 20
193.7751412628965
 10
34.81264268207934
 20
179.8515036597385
 10
41.38267476356452
 20
166.1996349048228
 10
48.64418277120063
 20
152.87418644388325
 10
56.600779437341885
 20
139.93025068929038
 10
65.24771479951801
 20
127.42192330727903
 10
74.5716142139886
 20
115.40081464733339
 10
84.5505317652682
 20
103.91458865331288
 10
95.15433844763572
 20
93.00561200438523
 10
106.34543863060935
 20
82.70979225190297
 10
118.07978199229763
 20
73.05567132122314
 10
130.30811469422395
 20
64.06382125628522
 10
142.9773960935173
 20
55.74656497178006
 10
156.03229781109056
 20
48.108019204284744
 10
169.41670125662833
 20
41.144433059805976
 10
183.07511714500438
 20
34.844776262116795
 10
196.95396438795785
 20
29.191518180168543
 10
211.00266358927462
 20
24.16153257694117
 10
225.17451962345768
 20
19.72706332460598
 10
239.42738613810346
 20
15.856691806072718
 10
253.72412058879362
 20
12.516255643377747
 10
268.032850622576
 20
9.669678910368305
 10
282.3270810080239
 20
7.27968438104898
 10
296.58567518161925
 20
5.308367155675796
 10
310.7927475719507
 20
3.717614893406619
 10
324.9375031826252
 20
2.4693614497826957
 10
339.0140606988925
 20
1.5256557225699794
 10
353.02129624092623
 20
0.8485110355656502
 10
366.96274940062375
 20
0.399459371159935
 10
380.8466469791357
 20
0.13862756958661748
 10
394.6861399437602
 20
0.022804614769995624
 10
408.4999999999998
 20
0.0
 10
422.3138600562396
 20
0.022804614769995624
 10
436.15335302086385
 20
0.13862756958667433
 10
450.03725059937574
 20
0.399459371159935
 10
463.97870375907326
 20
0.8485110355657071
 10
477.985939301107
 20
1.5256557225699794
 10
492.06249681737427
 20
2.4693614497826957
 10
506.20725242804883
 20
3.7176148934065623
 10
520.4143248183807
 20
5.308367155675853
 10
534.6729189919756
 20
7.279684381048867
 10
548.9671493774238
 20
9.669678910368361
 10
563.2758794112059
 20
12.51625564337769
 10
577.5726138618961
 20
15.856691806072718
 10
591.8254803765418
 20
19.727063324605922
 10
605.9973364107249
 20
24.161532576941113
 10
620.0460356120417
 20
29.19151818016843
 10
633.9248828549951
 20
34.844776262116795
 10
647.5832987433715
 20
41.14443305980603
 10
660.967702188909
 20
48.10801920428463
 10
674.0226039064826
 20
55.746564971780174
 10
686.6918853057755
 20
64.06382125628517
 10
698.9202180077018
 20
73.05567132122309
 10
710.6545613693903
 20
82.70979225190297
 10
721.8456615523638
 20
93.00561200438511
 10
732.4494682347315
 20
103.91458865331288
 10
742.428385786011
 20
115.40081464733328
 10
751.7522852004817
 20
127.42192330727903
 10
760.3992205626578
 20
139.93025068929018
 10
768.355817228799
 20
152.8741864438833
 10
775.6173252364351
 20
166.1996349048227
 10
782.1873573179203
 20
179.85150365973837
 10
788.0773531916549
 20
193.77514126289654
 10
793.3058282594766
 20
207.91765728777477
 10
797.8974743230542
 20
222.2290744446819
 10
801.8821825197265
 20
236.66328148575775
 10
805.2940554656957
 20
251.17877467671408
 10
808.1704683894679
 20
265.7391928176304
 10
810.5512300417938
 20
280.3136649468625
 10
812.4778857833594
 20
294.8770005448242
 10
813.99320017767
 20
309.40975958966004
 10
815.1408583259322
 20
323.8982452186895
 10
815.9654408312177
 20
338.33446683320244
 10
816.512773156575
 20
352.7161294987501
 10
816.8308773784679
 20
367.04672352682695
 10
816.9721762039729
 20
381.3358372909884
  0
LWPOLYLINE
  5
8D
330
17
100
AcDbEntity
  8
CUT
100
AcDbPolyline
 90
180
 70
1
 10
707.0391852318724
 20
385.1747819282635
 10
707.0988318498871
 20
374.7199356386808
 10
707.1153646660649
 20
364.214260458192
 10
707.035953269645
 20
353.64350793880965
 10
706.8120054945894
 20
342.99954476205187
 10
706.3969640969515
 20
332.2800455796136
 10
705.7453558929998
 20
321.48840906078766
 10
704.8124434885788
 20
310.6337740867324
 10
703.554251597001
 20
299.73106219887467
 10
701.9278671792458
 20
288.8009904425376
 10
699.8919585173799
 20
277.8700067615081
 10
697.4074739823682
 20
266.97010518301994
 10
694.4384831665682
 20
256.13848343457335
 10
690.953117977173
 20
245.41701316934453
 10
686.924562901632
 20
234.85150365973843
 10
682.3320346592284
 20
224.49075397047523
 10
677.1616842477445
 20
214.38540582566543
 10
671.4073511814136
 20
204.58662844146227
 10
665.0711023037422
 20
195.14468559310146
 10
658.1634970429234
 20
186.10745171285265
 10
650.7035374322181
 20
177.5189553527873
 10
642.7182835151123
 20
169.41803275487484
 10
634.2421406189006
 20
161.8371702891546
 10
625.3158513082276
 20
154.80160212373647
 10
615.9852482402562
 20
148.32870999937273
 10
606.2998416206601
 20
142.42774786851956
 10
596.3113244367369
 20
137.09988858552884
 10
586.0720793615893
 20
132.33856604086066
 10
575.6337637893425
 20
128.13006683932366
 10
565.0460356120416
 20
124.4543125964567
 10
554.3554645042769
 20
121.2857677914231
 10
543.6046542297433
 20
118.59440841751433
 10
532.8315831235581
 20
116.34669214675881
 10
522.0691541354556
 20
114.50647964572431
 10
511.34493361160025
 20
113.03586719681829
 10
500.6810496107314
 20
111.89590117351577
 10
490.0942156785107
 20
111.0471537088909
 10
479.5958439120854
 20
110.45014478376618
 10
469.19221082742075
 20
110.0655975305013
 10
458.8846397577447
 20
109.85450855391286
 10
448.66966265346605
 20
109.77799859713843
 10
438.5391196399339
 20
109.79686786166997
 10
428.48014090901006
 20
109.87067309816734
 10
418.4749154189645
 20
109.95579558687058
 10
408.4999999999998
 20
110.0
 10
398.52508458103534
 20
109.95579558687058
 10
388.5198590909895
 20
109.87067309816729
 10
378.46088036006563
 20
109.79686786166997
 10
368.33033734653344
 20
109.77799859713838
 10
358.11536024225484
 20
109.85450855391286
 10
347.8077891725788
 20
110.0655975305013
 10
337.40415608791415
 20
110.45014478376623
 10
326.90578432148914
 20
111.0471537088909
 10
316.31895038926814
 20
111.89590117351588
 10
305.6550663883996
 20
113.03586719681823
 10
294.930845864544
 20
114.50647964572437
 10
284.1684168764415
 20
116.34669214675887
 10
273.39534577025626
 20
118.59440841751433
 10
262.6445354957226
 20
121.2857677914231
 10
251.9539643879579
 20
124.45431259645676
 10
241.36623621065695
 20
128.13006683932366
 10
230.92792063841046
 20
132.33856604086054
 10
220.68867556326262
 20
137.09988858552896
 10
210.70015837933968
 20
142.4277478685195
 10
201.01475175974332
 20
148.32870999937276
 10
191.684148691772
 20
154.80160212373656
 10
182.75785938109902
 20
161.8371702891546
 10
174.28171648488734
 20
169.41803275487493
 10
166.29646256778156
 20
177.51895535278726
 10
158.8365029570762
 20
186.1074517128527
 10
151.92889769625742
 20
195.14468559310146
 10
145.5926488185861
 20
204.58662844146238
 10
139.83831575225526
 20
214.3854058256654
 10
134.6679653407714
 20
224.49075397047534
 10
130.07543709836756
 20
234.85150365973854
 10
126.04688202282671
 20
245.4170131693445
 10
122.56151683343143
 20
256.13848343457346
 10
119.5925260176316
 20
266.9701051830199
 10
117.10804148261974
 20
277.8700067615082
 10
115.07213282075384
 20
288.8009904425376
 10
113.44574840299873
 20
299.7310621988748
 10
112.18755651142095
 20
310.6337740867324
 10
111.25464410699988
 20
321.4884090607878
 10
110.60303590304824
 20
332.2800455796137
 10
110.18799450541036
 20
342.99954476205187
 10
109.9640467303546
 20
353.64350793880976
 10
109.88463533393474
 20
364.214260458192
 10
109.90116815011248
 20
374.7199356386809
 10
109.96081476812725
 20
385.1747819282635
 10
110.0
 20
395.5999999999999
 10
109.96081476812725
 20
406.0252180717363
 10
109.90116815011248
 20
416.4800643613189
 10
109.88463533393474
 20
426.9857395418078
 10
109.96404673035471
 20
437.5564920611899
 10
110.18799450541036
 20
448.20045523794784
 10
110.6030359030483
 20
458.9199544203859
 10
111.25464410699988
 20
469.711590939212
 10
112.18755651142095
 20
480.5662259132674
 10
113.44574840299867
 20
491.468937801125
 10
115.07213282075384
 20
502.3990095574622
 10
117.1080414826198
 20
513.3299932384916
 10
119.59252601763154
 20
524.2298948169799
 10
122.56151683343148
 20
535.0615165654262
 10
126.04688202282671
 20
545.7829868306551
 10
130.07543709836756
 20
556.3484963402611
 10
134.66796534077133
 20
566.7092460295245
 10
139.8383157522553
 20
576.8145941743344
 10
145.5926488185861
 20
586.6133715585374
 10
151.92889769625754
 20
596.0553144068983
 10
158.83650295707628
 20
605.092548287147
 10
166.29646256778165
 20
613.6810446472125
 10
174.28171648488726
 20
621.7819672451247
 10
182.757859381099
 20
629.3628297108451
 10
191.68414869177198
 20
636.3983978762631
 10
201.01475175974338
 20
642.8712900006269
 10
210.70015837933965
 20
648.7722521314802
 10
220.6886755632627
 20
654.1001114144708
 10
230.92792063841043
 20
658.861433959139
 10
241.366236210657
 20
663.0699331606761
 10
251.9539643879581
 20
666.7456874035431
 10
262.64453549572255
 20
669.9142322085765
 10
273.3953457702563
 20
672.6055915824854
 10
284.16841687644137
 20
674.853307853241
 10
294.93084586454404
 20
676.6935203542754
 10
305.6550663883995
 20
678.1641328031815
 10
316.31895038926825
 20
679.3040988264838
 10
326.905784321489
 20
680.1528462911089
 10
337.40415608791415
 20
680.7498552162335
 10
347.80778917257896
 20
681.1344024694984
 10
358.11536024225484
 20
681.3454914460868
 10
368.3303373465336
 20
681.4220014028613
 10
378.4608803600656
 20
681.4031321383297
 10
388.51985909098954
 20
681.3293269018325
 10
398.5250845810353
 20
681.2442044131292
 10
408.49999999999983
 20
681.1999999999997
 10
418.47491541896443
 20
681.2442044131292
 10
428.48014090901006
 20
681.3293269018325
 10
438.5391196399341
 20
681.4031321383297
 10
448.66966265346605
 20
681.4220014028613
 10
458.8846397577449
 20
681.3454914460868
 10
469.19221082742075
 20
681.1344024694984
 10
479.59584391208546
 20
680.7498552162335
 10
490.09421567851064
 20
680.1528462911089
 10
500.68104961073146
 20
679.3040988264838
 10
511.3449336116002
 20
678.1641328031815
 10
522.0691541354556
 20
676.6935203542754
 10
532.8315831235583
 20
674.853307853241
 10
543.6046542297433
 20
672.6055915824854
 10
554.355464504277
 20
669.9142322085765
 10
565.0460356120416
 20
666.745687403543
 10
575.6337637893427
 20
663.0699331606761
 10
586.0720793615892
 20
658.861433959139
 10
596.311324436737
 20
654.1001114144708
 10
606.29984162066
 20
648.7722521314802
 10
615.9852482402563
 20
642.8712900006269
 10
625.3158513082277
 20
636.3983978762631
 10
634.2421406189006
 20
629.3628297108451
 10
642.7182835151124
 20
621.7819672451247
 10
650.7035374322181
 20
613.6810446472125
 10
658.1634970429235
 20
605.092548287147
 10
665.0711023037422
 20
596.0553144068983
 10
671.4073511814136
 20
586.6133715585373
 10
677.1616842477443
 20
576.8145941743344
 10
682.3320346592284
 20
566.7092460295245
 10
686.924562901632
 20
556.3484963402611
 10
690.953117977173
 20
545.7829868306552
 10
694.4384831665682
 20
535.0615165654262
 10
697.4074739823681
 20
524.2298948169798
 10
699.8919585173799
 20
513.3299932384915
 10
701.9278671792458
 20
502.3990095574621
 10
703.554251597001
 20
491.468937801125
 10
704.8124434885788
 20
480.5662259132674
 10
705.7453558929998
 20
469.711590939212
 10
706.3969640969514
 20
458.9199544203859
 10
706.8120054945894
 20
448.20045523794784
 10
707.035953269645
 20
437.5564920611899
 10
707.1153646660649
 20
426.98573954180773
 10
707.0988318498871
 20
416.4800643613188
 10
707.0391852318724
 20
406.0252180717363
 10
706.9999999999997
 20
395.59999999999985
  0
LWPOLYLINE
  5
8E
330
17
100
AcDbEntity
  8
CUT
100
AcDbPolyline
 90
8
 70
1
 10
754.845722317528
 20
444.0772430955944
 42
2.414213562373095
 10
758.5069152955612
 20
441.4172306938187
 10
792.6809318801529
 20
446.8298631842107
 42
2.414213562373095
 10
795.3409442819287
 20
450.49105616224386
 10
793.3698700224218
 20
462.9359292537426
 42
2.414213562373095
 10
789.7086770443887
 20
465.5959416555183
 10
755.5346604597969
 20
460.1833091651263
 42
2.414213562373095
 10
752.8746480580211
 20
456.5221161870931
  0
LWPOLYLINE
  5
8F
330
17
100
AcDbEntity
  8
CUT
100
AcDbPolyline
 90
8
 70
1
 10
737.9451034948693
 20
556.3900091448653
 42
2.414213562373095
 10
742.2490939714386
 20
554.9915578666291
 10
773.0779197083561
 20
570.6996291576174
 42
2.414213562373095
 10
774.4763709865924
 20
575.0036196341867
 10
768.7560906898741
 20
586.2303018389601
 42
2.414213562373095
 10
764.4521002133048
 20
587.6287531171964
 10
733.6232744763872
 20
571.9206818262081
 42
2.414213562373095
 10
732.224823198151
 20
567.6166913496388
  0
LWPOLYLINE
  5
90
330
17
100
AcDbEntity
  8
CUT
100
AcDbPolyline
 90
8
 70
1
 10
676.5815065232525
 20
654.7719610803022
 42
2.414213562373095
 10
681.1069899228464
 20
654.7719610803022
 10
705.5728845519011
 20
679.2378557093566
 42
2.414213562373095
 10
705.5728845519011
 20
683.7633391089505
 10
696.6633391089506
 20
692.672884551901
 42
2.414213562373095
 10
692.1378557093567
 20
692.672884551901
 10
667.671961080302
 20
668.2069899228466
 42
2.414213562373095
 10
667.671961080302
 20
663.6815065232527
  0
LWPOLYLINE
  5
91
330
17
100
AcDbEntity
  8
CUT
100
AcDbPolyline
 90
8
 70
1
 10
576.1629907921213
 20
710.7802047461436
 42
2.414213562373095
 10
580.4669812686907
 20
712.1786560243797
 10
596.175052559679
 20
743.0074817612974
 42
2.414213562373095
 10
594.7766012814427
 20
747.3114722378666
 10
583.5499190766693
 20
753.0317525345849
 42
2.414213562373095
 10
579.2459286000999
 20
751.6333012563487
 10
563.5378573091116
 20
720.8044755194312
 42
2.414213562373095
 10
564.9363085873479
 20
716.5004850428619
  0
LWPOLYLINE
  5
92
330
17
100
AcDbEntity
  8
CUT
100
AcDbPolyline
 90
8
 70
1
 10
467.41905115232265
 20
727.3277931607465
 42
2.414213562373095
 10
471.0802441303558
 20
729.9878055625222
 10
476.49287662074784
 20
764.161822147114
 42
2.414213562373095
 10
473.83286421897213
 20
767.8230151251471
 10
461.3879911274734
 20
769.7940893846542
 42
2.414213562373095
 10
457.72679814944024
 20
767.1340769828784
 10
452.31416565904823
 20
732.9600603982866
 42
2.414213562373095
 10
454.97417806082393
 20
729.2988674202534
  0
LWPOLYLINE
  5
93
330
17
100
AcDbEntity
  8
CUT
100
AcDbPolyline
 90
8
 70
1
 10
362.0258219391758
 20
729.2988674202534
 42
2.414213562373095
 10
364.6858343409515
 20
732.9600603982866
 10
359.2732018505595
 20
767.1340769828784
 42
2.414213562373095
 10
355.6120088725263
 20
769.7940893846542
 10
343.1671357810276
 20
767.8230151251471
 42
2.414213562373095
 10
340.5071233792519
 20
764.161822147114
 10
345.91975586964384
 20
729.9878055625222
 42
2.414213562373095
 10
349.58094884767706
 20
727.3277931607465
  0
LWPOLYLINE
  5
94
330
17
100
AcDbEntity
  8
CUT
100
AcDbPolyline
 90
8
 70
1
 10
252.06369141265188
 20
716.5004850428618
 42
2.414213562373095
 10
253.4621426908881
 20
720.8044755194311
 10
237.7540713998998
 20
751.6333012563487
 42
2.414213562373095
 10
233.4500809233305
 20
753.0317525345849
 10
222.22339871855704
 20
747.3114722378666
 42
2.414213562373095
 10
220.8249474403208
 20
743.0074817612973
 10
236.5330187313091
 20
712.1786560243797
 42
2.414213562373095
 10
240.83700920787842
 20
710.7802047461435
  0
LWPOLYLINE
  5
95
330
17
100
AcDbEntity
  8
CUT
100
AcDbPolyline
 90
8
 70
1
 10
149.32803891969758
 20
663.6815065232527
 42
2.414213562373095
 10
149.32803891969758
 20
668.2069899228466
 10
124.86214429064302
 20
692.672884551901
 42
2.414213562373095
 10
120.33666089104912
 20
692.672884551901
 10
111.42711544809862
 20
683.7633391089505
 42
2.414213562373095
 10
111.42711544809862
 20
679.2378557093566
 10
135.89301007715318
 20
654.7719610803022
 42
2.414213562373095
 10
140.41849347674707
 20
654.7719610803022
  0
LWPOLYLINE
  5
96
330
17
100
AcDbEntity
  8
CUT
100
AcDbPolyline
 90
8
 70
1
 10
84.77517680184866
 20
567.6166913496388
 42
2.414213562373095
 10
83.37672552361244
 20
571.9206818262082
 10
52.54789978669487
 20
587.6287531171965
 42
2.414213562373095
 10
48.243909310125616
 20
586.2303018389603
 10
42.52362901340729
 20
575.0036196341869
 42
2.414213562373095
 10
43.92208029164351
 20
570.6996291576174
 10
74.75090602856108
 20
554.9915578666291
 42
2.414213562373095
 10
79.05489650513033
 20
556.3900091448654
  0
LWPOLYLINE
  5
97
330
17
100
AcDbEntity
  8
CUT
100
AcDbPolyline
 90
8
 70
1
 10
64.12535194197852
 20
456.52211618709316
 42
2.414213562373095
 10
61.46533954020276
 20
460.1833091651264
 10
27.291322955611008
 20
465.59594165551835
 42
2.414213562373095
 10
23.630129977577838
 20
462.93592925374264
 10
21.659055718070874
 20
450.4910561622439
 42
2.414213562373095
 10
24.319068119846634
 20
446.82986318421075
 10
58.49308470443839
 20
441.41723069381874
 42
2.414213562373095
 10
62.15427768247156
 20
444.07724309559444
  0
LWPOLYLINE
  5
98
330
17
100
AcDbEntity
  8
CUT
100
AcDbPolyline
 90
8
 70
1
 10
62.154277682471616
 20
347.1227569044054
 42
2.414213562373095
 10
58.493084704438445
 20
349.7827693061811
 10
24.31906811984669
 20
344.37013681578907
 42
2.414213562373095
 10
21.65905571807093
 20
340.7089438377559
 10
23.630129977577894
 20
328.2640707462572
 42
2.414213562373095
 10
27.291322955611065
 20
325.6040583444815
 10
61.46533954020282
 20
331.01669083487343
 42
2.414213562373095
 10
64.12535194197858
 20
334.6778838129066
  0
LWPOLYLINE
  5
99
330
17
100
AcDbEntity
  8
CUT
100
AcDbPolyline
 90
8
 70
1
 10
79.05489650513033
 20
234.8099908551344
 42
2.414213562373095
 10
74.75090602856108
 20
236.20844213337062
 10
43.92208029164351
 20
220.50037084238232
 42
2.414213562373095
 10
42.52362901340729
 20
216.196380365813
 10
48.243909310125616
 20
204.96969816103956
 42
2.414213562373095
 10
52.54789978669487
 20
203.57124688280334
 10
83.37672552361244
 20
219.27931817379164
 42
2.414213562373095
 10
84.77517680184866
 20
223.58330865036095
  0
LWPOLYLINE
  5
9A
330
17
100
AcDbEntity
  8
CUT
100
AcDbPolyline
 90
8
 70
1
 10
140.41849347674707
 20
136.4280389196977
 42
2.414213562373095
 10
135.89301007715318
 20
136.4280389196977
 10
111.42711544809862
 20
111.96214429064315
 42
2.414213562373095
 10
111.42711544809862
 20
107.43666089104926
 10
120.33666089104912
 20
98.52711544809875
 42
2.414213562373095
 10
124.86214429064302
 20
98.52711544809875
 10
149.32803891969758
 20
122.99301007715331
 42
2.414213562373095
 10
149.32803891969758
 20
127.51849347674721
  0
LWPOLYLINE
  5
9B
330
17
100
AcDbEntity
  8
CUT
100
AcDbPolyline
 90
8
 70
1
 10
240.83700920787834
 20
80.4197952538562
 42
2.414213562373095
 10
236.533018731309
 20
79.02134397561997
 10
220.8249474403207
 20
48.192518238702405
 42
2.414213562373095
 10
222.2233987185569
 20
43.88852776213315
 10
233.45008092333035
 20
38.16824746541482
 42
2.414213562373095
 10
237.7540713998997
 20
39.566698743651045
 10
253.462142690888
 20
70.39552448056861
 42
2.414213562373095
 10
252.0636914126518
 20
74.69951495713786
  0
LWPOLYLINE
  5
9C
330
17
100
AcDbEntity
  8
CUT
100
AcDbPolyline
 90
8
 70
1
 10
349.58094884767695
 20
63.872206839253295
 42
2.414213562373095
 10
345.9197558696438
 20
61.212194437477535
 10
340.50712337925177
 20
27.03817785288578
 42
2.414213562373095
 10
343.16713578102747
 20
23.37698487485261
 10
355.61200887252625
 20
21.405910615345647
 42
2.414213562373095
 10
359.2732018505594
 20
24.065923017121406
 10
364.6858343409514
 20
58.23993960171316
 42
2.414213562373095
 10
362.02582193917567
 20
61.90113257974633
  0
LWPOLYLINE
  5
9D
330
17
100
AcDbEntity
  8
CUT
100
AcDbPolyline
 90
8
 70
1
 10
454.9741780608239
 20
61.901132579746275
 42
2.414213562373095
 10
452.3141656590481
 20
58.239939601713104
 10
457.7267981494401
 20
24.06592301712135
 42
2.414213562373095
 10
461.3879911274733
 20
21.40591061534559
 10
473.832864218972
 20
23.376984874852553
 42
2.414213562373095
 10
476.4928766207477
 20
27.038177852885724
 10
471.08024413035577
 20
61.21219443747748
 42
2.414213562373095
 10
467.4190511523226
 20
63.87220683925324
  0
LWPOLYLINE
  5
9E
330
17
100
AcDbEntity
  8
CUT
100
AcDbPolyline
 90
8
 70
1
 10
564.9363085873478
 20
74.69951495713786
 42
2.414213562373095
 10
563.5378573091116
 20
70.39552448056861
 10
579.2459286000999
 20
39.566698743651045
 42
2.414213562373095
 10
583.5499190766691
 20
38.16824746541482
 10
594.7766012814426
 20
43.88852776213315
 42
2.414213562373095
 10
596.1750525596788
 20
48.192518238702405
 10
580.4669812686905
 20
79.02134397561997
 42
2.414213562373095
 10
576.1629907921213
 20
80.4197952538562
  0
LWPOLYLINE
  5
9F
330
17
100
AcDbEntity
  8
CUT
100
AcDbPolyline
 90
8
 70
1
 10
667.671961080302
 20
127.51849347674704
 42
2.414213562373095
 10
667.671961080302
 20
122.99301007715314
 10
692.1378557093566
 20
98.52711544809858
 42
2.414213562373095
 10
696.6633391089505
 20
98.52711544809858
 10
705.572884551901
 20
107.43666089104909
 42
2.414213562373095
 10
705.572884551901
 20
111.96214429064298
 10
681.1069899228464
 20
136.42803891969754
 42
2.414213562373095
 10
676.5815065232525
 20
136.42803891969754
  0
LWPOLYLINE
  5
A0
330
17
100
AcDbEntity
  8
CUT
100
AcDbPolyline
 90
8
 70
1
 10
732.224823198151
 20
223.58330865036083
 42
2.414213562373095
 10
733.6232744763872
 20
219.2793181737915
 10
764.4521002133048
 20
203.5712468828032
 42
2.414213562373095
 10
768.7560906898741
 20
204.9696981610394
 10
774.4763709865924
 20
216.19638036581284
 42
2.414213562373095
 10
773.0779197083561
 20
220.50037084238218
 10
742.2490939714386
 20
236.20844213337048
 42
2.414213562373095
 10
737.9451034948693
 20
234.8099908551343
  0
LWPOLYLINE
  5
A1
330
17
100
AcDbEntity
  8
CUT
100
AcDbPolyline
 90
8
 70
1
 10
752.8746480580212
 20
334.6778838129065
 42
2.414213562373095
 10
755.5346604597969
 20
331.0166908348733
 10
789.7086770443887
 20
325.6040583444813
 42
2.414213562373095
 10
793.3698700224218
 20
328.264070746257
 10
795.3409442819288
 20
340.7089438377557
 42
2.414213562373095
 10
792.680931880153
 20
344.3701368157889
 10
758.5069152955613
 20
349.7827693061809
 42
2.414213562373095
 10
754.845722317528
 20
347.1227569044052
  0
TEXT
  5
A2
330
17
100
AcDbEntity
  8
ENGRAVE-LABEL
100
AcDbText
 10
720.9604433405235
 20
621.9461871480655
 30
0.0
 40
11.0
  1
01 BASE-RING
 72
1
 11
720.9604433405235
 21
621.9461871480655
 31
0.0
100
AcDbText
 73
2
  0
ENDSEC
  0
SECTION
  2
OBJECTS
  0
DICTIONARY
  5
A
330
0
100
AcDbDictionary
281
1
  3
ACAD_COLOR
350
B
  3
ACAD_GROUP
350
C
  3
ACAD_LAYOUT
350
D
  3
ACAD_MATERIAL
350
E
  3
ACAD_MLEADERSTYLE
350
F
  3
ACAD_MLINESTYLE
350
10
  3
ACAD_PLOTSETTINGS
350
11
  3
ACAD_PLOTSTYLENAME
350
12
  3
ACAD_SCALELIST
350
14
  3
ACAD_TABLESTYLE
350
15
  3
ACAD_VISUALSTYLE
350
16
  3
EZDXF_META
350
2D
  0
DICTIONARY
  5
B
330
A
100
AcDbDictionary
281
1
  0
DICTIONARY
  5
C
330
A
100
AcDbDictionary
281
1
  0
DICTIONARY
  5
D
330
A
100
AcDbDictionary
281
1
  3
Model
350
1A
  3
Layout1
350
1E
  0
DICTIONARY
  5
E
330
A
100
AcDbDictionary
281
1
  3
ByBlock
350
1F
  3
ByLayer
350
20
  3
Global
350
21
  0
DICTIONARY
  5
F
330
A
100
AcDbDictionary
281
1
  3
Standard
350
2C
  0
DICTIONARY
  5
10
330
A
100
AcDbDictionary
281
1
  3
Standard
350
22
  0
DICTIONARY
  5
11
330
A
100
AcDbDictionary
281
1
  0
ACDBDICTIONARYWDFLT
  5
12
330
A
100
AcDbDictionary
281
1
  3
Normal
350
13
100
AcDbDictionaryWithDefault
340
13
  0
ACDBPLACEHOLDER
  5
13
330
12
  0
DICTIONARY
  5
14
330
A
100
AcDbDictionary
281
1
  0
DICTIONARY
  5
15
330
A
100
AcDbDictionary
281
1
  0
DICTIONARY
  5
16
330
A
100
AcDbDictionary
281
1
  3
2dWireframe
350
5A
  3
Basic
350
5B
  3
Brighten
350
5C
  3
ColorChange
350
5D
  3
Conceptual
350
5E
  3
Dim
350
5F
  3
EdgeColorOff
350
60
  3
Facepattern
350
61
  3
Flat
350
62
  3
FlatWithEdges
350
63
  3
Gouraud
350
64
  3
GouraudWithEdges
350
65
  3
Hidden
350
66
  3
JitterOff
350
67
  3
Linepattern
350
68
  3
Modeling
350
69
  3
OverhangOff
350
6A
  3
Realistic
350
6B
  3
Shaded
350
6C
  3
Shaded with edges
350
6D
  3
Shades of Gray
350
6E
  3
Sketchy
350
6F
  3
Thicken
350
70
  3
Wireframe
350
71
  3
X-Ray
350
72
  0
LAYOUT
  5
1A
330
D
100
AcDbPlotSettings
  1

  4
A3
  6

 40
7.5
 41
20.0
 42
7.5
 43
20.0
 44
420.0
 45
297.0
 46
0.0
 47
0.0
 48
0.0
 49
0.0
140
0.0
141
0.0
142
1.0
143
1.0
 70
1024
 72
1
 73
0
 74
5
  7

 75
16
 76
0
 77
2
 78
300
147
1.0
148
0.0
149
0.0
100
AcDbLayout
  1
Model
 70
1
 71
0
 10
0.0
 20
0.0
 11
420.0
 21
297.0
 12
0.0
 22
0.0
 32
0.0
 14
1e+20
 24
1e+20
 34
1e+20
 15
-1e+20
 25
-1e+20
 35
-1e+20
146
0.0
 13
0.0
 23
0.0
 33
0.0
 16
1.0
 26
0.0
 36
0.0
 17
0.0
 27
1.0
 37
0.0
 76
1
330
17
  0
LAYOUT
  5
1E
330
D
100
AcDbPlotSettings
  1

  4
A3
  6

 40
7.5
 41
20.0
 42
7.5
 43
20.0
 44
420.0
 45
297.0
 46
0.0
 47
0.0
 48
0.0
 49
0.0
140
0.0
141
0.0
142
1.0
143
1.0
 70
0
 72
1
 73
0
 74
5
  7

 75
16
 76
0
 77
2
 78
300
147
1.0
148
0.0
149
0.0
100
AcDbLayout
  1
Layout1
 70
1
 71
1
 10
0.0
 20
0.0
 11
420.0
 21
297.0
 12
0.0
 22
0.0
 32
0.0
 14
1e+20
 24
1e+20
 34
1e+20
 15
-1e+20
 25
-1e+20
 35
-1e+20
146
0.0
 13
0.0
 23
0.0
 33
0.0
 16
1.0
 26
0.0
 36
0.0
 17
0.0
 27
1.0
 37
0.0
 76
1
330
1B
  0
MATERIAL
  5
1F
102
{ACAD_REACTORS
330
E
102
}
330
E
100
AcDbMaterial
  1
ByBlock
  2

 70
0
 40
1.0
 71
1
 41
1.0
 91
-1023410177
 42
1.0
 72
1
  3

 73
1
 74
1
 75
1
 44
0.5
 73
0
 45
1.0
 46
1.0
 77
1
  4

 78
1
 79
1
170
1
 48
1.0
171
1
  6

172
1
173
1
174
1
140
1.0
141
1.0
175
1
  7

176
1
177
1
178
1
143
1.0
179
1
  8

270
1
271
1
272
1
145
1.0
146
1.0
273
1
  9

274
1
275
1
276
1
 42
1.0
 72
1
  3

 73
1
 74
1
 75
1
 94
63
  0
MATERIAL
  5
20
102
{ACAD_REACTORS
330
E
102
}
330
E
100
AcDbMaterial
  1
ByLayer
  2

 70
0
 40
1.0
 71
1
 41
1.0
 91
-1023410177
 42
1.0
 72
1
  3

 73
1
 74
1
 75
1
 44
0.5
 73
0
 45
1.0
 46
1.0
 77
1
  4

 78
1
 79
1
170
1
 48
1.0
171
1
  6

172
1
173
1
174
1
140
1.0
141
1.0
175
1
  7

176
1
177
1
178
1
143
1.0
179
1
  8

270
1
271
1
272
1
145
1.0
146
1.0
273
1
  9

274
1
275
1
276
1
 42
1.0
 72
1
  3

 73
1
 74
1
 75
1
 94
63
  0
MATERIAL
  5
21
102
{ACAD_REACTORS
330
E
102
}
330
E
100
AcDbMaterial
  1
Global
  2

 70
0
 40
1.0
 71
1
 41
1.0
 91
-1023410177
 42
1.0
 72
1
  3

 73
1
 74
1
 75
1
 44
0.5
 73
0
 45
1.0
 46
1.0
 77
1
  4

 78
1
 79
1
170
1
 48
1.0
171
1
  6

172
1
173
1
174
1
140
1.0
141
1.0
175
1
  7

176
1
177
1
178
1
143
1.0
179
1
  8

270
1
271
1
272
1
145
1.0
146
1.0
273
1
  9

274
1
275
1
276
1
 42
1.0
 72
1
  3

 73
1
 74
1
 75
1
 94
63
  0
MLINESTYLE
  5
22
102
{ACAD_REACTORS
330
10
102
}
330
10
100
AcDbMlineStyle
  2
Standard
 70
0
  3

 62
256
 51
90.0
 52
90.0
 71
2
 49
0.5
 62
256
  6
BYLAYER
 49
-0.5
 62
256
  6
BYLAYER
  0
MLEADERSTYLE
  5
2C
102
{ACAD_REACTORS
330
F
102
}
330
F
100
AcDbMLeaderStyle
179
2
170
2
171
1
172
0
 90
2
 40
0.0
 41
0.0
173
1
 91
-1056964608
 92
-2
290
1
 42
2.0
291
1
 43
8.0
  3
Standard
 44
4.0
300

342
29
174
1
175
1
176
0
178
1
 93
-1056964608
 45
4.0
292
0
297
0
 46
4.0
 94
-1056964608
 47
1.0
 49
1.0
140
1.0
294
1
141
0.0
177
0
142
1.0
295
0
296
0
143
3.75
271
0
272
9
273
9
  0
DICTIONARY
  5
2D
330
A
100
AcDbDictionary
280
1
281
1
  3
CREATED_BY_EZDXF
350
2E
  3
WRITTEN_BY_EZDXF
350
A5
  0
DICTIONARYVAR
  5
2E
330
2D
100
DictionaryVariables
280
0
  1
1.4.4 @ 2026-09-27T09:44:59.704705+00:00
  0
VISUALSTYLE
  5
5A
102
{ACAD_REACTORS
330
16
102
}
330
16
100
AcDbVisualStyle
  2
2dWireframe
 70
4
 90
0
 40
0.6
 62
7
290
0
291
0
  0
VISUALSTYLE
  5
5B
102
{ACAD_REACTORS
330
16
102
}
330
16
100
AcDbVisualStyle
  2
Basic
 70
7
 90
1
 40
0.6
 62
7
290
0
291
1
  0
VISUALSTYLE
  5
5C
102
{ACAD_REACTORS
330
16
102
}
330
16
100
AcDbVisualStyle
  2
Brighten
 70
12
 90
2
 40
0.6
 62
7
290
0
291
1
  0
VISUALSTYLE
  5
5D
102
{ACAD_REACTORS
330
16
102
}
330
16
100
AcDbVisualStyle
  2
ColorChange
 70
16
 90
2
 40
0.6
 62
8
290
0
291
1
  0
VISUALSTYLE
  5
5E
102
{ACAD_REACTORS
330
16
102
}
330
16
100
AcDbVisualStyle
  2
Conceptual
 70
9
 90
3
 40
0.6
 62
7
290
0
291
0
  0
VISUALSTYLE
  5
5F
102
{ACAD_REACTORS
330
16
102
}
330
16
100
AcDbVisualStyle
  2
Dim
 70
11
 90
2
 40
0.6
 62
7
290
0
291
1
  0
VISUALSTYLE
  5
60
102
{ACAD_REACTORS
330
16
102
}
330
16
100
AcDbVisualStyle
  2
EdgeColorOff
 70
22
 90
2
 40
0.6
 62
7
290
0
291
1
  0
VISUALSTYLE
  5
61
102
{ACAD_REACTORS
330
16
102
}
330
16
100
AcDbVisualStyle
  2
Facepattern
 70
15
 90
2
 40
0.6
 62
7
290
0
291
1
  0
VISUALSTYLE
  5
62
102
{ACAD_REACTORS
330
16
102
}
330
16
100
AcDbVisualStyle
  2
Flat
 70
0
 90
2
 40
0.6
 62
7
290
0
291
1
  0
VISUALSTYLE
  5
63
102
{ACAD_REACTORS
330
16
102
}
330
16
100
AcDbVisualStyle
  2
FlatWithEdges
 70
1
 90
2
 40
0.6
 62
7
290
0
291
1
  0
VISUALSTYLE
  5
64
102
{ACAD_REACTORS
330
16
102
}
330
16
100
AcDbVisualStyle
  2
Gouraud
 70
2
 90
2
 40
0.6
 62
7
290
0
291
1
  0
VISUALSTYLE
  5
65
102
{ACAD_REACTORS
330
16
102
}
330
16
100
AcDbVisualStyle
  2
GouraudWithEdges
 70
3
 90
2
 40
0.6
 62
7
290
0
291
1
  0
VISUALSTYLE
  5
66
102
{ACAD_REACTORS
330
16
102
}
330
16
100
AcDbVisualStyle
  2
Hidden
 70
6
 90
1
 40
0.6
 62
7
290
0
291
0
  0
VISUALSTYLE
  5
67
102
{ACAD_REACTORS
330
16
102
}
330
16
100
AcDbVisualStyle
  2
JitterOff
 70
20
 90
2
 40
0.6
 62
7
290
0
291
1
  0
VISUALSTYLE
  5
68
102
{ACAD_REACTORS
330
16
102
}
330
16
100
AcDbVisualStyle
  2
Linepattern
 70
14
 90
2
 40
0.6
 62
7
290
0
291
1
  0
VISUALSTYLE
  5
69
102
{ACAD_REACTORS
330
16
102
}
330
16
100
AcDbVisualStyle
  2
Modeling
 70
10
 90
2
 40
0.6
 62
7
290
0
291
0
  0
VISUALSTYLE
  5
6A
102
{ACAD_REACTORS
330
16
102
}
330
16
100
AcDbVisualStyle
  2
OverhangOff
 70
21
 90
2
 40
0.6
 62
7
290
0
291
1
  0
VISUALSTYLE
  5
6B
102
{ACAD_REACTORS
330
16
102
}
330
16
100
AcDbVisualStyle
  2
Realistic
 70
8
 90
2
 40
0.6
 62
7
290
0
291
0
  0
VISUALSTYLE
  5
6C
102
{ACAD_REACTORS
330
16
102
}
330
16
100
AcDbVisualStyle
  2
Shaded
 70
27
 90
2
 40
0.6
 62
7
290
0
291
0
  0
VISUALSTYLE
  5
6D
102
{ACAD_REACTORS
330
16
102
}
330
16
100
AcDbVisualStyle
  2
Shaded with edges
 70
26
 90
2
 40
0.6
 62
7
290
0
291
0
  0
VISUALSTYLE
  5
6E
102
{ACAD_REACTORS
330
16
102
}
330
16
100
AcDbVisualStyle
  2
Shades of Gray
 70
23
 90
2
 40
0.6
 62
7
290
0
291
0
  0
VISUALSTYLE
  5
6F
102
{ACAD_REACTORS
330
16
102
}
330
16
100
AcDbVisualStyle
  2
Sketchy
 70
24
 90
1
 40
0.6
 62
7
290
0
291
0
  0
VISUALSTYLE
  5
70
102
{ACAD_REACTORS
330
16
102
}
330
16
100
AcDbVisualStyle
  2
Thicken
 70
13
 90
2
 40
0.6
 62
7
290
0
291
1
  0
VISUALSTYLE
  5
71
102
{ACAD_REACTORS
330
16
102
}
330
16
100
AcDbVisualStyle
  2
Wireframe
 70
5
 90
0
 40
0.6
 62
7
290
0
291
0
  0
VISUALSTYLE
  5
72
102
{ACAD_REACTORS
330
16
102
}
330
16
100
AcDbVisualStyle
  2
X-Ray
 70
25
 90
2
 40
0.5
 62
7
290
0
291
0
  0
DICTIONARYVAR
  5
A5
330
2D
100
DictionaryVariables
280
0
  1
1.4.4 @ 2026-09-27T09:44:59.736680+00:00
  0
ENDSEC
  0
EOF
