  0
SECTION
  2
HEADER
  9
$ACADVER
  1
AC1024
  9
$ACADMAINTVER
 70
6
  9
$DWGCODEPAGE
  3
ANSI_1252
  9
$LASTSAVEDBY
  1
ezdxf
  9
$INSBASE
 10
0.0
 20
0.0
 30
0.0
  9
$EXTMIN
 10
1e+20
 20
1e+20
 30
1e+20
  9
$EXTMAX
 10
-1e+20
 20
-1e+20
 30
-1e+20
  9
$LIMMIN
 10
0.0
 20
0.0
  9
$LIMMAX
 10
420.0
 20
297.0
  9
$ORTHOMODE
 70
0
  9
$REGENMODE
 70
1
  9
$FILLMODE
 70
1
  9
$QTEXTMODE
 70
0
  9
$MIRRTEXT
 70
1
  9
$LTSCALE
 40
1.0
  9
$ATTMODE
 70
1
  9
$TEXTSIZE
 40
2.5
  9
$TRACEWID
 40
1.0
  9
$TEXTSTYLE
  7
OpenSans
  9
$CLAYER
  8
0
  9
$CELTYPE
  6
ByLayer
  9
$CECOLOR
 62
256
  9
$CELTSCALE
 40
1.0
  9
$DISPSILH
 70
0
  9
$DIMSCALE
 40
1.0
  9
$DIMASZ
 40
0.175
  9
$DIMEXO
 40
0.125
  9
$DIMDLI
 40
3.75
  9
$DIMRND
 40
0.0
  9
$DIMDLE
 40
0.0
  9
$DIMEXE
 40
0.375
  9
$DIMTP
 40
0.0
  9
$DIMTM
 40
0.0
  9
$DIMTXT
 40
0.25
  9
$DIMCEN
 40
2.5
  9
$DIMTSZ
 40
0.0
  9
$DIMTOL
 70
0
  9
$DIMLIM
 70
0
  9
$DIMTIH
 70
0
  9
$DIMTOH
 70
0
  9
$DIMSE1
 70
0
  9
$DIMSE2
 70
0
  9
$DIMTAD
 70
1
  9
$DIMZIN
 70
12
  9
$DIMBLK
  1
ARCHTICK
  9
$DIMASO
 70
1
  9
$DIMSHO
 70
1
  9
$DIMPOST
  1

  9
$DIMAPOST
  1

  9
$DIMALT
 70
0
  9
$DIMALTD
 70
3
  9
$DIMALTF
 40
0.03937007874
  9
$DIMLFAC
 40
100.0
  9
$DIMTOFL
 70
1
  9
$DIMTVP
 40
0.0
  9
$DIMTIX
 70
0
  9
$DIMSOXD
 70
0
  9
$DIMSAH
 70
0
  9
$DIMBLK1
  1

  9
$DIMBLK2
  1

  9
$DIMSTYLE
  2
EZDXF
  9
$DIMCLRD
 70
0
  9
$DIMCLRE
 70
0
  9
$DIMCLRT
 70
0
  9
$DIMTFAC
 40
0.5
  9
$DIMGAP
 40
0.1
  9
$DIMJUST
 70
0
  9
$DIMSD1
 70
0
  9
$DIMSD2
 70
0
  9
$DIMTOLJ
 70
0
  9
$DIMTZIN
 70
8
  9
$DIMALTZ
 70
0
  9
$DIMALTTZ
 70
0
  9
$DIMUPT
 70
1
  9
$DIMDEC
 70
2
  9
$DIMTDEC
 70
2
  9
$DIMALTU
 70
2
  9
$DIMALTTD
 70
3
  9
$DIMTXSTY
  7
OpenSansCondensed-Light
  9
$DIMAUNIT
 70
0
  9
$DIMADEC
 70
2
  9
$DIMALTRND
 40
0.0
  9
$DIMAZIN
 70
3
  9
$DIMDSEP
 70
46
  9
$DIMATFIT
 70
3
  9
$DIMFRAC
 70
0
  9
$DIMLDRBLK
  1

  9
$DIMLUNIT
 70
2
  9
$DIMLWD
 70
-2
  9
$DIMLWE
 70
-2
  9
$DIMTMOVE
 70
2
  9
$DIMFXL
 40
1.0
  9
$DIMFXLON
 70
0
  9
$DIMJOGANG
 40
0.785398163397
  9
$DIMTFILL
 70
0
  9
$DIMTFILLCLR
 70
0
  9
$DIMARCSYM
 70
0
  9
$DIMLTYPE
  6

  9
$DIMLTEX1
  6

  9
$DIMLTEX2
  6

  9
$DIMTXTDIRECTION
 70
0
  9
$LUNITS
 70
2
  9
$LUPREC
 70
4
  9
$SKETCHINC
 40
1.0
  9
$FILLETRAD
 40
10.0
  9
$AUNITS
 70
0
  9
$AUPREC
 70
2
  9
$MENU
  1
.
  9
$ELEVATION
 40
0.0
  9
$PELEVATION
 40
0.0
  9
$THICKNESS
 40
0.0
  9
$LIMCHECK
 70
0
  9
$CHAMFERA
 40
0.0
  9
$CHAMFERB
 40
0.0
  9
$CHAMFERC
 40
0.0
  9
$CHAMFERD
 40
0.0
  9
$SKPOLY
 70
0
  9
$TDCREATE
 40
2461311.406238426
  9
$TDUCREATE
 40
2458532.153996898
  9
$TDUPDATE
 40
2461311.406238426
  9
$TDUUPDATE
 40
2458532.1544311
  9
$TDINDWG
 40
0.0
  9
$TDUSRTIMER
 40
0.0
  9
$USRTIMER
 70
1
  9
$ANGBASE
 50
0.0
  9
$ANGDIR
 70
0
  9
$PDMODE
 70
0
  9
$PDSIZE
 40
0.0
  9
$PLINEWID
 40
0.0
  9
$SPLFRAME
 70
0
  9
$SPLINETYPE
 70
6
  9
$SPLINESEGS
 70
8
  9
$HANDSEED
  5
B3
  9
$SURFTAB1
 70
6
  9
$SURFTAB2
 70
6
  9
$SURFTYPE
 70
6
  9
$SURFU
 70
6
  9
$SURFV
 70
6
  9
$UCSBASE
  2

  9
$UCSNAME
  2

  9
$UCSORG
 10
0.0
 20
0.0
 30
0.0
  9
$UCSXDIR
 10
1.0
 20
0.0
 30
0.0
  9
$UCSYDIR
 10
0.0
 20
1.0
 30
0.0
  9
$UCSORTHOREF
  2

  9
$UCSORTHOVIEW
 70
0
  9
$UCSORGTOP
 10
0.0
 20
0.0
 30
0.0
  9
$UCSORGBOTTOM
 10
0.0
 20
0.0
 30
0.0
  9
$UCSORGLEFT
 10
0.0
 20
0.0
 30
0.0
  9
$UCSORGRIGHT
 10
0.0
 20
0.0
 30
0.0
  9
$UCSORGFRONT
 10
0.0
 20
0.0
 30
0.0
  9
$UCSORGBACK
 10
0.0
 20
0.0
 30
0.0
  9
$PUCSBASE
  2

  9
$PUCSNAME
  2

  9
$PUCSORG
 10
0.0
 20
0.0
 30
0.0
  9
$PUCSXDIR
 10
1.0
 20
0.0
 30
0.0
  9
$PUCSYDIR
 10
0.0
 20
1.0
 30
0.0
  9
$PUCSORTHOREF
  2

  9
$PUCSORTHOVIEW
 70
0
  9
$PUCSORGTOP
 10
0.0
 20
0.0
 30
0.0
  9
$PUCSORGBOTTOM
 10
0.0
 20
0.0
 30
0.0
  9
$PUCSORGLEFT
 10
0.0
 20
0.0
 30
0.0
  9
$PUCSORGRIGHT
 10
0.0
 20
0.0
 30
0.0
  9
$PUCSORGFRONT
 10
0.0
 20
0.0
 30
0.0
  9
$PUCSORGBACK
 10
0.0
 20
0.0
 30
0.0
  9
$USERI1
 70
0
  9
$USERI2
 70
0
  9
$USERI3
 70
0
  9
$USERI4
 70
0
  9
$USERI5
 70
0
  9
$USERR1
 40
0.0
  9
$USERR2
 40
0.0
  9
$USERR3
 40
0.0
  9
$USERR4
 40
0.0
  9
$USERR5
 40
0.0
  9
$WORLDVIEW
 70
1
  9
$SHADEDGE
 70
3
  9
$SHADEDIF
 70
70
  9
$TILEMODE
 70
1
  9
$MAXACTVP
 70
64
  9
$PINSBASE
 10
0.0
 20
0.0
 30
0.0
  9
$PLIMCHECK
 70
0
  9
$PEXTMIN
 10
1e+20
 20
1e+20
 30
1e+20
  9
$PEXTMAX
 10
-1e+20
 20
-1e+20
 30
-1e+20
  9
$PLIMMIN
 10
0.0
 20
0.0
  9
$PLIMMAX
 10
420.0
 20
297.0
  9
$UNITMODE
 70
0
  9
$VISRETAIN
 70
1
  9
$PLINEGEN
 70
0
  9
$PSLTSCALE
 70
1
  9
$TREEDEPTH
 70
3020
  9
$CMLSTYLE
  2
Standard
  9
$CMLJUST
 70
0
  9
$CMLSCALE
 40
20.0
  9
$PROXYGRAPHICS
 70
1
  9
$MEASUREMENT
 70
1
  9
$CELWEIGHT
370
-1
  9
$ENDCAPS
280
0
  9
$JOINSTYLE
280
0
  9
$LWDISPLAY
290
0
  9
$INSUNITS
 70
4
  9
$HYPERLINKBASE
  1

  9
$STYLESHEET
  1

  9
$XEDIT
290
1
  9
$CEPSNTYPE
380
0
  9
$PSTYLEMODE
290
1
  9
$FINGERPRINTGUID
  2
{30FA357A-B360-4D3B-A584-949E8AE72E40}
  9
$VERSIONGUID
  2
{279E7890-C9C9-473B-B256-E261C36800AC}
  9
$EXTNAMES
290
1
  9
$PSVPSCALE
 40
0.0
  9
$OLESTARTUP
290
0
  9
$SORTENTS
280
127
  9
$INDEXCTL
280
0
  9
$HIDETEXT
280
1
  9
$XCLIPFRAME
280
1
  9
$HALOGAP
280
0
  9
$OBSCOLOR
 70
257
  9
$OBSLTYPE
280
0
  9
$INTERSECTIONDISPLAY
280
0
  9
$INTERSECTIONCOLOR
 70
257
  9
$DIMASSOC
280
2
  9
$PROJECTNAME
  1

  9
$CAMERADISPLAY
290
0
  9
$LENSLENGTH
 40
50.0
  9
$CAMERAHEIGHT
 40
0.0
  9
$STEPSPERSEC
 40
24.0
  9
$STEPSIZE
 40
100.0
  9
$3DDWFPREC
 40
2.0
  9
$PSOLWIDTH
 40
0.005
  9
$PSOLHEIGHT
 40
0.08
  9
$LOFTANG1
 40
1.570796326795
  9
$LOFTANG2
 40
1.570796326795
  9
$LOFTMAG1
 40
0.0
  9
$LOFTMAG2
 40
0.0
  9
$LOFTPARAM
 70
7
  9
$LOFTNORMALS
280
1
  9
$LATITUDE
 40
37.795
  9
$LONGITUDE
 40
-122.394
  9
$NORTHDIRECTION
 40
0.0
  9
$TIMEZONE
 70
-8000
  9
$LIGHTGLYPHDISPLAY
280
1
  9
$TILEMODELIGHTSYNCH
280
1
  9
$CMATERIAL
347
20
  9
$SOLIDHIST
280
0
  9
$SHOWHIST
280
1
  9
$DWFFRAME
280
2
  9
$DGNFRAME
280
2
  9
$REALWORLDSCALE
290
1
  9
$INTERFERECOLOR
 62
256
  9
$CSHADOW
280
0
  9
$SHADOWPLANELOCATION
 40
0.0
  0
ENDSEC
  0
SECTION
  2
CLASSES
  0
CLASS
  1
ACDBDICTIONARYWDFLT
  2
AcDbDictionaryWithDefault
  3
ObjectDBX Classes
 90
0
 91
0
280
0
281
0
  0
CLASS
  1
SUN
  2
AcDbSun
  3
SCENEOE
 90
1153
 91
0
280
0
281
0
  0
CLASS
  1
VISUALSTYLE
  2
AcDbVisualStyle
  3
ObjectDBX Classes
 90
4095
 91
0
280
0
281
0
  0
CLASS
  1
MATERIAL
  2
AcDbMaterial
  3
ObjectDBX Classes
 90
1153
 91
0
280
0
281
0
  0
CLASS
  1
SCALE
  2
AcDbScale
  3
ObjectDBX Classes
 90
1153
 91
0
280
0
281
0
  0
CLASS
  1
TABLESTYLE
  2
AcDbTableStyle
  3
ObjectDBX Classes
 90
4095
 91
0
280
0
281
0
  0
CLASS
  1
MLEADERSTYLE
  2
AcDbMLeaderStyle
  3
ACDB_MLEADERSTYLE_CLASS
 90
4095
 91
0
280
0
281
0
  0
CLASS
  1
DICTIONARYVAR
  2
AcDbDictionaryVar
  3
ObjectDBX Classes
 90
0
 91
0
280
0
281
0
  0
CLASS
  1
CELLSTYLEMAP
  2
AcDbCellStyleMap
  3
ObjectDBX Classes
 90
1152
 91
0
280
0
281
0
  0
CLASS
  1
MENTALRAYRENDERSETTINGS
  2
AcDbMentalRayRenderSettings
  3
SCENEOE
 90
1024
 91
0
280
0
281
0
  0
CLASS
  1
ACDBDETAILVIEWSTYLE
  2
AcDbDetailViewStyle
  3
ObjectDBX Classes
 90
1025
 91
0
280
0
281
0
  0
CLASS
  1
ACDBSECTIONVIEWSTYLE
  2
AcDbSectionViewStyle
  3
ObjectDBX Classes
 90
1025
 91
0
280
0
281
0
  0
CLASS
  1
RASTERVARIABLES
  2
AcDbRasterVariables
  3
ISM
 90
0
 91
0
280
0
281
0
  0
CLASS
  1
ACDBPLACEHOLDER
  2
AcDbPlaceHolder
  3
ObjectDBX Classes
 90
0
 91
0
280
0
281
0
  0
CLASS
  1
LAYOUT
  2
AcDbLayout
  3
ObjectDBX Classes
 90
0
 91
0
280
0
281
0
  0
ENDSEC
  0
SECTION
  2
TABLES
  0
TABLE
  2
VPORT
  5
8
330
0
100
AcDbSymbolTable
 70
1
  0
VPORT
  5
23
330
8
100
AcDbSymbolTableRecord
100
AcDbViewportTableRecord
  2
*Active
 70
0
 10
0.0
 20
0.0
 11
1.0
 21
1.0
 12
0.0
 22
0.0
 13
0.0
 23
0.0
 14
0.5
 24
0.5
 15
0.5
 25
0.5
 16
0.0
 26
0.0
 36
1.0
 17
0.0
 27
0.0
 37
0.0
 40
1000.0
 41
1.34
 42
50.0
 43
0.0
 44
0.0
 50
0.0
 51
0.0
 71
0
 72
1000
 73
1
 74
3
 75
0
 76
0
 77
0
 78
0
281
0
 65
0
146
0.0
  0
ENDTAB
  0
TABLE
  2
LTYPE
  5
2
330
0
100
AcDbSymbolTable
 70
21
  0
LTYPE
  5
24
330
2
100
AcDbSymbolTableRecord
100
AcDbLinetypeTableRecord
  2
ByBlock
 70
0
  3

 72
65
 73
0
 40
0.0
  0
LTYPE
  5
25
330
2
100
AcDbSymbolTableRecord
100
AcDbLinetypeTableRecord
  2
ByLayer
 70
0
  3

 72
65
 73
0
 40
0.0
  0
LTYPE
  5
26
330
2
100
AcDbSymbolTableRecord
100
AcDbLinetypeTableRecord
  2
Continuous
 70
0
  3

 72
65
 73
0
 40
0.0
  0
LTYPE
  5
2F
330
2
100
AcDbSymbolTableRecord
100
AcDbLinetypeTableRecord
  2
CENTER
 70
0
  3
Center ____ _ ____ _ ____ _ ____ _ ____ _ ____
 72
65
 73
4
 40
5.08
 49
3.175
 74
0
 49
-0.635
 74
0
 49
0.635
 74
0
 49
-0.635
 74
0
  0
LTYPE
  5
30
330
2
100
AcDbSymbolTableRecord
100
AcDbLinetypeTableRecord
  2
CENTERX2
 70
0
  3
Center (2x) ________  __  ________  __  ________
 72
65
 73
4
 40
8.89
 49
6.35
 74
0
 49
-0.635
 74
0
 49
1.27
 74
0
 49
-0.635
 74
0
  0
LTYPE
  5
31
330
2
100
AcDbSymbolTableRecord
100
AcDbLinetypeTableRecord
  2
CENTER2
 70
0
  3
Center (.5x) ____ _ ____ _ ____ _ ____ _ ____
 72
65
 73
4
 40
2.54
 49
1.587
 74
0
 49
-0.318
 74
0
 49
0.318
 74
0
 49
-0.318
 74
0
  0
LTYPE
  5
32
330
2
100
AcDbSymbolTableRecord
100
AcDbLinetypeTableRecord
  2
DASHED
 70
0
  3
Dashed __ __ __ __ __ __ __ __ __ __ __ __ __ _
 72
65
 73
2
 40
1.524
 49
1.27
 74
0
 49
-0.254
 74
0
  0
LTYPE
  5
33
330
2
100
AcDbSymbolTableRecord
100
AcDbLinetypeTableRecord
  2
DASHEDX2
 70
0
  3
Dashed (2x) ____  ____  ____  ____  ____  ____
 72
65
 73
2
 40
3.048
 49
2.54
 74
0
 49
-0.508
 74
0
  0
LTYPE
  5
34
330
2
100
AcDbSymbolTableRecord
100
AcDbLinetypeTableRecord
  2
DASHED2
 70
0
  3
Dashed (.5x) _ _ _ _ _ _ _ _ _ _ _ _ _ _
 72
65
 73
2
 40
0.762
 49
0.635
 74
0
 49
-0.127
 74
0
  0
LTYPE
  5
35
330
2
100
AcDbSymbolTableRecord
100
AcDbLinetypeTableRecord
  2
PHANTOM
 70
0
  3
Phantom ______  __  __  ______  __  __  ______
 72
65
 73
6
 40
6.35
 49
3.175
 74
0
 49
-0.635
 74
0
 49
0.635
 74
0
 49
-0.635
 74
0
 49
0.635
 74
0
 49
-0.635
 74
0
  0
LTYPE
  5
36
330
2
100
AcDbSymbolTableRecord
100
AcDbLinetypeTableRecord
  2
PHANTOMX2
 70
0
  3
Phantom (2x)____________    ____    ____    ____________
 72
65
 73
6
 40
10.795
 49
6.35
 74
0
 49
-0.635
 74
0
 49
1.27
 74
0
 49
-0.635
 74
0
 49
1.27
 74
0
 49
-0.635
 74
0
  0
LTYPE
  5
37
330
2
100
AcDbSymbolTableRecord
100
AcDbLinetypeTableRecord
  2
PHANTOM2
 70
0
  3
Phantom (.5x) ___ _ _ ___ _ _ ___ _ _ ___ _ _ ___
 72
65
 73
6
 40
3.175
 49
1.587
 74
0
 49
-0.318
 74
0
 49
0.318
 74
0
 49
-0.318
 74
0
 49
0.318
 74
0
 49
-0.318
 74
0
  0
LTYPE
  5
38
330
2
100
AcDbSymbolTableRecord
100
AcDbLinetypeTableRecord
  2
DASHDOT
 70
0
  3
Dash dot __ . __ . __ . __ . __ . __ . __ . __
 72
65
 73
4
 40
3.556
 49
2.54
 74
0
 49
-0.508
 74
0
 49
0.0
 74
0
 49
-0.508
 74
0
  0
LTYPE
  5
39
330
2
100
AcDbSymbolTableRecord
100
AcDbLinetypeTableRecord
  2
DASHDOTX2
 70
0
  3
Dash dot (2x) ____  .  ____  .  ____  .  ____
 72
65
 73
4
 40
6.096
 49
5.08
 74
0
 49
-0.508
 74
0
 49
0.0
 74
0
 49
-0.508
 74
0
  0
LTYPE
  5
3A
330
2
100
AcDbSymbolTableRecord
100
AcDbLinetypeTableRecord
  2
DASHDOT2
 70
0
  3
Dash dot (.5x) _ . _ . _ . _ . _ . _ . _ . _
 72
65
 73
4
 40
1.778
 49
1.27
 74
0
 49
-0.254
 74
0
 49
0.0
 74
0
 49
-0.254
 74
0
  0
LTYPE
  5
3B
330
2
100
AcDbSymbolTableRecord
100
AcDbLinetypeTableRecord
  2
DOT
 70
0
  3
Dot .  .  .  .  .  .  .  .  .  .  .  .  .  .  .  .
 72
65
 73
2
 40
0.508
 49
0.0
 74
0
 49
-0.508
 74
0
  0
LTYPE
  5
3C
330
2
100
AcDbSymbolTableRecord
100
AcDbLinetypeTableRecord
  2
DOTX2
 70
0
  3
Dot (2x) .    .    .    .    .    .    .    . 
 72
65
 73
2
 40
1.016
 49
0.0
 74
0
 49
-1.016
 74
0
  0
LTYPE
  5
3D
330
2
100
AcDbSymbolTableRecord
100
AcDbLinetypeTableRecord
  2
DOT2
 70
0
  3
Dot (.5) . . . . . . . . . . . . . . . . . . . 
 72
65
 73
2
 40
0.254
 49
0.0
 74
0
 49
-0.254
 74
0
  0
LTYPE
  5
3E
330
2
100
AcDbSymbolTableRecord
100
AcDbLinetypeTableRecord
  2
DIVIDE
 70
0
  3
Divide __ . . __ . . __ . . __ . . __ . . __
 72
65
 73
6
 40
4.064
 49
2.54
 74
0
 49
-0.508
 74
0
 49
0.0
 74
0
 49
-0.508
 74
0
 49
0.0
 74
0
 49
-0.508
 74
0
  0
LTYPE
  5
3F
330
2
100
AcDbSymbolTableRecord
100
AcDbLinetypeTableRecord
  2
DIVIDEX2
 70
0
  3
Divide (2x) ____  . .  ____  . .  ____  . .  ____
 72
65
 73
6
 40
6.604
 49
5.08
 74
0
 49
-0.508
 74
0
 49
0.0
 74
0
 49
-0.508
 74
0
 49
0.0
 74
0
 49
-0.508
 74
0
  0
LTYPE
  5
40
330
2
100
AcDbSymbolTableRecord
100
AcDbLinetypeTableRecord
  2
DIVIDE2
 70
0
  3
Divide(.5x) _ . _ . _ . _ . _ . _ . _ . _
 72
65
 73
6
 40
2.032
 49
1.27
 74
0
 49
-0.254
 74
0
 49
0.0
 74
0
 49
-0.254
 74
0
 49
0.0
 74
0
 49
-0.254
 74
0
  0
ENDTAB
  0
TABLE
  2
LAYER
  5
1
330
0
100
AcDbSymbolTable
 70
4
  0
LAYER
  5
27
330
1
100
AcDbSymbolTableRecord
100
AcDbLayerTableRecord
  2
0
 70
0
 62
7
  6
Continuous
370
-3
390
13
347
21
  0
LAYER
  5
28
330
1
100
AcDbSymbolTableRecord
100
AcDbLayerTableRecord
  2
Defpoints
 70
0
 62
7
  6
Continuous
290
0
370
-3
390
13
347
21
  0
LAYER
  5
8A
330
1
100
AcDbSymbolTableRecord
100
AcDbLayerTableRecord
  2
CUT
 70
0
 62
1
  6
Continuous
370
-3
390
13
347
21
  0
LAYER
  5
8B
330
1
100
AcDbSymbolTableRecord
100
AcDbLayerTableRecord
  2
ENGRAVE-LABEL
 70
0
 62
3
  6
Continuous
370
-3
390
13
347
21
  0
ENDTAB
  0
TABLE
  2
STYLE
  5
5
330
0
100
AcDbSymbolTable
 70
26
  0
STYLE
  5
29
330
5
100
AcDbSymbolTableRecord
100
AcDbTextStyleTableRecord
  2
Standard
 70
0
 40
0.0
 41
1.0
 50
0.0
 71
0
 42
2.5
  3
txt
  4

  0
STYLE
  5
41
330
5
100
AcDbSymbolTableRecord
100
AcDbTextStyleTableRecord
  2
OpenSans-Light
 70
0
 40
0.0
 41
1.0
 50
0.0
 71
0
 42
2.5
  3
OpenSans-Light.ttf
  4

  0
STYLE
  5
42
330
5
100
AcDbSymbolTableRecord
100
AcDbTextStyleTableRecord
  2
OpenSans-Light-Italic
 70
0
 40
0.0
 41
1.0
 50
0.0
 71
0
 42
2.5
  3
OpenSans-LightItalic.ttf
  4

  0
STYLE
  5
43
330
5
100
AcDbSymbolTableRecord
100
AcDbTextStyleTableRecord
  2
OpenSans
 70
0
 40
0.0
 41
1.0
 50
0.0
 71
0
 42
2.5
  3
OpenSans-Regular.ttf
  4

  0
STYLE
  5
44
330
5
100
AcDbSymbolTableRecord
100
AcDbTextStyleTableRecord
  2
OpenSans-Italic
 70
0
 40
0.0
 41
1.0
 50
0.0
 71
0
 42
2.5
  3
OpenSans-Italic.ttf
  4

  0
STYLE
  5
45
330
5
100
AcDbSymbolTableRecord
100
AcDbTextStyleTableRecord
  2
OpenSans-SemiBold
 70
0
 40
0.0
 41
1.0
 50
0.0
 71
0
 42
2.5
  3
OpenSans-SemiBold.ttf
  4

  0
STYLE
  5
46
330
5
100
AcDbSymbolTableRecord
100
AcDbTextStyleTableRecord
  2
OpenSans-SemiBoldItalic
 70
0
 40
0.0
 41
1.0
 50
0.0
 71
0
 42
2.5
  3
OpenSans-SemiBoldItalic.ttf
  4

  0
STYLE
  5
47
330
5
100
AcDbSymbolTableRecord
100
AcDbTextStyleTableRecord
  2
OpenSans-Bold
 70
0
 40
0.0
 41
1.0
 50
0.0
 71
0
 42
2.5
  3
OpenSans-Bold.ttf
  4

  0
STYLE
  5
48
330
5
100
AcDbSymbolTableRecord
100
AcDbTextStyleTableRecord
  2
OpenSans-BoldItalic
 70
0
 40
0.0
 41
1.0
 50
0.0
 71
0
 42
2.5
  3
OpenSans-BoldItalic.ttf
  4

  0
STYLE
  5
49
330
5
100
AcDbSymbolTableRecord
100
AcDbTextStyleTableRecord
  2
OpenSans-ExtraBold
 70
0
 40
0.0
 41
1.0
 50
0.0
 71
0
 42
2.5
  3
OpenSans-ExtraBold.ttf
  4

  0
STYLE
  5
4A
330
5
100
AcDbSymbolTableRecord
100
AcDbTextStyleTableRecord
  2
OpenSans-ExtraBoldItalic
 70
0
 40
0.0
 41
1.0
 50
0.0
 71
0
 42
2.5
  3
OpenSans-ExtraBoldItalic.ttf
  4

  0
STYLE
  5
4B
330
5
100
AcDbSymbolTableRecord
100
AcDbTextStyleTableRecord
  2
OpenSansCondensed-Bold
 70
0
 40
0.0
 41
1.0
 50
0.0
 71
0
 42
2.5
  3
OpenSansCondensed-Bold.ttf
  4

  0
STYLE
  5
4C
330
5
100
AcDbSymbolTableRecord
100
AcDbTextStyleTableRecord
  2
OpenSansCondensed-Light
 70
0
 40
0.0
 41
1.0
 50
0.0
 71
0
 42
2.5
  3
OpenSansCondensed-Light.ttf
  4

  0
STYLE
  5
4D
330
5
100
AcDbSymbolTableRecord
100
AcDbTextStyleTableRecord
  2
OpenSansCondensed-Italic
 70
0
 40
0.0
 41
1.0
 50
0.0
 71
0
 42
2.5
  3
OpenSansCondensed-LightItalic.ttf
  4

  0
STYLE
  5
4E
330
5
100
AcDbSymbolTableRecord
100
AcDbTextStyleTableRecord
  2
LiberationSans
 70
0
 40
0.0
 41
1.0
 50
0.0
 71
0
 42
2.5
  3
LiberationSans-Regular.ttf
  4

  0
STYLE
  5
4F
330
5
100
AcDbSymbolTableRecord
100
AcDbTextStyleTableRecord
  2
LiberationSans-Bold
 70
0
 40
0.0
 41
1.0
 50
0.0
 71
0
 42
2.5
  3
LiberationSans-Bold.ttf
  4

  0
STYLE
  5
50
330
5
100
AcDbSymbolTableRecord
100
AcDbTextStyleTableRecord
  2
LiberationSans-BoldItalic
 70
0
 40
0.0
 41
1.0
 50
0.0
 71
0
 42
2.5
  3
LiberationSans-BoldItalic.ttf
  4

  0
STYLE
  5
51
330
5
100
AcDbSymbolTableRecord
100
AcDbTextStyleTableRecord
  2
LiberationSans-Italic
 70
0
 40
0.0
 41
1.0
 50
0.0
 71
0
 42
2.5
  3
LiberationSans-Italic.ttf
  4

  0
STYLE
  5
52
330
5
100
AcDbSymbolTableRecord
100
AcDbTextStyleTableRecord
  2
LiberationSerif
 70
0
 40
0.0
 41
1.0
 50
0.0
 71
0
 42
2.5
  3
LiberationSerif-Regular.ttf
  4

  0
STYLE
  5
53
330
5
100
AcDbSymbolTableRecord
100
AcDbTextStyleTableRecord
  2
LiberationSerif-Bold
 70
0
 40
0.0
 41
1.0
 50
0.0
 71
0
 42
2.5
  3
LiberationSerif-Bold.ttf
  4

  0
STYLE
  5
54
330
5
100
AcDbSymbolTableRecord
100
AcDbTextStyleTableRecord
  2
LiberationSerif-BoldItalic
 70
0
 40
0.0
 41
1.0
 50
0.0
 71
0
 42
2.5
  3
LiberationSerif-BoldItalic.ttf
  4

  0
STYLE
  5
55
330
5
100
AcDbSymbolTableRecord
100
AcDbTextStyleTableRecord
  2
LiberationSerif-Italic
 70
0
 40
0.0
 41
1.0
 50
0.0
 71
0
 42
2.5
  3
LiberationSerif-Italic.ttf
  4

  0
STYLE
  5
56
330
5
100
AcDbSymbolTableRecord
100
AcDbTextStyleTableRecord
  2
LiberationMono
 70
0
 40
0.0
 41
1.0
 50
0.0
 71
0
 42
2.5
  3
LiberationMono-Regular.ttf
  4

  0
STYLE
  5
57
330
5
100
AcDbSymbolTableRecord
100
AcDbTextStyleTableRecord
  2
LiberationMono-Bold
 70
0
 40
0.0
 41
1.0
 50
0.0
 71
0
 42
2.5
  3
LiberationMono-Bold.ttf
  4

  0
STYLE
  5
58
330
5
100
AcDbSymbolTableRecord
100
AcDbTextStyleTableRecord
  2
LiberationMono-BoldItalic
 70
0
 40
0.0
 41
1.0
 50
0.0
 71
0
 42
2.5
  3
LiberationMono-BoldItalic.ttf
  4

  0
STYLE
  5
59
330
5
100
AcDbSymbolTableRecord
100
AcDbTextStyleTableRecord
  2
LiberationMono-Italic
 70
0
 40
0.0
 41
1.0
 50
0.0
 71
0
 42
2.5
  3
LiberationMono-Italic.ttf
  4

  0
ENDTAB
  0
TABLE
  2
VIEW
  5
7
330
0
100
AcDbSymbolTable
 70
0
  0
ENDTAB
  0
TABLE
  2
UCS
  5
6
330
0
100
AcDbSymbolTable
 70
0
  0
ENDTAB
  0
TABLE
  2
APPID
  5
3
330
0
100
AcDbSymbolTable
 70
3
  0
APPID
  5
2A
330
3
100
AcDbSymbolTableRecord
100
AcDbRegAppTableRecord
  2
ACAD
 70
0
  0
APPID
  5
B0
330
3
100
AcDbSymbolTableRecord
100
AcDbRegAppTableRecord
  2
HATCHBACKGROUNDCOLOR
 70
0
  0
APPID
  5
B1
330
3
100
AcDbSymbolTableRecord
100
AcDbRegAppTableRecord
  2
EZDXF
 70
0
  0
ENDTAB
  0
TABLE
  2
DIMSTYLE
  5
4
330
0
100
AcDbSymbolTable
 70
12
100
AcDbDimStyleTable
  0
DIMSTYLE
105
2B
330
4
100
AcDbSymbolTableRecord
100
AcDbDimStyleTableRecord
  2
Standard
 70
0
 40
1.0
 41
2.5
 42
0.625
 43
3.75
 44
1.25
 45
0.0
 46
0.0
 47
0.0
 48
0.0
 49
2.5
140
2.5
141
2.5
142
0.0
143
0.03937007874
144
1.0
145
0.0
146
1.0
147
0.625
148
0.0
 69
0
 70
0
 71
0
 72
0
 73
0
 74
0
 75
0
 76
0
 77
1
 78
8
 79
3
170
0
171
3
172
1
173
0
174
0
175
0
176
0
177
0
178
0
179
2
271
2
272
2
273
2
274
3
275
0
276
0
277
2
278
44
279
0
280
0
281
0
282
0
283
0
284
8
285
0
286
0
288
0
289
3
290
0
371
-2
372
-2
  0
DIMSTYLE
105
73
330
4
100
AcDbSymbolTableRecord
100
AcDbDimStyleTableRecord
  2
EZDXF
 70
0
 40
1.0
 41
0.175
 42
0.125
 43
3.75
 44
0.375
 45
0.0
 46
0.0
 47
0.0
 48
0.0
 49
2.5
140
0.25
141
2.5
142
0.0
143
0.03937007874
144
100.0
145
0.0
146
0.5
147
0.1
148
0.0
 69
0
 70
0
 71
0
 72
0
 73
0
 74
0
 75
0
 76
0
 77
1
 78
12
 79
3
170
0
171
3
172
1
173
0
174
0
175
0
176
0
177
0
178
0
179
2
271
2
272
2
273
2
274
3
275
0
276
0
277
2
278
46
279
2
280
0
281
0
282
0
283
0
284
8
285
0
286
0
288
1
289
3
290
0
340
4C
342
74
371
-2
372
-2
  0
DIMSTYLE
105
7C
330
4
100
AcDbSymbolTableRecord
100
AcDbDimStyleTableRecord
  2
EZ_M_100_H25_CM
 70
0
 40
1.0
 41
0.25
 42
0.125
 43
3.75
 44
0.375
 45
0.0
 46
0.0
 47
0.0
 48
0.0
 49
2.5
140
0.25
141
2.5
142
0.125
143
0.03937007874
144
100.0
145
0.0
146
0.5
147
0.1
148
0.0
 69
0
 70
0
 71
0
 72
0
 73
0
 74
0
 75
0
 76
0
 77
1
 78
12
 79
3
170
0
171
3
172
1
173
0
174
0
175
0
176
0
177
0
178
0
179
2
271
2
272
2
273
2
274
3
275
0
276
0
277
2
278
46
279
2
280
0
281
0
282
0
283
0
284
8
285
0
286
0
288
1
289
3
290
0
340
4C
371
-2
372
-2
  0
DIMSTYLE
105
7D
330
4
100
AcDbSymbolTableRecord
100
AcDbDimStyleTableRecord
  2
EZ_M_50_H25_CM
 70
0
 40
1.0
 41
0.125
 42
0.0625
 43
3.75
 44
0.1875
 45
0.0
 46
0.0
 47
0.0
 48
0.0
 49
2.5
140
0.125
141
2.5
142
0.0625
143
0.03937007874
144
100.0
145
0.0
146
0.5
147
0.05
148
0.0
 69
0
 70
0
 71
0
 72
0
 73
0
 74
0
 75
0
 76
0
 77
1
 78
12
 79
3
170
0
171
3
172
1
173
0
174
0
175
0
176
0
177
0
178
0
179
2
271
2
272
2
273
2
274
3
275
0
276
0
277
2
278
46
279
2
280
0
281
0
282
0
283
0
284
8
285
0
286
0
288
1
289
3
290
0
340
4C
371
-2
372
-2
  0
DIMSTYLE
105
7E
330
4
100
AcDbSymbolTableRecord
100
AcDbDimStyleTableRecord
  2
EZ_M_25_H25_CM
 70
0
 40
1.0
 41
0.0625
 42
0.03125
 43
3.75
 44
0.09375
 45
0.0
 46
0.0
 47
0.0
 48
0.0
 49
2.5
140
0.0625
141
2.5
142
0.03125
143
0.03937007874
144
100.0
145
0.0
146
0.5
147
0.025
148
0.0
 69
0
 70
0
 71
0
 72
0
 73
0
 74
0
 75
0
 76
0
 77
1
 78
12
 79
3
170
0
171
3
172
1
173
0
174
0
175
0
176
0
177
0
178
0
179
2
271
2
272
2
273
2
274
3
275
0
276
0
277
2
278
46
279
2
280
0
281
0
282
0
283
0
284
8
285
0
286
0
288
1
289
3
290
0
340
4C
371
-2
372
-2
  0
DIMSTYLE
105
7F
330
4
100
AcDbSymbolTableRecord
100
AcDbDimStyleTableRecord
  2
EZ_M_20_H25_CM
 70
0
 40
1.0
 41
0.05
 42
0.025
 43
3.75
 44
0.07500000000000001
 45
0.0
 46
0.0
 47
0.0
 48
0.0
 49
2.5
140
0.05
141
2.5
142
0.025
143
0.03937007874
144
100.0
145
0.0
146
0.5
147
0.020000000000000004
148
0.0
 69
0
 70
0
 71
0
 72
0
 73
0
 74
0
 75
0
 76
0
 77
1
 78
12
 79
3
170
0
171
3
172
1
173
0
174
0
175
0
176
0
177
0
178
0
179
2
271
2
272
2
273
2
274
3
275
0
276
0
277
2
278
46
279
2
280
0
281
0
282
0
283
0
284
8
285
0
286
0
288
1
289
3
290
0
340
4C
371
-2
372
-2
  0
DIMSTYLE
105
80
330
4
100
AcDbSymbolTableRecord
100
AcDbDimStyleTableRecord
  2
EZ_M_10_H25_CM
 70
0
 40
1.0
 41
0.025
 42
0.0125
 43
3.75
 44
0.037500000000000006
 45
0.0
 46
0.0
 47
0.0
 48
0.0
 49
2.5
140
0.025
141
2.5
142
0.0125
143
0.03937007874
144
100.0
145
0.0
146
0.5
147
0.010000000000000002
148
0.0
 69
0
 70
0
 71
0
 72
0
 73
0
 74
0
 75
0
 76
0
 77
1
 78
12
 79
3
170
0
171
3
172
1
173
0
174
0
175
0
176
0
177
0
178
0
179
2
271
2
272
2
273
2
274
3
275
0
276
0
277
2
278
46
279
2
280
0
281
0
282
0
283
0
284
8
285
0
286
0
288
1
289
3
290
0
340
4C
371
-2
372
-2
  0
DIMSTYLE
105
81
330
4
100
AcDbSymbolTableRecord
100
AcDbDimStyleTableRecord
  2
EZ_M_5_H25_CM
 70
0
 40
1.0
 41
0.0125
 42
0.00625
 43
3.75
 44
0.018750000000000003
 45
0.0
 46
0.0
 47
0.0
 48
0.0
 49
2.5
140
0.0125
141
2.5
142
0.00625
143
0.03937007874
144
100.0
145
0.0
146
0.5
147
0.005000000000000001
148
0.0
 69
0
 70
0
 71
0
 72
0
 73
0
 74
0
 75
0
 76
0
 77
1
 78
12
 79
3
170
0
171
3
172
1
173
0
174
0
175
0
176
0
177
0
178
0
179
2
271
2
272
2
273
2
274
3
275
0
276
0
277
2
278
46
279
2
280
0
281
0
282
0
283
0
284
8
285
0
286
0
288
1
289
3
290
0
340
4C
371
-2
372
-2
  0
DIMSTYLE
105
82
330
4
100
AcDbSymbolTableRecord
100
AcDbDimStyleTableRecord
  2
EZ_M_1_H25_CM
 70
0
 40
1.0
 41
0.0025
 42
0.00125
 43
3.75
 44
0.00375
 45
0.0
 46
0.0
 47
0.0
 48
0.0
 49
2.5
140
0.0025
141
2.5
142
0.00125
143
0.03937007874
144
100.0
145
0.0
146
0.5
147
0.001
148
0.0
 69
0
 70
0
 71
0
 72
0
 73
0
 74
0
 75
0
 76
0
 77
1
 78
12
 79
3
170
0
171
3
172
1
173
0
174
0
175
0
176
0
177
0
178
0
179
2
271
2
272
2
273
2
274
3
275
0
276
0
277
2
278
46
279
2
280
0
281
0
282
0
283
0
284
8
285
0
286
0
288
1
289
3
290
0
340
4C
371
-2
372
-2
  0
DIMSTYLE
105
83
330
4
100
AcDbSymbolTableRecord
100
AcDbDimStyleTableRecord
  2
EZ_RADIUS
 70
0
 40
1.0
 41
0.25
 42
0.125
 43
3.75
 44
0.375
 45
0.0
 46
0.0
 47
0.0
 48
0.0
 49
2.5
140
0.25
141
0.0
142
0.0
143
0.03937007874
144
100.0
145
0.0
146
0.5
147
0.1
148
0.0
 69
0
 70
0
 71
0
 72
0
 73
0
 74
0
 75
0
 76
0
 77
1
 78
12
 79
3
170
0
171
3
172
0
173
0
174
0
175
0
176
0
177
0
178
0
179
2
271
2
272
2
273
2
274
3
275
0
276
0
277
2
278
46
279
1
280
0
281
0
282
0
283
0
284
8
285
0
286
0
288
1
289
3
290
0
340
4C
342
84
371
-2
372
-2
  0
DIMSTYLE
105
88
330
4
100
AcDbSymbolTableRecord
100
AcDbDimStyleTableRecord
  2
EZ_RADIUS_INSIDE
 70
0
 40
1.0
 41
0.25
 42
0.125
 43
3.75
 44
0.375
 45
0.0
 46
0.0
 47
0.0
 48
0.0
 49
2.5
140
0.25
141
0.0
142
0.0
143
0.03937007874
144
100.0
145
0.0
146
0.5
147
0.1
148
0.0
 69
0
 70
0
 71
0
 72
0
 73
0
 74
0
 75
0
 76
0
 77
0
 78
12
 79
3
170
0
171
3
172
0
173
0
174
1
175
0
176
0
177
0
178
0
179
2
271
2
272
2
273
2
274
3
275
0
276
0
277
2
278
46
279
0
280
0
281
0
282
0
283
0
284
8
285
0
286
0
288
1
289
0
290
0
340
4C
342
84
371
-2
372
-2
  0
DIMSTYLE
105
89
330
4
100
AcDbSymbolTableRecord
100
AcDbDimStyleTableRecord
  2
EZ_CURVED
 70
0
 40
1.0
 41
0.25
 42
0.125
 43
3.75
 44
0.375
 45
0.0
 46
0.0
 47
0.0
 48
0.0
 49
2.5
140
0.25
141
2.5
142
0.0
143
0.03937007874
144
100.0
145
0.0
146
0.5
147
0.1
148
0.0
 69
0
 70
0
 71
0
 72
0
 73
0
 74
0
 75
0
 76
0
 77
1
 78
12
 79
2
 90
2
170
0
171
3
172
1
173
0
174
0
175
0
176
0
177
0
178
0
179
2
271
2
272
2
273
2
274
3
275
0
276
0
277
2
278
46
279
2
280
0
281
0
282
0
283
0
284
8
285
0
286
0
288
1
289
3
290
0
340
4C
371
-2
372
-2
  0
ENDTAB
  0
TABLE
  2
BLOCK_RECORD
  5
9
330
0
100
AcDbSymbolTable
 70
5
  0
BLOCK_RECORD
  5
17
330
9
100
AcDbSymbolTableRecord
100
AcDbBlockTableRecord
  2
*Model_Space
340
1A
 70
0
280
1
281
0
  0
BLOCK_RECORD
  5
1B
330
9
100
AcDbSymbolTableRecord
100
AcDbBlockTableRecord
  2
*Paper_Space
340
1E
 70
0
280
1
281
0
  0
BLOCK_RECORD
  5
74
330
9
100
AcDbSymbolTableRecord
100
AcDbBlockTableRecord
  2
_ARCHTICK
340
0
 70
0
280
1
281
0
  0
BLOCK_RECORD
  5
78
330
9
100
AcDbSymbolTableRecord
100
AcDbBlockTableRecord
  2
_CLOSEDFILLED
340
0
 70
0
280
1
281
0
  0
BLOCK_RECORD
  5
84
330
9
100
AcDbSymbolTableRecord
100
AcDbBlockTableRecord
  2
_CLOSEDBLANK
340
0
 70
0
280
1
281
0
  0
ENDTAB
  0
ENDSEC
  0
SECTION
  2
BLOCKS
  0
BLOCK
  5
18
330
17
100
AcDbEntity
  8
0
100
AcDbBlockBegin
  2
*Model_Space
 70
0
 10
0.0
 20
0.0
 30
0.0
  3
*Model_Space
  1

  0
ENDBLK
  5
19
330
17
100
AcDbEntity
  8
0
100
AcDbBlockEnd
  0
BLOCK
  5
1C
330
1B
100
AcDbEntity
  8
0
100
AcDbBlockBegin
  2
*Paper_Space
 70
0
 10
0.0
 20
0.0
 30
0.0
  3
*Paper_Space
  1

  0
ENDBLK
  5
1D
330
1B
100
AcDbEntity
  8
0
100
AcDbBlockEnd
  0
BLOCK
  5
75
330
74
100
AcDbEntity
  8
0
100
AcDbBlockBegin
  2
_ARCHTICK
 70
0
 10
0.0
 20
0.0
 30
0.0
  3
_ARCHTICK
  1

  0
LWPOLYLINE
  5
77
330
74
100
AcDbEntity
  8
0
  6
BYBLOCK
 62
0
100
AcDbPolyline
 90
2
 70
0
 43
0.15
 10
-0.5
 20
-0.5
 10
0.5
 20
0.5
  0
ENDBLK
  5
76
330
74
100
AcDbEntity
  8
0
100
AcDbBlockEnd
  0
BLOCK
  5
79
330
78
100
AcDbEntity
  8
0
100
AcDbBlockBegin
  2
_CLOSEDFILLED
 70
0
 10
0.0
 20
0.0
 30
0.0
  3
_CLOSEDFILLED
  1

  0
SOLID
  5
7B
330
78
100
AcDbEntity
  8
0
  6
BYBLOCK
 62
0
100
AcDbTrace
 10
-1.0
 20
0.16439898372402537
 30
0.0
 11
0.0
 21
0.0
 31
0.0
 12
-1.0
 22
-0.16439898372402537
 32
0.0
 13
-1.0
 23
-0.16439898372402537
 33
0.0
  0
ENDBLK
  5
7A
330
78
100
AcDbEntity
  8
0
100
AcDbBlockEnd
  0
BLOCK
  5
85
330
84
100
AcDbEntity
  8
0
100
AcDbBlockBegin
  2
_CLOSEDBLANK
 70
0
 10
0.0
 20
0.0
 30
0.0
  3
_CLOSEDBLANK
  1

  0
LWPOLYLINE
  5
87
330
84
100
AcDbEntity
  8
0
  6
BYBLOCK
 62
0
100
AcDbPolyline
 90
3
 70
1
 10
-1.0
 20
0.16439898372402537
 10
0.0
 20
0.0
 10
-1.0
 20
-0.16439898372402537
  0
ENDBLK
  5
86
330
84
100
AcDbEntity
  8
0
100
AcDbBlockEnd
  0
ENDSEC
  0
SECTION
  2
ENTITIES
  0
LWPOLYLINE
  5
8C
330
17
100
AcDbEntity
  8
CUT
100
AcDbPolyline
 90
180
 70
1
 10
913.4999999999998
 20
442.79999999999984
 10
913.4607738816759
 20
458.7486916591196
 10
913.2805723375894
 20
474.72372747831366
 10
912.8909435882157
 20
490.7423450492033
 10
912.2352535579055
 20
506.81427772965833
 10
911.2616491360169
 20
522.9426667889788
 10
909.9206746682551
 20
539.1244004571683
 10
908.1642426133542
 20
555.3502115657545
 10
905.9452556005496
 20
571.6046668482057
 10
903.2176333283869
 20
587.8661277988839
 10
899.9366353386457
 20
604.1067434878568
 10
896.0594203107643
 20
620.2925270619885
 10
891.5457994465465
 20
636.3835621652597
 10
886.3591435797355
 20
652.3343796697071
 10
880.4673981582782
 20
668.0945369598185
 10
873.8441511796341
 20
683.60942046098
 10
866.4696894305845
 20
698.8212767989801
 10
858.3319705915618
 20
713.6704593743733
 10
849.4274352915216
 20
728.0968565273636
 10
839.7615859976449
 20
742.0414469255014
 10
829.3492698804944
 20
755.4479099336465
 10
818.2146205894869
 20
768.2642062493583
 10
806.3906379861246
 20
780.4440393195844
 10
793.9184128516908
 20
791.9481123605797
 10
780.8460320572003
 20
802.7451092092099
 10
767.2272249992183
 20
812.8123483114991
 10
753.1198310054997
 20
822.1360852299662
 10
738.5841776630912
 20
830.7114667063393
 10
723.6814607978001
 20
838.5421650469073
 10
708.4722087950628
 20
845.6397424612198
 10
693.0148989758126
 20
852.0228090712353
 10
677.3647744440842
 20
857.7160449434007
 10
661.5728890043756
 20
862.7491561690413
 10
645.6853878921412
 20
867.1558290976066
 10
629.7430150087056
 20
870.9727371808954
 10
613.7808241510527
 20
874.2386435133668
 10
597.8280626627608
 20
876.9936309137578
 10
581.9081906641085
 20
879.2784818870065
 10
566.0389967573503
 20
881.1342244396417
 10
550.2327707577991
 20
882.6018580246139
 10
534.496494234806
 20
883.7222792928688
 10
518.8320087189803
 20
884.5364451438255
 10
503.2361165506656
 20
885.085854924502
 10
487.7005544426775
 20
885.4135495449254
 10
472.2117364648431
 20
885.5662016009419
 10
456.7499999999999
 20
885.5999999999997
 10
441.2882635351567
 20
885.5662016009419
 10
425.7994455573222
 20
885.4135495449254
 10
410.2638834493341
 20
885.085854924502
 10
394.6679912810195
 20
884.5364451438255
 10
379.0035057651938
 20
883.7222792928688
 10
363.2672292422007
 20
882.6018580246139
 10
347.46100324264944
 20
881.1342244396417
 10
331.59180933589136
 20
879.2784818870065
 10
315.671937337239
 20
876.9936309137579
 10
299.7191758489472
 20
874.2386435133667
 10
283.75698499129413
 20
870.9727371808954
 10
267.8146121078585
 20
867.1558290976066
 10
251.92711099562405
 20
862.7491561690413
 10
236.13522555591555
 20
857.7160449434007
 10
220.48510102418737
 20
852.0228090712353
 10
205.02779120493707
 20
845.6397424612198
 10
189.8185392021997
 20
838.5421650469073
 10
174.91582233690866
 20
830.7114667063394
 10
160.38016899450014
 20
822.1360852299662
 10
146.2727750007815
 20
812.8123483114991
 10
132.6539679427994
 20
802.7451092092099
 10
119.58158714830881
 20
791.9481123605797
 10
107.10936201387511
 20
780.4440393195844
 10
95.28537941051297
 20
768.2642062493583
 10
84.15073011950551
 20
755.4479099336467
 10
73.73841400235489
 20
742.0414469255015
 10
64.07256470847813
 20
728.0968565273637
 10
55.168029408437974
 20
713.6704593743733
 10
47.03031056941529
 20
698.8212767989801
 10
39.65584882036575
 20
683.60942046098
 10
33.032601841721544
 20
668.0945369598185
 10
27.1408564202643
 20
652.334379669707
 10
21.954200553453177
 20
636.38356216526
 10
17.440579689235506
 20
620.2925270619887
 10
13.563364661354058
 20
604.1067434878569
 10
10.282366671612976
 20
587.866127798884
 10
7.554744399450215
 20
571.6046668482059
 10
5.3357573866455255
 20
555.3502115657545
 10
3.5793253317447125
 20
539.1244004571683
 10
2.2383508639828733
 20
522.9426667889788
 10
1.2647464420942356
 20
506.8142777296583
 10
0.6090564117840813
 20
490.74234504920344
 10
0.2194276624103395
 20
474.7237274783138
 10
0.039226118323881565
 20
458.74869165911963
 10
0.0
 20
442.7999999999999
 10
0.039226118323881565
 20
426.85130834088017
 10
0.2194276624103395
 20
410.876272521686
 10
0.6090564117840813
 20
394.85765495079636
 10
1.2647464420941787
 20
378.7857222703413
 10
2.2383508639828733
 20
362.6573332110207
 10
3.5793253317447125
 20
346.4755995428312
 10
5.3357573866455255
 20
330.24978843424526
 10
7.554744399450215
 20
313.995333151794
 10
10.282366671612976
 20
297.73387220111584
 10
13.563364661354
 20
281.4932565121429
 10
17.440579689235506
 20
265.30747293801113
 10
21.954200553453234
 20
249.2164378347399
 10
27.1408564202643
 20
233.26562033029253
 10
33.032601841721544
 20
217.50546304018113
 10
39.65584882036575
 20
201.99057953901954
 10
47.030310569415235
 20
186.7787232010196
 10
55.16802940843792
 20
171.9295406256265
 10
64.07256470847807
 20
157.50314347263617
 10
73.73841400235477
 20
143.55855307449826
 10
84.1507301195054
 20
130.15209006635314
 10
95.28537941051286
 20
117.33579375064147
 10
107.10936201387517
 20
105.15596068041532
 10
119.58158714830887
 20
93.6518876394199
 10
132.65396794279945
 20
82.85489079078968
 10
146.2727750007814
 20
72.78765168850049
 10
160.3801689945002
 20
63.463914770033455
 10
174.9158223369086
 20
54.88853329366043
 10
189.81853920219976
 20
47.057834953092424
 10
205.02779120493696
 20
39.9602575387799
 10
220.48510102418703
 20
33.57719092876442
 10
236.13522555591564
 20
27.88395505659895
 10
251.92711099562393
 20
22.85084383095841
 10
267.8146121078587
 20
18.444170902393125
 10
283.756984991294
 20
14.627262819104317
 10
299.7191758489472
 20
11.361356486632872
 10
315.67193733723894
 20
8.606369086241898
 10
331.59180933589147
 20
6.32151811299326
 10
347.46100324264944
 20
4.46577556035794
 10
363.2672292422005
 20
2.9981419753858063
 10
379.0035057651938
 20
1.877720707130834
 10
394.6679912810193
 20
1.0635548561741643
 10
410.26388344933423
 20
0.5141450754976518
 10
425.7994455573221
 20
0.1864504550741799
 10
441.2882635351568
 20
0.03379839905784365
 10
456.74999999999983
 20
0.0
 10
472.2117364648432
 20
0.03379839905784365
 10
487.7005544426775
 20
0.18645045507423674
 10
503.2361165506654
 20
0.5141450754976518
 10
518.8320087189803
 20
1.0635548561741643
 10
534.4964942348058
 20
1.877720707130834
 10
550.2327707577991
 20
2.9981419753858063
 10
566.0389967573502
 20
4.4657755603578835
 10
581.9081906641086
 20
6.32151811299326
 10
597.8280626627607
 20
8.606369086241841
 10
613.7808241510527
 20
11.361356486632928
 10
629.7430150087056
 20
14.62726281910426
 10
645.685387892141
 20
18.44417090239307
 10
661.5728890043756
 20
22.850843830958354
 10
677.364774444084
 20
27.883955056598893
 10
693.0148989758126
 20
33.57719092876437
 10
708.4722087950627
 20
39.96025753877984
 10
723.6814607978002
 20
47.05783495309254
 10
738.584177663091
 20
54.888533293660316
 10
753.1198310054998
 20
63.46391477003357
 10
767.2272249992183
 20
72.78765168850043
 10
780.8460320572001
 20
82.85489079078957
 10
793.9184128516908
 20
93.6518876394199
 10
806.3906379861245
 20
105.1559606804152
 10
818.2146205894869
 20
117.33579375064153
 10
829.3492698804941
 20
130.15209006635297
 10
839.7615859976449
 20
143.55855307449826
 10
849.4274352915216
 20
157.50314347263594
 10
858.3319705915619
 20
171.92954062562654
 10
866.4696894305845
 20
186.7787232010195
 10
873.8441511796339
 20
201.99057953901936
 10
880.4673981582782
 20
217.50546304018116
 10
886.3591435797355
 20
233.26562033029236
 10
891.5457994465467
 20
249.21643783473993
 10
896.0594203107643
 20
265.30747293801096
 10
899.9366353386458
 20
281.493256512143
 10
903.2176333283868
 20
297.7338722011157
 10
905.9452556005496
 20
313.99533315179406
 10
908.1642426133542
 20
330.2497884342451
 10
909.9206746682551
 20
346.4755995428311
 10
911.2616491360169
 20
362.6573332110207
 10
912.2352535579055
 20
378.7857222703411
 10
912.8909435882157
 20
394.85765495079636
 10
913.2805723375894
 20
410.8762725216859
 10
913.4607738816759
 20
426.85130834088017
  0
LWPOLYLINE
  5
8D
330
17
100
AcDbEntity
  8
CUT
100
AcDbPolyline
 90
180
 70
1
 10
770.280047637159
 20
431.85128947772597
 10
770.3122926037846
 20
420.8735885325189
 10
770.283193096589
 20
409.84633350917716
 10
770.1399743007686
 20
398.7559114244087
 10
769.8341217897726
 20
387.5948220970479
 10
769.3191781079586
 20
376.3613702173472
 10
768.5497917871398
 20
365.05958062679264
 10
767.4813689276536
 20
353.6992137494774
 10
766.0700993414283
 20
342.29580728325044
 10
764.2732564910345
 20
330.8706882926526
 10
762.0497163358817
 20
319.4509078602694
 10
759.3606558470071
 20
308.06905553688296
 10
756.1703938610558
 20
296.76291623273715
 10
752.4473318700568
 20
285.57493972755617
 10
748.1649439583987
 20
274.5515036597384
 10
743.3027561015747
 20
263.7419650069771
 10
737.8472478360701
 20
253.19751227360422
 10
731.7926060970378
 20
242.96984965707514
 10
725.141263607843
 20
233.10976346321655
 10
717.9041636897081
 20
223.66563756755454
 10
710.1007098143791
 20
214.68199625740442
 10
701.7583805201921
 20
206.19815719798987
 10
692.9120161757857
 20
198.24707328407482
 10
683.6028104036104
 20
190.85442974157556
 10
673.8770623855544
 20
184.03804335258803
 10
663.784763750545
 20
177.80758656441873
 10
653.3781032211241
 20
172.16463366990462
 10
642.7099729136506
 20
167.103002452535
 10
631.8325527528407
 20
162.60934539697723
 10
620.7960356120417
 20
158.6639315396901
 10
609.6475379460653
 20
155.24155389853917
 10
598.4302214315795
 20
152.3124977230268
 10
587.1826327696951
 20
149.84351028211978
 10
575.9382530366943
 20
147.7987218272225
 10
564.7252357614854
 20
146.14047788502967
 10
553.5663045263557
 20
144.83005342908848
 10
542.4787760157658
 20
143.82822826981612
 10
531.4746723460805
 20
143.09570888962622
 10
520.5608861896872
 20
142.59338351949424
 10
509.73936242274874
 20
142.28239225872971
 10
499.0072591678671
 20
142.12397756601484
 10
488.3570465889488
 20
142.07903943114587
 10
477.776488015172
 20
142.10721234427
 10
467.24840786950205
 20
142.1649331815841
 10
456.74999999999983
 20
142.2
 10
446.2515921304979
 20
142.1649331815841
 10
435.72351198482767
 20
142.1072123442699
 10
425.1429534110509
 20
142.07903943114587
 10
414.49274083213254
 20
142.1239775660148
 10
403.7606375772509
 20
142.28239225872971
 10
392.93911381031245
 20
142.59338351949424
 10
382.0253276539192
 20
143.09570888962628
 10
371.0212239842342
 20
143.82822826981607
 10
359.93369547364404
 20
144.83005342908854
 10
348.7747642385146
 20
146.1404778850296
 10
337.5617469633054
 20
147.79872182722255
 10
326.3173672303045
 20
149.84351028211984
 10
315.06977856842013
 20
152.3124977230268
 10
303.8524620539343
 20
155.24155389853922
 10
292.70396438795797
 20
158.66393153969017
 10
281.6674472471589
 20
162.6093453969773
 10
270.7900270863493
 20
167.10300245253495
 10
260.12189677887557
 20
172.16463366990473
 10
249.71523624945488
 20
177.80758656441867
 10
239.62293761444528
 20
184.0380433525881
 10
229.8971895963892
 20
190.85442974157561
 10
220.58798382421412
 20
198.24707328407482
 10
211.74161947980764
 20
206.19815719798996
 10
203.3992901856207
 20
214.68199625740436
 10
195.5958363102916
 20
223.66563756755463
 10
188.3587363921567
 20
233.10976346321655
 10
181.70739390296194
 20
242.9698496570753
 10
175.65275216392968
 20
253.1975122736042
 10
170.19724389842503
 20
263.74196500697724
 10
165.33505604160104
 20
274.5515036597385
 10
161.0526681299429
 20
285.5749397275561
 10
157.32960613894403
 20
296.76291623273727
 10
154.13934415299263
 20
308.0690555368829
 10
151.450283664118
 20
319.4509078602695
 10
149.22674350896528
 20
330.8706882926526
 10
147.42990065857146
 20
342.29580728325055
 10
146.01863107234618
 20
353.6992137494774
 10
144.95020821286
 20
365.05958062679275
 10
144.1808218920412
 20
376.36137021734737
 10
143.66587821022728
 20
387.5948220970479
 10
143.36002569923113
 20
398.75591142440874
 10
143.2168069034107
 20
409.84633350917716
 10
143.18770739621516
 20
420.873588532519
 10
143.21995236284084
 20
431.85128947772597
 10
143.25000000000006
 20
442.7999999999999
 10
143.21995236284084
 20
453.7487105222738
 10
143.18770739621516
 20
464.7264114674808
 10
143.2168069034107
 20
475.7536664908226
 10
143.3600256992312
 20
486.84408857559083
 10
143.66587821022728
 20
498.00517790295174
 10
144.18082189204125
 20
509.23862978265225
 10
144.95020821286
 20
520.540419373207
 10
146.01863107234618
 20
531.9007862505224
 10
147.42990065857146
 20
543.3041927167492
 10
149.22674350896528
 20
554.7293117073472
 10
151.45028366411805
 20
566.1490921397302
 10
154.13934415299258
 20
577.5309444631168
 10
157.32960613894403
 20
588.8370837672624
 10
161.05266812994284
 20
600.0250602724435
 10
165.33505604160104
 20
611.0484963402611
 10
170.19724389842503
 20
621.8580349930226
 10
175.65275216392973
 20
632.4024877263955
 10
181.70739390296194
 20
642.6301503429245
 10
188.35873639215674
 20
652.4902365367832
 10
195.59583631029165
 20
661.9343624324451
 10
203.39929018562077
 20
670.9180037425954
 10
211.74161947980755
 20
679.4018428020097
 10
220.5879838242141
 20
687.3529267159248
 10
229.89718959638915
 20
694.745570258424
 10
239.62293761444536
 20
701.5619566474115
 10
249.71523624945485
 20
707.792413435581
 10
260.1218967788757
 20
713.435366330095
 10
270.79002708634926
 20
718.4969975474647
 10
281.667447247159
 20
722.9906546030224
 10
292.7039643879582
 20
726.9360684603096
 10
303.85246205393423
 20
730.3584461014605
 10
315.06977856842025
 20
733.2875022769729
 10
326.3173672303044
 20
735.75648971788
 10
337.56174696330544
 20
737.8012781727772
 10
348.77476423851454
 20
739.45952211497
 10
359.9336954736441
 20
740.7699465709111
 10
371.0212239842341
 20
741.7717717301837
 10
382.0253276539192
 20
742.5042911103734
 10
392.9391138103126
 20
743.0066164805055
 10
403.7606375772509
 20
743.31760774127
 10
414.4927408321327
 20
743.4760224339848
 10
425.1429534110508
 20
743.5209605688538
 10
435.7235119848277
 20
743.4927876557298
 10
446.25159213049784
 20
743.4350668184156
 10
456.7499999999999
 20
743.3999999999996
 10
467.248407869502
 20
743.4350668184156
 10
477.776488015172
 20
743.4927876557298
 10
488.35704658894895
 20
743.5209605688538
 10
499.0072591678671
 20
743.4760224339848
 10
509.7393624227489
 20
743.31760774127
 10
520.5608861896872
 20
743.0066164805055
 10
531.4746723460805
 20
742.5042911103734
 10
542.4787760157657
 20
741.7717717301837
 10
553.5663045263557
 20
740.7699465709111
 10
564.7252357614852
 20
739.45952211497
 10
575.9382530366943
 20
737.8012781727772
 10
587.1826327696954
 20
735.75648971788
 10
598.4302214315795
 20
733.2875022769729
 10
609.6475379460655
 20
730.3584461014605
 10
620.7960356120417
 20
726.9360684603096
 10
631.8325527528408
 20
722.9906546030224
 10
642.7099729136505
 20
718.4969975474647
 10
653.3781032211241
 20
713.435366330095
 10
663.7847637505449
 20
707.792413435581
 10
673.8770623855544
 20
701.5619566474115
 10
683.6028104036106
 20
694.745570258424
 10
692.9120161757857
 20
687.3529267159249
 10
701.7583805201922
 20
679.4018428020097
 10
710.1007098143791
 20
670.9180037425954
 10
717.9041636897082
 20
661.934362432445
 10
725.141263607843
 20
652.4902365367832
 10
731.7926060970378
 20
642.6301503429245
 10
737.84724783607
 20
632.4024877263955
 10
743.3027561015747
 20
621.8580349930226
 10
748.1649439583987
 20
611.0484963402611
 10
752.4473318700568
 20
600.0250602724435
 10
756.1703938610558
 20
588.8370837672624
 10
759.3606558470071
 20
577.5309444631168
 10
762.0497163358818
 20
566.1490921397301
 10
764.2732564910344
 20
554.729311707347
 10
766.0700993414284
 20
543.3041927167492
 10
767.4813689276536
 20
531.9007862505224
 10
768.5497917871398
 20
520.540419373207
 10
769.3191781079586
 20
509.2386297826523
 10
769.8341217897726
 20
498.00517790295174
 10
770.1399743007686
 20
486.8440885755909
 10
770.283193096589
 20
475.7536664908225
 10
770.3122926037846
 20
464.72641146748066
 10
770.280047637159
 20
453.74871052227377
 10
770.2499999999998
 20
442.79999999999984
  0
LWPOLYLINE
  5
8E
330
17
100
AcDbEntity
  8
CUT
100
AcDbPolyline
 90
8
 70
1
 10
803.095722317528
 20
491.2772430955944
 42
2.414213562373095
 10
806.7569152955613
 20
488.61723069381867
 10
840.930931880153
 20
494.0298631842107
 42
2.414213562373095
 10
843.5909442819288
 20
497.69105616224385
 10
841.6198700224218
 20
510.1359292537426
 42
2.414213562373095
 10
837.9586770443887
 20
512.7959416555183
 10
803.7846604597969
 20
507.3833091651263
 42
2.414213562373095
 10
801.1246480580212
 20
503.7221161870931
  0
LWPOLYLINE
  5
8F
330
17
100
AcDbEntity
  8
CUT
100
AcDbPolyline
 90
8
 70
1
 10
786.1951034948694
 20
603.5900091448653
 42
2.414213562373095
 10
790.4990939714387
 20
602.1915578666291
 10
821.3279197083561
 20
617.8996291576174
 42
2.414213562373095
 10
822.7263709865924
 20
622.2036196341867
 10
817.0060906898741
 20
633.4303018389602
 42
2.414213562373095
 10
812.7021002133049
 20
634.8287531171964
 10
781.8732744763872
 20
619.120681826208
 42
2.414213562373095
 10
780.4748231981511
 20
614.8166913496387
  0
LWPOLYLINE
  5
90
330
17
100
AcDbEntity
  8
CUT
100
AcDbPolyline
 90
8
 70
1
 10
724.8315065232526
 20
701.9719610803021
 42
2.414213562373095
 10
729.3569899228465
 20
701.9719610803021
 10
753.8228845519011
 20
726.4378557093567
 42
2.414213562373095
 10
753.8228845519011
 20
730.9633391089505
 10
744.9133391089506
 20
739.872884551901
 42
2.414213562373095
 10
740.3878557093567
 20
739.872884551901
 10
715.9219610803021
 20
715.4069899228465
 42
2.414213562373095
 10
715.9219610803021
 20
710.8815065232526
  0
LWPOLYLINE
  5
91
330
17
100
AcDbEntity
  8
CUT
100
AcDbPolyline
 90
8
 70
1
 10
624.4129907921214
 20
757.9802047461435
 42
2.414213562373095
 10
628.7169812686907
 20
759.3786560243798
 10
644.425052559679
 20
790.2074817612973
 42
2.414213562373095
 10
643.0266012814428
 20
794.5114722378667
 10
631.7999190766693
 20
800.231752534585
 42
2.414213562373095
 10
627.4959286001
 20
798.8333012563487
 10
611.7878573091117
 20
768.0044755194311
 42
2.414213562373095
 10
613.1863085873479
 20
763.7004850428618
  0
LWPOLYLINE
  5
92
330
17
100
AcDbEntity
  8
CUT
100
AcDbPolyline
 90
8
 70
1
 10
515.6690511523227
 20
774.5277931607465
 42
2.414213562373095
 10
519.3302441303559
 20
777.1878055625223
 10
524.7428766207479
 20
811.361822147114
 42
2.414213562373095
 10
522.0828642189722
 20
815.0230151251471
 10
509.63799112747347
 20
816.9940893846541
 42
2.414213562373095
 10
505.97679814944024
 20
814.3340769828783
 10
500.5641656590483
 20
780.1600603982865
 42
2.414213562373095
 10
503.224178060824
 20
776.4988674202534
  0
LWPOLYLINE
  5
93
330
17
100
AcDbEntity
  8
CUT
100
AcDbPolyline
 90
8
 70
1
 10
410.27582193917584
 20
776.4988674202534
 42
2.414213562373095
 10
412.93583434095154
 20
780.1600603982865
 10
407.52320185055953
 20
814.3340769828783
 42
2.414213562373095
 10
403.86200887252636
 20
816.9940893846541
 10
391.41713578102764
 20
815.0230151251471
 42
2.414213562373095
 10
388.75712337925194
 20
811.361822147114
 10
394.1697558696439
 20
777.1878055625223
 42
2.414213562373095
 10
397.83094884767706
 20
774.5277931607465
  0
LWPOLYLINE
  5
94
330
17
100
AcDbEntity
  8
CUT
100
AcDbPolyline
 90
8
 70
1
 10
300.3136914126519
 20
763.7004850428618
 42
2.414213562373095
 10
301.7121426908882
 20
768.004475519431
 10
286.0040713998999
 20
798.8333012563487
 42
2.414213562373095
 10
281.7000809233306
 20
800.2317525345849
 10
270.47339871855706
 20
794.5114722378665
 42
2.414213562373095
 10
269.0749474403209
 20
790.2074817612972
 10
284.7830187313092
 20
759.3786560243798
 42
2.414213562373095
 10
289.0870092078785
 20
757.9802047461435
  0
LWPOLYLINE
  5
95
330
17
100
AcDbEntity
  8
CUT
100
AcDbPolyline
 90
8
 70
1
 10
197.57803891969763
 20
710.8815065232526
 42
2.414213562373095
 10
197.57803891969763
 20
715.4069899228465
 10
173.11214429064307
 20
739.872884551901
 42
2.414213562373095
 10
168.58666089104918
 20
739.872884551901
 10
159.67711544809868
 20
730.9633391089505
 42
2.414213562373095
 10
159.67711544809868
 20
726.4378557093567
 10
184.14301007715324
 20
701.9719610803021
 42
2.414213562373095
 10
188.66849347674713
 20
701.9719610803021
  0
LWPOLYLINE
  5
96
330
17
100
AcDbEntity
  8
CUT
100
AcDbPolyline
 90
8
 70
1
 10
133.02517680184872
 20
614.8166913496389
 42
2.414213562373095
 10
131.6267255236125
 20
619.1206818262082
 10
100.79789978669493
 20
634.8287531171965
 42
2.414213562373095
 10
96.49390931012567
 20
633.4303018389603
 10
90.77362901340734
 20
622.2036196341868
 42
2.414213562373095
 10
92.17208029164357
 20
617.8996291576175
 10
123.00090602856113
 20
602.1915578666292
 42
2.414213562373095
 10
127.30489650513039
 20
603.5900091448653
  0
LWPOLYLINE
  5
97
330
17
100
AcDbEntity
  8
CUT
100
AcDbPolyline
 90
8
 70
1
 10
112.37535194197858
 20
503.7221161870932
 42
2.414213562373095
 10
109.71533954020282
 20
507.3833091651264
 10
75.54132295561107
 20
512.7959416555184
 42
2.414213562373095
 10
71.8801299775779
 20
510.13592925374263
 10
69.90905571807093
 20
497.6910561622439
 42
2.414213562373095
 10
72.56906811984669
 20
494.02986318421074
 10
106.74308470443844
 20
488.6172306938187
 42
2.414213562373095
 10
110.40427768247162
 20
491.27724309559443
  0
LWPOLYLINE
  5
98
330
17
100
AcDbEntity
  8
CUT
100
AcDbPolyline
 90
8
 70
1
 10
110.40427768247167
 20
394.32275690440537
 42
2.414213562373095
 10
106.7430847044385
 20
396.98276930618107
 10
72.56906811984675
 20
391.57013681578906
 42
2.414213562373095
 10
69.90905571807099
 20
387.9089438377559
 10
71.88012997757795
 20
375.46407074625716
 42
2.414213562373095
 10
75.54132295561112
 20
372.80405834448146
 10
109.71533954020288
 20
378.2166908348734
 42
2.414213562373095
 10
112.37535194197864
 20
381.8778838129066
  0
LWPOLYLINE
  5
99
330
17
100
AcDbEntity
  8
CUT
100
AcDbPolyline
 90
8
 70
1
 10
127.30489650513039
 20
282.0099908551344
 42
2.414213562373095
 10
123.00090602856113
 20
283.4084421333706
 10
92.17208029164357
 20
267.7003708423823
 42
2.414213562373095
 10
90.77362901340734
 20
263.396380365813
 10
96.49390931012567
 20
252.16969816103955
 42
2.414213562373095
 10
100.79789978669493
 20
250.77124688280333
 10
131.6267255236125
 20
266.4793181737916
 42
2.414213562373095
 10
133.02517680184872
 20
270.78330865036094
  0
LWPOLYLINE
  5
9A
330
17
100
AcDbEntity
  8
CUT
100
AcDbPolyline
 90
8
 70
1
 10
188.66849347674713
 20
183.6280389196977
 42
2.414213562373095
 10
184.14301007715324
 20
183.6280389196977
 10
159.67711544809868
 20
159.16214429064314
 42
2.414213562373095
 10
159.67711544809868
 20
154.63666089104925
 10
168.58666089104918
 20
145.72711544809874
 42
2.414213562373095
 10
173.11214429064307
 20
145.72711544809874
 10
197.57803891969763
 20
170.1930100771533
 42
2.414213562373095
 10
197.57803891969763
 20
174.7184934767472
  0
LWPOLYLINE
  5
9B
330
17
100
AcDbEntity
  8
CUT
100
AcDbPolyline
 90
8
 70
1
 10
289.0870092078784
 20
127.61979525385618
 42
2.414213562373095
 10
284.7830187313091
 20
126.22134397561996
 10
269.0749474403208
 20
95.3925182387024
 42
2.414213562373095
 10
270.47339871855695
 20
91.08852776213314
 10
281.7000809233304
 20
85.36824746541481
 42
2.414213562373095
 10
286.0040713998998
 20
86.76669874365103
 10
301.7121426908881
 20
117.5955244805686
 42
2.414213562373095
 10
300.31369141265185
 20
121.89951495713785
  0
LWPOLYLINE
  5
9C
330
17
100
AcDbEntity
  8
CUT
100
AcDbPolyline
 90
8
 70
1
 10
397.830948847677
 20
111.07220683925328
 42
2.414213562373095
 10
394.16975586964384
 20
108.41219443747752
 10
388.7571233792518
 20
74.23817785288577
 42
2.414213562373095
 10
391.4171357810276
 20
70.5769848748526
 10
403.8620088725263
 20
68.60591061534564
 42
2.414213562373095
 10
407.5232018505595
 20
71.2659230171214
 10
412.9358343409515
 20
105.43993960171315
 42
2.414213562373095
 10
410.2758219391757
 20
109.10113257974632
  0
LWPOLYLINE
  5
9D
330
17
100
AcDbEntity
  8
CUT
100
AcDbPolyline
 90
8
 70
1
 10
503.2241780608239
 20
109.10113257974626
 42
2.414213562373095
 10
500.5641656590482
 20
105.43993960171309
 10
505.9767981494402
 20
71.26592301712134
 42
2.414213562373095
 10
509.63799112747336
 20
68.60591061534558
 10
522.0828642189721
 20
70.57698487485254
 42
2.414213562373095
 10
524.7428766207478
 20
74.23817785288571
 10
519.3302441303558
 20
108.41219443747747
 42
2.414213562373095
 10
515.6690511523226
 20
111.07220683925323
  0
LWPOLYLINE
  5
9E
330
17
100
AcDbEntity
  8
CUT
100
AcDbPolyline
 90
8
 70
1
 10
613.1863085873479
 20
121.89951495713785
 42
2.414213562373095
 10
611.7878573091116
 20
117.5955244805686
 10
627.4959286000999
 20
86.76669874365103
 42
2.414213562373095
 10
631.7999190766692
 20
85.36824746541481
 10
643.0266012814427
 20
91.08852776213314
 42
2.414213562373095
 10
644.4250525596789
 20
95.3925182387024
 10
628.7169812686906
 20
126.22134397561996
 42
2.414213562373095
 10
624.4129907921213
 20
127.61979525385618
  0
LWPOLYLINE
  5
9F
330
17
100
AcDbEntity
  8
CUT
100
AcDbPolyline
 90
8
 70
1
 10
715.921961080302
 20
174.71849347674703
 42
2.414213562373095
 10
715.921961080302
 20
170.19301007715313
 10
740.3878557093567
 20
145.72711544809857
 42
2.414213562373095
 10
744.9133391089506
 20
145.72711544809857
 10
753.8228845519011
 20
154.63666089104908
 42
2.414213562373095
 10
753.8228845519011
 20
159.16214429064297
 10
729.3569899228464
 20
183.62803891969753
 42
2.414213562373095
 10
724.8315065232525
 20
183.62803891969753
  0
LWPOLYLINE
  5
A0
330
17
100
AcDbEntity
  8
CUT
100
AcDbPolyline
 90
8
 70
1
 10
780.4748231981511
 20
270.7833086503608
 42
2.414213562373095
 10
781.8732744763872
 20
266.4793181737915
 10
812.7021002133049
 20
250.77124688280318
 42
2.414213562373095
 10
817.0060906898741
 20
252.16969816103938
 10
822.7263709865924
 20
263.39638036581283
 42
2.414213562373095
 10
821.3279197083561
 20
267.7003708423822
 10
790.4990939714387
 20
283.4084421333705
 42
2.414213562373095
 10
786.1951034948694
 20
282.0099908551343
  0
LWPOLYLINE
  5
A1
330
17
100
AcDbEntity
  8
CUT
100
AcDbPolyline
 90
8
 70
1
 10
801.1246480580212
 20
381.8778838129065
 42
2.414213562373095
 10
803.7846604597969
 20
378.21669083487325
 10
837.9586770443887
 20
372.8040583444813
 42
2.414213562373095
 10
841.6198700224219
 20
375.464070746257
 10
843.5909442819288
 20
387.9089438377557
 42
2.414213562373095
 10
840.9309318801531
 20
391.5701368157889
 10
806.7569152955614
 20
396.9827693061809
 42
2.414213562373095
 10
803.0957223175282
 20
394.3227569044052
  0
LWPOLYLINE
  5
A2
330
17
100
AcDbEntity
  8
CUT
100
AcDbPolyline
 90
8
 70
1
 10
846.5850765768535
 20
309.5106933250157
 42
2.414213562373095
 10
848.639603046998
 20
305.4784580908714
 10
881.5461585108103
 20
294.7864700854983
 42
2.414213562373095
 10
885.5783937449546
 20
296.84099655564296
 10
889.472007874079
 20
308.82430866096183
 42
2.414213562373095
 10
887.4174814039343
 20
312.85654389510614
 10
854.510925940122
 20
323.54853190047936
 42
2.414213562373095
 10
850.4786907059777
 20
321.4940054303347
  0
LWPOLYLINE
  5
A3
330
17
100
AcDbEntity
  8
CUT
100
AcDbPolyline
 90
8
 70
1
 10
855.9999999999998
 20
436.49999999999983
 42
2.414213562373095
 10
859.1999999999998
 20
433.29999999999984
 10
893.7999999999997
 20
433.29999999999984
 42
2.414213562373095
 10
896.9999999999998
 20
436.49999999999983
 10
896.9999999999998
 20
449.09999999999985
 42
2.414213562373095
 10
893.7999999999997
 20
452.29999999999984
 10
859.1999999999998
 20
452.29999999999984
 42
2.414213562373095
 10
855.9999999999998
 20
449.09999999999985
  0
LWPOLYLINE
  5
A4
330
17
100
AcDbEntity
  8
CUT
100
AcDbPolyline
 90
8
 70
1
 10
850.4786907059777
 20
564.105994569665
 42
2.414213562373095
 10
854.510925940122
 20
562.0514680995203
 10
887.4174814039343
 20
572.7434561048935
 42
2.414213562373095
 10
889.472007874079
 20
576.7756913390378
 10
885.5783937449546
 20
588.7590034443567
 42
2.414213562373095
 10
881.5461585108103
 20
590.8135299145014
 10
848.639603046998
 20
580.1215419091283
 42
2.414213562373095
 10
846.5850765768535
 20
576.089306674984
  0
LWPOLYLINE
  5
A5
330
17
100
AcDbEntity
  8
CUT
100
AcDbPolyline
 90
8
 70
1
 10
806.6120052044048
 20
689.2023974559842
 42
2.414213562373095
 10
811.0817723937405
 20
688.4944558813203
 10
839.0737603991137
 20
708.8318256106398
 42
2.414213562373095
 10
839.7817019737777
 20
713.3015927999757
 10
832.3756077948924
 20
723.4952069290998
 42
2.414213562373095
 10
827.9058406055567
 20
724.2031485037638
 10
799.9138526001835
 20
703.8657787744443
 42
2.414213562373095
 10
799.2059110255195
 20
699.3960115851085
  0
LWPOLYLINE
  5
A6
330
17
100
AcDbEntity
  8
CUT
100
AcDbPolyline
 90
8
 70
1
 10
709.8833327208362
 20
780.4899424403372
 42
2.414213562373095
 10
714.3530999101719
 20
781.1978840150011
 10
734.6904696394914
 20
809.1898720203744
 42
2.414213562373095
 10
733.9825280648274
 20
813.6596392097101
 10
723.7889139357032
 20
821.0657333885953
 42
2.414213562373095
 10
719.3191467463674
 20
820.3577918139313
 10
698.9817770170479
 20
792.3658038085582
 42
2.414213562373095
 10
699.6897185917118
 20
787.8960366192224
  0
LWPOLYLINE
  5
A7
330
17
100
AcDbEntity
  8
CUT
100
AcDbPolyline
 90
8
 70
1
 10
586.0512415388607
 20
820.3610741622243
 42
2.414213562373095
 10
590.083476773005
 20
822.415600632369
 10
600.7754647783783
 20
855.3221560961813
 42
2.414213562373095
 10
598.7209383082336
 20
859.3543913303256
 10
586.7376262029147
 20
863.2480054594499
 42
2.414213562373095
 10
582.7053909687703
 20
861.1934789893053
 10
572.0134029633972
 20
828.286923525493
 42
2.414213562373095
 10
574.0679294335418
 20
824.2546882913487
  0
LWPOLYLINE
  5
A8
330
17
100
AcDbEntity
  8
CUT
100
AcDbPolyline
 90
8
 70
1
 10
463.0499999999999
 20
828.0999999999997
 42
2.414213562373095
 10
466.2499999999999
 20
831.2999999999997
 10
466.2499999999999
 20
865.8999999999996
 42
2.414213562373095
 10
463.0499999999999
 20
869.0999999999997
 10
450.44999999999993
 20
869.0999999999997
 42
2.414213562373095
 10
447.2499999999999
 20
865.8999999999996
 10
447.2499999999999
 20
831.2999999999997
 42
2.414213562373095
 10
450.44999999999993
 20
828.0999999999997
  0
LWPOLYLINE
  5
A9
330
17
100
AcDbEntity
  8
CUT
100
AcDbPolyline
 90
8
 70
1
 10
339.432070566458
 20
824.2546882913487
 42
2.414213562373095
 10
341.48659703660263
 20
828.286923525493
 10
330.79460903122947
 20
861.1934789893053
 42
2.414213562373095
 10
326.76237379708516
 20
863.24800545945
 10
314.7790616917662
 20
859.3543913303256
 42
2.414213562373095
 10
312.7245352216215
 20
855.3221560961813
 10
323.41652322699474
 20
822.415600632369
 42
2.414213562373095
 10
327.44875846113905
 20
820.3610741622244
  0
LWPOLYLINE
  5
AA
330
17
100
AcDbEntity
  8
CUT
100
AcDbPolyline
 90
8
 70
1
 10
213.81028140828803
 20
787.8960366192225
 42
2.414213562373095
 10
214.51822298295195
 20
792.3658038085582
 10
194.1808532536324
 20
820.3577918139314
 42
2.414213562373095
 10
189.71108606429664
 20
821.0657333885954
 10
179.51747193517235
 20
813.6596392097101
 42
2.414213562373095
 10
178.8095303605084
 20
809.1898720203744
 10
199.14690008982797
 20
781.1978840150013
 42
2.414213562373095
 10
203.6166672791637
 20
780.4899424403372
  0
LWPOLYLINE
  5
AB
330
17
100
AcDbEntity
  8
CUT
100
AcDbPolyline
 90
8
 70
1
 10
114.29408897448019
 20
699.3960115851087
 42
2.414213562373095
 10
113.58614739981624
 20
703.8657787744444
 10
85.59415939444307
 20
724.2031485037639
 42
2.414213562373095
 10
81.12439220510731
 20
723.4952069291
 10
73.71829802622216
 20
713.3015927999757
 42
2.414213562373095
 10
74.4262396008861
 20
708.83182561064
 10
102.41822760625928
 20
688.4944558813204
 42
2.414213562373095
 10
106.88799479559503
 20
689.2023974559843
  0
LWPOLYLINE
  5
AC
330
17
100
AcDbEntity
  8
CUT
100
AcDbPolyline
 90
8
 70
1
 10
66.91492342314643
 20
576.089306674984
 42
2.414213562373095
 10
64.86039695300178
 20
580.1215419091283
 10
31.95384148918947
 20
590.8135299145015
 42
2.414213562373095
 10
27.921606255045162
 20
588.7590034443568
 10
24.027992125920832
 20
576.7756913390378
 42
2.414213562373095
 10
26.082518596065484
 20
572.7434561048935
 10
58.989074059877794
 20
562.0514680995203
 42
2.414213562373095
 10
63.0213092940221
 20
564.105994569665
  0
LWPOLYLINE
  5
AD
330
17
100
AcDbEntity
  8
CUT
100
AcDbPolyline
 90
8
 70
1
 10
57.5
 20
449.0999999999999
 42
2.414213562373095
 10
54.30000000000001
 20
452.2999999999999
 10
19.69999999999999
 20
452.2999999999999
 42
2.414213562373095
 10
16.5
 20
449.0999999999999
 10
16.5
 20
436.4999999999999
 42
2.414213562373095
 10
19.69999999999999
 20
433.2999999999999
 10
54.30000000000001
 20
433.2999999999999
 42
2.414213562373095
 10
57.5
 20
436.4999999999999
  0
LWPOLYLINE
  5
AE
330
17
100
AcDbEntity
  8
CUT
100
AcDbPolyline
 90
8
 70
1
 10
63.0213092940221
 20
321.49400543033477
 42
2.414213562373095
 10
58.989074059877794
 20
323.5485319004794
 10
26.082518596065484
 20
312.85654389510626
 42
2.414213562373095
 10
24.027992125920832
 20
308.82430866096195
 10
27.921606255045162
 20
296.840996555643
 42
2.414213562373095
 10
31.95384148918947
 20
294.78647008549837
 10
64.86039695300178
 20
305.4784580908715
 42
2.414213562373095
 10
66.91492342314643
 20
309.51069332501584
  0
TEXT
  5
AF
330
17
100
AcDbEntity
  8
ENGRAVE-LABEL
100
AcDbText
 10
108.7868745326986
 20
191.22310242580116
 30
0.0
 40
22.0
  1
02 SEAT-RING
 50
120.0
 72
1
 11
108.7868745326986
 21
191.22310242580116
 31
0.0
100
AcDbText
 73
2
  0
ENDSEC
  0
SECTION
  2
OBJECTS
  0
DICTIONARY
  5
A
330
0
100
AcDbDictionary
281
1
  3
ACAD_COLOR
350
B
  3
ACAD_GROUP
350
C
  3
ACAD_LAYOUT
350
D
  3
ACAD_MATERIAL
350
E
  3
ACAD_MLEADERSTYLE
350
F
  3
ACAD_MLINESTYLE
350
10
  3
ACAD_PLOTSETTINGS
350
11
  3
ACAD_PLOTSTYLENAME
350
12
  3
ACAD_SCALELIST
350
14
  3
ACAD_TABLESTYLE
350
15
  3
ACAD_VISUALSTYLE
350
16
  3
EZDXF_META
350
2D
  0
DICTIONARY
  5
B
330
A
100
AcDbDictionary
281
1
  0
DICTIONARY
  5
C
330
A
100
AcDbDictionary
281
1
  0
DICTIONARY
  5
D
330
A
100
AcDbDictionary
281
1
  3
Model
350
1A
  3
Layout1
350
1E
  0
DICTIONARY
  5
E
330
A
100
AcDbDictionary
281
1
  3
ByBlock
350
1F
  3
ByLayer
350
20
  3
Global
350
21
  0
DICTIONARY
  5
F
330
A
100
AcDbDictionary
281
1
  3
Standard
350
2C
  0
DICTIONARY
  5
10
330
A
100
AcDbDictionary
281
1
  3
Standard
350
22
  0
DICTIONARY
  5
11
330
A
100
AcDbDictionary
281
1
  0
ACDBDICTIONARYWDFLT
  5
12
330
A
100
AcDbDictionary
281
1
  3
Normal
350
13
100
AcDbDictionaryWithDefault
340
13
  0
ACDBPLACEHOLDER
  5
13
330
12
  0
DICTIONARY
  5
14
330
A
100
AcDbDictionary
281
1
  0
DICTIONARY
  5
15
330
A
100
AcDbDictionary
281
1
  0
DICTIONARY
  5
16
330
A
100
AcDbDictionary
281
1
  3
2dWireframe
350
5A
  3
Basic
350
5B
  3
Brighten
350
5C
  3
ColorChange
350
5D
  3
Conceptual
350
5E
  3
Dim
350
5F
  3
EdgeColorOff
350
60
  3
Facepattern
350
61
  3
Flat
350
62
  3
FlatWithEdges
350
63
  3
Gouraud
350
64
  3
GouraudWithEdges
350
65
  3
Hidden
350
66
  3
JitterOff
350
67
  3
Linepattern
350
68
  3
Modeling
350
69
  3
OverhangOff
350
6A
  3
Realistic
350
6B
  3
Shaded
350
6C
  3
Shaded with edges
350
6D
  3
Shades of Gray
350
6E
  3
Sketchy
350
6F
  3
Thicken
350
70
  3
Wireframe
350
71
  3
X-Ray
350
72
  0
LAYOUT
  5
1A
330
D
100
AcDbPlotSettings
  1

  4
A3
  6

 40
7.5
 41
20.0
 42
7.5
 43
20.0
 44
420.0
 45
297.0
 46
0.0
 47
0.0
 48
0.0
 49
0.0
140
0.0
141
0.0
142
1.0
143
1.0
 70
1024
 72
1
 73
0
 74
5
  7

 75
16
 76
0
 77
2
 78
300
147
1.0
148
0.0
149
0.0
100
AcDbLayout
  1
Model
 70
1
 71
0
 10
0.0
 20
0.0
 11
420.0
 21
297.0
 12
0.0
 22
0.0
 32
0.0
 14
1e+20
 24
1e+20
 34
1e+20
 15
-1e+20
 25
-1e+20
 35
-1e+20
146
0.0
 13
0.0
 23
0.0
 33
0.0
 16
1.0
 26
0.0
 36
0.0
 17
0.0
 27
1.0
 37
0.0
 76
1
330
17
  0
LAYOUT
  5
1E
330
D
100
AcDbPlotSettings
  1

  4
A3
  6

 40
7.5
 41
20.0
 42
7.5
 43
20.0
 44
420.0
 45
297.0
 46
0.0
 47
0.0
 48
0.0
 49
0.0
140
0.0
141
0.0
142
1.0
143
1.0
 70
0
 72
1
 73
0
 74
5
  7

 75
16
 76
0
 77
2
 78
300
147
1.0
148
0.0
149
0.0
100
AcDbLayout
  1
Layout1
 70
1
 71
1
 10
0.0
 20
0.0
 11
420.0
 21
297.0
 12
0.0
 22
0.0
 32
0.0
 14
1e+20
 24
1e+20
 34
1e+20
 15
-1e+20
 25
-1e+20
 35
-1e+20
146
0.0
 13
0.0
 23
0.0
 33
0.0
 16
1.0
 26
0.0
 36
0.0
 17
0.0
 27
1.0
 37
0.0
 76
1
330
1B
  0
MATERIAL
  5
1F
102
{ACAD_REACTORS
330
E
102
}
330
E
100
AcDbMaterial
  1
ByBlock
  2

 70
0
 40
1.0
 71
1
 41
1.0
 91
-1023410177
 42
1.0
 72
1
  3

 73
1
 74
1
 75
1
 44
0.5
 73
0
 45
1.0
 46
1.0
 77
1
  4

 78
1
 79
1
170
1
 48
1.0
171
1
  6

172
1
173
1
174
1
140
1.0
141
1.0
175
1
  7

176
1
177
1
178
1
143
1.0
179
1
  8

270
1
271
1
272
1
145
1.0
146
1.0
273
1
  9

274
1
275
1
276
1
 42
1.0
 72
1
  3

 73
1
 74
1
 75
1
 94
63
  0
MATERIAL
  5
20
102
{ACAD_REACTORS
330
E
102
}
330
E
100
AcDbMaterial
  1
ByLayer
  2

 70
0
 40
1.0
 71
1
 41
1.0
 91
-1023410177
 42
1.0
 72
1
  3

 73
1
 74
1
 75
1
 44
0.5
 73
0
 45
1.0
 46
1.0
 77
1
  4

 78
1
 79
1
170
1
 48
1.0
171
1
  6

172
1
173
1
174
1
140
1.0
141
1.0
175
1
  7

176
1
177
1
178
1
143
1.0
179
1
  8

270
1
271
1
272
1
145
1.0
146
1.0
273
1
  9

274
1
275
1
276
1
 42
1.0
 72
1
  3

 73
1
 74
1
 75
1
 94
63
  0
MATERIAL
  5
21
102
{ACAD_REACTORS
330
E
102
}
330
E
100
AcDbMaterial
  1
Global
  2

 70
0
 40
1.0
 71
1
 41
1.0
 91
-1023410177
 42
1.0
 72
1
  3

 73
1
 74
1
 75
1
 44
0.5
 73
0
 45
1.0
 46
1.0
 77
1
  4

 78
1
 79
1
170
1
 48
1.0
171
1
  6

172
1
173
1
174
1
140
1.0
141
1.0
175
1
  7

176
1
177
1
178
1
143
1.0
179
1
  8

270
1
271
1
272
1
145
1.0
146
1.0
273
1
  9

274
1
275
1
276
1
 42
1.0
 72
1
  3

 73
1
 74
1
 75
1
 94
63
  0
MLINESTYLE
  5
22
102
{ACAD_REACTORS
330
10
102
}
330
10
100
AcDbMlineStyle
  2
Standard
 70
0
  3

 62
256
 51
90.0
 52
90.0
 71
2
 49
0.5
 62
256
  6
BYLAYER
 49
-0.5
 62
256
  6
BYLAYER
  0
MLEADERSTYLE
  5
2C
102
{ACAD_REACTORS
330
F
102
}
330
F
100
AcDbMLeaderStyle
179
2
170
2
171
1
172
0
 90
2
 40
0.0
 41
0.0
173
1
 91
-1056964608
 92
-2
290
1
 42
2.0
291
1
 43
8.0
  3
Standard
 44
4.0
300

342
29
174
1
175
1
176
0
178
1
 93
-1056964608
 45
4.0
292
0
297
0
 46
4.0
 94
-1056964608
 47
1.0
 49
1.0
140
1.0
294
1
141
0.0
177
0
142
1.0
295
0
296
0
143
3.75
271
0
272
9
273
9
  0
DICTIONARY
  5
2D
330
A
100
AcDbDictionary
280
1
281
1
  3
CREATED_BY_EZDXF
350
2E
  3
WRITTEN_BY_EZDXF
350
B2
  0
DICTIONARYVAR
  5
2E
330
2D
100
DictionaryVariables
280
0
  1
1.4.4 @ 2026-09-27T09:44:59.747184+00:00
  0
VISUALSTYLE
  5
5A
102
{ACAD_REACTORS
330
16
102
}
330
16
100
AcDbVisualStyle
  2
2dWireframe
 70
4
 90
0
 40
0.6
 62
7
290
0
291
0
  0
VISUALSTYLE
  5
5B
102
{ACAD_REACTORS
330
16
102
}
330
16
100
AcDbVisualStyle
  2
Basic
 70
7
 90
1
 40
0.6
 62
7
290
0
291
1
  0
VISUALSTYLE
  5
5C
102
{ACAD_REACTORS
330
16
102
}
330
16
100
AcDbVisualStyle
  2
Brighten
 70
12
 90
2
 40
0.6
 62
7
290
0
291
1
  0
VISUALSTYLE
  5
5D
102
{ACAD_REACTORS
330
16
102
}
330
16
100
AcDbVisualStyle
  2
ColorChange
 70
16
 90
2
 40
0.6
 62
8
290
0
291
1
  0
VISUALSTYLE
  5
5E
102
{ACAD_REACTORS
330
16
102
}
330
16
100
AcDbVisualStyle
  2
Conceptual
 70
9
 90
3
 40
0.6
 62
7
290
0
291
0
  0
VISUALSTYLE
  5
5F
102
{ACAD_REACTORS
330
16
102
}
330
16
100
AcDbVisualStyle
  2
Dim
 70
11
 90
2
 40
0.6
 62
7
290
0
291
1
  0
VISUALSTYLE
  5
60
102
{ACAD_REACTORS
330
16
102
}
330
16
100
AcDbVisualStyle
  2
EdgeColorOff
 70
22
 90
2
 40
0.6
 62
7
290
0
291
1
  0
VISUALSTYLE
  5
61
102
{ACAD_REACTORS
330
16
102
}
330
16
100
AcDbVisualStyle
  2
Facepattern
 70
15
 90
2
 40
0.6
 62
7
290
0
291
1
  0
VISUALSTYLE
  5
62
102
{ACAD_REACTORS
330
16
102
}
330
16
100
AcDbVisualStyle
  2
Flat
 70
0
 90
2
 40
0.6
 62
7
290
0
291
1
  0
VISUALSTYLE
  5
63
102
{ACAD_REACTORS
330
16
102
}
330
16
100
AcDbVisualStyle
  2
FlatWithEdges
 70
1
 90
2
 40
0.6
 62
7
290
0
291
1
  0
VISUALSTYLE
  5
64
102
{ACAD_REACTORS
330
16
102
}
330
16
100
AcDbVisualStyle
  2
Gouraud
 70
2
 90
2
 40
0.6
 62
7
290
0
291
1
  0
VISUALSTYLE
  5
65
102
{ACAD_REACTORS
330
16
102
}
330
16
100
AcDbVisualStyle
  2
GouraudWithEdges
 70
3
 90
2
 40
0.6
 62
7
290
0
291
1
  0
VISUALSTYLE
  5
66
102
{ACAD_REACTORS
330
16
102
}
330
16
100
AcDbVisualStyle
  2
Hidden
 70
6
 90
1
 40
0.6
 62
7
290
0
291
0
  0
VISUALSTYLE
  5
67
102
{ACAD_REACTORS
330
16
102
}
330
16
100
AcDbVisualStyle
  2
JitterOff
 70
20
 90
2
 40
0.6
 62
7
290
0
291
1
  0
VISUALSTYLE
  5
68
102
{ACAD_REACTORS
330
16
102
}
330
16
100
AcDbVisualStyle
  2
Linepattern
 70
14
 90
2
 40
0.6
 62
7
290
0
291
1
  0
VISUALSTYLE
  5
69
102
{ACAD_REACTORS
330
16
102
}
330
16
100
AcDbVisualStyle
  2
Modeling
 70
10
 90
2
 40
0.6
 62
7
290
0
291
0
  0
VISUALSTYLE
  5
6A
102
{ACAD_REACTORS
330
16
102
}
330
16
100
AcDbVisualStyle
  2
OverhangOff
 70
21
 90
2
 40
0.6
 62
7
290
0
291
1
  0
VISUALSTYLE
  5
6B
102
{ACAD_REACTORS
330
16
102
}
330
16
100
AcDbVisualStyle
  2
Realistic
 70
8
 90
2
 40
0.6
 62
7
290
0
291
0
  0
VISUALSTYLE
  5
6C
102
{ACAD_REACTORS
330
16
102
}
330
16
100
AcDbVisualStyle
  2
Shaded
 70
27
 90
2
 40
0.6
 62
7
290
0
291
0
  0
VISUALSTYLE
  5
6D
102
{ACAD_REACTORS
330
16
102
}
330
16
100
AcDbVisualStyle
  2
Shaded with edges
 70
26
 90
2
 40
0.6
 62
7
290
0
291
0
  0
VISUALSTYLE
  5
6E
102
{ACAD_REACTORS
330
16
102
}
330
16
100
AcDbVisualStyle
  2
Shades of Gray
 70
23
 90
2
 40
0.6
 62
7
290
0
291
0
  0
VISUALSTYLE
  5
6F
102
{ACAD_REACTORS
330
16
102
}
330
16
100
AcDbVisualStyle
  2
Sketchy
 70
24
 90
1
 40
0.6
 62
7
290
0
291
0
  0
VISUALSTYLE
  5
70
102
{ACAD_REACTORS
330
16
102
}
330
16
100
AcDbVisualStyle
  2
Thicken
 70
13
 90
2
 40
0.6
 62
7
290
0
291
1
  0
VISUALSTYLE
  5
71
102
{ACAD_REACTORS
330
16
102
}
330
16
100
AcDbVisualStyle
  2
Wireframe
 70
5
 90
0
 40
0.6
 62
7
290
0
291
0
  0
VISUALSTYLE
  5
72
102
{ACAD_REACTORS
330
16
102
}
330
16
100
AcDbVisualStyle
  2
X-Ray
 70
25
 90
2
 40
0.5
 62
7
290
0
291
0
  0
DICTIONARYVAR
  5
B2
330
2D
100
DictionaryVariables
280
0
  1
1.4.4 @ 2026-09-27T09:44:59.799488+00:00
  0
ENDSEC
  0
EOF
