  0
SECTION
  2
HEADER
  9
$ACADVER
  1
AC1024
  9
$ACADMAINTVER
 70
6
  9
$DWGCODEPAGE
  3
ANSI_1252
  9
$LASTSAVEDBY
  1
ezdxf
  9
$INSBASE
 10
0.0
 20
0.0
 30
0.0
  9
$EXTMIN
 10
1e+20
 20
1e+20
 30
1e+20
  9
$EXTMAX
 10
-1e+20
 20
-1e+20
 30
-1e+20
  9
$LIMMIN
 10
0.0
 20
0.0
  9
$LIMMAX
 10
420.0
 20
297.0
  9
$ORTHOMODE
 70
0
  9
$REGENMODE
 70
1
  9
$FILLMODE
 70
1
  9
$QTEXTMODE
 70
0
  9
$MIRRTEXT
 70
1
  9
$LTSCALE
 40
1.0
  9
$ATTMODE
 70
1
  9
$TEXTSIZE
 40
2.5
  9
$TRACEWID
 40
1.0
  9
$TEXTSTYLE
  7
OpenSans
  9
$CLAYER
  8
0
  9
$CELTYPE
  6
ByLayer
  9
$CECOLOR
 62
256
  9
$CELTSCALE
 40
1.0
  9
$DISPSILH
 70
0
  9
$DIMSCALE
 40
1.0
  9
$DIMASZ
 40
0.175
  9
$DIMEXO
 40
0.125
  9
$DIMDLI
 40
3.75
  9
$DIMRND
 40
0.0
  9
$DIMDLE
 40
0.0
  9
$DIMEXE
 40
0.375
  9
$DIMTP
 40
0.0
  9
$DIMTM
 40
0.0
  9
$DIMTXT
 40
0.25
  9
$DIMCEN
 40
2.5
  9
$DIMTSZ
 40
0.0
  9
$DIMTOL
 70
0
  9
$DIMLIM
 70
0
  9
$DIMTIH
 70
0
  9
$DIMTOH
 70
0
  9
$DIMSE1
 70
0
  9
$DIMSE2
 70
0
  9
$DIMTAD
 70
1
  9
$DIMZIN
 70
12
  9
$DIMBLK
  1
ARCHTICK
  9
$DIMASO
 70
1
  9
$DIMSHO
 70
1
  9
$DIMPOST
  1

  9
$DIMAPOST
  1

  9
$DIMALT
 70
0
  9
$DIMALTD
 70
3
  9
$DIMALTF
 40
0.03937007874
  9
$DIMLFAC
 40
100.0
  9
$DIMTOFL
 70
1
  9
$DIMTVP
 40
0.0
  9
$DIMTIX
 70
0
  9
$DIMSOXD
 70
0
  9
$DIMSAH
 70
0
  9
$DIMBLK1
  1

  9
$DIMBLK2
  1

  9
$DIMSTYLE
  2
EZDXF
  9
$DIMCLRD
 70
0
  9
$DIMCLRE
 70
0
  9
$DIMCLRT
 70
0
  9
$DIMTFAC
 40
0.5
  9
$DIMGAP
 40
0.1
  9
$DIMJUST
 70
0
  9
$DIMSD1
 70
0
  9
$DIMSD2
 70
0
  9
$DIMTOLJ
 70
0
  9
$DIMTZIN
 70
8
  9
$DIMALTZ
 70
0
  9
$DIMALTTZ
 70
0
  9
$DIMUPT
 70
1
  9
$DIMDEC
 70
2
  9
$DIMTDEC
 70
2
  9
$DIMALTU
 70
2
  9
$DIMALTTD
 70
3
  9
$DIMTXSTY
  7
OpenSansCondensed-Light
  9
$DIMAUNIT
 70
0
  9
$DIMADEC
 70
2
  9
$DIMALTRND
 40
0.0
  9
$DIMAZIN
 70
3
  9
$DIMDSEP
 70
46
  9
$DIMATFIT
 70
3
  9
$DIMFRAC
 70
0
  9
$DIMLDRBLK
  1

  9
$DIMLUNIT
 70
2
  9
$DIMLWD
 70
-2
  9
$DIMLWE
 70
-2
  9
$DIMTMOVE
 70
2
  9
$DIMFXL
 40
1.0
  9
$DIMFXLON
 70
0
  9
$DIMJOGANG
 40
0.785398163397
  9
$DIMTFILL
 70
0
  9
$DIMTFILLCLR
 70
0
  9
$DIMARCSYM
 70
0
  9
$DIMLTYPE
  6

  9
$DIMLTEX1
  6

  9
$DIMLTEX2
  6

  9
$DIMTXTDIRECTION
 70
0
  9
$LUNITS
 70
2
  9
$LUPREC
 70
4
  9
$SKETCHINC
 40
1.0
  9
$FILLETRAD
 40
10.0
  9
$AUNITS
 70
0
  9
$AUPREC
 70
2
  9
$MENU
  1
.
  9
$ELEVATION
 40
0.0
  9
$PELEVATION
 40
0.0
  9
$THICKNESS
 40
0.0
  9
$LIMCHECK
 70
0
  9
$CHAMFERA
 40
0.0
  9
$CHAMFERB
 40
0.0
  9
$CHAMFERC
 40
0.0
  9
$CHAMFERD
 40
0.0
  9
$SKPOLY
 70
0
  9
$TDCREATE
 40
2461310.9514814815
  9
$TDUCREATE
 40
2458532.153996898
  9
$TDUPDATE
 40
2461310.9514814815
  9
$TDUUPDATE
 40
2458532.1544311
  9
$TDINDWG
 40
0.0
  9
$TDUSRTIMER
 40
0.0
  9
$USRTIMER
 70
1
  9
$ANGBASE
 50
0.0
  9
$ANGDIR
 70
0
  9
$PDMODE
 70
0
  9
$PDSIZE
 40
0.0
  9
$PLINEWID
 40
0.0
  9
$SPLFRAME
 70
0
  9
$SPLINETYPE
 70
6
  9
$SPLINESEGS
 70
8
  9
$HANDSEED
  5
132
  9
$SURFTAB1
 70
6
  9
$SURFTAB2
 70
6
  9
$SURFTYPE
 70
6
  9
$SURFU
 70
6
  9
$SURFV
 70
6
  9
$UCSBASE
  2

  9
$UCSNAME
  2

  9
$UCSORG
 10
0.0
 20
0.0
 30
0.0
  9
$UCSXDIR
 10
1.0
 20
0.0
 30
0.0
  9
$UCSYDIR
 10
0.0
 20
1.0
 30
0.0
  9
$UCSORTHOREF
  2

  9
$UCSORTHOVIEW
 70
0
  9
$UCSORGTOP
 10
0.0
 20
0.0
 30
0.0
  9
$UCSORGBOTTOM
 10
0.0
 20
0.0
 30
0.0
  9
$UCSORGLEFT
 10
0.0
 20
0.0
 30
0.0
  9
$UCSORGRIGHT
 10
0.0
 20
0.0
 30
0.0
  9
$UCSORGFRONT
 10
0.0
 20
0.0
 30
0.0
  9
$UCSORGBACK
 10
0.0
 20
0.0
 30
0.0
  9
$PUCSBASE
  2

  9
$PUCSNAME
  2

  9
$PUCSORG
 10
0.0
 20
0.0
 30
0.0
  9
$PUCSXDIR
 10
1.0
 20
0.0
 30
0.0
  9
$PUCSYDIR
 10
0.0
 20
1.0
 30
0.0
  9
$PUCSORTHOREF
  2

  9
$PUCSORTHOVIEW
 70
0
  9
$PUCSORGTOP
 10
0.0
 20
0.0
 30
0.0
  9
$PUCSORGBOTTOM
 10
0.0
 20
0.0
 30
0.0
  9
$PUCSORGLEFT
 10
0.0
 20
0.0
 30
0.0
  9
$PUCSORGRIGHT
 10
0.0
 20
0.0
 30
0.0
  9
$PUCSORGFRONT
 10
0.0
 20
0.0
 30
0.0
  9
$PUCSORGBACK
 10
0.0
 20
0.0
 30
0.0
  9
$USERI1
 70
0
  9
$USERI2
 70
0
  9
$USERI3
 70
0
  9
$USERI4
 70
0
  9
$USERI5
 70
0
  9
$USERR1
 40
0.0
  9
$USERR2
 40
0.0
  9
$USERR3
 40
0.0
  9
$USERR4
 40
0.0
  9
$USERR5
 40
0.0
  9
$WORLDVIEW
 70
1
  9
$SHADEDGE
 70
3
  9
$SHADEDIF
 70
70
  9
$TILEMODE
 70
1
  9
$MAXACTVP
 70
64
  9
$PINSBASE
 10
0.0
 20
0.0
 30
0.0
  9
$PLIMCHECK
 70
0
  9
$PEXTMIN
 10
1e+20
 20
1e+20
 30
1e+20
  9
$PEXTMAX
 10
-1e+20
 20
-1e+20
 30
-1e+20
  9
$PLIMMIN
 10
0.0
 20
0.0
  9
$PLIMMAX
 10
420.0
 20
297.0
  9
$UNITMODE
 70
0
  9
$VISRETAIN
 70
1
  9
$PLINEGEN
 70
0
  9
$PSLTSCALE
 70
1
  9
$TREEDEPTH
 70
3020
  9
$CMLSTYLE
  2
Standard
  9
$CMLJUST
 70
0
  9
$CMLSCALE
 40
20.0
  9
$PROXYGRAPHICS
 70
1
  9
$MEASUREMENT
 70
1
  9
$CELWEIGHT
370
-1
  9
$ENDCAPS
280
0
  9
$JOINSTYLE
280
0
  9
$LWDISPLAY
290
0
  9
$INSUNITS
 70
4
  9
$HYPERLINKBASE
  1

  9
$STYLESHEET
  1

  9
$XEDIT
290
1
  9
$CEPSNTYPE
380
0
  9
$PSTYLEMODE
290
1
  9
$FINGERPRINTGUID
  2
{2C345CA2-523F-4E6C-99FA-1590D41809FA}
  9
$VERSIONGUID
  2
{ED49FF94-5511-44A1-9235-EF16CE1AAE58}
  9
$EXTNAMES
290
1
  9
$PSVPSCALE
 40
0.0
  9
$OLESTARTUP
290
0
  9
$SORTENTS
280
127
  9
$INDEXCTL
280
0
  9
$HIDETEXT
280
1
  9
$XCLIPFRAME
280
1
  9
$HALOGAP
280
0
  9
$OBSCOLOR
 70
257
  9
$OBSLTYPE
280
0
  9
$INTERSECTIONDISPLAY
280
0
  9
$INTERSECTIONCOLOR
 70
257
  9
$DIMASSOC
280
2
  9
$PROJECTNAME
  1

  9
$CAMERADISPLAY
290
0
  9
$LENSLENGTH
 40
50.0
  9
$CAMERAHEIGHT
 40
0.0
  9
$STEPSPERSEC
 40
24.0
  9
$STEPSIZE
 40
100.0
  9
$3DDWFPREC
 40
2.0
  9
$PSOLWIDTH
 40
0.005
  9
$PSOLHEIGHT
 40
0.08
  9
$LOFTANG1
 40
1.570796326795
  9
$LOFTANG2
 40
1.570796326795
  9
$LOFTMAG1
 40
0.0
  9
$LOFTMAG2
 40
0.0
  9
$LOFTPARAM
 70
7
  9
$LOFTNORMALS
280
1
  9
$LATITUDE
 40
37.795
  9
$LONGITUDE
 40
-122.394
  9
$NORTHDIRECTION
 40
0.0
  9
$TIMEZONE
 70
-8000
  9
$LIGHTGLYPHDISPLAY
280
1
  9
$TILEMODELIGHTSYNCH
280
1
  9
$CMATERIAL
347
20
  9
$SOLIDHIST
280
0
  9
$SHOWHIST
280
1
  9
$DWFFRAME
280
2
  9
$DGNFRAME
280
2
  9
$REALWORLDSCALE
290
1
  9
$INTERFERECOLOR
 62
256
  9
$CSHADOW
280
0
  9
$SHADOWPLANELOCATION
 40
0.0
  0
ENDSEC
  0
SECTION
  2
CLASSES
  0
CLASS
  1
ACDBDICTIONARYWDFLT
  2
AcDbDictionaryWithDefault
  3
ObjectDBX Classes
 90
0
 91
0
280
0
281
0
  0
CLASS
  1
SUN
  2
AcDbSun
  3
SCENEOE
 90
1153
 91
0
280
0
281
0
  0
CLASS
  1
VISUALSTYLE
  2
AcDbVisualStyle
  3
ObjectDBX Classes
 90
4095
 91
0
280
0
281
0
  0
CLASS
  1
MATERIAL
  2
AcDbMaterial
  3
ObjectDBX Classes
 90
1153
 91
0
280
0
281
0
  0
CLASS
  1
SCALE
  2
AcDbScale
  3
ObjectDBX Classes
 90
1153
 91
0
280
0
281
0
  0
CLASS
  1
TABLESTYLE
  2
AcDbTableStyle
  3
ObjectDBX Classes
 90
4095
 91
0
280
0
281
0
  0
CLASS
  1
MLEADERSTYLE
  2
AcDbMLeaderStyle
  3
ACDB_MLEADERSTYLE_CLASS
 90
4095
 91
0
280
0
281
0
  0
CLASS
  1
DICTIONARYVAR
  2
AcDbDictionaryVar
  3
ObjectDBX Classes
 90
0
 91
0
280
0
281
0
  0
CLASS
  1
CELLSTYLEMAP
  2
AcDbCellStyleMap
  3
ObjectDBX Classes
 90
1152
 91
0
280
0
281
0
  0
CLASS
  1
MENTALRAYRENDERSETTINGS
  2
AcDbMentalRayRenderSettings
  3
SCENEOE
 90
1024
 91
0
280
0
281
0
  0
CLASS
  1
ACDBDETAILVIEWSTYLE
  2
AcDbDetailViewStyle
  3
ObjectDBX Classes
 90
1025
 91
0
280
0
281
0
  0
CLASS
  1
ACDBSECTIONVIEWSTYLE
  2
AcDbSectionViewStyle
  3
ObjectDBX Classes
 90
1025
 91
0
280
0
281
0
  0
CLASS
  1
RASTERVARIABLES
  2
AcDbRasterVariables
  3
ISM
 90
0
 91
0
280
0
281
0
  0
CLASS
  1
ACDBPLACEHOLDER
  2
AcDbPlaceHolder
  3
ObjectDBX Classes
 90
0
 91
0
280
0
281
0
  0
CLASS
  1
LAYOUT
  2
AcDbLayout
  3
ObjectDBX Classes
 90
0
 91
0
280
0
281
0
  0
ENDSEC
  0
SECTION
  2
TABLES
  0
TABLE
  2
VPORT
  5
8
330
0
100
AcDbSymbolTable
 70
1
  0
VPORT
  5
23
330
8
100
AcDbSymbolTableRecord
100
AcDbViewportTableRecord
  2
*Active
 70
0
 10
0.0
 20
0.0
 11
1.0
 21
1.0
 12
0.0
 22
0.0
 13
0.0
 23
0.0
 14
0.5
 24
0.5
 15
0.5
 25
0.5
 16
0.0
 26
0.0
 36
1.0
 17
0.0
 27
0.0
 37
0.0
 40
1000.0
 41
1.34
 42
50.0
 43
0.0
 44
0.0
 50
0.0
 51
0.0
 71
0
 72
1000
 73
1
 74
3
 75
0
 76
0
 77
0
 78
0
281
0
 65
0
146
0.0
  0
ENDTAB
  0
TABLE
  2
LTYPE
  5
2
330
0
100
AcDbSymbolTable
 70
21
  0
LTYPE
  5
24
330
2
100
AcDbSymbolTableRecord
100
AcDbLinetypeTableRecord
  2
ByBlock
 70
0
  3

 72
65
 73
0
 40
0.0
  0
LTYPE
  5
25
330
2
100
AcDbSymbolTableRecord
100
AcDbLinetypeTableRecord
  2
ByLayer
 70
0
  3

 72
65
 73
0
 40
0.0
  0
LTYPE
  5
26
330
2
100
AcDbSymbolTableRecord
100
AcDbLinetypeTableRecord
  2
Continuous
 70
0
  3

 72
65
 73
0
 40
0.0
  0
LTYPE
  5
2F
330
2
100
AcDbSymbolTableRecord
100
AcDbLinetypeTableRecord
  2
CENTER
 70
0
  3
Center ____ _ ____ _ ____ _ ____ _ ____ _ ____
 72
65
 73
4
 40
5.08
 49
3.175
 74
0
 49
-0.635
 74
0
 49
0.635
 74
0
 49
-0.635
 74
0
  0
LTYPE
  5
30
330
2
100
AcDbSymbolTableRecord
100
AcDbLinetypeTableRecord
  2
CENTERX2
 70
0
  3
Center (2x) ________  __  ________  __  ________
 72
65
 73
4
 40
8.89
 49
6.35
 74
0
 49
-0.635
 74
0
 49
1.27
 74
0
 49
-0.635
 74
0
  0
LTYPE
  5
31
330
2
100
AcDbSymbolTableRecord
100
AcDbLinetypeTableRecord
  2
CENTER2
 70
0
  3
Center (.5x) ____ _ ____ _ ____ _ ____ _ ____
 72
65
 73
4
 40
2.54
 49
1.587
 74
0
 49
-0.318
 74
0
 49
0.318
 74
0
 49
-0.318
 74
0
  0
LTYPE
  5
32
330
2
100
AcDbSymbolTableRecord
100
AcDbLinetypeTableRecord
  2
DASHED
 70
0
  3
Dashed __ __ __ __ __ __ __ __ __ __ __ __ __ _
 72
65
 73
2
 40
1.524
 49
1.27
 74
0
 49
-0.254
 74
0
  0
LTYPE
  5
33
330
2
100
AcDbSymbolTableRecord
100
AcDbLinetypeTableRecord
  2
DASHEDX2
 70
0
  3
Dashed (2x) ____  ____  ____  ____  ____  ____
 72
65
 73
2
 40
3.048
 49
2.54
 74
0
 49
-0.508
 74
0
  0
LTYPE
  5
34
330
2
100
AcDbSymbolTableRecord
100
AcDbLinetypeTableRecord
  2
DASHED2
 70
0
  3
Dashed (.5x) _ _ _ _ _ _ _ _ _ _ _ _ _ _
 72
65
 73
2
 40
0.762
 49
0.635
 74
0
 49
-0.127
 74
0
  0
LTYPE
  5
35
330
2
100
AcDbSymbolTableRecord
100
AcDbLinetypeTableRecord
  2
PHANTOM
 70
0
  3
Phantom ______  __  __  ______  __  __  ______
 72
65
 73
6
 40
6.35
 49
3.175
 74
0
 49
-0.635
 74
0
 49
0.635
 74
0
 49
-0.635
 74
0
 49
0.635
 74
0
 49
-0.635
 74
0
  0
LTYPE
  5
36
330
2
100
AcDbSymbolTableRecord
100
AcDbLinetypeTableRecord
  2
PHANTOMX2
 70
0
  3
Phantom (2x)____________    ____    ____    ____________
 72
65
 73
6
 40
10.795
 49
6.35
 74
0
 49
-0.635
 74
0
 49
1.27
 74
0
 49
-0.635
 74
0
 49
1.27
 74
0
 49
-0.635
 74
0
  0
LTYPE
  5
37
330
2
100
AcDbSymbolTableRecord
100
AcDbLinetypeTableRecord
  2
PHANTOM2
 70
0
  3
Phantom (.5x) ___ _ _ ___ _ _ ___ _ _ ___ _ _ ___
 72
65
 73
6
 40
3.175
 49
1.587
 74
0
 49
-0.318
 74
0
 49
0.318
 74
0
 49
-0.318
 74
0
 49
0.318
 74
0
 49
-0.318
 74
0
  0
LTYPE
  5
38
330
2
100
AcDbSymbolTableRecord
100
AcDbLinetypeTableRecord
  2
DASHDOT
 70
0
  3
Dash dot __ . __ . __ . __ . __ . __ . __ . __
 72
65
 73
4
 40
3.556
 49
2.54
 74
0
 49
-0.508
 74
0
 49
0.0
 74
0
 49
-0.508
 74
0
  0
LTYPE
  5
39
330
2
100
AcDbSymbolTableRecord
100
AcDbLinetypeTableRecord
  2
DASHDOTX2
 70
0
  3
Dash dot (2x) ____  .  ____  .  ____  .  ____
 72
65
 73
4
 40
6.096
 49
5.08
 74
0
 49
-0.508
 74
0
 49
0.0
 74
0
 49
-0.508
 74
0
  0
LTYPE
  5
3A
330
2
100
AcDbSymbolTableRecord
100
AcDbLinetypeTableRecord
  2
DASHDOT2
 70
0
  3
Dash dot (.5x) _ . _ . _ . _ . _ . _ . _ . _
 72
65
 73
4
 40
1.778
 49
1.27
 74
0
 49
-0.254
 74
0
 49
0.0
 74
0
 49
-0.254
 74
0
  0
LTYPE
  5
3B
330
2
100
AcDbSymbolTableRecord
100
AcDbLinetypeTableRecord
  2
DOT
 70
0
  3
Dot .  .  .  .  .  .  .  .  .  .  .  .  .  .  .  .
 72
65
 73
2
 40
0.508
 49
0.0
 74
0
 49
-0.508
 74
0
  0
LTYPE
  5
3C
330
2
100
AcDbSymbolTableRecord
100
AcDbLinetypeTableRecord
  2
DOTX2
 70
0
  3
Dot (2x) .    .    .    .    .    .    .    . 
 72
65
 73
2
 40
1.016
 49
0.0
 74
0
 49
-1.016
 74
0
  0
LTYPE
  5
3D
330
2
100
AcDbSymbolTableRecord
100
AcDbLinetypeTableRecord
  2
DOT2
 70
0
  3
Dot (.5) . . . . . . . . . . . . . . . . . . . 
 72
65
 73
2
 40
0.254
 49
0.0
 74
0
 49
-0.254
 74
0
  0
LTYPE
  5
3E
330
2
100
AcDbSymbolTableRecord
100
AcDbLinetypeTableRecord
  2
DIVIDE
 70
0
  3
Divide __ . . __ . . __ . . __ . . __ . . __
 72
65
 73
6
 40
4.064
 49
2.54
 74
0
 49
-0.508
 74
0
 49
0.0
 74
0
 49
-0.508
 74
0
 49
0.0
 74
0
 49
-0.508
 74
0
  0
LTYPE
  5
3F
330
2
100
AcDbSymbolTableRecord
100
AcDbLinetypeTableRecord
  2
DIVIDEX2
 70
0
  3
Divide (2x) ____  . .  ____  . .  ____  . .  ____
 72
65
 73
6
 40
6.604
 49
5.08
 74
0
 49
-0.508
 74
0
 49
0.0
 74
0
 49
-0.508
 74
0
 49
0.0
 74
0
 49
-0.508
 74
0
  0
LTYPE
  5
40
330
2
100
AcDbSymbolTableRecord
100
AcDbLinetypeTableRecord
  2
DIVIDE2
 70
0
  3
Divide(.5x) _ . _ . _ . _ . _ . _ . _ . _
 72
65
 73
6
 40
2.032
 49
1.27
 74
0
 49
-0.254
 74
0
 49
0.0
 74
0
 49
-0.254
 74
0
 49
0.0
 74
0
 49
-0.254
 74
0
  0
ENDTAB
  0
TABLE
  2
LAYER
  5
1
330
0
100
AcDbSymbolTable
 70
5
  0
LAYER
  5
27
330
1
100
AcDbSymbolTableRecord
100
AcDbLayerTableRecord
  2
0
 70
0
 62
7
  6
Continuous
370
-3
390
13
347
21
  0
LAYER
  5
28
330
1
100
AcDbSymbolTableRecord
100
AcDbLayerTableRecord
  2
Defpoints
 70
0
 62
7
  6
Continuous
290
0
370
-3
390
13
347
21
  0
LAYER
  5
8A
330
1
100
AcDbSymbolTableRecord
100
AcDbLayerTableRecord
  2
CUT
 70
0
 62
1
  6
Continuous
370
-3
390
13
347
21
  0
LAYER
  5
8B
330
1
100
AcDbSymbolTableRecord
100
AcDbLayerTableRecord
  2
ENGRAVE-LABEL
 70
0
 62
3
  6
Continuous
370
-3
390
13
347
21
  0
LAYER
  5
8C
330
1
100
AcDbSymbolTableRecord
100
AcDbLayerTableRecord
  2
REFERENCE-SHEET
 70
0
 62
8
  6
Continuous
370
-3
390
13
347
21
  0
ENDTAB
  0
TABLE
  2
STYLE
  5
5
330
0
100
AcDbSymbolTable
 70
26
  0
STYLE
  5
29
330
5
100
AcDbSymbolTableRecord
100
AcDbTextStyleTableRecord
  2
Standard
 70
0
 40
0.0
 41
1.0
 50
0.0
 71
0
 42
2.5
  3
txt
  4

  0
STYLE
  5
41
330
5
100
AcDbSymbolTableRecord
100
AcDbTextStyleTableRecord
  2
OpenSans-Light
 70
0
 40
0.0
 41
1.0
 50
0.0
 71
0
 42
2.5
  3
OpenSans-Light.ttf
  4

  0
STYLE
  5
42
330
5
100
AcDbSymbolTableRecord
100
AcDbTextStyleTableRecord
  2
OpenSans-Light-Italic
 70
0
 40
0.0
 41
1.0
 50
0.0
 71
0
 42
2.5
  3
OpenSans-LightItalic.ttf
  4

  0
STYLE
  5
43
330
5
100
AcDbSymbolTableRecord
100
AcDbTextStyleTableRecord
  2
OpenSans
 70
0
 40
0.0
 41
1.0
 50
0.0
 71
0
 42
2.5
  3
OpenSans-Regular.ttf
  4

  0
STYLE
  5
44
330
5
100
AcDbSymbolTableRecord
100
AcDbTextStyleTableRecord
  2
OpenSans-Italic
 70
0
 40
0.0
 41
1.0
 50
0.0
 71
0
 42
2.5
  3
OpenSans-Italic.ttf
  4

  0
STYLE
  5
45
330
5
100
AcDbSymbolTableRecord
100
AcDbTextStyleTableRecord
  2
OpenSans-SemiBold
 70
0
 40
0.0
 41
1.0
 50
0.0
 71
0
 42
2.5
  3
OpenSans-SemiBold.ttf
  4

  0
STYLE
  5
46
330
5
100
AcDbSymbolTableRecord
100
AcDbTextStyleTableRecord
  2
OpenSans-SemiBoldItalic
 70
0
 40
0.0
 41
1.0
 50
0.0
 71
0
 42
2.5
  3
OpenSans-SemiBoldItalic.ttf
  4

  0
STYLE
  5
47
330
5
100
AcDbSymbolTableRecord
100
AcDbTextStyleTableRecord
  2
OpenSans-Bold
 70
0
 40
0.0
 41
1.0
 50
0.0
 71
0
 42
2.5
  3
OpenSans-Bold.ttf
  4

  0
STYLE
  5
48
330
5
100
AcDbSymbolTableRecord
100
AcDbTextStyleTableRecord
  2
OpenSans-BoldItalic
 70
0
 40
0.0
 41
1.0
 50
0.0
 71
0
 42
2.5
  3
OpenSans-BoldItalic.ttf
  4

  0
STYLE
  5
49
330
5
100
AcDbSymbolTableRecord
100
AcDbTextStyleTableRecord
  2
OpenSans-ExtraBold
 70
0
 40
0.0
 41
1.0
 50
0.0
 71
0
 42
2.5
  3
OpenSans-ExtraBold.ttf
  4

  0
STYLE
  5
4A
330
5
100
AcDbSymbolTableRecord
100
AcDbTextStyleTableRecord
  2
OpenSans-ExtraBoldItalic
 70
0
 40
0.0
 41
1.0
 50
0.0
 71
0
 42
2.5
  3
OpenSans-ExtraBoldItalic.ttf
  4

  0
STYLE
  5
4B
330
5
100
AcDbSymbolTableRecord
100
AcDbTextStyleTableRecord
  2
OpenSansCondensed-Bold
 70
0
 40
0.0
 41
1.0
 50
0.0
 71
0
 42
2.5
  3
OpenSansCondensed-Bold.ttf
  4

  0
STYLE
  5
4C
330
5
100
AcDbSymbolTableRecord
100
AcDbTextStyleTableRecord
  2
OpenSansCondensed-Light
 70
0
 40
0.0
 41
1.0
 50
0.0
 71
0
 42
2.5
  3
OpenSansCondensed-Light.ttf
  4

  0
STYLE
  5
4D
330
5
100
AcDbSymbolTableRecord
100
AcDbTextStyleTableRecord
  2
OpenSansCondensed-Italic
 70
0
 40
0.0
 41
1.0
 50
0.0
 71
0
 42
2.5
  3
OpenSansCondensed-LightItalic.ttf
  4

  0
STYLE
  5
4E
330
5
100
AcDbSymbolTableRecord
100
AcDbTextStyleTableRecord
  2
LiberationSans
 70
0
 40
0.0
 41
1.0
 50
0.0
 71
0
 42
2.5
  3
LiberationSans-Regular.ttf
  4

  0
STYLE
  5
4F
330
5
100
AcDbSymbolTableRecord
100
AcDbTextStyleTableRecord
  2
LiberationSans-Bold
 70
0
 40
0.0
 41
1.0
 50
0.0
 71
0
 42
2.5
  3
LiberationSans-Bold.ttf
  4

  0
STYLE
  5
50
330
5
100
AcDbSymbolTableRecord
100
AcDbTextStyleTableRecord
  2
LiberationSans-BoldItalic
 70
0
 40
0.0
 41
1.0
 50
0.0
 71
0
 42
2.5
  3
LiberationSans-BoldItalic.ttf
  4

  0
STYLE
  5
51
330
5
100
AcDbSymbolTableRecord
100
AcDbTextStyleTableRecord
  2
LiberationSans-Italic
 70
0
 40
0.0
 41
1.0
 50
0.0
 71
0
 42
2.5
  3
LiberationSans-Italic.ttf
  4

  0
STYLE
  5
52
330
5
100
AcDbSymbolTableRecord
100
AcDbTextStyleTableRecord
  2
LiberationSerif
 70
0
 40
0.0
 41
1.0
 50
0.0
 71
0
 42
2.5
  3
LiberationSerif-Regular.ttf
  4

  0
STYLE
  5
53
330
5
100
AcDbSymbolTableRecord
100
AcDbTextStyleTableRecord
  2
LiberationSerif-Bold
 70
0
 40
0.0
 41
1.0
 50
0.0
 71
0
 42
2.5
  3
LiberationSerif-Bold.ttf
  4

  0
STYLE
  5
54
330
5
100
AcDbSymbolTableRecord
100
AcDbTextStyleTableRecord
  2
LiberationSerif-BoldItalic
 70
0
 40
0.0
 41
1.0
 50
0.0
 71
0
 42
2.5
  3
LiberationSerif-BoldItalic.ttf
  4

  0
STYLE
  5
55
330
5
100
AcDbSymbolTableRecord
100
AcDbTextStyleTableRecord
  2
LiberationSerif-Italic
 70
0
 40
0.0
 41
1.0
 50
0.0
 71
0
 42
2.5
  3
LiberationSerif-Italic.ttf
  4

  0
STYLE
  5
56
330
5
100
AcDbSymbolTableRecord
100
AcDbTextStyleTableRecord
  2
LiberationMono
 70
0
 40
0.0
 41
1.0
 50
0.0
 71
0
 42
2.5
  3
LiberationMono-Regular.ttf
  4

  0
STYLE
  5
57
330
5
100
AcDbSymbolTableRecord
100
AcDbTextStyleTableRecord
  2
LiberationMono-Bold
 70
0
 40
0.0
 41
1.0
 50
0.0
 71
0
 42
2.5
  3
LiberationMono-Bold.ttf
  4

  0
STYLE
  5
58
330
5
100
AcDbSymbolTableRecord
100
AcDbTextStyleTableRecord
  2
LiberationMono-BoldItalic
 70
0
 40
0.0
 41
1.0
 50
0.0
 71
0
 42
2.5
  3
LiberationMono-BoldItalic.ttf
  4

  0
STYLE
  5
59
330
5
100
AcDbSymbolTableRecord
100
AcDbTextStyleTableRecord
  2
LiberationMono-Italic
 70
0
 40
0.0
 41
1.0
 50
0.0
 71
0
 42
2.5
  3
LiberationMono-Italic.ttf
  4

  0
ENDTAB
  0
TABLE
  2
VIEW
  5
7
330
0
100
AcDbSymbolTable
 70
0
  0
ENDTAB
  0
TABLE
  2
UCS
  5
6
330
0
100
AcDbSymbolTable
 70
0
  0
ENDTAB
  0
TABLE
  2
APPID
  5
3
330
0
100
AcDbSymbolTable
 70
3
  0
APPID
  5
2A
330
3
100
AcDbSymbolTableRecord
100
AcDbRegAppTableRecord
  2
ACAD
 70
0
  0
APPID
  5
12F
330
3
100
AcDbSymbolTableRecord
100
AcDbRegAppTableRecord
  2
HATCHBACKGROUNDCOLOR
 70
0
  0
APPID
  5
130
330
3
100
AcDbSymbolTableRecord
100
AcDbRegAppTableRecord
  2
EZDXF
 70
0
  0
ENDTAB
  0
TABLE
  2
DIMSTYLE
  5
4
330
0
100
AcDbSymbolTable
 70
12
100
AcDbDimStyleTable
  0
DIMSTYLE
105
2B
330
4
100
AcDbSymbolTableRecord
100
AcDbDimStyleTableRecord
  2
Standard
 70
0
 40
1.0
 41
2.5
 42
0.625
 43
3.75
 44
1.25
 45
0.0
 46
0.0
 47
0.0
 48
0.0
 49
2.5
140
2.5
141
2.5
142
0.0
143
0.03937007874
144
1.0
145
0.0
146
1.0
147
0.625
148
0.0
 69
0
 70
0
 71
0
 72
0
 73
0
 74
0
 75
0
 76
0
 77
1
 78
8
 79
3
170
0
171
3
172
1
173
0
174
0
175
0
176
0
177
0
178
0
179
2
271
2
272
2
273
2
274
3
275
0
276
0
277
2
278
44
279
0
280
0
281
0
282
0
283
0
284
8
285
0
286
0
288
0
289
3
290
0
371
-2
372
-2
  0
DIMSTYLE
105
73
330
4
100
AcDbSymbolTableRecord
100
AcDbDimStyleTableRecord
  2
EZDXF
 70
0
 40
1.0
 41
0.175
 42
0.125
 43
3.75
 44
0.375
 45
0.0
 46
0.0
 47
0.0
 48
0.0
 49
2.5
140
0.25
141
2.5
142
0.0
143
0.03937007874
144
100.0
145
0.0
146
0.5
147
0.1
148
0.0
 69
0
 70
0
 71
0
 72
0
 73
0
 74
0
 75
0
 76
0
 77
1
 78
12
 79
3
170
0
171
3
172
1
173
0
174
0
175
0
176
0
177
0
178
0
179
2
271
2
272
2
273
2
274
3
275
0
276
0
277
2
278
46
279
2
280
0
281
0
282
0
283
0
284
8
285
0
286
0
288
1
289
3
290
0
340
4C
342
74
371
-2
372
-2
  0
DIMSTYLE
105
7C
330
4
100
AcDbSymbolTableRecord
100
AcDbDimStyleTableRecord
  2
EZ_M_100_H25_CM
 70
0
 40
1.0
 41
0.25
 42
0.125
 43
3.75
 44
0.375
 45
0.0
 46
0.0
 47
0.0
 48
0.0
 49
2.5
140
0.25
141
2.5
142
0.125
143
0.03937007874
144
100.0
145
0.0
146
0.5
147
0.1
148
0.0
 69
0
 70
0
 71
0
 72
0
 73
0
 74
0
 75
0
 76
0
 77
1
 78
12
 79
3
170
0
171
3
172
1
173
0
174
0
175
0
176
0
177
0
178
0
179
2
271
2
272
2
273
2
274
3
275
0
276
0
277
2
278
46
279
2
280
0
281
0
282
0
283
0
284
8
285
0
286
0
288
1
289
3
290
0
340
4C
371
-2
372
-2
  0
DIMSTYLE
105
7D
330
4
100
AcDbSymbolTableRecord
100
AcDbDimStyleTableRecord
  2
EZ_M_50_H25_CM
 70
0
 40
1.0
 41
0.125
 42
0.0625
 43
3.75
 44
0.1875
 45
0.0
 46
0.0
 47
0.0
 48
0.0
 49
2.5
140
0.125
141
2.5
142
0.0625
143
0.03937007874
144
100.0
145
0.0
146
0.5
147
0.05
148
0.0
 69
0
 70
0
 71
0
 72
0
 73
0
 74
0
 75
0
 76
0
 77
1
 78
12
 79
3
170
0
171
3
172
1
173
0
174
0
175
0
176
0
177
0
178
0
179
2
271
2
272
2
273
2
274
3
275
0
276
0
277
2
278
46
279
2
280
0
281
0
282
0
283
0
284
8
285
0
286
0
288
1
289
3
290
0
340
4C
371
-2
372
-2
  0
DIMSTYLE
105
7E
330
4
100
AcDbSymbolTableRecord
100
AcDbDimStyleTableRecord
  2
EZ_M_25_H25_CM
 70
0
 40
1.0
 41
0.0625
 42
0.03125
 43
3.75
 44
0.09375
 45
0.0
 46
0.0
 47
0.0
 48
0.0
 49
2.5
140
0.0625
141
2.5
142
0.03125
143
0.03937007874
144
100.0
145
0.0
146
0.5
147
0.025
148
0.0
 69
0
 70
0
 71
0
 72
0
 73
0
 74
0
 75
0
 76
0
 77
1
 78
12
 79
3
170
0
171
3
172
1
173
0
174
0
175
0
176
0
177
0
178
0
179
2
271
2
272
2
273
2
274
3
275
0
276
0
277
2
278
46
279
2
280
0
281
0
282
0
283
0
284
8
285
0
286
0
288
1
289
3
290
0
340
4C
371
-2
372
-2
  0
DIMSTYLE
105
7F
330
4
100
AcDbSymbolTableRecord
100
AcDbDimStyleTableRecord
  2
EZ_M_20_H25_CM
 70
0
 40
1.0
 41
0.05
 42
0.025
 43
3.75
 44
0.07500000000000001
 45
0.0
 46
0.0
 47
0.0
 48
0.0
 49
2.5
140
0.05
141
2.5
142
0.025
143
0.03937007874
144
100.0
145
0.0
146
0.5
147
0.020000000000000004
148
0.0
 69
0
 70
0
 71
0
 72
0
 73
0
 74
0
 75
0
 76
0
 77
1
 78
12
 79
3
170
0
171
3
172
1
173
0
174
0
175
0
176
0
177
0
178
0
179
2
271
2
272
2
273
2
274
3
275
0
276
0
277
2
278
46
279
2
280
0
281
0
282
0
283
0
284
8
285
0
286
0
288
1
289
3
290
0
340
4C
371
-2
372
-2
  0
DIMSTYLE
105
80
330
4
100
AcDbSymbolTableRecord
100
AcDbDimStyleTableRecord
  2
EZ_M_10_H25_CM
 70
0
 40
1.0
 41
0.025
 42
0.0125
 43
3.75
 44
0.037500000000000006
 45
0.0
 46
0.0
 47
0.0
 48
0.0
 49
2.5
140
0.025
141
2.5
142
0.0125
143
0.03937007874
144
100.0
145
0.0
146
0.5
147
0.010000000000000002
148
0.0
 69
0
 70
0
 71
0
 72
0
 73
0
 74
0
 75
0
 76
0
 77
1
 78
12
 79
3
170
0
171
3
172
1
173
0
174
0
175
0
176
0
177
0
178
0
179
2
271
2
272
2
273
2
274
3
275
0
276
0
277
2
278
46
279
2
280
0
281
0
282
0
283
0
284
8
285
0
286
0
288
1
289
3
290
0
340
4C
371
-2
372
-2
  0
DIMSTYLE
105
81
330
4
100
AcDbSymbolTableRecord
100
AcDbDimStyleTableRecord
  2
EZ_M_5_H25_CM
 70
0
 40
1.0
 41
0.0125
 42
0.00625
 43
3.75
 44
0.018750000000000003
 45
0.0
 46
0.0
 47
0.0
 48
0.0
 49
2.5
140
0.0125
141
2.5
142
0.00625
143
0.03937007874
144
100.0
145
0.0
146
0.5
147
0.005000000000000001
148
0.0
 69
0
 70
0
 71
0
 72
0
 73
0
 74
0
 75
0
 76
0
 77
1
 78
12
 79
3
170
0
171
3
172
1
173
0
174
0
175
0
176
0
177
0
178
0
179
2
271
2
272
2
273
2
274
3
275
0
276
0
277
2
278
46
279
2
280
0
281
0
282
0
283
0
284
8
285
0
286
0
288
1
289
3
290
0
340
4C
371
-2
372
-2
  0
DIMSTYLE
105
82
330
4
100
AcDbSymbolTableRecord
100
AcDbDimStyleTableRecord
  2
EZ_M_1_H25_CM
 70
0
 40
1.0
 41
0.0025
 42
0.00125
 43
3.75
 44
0.00375
 45
0.0
 46
0.0
 47
0.0
 48
0.0
 49
2.5
140
0.0025
141
2.5
142
0.00125
143
0.03937007874
144
100.0
145
0.0
146
0.5
147
0.001
148
0.0
 69
0
 70
0
 71
0
 72
0
 73
0
 74
0
 75
0
 76
0
 77
1
 78
12
 79
3
170
0
171
3
172
1
173
0
174
0
175
0
176
0
177
0
178
0
179
2
271
2
272
2
273
2
274
3
275
0
276
0
277
2
278
46
279
2
280
0
281
0
282
0
283
0
284
8
285
0
286
0
288
1
289
3
290
0
340
4C
371
-2
372
-2
  0
DIMSTYLE
105
83
330
4
100
AcDbSymbolTableRecord
100
AcDbDimStyleTableRecord
  2
EZ_RADIUS
 70
0
 40
1.0
 41
0.25
 42
0.125
 43
3.75
 44
0.375
 45
0.0
 46
0.0
 47
0.0
 48
0.0
 49
2.5
140
0.25
141
0.0
142
0.0
143
0.03937007874
144
100.0
145
0.0
146
0.5
147
0.1
148
0.0
 69
0
 70
0
 71
0
 72
0
 73
0
 74
0
 75
0
 76
0
 77
1
 78
12
 79
3
170
0
171
3
172
0
173
0
174
0
175
0
176
0
177
0
178
0
179
2
271
2
272
2
273
2
274
3
275
0
276
0
277
2
278
46
279
1
280
0
281
0
282
0
283
0
284
8
285
0
286
0
288
1
289
3
290
0
340
4C
342
84
371
-2
372
-2
  0
DIMSTYLE
105
88
330
4
100
AcDbSymbolTableRecord
100
AcDbDimStyleTableRecord
  2
EZ_RADIUS_INSIDE
 70
0
 40
1.0
 41
0.25
 42
0.125
 43
3.75
 44
0.375
 45
0.0
 46
0.0
 47
0.0
 48
0.0
 49
2.5
140
0.25
141
0.0
142
0.0
143
0.03937007874
144
100.0
145
0.0
146
0.5
147
0.1
148
0.0
 69
0
 70
0
 71
0
 72
0
 73
0
 74
0
 75
0
 76
0
 77
0
 78
12
 79
3
170
0
171
3
172
0
173
0
174
1
175
0
176
0
177
0
178
0
179
2
271
2
272
2
273
2
274
3
275
0
276
0
277
2
278
46
279
0
280
0
281
0
282
0
283
0
284
8
285
0
286
0
288
1
289
0
290
0
340
4C
342
84
371
-2
372
-2
  0
DIMSTYLE
105
89
330
4
100
AcDbSymbolTableRecord
100
AcDbDimStyleTableRecord
  2
EZ_CURVED
 70
0
 40
1.0
 41
0.25
 42
0.125
 43
3.75
 44
0.375
 45
0.0
 46
0.0
 47
0.0
 48
0.0
 49
2.5
140
0.25
141
2.5
142
0.0
143
0.03937007874
144
100.0
145
0.0
146
0.5
147
0.1
148
0.0
 69
0
 70
0
 71
0
 72
0
 73
0
 74
0
 75
0
 76
0
 77
1
 78
12
 79
2
 90
2
170
0
171
3
172
1
173
0
174
0
175
0
176
0
177
0
178
0
179
2
271
2
272
2
273
2
274
3
275
0
276
0
277
2
278
46
279
2
280
0
281
0
282
0
283
0
284
8
285
0
286
0
288
1
289
3
290
0
340
4C
371
-2
372
-2
  0
ENDTAB
  0
TABLE
  2
BLOCK_RECORD
  5
9
330
0
100
AcDbSymbolTable
 70
5
  0
BLOCK_RECORD
  5
17
330
9
100
AcDbSymbolTableRecord
100
AcDbBlockTableRecord
  2
*Model_Space
340
1A
 70
0
280
1
281
0
  0
BLOCK_RECORD
  5
1B
330
9
100
AcDbSymbolTableRecord
100
AcDbBlockTableRecord
  2
*Paper_Space
340
1E
 70
0
280
1
281
0
  0
BLOCK_RECORD
  5
74
330
9
100
AcDbSymbolTableRecord
100
AcDbBlockTableRecord
  2
_ARCHTICK
340
0
 70
0
280
1
281
0
  0
BLOCK_RECORD
  5
78
330
9
100
AcDbSymbolTableRecord
100
AcDbBlockTableRecord
  2
_CLOSEDFILLED
340
0
 70
0
280
1
281
0
  0
BLOCK_RECORD
  5
84
330
9
100
AcDbSymbolTableRecord
100
AcDbBlockTableRecord
  2
_CLOSEDBLANK
340
0
 70
0
280
1
281
0
  0
ENDTAB
  0
ENDSEC
  0
SECTION
  2
BLOCKS
  0
BLOCK
  5
18
330
17
100
AcDbEntity
  8
0
100
AcDbBlockBegin
  2
*Model_Space
 70
0
 10
0.0
 20
0.0
 30
0.0
  3
*Model_Space
  1

  0
ENDBLK
  5
19
330
17
100
AcDbEntity
  8
0
100
AcDbBlockEnd
  0
BLOCK
  5
1C
330
1B
100
AcDbEntity
  8
0
100
AcDbBlockBegin
  2
*Paper_Space
 70
0
 10
0.0
 20
0.0
 30
0.0
  3
*Paper_Space
  1

  0
ENDBLK
  5
1D
330
1B
100
AcDbEntity
  8
0
100
AcDbBlockEnd
  0
BLOCK
  5
75
330
74
100
AcDbEntity
  8
0
100
AcDbBlockBegin
  2
_ARCHTICK
 70
0
 10
0.0
 20
0.0
 30
0.0
  3
_ARCHTICK
  1

  0
LWPOLYLINE
  5
77
330
74
100
AcDbEntity
  8
0
  6
BYBLOCK
 62
0
100
AcDbPolyline
 90
2
 70
0
 43
0.15
 10
-0.5
 20
-0.5
 10
0.5
 20
0.5
  0
ENDBLK
  5
76
330
74
100
AcDbEntity
  8
0
100
AcDbBlockEnd
  0
BLOCK
  5
79
330
78
100
AcDbEntity
  8
0
100
AcDbBlockBegin
  2
_CLOSEDFILLED
 70
0
 10
0.0
 20
0.0
 30
0.0
  3
_CLOSEDFILLED
  1

  0
SOLID
  5
7B
330
78
100
AcDbEntity
  8
0
  6
BYBLOCK
 62
0
100
AcDbTrace
 10
-1.0
 20
0.16439898372402537
 30
0.0
 11
0.0
 21
0.0
 31
0.0
 12
-1.0
 22
-0.16439898372402537
 32
0.0
 13
-1.0
 23
-0.16439898372402537
 33
0.0
  0
ENDBLK
  5
7A
330
78
100
AcDbEntity
  8
0
100
AcDbBlockEnd
  0
BLOCK
  5
85
330
84
100
AcDbEntity
  8
0
100
AcDbBlockBegin
  2
_CLOSEDBLANK
 70
0
 10
0.0
 20
0.0
 30
0.0
  3
_CLOSEDBLANK
  1

  0
LWPOLYLINE
  5
87
330
84
100
AcDbEntity
  8
0
  6
BYBLOCK
 62
0
100
AcDbPolyline
 90
3
 70
1
 10
-1.0
 20
0.16439898372402537
 10
0.0
 20
0.0
 10
-1.0
 20
-0.16439898372402537
  0
ENDBLK
  5
86
330
84
100
AcDbEntity
  8
0
100
AcDbBlockEnd
  0
ENDSEC
  0
SECTION
  2
ENTITIES
  0
LWPOLYLINE
  5
8D
330
17
100
AcDbEntity
  8
REFERENCE-SHEET
100
AcDbPolyline
 90
4
 70
1
 10
0.0
 20
0.0
 10
2440.0
 20
0.0
 10
2440.0
 20
1220.0
 10
0.0
 20
1220.0
  0
TEXT
  5
8E
330
17
100
AcDbEntity
  8
REFERENCE-SHEET
100
AcDbText
 10
0.0
 20
1275.0
 30
0.0
 40
40.0
  1
SHEET 1/4  -  2440 x 1220 x 15 mm PLYWOOD
 11
0.0
 21
1275.0
 31
0.0
100
AcDbText
  0
LWPOLYLINE
  5
8F
330
17
100
AcDbEntity
  8
CUT
100
AcDbPolyline
 90
33
 70
1
 10
18.0
 20
18.0
 10
38.0
 20
18.0
 10
38.0
 20
30.0
 42
-2.414213562373095
 10
41.2
 20
33.2
 10
134.8
 20
33.2
 42
-2.414213562373095
 10
138.0
 20
30.0
 10
138.0
 20
18.0
 10
168.0
 20
18.0
 10
168.0
 20
69.8
 42
-2.414213562373095
 10
171.2
 20
73.0
 10
764.8
 20
73.0
 42
-2.414213562373095
 10
768.0
 20
69.8
 10
768.0
 20
18.0
 10
798.0
 20
18.0
 10
798.0
 20
30.0
 42
-2.414213562373095
 10
801.2
 20
33.2
 10
894.8
 20
33.2
 42
-2.414213562373095
 10
898.0
 20
30.0
 10
898.0
 20
18.0
 10
918.0
 20
18.0
 10
918.0
 20
778.0
 10
888.0
 20
778.0
 10
888.0
 20
766.0
 42
-2.414213562373095
 10
884.8
 20
762.8
 10
831.2
 20
762.8
 42
-2.414213562373095
 10
828.0
 20
766.0
 10
828.0
 20
778.0
 10
718.0
 20
778.0
 10
718.0
 20
641.2
 42
-2.414213562373095
 10
714.8
 20
638.0
 10
138.0
 20
638.0
 42
0.41421356237309503
 10
18.0
 20
518.0
 10
18.0
 20
18.0
  0
LWPOLYLINE
  5
90
330
17
100
AcDbEntity
  8
CUT
100
AcDbPolyline
 90
8
 70
1
 10
47.8
 20
336.0
 42
2.414213562373095
 10
51.0
 20
332.8
 10
105.0
 20
332.8
 42
2.414213562373095
 10
108.2
 20
336.0
 10
108.2
 20
345.0
 42
2.414213562373095
 10
105.0
 20
348.2
 10
51.0
 20
348.2
 42
2.414213562373095
 10
47.8
 20
345.0
  0
LWPOLYLINE
  5
91
330
17
100
AcDbEntity
  8
CUT
100
AcDbPolyline
 90
8
 70
1
 10
627.8
 20
336.0
 42
2.414213562373095
 10
631.0
 20
332.8
 10
685.0
 20
332.8
 42
2.414213562373095
 10
688.2
 20
336.0
 10
688.2
 20
345.0
 42
2.414213562373095
 10
685.0
 20
348.2
 10
631.0
 20
348.2
 42
2.414213562373095
 10
627.8
 20
345.0
  0
LWPOLYLINE
  5
92
330
17
100
AcDbEntity
  8
CUT
100
AcDbPolyline
 90
8
 70
1
 10
832.8
 20
351.0
 42
2.414213562373095
 10
836.0
 20
347.8
 10
890.0
 20
347.8
 42
2.414213562373095
 10
893.2
 20
351.0
 10
893.2
 20
360.0
 42
2.414213562373095
 10
890.0
 20
363.2
 10
836.0
 20
363.2
 42
2.414213562373095
 10
832.8
 20
360.0
  0
LWPOLYLINE
  5
93
330
17
100
AcDbEntity
  8
CUT
100
AcDbPolyline
 90
8
 70
1
 10
832.8
 20
541.0
 42
2.414213562373095
 10
836.0
 20
537.8
 10
890.0
 20
537.8
 42
2.414213562373095
 10
893.2
 20
541.0
 10
893.2
 20
550.0
 42
2.414213562373095
 10
890.0
 20
553.2
 10
836.0
 20
553.2
 42
2.414213562373095
 10
832.8
 20
550.0
  0
LWPOLYLINE
  5
94
330
17
100
AcDbEntity
  8
CUT
100
AcDbPolyline
 90
4
 70
1
 10
303.0
 20
153.0
 10
633.0
 20
153.0
 42
1.0
 10
633.0
 20
263.0
 10
303.0
 20
263.0
 42
1.0
  0
LWPOLYLINE
  5
95
330
17
100
AcDbEntity
  8
CUT
100
AcDbPolyline
 90
4
 70
1
 10
278.0
 20
438.0
 10
558.0
 20
438.0
 42
1.0
 10
558.0
 20
558.0
 10
278.0
 20
558.0
 42
1.0
  0
TEXT
  5
96
330
17
100
AcDbEntity
  8
ENGRAVE-LABEL
100
AcDbText
 10
734.5546875
 20
462.4609375
 30
0.0
 40
22.0
  1
02 ARM-PANEL 1/2
 50
15.0
 72
1
 11
734.5546875
 21
462.4609375
 31
0.0
100
AcDbText
 73
2
  0
LWPOLYLINE
  5
97
330
17
100
AcDbEntity
  8
CUT
100
AcDbPolyline
 90
33
 70
1
 10
1554.0
 20
94.0
 10
1554.0
 20
114.0
 10
1542.0
 20
114.0
 42
-2.414213562373095
 10
1538.8
 20
117.2
 10
1538.8
 20
210.8
 42
-2.414213562373095
 10
1542.0
 20
214.0
 10
1554.0
 20
214.0
 10
1554.0
 20
244.0
 10
1502.2
 20
244.0
 42
-2.414213562373095
 10
1499.0
 20
247.2
 10
1499.0
 20
840.8
 42
-2.414213562373095
 10
1502.2
 20
844.0
 10
1554.0
 20
844.0
 10
1554.0
 20
874.0
 10
1542.0
 20
874.0
 42
-2.414213562373095
 10
1538.8000000000002
 20
877.2
 10
1538.8000000000002
 20
970.8
 42
-2.414213562373095
 10
1542.0
 20
974.0
 10
1554.0
 20
974.0
 10
1554.0
 20
994.0
 10
794.0
 20
994.0
 10
794.0
 20
964.0
 10
806.0
 20
964.0
 42
-2.414213562373095
 10
809.2
 20
960.8
 10
809.2
 20
907.2
 42
-2.414213562373095
 10
806.0
 20
904.0
 10
794.0
 20
904.0
 10
794.0
 20
794.0
 10
930.8
 20
794.0
 42
-2.414213562373095
 10
934.0
 20
790.8
 10
934.0
 20
214.00000000000006
 42
0.41421356237309503
 10
1054.0
 20
94.00000000000003
 10
1554.0
 20
94.0
  0
LWPOLYLINE
  5
98
330
17
100
AcDbEntity
  8
CUT
100
AcDbPolyline
 90
8
 70
1
 10
1236.0
 20
123.80000000000001
 42
2.414213562373095
 10
1239.2
 20
127.00000000000003
 10
1239.2
 20
181.0
 42
2.414213562373095
 10
1236.0
 20
184.20000000000002
 10
1227.0
 20
184.20000000000002
 42
2.414213562373095
 10
1223.8
 20
181.0
 10
1223.8
 20
127.00000000000003
 42
2.414213562373095
 10
1227.0
 20
123.80000000000003
  0
LWPOLYLINE
  5
99
330
17
100
AcDbEntity
  8
CUT
100
AcDbPolyline
 90
8
 70
1
 10
1236.0
 20
703.8
 42
2.414213562373095
 10
1239.2
 20
707.0
 10
1239.2
 20
761.0
 42
2.414213562373095
 10
1236.0
 20
764.2
 10
1227.0
 20
764.2
 42
2.414213562373095
 10
1223.8000000000002
 20
761.0
 10
1223.8000000000002
 20
707.0
 42
2.414213562373095
 10
1227.0
 20
703.8
  0
LWPOLYLINE
  5
9A
330
17
100
AcDbEntity
  8
CUT
100
AcDbPolyline
 90
8
 70
1
 10
1221.0
 20
908.8
 42
2.414213562373095
 10
1224.2
 20
912.0
 10
1224.2
 20
966.0
 42
2.414213562373095
 10
1221.0
 20
969.2
 10
1212.0
 20
969.2
 42
2.414213562373095
 10
1208.8000000000002
 20
966.0
 10
1208.8000000000002
 20
912.0
 42
2.414213562373095
 10
1212.0
 20
908.8
  0
LWPOLYLINE
  5
9B
330
17
100
AcDbEntity
  8
CUT
100
AcDbPolyline
 90
8
 70
1
 10
1031.0
 20
908.8
 42
2.414213562373095
 10
1034.2
 20
912.0
 10
1034.2
 20
966.0
 42
2.414213562373095
 10
1031.0
 20
969.2
 10
1022.0
 20
969.2
 42
2.414213562373095
 10
1018.8
 20
966.0
 10
1018.8
 20
912.0
 42
2.414213562373095
 10
1022.0
 20
908.8
  0
LWPOLYLINE
  5
9C
330
17
100
AcDbEntity
  8
CUT
100
AcDbPolyline
 90
4
 70
1
 10
1419.0
 20
379.0
 10
1419.0
 20
709.0
 42
1.0
 10
1309.0
 20
709.0
 10
1309.0
 20
379.0
 42
1.0
  0
LWPOLYLINE
  5
9D
330
17
100
AcDbEntity
  8
CUT
100
AcDbPolyline
 90
4
 70
1
 10
1134.0
 20
354.0
 10
1134.0
 20
634.0
 42
1.0
 10
1014.0
 20
634.0
 10
1014.0
 20
354.00000000000006
 42
1.0
  0
TEXT
  5
9E
330
17
100
AcDbEntity
  8
ENGRAVE-LABEL
100
AcDbText
 10
1109.5390625
 20
810.5546875
 30
0.0
 40
22.0
  1
02 ARM-PANEL 2/2
 72
1
 11
1109.5390625
 21
810.5546875
 31
0.0
100
AcDbText
 73
2
  0
LWPOLYLINE
  5
9F
330
17
100
AcDbEntity
  8
CUT
100
AcDbPolyline
 90
4
 70
1
 10
2271.9191034830205
 20
846.0352470859286
 10
1600.9838584086237
 20
1007.1125481465035
 42
0.11835779964076783
 10
1600.9838584086235
 20
78.0
 10
2271.91910348302
 20
239.07730106057465
 42
-0.11835779964076783
  0
LWPOLYLINE
  5
A0
330
17
100
AcDbEntity
  8
CUT
100
AcDbPolyline
 90
8
 70
1
 10
2035.6152150561907
 20
784.7499715740727
 42
2.414213562373095
 10
2032.955202654415
 20
788.4111645521059
 10
1979.6200322622774
 20
796.8586256642784
 42
2.414213562373095
 10
1975.9588392842443
 20
794.1986132625027
 10
1974.550929098882
 20
785.3094181971464
 42
2.414213562373095
 10
1977.2109415006578
 20
781.6482252191132
 10
2030.5461118927954
 20
773.2007641069408
 42
2.414213562373095
 10
2034.2073048708285
 20
775.8607765087165
  0
LWPOLYLINE
  5
A1
330
17
100
AcDbEntity
  8
CUT
100
AcDbPolyline
 90
8
 70
1
 10
1739.3087128776494
 20
831.680311086142
 42
2.414213562373095
 10
1736.6487004758737
 20
835.3415040641752
 10
1683.3135300837362
 20
843.7889651763476
 42
2.414213562373095
 10
1679.652337105703
 20
841.1289527745719
 10
1678.2444269203409
 20
832.2397577092156
 42
2.414213562373095
 10
1680.9044393221166
 20
828.5785647311825
 10
1734.2396097142541
 20
820.13110361901
 42
2.414213562373095
 10
1737.9008026922872
 20
822.7911160207857
  0
LWPOLYLINE
  5
A2
330
17
100
AcDbEntity
  8
CUT
100
AcDbPolyline
 90
8
 70
1
 10
2016.2
 20
547.0562740732516
 42
2.414213562373095
 10
2013.0
 20
550.2562740732517
 10
1959.0
 20
550.2562740732517
 42
2.414213562373095
 10
1955.8
 20
547.0562740732516
 10
1955.8
 20
538.0562740732516
 42
2.414213562373095
 10
1959.0
 20
534.8562740732517
 10
2013.0
 20
534.8562740732517
 42
2.414213562373095
 10
2016.2
 20
538.0562740732516
  0
LWPOLYLINE
  5
A3
330
17
100
AcDbEntity
  8
CUT
100
AcDbPolyline
 90
8
 70
1
 10
1716.2
 20
547.0562740732518
 42
2.414213562373095
 10
1713.0
 20
550.2562740732517
 10
1659.0
 20
550.2562740732517
 42
2.414213562373095
 10
1655.8
 20
547.0562740732518
 10
1655.8
 20
538.0562740732518
 42
2.414213562373095
 10
1659.0
 20
534.8562740732518
 10
1713.0
 20
534.8562740732518
 42
2.414213562373095
 10
1716.2
 20
538.0562740732518
  0
LWPOLYLINE
  5
A4
330
17
100
AcDbEntity
  8
CUT
100
AcDbPolyline
 90
8
 70
1
 10
2034.2073048708285
 20
309.25177163778693
 42
2.414213562373095
 10
2030.5461118927954
 20
311.91178403956263
 10
1977.2109415006578
 20
303.4643229273902
 42
2.414213562373095
 10
1974.550929098882
 20
299.80312994935696
 10
1975.9588392842443
 20
290.91393488400075
 42
2.414213562373095
 10
1979.6200322622774
 20
288.25392248222505
 10
2032.955202654415
 20
296.7013835943975
 42
2.414213562373095
 10
2035.6152150561907
 20
300.3625765724307
  0
LWPOLYLINE
  5
A5
330
17
100
AcDbEntity
  8
CUT
100
AcDbPolyline
 90
8
 70
1
 10
1737.9008026922872
 20
262.3214321257177
 42
2.414213562373095
 10
1734.2396097142541
 20
264.9814445274934
 10
1680.9044393221166
 20
256.53398341532096
 42
2.414213562373095
 10
1678.2444269203409
 20
252.8727904372878
 10
1679.652337105703
 20
243.98359537193153
 42
2.414213562373095
 10
1683.3135300837362
 20
241.32358297015583
 10
1736.6487004758737
 20
249.77104408232827
 42
2.414213562373095
 10
1739.3087128776494
 20
253.43223706036144
  0
LWPOLYLINE
  5
A6
330
17
100
AcDbEntity
  8
CUT
100
AcDbPolyline
 90
4
 70
1
 10
1895.6640461119152
 20
740.3717395507184
 10
1800.1794881607377
 20
750.306486294759
 42
1.0
 10
1794.5911931172147
 20
696.5964224472216
 10
1890.0757510683923
 20
686.661675703181
 42
1.0
  0
LWPOLYLINE
  5
A7
330
17
100
AcDbEntity
  8
CUT
100
AcDbPolyline
 90
4
 70
1
 10
1890.0757510683923
 20
398.4508724433224
 10
1794.5911931172147
 20
388.5161256992818
 42
1.0
 10
1800.1794881607377
 20
334.8060618517445
 10
1895.6640461119152
 20
344.7408085957851
 42
1.0
  0
TEXT
  5
A8
330
17
100
AcDbEntity
  8
ENGRAVE-LABEL
100
AcDbText
 10
2105.6480691939487
 20
655.2436108974908
 30
0.0
 40
22.0
  1
11 SEAT-DECK-2
 72
1
 11
2105.6480691939487
 21
655.2436108974908
 31
0.0
100
AcDbText
 73
2
  0
LWPOLYLINE
  5
A9
330
17
100
AcDbEntity
  8
CUT
100
AcDbPolyline
 90
16
 70
1
 10
2362.588836686563
 20
814.0
 10
2373.422758465378
 20
832.9173502079577
 42
-2.414213562373095
 10
2377.789917656097
 20
834.1039085094831
 10
2388.0295842824225
 20
828.2396756200326
 10
2417.8477176186116
 20
880.3057771098238
 10
2407.608050992286
 20
886.1700099992743
 42
-2.414213562373095
 10
2406.4214926907607
 20
890.5371691899932
 10
2417.255414469576
 20
909.4545193979507
 42
0.266076297290537
 10
230.59230314903562
 20
909.4545193979507
 10
241.42622492785108
 20
890.5371691899932
 42
-2.414213562373095
 10
240.23966662632574
 20
886.1700099992743
 10
230.0
 20
880.3057771098238
 10
259.818133336189
 20
828.2396756200326
 10
270.05779996251476
 20
834.1039085094831
 42
-2.414213562373095
 10
274.42495915323366
 20
832.9173502079577
 10
285.2588809320491
 20
814.0
 42
-0.266076297290537
  0
LWPOLYLINE
  5
AA
330
17
100
AcDbEntity
  8
CUT
100
AcDbPolyline
 90
8
 70
1
 10
2365.0975453527417
 20
861.3825742410374
 42
2.414213562373095
 10
2369.4366681460906
 20
862.6678809687251
 10
2373.7310969884275
 20
870.5772349826827
 42
2.414213562373095
 10
2372.44579026074
 20
874.9163577760316
 10
2324.9896661769935
 20
900.6829308300505
 42
2.414213562373095
 10
2320.6505433836446
 20
899.3976241023629
 10
2316.356114541308
 20
891.4882700884052
 42
2.414213562373095
 10
2317.6414212689956
 20
887.1491472950563
  0
LWPOLYLINE
  5
AB
330
17
100
AcDbEntity
  8
CUT
100
AcDbPolyline
 90
8
 70
1
 10
330.20629634961574
 20
887.1491472950563
 42
2.414213562373095
 10
331.49160307730335
 20
891.4882700884052
 10
327.19717423496684
 20
899.3976241023629
 42
2.414213562373095
 10
322.8580514416178
 20
900.6829308300505
 10
275.4019273578717
 20
874.9163577760316
 42
2.414213562373095
 10
274.1166206301841
 20
870.5772349826827
 10
278.4110494725205
 20
862.6678809687251
 42
2.414213562373095
 10
282.75017226586965
 20
861.3825742410374
  0
LWPOLYLINE
  5
AC
330
17
100
AcDbEntity
  8
CUT
100
AcDbPolyline
 90
8
 70
1
 10
2266.27247321108
 20
913.3229336443217
 42
2.414213562373095
 10
2270.538381630786
 20
914.8335710444549
 10
2274.4129815020606
 20
922.9568386036035
 42
2.414213562373095
 10
2272.9023441019276
 20
927.2227470233097
 10
2224.1627387470353
 20
950.4703462509576
 42
2.414213562373095
 10
2219.896830327329
 20
948.9597088508244
 10
2216.0222304560543
 20
940.8364412916758
 42
2.414213562373095
 10
2217.5328678561873
 20
936.5705328719696
  0
LWPOLYLINE
  5
AD
330
17
100
AcDbEntity
  8
CUT
100
AcDbPolyline
 90
8
 70
1
 10
2061.151545012964
 20
1001.3457976954783
 42
2.414213562373095
 10
2065.2361797340072
 20
1003.2940685174253
 10
2068.2404414671114
 20
1011.7778419372548
 42
2.414213562373095
 10
2066.2921706451643
 20
1015.862476658298
 10
2015.3895301261869
 20
1033.8880470569216
 42
2.414213562373095
 10
2011.3048954051437
 20
1031.9397762349745
 10
2008.3006336720396
 20
1023.456002815145
 42
2.414213562373095
 10
2010.2489044939866
 20
1019.3713680941019
  0
LWPOLYLINE
  5
AE
330
17
100
AcDbEntity
  8
CUT
100
AcDbPolyline
 90
8
 70
1
 10
1955.4179111629214
 20
1037.1870377913801
 42
2.414213562373095
 10
1959.3949834175523
 20
1039.3464118399058
 10
1961.9511215198877
 20
1047.9757894537197
 42
2.414213562373095
 10
1959.7917474713618
 20
1051.9528617083504
 10
1908.0154817884795
 20
1067.289690322362
 42
2.414213562373095
 10
1904.0384095338486
 20
1065.1303162738366
 10
1901.4822714315133
 20
1056.500938660023
 42
2.414213562373095
 10
1903.6416454800392
 20
1052.523866405392
  0
LWPOLYLINE
  5
AF
330
17
100
AcDbEntity
  8
CUT
100
AcDbPolyline
 90
8
 70
1
 10
1739.0525523204385
 20
1092.0382116492704
 42
2.414213562373095
 10
1742.782121706218
 20
1094.6014736719
 10
1744.4222414356473
 20
1103.4507678399757
 42
2.414213562373095
 10
1741.8589794130176
 20
1107.1803372257552
 10
1688.763214404564
 20
1117.0210556023314
 42
2.414213562373095
 10
1685.0336450187847
 20
1114.4577935797017
 10
1683.3935252893552
 20
1105.608499411626
 42
2.414213562373095
 10
1685.956787311985
 20
1101.8789300258466
  0
LWPOLYLINE
  5
B0
330
17
100
AcDbEntity
  8
CUT
100
AcDbPolyline
 90
8
 70
1
 10
1629.013869737215
 20
1110.8978021563728
 42
2.414213562373095
 10
1632.6041771087152
 20
1113.6527418976646
 10
1633.7789128386958
 20
1122.575745650029
 42
2.414213562373095
 10
1631.0239730974038
 20
1126.1660530215293
 10
1577.485950583218
 20
1133.2144674014119
 42
2.414213562373095
 10
1573.8956432117177
 20
1130.45952766012
 10
1572.7209074817372
 20
1121.5365239077557
 42
2.414213562373095
 10
1575.4758472230292
 20
1117.9462165362554
  0
LWPOLYLINE
  5
B1
330
17
100
AcDbEntity
  8
CUT
100
AcDbPolyline
 90
8
 70
1
 10
1406.7317134605237
 20
1131.2266678800063
 42
2.414213562373095
 10
1410.0143831350306
 20
1134.3418050853431
 10
1410.2499756698016
 20
1143.338721010123
 42
2.414213562373095
 10
1407.134838464465
 20
1146.62139068463
 10
1353.1533429157848
 20
1148.0349458932553
 42
2.414213562373095
 10
1349.870673241278
 20
1144.9198086879185
 10
1349.635080706507
 20
1135.9228927631386
 42
2.414213562373095
 10
1352.7502179118437
 20
1132.6402230886317
  0
LWPOLYLINE
  5
B2
330
17
100
AcDbEntity
  8
CUT
100
AcDbPolyline
 90
8
 70
1
 10
1295.0974997067683
 20
1132.6402230886317
 42
2.414213562373095
 10
1298.2126369121047
 20
1135.9228927631386
 10
1297.9770443773339
 20
1144.9198086879185
 42
2.414213562373095
 10
1294.694374702827
 20
1148.0349458932553
 10
1240.7128791541468
 20
1146.62139068463
 42
2.414213562373095
 10
1237.5977419488104
 20
1143.338721010123
 10
1237.833334483581
 20
1134.3418050853431
 42
2.414213562373095
 10
1241.1160041580881
 20
1131.2266678800063
  0
LWPOLYLINE
  5
B3
330
17
100
AcDbEntity
  8
CUT
100
AcDbPolyline
 90
8
 70
1
 10
1072.3718703955826
 20
1117.9462165362554
 42
2.414213562373095
 10
1075.1268101368746
 20
1121.5365239077557
 10
1073.952074406894
 20
1130.45952766012
 42
2.414213562373095
 10
1070.3617670353938
 20
1133.2144674014119
 10
1016.823744521208
 20
1126.1660530215293
 42
2.414213562373095
 10
1014.068804779916
 20
1122.575745650029
 10
1015.2435405098965
 20
1113.6527418976646
 42
2.414213562373095
 10
1018.8338478813969
 20
1110.8978021563728
  0
LWPOLYLINE
  5
B4
330
17
100
AcDbEntity
  8
CUT
100
AcDbPolyline
 90
8
 70
1
 10
961.8909303066264
 20
1101.8789300258466
 42
2.414213562373095
 10
964.4541923292561
 20
1105.608499411626
 10
962.8140725998269
 20
1114.4577935797017
 42
2.414213562373095
 10
959.0845032140473
 20
1117.0210556023314
 10
905.9887382055938
 20
1107.1803372257552
 42
2.414213562373095
 10
903.4254761829641
 20
1103.4507678399757
 10
905.0655959123933
 20
1094.6014736719
 42
2.414213562373095
 10
908.7951652981728
 20
1092.0382116492704
  0
LWPOLYLINE
  5
B5
330
17
100
AcDbEntity
  8
CUT
100
AcDbPolyline
 90
8
 70
1
 10
744.2060721385727
 20
1052.523866405392
 42
2.414213562373095
 10
746.3654461870984
 20
1056.500938660023
 10
743.8093080847631
 20
1065.1303162738366
 42
2.414213562373095
 10
739.8322358301323
 20
1067.289690322362
 10
688.0559701472499
 20
1051.9528617083504
 42
2.414213562373095
 10
685.8965960987242
 20
1047.9757894537197
 10
688.4527342010596
 20
1039.3464118399058
 42
2.414213562373095
 10
692.4298064556904
 20
1037.1870377913801
  0
LWPOLYLINE
  5
B6
330
17
100
AcDbEntity
  8
CUT
100
AcDbPolyline
 90
8
 70
1
 10
637.5988131246247
 20
1019.3713680941016
 42
2.414213562373095
 10
639.5470839465717
 20
1023.4560028151448
 10
636.5428222134677
 20
1031.9397762349743
 42
2.414213562373095
 10
632.4581874924246
 20
1033.8880470569213
 10
581.555546973447
 20
1015.8624766582977
 42
2.414213562373095
 10
579.6072761515001
 20
1011.7778419372546
 10
582.611537884604
 20
1003.2940685174251
 42
2.414213562373095
 10
586.6961726056471
 20
1001.345797695478
  0
LWPOLYLINE
  5
B7
330
17
100
AcDbEntity
  8
CUT
100
AcDbPolyline
 90
8
 70
1
 10
430.31484976242484
 20
936.57053287197
 42
2.414213562373095
 10
431.8254871625578
 20
940.8364412916762
 10
427.95088729128315
 20
948.9597088508249
 42
2.414213562373095
 10
423.6849788715771
 20
950.4703462509581
 10
374.9453735166845
 20
927.2227470233101
 42
2.414213562373095
 10
373.43473611655156
 20
922.956838603604
 10
377.3093359878262
 20
914.8335710444553
 42
2.414213562373095
 10
381.5752444075323
 20
913.3229336443221
  0
TEXT
  5
B8
330
17
100
AcDbEntity
  8
ENGRAVE-LABEL
100
AcDbText
 10
1829.3584922271193
 20
1084.9568845848726
 30
0.0
 40
14.0
  1
07 RAIL-BACK-BOT
 50
15.0
 72
1
 11
1829.3584922271193
 21
1084.9568845848726
 31
0.0
100
AcDbText
 73
2
  0
LWPOLYLINE
  5
B9
330
17
100
AcDbEntity
  8
CUT
100
AcDbPolyline
 90
10
 70
1
 10
23.0
 20
642.0
 10
83.0
 20
642.0
 10
83.0
 20
653.8
 42
-2.414213562373095
 10
86.2
 20
657.0
 10
88.0
 20
657.0
 10
88.0
 20
1072.0
 10
18.0
 20
1072.0
 10
18.0
 20
657.0
 10
19.8
 20
657.0
 42
-2.414213562373095
 10
23.0
 20
653.8
  0
TEXT
  5
BA
330
17
100
AcDbEntity
  8
ENGRAVE-LABEL
100
AcDbText
 10
53.0
 20
866.0975909124104
 30
0.0
 40
22.0
  1
13 BACK-STILE 1/14
 50
90.0
 72
1
 11
53.0
 21
866.0975909124104
 31
0.0
100
AcDbText
 73
2
  0
LWPOLYLINE
  5
BB
330
17
100
AcDbEntity
  8
CUT
100
AcDbPolyline
 90
10
 70
1
 10
448.0
 20
1091.0
 10
448.0
 20
1151.0
 10
436.2
 20
1151.0
 42
-2.414213562373095
 10
433.0
 20
1154.2
 10
433.0
 20
1156.0
 10
18.0
 20
1156.0
 10
18.0
 20
1086.0
 10
433.0
 20
1086.0
 10
433.0
 20
1087.8
 42
-2.414213562373095
 10
436.2
 20
1091.0
  0
TEXT
  5
BC
330
17
100
AcDbEntity
  8
ENGRAVE-LABEL
100
AcDbText
 10
233.0
 20
1121.0
 30
0.0
 40
22.0
  1
13 BACK-STILE 2/14
 72
1
 11
233.0
 21
1121.0
 31
0.0
100
AcDbText
 73
2
  0
LWPOLYLINE
  5
BD
330
17
100
AcDbEntity
  8
CUT
100
AcDbPolyline
 90
10
 70
1
 10
532.0
 20
659.0
 10
532.0
 20
719.0
 10
520.2
 20
719.0
 42
-2.414213562373095
 10
517.0
 20
722.2
 10
517.0
 20
724.0
 10
102.0
 20
724.0
 10
102.0
 20
654.0
 10
517.0
 20
654.0
 10
517.0
 20
655.8
 42
-2.414213562373095
 10
520.2
 20
659.0
  0
TEXT
  5
BE
330
17
100
AcDbEntity
  8
ENGRAVE-LABEL
100
AcDbText
 10
317.0
 20
689.0
 30
0.0
 40
22.0
  1
13 BACK-STILE 3/14
 72
1
 11
317.0
 21
689.0
 31
0.0
100
AcDbText
 73
2
  0
LWPOLYLINE
  5
BF
330
17
100
AcDbEntity
  8
CUT
100
AcDbPolyline
 90
10
 70
1
 10
1686.0
 20
83.00000000000009
 10
1686.0
 20
23.000000000000085
 10
1697.8
 20
23.000000000000085
 42
-2.414213562373095
 10
1701.0
 20
19.800000000000082
 10
1701.0
 20
18.000000000000085
 10
2116.0
 20
18.0
 10
2116.0
 20
88.0
 10
1701.0
 20
88.00000000000009
 10
1701.0
 20
86.20000000000009
 42
-2.414213562373095
 10
1697.8
 20
83.00000000000009
  0
TEXT
  5
C0
330
17
100
AcDbEntity
  8
ENGRAVE-LABEL
100
AcDbText
 10
1901.0
 20
53.00000000000004
 30
0.0
 40
22.0
  1
13 BACK-STILE 4/14
 72
1
 11
1901.0
 21
53.00000000000004
 31
0.0
100
AcDbText
 73
2
  0
LWPOLYLINE
  5
C1
330
17
100
AcDbEntity
  8
CUT
100
AcDbPolyline
 90
10
 70
1
 10
1918.0
 20
1195.0
 10
1918.0
 20
1135.0
 10
1929.8
 20
1135.0
 42
-2.414213562373095
 10
1933.0
 20
1131.8000000000002
 10
1933.0
 20
1130.0
 10
2348.0
 20
1130.0
 10
2348.0
 20
1200.0
 10
1933.0
 20
1200.0
 10
1933.0
 20
1198.2
 42
-2.414213562373095
 10
1929.8
 20
1195.0
  0
TEXT
  5
C2
330
17
100
AcDbEntity
  8
ENGRAVE-LABEL
100
AcDbText
 10
2133.0
 20
1165.0
 30
0.0
 40
22.0
  1
13 BACK-STILE 5/14
 72
1
 11
2133.0
 21
1165.0
 31
0.0
100
AcDbText
 73
2
  0
LWPOLYLINE
  5
C3
330
17
100
AcDbEntity
  8
CUT
100
AcDbPolyline
 90
10
 70
1
 10
2275.0
 20
302.0
 10
2335.0
 20
302.0
 10
2335.0
 20
313.8
 42
-2.414213562373095
 10
2338.2
 20
317.0
 10
2340.0
 20
317.0
 10
2340.0
 20
732.0
 10
2270.0
 20
732.0
 10
2270.0
 20
317.0
 10
2271.8
 20
317.0
 42
-2.414213562373095
 10
2275.0
 20
313.8
  0
TEXT
  5
C4
330
17
100
AcDbEntity
  8
ENGRAVE-LABEL
100
AcDbText
 10
2305.0
 20
526.0975909124103
 30
0.0
 40
22.0
  1
13 BACK-STILE 6/14
 50
90.0
 72
1
 11
2305.0
 21
526.0975909124103
 31
0.0
100
AcDbText
 73
2
  0
LWPOLYLINE
  5
C5
330
17
100
AcDbEntity
  8
REFERENCE-SHEET
100
AcDbPolyline
 90
4
 70
1
 10
0.0
 20
-1470.0
 10
2440.0
 20
-1470.0
 10
2440.0
 20
-250.0
 10
0.0
 20
-250.0
  0
TEXT
  5
C6
330
17
100
AcDbEntity
  8
REFERENCE-SHEET
100
AcDbText
 10
0.0
 20
-195.0
 30
0.0
 40
40.0
  1
SHEET 2/4  -  2440 x 1220 x 15 mm PLYWOOD
 11
0.0
 21
-195.0
 31
0.0
100
AcDbText
  0
LWPOLYLINE
  5
C7
330
17
100
AcDbEntity
  8
CUT
100
AcDbPolyline
 90
67
 70
1
 10
18.0
 20
-1452.0
 10
38.0
 20
-1452.0
 10
38.0
 20
-1440.0
 42
-2.414213562373095
 10
41.2
 20
-1436.8
 10
134.8
 20
-1436.8
 42
-2.414213562373095
 10
138.0
 20
-1440.0
 10
138.0
 20
-1452.0
 10
168.0
 20
-1452.0
 10
168.0
 20
-1400.2
 42
-2.414213562373095
 10
171.2
 20
-1397.0
 10
764.8
 20
-1397.0
 42
-2.414213562373095
 10
768.0
 20
-1400.2
 10
768.0
 20
-1452.0
 10
798.0
 20
-1452.0
 10
798.0
 20
-1440.0
 42
-2.414213562373095
 10
801.2
 20
-1436.8
 10
894.8
 20
-1436.8
 42
-2.414213562373095
 10
898.0
 20
-1440.0
 10
898.0
 20
-1452.0
 10
918.0
 20
-1452.0
 10
918.0
 20
-1122.0
 10
811.2
 20
-1122.0
 42
-2.414213562373095
 10
808.0
 20
-1118.8
 10
808.0
 20
-1109.8
 42
-2.414213562373095
 10
811.2
 20
-1106.6
 10
918.0
 20
-1106.6
 10
918.0
 20
-932.0
 10
811.2
 20
-932.0
 42
-2.414213562373095
 10
808.0
 20
-928.8
 10
808.0
 20
-919.8000000000001
 42
-2.414213562373095
 10
811.2
 20
-916.6
 10
918.0
 20
-916.6
 10
918.0
 20
-692.0
 10
908.0
 20
-692.0
 10
908.0
 20
-704.0
 42
-2.414213562373095
 10
904.8
 20
-707.2
 10
811.2
 20
-707.2
 42
-2.414213562373095
 10
808.0
 20
-704.0
 10
808.0
 20
-692.0
 10
718.0
 20
-692.0
 10
718.0
 20
-1118.8
 42
-2.414213562373095
 10
714.8
 20
-1122.0
 10
708.0
 20
-1122.0
 10
708.0
 20
-1134.0
 42
-2.414213562373095
 10
704.8
 20
-1137.2
 10
611.2
 20
-1137.2
 42
-2.414213562373095
 10
608.0
 20
-1134.0
 10
608.0
 20
-1122.0
 10
601.2
 20
-1122.0
 42
-2.414213562373095
 10
598.0
 20
-1118.8
 10
598.0
 20
-1107.0
 10
538.0
 20
-1107.0
 10
538.0
 20
-1118.8
 42
-2.414213562373095
 10
534.8
 20
-1122.0
 10
301.2
 20
-1122.0
 42
-2.414213562373095
 10
298.0
 20
-1118.8
 10
298.0
 20
-1107.0
 10
238.0
 20
-1107.0
 10
238.0
 20
-1118.8
 42
-2.414213562373095
 10
234.8
 20
-1122.0
 10
128.0
 20
-1122.0
 10
128.0
 20
-1134.0
 42
-2.414213562373095
 10
124.8
 20
-1137.2
 10
31.2
 20
-1137.2
 42
-2.414213562373095
 10
28.0
 20
-1134.0
 10
28.0
 20
-1122.0
 10
18.0
 20
-1122.0
  0
LWPOLYLINE
  5
C8
330
17
100
AcDbEntity
  8
CUT
100
AcDbPolyline
 90
4
 70
1
 10
303.0
 20
-1317.0
 10
633.0
 20
-1317.0
 42
1.0
 10
633.0
 20
-1207.0
 10
303.0
 20
-1207.0
 42
1.0
  0
LWPOLYLINE
  5
C9
330
17
100
AcDbEntity
  8
CUT
100
AcDbPolyline
 90
4
 70
1
 10
803.0
 20
-872.0
 10
853.0
 20
-872.0
 42
1.0
 10
853.0
 20
-792.0
 10
803.0
 20
-792.0
 42
1.0
  0
TEXT
  5
CA
330
17
100
AcDbEntity
  8
ENGRAVE-LABEL
100
AcDbText
 10
802.064453125
 20
-1240.556640625
 30
0.0
 40
22.0
  1
01 RIB 1/7
 72
1
 11
802.064453125
 21
-1240.556640625
 31
0.0
100
AcDbText
 73
2
  0
LWPOLYLINE
  5
CB
330
17
100
AcDbEntity
  8
CUT
100
AcDbPolyline
 90
67
 70
1
 10
918.0000000000001
 20
-348.0
 10
898.0000000000001
 20
-348.0
 10
898.0000000000001
 20
-360.0
 42
-2.414213562373095
 10
894.8000000000001
 20
-363.2000000000003
 10
801.2000000000002
 20
-363.20000000000005
 42
-2.414213562373095
 10
798.0000000000001
 20
-360.0
 10
798.0000000000001
 20
-348.0
 10
768.0000000000001
 20
-348.0
 10
768.0000000000001
 20
-399.8000000000002
 42
-2.414213562373095
 10
764.8000000000002
 20
-403.0
 10
171.20000000000016
 20
-403.0
 42
-2.414213562373095
 10
168.0000000000001
 20
-399.8000000000002
 10
168.0000000000001
 20
-348.0
 10
138.0000000000001
 20
-348.0
 10
138.0000000000001
 20
-360.0
 42
-2.414213562373095
 10
134.80000000000007
 20
-363.20000000000005
 10
41.20000000000016
 20
-363.20000000000005
 42
-2.414213562373095
 10
38.000000000000114
 20
-360.0
 10
38.000000000000114
 20
-348.0
 10
18.000000000000114
 20
-348.0
 10
18.000000000000114
 20
-678.0
 10
124.80000000000007
 20
-678.0
 42
-2.414213562373095
 10
128.0000000000001
 20
-681.2
 10
128.0000000000001
 20
-690.2
 42
-2.414213562373095
 10
124.80000000000007
 20
-693.4
 10
18.000000000000114
 20
-693.4
 10
18.0
 20
-868.0
 10
124.79999999999995
 20
-868.0
 42
-2.414213562373095
 10
128.0
 20
-871.2
 10
128.0
 20
-880.1999999999999
 42
-2.414213562373095
 10
124.79999999999995
 20
-883.4
 10
18.0
 20
-883.4
 10
18.0
 20
-1108.0
 10
28.0
 20
-1108.0
 10
28.0
 20
-1096.0
 42
-2.414213562373095
 10
31.200000000000045
 20
-1092.8
 10
124.79999999999995
 20
-1092.8
 42
-2.414213562373095
 10
128.0
 20
-1096.0
 10
128.0
 20
-1108.0
 10
218.0
 20
-1108.0
 10
218.0000000000001
 20
-681.2
 42
-2.414213562373095
 10
221.20000000000016
 20
-678.0
 10
228.0000000000001
 20
-678.0
 10
228.0000000000001
 20
-666.0
 42
-2.414213562373095
 10
231.20000000000016
 20
-662.8000000000001
 10
324.80000000000007
 20
-662.8000000000001
 42
-2.414213562373095
 10
328.0000000000001
 20
-666.0
 10
328.0000000000001
 20
-678.0
 10
334.80000000000007
 20
-678.0
 42
-2.414213562373095
 10
338.0000000000001
 20
-681.2
 10
338.0000000000001
 20
-693.0
 10
398.0000000000001
 20
-693.0
 10
398.0000000000001
 20
-681.2
 42
-2.414213562373095
 10
401.20000000000016
 20
-678.0
 10
634.8000000000001
 20
-678.0
 42
-2.414213562373095
 10
638.0
 20
-681.2
 10
638.0
 20
-693.0
 10
698.0000000000001
 20
-693.0000000000001
 10
698.0000000000001
 20
-681.2
 42
-2.414213562373095
 10
701.2
 20
-678.0000000000001
 10
808.0000000000001
 20
-678.0000000000001
 10
808.0000000000001
 20
-666.0000000000001
 42
-2.414213562373095
 10
811.2
 20
-662.8000000000002
 10
904.8000000000001
 20
-662.8000000000002
 42
-2.414213562373095
 10
908.0000000000001
 20
-666.0000000000001
 10
908.0000000000001
 20
-678.0000000000001
 10
918.0000000000001
 20
-678.0000000000001
  0
LWPOLYLINE
  5
CC
330
17
100
AcDbEntity
  8
CUT
100
AcDbPolyline
 90
4
 70
1
 10
633.0000000000001
 20
-483.0000000000001
 10
303.0000000000001
 20
-483.0
 42
1.0
 10
303.0000000000001
 20
-593.0
 10
633.0
 20
-593.0000000000001
 42
1.0
  0
LWPOLYLINE
  5
CD
330
17
100
AcDbEntity
  8
CUT
100
AcDbPolyline
 90
4
 70
1
 10
133.0
 20
-928.0
 10
83.0
 20
-928.0
 42
1.0
 10
83.0
 20
-1008.0
 10
133.0
 20
-1008.0
 42
1.0
  0
TEXT
  5
CE
330
17
100
AcDbEntity
  8
ENGRAVE-LABEL
100
AcDbText
 10
133.935546875
 20
-559.443359375
 30
0.0
 40
22.0
  1
01 RIB 2/7
 72
1
 11
133.935546875
 21
-559.443359375
 31
0.0
100
AcDbText
 73
2
  0
LWPOLYLINE
  5
CF
330
17
100
AcDbEntity
  8
CUT
100
AcDbPolyline
 90
67
 70
1
 10
934.0
 20
-1452.0
 10
954.0
 20
-1452.0
 10
954.0
 20
-1440.0
 42
-2.414213562373095
 10
957.2
 20
-1436.8
 10
1050.8
 20
-1436.8
 42
-2.414213562373095
 10
1054.0
 20
-1440.0
 10
1054.0
 20
-1452.0
 10
1084.0
 20
-1452.0
 10
1084.0
 20
-1400.2
 42
-2.414213562373095
 10
1087.2
 20
-1397.0
 10
1680.8
 20
-1397.0
 42
-2.414213562373095
 10
1684.0
 20
-1400.2
 10
1684.0
 20
-1452.0
 10
1714.0
 20
-1452.0
 10
1714.0
 20
-1440.0
 42
-2.414213562373095
 10
1717.2
 20
-1436.8
 10
1810.8
 20
-1436.8
 42
-2.414213562373095
 10
1814.0
 20
-1440.0
 10
1814.0
 20
-1452.0
 10
1834.0
 20
-1452.0
 10
1834.0
 20
-1122.0
 10
1727.2
 20
-1122.0
 42
-2.414213562373095
 10
1724.0
 20
-1118.8
 10
1724.0
 20
-1109.8
 42
-2.414213562373095
 10
1727.2
 20
-1106.6
 10
1834.0
 20
-1106.6
 10
1834.0
 20
-932.0
 10
1727.2
 20
-932.0
 42
-2.414213562373095
 10
1724.0
 20
-928.8
 10
1724.0
 20
-919.8000000000001
 42
-2.414213562373095
 10
1727.2
 20
-916.6
 10
1834.0
 20
-916.6
 10
1834.0
 20
-692.0
 10
1824.0
 20
-692.0
 10
1824.0
 20
-704.0
 42
-2.414213562373095
 10
1820.8
 20
-707.2
 10
1727.2
 20
-707.2
 42
-2.414213562373095
 10
1724.0
 20
-704.0
 10
1724.0
 20
-692.0
 10
1634.0
 20
-692.0
 10
1634.0
 20
-1118.8
 42
-2.414213562373095
 10
1630.8
 20
-1122.0
 10
1624.0
 20
-1122.0
 10
1624.0
 20
-1134.0
 42
-2.414213562373095
 10
1620.8
 20
-1137.2
 10
1527.2
 20
-1137.2
 42
-2.414213562373095
 10
1524.0
 20
-1134.0
 10
1524.0
 20
-1122.0
 10
1517.2
 20
-1122.0
 42
-2.414213562373095
 10
1514.0
 20
-1118.8
 10
1514.0
 20
-1107.0
 10
1454.0
 20
-1107.0
 10
1454.0
 20
-1118.8
 42
-2.414213562373095
 10
1450.8
 20
-1122.0
 10
1217.2
 20
-1122.0
 42
-2.414213562373095
 10
1214.0
 20
-1118.8
 10
1214.0
 20
-1107.0
 10
1154.0
 20
-1107.0
 10
1154.0
 20
-1118.8
 42
-2.414213562373095
 10
1150.8
 20
-1122.0
 10
1044.0
 20
-1122.0
 10
1044.0
 20
-1134.0
 42
-2.414213562373095
 10
1040.8
 20
-1137.2
 10
947.2
 20
-1137.2
 42
-2.414213562373095
 10
944.0
 20
-1134.0
 10
944.0
 20
-1122.0
 10
934.0
 20
-1122.0
  0
LWPOLYLINE
  5
D0
330
17
100
AcDbEntity
  8
CUT
100
AcDbPolyline
 90
4
 70
1
 10
1219.0
 20
-1317.0
 10
1549.0
 20
-1317.0
 42
1.0
 10
1549.0
 20
-1207.0
 10
1219.0
 20
-1207.0
 42
1.0
  0
LWPOLYLINE
  5
D1
330
17
100
AcDbEntity
  8
CUT
100
AcDbPolyline
 90
4
 70
1
 10
1719.0
 20
-872.0
 10
1769.0
 20
-872.0
 42
1.0
 10
1769.0
 20
-792.0
 10
1719.0
 20
-792.0
 42
1.0
  0
TEXT
  5
D2
330
17
100
AcDbEntity
  8
ENGRAVE-LABEL
100
AcDbText
 10
1718.064453125
 20
-1240.556640625
 30
0.0
 40
22.0
  1
01 RIB 3/7
 72
1
 11
1718.064453125
 21
-1240.556640625
 31
0.0
100
AcDbText
 73
2
  0
LWPOLYLINE
  5
D3
330
17
100
AcDbEntity
  8
CUT
100
AcDbPolyline
 90
67
 70
1
 10
1834.0
 20
-348.0
 10
1814.0
 20
-348.0
 10
1814.0
 20
-360.0
 42
-2.414213562373095
 10
1810.8000000000002
 20
-363.2000000000003
 10
1717.2000000000003
 20
-363.20000000000005
 42
-2.414213562373095
 10
1714.0
 20
-360.0
 10
1714.0
 20
-348.0
 10
1684.0
 20
-348.0
 10
1684.0
 20
-399.8000000000002
 42
-2.414213562373095
 10
1680.8000000000002
 20
-403.0
 10
1087.2000000000003
 20
-403.0
 42
-2.414213562373095
 10
1084.0
 20
-399.8000000000002
 10
1084.0
 20
-348.0
 10
1054.0
 20
-348.0
 10
1054.0
 20
-360.0
 42
-2.414213562373095
 10
1050.8000000000002
 20
-363.20000000000005
 10
957.2000000000002
 20
-363.20000000000005
 42
-2.414213562373095
 10
954.0000000000001
 20
-360.0
 10
954.0000000000001
 20
-348.0
 10
934.0000000000001
 20
-348.0
 10
934.0000000000001
 20
-678.0
 10
1040.8000000000002
 20
-678.0
 42
-2.414213562373095
 10
1044.0
 20
-681.2
 10
1044.0
 20
-690.2
 42
-2.414213562373095
 10
1040.8000000000002
 20
-693.4
 10
934.0000000000001
 20
-693.4
 10
934.0
 20
-868.0
 10
1040.8
 20
-868.0
 42
-2.414213562373095
 10
1044.0
 20
-871.2
 10
1044.0
 20
-880.1999999999999
 42
-2.414213562373095
 10
1040.8
 20
-883.4
 10
934.0
 20
-883.4
 10
934.0
 20
-1108.0
 10
944.0
 20
-1108.0
 10
944.0
 20
-1096.0
 42
-2.414213562373095
 10
947.2
 20
-1092.8
 10
1040.8
 20
-1092.8
 42
-2.414213562373095
 10
1044.0
 20
-1096.0
 10
1044.0
 20
-1108.0
 10
1134.0
 20
-1108.0
 10
1134.0
 20
-681.2
 42
-2.414213562373095
 10
1137.2000000000003
 20
-678.0
 10
1144.0
 20
-678.0
 10
1144.0
 20
-666.0
 42
-2.414213562373095
 10
1147.2000000000003
 20
-662.8000000000001
 10
1240.8000000000002
 20
-662.8000000000001
 42
-2.414213562373095
 10
1244.0
 20
-666.0
 10
1244.0
 20
-678.0
 10
1250.8000000000002
 20
-678.0
 42
-2.414213562373095
 10
1254.0
 20
-681.2
 10
1254.0
 20
-693.0
 10
1314.0
 20
-693.0
 10
1314.0
 20
-681.2
 42
-2.414213562373095
 10
1317.2000000000003
 20
-678.0
 10
1550.8000000000002
 20
-678.0
 42
-2.414213562373095
 10
1554.0
 20
-681.2
 10
1554.0
 20
-693.0
 10
1614.0
 20
-693.0000000000001
 10
1614.0
 20
-681.2
 42
-2.414213562373095
 10
1617.2
 20
-678.0000000000001
 10
1724.0
 20
-678.0000000000001
 10
1724.0
 20
-666.0000000000001
 42
-2.414213562373095
 10
1727.2
 20
-662.8000000000002
 10
1820.8000000000002
 20
-662.8000000000002
 42
-2.414213562373095
 10
1824.0
 20
-666.0000000000001
 10
1824.0
 20
-678.0000000000001
 10
1834.0
 20
-678.0000000000001
  0
LWPOLYLINE
  5
D4
330
17
100
AcDbEntity
  8
CUT
100
AcDbPolyline
 90
4
 70
1
 10
1549.0
 20
-483.0000000000001
 10
1219.0
 20
-483.0
 42
1.0
 10
1219.0
 20
-593.0
 10
1549.0
 20
-593.0000000000001
 42
1.0
  0
LWPOLYLINE
  5
D5
330
17
100
AcDbEntity
  8
CUT
100
AcDbPolyline
 90
4
 70
1
 10
1049.0
 20
-928.0
 10
999.0
 20
-928.0
 42
1.0
 10
999.0
 20
-1008.0
 10
1049.0
 20
-1008.0
 42
1.0
  0
TEXT
  5
D6
330
17
100
AcDbEntity
  8
ENGRAVE-LABEL
100
AcDbText
 10
1049.935546875
 20
-559.443359375
 30
0.0
 40
22.0
  1
01 RIB 4/7
 72
1
 11
1049.935546875
 21
-559.443359375
 31
0.0
100
AcDbText
 73
2
  0
LWPOLYLINE
  5
D7
330
17
100
AcDbEntity
  8
CUT
100
AcDbPolyline
 90
10
 70
1
 10
178.0
 20
-275.0
 10
178.0
 20
-335.0
 10
189.8
 20
-335.0
 42
-2.414213562373095
 10
193.0
 20
-338.1999999999998
 10
193.0
 20
-340.0
 10
608.0
 20
-340.0
 10
608.0
 20
-270.0
 10
193.0
 20
-270.0
 10
193.0
 20
-271.79999999999995
 42
-2.414213562373095
 10
189.8
 20
-275.0
  0
TEXT
  5
D8
330
17
100
AcDbEntity
  8
ENGRAVE-LABEL
100
AcDbText
 10
393.0
 20
-305.0
 30
0.0
 40
22.0
  1
13 BACK-STILE 7/14
 72
1
 11
393.0
 21
-305.0
 31
0.0
100
AcDbText
 73
2
  0
LWPOLYLINE
  5
D9
330
17
100
AcDbEntity
  8
CUT
100
AcDbPolyline
 90
10
 70
1
 10
664.0
 20
-1087.0
 10
664.0
 20
-1027.0
 10
652.2
 20
-1027.0
 42
-2.414213562373095
 10
649.0
 20
-1023.8
 10
649.0
 20
-1022.0
 10
234.0
 20
-1022.0
 10
234.0
 20
-1092.0
 10
649.0
 20
-1092.0
 10
649.0
 20
-1090.2
 42
-2.414213562373095
 10
652.2
 20
-1087.0
  0
TEXT
  5
DA
330
17
100
AcDbEntity
  8
ENGRAVE-LABEL
100
AcDbText
 10
449.0
 20
-1057.0
 30
0.0
 40
22.0
  1
13 BACK-STILE 8/14
 72
1
 11
449.0
 21
-1057.0
 31
0.0
100
AcDbText
 73
2
  0
LWPOLYLINE
  5
DB
330
17
100
AcDbEntity
  8
CUT
100
AcDbPolyline
 90
10
 70
1
 10
664.0
 20
-1003.0
 10
664.0
 20
-943.0
 10
652.2
 20
-943.0
 42
-2.414213562373095
 10
649.0
 20
-939.8
 10
649.0
 20
-938.0
 10
234.0
 20
-938.0
 10
234.0
 20
-1008.0
 10
649.0
 20
-1008.0
 10
649.0
 20
-1006.2
 42
-2.414213562373095
 10
652.2
 20
-1003.0
  0
TEXT
  5
DC
330
17
100
AcDbEntity
  8
ENGRAVE-LABEL
100
AcDbText
 10
449.0
 20
-973.0
 30
0.0
 40
22.0
  1
13 BACK-STILE 9/14
 72
1
 11
449.0
 21
-973.0
 31
0.0
100
AcDbText
 73
2
  0
LWPOLYLINE
  5
DD
330
17
100
AcDbEntity
  8
CUT
100
AcDbPolyline
 90
10
 70
1
 10
664.0
 20
-919.0
 10
664.0
 20
-859.0
 10
652.2
 20
-859.0
 42
-2.414213562373095
 10
649.0
 20
-855.8
 10
649.0
 20
-854.0
 10
234.0
 20
-854.0
 10
234.0
 20
-924.0
 10
649.0
 20
-924.0
 10
649.0
 20
-922.2
 42
-2.414213562373095
 10
652.2
 20
-919.0
  0
TEXT
  5
DE
330
17
100
AcDbEntity
  8
ENGRAVE-LABEL
100
AcDbText
 10
449.0
 20
-889.0
 30
0.0
 40
22.0
  1
13 BACK-STILE 10/14
 72
1
 11
449.0
 21
-889.0
 31
0.0
100
AcDbText
 73
2
  0
LWPOLYLINE
  5
DF
330
17
100
AcDbEntity
  8
CUT
100
AcDbPolyline
 90
10
 70
1
 10
664.0
 20
-835.0
 10
664.0
 20
-775.0
 10
652.2
 20
-775.0
 42
-2.414213562373095
 10
649.0
 20
-771.8
 10
649.0
 20
-770.0
 10
234.0
 20
-770.0
 10
234.0
 20
-840.0
 10
649.0
 20
-840.0
 10
649.0
 20
-838.2
 42
-2.414213562373095
 10
652.2
 20
-835.0
  0
TEXT
  5
E0
330
17
100
AcDbEntity
  8
ENGRAVE-LABEL
100
AcDbText
 10
449.0
 20
-805.0
 30
0.0
 40
22.0
  1
13 BACK-STILE 11/14
 72
1
 11
449.0
 21
-805.0
 31
0.0
100
AcDbText
 73
2
  0
LWPOLYLINE
  5
E1
330
17
100
AcDbEntity
  8
CUT
100
AcDbPolyline
 90
10
 70
1
 10
1094.0
 20
-275.0
 10
1094.0
 20
-335.0
 10
1105.8
 20
-335.0
 42
-2.414213562373095
 10
1109.0
 20
-338.1999999999998
 10
1109.0
 20
-340.0
 10
1524.0
 20
-340.0
 10
1524.0
 20
-270.0
 10
1109.0
 20
-270.0
 10
1109.0
 20
-271.79999999999995
 42
-2.414213562373095
 10
1105.8
 20
-275.0
  0
TEXT
  5
E2
330
17
100
AcDbEntity
  8
ENGRAVE-LABEL
100
AcDbText
 10
1309.0
 20
-305.0
 30
0.0
 40
22.0
  1
13 BACK-STILE 12/14
 72
1
 11
1309.0
 21
-305.0
 31
0.0
100
AcDbText
 73
2
  0
LWPOLYLINE
  5
E3
330
17
100
AcDbEntity
  8
CUT
100
AcDbPolyline
 90
10
 70
1
 10
1580.0
 20
-1087.0
 10
1580.0
 20
-1027.0
 10
1568.2
 20
-1027.0
 42
-2.414213562373095
 10
1565.0
 20
-1023.8
 10
1565.0
 20
-1022.0
 10
1150.0
 20
-1022.0
 10
1150.0
 20
-1092.0
 10
1565.0
 20
-1092.0
 10
1565.0
 20
-1090.2
 42
-2.414213562373095
 10
1568.2
 20
-1087.0
  0
TEXT
  5
E4
330
17
100
AcDbEntity
  8
ENGRAVE-LABEL
100
AcDbText
 10
1365.0
 20
-1057.0
 30
0.0
 40
22.0
  1
13 BACK-STILE 13/14
 72
1
 11
1365.0
 21
-1057.0
 31
0.0
100
AcDbText
 73
2
  0
LWPOLYLINE
  5
E5
330
17
100
AcDbEntity
  8
CUT
100
AcDbPolyline
 90
10
 70
1
 10
1580.0
 20
-1003.0
 10
1580.0
 20
-943.0
 10
1568.2
 20
-943.0
 42
-2.414213562373095
 10
1565.0
 20
-939.8
 10
1565.0
 20
-938.0
 10
1150.0
 20
-938.0
 10
1150.0
 20
-1008.0
 10
1565.0
 20
-1008.0
 10
1565.0
 20
-1006.2
 42
-2.414213562373095
 10
1568.2
 20
-1003.0
  0
TEXT
  5
E6
330
17
100
AcDbEntity
  8
ENGRAVE-LABEL
100
AcDbText
 10
1365.0
 20
-973.0
 30
0.0
 40
22.0
  1
13 BACK-STILE 14/14
 72
1
 11
1365.0
 21
-973.0
 31
0.0
100
AcDbText
 73
2
  0
LWPOLYLINE
  5
E7
330
17
100
AcDbEntity
  8
REFERENCE-SHEET
100
AcDbPolyline
 90
4
 70
1
 10
0.0
 20
-2940.0
 10
2440.0
 20
-2940.0
 10
2440.0
 20
-1720.0
 10
0.0
 20
-1720.0
  0
TEXT
  5
E8
330
17
100
AcDbEntity
  8
REFERENCE-SHEET
100
AcDbText
 10
0.0
 20
-1665.0
 30
0.0
 40
40.0
  1
SHEET 3/4  -  2440 x 1220 x 15 mm PLYWOOD
 11
0.0
 21
-1665.0
 31
0.0
100
AcDbText
  0
LWPOLYLINE
  5
E9
330
17
100
AcDbEntity
  8
CUT
100
AcDbPolyline
 90
67
 70
1
 10
18.0
 20
-2922.0
 10
38.0
 20
-2922.0
 10
38.0
 20
-2910.0
 42
-2.414213562373095
 10
41.2
 20
-2906.8
 10
134.8
 20
-2906.8
 42
-2.414213562373095
 10
138.0
 20
-2910.0
 10
138.0
 20
-2922.0
 10
168.0
 20
-2922.0
 10
168.0
 20
-2870.2
 42
-2.414213562373095
 10
171.2
 20
-2867.0
 10
764.8
 20
-2867.0
 42
-2.414213562373095
 10
768.0
 20
-2870.2
 10
768.0
 20
-2922.0
 10
798.0
 20
-2922.0
 10
798.0
 20
-2910.0
 42
-2.414213562373095
 10
801.2
 20
-2906.8
 10
894.8
 20
-2906.8
 42
-2.414213562373095
 10
898.0
 20
-2910.0
 10
898.0
 20
-2922.0
 10
918.0
 20
-2922.0
 10
918.0
 20
-2592.0
 10
811.2
 20
-2592.0
 42
-2.414213562373095
 10
808.0
 20
-2588.8
 10
808.0
 20
-2579.8
 42
-2.414213562373095
 10
811.2
 20
-2576.6
 10
918.0
 20
-2576.6
 10
918.0
 20
-2402.0
 10
811.2
 20
-2402.0
 42
-2.414213562373095
 10
808.0
 20
-2398.8
 10
808.0
 20
-2389.8
 42
-2.414213562373095
 10
811.2
 20
-2386.6
 10
918.0
 20
-2386.6
 10
918.0
 20
-2162.0
 10
908.0
 20
-2162.0
 10
908.0
 20
-2174.0
 42
-2.414213562373095
 10
904.8
 20
-2177.2
 10
811.2
 20
-2177.2
 42
-2.414213562373095
 10
808.0
 20
-2174.0
 10
808.0
 20
-2162.0
 10
718.0
 20
-2162.0
 10
718.0
 20
-2588.8
 42
-2.414213562373095
 10
714.8
 20
-2592.0
 10
708.0
 20
-2592.0
 10
708.0
 20
-2604.0
 42
-2.414213562373095
 10
704.8
 20
-2607.2
 10
611.2
 20
-2607.2
 42
-2.414213562373095
 10
608.0
 20
-2604.0
 10
608.0
 20
-2592.0
 10
601.2
 20
-2592.0
 42
-2.414213562373095
 10
598.0
 20
-2588.8
 10
598.0
 20
-2577.0
 10
538.0
 20
-2577.0
 10
538.0
 20
-2588.8
 42
-2.414213562373095
 10
534.8
 20
-2592.0
 10
301.2
 20
-2592.0
 42
-2.414213562373095
 10
298.0
 20
-2588.8
 10
298.0
 20
-2577.0
 10
238.0
 20
-2577.0
 10
238.0
 20
-2588.8
 42
-2.414213562373095
 10
234.8
 20
-2592.0
 10
128.0
 20
-2592.0
 10
128.0
 20
-2604.0
 42
-2.414213562373095
 10
124.8
 20
-2607.2
 10
31.2
 20
-2607.2
 42
-2.414213562373095
 10
28.0
 20
-2604.0
 10
28.0
 20
-2592.0
 10
18.0
 20
-2592.0
  0
LWPOLYLINE
  5
EA
330
17
100
AcDbEntity
  8
CUT
100
AcDbPolyline
 90
4
 70
1
 10
303.0
 20
-2787.0
 10
633.0
 20
-2787.0
 42
1.0
 10
633.0
 20
-2677.0
 10
303.0
 20
-2677.0
 42
1.0
  0
LWPOLYLINE
  5
EB
330
17
100
AcDbEntity
  8
CUT
100
AcDbPolyline
 90
4
 70
1
 10
803.0
 20
-2342.0
 10
853.0
 20
-2342.0
 42
1.0
 10
853.0
 20
-2262.0
 10
803.0
 20
-2262.0
 42
1.0
  0
TEXT
  5
EC
330
17
100
AcDbEntity
  8
ENGRAVE-LABEL
100
AcDbText
 10
802.064453125
 20
-2710.556640625
 30
0.0
 40
22.0
  1
01 RIB 5/7
 72
1
 11
802.064453125
 21
-2710.556640625
 31
0.0
100
AcDbText
 73
2
  0
LWPOLYLINE
  5
ED
330
17
100
AcDbEntity
  8
CUT
100
AcDbPolyline
 90
67
 70
1
 10
918.0000000000001
 20
-1818.0
 10
898.0000000000001
 20
-1818.0
 10
898.0000000000001
 20
-1830.0
 42
-2.414213562373095
 10
894.8000000000001
 20
-1833.2000000000003
 10
801.2000000000002
 20
-1833.2
 42
-2.414213562373095
 10
798.0000000000001
 20
-1830.0
 10
798.0000000000001
 20
-1818.0
 10
768.0000000000001
 20
-1818.0
 10
768.0000000000001
 20
-1869.8000000000002
 42
-2.414213562373095
 10
764.8000000000002
 20
-1873.0
 10
171.20000000000016
 20
-1873.0
 42
-2.414213562373095
 10
168.0000000000001
 20
-1869.8000000000002
 10
168.0000000000001
 20
-1818.0
 10
138.0000000000001
 20
-1818.0
 10
138.0000000000001
 20
-1830.0
 42
-2.414213562373095
 10
134.80000000000007
 20
-1833.2
 10
41.20000000000016
 20
-1833.2
 42
-2.414213562373095
 10
38.000000000000114
 20
-1830.0
 10
38.000000000000114
 20
-1818.0
 10
18.000000000000114
 20
-1818.0
 10
18.000000000000114
 20
-2148.0
 10
124.80000000000007
 20
-2148.0
 42
-2.414213562373095
 10
128.0000000000001
 20
-2151.2
 10
128.0000000000001
 20
-2160.2
 42
-2.414213562373095
 10
124.80000000000007
 20
-2163.4
 10
18.000000000000114
 20
-2163.4
 10
18.0
 20
-2338.0
 10
124.79999999999995
 20
-2338.0
 42
-2.414213562373095
 10
128.0
 20
-2341.2
 10
128.0
 20
-2350.2
 42
-2.414213562373095
 10
124.79999999999995
 20
-2353.4
 10
18.0
 20
-2353.4
 10
18.0
 20
-2578.0
 10
28.0
 20
-2578.0
 10
28.0
 20
-2566.0
 42
-2.414213562373095
 10
31.200000000000045
 20
-2562.8
 10
124.79999999999995
 20
-2562.8
 42
-2.414213562373095
 10
128.0
 20
-2566.0
 10
128.0
 20
-2578.0
 10
218.0
 20
-2578.0
 10
218.0000000000001
 20
-2151.2
 42
-2.414213562373095
 10
221.20000000000016
 20
-2148.0
 10
228.0000000000001
 20
-2148.0
 10
228.0000000000001
 20
-2136.0
 42
-2.414213562373095
 10
231.20000000000016
 20
-2132.8
 10
324.80000000000007
 20
-2132.8
 42
-2.414213562373095
 10
328.0000000000001
 20
-2136.0
 10
328.0000000000001
 20
-2148.0
 10
334.80000000000007
 20
-2148.0
 42
-2.414213562373095
 10
338.0000000000001
 20
-2151.2
 10
338.0000000000001
 20
-2163.0
 10
398.0000000000001
 20
-2163.0
 10
398.0000000000001
 20
-2151.2
 42
-2.414213562373095
 10
401.20000000000016
 20
-2148.0
 10
634.8000000000001
 20
-2148.0
 42
-2.414213562373095
 10
638.0
 20
-2151.2
 10
638.0
 20
-2163.0
 10
698.0000000000001
 20
-2163.0
 10
698.0000000000001
 20
-2151.2
 42
-2.414213562373095
 10
701.2
 20
-2148.0
 10
808.0000000000001
 20
-2148.0
 10
808.0000000000001
 20
-2136.0
 42
-2.414213562373095
 10
811.2
 20
-2132.8
 10
904.8000000000001
 20
-2132.8
 42
-2.414213562373095
 10
908.0000000000001
 20
-2136.0
 10
908.0000000000001
 20
-2148.0
 10
918.0000000000001
 20
-2148.0
  0
LWPOLYLINE
  5
EE
330
17
100
AcDbEntity
  8
CUT
100
AcDbPolyline
 90
4
 70
1
 10
633.0000000000001
 20
-1953.0
 10
303.0000000000001
 20
-1953.0
 42
1.0
 10
303.0000000000001
 20
-2063.0
 10
633.0
 20
-2063.0
 42
1.0
  0
LWPOLYLINE
  5
EF
330
17
100
AcDbEntity
  8
CUT
100
AcDbPolyline
 90
4
 70
1
 10
133.0
 20
-2398.0
 10
83.0
 20
-2398.0
 42
1.0
 10
83.0
 20
-2478.0
 10
133.0
 20
-2478.0
 42
1.0
  0
TEXT
  5
F0
330
17
100
AcDbEntity
  8
ENGRAVE-LABEL
100
AcDbText
 10
133.935546875
 20
-2029.443359375
 30
0.0
 40
22.0
  1
01 RIB 6/7
 72
1
 11
133.935546875
 21
-2029.443359375
 31
0.0
100
AcDbText
 73
2
  0
LWPOLYLINE
  5
F1
330
17
100
AcDbEntity
  8
CUT
100
AcDbPolyline
 90
67
 70
1
 10
934.0
 20
-2922.0
 10
954.0
 20
-2922.0
 10
954.0
 20
-2910.0
 42
-2.414213562373095
 10
957.2
 20
-2906.8
 10
1050.8
 20
-2906.8
 42
-2.414213562373095
 10
1054.0
 20
-2910.0
 10
1054.0
 20
-2922.0
 10
1084.0
 20
-2922.0
 10
1084.0
 20
-2870.2
 42
-2.414213562373095
 10
1087.2
 20
-2867.0
 10
1680.8
 20
-2867.0
 42
-2.414213562373095
 10
1684.0
 20
-2870.2
 10
1684.0
 20
-2922.0
 10
1714.0
 20
-2922.0
 10
1714.0
 20
-2910.0
 42
-2.414213562373095
 10
1717.2
 20
-2906.8
 10
1810.8
 20
-2906.8
 42
-2.414213562373095
 10
1814.0
 20
-2910.0
 10
1814.0
 20
-2922.0
 10
1834.0
 20
-2922.0
 10
1834.0
 20
-2592.0
 10
1727.2
 20
-2592.0
 42
-2.414213562373095
 10
1724.0
 20
-2588.8
 10
1724.0
 20
-2579.8
 42
-2.414213562373095
 10
1727.2
 20
-2576.6
 10
1834.0
 20
-2576.6
 10
1834.0
 20
-2402.0
 10
1727.2
 20
-2402.0
 42
-2.414213562373095
 10
1724.0
 20
-2398.8
 10
1724.0
 20
-2389.8
 42
-2.414213562373095
 10
1727.2
 20
-2386.6
 10
1834.0
 20
-2386.6
 10
1834.0
 20
-2162.0
 10
1824.0
 20
-2162.0
 10
1824.0
 20
-2174.0
 42
-2.414213562373095
 10
1820.8
 20
-2177.2
 10
1727.2
 20
-2177.2
 42
-2.414213562373095
 10
1724.0
 20
-2174.0
 10
1724.0
 20
-2162.0
 10
1634.0
 20
-2162.0
 10
1634.0
 20
-2588.8
 42
-2.414213562373095
 10
1630.8
 20
-2592.0
 10
1624.0
 20
-2592.0
 10
1624.0
 20
-2604.0
 42
-2.414213562373095
 10
1620.8
 20
-2607.2
 10
1527.2
 20
-2607.2
 42
-2.414213562373095
 10
1524.0
 20
-2604.0
 10
1524.0
 20
-2592.0
 10
1517.2
 20
-2592.0
 42
-2.414213562373095
 10
1514.0
 20
-2588.8
 10
1514.0
 20
-2577.0
 10
1454.0
 20
-2577.0
 10
1454.0
 20
-2588.8
 42
-2.414213562373095
 10
1450.8
 20
-2592.0
 10
1217.2
 20
-2592.0
 42
-2.414213562373095
 10
1214.0
 20
-2588.8
 10
1214.0
 20
-2577.0
 10
1154.0
 20
-2577.0
 10
1154.0
 20
-2588.8
 42
-2.414213562373095
 10
1150.8
 20
-2592.0
 10
1044.0
 20
-2592.0
 10
1044.0
 20
-2604.0
 42
-2.414213562373095
 10
1040.8
 20
-2607.2
 10
947.2
 20
-2607.2
 42
-2.414213562373095
 10
944.0
 20
-2604.0
 10
944.0
 20
-2592.0
 10
934.0
 20
-2592.0
  0
LWPOLYLINE
  5
F2
330
17
100
AcDbEntity
  8
CUT
100
AcDbPolyline
 90
4
 70
1
 10
1219.0
 20
-2787.0
 10
1549.0
 20
-2787.0
 42
1.0
 10
1549.0
 20
-2677.0
 10
1219.0
 20
-2677.0
 42
1.0
  0
LWPOLYLINE
  5
F3
330
17
100
AcDbEntity
  8
CUT
100
AcDbPolyline
 90
4
 70
1
 10
1719.0
 20
-2342.0
 10
1769.0
 20
-2342.0
 42
1.0
 10
1769.0
 20
-2262.0
 10
1719.0
 20
-2262.0
 42
1.0
  0
TEXT
  5
F4
330
17
100
AcDbEntity
  8
ENGRAVE-LABEL
100
AcDbText
 10
1718.064453125
 20
-2710.556640625
 30
0.0
 40
22.0
  1
01 RIB 7/7
 72
1
 11
1718.064453125
 21
-2710.556640625
 31
0.0
100
AcDbText
 73
2
  0
LWPOLYLINE
  5
F5
330
17
100
AcDbEntity
  8
CUT
100
AcDbPolyline
 90
4
 70
1
 10
1272.6454535468233
 20
-2578.0
 10
1613.4653414899426
 20
-1978.048498641399
 42
0.07036529122278763
 10
1095.0773010605749
 20
-1773.3272667654085
 10
934.0
 20
-2444.2625118398055
 42
-0.07036529122278763
  0
LWPOLYLINE
  5
F6
330
17
100
AcDbEntity
  8
CUT
100
AcDbPolyline
 90
8
 70
1
 10
1324.5053178503338
 20
-2356.2346501441316
 42
2.414213562373095
 10
1328.8093083269032
 20
-2354.8361988658953
 10
1353.3247953128387
 20
-2306.7218465597234
 42
2.414213562373095
 10
1351.9263440346024
 20
-2302.4178560831538
 10
1343.907285316907
 20
-2298.3319415854976
 42
2.414213562373095
 10
1339.6032948403376
 20
-2299.730392863734
 10
1315.0878078544022
 20
-2347.8447451699058
 42
2.414213562373095
 10
1316.4862591326385
 20
-2352.1487356464754
  0
LWPOLYLINE
  5
F7
330
17
100
AcDbEntity
  8
CUT
100
AcDbPolyline
 90
8
 70
1
 10
1460.702467772198
 20
-2088.9326928876208
 42
2.414213562373095
 10
1465.006458248767
 20
-2087.5342416093845
 10
1489.5219452347028
 20
-2039.4198893032128
 42
2.414213562373095
 10
1488.1234939564665
 20
-2035.1158988266434
 10
1480.1044352387712
 20
-2031.0299843289874
 42
2.414213562373095
 10
1475.8004447622018
 20
-2032.4284356072237
 10
1451.2849577762663
 20
-2080.542787913396
 42
2.414213562373095
 10
1452.6834090545026
 20
-2084.846778389965
  0
LWPOLYLINE
  5
F8
330
17
100
AcDbEntity
  8
CUT
100
AcDbPolyline
 90
8
 70
1
 10
1104.4448093616961
 20
-2264.3182913660976
 42
2.414213562373095
 10
1108.4770445958407
 20
-2262.263764895953
 10
1125.1639622920877
 20
-2210.9067130160147
 42
2.414213562373095
 10
1123.109435821943
 20
-2206.87447778187
 10
1114.5499271752867
 20
-2204.093324832496
 42
2.414213562373095
 10
1110.5176919411424
 20
-2206.1478513026404
 10
1093.830774244895
 20
-2257.504903182579
 42
2.414213562373095
 10
1095.8853007150399
 20
-2261.537138416723
  0
LWPOLYLINE
  5
F9
330
17
100
AcDbEntity
  8
CUT
100
AcDbPolyline
 90
8
 70
1
 10
1197.1499076741807
 20
-1979.0013364775516
 42
2.414213562373095
 10
1201.1821429083247
 20
-1976.946810007407
 10
1217.869060604572
 20
-1925.5897581274687
 42
2.414213562373095
 10
1215.8145341344275
 20
-1921.5575228933244
 10
1207.255025487771
 20
-1918.77636994395
 42
2.414213562373095
 10
1203.2227902536265
 20
-1920.8308964140945
 10
1186.5358725573794
 20
-1972.1879482940328
 42
2.414213562373095
 10
1188.5903990275242
 20
-1976.2201835281771
  0
LWPOLYLINE
  5
FA
330
17
100
AcDbEntity
  8
CUT
100
AcDbPolyline
 90
4
 70
1
 10
1355.5415421046428
 20
-2223.6958903717864
 10
1396.2525479305923
 20
-2136.755600490515
 42
1.0
 10
1347.348634872377
 20
-2113.8556597134184
 10
1306.6376290464277
 20
-2200.79594959469
 42
1.0
  0
LWPOLYLINE
  5
FB
330
17
100
AcDbEntity
  8
CUT
100
AcDbPolyline
 90
4
 70
1
 10
1166.9138307180356
 20
-2145.6163816160606
 10
1196.5922099727186
 20
-2054.319099045246
 42
1.0
 10
1145.2374885266354
 20
-2037.6250107144863
 10
1115.5591092719524
 20
-2128.922293285301
 42
1.0
  0
TEXT
  5
FC
330
17
100
AcDbEntity
  8
ENGRAVE-LABEL
100
AcDbText
 10
1179.1563992957488
 20
-2382.8792184766144
 30
0.0
 40
22.0
  1
10 SEAT-DECK-1
 72
1
 11
1179.1563992957488
 21
-2382.8792184766144
 31
0.0
100
AcDbText
 73
2
  0
LWPOLYLINE
  5
FD
330
17
100
AcDbEntity
  8
CUT
100
AcDbPolyline
 90
4
 70
1
 10
2409.465341489942
 20
-2416.2625118398055
 10
2248.3880404293677
 20
-1745.3272667654085
 42
0.0703652912227876
 10
1730.0
 20
-1950.048498641399
 10
2070.8198879431193
 20
-2550.0
 42
-0.0703652912227876
  0
LWPOLYLINE
  5
FE
330
17
100
AcDbEntity
  8
CUT
100
AcDbPolyline
 90
8
 70
1
 10
2247.5800407749025
 20
-2233.537138416723
 42
2.414213562373095
 10
2249.634567245047
 20
-2229.504903182579
 10
2232.9476495487997
 20
-2178.1478513026404
 42
2.414213562373095
 10
2228.9154143146557
 20
-2176.093324832496
 10
2220.355905667999
 20
-2178.87447778187
 42
2.414213562373095
 10
2218.3013791978547
 20
-2182.9067130160147
 10
2234.988296894102
 20
-2234.263764895953
 42
2.414213562373095
 10
2239.020532128246
 20
-2236.3182913660976
  0
LWPOLYLINE
  5
FF
330
17
100
AcDbEntity
  8
CUT
100
AcDbPolyline
 90
8
 70
1
 10
2154.8749424624184
 20
-1948.2201835281771
 42
2.414213562373095
 10
2156.929468932563
 20
-1944.1879482940328
 10
2140.2425512363156
 20
-1892.8308964140945
 42
2.414213562373095
 10
2136.2103160021716
 20
-1890.77636994395
 10
2127.650807355515
 20
-1893.5575228933244
 42
2.414213562373095
 10
2125.59628088537
 20
-1897.5897581274687
 10
2142.2831985816174
 20
-1948.946810007407
 42
2.414213562373095
 10
2146.315433815762
 20
-1951.0013364775516
  0
LWPOLYLINE
  5
100
330
17
100
AcDbEntity
  8
CUT
100
AcDbPolyline
 90
8
 70
1
 10
2026.979082357304
 20
-2324.148735646476
 42
2.414213562373095
 10
2028.3775336355402
 20
-2319.844745169906
 10
2003.8620466496045
 20
-2271.7303928637343
 42
2.414213562373095
 10
1999.5580561730353
 20
-2270.331941585498
 10
1991.53899745534
 20
-2274.417856083154
 42
2.414213562373095
 10
1990.1405461771037
 20
-2278.7218465597234
 10
2014.6560331630392
 20
-2326.8361988658953
 42
2.414213562373095
 10
2018.9600236396086
 20
-2328.2346501441316
  0
LWPOLYLINE
  5
101
330
17
100
AcDbEntity
  8
CUT
100
AcDbPolyline
 90
8
 70
1
 10
1890.7819324354398
 20
-2056.846778389965
 42
2.414213562373095
 10
1892.180383713676
 20
-2052.542787913396
 10
1867.6648967277406
 20
-2004.428435607224
 42
2.414213562373095
 10
1863.3609062511712
 20
-2003.0299843289877
 10
1855.3418475334759
 20
-2007.1158988266436
 42
2.414213562373095
 10
1853.9433962552396
 20
-2011.419889303213
 10
1878.458883241175
 20
-2059.534241609385
 42
2.414213562373095
 10
1882.7628737177445
 20
-2060.932692887621
  0
LWPOLYLINE
  5
102
330
17
100
AcDbEntity
  8
CUT
100
AcDbPolyline
 90
4
 70
1
 10
2227.90623221799
 20
-2100.9222932853013
 10
2198.2278529633068
 20
-2009.6250107144865
 42
1.0
 10
2146.8731315172236
 20
-2026.3190990452458
 10
2176.5515107719066
 20
-2117.6163816160606
 42
1.0
  0
LWPOLYLINE
  5
103
330
17
100
AcDbEntity
  8
CUT
100
AcDbPolyline
 90
4
 70
1
 10
2036.8277124435144
 20
-2172.79594959469
 10
1996.116706617565
 20
-2085.8556597134184
 42
1.0
 10
1947.2127935593498
 20
-2108.7556004905155
 10
1987.9237993852994
 20
-2195.695890371787
 42
1.0
  0
TEXT
  5
104
330
17
100
AcDbEntity
  8
ENGRAVE-LABEL
100
AcDbText
 10
2164.308942194194
 20
-2354.879218476615
 30
0.0
 40
22.0
  1
12 SEAT-DECK-3
 72
1
 11
2164.308942194194
 21
-2354.879218476615
 31
0.0
100
AcDbText
 73
2
  0
LWPOLYLINE
  5
105
330
17
100
AcDbEntity
  8
REFERENCE-SHEET
100
AcDbPolyline
 90
4
 70
1
 10
0.0
 20
-4410.0
 10
2440.0
 20
-4410.0
 10
2440.0
 20
-3190.0
 10
0.0
 20
-3190.0
  0
TEXT
  5
106
330
17
100
AcDbEntity
  8
REFERENCE-SHEET
100
AcDbText
 10
0.0
 20
-3135.0
 30
0.0
 40
40.0
  1
SHEET 4/4  -  2440 x 1220 x 15 mm PLYWOOD
 11
0.0
 21
-3135.0
 31
0.0
100
AcDbText
  0
LWPOLYLINE
  5
107
330
17
100
AcDbEntity
  8
CUT
100
AcDbPolyline
 90
16
 70
1
 10
2150.588836686563
 20
-4392.0
 10
2161.422758465378
 20
-4373.0826497920425
 42
-2.414213562373095
 10
2165.789917656097
 20
-4371.8960914905165
 10
2176.0295842824225
 20
-4377.760324379968
 10
2205.8477176186116
 20
-4325.694222890176
 10
2195.608050992286
 20
-4319.829990000726
 42
-2.414213562373095
 10
2194.4214926907607
 20
-4315.462830810007
 10
2205.255414469576
 20
-4296.54548060205
 42
0.266076297290537
 10
18.592303149035615
 20
-4296.54548060205
 10
29.42622492785108
 20
-4315.462830810007
 42
-2.414213562373095
 10
28.239666626325743
 20
-4319.829990000726
 10
18.0
 20
-4325.694222890176
 10
47.81813333618902
 20
-4377.760324379968
 10
58.057799962514764
 20
-4371.8960914905165
 42
-2.414213562373095
 10
62.42495915323366
 20
-4373.0826497920425
 10
73.25888093204912
 20
-4392.0
 42
-0.266076297290537
  0
LWPOLYLINE
  5
108
330
17
100
AcDbEntity
  8
CUT
100
AcDbPolyline
 90
8
 70
1
 10
2157.4916309160517
 20
-4347.003219560261
 42
2.414213562373095
 10
2161.8307537094006
 20
-4345.717912832573
 10
2166.1251825517375
 20
-4337.808558818615
 42
2.414213562373095
 10
2164.8398758240496
 20
-4333.469436025266
 10
2108.595580613684
 20
-4302.931275368652
 42
2.414213562373095
 10
2104.2564578203346
 20
-4304.216582096339
 10
2099.962028977998
 20
-4312.125936110297
 42
2.414213562373095
 10
2101.247335705686
 20
-4316.4650589036455
  0
LWPOLYLINE
  5
109
330
17
100
AcDbEntity
  8
CUT
100
AcDbPolyline
 90
8
 70
1
 10
122.60038191292563
 20
-4316.4650589036455
 42
2.414213562373095
 10
123.88568864061313
 20
-4312.125936110297
 10
119.59125979827672
 20
-4304.216582096339
 42
2.414213562373095
 10
115.25213700492759
 20
-4302.931275368652
 10
59.007841794561955
 20
-4333.469436025266
 42
2.414213562373095
 10
57.72253506687434
 20
-4337.808558818615
 10
62.016963909210745
 20
-4345.717912832573
 42
2.414213562373095
 10
66.35608670255988
 20
-4347.003219560261
  0
LWPOLYLINE
  5
10A
330
17
100
AcDbEntity
  8
CUT
100
AcDbPolyline
 90
8
 70
1
 10
2058.7853996328295
 20
-4294.82962183972
 42
2.414213562373095
 10
2063.051308052535
 20
-4293.3189844395865
 10
2066.92590792381
 20
-4285.195716880438
 42
2.414213562373095
 10
2065.415270523677
 20
-4280.929808460732
 10
2007.649812325286
 20
-4253.377098265001
 42
2.414213562373095
 10
2003.3839039055797
 20
-4254.887735665134
 10
1999.5093040343052
 20
-4263.011003224283
 42
2.414213562373095
 10
2001.0199414344381
 20
-4267.276911643989
  0
LWPOLYLINE
  5
10B
330
17
100
AcDbEntity
  8
CUT
100
AcDbPolyline
 90
8
 70
1
 10
1853.8647524684252
 20
-4206.3232366006905
 42
2.414213562373095
 10
1857.9493871894683
 20
-4204.374965778744
 10
1860.953648922572
 20
-4195.891192358914
 42
2.414213562373095
 10
1859.0053781006252
 20
-4191.806557637871
 10
1798.6763226707258
 20
-4170.44291864691
 42
2.414213562373095
 10
1794.5916879496826
 20
-4172.391189468856
 10
1791.587426216579
 20
-4180.874962888686
 42
2.414213562373095
 10
1793.5356970385258
 20
-4184.959597609729
  0
LWPOLYLINE
  5
10C
330
17
100
AcDbEntity
  8
CUT
100
AcDbPolyline
 90
8
 70
1
 10
1748.2120098372625
 20
-4170.23303893214
 42
2.414213562373095
 10
1752.1890820918932
 20
-4168.073664883614
 10
1754.7452201942285
 20
-4159.4442872698
 42
2.414213562373095
 10
1752.5858461457028
 20
-4155.467215015169
 10
1691.2213831141385
 20
-4137.290232954118
 42
2.414213562373095
 10
1687.2443108595078
 20
-4139.4496070026435
 10
1684.6881727571724
 20
-4148.078984616458
 42
2.414213562373095
 10
1686.8475468056981
 20
-4152.056056871088
  0
LWPOLYLINE
  5
10D
330
17
100
AcDbEntity
  8
CUT
100
AcDbPolyline
 90
8
 70
1
 10
1531.9688268582584
 20
-4114.87296597819
 42
2.414213562373095
 10
1535.698396244038
 20
-4112.3097039555605
 10
1537.338515973467
 20
-4103.460409787485
 42
2.414213562373095
 10
1534.7752539508374
 20
-4099.730840401706
 10
1471.8469398667444
 20
-4088.0677667702075
 42
2.414213562373095
 10
1468.1173704809648
 20
-4090.631028792838
 10
1466.4772507515354
 20
-4099.480322960913
 42
2.414213562373095
 10
1469.040512774165
 20
-4103.209892346693
  0
LWPOLYLINE
  5
10E
330
17
100
AcDbEntity
  8
CUT
100
AcDbPolyline
 90
8
 70
1
 10
1421.971094044084
 20
-4095.7548288047274
 42
2.414213562373095
 10
1425.5614014155844
 20
-4092.999889063436
 10
1426.736137145565
 20
-4084.0768853110712
 42
2.414213562373095
 10
1423.9811974042727
 20
-4080.4865779395714
 10
1360.528726276349
 20
-4072.1329016374875
 42
2.414213562373095
 10
1356.9384189048485
 20
-4074.8878413787797
 10
1355.7636831748682
 20
-4083.8108451311437
 42
2.414213562373095
 10
1358.5186229161602
 20
-4087.4011525026444
  0
LWPOLYLINE
  5
10F
330
17
100
AcDbEntity
  8
CUT
100
AcDbPolyline
 90
8
 70
1
 10
1199.7300000854016
 20
-4074.9042168615333
 42
2.414213562373095
 10
1203.0126697599085
 20
-4071.789079656196
 10
1203.2482622946793
 20
-4062.7921637314166
 42
2.414213562373095
 10
1200.1331250893427
 20
-4059.5094940569097
 10
1136.1550562909072
 20
-4057.8341693652055
 42
2.414213562373095
 10
1132.8723866164
 20
-4060.949306570542
 10
1132.6367940816292
 20
-4069.946222495322
 42
2.414213562373095
 10
1135.7519312869658
 20
-4073.228892169829
  0
LWPOLYLINE
  5
110
330
17
100
AcDbEntity
  8
CUT
100
AcDbPolyline
 90
8
 70
1
 10
1088.095786331646
 20
-4073.228892169829
 42
2.414213562373095
 10
1091.2109235369826
 20
-4069.946222495322
 10
1090.9753310022118
 20
-4060.949306570542
 42
2.414213562373095
 10
1087.6926613277046
 20
-4057.8341693652055
 10
1023.7145925292691
 20
-4059.5094940569097
 42
2.414213562373095
 10
1020.5994553239325
 20
-4062.7921637314166
 10
1020.8350478587033
 20
-4071.789079656196
 42
2.414213562373095
 10
1024.1177175332105
 20
-4074.9042168615333
  0
LWPOLYLINE
  5
111
330
17
100
AcDbEntity
  8
CUT
100
AcDbPolyline
 90
8
 70
1
 10
865.3290947024517
 20
-4087.4011525026444
 42
2.414213562373095
 10
868.0840344437438
 20
-4083.8108451311437
 10
866.9092987137633
 20
-4074.8878413787797
 42
2.414213562373095
 10
863.318991342263
 20
-4072.1329016374875
 10
799.8665202143391
 20
-4080.4865779395714
 42
2.414213562373095
 10
797.1115804730471
 20
-4084.0768853110712
 10
798.2863162030275
 20
-4092.999889063436
 42
2.414213562373095
 10
801.8766235745279
 20
-4095.7548288047274
  0
LWPOLYLINE
  5
112
330
17
100
AcDbEntity
  8
CUT
100
AcDbPolyline
 90
8
 70
1
 10
754.8072048444462
 20
-4103.209892346693
 42
2.414213562373095
 10
757.370466867076
 20
-4099.480322960913
 10
755.7303471376466
 20
-4090.631028792838
 42
2.414213562373095
 10
752.0007777518671
 20
-4088.0677667702075
 10
689.072463667774
 20
-4099.730840401706
 42
2.414213562373095
 10
686.5092016451442
 20
-4103.460409787485
 10
688.1493213745736
 20
-4112.3097039555605
 42
2.414213562373095
 10
691.8788907603531
 20
-4114.87296597819
  0
LWPOLYLINE
  5
113
330
17
100
AcDbEntity
  8
CUT
100
AcDbPolyline
 90
8
 70
1
 10
537.0001708129137
 20
-4152.056056871088
 42
2.414213562373095
 10
539.1595448614394
 20
-4148.078984616458
 10
536.603406759104
 20
-4139.4496070026435
 42
2.414213562373095
 10
532.6263345044733
 20
-4137.290232954118
 10
471.261871472909
 20
-4155.467215015169
 42
2.414213562373095
 10
469.1024974243833
 20
-4159.4442872698
 10
471.6586355267186
 20
-4168.073664883614
 42
2.414213562373095
 10
475.6357077813493
 20
-4170.23303893214
  0
LWPOLYLINE
  5
114
330
17
100
AcDbEntity
  8
CUT
100
AcDbPolyline
 90
8
 70
1
 10
430.3120205800856
 20
-4184.95959760973
 42
2.414213562373095
 10
432.2602914020325
 20
-4180.874962888686
 10
429.2560296689286
 20
-4172.391189468857
 42
2.414213562373095
 10
425.1713949478856
 20
-4170.44291864691
 10
364.84233951798615
 20
-4191.806557637871
 42
2.414213562373095
 10
362.8940686960392
 20
-4195.891192358914
 10
365.89833042914313
 20
-4204.374965778744
 42
2.414213562373095
 10
369.98296515018615
 20
-4206.3232366006905
  0
LWPOLYLINE
  5
115
330
17
100
AcDbEntity
  8
CUT
100
AcDbPolyline
 90
8
 70
1
 10
222.82777618417413
 20
-4267.276911643989
 42
2.414213562373095
 10
224.3384135843071
 20
-4263.011003224283
 10
220.46381371303244
 20
-4254.887735665134
 42
2.414213562373095
 10
216.19790529332636
 20
-4253.377098265
 10
158.43244709493524
 20
-4280.929808460732
 42
2.414213562373095
 10
156.92180969480228
 20
-4285.195716880437
 10
160.79640956607693
 20
-4293.3189844395865
 42
2.414213562373095
 10
165.062317985783
 20
-4294.829621839719
  0
TEXT
  5
116
330
17
100
AcDbEntity
  8
ENGRAVE-LABEL
100
AcDbText
 10
1617.3584922271193
 20
-4121.043115415128
 30
0.0
 40
14.0
  1
08 RAIL-BACK-MID
 50
15.0
 72
1
 11
1617.3584922271193
 21
-4121.043115415128
 31
0.0
100
AcDbText
 73
2
  0
LWPOLYLINE
  5
117
330
17
100
AcDbEntity
  8
CUT
100
AcDbPolyline
 90
16
 70
1
 10
2148.0738533018334
 20
-4244.0
 10
2156.422811538011
 20
-4229.421423376387
 42
-2.414213562373095
 10
2160.789961035114
 20
-4228.2348293978275
 10
2171.029675568366
 20
-4234.098978635143
 10
2200.8473835547147
 20
-4182.03263355081
 10
2190.6076690214627
 20
-4176.168484313494
 42
-2.414213562373095
 10
2189.421075042904
 20
-4171.801334816391
 10
2197.770033279081
 20
-4157.222758192778
 42
0.26607192341206415
 10
21.077350275633762
 20
-4157.222758192778
 10
29.426308511811385
 20
-4171.801334816391
 42
-2.414213562373095
 10
28.239714533252254
 20
-4176.168484313494
 10
18.0
 20
-4182.03263355081
 10
47.81770798634875
 20
-4234.098978635143
 10
58.057422519601005
 20
-4228.2348293978275
 42
-2.414213562373095
 10
62.424572016703905
 20
-4229.421423376387
 10
70.77353025288153
 20
-4244.0
 42
-0.26607192341206415
  0
LWPOLYLINE
  5
118
330
17
100
AcDbEntity
  8
CUT
100
AcDbPolyline
 90
8
 70
1
 10
2154.9914638841033
 20
-4199.011704770131
 42
2.414213562373095
 10
2159.330586677452
 20
-4197.726398042443
 10
2163.6250155197886
 20
-4189.817044028485
 42
2.414213562373095
 10
2162.339708792101
 20
-4185.477921235136
 10
2106.0954135817356
 20
-4154.939760578521
 42
2.414213562373095
 10
2101.756290788386
 20
-4156.225067306208
 10
2097.46186194605
 20
-4164.134421320166
 42
2.414213562373095
 10
2098.747168673737
 20
-4168.473544113515
  0
LWPOLYLINE
  5
119
330
17
100
AcDbEntity
  8
CUT
100
AcDbPolyline
 90
8
 70
1
 10
120.1002148809772
 20
-4168.473544113515
 42
2.414213562373095
 10
121.3855216086647
 20
-4164.134421320166
 10
117.0910927663283
 20
-4156.225067306208
 42
2.414213562373095
 10
112.75196997297917
 20
-4154.939760578521
 10
56.50767476261353
 20
-4185.477921235136
 42
2.414213562373095
 10
55.22236803492592
 20
-4189.817044028485
 10
59.51679687726232
 20
-4197.726398042443
 42
2.414213562373095
 10
63.855919670611456
 20
-4199.011704770131
  0
LWPOLYLINE
  5
11A
330
17
100
AcDbEntity
  8
CUT
100
AcDbPolyline
 90
8
 70
1
 10
2056.2852326008806
 20
-4146.838107049589
 42
2.414213562373095
 10
2060.551141020587
 20
-4145.327469649456
 10
2064.4257408918616
 20
-4137.204202090307
 42
2.414213562373095
 10
2062.9151034917286
 20
-4132.9382936706015
 10
2005.1496452933375
 20
-4105.38558347487
 42
2.414213562373095
 10
2000.8837368736313
 20
-4106.896220875004
 10
1997.0091370023567
 20
-4115.019488434153
 42
2.414213562373095
 10
1998.5197744024897
 20
-4119.285396853858
  0
LWPOLYLINE
  5
11B
330
17
100
AcDbEntity
  8
CUT
100
AcDbPolyline
 90
8
 70
1
 10
1851.3645854364768
 20
-4058.3317218105603
 42
2.414213562373095
 10
1855.44922015752
 20
-4056.3834509886133
 10
1858.4534818906236
 20
-4047.8996775687838
 42
2.414213562373095
 10
1856.5052110686768
 20
-4043.8150428477406
 10
1796.1761556387773
 20
-4022.4514038567795
 42
2.414213562373095
 10
1792.0915209177342
 20
-4024.399674678726
 10
1789.0872591846305
 20
-4032.883448098556
 42
2.414213562373095
 10
1791.0355300065773
 20
-4036.9680828195987
  0
LWPOLYLINE
  5
11C
330
17
100
AcDbEntity
  8
CUT
100
AcDbPolyline
 90
8
 70
1
 10
1745.711842805314
 20
-4022.241524142009
 42
2.414213562373095
 10
1749.6889150599447
 20
-4020.0821500934835
 10
1752.24505316228
 20
-4011.45277247967
 42
2.414213562373095
 10
1750.0856791137544
 20
-4007.475700225039
 10
1688.72121608219
 20
-3989.298718163988
 42
2.414213562373095
 10
1684.7441438275594
 20
-3991.4580922125133
 10
1682.188005725224
 20
-4000.0874698263274
 42
2.414213562373095
 10
1684.3473797737497
 20
-4004.064542080958
  0
LWPOLYLINE
  5
11D
330
17
100
AcDbEntity
  8
CUT
100
AcDbPolyline
 90
8
 70
1
 10
1529.46865982631
 20
-3966.88145118806
 42
2.414213562373095
 10
1533.1982292120895
 20
-3964.31818916543
 10
1534.8383489415187
 20
-3955.4688949973547
 42
2.414213562373095
 10
1532.275086918889
 20
-3951.739325611575
 10
1469.346772834796
 20
-3940.0762519800774
 42
2.414213562373095
 10
1465.6172034490164
 20
-3942.6395140027075
 10
1463.977083719587
 20
-3951.4888081707827
 42
2.414213562373095
 10
1466.5403457422167
 20
-3955.2183775565622
  0
LWPOLYLINE
  5
11E
330
17
100
AcDbEntity
  8
CUT
100
AcDbPolyline
 90
8
 70
1
 10
1419.4709270121357
 20
-3947.763314014597
 42
2.414213562373095
 10
1423.061234383636
 20
-3945.0083742733054
 10
1424.2359701136165
 20
-3936.085370520941
 42
2.414213562373095
 10
1421.4810303723243
 20
-3932.4950631494407
 10
1358.0285592444006
 20
-3924.1413868473574
 42
2.414213562373095
 10
1354.4382518729
 20
-3926.896326588649
 10
1353.2635161429198
 20
-3935.8193303410135
 42
2.414213562373095
 10
1356.0184558842118
 20
-3939.409637712514
  0
LWPOLYLINE
  5
11F
330
17
100
AcDbEntity
  8
CUT
100
AcDbPolyline
 90
8
 70
1
 10
1197.2298330534531
 20
-3926.9127020714027
 42
2.414213562373095
 10
1200.51250272796
 20
-3923.797564866066
 10
1200.7480952627309
 20
-3914.800648941286
 42
2.414213562373095
 10
1197.6329580573943
 20
-3911.517979266779
 10
1133.6548892589587
 20
-3909.842654575075
 42
2.414213562373095
 10
1130.3722195844516
 20
-3912.9577917804118
 10
1130.1366270496808
 20
-3921.9547077051916
 42
2.414213562373095
 10
1133.2517642550174
 20
-3925.2373773796985
  0
LWPOLYLINE
  5
120
330
17
100
AcDbEntity
  8
CUT
100
AcDbPolyline
 90
8
 70
1
 10
1085.5956192996975
 20
-3925.2373773796985
 42
2.414213562373095
 10
1088.7107565050342
 20
-3921.9547077051916
 10
1088.4751639702633
 20
-3912.9577917804118
 42
2.414213562373095
 10
1085.1924942957562
 20
-3909.842654575075
 10
1021.2144254973207
 20
-3911.517979266779
 42
2.414213562373095
 10
1018.0992882919841
 20
-3914.800648941286
 10
1018.3348808267549
 20
-3923.797564866066
 42
2.414213562373095
 10
1021.6175505012619
 20
-3926.9127020714027
  0
LWPOLYLINE
  5
121
330
17
100
AcDbEntity
  8
CUT
100
AcDbPolyline
 90
8
 70
1
 10
862.8289276705033
 20
-3939.409637712514
 42
2.414213562373095
 10
865.5838674117954
 20
-3935.8193303410135
 10
864.4091316818149
 20
-3926.896326588649
 42
2.414213562373095
 10
860.8188243103145
 20
-3924.1413868473574
 10
797.3663531823906
 20
-3932.4950631494407
 42
2.414213562373095
 10
794.6114134410986
 20
-3936.085370520941
 10
795.786149171079
 20
-3945.0083742733054
 42
2.414213562373095
 10
799.3764565425795
 20
-3947.763314014597
  0
LWPOLYLINE
  5
122
330
17
100
AcDbEntity
  8
CUT
100
AcDbPolyline
 90
8
 70
1
 10
752.3070378124978
 20
-3955.2183775565622
 42
2.414213562373095
 10
754.8702998351275
 20
-3951.4888081707827
 10
753.2301801056982
 20
-3942.6395140027075
 42
2.414213562373095
 10
749.5006107199187
 20
-3940.0762519800774
 10
686.5722966358255
 20
-3951.739325611575
 42
2.414213562373095
 10
684.0090346131958
 20
-3955.4688949973547
 10
685.6491543426251
 20
-3964.31818916543
 42
2.414213562373095
 10
689.3787237284047
 20
-3966.88145118806
  0
LWPOLYLINE
  5
123
330
17
100
AcDbEntity
  8
CUT
100
AcDbPolyline
 90
8
 70
1
 10
534.5000037809652
 20
-4004.064542080958
 42
2.414213562373095
 10
536.659377829491
 20
-4000.0874698263274
 10
534.1032397271556
 20
-3991.4580922125133
 42
2.414213562373095
 10
530.1261674725249
 20
-3989.298718163988
 10
468.76170444096056
 20
-4007.475700225039
 42
2.414213562373095
 10
466.60233039243485
 20
-4011.45277247967
 10
469.1584684947702
 20
-4020.0821500934835
 42
2.414213562373095
 10
473.1355407494009
 20
-4022.241524142009
  0
LWPOLYLINE
  5
124
330
17
100
AcDbEntity
  8
CUT
100
AcDbPolyline
 90
8
 70
1
 10
427.81185354813715
 20
-4036.9680828195987
 42
2.414213562373095
 10
429.7601243700841
 20
-4032.883448098556
 10
426.75586263698017
 20
-4024.399674678726
 42
2.414213562373095
 10
422.67122791593715
 20
-4022.4514038567795
 10
362.3421724860377
 20
-4043.815042847741
 42
2.414213562373095
 10
360.3939016640908
 20
-4047.8996775687838
 10
363.3981633971947
 20
-4056.3834509886137
 42
2.414213562373095
 10
367.4827981182377
 20
-4058.3317218105603
  0
LWPOLYLINE
  5
125
330
17
100
AcDbEntity
  8
CUT
100
AcDbPolyline
 90
8
 70
1
 10
220.3276091522257
 20
-4119.285396853858
 42
2.414213562373095
 10
221.83824655235867
 20
-4115.019488434152
 10
217.96364668108401
 20
-4106.896220875004
 42
2.414213562373095
 10
213.69773826137794
 20
-4105.38558347487
 10
155.93228006298682
 20
-4132.938293670601
 42
2.414213562373095
 10
154.42164266285386
 20
-4137.204202090307
 10
158.2962425341285
 20
-4145.327469649455
 42
2.414213562373095
 10
162.5621509538346
 20
-4146.838107049589
  0
TEXT
  5
126
330
17
100
AcDbEntity
  8
ENGRAVE-LABEL
100
AcDbText
 10
591.3633570394954
 20
-3981.4059141592875
 30
0.0
 40
11.0
  1
09 RAIL-BACK-TOP
 50
45.0
 72
1
 11
591.3633570394954
 21
-3981.4059141592875
 31
0.0
100
AcDbText
 73
2
  0
LWPOLYLINE
  5
127
330
17
100
AcDbEntity
  8
CUT
100
AcDbPolyline
 90
16
 70
1
 10
2138.074200068204
 20
-4104.0
 10
2146.4229184293436
 20
-4089.4212860057423
 42
-2.414213562373095
 10
2150.7900484018
 20
-4088.2346201708624
 10
2161.0298594215765
 20
-4094.09860092452
 10
2190.846710711361
 20
-4042.031765230742
 10
2180.6068996915847
 20
-4036.1677844770843
 42
-2.414213562373095
 10
2179.4202338567047
 20
-4031.8006545046273
 10
2187.7689522178443
 20
-4017.2219405103697
 42
0.26606311408005373
 10
21.077758493516512
 20
-4017.2219405103697
 10
29.42647685465613
 20
-4031.8006545046273
 42
-2.414213562373095
 10
28.239811019776425
 20
-4036.1677844770843
 10
18.0
 20
-4042.031765230742
 10
47.81685128978438
 20
-4094.09860092452
 10
58.05666230956081
 20
-4088.2346201708624
 42
-2.414213562373095
 10
62.42379228201753
 20
-4089.4212860057423
 10
70.77251064315715
 20
-4104.0
 42
-0.26606311408005373
  0
TEXT
  5
128
330
17
100
AcDbEntity
  8
ENGRAVE-LABEL
100
AcDbText
 10
214.52782278110783
 20
-3973.8407970703524
 30
0.0
 40
22.0
  1
04 RAIL-BASE-OUT
 50
15.0
 72
1
 11
214.52782278110783
 21
-3973.8407970703524
 31
0.0
100
AcDbText
 73
2
  0
LWPOLYLINE
  5
129
330
17
100
AcDbEntity
  8
CUT
100
AcDbPolyline
 90
16
 70
1
 10
1948.0814679405999
 20
-3880.0
 10
1956.4251582976806
 20
-3865.418407795266
 42
-2.414213562373095
 10
1960.7918787856452
 20
-3864.2302360147605
 10
1971.033711405637
 20
-3870.090685194139
 10
2000.8326055380676
 20
-3818.0135701772315
 10
1990.5907729180758
 20
-3812.1531209978534
 42
-2.414213562373095
 10
1989.4026011375704
 20
-3807.7864005098886
 10
1997.746291494651
 20
-3793.2048083051545
 42
0.2658784902514255
 10
21.086314043416564
 20
-3793.2048083051545
 10
29.430004400497182
 20
-3807.7864005098886
 42
-2.414213562373095
 10
28.241832619991783
 20
-3812.1531209978534
 10
18.0
 20
-3818.0135701772315
 10
47.79889413243063
 20
-3870.090685194139
 10
58.040726752422415
 20
-3864.2302360147605
 42
-2.414213562373095
 10
62.407447240387
 20
-3865.418407795266
 10
70.75113759746762
 20
-3880.0
 42
-0.2658784902514255
  0
TEXT
  5
12A
330
17
100
AcDbEntity
  8
ENGRAVE-LABEL
100
AcDbText
 10
244.43236403330383
 20
-3737.722481616611
 30
0.0
 40
22.0
  1
06 RAIL-SEAT-OUT
 50
15.0
 72
1
 11
244.43236403330383
 21
-3737.722481616611
 31
0.0
100
AcDbText
 73
2
  0
LWPOLYLINE
  5
12B
330
17
100
AcDbEntity
  8
CUT
100
AcDbPolyline
 90
16
 70
1
 10
1378.1153689451917
 20
-3548.0
 10
1386.4355944191634
 20
-3533.405006061588
 42
-2.414213562373095
 10
1390.80039811676
 20
-3532.2098120683613
 10
1401.0516438592158
 20
-3538.053779960794
 10
1430.7667348376863
 20
-3485.928801609324
 10
1420.5154890952304
 20
-3480.0848337168914
 42
-2.414213562373095
 10
1419.320295102004
 20
-3475.7200300192944
 10
1427.6405205759756
 20
-3461.125036080883
 42
0.2650175849784749
 10
21.12621426171063
 20
-3461.125036080883
 10
29.44643973568236
 20
-3475.7200300192944
 42
-2.414213562373095
 10
28.251245742455808
 20
-3480.0848337168914
 10
18.0
 20
-3485.928801609324
 10
47.71509097847036
 20
-3538.053779960794
 10
57.966336720926165
 20
-3532.2098120683613
 42
-2.414213562373095
 10
62.33114041852298
 20
-3533.405006061588
 10
70.6513658924946
 20
-3548.0
 42
-0.2650175849784749
  0
TEXT
  5
12C
330
17
100
AcDbEntity
  8
ENGRAVE-LABEL
100
AcDbText
 10
412.9361505511036
 20
-3360.6970760160275
 30
0.0
 40
22.0
  1
03 RAIL-BASE-IN
 72
1
 11
412.9361505511036
 21
-3360.6970760160275
 31
0.0
100
AcDbText
 73
2
  0
LWPOLYLINE
  5
12D
330
17
100
AcDbEntity
  8
CUT
100
AcDbPolyline
 90
16
 70
1
 10
2216.5291641265894
 20
-3957.146541522926
 10
2231.0318463807107
 20
-3948.666434953077
 42
-2.414213562373095
 10
2235.4095204424198
 20
-3949.813592226272
 10
2241.3657857712415
 20
-3960.0
 10
2293.1610795359616
 20
-3929.713905107684
 10
2287.2048142071394
 20
-3919.5274973339556
 42
-2.414213562373095
 10
2288.351971480334
 20
-3915.149823272247
 10
2302.8546537344555
 20
-3906.669716702398
 42
0.2649960448470079
 10
1093.4409461451373
 20
-3208.414387064081
 10
1093.34829955591
 20
-3225.2141316040884
 42
-2.414213562373095
 10
1090.1307012455795
 20
-3228.3964359756656
 10
1078.3308806758125
 20
-3228.331362776089
 10
1078.0
 20
-3288.330450418972
 10
1089.7998205697672
 20
-3288.3955236185484
 42
-2.414213562373095
 10
1092.9821249413442
 20
-3291.613121928879
 10
1092.8894783521166
 20
-3308.412866468886
 42
-0.2649960448470079
  0
TEXT
  5
12E
330
17
100
AcDbEntity
  8
ENGRAVE-LABEL
100
AcDbText
 10
1318.2029501026495
 20
-3278.486238381269
 30
0.0
 40
22.0
  1
05 RAIL-SEAT-IN
 72
1
 11
1318.2029501026495
 21
-3278.486238381269
 31
0.0
100
AcDbText
 73
2
  0
ENDSEC
  0
SECTION
  2
OBJECTS
  0
DICTIONARY
  5
A
330
0
100
AcDbDictionary
281
1
  3
ACAD_COLOR
350
B
  3
ACAD_GROUP
350
C
  3
ACAD_LAYOUT
350
D
  3
ACAD_MATERIAL
350
E
  3
ACAD_MLEADERSTYLE
350
F
  3
ACAD_MLINESTYLE
350
10
  3
ACAD_PLOTSETTINGS
350
11
  3
ACAD_PLOTSTYLENAME
350
12
  3
ACAD_SCALELIST
350
14
  3
ACAD_TABLESTYLE
350
15
  3
ACAD_VISUALSTYLE
350
16
  3
EZDXF_META
350
2D
  0
DICTIONARY
  5
B
330
A
100
AcDbDictionary
281
1
  0
DICTIONARY
  5
C
330
A
100
AcDbDictionary
281
1
  0
DICTIONARY
  5
D
330
A
100
AcDbDictionary
281
1
  3
Model
350
1A
  3
Layout1
350
1E
  0
DICTIONARY
  5
E
330
A
100
AcDbDictionary
281
1
  3
ByBlock
350
1F
  3
ByLayer
350
20
  3
Global
350
21
  0
DICTIONARY
  5
F
330
A
100
AcDbDictionary
281
1
  3
Standard
350
2C
  0
DICTIONARY
  5
10
330
A
100
AcDbDictionary
281
1
  3
Standard
350
22
  0
DICTIONARY
  5
11
330
A
100
AcDbDictionary
281
1
  0
ACDBDICTIONARYWDFLT
  5
12
330
A
100
AcDbDictionary
281
1
  3
Normal
350
13
100
AcDbDictionaryWithDefault
340
13
  0
ACDBPLACEHOLDER
  5
13
330
12
  0
DICTIONARY
  5
14
330
A
100
AcDbDictionary
281
1
  0
DICTIONARY
  5
15
330
A
100
AcDbDictionary
281
1
  0
DICTIONARY
  5
16
330
A
100
AcDbDictionary
281
1
  3
2dWireframe
350
5A
  3
Basic
350
5B
  3
Brighten
350
5C
  3
ColorChange
350
5D
  3
Conceptual
350
5E
  3
Dim
350
5F
  3
EdgeColorOff
350
60
  3
Facepattern
350
61
  3
Flat
350
62
  3
FlatWithEdges
350
63
  3
Gouraud
350
64
  3
GouraudWithEdges
350
65
  3
Hidden
350
66
  3
JitterOff
350
67
  3
Linepattern
350
68
  3
Modeling
350
69
  3
OverhangOff
350
6A
  3
Realistic
350
6B
  3
Shaded
350
6C
  3
Shaded with edges
350
6D
  3
Shades of Gray
350
6E
  3
Sketchy
350
6F
  3
Thicken
350
70
  3
Wireframe
350
71
  3
X-Ray
350
72
  0
LAYOUT
  5
1A
330
D
100
AcDbPlotSettings
  1

  4
A3
  6

 40
7.5
 41
20.0
 42
7.5
 43
20.0
 44
420.0
 45
297.0
 46
0.0
 47
0.0
 48
0.0
 49
0.0
140
0.0
141
0.0
142
1.0
143
1.0
 70
1024
 72
1
 73
0
 74
5
  7

 75
16
 76
0
 77
2
 78
300
147
1.0
148
0.0
149
0.0
100
AcDbLayout
  1
Model
 70
1
 71
0
 10
0.0
 20
0.0
 11
420.0
 21
297.0
 12
0.0
 22
0.0
 32
0.0
 14
1e+20
 24
1e+20
 34
1e+20
 15
-1e+20
 25
-1e+20
 35
-1e+20
146
0.0
 13
0.0
 23
0.0
 33
0.0
 16
1.0
 26
0.0
 36
0.0
 17
0.0
 27
1.0
 37
0.0
 76
1
330
17
  0
LAYOUT
  5
1E
330
D
100
AcDbPlotSettings
  1

  4
A3
  6

 40
7.5
 41
20.0
 42
7.5
 43
20.0
 44
420.0
 45
297.0
 46
0.0
 47
0.0
 48
0.0
 49
0.0
140
0.0
141
0.0
142
1.0
143
1.0
 70
0
 72
1
 73
0
 74
5
  7

 75
16
 76
0
 77
2
 78
300
147
1.0
148
0.0
149
0.0
100
AcDbLayout
  1
Layout1
 70
1
 71
1
 10
0.0
 20
0.0
 11
420.0
 21
297.0
 12
0.0
 22
0.0
 32
0.0
 14
1e+20
 24
1e+20
 34
1e+20
 15
-1e+20
 25
-1e+20
 35
-1e+20
146
0.0
 13
0.0
 23
0.0
 33
0.0
 16
1.0
 26
0.0
 36
0.0
 17
0.0
 27
1.0
 37
0.0
 76
1
330
1B
  0
MATERIAL
  5
1F
102
{ACAD_REACTORS
330
E
102
}
330
E
100
AcDbMaterial
  1
ByBlock
  2

 70
0
 40
1.0
 71
1
 41
1.0
 91
-1023410177
 42
1.0
 72
1
  3

 73
1
 74
1
 75
1
 44
0.5
 73
0
 45
1.0
 46
1.0
 77
1
  4

 78
1
 79
1
170
1
 48
1.0
171
1
  6

172
1
173
1
174
1
140
1.0
141
1.0
175
1
  7

176
1
177
1
178
1
143
1.0
179
1
  8

270
1
271
1
272
1
145
1.0
146
1.0
273
1
  9

274
1
275
1
276
1
 42
1.0
 72
1
  3

 73
1
 74
1
 75
1
 94
63
  0
MATERIAL
  5
20
102
{ACAD_REACTORS
330
E
102
}
330
E
100
AcDbMaterial
  1
ByLayer
  2

 70
0
 40
1.0
 71
1
 41
1.0
 91
-1023410177
 42
1.0
 72
1
  3

 73
1
 74
1
 75
1
 44
0.5
 73
0
 45
1.0
 46
1.0
 77
1
  4

 78
1
 79
1
170
1
 48
1.0
171
1
  6

172
1
173
1
174
1
140
1.0
141
1.0
175
1
  7

176
1
177
1
178
1
143
1.0
179
1
  8

270
1
271
1
272
1
145
1.0
146
1.0
273
1
  9

274
1
275
1
276
1
 42
1.0
 72
1
  3

 73
1
 74
1
 75
1
 94
63
  0
MATERIAL
  5
21
102
{ACAD_REACTORS
330
E
102
}
330
E
100
AcDbMaterial
  1
Global
  2

 70
0
 40
1.0
 71
1
 41
1.0
 91
-1023410177
 42
1.0
 72
1
  3

 73
1
 74
1
 75
1
 44
0.5
 73
0
 45
1.0
 46
1.0
 77
1
  4

 78
1
 79
1
170
1
 48
1.0
171
1
  6

172
1
173
1
174
1
140
1.0
141
1.0
175
1
  7

176
1
177
1
178
1
143
1.0
179
1
  8

270
1
271
1
272
1
145
1.0
146
1.0
273
1
  9

274
1
275
1
276
1
 42
1.0
 72
1
  3

 73
1
 74
1
 75
1
 94
63
  0
MLINESTYLE
  5
22
102
{ACAD_REACTORS
330
10
102
}
330
10
100
AcDbMlineStyle
  2
Standard
 70
0
  3

 62
256
 51
90.0
 52
90.0
 71
2
 49
0.5
 62
256
  6
BYLAYER
 49
-0.5
 62
256
  6
BYLAYER
  0
MLEADERSTYLE
  5
2C
102
{ACAD_REACTORS
330
F
102
}
330
F
100
AcDbMLeaderStyle
179
2
170
2
171
1
172
0
 90
2
 40
0.0
 41
0.0
173
1
 91
-1056964608
 92
-2
290
1
 42
2.0
291
1
 43
8.0
  3
Standard
 44
4.0
300

342
29
174
1
175
1
176
0
178
1
 93
-1056964608
 45
4.0
292
0
297
0
 46
4.0
 94
-1056964608
 47
1.0
 49
1.0
140
1.0
294
1
141
0.0
177
0
142
1.0
295
0
296
0
143
3.75
271
0
272
9
273
9
  0
DICTIONARY
  5
2D
330
A
100
AcDbDictionary
280
1
281
1
  3
CREATED_BY_EZDXF
350
2E
  3
WRITTEN_BY_EZDXF
350
131
  0
DICTIONARYVAR
  5
2E
330
2D
100
DictionaryVariables
280
0
  1
1.4.4 @ 2026-09-26T22:50:08.180132+00:00
  0
VISUALSTYLE
  5
5A
102
{ACAD_REACTORS
330
16
102
}
330
16
100
AcDbVisualStyle
  2
2dWireframe
 70
4
 90
0
 40
0.6
 62
7
290
0
291
0
  0
VISUALSTYLE
  5
5B
102
{ACAD_REACTORS
330
16
102
}
330
16
100
AcDbVisualStyle
  2
Basic
 70
7
 90
1
 40
0.6
 62
7
290
0
291
1
  0
VISUALSTYLE
  5
5C
102
{ACAD_REACTORS
330
16
102
}
330
16
100
AcDbVisualStyle
  2
Brighten
 70
12
 90
2
 40
0.6
 62
7
290
0
291
1
  0
VISUALSTYLE
  5
5D
102
{ACAD_REACTORS
330
16
102
}
330
16
100
AcDbVisualStyle
  2
ColorChange
 70
16
 90
2
 40
0.6
 62
8
290
0
291
1
  0
VISUALSTYLE
  5
5E
102
{ACAD_REACTORS
330
16
102
}
330
16
100
AcDbVisualStyle
  2
Conceptual
 70
9
 90
3
 40
0.6
 62
7
290
0
291
0
  0
VISUALSTYLE
  5
5F
102
{ACAD_REACTORS
330
16
102
}
330
16
100
AcDbVisualStyle
  2
Dim
 70
11
 90
2
 40
0.6
 62
7
290
0
291
1
  0
VISUALSTYLE
  5
60
102
{ACAD_REACTORS
330
16
102
}
330
16
100
AcDbVisualStyle
  2
EdgeColorOff
 70
22
 90
2
 40
0.6
 62
7
290
0
291
1
  0
VISUALSTYLE
  5
61
102
{ACAD_REACTORS
330
16
102
}
330
16
100
AcDbVisualStyle
  2
Facepattern
 70
15
 90
2
 40
0.6
 62
7
290
0
291
1
  0
VISUALSTYLE
  5
62
102
{ACAD_REACTORS
330
16
102
}
330
16
100
AcDbVisualStyle
  2
Flat
 70
0
 90
2
 40
0.6
 62
7
290
0
291
1
  0
VISUALSTYLE
  5
63
102
{ACAD_REACTORS
330
16
102
}
330
16
100
AcDbVisualStyle
  2
FlatWithEdges
 70
1
 90
2
 40
0.6
 62
7
290
0
291
1
  0
VISUALSTYLE
  5
64
102
{ACAD_REACTORS
330
16
102
}
330
16
100
AcDbVisualStyle
  2
Gouraud
 70
2
 90
2
 40
0.6
 62
7
290
0
291
1
  0
VISUALSTYLE
  5
65
102
{ACAD_REACTORS
330
16
102
}
330
16
100
AcDbVisualStyle
  2
GouraudWithEdges
 70
3
 90
2
 40
0.6
 62
7
290
0
291
1
  0
VISUALSTYLE
  5
66
102
{ACAD_REACTORS
330
16
102
}
330
16
100
AcDbVisualStyle
  2
Hidden
 70
6
 90
1
 40
0.6
 62
7
290
0
291
0
  0
VISUALSTYLE
  5
67
102
{ACAD_REACTORS
330
16
102
}
330
16
100
AcDbVisualStyle
  2
JitterOff
 70
20
 90
2
 40
0.6
 62
7
290
0
291
1
  0
VISUALSTYLE
  5
68
102
{ACAD_REACTORS
330
16
102
}
330
16
100
AcDbVisualStyle
  2
Linepattern
 70
14
 90
2
 40
0.6
 62
7
290
0
291
1
  0
VISUALSTYLE
  5
69
102
{ACAD_REACTORS
330
16
102
}
330
16
100
AcDbVisualStyle
  2
Modeling
 70
10
 90
2
 40
0.6
 62
7
290
0
291
0
  0
VISUALSTYLE
  5
6A
102
{ACAD_REACTORS
330
16
102
}
330
16
100
AcDbVisualStyle
  2
OverhangOff
 70
21
 90
2
 40
0.6
 62
7
290
0
291
1
  0
VISUALSTYLE
  5
6B
102
{ACAD_REACTORS
330
16
102
}
330
16
100
AcDbVisualStyle
  2
Realistic
 70
8
 90
2
 40
0.6
 62
7
290
0
291
0
  0
VISUALSTYLE
  5
6C
102
{ACAD_REACTORS
330
16
102
}
330
16
100
AcDbVisualStyle
  2
Shaded
 70
27
 90
2
 40
0.6
 62
7
290
0
291
0
  0
VISUALSTYLE
  5
6D
102
{ACAD_REACTORS
330
16
102
}
330
16
100
AcDbVisualStyle
  2
Shaded with edges
 70
26
 90
2
 40
0.6
 62
7
290
0
291
0
  0
VISUALSTYLE
  5
6E
102
{ACAD_REACTORS
330
16
102
}
330
16
100
AcDbVisualStyle
  2
Shades of Gray
 70
23
 90
2
 40
0.6
 62
7
290
0
291
0
  0
VISUALSTYLE
  5
6F
102
{ACAD_REACTORS
330
16
102
}
330
16
100
AcDbVisualStyle
  2
Sketchy
 70
24
 90
1
 40
0.6
 62
7
290
0
291
0
  0
VISUALSTYLE
  5
70
102
{ACAD_REACTORS
330
16
102
}
330
16
100
AcDbVisualStyle
  2
Thicken
 70
13
 90
2
 40
0.6
 62
7
290
0
291
1
  0
VISUALSTYLE
  5
71
102
{ACAD_REACTORS
330
16
102
}
330
16
100
AcDbVisualStyle
  2
Wireframe
 70
5
 90
0
 40
0.6
 62
7
290
0
291
0
  0
VISUALSTYLE
  5
72
102
{ACAD_REACTORS
330
16
102
}
330
16
100
AcDbVisualStyle
  2
X-Ray
 70
25
 90
2
 40
0.5
 62
7
290
0
291
0
  0
DICTIONARYVAR
  5
131
330
2D
100
DictionaryVariables
280
0
  1
1.4.4 @ 2026-09-26T22:50:08.351483+00:00
  0
ENDSEC
  0
EOF
