999
cadgen:sourcePath=../curved-sofa.dxf.py
999
cadgen:sourceHash=15f06a97d71368008719a047d2fdb31d6eaacdf8bf8df3607031d9d58e742969
  0
SECTION
  2
HEADER
  9
$ACADVER
  1
AC1024
  9
$ACADMAINTVER
 70
6
  9
$DWGCODEPAGE
  3
ANSI_1252
  9
$LASTSAVEDBY
  1
ezdxf
  9
$INSBASE
 10
0.0
 20
0.0
 30
0.0
  9
$EXTMIN
 10
1e+20
 20
1e+20
 30
1e+20
  9
$EXTMAX
 10
-1e+20
 20
-1e+20
 30
-1e+20
  9
$LIMMIN
 10
0.0
 20
0.0
  9
$LIMMAX
 10
420.0
 20
297.0
  9
$ORTHOMODE
 70
0
  9
$REGENMODE
 70
1
  9
$FILLMODE
 70
1
  9
$QTEXTMODE
 70
0
  9
$MIRRTEXT
 70
1
  9
$LTSCALE
 40
1.0
  9
$ATTMODE
 70
1
  9
$TEXTSIZE
 40
2.5
  9
$TRACEWID
 40
1.0
  9
$TEXTSTYLE
  7
OpenSans
  9
$CLAYER
  8
0
  9
$CELTYPE
  6
ByLayer
  9
$CECOLOR
 62
256
  9
$CELTSCALE
 40
1.0
  9
$DISPSILH
 70
0
  9
$DIMSCALE
 40
1.0
  9
$DIMASZ
 40
0.175
  9
$DIMEXO
 40
0.125
  9
$DIMDLI
 40
3.75
  9
$DIMRND
 40
0.0
  9
$DIMDLE
 40
0.0
  9
$DIMEXE
 40
0.375
  9
$DIMTP
 40
0.0
  9
$DIMTM
 40
0.0
  9
$DIMTXT
 40
0.25
  9
$DIMCEN
 40
2.5
  9
$DIMTSZ
 40
0.0
  9
$DIMTOL
 70
0
  9
$DIMLIM
 70
0
  9
$DIMTIH
 70
0
  9
$DIMTOH
 70
0
  9
$DIMSE1
 70
0
  9
$DIMSE2
 70
0
  9
$DIMTAD
 70
1
  9
$DIMZIN
 70
12
  9
$DIMBLK
  1
ARCHTICK
  9
$DIMASO
 70
1
  9
$DIMSHO
 70
1
  9
$DIMPOST
  1

  9
$DIMAPOST
  1

  9
$DIMALT
 70
0
  9
$DIMALTD
 70
3
  9
$DIMALTF
 40
0.03937007874
  9
$DIMLFAC
 40
100.0
  9
$DIMTOFL
 70
1
  9
$DIMTVP
 40
0.0
  9
$DIMTIX
 70
0
  9
$DIMSOXD
 70
0
  9
$DIMSAH
 70
0
  9
$DIMBLK1
  1

  9
$DIMBLK2
  1

  9
$DIMSTYLE
  2
EZDXF
  9
$DIMCLRD
 70
0
  9
$DIMCLRE
 70
0
  9
$DIMCLRT
 70
0
  9
$DIMTFAC
 40
0.5
  9
$DIMGAP
 40
0.1
  9
$DIMJUST
 70
0
  9
$DIMSD1
 70
0
  9
$DIMSD2
 70
0
  9
$DIMTOLJ
 70
0
  9
$DIMTZIN
 70
8
  9
$DIMALTZ
 70
0
  9
$DIMALTTZ
 70
0
  9
$DIMUPT
 70
1
  9
$DIMDEC
 70
2
  9
$DIMTDEC
 70
2
  9
$DIMALTU
 70
2
  9
$DIMALTTD
 70
3
  9
$DIMTXSTY
  7
OpenSansCondensed-Light
  9
$DIMAUNIT
 70
0
  9
$DIMADEC
 70
2
  9
$DIMALTRND
 40
0.0
  9
$DIMAZIN
 70
3
  9
$DIMDSEP
 70
46
  9
$DIMATFIT
 70
3
  9
$DIMFRAC
 70
0
  9
$DIMLDRBLK
  1

  9
$DIMLUNIT
 70
2
  9
$DIMLWD
 70
-2
  9
$DIMLWE
 70
-2
  9
$DIMTMOVE
 70
2
  9
$DIMFXL
 40
1.0
  9
$DIMFXLON
 70
0
  9
$DIMJOGANG
 40
0.785398163397
  9
$DIMTFILL
 70
0
  9
$DIMTFILLCLR
 70
0
  9
$DIMARCSYM
 70
0
  9
$DIMLTYPE
  6

  9
$DIMLTEX1
  6

  9
$DIMLTEX2
  6

  9
$DIMTXTDIRECTION
 70
0
  9
$LUNITS
 70
2
  9
$LUPREC
 70
4
  9
$SKETCHINC
 40
1.0
  9
$FILLETRAD
 40
10.0
  9
$AUNITS
 70
0
  9
$AUPREC
 70
2
  9
$MENU
  1
.
  9
$ELEVATION
 40
0.0
  9
$PELEVATION
 40
0.0
  9
$THICKNESS
 40
0.0
  9
$LIMCHECK
 70
0
  9
$CHAMFERA
 40
0.0
  9
$CHAMFERB
 40
0.0
  9
$CHAMFERC
 40
0.0
  9
$CHAMFERD
 40
0.0
  9
$SKPOLY
 70
0
  9
$TDCREATE
 40
2451545.0
  9
$TDUCREATE
 40
2451545.0
  9
$TDUPDATE
 40
2461277.5882060183
  9
$TDUUPDATE
 40
2451545.0
  9
$TDINDWG
 40
0.0
  9
$TDUSRTIMER
 40
0.0
  9
$USRTIMER
 70
1
  9
$ANGBASE
 50
0.0
  9
$ANGDIR
 70
0
  9
$PDMODE
 70
0
  9
$PDSIZE
 40
0.0
  9
$PLINEWID
 40
0.0
  9
$SPLFRAME
 70
0
  9
$SPLINETYPE
 70
6
  9
$SPLINESEGS
 70
8
  9
$HANDSEED
  5
140
  9
$SURFTAB1
 70
6
  9
$SURFTAB2
 70
6
  9
$SURFTYPE
 70
6
  9
$SURFU
 70
6
  9
$SURFV
 70
6
  9
$UCSBASE
  2

  9
$UCSNAME
  2

  9
$UCSORG
 10
0.0
 20
0.0
 30
0.0
  9
$UCSXDIR
 10
1.0
 20
0.0
 30
0.0
  9
$UCSYDIR
 10
0.0
 20
1.0
 30
0.0
  9
$UCSORTHOREF
  2

  9
$UCSORTHOVIEW
 70
0
  9
$UCSORGTOP
 10
0.0
 20
0.0
 30
0.0
  9
$UCSORGBOTTOM
 10
0.0
 20
0.0
 30
0.0
  9
$UCSORGLEFT
 10
0.0
 20
0.0
 30
0.0
  9
$UCSORGRIGHT
 10
0.0
 20
0.0
 30
0.0
  9
$UCSORGFRONT
 10
0.0
 20
0.0
 30
0.0
  9
$UCSORGBACK
 10
0.0
 20
0.0
 30
0.0
  9
$PUCSBASE
  2

  9
$PUCSNAME
  2

  9
$PUCSORG
 10
0.0
 20
0.0
 30
0.0
  9
$PUCSXDIR
 10
1.0
 20
0.0
 30
0.0
  9
$PUCSYDIR
 10
0.0
 20
1.0
 30
0.0
  9
$PUCSORTHOREF
  2

  9
$PUCSORTHOVIEW
 70
0
  9
$PUCSORGTOP
 10
0.0
 20
0.0
 30
0.0
  9
$PUCSORGBOTTOM
 10
0.0
 20
0.0
 30
0.0
  9
$PUCSORGLEFT
 10
0.0
 20
0.0
 30
0.0
  9
$PUCSORGRIGHT
 10
0.0
 20
0.0
 30
0.0
  9
$PUCSORGFRONT
 10
0.0
 20
0.0
 30
0.0
  9
$PUCSORGBACK
 10
0.0
 20
0.0
 30
0.0
  9
$USERI1
 70
0
  9
$USERI2
 70
0
  9
$USERI3
 70
0
  9
$USERI4
 70
0
  9
$USERI5
 70
0
  9
$USERR1
 40
0.0
  9
$USERR2
 40
0.0
  9
$USERR3
 40
0.0
  9
$USERR4
 40
0.0
  9
$USERR5
 40
0.0
  9
$WORLDVIEW
 70
1
  9
$SHADEDGE
 70
3
  9
$SHADEDIF
 70
70
  9
$TILEMODE
 70
1
  9
$MAXACTVP
 70
64
  9
$PINSBASE
 10
0.0
 20
0.0
 30
0.0
  9
$PLIMCHECK
 70
0
  9
$PEXTMIN
 10
1e+20
 20
1e+20
 30
1e+20
  9
$PEXTMAX
 10
-1e+20
 20
-1e+20
 30
-1e+20
  9
$PLIMMIN
 10
0.0
 20
0.0
  9
$PLIMMAX
 10
420.0
 20
297.0
  9
$UNITMODE
 70
0
  9
$VISRETAIN
 70
1
  9
$PLINEGEN
 70
0
  9
$PSLTSCALE
 70
1
  9
$TREEDEPTH
 70
3020
  9
$CMLSTYLE
  2
Standard
  9
$CMLJUST
 70
0
  9
$CMLSCALE
 40
20.0
  9
$PROXYGRAPHICS
 70
1
  9
$MEASUREMENT
 70
1
  9
$CELWEIGHT
370
-1
  9
$ENDCAPS
280
0
  9
$JOINSTYLE
280
0
  9
$LWDISPLAY
290
0
  9
$INSUNITS
 70
4
  9
$HYPERLINKBASE
  1

  9
$STYLESHEET
  1

  9
$XEDIT
290
1
  9
$CEPSNTYPE
380
0
  9
$PSTYLEMODE
290
1
  9
$FINGERPRINTGUID
  2
{00000000-0000-0000-0000-000000000000}
  9
$VERSIONGUID
  2
{7A34047A-FEDD-44E9-8CD3-E4DA5AB02D8E}
  9
$EXTNAMES
290
1
  9
$PSVPSCALE
 40
0.0
  9
$OLESTARTUP
290
0
  9
$SORTENTS
280
127
  9
$INDEXCTL
280
0
  9
$HIDETEXT
280
1
  9
$XCLIPFRAME
280
1
  9
$HALOGAP
280
0
  9
$OBSCOLOR
 70
257
  9
$OBSLTYPE
280
0
  9
$INTERSECTIONDISPLAY
280
0
  9
$INTERSECTIONCOLOR
 70
257
  9
$DIMASSOC
280
2
  9
$PROJECTNAME
  1

  9
$CAMERADISPLAY
290
0
  9
$LENSLENGTH
 40
50.0
  9
$CAMERAHEIGHT
 40
0.0
  9
$STEPSPERSEC
 40
24.0
  9
$STEPSIZE
 40
100.0
  9
$3DDWFPREC
 40
2.0
  9
$PSOLWIDTH
 40
0.005
  9
$PSOLHEIGHT
 40
0.08
  9
$LOFTANG1
 40
1.570796326795
  9
$LOFTANG2
 40
1.570796326795
  9
$LOFTMAG1
 40
0.0
  9
$LOFTMAG2
 40
0.0
  9
$LOFTPARAM
 70
7
  9
$LOFTNORMALS
280
1
  9
$LATITUDE
 40
37.795
  9
$LONGITUDE
 40
-122.394
  9
$NORTHDIRECTION
 40
0.0
  9
$TIMEZONE
 70
-8000
  9
$LIGHTGLYPHDISPLAY
280
1
  9
$TILEMODELIGHTSYNCH
280
1
  9
$CMATERIAL
347
20
  9
$SOLIDHIST
280
0
  9
$SHOWHIST
280
1
  9
$DWFFRAME
280
2
  9
$DGNFRAME
280
2
  9
$REALWORLDSCALE
290
1
  9
$INTERFERECOLOR
 62
256
  9
$CSHADOW
280
0
  9
$SHADOWPLANELOCATION
 40
0.0
  0
ENDSEC
  0
SECTION
  2
CLASSES
  0
CLASS
  1
ACDBDICTIONARYWDFLT
  2
AcDbDictionaryWithDefault
  3
ObjectDBX Classes
 90
0
 91
0
280
0
281
0
  0
CLASS
  1
SUN
  2
AcDbSun
  3
SCENEOE
 90
1153
 91
0
280
0
281
0
  0
CLASS
  1
VISUALSTYLE
  2
AcDbVisualStyle
  3
ObjectDBX Classes
 90
4095
 91
0
280
0
281
0
  0
CLASS
  1
MATERIAL
  2
AcDbMaterial
  3
ObjectDBX Classes
 90
1153
 91
0
280
0
281
0
  0
CLASS
  1
SCALE
  2
AcDbScale
  3
ObjectDBX Classes
 90
1153
 91
0
280
0
281
0
  0
CLASS
  1
TABLESTYLE
  2
AcDbTableStyle
  3
ObjectDBX Classes
 90
4095
 91
0
280
0
281
0
  0
CLASS
  1
MLEADERSTYLE
  2
AcDbMLeaderStyle
  3
ACDB_MLEADERSTYLE_CLASS
 90
4095
 91
0
280
0
281
0
  0
CLASS
  1
DICTIONARYVAR
  2
AcDbDictionaryVar
  3
ObjectDBX Classes
 90
0
 91
0
280
0
281
0
  0
CLASS
  1
CELLSTYLEMAP
  2
AcDbCellStyleMap
  3
ObjectDBX Classes
 90
1152
 91
0
280
0
281
0
  0
CLASS
  1
MENTALRAYRENDERSETTINGS
  2
AcDbMentalRayRenderSettings
  3
SCENEOE
 90
1024
 91
0
280
0
281
0
  0
CLASS
  1
ACDBDETAILVIEWSTYLE
  2
AcDbDetailViewStyle
  3
ObjectDBX Classes
 90
1025
 91
0
280
0
281
0
  0
CLASS
  1
ACDBSECTIONVIEWSTYLE
  2
AcDbSectionViewStyle
  3
ObjectDBX Classes
 90
1025
 91
0
280
0
281
0
  0
CLASS
  1
RASTERVARIABLES
  2
AcDbRasterVariables
  3
ISM
 90
0
 91
0
280
0
281
0
  0
CLASS
  1
ACDBPLACEHOLDER
  2
AcDbPlaceHolder
  3
ObjectDBX Classes
 90
0
 91
0
280
0
281
0
  0
CLASS
  1
LAYOUT
  2
AcDbLayout
  3
ObjectDBX Classes
 90
0
 91
0
280
0
281
0
  0
ENDSEC
  0
SECTION
  2
TABLES
  0
TABLE
  2
VPORT
  5
8
330
0
100
AcDbSymbolTable
 70
1
  0
VPORT
  5
23
330
8
100
AcDbSymbolTableRecord
100
AcDbViewportTableRecord
  2
*Active
 70
0
 10
0.0
 20
0.0
 11
1.0
 21
1.0
 12
0.0
 22
0.0
 13
0.0
 23
0.0
 14
0.5
 24
0.5
 15
0.5
 25
0.5
 16
0.0
 26
0.0
 36
1.0
 17
0.0
 27
0.0
 37
0.0
 40
1000.0
 41
1.34
 42
50.0
 43
0.0
 44
0.0
 50
0.0
 51
0.0
 71
0
 72
1000
 73
1
 74
3
 75
0
 76
0
 77
0
 78
0
281
0
 65
0
146
0.0
  0
ENDTAB
  0
TABLE
  2
LTYPE
  5
2
330
0
100
AcDbSymbolTable
 70
21
  0
LTYPE
  5
24
330
2
100
AcDbSymbolTableRecord
100
AcDbLinetypeTableRecord
  2
ByBlock
 70
0
  3

 72
65
 73
0
 40
0.0
  0
LTYPE
  5
25
330
2
100
AcDbSymbolTableRecord
100
AcDbLinetypeTableRecord
  2
ByLayer
 70
0
  3

 72
65
 73
0
 40
0.0
  0
LTYPE
  5
26
330
2
100
AcDbSymbolTableRecord
100
AcDbLinetypeTableRecord
  2
Continuous
 70
0
  3

 72
65
 73
0
 40
0.0
  0
LTYPE
  5
2F
330
2
100
AcDbSymbolTableRecord
100
AcDbLinetypeTableRecord
  2
CENTER
 70
0
  3
Center ____ _ ____ _ ____ _ ____ _ ____ _ ____
 72
65
 73
4
 40
5.08
 49
3.175
 74
0
 49
-0.635
 74
0
 49
0.635
 74
0
 49
-0.635
 74
0
  0
LTYPE
  5
30
330
2
100
AcDbSymbolTableRecord
100
AcDbLinetypeTableRecord
  2
CENTERX2
 70
0
  3
Center (2x) ________  __  ________  __  ________
 72
65
 73
4
 40
8.89
 49
6.35
 74
0
 49
-0.635
 74
0
 49
1.27
 74
0
 49
-0.635
 74
0
  0
LTYPE
  5
31
330
2
100
AcDbSymbolTableRecord
100
AcDbLinetypeTableRecord
  2
CENTER2
 70
0
  3
Center (.5x) ____ _ ____ _ ____ _ ____ _ ____
 72
65
 73
4
 40
2.54
 49
1.587
 74
0
 49
-0.318
 74
0
 49
0.318
 74
0
 49
-0.318
 74
0
  0
LTYPE
  5
32
330
2
100
AcDbSymbolTableRecord
100
AcDbLinetypeTableRecord
  2
DASHED
 70
0
  3
Dashed __ __ __ __ __ __ __ __ __ __ __ __ __ _
 72
65
 73
2
 40
1.524
 49
1.27
 74
0
 49
-0.254
 74
0
  0
LTYPE
  5
33
330
2
100
AcDbSymbolTableRecord
100
AcDbLinetypeTableRecord
  2
DASHEDX2
 70
0
  3
Dashed (2x) ____  ____  ____  ____  ____  ____
 72
65
 73
2
 40
3.048
 49
2.54
 74
0
 49
-0.508
 74
0
  0
LTYPE
  5
34
330
2
100
AcDbSymbolTableRecord
100
AcDbLinetypeTableRecord
  2
DASHED2
 70
0
  3
Dashed (.5x) _ _ _ _ _ _ _ _ _ _ _ _ _ _
 72
65
 73
2
 40
0.762
 49
0.635
 74
0
 49
-0.127
 74
0
  0
LTYPE
  5
35
330
2
100
AcDbSymbolTableRecord
100
AcDbLinetypeTableRecord
  2
PHANTOM
 70
0
  3
Phantom ______  __  __  ______  __  __  ______
 72
65
 73
6
 40
6.35
 49
3.175
 74
0
 49
-0.635
 74
0
 49
0.635
 74
0
 49
-0.635
 74
0
 49
0.635
 74
0
 49
-0.635
 74
0
  0
LTYPE
  5
36
330
2
100
AcDbSymbolTableRecord
100
AcDbLinetypeTableRecord
  2
PHANTOMX2
 70
0
  3
Phantom (2x)____________    ____    ____    ____________
 72
65
 73
6
 40
10.795
 49
6.35
 74
0
 49
-0.635
 74
0
 49
1.27
 74
0
 49
-0.635
 74
0
 49
1.27
 74
0
 49
-0.635
 74
0
  0
LTYPE
  5
37
330
2
100
AcDbSymbolTableRecord
100
AcDbLinetypeTableRecord
  2
PHANTOM2
 70
0
  3
Phantom (.5x) ___ _ _ ___ _ _ ___ _ _ ___ _ _ ___
 72
65
 73
6
 40
3.175
 49
1.587
 74
0
 49
-0.318
 74
0
 49
0.318
 74
0
 49
-0.318
 74
0
 49
0.318
 74
0
 49
-0.318
 74
0
  0
LTYPE
  5
38
330
2
100
AcDbSymbolTableRecord
100
AcDbLinetypeTableRecord
  2
DASHDOT
 70
0
  3
Dash dot __ . __ . __ . __ . __ . __ . __ . __
 72
65
 73
4
 40
3.556
 49
2.54
 74
0
 49
-0.508
 74
0
 49
0.0
 74
0
 49
-0.508
 74
0
  0
LTYPE
  5
39
330
2
100
AcDbSymbolTableRecord
100
AcDbLinetypeTableRecord
  2
DASHDOTX2
 70
0
  3
Dash dot (2x) ____  .  ____  .  ____  .  ____
 72
65
 73
4
 40
6.096
 49
5.08
 74
0
 49
-0.508
 74
0
 49
0.0
 74
0
 49
-0.508
 74
0
  0
LTYPE
  5
3A
330
2
100
AcDbSymbolTableRecord
100
AcDbLinetypeTableRecord
  2
DASHDOT2
 70
0
  3
Dash dot (.5x) _ . _ . _ . _ . _ . _ . _ . _
 72
65
 73
4
 40
1.778
 49
1.27
 74
0
 49
-0.254
 74
0
 49
0.0
 74
0
 49
-0.254
 74
0
  0
LTYPE
  5
3B
330
2
100
AcDbSymbolTableRecord
100
AcDbLinetypeTableRecord
  2
DOT
 70
0
  3
Dot .  .  .  .  .  .  .  .  .  .  .  .  .  .  .  .
 72
65
 73
2
 40
0.508
 49
0.0
 74
0
 49
-0.508
 74
0
  0
LTYPE
  5
3C
330
2
100
AcDbSymbolTableRecord
100
AcDbLinetypeTableRecord
  2
DOTX2
 70
0
  3
Dot (2x) .    .    .    .    .    .    .    . 
 72
65
 73
2
 40
1.016
 49
0.0
 74
0
 49
-1.016
 74
0
  0
LTYPE
  5
3D
330
2
100
AcDbSymbolTableRecord
100
AcDbLinetypeTableRecord
  2
DOT2
 70
0
  3
Dot (.5) . . . . . . . . . . . . . . . . . . . 
 72
65
 73
2
 40
0.254
 49
0.0
 74
0
 49
-0.254
 74
0
  0
LTYPE
  5
3E
330
2
100
AcDbSymbolTableRecord
100
AcDbLinetypeTableRecord
  2
DIVIDE
 70
0
  3
Divide __ . . __ . . __ . . __ . . __ . . __
 72
65
 73
6
 40
4.064
 49
2.54
 74
0
 49
-0.508
 74
0
 49
0.0
 74
0
 49
-0.508
 74
0
 49
0.0
 74
0
 49
-0.508
 74
0
  0
LTYPE
  5
3F
330
2
100
AcDbSymbolTableRecord
100
AcDbLinetypeTableRecord
  2
DIVIDEX2
 70
0
  3
Divide (2x) ____  . .  ____  . .  ____  . .  ____
 72
65
 73
6
 40
6.604
 49
5.08
 74
0
 49
-0.508
 74
0
 49
0.0
 74
0
 49
-0.508
 74
0
 49
0.0
 74
0
 49
-0.508
 74
0
  0
LTYPE
  5
40
330
2
100
AcDbSymbolTableRecord
100
AcDbLinetypeTableRecord
  2
DIVIDE2
 70
0
  3
Divide(.5x) _ . _ . _ . _ . _ . _ . _ . _
 72
65
 73
6
 40
2.032
 49
1.27
 74
0
 49
-0.254
 74
0
 49
0.0
 74
0
 49
-0.254
 74
0
 49
0.0
 74
0
 49
-0.254
 74
0
  0
ENDTAB
  0
TABLE
  2
LAYER
  5
1
330
0
100
AcDbSymbolTable
 70
5
  0
LAYER
  5
27
330
1
100
AcDbSymbolTableRecord
100
AcDbLayerTableRecord
  2
0
 70
0
 62
7
  6
Continuous
370
-3
390
13
347
21
  0
LAYER
  5
28
330
1
100
AcDbSymbolTableRecord
100
AcDbLayerTableRecord
  2
Defpoints
 70
0
 62
7
  6
Continuous
290
0
370
-3
390
13
347
21
  0
LAYER
  5
8A
330
1
100
AcDbSymbolTableRecord
100
AcDbLayerTableRecord
  2
CUT
 70
0
 62
1
  6
Continuous
370
-3
390
13
347
21
  0
LAYER
  5
8B
330
1
100
AcDbSymbolTableRecord
100
AcDbLayerTableRecord
  2
ENGRAVE-LABEL
 70
0
 62
3
  6
Continuous
370
-3
390
13
347
21
  0
LAYER
  5
8C
330
1
100
AcDbSymbolTableRecord
100
AcDbLayerTableRecord
  2
REFERENCE-SHEET
 70
0
 62
8
  6
Continuous
370
-3
390
13
347
21
  0
ENDTAB
  0
TABLE
  2
STYLE
  5
5
330
0
100
AcDbSymbolTable
 70
26
  0
STYLE
  5
29
330
5
100
AcDbSymbolTableRecord
100
AcDbTextStyleTableRecord
  2
Standard
 70
0
 40
0.0
 41
1.0
 50
0.0
 71
0
 42
2.5
  3
txt
  4

  0
STYLE
  5
41
330
5
100
AcDbSymbolTableRecord
100
AcDbTextStyleTableRecord
  2
OpenSans-Light
 70
0
 40
0.0
 41
1.0
 50
0.0
 71
0
 42
2.5
  3
OpenSans-Light.ttf
  4

  0
STYLE
  5
42
330
5
100
AcDbSymbolTableRecord
100
AcDbTextStyleTableRecord
  2
OpenSans-Light-Italic
 70
0
 40
0.0
 41
1.0
 50
0.0
 71
0
 42
2.5
  3
OpenSans-LightItalic.ttf
  4

  0
STYLE
  5
43
330
5
100
AcDbSymbolTableRecord
100
AcDbTextStyleTableRecord
  2
OpenSans
 70
0
 40
0.0
 41
1.0
 50
0.0
 71
0
 42
2.5
  3
OpenSans-Regular.ttf
  4

  0
STYLE
  5
44
330
5
100
AcDbSymbolTableRecord
100
AcDbTextStyleTableRecord
  2
OpenSans-Italic
 70
0
 40
0.0
 41
1.0
 50
0.0
 71
0
 42
2.5
  3
OpenSans-Italic.ttf
  4

  0
STYLE
  5
45
330
5
100
AcDbSymbolTableRecord
100
AcDbTextStyleTableRecord
  2
OpenSans-SemiBold
 70
0
 40
0.0
 41
1.0
 50
0.0
 71
0
 42
2.5
  3
OpenSans-SemiBold.ttf
  4

  0
STYLE
  5
46
330
5
100
AcDbSymbolTableRecord
100
AcDbTextStyleTableRecord
  2
OpenSans-SemiBoldItalic
 70
0
 40
0.0
 41
1.0
 50
0.0
 71
0
 42
2.5
  3
OpenSans-SemiBoldItalic.ttf
  4

  0
STYLE
  5
47
330
5
100
AcDbSymbolTableRecord
100
AcDbTextStyleTableRecord
  2
OpenSans-Bold
 70
0
 40
0.0
 41
1.0
 50
0.0
 71
0
 42
2.5
  3
OpenSans-Bold.ttf
  4

  0
STYLE
  5
48
330
5
100
AcDbSymbolTableRecord
100
AcDbTextStyleTableRecord
  2
OpenSans-BoldItalic
 70
0
 40
0.0
 41
1.0
 50
0.0
 71
0
 42
2.5
  3
OpenSans-BoldItalic.ttf
  4

  0
STYLE
  5
49
330
5
100
AcDbSymbolTableRecord
100
AcDbTextStyleTableRecord
  2
OpenSans-ExtraBold
 70
0
 40
0.0
 41
1.0
 50
0.0
 71
0
 42
2.5
  3
OpenSans-ExtraBold.ttf
  4

  0
STYLE
  5
4A
330
5
100
AcDbSymbolTableRecord
100
AcDbTextStyleTableRecord
  2
OpenSans-ExtraBoldItalic
 70
0
 40
0.0
 41
1.0
 50
0.0
 71
0
 42
2.5
  3
OpenSans-ExtraBoldItalic.ttf
  4

  0
STYLE
  5
4B
330
5
100
AcDbSymbolTableRecord
100
AcDbTextStyleTableRecord
  2
OpenSansCondensed-Bold
 70
0
 40
0.0
 41
1.0
 50
0.0
 71
0
 42
2.5
  3
OpenSansCondensed-Bold.ttf
  4

  0
STYLE
  5
4C
330
5
100
AcDbSymbolTableRecord
100
AcDbTextStyleTableRecord
  2
OpenSansCondensed-Light
 70
0
 40
0.0
 41
1.0
 50
0.0
 71
0
 42
2.5
  3
OpenSansCondensed-Light.ttf
  4

  0
STYLE
  5
4D
330
5
100
AcDbSymbolTableRecord
100
AcDbTextStyleTableRecord
  2
OpenSansCondensed-Italic
 70
0
 40
0.0
 41
1.0
 50
0.0
 71
0
 42
2.5
  3
OpenSansCondensed-LightItalic.ttf
  4

  0
STYLE
  5
4E
330
5
100
AcDbSymbolTableRecord
100
AcDbTextStyleTableRecord
  2
LiberationSans
 70
0
 40
0.0
 41
1.0
 50
0.0
 71
0
 42
2.5
  3
LiberationSans-Regular.ttf
  4

  0
STYLE
  5
4F
330
5
100
AcDbSymbolTableRecord
100
AcDbTextStyleTableRecord
  2
LiberationSans-Bold
 70
0
 40
0.0
 41
1.0
 50
0.0
 71
0
 42
2.5
  3
LiberationSans-Bold.ttf
  4

  0
STYLE
  5
50
330
5
100
AcDbSymbolTableRecord
100
AcDbTextStyleTableRecord
  2
LiberationSans-BoldItalic
 70
0
 40
0.0
 41
1.0
 50
0.0
 71
0
 42
2.5
  3
LiberationSans-BoldItalic.ttf
  4

  0
STYLE
  5
51
330
5
100
AcDbSymbolTableRecord
100
AcDbTextStyleTableRecord
  2
LiberationSans-Italic
 70
0
 40
0.0
 41
1.0
 50
0.0
 71
0
 42
2.5
  3
LiberationSans-Italic.ttf
  4

  0
STYLE
  5
52
330
5
100
AcDbSymbolTableRecord
100
AcDbTextStyleTableRecord
  2
LiberationSerif
 70
0
 40
0.0
 41
1.0
 50
0.0
 71
0
 42
2.5
  3
LiberationSerif-Regular.ttf
  4

  0
STYLE
  5
53
330
5
100
AcDbSymbolTableRecord
100
AcDbTextStyleTableRecord
  2
LiberationSerif-Bold
 70
0
 40
0.0
 41
1.0
 50
0.0
 71
0
 42
2.5
  3
LiberationSerif-Bold.ttf
  4

  0
STYLE
  5
54
330
5
100
AcDbSymbolTableRecord
100
AcDbTextStyleTableRecord
  2
LiberationSerif-BoldItalic
 70
0
 40
0.0
 41
1.0
 50
0.0
 71
0
 42
2.5
  3
LiberationSerif-BoldItalic.ttf
  4

  0
STYLE
  5
55
330
5
100
AcDbSymbolTableRecord
100
AcDbTextStyleTableRecord
  2
LiberationSerif-Italic
 70
0
 40
0.0
 41
1.0
 50
0.0
 71
0
 42
2.5
  3
LiberationSerif-Italic.ttf
  4

  0
STYLE
  5
56
330
5
100
AcDbSymbolTableRecord
100
AcDbTextStyleTableRecord
  2
LiberationMono
 70
0
 40
0.0
 41
1.0
 50
0.0
 71
0
 42
2.5
  3
LiberationMono-Regular.ttf
  4

  0
STYLE
  5
57
330
5
100
AcDbSymbolTableRecord
100
AcDbTextStyleTableRecord
  2
LiberationMono-Bold
 70
0
 40
0.0
 41
1.0
 50
0.0
 71
0
 42
2.5
  3
LiberationMono-Bold.ttf
  4

  0
STYLE
  5
58
330
5
100
AcDbSymbolTableRecord
100
AcDbTextStyleTableRecord
  2
LiberationMono-BoldItalic
 70
0
 40
0.0
 41
1.0
 50
0.0
 71
0
 42
2.5
  3
LiberationMono-BoldItalic.ttf
  4

  0
STYLE
  5
59
330
5
100
AcDbSymbolTableRecord
100
AcDbTextStyleTableRecord
  2
LiberationMono-Italic
 70
0
 40
0.0
 41
1.0
 50
0.0
 71
0
 42
2.5
  3
LiberationMono-Italic.ttf
  4

  0
ENDTAB
  0
TABLE
  2
VIEW
  5
7
330
0
100
AcDbSymbolTable
 70
0
  0
ENDTAB
  0
TABLE
  2
UCS
  5
6
330
0
100
AcDbSymbolTable
 70
0
  0
ENDTAB
  0
TABLE
  2
APPID
  5
3
330
0
100
AcDbSymbolTable
 70
3
  0
APPID
  5
2A
330
3
100
AcDbSymbolTableRecord
100
AcDbRegAppTableRecord
  2
ACAD
 70
0
  0
APPID
  5
13D
330
3
100
AcDbSymbolTableRecord
100
AcDbRegAppTableRecord
  2
HATCHBACKGROUNDCOLOR
 70
0
  0
APPID
  5
13E
330
3
100
AcDbSymbolTableRecord
100
AcDbRegAppTableRecord
  2
EZDXF
 70
0
  0
ENDTAB
  0
TABLE
  2
DIMSTYLE
  5
4
330
0
100
AcDbSymbolTable
 70
12
100
AcDbDimStyleTable
  0
DIMSTYLE
105
2B
330
4
100
AcDbSymbolTableRecord
100
AcDbDimStyleTableRecord
  2
Standard
 70
0
 40
1.0
 41
2.5
 42
0.625
 43
3.75
 44
1.25
 45
0.0
 46
0.0
 47
0.0
 48
0.0
 49
2.5
140
2.5
141
2.5
142
0.0
143
0.03937007874
144
1.0
145
0.0
146
1.0
147
0.625
148
0.0
 69
0
 70
0
 71
0
 72
0
 73
0
 74
0
 75
0
 76
0
 77
1
 78
8
 79
3
170
0
171
3
172
1
173
0
174
0
175
0
176
0
177
0
178
0
179
2
271
2
272
2
273
2
274
3
275
0
276
0
277
2
278
44
279
0
280
0
281
0
282
0
283
0
284
8
285
0
286
0
288
0
289
3
290
0
371
-2
372
-2
  0
DIMSTYLE
105
73
330
4
100
AcDbSymbolTableRecord
100
AcDbDimStyleTableRecord
  2
EZDXF
 70
0
 40
1.0
 41
0.175
 42
0.125
 43
3.75
 44
0.375
 45
0.0
 46
0.0
 47
0.0
 48
0.0
 49
2.5
140
0.25
141
2.5
142
0.0
143
0.03937007874
144
100.0
145
0.0
146
0.5
147
0.1
148
0.0
 69
0
 70
0
 71
0
 72
0
 73
0
 74
0
 75
0
 76
0
 77
1
 78
12
 79
3
170
0
171
3
172
1
173
0
174
0
175
0
176
0
177
0
178
0
179
2
271
2
272
2
273
2
274
3
275
0
276
0
277
2
278
46
279
2
280
0
281
0
282
0
283
0
284
8
285
0
286
0
288
1
289
3
290
0
340
4C
342
74
371
-2
372
-2
  0
DIMSTYLE
105
7C
330
4
100
AcDbSymbolTableRecord
100
AcDbDimStyleTableRecord
  2
EZ_M_100_H25_CM
 70
0
 40
1.0
 41
0.25
 42
0.125
 43
3.75
 44
0.375
 45
0.0
 46
0.0
 47
0.0
 48
0.0
 49
2.5
140
0.25
141
2.5
142
0.125
143
0.03937007874
144
100.0
145
0.0
146
0.5
147
0.1
148
0.0
 69
0
 70
0
 71
0
 72
0
 73
0
 74
0
 75
0
 76
0
 77
1
 78
12
 79
3
170
0
171
3
172
1
173
0
174
0
175
0
176
0
177
0
178
0
179
2
271
2
272
2
273
2
274
3
275
0
276
0
277
2
278
46
279
2
280
0
281
0
282
0
283
0
284
8
285
0
286
0
288
1
289
3
290
0
340
4C
371
-2
372
-2
  0
DIMSTYLE
105
7D
330
4
100
AcDbSymbolTableRecord
100
AcDbDimStyleTableRecord
  2
EZ_M_50_H25_CM
 70
0
 40
1.0
 41
0.125
 42
0.0625
 43
3.75
 44
0.1875
 45
0.0
 46
0.0
 47
0.0
 48
0.0
 49
2.5
140
0.125
141
2.5
142
0.0625
143
0.03937007874
144
100.0
145
0.0
146
0.5
147
0.05
148
0.0
 69
0
 70
0
 71
0
 72
0
 73
0
 74
0
 75
0
 76
0
 77
1
 78
12
 79
3
170
0
171
3
172
1
173
0
174
0
175
0
176
0
177
0
178
0
179
2
271
2
272
2
273
2
274
3
275
0
276
0
277
2
278
46
279
2
280
0
281
0
282
0
283
0
284
8
285
0
286
0
288
1
289
3
290
0
340
4C
371
-2
372
-2
  0
DIMSTYLE
105
7E
330
4
100
AcDbSymbolTableRecord
100
AcDbDimStyleTableRecord
  2
EZ_M_25_H25_CM
 70
0
 40
1.0
 41
0.0625
 42
0.03125
 43
3.75
 44
0.09375
 45
0.0
 46
0.0
 47
0.0
 48
0.0
 49
2.5
140
0.0625
141
2.5
142
0.03125
143
0.03937007874
144
100.0
145
0.0
146
0.5
147
0.025
148
0.0
 69
0
 70
0
 71
0
 72
0
 73
0
 74
0
 75
0
 76
0
 77
1
 78
12
 79
3
170
0
171
3
172
1
173
0
174
0
175
0
176
0
177
0
178
0
179
2
271
2
272
2
273
2
274
3
275
0
276
0
277
2
278
46
279
2
280
0
281
0
282
0
283
0
284
8
285
0
286
0
288
1
289
3
290
0
340
4C
371
-2
372
-2
  0
DIMSTYLE
105
7F
330
4
100
AcDbSymbolTableRecord
100
AcDbDimStyleTableRecord
  2
EZ_M_20_H25_CM
 70
0
 40
1.0
 41
0.05
 42
0.025
 43
3.75
 44
0.07500000000000001
 45
0.0
 46
0.0
 47
0.0
 48
0.0
 49
2.5
140
0.05
141
2.5
142
0.025
143
0.03937007874
144
100.0
145
0.0
146
0.5
147
0.020000000000000004
148
0.0
 69
0
 70
0
 71
0
 72
0
 73
0
 74
0
 75
0
 76
0
 77
1
 78
12
 79
3
170
0
171
3
172
1
173
0
174
0
175
0
176
0
177
0
178
0
179
2
271
2
272
2
273
2
274
3
275
0
276
0
277
2
278
46
279
2
280
0
281
0
282
0
283
0
284
8
285
0
286
0
288
1
289
3
290
0
340
4C
371
-2
372
-2
  0
DIMSTYLE
105
80
330
4
100
AcDbSymbolTableRecord
100
AcDbDimStyleTableRecord
  2
EZ_M_10_H25_CM
 70
0
 40
1.0
 41
0.025
 42
0.0125
 43
3.75
 44
0.037500000000000006
 45
0.0
 46
0.0
 47
0.0
 48
0.0
 49
2.5
140
0.025
141
2.5
142
0.0125
143
0.03937007874
144
100.0
145
0.0
146
0.5
147
0.010000000000000002
148
0.0
 69
0
 70
0
 71
0
 72
0
 73
0
 74
0
 75
0
 76
0
 77
1
 78
12
 79
3
170
0
171
3
172
1
173
0
174
0
175
0
176
0
177
0
178
0
179
2
271
2
272
2
273
2
274
3
275
0
276
0
277
2
278
46
279
2
280
0
281
0
282
0
283
0
284
8
285
0
286
0
288
1
289
3
290
0
340
4C
371
-2
372
-2
  0
DIMSTYLE
105
81
330
4
100
AcDbSymbolTableRecord
100
AcDbDimStyleTableRecord
  2
EZ_M_5_H25_CM
 70
0
 40
1.0
 41
0.0125
 42
0.00625
 43
3.75
 44
0.018750000000000003
 45
0.0
 46
0.0
 47
0.0
 48
0.0
 49
2.5
140
0.0125
141
2.5
142
0.00625
143
0.03937007874
144
100.0
145
0.0
146
0.5
147
0.005000000000000001
148
0.0
 69
0
 70
0
 71
0
 72
0
 73
0
 74
0
 75
0
 76
0
 77
1
 78
12
 79
3
170
0
171
3
172
1
173
0
174
0
175
0
176
0
177
0
178
0
179
2
271
2
272
2
273
2
274
3
275
0
276
0
277
2
278
46
279
2
280
0
281
0
282
0
283
0
284
8
285
0
286
0
288
1
289
3
290
0
340
4C
371
-2
372
-2
  0
DIMSTYLE
105
82
330
4
100
AcDbSymbolTableRecord
100
AcDbDimStyleTableRecord
  2
EZ_M_1_H25_CM
 70
0
 40
1.0
 41
0.0025
 42
0.00125
 43
3.75
 44
0.00375
 45
0.0
 46
0.0
 47
0.0
 48
0.0
 49
2.5
140
0.0025
141
2.5
142
0.00125
143
0.03937007874
144
100.0
145
0.0
146
0.5
147
0.001
148
0.0
 69
0
 70
0
 71
0
 72
0
 73
0
 74
0
 75
0
 76
0
 77
1
 78
12
 79
3
170
0
171
3
172
1
173
0
174
0
175
0
176
0
177
0
178
0
179
2
271
2
272
2
273
2
274
3
275
0
276
0
277
2
278
46
279
2
280
0
281
0
282
0
283
0
284
8
285
0
286
0
288
1
289
3
290
0
340
4C
371
-2
372
-2
  0
DIMSTYLE
105
83
330
4
100
AcDbSymbolTableRecord
100
AcDbDimStyleTableRecord
  2
EZ_RADIUS
 70
0
 40
1.0
 41
0.25
 42
0.125
 43
3.75
 44
0.375
 45
0.0
 46
0.0
 47
0.0
 48
0.0
 49
2.5
140
0.25
141
0.0
142
0.0
143
0.03937007874
144
100.0
145
0.0
146
0.5
147
0.1
148
0.0
 69
0
 70
0
 71
0
 72
0
 73
0
 74
0
 75
0
 76
0
 77
1
 78
12
 79
3
170
0
171
3
172
0
173
0
174
0
175
0
176
0
177
0
178
0
179
2
271
2
272
2
273
2
274
3
275
0
276
0
277
2
278
46
279
1
280
0
281
0
282
0
283
0
284
8
285
0
286
0
288
1
289
3
290
0
340
4C
342
84
371
-2
372
-2
  0
DIMSTYLE
105
88
330
4
100
AcDbSymbolTableRecord
100
AcDbDimStyleTableRecord
  2
EZ_RADIUS_INSIDE
 70
0
 40
1.0
 41
0.25
 42
0.125
 43
3.75
 44
0.375
 45
0.0
 46
0.0
 47
0.0
 48
0.0
 49
2.5
140
0.25
141
0.0
142
0.0
143
0.03937007874
144
100.0
145
0.0
146
0.5
147
0.1
148
0.0
 69
0
 70
0
 71
0
 72
0
 73
0
 74
0
 75
0
 76
0
 77
0
 78
12
 79
3
170
0
171
3
172
0
173
0
174
1
175
0
176
0
177
0
178
0
179
2
271
2
272
2
273
2
274
3
275
0
276
0
277
2
278
46
279
0
280
0
281
0
282
0
283
0
284
8
285
0
286
0
288
1
289
0
290
0
340
4C
342
84
371
-2
372
-2
  0
DIMSTYLE
105
89
330
4
100
AcDbSymbolTableRecord
100
AcDbDimStyleTableRecord
  2
EZ_CURVED
 70
0
 40
1.0
 41
0.25
 42
0.125
 43
3.75
 44
0.375
 45
0.0
 46
0.0
 47
0.0
 48
0.0
 49
2.5
140
0.25
141
2.5
142
0.0
143
0.03937007874
144
100.0
145
0.0
146
0.5
147
0.1
148
0.0
 69
0
 70
0
 71
0
 72
0
 73
0
 74
0
 75
0
 76
0
 77
1
 78
12
 79
2
 90
2
170
0
171
3
172
1
173
0
174
0
175
0
176
0
177
0
178
0
179
2
271
2
272
2
273
2
274
3
275
0
276
0
277
2
278
46
279
2
280
0
281
0
282
0
283
0
284
8
285
0
286
0
288
1
289
3
290
0
340
4C
371
-2
372
-2
  0
ENDTAB
  0
TABLE
  2
BLOCK_RECORD
  5
9
330
0
100
AcDbSymbolTable
 70
5
  0
BLOCK_RECORD
  5
17
330
9
100
AcDbSymbolTableRecord
100
AcDbBlockTableRecord
  2
*Model_Space
340
1A
 70
0
280
1
281
0
  0
BLOCK_RECORD
  5
1B
330
9
100
AcDbSymbolTableRecord
100
AcDbBlockTableRecord
  2
*Paper_Space
340
1E
 70
0
280
1
281
0
  0
BLOCK_RECORD
  5
74
330
9
100
AcDbSymbolTableRecord
100
AcDbBlockTableRecord
  2
_ARCHTICK
340
0
 70
0
280
1
281
0
  0
BLOCK_RECORD
  5
78
330
9
100
AcDbSymbolTableRecord
100
AcDbBlockTableRecord
  2
_CLOSEDFILLED
340
0
 70
0
280
1
281
0
  0
BLOCK_RECORD
  5
84
330
9
100
AcDbSymbolTableRecord
100
AcDbBlockTableRecord
  2
_CLOSEDBLANK
340
0
 70
0
280
1
281
0
  0
ENDTAB
  0
ENDSEC
  0
SECTION
  2
BLOCKS
  0
BLOCK
  5
18
330
17
100
AcDbEntity
  8
0
100
AcDbBlockBegin
  2
*Model_Space
 70
0
 10
0.0
 20
0.0
 30
0.0
  3
*Model_Space
  1

  0
ENDBLK
  5
19
330
17
100
AcDbEntity
  8
0
100
AcDbBlockEnd
  0
BLOCK
  5
1C
330
1B
100
AcDbEntity
  8
0
100
AcDbBlockBegin
  2
*Paper_Space
 70
0
 10
0.0
 20
0.0
 30
0.0
  3
*Paper_Space
  1

  0
ENDBLK
  5
1D
330
1B
100
AcDbEntity
  8
0
100
AcDbBlockEnd
  0
BLOCK
  5
75
330
74
100
AcDbEntity
  8
0
100
AcDbBlockBegin
  2
_ARCHTICK
 70
0
 10
0.0
 20
0.0
 30
0.0
  3
_ARCHTICK
  1

  0
LWPOLYLINE
  5
77
330
74
100
AcDbEntity
  8
0
  6
BYBLOCK
 62
0
100
AcDbPolyline
 90
2
 70
0
 43
0.15
 10
-0.5
 20
-0.5
 10
0.5
 20
0.5
  0
ENDBLK
  5
76
330
74
100
AcDbEntity
  8
0
100
AcDbBlockEnd
  0
BLOCK
  5
79
330
78
100
AcDbEntity
  8
0
100
AcDbBlockBegin
  2
_CLOSEDFILLED
 70
0
 10
0.0
 20
0.0
 30
0.0
  3
_CLOSEDFILLED
  1

  0
SOLID
  5
7B
330
78
100
AcDbEntity
  8
0
  6
BYBLOCK
 62
0
100
AcDbTrace
 10
-1.0
 20
0.16439898372402537
 30
0.0
 11
0.0
 21
0.0
 31
0.0
 12
-1.0
 22
-0.16439898372402537
 32
0.0
 13
-1.0
 23
-0.16439898372402537
 33
0.0
  0
ENDBLK
  5
7A
330
78
100
AcDbEntity
  8
0
100
AcDbBlockEnd
  0
BLOCK
  5
85
330
84
100
AcDbEntity
  8
0
100
AcDbBlockBegin
  2
_CLOSEDBLANK
 70
0
 10
0.0
 20
0.0
 30
0.0
  3
_CLOSEDBLANK
  1

  0
LWPOLYLINE
  5
87
330
84
100
AcDbEntity
  8
0
  6
BYBLOCK
 62
0
100
AcDbPolyline
 90
3
 70
1
 10
-1.0
 20
0.16439898372402537
 10
0.0
 20
0.0
 10
-1.0
 20
-0.16439898372402537
  0
ENDBLK
  5
86
330
84
100
AcDbEntity
  8
0
100
AcDbBlockEnd
  0
ENDSEC
  0
SECTION
  2
ENTITIES
  0
LWPOLYLINE
  5
8D
330
17
100
AcDbEntity
  8
REFERENCE-SHEET
100
AcDbPolyline
 90
4
 70
1
 10
0.0
 20
0.0
 10
2440.0
 20
0.0
 10
2440.0
 20
1220.0
 10
0.0
 20
1220.0
  0
TEXT
  5
8E
330
17
100
AcDbEntity
  8
REFERENCE-SHEET
100
AcDbText
 10
0.0
 20
1275.0
 30
0.0
 40
40.0
  1
SHEET 1/8  -  2440 x 1220  -  15 mm PLYWOOD
 11
0.0
 21
1275.0
 31
0.0
100
AcDbText
  0
LWPOLYLINE
  5
8F
330
17
100
AcDbEntity
  8
CUT
100
AcDbPolyline
 90
4
 70
1
 10
2167.9772119539757
 20
15.0
 10
2218.2804178407505
 20
101.42677523495081
 42
0.2698282251751593
 10
15.0
 20
101.42677523495081
 10
65.303205886775
 20
15.0
 42
-0.2698282251751593
  0
LWPOLYLINE
  5
90
330
17
100
AcDbEntity
  8
CUT
100
AcDbPolyline
 90
8
 70
1
 10
1910.66276138373
 20
187.88616662406116
 42
2.414213562373095
 10
1914.7969961870658
 20
189.7268465503073
 10
1918.0223077329736
 20
198.1290703887821
 42
2.414213562373095
 10
1916.1816278067276
 20
202.26330519211797
 10
1856.4324805109068
 20
225.1988539630172
 42
2.414213562373095
 10
1852.2982457075705
 20
223.35817403677106
 10
1849.072934161663
 20
214.95595019829625
 42
2.414213562373095
 10
1850.913614087909
 20
210.8217153949604
  0
LWPOLYLINE
  5
91
330
17
100
AcDbEntity
  8
CUT
100
AcDbPolyline
 90
8
 70
1
 10
1823.5752847395515
 20
220.63717858074347
 42
2.414213562373095
 10
1827.625295336708
 20
222.65643937690697
 10
1830.4810372443535
 20
231.19135227376273
 42
2.414213562373095
 10
1828.46177644819
 20
235.24136287091892
 10
1767.7690625149935
 20
255.5488608808448
 42
2.414213562373095
 10
1763.719051917837
 20
253.5296000846813
 10
1760.8633100101915
 20
244.99468718782555
 42
2.414213562373095
 10
1762.882570806355
 20
240.94467659066936
  0
LWPOLYLINE
  5
92
330
17
100
AcDbEntity
  8
CUT
100
AcDbPolyline
 90
8
 70
1
 10
1639.5198659630348
 20
276.12426726312765
 42
2.414213562373095
 10
1643.3715803352661
 20
278.50004006260747
 10
1645.447123171948
 20
287.2574438978256
 42
2.414213562373095
 10
1643.0713503724683
 20
291.10915827005715
 10
1580.7964786553596
 20
305.8685739975733
 42
2.414213562373095
 10
1576.9447642831283
 20
303.4928011980935
 10
1574.8692214464463
 20
294.73539736287535
 42
2.414213562373095
 10
1577.2449942459261
 20
290.8836829906438
  0
LWPOLYLINE
  5
93
330
17
100
AcDbEntity
  8
CUT
100
AcDbPolyline
 90
8
 70
1
 10
1542.765174023226
 20
298.21259502418184
 42
2.414213562373095
 10
1546.5021838464297
 20
300.7649973398991
 10
1548.1680381538322
 20
309.609483160257
 42
2.414213562373095
 10
1545.6156358381147
 20
313.3464929834606
 10
1482.7215144489041
 20
325.19256805832197
 42
2.414213562373095
 10
1478.9845046257005
 20
322.6401657426047
 10
1477.3186503182983
 20
313.7956799222468
 42
2.414213562373095
 10
1479.8710526340155
 20
310.0586700990432
  0
LWPOLYLINE
  5
94
330
17
100
AcDbEntity
  8
CUT
100
AcDbPolyline
 90
8
 70
1
 10
1346.698662680912
 20
328.77482894236505
 42
2.414213562373095
 10
1350.1822487659654
 20
331.6635359174704
 10
1351.01879751433
 20
340.6245730333187
 42
2.414213562373095
 10
1348.1300905392245
 20
344.10815911837176
 10
1284.407159937637
 20
350.056950217853
 42
2.414213562373095
 10
1280.9235738525838
 20
347.1682432427476
 10
1280.0870251042193
 20
338.20720612689934
 42
2.414213562373095
 10
1282.9757320793246
 20
334.7236200418463
  0
LWPOLYLINE
  5
95
330
17
100
AcDbEntity
  8
CUT
100
AcDbPolyline
 90
8
 70
1
 10
1247.8114796824639
 20
337.18254410633585
 42
2.414213562373095
 10
1251.15689543778
 20
340.2301978635862
 10
1251.5756232475596
 20
349.22045186563287
 42
2.414213562373095
 10
1248.5279694903093
 20
352.5658676209489
 10
1184.5972743646437
 20
355.5434876016045
 42
2.414213562373095
 10
1181.2518586093274
 20
352.49583384435414
 10
1180.8331307995477
 20
343.5055798423075
 42
2.414213562373095
 10
1183.8807845567983
 20
340.1601640869915
  0
LWPOLYLINE
  5
96
330
17
100
AcDbEntity
  8
CUT
100
AcDbPolyline
 90
8
 70
1
 10
1049.3996332839529
 20
340.1601640869915
 42
2.414213562373095
 10
1052.4472870412035
 20
343.5055798423075
 10
1052.0285592314237
 20
352.49583384435414
 42
2.414213562373095
 10
1048.6831434761077
 20
355.5434876016045
 10
984.752448350442
 20
352.5658676209489
 42
2.414213562373095
 10
981.7047945931915
 20
349.22045186563287
 10
982.1235224029713
 20
340.2301978635862
 42
2.414213562373095
 10
985.4689381582873
 20
337.18254410633585
  0
LWPOLYLINE
  5
97
330
17
100
AcDbEntity
  8
CUT
100
AcDbPolyline
 90
8
 70
1
 10
950.3046857614263
 20
334.7236200418463
 42
2.414213562373095
 10
953.1933927365316
 20
338.20720612689934
 10
952.356843988167
 20
347.1682432427476
 42
2.414213562373095
 10
948.8732579031137
 20
350.056950217853
 10
885.1503273015261
 20
344.10815911837176
 42
2.414213562373095
 10
882.2616203264208
 20
340.6245730333187
 10
883.0981690747853
 20
331.6635359174704
 42
2.414213562373095
 10
886.5817551598387
 20
328.77482894236505
  0
LWPOLYLINE
  5
98
330
17
100
AcDbEntity
  8
CUT
100
AcDbPolyline
 90
8
 70
1
 10
753.4093652067356
 20
310.0586700990432
 42
2.414213562373095
 10
755.9617675224531
 20
313.7956799222468
 10
754.2959132150506
 20
322.6401657426047
 42
2.414213562373095
 10
750.558903391847
 20
325.19256805832197
 10
687.6647820026367
 20
313.3464929834606
 42
2.414213562373095
 10
685.1123796869192
 20
309.609483160257
 10
686.7782339943217
 20
300.7649973398991
 42
2.414213562373095
 10
690.5152438175253
 20
298.21259502418184
  0
LWPOLYLINE
  5
99
330
17
100
AcDbEntity
  8
CUT
100
AcDbPolyline
 90
8
 70
1
 10
656.0354235948248
 20
290.8836829906438
 42
2.414213562373095
 10
658.4111963943044
 20
294.73539736287535
 10
656.3356535576224
 20
303.4928011980935
 42
2.414213562373095
 10
652.4839391853911
 20
305.8685739975733
 10
590.2090674682825
 20
291.10915827005715
 42
2.414213562373095
 10
587.8332946688028
 20
287.2574438978256
 10
589.9088375054847
 20
278.50004006260747
 42
2.414213562373095
 10
593.760551877716
 20
276.12426726312765
  0
LWPOLYLINE
  5
9A
330
17
100
AcDbEntity
  8
CUT
100
AcDbPolyline
 90
8
 70
1
 10
470.3978470343958
 20
240.94467659066936
 42
2.414213562373095
 10
472.4171078305593
 20
244.99468718782555
 10
469.5613659229135
 20
253.5296000846813
 42
2.414213562373095
 10
465.51135532575734
 20
255.5488608808448
 10
404.8186413925606
 20
235.24136287091892
 42
2.414213562373095
 10
402.7993805963971
 20
231.19135227376273
 10
405.6551225040429
 20
222.65643937690697
 42
2.414213562373095
 10
409.70513310119907
 20
220.63717858074347
  0
LWPOLYLINE
  5
9B
330
17
100
AcDbEntity
  8
CUT
100
AcDbPolyline
 90
8
 70
1
 10
382.3668037528422
 20
210.8217153949604
 42
2.414213562373095
 10
384.2074836790882
 20
214.95595019829625
 10
380.9821721331806
 20
223.35817403677106
 42
2.414213562373095
 10
376.8479373298445
 20
225.1988539630172
 10
317.09879003402364
 20
202.26330519211797
 42
2.414213562373095
 10
315.2581101077776
 20
198.1290703887821
 10
318.48342165368524
 20
189.7268465503073
 42
2.414213562373095
 10
322.6176564570213
 20
187.88616662406116
  0
TEXT
  5
9C
330
17
100
AcDbEntity
  8
ENGRAVE-LABEL
100
AcDbText
 10
29.0
 20
29.0
 30
0.0
 40
22.0
  1
RAIL-BACK-TOP
 11
29.0
 21
29.0
 31
0.0
100
AcDbText
  0
LWPOLYLINE
  5
9D
330
17
100
AcDbEntity
  8
CUT
100
AcDbPolyline
 90
4
 70
1
 10
2157.9771500018937
 20
410.68039758952773
 10
2208.2817779362103
 20
497.10634513070295
 42
0.2698370511068808
 10
15.0
 20
497.1063451307032
 10
65.30462793431684
 20
410.68039758952796
 42
-0.2698370511068808
  0
TEXT
  5
9E
330
17
100
AcDbEntity
  8
ENGRAVE-LABEL
100
AcDbText
 10
29.0
 20
424.68039758952773
 30
0.0
 40
22.0
  1
RAIL-BASE-OUT 1/3
 11
29.0
 21
424.68039758952773
 31
0.0
100
AcDbText
  0
LWPOLYLINE
  5
9F
330
17
100
AcDbEntity
  8
CUT
100
AcDbPolyline
 90
4
 70
1
 10
2157.9771500018937
 20
805.0206887330849
 10
2208.2817779362103
 20
891.4466362742601
 42
0.2698370511068808
 10
15.0
 20
891.4466362742603
 10
65.30462793431684
 20
805.0206887330851
 42
-0.2698370511068808
  0
TEXT
  5
A0
330
17
100
AcDbEntity
  8
ENGRAVE-LABEL
100
AcDbText
 10
29.0
 20
819.0206887330849
 30
0.0
 40
22.0
  1
RAIL-BASE-OUT 2/3
 11
29.0
 21
819.0206887330849
 31
0.0
100
AcDbText
  0
LWPOLYLINE
  5
A1
330
17
100
AcDbEntity
  8
REFERENCE-SHEET
100
AcDbPolyline
 90
4
 70
1
 10
0.0
 20
-1470.0
 10
2440.0
 20
-1470.0
 10
2440.0
 20
-250.0
 10
0.0
 20
-250.0
  0
TEXT
  5
A2
330
17
100
AcDbEntity
  8
REFERENCE-SHEET
100
AcDbText
 10
0.0
 20
-195.0
 30
0.0
 40
40.0
  1
SHEET 2/8  -  2440 x 1220  -  15 mm PLYWOOD
 11
0.0
 21
-195.0
 31
0.0
100
AcDbText
  0
LWPOLYLINE
  5
A3
330
17
100
AcDbEntity
  8
CUT
100
AcDbPolyline
 90
4
 70
1
 10
2157.9771500018937
 20
-1455.0
 10
2208.2817779362103
 20
-1368.5740524588248
 42
0.2698370511068808
 10
15.0
 20
-1368.5740524588246
 10
65.30462793431684
 20
-1454.9999999999998
 42
-0.2698370511068808
  0
TEXT
  5
A4
330
17
100
AcDbEntity
  8
ENGRAVE-LABEL
100
AcDbText
 10
29.0
 20
-1441.0
 30
0.0
 40
22.0
  1
RAIL-BASE-OUT 3/3
 11
29.0
 21
-1441.0
 31
0.0
100
AcDbText
  0
LWPOLYLINE
  5
A5
330
17
100
AcDbEntity
  8
CUT
100
AcDbPolyline
 90
8
 70
1
 10
2205.153044759967
 20
-1055.6597088564429
 10
2205.153044759967
 20
-995.6597088564429
 10
2190.153044759967
 20
-995.6597088564429
 10
2190.153044759967
 20
-990.6597088564429
 10
1775.1530447599673
 20
-990.6597088564429
 10
1775.1530447599673
 20
-1060.6597088564429
 10
2190.153044759967
 20
-1060.6597088564429
 10
2190.153044759967
 20
-1055.6597088564429
  0
TEXT
  5
A6
330
17
100
AcDbEntity
  8
ENGRAVE-LABEL
100
AcDbText
 10
1789.1530447599673
 20
-1046.6597088564429
 30
0.0
 40
22.0
  1
BACK-STILE 1/12
 11
1789.1530447599673
 21
-1046.6597088564429
 31
0.0
100
AcDbText
  0
LWPOLYLINE
  5
A7
330
17
100
AcDbEntity
  8
CUT
100
AcDbPolyline
 90
8
 70
1
 10
2205.153044759967
 20
-973.6597088564429
 10
2205.153044759967
 20
-913.6597088564429
 10
2190.153044759967
 20
-913.6597088564429
 10
2190.153044759967
 20
-908.6597088564429
 10
1775.1530447599673
 20
-908.6597088564429
 10
1775.1530447599673
 20
-978.6597088564429
 10
2190.153044759967
 20
-978.6597088564429
 10
2190.153044759967
 20
-973.6597088564429
  0
TEXT
  5
A8
330
17
100
AcDbEntity
  8
ENGRAVE-LABEL
100
AcDbText
 10
1789.1530447599673
 20
-964.6597088564429
 30
0.0
 40
22.0
  1
BACK-STILE 2/12
 11
1789.1530447599673
 21
-964.6597088564429
 31
0.0
100
AcDbText
  0
LWPOLYLINE
  5
A9
330
17
100
AcDbEntity
  8
CUT
100
AcDbPolyline
 90
8
 70
1
 10
2205.153044759967
 20
-891.6597088564429
 10
2205.153044759967
 20
-831.6597088564429
 10
2190.153044759967
 20
-831.6597088564429
 10
2190.153044759967
 20
-826.6597088564429
 10
1775.1530447599673
 20
-826.6597088564429
 10
1775.1530447599673
 20
-896.6597088564429
 10
2190.153044759967
 20
-896.6597088564429
 10
2190.153044759967
 20
-891.6597088564429
  0
TEXT
  5
AA
330
17
100
AcDbEntity
  8
ENGRAVE-LABEL
100
AcDbText
 10
1789.1530447599673
 20
-882.6597088564429
 30
0.0
 40
22.0
  1
BACK-STILE 3/12
 11
1789.1530447599673
 21
-882.6597088564429
 31
0.0
100
AcDbText
  0
LWPOLYLINE
  5
AB
330
17
100
AcDbEntity
  8
CUT
100
AcDbPolyline
 90
8
 70
1
 10
2205.153044759967
 20
-763.2174778281542
 10
2205.153044759967
 20
-703.2174778281542
 10
2190.153044759967
 20
-703.2174778281542
 10
2190.153044759967
 20
-698.2174778281542
 10
1775.1530447599673
 20
-698.2174778281542
 10
1775.1530447599673
 20
-768.2174778281542
 10
2190.153044759967
 20
-768.2174778281542
 10
2190.153044759967
 20
-763.2174778281542
  0
TEXT
  5
AC
330
17
100
AcDbEntity
  8
ENGRAVE-LABEL
100
AcDbText
 10
1789.1530447599673
 20
-754.2174778281542
 30
0.0
 40
22.0
  1
BACK-STILE 4/12
 11
1789.1530447599673
 21
-754.2174778281542
 31
0.0
100
AcDbText
  0
LWPOLYLINE
  5
AD
330
17
100
AcDbEntity
  8
CUT
100
AcDbPolyline
 90
8
 70
1
 10
2205.153044759967
 20
-681.2174778281542
 10
2205.153044759967
 20
-621.2174778281542
 10
2190.153044759967
 20
-621.2174778281542
 10
2190.153044759967
 20
-616.2174778281542
 10
1775.1530447599673
 20
-616.2174778281542
 10
1775.1530447599673
 20
-686.2174778281542
 10
2190.153044759967
 20
-686.2174778281542
 10
2190.153044759967
 20
-681.2174778281542
  0
TEXT
  5
AE
330
17
100
AcDbEntity
  8
ENGRAVE-LABEL
100
AcDbText
 10
1789.1530447599673
 20
-672.2174778281542
 30
0.0
 40
22.0
  1
BACK-STILE 5/12
 11
1789.1530447599673
 21
-672.2174778281542
 31
0.0
100
AcDbText
  0
LWPOLYLINE
  5
AF
330
17
100
AcDbEntity
  8
CUT
100
AcDbPolyline
 90
8
 70
1
 10
2205.153044759967
 20
-599.2174778281542
 10
2205.153044759967
 20
-539.2174778281542
 10
2190.153044759967
 20
-539.2174778281542
 10
2190.153044759967
 20
-534.2174778281542
 10
1775.1530447599673
 20
-534.2174778281542
 10
1775.1530447599673
 20
-604.2174778281542
 10
2190.153044759967
 20
-604.2174778281542
 10
2190.153044759967
 20
-599.2174778281542
  0
TEXT
  5
B0
330
17
100
AcDbEntity
  8
ENGRAVE-LABEL
100
AcDbText
 10
1789.1530447599673
 20
-590.2174778281542
 30
0.0
 40
22.0
  1
BACK-STILE 6/12
 11
1789.1530447599673
 21
-590.2174778281542
 31
0.0
100
AcDbText
  0
LWPOLYLINE
  5
B1
330
17
100
AcDbEntity
  8
CUT
100
AcDbPolyline
 90
8
 70
1
 10
445.0
 20
-470.7752467998655
 10
445.0
 20
-410.7752467998655
 10
430.0
 20
-410.7752467998655
 10
430.0
 20
-405.7752467998655
 10
15.0
 20
-405.7752467998655
 10
15.0
 20
-475.7752467998655
 10
430.0
 20
-475.7752467998655
 10
430.0
 20
-470.7752467998655
  0
TEXT
  5
B2
330
17
100
AcDbEntity
  8
ENGRAVE-LABEL
100
AcDbText
 10
29.0
 20
-461.7752467998655
 30
0.0
 40
22.0
  1
BACK-STILE 7/12
 11
29.0
 21
-461.7752467998655
 31
0.0
100
AcDbText
  0
LWPOLYLINE
  5
B3
330
17
100
AcDbEntity
  8
CUT
100
AcDbPolyline
 90
8
 70
1
 10
887.0
 20
-470.7752467998655
 10
887.0
 20
-410.7752467998655
 10
872.0
 20
-410.7752467998655
 10
872.0
 20
-405.7752467998655
 10
457.0
 20
-405.7752467998655
 10
457.0
 20
-475.7752467998655
 10
872.0
 20
-475.7752467998655
 10
872.0
 20
-470.7752467998655
  0
TEXT
  5
B4
330
17
100
AcDbEntity
  8
ENGRAVE-LABEL
100
AcDbText
 10
471.0
 20
-461.7752467998655
 30
0.0
 40
22.0
  1
BACK-STILE 8/12
 11
471.0
 21
-461.7752467998655
 31
0.0
100
AcDbText
  0
LWPOLYLINE
  5
B5
330
17
100
AcDbEntity
  8
CUT
100
AcDbPolyline
 90
8
 70
1
 10
1329.0
 20
-470.7752467998655
 10
1329.0
 20
-410.7752467998655
 10
1314.0
 20
-410.7752467998655
 10
1314.0
 20
-405.7752467998655
 10
899.0
 20
-405.7752467998655
 10
899.0
 20
-475.7752467998655
 10
1314.0
 20
-475.7752467998655
 10
1314.0
 20
-470.7752467998655
  0
TEXT
  5
B6
330
17
100
AcDbEntity
  8
ENGRAVE-LABEL
100
AcDbText
 10
913.0
 20
-461.7752467998655
 30
0.0
 40
22.0
  1
BACK-STILE 9/12
 11
913.0
 21
-461.7752467998655
 31
0.0
100
AcDbText
  0
LWPOLYLINE
  5
B7
330
17
100
AcDbEntity
  8
CUT
100
AcDbPolyline
 90
8
 70
1
 10
1771.0
 20
-470.7752467998655
 10
1771.0
 20
-410.7752467998655
 10
1756.0
 20
-410.7752467998655
 10
1756.0
 20
-405.7752467998655
 10
1341.0
 20
-405.7752467998655
 10
1341.0
 20
-475.7752467998655
 10
1756.0
 20
-475.7752467998655
 10
1756.0
 20
-470.7752467998655
  0
TEXT
  5
B8
330
17
100
AcDbEntity
  8
ENGRAVE-LABEL
100
AcDbText
 10
1355.0
 20
-461.7752467998655
 30
0.0
 40
22.0
  1
BACK-STILE 10/12
 11
1355.0
 21
-461.7752467998655
 31
0.0
100
AcDbText
  0
LWPOLYLINE
  5
B9
330
17
100
AcDbEntity
  8
CUT
100
AcDbPolyline
 90
8
 70
1
 10
2213.0
 20
-470.7752467998655
 10
2213.0
 20
-410.7752467998655
 10
2198.0
 20
-410.7752467998655
 10
2198.0
 20
-405.7752467998655
 10
1783.0
 20
-405.7752467998655
 10
1783.0
 20
-475.7752467998655
 10
2198.0
 20
-475.7752467998655
 10
2198.0
 20
-470.7752467998655
  0
TEXT
  5
BA
330
17
100
AcDbEntity
  8
ENGRAVE-LABEL
100
AcDbText
 10
1797.0
 20
-461.7752467998655
 30
0.0
 40
22.0
  1
BACK-STILE 11/12
 11
1797.0
 21
-461.7752467998655
 31
0.0
100
AcDbText
  0
LWPOLYLINE
  5
BB
330
17
100
AcDbEntity
  8
CUT
100
AcDbPolyline
 90
8
 70
1
 10
445.0
 20
-388.7752467998655
 10
445.0
 20
-328.7752467998655
 10
430.0
 20
-328.7752467998655
 10
430.0
 20
-323.7752467998655
 10
15.0
 20
-323.7752467998655
 10
15.0
 20
-393.7752467998655
 10
430.0
 20
-393.7752467998655
 10
430.0
 20
-388.7752467998655
  0
TEXT
  5
BC
330
17
100
AcDbEntity
  8
ENGRAVE-LABEL
100
AcDbText
 10
29.0
 20
-379.7752467998655
 30
0.0
 40
22.0
  1
BACK-STILE 12/12
 11
29.0
 21
-379.7752467998655
 31
0.0
100
AcDbText
  0
LWPOLYLINE
  5
BD
330
17
100
AcDbEntity
  8
CUT
100
AcDbPolyline
 90
12
 70
1
 10
1715.7554029499101
 20
-1060.6597088564429
 10
1725.6439063060097
 20
-1037.6984915242454
 10
1739.4206367053282
 20
-1043.631593537905
 10
1763.1530447599673
 20
-988.5246719406312
 10
1749.3763143606488
 20
-982.5915699269715
 10
1759.2648177167484
 20
-959.630352594774
 42
0.20617707193727158
 10
18.888227043218876
 20
-959.6303525947737
 10
28.776730399318467
 20
-982.5915699269713
 10
15.0
 20
-988.5246719406309
 10
38.73240805463911
 20
-1043.6315935379048
 10
52.509138453957576
 20
-1037.6984915242451
 10
62.397641810057166
 20
-1060.6597088564426
 42
-0.20617707193727158
  0
LWPOLYLINE
  5
BE
330
17
100
AcDbEntity
  8
CUT
100
AcDbPolyline
 90
8
 70
1
 10
1678.431172710852
 20
-999.2198690458938
 42
2.414213562373095
 10
1682.5654075141879
 20
-997.3791891196477
 10
1685.7907190600956
 20
-988.9769652811729
 42
2.414213562373095
 10
1683.9500391338497
 20
-984.842730477837
 10
1633.5366961030008
 20
-965.4908612023908
 42
2.414213562373095
 10
1629.4024612996645
 20
-967.3315411286369
 10
1626.177149753757
 20
-975.7337649671117
 42
2.414213562373095
 10
1628.0178296800032
 20
-979.8679997704476
  0
LWPOLYLINE
  5
BF
330
17
100
AcDbEntity
  8
CUT
100
AcDbPolyline
 90
8
 70
1
 10
1591.2699799231286
 20
-966.6741735549126
 42
2.414213562373095
 10
1595.319990520285
 20
-964.6549127587491
 10
1598.1757324279306
 20
-956.1199998618931
 42
2.414213562373095
 10
1596.156471631767
 20
-952.0699892647372
 10
1544.9469942506325
 20
-934.935537818862
 42
2.414213562373095
 10
1540.8969836534761
 20
-936.9547986150255
 10
1538.0412417458306
 20
-945.4897115118815
 42
2.414213562373095
 10
1540.060502541994
 20
-949.5397221090375
  0
LWPOLYLINE
  5
C0
330
17
100
AcDbEntity
  8
CUT
100
AcDbPolyline
 90
8
 70
1
 10
1407.0909550697438
 20
-911.6205288008416
 42
2.414213562373095
 10
1410.9426694419749
 20
-909.2447560013618
 10
1413.0182122786568
 20
-900.4873521661436
 42
2.414213562373095
 10
1410.6424394791773
 20
-896.6356377939121
 10
1358.0980164678667
 20
-884.1823807738203
 42
2.414213562373095
 10
1354.2463020956357
 20
-886.5581535733002
 10
1352.1707592589537
 20
-895.3155574085183
 42
2.414213562373095
 10
1354.5465320584333
 20
-899.1672717807498
  0
LWPOLYLINE
  5
C1
330
17
100
AcDbEntity
  8
CUT
100
AcDbPolyline
 90
8
 70
1
 10
1310.2878842493021
 20
-889.7598057782764
 42
2.414213562373095
 10
1314.0248940725057
 20
-887.2074034625587
 10
1315.6907483799082
 20
-878.3629176422012
 42
2.414213562373095
 10
1313.1383460641907
 20
-874.6259078189976
 10
1260.0714311420443
 20
-864.6307819745828
 42
2.414213562373095
 10
1256.3344213188407
 20
-867.1831842903005
 10
1254.6685670114384
 20
-876.0276701106579
 42
2.414213562373095
 10
1257.2209693271557
 20
-879.7646799338615
  0
LWPOLYLINE
  5
C2
330
17
100
AcDbEntity
  8
CUT
100
AcDbPolyline
 90
8
 70
1
 10
1114.156622187271
 20
-859.6582971706696
 42
2.414213562373095
 10
1117.6402082723246
 20
-856.7695901955642
 10
1118.476757020689
 20
-847.8085530797159
 42
2.414213562373095
 10
1115.5880500455837
 20
-844.3249669946624
 10
1061.8218273504942
 20
-839.3056745044753
 42
2.414213562373095
 10
1058.3382412654407
 20
-842.1943814795807
 10
1057.5016925170762
 20
-851.155418595429
 42
2.414213562373095
 10
1060.3903994921816
 20
-854.6390046804825
  0
LWPOLYLINE
  5
C3
330
17
100
AcDbEntity
  8
CUT
100
AcDbPolyline
 90
8
 70
1
 10
1015.2532075853793
 20
-851.482704750357
 42
2.414213562373095
 10
1018.5986233406954
 20
-848.4350509931066
 10
1019.0173511504752
 20
-839.44479699106
 42
2.414213562373095
 10
1015.9696973932246
 20
-836.099381235744
 10
962.0281733809443
 20
-833.5870143770655
 42
2.414213562373095
 10
958.6827576256283
 20
-836.6346681343159
 10
958.2640298158485
 20
-845.6249221363626
 42
2.414213562373095
 10
961.311683573099
 20
-848.9703378916786
  0
LWPOLYLINE
  5
C4
330
17
100
AcDbEntity
  8
CUT
100
AcDbPolyline
 90
8
 70
1
 10
816.8413611868684
 20
-848.9703378916786
 42
2.414213562373095
 10
819.8890149441188
 20
-845.6249221363626
 10
819.4702871343392
 20
-836.6346681343159
 42
2.414213562373095
 10
816.124871379023
 20
-833.5870143770655
 10
762.1833473667427
 20
-836.099381235744
 42
2.414213562373095
 10
759.1356936094923
 20
-839.44479699106
 10
759.554421419272
 20
-848.4350509931066
 42
2.414213562373095
 10
762.899837174588
 20
-851.482704750357
  0
LWPOLYLINE
  5
C5
330
17
100
AcDbEntity
  8
CUT
100
AcDbPolyline
 90
8
 70
1
 10
717.7626452677853
 20
-854.6390046804825
 42
2.414213562373095
 10
720.6513522428907
 20
-851.155418595429
 10
719.8148034945261
 20
-842.1943814795807
 42
2.414213562373095
 10
716.3312174094726
 20
-839.3056745044753
 10
662.5649947143831
 20
-844.3249669946624
 42
2.414213562373095
 10
659.6762877392779
 20
-847.8085530797159
 10
660.5128364876424
 20
-856.7695901955642
 42
2.414213562373095
 10
663.9964225726958
 20
-859.6582971706696
  0
LWPOLYLINE
  5
C6
330
17
100
AcDbEntity
  8
CUT
100
AcDbPolyline
 90
8
 70
1
 10
520.9320754328116
 20
-879.7646799338615
 42
2.414213562373095
 10
523.4844777485291
 20
-876.0276701106579
 10
521.8186234411266
 20
-867.1831842903005
 42
2.414213562373095
 10
518.081613617923
 20
-864.6307819745828
 10
465.01469869577676
 20
-874.6259078189976
 42
2.414213562373095
 10
462.46229638005934
 20
-878.3629176422012
 10
464.12815068746175
 20
-887.2074034625587
 42
2.414213562373095
 10
467.86516051066536
 20
-889.7598057782764
  0
LWPOLYLINE
  5
C7
330
17
100
AcDbEntity
  8
CUT
100
AcDbPolyline
 90
8
 70
1
 10
423.6065127015337
 20
-899.1672717807498
 42
2.414213562373095
 10
425.9822855010133
 20
-895.3155574085183
 10
423.9067426643313
 20
-886.5581535733002
 42
2.414213562373095
 10
420.0550282921001
 20
-884.1823807738203
 10
367.5106052807896
 20
-896.6356377939121
 42
2.414213562373095
 10
365.13483248131
 20
-900.4873521661436
 10
367.210375317992
 20
-909.2447560013618
 42
2.414213562373095
 10
371.06208969022316
 20
-911.6205288008416
  0
LWPOLYLINE
  5
C8
330
17
100
AcDbEntity
  8
CUT
100
AcDbPolyline
 90
8
 70
1
 10
238.0925422179729
 20
-949.5397221090375
 42
2.414213562373095
 10
240.1118030141364
 20
-945.4897115118815
 10
237.25606110649062
 20
-936.9547986150255
 42
2.414213562373095
 10
233.20605050933443
 20
-934.935537818862
 10
181.99657312819966
 20
-952.0699892647372
 42
2.414213562373095
 10
179.97731233203615
 20
-956.1199998618931
 10
182.83305423968193
 20
-964.6549127587491
 42
2.414213562373095
 10
186.88306483683812
 20
-966.6741735549126
  0
LWPOLYLINE
  5
C9
330
17
100
AcDbEntity
  8
CUT
100
AcDbPolyline
 90
8
 70
1
 10
150.13521507996427
 20
-979.8679997704476
 42
2.414213562373095
 10
151.9758950062103
 20
-975.7337649671117
 10
148.75058346030266
 20
-967.3315411286369
 42
2.414213562373095
 10
144.61634865696658
 20
-965.4908612023908
 10
94.20300562611772
 20
-984.842730477837
 42
2.414213562373095
 10
92.36232569987169
 20
-988.9769652811729
 10
95.58763724577932
 20
-997.3791891196477
 42
2.414213562373095
 10
99.7218720491154
 20
-999.2198690458938
  0
TEXT
  5
CA
330
17
100
AcDbEntity
  8
ENGRAVE-LABEL
100
AcDbText
 10
29.0
 20
-1046.6597088564429
 30
0.0
 40
22.0
  1
RAIL-BACK-BOT
 11
29.0
 21
-1046.6597088564429
 31
0.0
100
AcDbText
  0
LWPOLYLINE
  5
CB
330
17
100
AcDbEntity
  8
CUT
100
AcDbPolyline
 90
12
 70
1
 10
1715.7554029499101
 20
-768.2174778281542
 10
1725.6439063060097
 20
-745.2562604959567
 10
1739.4206367053282
 20
-751.1893625096163
 10
1763.1530447599673
 20
-696.0824409123425
 10
1749.3763143606488
 20
-690.1493388986828
 10
1759.2648177167484
 20
-667.1881215664853
 42
0.20617707193727158
 10
18.888227043218876
 20
-667.188121566485
 10
28.776730399318467
 20
-690.1493388986826
 10
15.0
 20
-696.0824409123422
 10
38.73240805463911
 20
-751.1893625096161
 10
52.509138453957576
 20
-745.2562604959564
 10
62.397641810057166
 20
-768.217477828154
 42
-0.20617707193727158
  0
LWPOLYLINE
  5
CC
330
17
100
AcDbEntity
  8
CUT
100
AcDbPolyline
 90
8
 70
1
 10
1683.0990748433378
 20
-708.5694777653316
 42
2.414213562373095
 10
1687.2333096466741
 20
-706.7287978390855
 10
1690.4586211925816
 20
-698.3265740006107
 42
2.414213562373095
 10
1688.6179412663355
 20
-694.1923391972748
 10
1628.8687939705146
 20
-671.2567904263756
 42
2.414213562373095
 10
1624.7345591671788
 20
-673.0974703526217
 10
1621.509247621271
 20
-681.4996941910965
 42
2.414213562373095
 10
1623.349927547517
 20
-685.6339289944324
  0
LWPOLYLINE
  5
CD
330
17
100
AcDbEntity
  8
CUT
100
AcDbPolyline
 90
8
 70
1
 10
1596.0115981991598
 20
-675.8184658086493
 42
2.414213562373095
 10
1600.0616087963158
 20
-673.7992050124858
 10
1602.9173507039618
 20
-665.26429211563
 42
2.414213562373095
 10
1600.8980899077983
 20
-661.2142815184739
 10
1540.2053759746013
 20
-640.906783508548
 42
2.414213562373095
 10
1536.1553653774454
 20
-642.9260443047115
 10
1533.2996234697994
 20
-651.4609572015672
 42
2.414213562373095
 10
1535.3188842659629
 20
-655.5109677987234
  0
LWPOLYLINE
  5
CE
330
17
100
AcDbEntity
  8
CUT
100
AcDbPolyline
 90
8
 70
1
 10
1411.956179422643
 20
-620.3313771262651
 42
2.414213562373095
 10
1415.807893794874
 20
-617.9556043267853
 10
1417.883436631556
 20
-609.1982004915671
 42
2.414213562373095
 10
1415.5076638320766
 20
-605.3464861193356
 10
1353.2327921149677
 20
-590.5870703918195
 42
2.414213562373095
 10
1349.3810777427366
 20
-592.9628431912993
 10
1347.3055349060546
 20
-601.7202470265174
 42
2.414213562373095
 10
1349.681307705534
 20
-605.571961398749
  0
LWPOLYLINE
  5
CF
330
17
100
AcDbEntity
  8
CUT
100
AcDbPolyline
 90
8
 70
1
 10
1315.2014874828342
 20
-598.2430493652109
 42
2.414213562373095
 10
1318.9384973060378
 20
-595.6906470494937
 10
1320.60435161344
 20
-586.8461612291358
 42
2.414213562373095
 10
1318.0519492977228
 20
-583.1091514059322
 10
1255.1578279085122
 20
-571.2630763310708
 42
2.414213562373095
 10
1251.4208180853086
 20
-573.815478646788
 10
1249.7549637779061
 20
-582.659964467146
 42
2.414213562373095
 10
1252.3073660936236
 20
-586.3969742903496
  0
LWPOLYLINE
  5
D0
330
17
100
AcDbEntity
  8
CUT
100
AcDbPolyline
 90
8
 70
1
 10
1119.1349761405202
 20
-567.6808154470277
 42
2.414213562373095
 10
1122.6185622255734
 20
-564.7921084719223
 10
1123.455110973938
 20
-555.8310713560741
 42
2.414213562373095
 10
1120.5664039988328
 20
-552.347485271021
 10
1056.8434733972451
 20
-546.3986941715398
 42
2.414213562373095
 10
1053.3598873121919
 20
-549.2874011466452
 10
1052.5233385638273
 20
-558.2484382624934
 42
2.414213562373095
 10
1055.4120455389325
 20
-561.7320243475465
  0
LWPOLYLINE
  5
D1
330
17
100
AcDbEntity
  8
CUT
100
AcDbPolyline
 90
8
 70
1
 10
1020.2477931420719
 20
-559.2731002830569
 42
2.414213562373095
 10
1023.593208897388
 20
-556.2254465258065
 10
1024.0119367071677
 20
-547.2351925237599
 42
2.414213562373095
 10
1020.9642829499172
 20
-543.8897767684439
 10
957.0335878242516
 20
-540.9121567877883
 42
2.414213562373095
 10
953.6881720689356
 20
-543.9598105450386
 10
953.2694442591559
 20
-552.9500645470853
 42
2.414213562373095
 10
956.3170980164064
 20
-556.2954803024013
  0
LWPOLYLINE
  5
D2
330
17
100
AcDbEntity
  8
CUT
100
AcDbPolyline
 90
8
 70
1
 10
821.835946743561
 20
-556.2954803024013
 42
2.414213562373095
 10
824.8836005008114
 20
-552.9500645470853
 10
824.4648726910318
 20
-543.9598105450386
 42
2.414213562373095
 10
821.1194569357157
 20
-540.9121567877883
 10
757.1887618100501
 20
-543.8897767684439
 42
2.414213562373095
 10
754.1411080527996
 20
-547.2351925237599
 10
754.5598358625793
 20
-556.2254465258065
 42
2.414213562373095
 10
757.9052516178954
 20
-559.2731002830569
  0
LWPOLYLINE
  5
D3
330
17
100
AcDbEntity
  8
CUT
100
AcDbPolyline
 90
8
 70
1
 10
722.7409992210344
 20
-561.7320243475465
 42
2.414213562373095
 10
725.6297061961396
 20
-558.2484382624934
 10
724.7931574477751
 20
-549.2874011466452
 42
2.414213562373095
 10
721.3095713627217
 20
-546.3986941715398
 10
657.5866407611342
 20
-552.347485271021
 42
2.414213562373095
 10
654.6979337860289
 20
-555.8310713560741
 10
655.5344825343934
 20
-564.7921084719223
 42
2.414213562373095
 10
659.0180686194468
 20
-567.6808154470277
  0
LWPOLYLINE
  5
D4
330
17
100
AcDbEntity
  8
CUT
100
AcDbPolyline
 90
8
 70
1
 10
525.8456786663437
 20
-586.3969742903496
 42
2.414213562373095
 10
528.3980809820612
 20
-582.659964467146
 10
526.7322266746587
 20
-573.815478646788
 42
2.414213562373095
 10
522.9952168514551
 20
-571.2630763310708
 10
460.1010954622447
 20
-583.1091514059322
 42
2.414213562373095
 10
457.5486931465273
 20
-586.8461612291358
 10
459.2145474539297
 20
-595.6906470494937
 42
2.414213562373095
 10
462.9515572771333
 20
-598.2430493652109
  0
LWPOLYLINE
  5
D5
330
17
100
AcDbEntity
  8
CUT
100
AcDbPolyline
 90
8
 70
1
 10
428.4717370544328
 20
-605.571961398749
 42
2.414213562373095
 10
430.8475098539124
 20
-601.7202470265174
 10
428.77196701723045
 20
-592.9628431912993
 42
2.414213562373095
 10
424.9202526449992
 20
-590.5870703918195
 10
362.6453809278905
 20
-605.3464861193356
 42
2.414213562373095
 10
360.2696081284108
 20
-609.1982004915671
 10
362.3451509650928
 20
-617.9556043267853
 42
2.414213562373095
 10
366.1968653373241
 20
-620.3313771262651
  0
LWPOLYLINE
  5
D6
330
17
100
AcDbEntity
  8
CUT
100
AcDbPolyline
 90
8
 70
1
 10
242.83416049400387
 20
-655.5109677987234
 42
2.414213562373095
 10
244.85342129016738
 20
-651.4609572015672
 10
241.9976793825216
 20
-642.9260443047115
 42
2.414213562373095
 10
237.9476687853654
 20
-640.906783508548
 10
177.25495485216868
 20
-661.2142815184739
 42
2.414213562373095
 10
175.23569405600517
 20
-665.26429211563
 10
178.09143596365095
 20
-673.7992050124858
 42
2.414213562373095
 10
182.14144656080714
 20
-675.8184658086493
  0
LWPOLYLINE
  5
D7
330
17
100
AcDbEntity
  8
CUT
100
AcDbPolyline
 90
8
 70
1
 10
154.80311721245027
 20
-685.6339289944324
 42
2.414213562373095
 10
156.6437971386963
 20
-681.4996941910965
 10
153.41848559278867
 20
-673.0974703526217
 42
2.414213562373095
 10
149.28425078945259
 20
-671.2567904263756
 10
89.53510349363171
 20
-694.1923391972748
 42
2.414213562373095
 10
87.69442356738568
 20
-698.3265740006107
 10
90.91973511329331
 20
-706.7287978390855
 42
2.414213562373095
 10
95.0539699166294
 20
-708.5694777653316
  0
TEXT
  5
D8
330
17
100
AcDbEntity
  8
ENGRAVE-LABEL
100
AcDbText
 10
29.0
 20
-754.2174778281542
 30
0.0
 40
22.0
  1
RAIL-BACK-MID
 11
29.0
 21
-754.2174778281542
 31
0.0
100
AcDbText
  0
LWPOLYLINE
  5
D9
330
17
100
AcDbEntity
  8
REFERENCE-SHEET
100
AcDbPolyline
 90
4
 70
1
 10
0.0
 20
-2940.0
 10
2440.0
 20
-2940.0
 10
2440.0
 20
-1720.0
 10
0.0
 20
-1720.0
  0
TEXT
  5
DA
330
17
100
AcDbEntity
  8
REFERENCE-SHEET
100
AcDbText
 10
0.0
 20
-1665.0
 30
0.0
 40
40.0
  1
SHEET 3/8  -  2440 x 1220  -  15 mm PLYWOOD
 11
0.0
 21
-1665.0
 31
0.0
100
AcDbText
  0
LWPOLYLINE
  5
DB
330
17
100
AcDbEntity
  8
CUT
100
AcDbPolyline
 90
12
 70
1
 10
1554.2538652712847
 20
-2925.0
 10
1562.1578805234828
 20
-2906.6281045372825
 10
1575.936802120521
 20
-2912.556115976431
 10
1599.6488478771155
 20
-2857.4404295882787
 10
1585.8699262800774
 20
-2851.51241814913
 10
1593.7739415322756
 20
-2833.1405226864126
 42
0.20598448830545238
 10
20.87490634483993
 20
-2833.1405226864126
 10
28.778921597038106
 20
-2851.51241814913
 10
15.0
 20
-2857.4404295882787
 10
38.712045756594534
 20
-2912.556115976431
 10
52.49096735363264
 20
-2906.6281045372825
 10
60.39498260583082
 20
-2925.0
 42
-0.20598448830545238
  0
TEXT
  5
DC
330
17
100
AcDbEntity
  8
ENGRAVE-LABEL
100
AcDbText
 10
29.0
 20
-2911.0
 30
0.0
 40
22.0
  1
RAIL-SEAT-OUT
 11
29.0
 21
-2911.0
 31
0.0
100
AcDbText
  0
LWPOLYLINE
  5
DD
330
17
100
AcDbEntity
  8
CUT
100
AcDbPolyline
 90
20
 70
1
 10
2303.47112850114
 20
-2740.646270614814
 10
2153.681391650066
 20
-2732.706828941373
 10
2154.4753358174103
 20
-2717.7278552562652
 10
2054.6155112500273
 20
-2712.434894140638
 10
2053.821567082683
 20
-2727.4138678257455
 10
1804.1720056642264
 20
-2714.181465036677
 10
1804.9659498315705
 20
-2699.2024913515693
 10
1705.1061252641878
 20
-2693.909530235942
 10
1704.3121810968437
 20
-2708.888503921049
 10
1614.4383389861991
 20
-2704.1248389169846
 42
0.02648336716538514
 10
1614.4383389861991
 20
-2914.7846913189574
 10
1704.3121810968437
 20
-2910.0210263148924
 10
1705.1061252641878
 20
-2925.0
 10
1804.9659498315705
 20
-2919.7070388843727
 10
1804.1720056642264
 20
-2904.728065199265
 10
2053.821567082683
 20
-2891.4956624101965
 10
2054.6155112500273
 20
-2906.474636095304
 10
2154.4753358174103
 20
-2901.1816749796762
 10
2153.681391650066
 20
-2886.202701294569
 10
2303.47112850114
 20
-2878.263259621128
 42
-0.02648336716538514
  0
LWPOLYLINE
  5
DE
330
17
100
AcDbEntity
  8
CUT
100
AcDbPolyline
 90
4
 70
1
 10
2064.6488478771153
 20
-2777.454765117971
 10
1848.6488478771155
 20
-2777.454765117971
 42
1.0
 10
1848.6488478771155
 20
-2841.454765117971
 10
2064.6488478771153
 20
-2841.454765117971
 42
1.0
  0
TEXT
  5
DF
330
17
100
AcDbEntity
  8
ENGRAVE-LABEL
100
AcDbText
 10
1625.6488478771155
 20
-2911.0
 30
0.0
 40
22.0
  1
ARM-CAP 1/2
 11
1625.6488478771155
 21
-2911.0
 31
0.0
100
AcDbText
  0
LWPOLYLINE
  5
E0
330
17
100
AcDbEntity
  8
CUT
100
AcDbPolyline
 90
4
 70
1
 10
1397.9697870249004
 20
-2659.1441212268005
 10
1448.44313691632
 20
-2572.816599828707
 42
0.2708851033529399
 10
15.0
 20
-2572.816599828707
 10
65.47334989141973
 20
-2659.144121226801
 42
-0.2708851033529399
  0
TEXT
  5
E1
330
17
100
AcDbEntity
  8
ENGRAVE-LABEL
100
AcDbText
 10
29.0
 20
-2645.144121226801
 30
0.0
 40
22.0
  1
RAIL-BASE-IN 1/3
 11
29.0
 21
-2645.144121226801
 31
0.0
100
AcDbText
  0
LWPOLYLINE
  5
E2
330
17
100
AcDbEntity
  8
CUT
100
AcDbPolyline
 90
20
 70
1
 10
2152.265417540345
 20
-2474.790391841615
 10
2002.4756806892706
 20
-2466.8509501681738
 10
2003.2696248566147
 20
-2451.871976483066
 10
1903.409800289232
 20
-2446.579015367439
 10
1902.6158561218879
 20
-2461.557989052546
 10
1652.966294703431
 20
-2448.3255862634774
 10
1653.760238870775
 20
-2433.3466125783702
 10
1553.9004143033924
 20
-2428.0536514627424
 10
1553.1064701360483
 20
-2443.03262514785
 10
1463.2326280254038
 20
-2438.268960143785
 42
0.02648336716538514
 10
1463.2326280254038
 20
-2648.928812545758
 10
1553.1064701360483
 20
-2644.1651475416934
 10
1553.9004143033924
 20
-2659.144121226801
 10
1653.760238870775
 20
-2653.851160111173
 10
1652.966294703431
 20
-2638.872186426066
 10
1902.6158561218879
 20
-2625.6397836369974
 10
1903.409800289232
 20
-2640.6187573221046
 10
2003.2696248566147
 20
-2635.325796206477
 10
2002.4756806892706
 20
-2620.3468225213696
 10
2152.265417540345
 20
-2612.407380847929
 42
-0.02648336716538514
  0
LWPOLYLINE
  5
E3
330
17
100
AcDbEntity
  8
CUT
100
AcDbPolyline
 90
4
 70
1
 10
1913.44313691632
 20
-2511.598886344772
 10
1697.44313691632
 20
-2511.598886344772
 42
1.0
 10
1697.44313691632
 20
-2575.598886344772
 10
1913.44313691632
 20
-2575.598886344772
 42
1.0
  0
TEXT
  5
E4
330
17
100
AcDbEntity
  8
ENGRAVE-LABEL
100
AcDbText
 10
1474.44313691632
 20
-2645.144121226801
 30
0.0
 40
22.0
  1
ARM-CAP 2/2
 11
1474.44313691632
 21
-2645.144121226801
 31
0.0
100
AcDbText
  0
LWPOLYLINE
  5
E5
330
17
100
AcDbEntity
  8
CUT
100
AcDbPolyline
 90
4
 70
1
 10
1397.9697870249004
 20
-2366.6674036816366
 10
1448.44313691632
 20
-2280.339882283543
 42
0.2708851033529399
 10
15.0
 20
-2280.3398822835434
 10
65.47334989141973
 20
-2366.6674036816366
 42
-0.2708851033529399
  0
TEXT
  5
E6
330
17
100
AcDbEntity
  8
ENGRAVE-LABEL
100
AcDbText
 10
29.0
 20
-2352.6674036816366
 30
0.0
 40
22.0
  1
RAIL-BASE-IN 2/3
 11
29.0
 21
-2352.6674036816366
 31
0.0
100
AcDbText
  0
LWPOLYLINE
  5
E7
330
17
100
AcDbEntity
  8
CUT
100
AcDbPolyline
 90
4
 70
1
 10
1397.9697870249004
 20
-2074.190686136473
 10
1448.44313691632
 20
-1987.863164738379
 42
0.2708851033529399
 10
15.0
 20
-1987.8631647383793
 10
65.47334989141973
 20
-2074.1906861364732
 42
-0.2708851033529399
  0
TEXT
  5
E8
330
17
100
AcDbEntity
  8
ENGRAVE-LABEL
100
AcDbText
 10
29.0
 20
-2060.1906861364732
 30
0.0
 40
22.0
  1
RAIL-BASE-IN 3/3
 11
29.0
 21
-2060.1906861364732
 31
0.0
100
AcDbText
  0
LWPOLYLINE
  5
E9
330
17
100
AcDbEntity
  8
REFERENCE-SHEET
100
AcDbPolyline
 90
4
 70
1
 10
0.0
 20
-4410.0
 10
2440.0
 20
-4410.0
 10
2440.0
 20
-3190.0
 10
0.0
 20
-3190.0
  0
TEXT
  5
EA
330
17
100
AcDbEntity
  8
REFERENCE-SHEET
100
AcDbText
 10
0.0
 20
-3135.0
 30
0.0
 40
40.0
  1
SHEET 4/8  -  2440 x 1220  -  15 mm PLYWOOD
 11
0.0
 21
-3135.0
 31
0.0
100
AcDbText
  0
LWPOLYLINE
  5
EB
330
17
100
AcDbEntity
  8
CUT
100
AcDbPolyline
 90
12
 70
1
 10
220.78891598203154
 20
-3318.2598940098587
 10
202.40401393595562
 20
-3310.3861797175955
 10
208.30929965515338
 20
-3296.5975031830385
 10
153.15459351692584
 20
-3272.976360306248
 10
147.24930779772808
 20
-3286.765036840805
 10
128.86440575165216
 20
-3278.891322548541
 42
0.20512529334612506
 10
128.86440575165216
 20
-4389.085037757706
 10
147.24930779772808
 20
-4381.2113234654435
 10
153.15459351692584
 20
-4395.0
 10
208.30929965515338
 20
-4371.378857123209
 10
202.40401393595562
 20
-4357.590180588652
 10
220.78891598203154
 20
-4349.716466296389
 42
-0.20512529334612506
  0
TEXT
  5
EC
330
17
100
AcDbEntity
  8
ENGRAVE-LABEL
100
AcDbText
 10
29.0
 20
-4381.0
 30
0.0
 40
22.0
  1
RAIL-SEAT-IN
 11
29.0
 21
-4381.0
 31
0.0
100
AcDbText
  0
LWPOLYLINE
  5
ED
330
17
100
AcDbEntity
  8
CUT
100
AcDbPolyline
 90
46
 70
1
 10
962.7889159820315
 20
-4395.0
 10
962.7889159820315
 20
-4375.0
 10
947.5889159820315
 20
-4375.0
 10
947.5889159820315
 20
-4275.0
 10
962.7889159820315
 20
-4275.0
 10
962.7889159820315
 20
-4245.0
 10
907.7889159820315
 20
-4245.0
 10
907.7889159820315
 20
-3645.0
 10
962.7889159820315
 20
-3645.0
 10
962.7889159820315
 20
-3615.0
 10
947.5889159820315
 20
-3615.0
 10
947.5889159820315
 20
-3515.0
 10
962.7889159820315
 20
-3515.0
 10
962.7889159820315
 20
-3495.0
 10
662.7889159820315
 20
-3495.0
 10
662.7889159820315
 20
-3605.0
 10
647.3889159820316
 20
-3605.0
 10
647.3889159820316
 20
-3495.0
 10
472.78891598203154
 20
-3495.0
 10
472.78891598203154
 20
-3605.0
 10
457.38891598203156
 20
-3605.0
 10
457.38891598203156
 20
-3495.0
 10
232.78891598203154
 20
-3495.0
 10
232.78891598203154
 20
-3505.0
 10
247.98891598203159
 20
-3505.0
 10
247.98891598203159
 20
-3605.0
 10
232.78891598203154
 20
-3605.0
 10
232.78891598203154
 20
-3695.0
 10
662.7889159820315
 20
-3695.0
 10
662.7889159820315
 20
-3705.0
 10
677.9889159820316
 20
-3705.0
 10
677.9889159820316
 20
-3805.0
 10
662.7889159820315
 20
-3805.0
 10
662.7889159820315
 20
-3815.0
 10
647.7889159820315
 20
-3815.0
 10
647.7889159820315
 20
-3875.0
 10
662.7889159820315
 20
-3875.0
 10
662.7889159820315
 20
-4115.0
 10
647.7889159820315
 20
-4115.0
 10
647.7889159820315
 20
-4175.0
 10
662.7889159820315
 20
-4175.0
 10
662.7889159820315
 20
-4285.0
 10
677.9889159820316
 20
-4285.0
 10
677.9889159820316
 20
-4385.0
 10
662.7889159820315
 20
-4385.0
 10
662.7889159820315
 20
-4395.0
  0
LWPOLYLINE
  5
EE
330
17
100
AcDbEntity
  8
CUT
100
AcDbPolyline
 90
4
 70
1
 10
837.7889159820315
 20
-4115.0
 10
837.7889159820315
 20
-3775.0
 42
1.0
 10
737.7889159820315
 20
-3775.0
 10
737.7889159820315
 20
-4115.0
 42
1.0
  0
LWPOLYLINE
  5
EF
330
17
100
AcDbEntity
  8
CUT
100
AcDbPolyline
 90
4
 70
1
 10
412.78891598203154
 20
-3610.0
 10
412.78891598203154
 20
-3560.0
 42
1.0
 10
332.78891598203154
 20
-3560.0
 10
332.78891598203154
 20
-3610.0
 42
1.0
  0
TEXT
  5
F0
330
17
100
AcDbEntity
  8
ENGRAVE-LABEL
100
AcDbText
 10
246.78891598203154
 20
-4381.0
 30
0.0
 40
22.0
  1
RIB 1/5
 11
246.78891598203154
 21
-4381.0
 31
0.0
100
AcDbText
  0
LWPOLYLINE
  5
F1
330
17
100
AcDbEntity
  8
CUT
100
AcDbPolyline
 90
46
 70
1
 10
1704.7889159820315
 20
-4395.0
 10
1704.7889159820315
 20
-4375.0
 10
1689.5889159820315
 20
-4375.0
 10
1689.5889159820315
 20
-4275.0
 10
1704.7889159820315
 20
-4275.0
 10
1704.7889159820315
 20
-4245.0
 10
1649.7889159820315
 20
-4245.0
 10
1649.7889159820315
 20
-3645.0
 10
1704.7889159820315
 20
-3645.0
 10
1704.7889159820315
 20
-3615.0
 10
1689.5889159820315
 20
-3615.0
 10
1689.5889159820315
 20
-3515.0
 10
1704.7889159820315
 20
-3515.0
 10
1704.7889159820315
 20
-3495.0
 10
1404.7889159820315
 20
-3495.0
 10
1404.7889159820315
 20
-3605.0
 10
1389.3889159820314
 20
-3605.0
 10
1389.3889159820314
 20
-3495.0
 10
1214.7889159820315
 20
-3495.0
 10
1214.7889159820315
 20
-3605.0
 10
1199.3889159820314
 20
-3605.0
 10
1199.3889159820314
 20
-3495.0
 10
974.7889159820315
 20
-3495.0
 10
974.7889159820315
 20
-3505.0
 10
989.9889159820316
 20
-3505.0
 10
989.9889159820316
 20
-3605.0
 10
974.7889159820315
 20
-3605.0
 10
974.7889159820315
 20
-3695.0
 10
1404.7889159820315
 20
-3695.0
 10
1404.7889159820315
 20
-3705.0
 10
1419.9889159820316
 20
-3705.0
 10
1419.9889159820316
 20
-3805.0
 10
1404.7889159820315
 20
-3805.0
 10
1404.7889159820315
 20
-3815.0
 10
1389.7889159820315
 20
-3815.0
 10
1389.7889159820315
 20
-3875.0
 10
1404.7889159820315
 20
-3875.0
 10
1404.7889159820315
 20
-4115.0
 10
1389.7889159820315
 20
-4115.0
 10
1389.7889159820315
 20
-4175.0
 10
1404.7889159820315
 20
-4175.0
 10
1404.7889159820315
 20
-4285.0
 10
1419.9889159820316
 20
-4285.0
 10
1419.9889159820316
 20
-4385.0
 10
1404.7889159820315
 20
-4385.0
 10
1404.7889159820315
 20
-4395.0
  0
LWPOLYLINE
  5
F2
330
17
100
AcDbEntity
  8
CUT
100
AcDbPolyline
 90
4
 70
1
 10
1579.7889159820315
 20
-4115.0
 10
1579.7889159820315
 20
-3775.0
 42
1.0
 10
1479.7889159820315
 20
-3775.0
 10
1479.7889159820315
 20
-4115.0
 42
1.0
  0
LWPOLYLINE
  5
F3
330
17
100
AcDbEntity
  8
CUT
100
AcDbPolyline
 90
4
 70
1
 10
1154.7889159820315
 20
-3610.0
 10
1154.7889159820315
 20
-3560.0
 42
1.0
 10
1074.7889159820315
 20
-3560.0
 10
1074.7889159820315
 20
-3610.0
 42
1.0
  0
TEXT
  5
F4
330
17
100
AcDbEntity
  8
ENGRAVE-LABEL
100
AcDbText
 10
988.7889159820315
 20
-4381.0
 30
0.0
 40
22.0
  1
RIB 2/5
 11
988.7889159820315
 21
-4381.0
 31
0.0
100
AcDbText
  0
LWPOLYLINE
  5
F5
330
17
100
AcDbEntity
  8
CUT
100
AcDbPolyline
 90
4
 70
1
 10
2049.264133713925
 20
-4395.0
 10
2118.9929787701576
 20
-3708.532310908136
 42
0.050657814643100804
 10
1716.7889159820315
 20
-3708.532310908136
 10
1786.5177610382643
 20
-4395.0
 42
-0.050657814643100804
  0
LWPOLYLINE
  5
F6
330
17
100
AcDbEntity
  8
CUT
100
AcDbPolyline
 90
8
 70
1
 10
1887.9095795541336
 20
-4168.83401082771
 42
2.414213562373095
 10
1891.0361564365335
 20
-4165.562235010445
 10
1889.8110404236033
 20
-4111.576134107019
 42
2.414213562373095
 10
1886.5392646063378
 20
-4108.44955722462
 10
1877.5415811224334
 20
-4108.653743226774
 42
2.414213562373095
 10
1874.4150042400338
 20
-4111.92551904404
 10
1875.640120252964
 20
-4165.911619947466
 42
2.414213562373095
 10
1878.9118960702294
 20
-4169.038196829865
  0
LWPOLYLINE
  5
F7
330
17
100
AcDbEntity
  8
CUT
100
AcDbPolyline
 90
8
 70
1
 10
1881.1033794822993
 20
-3868.911228030901
 42
2.414213562373095
 10
1884.229956364699
 20
-3865.639452213635
 10
1883.004840351769
 20
-3811.6533513102095
 42
2.414213562373095
 10
1879.7330645345035
 20
-3808.52677442781
 10
1870.735381050599
 20
-3808.7309604299644
 42
2.414213562373095
 10
1867.6088041681994
 20
-3812.00273624723
 10
1868.8339201811295
 20
-3865.988837150656
 42
2.414213562373095
 10
1872.105695998395
 20
-3869.1154140330555
  0
LWPOLYLINE
  5
F8
330
17
100
AcDbEntity
  8
CUT
100
AcDbPolyline
 90
4
 70
1
 10
2018.4212480586903
 20
-4039.1855420829806
 10
2022.6957514200549
 20
-3943.2807527290925
 42
1.0
 10
1968.7493074084928
 20
-3940.876344588325
 10
1964.4748040471281
 20
-4036.7811339422133
 42
1.0
  0
LWPOLYLINE
  5
F9
330
17
100
AcDbEntity
  8
CUT
100
AcDbPolyline
 90
4
 70
1
 10
1871.3070907050612
 20
-4036.7811339422133
 10
1867.0325873436968
 20
-3940.876344588325
 42
1.0
 10
1813.0861433321347
 20
-3943.2807527290925
 10
1817.3606466934991
 20
-4039.1855420829806
 42
1.0
  0
TEXT
  5
FA
330
17
100
AcDbEntity
  8
ENGRAVE-LABEL
100
AcDbText
 10
1730.7889159820315
 20
-4381.0
 30
0.0
 40
22.0
  1
SEAT-DECK-1
 11
1730.7889159820315
 21
-4381.0
 31
0.0
100
AcDbText
  0
LWPOLYLINE
  5
FB
330
17
100
AcDbEntity
  8
REFERENCE-SHEET
100
AcDbPolyline
 90
4
 70
1
 10
0.0
 20
-5880.0
 10
2440.0
 20
-5880.0
 10
2440.0
 20
-4660.0
 10
0.0
 20
-4660.0
  0
TEXT
  5
FC
330
17
100
AcDbEntity
  8
REFERENCE-SHEET
100
AcDbText
 10
0.0
 20
-4605.0
 30
0.0
 40
40.0
  1
SHEET 5/8  -  2440 x 1220  -  15 mm PLYWOOD
 11
0.0
 21
-4605.0
 31
0.0
100
AcDbText
  0
LWPOLYLINE
  5
FD
330
17
100
AcDbEntity
  8
CUT
100
AcDbPolyline
 90
46
 70
1
 10
745.0
 20
-5865.0
 10
745.0
 20
-5845.0
 10
729.8
 20
-5845.0
 10
729.8
 20
-5745.0
 10
745.0
 20
-5745.0
 10
745.0
 20
-5715.0
 10
690.0
 20
-5715.0
 10
690.0
 20
-5115.0
 10
745.0
 20
-5115.0
 10
745.0
 20
-5085.0
 10
729.8
 20
-5085.0
 10
729.8
 20
-4985.0
 10
745.0
 20
-4985.0
 10
745.0
 20
-4965.0
 10
445.0
 20
-4965.0
 10
445.0
 20
-5075.0
 10
429.6
 20
-5075.0
 10
429.6
 20
-4965.0
 10
255.0
 20
-4965.0
 10
255.0
 20
-5075.0
 10
239.60000000000002
 20
-5075.0
 10
239.60000000000002
 20
-4965.0
 10
15.0
 20
-4965.0
 10
15.0
 20
-4975.0
 10
30.200000000000045
 20
-4975.0
 10
30.200000000000045
 20
-5075.0
 10
15.0
 20
-5075.0
 10
15.0
 20
-5165.0
 10
445.0
 20
-5165.0
 10
445.0
 20
-5175.0
 10
460.2
 20
-5175.0
 10
460.2
 20
-5275.0
 10
445.0
 20
-5275.0
 10
445.0
 20
-5285.0
 10
430.0
 20
-5285.0
 10
430.0
 20
-5345.0
 10
445.0
 20
-5345.0
 10
445.0
 20
-5585.0
 10
430.0
 20
-5585.0
 10
430.0
 20
-5645.0
 10
445.0
 20
-5645.0
 10
445.0
 20
-5755.0
 10
460.2
 20
-5755.0
 10
460.2
 20
-5855.0
 10
445.0
 20
-5855.0
 10
445.0
 20
-5865.0
  0
LWPOLYLINE
  5
FE
330
17
100
AcDbEntity
  8
CUT
100
AcDbPolyline
 90
4
 70
1
 10
620.0
 20
-5585.0
 10
620.0
 20
-5245.0
 42
1.0
 10
520.0
 20
-5245.0
 10
520.0
 20
-5585.0
 42
1.0
  0
LWPOLYLINE
  5
FF
330
17
100
AcDbEntity
  8
CUT
100
AcDbPolyline
 90
4
 70
1
 10
195.0
 20
-5080.0
 10
195.0
 20
-5030.0
 42
1.0
 10
115.0
 20
-5030.0
 10
115.0
 20
-5080.0
 42
1.0
  0
TEXT
  5
100
330
17
100
AcDbEntity
  8
ENGRAVE-LABEL
100
AcDbText
 10
29.0
 20
-5851.0
 30
0.0
 40
22.0
  1
RIB 3/5
 11
29.0
 21
-5851.0
 31
0.0
100
AcDbText
  0
LWPOLYLINE
  5
101
330
17
100
AcDbEntity
  8
CUT
100
AcDbPolyline
 90
46
 70
1
 10
1487.0
 20
-5865.0
 10
1487.0
 20
-5845.0
 10
1471.8
 20
-5845.0
 10
1471.8
 20
-5745.0
 10
1487.0
 20
-5745.0
 10
1487.0
 20
-5715.0
 10
1432.0
 20
-5715.0
 10
1432.0
 20
-5115.0
 10
1487.0
 20
-5115.0
 10
1487.0
 20
-5085.0
 10
1471.8
 20
-5085.0
 10
1471.8
 20
-4985.0
 10
1487.0
 20
-4985.0
 10
1487.0
 20
-4965.0
 10
1187.0
 20
-4965.0
 10
1187.0
 20
-5075.0
 10
1171.6
 20
-5075.0
 10
1171.6
 20
-4965.0
 10
997.0
 20
-4965.0
 10
997.0
 20
-5075.0
 10
981.6
 20
-5075.0
 10
981.6
 20
-4965.0
 10
757.0
 20
-4965.0
 10
757.0
 20
-4975.0
 10
772.2
 20
-4975.0
 10
772.2
 20
-5075.0
 10
757.0
 20
-5075.0
 10
757.0
 20
-5165.0
 10
1187.0
 20
-5165.0
 10
1187.0
 20
-5175.0
 10
1202.2
 20
-5175.0
 10
1202.2
 20
-5275.0
 10
1187.0
 20
-5275.0
 10
1187.0
 20
-5285.0
 10
1172.0
 20
-5285.0
 10
1172.0
 20
-5345.0
 10
1187.0
 20
-5345.0
 10
1187.0
 20
-5585.0
 10
1172.0
 20
-5585.0
 10
1172.0
 20
-5645.0
 10
1187.0
 20
-5645.0
 10
1187.0
 20
-5755.0
 10
1202.2
 20
-5755.0
 10
1202.2
 20
-5855.0
 10
1187.0
 20
-5855.0
 10
1187.0
 20
-5865.0
  0
LWPOLYLINE
  5
102
330
17
100
AcDbEntity
  8
CUT
100
AcDbPolyline
 90
4
 70
1
 10
1362.0
 20
-5585.0
 10
1362.0
 20
-5245.0
 42
1.0
 10
1262.0
 20
-5245.0
 10
1262.0
 20
-5585.0
 42
1.0
  0
LWPOLYLINE
  5
103
330
17
100
AcDbEntity
  8
CUT
100
AcDbPolyline
 90
4
 70
1
 10
937.0
 20
-5080.0
 10
937.0
 20
-5030.0
 42
1.0
 10
857.0
 20
-5030.0
 10
857.0
 20
-5080.0
 42
1.0
  0
TEXT
  5
104
330
17
100
AcDbEntity
  8
ENGRAVE-LABEL
100
AcDbText
 10
771.0
 20
-5851.0
 30
0.0
 40
22.0
  1
RIB 4/5
 11
771.0
 21
-5851.0
 31
0.0
100
AcDbText
  0
LWPOLYLINE
  5
105
330
17
100
AcDbEntity
  8
CUT
100
AcDbPolyline
 90
46
 70
1
 10
2229.0
 20
-5865.0
 10
2229.0
 20
-5845.0
 10
2213.8
 20
-5845.0
 10
2213.8
 20
-5745.0
 10
2229.0
 20
-5745.0
 10
2229.0
 20
-5715.0
 10
2174.0
 20
-5715.0
 10
2174.0
 20
-5115.0
 10
2229.0
 20
-5115.0
 10
2229.0
 20
-5085.0
 10
2213.8
 20
-5085.0
 10
2213.8
 20
-4985.0
 10
2229.0
 20
-4985.0
 10
2229.0
 20
-4965.0
 10
1929.0
 20
-4965.0
 10
1929.0
 20
-5075.0
 10
1913.6
 20
-5075.0
 10
1913.6
 20
-4965.0
 10
1739.0
 20
-4965.0
 10
1739.0
 20
-5075.0
 10
1723.6
 20
-5075.0
 10
1723.6
 20
-4965.0
 10
1499.0
 20
-4965.0
 10
1499.0
 20
-4975.0
 10
1514.2
 20
-4975.0
 10
1514.2
 20
-5075.0
 10
1499.0
 20
-5075.0
 10
1499.0
 20
-5165.0
 10
1929.0
 20
-5165.0
 10
1929.0
 20
-5175.0
 10
1944.2
 20
-5175.0
 10
1944.2
 20
-5275.0
 10
1929.0
 20
-5275.0
 10
1929.0
 20
-5285.0
 10
1914.0
 20
-5285.0
 10
1914.0
 20
-5345.0
 10
1929.0
 20
-5345.0
 10
1929.0
 20
-5585.0
 10
1914.0
 20
-5585.0
 10
1914.0
 20
-5645.0
 10
1929.0
 20
-5645.0
 10
1929.0
 20
-5755.0
 10
1944.2
 20
-5755.0
 10
1944.2
 20
-5855.0
 10
1929.0
 20
-5855.0
 10
1929.0
 20
-5865.0
  0
LWPOLYLINE
  5
106
330
17
100
AcDbEntity
  8
CUT
100
AcDbPolyline
 90
4
 70
1
 10
2104.0
 20
-5585.0
 10
2104.0
 20
-5245.0
 42
1.0
 10
2004.0
 20
-5245.0
 10
2004.0
 20
-5585.0
 42
1.0
  0
LWPOLYLINE
  5
107
330
17
100
AcDbEntity
  8
CUT
100
AcDbPolyline
 90
4
 70
1
 10
1679.0
 20
-5080.0
 10
1679.0
 20
-5030.0
 42
1.0
 10
1599.0
 20
-5030.0
 10
1599.0
 20
-5080.0
 42
1.0
  0
TEXT
  5
108
330
17
100
AcDbEntity
  8
ENGRAVE-LABEL
100
AcDbText
 10
1513.0
 20
-5851.0
 30
0.0
 40
22.0
  1
RIB 5/5
 11
1513.0
 21
-5851.0
 31
0.0
100
AcDbText
  0
LWPOLYLINE
  5
109
330
17
100
AcDbEntity
  8
REFERENCE-SHEET
100
AcDbPolyline
 90
4
 70
1
 10
0.0
 20
-7350.0
 10
2440.0
 20
-7350.0
 10
2440.0
 20
-6130.0
 10
0.0
 20
-6130.0
  0
TEXT
  5
10A
330
17
100
AcDbEntity
  8
REFERENCE-SHEET
100
AcDbText
 10
0.0
 20
-6075.0
 30
0.0
 40
40.0
  1
SHEET 6/8  -  2440 x 1220  -  15 mm PLYWOOD
 11
0.0
 21
-6075.0
 31
0.0
100
AcDbText
  0
LWPOLYLINE
  5
10B
330
17
100
AcDbEntity
  8
CUT
100
AcDbPolyline
 90
32
 70
1
 10
745.0
 20
-7335.0
 10
745.0
 20
-7315.0
 10
729.8
 20
-7315.0
 10
729.8
 20
-7215.0
 10
745.0
 20
-7215.0
 10
745.0
 20
-7185.0
 10
690.0
 20
-7185.0
 10
690.0
 20
-6585.0
 10
745.0
 20
-6585.0
 10
745.0
 20
-6555.0
 10
729.8
 20
-6555.0
 10
729.8
 20
-6455.0
 10
745.0
 20
-6455.0
 10
745.0
 20
-6435.0
 10
15.0
 20
-6435.0
 10
15.0
 20
-6445.0
 10
30.200000000000045
 20
-6445.0
 10
30.200000000000045
 20
-6545.0
 10
15.0
 20
-6545.0
 10
15.0
 20
-6635.0
 10
155.0
 20
-6635.0
 10
155.0
 20
-6735.0
 10
170.20000000000005
 20
-6735.0
 10
170.20000000000005
 20
-6835.0
 10
155.0
 20
-6835.0
 10
155.0
 20
-7085.0
 10
170.20000000000005
 20
-7085.0
 10
170.20000000000005
 20
-7185.0
 10
155.0
 20
-7185.0
 10
155.0
 20
-7215.0
 42
0.41421356237309503
 10
275.0
 20
-7335.0
 10
745.0
 20
-7335.0
  0
LWPOLYLINE
  5
10C
330
17
100
AcDbEntity
  8
CUT
100
AcDbPolyline
 90
8
 70
1
 10
457.0
 20
-7305.2
 42
2.414213562373095
 10
460.2
 20
-7302.0
 10
460.2
 20
-7248.0
 42
2.414213562373095
 10
457.0
 20
-7244.8
 10
448.0
 20
-7244.8
 42
2.414213562373095
 10
444.8
 20
-7248.0
 10
444.8
 20
-7302.0
 42
2.414213562373095
 10
448.0
 20
-7305.2
  0
LWPOLYLINE
  5
10D
330
17
100
AcDbEntity
  8
CUT
100
AcDbPolyline
 90
8
 70
1
 10
457.0
 20
-6725.2
 42
2.414213562373095
 10
460.2
 20
-6722.0
 10
460.2
 20
-6668.0
 42
2.414213562373095
 10
457.0
 20
-6664.8
 10
448.0
 20
-6664.8
 42
2.414213562373095
 10
444.8
 20
-6668.0
 10
444.8
 20
-6722.0
 42
2.414213562373095
 10
448.0
 20
-6725.2
  0
LWPOLYLINE
  5
10E
330
17
100
AcDbEntity
  8
CUT
100
AcDbPolyline
 90
8
 70
1
 10
442.0
 20
-6520.2
 42
2.414213562373095
 10
445.2
 20
-6517.0
 10
445.2
 20
-6463.0
 42
2.414213562373095
 10
442.0
 20
-6459.8
 10
433.0
 20
-6459.8
 42
2.414213562373095
 10
429.8
 20
-6463.0
 10
429.8
 20
-6517.0
 42
2.414213562373095
 10
433.0
 20
-6520.2
  0
LWPOLYLINE
  5
10F
330
17
100
AcDbEntity
  8
CUT
100
AcDbPolyline
 90
8
 70
1
 10
252.0
 20
-6520.2
 42
2.414213562373095
 10
255.2
 20
-6517.0
 10
255.2
 20
-6463.0
 42
2.414213562373095
 10
252.0
 20
-6459.8
 10
243.0
 20
-6459.8
 42
2.414213562373095
 10
239.8
 20
-6463.0
 10
239.8
 20
-6517.0
 42
2.414213562373095
 10
243.0
 20
-6520.2
  0
LWPOLYLINE
  5
110
330
17
100
AcDbEntity
  8
CUT
100
AcDbPolyline
 90
4
 70
1
 10
620.0
 20
-7055.0
 10
620.0
 20
-6715.0
 42
1.0
 10
520.0
 20
-6715.0
 10
520.0
 20
-7055.0
 42
1.0
  0
LWPOLYLINE
  5
111
330
17
100
AcDbEntity
  8
CUT
100
AcDbPolyline
 90
4
 70
1
 10
370.0
 20
-7080.0
 10
370.0
 20
-6790.0
 42
1.0
 10
260.0
 20
-6790.0
 10
260.0
 20
-7080.0
 42
1.0
  0
TEXT
  5
112
330
17
100
AcDbEntity
  8
ENGRAVE-LABEL
100
AcDbText
 10
29.0
 20
-7321.0
 30
0.0
 40
22.0
  1
ARM-PANEL-IN 1/2
 11
29.0
 21
-7321.0
 31
0.0
100
AcDbText
  0
LWPOLYLINE
  5
113
330
17
100
AcDbEntity
  8
CUT
100
AcDbPolyline
 90
32
 70
1
 10
1487.0
 20
-7335.0
 10
1487.0
 20
-7315.0
 10
1471.8
 20
-7315.0
 10
1471.8
 20
-7215.0
 10
1487.0
 20
-7215.0
 10
1487.0
 20
-7185.0
 10
1432.0
 20
-7185.0
 10
1432.0
 20
-6585.0
 10
1487.0
 20
-6585.0
 10
1487.0
 20
-6555.0
 10
1471.8
 20
-6555.0
 10
1471.8
 20
-6455.0
 10
1487.0
 20
-6455.0
 10
1487.0
 20
-6435.0
 10
757.0
 20
-6435.0
 10
757.0
 20
-6445.0
 10
772.2
 20
-6445.0
 10
772.2
 20
-6545.0
 10
757.0
 20
-6545.0
 10
757.0
 20
-6635.0
 10
897.0
 20
-6635.0
 10
897.0
 20
-6735.0
 10
912.2
 20
-6735.0
 10
912.2
 20
-6835.0
 10
897.0
 20
-6835.0
 10
897.0
 20
-7085.0
 10
912.2
 20
-7085.0
 10
912.2
 20
-7185.0
 10
897.0
 20
-7185.0
 10
897.0
 20
-7215.0
 42
0.41421356237309503
 10
1017.0
 20
-7335.0
 10
1487.0
 20
-7335.0
  0
LWPOLYLINE
  5
114
330
17
100
AcDbEntity
  8
CUT
100
AcDbPolyline
 90
8
 70
1
 10
1199.0
 20
-7305.2
 42
2.414213562373095
 10
1202.2
 20
-7302.0
 10
1202.2
 20
-7248.0
 42
2.414213562373095
 10
1199.0
 20
-7244.8
 10
1190.0
 20
-7244.8
 42
2.414213562373095
 10
1186.8
 20
-7248.0
 10
1186.8
 20
-7302.0
 42
2.414213562373095
 10
1190.0
 20
-7305.2
  0
LWPOLYLINE
  5
115
330
17
100
AcDbEntity
  8
CUT
100
AcDbPolyline
 90
8
 70
1
 10
1199.0
 20
-6725.2
 42
2.414213562373095
 10
1202.2
 20
-6722.0
 10
1202.2
 20
-6668.0
 42
2.414213562373095
 10
1199.0
 20
-6664.8
 10
1190.0
 20
-6664.8
 42
2.414213562373095
 10
1186.8
 20
-6668.0
 10
1186.8
 20
-6722.0
 42
2.414213562373095
 10
1190.0
 20
-6725.2
  0
LWPOLYLINE
  5
116
330
17
100
AcDbEntity
  8
CUT
100
AcDbPolyline
 90
8
 70
1
 10
1184.0
 20
-6520.2
 42
2.414213562373095
 10
1187.2
 20
-6517.0
 10
1187.2
 20
-6463.0
 42
2.414213562373095
 10
1184.0
 20
-6459.8
 10
1175.0
 20
-6459.8
 42
2.414213562373095
 10
1171.8
 20
-6463.0
 10
1171.8
 20
-6517.0
 42
2.414213562373095
 10
1175.0
 20
-6520.2
  0
LWPOLYLINE
  5
117
330
17
100
AcDbEntity
  8
CUT
100
AcDbPolyline
 90
8
 70
1
 10
994.0
 20
-6520.2
 42
2.414213562373095
 10
997.2
 20
-6517.0
 10
997.2
 20
-6463.0
 42
2.414213562373095
 10
994.0
 20
-6459.8
 10
985.0
 20
-6459.8
 42
2.414213562373095
 10
981.8
 20
-6463.0
 10
981.8
 20
-6517.0
 42
2.414213562373095
 10
985.0
 20
-6520.2
  0
LWPOLYLINE
  5
118
330
17
100
AcDbEntity
  8
CUT
100
AcDbPolyline
 90
4
 70
1
 10
1362.0
 20
-7055.0
 10
1362.0
 20
-6715.0
 42
1.0
 10
1262.0
 20
-6715.0
 10
1262.0
 20
-7055.0
 42
1.0
  0
LWPOLYLINE
  5
119
330
17
100
AcDbEntity
  8
CUT
100
AcDbPolyline
 90
4
 70
1
 10
1112.0
 20
-7080.0
 10
1112.0
 20
-6790.0
 42
1.0
 10
1002.0
 20
-6790.0
 10
1002.0
 20
-7080.0
 42
1.0
  0
TEXT
  5
11A
330
17
100
AcDbEntity
  8
ENGRAVE-LABEL
100
AcDbText
 10
771.0
 20
-7321.0
 30
0.0
 40
22.0
  1
ARM-PANEL-IN 2/2
 11
771.0
 21
-7321.0
 31
0.0
100
AcDbText
  0
LWPOLYLINE
  5
11B
330
17
100
AcDbEntity
  8
CUT
100
AcDbPolyline
 90
32
 70
1
 10
2229.0
 20
-7335.0
 10
2229.0
 20
-7315.0
 10
2213.8
 20
-7315.0
 10
2213.8
 20
-7215.0
 10
2229.0
 20
-7215.0
 10
2229.0
 20
-7185.0
 10
2174.0
 20
-7185.0
 10
2174.0
 20
-6585.0
 10
2229.0
 20
-6585.0
 10
2229.0
 20
-6555.0
 10
2213.8
 20
-6555.0
 10
2213.8
 20
-6455.0
 10
2229.0
 20
-6455.0
 10
2229.0
 20
-6435.0
 10
1499.0
 20
-6435.0
 10
1499.0
 20
-6445.0
 10
1514.2
 20
-6445.0
 10
1514.2
 20
-6545.0
 10
1499.0
 20
-6545.0
 10
1499.0
 20
-6635.0
 10
1639.0
 20
-6635.0
 10
1639.0
 20
-6735.0
 10
1654.2
 20
-6735.0
 10
1654.2
 20
-6835.0
 10
1639.0
 20
-6835.0
 10
1639.0
 20
-7085.0
 10
1654.2
 20
-7085.0
 10
1654.2
 20
-7185.0
 10
1639.0
 20
-7185.0
 10
1639.0
 20
-7215.0
 42
0.41421356237309503
 10
1759.0
 20
-7335.0
 10
2229.0
 20
-7335.0
  0
LWPOLYLINE
  5
11C
330
17
100
AcDbEntity
  8
CUT
100
AcDbPolyline
 90
4
 70
1
 10
2104.0
 20
-7055.0
 10
2104.0
 20
-6715.0
 42
1.0
 10
2004.0
 20
-6715.0
 10
2004.0
 20
-7055.0
 42
1.0
  0
LWPOLYLINE
  5
11D
330
17
100
AcDbEntity
  8
CUT
100
AcDbPolyline
 90
4
 70
1
 10
1854.0
 20
-7080.0
 10
1854.0
 20
-6790.0
 42
1.0
 10
1744.0
 20
-6790.0
 10
1744.0
 20
-7080.0
 42
1.0
  0
TEXT
  5
11E
330
17
100
AcDbEntity
  8
ENGRAVE-LABEL
100
AcDbText
 10
1513.0
 20
-7321.0
 30
0.0
 40
22.0
  1
ARM-PANEL-OUT 1/2
 11
1513.0
 21
-7321.0
 31
0.0
100
AcDbText
  0
LWPOLYLINE
  5
11F
330
17
100
AcDbEntity
  8
REFERENCE-SHEET
100
AcDbPolyline
 90
4
 70
1
 10
0.0
 20
-8820.0
 10
2440.0
 20
-8820.0
 10
2440.0
 20
-7600.0
 10
0.0
 20
-7600.0
  0
TEXT
  5
120
330
17
100
AcDbEntity
  8
REFERENCE-SHEET
100
AcDbText
 10
0.0
 20
-7545.0
 30
0.0
 40
40.0
  1
SHEET 7/8  -  2440 x 1220  -  15 mm PLYWOOD
 11
0.0
 21
-7545.0
 31
0.0
100
AcDbText
  0
LWPOLYLINE
  5
121
330
17
100
AcDbEntity
  8
CUT
100
AcDbPolyline
 90
32
 70
1
 10
745.0
 20
-8805.0
 10
745.0
 20
-8785.0
 10
729.8
 20
-8785.0
 10
729.8
 20
-8685.0
 10
745.0
 20
-8685.0
 10
745.0
 20
-8655.0
 10
690.0
 20
-8655.0
 10
690.0
 20
-8055.0
 10
745.0
 20
-8055.0
 10
745.0
 20
-8025.0
 10
729.8
 20
-8025.0
 10
729.8
 20
-7925.0
 10
745.0
 20
-7925.0
 10
745.0
 20
-7905.0
 10
15.0
 20
-7905.0
 10
15.0
 20
-7915.0
 10
30.200000000000045
 20
-7915.0
 10
30.200000000000045
 20
-8015.0
 10
15.0
 20
-8015.0
 10
15.0
 20
-8105.0
 10
155.0
 20
-8105.0
 10
155.0
 20
-8205.0
 10
170.20000000000005
 20
-8205.0
 10
170.20000000000005
 20
-8305.0
 10
155.0
 20
-8305.0
 10
155.0
 20
-8555.0
 10
170.20000000000005
 20
-8555.0
 10
170.20000000000005
 20
-8655.0
 10
155.0
 20
-8655.0
 10
155.0
 20
-8685.0
 42
0.41421356237309503
 10
275.0
 20
-8805.0
 10
745.0
 20
-8805.0
  0
LWPOLYLINE
  5
122
330
17
100
AcDbEntity
  8
CUT
100
AcDbPolyline
 90
4
 70
1
 10
620.0
 20
-8525.0
 10
620.0
 20
-8185.0
 42
1.0
 10
520.0
 20
-8185.0
 10
520.0
 20
-8525.0
 42
1.0
  0
LWPOLYLINE
  5
123
330
17
100
AcDbEntity
  8
CUT
100
AcDbPolyline
 90
4
 70
1
 10
370.0
 20
-8550.0
 10
370.0
 20
-8260.0
 42
1.0
 10
260.0
 20
-8260.0
 10
260.0
 20
-8550.0
 42
1.0
  0
TEXT
  5
124
330
17
100
AcDbEntity
  8
ENGRAVE-LABEL
100
AcDbText
 10
29.0
 20
-8791.0
 30
0.0
 40
22.0
  1
ARM-PANEL-OUT 2/2
 11
29.0
 21
-8791.0
 31
0.0
100
AcDbText
  0
LWPOLYLINE
  5
125
330
17
100
AcDbEntity
  8
CUT
100
AcDbPolyline
 90
4
 70
1
 10
1473.0978839929214
 20
-8149.079495767422
 10
796.9498378045491
 20
-8011.5156210195555
 42
0.10069470518343658
 10
796.9498378045491
 20
-8805.0
 10
1473.0978839929214
 20
-8667.436125252134
 42
-0.10069470518343658
  0
LWPOLYLINE
  5
126
330
17
100
AcDbEntity
  8
CUT
100
AcDbPolyline
 90
8
 70
1
 10
1242.6168680808817
 20
-8192.286325361334
 42
2.414213562373095
 10
1239.893364183981
 20
-8188.672113618288
 10
1186.418888471936
 20
-8181.156766166445
 42
2.414213562373095
 10
1182.8046767288909
 20
-8183.880270063345
 10
1181.5521188202504
 20
-8192.792682682018
 42
2.414213562373095
 10
1184.275622717151
 20
-8196.406894425065
 10
1237.750098429196
 20
-8203.922241876908
 42
2.414213562373095
 10
1241.3643101722412
 20
-8201.198737980007
  0
LWPOLYLINE
  5
127
330
17
100
AcDbEntity
  8
CUT
100
AcDbPolyline
 90
8
 70
1
 10
945.5364474584105
 20
-8150.534395073313
 42
2.414213562373095
 10
942.8129435615099
 20
-8146.920183330269
 10
889.3384678494649
 20
-8139.404835878425
 42
2.414213562373095
 10
885.7242561064197
 20
-8142.128339775326
 10
884.4716981977792
 20
-8151.040752393999
 42
2.414213562373095
 10
887.1952020946799
 20
-8154.654964137045
 10
940.6696778067248
 20
-8162.170311588889
 42
2.414213562373095
 10
944.28388954977
 20
-8159.4468076919875
  0
LWPOLYLINE
  5
128
330
17
100
AcDbEntity
  8
CUT
100
AcDbPolyline
 90
8
 70
1
 10
1227.2
 20
-8403.757810509778
 42
2.414213562373095
 10
1224.0
 20
-8400.557810509777
 10
1170.0
 20
-8400.557810509777
 42
2.414213562373095
 10
1166.8
 20
-8403.757810509778
 10
1166.8
 20
-8412.757810509778
 42
2.414213562373095
 10
1170.0
 20
-8415.957810509777
 10
1224.0
 20
-8415.957810509777
 42
2.414213562373095
 10
1227.2
 20
-8412.757810509778
  0
LWPOLYLINE
  5
129
330
17
100
AcDbEntity
  8
CUT
100
AcDbPolyline
 90
8
 70
1
 10
927.2
 20
-8403.757810509778
 42
2.414213562373095
 10
924.0
 20
-8400.557810509777
 10
870.0
 20
-8400.557810509777
 42
2.414213562373095
 10
866.8
 20
-8403.757810509778
 10
866.8
 20
-8412.757810509778
 42
2.414213562373095
 10
870.0
 20
-8415.957810509777
 10
924.0
 20
-8415.957810509777
 42
2.414213562373095
 10
927.2
 20
-8412.757810509778
  0
LWPOLYLINE
  5
12A
330
17
100
AcDbEntity
  8
CUT
100
AcDbPolyline
 90
8
 70
1
 10
1241.3643101722412
 20
-8615.316883039548
 42
2.414213562373095
 10
1237.750098429196
 20
-8612.593379142647
 10
1184.275622717151
 20
-8620.108726594492
 42
2.414213562373095
 10
1181.5521188202504
 20
-8623.722938337536
 10
1182.8046767288909
 20
-8632.63535095621
 42
2.414213562373095
 10
1186.418888471936
 20
-8635.358854853112
 10
1239.893364183981
 20
-8627.843507401267
 42
2.414213562373095
 10
1242.6168680808817
 20
-8624.229295658222
  0
LWPOLYLINE
  5
12B
330
17
100
AcDbEntity
  8
CUT
100
AcDbPolyline
 90
8
 70
1
 10
944.28388954977
 20
-8657.068813327567
 42
2.414213562373095
 10
940.6696778067248
 20
-8654.345309430666
 10
887.1952020946799
 20
-8661.86065688251
 42
2.414213562373095
 10
884.4716981977792
 20
-8665.474868625555
 10
885.7242561064197
 20
-8674.38728124423
 42
2.414213562373095
 10
889.3384678494649
 20
-8677.11078514113
 10
942.8129435615099
 20
-8669.595437689288
 42
2.414213562373095
 10
945.5364474584105
 20
-8665.981225946241
  0
LWPOLYLINE
  5
12C
330
17
100
AcDbEntity
  8
CUT
100
AcDbPolyline
 90
4
 70
1
 10
1103.819408439714
 20
-8235.658437626826
 10
1008.1935317098037
 20
-8227.191342514807
 42
1.0
 10
1003.4307907092928
 20
-8280.980898175381
 10
1099.056667439203
 20
-8289.4479932874
 42
1.0
  0
LWPOLYLINE
  5
12D
330
17
100
AcDbEntity
  8
CUT
100
AcDbPolyline
 90
4
 70
1
 10
1099.056667439203
 20
-8527.067627732155
 10
1003.4307907092928
 20
-8535.534722844175
 42
1.0
 10
1008.1935317098037
 20
-8589.32427850475
 10
1103.819408439714
 20
-8580.85718339273
 42
1.0
  0
TEXT
  5
12E
330
17
100
AcDbEntity
  8
ENGRAVE-LABEL
100
AcDbText
 10
771.0
 20
-8791.0
 30
0.0
 40
22.0
  1
SEAT-DECK-2
 11
771.0
 21
-8791.0
 31
0.0
100
AcDbText
  0
LWPOLYLINE
  5
12F
330
17
100
AcDbEntity
  8
CUT
100
AcDbPolyline
 90
4
 70
1
 10
1817.5731017248145
 20
-8805.0
 10
1887.3019467810477
 20
-8118.532310908136
 42
0.050657814643100804
 10
1485.0978839929214
 20
-8118.532310908136
 10
1554.8267290491542
 20
-8805.0
 42
-0.050657814643100804
  0
LWPOLYLINE
  5
130
330
17
100
AcDbEntity
  8
CUT
100
AcDbPolyline
 90
8
 70
1
 10
1725.1789666928496
 20
-8579.038196829864
 42
2.414213562373095
 10
1728.450742510115
 20
-8575.911619947465
 10
1729.6758585230452
 20
-8521.92551904404
 42
2.414213562373095
 10
1726.5492816406456
 20
-8518.653743226774
 10
1717.5515981567414
 20
-8518.44955722462
 42
2.414213562373095
 10
1714.2798223394757
 20
-8521.57613410702
 10
1713.0547063265456
 20
-8575.562235010444
 42
2.414213562373095
 10
1716.1812832089454
 20
-8578.83401082771
  0
LWPOLYLINE
  5
131
330
17
100
AcDbEntity
  8
CUT
100
AcDbPolyline
 90
8
 70
1
 10
1731.985166764684
 20
-8279.115414033056
 42
2.414213562373095
 10
1735.2569425819495
 20
-8275.988837150657
 10
1736.4820585948796
 20
-8222.00273624723
 42
2.414213562373095
 10
1733.35548171248
 20
-8218.730960429964
 10
1724.3577982285756
 20
-8218.52677442781
 42
2.414213562373095
 10
1721.0860224113103
 20
-8221.65335131021
 10
1719.86090639838
 20
-8275.639452213636
 42
2.414213562373095
 10
1722.9874832807798
 20
-8278.9112280309
  0
LWPOLYLINE
  5
132
330
17
100
AcDbEntity
  8
CUT
100
AcDbPolyline
 90
4
 70
1
 10
1786.7302160695804
 20
-8449.185542082982
 10
1791.0047194309448
 20
-8353.280752729093
 42
1.0
 10
1737.0582754193827
 20
-8350.876344588325
 10
1732.7837720580183
 20
-8446.781133942213
 42
1.0
  0
LWPOLYLINE
  5
133
330
17
100
AcDbEntity
  8
CUT
100
AcDbPolyline
 90
4
 70
1
 10
1639.616058715951
 20
-8446.781133942213
 10
1635.3415553545867
 20
-8350.876344588325
 42
1.0
 10
1581.3951113430246
 20
-8353.280752729093
 10
1585.669614704389
 20
-8449.185542082982
 42
1.0
  0
TEXT
  5
134
330
17
100
AcDbEntity
  8
ENGRAVE-LABEL
100
AcDbText
 10
1499.0978839929214
 20
-8791.0
 30
0.0
 40
22.0
  1
SEAT-DECK-3
 11
1499.0978839929214
 21
-8791.0
 31
0.0
100
AcDbText
  0
LWPOLYLINE
  5
135
330
17
100
AcDbEntity
  8
REFERENCE-SHEET
100
AcDbPolyline
 90
4
 70
1
 10
0.0
 20
-10290.0
 10
2440.0
 20
-10290.0
 10
2440.0
 20
-9070.0
 10
0.0
 20
-9070.0
  0
TEXT
  5
136
330
17
100
AcDbEntity
  8
REFERENCE-SHEET
100
AcDbText
 10
0.0
 20
-9015.0
 30
0.0
 40
40.0
  1
SHEET 8/8  -  2440 x 1220  -  4 mm FLEXIBLE PLYWOOD
 11
0.0
 21
-9015.0
 31
0.0
100
AcDbText
  0
LWPOLYLINE
  5
137
330
17
100
AcDbEntity
  8
CUT
100
AcDbPolyline
 90
8
 70
1
 10
27.0
 20
-10275.0
 10
2306.8346126325146
 20
-10275.0
 42
0.41421356237309503
 10
2318.8346126325146
 20
-10263.0
 10
2318.8346126325146
 20
-9942.0
 42
0.41421356237309503
 10
2306.8346126325146
 20
-9930.0
 10
27.0
 20
-9930.0
 42
0.41421356237309503
 10
15.0
 20
-9942.0
 10
15.0
 20
-10263.0
 42
0.41421356237309503
  0
TEXT
  5
138
330
17
100
AcDbEntity
  8
ENGRAVE-LABEL
100
AcDbText
 10
29.0
 20
-10261.0
 30
0.0
 40
22.0
  1
SKIN-BASE-OUT
 11
29.0
 21
-10261.0
 31
0.0
100
AcDbText
  0
LWPOLYLINE
  5
139
330
17
100
AcDbEntity
  8
CUT
100
AcDbPolyline
 90
8
 70
1
 10
27.0
 20
-9918.0
 10
1807.670446562137
 20
-9918.0
 42
0.41421356237309503
 10
1819.670446562137
 20
-9906.0
 10
1819.670446562137
 20
-9515.0
 42
0.41421356237309503
 10
1807.670446562137
 20
-9503.0
 10
27.0
 20
-9503.0
 42
0.41421356237309503
 10
15.0
 20
-9515.0
 10
15.0
 20
-9906.0
 42
0.41421356237309503
  0
TEXT
  5
13A
330
17
100
AcDbEntity
  8
ENGRAVE-LABEL
100
AcDbText
 10
29.0
 20
-9904.0
 30
0.0
 40
22.0
  1
SKIN-BACK
 11
29.0
 21
-9904.0
 31
0.0
100
AcDbText
  0
LWPOLYLINE
  5
13B
330
17
100
AcDbEntity
  8
CUT
100
AcDbPolyline
 90
8
 70
1
 10
27.0
 20
-9491.0
 10
1364.3568165555769
 20
-9491.0
 42
0.41421356237309503
 10
1376.3568165555769
 20
-9479.0
 10
1376.3568165555769
 20
-9158.0
 42
0.41421356237309503
 10
1364.3568165555769
 20
-9146.0
 10
27.0
 20
-9146.0
 42
0.41421356237309503
 10
15.0
 20
-9158.0
 10
15.0
 20
-9479.0
 42
0.41421356237309503
  0
TEXT
  5
13C
330
17
100
AcDbEntity
  8
ENGRAVE-LABEL
100
AcDbText
 10
29.0
 20
-9477.0
 30
0.0
 40
22.0
  1
SKIN-BASE-IN
 11
29.0
 21
-9477.0
 31
0.0
100
AcDbText
  0
ENDSEC
  0
SECTION
  2
OBJECTS
  0
DICTIONARY
  5
A
330
0
100
AcDbDictionary
281
1
  3
ACAD_COLOR
350
B
  3
ACAD_GROUP
350
C
  3
ACAD_LAYOUT
350
D
  3
ACAD_MATERIAL
350
E
  3
ACAD_MLEADERSTYLE
350
F
  3
ACAD_MLINESTYLE
350
10
  3
ACAD_PLOTSETTINGS
350
11
  3
ACAD_PLOTSTYLENAME
350
12
  3
ACAD_SCALELIST
350
14
  3
ACAD_TABLESTYLE
350
15
  3
ACAD_VISUALSTYLE
350
16
  3
EZDXF_META
350
2D
  0
DICTIONARY
  5
B
330
A
100
AcDbDictionary
281
1
  0
DICTIONARY
  5
C
330
A
100
AcDbDictionary
281
1
  0
DICTIONARY
  5
D
330
A
100
AcDbDictionary
281
1
  3
Model
350
1A
  3
Layout1
350
1E
  0
DICTIONARY
  5
E
330
A
100
AcDbDictionary
281
1
  3
ByBlock
350
1F
  3
ByLayer
350
20
  3
Global
350
21
  0
DICTIONARY
  5
F
330
A
100
AcDbDictionary
281
1
  3
Standard
350
2C
  0
DICTIONARY
  5
10
330
A
100
AcDbDictionary
281
1
  3
Standard
350
22
  0
DICTIONARY
  5
11
330
A
100
AcDbDictionary
281
1
  0
ACDBDICTIONARYWDFLT
  5
12
330
A
100
AcDbDictionary
281
1
  3
Normal
350
13
100
AcDbDictionaryWithDefault
340
13
  0
ACDBPLACEHOLDER
  5
13
330
12
  0
DICTIONARY
  5
14
330
A
100
AcDbDictionary
281
1
  0
DICTIONARY
  5
15
330
A
100
AcDbDictionary
281
1
  0
DICTIONARY
  5
16
330
A
100
AcDbDictionary
281
1
  3
2dWireframe
350
5A
  3
Basic
350
5B
  3
Brighten
350
5C
  3
ColorChange
350
5D
  3
Conceptual
350
5E
  3
Dim
350
5F
  3
EdgeColorOff
350
60
  3
Facepattern
350
61
  3
Flat
350
62
  3
FlatWithEdges
350
63
  3
Gouraud
350
64
  3
GouraudWithEdges
350
65
  3
Hidden
350
66
  3
JitterOff
350
67
  3
Linepattern
350
68
  3
Modeling
350
69
  3
OverhangOff
350
6A
  3
Realistic
350
6B
  3
Shaded
350
6C
  3
Shaded with edges
350
6D
  3
Shades of Gray
350
6E
  3
Sketchy
350
6F
  3
Thicken
350
70
  3
Wireframe
350
71
  3
X-Ray
350
72
  0
LAYOUT
  5
1A
330
D
100
AcDbPlotSettings
  1

  4
A3
  6

 40
7.5
 41
20.0
 42
7.5
 43
20.0
 44
420.0
 45
297.0
 46
0.0
 47
0.0
 48
0.0
 49
0.0
140
0.0
141
0.0
142
1.0
143
1.0
 70
1024
 72
1
 73
0
 74
5
  7

 75
16
 76
0
 77
2
 78
300
147
1.0
148
0.0
149
0.0
100
AcDbLayout
  1
Model
 70
1
 71
0
 10
0.0
 20
0.0
 11
420.0
 21
297.0
 12
0.0
 22
0.0
 32
0.0
 14
1e+20
 24
1e+20
 34
1e+20
 15
-1e+20
 25
-1e+20
 35
-1e+20
146
0.0
 13
0.0
 23
0.0
 33
0.0
 16
1.0
 26
0.0
 36
0.0
 17
0.0
 27
1.0
 37
0.0
 76
1
330
17
  0
LAYOUT
  5
1E
330
D
100
AcDbPlotSettings
  1

  4
A3
  6

 40
7.5
 41
20.0
 42
7.5
 43
20.0
 44
420.0
 45
297.0
 46
0.0
 47
0.0
 48
0.0
 49
0.0
140
0.0
141
0.0
142
1.0
143
1.0
 70
0
 72
1
 73
0
 74
5
  7

 75
16
 76
0
 77
2
 78
300
147
1.0
148
0.0
149
0.0
100
AcDbLayout
  1
Layout1
 70
1
 71
1
 10
0.0
 20
0.0
 11
420.0
 21
297.0
 12
0.0
 22
0.0
 32
0.0
 14
1e+20
 24
1e+20
 34
1e+20
 15
-1e+20
 25
-1e+20
 35
-1e+20
146
0.0
 13
0.0
 23
0.0
 33
0.0
 16
1.0
 26
0.0
 36
0.0
 17
0.0
 27
1.0
 37
0.0
 76
1
330
1B
  0
MATERIAL
  5
1F
102
{ACAD_REACTORS
330
E
102
}
330
E
100
AcDbMaterial
  1
ByBlock
  2

 70
0
 40
1.0
 71
1
 41
1.0
 91
-1023410177
 42
1.0
 72
1
  3

 73
1
 74
1
 75
1
 44
0.5
 73
0
 45
1.0
 46
1.0
 77
1
  4

 78
1
 79
1
170
1
 48
1.0
171
1
  6

172
1
173
1
174
1
140
1.0
141
1.0
175
1
  7

176
1
177
1
178
1
143
1.0
179
1
  8

270
1
271
1
272
1
145
1.0
146
1.0
273
1
  9

274
1
275
1
276
1
 42
1.0
 72
1
  3

 73
1
 74
1
 75
1
 94
63
  0
MATERIAL
  5
20
102
{ACAD_REACTORS
330
E
102
}
330
E
100
AcDbMaterial
  1
ByLayer
  2

 70
0
 40
1.0
 71
1
 41
1.0
 91
-1023410177
 42
1.0
 72
1
  3

 73
1
 74
1
 75
1
 44
0.5
 73
0
 45
1.0
 46
1.0
 77
1
  4

 78
1
 79
1
170
1
 48
1.0
171
1
  6

172
1
173
1
174
1
140
1.0
141
1.0
175
1
  7

176
1
177
1
178
1
143
1.0
179
1
  8

270
1
271
1
272
1
145
1.0
146
1.0
273
1
  9

274
1
275
1
276
1
 42
1.0
 72
1
  3

 73
1
 74
1
 75
1
 94
63
  0
MATERIAL
  5
21
102
{ACAD_REACTORS
330
E
102
}
330
E
100
AcDbMaterial
  1
Global
  2

 70
0
 40
1.0
 71
1
 41
1.0
 91
-1023410177
 42
1.0
 72
1
  3

 73
1
 74
1
 75
1
 44
0.5
 73
0
 45
1.0
 46
1.0
 77
1
  4

 78
1
 79
1
170
1
 48
1.0
171
1
  6

172
1
173
1
174
1
140
1.0
141
1.0
175
1
  7

176
1
177
1
178
1
143
1.0
179
1
  8

270
1
271
1
272
1
145
1.0
146
1.0
273
1
  9

274
1
275
1
276
1
 42
1.0
 72
1
  3

 73
1
 74
1
 75
1
 94
63
  0
MLINESTYLE
  5
22
102
{ACAD_REACTORS
330
10
102
}
330
10
100
AcDbMlineStyle
  2
Standard
 70
0
  3

 62
256
 51
90.0
 52
90.0
 71
2
 49
0.5
 62
256
  6
BYLAYER
 49
-0.5
 62
256
  6
BYLAYER
  0
MLEADERSTYLE
  5
2C
102
{ACAD_REACTORS
330
F
102
}
330
F
100
AcDbMLeaderStyle
179
2
170
2
171
1
172
0
 90
2
 40
0.0
 41
0.0
173
1
 91
-1056964608
 92
-2
290
1
 42
2.0
291
1
 43
8.0
  3
Standard
 44
4.0
300

342
29
174
1
175
1
176
0
178
1
 93
-1056964608
 45
4.0
292
0
297
0
 46
4.0
 94
-1056964608
 47
1.0
 49
1.0
140
1.0
294
1
141
0.0
177
0
142
1.0
295
0
296
0
143
3.75
271
0
272
9
273
9
  0
DICTIONARY
  5
2D
330
A
100
AcDbDictionary
280
1
281
1
  3
CREATED_BY_EZDXF
350
2E
  3
WRITTEN_BY_EZDXF
350
13F
  0
DICTIONARYVAR
  5
2E
330
2D
100
DictionaryVariables
280
0
  1
1.4.4 @ 2026-08-24T14:07:00.812335+00:00
  0
VISUALSTYLE
  5
5A
102
{ACAD_REACTORS
330
16
102
}
330
16
100
AcDbVisualStyle
  2
2dWireframe
 70
4
 90
0
 40
0.6
 62
7
290
0
291
0
  0
VISUALSTYLE
  5
5B
102
{ACAD_REACTORS
330
16
102
}
330
16
100
AcDbVisualStyle
  2
Basic
 70
7
 90
1
 40
0.6
 62
7
290
0
291
1
  0
VISUALSTYLE
  5
5C
102
{ACAD_REACTORS
330
16
102
}
330
16
100
AcDbVisualStyle
  2
Brighten
 70
12
 90
2
 40
0.6
 62
7
290
0
291
1
  0
VISUALSTYLE
  5
5D
102
{ACAD_REACTORS
330
16
102
}
330
16
100
AcDbVisualStyle
  2
ColorChange
 70
16
 90
2
 40
0.6
 62
8
290
0
291
1
  0
VISUALSTYLE
  5
5E
102
{ACAD_REACTORS
330
16
102
}
330
16
100
AcDbVisualStyle
  2
Conceptual
 70
9
 90
3
 40
0.6
 62
7
290
0
291
0
  0
VISUALSTYLE
  5
5F
102
{ACAD_REACTORS
330
16
102
}
330
16
100
AcDbVisualStyle
  2
Dim
 70
11
 90
2
 40
0.6
 62
7
290
0
291
1
  0
VISUALSTYLE
  5
60
102
{ACAD_REACTORS
330
16
102
}
330
16
100
AcDbVisualStyle
  2
EdgeColorOff
 70
22
 90
2
 40
0.6
 62
7
290
0
291
1
  0
VISUALSTYLE
  5
61
102
{ACAD_REACTORS
330
16
102
}
330
16
100
AcDbVisualStyle
  2
Facepattern
 70
15
 90
2
 40
0.6
 62
7
290
0
291
1
  0
VISUALSTYLE
  5
62
102
{ACAD_REACTORS
330
16
102
}
330
16
100
AcDbVisualStyle
  2
Flat
 70
0
 90
2
 40
0.6
 62
7
290
0
291
1
  0
VISUALSTYLE
  5
63
102
{ACAD_REACTORS
330
16
102
}
330
16
100
AcDbVisualStyle
  2
FlatWithEdges
 70
1
 90
2
 40
0.6
 62
7
290
0
291
1
  0
VISUALSTYLE
  5
64
102
{ACAD_REACTORS
330
16
102
}
330
16
100
AcDbVisualStyle
  2
Gouraud
 70
2
 90
2
 40
0.6
 62
7
290
0
291
1
  0
VISUALSTYLE
  5
65
102
{ACAD_REACTORS
330
16
102
}
330
16
100
AcDbVisualStyle
  2
GouraudWithEdges
 70
3
 90
2
 40
0.6
 62
7
290
0
291
1
  0
VISUALSTYLE
  5
66
102
{ACAD_REACTORS
330
16
102
}
330
16
100
AcDbVisualStyle
  2
Hidden
 70
6
 90
1
 40
0.6
 62
7
290
0
291
0
  0
VISUALSTYLE
  5
67
102
{ACAD_REACTORS
330
16
102
}
330
16
100
AcDbVisualStyle
  2
JitterOff
 70
20
 90
2
 40
0.6
 62
7
290
0
291
1
  0
VISUALSTYLE
  5
68
102
{ACAD_REACTORS
330
16
102
}
330
16
100
AcDbVisualStyle
  2
Linepattern
 70
14
 90
2
 40
0.6
 62
7
290
0
291
1
  0
VISUALSTYLE
  5
69
102
{ACAD_REACTORS
330
16
102
}
330
16
100
AcDbVisualStyle
  2
Modeling
 70
10
 90
2
 40
0.6
 62
7
290
0
291
0
  0
VISUALSTYLE
  5
6A
102
{ACAD_REACTORS
330
16
102
}
330
16
100
AcDbVisualStyle
  2
OverhangOff
 70
21
 90
2
 40
0.6
 62
7
290
0
291
1
  0
VISUALSTYLE
  5
6B
102
{ACAD_REACTORS
330
16
102
}
330
16
100
AcDbVisualStyle
  2
Realistic
 70
8
 90
2
 40
0.6
 62
7
290
0
291
0
  0
VISUALSTYLE
  5
6C
102
{ACAD_REACTORS
330
16
102
}
330
16
100
AcDbVisualStyle
  2
Shaded
 70
27
 90
2
 40
0.6
 62
7
290
0
291
0
  0
VISUALSTYLE
  5
6D
102
{ACAD_REACTORS
330
16
102
}
330
16
100
AcDbVisualStyle
  2
Shaded with edges
 70
26
 90
2
 40
0.6
 62
7
290
0
291
0
  0
VISUALSTYLE
  5
6E
102
{ACAD_REACTORS
330
16
102
}
330
16
100
AcDbVisualStyle
  2
Shades of Gray
 70
23
 90
2
 40
0.6
 62
7
290
0
291
0
  0
VISUALSTYLE
  5
6F
102
{ACAD_REACTORS
330
16
102
}
330
16
100
AcDbVisualStyle
  2
Sketchy
 70
24
 90
1
 40
0.6
 62
7
290
0
291
0
  0
VISUALSTYLE
  5
70
102
{ACAD_REACTORS
330
16
102
}
330
16
100
AcDbVisualStyle
  2
Thicken
 70
13
 90
2
 40
0.6
 62
7
290
0
291
1
  0
VISUALSTYLE
  5
71
102
{ACAD_REACTORS
330
16
102
}
330
16
100
AcDbVisualStyle
  2
Wireframe
 70
5
 90
0
 40
0.6
 62
7
290
0
291
0
  0
VISUALSTYLE
  5
72
102
{ACAD_REACTORS
330
16
102
}
330
16
100
AcDbVisualStyle
  2
X-Ray
 70
25
 90
2
 40
0.5
 62
7
290
0
291
0
  0
DICTIONARYVAR
  5
13F
330
2D
100
DictionaryVariables
280
0
  1
1.4.4 @ 2026-08-24T14:07:01.831273+00:00
  0
ENDSEC
  0
EOF
