  0
SECTION
  2
HEADER
  9
$ACADVER
  1
AC1024
  9
$ACADMAINTVER
 70
6
  9
$DWGCODEPAGE
  3
ANSI_1252
  9
$LASTSAVEDBY
  1
ezdxf
  9
$INSBASE
 10
0.0
 20
0.0
 30
0.0
  9
$EXTMIN
 10
1e+20
 20
1e+20
 30
1e+20
  9
$EXTMAX
 10
-1e+20
 20
-1e+20
 30
-1e+20
  9
$LIMMIN
 10
0.0
 20
0.0
  9
$LIMMAX
 10
420.0
 20
297.0
  9
$ORTHOMODE
 70
0
  9
$REGENMODE
 70
1
  9
$FILLMODE
 70
1
  9
$QTEXTMODE
 70
0
  9
$MIRRTEXT
 70
1
  9
$LTSCALE
 40
1.0
  9
$ATTMODE
 70
1
  9
$TEXTSIZE
 40
2.5
  9
$TRACEWID
 40
1.0
  9
$TEXTSTYLE
  7
OpenSans
  9
$CLAYER
  8
0
  9
$CELTYPE
  6
ByLayer
  9
$CECOLOR
 62
256
  9
$CELTSCALE
 40
1.0
  9
$DISPSILH
 70
0
  9
$DIMSCALE
 40
1.0
  9
$DIMASZ
 40
0.175
  9
$DIMEXO
 40
0.125
  9
$DIMDLI
 40
3.75
  9
$DIMRND
 40
0.0
  9
$DIMDLE
 40
0.0
  9
$DIMEXE
 40
0.375
  9
$DIMTP
 40
0.0
  9
$DIMTM
 40
0.0
  9
$DIMTXT
 40
0.25
  9
$DIMCEN
 40
2.5
  9
$DIMTSZ
 40
0.0
  9
$DIMTOL
 70
0
  9
$DIMLIM
 70
0
  9
$DIMTIH
 70
0
  9
$DIMTOH
 70
0
  9
$DIMSE1
 70
0
  9
$DIMSE2
 70
0
  9
$DIMTAD
 70
1
  9
$DIMZIN
 70
12
  9
$DIMBLK
  1
ARCHTICK
  9
$DIMASO
 70
1
  9
$DIMSHO
 70
1
  9
$DIMPOST
  1

  9
$DIMAPOST
  1

  9
$DIMALT
 70
0
  9
$DIMALTD
 70
3
  9
$DIMALTF
 40
0.03937007874
  9
$DIMLFAC
 40
100.0
  9
$DIMTOFL
 70
1
  9
$DIMTVP
 40
0.0
  9
$DIMTIX
 70
0
  9
$DIMSOXD
 70
0
  9
$DIMSAH
 70
0
  9
$DIMBLK1
  1

  9
$DIMBLK2
  1

  9
$DIMSTYLE
  2
EZDXF
  9
$DIMCLRD
 70
0
  9
$DIMCLRE
 70
0
  9
$DIMCLRT
 70
0
  9
$DIMTFAC
 40
0.5
  9
$DIMGAP
 40
0.1
  9
$DIMJUST
 70
0
  9
$DIMSD1
 70
0
  9
$DIMSD2
 70
0
  9
$DIMTOLJ
 70
0
  9
$DIMTZIN
 70
8
  9
$DIMALTZ
 70
0
  9
$DIMALTTZ
 70
0
  9
$DIMUPT
 70
1
  9
$DIMDEC
 70
2
  9
$DIMTDEC
 70
2
  9
$DIMALTU
 70
2
  9
$DIMALTTD
 70
3
  9
$DIMTXSTY
  7
OpenSansCondensed-Light
  9
$DIMAUNIT
 70
0
  9
$DIMADEC
 70
2
  9
$DIMALTRND
 40
0.0
  9
$DIMAZIN
 70
3
  9
$DIMDSEP
 70
46
  9
$DIMATFIT
 70
3
  9
$DIMFRAC
 70
0
  9
$DIMLDRBLK
  1

  9
$DIMLUNIT
 70
2
  9
$DIMLWD
 70
-2
  9
$DIMLWE
 70
-2
  9
$DIMTMOVE
 70
2
  9
$DIMFXL
 40
1.0
  9
$DIMFXLON
 70
0
  9
$DIMJOGANG
 40
0.785398163397
  9
$DIMTFILL
 70
0
  9
$DIMTFILLCLR
 70
0
  9
$DIMARCSYM
 70
0
  9
$DIMLTYPE
  6

  9
$DIMLTEX1
  6

  9
$DIMLTEX2
  6

  9
$DIMTXTDIRECTION
 70
0
  9
$LUNITS
 70
2
  9
$LUPREC
 70
4
  9
$SKETCHINC
 40
1.0
  9
$FILLETRAD
 40
10.0
  9
$AUNITS
 70
0
  9
$AUPREC
 70
2
  9
$MENU
  1
.
  9
$ELEVATION
 40
0.0
  9
$PELEVATION
 40
0.0
  9
$THICKNESS
 40
0.0
  9
$LIMCHECK
 70
0
  9
$CHAMFERA
 40
0.0
  9
$CHAMFERB
 40
0.0
  9
$CHAMFERC
 40
0.0
  9
$CHAMFERD
 40
0.0
  9
$SKPOLY
 70
0
  9
$TDCREATE
 40
2461316.7352662035
  9
$TDUCREATE
 40
2458532.153996898
  9
$TDUPDATE
 40
2461316.7352662035
  9
$TDUUPDATE
 40
2458532.1544311
  9
$TDINDWG
 40
0.0
  9
$TDUSRTIMER
 40
0.0
  9
$USRTIMER
 70
1
  9
$ANGBASE
 50
0.0
  9
$ANGDIR
 70
0
  9
$PDMODE
 70
0
  9
$PDSIZE
 40
0.0
  9
$PLINEWID
 40
0.0
  9
$SPLFRAME
 70
0
  9
$SPLINETYPE
 70
6
  9
$SPLINESEGS
 70
8
  9
$HANDSEED
  5
AA
  9
$SURFTAB1
 70
6
  9
$SURFTAB2
 70
6
  9
$SURFTYPE
 70
6
  9
$SURFU
 70
6
  9
$SURFV
 70
6
  9
$UCSBASE
  2

  9
$UCSNAME
  2

  9
$UCSORG
 10
0.0
 20
0.0
 30
0.0
  9
$UCSXDIR
 10
1.0
 20
0.0
 30
0.0
  9
$UCSYDIR
 10
0.0
 20
1.0
 30
0.0
  9
$UCSORTHOREF
  2

  9
$UCSORTHOVIEW
 70
0
  9
$UCSORGTOP
 10
0.0
 20
0.0
 30
0.0
  9
$UCSORGBOTTOM
 10
0.0
 20
0.0
 30
0.0
  9
$UCSORGLEFT
 10
0.0
 20
0.0
 30
0.0
  9
$UCSORGRIGHT
 10
0.0
 20
0.0
 30
0.0
  9
$UCSORGFRONT
 10
0.0
 20
0.0
 30
0.0
  9
$UCSORGBACK
 10
0.0
 20
0.0
 30
0.0
  9
$PUCSBASE
  2

  9
$PUCSNAME
  2

  9
$PUCSORG
 10
0.0
 20
0.0
 30
0.0
  9
$PUCSXDIR
 10
1.0
 20
0.0
 30
0.0
  9
$PUCSYDIR
 10
0.0
 20
1.0
 30
0.0
  9
$PUCSORTHOREF
  2

  9
$PUCSORTHOVIEW
 70
0
  9
$PUCSORGTOP
 10
0.0
 20
0.0
 30
0.0
  9
$PUCSORGBOTTOM
 10
0.0
 20
0.0
 30
0.0
  9
$PUCSORGLEFT
 10
0.0
 20
0.0
 30
0.0
  9
$PUCSORGRIGHT
 10
0.0
 20
0.0
 30
0.0
  9
$PUCSORGFRONT
 10
0.0
 20
0.0
 30
0.0
  9
$PUCSORGBACK
 10
0.0
 20
0.0
 30
0.0
  9
$USERI1
 70
0
  9
$USERI2
 70
0
  9
$USERI3
 70
0
  9
$USERI4
 70
0
  9
$USERI5
 70
0
  9
$USERR1
 40
0.0
  9
$USERR2
 40
0.0
  9
$USERR3
 40
0.0
  9
$USERR4
 40
0.0
  9
$USERR5
 40
0.0
  9
$WORLDVIEW
 70
1
  9
$SHADEDGE
 70
3
  9
$SHADEDIF
 70
70
  9
$TILEMODE
 70
1
  9
$MAXACTVP
 70
64
  9
$PINSBASE
 10
0.0
 20
0.0
 30
0.0
  9
$PLIMCHECK
 70
0
  9
$PEXTMIN
 10
1e+20
 20
1e+20
 30
1e+20
  9
$PEXTMAX
 10
-1e+20
 20
-1e+20
 30
-1e+20
  9
$PLIMMIN
 10
0.0
 20
0.0
  9
$PLIMMAX
 10
420.0
 20
297.0
  9
$UNITMODE
 70
0
  9
$VISRETAIN
 70
1
  9
$PLINEGEN
 70
0
  9
$PSLTSCALE
 70
1
  9
$TREEDEPTH
 70
3020
  9
$CMLSTYLE
  2
Standard
  9
$CMLJUST
 70
0
  9
$CMLSCALE
 40
20.0
  9
$PROXYGRAPHICS
 70
1
  9
$MEASUREMENT
 70
1
  9
$CELWEIGHT
370
-1
  9
$ENDCAPS
280
0
  9
$JOINSTYLE
280
0
  9
$LWDISPLAY
290
0
  9
$INSUNITS
 70
4
  9
$HYPERLINKBASE
  1

  9
$STYLESHEET
  1

  9
$XEDIT
290
1
  9
$CEPSNTYPE
380
0
  9
$PSTYLEMODE
290
1
  9
$FINGERPRINTGUID
  2
{B9AF0E5A-2823-4C1F-AA7D-5B862EF655D9}
  9
$VERSIONGUID
  2
{C8E30B78-DFBC-4230-AD33-802B91A77565}
  9
$EXTNAMES
290
1
  9
$PSVPSCALE
 40
0.0
  9
$OLESTARTUP
290
0
  9
$SORTENTS
280
127
  9
$INDEXCTL
280
0
  9
$HIDETEXT
280
1
  9
$XCLIPFRAME
280
1
  9
$HALOGAP
280
0
  9
$OBSCOLOR
 70
257
  9
$OBSLTYPE
280
0
  9
$INTERSECTIONDISPLAY
280
0
  9
$INTERSECTIONCOLOR
 70
257
  9
$DIMASSOC
280
2
  9
$PROJECTNAME
  1

  9
$CAMERADISPLAY
290
0
  9
$LENSLENGTH
 40
50.0
  9
$CAMERAHEIGHT
 40
0.0
  9
$STEPSPERSEC
 40
24.0
  9
$STEPSIZE
 40
100.0
  9
$3DDWFPREC
 40
2.0
  9
$PSOLWIDTH
 40
0.005
  9
$PSOLHEIGHT
 40
0.08
  9
$LOFTANG1
 40
1.570796326795
  9
$LOFTANG2
 40
1.570796326795
  9
$LOFTMAG1
 40
0.0
  9
$LOFTMAG2
 40
0.0
  9
$LOFTPARAM
 70
7
  9
$LOFTNORMALS
280
1
  9
$LATITUDE
 40
37.795
  9
$LONGITUDE
 40
-122.394
  9
$NORTHDIRECTION
 40
0.0
  9
$TIMEZONE
 70
-8000
  9
$LIGHTGLYPHDISPLAY
280
1
  9
$TILEMODELIGHTSYNCH
280
1
  9
$CMATERIAL
347
20
  9
$SOLIDHIST
280
0
  9
$SHOWHIST
280
1
  9
$DWFFRAME
280
2
  9
$DGNFRAME
280
2
  9
$REALWORLDSCALE
290
1
  9
$INTERFERECOLOR
 62
256
  9
$CSHADOW
280
0
  9
$SHADOWPLANELOCATION
 40
0.0
  0
ENDSEC
  0
SECTION
  2
CLASSES
  0
CLASS
  1
ACDBDICTIONARYWDFLT
  2
AcDbDictionaryWithDefault
  3
ObjectDBX Classes
 90
0
 91
0
280
0
281
0
  0
CLASS
  1
SUN
  2
AcDbSun
  3
SCENEOE
 90
1153
 91
0
280
0
281
0
  0
CLASS
  1
VISUALSTYLE
  2
AcDbVisualStyle
  3
ObjectDBX Classes
 90
4095
 91
0
280
0
281
0
  0
CLASS
  1
MATERIAL
  2
AcDbMaterial
  3
ObjectDBX Classes
 90
1153
 91
0
280
0
281
0
  0
CLASS
  1
SCALE
  2
AcDbScale
  3
ObjectDBX Classes
 90
1153
 91
0
280
0
281
0
  0
CLASS
  1
TABLESTYLE
  2
AcDbTableStyle
  3
ObjectDBX Classes
 90
4095
 91
0
280
0
281
0
  0
CLASS
  1
MLEADERSTYLE
  2
AcDbMLeaderStyle
  3
ACDB_MLEADERSTYLE_CLASS
 90
4095
 91
0
280
0
281
0
  0
CLASS
  1
DICTIONARYVAR
  2
AcDbDictionaryVar
  3
ObjectDBX Classes
 90
0
 91
0
280
0
281
0
  0
CLASS
  1
CELLSTYLEMAP
  2
AcDbCellStyleMap
  3
ObjectDBX Classes
 90
1152
 91
0
280
0
281
0
  0
CLASS
  1
MENTALRAYRENDERSETTINGS
  2
AcDbMentalRayRenderSettings
  3
SCENEOE
 90
1024
 91
0
280
0
281
0
  0
CLASS
  1
ACDBDETAILVIEWSTYLE
  2
AcDbDetailViewStyle
  3
ObjectDBX Classes
 90
1025
 91
0
280
0
281
0
  0
CLASS
  1
ACDBSECTIONVIEWSTYLE
  2
AcDbSectionViewStyle
  3
ObjectDBX Classes
 90
1025
 91
0
280
0
281
0
  0
CLASS
  1
RASTERVARIABLES
  2
AcDbRasterVariables
  3
ISM
 90
0
 91
0
280
0
281
0
  0
CLASS
  1
LAYOUT
  2
AcDbLayout
  3
ObjectDBX Classes
 90
0
 91
0
280
0
281
0
  0
CLASS
  1
ACDBPLACEHOLDER
  2
AcDbPlaceHolder
  3
ObjectDBX Classes
 90
0
 91
0
280
0
281
0
  0
ENDSEC
  0
SECTION
  2
TABLES
  0
TABLE
  2
VPORT
  5
8
330
0
100
AcDbSymbolTable
 70
1
  0
VPORT
  5
23
330
8
100
AcDbSymbolTableRecord
100
AcDbViewportTableRecord
  2
*Active
 70
0
 10
0.0
 20
0.0
 11
1.0
 21
1.0
 12
0.0
 22
0.0
 13
0.0
 23
0.0
 14
0.5
 24
0.5
 15
0.5
 25
0.5
 16
0.0
 26
0.0
 36
1.0
 17
0.0
 27
0.0
 37
0.0
 40
1000.0
 41
1.34
 42
50.0
 43
0.0
 44
0.0
 50
0.0
 51
0.0
 71
0
 72
1000
 73
1
 74
3
 75
0
 76
0
 77
0
 78
0
281
0
 65
0
146
0.0
  0
ENDTAB
  0
TABLE
  2
LTYPE
  5
2
330
0
100
AcDbSymbolTable
 70
21
  0
LTYPE
  5
24
330
2
100
AcDbSymbolTableRecord
100
AcDbLinetypeTableRecord
  2
ByBlock
 70
0
  3

 72
65
 73
0
 40
0.0
  0
LTYPE
  5
25
330
2
100
AcDbSymbolTableRecord
100
AcDbLinetypeTableRecord
  2
ByLayer
 70
0
  3

 72
65
 73
0
 40
0.0
  0
LTYPE
  5
26
330
2
100
AcDbSymbolTableRecord
100
AcDbLinetypeTableRecord
  2
Continuous
 70
0
  3

 72
65
 73
0
 40
0.0
  0
LTYPE
  5
2F
330
2
100
AcDbSymbolTableRecord
100
AcDbLinetypeTableRecord
  2
CENTER
 70
0
  3
Center ____ _ ____ _ ____ _ ____ _ ____ _ ____
 72
65
 73
4
 40
5.08
 49
3.175
 74
0
 49
-0.635
 74
0
 49
0.635
 74
0
 49
-0.635
 74
0
  0
LTYPE
  5
30
330
2
100
AcDbSymbolTableRecord
100
AcDbLinetypeTableRecord
  2
CENTERX2
 70
0
  3
Center (2x) ________  __  ________  __  ________
 72
65
 73
4
 40
8.89
 49
6.35
 74
0
 49
-0.635
 74
0
 49
1.27
 74
0
 49
-0.635
 74
0
  0
LTYPE
  5
31
330
2
100
AcDbSymbolTableRecord
100
AcDbLinetypeTableRecord
  2
CENTER2
 70
0
  3
Center (.5x) ____ _ ____ _ ____ _ ____ _ ____
 72
65
 73
4
 40
2.54
 49
1.587
 74
0
 49
-0.318
 74
0
 49
0.318
 74
0
 49
-0.318
 74
0
  0
LTYPE
  5
32
330
2
100
AcDbSymbolTableRecord
100
AcDbLinetypeTableRecord
  2
DASHED
 70
0
  3
Dashed __ __ __ __ __ __ __ __ __ __ __ __ __ _
 72
65
 73
2
 40
1.524
 49
1.27
 74
0
 49
-0.254
 74
0
  0
LTYPE
  5
33
330
2
100
AcDbSymbolTableRecord
100
AcDbLinetypeTableRecord
  2
DASHEDX2
 70
0
  3
Dashed (2x) ____  ____  ____  ____  ____  ____
 72
65
 73
2
 40
3.048
 49
2.54
 74
0
 49
-0.508
 74
0
  0
LTYPE
  5
34
330
2
100
AcDbSymbolTableRecord
100
AcDbLinetypeTableRecord
  2
DASHED2
 70
0
  3
Dashed (.5x) _ _ _ _ _ _ _ _ _ _ _ _ _ _
 72
65
 73
2
 40
0.762
 49
0.635
 74
0
 49
-0.127
 74
0
  0
LTYPE
  5
35
330
2
100
AcDbSymbolTableRecord
100
AcDbLinetypeTableRecord
  2
PHANTOM
 70
0
  3
Phantom ______  __  __  ______  __  __  ______
 72
65
 73
6
 40
6.35
 49
3.175
 74
0
 49
-0.635
 74
0
 49
0.635
 74
0
 49
-0.635
 74
0
 49
0.635
 74
0
 49
-0.635
 74
0
  0
LTYPE
  5
36
330
2
100
AcDbSymbolTableRecord
100
AcDbLinetypeTableRecord
  2
PHANTOMX2
 70
0
  3
Phantom (2x)____________    ____    ____    ____________
 72
65
 73
6
 40
10.795
 49
6.35
 74
0
 49
-0.635
 74
0
 49
1.27
 74
0
 49
-0.635
 74
0
 49
1.27
 74
0
 49
-0.635
 74
0
  0
LTYPE
  5
37
330
2
100
AcDbSymbolTableRecord
100
AcDbLinetypeTableRecord
  2
PHANTOM2
 70
0
  3
Phantom (.5x) ___ _ _ ___ _ _ ___ _ _ ___ _ _ ___
 72
65
 73
6
 40
3.175
 49
1.587
 74
0
 49
-0.318
 74
0
 49
0.318
 74
0
 49
-0.318
 74
0
 49
0.318
 74
0
 49
-0.318
 74
0
  0
LTYPE
  5
38
330
2
100
AcDbSymbolTableRecord
100
AcDbLinetypeTableRecord
  2
DASHDOT
 70
0
  3
Dash dot __ . __ . __ . __ . __ . __ . __ . __
 72
65
 73
4
 40
3.556
 49
2.54
 74
0
 49
-0.508
 74
0
 49
0.0
 74
0
 49
-0.508
 74
0
  0
LTYPE
  5
39
330
2
100
AcDbSymbolTableRecord
100
AcDbLinetypeTableRecord
  2
DASHDOTX2
 70
0
  3
Dash dot (2x) ____  .  ____  .  ____  .  ____
 72
65
 73
4
 40
6.096
 49
5.08
 74
0
 49
-0.508
 74
0
 49
0.0
 74
0
 49
-0.508
 74
0
  0
LTYPE
  5
3A
330
2
100
AcDbSymbolTableRecord
100
AcDbLinetypeTableRecord
  2
DASHDOT2
 70
0
  3
Dash dot (.5x) _ . _ . _ . _ . _ . _ . _ . _
 72
65
 73
4
 40
1.778
 49
1.27
 74
0
 49
-0.254
 74
0
 49
0.0
 74
0
 49
-0.254
 74
0
  0
LTYPE
  5
3B
330
2
100
AcDbSymbolTableRecord
100
AcDbLinetypeTableRecord
  2
DOT
 70
0
  3
Dot .  .  .  .  .  .  .  .  .  .  .  .  .  .  .  .
 72
65
 73
2
 40
0.508
 49
0.0
 74
0
 49
-0.508
 74
0
  0
LTYPE
  5
3C
330
2
100
AcDbSymbolTableRecord
100
AcDbLinetypeTableRecord
  2
DOTX2
 70
0
  3
Dot (2x) .    .    .    .    .    .    .    . 
 72
65
 73
2
 40
1.016
 49
0.0
 74
0
 49
-1.016
 74
0
  0
LTYPE
  5
3D
330
2
100
AcDbSymbolTableRecord
100
AcDbLinetypeTableRecord
  2
DOT2
 70
0
  3
Dot (.5) . . . . . . . . . . . . . . . . . . . 
 72
65
 73
2
 40
0.254
 49
0.0
 74
0
 49
-0.254
 74
0
  0
LTYPE
  5
3E
330
2
100
AcDbSymbolTableRecord
100
AcDbLinetypeTableRecord
  2
DIVIDE
 70
0
  3
Divide __ . . __ . . __ . . __ . . __ . . __
 72
65
 73
6
 40
4.064
 49
2.54
 74
0
 49
-0.508
 74
0
 49
0.0
 74
0
 49
-0.508
 74
0
 49
0.0
 74
0
 49
-0.508
 74
0
  0
LTYPE
  5
3F
330
2
100
AcDbSymbolTableRecord
100
AcDbLinetypeTableRecord
  2
DIVIDEX2
 70
0
  3
Divide (2x) ____  . .  ____  . .  ____  . .  ____
 72
65
 73
6
 40
6.604
 49
5.08
 74
0
 49
-0.508
 74
0
 49
0.0
 74
0
 49
-0.508
 74
0
 49
0.0
 74
0
 49
-0.508
 74
0
  0
LTYPE
  5
40
330
2
100
AcDbSymbolTableRecord
100
AcDbLinetypeTableRecord
  2
DIVIDE2
 70
0
  3
Divide(.5x) _ . _ . _ . _ . _ . _ . _ . _
 72
65
 73
6
 40
2.032
 49
1.27
 74
0
 49
-0.254
 74
0
 49
0.0
 74
0
 49
-0.254
 74
0
 49
0.0
 74
0
 49
-0.254
 74
0
  0
ENDTAB
  0
TABLE
  2
LAYER
  5
1
330
0
100
AcDbSymbolTable
 70
4
  0
LAYER
  5
27
330
1
100
AcDbSymbolTableRecord
100
AcDbLayerTableRecord
  2
0
 70
0
 62
7
  6
Continuous
370
-3
390
13
347
21
  0
LAYER
  5
28
330
1
100
AcDbSymbolTableRecord
100
AcDbLayerTableRecord
  2
Defpoints
 70
0
 62
7
  6
Continuous
290
0
370
-3
390
13
347
21
  0
LAYER
  5
8A
330
1
100
AcDbSymbolTableRecord
100
AcDbLayerTableRecord
  2
CUT
 70
0
 62
1
  6
Continuous
370
-3
390
13
347
21
  0
LAYER
  5
8B
330
1
100
AcDbSymbolTableRecord
100
AcDbLayerTableRecord
  2
ENGRAVE-LABEL
 70
0
 62
3
  6
Continuous
370
-3
390
13
347
21
  0
ENDTAB
  0
TABLE
  2
STYLE
  5
5
330
0
100
AcDbSymbolTable
 70
26
  0
STYLE
  5
29
330
5
100
AcDbSymbolTableRecord
100
AcDbTextStyleTableRecord
  2
Standard
 70
0
 40
0.0
 41
1.0
 50
0.0
 71
0
 42
2.5
  3
txt
  4

  0
STYLE
  5
41
330
5
100
AcDbSymbolTableRecord
100
AcDbTextStyleTableRecord
  2
OpenSans-Light
 70
0
 40
0.0
 41
1.0
 50
0.0
 71
0
 42
2.5
  3
OpenSans-Light.ttf
  4

  0
STYLE
  5
42
330
5
100
AcDbSymbolTableRecord
100
AcDbTextStyleTableRecord
  2
OpenSans-Light-Italic
 70
0
 40
0.0
 41
1.0
 50
0.0
 71
0
 42
2.5
  3
OpenSans-LightItalic.ttf
  4

  0
STYLE
  5
43
330
5
100
AcDbSymbolTableRecord
100
AcDbTextStyleTableRecord
  2
OpenSans
 70
0
 40
0.0
 41
1.0
 50
0.0
 71
0
 42
2.5
  3
OpenSans-Regular.ttf
  4

  0
STYLE
  5
44
330
5
100
AcDbSymbolTableRecord
100
AcDbTextStyleTableRecord
  2
OpenSans-Italic
 70
0
 40
0.0
 41
1.0
 50
0.0
 71
0
 42
2.5
  3
OpenSans-Italic.ttf
  4

  0
STYLE
  5
45
330
5
100
AcDbSymbolTableRecord
100
AcDbTextStyleTableRecord
  2
OpenSans-SemiBold
 70
0
 40
0.0
 41
1.0
 50
0.0
 71
0
 42
2.5
  3
OpenSans-SemiBold.ttf
  4

  0
STYLE
  5
46
330
5
100
AcDbSymbolTableRecord
100
AcDbTextStyleTableRecord
  2
OpenSans-SemiBoldItalic
 70
0
 40
0.0
 41
1.0
 50
0.0
 71
0
 42
2.5
  3
OpenSans-SemiBoldItalic.ttf
  4

  0
STYLE
  5
47
330
5
100
AcDbSymbolTableRecord
100
AcDbTextStyleTableRecord
  2
OpenSans-Bold
 70
0
 40
0.0
 41
1.0
 50
0.0
 71
0
 42
2.5
  3
OpenSans-Bold.ttf
  4

  0
STYLE
  5
48
330
5
100
AcDbSymbolTableRecord
100
AcDbTextStyleTableRecord
  2
OpenSans-BoldItalic
 70
0
 40
0.0
 41
1.0
 50
0.0
 71
0
 42
2.5
  3
OpenSans-BoldItalic.ttf
  4

  0
STYLE
  5
49
330
5
100
AcDbSymbolTableRecord
100
AcDbTextStyleTableRecord
  2
OpenSans-ExtraBold
 70
0
 40
0.0
 41
1.0
 50
0.0
 71
0
 42
2.5
  3
OpenSans-ExtraBold.ttf
  4

  0
STYLE
  5
4A
330
5
100
AcDbSymbolTableRecord
100
AcDbTextStyleTableRecord
  2
OpenSans-ExtraBoldItalic
 70
0
 40
0.0
 41
1.0
 50
0.0
 71
0
 42
2.5
  3
OpenSans-ExtraBoldItalic.ttf
  4

  0
STYLE
  5
4B
330
5
100
AcDbSymbolTableRecord
100
AcDbTextStyleTableRecord
  2
OpenSansCondensed-Bold
 70
0
 40
0.0
 41
1.0
 50
0.0
 71
0
 42
2.5
  3
OpenSansCondensed-Bold.ttf
  4

  0
STYLE
  5
4C
330
5
100
AcDbSymbolTableRecord
100
AcDbTextStyleTableRecord
  2
OpenSansCondensed-Light
 70
0
 40
0.0
 41
1.0
 50
0.0
 71
0
 42
2.5
  3
OpenSansCondensed-Light.ttf
  4

  0
STYLE
  5
4D
330
5
100
AcDbSymbolTableRecord
100
AcDbTextStyleTableRecord
  2
OpenSansCondensed-Italic
 70
0
 40
0.0
 41
1.0
 50
0.0
 71
0
 42
2.5
  3
OpenSansCondensed-LightItalic.ttf
  4

  0
STYLE
  5
4E
330
5
100
AcDbSymbolTableRecord
100
AcDbTextStyleTableRecord
  2
LiberationSans
 70
0
 40
0.0
 41
1.0
 50
0.0
 71
0
 42
2.5
  3
LiberationSans-Regular.ttf
  4

  0
STYLE
  5
4F
330
5
100
AcDbSymbolTableRecord
100
AcDbTextStyleTableRecord
  2
LiberationSans-Bold
 70
0
 40
0.0
 41
1.0
 50
0.0
 71
0
 42
2.5
  3
LiberationSans-Bold.ttf
  4

  0
STYLE
  5
50
330
5
100
AcDbSymbolTableRecord
100
AcDbTextStyleTableRecord
  2
LiberationSans-BoldItalic
 70
0
 40
0.0
 41
1.0
 50
0.0
 71
0
 42
2.5
  3
LiberationSans-BoldItalic.ttf
  4

  0
STYLE
  5
51
330
5
100
AcDbSymbolTableRecord
100
AcDbTextStyleTableRecord
  2
LiberationSans-Italic
 70
0
 40
0.0
 41
1.0
 50
0.0
 71
0
 42
2.5
  3
LiberationSans-Italic.ttf
  4

  0
STYLE
  5
52
330
5
100
AcDbSymbolTableRecord
100
AcDbTextStyleTableRecord
  2
LiberationSerif
 70
0
 40
0.0
 41
1.0
 50
0.0
 71
0
 42
2.5
  3
LiberationSerif-Regular.ttf
  4

  0
STYLE
  5
53
330
5
100
AcDbSymbolTableRecord
100
AcDbTextStyleTableRecord
  2
LiberationSerif-Bold
 70
0
 40
0.0
 41
1.0
 50
0.0
 71
0
 42
2.5
  3
LiberationSerif-Bold.ttf
  4

  0
STYLE
  5
54
330
5
100
AcDbSymbolTableRecord
100
AcDbTextStyleTableRecord
  2
LiberationSerif-BoldItalic
 70
0
 40
0.0
 41
1.0
 50
0.0
 71
0
 42
2.5
  3
LiberationSerif-BoldItalic.ttf
  4

  0
STYLE
  5
55
330
5
100
AcDbSymbolTableRecord
100
AcDbTextStyleTableRecord
  2
LiberationSerif-Italic
 70
0
 40
0.0
 41
1.0
 50
0.0
 71
0
 42
2.5
  3
LiberationSerif-Italic.ttf
  4

  0
STYLE
  5
56
330
5
100
AcDbSymbolTableRecord
100
AcDbTextStyleTableRecord
  2
LiberationMono
 70
0
 40
0.0
 41
1.0
 50
0.0
 71
0
 42
2.5
  3
LiberationMono-Regular.ttf
  4

  0
STYLE
  5
57
330
5
100
AcDbSymbolTableRecord
100
AcDbTextStyleTableRecord
  2
LiberationMono-Bold
 70
0
 40
0.0
 41
1.0
 50
0.0
 71
0
 42
2.5
  3
LiberationMono-Bold.ttf
  4

  0
STYLE
  5
58
330
5
100
AcDbSymbolTableRecord
100
AcDbTextStyleTableRecord
  2
LiberationMono-BoldItalic
 70
0
 40
0.0
 41
1.0
 50
0.0
 71
0
 42
2.5
  3
LiberationMono-BoldItalic.ttf
  4

  0
STYLE
  5
59
330
5
100
AcDbSymbolTableRecord
100
AcDbTextStyleTableRecord
  2
LiberationMono-Italic
 70
0
 40
0.0
 41
1.0
 50
0.0
 71
0
 42
2.5
  3
LiberationMono-Italic.ttf
  4

  0
ENDTAB
  0
TABLE
  2
VIEW
  5
7
330
0
100
AcDbSymbolTable
 70
0
  0
ENDTAB
  0
TABLE
  2
UCS
  5
6
330
0
100
AcDbSymbolTable
 70
0
  0
ENDTAB
  0
TABLE
  2
APPID
  5
3
330
0
100
AcDbSymbolTable
 70
3
  0
APPID
  5
2A
330
3
100
AcDbSymbolTableRecord
100
AcDbRegAppTableRecord
  2
ACAD
 70
0
  0
APPID
  5
A7
330
3
100
AcDbSymbolTableRecord
100
AcDbRegAppTableRecord
  2
HATCHBACKGROUNDCOLOR
 70
0
  0
APPID
  5
A8
330
3
100
AcDbSymbolTableRecord
100
AcDbRegAppTableRecord
  2
EZDXF
 70
0
  0
ENDTAB
  0
TABLE
  2
DIMSTYLE
  5
4
330
0
100
AcDbSymbolTable
 70
12
100
AcDbDimStyleTable
  0
DIMSTYLE
105
2B
330
4
100
AcDbSymbolTableRecord
100
AcDbDimStyleTableRecord
  2
Standard
 70
0
 40
1.0
 41
2.5
 42
0.625
 43
3.75
 44
1.25
 45
0.0
 46
0.0
 47
0.0
 48
0.0
 49
2.5
140
2.5
141
2.5
142
0.0
143
0.03937007874
144
1.0
145
0.0
146
1.0
147
0.625
148
0.0
 69
0
 70
0
 71
0
 72
0
 73
0
 74
0
 75
0
 76
0
 77
1
 78
8
 79
3
170
0
171
3
172
1
173
0
174
0
175
0
176
0
177
0
178
0
179
2
271
2
272
2
273
2
274
3
275
0
276
0
277
2
278
44
279
0
280
0
281
0
282
0
283
0
284
8
285
0
286
0
288
0
289
3
290
0
371
-2
372
-2
  0
DIMSTYLE
105
73
330
4
100
AcDbSymbolTableRecord
100
AcDbDimStyleTableRecord
  2
EZDXF
 70
0
 40
1.0
 41
0.175
 42
0.125
 43
3.75
 44
0.375
 45
0.0
 46
0.0
 47
0.0
 48
0.0
 49
2.5
140
0.25
141
2.5
142
0.0
143
0.03937007874
144
100.0
145
0.0
146
0.5
147
0.1
148
0.0
 69
0
 70
0
 71
0
 72
0
 73
0
 74
0
 75
0
 76
0
 77
1
 78
12
 79
3
170
0
171
3
172
1
173
0
174
0
175
0
176
0
177
0
178
0
179
2
271
2
272
2
273
2
274
3
275
0
276
0
277
2
278
46
279
2
280
0
281
0
282
0
283
0
284
8
285
0
286
0
288
1
289
3
290
0
340
4C
342
74
371
-2
372
-2
  0
DIMSTYLE
105
7C
330
4
100
AcDbSymbolTableRecord
100
AcDbDimStyleTableRecord
  2
EZ_M_100_H25_CM
 70
0
 40
1.0
 41
0.25
 42
0.125
 43
3.75
 44
0.375
 45
0.0
 46
0.0
 47
0.0
 48
0.0
 49
2.5
140
0.25
141
2.5
142
0.125
143
0.03937007874
144
100.0
145
0.0
146
0.5
147
0.1
148
0.0
 69
0
 70
0
 71
0
 72
0
 73
0
 74
0
 75
0
 76
0
 77
1
 78
12
 79
3
170
0
171
3
172
1
173
0
174
0
175
0
176
0
177
0
178
0
179
2
271
2
272
2
273
2
274
3
275
0
276
0
277
2
278
46
279
2
280
0
281
0
282
0
283
0
284
8
285
0
286
0
288
1
289
3
290
0
340
4C
371
-2
372
-2
  0
DIMSTYLE
105
7D
330
4
100
AcDbSymbolTableRecord
100
AcDbDimStyleTableRecord
  2
EZ_M_50_H25_CM
 70
0
 40
1.0
 41
0.125
 42
0.0625
 43
3.75
 44
0.1875
 45
0.0
 46
0.0
 47
0.0
 48
0.0
 49
2.5
140
0.125
141
2.5
142
0.0625
143
0.03937007874
144
100.0
145
0.0
146
0.5
147
0.05
148
0.0
 69
0
 70
0
 71
0
 72
0
 73
0
 74
0
 75
0
 76
0
 77
1
 78
12
 79
3
170
0
171
3
172
1
173
0
174
0
175
0
176
0
177
0
178
0
179
2
271
2
272
2
273
2
274
3
275
0
276
0
277
2
278
46
279
2
280
0
281
0
282
0
283
0
284
8
285
0
286
0
288
1
289
3
290
0
340
4C
371
-2
372
-2
  0
DIMSTYLE
105
7E
330
4
100
AcDbSymbolTableRecord
100
AcDbDimStyleTableRecord
  2
EZ_M_25_H25_CM
 70
0
 40
1.0
 41
0.0625
 42
0.03125
 43
3.75
 44
0.09375
 45
0.0
 46
0.0
 47
0.0
 48
0.0
 49
2.5
140
0.0625
141
2.5
142
0.03125
143
0.03937007874
144
100.0
145
0.0
146
0.5
147
0.025
148
0.0
 69
0
 70
0
 71
0
 72
0
 73
0
 74
0
 75
0
 76
0
 77
1
 78
12
 79
3
170
0
171
3
172
1
173
0
174
0
175
0
176
0
177
0
178
0
179
2
271
2
272
2
273
2
274
3
275
0
276
0
277
2
278
46
279
2
280
0
281
0
282
0
283
0
284
8
285
0
286
0
288
1
289
3
290
0
340
4C
371
-2
372
-2
  0
DIMSTYLE
105
7F
330
4
100
AcDbSymbolTableRecord
100
AcDbDimStyleTableRecord
  2
EZ_M_20_H25_CM
 70
0
 40
1.0
 41
0.05
 42
0.025
 43
3.75
 44
0.07500000000000001
 45
0.0
 46
0.0
 47
0.0
 48
0.0
 49
2.5
140
0.05
141
2.5
142
0.025
143
0.03937007874
144
100.0
145
0.0
146
0.5
147
0.020000000000000004
148
0.0
 69
0
 70
0
 71
0
 72
0
 73
0
 74
0
 75
0
 76
0
 77
1
 78
12
 79
3
170
0
171
3
172
1
173
0
174
0
175
0
176
0
177
0
178
0
179
2
271
2
272
2
273
2
274
3
275
0
276
0
277
2
278
46
279
2
280
0
281
0
282
0
283
0
284
8
285
0
286
0
288
1
289
3
290
0
340
4C
371
-2
372
-2
  0
DIMSTYLE
105
80
330
4
100
AcDbSymbolTableRecord
100
AcDbDimStyleTableRecord
  2
EZ_M_10_H25_CM
 70
0
 40
1.0
 41
0.025
 42
0.0125
 43
3.75
 44
0.037500000000000006
 45
0.0
 46
0.0
 47
0.0
 48
0.0
 49
2.5
140
0.025
141
2.5
142
0.0125
143
0.03937007874
144
100.0
145
0.0
146
0.5
147
0.010000000000000002
148
0.0
 69
0
 70
0
 71
0
 72
0
 73
0
 74
0
 75
0
 76
0
 77
1
 78
12
 79
3
170
0
171
3
172
1
173
0
174
0
175
0
176
0
177
0
178
0
179
2
271
2
272
2
273
2
274
3
275
0
276
0
277
2
278
46
279
2
280
0
281
0
282
0
283
0
284
8
285
0
286
0
288
1
289
3
290
0
340
4C
371
-2
372
-2
  0
DIMSTYLE
105
81
330
4
100
AcDbSymbolTableRecord
100
AcDbDimStyleTableRecord
  2
EZ_M_5_H25_CM
 70
0
 40
1.0
 41
0.0125
 42
0.00625
 43
3.75
 44
0.018750000000000003
 45
0.0
 46
0.0
 47
0.0
 48
0.0
 49
2.5
140
0.0125
141
2.5
142
0.00625
143
0.03937007874
144
100.0
145
0.0
146
0.5
147
0.005000000000000001
148
0.0
 69
0
 70
0
 71
0
 72
0
 73
0
 74
0
 75
0
 76
0
 77
1
 78
12
 79
3
170
0
171
3
172
1
173
0
174
0
175
0
176
0
177
0
178
0
179
2
271
2
272
2
273
2
274
3
275
0
276
0
277
2
278
46
279
2
280
0
281
0
282
0
283
0
284
8
285
0
286
0
288
1
289
3
290
0
340
4C
371
-2
372
-2
  0
DIMSTYLE
105
82
330
4
100
AcDbSymbolTableRecord
100
AcDbDimStyleTableRecord
  2
EZ_M_1_H25_CM
 70
0
 40
1.0
 41
0.0025
 42
0.00125
 43
3.75
 44
0.00375
 45
0.0
 46
0.0
 47
0.0
 48
0.0
 49
2.5
140
0.0025
141
2.5
142
0.00125
143
0.03937007874
144
100.0
145
0.0
146
0.5
147
0.001
148
0.0
 69
0
 70
0
 71
0
 72
0
 73
0
 74
0
 75
0
 76
0
 77
1
 78
12
 79
3
170
0
171
3
172
1
173
0
174
0
175
0
176
0
177
0
178
0
179
2
271
2
272
2
273
2
274
3
275
0
276
0
277
2
278
46
279
2
280
0
281
0
282
0
283
0
284
8
285
0
286
0
288
1
289
3
290
0
340
4C
371
-2
372
-2
  0
DIMSTYLE
105
83
330
4
100
AcDbSymbolTableRecord
100
AcDbDimStyleTableRecord
  2
EZ_RADIUS
 70
0
 40
1.0
 41
0.25
 42
0.125
 43
3.75
 44
0.375
 45
0.0
 46
0.0
 47
0.0
 48
0.0
 49
2.5
140
0.25
141
0.0
142
0.0
143
0.03937007874
144
100.0
145
0.0
146
0.5
147
0.1
148
0.0
 69
0
 70
0
 71
0
 72
0
 73
0
 74
0
 75
0
 76
0
 77
1
 78
12
 79
3
170
0
171
3
172
0
173
0
174
0
175
0
176
0
177
0
178
0
179
2
271
2
272
2
273
2
274
3
275
0
276
0
277
2
278
46
279
1
280
0
281
0
282
0
283
0
284
8
285
0
286
0
288
1
289
3
290
0
340
4C
342
84
371
-2
372
-2
  0
DIMSTYLE
105
88
330
4
100
AcDbSymbolTableRecord
100
AcDbDimStyleTableRecord
  2
EZ_RADIUS_INSIDE
 70
0
 40
1.0
 41
0.25
 42
0.125
 43
3.75
 44
0.375
 45
0.0
 46
0.0
 47
0.0
 48
0.0
 49
2.5
140
0.25
141
0.0
142
0.0
143
0.03937007874
144
100.0
145
0.0
146
0.5
147
0.1
148
0.0
 69
0
 70
0
 71
0
 72
0
 73
0
 74
0
 75
0
 76
0
 77
0
 78
12
 79
3
170
0
171
3
172
0
173
0
174
1
175
0
176
0
177
0
178
0
179
2
271
2
272
2
273
2
274
3
275
0
276
0
277
2
278
46
279
0
280
0
281
0
282
0
283
0
284
8
285
0
286
0
288
1
289
0
290
0
340
4C
342
84
371
-2
372
-2
  0
DIMSTYLE
105
89
330
4
100
AcDbSymbolTableRecord
100
AcDbDimStyleTableRecord
  2
EZ_CURVED
 70
0
 40
1.0
 41
0.25
 42
0.125
 43
3.75
 44
0.375
 45
0.0
 46
0.0
 47
0.0
 48
0.0
 49
2.5
140
0.25
141
2.5
142
0.0
143
0.03937007874
144
100.0
145
0.0
146
0.5
147
0.1
148
0.0
 69
0
 70
0
 71
0
 72
0
 73
0
 74
0
 75
0
 76
0
 77
1
 78
12
 79
2
 90
2
170
0
171
3
172
1
173
0
174
0
175
0
176
0
177
0
178
0
179
2
271
2
272
2
273
2
274
3
275
0
276
0
277
2
278
46
279
2
280
0
281
0
282
0
283
0
284
8
285
0
286
0
288
1
289
3
290
0
340
4C
371
-2
372
-2
  0
ENDTAB
  0
TABLE
  2
BLOCK_RECORD
  5
9
330
0
100
AcDbSymbolTable
 70
5
  0
BLOCK_RECORD
  5
17
330
9
100
AcDbSymbolTableRecord
100
AcDbBlockTableRecord
  2
*Model_Space
340
1A
 70
0
280
1
281
0
  0
BLOCK_RECORD
  5
1B
330
9
100
AcDbSymbolTableRecord
100
AcDbBlockTableRecord
  2
*Paper_Space
340
1E
 70
0
280
1
281
0
  0
BLOCK_RECORD
  5
74
330
9
100
AcDbSymbolTableRecord
100
AcDbBlockTableRecord
  2
_ARCHTICK
340
0
 70
0
280
1
281
0
  0
BLOCK_RECORD
  5
78
330
9
100
AcDbSymbolTableRecord
100
AcDbBlockTableRecord
  2
_CLOSEDFILLED
340
0
 70
0
280
1
281
0
  0
BLOCK_RECORD
  5
84
330
9
100
AcDbSymbolTableRecord
100
AcDbBlockTableRecord
  2
_CLOSEDBLANK
340
0
 70
0
280
1
281
0
  0
ENDTAB
  0
ENDSEC
  0
SECTION
  2
BLOCKS
  0
BLOCK
  5
18
330
17
100
AcDbEntity
  8
0
100
AcDbBlockBegin
  2
*Model_Space
 70
0
 10
0.0
 20
0.0
 30
0.0
  3
*Model_Space
  1

  0
ENDBLK
  5
19
330
17
100
AcDbEntity
  8
0
100
AcDbBlockEnd
  0
BLOCK
  5
1C
330
1B
100
AcDbEntity
  8
0
100
AcDbBlockBegin
  2
*Paper_Space
 70
0
 10
0.0
 20
0.0
 30
0.0
  3
*Paper_Space
  1

  0
ENDBLK
  5
1D
330
1B
100
AcDbEntity
  8
0
100
AcDbBlockEnd
  0
BLOCK
  5
75
330
74
100
AcDbEntity
  8
0
100
AcDbBlockBegin
  2
_ARCHTICK
 70
0
 10
0.0
 20
0.0
 30
0.0
  3
_ARCHTICK
  1

  0
LWPOLYLINE
  5
77
330
74
100
AcDbEntity
  8
0
  6
BYBLOCK
 62
0
100
AcDbPolyline
 90
2
 70
0
 43
0.15
 10
-0.5
 20
-0.5
 10
0.5
 20
0.5
  0
ENDBLK
  5
76
330
74
100
AcDbEntity
  8
0
100
AcDbBlockEnd
  0
BLOCK
  5
79
330
78
100
AcDbEntity
  8
0
100
AcDbBlockBegin
  2
_CLOSEDFILLED
 70
0
 10
0.0
 20
0.0
 30
0.0
  3
_CLOSEDFILLED
  1

  0
SOLID
  5
7B
330
78
100
AcDbEntity
  8
0
  6
BYBLOCK
 62
0
100
AcDbTrace
 10
-1.0
 20
0.16439898372402537
 30
0.0
 11
0.0
 21
0.0
 31
0.0
 12
-1.0
 22
-0.16439898372402537
 32
0.0
 13
-1.0
 23
-0.16439898372402537
 33
0.0
  0
ENDBLK
  5
7A
330
78
100
AcDbEntity
  8
0
100
AcDbBlockEnd
  0
BLOCK
  5
85
330
84
100
AcDbEntity
  8
0
100
AcDbBlockBegin
  2
_CLOSEDBLANK
 70
0
 10
0.0
 20
0.0
 30
0.0
  3
_CLOSEDBLANK
  1

  0
LWPOLYLINE
  5
87
330
84
100
AcDbEntity
  8
0
  6
BYBLOCK
 62
0
100
AcDbPolyline
 90
3
 70
1
 10
-1.0
 20
0.16439898372402537
 10
0.0
 20
0.0
 10
-1.0
 20
-0.16439898372402537
  0
ENDBLK
  5
86
330
84
100
AcDbEntity
  8
0
100
AcDbBlockEnd
  0
ENDSEC
  0
SECTION
  2
ENTITIES
  0
LWPOLYLINE
  5
8C
330
17
100
AcDbEntity
  8
CUT
100
AcDbPolyline
 90
240
 70
1
 10
1126.4
 20
457.6
 10
1126.3937
 20
472.34770000000003
 10
1126.3496
 20
487.11340000000007
 10
1126.2295000000001
 20
501.91140000000007
 10
1125.9942
 20
516.7521
 10
1125.6036000000001
 20
531.6418
 10
1125.0162
 20
546.5829
 10
1124.1892
 20
561.5732
 10
1123.0784
 20
576.6058
 10
1121.6385
 20
591.6692
 10
1119.8233
 20
606.7468
 10
1117.5865000000001
 20
621.8168000000001
 10
1114.8817000000001
 20
636.8522
 10
1111.6638
 20
651.8212
 10
1107.8896
 20
666.6868000000001
 10
1103.5192
 20
681.4075
 10
1098.5167000000001
 20
695.9384
 10
1092.8518000000001
 20
710.2309
 10
1086.5007
 20
724.235
 10
1079.4475
 20
737.8995
 10
1071.6847
 20
751.1738
 10
1063.214
 20
764.009
 10
1054.0469
 20
776.3597
 10
1044.204
 20
788.1849
 10
1033.7152
 20
799.4493
 10
1022.6185
 20
810.1242
 10
1010.9593
 20
820.1883
 10
998.7882999999999
 20
829.6276
 10
986.1611
 20
838.4358
 10
973.1353000000001
 20
846.6141
 10
959.7702000000002
 20
854.1702
 10
946.1244000000002
 20
861.1181
 10
932.2549000000001
 20
867.477
 10
918.2160000000001
 20
873.2703
 10
904.0583
 20
878.525
 10
889.8284000000001
 20
883.2704
 10
875.5678
 20
887.5374
 10
861.3135000000001
 20
891.3578
 10
847.0975000000001
 20
894.7638000000001
 10
832.9469
 20
897.7869000000001
 10
818.8842000000001
 20
900.4581000000001
 10
804.9278
 20
902.8072
 10
791.0917000000001
 20
904.8626
 10
777.3866
 20
906.6515
 10
763.8196
 20
908.1990000000001
 10
750.3952
 20
909.5291
 10
737.1149
 20
910.6637000000001
 10
723.9782
 20
911.6235
 10
710.9824000000001
 20
912.4275
 10
698.1232
 20
913.0931
 10
685.3947000000001
 20
913.6368
 10
672.7896000000001
 20
914.0734
 10
660.2994
 20
914.417
 10
647.9148
 20
914.6803
 10
635.6253
 20
914.8754
 10
623.4196000000001
 20
915.0135
 10
611.2857
 20
915.105
 10
599.2108000000001
 20
915.1601
 10
587.1812
 20
915.1882
 10
575.1826000000001
 20
915.1985
 10
563.2
 20
915.2
 10
551.2174
 20
915.1985
 10
539.2188000000001
 20
915.1882
 10
527.1892
 20
915.1601
 10
515.1143000000001
 20
915.105
 10
502.9804
 20
915.0135
 10
490.7747
 20
914.8754
 10
478.4852
 20
914.6803
 10
466.10060000000004
 20
914.417
 10
453.61039999999997
 20
914.0734
 10
441.0053
 20
913.6368
 10
428.27680000000004
 20
913.0931
 10
415.41759999999994
 20
912.4275
 10
402.4218
 20
911.6235
 10
389.2851
 20
910.6637000000001
 10
376.0048
 20
909.5291
 10
362.5804
 20
908.1990000000001
 10
349.0134
 20
906.6515
 10
335.3083
 20
904.8626
 10
321.4722
 20
902.8072
 10
307.5158
 20
900.4581000000001
 10
293.4531
 20
897.7869000000001
 10
279.3025
 20
894.7638000000001
 10
265.0865
 20
891.3578
 10
250.8322
 20
887.5374
 10
236.5716
 20
883.2704
 10
222.3417
 20
878.525
 10
208.18399999999997
 20
873.2703
 10
194.1451
 20
867.477
 10
180.2756
 20
861.1181
 10
166.6298
 20
854.1702
 10
153.2647
 20
846.6141
 10
140.2389
 20
838.4358
 10
127.6117
 20
829.6276
 10
115.4407
 20
820.1883
 10
103.78150000000001
 20
810.1242
 10
92.68480000000001
 20
799.4493
 10
82.19600000000001
 20
788.1849
 10
72.3531
 20
776.3597
 10
63.18599999999999
 20
764.009
 10
54.7153
 20
751.1738
 10
46.9525
 20
737.8995
 10
39.8993
 20
724.235
 10
33.548199999999994
 20
710.2309
 10
27.883300000000006
 20
695.9384
 10
22.880800000000008
 20
681.4075
 10
18.51039999999999
 20
666.6868000000001
 10
14.736199999999997
 20
651.8212
 10
11.518299999999996
 20
636.8522
 10
8.813500000000005
 20
621.8168000000001
 10
6.576700000000002
 20
606.7468
 10
4.761499999999998
 20
591.6692
 10
3.3216000000000037
 20
576.6058
 10
2.210800000000006
 20
561.5732
 10
1.383800000000008
 20
546.5829
 10
0.7964000000000055
 20
531.6418
 10
0.4057999999999993
 20
516.7521
 10
0.1705000000000041
 20
501.91140000000007
 10
0.050399999999996226
 20
487.11340000000007
 10
0.0062999999999959755
 20
472.34770000000003
 10
0.0
 20
457.6
 10
0.0062999999999959755
 20
442.8523
 10
0.050399999999996226
 20
428.0866
 10
0.1705000000000041
 20
413.2886
 10
0.4057999999999993
 20
398.4479
 10
0.7964000000000055
 20
383.55819999999994
 10
1.383800000000008
 20
368.61710000000005
 10
2.210800000000006
 20
353.6268
 10
3.3216000000000037
 20
338.5942
 10
4.761499999999998
 20
323.5308
 10
6.576700000000002
 20
308.45320000000004
 10
8.813500000000005
 20
293.3832
 10
11.518299999999996
 20
278.3478
 10
14.736199999999997
 20
263.37879999999996
 10
18.51039999999999
 20
248.5132
 10
22.880800000000008
 20
233.7925
 10
27.883300000000006
 20
219.26160000000002
 10
33.548199999999994
 20
204.9691
 10
39.8993
 20
190.965
 10
46.9525
 20
177.30049999999997
 10
54.7153
 20
164.0262
 10
63.18599999999999
 20
151.191
 10
72.3531
 20
138.84029999999998
 10
82.19600000000001
 20
127.01509999999999
 10
92.68480000000001
 20
115.7507
 10
103.78150000000001
 20
105.07579999999999
 10
115.4407
 20
95.01169999999999
 10
127.6117
 20
85.57239999999999
 10
140.2389
 20
76.76419999999999
 10
153.2647
 20
68.58589999999998
 10
166.6298
 20
61.029799999999994
 10
180.2756
 20
54.08189999999999
 10
194.1451
 20
47.722999999999985
 10
208.18399999999997
 20
41.9297
 10
222.3417
 20
36.67499999999998
 10
236.5716
 20
31.929599999999994
 10
250.8322
 20
27.662599999999998
 10
265.0865
 20
23.84219999999999
 10
279.3025
 20
20.4362
 10
293.4531
 20
17.4131
 10
307.5158
 20
14.741900000000001
 10
321.4722
 20
12.392799999999994
 10
335.3083
 20
10.337399999999988
 10
349.0134
 20
8.54849999999999
 10
362.5804
 20
7.000999999999991
 10
376.0048
 20
5.670899999999989
 10
389.2851
 20
4.536299999999997
 10
402.4218
 20
3.576499999999996
 10
415.41759999999994
 20
2.7724999999999937
 10
428.27680000000004
 20
2.106899999999996
 10
441.0053
 20
1.5631999999999948
 10
453.61039999999997
 20
1.1265999999999963
 10
466.10060000000004
 20
0.7830000000000013
 10
478.4852
 20
0.5197000000000003
 10
490.7747
 20
0.32459999999998956
 10
502.9804
 20
0.18649999999999523
 10
515.1143000000001
 20
0.09499999999999886
 10
527.1892
 20
0.03989999999998872
 10
539.2188000000001
 20
0.011799999999993815
 10
551.2174
 20
0.0014999999999929514
 10
563.2
 20
0.0
 10
575.1826000000001
 20
0.0014999999999929514
 10
587.1812
 20
0.011799999999993815
 10
599.2108000000001
 20
0.03989999999998872
 10
611.2857
 20
0.09499999999999886
 10
623.4196000000001
 20
0.18649999999999523
 10
635.6253
 20
0.32459999999998956
 10
647.9148
 20
0.5197000000000003
 10
660.2994
 20
0.7830000000000013
 10
672.7896000000001
 20
1.1265999999999963
 10
685.3947000000001
 20
1.5631999999999948
 10
698.1232
 20
2.106899999999996
 10
710.9824000000001
 20
2.7724999999999937
 10
723.9782
 20
3.576499999999996
 10
737.1149
 20
4.536299999999997
 10
750.3952
 20
5.670899999999989
 10
763.8196
 20
7.000999999999991
 10
777.3866
 20
8.54849999999999
 10
791.0917000000001
 20
10.337399999999988
 10
804.9278
 20
12.392799999999994
 10
818.8842000000001
 20
14.741900000000001
 10
832.9469
 20
17.4131
 10
847.0975000000001
 20
20.4362
 10
861.3135000000001
 20
23.84219999999999
 10
875.5678
 20
27.662599999999998
 10
889.8284000000001
 20
31.929599999999994
 10
904.0583
 20
36.67499999999998
 10
918.2160000000001
 20
41.9297
 10
932.2549000000001
 20
47.722999999999985
 10
946.1244000000002
 20
54.08189999999999
 10
959.7702000000002
 20
61.029799999999994
 10
973.1353000000001
 20
68.58589999999998
 10
986.1611
 20
76.76419999999999
 10
998.7882999999999
 20
85.57239999999999
 10
1010.9593
 20
95.01169999999999
 10
1022.6185
 20
105.07579999999999
 10
1033.7152
 20
115.7507
 10
1044.204
 20
127.01509999999999
 10
1054.0469
 20
138.84029999999998
 10
1063.214
 20
151.191
 10
1071.6847
 20
164.0262
 10
1079.4475
 20
177.30049999999997
 10
1086.5007
 20
190.965
 10
1092.8518000000001
 20
204.9691
 10
1098.5167000000001
 20
219.26160000000002
 10
1103.5192
 20
233.7925
 10
1107.8896
 20
248.5132
 10
1111.6638
 20
263.37879999999996
 10
1114.8817000000001
 20
278.3478
 10
1117.5865000000001
 20
293.3832
 10
1119.8233
 20
308.45320000000004
 10
1121.6385
 20
323.5308
 10
1123.0784
 20
338.5942
 10
1124.1892
 20
353.6268
 10
1125.0162
 20
368.61710000000005
 10
1125.6036000000001
 20
383.55819999999994
 10
1125.9942
 20
398.4479
 10
1126.2295000000001
 20
413.2886
 10
1126.3496
 20
428.0866
 10
1126.3937
 20
442.8523
  0
LWPOLYLINE
  5
8D
330
17
100
AcDbEntity
  8
CUT
100
AcDbPolyline
 90
240
 70
1
 10
996.4382633335169
 20
446.2552568155776
 10
996.5277894479277
 20
434.8902528534046
 10
996.6302323529744
 20
423.48830092443006
 10
996.7063594351182
 20
412.0366456087645
 10
996.7157717872742
 20
400.52656590067784
 10
996.6167225503507
 20
388.9535349715678
 10
996.3660415215124
 20
377.3174195676294
 10
995.9191773804994
 20
365.62269948732046
 10
995.2303706491696
 20
353.878684729625
 10
994.2529705949821
 20
342.09970463403806
 10
992.9399073101783
 20
330.3052401309716
 10
991.2443257406169
 20
318.5199677061395
 10
989.1203812001079
 20
306.77368259768684
 10
986.5241858166694
 20
295.101069904331
 10
983.4148827155338
 20
283.5412964682065
 10
979.7558103431716
 20
272.1374042032778
 10
975.5157045308342
 20
260.93549719158807
 10
970.6698725621195
 20
249.9837300273484
 10
965.2012638662757
 20
239.33112252195022
 10
959.1013582356493
 20
229.02624425010922
 10
952.3707964472212
 20
219.11582921609786
 10
945.0196907175834
 20
209.64339361567633
 10
937.0675731010599
 20
200.64793596904488
 10
928.542966874714
 20
192.1627972578663
 10
919.4825960101598
 20
184.2147487341991
 10
909.9302771362461
 20
176.82335774978785
 10
899.9355630627807
 20
170.000659479414
 10
889.5522238280472
 20
163.75113779963246
 10
878.8366585562611
 20
158.07199507382526
 10
867.8463289730421
 20
152.95367102695778
 10
856.6382945301195
 20
148.3805572278185
 10
845.2679121170083
 20
144.3318467711094
 10
833.7877431712909
 20
140.78245831252306
 10
822.2466904505928
 20
137.70397855274737
 10
810.6893680925768
 20
135.06557599331703
 10
799.1556934002174
 20
132.8348495717012
 10
787.6806777828644
 20
130.9785870634221
 10
776.2943875010715
 20
129.4634187015716
 10
765.0220418466415
 20
128.25636051278113
 10
753.8842163931217
 20
127.32524900565502
 10
742.8971211301168
 20
126.63907399852323
 10
732.0729268390877
 20
126.1682196902037
 10
721.4201172922474
 20
125.88462584395833
 10
710.9438492314478
 20
125.7618815080078
 10
700.6463062429364
 20
125.77526337021763
 10
690.5270363605598
 20
125.9017299372359
 10
680.5832663914982
 20
126.11988148313682
 10
670.8101885343164
 20
126.40989431560942
 10
661.2012168730682
 20
126.75343649142687
 10
651.7482128392886
 20
127.1335707643515
 10
642.4416798068996
 20
127.53464931874302
 10
633.2709276975357
 20
127.94220375508618
 10
624.2242088955803
 20
128.34283285465776
 10
615.2888269649513
 20
128.72408985239227
 10
606.4512196748026
 20
129.07437027473875
 10
597.6970177194055
 20
129.3828008338003
 10
589.0110802887651
 20
129.63912938910872
 10
580.3775083314972
 20
129.8336155721136
 10
571.7796359616888
 20
129.9569212937523
 10
563.1999999999999
 20
130.0000000000002
 10
554.6203640383112
 20
129.9569212937523
 10
546.0224916685028
 20
129.8336155721136
 10
537.3889197112352
 20
129.63912938910872
 10
528.7029822805945
 20
129.3828008338003
 10
519.9487803251974
 20
129.0743702747388
 10
511.1111730350486
 20
128.7240898523922
 10
502.1757911044196
 20
128.3428328546577
 10
493.1290723024642
 20
127.94220375508618
 10
483.95832019310063
 20
127.53464931874296
 10
474.6517871607113
 20
127.13357076435145
 10
465.1987831269317
 20
126.75343649142692
 10
455.58981146568357
 20
126.40989431560942
 10
445.8167336085017
 20
126.11988148313688
 10
435.8729636394401
 20
125.90172993723596
 10
425.7536937570639
 20
125.77526337021763
 10
415.45615076855205
 20
125.76188150800775
 10
404.97988270775244
 20
125.88462584395828
 10
394.32707316091216
 20
126.16821969020364
 10
383.50287886988315
 20
126.63907399852329
 10
372.5157836068781
 20
127.32524900565502
 10
361.37795815335875
 20
128.25636051278107
 10
350.1056124989284
 20
129.46341870157156
 10
338.7193222171354
 20
130.97858706342217
 10
327.2443065997825
 20
132.8348495717013
 10
315.71063190742296
 20
135.06557599331714
 10
304.15330954940697
 20
137.70397855274737
 10
292.61225682870935
 20
140.782458312523
 10
281.13208788299164
 20
144.33184677110947
 10
269.7617054698802
 20
148.3805572278185
 10
258.5536710269578
 20
152.9536710269579
 10
247.5633414437391
 20
158.07199507382526
 10
236.8477761719529
 20
163.75113779963252
 10
226.46443693721938
 20
170.00065947941405
 10
216.46972286375376
 20
176.82335774978785
 10
206.91740398984007
 20
184.21474873419922
 10
197.8570331252858
 20
192.1627972578664
 10
189.33242689894024
 20
200.64793596904488
 10
181.3803092824166
 20
209.64339361567627
 10
174.0292035527787
 20
219.11582921609786
 10
167.2986417643507
 20
229.02624425010933
 10
161.1987361337243
 20
239.3311225219504
 10
155.73012743788053
 20
249.9837300273485
 10
150.88429546916586
 20
260.93549719158807
 10
146.64418965682853
 20
272.1374042032778
 10
142.98511728446613
 20
283.5412964682065
 10
139.8758141833307
 20
295.1010699043311
 10
137.2796187998921
 20
306.77368259768707
 10
135.1556742593832
 20
318.5199677061397
 10
133.46009268982158
 20
330.3052401309716
 10
132.1470294050178
 20
342.09970463403806
 10
131.16962935083058
 20
353.87868472962487
 10
130.48082261950077
 20
365.6226994873206
 10
130.0339584784876
 20
377.3174195676295
 10
129.78327744964952
 20
388.95353497156793
 10
129.68422821272583
 20
400.52656590067795
 10
129.69364056488195
 20
412.0366456087644
 10
129.76976764702562
 20
423.48830092443006
 10
129.87221055207232
 20
434.89025285340495
 10
129.96173666648298
 20
446.2552568155778
 10
130.00000000000017
 20
457.6
 10
129.96173666648298
 20
468.94474318442235
 10
129.87221055207232
 20
480.3097471465952
 10
129.76976764702562
 20
491.7116990755701
 10
129.69364056488195
 20
503.16335439123566
 10
129.68422821272577
 20
514.6734340993222
 10
129.78327744964946
 20
526.2464650284322
 10
130.03395847848748
 20
537.8825804323707
 10
130.4808226195007
 20
549.5773005126794
 10
131.16962935083052
 20
561.3213152703753
 10
132.14702940501786
 20
573.1002953659621
 10
133.46009268982158
 20
584.8947598690283
 10
135.15567425938326
 20
596.6800322938604
 10
137.27961879989215
 20
608.4263174023131
 10
139.8758141833307
 20
620.0989300956688
 10
142.98511728446618
 20
631.6587035317937
 10
146.64418965682853
 20
643.0625957967223
 10
150.8842954691658
 20
654.2645028084119
 10
155.73012743788047
 20
665.2162699726516
 10
161.19873613372437
 20
675.8688774780497
 10
167.29864176435052
 20
686.1737557498907
 10
174.02920355277877
 20
696.0841707839023
 10
181.3803092824167
 20
705.5566063843238
 10
189.33242689894018
 20
714.5520640309552
 10
197.8570331252858
 20
723.0372027421338
 10
206.91740398984012
 20
730.9852512658009
 10
216.4697228637537
 20
738.3766422502121
 10
226.46443693721955
 20
745.199340520586
 10
236.847776171953
 20
751.4488622003676
 10
247.56334144373892
 20
757.1280049261746
 10
258.5536710269579
 20
762.2463289730422
 10
269.7617054698804
 20
766.8194427721816
 10
281.1320878829916
 20
770.8681532288905
 10
292.61225682870935
 20
774.417541687477
 10
304.1533095494073
 20
777.4960214472527
 10
315.7106319074231
 20
780.1344240066829
 10
327.24430659978253
 20
782.3651504282988
 10
338.7193222171355
 20
784.2214129365778
 10
350.10561249892834
 20
785.7365812984284
 10
361.3779581533587
 20
786.9436394872189
 10
372.5157836068784
 20
787.8747509943449
 10
383.5028788698832
 20
788.5609260014768
 10
394.32707316091233
 20
789.0317803097963
 10
404.97988270775267
 20
789.3153741560417
 10
415.45615076855205
 20
789.4381184919922
 10
425.7536937570639
 20
789.4247366297824
 10
435.87296363944034
 20
789.2982700627641
 10
445.8167336085017
 20
789.0801185168633
 10
455.5898114656837
 20
788.7901056843906
 10
465.1987831269317
 20
788.4465635085731
 10
474.6517871607112
 20
788.0664292356486
 10
483.9583201931005
 20
787.6653506812571
 10
493.1290723024644
 20
787.257796244914
 10
502.1757911044196
 20
786.8571671453423
 10
511.1111730350487
 20
786.4759101476078
 10
519.9487803251974
 20
786.1256297252612
 10
528.7029822805944
 20
785.8171991661997
 10
537.3889197112351
 20
785.5608706108914
 10
546.0224916685029
 20
785.3663844278864
 10
554.6203640383113
 20
785.2430787062477
 10
563.2
 20
785.1999999999998
 10
571.7796359616888
 20
785.2430787062477
 10
580.3775083314972
 20
785.3663844278864
 10
589.011080288765
 20
785.5608706108914
 10
597.6970177194057
 20
785.8171991661997
 10
606.4512196748027
 20
786.1256297252612
 10
615.2888269649513
 20
786.4759101476078
 10
624.2242088955803
 20
786.8571671453423
 10
633.2709276975357
 20
787.2577962449138
 10
642.4416798068996
 20
787.665350681257
 10
651.7482128392888
 20
788.0664292356486
 10
661.2012168730683
 20
788.4465635085731
 10
670.8101885343165
 20
788.7901056843907
 10
680.5832663914982
 20
789.0801185168632
 10
690.5270363605598
 20
789.2982700627641
 10
700.6463062429362
 20
789.4247366297824
 10
710.943849231448
 20
789.4381184919922
 10
721.4201172922476
 20
789.3153741560417
 10
732.0729268390878
 20
789.0317803097963
 10
742.8971211301168
 20
788.5609260014768
 10
753.8842163931217
 20
787.8747509943449
 10
765.0220418466414
 20
786.9436394872188
 10
776.2943875010717
 20
785.7365812984284
 10
787.6806777828647
 20
784.2214129365778
 10
799.1556934002175
 20
782.3651504282988
 10
810.689368092577
 20
780.1344240066829
 10
822.2466904505928
 20
777.4960214472527
 10
833.7877431712907
 20
774.417541687477
 10
845.2679121170084
 20
770.8681532288905
 10
856.6382945301198
 20
766.8194427721816
 10
867.8463289730422
 20
762.2463289730421
 10
878.8366585562611
 20
757.1280049261746
 10
889.5522238280471
 20
751.4488622003674
 10
899.9355630627806
 20
745.199340520586
 10
909.9302771362463
 20
738.3766422502121
 10
919.48259601016
 20
730.9852512658008
 10
928.5429668747142
 20
723.0372027421337
 10
937.0675731010599
 20
714.5520640309552
 10
945.0196907175834
 20
705.5566063843238
 10
952.3707964472212
 20
696.0841707839022
 10
959.1013582356495
 20
686.1737557498907
 10
965.2012638662757
 20
675.8688774780496
 10
970.6698725621195
 20
665.2162699726515
 10
975.5157045308342
 20
654.2645028084119
 10
979.7558103431716
 20
643.0625957967222
 10
983.4148827155338
 20
631.6587035317935
 10
986.5241858166694
 20
620.0989300956688
 10
989.1203812001079
 20
608.426317402313
 10
991.2443257406169
 20
596.6800322938603
 10
992.9399073101783
 20
584.8947598690285
 10
994.2529705949821
 20
573.100295365962
 10
995.2303706491696
 20
561.3213152703752
 10
995.9191773804994
 20
549.5773005126794
 10
996.3660415215124
 20
537.8825804323704
 10
996.6167225503505
 20
526.2464650284321
 10
996.7157717872742
 20
514.6734340993222
 10
996.7063594351182
 20
503.16335439123554
 10
996.6302323529744
 20
491.7116990755701
 10
996.5277894479277
 20
480.3097471465952
 10
996.4382633335169
 20
468.94474318442224
 10
996.3999999999999
 20
457.6
  0
LWPOLYLINE
  5
8E
330
17
100
AcDbEntity
  8
CUT
100
AcDbPolyline
 90
8
 70
1
 10
1064.473800580905
 20
515.374391929039
 42
2.414213562373095
 10
1068.0539864780849
 20
512.6063115578008
 10
1102.3743009917202
 20
516.9967570574224
 42
2.414213562373095
 10
1105.1423813629585
 20
520.5769429546023
 10
1103.5435486087613
 20
533.0750921705504
 42
2.414213562373095
 10
1099.9633627115813
 20
535.8431725417886
 10
1065.643048197946
 20
531.452727042167
 42
2.414213562373095
 10
1062.8749678267077
 20
527.8725411449872
  0
LWPOLYLINE
  5
8F
330
17
100
AcDbEntity
  8
CUT
100
AcDbPolyline
 90
8
 70
1
 10
1050.688076685309
 20
642.7332432968409
 42
2.414213562373095
 10
1054.8378230417318
 20
640.927805627644
 10
1087.0330366802384
 20
653.6017244679603
 42
2.414213562373095
 10
1088.838474349435
 20
657.7514708243831
 10
1084.2231166214585
 20
669.475739374822
 42
2.414213562373095
 10
1080.0733702650357
 20
671.2811770440188
 10
1047.878156626529
 20
658.6072582037026
 42
2.414213562373095
 10
1046.0727189573324
 20
654.4575118472798
  0
LWPOLYLINE
  5
90
330
17
100
AcDbEntity
  8
CUT
100
AcDbPolyline
 90
8
 70
1
 10
990.0255253256089
 20
754.3689492473336
 42
2.414213562373095
 10
994.4890096067124
 20
753.6224185565094
 10
1022.6556530486964
 20
773.7171989039565
 42
2.414213562373095
 10
1023.4021837395205
 20
778.1806831850599
 10
1016.0844313586583
 20
788.4379001610425
 42
2.414213562373095
 10
1011.6209470775548
 20
789.1844308518668
 10
983.4543036355708
 20
769.0896505044196
 42
2.414213562373095
 10
982.7077729447467
 20
764.6261662233162
  0
LWPOLYLINE
  5
91
330
17
100
AcDbEntity
  8
CUT
100
AcDbPolyline
 90
8
 70
1
 10
882.0333503917452
 20
821.7906568251381
 42
2.414213562373095
 10
886.5446029772182
 20
822.1492654001365
 10
908.994834658847
 20
848.4769522989354
 42
2.414213562373095
 10
908.6362260838487
 20
852.9882048844086
 10
899.0486869241704
 20
861.1637227800306
 42
2.414213562373095
 10
894.5374343386974
 20
860.8051142050322
 10
872.0872026570686
 20
834.4774273062333
 42
2.414213562373095
 10
872.445811232067
 20
829.9661747207601
  0
LWPOLYLINE
  5
92
330
17
100
AcDbEntity
  8
CUT
100
AcDbPolyline
 90
8
 70
1
 10
757.0125174498459
 20
847.4495695264872
 42
2.414213562373095
 10
761.2811870923018
 20
848.9523867088402
 10
776.2340769547324
 20
880.1544873554636
 42
2.414213562373095
 10
774.7312597723793
 20
884.4231569979196
 10
763.3686450860367
 20
889.8684290287468
 42
2.414213562373095
 10
759.0999754435808
 20
888.3656118463938
 10
744.1470855811502
 20
857.1635111997704
 42
2.414213562373095
 10
745.6499027635033
 20
852.8948415573144
  0
LWPOLYLINE
  5
93
330
17
100
AcDbEntity
  8
CUT
100
AcDbPolyline
 90
8
 70
1
 10
631.4345196418499
 20
852.1636136754476
 42
2.414213562373095
 10
635.0915297670766
 20
854.8293737816817
 10
640.4504751822545
 20
889.011850345517
 42
2.414213562373095
 10
637.7847150760203
 20
892.6688604707435
 10
625.3367611828319
 20
894.620383945635
 42
2.414213562373095
 10
621.6797510576051
 20
891.9546238394008
 10
616.3208056424272
 20
857.7721472755655
 42
2.414213562373095
 10
618.9865657486614
 20
854.115137150339
  0
LWPOLYLINE
  5
94
330
17
100
AcDbEntity
  8
CUT
100
AcDbPolyline
 90
8
 70
1
 10
507.41343425133874
 20
854.1151371503391
 42
2.414213562373095
 10
510.07919435757293
 20
857.7721472755657
 10
504.720248942395
 20
891.9546238394009
 42
2.414213562373095
 10
501.06323881716827
 20
894.6203839456351
 10
488.6152849239798
 20
892.6688604707437
 42
2.414213562373095
 10
485.9495248177456
 20
889.0118503455171
 10
491.3084702329235
 20
854.8293737816819
 42
2.414213562373095
 10
494.9654803581503
 20
852.1636136754477
  0
LWPOLYLINE
  5
95
330
17
100
AcDbEntity
  8
CUT
100
AcDbPolyline
 90
8
 70
1
 10
380.7500972364968
 20
852.8948415573144
 42
2.414213562373095
 10
382.25291441884985
 20
857.1635111997704
 10
367.3000245564192
 20
888.3656118463938
 42
2.414213562373095
 10
363.03135491396336
 20
889.8684290287468
 10
351.6687402276207
 20
884.4231569979196
 42
2.414213562373095
 10
350.1659230452676
 20
880.1544873554636
 10
365.11881290769827
 20
848.9523867088402
 42
2.414213562373095
 10
369.3874825501541
 20
847.4495695264872
  0
LWPOLYLINE
  5
96
330
17
100
AcDbEntity
  8
CUT
100
AcDbPolyline
 90
8
 70
1
 10
253.95418876793326
 20
829.9661747207604
 42
2.414213562373095
 10
254.31279734293167
 20
834.4774273062335
 10
231.86256566130288
 20
860.8051142050324
 42
2.414213562373095
 10
227.3513130758298
 20
861.1637227800309
 10
217.76377391615154
 20
852.9882048844088
 42
2.414213562373095
 10
217.40516534115312
 20
848.4769522989357
 10
239.85539702278191
 20
822.1492654001368
 42
2.414213562373095
 10
244.366649608255
 20
821.7906568251383
  0
LWPOLYLINE
  5
97
330
17
100
AcDbEntity
  8
CUT
100
AcDbPolyline
 90
8
 70
1
 10
143.69222705525323
 20
764.626166223316
 42
2.414213562373095
 10
142.945696364429
 20
769.0896505044194
 10
114.77905292244513
 20
789.1844308518665
 42
2.414213562373095
 10
110.3155686413417
 20
788.4379001610423
 10
102.99781626047944
 20
778.1806831850597
 42
2.414213562373095
 10
103.74434695130365
 20
773.7171989039563
 10
131.91099039328753
 20
753.6224185565092
 42
2.414213562373095
 10
136.37447467439097
 20
754.3689492473334
  0
LWPOLYLINE
  5
98
330
17
100
AcDbEntity
  8
CUT
100
AcDbPolyline
 90
8
 70
1
 10
80.32728104266776
 20
654.4575118472798
 42
2.414213562373095
 10
78.52184337347096
 20
658.6072582037026
 10
46.326629734964385
 20
671.2811770440188
 42
2.414213562373095
 10
42.17688337854149
 20
669.475739374822
 10
37.56152565056509
 20
657.7514708243831
 42
2.414213562373095
 10
39.366963319761894
 20
653.6017244679603
 10
71.56217695826847
 20
640.927805627644
 42
2.414213562373095
 10
75.71192331469136
 20
642.7332432968409
  0
LWPOLYLINE
  5
99
330
17
100
AcDbEntity
  8
CUT
100
AcDbPolyline
 90
8
 70
1
 10
63.5250321732923
 20
527.872541144987
 42
2.414213562373095
 10
60.75695180205402
 20
531.4527270421669
 10
26.436637288418652
 20
535.8431725417885
 42
2.414213562373095
 10
22.85645139123882
 20
533.0750921705503
 10
21.257618637041347
 20
520.5769429546021
 42
2.414213562373095
 10
24.02569900827963
 20
516.9967570574223
 10
58.346013521915
 20
512.6063115578007
 42
2.414213562373095
 10
61.92619941909483
 20
515.3743919290389
  0
LWPOLYLINE
  5
9A
330
17
100
AcDbEntity
  8
CUT
100
AcDbPolyline
 90
8
 70
1
 10
61.92619941909483
 20
399.8256080709609
 42
2.414213562373095
 10
58.346013521915
 20
402.5936884421992
 10
24.02569900827963
 20
398.2032429425776
 42
2.414213562373095
 10
21.257618637041347
 20
394.6230570453978
 10
22.85645139123882
 20
382.1249078294496
 42
2.414213562373095
 10
26.436637288418652
 20
379.35682745821134
 10
60.75695180205402
 20
383.74727295783293
 42
2.414213562373095
 10
63.5250321732923
 20
387.32745885501276
  0
LWPOLYLINE
  5
9B
330
17
100
AcDbEntity
  8
CUT
100
AcDbPolyline
 90
8
 70
1
 10
75.71192331469136
 20
272.46675670315904
 42
2.414213562373095
 10
71.56217695826847
 20
274.2721943723558
 10
39.366963319761894
 20
261.5982755320397
 42
2.414213562373095
 10
37.56152565056509
 20
257.44852917561684
 10
42.17688337854149
 20
245.72426062517795
 42
2.414213562373095
 10
46.326629734964385
 20
243.91882295598114
 10
78.52184337347096
 20
256.5927417962972
 42
2.414213562373095
 10
80.32728104266776
 20
260.74248815272017
  0
LWPOLYLINE
  5
9C
330
17
100
AcDbEntity
  8
CUT
100
AcDbPolyline
 90
8
 70
1
 10
136.37447467439114
 20
160.83105075266653
 42
2.414213562373095
 10
131.9109903932877
 20
161.57758144349074
 10
103.74434695130383
 20
141.4828010960436
 42
2.414213562373095
 10
102.99781626047961
 20
137.01931681494014
 10
110.31556864134187
 20
126.7620998389576
 42
2.414213562373095
 10
114.7790529224453
 20
126.01556914813341
 10
142.94569636442918
 20
146.11034949558052
 42
2.414213562373095
 10
143.6922270552534
 20
150.57383377668398
  0
LWPOLYLINE
  5
9D
330
17
100
AcDbEntity
  8
CUT
100
AcDbPolyline
 90
8
 70
1
 10
244.36664960825476
 20
93.40934317486193
 42
2.414213562373095
 10
239.85539702278163
 20
93.05073459986352
 10
217.40516534115284
 20
66.72304770106456
 42
2.414213562373095
 10
217.7637739161512
 20
62.211795115591485
 10
227.35131307582947
 20
54.036277219969406
 42
2.414213562373095
 10
231.8625656613026
 20
54.39488579496782
 10
254.3127973429314
 20
80.72257269376678
 42
2.414213562373095
 10
253.95418876793303
 20
85.23382527923985
  0
LWPOLYLINE
  5
9E
330
17
100
AcDbEntity
  8
CUT
100
AcDbPolyline
 90
8
 70
1
 10
369.387482550154
 20
67.75043047351289
 42
2.414213562373095
 10
365.11881290769816
 20
66.24761329115978
 10
350.1659230452675
 20
35.04551264453636
 42
2.414213562373095
 10
351.66874022762056
 20
30.776843002080483
 10
363.03135491396324
 20
25.331570971253143
 42
2.414213562373095
 10
367.3000245564191
 20
26.834388153606255
 10
382.25291441884974
 20
58.03648880022968
 42
2.414213562373095
 10
380.7500972364967
 20
62.305158442685524
  0
LWPOLYLINE
  5
9F
330
17
100
AcDbEntity
  8
CUT
100
AcDbPolyline
 90
8
 70
1
 10
494.9654803581504
 20
63.03638632455241
 42
2.414213562373095
 10
491.30847023292364
 20
60.37062621831822
 10
485.9495248177457
 20
26.188149654482984
 42
2.414213562373095
 10
488.6152849239799
 20
22.53113952925635
 10
501.0632388171684
 20
20.579616054364962
 42
2.414213562373095
 10
504.72024894239513
 20
23.24537616059915
 10
510.07919435757304
 20
57.42785272443436
 42
2.414213562373095
 10
507.41343425133886
 20
61.08486284966099
  0
LWPOLYLINE
  5
A0
330
17
100
AcDbEntity
  8
CUT
100
AcDbPolyline
 90
8
 70
1
 10
618.9865657486611
 20
61.08486284966108
 42
2.414213562373095
 10
616.3208056424269
 20
57.427852724434445
 10
621.6797510576048
 20
23.245376160599207
 42
2.414213562373095
 10
625.3367611828315
 20
20.57961605436502
 10
637.78471507602
 20
22.531139529256407
 42
2.414213562373095
 10
640.4504751822542
 20
26.18814965448304
 10
635.0915297670763
 20
60.37062621831825
 42
2.414213562373095
 10
631.4345196418495
 20
63.03638632455244
  0
LWPOLYLINE
  5
A1
330
17
100
AcDbEntity
  8
CUT
100
AcDbPolyline
 90
8
 70
1
 10
745.6499027635032
 20
62.30515844268564
 42
2.414213562373095
 10
744.1470855811501
 20
58.03648880022973
 10
759.0999754435807
 20
26.834388153606312
 42
2.414213562373095
 10
763.3686450860366
 20
25.3315709712532
 10
774.7312597723792
 20
30.77684300208054
 42
2.414213562373095
 10
776.2340769547322
 20
35.045512644536416
 10
761.2811870923017
 20
66.24761329115984
 42
2.414213562373095
 10
757.0125174498457
 20
67.75043047351295
  0
LWPOLYLINE
  5
A2
330
17
100
AcDbEntity
  8
CUT
100
AcDbPolyline
 90
8
 70
1
 10
872.4458112320668
 20
85.23382527923974
 42
2.414213562373095
 10
872.0872026570685
 20
80.72257269376666
 10
894.5374343386973
 20
54.394885794967706
 42
2.414213562373095
 10
899.0486869241703
 20
54.03627721996929
 10
908.6362260838486
 20
62.21179511559137
 42
2.414213562373095
 10
908.9948346588469
 20
66.72304770106444
 10
886.5446029772181
 20
93.0507345998634
 42
2.414213562373095
 10
882.0333503917451
 20
93.40934317486182
  0
LWPOLYLINE
  5
A3
330
17
100
AcDbEntity
  8
CUT
100
AcDbPolyline
 90
8
 70
1
 10
982.7077729447465
 20
150.5738337766838
 42
2.414213562373095
 10
983.4543036355706
 20
146.11034949558038
 10
1011.6209470775545
 20
126.01556914813321
 42
2.414213562373095
 10
1016.0844313586581
 20
126.76209983895743
 10
1023.4021837395203
 20
137.01931681493997
 42
2.414213562373095
 10
1022.6556530486962
 20
141.4828010960434
 10
994.4890096067122
 20
161.57758144349057
 42
2.414213562373095
 10
990.0255253256087
 20
160.83105075266636
  0
LWPOLYLINE
  5
A4
330
17
100
AcDbEntity
  8
CUT
100
AcDbPolyline
 90
8
 70
1
 10
1046.0727189573322
 20
260.74248815272006
 42
2.414213562373095
 10
1047.8781566265288
 20
256.5927417962971
 10
1080.0733702650355
 20
243.91882295598097
 42
2.414213562373095
 10
1084.2231166214583
 20
245.72426062517772
 10
1088.8384743494348
 20
257.4485291756166
 42
2.414213562373095
 10
1087.0330366802382
 20
261.59827553203957
 10
1054.8378230417316
 20
274.27219437235567
 42
2.414213562373095
 10
1050.6880766853087
 20
272.4667567031589
  0
LWPOLYLINE
  5
A5
330
17
100
AcDbEntity
  8
CUT
100
AcDbPolyline
 90
8
 70
1
 10
1062.8749678267077
 20
387.32745885501265
 42
2.414213562373095
 10
1065.643048197946
 20
383.7472729578327
 10
1099.9633627115813
 20
379.3568274582111
 42
2.414213562373095
 10
1103.5435486087613
 20
382.1249078294494
 10
1105.1423813629585
 20
394.62305704539756
 42
2.414213562373095
 10
1102.3743009917202
 20
398.2032429425774
 10
1068.0539864780849
 20
402.593688442199
 42
2.414213562373095
 10
1064.473800580905
 20
399.8256080709608
  0
TEXT
  5
A6
330
17
100
AcDbEntity
  8
ENGRAVE-LABEL
100
AcDbText
 10
1032.2945309438353
 20
202.57421891644836
 30
0.0
 40
11.0
  1
01 BASE-RING-L
 50
15.0
 72
1
 11
1032.2945309438353
 21
202.57421891644836
 31
0.0
100
AcDbText
 73
2
  0
ENDSEC
  0
SECTION
  2
OBJECTS
  0
DICTIONARY
  5
A
330
0
100
AcDbDictionary
281
1
  3
ACAD_COLOR
350
B
  3
ACAD_GROUP
350
C
  3
ACAD_LAYOUT
350
D
  3
ACAD_MATERIAL
350
E
  3
ACAD_MLEADERSTYLE
350
F
  3
ACAD_MLINESTYLE
350
10
  3
ACAD_PLOTSETTINGS
350
11
  3
ACAD_PLOTSTYLENAME
350
12
  3
ACAD_SCALELIST
350
14
  3
ACAD_TABLESTYLE
350
15
  3
ACAD_VISUALSTYLE
350
16
  3
EZDXF_META
350
2D
  0
DICTIONARY
  5
B
330
A
100
AcDbDictionary
281
1
  0
DICTIONARY
  5
C
330
A
100
AcDbDictionary
281
1
  0
DICTIONARY
  5
D
330
A
100
AcDbDictionary
281
1
  3
Model
350
1A
  3
Layout1
350
1E
  0
DICTIONARY
  5
E
330
A
100
AcDbDictionary
281
1
  3
ByBlock
350
1F
  3
ByLayer
350
20
  3
Global
350
21
  0
DICTIONARY
  5
F
330
A
100
AcDbDictionary
281
1
  3
Standard
350
2C
  0
DICTIONARY
  5
10
330
A
100
AcDbDictionary
281
1
  3
Standard
350
22
  0
DICTIONARY
  5
11
330
A
100
AcDbDictionary
281
1
  0
ACDBDICTIONARYWDFLT
  5
12
330
A
100
AcDbDictionary
281
1
  3
Normal
350
13
100
AcDbDictionaryWithDefault
340
13
  0
ACDBPLACEHOLDER
  5
13
330
12
  0
DICTIONARY
  5
14
330
A
100
AcDbDictionary
281
1
  0
DICTIONARY
  5
15
330
A
100
AcDbDictionary
281
1
  0
DICTIONARY
  5
16
330
A
100
AcDbDictionary
281
1
  3
2dWireframe
350
5A
  3
Basic
350
5B
  3
Brighten
350
5C
  3
ColorChange
350
5D
  3
Conceptual
350
5E
  3
Dim
350
5F
  3
EdgeColorOff
350
60
  3
Facepattern
350
61
  3
Flat
350
62
  3
FlatWithEdges
350
63
  3
Gouraud
350
64
  3
GouraudWithEdges
350
65
  3
Hidden
350
66
  3
JitterOff
350
67
  3
Linepattern
350
68
  3
Modeling
350
69
  3
OverhangOff
350
6A
  3
Realistic
350
6B
  3
Shaded
350
6C
  3
Shaded with edges
350
6D
  3
Shades of Gray
350
6E
  3
Sketchy
350
6F
  3
Thicken
350
70
  3
Wireframe
350
71
  3
X-Ray
350
72
  0
LAYOUT
  5
1A
330
D
100
AcDbPlotSettings
  1

  4
A3
  6

 40
7.5
 41
20.0
 42
7.5
 43
20.0
 44
420.0
 45
297.0
 46
0.0
 47
0.0
 48
0.0
 49
0.0
140
0.0
141
0.0
142
1.0
143
1.0
 70
1024
 72
1
 73
0
 74
5
  7

 75
16
 76
0
 77
2
 78
300
147
1.0
148
0.0
149
0.0
100
AcDbLayout
  1
Model
 70
1
 71
0
 10
0.0
 20
0.0
 11
420.0
 21
297.0
 12
0.0
 22
0.0
 32
0.0
 14
1e+20
 24
1e+20
 34
1e+20
 15
-1e+20
 25
-1e+20
 35
-1e+20
146
0.0
 13
0.0
 23
0.0
 33
0.0
 16
1.0
 26
0.0
 36
0.0
 17
0.0
 27
1.0
 37
0.0
 76
1
330
17
  0
LAYOUT
  5
1E
330
D
100
AcDbPlotSettings
  1

  4
A3
  6

 40
7.5
 41
20.0
 42
7.5
 43
20.0
 44
420.0
 45
297.0
 46
0.0
 47
0.0
 48
0.0
 49
0.0
140
0.0
141
0.0
142
1.0
143
1.0
 70
0
 72
1
 73
0
 74
5
  7

 75
16
 76
0
 77
2
 78
300
147
1.0
148
0.0
149
0.0
100
AcDbLayout
  1
Layout1
 70
1
 71
1
 10
0.0
 20
0.0
 11
420.0
 21
297.0
 12
0.0
 22
0.0
 32
0.0
 14
1e+20
 24
1e+20
 34
1e+20
 15
-1e+20
 25
-1e+20
 35
-1e+20
146
0.0
 13
0.0
 23
0.0
 33
0.0
 16
1.0
 26
0.0
 36
0.0
 17
0.0
 27
1.0
 37
0.0
 76
1
330
1B
  0
MATERIAL
  5
1F
102
{ACAD_REACTORS
330
E
102
}
330
E
100
AcDbMaterial
  1
ByBlock
  2

 70
0
 40
1.0
 71
1
 41
1.0
 91
-1023410177
 42
1.0
 72
1
  3

 73
1
 74
1
 75
1
 44
0.5
 73
0
 45
1.0
 46
1.0
 77
1
  4

 78
1
 79
1
170
1
 48
1.0
171
1
  6

172
1
173
1
174
1
140
1.0
141
1.0
175
1
  7

176
1
177
1
178
1
143
1.0
179
1
  8

270
1
271
1
272
1
145
1.0
146
1.0
273
1
  9

274
1
275
1
276
1
 42
1.0
 72
1
  3

 73
1
 74
1
 75
1
 94
63
  0
MATERIAL
  5
20
102
{ACAD_REACTORS
330
E
102
}
330
E
100
AcDbMaterial
  1
ByLayer
  2

 70
0
 40
1.0
 71
1
 41
1.0
 91
-1023410177
 42
1.0
 72
1
  3

 73
1
 74
1
 75
1
 44
0.5
 73
0
 45
1.0
 46
1.0
 77
1
  4

 78
1
 79
1
170
1
 48
1.0
171
1
  6

172
1
173
1
174
1
140
1.0
141
1.0
175
1
  7

176
1
177
1
178
1
143
1.0
179
1
  8

270
1
271
1
272
1
145
1.0
146
1.0
273
1
  9

274
1
275
1
276
1
 42
1.0
 72
1
  3

 73
1
 74
1
 75
1
 94
63
  0
MATERIAL
  5
21
102
{ACAD_REACTORS
330
E
102
}
330
E
100
AcDbMaterial
  1
Global
  2

 70
0
 40
1.0
 71
1
 41
1.0
 91
-1023410177
 42
1.0
 72
1
  3

 73
1
 74
1
 75
1
 44
0.5
 73
0
 45
1.0
 46
1.0
 77
1
  4

 78
1
 79
1
170
1
 48
1.0
171
1
  6

172
1
173
1
174
1
140
1.0
141
1.0
175
1
  7

176
1
177
1
178
1
143
1.0
179
1
  8

270
1
271
1
272
1
145
1.0
146
1.0
273
1
  9

274
1
275
1
276
1
 42
1.0
 72
1
  3

 73
1
 74
1
 75
1
 94
63
  0
MLINESTYLE
  5
22
102
{ACAD_REACTORS
330
10
102
}
330
10
100
AcDbMlineStyle
  2
Standard
 70
0
  3

 62
256
 51
90.0
 52
90.0
 71
2
 49
0.5
 62
256
  6
BYLAYER
 49
-0.5
 62
256
  6
BYLAYER
  0
MLEADERSTYLE
  5
2C
102
{ACAD_REACTORS
330
F
102
}
330
F
100
AcDbMLeaderStyle
179
2
170
2
171
1
172
0
 90
2
 40
0.0
 41
0.0
173
1
 91
-1056964608
 92
-2
290
1
 42
2.0
291
1
 43
8.0
  3
Standard
 44
4.0
300

342
29
174
1
175
1
176
0
178
1
 93
-1056964608
 45
4.0
292
0
297
0
 46
4.0
 94
-1056964608
 47
1.0
 49
1.0
140
1.0
294
1
141
0.0
177
0
142
1.0
295
0
296
0
143
3.75
271
0
272
9
273
9
  0
DICTIONARY
  5
2D
330
A
100
AcDbDictionary
280
1
281
1
  3
CREATED_BY_EZDXF
350
2E
  3
WRITTEN_BY_EZDXF
350
A9
  0
DICTIONARYVAR
  5
2E
330
2D
100
DictionaryVariables
280
0
  1
1.4.4 @ 2026-10-02T17:38:47.741927+00:00
  0
VISUALSTYLE
  5
5A
102
{ACAD_REACTORS
330
16
102
}
330
16
100
AcDbVisualStyle
  2
2dWireframe
 70
4
 90
0
 40
0.6
 62
7
290
0
291
0
  0
VISUALSTYLE
  5
5B
102
{ACAD_REACTORS
330
16
102
}
330
16
100
AcDbVisualStyle
  2
Basic
 70
7
 90
1
 40
0.6
 62
7
290
0
291
1
  0
VISUALSTYLE
  5
5C
102
{ACAD_REACTORS
330
16
102
}
330
16
100
AcDbVisualStyle
  2
Brighten
 70
12
 90
2
 40
0.6
 62
7
290
0
291
1
  0
VISUALSTYLE
  5
5D
102
{ACAD_REACTORS
330
16
102
}
330
16
100
AcDbVisualStyle
  2
ColorChange
 70
16
 90
2
 40
0.6
 62
8
290
0
291
1
  0
VISUALSTYLE
  5
5E
102
{ACAD_REACTORS
330
16
102
}
330
16
100
AcDbVisualStyle
  2
Conceptual
 70
9
 90
3
 40
0.6
 62
7
290
0
291
0
  0
VISUALSTYLE
  5
5F
102
{ACAD_REACTORS
330
16
102
}
330
16
100
AcDbVisualStyle
  2
Dim
 70
11
 90
2
 40
0.6
 62
7
290
0
291
1
  0
VISUALSTYLE
  5
60
102
{ACAD_REACTORS
330
16
102
}
330
16
100
AcDbVisualStyle
  2
EdgeColorOff
 70
22
 90
2
 40
0.6
 62
7
290
0
291
1
  0
VISUALSTYLE
  5
61
102
{ACAD_REACTORS
330
16
102
}
330
16
100
AcDbVisualStyle
  2
Facepattern
 70
15
 90
2
 40
0.6
 62
7
290
0
291
1
  0
VISUALSTYLE
  5
62
102
{ACAD_REACTORS
330
16
102
}
330
16
100
AcDbVisualStyle
  2
Flat
 70
0
 90
2
 40
0.6
 62
7
290
0
291
1
  0
VISUALSTYLE
  5
63
102
{ACAD_REACTORS
330
16
102
}
330
16
100
AcDbVisualStyle
  2
FlatWithEdges
 70
1
 90
2
 40
0.6
 62
7
290
0
291
1
  0
VISUALSTYLE
  5
64
102
{ACAD_REACTORS
330
16
102
}
330
16
100
AcDbVisualStyle
  2
Gouraud
 70
2
 90
2
 40
0.6
 62
7
290
0
291
1
  0
VISUALSTYLE
  5
65
102
{ACAD_REACTORS
330
16
102
}
330
16
100
AcDbVisualStyle
  2
GouraudWithEdges
 70
3
 90
2
 40
0.6
 62
7
290
0
291
1
  0
VISUALSTYLE
  5
66
102
{ACAD_REACTORS
330
16
102
}
330
16
100
AcDbVisualStyle
  2
Hidden
 70
6
 90
1
 40
0.6
 62
7
290
0
291
0
  0
VISUALSTYLE
  5
67
102
{ACAD_REACTORS
330
16
102
}
330
16
100
AcDbVisualStyle
  2
JitterOff
 70
20
 90
2
 40
0.6
 62
7
290
0
291
1
  0
VISUALSTYLE
  5
68
102
{ACAD_REACTORS
330
16
102
}
330
16
100
AcDbVisualStyle
  2
Linepattern
 70
14
 90
2
 40
0.6
 62
7
290
0
291
1
  0
VISUALSTYLE
  5
69
102
{ACAD_REACTORS
330
16
102
}
330
16
100
AcDbVisualStyle
  2
Modeling
 70
10
 90
2
 40
0.6
 62
7
290
0
291
0
  0
VISUALSTYLE
  5
6A
102
{ACAD_REACTORS
330
16
102
}
330
16
100
AcDbVisualStyle
  2
OverhangOff
 70
21
 90
2
 40
0.6
 62
7
290
0
291
1
  0
VISUALSTYLE
  5
6B
102
{ACAD_REACTORS
330
16
102
}
330
16
100
AcDbVisualStyle
  2
Realistic
 70
8
 90
2
 40
0.6
 62
7
290
0
291
0
  0
VISUALSTYLE
  5
6C
102
{ACAD_REACTORS
330
16
102
}
330
16
100
AcDbVisualStyle
  2
Shaded
 70
27
 90
2
 40
0.6
 62
7
290
0
291
0
  0
VISUALSTYLE
  5
6D
102
{ACAD_REACTORS
330
16
102
}
330
16
100
AcDbVisualStyle
  2
Shaded with edges
 70
26
 90
2
 40
0.6
 62
7
290
0
291
0
  0
VISUALSTYLE
  5
6E
102
{ACAD_REACTORS
330
16
102
}
330
16
100
AcDbVisualStyle
  2
Shades of Gray
 70
23
 90
2
 40
0.6
 62
7
290
0
291
0
  0
VISUALSTYLE
  5
6F
102
{ACAD_REACTORS
330
16
102
}
330
16
100
AcDbVisualStyle
  2
Sketchy
 70
24
 90
1
 40
0.6
 62
7
290
0
291
0
  0
VISUALSTYLE
  5
70
102
{ACAD_REACTORS
330
16
102
}
330
16
100
AcDbVisualStyle
  2
Thicken
 70
13
 90
2
 40
0.6
 62
7
290
0
291
1
  0
VISUALSTYLE
  5
71
102
{ACAD_REACTORS
330
16
102
}
330
16
100
AcDbVisualStyle
  2
Wireframe
 70
5
 90
0
 40
0.6
 62
7
290
0
291
0
  0
VISUALSTYLE
  5
72
102
{ACAD_REACTORS
330
16
102
}
330
16
100
AcDbVisualStyle
  2
X-Ray
 70
25
 90
2
 40
0.5
 62
7
290
0
291
0
  0
DICTIONARYVAR
  5
A9
330
2D
100
DictionaryVariables
280
0
  1
1.4.4 @ 2026-10-02T17:38:47.781370+00:00
  0
ENDSEC
  0
EOF
