  0
SECTION
  2
HEADER
  9
$ACADVER
  1
AC1024
  9
$ACADMAINTVER
 70
6
  9
$DWGCODEPAGE
  3
ANSI_1252
  9
$LASTSAVEDBY
  1
ezdxf
  9
$INSBASE
 10
0.0
 20
0.0
 30
0.0
  9
$EXTMIN
 10
1e+20
 20
1e+20
 30
1e+20
  9
$EXTMAX
 10
-1e+20
 20
-1e+20
 30
-1e+20
  9
$LIMMIN
 10
0.0
 20
0.0
  9
$LIMMAX
 10
420.0
 20
297.0
  9
$ORTHOMODE
 70
0
  9
$REGENMODE
 70
1
  9
$FILLMODE
 70
1
  9
$QTEXTMODE
 70
0
  9
$MIRRTEXT
 70
1
  9
$LTSCALE
 40
1.0
  9
$ATTMODE
 70
1
  9
$TEXTSIZE
 40
2.5
  9
$TRACEWID
 40
1.0
  9
$TEXTSTYLE
  7
OpenSans
  9
$CLAYER
  8
0
  9
$CELTYPE
  6
ByLayer
  9
$CECOLOR
 62
256
  9
$CELTSCALE
 40
1.0
  9
$DISPSILH
 70
0
  9
$DIMSCALE
 40
1.0
  9
$DIMASZ
 40
0.175
  9
$DIMEXO
 40
0.125
  9
$DIMDLI
 40
3.75
  9
$DIMRND
 40
0.0
  9
$DIMDLE
 40
0.0
  9
$DIMEXE
 40
0.375
  9
$DIMTP
 40
0.0
  9
$DIMTM
 40
0.0
  9
$DIMTXT
 40
0.25
  9
$DIMCEN
 40
2.5
  9
$DIMTSZ
 40
0.0
  9
$DIMTOL
 70
0
  9
$DIMLIM
 70
0
  9
$DIMTIH
 70
0
  9
$DIMTOH
 70
0
  9
$DIMSE1
 70
0
  9
$DIMSE2
 70
0
  9
$DIMTAD
 70
1
  9
$DIMZIN
 70
12
  9
$DIMBLK
  1
ARCHTICK
  9
$DIMASO
 70
1
  9
$DIMSHO
 70
1
  9
$DIMPOST
  1

  9
$DIMAPOST
  1

  9
$DIMALT
 70
0
  9
$DIMALTD
 70
3
  9
$DIMALTF
 40
0.03937007874
  9
$DIMLFAC
 40
100.0
  9
$DIMTOFL
 70
1
  9
$DIMTVP
 40
0.0
  9
$DIMTIX
 70
0
  9
$DIMSOXD
 70
0
  9
$DIMSAH
 70
0
  9
$DIMBLK1
  1

  9
$DIMBLK2
  1

  9
$DIMSTYLE
  2
EZDXF
  9
$DIMCLRD
 70
0
  9
$DIMCLRE
 70
0
  9
$DIMCLRT
 70
0
  9
$DIMTFAC
 40
0.5
  9
$DIMGAP
 40
0.1
  9
$DIMJUST
 70
0
  9
$DIMSD1
 70
0
  9
$DIMSD2
 70
0
  9
$DIMTOLJ
 70
0
  9
$DIMTZIN
 70
8
  9
$DIMALTZ
 70
0
  9
$DIMALTTZ
 70
0
  9
$DIMUPT
 70
1
  9
$DIMDEC
 70
2
  9
$DIMTDEC
 70
2
  9
$DIMALTU
 70
2
  9
$DIMALTTD
 70
3
  9
$DIMTXSTY
  7
OpenSansCondensed-Light
  9
$DIMAUNIT
 70
0
  9
$DIMADEC
 70
2
  9
$DIMALTRND
 40
0.0
  9
$DIMAZIN
 70
3
  9
$DIMDSEP
 70
46
  9
$DIMATFIT
 70
3
  9
$DIMFRAC
 70
0
  9
$DIMLDRBLK
  1

  9
$DIMLUNIT
 70
2
  9
$DIMLWD
 70
-2
  9
$DIMLWE
 70
-2
  9
$DIMTMOVE
 70
2
  9
$DIMFXL
 40
1.0
  9
$DIMFXLON
 70
0
  9
$DIMJOGANG
 40
0.785398163397
  9
$DIMTFILL
 70
0
  9
$DIMTFILLCLR
 70
0
  9
$DIMARCSYM
 70
0
  9
$DIMLTYPE
  6

  9
$DIMLTEX1
  6

  9
$DIMLTEX2
  6

  9
$DIMTXTDIRECTION
 70
0
  9
$LUNITS
 70
2
  9
$LUPREC
 70
4
  9
$SKETCHINC
 40
1.0
  9
$FILLETRAD
 40
10.0
  9
$AUNITS
 70
0
  9
$AUPREC
 70
2
  9
$MENU
  1
.
  9
$ELEVATION
 40
0.0
  9
$PELEVATION
 40
0.0
  9
$THICKNESS
 40
0.0
  9
$LIMCHECK
 70
0
  9
$CHAMFERA
 40
0.0
  9
$CHAMFERB
 40
0.0
  9
$CHAMFERC
 40
0.0
  9
$CHAMFERD
 40
0.0
  9
$SKPOLY
 70
0
  9
$TDCREATE
 40
2461316.7352662035
  9
$TDUCREATE
 40
2458532.153996898
  9
$TDUPDATE
 40
2461316.7352662035
  9
$TDUUPDATE
 40
2458532.1544311
  9
$TDINDWG
 40
0.0
  9
$TDUSRTIMER
 40
0.0
  9
$USRTIMER
 70
1
  9
$ANGBASE
 50
0.0
  9
$ANGDIR
 70
0
  9
$PDMODE
 70
0
  9
$PDSIZE
 40
0.0
  9
$PLINEWID
 40
0.0
  9
$SPLFRAME
 70
0
  9
$SPLINETYPE
 70
6
  9
$SPLINESEGS
 70
8
  9
$HANDSEED
  5
AA
  9
$SURFTAB1
 70
6
  9
$SURFTAB2
 70
6
  9
$SURFTYPE
 70
6
  9
$SURFU
 70
6
  9
$SURFV
 70
6
  9
$UCSBASE
  2

  9
$UCSNAME
  2

  9
$UCSORG
 10
0.0
 20
0.0
 30
0.0
  9
$UCSXDIR
 10
1.0
 20
0.0
 30
0.0
  9
$UCSYDIR
 10
0.0
 20
1.0
 30
0.0
  9
$UCSORTHOREF
  2

  9
$UCSORTHOVIEW
 70
0
  9
$UCSORGTOP
 10
0.0
 20
0.0
 30
0.0
  9
$UCSORGBOTTOM
 10
0.0
 20
0.0
 30
0.0
  9
$UCSORGLEFT
 10
0.0
 20
0.0
 30
0.0
  9
$UCSORGRIGHT
 10
0.0
 20
0.0
 30
0.0
  9
$UCSORGFRONT
 10
0.0
 20
0.0
 30
0.0
  9
$UCSORGBACK
 10
0.0
 20
0.0
 30
0.0
  9
$PUCSBASE
  2

  9
$PUCSNAME
  2

  9
$PUCSORG
 10
0.0
 20
0.0
 30
0.0
  9
$PUCSXDIR
 10
1.0
 20
0.0
 30
0.0
  9
$PUCSYDIR
 10
0.0
 20
1.0
 30
0.0
  9
$PUCSORTHOREF
  2

  9
$PUCSORTHOVIEW
 70
0
  9
$PUCSORGTOP
 10
0.0
 20
0.0
 30
0.0
  9
$PUCSORGBOTTOM
 10
0.0
 20
0.0
 30
0.0
  9
$PUCSORGLEFT
 10
0.0
 20
0.0
 30
0.0
  9
$PUCSORGRIGHT
 10
0.0
 20
0.0
 30
0.0
  9
$PUCSORGFRONT
 10
0.0
 20
0.0
 30
0.0
  9
$PUCSORGBACK
 10
0.0
 20
0.0
 30
0.0
  9
$USERI1
 70
0
  9
$USERI2
 70
0
  9
$USERI3
 70
0
  9
$USERI4
 70
0
  9
$USERI5
 70
0
  9
$USERR1
 40
0.0
  9
$USERR2
 40
0.0
  9
$USERR3
 40
0.0
  9
$USERR4
 40
0.0
  9
$USERR5
 40
0.0
  9
$WORLDVIEW
 70
1
  9
$SHADEDGE
 70
3
  9
$SHADEDIF
 70
70
  9
$TILEMODE
 70
1
  9
$MAXACTVP
 70
64
  9
$PINSBASE
 10
0.0
 20
0.0
 30
0.0
  9
$PLIMCHECK
 70
0
  9
$PEXTMIN
 10
1e+20
 20
1e+20
 30
1e+20
  9
$PEXTMAX
 10
-1e+20
 20
-1e+20
 30
-1e+20
  9
$PLIMMIN
 10
0.0
 20
0.0
  9
$PLIMMAX
 10
420.0
 20
297.0
  9
$UNITMODE
 70
0
  9
$VISRETAIN
 70
1
  9
$PLINEGEN
 70
0
  9
$PSLTSCALE
 70
1
  9
$TREEDEPTH
 70
3020
  9
$CMLSTYLE
  2
Standard
  9
$CMLJUST
 70
0
  9
$CMLSCALE
 40
20.0
  9
$PROXYGRAPHICS
 70
1
  9
$MEASUREMENT
 70
1
  9
$CELWEIGHT
370
-1
  9
$ENDCAPS
280
0
  9
$JOINSTYLE
280
0
  9
$LWDISPLAY
290
0
  9
$INSUNITS
 70
4
  9
$HYPERLINKBASE
  1

  9
$STYLESHEET
  1

  9
$XEDIT
290
1
  9
$CEPSNTYPE
380
0
  9
$PSTYLEMODE
290
1
  9
$FINGERPRINTGUID
  2
{E75B170A-A433-4B1D-875B-C3B3830E99CA}
  9
$VERSIONGUID
  2
{EE3B5299-2377-4B45-8FB3-DAD81AB44496}
  9
$EXTNAMES
290
1
  9
$PSVPSCALE
 40
0.0
  9
$OLESTARTUP
290
0
  9
$SORTENTS
280
127
  9
$INDEXCTL
280
0
  9
$HIDETEXT
280
1
  9
$XCLIPFRAME
280
1
  9
$HALOGAP
280
0
  9
$OBSCOLOR
 70
257
  9
$OBSLTYPE
280
0
  9
$INTERSECTIONDISPLAY
280
0
  9
$INTERSECTIONCOLOR
 70
257
  9
$DIMASSOC
280
2
  9
$PROJECTNAME
  1

  9
$CAMERADISPLAY
290
0
  9
$LENSLENGTH
 40
50.0
  9
$CAMERAHEIGHT
 40
0.0
  9
$STEPSPERSEC
 40
24.0
  9
$STEPSIZE
 40
100.0
  9
$3DDWFPREC
 40
2.0
  9
$PSOLWIDTH
 40
0.005
  9
$PSOLHEIGHT
 40
0.08
  9
$LOFTANG1
 40
1.570796326795
  9
$LOFTANG2
 40
1.570796326795
  9
$LOFTMAG1
 40
0.0
  9
$LOFTMAG2
 40
0.0
  9
$LOFTPARAM
 70
7
  9
$LOFTNORMALS
280
1
  9
$LATITUDE
 40
37.795
  9
$LONGITUDE
 40
-122.394
  9
$NORTHDIRECTION
 40
0.0
  9
$TIMEZONE
 70
-8000
  9
$LIGHTGLYPHDISPLAY
280
1
  9
$TILEMODELIGHTSYNCH
280
1
  9
$CMATERIAL
347
20
  9
$SOLIDHIST
280
0
  9
$SHOWHIST
280
1
  9
$DWFFRAME
280
2
  9
$DGNFRAME
280
2
  9
$REALWORLDSCALE
290
1
  9
$INTERFERECOLOR
 62
256
  9
$CSHADOW
280
0
  9
$SHADOWPLANELOCATION
 40
0.0
  0
ENDSEC
  0
SECTION
  2
CLASSES
  0
CLASS
  1
ACDBDICTIONARYWDFLT
  2
AcDbDictionaryWithDefault
  3
ObjectDBX Classes
 90
0
 91
0
280
0
281
0
  0
CLASS
  1
SUN
  2
AcDbSun
  3
SCENEOE
 90
1153
 91
0
280
0
281
0
  0
CLASS
  1
VISUALSTYLE
  2
AcDbVisualStyle
  3
ObjectDBX Classes
 90
4095
 91
0
280
0
281
0
  0
CLASS
  1
MATERIAL
  2
AcDbMaterial
  3
ObjectDBX Classes
 90
1153
 91
0
280
0
281
0
  0
CLASS
  1
SCALE
  2
AcDbScale
  3
ObjectDBX Classes
 90
1153
 91
0
280
0
281
0
  0
CLASS
  1
TABLESTYLE
  2
AcDbTableStyle
  3
ObjectDBX Classes
 90
4095
 91
0
280
0
281
0
  0
CLASS
  1
MLEADERSTYLE
  2
AcDbMLeaderStyle
  3
ACDB_MLEADERSTYLE_CLASS
 90
4095
 91
0
280
0
281
0
  0
CLASS
  1
DICTIONARYVAR
  2
AcDbDictionaryVar
  3
ObjectDBX Classes
 90
0
 91
0
280
0
281
0
  0
CLASS
  1
CELLSTYLEMAP
  2
AcDbCellStyleMap
  3
ObjectDBX Classes
 90
1152
 91
0
280
0
281
0
  0
CLASS
  1
MENTALRAYRENDERSETTINGS
  2
AcDbMentalRayRenderSettings
  3
SCENEOE
 90
1024
 91
0
280
0
281
0
  0
CLASS
  1
ACDBDETAILVIEWSTYLE
  2
AcDbDetailViewStyle
  3
ObjectDBX Classes
 90
1025
 91
0
280
0
281
0
  0
CLASS
  1
ACDBSECTIONVIEWSTYLE
  2
AcDbSectionViewStyle
  3
ObjectDBX Classes
 90
1025
 91
0
280
0
281
0
  0
CLASS
  1
RASTERVARIABLES
  2
AcDbRasterVariables
  3
ISM
 90
0
 91
0
280
0
281
0
  0
CLASS
  1
LAYOUT
  2
AcDbLayout
  3
ObjectDBX Classes
 90
0
 91
0
280
0
281
0
  0
CLASS
  1
ACDBPLACEHOLDER
  2
AcDbPlaceHolder
  3
ObjectDBX Classes
 90
0
 91
0
280
0
281
0
  0
ENDSEC
  0
SECTION
  2
TABLES
  0
TABLE
  2
VPORT
  5
8
330
0
100
AcDbSymbolTable
 70
1
  0
VPORT
  5
23
330
8
100
AcDbSymbolTableRecord
100
AcDbViewportTableRecord
  2
*Active
 70
0
 10
0.0
 20
0.0
 11
1.0
 21
1.0
 12
0.0
 22
0.0
 13
0.0
 23
0.0
 14
0.5
 24
0.5
 15
0.5
 25
0.5
 16
0.0
 26
0.0
 36
1.0
 17
0.0
 27
0.0
 37
0.0
 40
1000.0
 41
1.34
 42
50.0
 43
0.0
 44
0.0
 50
0.0
 51
0.0
 71
0
 72
1000
 73
1
 74
3
 75
0
 76
0
 77
0
 78
0
281
0
 65
0
146
0.0
  0
ENDTAB
  0
TABLE
  2
LTYPE
  5
2
330
0
100
AcDbSymbolTable
 70
21
  0
LTYPE
  5
24
330
2
100
AcDbSymbolTableRecord
100
AcDbLinetypeTableRecord
  2
ByBlock
 70
0
  3

 72
65
 73
0
 40
0.0
  0
LTYPE
  5
25
330
2
100
AcDbSymbolTableRecord
100
AcDbLinetypeTableRecord
  2
ByLayer
 70
0
  3

 72
65
 73
0
 40
0.0
  0
LTYPE
  5
26
330
2
100
AcDbSymbolTableRecord
100
AcDbLinetypeTableRecord
  2
Continuous
 70
0
  3

 72
65
 73
0
 40
0.0
  0
LTYPE
  5
2F
330
2
100
AcDbSymbolTableRecord
100
AcDbLinetypeTableRecord
  2
CENTER
 70
0
  3
Center ____ _ ____ _ ____ _ ____ _ ____ _ ____
 72
65
 73
4
 40
5.08
 49
3.175
 74
0
 49
-0.635
 74
0
 49
0.635
 74
0
 49
-0.635
 74
0
  0
LTYPE
  5
30
330
2
100
AcDbSymbolTableRecord
100
AcDbLinetypeTableRecord
  2
CENTERX2
 70
0
  3
Center (2x) ________  __  ________  __  ________
 72
65
 73
4
 40
8.89
 49
6.35
 74
0
 49
-0.635
 74
0
 49
1.27
 74
0
 49
-0.635
 74
0
  0
LTYPE
  5
31
330
2
100
AcDbSymbolTableRecord
100
AcDbLinetypeTableRecord
  2
CENTER2
 70
0
  3
Center (.5x) ____ _ ____ _ ____ _ ____ _ ____
 72
65
 73
4
 40
2.54
 49
1.587
 74
0
 49
-0.318
 74
0
 49
0.318
 74
0
 49
-0.318
 74
0
  0
LTYPE
  5
32
330
2
100
AcDbSymbolTableRecord
100
AcDbLinetypeTableRecord
  2
DASHED
 70
0
  3
Dashed __ __ __ __ __ __ __ __ __ __ __ __ __ _
 72
65
 73
2
 40
1.524
 49
1.27
 74
0
 49
-0.254
 74
0
  0
LTYPE
  5
33
330
2
100
AcDbSymbolTableRecord
100
AcDbLinetypeTableRecord
  2
DASHEDX2
 70
0
  3
Dashed (2x) ____  ____  ____  ____  ____  ____
 72
65
 73
2
 40
3.048
 49
2.54
 74
0
 49
-0.508
 74
0
  0
LTYPE
  5
34
330
2
100
AcDbSymbolTableRecord
100
AcDbLinetypeTableRecord
  2
DASHED2
 70
0
  3
Dashed (.5x) _ _ _ _ _ _ _ _ _ _ _ _ _ _
 72
65
 73
2
 40
0.762
 49
0.635
 74
0
 49
-0.127
 74
0
  0
LTYPE
  5
35
330
2
100
AcDbSymbolTableRecord
100
AcDbLinetypeTableRecord
  2
PHANTOM
 70
0
  3
Phantom ______  __  __  ______  __  __  ______
 72
65
 73
6
 40
6.35
 49
3.175
 74
0
 49
-0.635
 74
0
 49
0.635
 74
0
 49
-0.635
 74
0
 49
0.635
 74
0
 49
-0.635
 74
0
  0
LTYPE
  5
36
330
2
100
AcDbSymbolTableRecord
100
AcDbLinetypeTableRecord
  2
PHANTOMX2
 70
0
  3
Phantom (2x)____________    ____    ____    ____________
 72
65
 73
6
 40
10.795
 49
6.35
 74
0
 49
-0.635
 74
0
 49
1.27
 74
0
 49
-0.635
 74
0
 49
1.27
 74
0
 49
-0.635
 74
0
  0
LTYPE
  5
37
330
2
100
AcDbSymbolTableRecord
100
AcDbLinetypeTableRecord
  2
PHANTOM2
 70
0
  3
Phantom (.5x) ___ _ _ ___ _ _ ___ _ _ ___ _ _ ___
 72
65
 73
6
 40
3.175
 49
1.587
 74
0
 49
-0.318
 74
0
 49
0.318
 74
0
 49
-0.318
 74
0
 49
0.318
 74
0
 49
-0.318
 74
0
  0
LTYPE
  5
38
330
2
100
AcDbSymbolTableRecord
100
AcDbLinetypeTableRecord
  2
DASHDOT
 70
0
  3
Dash dot __ . __ . __ . __ . __ . __ . __ . __
 72
65
 73
4
 40
3.556
 49
2.54
 74
0
 49
-0.508
 74
0
 49
0.0
 74
0
 49
-0.508
 74
0
  0
LTYPE
  5
39
330
2
100
AcDbSymbolTableRecord
100
AcDbLinetypeTableRecord
  2
DASHDOTX2
 70
0
  3
Dash dot (2x) ____  .  ____  .  ____  .  ____
 72
65
 73
4
 40
6.096
 49
5.08
 74
0
 49
-0.508
 74
0
 49
0.0
 74
0
 49
-0.508
 74
0
  0
LTYPE
  5
3A
330
2
100
AcDbSymbolTableRecord
100
AcDbLinetypeTableRecord
  2
DASHDOT2
 70
0
  3
Dash dot (.5x) _ . _ . _ . _ . _ . _ . _ . _
 72
65
 73
4
 40
1.778
 49
1.27
 74
0
 49
-0.254
 74
0
 49
0.0
 74
0
 49
-0.254
 74
0
  0
LTYPE
  5
3B
330
2
100
AcDbSymbolTableRecord
100
AcDbLinetypeTableRecord
  2
DOT
 70
0
  3
Dot .  .  .  .  .  .  .  .  .  .  .  .  .  .  .  .
 72
65
 73
2
 40
0.508
 49
0.0
 74
0
 49
-0.508
 74
0
  0
LTYPE
  5
3C
330
2
100
AcDbSymbolTableRecord
100
AcDbLinetypeTableRecord
  2
DOTX2
 70
0
  3
Dot (2x) .    .    .    .    .    .    .    . 
 72
65
 73
2
 40
1.016
 49
0.0
 74
0
 49
-1.016
 74
0
  0
LTYPE
  5
3D
330
2
100
AcDbSymbolTableRecord
100
AcDbLinetypeTableRecord
  2
DOT2
 70
0
  3
Dot (.5) . . . . . . . . . . . . . . . . . . . 
 72
65
 73
2
 40
0.254
 49
0.0
 74
0
 49
-0.254
 74
0
  0
LTYPE
  5
3E
330
2
100
AcDbSymbolTableRecord
100
AcDbLinetypeTableRecord
  2
DIVIDE
 70
0
  3
Divide __ . . __ . . __ . . __ . . __ . . __
 72
65
 73
6
 40
4.064
 49
2.54
 74
0
 49
-0.508
 74
0
 49
0.0
 74
0
 49
-0.508
 74
0
 49
0.0
 74
0
 49
-0.508
 74
0
  0
LTYPE
  5
3F
330
2
100
AcDbSymbolTableRecord
100
AcDbLinetypeTableRecord
  2
DIVIDEX2
 70
0
  3
Divide (2x) ____  . .  ____  . .  ____  . .  ____
 72
65
 73
6
 40
6.604
 49
5.08
 74
0
 49
-0.508
 74
0
 49
0.0
 74
0
 49
-0.508
 74
0
 49
0.0
 74
0
 49
-0.508
 74
0
  0
LTYPE
  5
40
330
2
100
AcDbSymbolTableRecord
100
AcDbLinetypeTableRecord
  2
DIVIDE2
 70
0
  3
Divide(.5x) _ . _ . _ . _ . _ . _ . _ . _
 72
65
 73
6
 40
2.032
 49
1.27
 74
0
 49
-0.254
 74
0
 49
0.0
 74
0
 49
-0.254
 74
0
 49
0.0
 74
0
 49
-0.254
 74
0
  0
ENDTAB
  0
TABLE
  2
LAYER
  5
1
330
0
100
AcDbSymbolTable
 70
4
  0
LAYER
  5
27
330
1
100
AcDbSymbolTableRecord
100
AcDbLayerTableRecord
  2
0
 70
0
 62
7
  6
Continuous
370
-3
390
13
347
21
  0
LAYER
  5
28
330
1
100
AcDbSymbolTableRecord
100
AcDbLayerTableRecord
  2
Defpoints
 70
0
 62
7
  6
Continuous
290
0
370
-3
390
13
347
21
  0
LAYER
  5
8A
330
1
100
AcDbSymbolTableRecord
100
AcDbLayerTableRecord
  2
CUT
 70
0
 62
1
  6
Continuous
370
-3
390
13
347
21
  0
LAYER
  5
8B
330
1
100
AcDbSymbolTableRecord
100
AcDbLayerTableRecord
  2
ENGRAVE-LABEL
 70
0
 62
3
  6
Continuous
370
-3
390
13
347
21
  0
ENDTAB
  0
TABLE
  2
STYLE
  5
5
330
0
100
AcDbSymbolTable
 70
26
  0
STYLE
  5
29
330
5
100
AcDbSymbolTableRecord
100
AcDbTextStyleTableRecord
  2
Standard
 70
0
 40
0.0
 41
1.0
 50
0.0
 71
0
 42
2.5
  3
txt
  4

  0
STYLE
  5
41
330
5
100
AcDbSymbolTableRecord
100
AcDbTextStyleTableRecord
  2
OpenSans-Light
 70
0
 40
0.0
 41
1.0
 50
0.0
 71
0
 42
2.5
  3
OpenSans-Light.ttf
  4

  0
STYLE
  5
42
330
5
100
AcDbSymbolTableRecord
100
AcDbTextStyleTableRecord
  2
OpenSans-Light-Italic
 70
0
 40
0.0
 41
1.0
 50
0.0
 71
0
 42
2.5
  3
OpenSans-LightItalic.ttf
  4

  0
STYLE
  5
43
330
5
100
AcDbSymbolTableRecord
100
AcDbTextStyleTableRecord
  2
OpenSans
 70
0
 40
0.0
 41
1.0
 50
0.0
 71
0
 42
2.5
  3
OpenSans-Regular.ttf
  4

  0
STYLE
  5
44
330
5
100
AcDbSymbolTableRecord
100
AcDbTextStyleTableRecord
  2
OpenSans-Italic
 70
0
 40
0.0
 41
1.0
 50
0.0
 71
0
 42
2.5
  3
OpenSans-Italic.ttf
  4

  0
STYLE
  5
45
330
5
100
AcDbSymbolTableRecord
100
AcDbTextStyleTableRecord
  2
OpenSans-SemiBold
 70
0
 40
0.0
 41
1.0
 50
0.0
 71
0
 42
2.5
  3
OpenSans-SemiBold.ttf
  4

  0
STYLE
  5
46
330
5
100
AcDbSymbolTableRecord
100
AcDbTextStyleTableRecord
  2
OpenSans-SemiBoldItalic
 70
0
 40
0.0
 41
1.0
 50
0.0
 71
0
 42
2.5
  3
OpenSans-SemiBoldItalic.ttf
  4

  0
STYLE
  5
47
330
5
100
AcDbSymbolTableRecord
100
AcDbTextStyleTableRecord
  2
OpenSans-Bold
 70
0
 40
0.0
 41
1.0
 50
0.0
 71
0
 42
2.5
  3
OpenSans-Bold.ttf
  4

  0
STYLE
  5
48
330
5
100
AcDbSymbolTableRecord
100
AcDbTextStyleTableRecord
  2
OpenSans-BoldItalic
 70
0
 40
0.0
 41
1.0
 50
0.0
 71
0
 42
2.5
  3
OpenSans-BoldItalic.ttf
  4

  0
STYLE
  5
49
330
5
100
AcDbSymbolTableRecord
100
AcDbTextStyleTableRecord
  2
OpenSans-ExtraBold
 70
0
 40
0.0
 41
1.0
 50
0.0
 71
0
 42
2.5
  3
OpenSans-ExtraBold.ttf
  4

  0
STYLE
  5
4A
330
5
100
AcDbSymbolTableRecord
100
AcDbTextStyleTableRecord
  2
OpenSans-ExtraBoldItalic
 70
0
 40
0.0
 41
1.0
 50
0.0
 71
0
 42
2.5
  3
OpenSans-ExtraBoldItalic.ttf
  4

  0
STYLE
  5
4B
330
5
100
AcDbSymbolTableRecord
100
AcDbTextStyleTableRecord
  2
OpenSansCondensed-Bold
 70
0
 40
0.0
 41
1.0
 50
0.0
 71
0
 42
2.5
  3
OpenSansCondensed-Bold.ttf
  4

  0
STYLE
  5
4C
330
5
100
AcDbSymbolTableRecord
100
AcDbTextStyleTableRecord
  2
OpenSansCondensed-Light
 70
0
 40
0.0
 41
1.0
 50
0.0
 71
0
 42
2.5
  3
OpenSansCondensed-Light.ttf
  4

  0
STYLE
  5
4D
330
5
100
AcDbSymbolTableRecord
100
AcDbTextStyleTableRecord
  2
OpenSansCondensed-Italic
 70
0
 40
0.0
 41
1.0
 50
0.0
 71
0
 42
2.5
  3
OpenSansCondensed-LightItalic.ttf
  4

  0
STYLE
  5
4E
330
5
100
AcDbSymbolTableRecord
100
AcDbTextStyleTableRecord
  2
LiberationSans
 70
0
 40
0.0
 41
1.0
 50
0.0
 71
0
 42
2.5
  3
LiberationSans-Regular.ttf
  4

  0
STYLE
  5
4F
330
5
100
AcDbSymbolTableRecord
100
AcDbTextStyleTableRecord
  2
LiberationSans-Bold
 70
0
 40
0.0
 41
1.0
 50
0.0
 71
0
 42
2.5
  3
LiberationSans-Bold.ttf
  4

  0
STYLE
  5
50
330
5
100
AcDbSymbolTableRecord
100
AcDbTextStyleTableRecord
  2
LiberationSans-BoldItalic
 70
0
 40
0.0
 41
1.0
 50
0.0
 71
0
 42
2.5
  3
LiberationSans-BoldItalic.ttf
  4

  0
STYLE
  5
51
330
5
100
AcDbSymbolTableRecord
100
AcDbTextStyleTableRecord
  2
LiberationSans-Italic
 70
0
 40
0.0
 41
1.0
 50
0.0
 71
0
 42
2.5
  3
LiberationSans-Italic.ttf
  4

  0
STYLE
  5
52
330
5
100
AcDbSymbolTableRecord
100
AcDbTextStyleTableRecord
  2
LiberationSerif
 70
0
 40
0.0
 41
1.0
 50
0.0
 71
0
 42
2.5
  3
LiberationSerif-Regular.ttf
  4

  0
STYLE
  5
53
330
5
100
AcDbSymbolTableRecord
100
AcDbTextStyleTableRecord
  2
LiberationSerif-Bold
 70
0
 40
0.0
 41
1.0
 50
0.0
 71
0
 42
2.5
  3
LiberationSerif-Bold.ttf
  4

  0
STYLE
  5
54
330
5
100
AcDbSymbolTableRecord
100
AcDbTextStyleTableRecord
  2
LiberationSerif-BoldItalic
 70
0
 40
0.0
 41
1.0
 50
0.0
 71
0
 42
2.5
  3
LiberationSerif-BoldItalic.ttf
  4

  0
STYLE
  5
55
330
5
100
AcDbSymbolTableRecord
100
AcDbTextStyleTableRecord
  2
LiberationSerif-Italic
 70
0
 40
0.0
 41
1.0
 50
0.0
 71
0
 42
2.5
  3
LiberationSerif-Italic.ttf
  4

  0
STYLE
  5
56
330
5
100
AcDbSymbolTableRecord
100
AcDbTextStyleTableRecord
  2
LiberationMono
 70
0
 40
0.0
 41
1.0
 50
0.0
 71
0
 42
2.5
  3
LiberationMono-Regular.ttf
  4

  0
STYLE
  5
57
330
5
100
AcDbSymbolTableRecord
100
AcDbTextStyleTableRecord
  2
LiberationMono-Bold
 70
0
 40
0.0
 41
1.0
 50
0.0
 71
0
 42
2.5
  3
LiberationMono-Bold.ttf
  4

  0
STYLE
  5
58
330
5
100
AcDbSymbolTableRecord
100
AcDbTextStyleTableRecord
  2
LiberationMono-BoldItalic
 70
0
 40
0.0
 41
1.0
 50
0.0
 71
0
 42
2.5
  3
LiberationMono-BoldItalic.ttf
  4

  0
STYLE
  5
59
330
5
100
AcDbSymbolTableRecord
100
AcDbTextStyleTableRecord
  2
LiberationMono-Italic
 70
0
 40
0.0
 41
1.0
 50
0.0
 71
0
 42
2.5
  3
LiberationMono-Italic.ttf
  4

  0
ENDTAB
  0
TABLE
  2
VIEW
  5
7
330
0
100
AcDbSymbolTable
 70
0
  0
ENDTAB
  0
TABLE
  2
UCS
  5
6
330
0
100
AcDbSymbolTable
 70
0
  0
ENDTAB
  0
TABLE
  2
APPID
  5
3
330
0
100
AcDbSymbolTable
 70
3
  0
APPID
  5
2A
330
3
100
AcDbSymbolTableRecord
100
AcDbRegAppTableRecord
  2
ACAD
 70
0
  0
APPID
  5
A7
330
3
100
AcDbSymbolTableRecord
100
AcDbRegAppTableRecord
  2
HATCHBACKGROUNDCOLOR
 70
0
  0
APPID
  5
A8
330
3
100
AcDbSymbolTableRecord
100
AcDbRegAppTableRecord
  2
EZDXF
 70
0
  0
ENDTAB
  0
TABLE
  2
DIMSTYLE
  5
4
330
0
100
AcDbSymbolTable
 70
12
100
AcDbDimStyleTable
  0
DIMSTYLE
105
2B
330
4
100
AcDbSymbolTableRecord
100
AcDbDimStyleTableRecord
  2
Standard
 70
0
 40
1.0
 41
2.5
 42
0.625
 43
3.75
 44
1.25
 45
0.0
 46
0.0
 47
0.0
 48
0.0
 49
2.5
140
2.5
141
2.5
142
0.0
143
0.03937007874
144
1.0
145
0.0
146
1.0
147
0.625
148
0.0
 69
0
 70
0
 71
0
 72
0
 73
0
 74
0
 75
0
 76
0
 77
1
 78
8
 79
3
170
0
171
3
172
1
173
0
174
0
175
0
176
0
177
0
178
0
179
2
271
2
272
2
273
2
274
3
275
0
276
0
277
2
278
44
279
0
280
0
281
0
282
0
283
0
284
8
285
0
286
0
288
0
289
3
290
0
371
-2
372
-2
  0
DIMSTYLE
105
73
330
4
100
AcDbSymbolTableRecord
100
AcDbDimStyleTableRecord
  2
EZDXF
 70
0
 40
1.0
 41
0.175
 42
0.125
 43
3.75
 44
0.375
 45
0.0
 46
0.0
 47
0.0
 48
0.0
 49
2.5
140
0.25
141
2.5
142
0.0
143
0.03937007874
144
100.0
145
0.0
146
0.5
147
0.1
148
0.0
 69
0
 70
0
 71
0
 72
0
 73
0
 74
0
 75
0
 76
0
 77
1
 78
12
 79
3
170
0
171
3
172
1
173
0
174
0
175
0
176
0
177
0
178
0
179
2
271
2
272
2
273
2
274
3
275
0
276
0
277
2
278
46
279
2
280
0
281
0
282
0
283
0
284
8
285
0
286
0
288
1
289
3
290
0
340
4C
342
74
371
-2
372
-2
  0
DIMSTYLE
105
7C
330
4
100
AcDbSymbolTableRecord
100
AcDbDimStyleTableRecord
  2
EZ_M_100_H25_CM
 70
0
 40
1.0
 41
0.25
 42
0.125
 43
3.75
 44
0.375
 45
0.0
 46
0.0
 47
0.0
 48
0.0
 49
2.5
140
0.25
141
2.5
142
0.125
143
0.03937007874
144
100.0
145
0.0
146
0.5
147
0.1
148
0.0
 69
0
 70
0
 71
0
 72
0
 73
0
 74
0
 75
0
 76
0
 77
1
 78
12
 79
3
170
0
171
3
172
1
173
0
174
0
175
0
176
0
177
0
178
0
179
2
271
2
272
2
273
2
274
3
275
0
276
0
277
2
278
46
279
2
280
0
281
0
282
0
283
0
284
8
285
0
286
0
288
1
289
3
290
0
340
4C
371
-2
372
-2
  0
DIMSTYLE
105
7D
330
4
100
AcDbSymbolTableRecord
100
AcDbDimStyleTableRecord
  2
EZ_M_50_H25_CM
 70
0
 40
1.0
 41
0.125
 42
0.0625
 43
3.75
 44
0.1875
 45
0.0
 46
0.0
 47
0.0
 48
0.0
 49
2.5
140
0.125
141
2.5
142
0.0625
143
0.03937007874
144
100.0
145
0.0
146
0.5
147
0.05
148
0.0
 69
0
 70
0
 71
0
 72
0
 73
0
 74
0
 75
0
 76
0
 77
1
 78
12
 79
3
170
0
171
3
172
1
173
0
174
0
175
0
176
0
177
0
178
0
179
2
271
2
272
2
273
2
274
3
275
0
276
0
277
2
278
46
279
2
280
0
281
0
282
0
283
0
284
8
285
0
286
0
288
1
289
3
290
0
340
4C
371
-2
372
-2
  0
DIMSTYLE
105
7E
330
4
100
AcDbSymbolTableRecord
100
AcDbDimStyleTableRecord
  2
EZ_M_25_H25_CM
 70
0
 40
1.0
 41
0.0625
 42
0.03125
 43
3.75
 44
0.09375
 45
0.0
 46
0.0
 47
0.0
 48
0.0
 49
2.5
140
0.0625
141
2.5
142
0.03125
143
0.03937007874
144
100.0
145
0.0
146
0.5
147
0.025
148
0.0
 69
0
 70
0
 71
0
 72
0
 73
0
 74
0
 75
0
 76
0
 77
1
 78
12
 79
3
170
0
171
3
172
1
173
0
174
0
175
0
176
0
177
0
178
0
179
2
271
2
272
2
273
2
274
3
275
0
276
0
277
2
278
46
279
2
280
0
281
0
282
0
283
0
284
8
285
0
286
0
288
1
289
3
290
0
340
4C
371
-2
372
-2
  0
DIMSTYLE
105
7F
330
4
100
AcDbSymbolTableRecord
100
AcDbDimStyleTableRecord
  2
EZ_M_20_H25_CM
 70
0
 40
1.0
 41
0.05
 42
0.025
 43
3.75
 44
0.07500000000000001
 45
0.0
 46
0.0
 47
0.0
 48
0.0
 49
2.5
140
0.05
141
2.5
142
0.025
143
0.03937007874
144
100.0
145
0.0
146
0.5
147
0.020000000000000004
148
0.0
 69
0
 70
0
 71
0
 72
0
 73
0
 74
0
 75
0
 76
0
 77
1
 78
12
 79
3
170
0
171
3
172
1
173
0
174
0
175
0
176
0
177
0
178
0
179
2
271
2
272
2
273
2
274
3
275
0
276
0
277
2
278
46
279
2
280
0
281
0
282
0
283
0
284
8
285
0
286
0
288
1
289
3
290
0
340
4C
371
-2
372
-2
  0
DIMSTYLE
105
80
330
4
100
AcDbSymbolTableRecord
100
AcDbDimStyleTableRecord
  2
EZ_M_10_H25_CM
 70
0
 40
1.0
 41
0.025
 42
0.0125
 43
3.75
 44
0.037500000000000006
 45
0.0
 46
0.0
 47
0.0
 48
0.0
 49
2.5
140
0.025
141
2.5
142
0.0125
143
0.03937007874
144
100.0
145
0.0
146
0.5
147
0.010000000000000002
148
0.0
 69
0
 70
0
 71
0
 72
0
 73
0
 74
0
 75
0
 76
0
 77
1
 78
12
 79
3
170
0
171
3
172
1
173
0
174
0
175
0
176
0
177
0
178
0
179
2
271
2
272
2
273
2
274
3
275
0
276
0
277
2
278
46
279
2
280
0
281
0
282
0
283
0
284
8
285
0
286
0
288
1
289
3
290
0
340
4C
371
-2
372
-2
  0
DIMSTYLE
105
81
330
4
100
AcDbSymbolTableRecord
100
AcDbDimStyleTableRecord
  2
EZ_M_5_H25_CM
 70
0
 40
1.0
 41
0.0125
 42
0.00625
 43
3.75
 44
0.018750000000000003
 45
0.0
 46
0.0
 47
0.0
 48
0.0
 49
2.5
140
0.0125
141
2.5
142
0.00625
143
0.03937007874
144
100.0
145
0.0
146
0.5
147
0.005000000000000001
148
0.0
 69
0
 70
0
 71
0
 72
0
 73
0
 74
0
 75
0
 76
0
 77
1
 78
12
 79
3
170
0
171
3
172
1
173
0
174
0
175
0
176
0
177
0
178
0
179
2
271
2
272
2
273
2
274
3
275
0
276
0
277
2
278
46
279
2
280
0
281
0
282
0
283
0
284
8
285
0
286
0
288
1
289
3
290
0
340
4C
371
-2
372
-2
  0
DIMSTYLE
105
82
330
4
100
AcDbSymbolTableRecord
100
AcDbDimStyleTableRecord
  2
EZ_M_1_H25_CM
 70
0
 40
1.0
 41
0.0025
 42
0.00125
 43
3.75
 44
0.00375
 45
0.0
 46
0.0
 47
0.0
 48
0.0
 49
2.5
140
0.0025
141
2.5
142
0.00125
143
0.03937007874
144
100.0
145
0.0
146
0.5
147
0.001
148
0.0
 69
0
 70
0
 71
0
 72
0
 73
0
 74
0
 75
0
 76
0
 77
1
 78
12
 79
3
170
0
171
3
172
1
173
0
174
0
175
0
176
0
177
0
178
0
179
2
271
2
272
2
273
2
274
3
275
0
276
0
277
2
278
46
279
2
280
0
281
0
282
0
283
0
284
8
285
0
286
0
288
1
289
3
290
0
340
4C
371
-2
372
-2
  0
DIMSTYLE
105
83
330
4
100
AcDbSymbolTableRecord
100
AcDbDimStyleTableRecord
  2
EZ_RADIUS
 70
0
 40
1.0
 41
0.25
 42
0.125
 43
3.75
 44
0.375
 45
0.0
 46
0.0
 47
0.0
 48
0.0
 49
2.5
140
0.25
141
0.0
142
0.0
143
0.03937007874
144
100.0
145
0.0
146
0.5
147
0.1
148
0.0
 69
0
 70
0
 71
0
 72
0
 73
0
 74
0
 75
0
 76
0
 77
1
 78
12
 79
3
170
0
171
3
172
0
173
0
174
0
175
0
176
0
177
0
178
0
179
2
271
2
272
2
273
2
274
3
275
0
276
0
277
2
278
46
279
1
280
0
281
0
282
0
283
0
284
8
285
0
286
0
288
1
289
3
290
0
340
4C
342
84
371
-2
372
-2
  0
DIMSTYLE
105
88
330
4
100
AcDbSymbolTableRecord
100
AcDbDimStyleTableRecord
  2
EZ_RADIUS_INSIDE
 70
0
 40
1.0
 41
0.25
 42
0.125
 43
3.75
 44
0.375
 45
0.0
 46
0.0
 47
0.0
 48
0.0
 49
2.5
140
0.25
141
0.0
142
0.0
143
0.03937007874
144
100.0
145
0.0
146
0.5
147
0.1
148
0.0
 69
0
 70
0
 71
0
 72
0
 73
0
 74
0
 75
0
 76
0
 77
0
 78
12
 79
3
170
0
171
3
172
0
173
0
174
1
175
0
176
0
177
0
178
0
179
2
271
2
272
2
273
2
274
3
275
0
276
0
277
2
278
46
279
0
280
0
281
0
282
0
283
0
284
8
285
0
286
0
288
1
289
0
290
0
340
4C
342
84
371
-2
372
-2
  0
DIMSTYLE
105
89
330
4
100
AcDbSymbolTableRecord
100
AcDbDimStyleTableRecord
  2
EZ_CURVED
 70
0
 40
1.0
 41
0.25
 42
0.125
 43
3.75
 44
0.375
 45
0.0
 46
0.0
 47
0.0
 48
0.0
 49
2.5
140
0.25
141
2.5
142
0.0
143
0.03937007874
144
100.0
145
0.0
146
0.5
147
0.1
148
0.0
 69
0
 70
0
 71
0
 72
0
 73
0
 74
0
 75
0
 76
0
 77
1
 78
12
 79
2
 90
2
170
0
171
3
172
1
173
0
174
0
175
0
176
0
177
0
178
0
179
2
271
2
272
2
273
2
274
3
275
0
276
0
277
2
278
46
279
2
280
0
281
0
282
0
283
0
284
8
285
0
286
0
288
1
289
3
290
0
340
4C
371
-2
372
-2
  0
ENDTAB
  0
TABLE
  2
BLOCK_RECORD
  5
9
330
0
100
AcDbSymbolTable
 70
5
  0
BLOCK_RECORD
  5
17
330
9
100
AcDbSymbolTableRecord
100
AcDbBlockTableRecord
  2
*Model_Space
340
1A
 70
0
280
1
281
0
  0
BLOCK_RECORD
  5
1B
330
9
100
AcDbSymbolTableRecord
100
AcDbBlockTableRecord
  2
*Paper_Space
340
1E
 70
0
280
1
281
0
  0
BLOCK_RECORD
  5
74
330
9
100
AcDbSymbolTableRecord
100
AcDbBlockTableRecord
  2
_ARCHTICK
340
0
 70
0
280
1
281
0
  0
BLOCK_RECORD
  5
78
330
9
100
AcDbSymbolTableRecord
100
AcDbBlockTableRecord
  2
_CLOSEDFILLED
340
0
 70
0
280
1
281
0
  0
BLOCK_RECORD
  5
84
330
9
100
AcDbSymbolTableRecord
100
AcDbBlockTableRecord
  2
_CLOSEDBLANK
340
0
 70
0
280
1
281
0
  0
ENDTAB
  0
ENDSEC
  0
SECTION
  2
BLOCKS
  0
BLOCK
  5
18
330
17
100
AcDbEntity
  8
0
100
AcDbBlockBegin
  2
*Model_Space
 70
0
 10
0.0
 20
0.0
 30
0.0
  3
*Model_Space
  1

  0
ENDBLK
  5
19
330
17
100
AcDbEntity
  8
0
100
AcDbBlockEnd
  0
BLOCK
  5
1C
330
1B
100
AcDbEntity
  8
0
100
AcDbBlockBegin
  2
*Paper_Space
 70
0
 10
0.0
 20
0.0
 30
0.0
  3
*Paper_Space
  1

  0
ENDBLK
  5
1D
330
1B
100
AcDbEntity
  8
0
100
AcDbBlockEnd
  0
BLOCK
  5
75
330
74
100
AcDbEntity
  8
0
100
AcDbBlockBegin
  2
_ARCHTICK
 70
0
 10
0.0
 20
0.0
 30
0.0
  3
_ARCHTICK
  1

  0
LWPOLYLINE
  5
77
330
74
100
AcDbEntity
  8
0
  6
BYBLOCK
 62
0
100
AcDbPolyline
 90
2
 70
0
 43
0.15
 10
-0.5
 20
-0.5
 10
0.5
 20
0.5
  0
ENDBLK
  5
76
330
74
100
AcDbEntity
  8
0
100
AcDbBlockEnd
  0
BLOCK
  5
79
330
78
100
AcDbEntity
  8
0
100
AcDbBlockBegin
  2
_CLOSEDFILLED
 70
0
 10
0.0
 20
0.0
 30
0.0
  3
_CLOSEDFILLED
  1

  0
SOLID
  5
7B
330
78
100
AcDbEntity
  8
0
  6
BYBLOCK
 62
0
100
AcDbTrace
 10
-1.0
 20
0.16439898372402537
 30
0.0
 11
0.0
 21
0.0
 31
0.0
 12
-1.0
 22
-0.16439898372402537
 32
0.0
 13
-1.0
 23
-0.16439898372402537
 33
0.0
  0
ENDBLK
  5
7A
330
78
100
AcDbEntity
  8
0
100
AcDbBlockEnd
  0
BLOCK
  5
85
330
84
100
AcDbEntity
  8
0
100
AcDbBlockBegin
  2
_CLOSEDBLANK
 70
0
 10
0.0
 20
0.0
 30
0.0
  3
_CLOSEDBLANK
  1

  0
LWPOLYLINE
  5
87
330
84
100
AcDbEntity
  8
0
  6
BYBLOCK
 62
0
100
AcDbPolyline
 90
3
 70
1
 10
-1.0
 20
0.16439898372402537
 10
0.0
 20
0.0
 10
-1.0
 20
-0.16439898372402537
  0
ENDBLK
  5
86
330
84
100
AcDbEntity
  8
0
100
AcDbBlockEnd
  0
ENDSEC
  0
SECTION
  2
ENTITIES
  0
LWPOLYLINE
  5
8C
330
17
100
AcDbEntity
  8
CUT
100
AcDbPolyline
 90
240
 70
1
 10
1246.0
 20
509.0
 10
1245.9881
 20
525.3135
 10
1245.9251
 20
541.6461
 10
1245.7697
 20
558.013
 10
1245.4798
 20
574.4253
 10
1245.0119
 20
590.8894
 10
1244.3215
 20
607.4077
 10
1243.3621
 20
623.9773
 10
1242.0864
 20
640.5909
 10
1240.4453
 20
657.2355
 10
1238.3891
 20
673.893
 10
1235.8677
 20
690.5397
 10
1232.8313
 20
707.1462
 10
1229.2312
 20
723.6777
 10
1225.0209
 20
740.0942
 10
1220.1574
 20
756.3507
 10
1214.6019
 20
772.3981
 10
1208.322
 20
788.1843
 10
1201.292
 20
803.6545
 10
1193.4949
 20
818.7535
 10
1184.9227
 20
833.4262
 10
1175.5775
 20
847.6199
 10
1165.4716
 20
861.2852
 10
1154.6276
 20
874.3775
 10
1143.0778
 20
886.8586
 10
1130.8635
 20
898.6974
 10
1118.0337
 20
909.8703
 10
1104.6435
 20
920.3624
 10
1090.7529
 20
930.1666
 10
1076.4244
 20
939.2837
 10
1061.7222
 20
947.7222
 10
1046.7096
 20
955.4968
 10
1031.4485
 20
962.628
 10
1015.9975999999999
 20
969.1411
 10
1000.4119000000001
 20
975.0649
 10
984.7416000000001
 20
980.4308000000001
 10
969.032
 20
985.2722000000001
 10
953.3232
 20
989.6232
 10
937.6498
 20
993.5182
 10
922.0415
 20
996.9912999999999
 10
906.5227
 20
1000.0758000000001
 10
891.1135
 20
1002.8036
 10
875.8293
 20
1005.2054
 10
860.6818
 20
1007.3101999999999
 10
845.679
 20
1009.1452999999999
 10
830.8259
 20
1010.7362
 10
816.1245
 20
1012.1066000000001
 10
801.5744
 20
1013.2786000000001
 10
787.1731
 20
1014.2728
 10
772.916
 20
1015.1078
 10
758.797
 20
1015.8013000000001
 10
744.8086
 20
1016.3694
 10
730.9419
 20
1016.8269
 10
717.187
 20
1017.1877999999999
 10
703.5329
 20
1017.4649
 10
689.9677
 20
1017.6703
 10
676.4786
 20
1017.8153
 10
663.0521
 20
1017.9106999999999
 10
649.6738
 20
1017.9667
 10
636.3285
 20
1017.9933000000001
 10
623.0
 20
1018.0
 10
609.6715
 20
1017.9933000000001
 10
596.3262
 20
1017.9667
 10
582.9479
 20
1017.9106999999999
 10
569.5214
 20
1017.8153
 10
556.0323
 20
1017.6703
 10
542.4671
 20
1017.4649
 10
528.813
 20
1017.1877999999999
 10
515.0581
 20
1016.8269
 10
501.19140000000004
 20
1016.3694
 10
487.203
 20
1015.8013000000001
 10
473.08399999999995
 20
1015.1078
 10
458.8269
 20
1014.2728
 10
444.4256
 20
1013.2786000000001
 10
429.8755
 20
1012.1066000000001
 10
415.1741
 20
1010.7362
 10
400.321
 20
1009.1452999999999
 10
385.3182
 20
1007.3101999999999
 10
370.1707
 20
1005.2054
 10
354.8865
 20
1002.8036
 10
339.4773
 20
1000.0758000000001
 10
323.9585
 20
996.9912999999999
 10
308.3502
 20
993.5182
 10
292.6768
 20
989.6232
 10
276.968
 20
985.2722000000001
 10
261.2584
 20
980.4308000000001
 10
245.5881
 20
975.0649
 10
230.00240000000002
 20
969.1411
 10
214.55149999999998
 20
962.628
 10
199.2904
 20
955.4968
 10
184.2778
 20
947.7222
 10
169.5756
 20
939.2837
 10
155.2471
 20
930.1666
 10
141.3565
 20
920.3624
 10
127.96629999999999
 20
909.8703
 10
115.13650000000001
 20
898.6974
 10
102.9222
 20
886.8586
 10
91.3724
 20
874.3775
 10
80.5284
 20
861.2852
 10
70.4225
 20
847.6199
 10
61.077299999999994
 20
833.4262
 10
52.5051
 20
818.7535
 10
44.708
 20
803.6545
 10
37.678
 20
788.1843
 10
31.3981
 20
772.3981
 10
25.842600000000004
 20
756.3507
 10
20.979100000000003
 20
740.0942
 10
16.7688
 20
723.6777
 10
13.168700000000001
 20
707.1462
 10
10.1323
 20
690.5397
 10
7.610900000000001
 20
673.893
 10
5.554699999999997
 20
657.2355
 10
3.9136000000000024
 20
640.5909
 10
2.637900000000002
 20
623.9773
 10
1.6784999999999997
 20
607.4077
 10
0.9881000000000029
 20
590.8894
 10
0.5202000000000027
 20
574.4253
 10
0.23029999999999973
 20
558.013
 10
0.07489999999999952
 20
541.6461
 10
0.011899999999997135
 20
525.3135
 10
0.0
 20
509.0
 10
0.011899999999997135
 20
492.6865
 10
0.07489999999999952
 20
476.35389999999995
 10
0.23029999999999973
 20
459.987
 10
0.5202000000000027
 20
443.5747
 10
0.9881000000000029
 20
427.1106
 10
1.6784999999999997
 20
410.5923
 10
2.637900000000002
 20
394.0227
 10
3.9136000000000024
 20
377.4091
 10
5.554699999999997
 20
360.7645
 10
7.610900000000001
 20
344.107
 10
10.1323
 20
327.4603
 10
13.168700000000001
 20
310.8538
 10
16.7688
 20
294.3223
 10
20.979100000000003
 20
277.9058
 10
25.842600000000004
 20
261.6493
 10
31.3981
 20
245.6019
 10
37.678
 20
229.8157
 10
44.708
 20
214.34550000000002
 10
52.5051
 20
199.2465
 10
61.077299999999994
 20
184.5738
 10
70.4225
 20
170.3801
 10
80.5284
 20
156.7148
 10
91.3724
 20
143.6225
 10
102.9222
 20
131.1414
 10
115.13650000000001
 20
119.30260000000001
 10
127.96629999999999
 20
108.12970000000001
 10
141.3565
 20
97.63759999999999
 10
155.2471
 20
87.83340000000001
 10
169.5756
 20
78.7163
 10
184.2778
 20
70.2778
 10
199.2904
 20
62.50320000000001
 10
214.55149999999998
 20
55.372
 10
230.00240000000002
 20
48.858900000000006
 10
245.5881
 20
42.935100000000006
 10
261.2584
 20
37.569199999999995
 10
276.968
 20
32.7278
 10
292.6768
 20
28.376800000000003
 10
308.3502
 20
24.481800000000007
 10
323.9585
 20
21.008700000000005
 10
339.4773
 20
17.9242
 10
354.8865
 20
15.196399999999997
 10
370.1707
 20
12.794600000000003
 10
385.3182
 20
10.689799999999998
 10
400.321
 20
8.854700000000001
 10
415.1741
 20
7.263800000000003
 10
429.8755
 20
5.8934
 10
444.4256
 20
4.721400000000003
 10
458.8269
 20
3.7272000000000034
 10
473.08399999999995
 20
2.8922000000000025
 10
487.203
 20
2.1987000000000023
 10
501.19140000000004
 20
1.6306000000000012
 10
515.0581
 20
1.173099999999998
 10
528.813
 20
0.8121999999999971
 10
542.4671
 20
0.5350999999999999
 10
556.0323
 20
0.32970000000000255
 10
569.5214
 20
0.18469999999999942
 10
582.9479
 20
0.08930000000000149
 10
596.3262
 20
0.033299999999997
 10
609.6715
 20
0.006700000000002149
 10
623.0
 20
0.0
 10
636.3285
 20
0.006700000000002149
 10
649.6738
 20
0.033299999999997
 10
663.0521
 20
0.08930000000000149
 10
676.4786
 20
0.18469999999999942
 10
689.9677
 20
0.32970000000000255
 10
703.5329
 20
0.5350999999999999
 10
717.187
 20
0.8121999999999971
 10
730.9419
 20
1.173099999999998
 10
744.8086
 20
1.6306000000000012
 10
758.797
 20
2.1987000000000023
 10
772.916
 20
2.8922000000000025
 10
787.1731
 20
3.7272000000000034
 10
801.5744
 20
4.721400000000003
 10
816.1245
 20
5.8934
 10
830.8259
 20
7.263800000000003
 10
845.679
 20
8.854700000000001
 10
860.6818
 20
10.689799999999998
 10
875.8293
 20
12.794600000000003
 10
891.1135
 20
15.196399999999997
 10
906.5227
 20
17.9242
 10
922.0415
 20
21.008700000000005
 10
937.6498
 20
24.481800000000007
 10
953.3232
 20
28.376800000000003
 10
969.032
 20
32.7278
 10
984.7416000000001
 20
37.569199999999995
 10
1000.4119000000001
 20
42.935100000000006
 10
1015.9975999999999
 20
48.858900000000006
 10
1031.4485
 20
55.372
 10
1046.7096
 20
62.50320000000001
 10
1061.7222
 20
70.2778
 10
1076.4244
 20
78.7163
 10
1090.7529
 20
87.83340000000001
 10
1104.6435
 20
97.63759999999999
 10
1118.0337
 20
108.12970000000001
 10
1130.8635
 20
119.30260000000001
 10
1143.0778
 20
131.1414
 10
1154.6276
 20
143.6225
 10
1165.4716
 20
156.7148
 10
1175.5775
 20
170.3801
 10
1184.9227
 20
184.5738
 10
1193.4949
 20
199.2465
 10
1201.292
 20
214.34550000000002
 10
1208.322
 20
229.8157
 10
1214.6019
 20
245.6019
 10
1220.1574
 20
261.6493
 10
1225.0209
 20
277.9058
 10
1229.2312
 20
294.3223
 10
1232.8313
 20
310.8538
 10
1235.8677
 20
327.4603
 10
1238.3891
 20
344.107
 10
1240.4453
 20
360.7645
 10
1242.0864
 20
377.4091
 10
1243.3621
 20
394.0227
 10
1244.3215
 20
410.5923
 10
1245.0119
 20
427.1106
 10
1245.4798
 20
443.5747
 10
1245.7697
 20
459.987
 10
1245.9251
 20
476.35389999999995
 10
1245.9881
 20
492.6865
  0
LWPOLYLINE
  5
8D
330
17
100
AcDbEntity
  8
CUT
100
AcDbPolyline
 90
240
 70
1
 10
1056.0531838125985
 20
497.66010329339645
 10
1056.185453597178
 20
486.2977123592548
 10
1056.3553887005287
 20
474.89419124762253
 10
1056.5205950620793
 20
463.4351493840792
 10
1056.6374033250104
 20
451.9105528049494
 10
1056.6606727666833
 20
440.3148970530869
 10
1056.5437099599276
 20
428.6474228599527
 10
1056.2383144194241
 20
416.912353503291
 10
1055.6949653915703
 20
405.11912964857817
 10
1054.8631640493368
 20
393.2826139522308
 10
1053.6919432172608
 20
381.4232342476053
 10
1052.1305519392995
 20
369.5670314196233
 10
1050.1293143883988
 20
357.74557690276424
 10
1047.6406517246262
 20
345.995725988916
 10
1044.6202418615487
 20
334.35917764992206
 10
1041.0282765544473
 20
322.88182000787026
 10
1036.8307592404792
 20
311.6128531643883
 10
1032.0007726662138
 20
300.6036974636786
 10
1026.51963492815
 20
289.9067142997395
 10
1020.3778585323198
 20
279.57378640636784
 10
1013.5758313773413
 20
269.6548227035562
 10
1006.1241521129191
 20
260.19626648051235
 10
998.0435746511764
 20
251.23969249636372
 10
989.3645456847073
 20
242.8205768066971
 10
980.1263515122378
 20
234.967312366199
 10
970.37592210795
 20
227.7005247605893
 10
960.1663669986825
 20
221.03271815853861
 10
949.5553357495276
 20
214.96825500408642
 10
938.6033037642877
 20
209.5036475895381
 10
927.3718814752276
 20
204.62811852477233
 10
915.9222332329024
 20
200.3243723662527
 10
904.3136738831961
 20
196.56951319274373
 10
892.6024892484725
 20
193.33604244056573
 10
880.8410045466399
 20
190.5928766472132
 10
869.0769046627067
 20
188.30633417333405
 10
857.3527937900978
 20
186.4410516154001
 10
845.7059700767203
 20
184.96080279911644
 10
834.1683835887039
 20
183.82920464639608
 10
822.7667426482647
 20
183.01030397720666
 10
811.522733606211
 20
182.4690470122701
 10
800.4533214610145
 20
182.17163890316715
 10
789.5711025625876
 20
182.08580419708943
 10
778.8846851988432
 20
182.18096105049
 10
768.3990785864357
 20
182.4283226030759
 10
758.1160752768798
 20
182.800938571933
 10
748.034616001591
 20
183.27368914606677
 10
738.1511293923787
 20
183.82324191737666
 10
728.4598417945052
 20
184.42798107594444
 10
718.953054563574
 20
185.06791656856308
 10
709.6213878655651
 20
185.72457946358014
 10
700.4539911578971
 20
186.38090843742623
 10
691.4387212985423
 20
187.02113112467384
 10
682.5622896855577
 20
187.63064305980174
 10
673.8103800374735
 20
188.1958860771868
 10
665.1677384413078
 20
188.70422731011712
 10
656.618237163377
 20
189.14383931913937
 10
648.1449134711677
 20
189.50358136194745
 10
639.729984374446
 20
189.77288136763912
 10
631.3548377729707
 20
189.9416177736582
 10
622.9999999999999
 20
190.00000000000023
 10
614.6451622270292
 20
189.9416177736582
 10
606.2700156255539
 20
189.77288136763912
 10
597.8550865288325
 20
189.50358136194745
 10
589.3817628366229
 20
189.14383931913937
 10
580.8322615586922
 20
188.70422731011712
 10
572.1896199625264
 20
188.19588607718674
 10
563.4377103144421
 20
187.63064305980163
 10
554.5612787014576
 20
187.02113112467384
 10
545.546008842103
 20
186.38090843742617
 10
536.3786121344348
 20
185.72457946358008
 10
527.0469454364259
 20
185.06791656856308
 10
517.5401582054947
 20
184.4279810759445
 10
507.84887060762117
 20
183.82324191737672
 10
497.9653839984089
 20
183.27368914606683
 10
487.88392472312046
 20
182.80093857193305
 10
477.60092141356415
 20
182.42832260307586
 10
467.1153148011567
 20
182.18096105048994
 10
456.4288974374122
 20
182.08580419708943
 10
445.54667853898536
 20
182.17163890316715
 10
434.47726639378885
 20
182.46904701227004
 10
423.2332573517355
 20
183.01030397720666
 10
411.83161641129584
 20
183.82920464639602
 10
400.2940299232796
 20
184.9608027991165
 10
388.64720620990204
 20
186.44105161540017
 10
376.92309533729303
 20
188.3063341733341
 10
365.15899545335986
 20
190.5928766472132
 10
353.39751075152793
 20
193.3360424405658
 10
341.6863261168037
 20
196.56951319274384
 10
330.0777667670974
 20
200.3243723662527
 10
318.62811852477233
 20
204.6281185247724
 10
307.3966962357124
 20
209.50364758953816
 10
296.4446642504725
 20
214.96825500408642
 10
285.83363300131754
 20
221.03271815853861
 10
275.6240778920498
 20
227.7005247605893
 10
265.8736484877622
 20
234.9673123661991
 10
256.6354543152926
 20
242.82057680669726
 10
247.95642534882353
 20
251.23969249636372
 10
239.8758478870809
 20
260.19626648051224
 10
232.42416862265867
 20
269.6548227035562
 10
225.62214146768008
 20
279.573786406368
 10
219.4803650718501
 20
289.90671429973975
 10
213.99922733378605
 20
300.6036974636787
 10
209.1692407595208
 20
311.6128531643883
 10
204.97172344555275
 20
322.88182000787026
 10
201.37975813845122
 20
334.359177649922
 10
198.35934827537363
 20
345.99572598891615
 10
195.87068561160106
 20
357.7455769027644
 10
193.86944806070034
 20
369.5670314196234
 10
192.30805678273913
 20
381.42323424760525
 10
191.13683595066317
 20
393.2826139522307
 10
190.30503460842976
 20
405.1191296485781
 10
189.7616855805759
 20
416.9123535032912
 10
189.4562900400726
 20
428.6474228599529
 10
189.33932723331685
 20
440.31489705308707
 10
189.36259667498962
 20
451.9105528049496
 10
189.47940493792066
 20
463.4351493840791
 10
189.64461129947136
 20
474.89419124762253
 10
189.81454640282197
 20
486.2977123592551
 10
189.94681618740162
 20
497.66010329339656
 10
190.00000000000023
 20
509.0
 10
189.94681618740162
 20
520.3398967066036
 10
189.81454640282197
 20
531.702287640745
 10
189.64461129947136
 20
543.1058087523776
 10
189.47940493792066
 20
554.5648506159209
 10
189.36259667498956
 20
566.0894471950505
 10
189.33932723331674
 20
577.685102946913
 10
189.45629004007253
 20
589.3525771400473
 10
189.76168558057583
 20
601.0876464967088
 10
190.30503460842965
 20
612.880870351422
 10
191.13683595066323
 20
624.7173860477694
 10
192.30805678273913
 20
636.5767657523946
 10
193.8694480607004
 20
648.4329685803767
 10
195.87068561160112
 20
660.2544230972358
 10
198.35934827537363
 20
672.0042740110837
 10
201.37975813845128
 20
683.6408223500781
 10
204.9717234455528
 20
695.1181799921299
 10
209.16924075952073
 20
706.3871468356116
 10
213.999227333786
 20
717.3963025363214
 10
219.48036507185014
 20
728.0932857002604
 10
225.62214146767997
 20
738.4262135936319
 10
232.42416862265873
 20
748.3451772964439
 10
239.87584788708102
 20
757.8037335194878
 10
247.95642534882347
 20
766.7603075036363
 10
256.6354543152926
 20
775.1794231933029
 10
265.87364848776224
 20
783.0326876338011
 10
275.62407789204974
 20
790.2994752394106
 10
285.8336330013177
 20
796.9672818414614
 10
296.4446642504726
 20
803.0317449959136
 10
307.3966962357123
 20
808.4963524104619
 10
318.6281185247724
 20
813.3718814752276
 10
330.07776676709756
 20
817.6756276337474
 10
341.6863261168037
 20
821.4304868072561
 10
353.3975107515278
 20
824.6639575594343
 10
365.1589954533602
 20
827.4071233527869
 10
376.92309533729315
 20
829.6936658266659
 10
388.64720620990215
 20
831.5589483845998
 10
400.2940299232797
 20
833.0391972008836
 10
411.8316164112957
 20
834.170795353604
 10
423.23325735173546
 20
834.9896960227934
 10
434.47726639378925
 20
835.5309529877298
 10
445.5466785389854
 20
835.8283610968329
 10
456.4288974374124
 20
835.9141958029105
 10
467.11531480115684
 20
835.8190389495101
 10
477.60092141356404
 20
835.5716773969241
 10
487.88392472312034
 20
835.1990614280669
 10
497.96538399840904
 20
834.7263108539332
 10
507.8488706076213
 20
834.1767580826233
 10
517.5401582054948
 20
833.5720189240556
 10
527.0469454364259
 20
832.9320834314369
 10
536.3786121344347
 20
832.2754205364199
 10
545.546008842103
 20
831.6190915625739
 10
554.5612787014578
 20
830.9788688753263
 10
563.4377103144423
 20
830.3693569401983
 10
572.1896199625264
 20
829.8041139228133
 10
580.8322615586922
 20
829.2957726898828
 10
589.3817628366228
 20
828.8561606808605
 10
597.8550865288324
 20
828.4964186380525
 10
606.270015625554
 20
828.2271186323609
 10
614.6451622270293
 20
828.0583822263418
 10
623.0
 20
827.9999999999998
 10
631.3548377729707
 20
828.0583822263418
 10
639.7299843744461
 20
828.2271186323609
 10
648.1449134711676
 20
828.4964186380525
 10
656.6182371633772
 20
828.8561606808605
 10
665.167738441308
 20
829.2957726898828
 10
673.8103800374736
 20
829.8041139228133
 10
682.5622896855577
 20
830.3693569401983
 10
691.4387212985423
 20
830.9788688753262
 10
700.453991157897
 20
831.6190915625738
 10
709.6213878655653
 20
832.2754205364199
 10
718.9530545635741
 20
832.9320834314369
 10
728.4598417945053
 20
833.5720189240556
 10
738.1511293923787
 20
834.1767580826233
 10
748.034616001591
 20
834.7263108539332
 10
758.1160752768797
 20
835.1990614280669
 10
768.399078586436
 20
835.5716773969241
 10
778.8846851988434
 20
835.8190389495101
 10
789.5711025625877
 20
835.9141958029106
 10
800.4533214610146
 20
835.8283610968329
 10
811.522733606211
 20
835.53095298773
 10
822.7667426482647
 20
834.9896960227933
 10
834.1683835887042
 20
834.170795353604
 10
845.7059700767204
 20
833.0391972008836
 10
857.3527937900978
 20
831.5589483845998
 10
869.0769046627069
 20
829.6936658266659
 10
880.8410045466399
 20
827.4071233527868
 10
892.6024892484722
 20
824.6639575594343
 10
904.3136738831963
 20
821.4304868072561
 10
915.9222332329026
 20
817.6756276337474
 10
927.3718814752276
 20
813.3718814752276
 10
938.6033037642877
 20
808.4963524104619
 10
949.5553357495276
 20
803.0317449959136
 10
960.1663669986824
 20
796.9672818414615
 10
970.3759221079503
 20
790.2994752394106
 10
980.1263515122378
 20
783.0326876338008
 10
989.3645456847073
 20
775.1794231933028
 10
998.0435746511766
 20
766.7603075036363
 10
1006.1241521129191
 20
757.8037335194878
 10
1013.5758313773413
 20
748.3451772964439
 10
1020.37785853232
 20
738.4262135936319
 10
1026.51963492815
 20
728.0932857002603
 10
1032.0007726662138
 20
717.3963025363213
 10
1036.8307592404792
 20
706.3871468356117
 10
1041.0282765544473
 20
695.1181799921297
 10
1044.6202418615487
 20
683.640822350078
 10
1047.6406517246264
 20
672.0042740110838
 10
1050.129314388399
 20
660.2544230972355
 10
1052.1305519392995
 20
648.4329685803766
 10
1053.6919432172608
 20
636.5767657523946
 10
1054.8631640493368
 20
624.7173860477692
 10
1055.6949653915703
 20
612.880870351422
 10
1056.2383144194241
 20
601.0876464967088
 10
1056.5437099599274
 20
589.3525771400471
 10
1056.660672766683
 20
577.685102946913
 10
1056.6374033250104
 20
566.0894471950505
 10
1056.5205950620793
 20
554.5648506159208
 10
1056.3553887005287
 20
543.1058087523776
 10
1056.185453597178
 20
531.702287640745
 10
1056.0531838125985
 20
520.3398967066034
 10
1055.9999999999998
 20
509.0
  0
LWPOLYLINE
  5
8E
330
17
100
AcDbEntity
  8
CUT
100
AcDbPolyline
 90
8
 70
1
 10
1124.273800580905
 20
566.774391929039
 42
2.414213562373095
 10
1127.8539864780848
 20
564.0063115578008
 10
1162.1743009917202
 20
568.3967570574224
 42
2.414213562373095
 10
1164.9423813629585
 20
571.9769429546022
 10
1163.3435486087612
 20
584.4750921705504
 42
2.414213562373095
 10
1159.7633627115813
 20
587.2431725417886
 10
1125.443048197946
 20
582.852727042167
 42
2.414213562373095
 10
1122.6749678267076
 20
579.2725411449871
  0
LWPOLYLINE
  5
8F
330
17
100
AcDbEntity
  8
CUT
100
AcDbPolyline
 90
8
 70
1
 10
1110.488076685309
 20
694.1332432968409
 42
2.414213562373095
 10
1114.6378230417317
 20
692.327805627644
 10
1146.8330366802384
 20
705.0017244679602
 42
2.414213562373095
 10
1148.638474349435
 20
709.1514708243831
 10
1144.0231166214585
 20
720.8757393748219
 42
2.414213562373095
 10
1139.8733702650356
 20
722.6811770440188
 10
1107.678156626529
 20
710.0072582037026
 42
2.414213562373095
 10
1105.8727189573324
 20
705.8575118472797
  0
LWPOLYLINE
  5
90
330
17
100
AcDbEntity
  8
CUT
100
AcDbPolyline
 90
8
 70
1
 10
1049.8255253256089
 20
805.7689492473336
 42
2.414213562373095
 10
1054.2890096067124
 20
805.0224185565094
 10
1082.4556530486964
 20
825.1171989039565
 42
2.414213562373095
 10
1083.2021837395205
 20
829.5806831850599
 10
1075.8844313586583
 20
839.8379001610425
 42
2.414213562373095
 10
1071.4209470775547
 20
840.5844308518667
 10
1043.2543036355707
 20
820.4896505044196
 42
2.414213562373095
 10
1042.5077729447466
 20
816.0261662233162
  0
LWPOLYLINE
  5
91
330
17
100
AcDbEntity
  8
CUT
100
AcDbPolyline
 90
8
 70
1
 10
941.8333503917452
 20
873.190656825138
 42
2.414213562373095
 10
946.3446029772182
 20
873.5492654001365
 10
968.794834658847
 20
899.8769522989354
 42
2.414213562373095
 10
968.4362260838486
 20
904.3882048844085
 10
958.8486869241704
 20
912.5637227800306
 42
2.414213562373095
 10
954.3374343386973
 20
912.2051142050321
 10
931.8872026570685
 20
885.8774273062332
 42
2.414213562373095
 10
932.2458112320669
 20
881.3661747207601
  0
LWPOLYLINE
  5
92
330
17
100
AcDbEntity
  8
CUT
100
AcDbPolyline
 90
8
 70
1
 10
816.8125174498458
 20
898.8495695264871
 42
2.414213562373095
 10
821.0811870923018
 20
900.3523867088402
 10
836.0340769547323
 20
931.5544873554636
 42
2.414213562373095
 10
834.5312597723793
 20
935.8231569979196
 10
823.1686450860367
 20
941.2684290287468
 42
2.414213562373095
 10
818.8999754435807
 20
939.7656118463938
 10
803.9470855811502
 20
908.5635111997703
 42
2.414213562373095
 10
805.4499027635032
 20
904.2948415573144
  0
LWPOLYLINE
  5
93
330
17
100
AcDbEntity
  8
CUT
100
AcDbPolyline
 90
8
 70
1
 10
691.2345196418498
 20
903.5636136754475
 42
2.414213562373095
 10
694.8915297670766
 20
906.2293737816817
 10
700.2504751822545
 20
940.411850345517
 42
2.414213562373095
 10
697.5847150760203
 20
944.0688604707435
 10
685.1367611828318
 20
946.020383945635
 42
2.414213562373095
 10
681.4797510576051
 20
943.3546238394008
 10
676.1208056424272
 20
909.1721472755655
 42
2.414213562373095
 10
678.7865657486614
 20
905.515137150339
  0
LWPOLYLINE
  5
94
330
17
100
AcDbEntity
  8
CUT
100
AcDbPolyline
 90
8
 70
1
 10
567.2134342513388
 20
905.5151371503391
 42
2.414213562373095
 10
569.8791943575729
 20
909.1721472755656
 10
564.520248942395
 20
943.3546238394009
 42
2.414213562373095
 10
560.8632388171683
 20
946.0203839456351
 10
548.4152849239798
 20
944.0688604707436
 42
2.414213562373095
 10
545.7495248177456
 20
940.4118503455171
 10
551.1084702329235
 20
906.2293737816818
 42
2.414213562373095
 10
554.7654803581503
 20
903.5636136754476
  0
LWPOLYLINE
  5
95
330
17
100
AcDbEntity
  8
CUT
100
AcDbPolyline
 90
8
 70
1
 10
440.5500972364968
 20
904.2948415573144
 42
2.414213562373095
 10
442.05291441884987
 20
908.5635111997703
 10
427.1000245564192
 20
939.7656118463938
 42
2.414213562373095
 10
422.83135491396337
 20
941.2684290287468
 10
411.4687402276207
 20
935.8231569979196
 42
2.414213562373095
 10
409.96592304526763
 20
931.5544873554636
 10
424.9188129076983
 20
900.3523867088402
 42
2.414213562373095
 10
429.18748255015413
 20
898.8495695264871
  0
LWPOLYLINE
  5
96
330
17
100
AcDbEntity
  8
CUT
100
AcDbPolyline
 90
8
 70
1
 10
313.7541887679333
 20
881.3661747207603
 42
2.414213562373095
 10
314.1127973429317
 20
885.8774273062335
 10
291.6625656613029
 20
912.2051142050324
 42
2.414213562373095
 10
287.1513130758298
 20
912.5637227800308
 10
277.56377391615155
 20
904.3882048844088
 42
2.414213562373095
 10
277.20516534115313
 20
899.8769522989356
 10
299.6553970227819
 20
873.5492654001367
 42
2.414213562373095
 10
304.166649608255
 20
873.1906568251383
  0
LWPOLYLINE
  5
97
330
17
100
AcDbEntity
  8
CUT
100
AcDbPolyline
 90
8
 70
1
 10
203.4922270552532
 20
816.026166223316
 42
2.414213562373095
 10
202.745696364429
 20
820.4896505044194
 10
174.57905292244513
 20
840.5844308518665
 42
2.414213562373095
 10
170.1155686413417
 20
839.8379001610423
 10
162.79781626047944
 20
829.5806831850597
 42
2.414213562373095
 10
163.54434695130365
 20
825.1171989039563
 10
191.71099039328752
 20
805.0224185565091
 42
2.414213562373095
 10
196.17447467439095
 20
805.7689492473334
  0
LWPOLYLINE
  5
98
330
17
100
AcDbEntity
  8
CUT
100
AcDbPolyline
 90
8
 70
1
 10
140.12728104266776
 20
705.8575118472797
 42
2.414213562373095
 10
138.32184337347095
 20
710.0072582037026
 10
106.12662973496438
 20
722.6811770440188
 42
2.414213562373095
 10
101.97688337854149
 20
720.8757393748219
 10
97.36152565056508
 20
709.1514708243831
 42
2.414213562373095
 10
99.16696331976189
 20
705.0017244679602
 10
131.36217695826846
 20
692.327805627644
 42
2.414213562373095
 10
135.51192331469136
 20
694.1332432968409
  0
LWPOLYLINE
  5
99
330
17
100
AcDbEntity
  8
CUT
100
AcDbPolyline
 90
8
 70
1
 10
123.3250321732923
 20
579.272541144987
 42
2.414213562373095
 10
120.55695180205402
 20
582.8527270421669
 10
86.23663728841865
 20
587.2431725417885
 42
2.414213562373095
 10
82.65645139123882
 20
584.4750921705503
 10
81.05761863704134
 20
571.9769429546021
 42
2.414213562373095
 10
83.82569900827963
 20
568.3967570574223
 10
118.146013521915
 20
564.0063115578007
 42
2.414213562373095
 10
121.72619941909483
 20
566.7743919290389
  0
LWPOLYLINE
  5
9A
330
17
100
AcDbEntity
  8
CUT
100
AcDbPolyline
 90
8
 70
1
 10
121.72619941909483
 20
451.22560807096096
 42
2.414213562373095
 10
118.146013521915
 20
453.99368844219924
 10
83.82569900827963
 20
449.60324294257765
 42
2.414213562373095
 10
81.05761863704134
 20
446.0230570453978
 10
82.65645139123882
 20
433.52490782944966
 42
2.414213562373095
 10
86.23663728841865
 20
430.7568274582114
 10
120.55695180205402
 20
435.14727295783297
 42
2.414213562373095
 10
123.3250321732923
 20
438.7274588550128
  0
LWPOLYLINE
  5
9B
330
17
100
AcDbEntity
  8
CUT
100
AcDbPolyline
 90
8
 70
1
 10
135.51192331469136
 20
323.866756703159
 42
2.414213562373095
 10
131.36217695826846
 20
325.6721943723558
 10
99.16696331976189
 20
312.9982755320397
 42
2.414213562373095
 10
97.36152565056508
 20
308.8485291756168
 10
101.97688337854149
 20
297.12426062517795
 42
2.414213562373095
 10
106.12662973496438
 20
295.31882295598115
 10
138.32184337347095
 20
307.99274179629725
 42
2.414213562373095
 10
140.12728104266776
 20
312.14248815272015
  0
LWPOLYLINE
  5
9C
330
17
100
AcDbEntity
  8
CUT
100
AcDbPolyline
 90
8
 70
1
 10
196.17447467439112
 20
212.23105075266653
 42
2.414213562373095
 10
191.7109903932877
 20
212.97758144349075
 10
163.54434695130382
 20
192.8828010960436
 42
2.414213562373095
 10
162.7978162604796
 20
188.41931681494015
 10
170.11556864134187
 20
178.1620998389576
 42
2.414213562373095
 10
174.5790529224453
 20
177.41556914813341
 10
202.74569636442916
 20
197.51034949558053
 42
2.414213562373095
 10
203.49222705525338
 20
201.973833776684
  0
LWPOLYLINE
  5
9D
330
17
100
AcDbEntity
  8
CUT
100
AcDbPolyline
 90
8
 70
1
 10
304.1666496082548
 20
144.80934317486194
 42
2.414213562373095
 10
299.65539702278164
 20
144.45073459986352
 10
277.20516534115285
 20
118.12304770106456
 42
2.414213562373095
 10
277.5637739161512
 20
113.61179511559149
 10
287.1513130758295
 20
105.43627721996941
 42
2.414213562373095
 10
291.6625656613026
 20
105.79488579496783
 10
314.1127973429314
 20
132.12257269376678
 42
2.414213562373095
 10
313.75418876793304
 20
136.63382527923986
  0
LWPOLYLINE
  5
9E
330
17
100
AcDbEntity
  8
CUT
100
AcDbPolyline
 90
8
 70
1
 10
429.187482550154
 20
119.1504304735129
 42
2.414213562373095
 10
424.91881290769817
 20
117.64761329115979
 10
409.9659230452675
 20
86.44551264453636
 42
2.414213562373095
 10
411.4687402276206
 20
82.17684300208049
 10
422.83135491396325
 20
76.73157097125315
 42
2.414213562373095
 10
427.1000245564191
 20
78.23438815360626
 10
442.05291441884975
 20
109.43648880022968
 42
2.414213562373095
 10
440.5500972364967
 20
113.70515844268553
  0
LWPOLYLINE
  5
9F
330
17
100
AcDbEntity
  8
CUT
100
AcDbPolyline
 90
8
 70
1
 10
554.7654803581504
 20
114.43638632455242
 42
2.414213562373095
 10
551.1084702329237
 20
111.77062621831823
 10
545.7495248177457
 20
77.58814965448299
 42
2.414213562373095
 10
548.4152849239799
 20
73.93113952925636
 10
560.8632388171684
 20
71.97961605436497
 42
2.414213562373095
 10
564.5202489423951
 20
74.64537616059916
 10
569.879194357573
 20
108.82785272443436
 42
2.414213562373095
 10
567.2134342513389
 20
112.484862849661
  0
LWPOLYLINE
  5
A0
330
17
100
AcDbEntity
  8
CUT
100
AcDbPolyline
 90
8
 70
1
 10
678.786565748661
 20
112.48486284966108
 42
2.414213562373095
 10
676.1208056424268
 20
108.82785272443445
 10
681.4797510576047
 20
74.64537616059921
 42
2.414213562373095
 10
685.1367611828315
 20
71.97961605436502
 10
697.58471507602
 20
73.93113952925641
 42
2.414213562373095
 10
700.2504751822541
 20
77.58814965448305
 10
694.8915297670762
 20
111.77062621831826
 42
2.414213562373095
 10
691.2345196418495
 20
114.43638632455244
  0
LWPOLYLINE
  5
A1
330
17
100
AcDbEntity
  8
CUT
100
AcDbPolyline
 90
8
 70
1
 10
805.4499027635031
 20
113.70515844268564
 42
2.414213562373095
 10
803.9470855811501
 20
109.43648880022974
 10
818.8999754435806
 20
78.23438815360632
 42
2.414213562373095
 10
823.1686450860366
 20
76.7315709712532
 10
834.5312597723791
 20
82.17684300208055
 42
2.414213562373095
 10
836.0340769547322
 20
86.44551264453642
 10
821.0811870923017
 20
117.64761329115984
 42
2.414213562373095
 10
816.8125174498457
 20
119.15043047351296
  0
LWPOLYLINE
  5
A2
330
17
100
AcDbEntity
  8
CUT
100
AcDbPolyline
 90
8
 70
1
 10
932.2458112320668
 20
136.63382527923974
 42
2.414213562373095
 10
931.8872026570684
 20
132.12257269376667
 10
954.3374343386972
 20
105.79488579496771
 42
2.414213562373095
 10
958.8486869241702
 20
105.4362772199693
 10
968.4362260838485
 20
113.61179511559138
 42
2.414213562373095
 10
968.7948346588469
 20
118.12304770106445
 10
946.3446029772181
 20
144.4507345998634
 42
2.414213562373095
 10
941.8333503917451
 20
144.80934317486182
  0
LWPOLYLINE
  5
A3
330
17
100
AcDbEntity
  8
CUT
100
AcDbPolyline
 90
8
 70
1
 10
1042.5077729447464
 20
201.97383377668382
 42
2.414213562373095
 10
1043.2543036355705
 20
197.51034949558039
 10
1071.4209470775545
 20
177.41556914813322
 42
2.414213562373095
 10
1075.884431358658
 20
178.16209983895743
 10
1083.2021837395203
 20
188.41931681493998
 42
2.414213562373095
 10
1082.4556530486961
 20
192.8828010960434
 10
1054.2890096067122
 20
212.97758144349058
 42
2.414213562373095
 10
1049.8255253256086
 20
212.23105075266636
  0
LWPOLYLINE
  5
A4
330
17
100
AcDbEntity
  8
CUT
100
AcDbPolyline
 90
8
 70
1
 10
1105.8727189573322
 20
312.14248815272003
 42
2.414213562373095
 10
1107.6781566265288
 20
307.9927417962971
 10
1139.8733702650354
 20
295.318822955981
 42
2.414213562373095
 10
1144.0231166214583
 20
297.1242606251777
 10
1148.6384743494348
 20
308.8485291756166
 42
2.414213562373095
 10
1146.8330366802381
 20
312.99827553203954
 10
1114.6378230417315
 20
325.67219437235565
 42
2.414213562373095
 10
1110.4880766853087
 20
323.8667567031589
  0
LWPOLYLINE
  5
A5
330
17
100
AcDbEntity
  8
CUT
100
AcDbPolyline
 90
8
 70
1
 10
1122.6749678267076
 20
438.7274588550126
 42
2.414213562373095
 10
1125.443048197946
 20
435.14727295783274
 10
1159.7633627115813
 20
430.75682745821115
 42
2.414213562373095
 10
1163.3435486087612
 20
433.5249078294494
 10
1164.9423813629585
 20
446.02305704539754
 42
2.414213562373095
 10
1162.1743009917202
 20
449.6032429425774
 10
1127.8539864780848
 20
453.993688442199
 42
2.414213562373095
 10
1124.273800580905
 20
451.2256080709608
  0
TEXT
  5
A6
330
17
100
AcDbEntity
  8
ENGRAVE-LABEL
100
AcDbText
 10
1138.6318350509998
 20
788.8798823313167
 30
0.0
 40
22.0
  1
02 SEAT-RING-L
 50
120.0
 72
1
 11
1138.6318350509998
 21
788.8798823313167
 31
0.0
100
AcDbText
 73
2
  0
ENDSEC
  0
SECTION
  2
OBJECTS
  0
DICTIONARY
  5
A
330
0
100
AcDbDictionary
281
1
  3
ACAD_COLOR
350
B
  3
ACAD_GROUP
350
C
  3
ACAD_LAYOUT
350
D
  3
ACAD_MATERIAL
350
E
  3
ACAD_MLEADERSTYLE
350
F
  3
ACAD_MLINESTYLE
350
10
  3
ACAD_PLOTSETTINGS
350
11
  3
ACAD_PLOTSTYLENAME
350
12
  3
ACAD_SCALELIST
350
14
  3
ACAD_TABLESTYLE
350
15
  3
ACAD_VISUALSTYLE
350
16
  3
EZDXF_META
350
2D
  0
DICTIONARY
  5
B
330
A
100
AcDbDictionary
281
1
  0
DICTIONARY
  5
C
330
A
100
AcDbDictionary
281
1
  0
DICTIONARY
  5
D
330
A
100
AcDbDictionary
281
1
  3
Model
350
1A
  3
Layout1
350
1E
  0
DICTIONARY
  5
E
330
A
100
AcDbDictionary
281
1
  3
ByBlock
350
1F
  3
ByLayer
350
20
  3
Global
350
21
  0
DICTIONARY
  5
F
330
A
100
AcDbDictionary
281
1
  3
Standard
350
2C
  0
DICTIONARY
  5
10
330
A
100
AcDbDictionary
281
1
  3
Standard
350
22
  0
DICTIONARY
  5
11
330
A
100
AcDbDictionary
281
1
  0
ACDBDICTIONARYWDFLT
  5
12
330
A
100
AcDbDictionary
281
1
  3
Normal
350
13
100
AcDbDictionaryWithDefault
340
13
  0
ACDBPLACEHOLDER
  5
13
330
12
  0
DICTIONARY
  5
14
330
A
100
AcDbDictionary
281
1
  0
DICTIONARY
  5
15
330
A
100
AcDbDictionary
281
1
  0
DICTIONARY
  5
16
330
A
100
AcDbDictionary
281
1
  3
2dWireframe
350
5A
  3
Basic
350
5B
  3
Brighten
350
5C
  3
ColorChange
350
5D
  3
Conceptual
350
5E
  3
Dim
350
5F
  3
EdgeColorOff
350
60
  3
Facepattern
350
61
  3
Flat
350
62
  3
FlatWithEdges
350
63
  3
Gouraud
350
64
  3
GouraudWithEdges
350
65
  3
Hidden
350
66
  3
JitterOff
350
67
  3
Linepattern
350
68
  3
Modeling
350
69
  3
OverhangOff
350
6A
  3
Realistic
350
6B
  3
Shaded
350
6C
  3
Shaded with edges
350
6D
  3
Shades of Gray
350
6E
  3
Sketchy
350
6F
  3
Thicken
350
70
  3
Wireframe
350
71
  3
X-Ray
350
72
  0
LAYOUT
  5
1A
330
D
100
AcDbPlotSettings
  1

  4
A3
  6

 40
7.5
 41
20.0
 42
7.5
 43
20.0
 44
420.0
 45
297.0
 46
0.0
 47
0.0
 48
0.0
 49
0.0
140
0.0
141
0.0
142
1.0
143
1.0
 70
1024
 72
1
 73
0
 74
5
  7

 75
16
 76
0
 77
2
 78
300
147
1.0
148
0.0
149
0.0
100
AcDbLayout
  1
Model
 70
1
 71
0
 10
0.0
 20
0.0
 11
420.0
 21
297.0
 12
0.0
 22
0.0
 32
0.0
 14
1e+20
 24
1e+20
 34
1e+20
 15
-1e+20
 25
-1e+20
 35
-1e+20
146
0.0
 13
0.0
 23
0.0
 33
0.0
 16
1.0
 26
0.0
 36
0.0
 17
0.0
 27
1.0
 37
0.0
 76
1
330
17
  0
LAYOUT
  5
1E
330
D
100
AcDbPlotSettings
  1

  4
A3
  6

 40
7.5
 41
20.0
 42
7.5
 43
20.0
 44
420.0
 45
297.0
 46
0.0
 47
0.0
 48
0.0
 49
0.0
140
0.0
141
0.0
142
1.0
143
1.0
 70
0
 72
1
 73
0
 74
5
  7

 75
16
 76
0
 77
2
 78
300
147
1.0
148
0.0
149
0.0
100
AcDbLayout
  1
Layout1
 70
1
 71
1
 10
0.0
 20
0.0
 11
420.0
 21
297.0
 12
0.0
 22
0.0
 32
0.0
 14
1e+20
 24
1e+20
 34
1e+20
 15
-1e+20
 25
-1e+20
 35
-1e+20
146
0.0
 13
0.0
 23
0.0
 33
0.0
 16
1.0
 26
0.0
 36
0.0
 17
0.0
 27
1.0
 37
0.0
 76
1
330
1B
  0
MATERIAL
  5
1F
102
{ACAD_REACTORS
330
E
102
}
330
E
100
AcDbMaterial
  1
ByBlock
  2

 70
0
 40
1.0
 71
1
 41
1.0
 91
-1023410177
 42
1.0
 72
1
  3

 73
1
 74
1
 75
1
 44
0.5
 73
0
 45
1.0
 46
1.0
 77
1
  4

 78
1
 79
1
170
1
 48
1.0
171
1
  6

172
1
173
1
174
1
140
1.0
141
1.0
175
1
  7

176
1
177
1
178
1
143
1.0
179
1
  8

270
1
271
1
272
1
145
1.0
146
1.0
273
1
  9

274
1
275
1
276
1
 42
1.0
 72
1
  3

 73
1
 74
1
 75
1
 94
63
  0
MATERIAL
  5
20
102
{ACAD_REACTORS
330
E
102
}
330
E
100
AcDbMaterial
  1
ByLayer
  2

 70
0
 40
1.0
 71
1
 41
1.0
 91
-1023410177
 42
1.0
 72
1
  3

 73
1
 74
1
 75
1
 44
0.5
 73
0
 45
1.0
 46
1.0
 77
1
  4

 78
1
 79
1
170
1
 48
1.0
171
1
  6

172
1
173
1
174
1
140
1.0
141
1.0
175
1
  7

176
1
177
1
178
1
143
1.0
179
1
  8

270
1
271
1
272
1
145
1.0
146
1.0
273
1
  9

274
1
275
1
276
1
 42
1.0
 72
1
  3

 73
1
 74
1
 75
1
 94
63
  0
MATERIAL
  5
21
102
{ACAD_REACTORS
330
E
102
}
330
E
100
AcDbMaterial
  1
Global
  2

 70
0
 40
1.0
 71
1
 41
1.0
 91
-1023410177
 42
1.0
 72
1
  3

 73
1
 74
1
 75
1
 44
0.5
 73
0
 45
1.0
 46
1.0
 77
1
  4

 78
1
 79
1
170
1
 48
1.0
171
1
  6

172
1
173
1
174
1
140
1.0
141
1.0
175
1
  7

176
1
177
1
178
1
143
1.0
179
1
  8

270
1
271
1
272
1
145
1.0
146
1.0
273
1
  9

274
1
275
1
276
1
 42
1.0
 72
1
  3

 73
1
 74
1
 75
1
 94
63
  0
MLINESTYLE
  5
22
102
{ACAD_REACTORS
330
10
102
}
330
10
100
AcDbMlineStyle
  2
Standard
 70
0
  3

 62
256
 51
90.0
 52
90.0
 71
2
 49
0.5
 62
256
  6
BYLAYER
 49
-0.5
 62
256
  6
BYLAYER
  0
MLEADERSTYLE
  5
2C
102
{ACAD_REACTORS
330
F
102
}
330
F
100
AcDbMLeaderStyle
179
2
170
2
171
1
172
0
 90
2
 40
0.0
 41
0.0
173
1
 91
-1056964608
 92
-2
290
1
 42
2.0
291
1
 43
8.0
  3
Standard
 44
4.0
300

342
29
174
1
175
1
176
0
178
1
 93
-1056964608
 45
4.0
292
0
297
0
 46
4.0
 94
-1056964608
 47
1.0
 49
1.0
140
1.0
294
1
141
0.0
177
0
142
1.0
295
0
296
0
143
3.75
271
0
272
9
273
9
  0
DICTIONARY
  5
2D
330
A
100
AcDbDictionary
280
1
281
1
  3
CREATED_BY_EZDXF
350
2E
  3
WRITTEN_BY_EZDXF
350
A9
  0
DICTIONARYVAR
  5
2E
330
2D
100
DictionaryVariables
280
0
  1
1.4.4 @ 2026-10-02T17:38:47.793212+00:00
  0
VISUALSTYLE
  5
5A
102
{ACAD_REACTORS
330
16
102
}
330
16
100
AcDbVisualStyle
  2
2dWireframe
 70
4
 90
0
 40
0.6
 62
7
290
0
291
0
  0
VISUALSTYLE
  5
5B
102
{ACAD_REACTORS
330
16
102
}
330
16
100
AcDbVisualStyle
  2
Basic
 70
7
 90
1
 40
0.6
 62
7
290
0
291
1
  0
VISUALSTYLE
  5
5C
102
{ACAD_REACTORS
330
16
102
}
330
16
100
AcDbVisualStyle
  2
Brighten
 70
12
 90
2
 40
0.6
 62
7
290
0
291
1
  0
VISUALSTYLE
  5
5D
102
{ACAD_REACTORS
330
16
102
}
330
16
100
AcDbVisualStyle
  2
ColorChange
 70
16
 90
2
 40
0.6
 62
8
290
0
291
1
  0
VISUALSTYLE
  5
5E
102
{ACAD_REACTORS
330
16
102
}
330
16
100
AcDbVisualStyle
  2
Conceptual
 70
9
 90
3
 40
0.6
 62
7
290
0
291
0
  0
VISUALSTYLE
  5
5F
102
{ACAD_REACTORS
330
16
102
}
330
16
100
AcDbVisualStyle
  2
Dim
 70
11
 90
2
 40
0.6
 62
7
290
0
291
1
  0
VISUALSTYLE
  5
60
102
{ACAD_REACTORS
330
16
102
}
330
16
100
AcDbVisualStyle
  2
EdgeColorOff
 70
22
 90
2
 40
0.6
 62
7
290
0
291
1
  0
VISUALSTYLE
  5
61
102
{ACAD_REACTORS
330
16
102
}
330
16
100
AcDbVisualStyle
  2
Facepattern
 70
15
 90
2
 40
0.6
 62
7
290
0
291
1
  0
VISUALSTYLE
  5
62
102
{ACAD_REACTORS
330
16
102
}
330
16
100
AcDbVisualStyle
  2
Flat
 70
0
 90
2
 40
0.6
 62
7
290
0
291
1
  0
VISUALSTYLE
  5
63
102
{ACAD_REACTORS
330
16
102
}
330
16
100
AcDbVisualStyle
  2
FlatWithEdges
 70
1
 90
2
 40
0.6
 62
7
290
0
291
1
  0
VISUALSTYLE
  5
64
102
{ACAD_REACTORS
330
16
102
}
330
16
100
AcDbVisualStyle
  2
Gouraud
 70
2
 90
2
 40
0.6
 62
7
290
0
291
1
  0
VISUALSTYLE
  5
65
102
{ACAD_REACTORS
330
16
102
}
330
16
100
AcDbVisualStyle
  2
GouraudWithEdges
 70
3
 90
2
 40
0.6
 62
7
290
0
291
1
  0
VISUALSTYLE
  5
66
102
{ACAD_REACTORS
330
16
102
}
330
16
100
AcDbVisualStyle
  2
Hidden
 70
6
 90
1
 40
0.6
 62
7
290
0
291
0
  0
VISUALSTYLE
  5
67
102
{ACAD_REACTORS
330
16
102
}
330
16
100
AcDbVisualStyle
  2
JitterOff
 70
20
 90
2
 40
0.6
 62
7
290
0
291
1
  0
VISUALSTYLE
  5
68
102
{ACAD_REACTORS
330
16
102
}
330
16
100
AcDbVisualStyle
  2
Linepattern
 70
14
 90
2
 40
0.6
 62
7
290
0
291
1
  0
VISUALSTYLE
  5
69
102
{ACAD_REACTORS
330
16
102
}
330
16
100
AcDbVisualStyle
  2
Modeling
 70
10
 90
2
 40
0.6
 62
7
290
0
291
0
  0
VISUALSTYLE
  5
6A
102
{ACAD_REACTORS
330
16
102
}
330
16
100
AcDbVisualStyle
  2
OverhangOff
 70
21
 90
2
 40
0.6
 62
7
290
0
291
1
  0
VISUALSTYLE
  5
6B
102
{ACAD_REACTORS
330
16
102
}
330
16
100
AcDbVisualStyle
  2
Realistic
 70
8
 90
2
 40
0.6
 62
7
290
0
291
0
  0
VISUALSTYLE
  5
6C
102
{ACAD_REACTORS
330
16
102
}
330
16
100
AcDbVisualStyle
  2
Shaded
 70
27
 90
2
 40
0.6
 62
7
290
0
291
0
  0
VISUALSTYLE
  5
6D
102
{ACAD_REACTORS
330
16
102
}
330
16
100
AcDbVisualStyle
  2
Shaded with edges
 70
26
 90
2
 40
0.6
 62
7
290
0
291
0
  0
VISUALSTYLE
  5
6E
102
{ACAD_REACTORS
330
16
102
}
330
16
100
AcDbVisualStyle
  2
Shades of Gray
 70
23
 90
2
 40
0.6
 62
7
290
0
291
0
  0
VISUALSTYLE
  5
6F
102
{ACAD_REACTORS
330
16
102
}
330
16
100
AcDbVisualStyle
  2
Sketchy
 70
24
 90
1
 40
0.6
 62
7
290
0
291
0
  0
VISUALSTYLE
  5
70
102
{ACAD_REACTORS
330
16
102
}
330
16
100
AcDbVisualStyle
  2
Thicken
 70
13
 90
2
 40
0.6
 62
7
290
0
291
1
  0
VISUALSTYLE
  5
71
102
{ACAD_REACTORS
330
16
102
}
330
16
100
AcDbVisualStyle
  2
Wireframe
 70
5
 90
0
 40
0.6
 62
7
290
0
291
0
  0
VISUALSTYLE
  5
72
102
{ACAD_REACTORS
330
16
102
}
330
16
100
AcDbVisualStyle
  2
X-Ray
 70
25
 90
2
 40
0.5
 62
7
290
0
291
0
  0
DICTIONARYVAR
  5
A9
330
2D
100
DictionaryVariables
280
0
  1
1.4.4 @ 2026-10-02T17:38:47.830390+00:00
  0
ENDSEC
  0
EOF
