  0
SECTION
  2
HEADER
  9
$ACADVER
  1
AC1024
  9
$ACADMAINTVER
 70
6
  9
$DWGCODEPAGE
  3
ANSI_1252
  9
$LASTSAVEDBY
  1
ezdxf
  9
$INSBASE
 10
0.0
 20
0.0
 30
0.0
  9
$EXTMIN
 10
1e+20
 20
1e+20
 30
1e+20
  9
$EXTMAX
 10
-1e+20
 20
-1e+20
 30
-1e+20
  9
$LIMMIN
 10
0.0
 20
0.0
  9
$LIMMAX
 10
420.0
 20
297.0
  9
$ORTHOMODE
 70
0
  9
$REGENMODE
 70
1
  9
$FILLMODE
 70
1
  9
$QTEXTMODE
 70
0
  9
$MIRRTEXT
 70
1
  9
$LTSCALE
 40
1.0
  9
$ATTMODE
 70
1
  9
$TEXTSIZE
 40
2.5
  9
$TRACEWID
 40
1.0
  9
$TEXTSTYLE
  7
OpenSans
  9
$CLAYER
  8
0
  9
$CELTYPE
  6
ByLayer
  9
$CECOLOR
 62
256
  9
$CELTSCALE
 40
1.0
  9
$DISPSILH
 70
0
  9
$DIMSCALE
 40
1.0
  9
$DIMASZ
 40
0.175
  9
$DIMEXO
 40
0.125
  9
$DIMDLI
 40
3.75
  9
$DIMRND
 40
0.0
  9
$DIMDLE
 40
0.0
  9
$DIMEXE
 40
0.375
  9
$DIMTP
 40
0.0
  9
$DIMTM
 40
0.0
  9
$DIMTXT
 40
0.25
  9
$DIMCEN
 40
2.5
  9
$DIMTSZ
 40
0.0
  9
$DIMTOL
 70
0
  9
$DIMLIM
 70
0
  9
$DIMTIH
 70
0
  9
$DIMTOH
 70
0
  9
$DIMSE1
 70
0
  9
$DIMSE2
 70
0
  9
$DIMTAD
 70
1
  9
$DIMZIN
 70
12
  9
$DIMBLK
  1
ARCHTICK
  9
$DIMASO
 70
1
  9
$DIMSHO
 70
1
  9
$DIMPOST
  1

  9
$DIMAPOST
  1

  9
$DIMALT
 70
0
  9
$DIMALTD
 70
3
  9
$DIMALTF
 40
0.03937007874
  9
$DIMLFAC
 40
100.0
  9
$DIMTOFL
 70
1
  9
$DIMTVP
 40
0.0
  9
$DIMTIX
 70
0
  9
$DIMSOXD
 70
0
  9
$DIMSAH
 70
0
  9
$DIMBLK1
  1

  9
$DIMBLK2
  1

  9
$DIMSTYLE
  2
EZDXF
  9
$DIMCLRD
 70
0
  9
$DIMCLRE
 70
0
  9
$DIMCLRT
 70
0
  9
$DIMTFAC
 40
0.5
  9
$DIMGAP
 40
0.1
  9
$DIMJUST
 70
0
  9
$DIMSD1
 70
0
  9
$DIMSD2
 70
0
  9
$DIMTOLJ
 70
0
  9
$DIMTZIN
 70
8
  9
$DIMALTZ
 70
0
  9
$DIMALTTZ
 70
0
  9
$DIMUPT
 70
1
  9
$DIMDEC
 70
2
  9
$DIMTDEC
 70
2
  9
$DIMALTU
 70
2
  9
$DIMALTTD
 70
3
  9
$DIMTXSTY
  7
OpenSansCondensed-Light
  9
$DIMAUNIT
 70
0
  9
$DIMADEC
 70
2
  9
$DIMALTRND
 40
0.0
  9
$DIMAZIN
 70
3
  9
$DIMDSEP
 70
46
  9
$DIMATFIT
 70
3
  9
$DIMFRAC
 70
0
  9
$DIMLDRBLK
  1

  9
$DIMLUNIT
 70
2
  9
$DIMLWD
 70
-2
  9
$DIMLWE
 70
-2
  9
$DIMTMOVE
 70
2
  9
$DIMFXL
 40
1.0
  9
$DIMFXLON
 70
0
  9
$DIMJOGANG
 40
0.785398163397
  9
$DIMTFILL
 70
0
  9
$DIMTFILLCLR
 70
0
  9
$DIMARCSYM
 70
0
  9
$DIMLTYPE
  6

  9
$DIMLTEX1
  6

  9
$DIMLTEX2
  6

  9
$DIMTXTDIRECTION
 70
0
  9
$LUNITS
 70
2
  9
$LUPREC
 70
4
  9
$SKETCHINC
 40
1.0
  9
$FILLETRAD
 40
10.0
  9
$AUNITS
 70
0
  9
$AUPREC
 70
2
  9
$MENU
  1
.
  9
$ELEVATION
 40
0.0
  9
$PELEVATION
 40
0.0
  9
$THICKNESS
 40
0.0
  9
$LIMCHECK
 70
0
  9
$CHAMFERA
 40
0.0
  9
$CHAMFERB
 40
0.0
  9
$CHAMFERC
 40
0.0
  9
$CHAMFERD
 40
0.0
  9
$SKPOLY
 70
0
  9
$TDCREATE
 40
2461316.7352662035
  9
$TDUCREATE
 40
2458532.153996898
  9
$TDUPDATE
 40
2461316.7352662035
  9
$TDUUPDATE
 40
2458532.1544311
  9
$TDINDWG
 40
0.0
  9
$TDUSRTIMER
 40
0.0
  9
$USRTIMER
 70
1
  9
$ANGBASE
 50
0.0
  9
$ANGDIR
 70
0
  9
$PDMODE
 70
0
  9
$PDSIZE
 40
0.0
  9
$PLINEWID
 40
0.0
  9
$SPLFRAME
 70
0
  9
$SPLINETYPE
 70
6
  9
$SPLINESEGS
 70
8
  9
$HANDSEED
  5
AE
  9
$SURFTAB1
 70
6
  9
$SURFTAB2
 70
6
  9
$SURFTYPE
 70
6
  9
$SURFU
 70
6
  9
$SURFV
 70
6
  9
$UCSBASE
  2

  9
$UCSNAME
  2

  9
$UCSORG
 10
0.0
 20
0.0
 30
0.0
  9
$UCSXDIR
 10
1.0
 20
0.0
 30
0.0
  9
$UCSYDIR
 10
0.0
 20
1.0
 30
0.0
  9
$UCSORTHOREF
  2

  9
$UCSORTHOVIEW
 70
0
  9
$UCSORGTOP
 10
0.0
 20
0.0
 30
0.0
  9
$UCSORGBOTTOM
 10
0.0
 20
0.0
 30
0.0
  9
$UCSORGLEFT
 10
0.0
 20
0.0
 30
0.0
  9
$UCSORGRIGHT
 10
0.0
 20
0.0
 30
0.0
  9
$UCSORGFRONT
 10
0.0
 20
0.0
 30
0.0
  9
$UCSORGBACK
 10
0.0
 20
0.0
 30
0.0
  9
$PUCSBASE
  2

  9
$PUCSNAME
  2

  9
$PUCSORG
 10
0.0
 20
0.0
 30
0.0
  9
$PUCSXDIR
 10
1.0
 20
0.0
 30
0.0
  9
$PUCSYDIR
 10
0.0
 20
1.0
 30
0.0
  9
$PUCSORTHOREF
  2

  9
$PUCSORTHOVIEW
 70
0
  9
$PUCSORGTOP
 10
0.0
 20
0.0
 30
0.0
  9
$PUCSORGBOTTOM
 10
0.0
 20
0.0
 30
0.0
  9
$PUCSORGLEFT
 10
0.0
 20
0.0
 30
0.0
  9
$PUCSORGRIGHT
 10
0.0
 20
0.0
 30
0.0
  9
$PUCSORGFRONT
 10
0.0
 20
0.0
 30
0.0
  9
$PUCSORGBACK
 10
0.0
 20
0.0
 30
0.0
  9
$USERI1
 70
0
  9
$USERI2
 70
0
  9
$USERI3
 70
0
  9
$USERI4
 70
0
  9
$USERI5
 70
0
  9
$USERR1
 40
0.0
  9
$USERR2
 40
0.0
  9
$USERR3
 40
0.0
  9
$USERR4
 40
0.0
  9
$USERR5
 40
0.0
  9
$WORLDVIEW
 70
1
  9
$SHADEDGE
 70
3
  9
$SHADEDIF
 70
70
  9
$TILEMODE
 70
1
  9
$MAXACTVP
 70
64
  9
$PINSBASE
 10
0.0
 20
0.0
 30
0.0
  9
$PLIMCHECK
 70
0
  9
$PEXTMIN
 10
1e+20
 20
1e+20
 30
1e+20
  9
$PEXTMAX
 10
-1e+20
 20
-1e+20
 30
-1e+20
  9
$PLIMMIN
 10
0.0
 20
0.0
  9
$PLIMMAX
 10
420.0
 20
297.0
  9
$UNITMODE
 70
0
  9
$VISRETAIN
 70
1
  9
$PLINEGEN
 70
0
  9
$PSLTSCALE
 70
1
  9
$TREEDEPTH
 70
3020
  9
$CMLSTYLE
  2
Standard
  9
$CMLJUST
 70
0
  9
$CMLSCALE
 40
20.0
  9
$PROXYGRAPHICS
 70
1
  9
$MEASUREMENT
 70
1
  9
$CELWEIGHT
370
-1
  9
$ENDCAPS
280
0
  9
$JOINSTYLE
280
0
  9
$LWDISPLAY
290
0
  9
$INSUNITS
 70
4
  9
$HYPERLINKBASE
  1

  9
$STYLESHEET
  1

  9
$XEDIT
290
1
  9
$CEPSNTYPE
380
0
  9
$PSTYLEMODE
290
1
  9
$FINGERPRINTGUID
  2
{696EB65B-7845-49DC-8D85-0750C63D6BBA}
  9
$VERSIONGUID
  2
{242DC71D-23E9-4B73-BC53-759D1A3A5963}
  9
$EXTNAMES
290
1
  9
$PSVPSCALE
 40
0.0
  9
$OLESTARTUP
290
0
  9
$SORTENTS
280
127
  9
$INDEXCTL
280
0
  9
$HIDETEXT
280
1
  9
$XCLIPFRAME
280
1
  9
$HALOGAP
280
0
  9
$OBSCOLOR
 70
257
  9
$OBSLTYPE
280
0
  9
$INTERSECTIONDISPLAY
280
0
  9
$INTERSECTIONCOLOR
 70
257
  9
$DIMASSOC
280
2
  9
$PROJECTNAME
  1

  9
$CAMERADISPLAY
290
0
  9
$LENSLENGTH
 40
50.0
  9
$CAMERAHEIGHT
 40
0.0
  9
$STEPSPERSEC
 40
24.0
  9
$STEPSIZE
 40
100.0
  9
$3DDWFPREC
 40
2.0
  9
$PSOLWIDTH
 40
0.005
  9
$PSOLHEIGHT
 40
0.08
  9
$LOFTANG1
 40
1.570796326795
  9
$LOFTANG2
 40
1.570796326795
  9
$LOFTMAG1
 40
0.0
  9
$LOFTMAG2
 40
0.0
  9
$LOFTPARAM
 70
7
  9
$LOFTNORMALS
280
1
  9
$LATITUDE
 40
37.795
  9
$LONGITUDE
 40
-122.394
  9
$NORTHDIRECTION
 40
0.0
  9
$TIMEZONE
 70
-8000
  9
$LIGHTGLYPHDISPLAY
280
1
  9
$TILEMODELIGHTSYNCH
280
1
  9
$CMATERIAL
347
20
  9
$SOLIDHIST
280
0
  9
$SHOWHIST
280
1
  9
$DWFFRAME
280
2
  9
$DGNFRAME
280
2
  9
$REALWORLDSCALE
290
1
  9
$INTERFERECOLOR
 62
256
  9
$CSHADOW
280
0
  9
$SHADOWPLANELOCATION
 40
0.0
  0
ENDSEC
  0
SECTION
  2
CLASSES
  0
CLASS
  1
ACDBDICTIONARYWDFLT
  2
AcDbDictionaryWithDefault
  3
ObjectDBX Classes
 90
0
 91
0
280
0
281
0
  0
CLASS
  1
SUN
  2
AcDbSun
  3
SCENEOE
 90
1153
 91
0
280
0
281
0
  0
CLASS
  1
VISUALSTYLE
  2
AcDbVisualStyle
  3
ObjectDBX Classes
 90
4095
 91
0
280
0
281
0
  0
CLASS
  1
MATERIAL
  2
AcDbMaterial
  3
ObjectDBX Classes
 90
1153
 91
0
280
0
281
0
  0
CLASS
  1
SCALE
  2
AcDbScale
  3
ObjectDBX Classes
 90
1153
 91
0
280
0
281
0
  0
CLASS
  1
TABLESTYLE
  2
AcDbTableStyle
  3
ObjectDBX Classes
 90
4095
 91
0
280
0
281
0
  0
CLASS
  1
MLEADERSTYLE
  2
AcDbMLeaderStyle
  3
ACDB_MLEADERSTYLE_CLASS
 90
4095
 91
0
280
0
281
0
  0
CLASS
  1
DICTIONARYVAR
  2
AcDbDictionaryVar
  3
ObjectDBX Classes
 90
0
 91
0
280
0
281
0
  0
CLASS
  1
CELLSTYLEMAP
  2
AcDbCellStyleMap
  3
ObjectDBX Classes
 90
1152
 91
0
280
0
281
0
  0
CLASS
  1
MENTALRAYRENDERSETTINGS
  2
AcDbMentalRayRenderSettings
  3
SCENEOE
 90
1024
 91
0
280
0
281
0
  0
CLASS
  1
ACDBDETAILVIEWSTYLE
  2
AcDbDetailViewStyle
  3
ObjectDBX Classes
 90
1025
 91
0
280
0
281
0
  0
CLASS
  1
ACDBSECTIONVIEWSTYLE
  2
AcDbSectionViewStyle
  3
ObjectDBX Classes
 90
1025
 91
0
280
0
281
0
  0
CLASS
  1
RASTERVARIABLES
  2
AcDbRasterVariables
  3
ISM
 90
0
 91
0
280
0
281
0
  0
CLASS
  1
LAYOUT
  2
AcDbLayout
  3
ObjectDBX Classes
 90
0
 91
0
280
0
281
0
  0
CLASS
  1
ACDBPLACEHOLDER
  2
AcDbPlaceHolder
  3
ObjectDBX Classes
 90
0
 91
0
280
0
281
0
  0
ENDSEC
  0
SECTION
  2
TABLES
  0
TABLE
  2
VPORT
  5
8
330
0
100
AcDbSymbolTable
 70
1
  0
VPORT
  5
23
330
8
100
AcDbSymbolTableRecord
100
AcDbViewportTableRecord
  2
*Active
 70
0
 10
0.0
 20
0.0
 11
1.0
 21
1.0
 12
0.0
 22
0.0
 13
0.0
 23
0.0
 14
0.5
 24
0.5
 15
0.5
 25
0.5
 16
0.0
 26
0.0
 36
1.0
 17
0.0
 27
0.0
 37
0.0
 40
1000.0
 41
1.34
 42
50.0
 43
0.0
 44
0.0
 50
0.0
 51
0.0
 71
0
 72
1000
 73
1
 74
3
 75
0
 76
0
 77
0
 78
0
281
0
 65
0
146
0.0
  0
ENDTAB
  0
TABLE
  2
LTYPE
  5
2
330
0
100
AcDbSymbolTable
 70
21
  0
LTYPE
  5
24
330
2
100
AcDbSymbolTableRecord
100
AcDbLinetypeTableRecord
  2
ByBlock
 70
0
  3

 72
65
 73
0
 40
0.0
  0
LTYPE
  5
25
330
2
100
AcDbSymbolTableRecord
100
AcDbLinetypeTableRecord
  2
ByLayer
 70
0
  3

 72
65
 73
0
 40
0.0
  0
LTYPE
  5
26
330
2
100
AcDbSymbolTableRecord
100
AcDbLinetypeTableRecord
  2
Continuous
 70
0
  3

 72
65
 73
0
 40
0.0
  0
LTYPE
  5
2F
330
2
100
AcDbSymbolTableRecord
100
AcDbLinetypeTableRecord
  2
CENTER
 70
0
  3
Center ____ _ ____ _ ____ _ ____ _ ____ _ ____
 72
65
 73
4
 40
5.08
 49
3.175
 74
0
 49
-0.635
 74
0
 49
0.635
 74
0
 49
-0.635
 74
0
  0
LTYPE
  5
30
330
2
100
AcDbSymbolTableRecord
100
AcDbLinetypeTableRecord
  2
CENTERX2
 70
0
  3
Center (2x) ________  __  ________  __  ________
 72
65
 73
4
 40
8.89
 49
6.35
 74
0
 49
-0.635
 74
0
 49
1.27
 74
0
 49
-0.635
 74
0
  0
LTYPE
  5
31
330
2
100
AcDbSymbolTableRecord
100
AcDbLinetypeTableRecord
  2
CENTER2
 70
0
  3
Center (.5x) ____ _ ____ _ ____ _ ____ _ ____
 72
65
 73
4
 40
2.54
 49
1.587
 74
0
 49
-0.318
 74
0
 49
0.318
 74
0
 49
-0.318
 74
0
  0
LTYPE
  5
32
330
2
100
AcDbSymbolTableRecord
100
AcDbLinetypeTableRecord
  2
DASHED
 70
0
  3
Dashed __ __ __ __ __ __ __ __ __ __ __ __ __ _
 72
65
 73
2
 40
1.524
 49
1.27
 74
0
 49
-0.254
 74
0
  0
LTYPE
  5
33
330
2
100
AcDbSymbolTableRecord
100
AcDbLinetypeTableRecord
  2
DASHEDX2
 70
0
  3
Dashed (2x) ____  ____  ____  ____  ____  ____
 72
65
 73
2
 40
3.048
 49
2.54
 74
0
 49
-0.508
 74
0
  0
LTYPE
  5
34
330
2
100
AcDbSymbolTableRecord
100
AcDbLinetypeTableRecord
  2
DASHED2
 70
0
  3
Dashed (.5x) _ _ _ _ _ _ _ _ _ _ _ _ _ _
 72
65
 73
2
 40
0.762
 49
0.635
 74
0
 49
-0.127
 74
0
  0
LTYPE
  5
35
330
2
100
AcDbSymbolTableRecord
100
AcDbLinetypeTableRecord
  2
PHANTOM
 70
0
  3
Phantom ______  __  __  ______  __  __  ______
 72
65
 73
6
 40
6.35
 49
3.175
 74
0
 49
-0.635
 74
0
 49
0.635
 74
0
 49
-0.635
 74
0
 49
0.635
 74
0
 49
-0.635
 74
0
  0
LTYPE
  5
36
330
2
100
AcDbSymbolTableRecord
100
AcDbLinetypeTableRecord
  2
PHANTOMX2
 70
0
  3
Phantom (2x)____________    ____    ____    ____________
 72
65
 73
6
 40
10.795
 49
6.35
 74
0
 49
-0.635
 74
0
 49
1.27
 74
0
 49
-0.635
 74
0
 49
1.27
 74
0
 49
-0.635
 74
0
  0
LTYPE
  5
37
330
2
100
AcDbSymbolTableRecord
100
AcDbLinetypeTableRecord
  2
PHANTOM2
 70
0
  3
Phantom (.5x) ___ _ _ ___ _ _ ___ _ _ ___ _ _ ___
 72
65
 73
6
 40
3.175
 49
1.587
 74
0
 49
-0.318
 74
0
 49
0.318
 74
0
 49
-0.318
 74
0
 49
0.318
 74
0
 49
-0.318
 74
0
  0
LTYPE
  5
38
330
2
100
AcDbSymbolTableRecord
100
AcDbLinetypeTableRecord
  2
DASHDOT
 70
0
  3
Dash dot __ . __ . __ . __ . __ . __ . __ . __
 72
65
 73
4
 40
3.556
 49
2.54
 74
0
 49
-0.508
 74
0
 49
0.0
 74
0
 49
-0.508
 74
0
  0
LTYPE
  5
39
330
2
100
AcDbSymbolTableRecord
100
AcDbLinetypeTableRecord
  2
DASHDOTX2
 70
0
  3
Dash dot (2x) ____  .  ____  .  ____  .  ____
 72
65
 73
4
 40
6.096
 49
5.08
 74
0
 49
-0.508
 74
0
 49
0.0
 74
0
 49
-0.508
 74
0
  0
LTYPE
  5
3A
330
2
100
AcDbSymbolTableRecord
100
AcDbLinetypeTableRecord
  2
DASHDOT2
 70
0
  3
Dash dot (.5x) _ . _ . _ . _ . _ . _ . _ . _
 72
65
 73
4
 40
1.778
 49
1.27
 74
0
 49
-0.254
 74
0
 49
0.0
 74
0
 49
-0.254
 74
0
  0
LTYPE
  5
3B
330
2
100
AcDbSymbolTableRecord
100
AcDbLinetypeTableRecord
  2
DOT
 70
0
  3
Dot .  .  .  .  .  .  .  .  .  .  .  .  .  .  .  .
 72
65
 73
2
 40
0.508
 49
0.0
 74
0
 49
-0.508
 74
0
  0
LTYPE
  5
3C
330
2
100
AcDbSymbolTableRecord
100
AcDbLinetypeTableRecord
  2
DOTX2
 70
0
  3
Dot (2x) .    .    .    .    .    .    .    . 
 72
65
 73
2
 40
1.016
 49
0.0
 74
0
 49
-1.016
 74
0
  0
LTYPE
  5
3D
330
2
100
AcDbSymbolTableRecord
100
AcDbLinetypeTableRecord
  2
DOT2
 70
0
  3
Dot (.5) . . . . . . . . . . . . . . . . . . . 
 72
65
 73
2
 40
0.254
 49
0.0
 74
0
 49
-0.254
 74
0
  0
LTYPE
  5
3E
330
2
100
AcDbSymbolTableRecord
100
AcDbLinetypeTableRecord
  2
DIVIDE
 70
0
  3
Divide __ . . __ . . __ . . __ . . __ . . __
 72
65
 73
6
 40
4.064
 49
2.54
 74
0
 49
-0.508
 74
0
 49
0.0
 74
0
 49
-0.508
 74
0
 49
0.0
 74
0
 49
-0.508
 74
0
  0
LTYPE
  5
3F
330
2
100
AcDbSymbolTableRecord
100
AcDbLinetypeTableRecord
  2
DIVIDEX2
 70
0
  3
Divide (2x) ____  . .  ____  . .  ____  . .  ____
 72
65
 73
6
 40
6.604
 49
5.08
 74
0
 49
-0.508
 74
0
 49
0.0
 74
0
 49
-0.508
 74
0
 49
0.0
 74
0
 49
-0.508
 74
0
  0
LTYPE
  5
40
330
2
100
AcDbSymbolTableRecord
100
AcDbLinetypeTableRecord
  2
DIVIDE2
 70
0
  3
Divide(.5x) _ . _ . _ . _ . _ . _ . _ . _
 72
65
 73
6
 40
2.032
 49
1.27
 74
0
 49
-0.254
 74
0
 49
0.0
 74
0
 49
-0.254
 74
0
 49
0.0
 74
0
 49
-0.254
 74
0
  0
ENDTAB
  0
TABLE
  2
LAYER
  5
1
330
0
100
AcDbSymbolTable
 70
4
  0
LAYER
  5
27
330
1
100
AcDbSymbolTableRecord
100
AcDbLayerTableRecord
  2
0
 70
0
 62
7
  6
Continuous
370
-3
390
13
347
21
  0
LAYER
  5
28
330
1
100
AcDbSymbolTableRecord
100
AcDbLayerTableRecord
  2
Defpoints
 70
0
 62
7
  6
Continuous
290
0
370
-3
390
13
347
21
  0
LAYER
  5
8A
330
1
100
AcDbSymbolTableRecord
100
AcDbLayerTableRecord
  2
CUT
 70
0
 62
1
  6
Continuous
370
-3
390
13
347
21
  0
LAYER
  5
8B
330
1
100
AcDbSymbolTableRecord
100
AcDbLayerTableRecord
  2
ENGRAVE-LABEL
 70
0
 62
3
  6
Continuous
370
-3
390
13
347
21
  0
ENDTAB
  0
TABLE
  2
STYLE
  5
5
330
0
100
AcDbSymbolTable
 70
26
  0
STYLE
  5
29
330
5
100
AcDbSymbolTableRecord
100
AcDbTextStyleTableRecord
  2
Standard
 70
0
 40
0.0
 41
1.0
 50
0.0
 71
0
 42
2.5
  3
txt
  4

  0
STYLE
  5
41
330
5
100
AcDbSymbolTableRecord
100
AcDbTextStyleTableRecord
  2
OpenSans-Light
 70
0
 40
0.0
 41
1.0
 50
0.0
 71
0
 42
2.5
  3
OpenSans-Light.ttf
  4

  0
STYLE
  5
42
330
5
100
AcDbSymbolTableRecord
100
AcDbTextStyleTableRecord
  2
OpenSans-Light-Italic
 70
0
 40
0.0
 41
1.0
 50
0.0
 71
0
 42
2.5
  3
OpenSans-LightItalic.ttf
  4

  0
STYLE
  5
43
330
5
100
AcDbSymbolTableRecord
100
AcDbTextStyleTableRecord
  2
OpenSans
 70
0
 40
0.0
 41
1.0
 50
0.0
 71
0
 42
2.5
  3
OpenSans-Regular.ttf
  4

  0
STYLE
  5
44
330
5
100
AcDbSymbolTableRecord
100
AcDbTextStyleTableRecord
  2
OpenSans-Italic
 70
0
 40
0.0
 41
1.0
 50
0.0
 71
0
 42
2.5
  3
OpenSans-Italic.ttf
  4

  0
STYLE
  5
45
330
5
100
AcDbSymbolTableRecord
100
AcDbTextStyleTableRecord
  2
OpenSans-SemiBold
 70
0
 40
0.0
 41
1.0
 50
0.0
 71
0
 42
2.5
  3
OpenSans-SemiBold.ttf
  4

  0
STYLE
  5
46
330
5
100
AcDbSymbolTableRecord
100
AcDbTextStyleTableRecord
  2
OpenSans-SemiBoldItalic
 70
0
 40
0.0
 41
1.0
 50
0.0
 71
0
 42
2.5
  3
OpenSans-SemiBoldItalic.ttf
  4

  0
STYLE
  5
47
330
5
100
AcDbSymbolTableRecord
100
AcDbTextStyleTableRecord
  2
OpenSans-Bold
 70
0
 40
0.0
 41
1.0
 50
0.0
 71
0
 42
2.5
  3
OpenSans-Bold.ttf
  4

  0
STYLE
  5
48
330
5
100
AcDbSymbolTableRecord
100
AcDbTextStyleTableRecord
  2
OpenSans-BoldItalic
 70
0
 40
0.0
 41
1.0
 50
0.0
 71
0
 42
2.5
  3
OpenSans-BoldItalic.ttf
  4

  0
STYLE
  5
49
330
5
100
AcDbSymbolTableRecord
100
AcDbTextStyleTableRecord
  2
OpenSans-ExtraBold
 70
0
 40
0.0
 41
1.0
 50
0.0
 71
0
 42
2.5
  3
OpenSans-ExtraBold.ttf
  4

  0
STYLE
  5
4A
330
5
100
AcDbSymbolTableRecord
100
AcDbTextStyleTableRecord
  2
OpenSans-ExtraBoldItalic
 70
0
 40
0.0
 41
1.0
 50
0.0
 71
0
 42
2.5
  3
OpenSans-ExtraBoldItalic.ttf
  4

  0
STYLE
  5
4B
330
5
100
AcDbSymbolTableRecord
100
AcDbTextStyleTableRecord
  2
OpenSansCondensed-Bold
 70
0
 40
0.0
 41
1.0
 50
0.0
 71
0
 42
2.5
  3
OpenSansCondensed-Bold.ttf
  4

  0
STYLE
  5
4C
330
5
100
AcDbSymbolTableRecord
100
AcDbTextStyleTableRecord
  2
OpenSansCondensed-Light
 70
0
 40
0.0
 41
1.0
 50
0.0
 71
0
 42
2.5
  3
OpenSansCondensed-Light.ttf
  4

  0
STYLE
  5
4D
330
5
100
AcDbSymbolTableRecord
100
AcDbTextStyleTableRecord
  2
OpenSansCondensed-Italic
 70
0
 40
0.0
 41
1.0
 50
0.0
 71
0
 42
2.5
  3
OpenSansCondensed-LightItalic.ttf
  4

  0
STYLE
  5
4E
330
5
100
AcDbSymbolTableRecord
100
AcDbTextStyleTableRecord
  2
LiberationSans
 70
0
 40
0.0
 41
1.0
 50
0.0
 71
0
 42
2.5
  3
LiberationSans-Regular.ttf
  4

  0
STYLE
  5
4F
330
5
100
AcDbSymbolTableRecord
100
AcDbTextStyleTableRecord
  2
LiberationSans-Bold
 70
0
 40
0.0
 41
1.0
 50
0.0
 71
0
 42
2.5
  3
LiberationSans-Bold.ttf
  4

  0
STYLE
  5
50
330
5
100
AcDbSymbolTableRecord
100
AcDbTextStyleTableRecord
  2
LiberationSans-BoldItalic
 70
0
 40
0.0
 41
1.0
 50
0.0
 71
0
 42
2.5
  3
LiberationSans-BoldItalic.ttf
  4

  0
STYLE
  5
51
330
5
100
AcDbSymbolTableRecord
100
AcDbTextStyleTableRecord
  2
LiberationSans-Italic
 70
0
 40
0.0
 41
1.0
 50
0.0
 71
0
 42
2.5
  3
LiberationSans-Italic.ttf
  4

  0
STYLE
  5
52
330
5
100
AcDbSymbolTableRecord
100
AcDbTextStyleTableRecord
  2
LiberationSerif
 70
0
 40
0.0
 41
1.0
 50
0.0
 71
0
 42
2.5
  3
LiberationSerif-Regular.ttf
  4

  0
STYLE
  5
53
330
5
100
AcDbSymbolTableRecord
100
AcDbTextStyleTableRecord
  2
LiberationSerif-Bold
 70
0
 40
0.0
 41
1.0
 50
0.0
 71
0
 42
2.5
  3
LiberationSerif-Bold.ttf
  4

  0
STYLE
  5
54
330
5
100
AcDbSymbolTableRecord
100
AcDbTextStyleTableRecord
  2
LiberationSerif-BoldItalic
 70
0
 40
0.0
 41
1.0
 50
0.0
 71
0
 42
2.5
  3
LiberationSerif-BoldItalic.ttf
  4

  0
STYLE
  5
55
330
5
100
AcDbSymbolTableRecord
100
AcDbTextStyleTableRecord
  2
LiberationSerif-Italic
 70
0
 40
0.0
 41
1.0
 50
0.0
 71
0
 42
2.5
  3
LiberationSerif-Italic.ttf
  4

  0
STYLE
  5
56
330
5
100
AcDbSymbolTableRecord
100
AcDbTextStyleTableRecord
  2
LiberationMono
 70
0
 40
0.0
 41
1.0
 50
0.0
 71
0
 42
2.5
  3
LiberationMono-Regular.ttf
  4

  0
STYLE
  5
57
330
5
100
AcDbSymbolTableRecord
100
AcDbTextStyleTableRecord
  2
LiberationMono-Bold
 70
0
 40
0.0
 41
1.0
 50
0.0
 71
0
 42
2.5
  3
LiberationMono-Bold.ttf
  4

  0
STYLE
  5
58
330
5
100
AcDbSymbolTableRecord
100
AcDbTextStyleTableRecord
  2
LiberationMono-BoldItalic
 70
0
 40
0.0
 41
1.0
 50
0.0
 71
0
 42
2.5
  3
LiberationMono-BoldItalic.ttf
  4

  0
STYLE
  5
59
330
5
100
AcDbSymbolTableRecord
100
AcDbTextStyleTableRecord
  2
LiberationMono-Italic
 70
0
 40
0.0
 41
1.0
 50
0.0
 71
0
 42
2.5
  3
LiberationMono-Italic.ttf
  4

  0
ENDTAB
  0
TABLE
  2
VIEW
  5
7
330
0
100
AcDbSymbolTable
 70
0
  0
ENDTAB
  0
TABLE
  2
UCS
  5
6
330
0
100
AcDbSymbolTable
 70
0
  0
ENDTAB
  0
TABLE
  2
APPID
  5
3
330
0
100
AcDbSymbolTable
 70
3
  0
APPID
  5
2A
330
3
100
AcDbSymbolTableRecord
100
AcDbRegAppTableRecord
  2
ACAD
 70
0
  0
APPID
  5
AB
330
3
100
AcDbSymbolTableRecord
100
AcDbRegAppTableRecord
  2
HATCHBACKGROUNDCOLOR
 70
0
  0
APPID
  5
AC
330
3
100
AcDbSymbolTableRecord
100
AcDbRegAppTableRecord
  2
EZDXF
 70
0
  0
ENDTAB
  0
TABLE
  2
DIMSTYLE
  5
4
330
0
100
AcDbSymbolTable
 70
12
100
AcDbDimStyleTable
  0
DIMSTYLE
105
2B
330
4
100
AcDbSymbolTableRecord
100
AcDbDimStyleTableRecord
  2
Standard
 70
0
 40
1.0
 41
2.5
 42
0.625
 43
3.75
 44
1.25
 45
0.0
 46
0.0
 47
0.0
 48
0.0
 49
2.5
140
2.5
141
2.5
142
0.0
143
0.03937007874
144
1.0
145
0.0
146
1.0
147
0.625
148
0.0
 69
0
 70
0
 71
0
 72
0
 73
0
 74
0
 75
0
 76
0
 77
1
 78
8
 79
3
170
0
171
3
172
1
173
0
174
0
175
0
176
0
177
0
178
0
179
2
271
2
272
2
273
2
274
3
275
0
276
0
277
2
278
44
279
0
280
0
281
0
282
0
283
0
284
8
285
0
286
0
288
0
289
3
290
0
371
-2
372
-2
  0
DIMSTYLE
105
73
330
4
100
AcDbSymbolTableRecord
100
AcDbDimStyleTableRecord
  2
EZDXF
 70
0
 40
1.0
 41
0.175
 42
0.125
 43
3.75
 44
0.375
 45
0.0
 46
0.0
 47
0.0
 48
0.0
 49
2.5
140
0.25
141
2.5
142
0.0
143
0.03937007874
144
100.0
145
0.0
146
0.5
147
0.1
148
0.0
 69
0
 70
0
 71
0
 72
0
 73
0
 74
0
 75
0
 76
0
 77
1
 78
12
 79
3
170
0
171
3
172
1
173
0
174
0
175
0
176
0
177
0
178
0
179
2
271
2
272
2
273
2
274
3
275
0
276
0
277
2
278
46
279
2
280
0
281
0
282
0
283
0
284
8
285
0
286
0
288
1
289
3
290
0
340
4C
342
74
371
-2
372
-2
  0
DIMSTYLE
105
7C
330
4
100
AcDbSymbolTableRecord
100
AcDbDimStyleTableRecord
  2
EZ_M_100_H25_CM
 70
0
 40
1.0
 41
0.25
 42
0.125
 43
3.75
 44
0.375
 45
0.0
 46
0.0
 47
0.0
 48
0.0
 49
2.5
140
0.25
141
2.5
142
0.125
143
0.03937007874
144
100.0
145
0.0
146
0.5
147
0.1
148
0.0
 69
0
 70
0
 71
0
 72
0
 73
0
 74
0
 75
0
 76
0
 77
1
 78
12
 79
3
170
0
171
3
172
1
173
0
174
0
175
0
176
0
177
0
178
0
179
2
271
2
272
2
273
2
274
3
275
0
276
0
277
2
278
46
279
2
280
0
281
0
282
0
283
0
284
8
285
0
286
0
288
1
289
3
290
0
340
4C
371
-2
372
-2
  0
DIMSTYLE
105
7D
330
4
100
AcDbSymbolTableRecord
100
AcDbDimStyleTableRecord
  2
EZ_M_50_H25_CM
 70
0
 40
1.0
 41
0.125
 42
0.0625
 43
3.75
 44
0.1875
 45
0.0
 46
0.0
 47
0.0
 48
0.0
 49
2.5
140
0.125
141
2.5
142
0.0625
143
0.03937007874
144
100.0
145
0.0
146
0.5
147
0.05
148
0.0
 69
0
 70
0
 71
0
 72
0
 73
0
 74
0
 75
0
 76
0
 77
1
 78
12
 79
3
170
0
171
3
172
1
173
0
174
0
175
0
176
0
177
0
178
0
179
2
271
2
272
2
273
2
274
3
275
0
276
0
277
2
278
46
279
2
280
0
281
0
282
0
283
0
284
8
285
0
286
0
288
1
289
3
290
0
340
4C
371
-2
372
-2
  0
DIMSTYLE
105
7E
330
4
100
AcDbSymbolTableRecord
100
AcDbDimStyleTableRecord
  2
EZ_M_25_H25_CM
 70
0
 40
1.0
 41
0.0625
 42
0.03125
 43
3.75
 44
0.09375
 45
0.0
 46
0.0
 47
0.0
 48
0.0
 49
2.5
140
0.0625
141
2.5
142
0.03125
143
0.03937007874
144
100.0
145
0.0
146
0.5
147
0.025
148
0.0
 69
0
 70
0
 71
0
 72
0
 73
0
 74
0
 75
0
 76
0
 77
1
 78
12
 79
3
170
0
171
3
172
1
173
0
174
0
175
0
176
0
177
0
178
0
179
2
271
2
272
2
273
2
274
3
275
0
276
0
277
2
278
46
279
2
280
0
281
0
282
0
283
0
284
8
285
0
286
0
288
1
289
3
290
0
340
4C
371
-2
372
-2
  0
DIMSTYLE
105
7F
330
4
100
AcDbSymbolTableRecord
100
AcDbDimStyleTableRecord
  2
EZ_M_20_H25_CM
 70
0
 40
1.0
 41
0.05
 42
0.025
 43
3.75
 44
0.07500000000000001
 45
0.0
 46
0.0
 47
0.0
 48
0.0
 49
2.5
140
0.05
141
2.5
142
0.025
143
0.03937007874
144
100.0
145
0.0
146
0.5
147
0.020000000000000004
148
0.0
 69
0
 70
0
 71
0
 72
0
 73
0
 74
0
 75
0
 76
0
 77
1
 78
12
 79
3
170
0
171
3
172
1
173
0
174
0
175
0
176
0
177
0
178
0
179
2
271
2
272
2
273
2
274
3
275
0
276
0
277
2
278
46
279
2
280
0
281
0
282
0
283
0
284
8
285
0
286
0
288
1
289
3
290
0
340
4C
371
-2
372
-2
  0
DIMSTYLE
105
80
330
4
100
AcDbSymbolTableRecord
100
AcDbDimStyleTableRecord
  2
EZ_M_10_H25_CM
 70
0
 40
1.0
 41
0.025
 42
0.0125
 43
3.75
 44
0.037500000000000006
 45
0.0
 46
0.0
 47
0.0
 48
0.0
 49
2.5
140
0.025
141
2.5
142
0.0125
143
0.03937007874
144
100.0
145
0.0
146
0.5
147
0.010000000000000002
148
0.0
 69
0
 70
0
 71
0
 72
0
 73
0
 74
0
 75
0
 76
0
 77
1
 78
12
 79
3
170
0
171
3
172
1
173
0
174
0
175
0
176
0
177
0
178
0
179
2
271
2
272
2
273
2
274
3
275
0
276
0
277
2
278
46
279
2
280
0
281
0
282
0
283
0
284
8
285
0
286
0
288
1
289
3
290
0
340
4C
371
-2
372
-2
  0
DIMSTYLE
105
81
330
4
100
AcDbSymbolTableRecord
100
AcDbDimStyleTableRecord
  2
EZ_M_5_H25_CM
 70
0
 40
1.0
 41
0.0125
 42
0.00625
 43
3.75
 44
0.018750000000000003
 45
0.0
 46
0.0
 47
0.0
 48
0.0
 49
2.5
140
0.0125
141
2.5
142
0.00625
143
0.03937007874
144
100.0
145
0.0
146
0.5
147
0.005000000000000001
148
0.0
 69
0
 70
0
 71
0
 72
0
 73
0
 74
0
 75
0
 76
0
 77
1
 78
12
 79
3
170
0
171
3
172
1
173
0
174
0
175
0
176
0
177
0
178
0
179
2
271
2
272
2
273
2
274
3
275
0
276
0
277
2
278
46
279
2
280
0
281
0
282
0
283
0
284
8
285
0
286
0
288
1
289
3
290
0
340
4C
371
-2
372
-2
  0
DIMSTYLE
105
82
330
4
100
AcDbSymbolTableRecord
100
AcDbDimStyleTableRecord
  2
EZ_M_1_H25_CM
 70
0
 40
1.0
 41
0.0025
 42
0.00125
 43
3.75
 44
0.00375
 45
0.0
 46
0.0
 47
0.0
 48
0.0
 49
2.5
140
0.0025
141
2.5
142
0.00125
143
0.03937007874
144
100.0
145
0.0
146
0.5
147
0.001
148
0.0
 69
0
 70
0
 71
0
 72
0
 73
0
 74
0
 75
0
 76
0
 77
1
 78
12
 79
3
170
0
171
3
172
1
173
0
174
0
175
0
176
0
177
0
178
0
179
2
271
2
272
2
273
2
274
3
275
0
276
0
277
2
278
46
279
2
280
0
281
0
282
0
283
0
284
8
285
0
286
0
288
1
289
3
290
0
340
4C
371
-2
372
-2
  0
DIMSTYLE
105
83
330
4
100
AcDbSymbolTableRecord
100
AcDbDimStyleTableRecord
  2
EZ_RADIUS
 70
0
 40
1.0
 41
0.25
 42
0.125
 43
3.75
 44
0.375
 45
0.0
 46
0.0
 47
0.0
 48
0.0
 49
2.5
140
0.25
141
0.0
142
0.0
143
0.03937007874
144
100.0
145
0.0
146
0.5
147
0.1
148
0.0
 69
0
 70
0
 71
0
 72
0
 73
0
 74
0
 75
0
 76
0
 77
1
 78
12
 79
3
170
0
171
3
172
0
173
0
174
0
175
0
176
0
177
0
178
0
179
2
271
2
272
2
273
2
274
3
275
0
276
0
277
2
278
46
279
1
280
0
281
0
282
0
283
0
284
8
285
0
286
0
288
1
289
3
290
0
340
4C
342
84
371
-2
372
-2
  0
DIMSTYLE
105
88
330
4
100
AcDbSymbolTableRecord
100
AcDbDimStyleTableRecord
  2
EZ_RADIUS_INSIDE
 70
0
 40
1.0
 41
0.25
 42
0.125
 43
3.75
 44
0.375
 45
0.0
 46
0.0
 47
0.0
 48
0.0
 49
2.5
140
0.25
141
0.0
142
0.0
143
0.03937007874
144
100.0
145
0.0
146
0.5
147
0.1
148
0.0
 69
0
 70
0
 71
0
 72
0
 73
0
 74
0
 75
0
 76
0
 77
0
 78
12
 79
3
170
0
171
3
172
0
173
0
174
1
175
0
176
0
177
0
178
0
179
2
271
2
272
2
273
2
274
3
275
0
276
0
277
2
278
46
279
0
280
0
281
0
282
0
283
0
284
8
285
0
286
0
288
1
289
0
290
0
340
4C
342
84
371
-2
372
-2
  0
DIMSTYLE
105
89
330
4
100
AcDbSymbolTableRecord
100
AcDbDimStyleTableRecord
  2
EZ_CURVED
 70
0
 40
1.0
 41
0.25
 42
0.125
 43
3.75
 44
0.375
 45
0.0
 46
0.0
 47
0.0
 48
0.0
 49
2.5
140
0.25
141
2.5
142
0.0
143
0.03937007874
144
100.0
145
0.0
146
0.5
147
0.1
148
0.0
 69
0
 70
0
 71
0
 72
0
 73
0
 74
0
 75
0
 76
0
 77
1
 78
12
 79
2
 90
2
170
0
171
3
172
1
173
0
174
0
175
0
176
0
177
0
178
0
179
2
271
2
272
2
273
2
274
3
275
0
276
0
277
2
278
46
279
2
280
0
281
0
282
0
283
0
284
8
285
0
286
0
288
1
289
3
290
0
340
4C
371
-2
372
-2
  0
ENDTAB
  0
TABLE
  2
BLOCK_RECORD
  5
9
330
0
100
AcDbSymbolTable
 70
5
  0
BLOCK_RECORD
  5
17
330
9
100
AcDbSymbolTableRecord
100
AcDbBlockTableRecord
  2
*Model_Space
340
1A
 70
0
280
1
281
0
  0
BLOCK_RECORD
  5
1B
330
9
100
AcDbSymbolTableRecord
100
AcDbBlockTableRecord
  2
*Paper_Space
340
1E
 70
0
280
1
281
0
  0
BLOCK_RECORD
  5
74
330
9
100
AcDbSymbolTableRecord
100
AcDbBlockTableRecord
  2
_ARCHTICK
340
0
 70
0
280
1
281
0
  0
BLOCK_RECORD
  5
78
330
9
100
AcDbSymbolTableRecord
100
AcDbBlockTableRecord
  2
_CLOSEDFILLED
340
0
 70
0
280
1
281
0
  0
BLOCK_RECORD
  5
84
330
9
100
AcDbSymbolTableRecord
100
AcDbBlockTableRecord
  2
_CLOSEDBLANK
340
0
 70
0
280
1
281
0
  0
ENDTAB
  0
ENDSEC
  0
SECTION
  2
BLOCKS
  0
BLOCK
  5
18
330
17
100
AcDbEntity
  8
0
100
AcDbBlockBegin
  2
*Model_Space
 70
0
 10
0.0
 20
0.0
 30
0.0
  3
*Model_Space
  1

  0
ENDBLK
  5
19
330
17
100
AcDbEntity
  8
0
100
AcDbBlockEnd
  0
BLOCK
  5
1C
330
1B
100
AcDbEntity
  8
0
100
AcDbBlockBegin
  2
*Paper_Space
 70
0
 10
0.0
 20
0.0
 30
0.0
  3
*Paper_Space
  1

  0
ENDBLK
  5
1D
330
1B
100
AcDbEntity
  8
0
100
AcDbBlockEnd
  0
BLOCK
  5
75
330
74
100
AcDbEntity
  8
0
100
AcDbBlockBegin
  2
_ARCHTICK
 70
0
 10
0.0
 20
0.0
 30
0.0
  3
_ARCHTICK
  1

  0
LWPOLYLINE
  5
77
330
74
100
AcDbEntity
  8
0
  6
BYBLOCK
 62
0
100
AcDbPolyline
 90
2
 70
0
 43
0.15
 10
-0.5
 20
-0.5
 10
0.5
 20
0.5
  0
ENDBLK
  5
76
330
74
100
AcDbEntity
  8
0
100
AcDbBlockEnd
  0
BLOCK
  5
79
330
78
100
AcDbEntity
  8
0
100
AcDbBlockBegin
  2
_CLOSEDFILLED
 70
0
 10
0.0
 20
0.0
 30
0.0
  3
_CLOSEDFILLED
  1

  0
SOLID
  5
7B
330
78
100
AcDbEntity
  8
0
  6
BYBLOCK
 62
0
100
AcDbTrace
 10
-1.0
 20
0.16439898372402537
 30
0.0
 11
0.0
 21
0.0
 31
0.0
 12
-1.0
 22
-0.16439898372402537
 32
0.0
 13
-1.0
 23
-0.16439898372402537
 33
0.0
  0
ENDBLK
  5
7A
330
78
100
AcDbEntity
  8
0
100
AcDbBlockEnd
  0
BLOCK
  5
85
330
84
100
AcDbEntity
  8
0
100
AcDbBlockBegin
  2
_CLOSEDBLANK
 70
0
 10
0.0
 20
0.0
 30
0.0
  3
_CLOSEDBLANK
  1

  0
LWPOLYLINE
  5
87
330
84
100
AcDbEntity
  8
0
  6
BYBLOCK
 62
0
100
AcDbPolyline
 90
3
 70
1
 10
-1.0
 20
0.16439898372402537
 10
0.0
 20
0.0
 10
-1.0
 20
-0.16439898372402537
  0
ENDBLK
  5
86
330
84
100
AcDbEntity
  8
0
100
AcDbBlockEnd
  0
ENDSEC
  0
SECTION
  2
ENTITIES
  0
LWPOLYLINE
  5
8C
330
17
100
AcDbEntity
  8
CUT
100
AcDbPolyline
 90
240
 70
1
 10
1478.3999999999999
 20
466.4
 10
1478.3824000000002
 20
485.7561999999999
 10
1478.2589
 20
505.13239999999996
 10
1477.9224000000002
 20
524.5387
 10
1477.2645
 20
543.9737
 10
1476.1751000000002
 20
563.4245999999999
 10
1474.5431
 20
582.8669
 10
1472.2582
 20
602.2642999999999
 10
1469.2127000000003
 20
621.569
 10
1465.3039999999999
 20
640.7221
 10
1460.4379999999999
 20
659.6551
 10
1454.5328000000002
 20
678.2912
 10
1447.5217
 20
696.5477
 10
1439.3574
 20
714.3387
 10
1430.0141
 20
731.5787
 10
1419.4899000000003
 20
748.1853
 10
1407.8071000000002
 20
764.083
 10
1395.0122
 20
779.2064
 10
1381.1735
 20
793.5018
 10
1366.3783999999998
 20
806.9300999999999
 10
1350.7294
 20
819.4666
 10
1334.3392000000001
 20
831.1018
 10
1317.3265
 20
841.8398
 10
1299.8116000000002
 20
851.6976999999999
 10
1281.912
 20
860.7033
 10
1263.7393
 20
868.8932
 10
1245.3969
 20
876.3102
 10
1226.9782000000002
 20
883.002
 10
1208.5655
 20
889.0186
 10
1190.2297999999998
 20
894.4113
 10
1172.0309
 20
899.2309
 10
1154.0180000000003
 20
903.5269999999999
 10
1136.2304000000001
 20
907.347
 10
1118.6986
 20
910.7357
 10
1101.4449000000002
 20
913.7352
 10
1084.4851
 20
916.3842999999999
 10
1067.8287000000003
 20
918.7185999999999
 10
1051.4804000000001
 20
920.7708
 10
1035.4406999999999
 20
922.5707
 10
1019.7065
 20
924.1451
 10
1004.2720000000002
 20
925.5181999999999
 10
989.1290000000001
 20
926.7118999999999
 10
974.2675000000002
 20
927.7459
 10
959.6760999999999
 20
928.6379000000001
 10
945.3425
 20
929.4036
 10
931.2531999999999
 20
930.0573
 10
917.3942
 20
930.6119
 10
903.7513999999999
 20
931.0786999999999
 10
890.3098000000002
 20
931.4680999999999
 10
877.0546000000002
 20
931.7895
 10
863.9709
 20
932.0512
 10
851.0433
 20
932.2608999999999
 10
838.2567999999999
 20
932.4255999999999
 10
825.5961
 20
932.5515999999999
 10
813.0458999999998
 20
932.6448999999999
 10
800.5910000000001
 20
932.7108999999999
 10
788.2158999999999
 20
932.7547000000001
 10
775.905
 20
932.7810000000001
 10
763.6427000000001
 20
932.7943999999999
 10
751.4131
 20
932.7993
 10
739.2
 20
932.8000000000001
 10
726.9869000000001
 20
932.7993
 10
714.7573
 20
932.7943999999999
 10
702.4950000000001
 20
932.7810000000001
 10
690.1841000000002
 20
932.7547000000001
 10
677.809
 20
932.7108999999999
 10
665.3541000000002
 20
932.6448999999999
 10
652.8039000000001
 20
932.5515999999999
 10
640.1432000000002
 20
932.4255999999999
 10
627.3567
 20
932.2608999999999
 10
614.4291000000001
 20
932.0512
 10
601.3453999999999
 20
931.7895
 10
588.0901999999999
 20
931.4680999999999
 10
574.6486000000002
 20
931.0786999999999
 10
561.0058000000001
 20
930.6119
 10
547.1468
 20
930.0573
 10
533.0575000000001
 20
929.4036
 10
518.7239
 20
928.6379000000001
 10
504.13249999999994
 20
927.7459
 10
489.27099999999996
 20
926.7118999999999
 10
474.12800000000016
 20
925.5181999999999
 10
458.6935000000001
 20
924.1451
 10
442.9593
 20
922.5707
 10
426.91959999999995
 20
920.7708
 10
410.57130000000006
 20
918.7185999999999
 10
393.9149
 20
916.3842999999999
 10
376.95510000000013
 20
913.7352
 10
359.70140000000015
 20
910.7357
 10
342.16959999999995
 20
907.347
 10
324.38200000000006
 20
903.5269999999999
 10
306.3691000000001
 20
899.2309
 10
288.1702
 20
894.4113
 10
269.83449999999993
 20
889.0186
 10
251.42180000000008
 20
883.002
 10
233.00310000000013
 20
876.3102
 10
214.66070000000013
 20
868.8932
 10
196.48800000000006
 20
860.7033
 10
178.5884000000001
 20
851.6976999999999
 10
161.07349999999997
 20
841.8398
 10
144.06079999999997
 20
831.1018
 10
127.67060000000015
 20
819.4666
 10
112.02160000000003
 20
806.9300999999999
 10
97.22649999999999
 20
793.5018
 10
83.38779999999997
 20
779.2064
 10
70.5929000000001
 20
764.083
 10
58.91010000000006
 20
748.1853
 10
48.38589999999999
 20
731.5787
 10
39.04259999999999
 20
714.3387
 10
30.87830000000008
 20
696.5477
 10
23.86720000000014
 20
678.2912
 10
17.96199999999999
 20
659.6551
 10
13.096000000000004
 20
640.7221
 10
9.18730000000005
 20
621.569
 10
6.141800000000103
 20
602.2642999999999
 10
3.856899999999996
 20
582.8669
 10
2.224899999999934
 20
563.4245999999999
 10
1.1355000000000928
 20
543.9737
 10
0.4775999999999385
 20
524.5387
 10
0.1411000000000513
 20
505.13239999999996
 10
0.017600000000129512
 20
485.7561999999999
 10
0.0
 20
466.4
 10
0.017600000000129512
 20
447.04380000000003
 10
0.1411000000000513
 20
427.6676
 10
0.4775999999999385
 20
408.2613
 10
1.1355000000000928
 20
388.82630000000006
 10
2.224899999999934
 20
369.3754
 10
3.856899999999996
 20
349.93309999999997
 10
6.141800000000103
 20
330.5357
 10
9.18730000000005
 20
311.231
 10
13.096000000000004
 20
292.0779
 10
17.96199999999999
 20
273.1449
 10
23.86720000000014
 20
254.50879999999998
 10
30.87830000000008
 20
236.25230000000002
 10
39.04259999999999
 20
218.46130000000002
 10
48.38589999999999
 20
201.2213
 10
58.91010000000006
 20
184.6147
 10
70.5929000000001
 20
168.717
 10
83.38779999999997
 20
153.5936
 10
97.22649999999999
 20
139.2982
 10
112.02160000000003
 20
125.8699
 10
127.67060000000015
 20
113.33340000000001
 10
144.06079999999997
 20
101.69820000000001
 10
161.07349999999997
 20
90.96020000000001
 10
178.5884000000001
 20
81.10230000000001
 10
196.48800000000006
 20
72.0967
 10
214.66070000000013
 20
63.906800000000004
 10
233.00310000000013
 20
56.4898
 10
251.42180000000008
 20
49.798
 10
269.83449999999993
 20
43.78140000000002
 10
288.1702
 20
38.3887
 10
306.3691000000001
 20
33.56909999999999
 10
324.38200000000006
 20
29.27300000000001
 10
342.16959999999995
 20
25.453000000000003
 10
359.70140000000015
 20
22.064300000000003
 10
376.95510000000013
 20
19.064800000000005
 10
393.9149
 20
16.4157
 10
410.57130000000006
 20
14.081400000000002
 10
426.91959999999995
 20
12.029200000000003
 10
442.9593
 20
10.22930000000001
 10
458.6935000000001
 20
8.654900000000012
 10
474.12800000000016
 20
7.281800000000004
 10
489.27099999999996
 20
6.088100000000011
 10
504.13249999999994
 20
5.054100000000005
 10
518.7239
 20
4.1621000000000095
 10
533.0575000000001
 20
3.3964
 10
547.1468
 20
2.7426999999999992
 10
561.0058000000001
 20
2.1881000000000057
 10
574.6486000000002
 20
1.7212999999999994
 10
588.0901999999999
 20
1.3319000000000045
 10
601.3453999999999
 20
1.0105000000000075
 10
614.4291000000001
 20
0.7488000000000028
 10
627.3567
 20
0.5391000000000048
 10
640.1432000000002
 20
0.3744000000000085
 10
652.8039000000001
 20
0.24840000000000373
 10
665.3541000000002
 20
0.15510000000000446
 10
677.809
 20
0.08910000000000196
 10
690.1841000000002
 20
0.045300000000011664
 10
702.4950000000001
 20
0.019000000000005457
 10
714.7573
 20
0.00560000000000116
 10
726.9869000000001
 20
0.0007000000000090267
 10
739.2
 20
0.0
 10
751.4131
 20
0.0007000000000090267
 10
763.6427000000001
 20
0.00560000000000116
 10
775.905
 20
0.019000000000005457
 10
788.2158999999999
 20
0.045300000000011664
 10
800.5910000000001
 20
0.08910000000000196
 10
813.0458999999998
 20
0.15510000000000446
 10
825.5961
 20
0.24840000000000373
 10
838.2567999999999
 20
0.3744000000000085
 10
851.0433
 20
0.5391000000000048
 10
863.9709
 20
0.7488000000000028
 10
877.0546000000002
 20
1.0105000000000075
 10
890.3098000000002
 20
1.3319000000000045
 10
903.7513999999999
 20
1.7212999999999994
 10
917.3942
 20
2.1881000000000057
 10
931.2531999999999
 20
2.7426999999999992
 10
945.3425
 20
3.3964
 10
959.6760999999999
 20
4.1621000000000095
 10
974.2675000000002
 20
5.054100000000005
 10
989.1290000000001
 20
6.088100000000011
 10
1004.2720000000002
 20
7.281800000000004
 10
1019.7065
 20
8.654900000000012
 10
1035.4406999999999
 20
10.22930000000001
 10
1051.4804000000001
 20
12.029200000000003
 10
1067.8287000000003
 20
14.081400000000002
 10
1084.4851
 20
16.4157
 10
1101.4449000000002
 20
19.064800000000005
 10
1118.6986
 20
22.064300000000003
 10
1136.2304000000001
 20
25.453000000000003
 10
1154.0180000000003
 20
29.27300000000001
 10
1172.0309
 20
33.56909999999999
 10
1190.2297999999998
 20
38.3887
 10
1208.5655
 20
43.78140000000002
 10
1226.9782000000002
 20
49.798
 10
1245.3969
 20
56.4898
 10
1263.7393
 20
63.906800000000004
 10
1281.912
 20
72.0967
 10
1299.8116000000002
 20
81.10230000000001
 10
1317.3265
 20
90.96020000000001
 10
1334.3392000000001
 20
101.69820000000001
 10
1350.7294
 20
113.33340000000001
 10
1366.3783999999998
 20
125.8699
 10
1381.1735
 20
139.2982
 10
1395.0122
 20
153.5936
 10
1407.8071000000002
 20
168.717
 10
1419.4899000000003
 20
184.6147
 10
1430.0141
 20
201.2213
 10
1439.3574
 20
218.46130000000002
 10
1447.5217
 20
236.25230000000002
 10
1454.5328000000002
 20
254.50879999999998
 10
1460.4379999999999
 20
273.1449
 10
1465.3039999999999
 20
292.0779
 10
1469.2127000000003
 20
311.231
 10
1472.2582
 20
330.5357
 10
1474.5431
 20
349.93309999999997
 10
1476.1751000000002
 20
369.3754
 10
1477.2645
 20
388.82630000000006
 10
1477.9224000000002
 20
408.2613
 10
1478.2589
 20
427.6676
 10
1478.3824000000002
 20
447.04380000000003
  0
LWPOLYLINE
  5
8D
330
17
100
AcDbEntity
  8
CUT
100
AcDbPolyline
 90
240
 70
1
 10
1348.4269347325037
 20
450.44683126925827
 10
1348.4370132548931
 20
434.471241078278
 10
1348.3231711636238
 20
418.46096676299874
 10
1347.9766826927482
 20
402.4149923180033
 10
1347.287226457908
 20
386.34379788582396
 10
1346.143595667016
 20
370.26957829171783
 10
1344.4350764336311
 20
354.2263089747264
 10
1342.053493841401
 20
338.25953415831157
 10
1338.8958816377283
 20
322.42575691095817
 10
1334.8676699192395
 20
306.79132888781135
 10
1329.886211944496
 20
291.43077273400877
 10
1323.8843970210066
 20
276.42452332781454
 10
1316.814036098456
 20
261.8561420631195
 10
1308.6486767472963
 20
247.80913319820442
 10
1299.3855186639537
 20
234.36356072438403
 10
1289.046166563451
 20
221.5927141390164
 10
1277.6760701820497
 20
209.56008957970502
 10
1265.3426451402522
 20
198.3169322367252
 10
1252.1322187136564
 20
187.90052832123072
 10
1238.1460735486119
 20
178.33335012560164
 10
1223.4959472390622
 20
169.623061838928
 10
1208.2993743528475
 20
161.7633043310593
 10
1192.675230877636
 20
154.73510862033046
 10
1176.7397712769841
 20
148.50874847353245
 10
1160.603354003492
 20
143.0458336482687
 10
1144.3679518762694
 20
138.30146180827361
 10
1128.1254550139304
 20
134.22628078751174
 10
1111.9567058135356
 20
130.76835454635275
 10
1095.931161336079
 20
127.87476804901186
 10
1080.107057021254
 20
125.49294297874619
 10
1064.5319425273422
 20
123.5716648456382
 10
1049.2434701386571
 20
122.06184192293577
 10
1034.2703332685676
 20
120.91702831981539
 10
1019.6332727517304
 20
120.0937488810695
 10
1005.3460887552544
 20
119.55166425170503
 10
991.4166143275477
 20
119.25361199711259
 10
977.8476218917292
 20
119.16555547632609
 10
964.637646109629
 20
119.25646723095073
 10
951.7817156546755
 20
119.49816865618536
 10
939.2719929277689
 20
119.86514307754314
 10
927.0983251072096
 20
120.33433528309158
 10
915.2487126180283
 20
120.88494713520035
 10
903.7097025644632
 20
121.49823610057476
 10
892.4667152483205
 20
122.15732133676576
 10
881.504311878535
 20
122.84700027867095
 10
870.8064111786255
 20
123.55357739496654
 10
860.35646197649
 20
124.2647058507861
 10
850.1375781262211
 20
124.96924214683597
 10
840.1326413396248
 20
125.65711334473221
 10
830.3243767441738
 20
126.31919618269566
 10
820.6954052631702
 20
126.94720719389161
 10
811.2282762481088
 20
127.53360282931553
 10
801.905483188373
 20
128.07148853315474
 10
792.7094647790652
 20
128.55453570172486
 10
783.6225931394972
 20
128.97690546274598
 10
774.6271505357029
 20
129.3331782287141
 10
765.7052955618854
 20
129.61828799786642
 10
756.8390193685093
 20
129.8274603919879
 10
748.0100921788091
 20
129.9561534264998
 10
739.2
 20
130.0000000000002
 10
730.3899078211905
 20
129.9561534264998
 10
721.5609806314903
 20
129.8274603919879
 10
712.6947044381152
 20
129.61828799786642
 10
703.7728494642972
 20
129.3331782287141
 10
694.7774068605024
 20
128.97690546274603
 10
685.6905352209344
 20
128.55453570172492
 10
676.4945168116271
 20
128.0714885331548
 10
667.1717237518912
 20
127.53360282931553
 10
657.7045947368299
 20
126.94720719389161
 10
648.0756232558263
 20
126.3191961826956
 10
638.2673586603753
 20
125.6571133447321
 10
628.262421873779
 20
124.96924214683591
 10
618.0435380235097
 20
124.2647058507861
 10
607.5935888213742
 20
123.55357739496648
 10
596.8956881214656
 20
122.84700027867095
 10
585.9332847516796
 20
122.15732133676576
 10
574.6902974355364
 20
121.49823610057476
 10
563.1512873819718
 20
120.88494713520029
 10
551.3016748927901
 20
120.33433528309152
 10
539.128007072231
 20
119.86514307754314
 10
526.6182843453248
 20
119.49816865618536
 10
513.7623538903706
 20
119.25646723095073
 10
500.5523781082709
 20
119.16555547632609
 10
486.9833856724522
 20
119.25361199711259
 10
473.0539112447457
 20
119.55166425170503
 10
458.76672724826926
 20
120.0937488810695
 10
444.12966673143274
 20
120.91702831981533
 10
429.1565298613425
 20
122.06184192293577
 10
413.8680574726575
 20
123.5716648456382
 10
398.29294297874617
 20
125.49294297874624
 10
382.46883866392113
 20
127.87476804901186
 10
366.443294186465
 20
130.76835454635275
 10
350.2745449860697
 20
134.22628078751174
 10
334.0320481237302
 20
138.30146180827361
 10
317.796645996508
 20
143.04583364826877
 10
301.66022872301573
 20
148.5087484735325
 10
285.72476912236425
 20
154.73510862033046
 10
270.10062564715236
 20
161.76330433105923
 10
254.90405276093793
 20
169.623061838928
 10
240.25392645138777
 20
178.33335012560187
 10
226.26778128634328
 20
187.90052832123084
 10
213.05735485974787
 20
198.31693223672536
 10
200.72392981795065
 20
209.56008957970502
 10
189.35383343654917
 20
221.5927141390163
 10
179.0144813360464
 20
234.36356072438397
 10
169.75132325270374
 20
247.80913319820465
 10
161.58596390154412
 20
261.8561420631196
 10
154.51560297899346
 20
276.42452332781465
 10
148.51378805550416
 20
291.43077273400877
 10
143.53233008076063
 20
306.79132888781123
 10
139.5041183622718
 20
322.42575691095806
 10
136.34650615859914
 20
338.2595341583118
 10
133.96492356636895
 20
354.22630897472663
 10
132.25640433298372
 20
370.26957829171806
 10
131.11277354209233
 20
386.3437978858242
 10
130.42331730725186
 20
402.4149923180033
 10
130.0768288363763
 20
418.4609667629986
 10
129.96298674510695
 20
434.47124107827847
 10
129.97306526749617
 20
450.4468312692585
 10
130.00000000000023
 20
466.4000000000001
 10
129.97306526749617
 20
482.3531687307417
 10
129.96298674510695
 20
498.3287589217216
 10
130.0768288363763
 20
514.3390332370014
 10
130.42331730725186
 20
530.3850076819969
 10
131.1127735420921
 20
546.4562021141759
 10
132.25640433298395
 20
562.530421708282
 10
133.96492356636895
 20
578.5736910252735
 10
136.34650615859914
 20
594.5404658416879
 10
139.5041183622718
 20
610.374243089042
 10
143.53233008076063
 20
626.0086711121888
 10
148.51378805550416
 20
641.3692272659912
 10
154.51560297899368
 20
656.3754766721854
 10
161.58596390154412
 20
670.9438579368804
 10
169.75132325270374
 20
684.9908668017953
 10
179.01448133604663
 20
698.4364392756162
 10
189.35383343654917
 20
711.2072858609838
 10
200.72392981795042
 20
723.2399104202949
 10
213.05735485974787
 20
734.4830677632748
 10
226.2677812863435
 20
744.8994716787693
 10
240.25392645138777
 20
754.4666498743981
 10
254.90405276093838
 20
763.1769381610719
 10
270.1006256471526
 20
771.0366956689409
 10
285.724769122364
 20
778.0648913796695
 10
301.66022872301596
 20
784.2912515264676
 10
317.796645996508
 20
789.7541663517312
 10
334.0320481237302
 20
794.4985381917263
 10
350.2745449860697
 20
798.5737192124883
 10
366.443294186465
 20
802.0316454536472
 10
382.46883866392113
 20
804.9252319509881
 10
398.29294297874617
 20
807.3070570212539
 10
413.8680574726577
 20
809.2283351543618
 10
429.1565298613425
 20
810.7381580770642
 10
444.1296667314325
 20
811.8829716801846
 10
458.7667272482697
 20
812.7062511189305
 10
473.0539112447457
 20
813.248335748295
 10
486.9833856724524
 20
813.5463880028873
 10
500.5523781082709
 20
813.6344445236739
 10
513.7623538903706
 20
813.5435327690492
 10
526.6182843453248
 20
813.3018313438146
 10
539.1280070722312
 20
812.9348569224568
 10
551.3016748927903
 20
812.4656647169085
 10
563.1512873819718
 20
811.9150528647996
 10
574.6902974355369
 20
811.3017638994253
 10
585.9332847516791
 20
810.6426786632343
 10
596.8956881214656
 20
809.952999721329
 10
607.5935888213746
 20
809.2464226050334
 10
618.0435380235097
 20
808.5352941492139
 10
628.262421873779
 20
807.8307578531641
 10
638.2673586603753
 20
807.142886655268
 10
648.0756232558263
 20
806.4808038173044
 10
657.7045947368299
 20
805.8527928061084
 10
667.1717237518912
 20
805.2663971706844
 10
676.4945168116271
 20
804.7285114668452
 10
685.6905352209349
 20
804.2454642982751
 10
694.7774068605024
 20
803.823094537254
 10
703.7728494642968
 20
803.4668217712859
 10
712.6947044381152
 20
803.1817120021336
 10
721.5609806314908
 20
802.9725396080121
 10
730.389907821191
 20
802.8438465735002
 10
739.2
 20
802.7999999999998
 10
748.0100921788091
 20
802.8438465735002
 10
756.8390193685093
 20
802.9725396080121
 10
765.7052955618849
 20
803.1817120021336
 10
774.6271505357033
 20
803.4668217712859
 10
783.6225931394977
 20
803.823094537254
 10
792.7094647790657
 20
804.2454642982751
 10
801.905483188373
 20
804.7285114668452
 10
811.2282762481088
 20
805.2663971706844
 10
820.6954052631702
 20
805.8527928061084
 10
830.3243767441738
 20
806.4808038173044
 10
840.1326413396248
 20
807.142886655268
 10
850.1375781262211
 20
807.8307578531641
 10
860.35646197649
 20
808.5352941492139
 10
870.8064111786255
 20
809.2464226050334
 10
881.5043118785345
 20
809.952999721329
 10
892.4667152483205
 20
810.6426786632343
 10
903.7097025644637
 20
811.3017638994253
 10
915.2487126180283
 20
811.9150528647997
 10
927.0983251072096
 20
812.4656647169085
 10
939.2719929277689
 20
812.9348569224568
 10
951.7817156546755
 20
813.3018313438146
 10
964.6376461096295
 20
813.5435327690492
 10
977.8476218917292
 20
813.6344445236739
 10
991.4166143275477
 20
813.5463880028873
 10
1005.3460887552544
 20
813.248335748295
 10
1019.6332727517304
 20
812.7062511189305
 10
1034.2703332685676
 20
811.8829716801846
 10
1049.2434701386576
 20
810.7381580770642
 10
1064.5319425273426
 20
809.2283351543618
 10
1080.107057021254
 20
807.3070570212537
 10
1095.931161336079
 20
804.9252319509881
 10
1111.956705813535
 20
802.0316454536472
 10
1128.1254550139304
 20
798.5737192124883
 10
1144.36795187627
 20
794.4985381917263
 10
1160.603354003492
 20
789.7541663517312
 10
1176.7397712769841
 20
784.2912515264675
 10
1192.675230877636
 20
778.0648913796695
 10
1208.2993743528475
 20
771.0366956689408
 10
1223.4959472390617
 20
763.1769381610719
 10
1238.1460735486123
 20
754.4666498743981
 10
1252.1322187136568
 20
744.8994716787691
 10
1265.3426451402522
 20
734.4830677632746
 10
1277.6760701820497
 20
723.2399104202949
 10
1289.046166563451
 20
711.2072858609837
 10
1299.3855186639532
 20
698.4364392756161
 10
1308.6486767472963
 20
684.9908668017953
 10
1316.814036098456
 20
670.9438579368804
 10
1323.8843970210066
 20
656.3754766721854
 10
1329.886211944496
 20
641.3692272659912
 10
1334.8676699192395
 20
626.0086711121887
 10
1338.8958816377283
 20
610.3742430890419
 10
1342.053493841401
 20
594.540465841688
 10
1344.4350764336311
 20
578.5736910252734
 10
1346.1435956670164
 20
562.530421708282
 10
1347.287226457908
 20
546.4562021141759
 10
1347.9766826927482
 20
530.3850076819966
 10
1348.3231711636238
 20
514.3390332370013
 10
1348.4370132548931
 20
498.3287589217217
 10
1348.4269347325037
 20
482.35316873074146
 10
1348.3999999999999
 20
466.4
  0
LWPOLYLINE
  5
8E
330
17
100
AcDbEntity
  8
CUT
100
AcDbPolyline
 90
8
 70
1
 10
1415.8706506938622
 20
527.2519202338169
 42
2.414213562373095
 10
1419.3711504171677
 20
524.3837323586703
 10
1453.8018677462994
 20
527.8021682877792
 42
2.414213562373095
 10
1456.6700556214462
 20
531.3026680110847
 10
1455.4251916703831
 20
543.8410217205374
 42
2.414213562373095
 10
1451.9246919470777
 20
546.709209595684
 10
1417.493974617946
 20
543.2907736665751
 42
2.414213562373095
 10
1414.6257867427992
 20
539.7902739432695
  0
LWPOLYLINE
  5
8F
330
17
100
AcDbEntity
  8
CUT
100
AcDbPolyline
 90
8
 70
1
 10
1394.7225960597318
 20
659.2279081735784
 42
2.414213562373095
 10
1398.7153903585706
 20
657.0977453424406
 10
1431.8176273425063
 20
667.1675967146988
 42
2.414213562373095
 10
1433.9477901736439
 20
671.1603910135376
 10
1430.2807344716077
 20
683.2149628631788
 42
2.414213562373095
 10
1426.287940172769
 20
685.3451256943166
 10
1393.1857031888333
 20
675.2752743220584
 42
2.414213562373095
 10
1391.0555403576957
 20
671.2824800232196
  0
LWPOLYLINE
  5
90
330
17
100
AcDbEntity
  8
CUT
100
AcDbPolyline
 90
8
 70
1
 10
1318.856054544786
 20
767.9254267660743
 42
2.414213562373095
 10
1323.1846032853643
 20
766.6049473832611
 10
1353.7246615774518
 20
782.8673223486799
 42
2.414213562373095
 10
1355.0451409602654
 20
787.1958710892585
 10
1349.1230044121646
 20
798.3173952071865
 42
2.414213562373095
 10
1344.7944556715863
 20
799.6378745899997
 10
1314.2543973794989
 20
783.3754996245809
 42
2.414213562373095
 10
1312.9339179966853
 20
779.0469508840023
  0
LWPOLYLINE
  5
91
330
17
100
AcDbEntity
  8
CUT
100
AcDbPolyline
 90
8
 70
1
 10
1200.6176476292433
 20
832.1403943200469
 42
2.414213562373095
 10
1205.1184636450873
 20
831.6685307894377
 10
1232.0020124431023
 20
853.45005516274
 42
2.414213562373095
 10
1232.4738759737113
 20
857.9508711785843
 10
1224.541875768405
 20
867.7408340356649
 42
2.414213562373095
 10
1220.0410597525608
 20
868.2126975662741
 10
1193.1575109545458
 20
846.4311731929718
 42
2.414213562373095
 10
1192.6856474239369
 20
841.9303571771275
  0
LWPOLYLINE
  5
92
330
17
100
AcDbEntity
  8
CUT
100
AcDbPolyline
 90
8
 70
1
 10
1069.293101747682
 20
860.9176702351673
 42
2.414213562373095
 10
1073.7955573531233
 20
861.3736236549743
 10
1095.6719597942063
 20
888.180022447721
 42
2.414213562373095
 10
1095.2160063743993
 20
892.6824780531618
 10
1085.4541386059425
 20
900.6490292311286
 42
2.414213562373095
 10
1080.9516830005011
 20
900.1930758113216
 10
1059.0752805594182
 20
873.3866770185749
 42
2.414213562373095
 10
1059.5312339792251
 20
868.884221413134
  0
LWPOLYLINE
  5
93
330
17
100
AcDbEntity
  8
CUT
100
AcDbPolyline
 90
8
 70
1
 10
937.423360327871
 20
869.5354412382343
 42
2.414213562373095
 10
941.6860955221371
 20
871.0550098163396
 10
956.5163400407562
 20
902.3155895857226
 42
2.414213562373095
 10
954.9967714626512
 20
906.5783247799887
 10
943.6128609107948
 20
911.9789340555554
 42
2.414213562373095
 10
939.3501257165287
 20
910.4593654774501
 10
924.5198811979096
 20
879.1987857080671
 42
2.414213562373095
 10
926.0394497760146
 20
874.936050513801
  0
LWPOLYLINE
  5
94
330
17
100
AcDbEntity
  8
CUT
100
AcDbPolyline
 90
8
 70
1
 10
808.8399175803472
 20
869.9280606652388
 42
2.414213562373095
 10
812.4969277055736
 20
872.593820771473
 10
817.8558731207515
 20
906.7762973353083
 42
2.414213562373095
 10
815.1901130145172
 20
910.4333074605348
 10
802.742159121329
 20
912.3848309354263
 42
2.414213562373095
 10
799.0851489961026
 20
909.7190708291921
 10
793.7262035809247
 20
875.5365942653568
 42
2.414213562373095
 10
796.391963687159
 20
871.8795841401303
  0
LWPOLYLINE
  5
95
330
17
100
AcDbEntity
  8
CUT
100
AcDbPolyline
 90
8
 70
1
 10
682.0080363128411
 20
871.8795841401302
 42
2.414213562373095
 10
684.6737964190754
 20
875.5365942653567
 10
679.3148510038975
 20
909.719070829192
 42
2.414213562373095
 10
675.6578408786711
 20
912.3848309354262
 10
663.2098869854829
 20
910.4333074605347
 42
2.414213562373095
 10
660.5441268792486
 20
906.7762973353082
 10
665.9030722944265
 20
872.5938207714729
 42
2.414213562373095
 10
669.5600824196529
 20
869.9280606652387
  0
LWPOLYLINE
  5
96
330
17
100
AcDbEntity
  8
CUT
100
AcDbPolyline
 90
8
 70
1
 10
552.3605502239855
 20
874.936050513801
 42
2.414213562373095
 10
553.8801188020907
 20
879.1987857080671
 10
539.0498742834711
 20
910.4593654774501
 42
2.414213562373095
 10
534.7871390892053
 20
911.9789340555554
 10
523.4032285373489
 20
906.5783247799887
 42
2.414213562373095
 10
521.8836599592437
 20
902.3155895857226
 10
536.7139044778633
 20
871.0550098163396
 42
2.414213562373095
 10
540.9766396721291
 20
869.5354412382343
  0
LWPOLYLINE
  5
97
330
17
100
AcDbEntity
  8
CUT
100
AcDbPolyline
 90
8
 70
1
 10
418.8687660207743
 20
868.884221413134
 42
2.414213562373095
 10
419.32471944058125
 20
873.3866770185749
 10
397.4483169994983
 20
900.1930758113216
 42
2.414213562373095
 10
392.9458613940574
 20
900.6490292311286
 10
383.1839936256006
 20
892.6824780531618
 42
2.414213562373095
 10
382.7280402057936
 20
888.180022447721
 10
404.6044426468766
 20
861.3736236549743
 42
2.414213562373095
 10
409.1068982523175
 20
860.9176702351673
  0
LWPOLYLINE
  5
98
330
17
100
AcDbEntity
  8
CUT
100
AcDbPolyline
 90
8
 70
1
 10
285.71435257606345
 20
841.9303571771273
 42
2.414213562373095
 10
285.242489045454
 20
846.4311731929716
 10
258.3589402474395
 20
868.212697566274
 42
2.414213562373095
 10
253.85812423159496
 20
867.7408340356648
 10
245.92612402628856
 20
857.9508711785842
 42
2.414213562373095
 10
246.397987556898
 20
853.4500551627399
 10
273.28153635491253
 20
831.6685307894376
 42
2.414213562373095
 10
277.78235237075705
 20
832.1403943200468
  0
LWPOLYLINE
  5
99
330
17
100
AcDbEntity
  8
CUT
100
AcDbPolyline
 90
8
 70
1
 10
165.46608200331457
 20
779.0469508840023
 42
2.414213562373095
 10
164.14560262050145
 20
783.3754996245809
 10
133.60554432841354
 20
799.6378745899997
 42
2.414213562373095
 10
129.2769955878348
 20
798.3173952071865
 10
123.35485903973449
 20
787.1958710892585
 42
2.414213562373095
 10
124.67533842254761
 20
782.8673223486799
 10
155.21539671463552
 20
766.6049473832611
 42
2.414213562373095
 10
159.54394545521427
 20
767.9254267660743
  0
LWPOLYLINE
  5
9A
330
17
100
AcDbEntity
  8
CUT
100
AcDbPolyline
 90
8
 70
1
 10
87.3444596423044
 20
671.2824800232198
 42
2.414213562373095
 10
85.21429681116683
 20
675.2752743220586
 10
52.11205982723118
 20
685.3451256943168
 42
2.414213562373095
 10
48.11926552839236
 20
683.214962863179
 10
44.45220982635624
 20
671.1603910135378
 42
2.414213562373095
 10
46.582372657493806
 20
667.167596714699
 10
79.68460964142946
 20
657.0977453424408
 42
2.414213562373095
 10
83.67740394026828
 20
659.2279081735786
  0
LWPOLYLINE
  5
9B
330
17
100
AcDbEntity
  8
CUT
100
AcDbPolyline
 90
8
 70
1
 10
63.77421325720047
 20
539.7902739432694
 42
2.414213562373095
 10
60.90602538205394
 20
543.290773666575
 10
26.475308052922173
 20
546.7092095956839
 42
2.414213562373095
 10
22.974808329616508
 20
543.8410217205372
 10
21.72994437855391
 20
531.3026680110846
 42
2.414213562373095
 10
24.59813225370044
 20
527.8021682877791
 10
59.02884958283221
 20
524.3837323586702
 42
2.414213562373095
 10
62.529349306137874
 20
527.2519202338168
  0
LWPOLYLINE
  5
9C
330
17
100
AcDbEntity
  8
CUT
100
AcDbPolyline
 90
8
 70
1
 10
62.529349306137874
 20
405.54807976618304
 42
2.414213562373095
 10
59.02884958283221
 20
408.4162676413297
 10
24.59813225370044
 20
404.9978317122208
 42
2.414213562373095
 10
21.72994437855391
 20
401.4973319889152
 10
22.974808329616508
 20
388.9589782794626
 42
2.414213562373095
 10
26.475308052922173
 20
386.09079040431607
 10
60.90602538205394
 20
389.509226333425
 42
2.414213562373095
 10
63.77421325720047
 20
393.0097260567304
  0
LWPOLYLINE
  5
9D
330
17
100
AcDbEntity
  8
CUT
100
AcDbPolyline
 90
8
 70
1
 10
83.67740394026828
 20
273.57209182642146
 42
2.414213562373095
 10
79.68460964142946
 20
275.70225465755937
 10
46.582372657493806
 20
265.63240328530117
 42
2.414213562373095
 10
44.45220982635624
 20
261.63960898646235
 10
48.11926552839236
 20
249.58503713682117
 42
2.414213562373095
 10
52.11205982723118
 20
247.45487430568332
 10
85.21429681116683
 20
257.52472567794155
 42
2.414213562373095
 10
87.3444596423044
 20
261.51751997678025
  0
LWPOLYLINE
  5
9E
330
17
100
AcDbEntity
  8
CUT
100
AcDbPolyline
 90
8
 70
1
 10
159.5439454552145
 20
164.8745732339256
 42
2.414213562373095
 10
155.21539671463574
 20
166.19505261673888
 10
124.67533842254784
 20
149.93267765132006
 42
2.414213562373095
 10
123.35485903973472
 20
145.60412891074145
 10
129.27699558783502
 20
134.4826047928135
 42
2.414213562373095
 10
133.60554432841377
 20
133.1621254100002
 10
164.14560262050168
 20
149.42450037541897
 42
2.414213562373095
 10
165.4660820033148
 20
153.75304911599764
  0
LWPOLYLINE
  5
9F
330
17
100
AcDbEntity
  8
CUT
100
AcDbPolyline
 90
8
 70
1
 10
277.7823523707568
 20
100.65960567995313
 42
2.414213562373095
 10
273.2815363549123
 20
101.13146921056239
 10
246.39798755689776
 20
79.34994483726018
 42
2.414213562373095
 10
245.92612402628833
 20
74.84912882141583
 10
253.85812423159473
 20
65.0591659643353
 42
2.414213562373095
 10
258.35894024743925
 20
64.58730243372605
 10
285.2424890454538
 20
86.36882680702826
 42
2.414213562373095
 10
285.7143525760632
 20
90.8696428228726
  0
LWPOLYLINE
  5
A0
330
17
100
AcDbEntity
  8
CUT
100
AcDbPolyline
 90
8
 70
1
 10
409.1068982523177
 20
71.88232976483266
 42
2.414213562373095
 10
404.6044426468768
 20
71.42637634502563
 10
382.72804020579383
 20
44.619977552278954
 42
2.414213562373095
 10
383.1839936256008
 20
40.11752194683805
 10
392.9458613940576
 20
32.15097076887133
 42
2.414213562373095
 10
397.4483169994985
 20
32.60692418867836
 10
419.3247194405815
 20
59.41332298142504
 42
2.414213562373095
 10
418.8687660207745
 20
63.91577858686594
  0
LWPOLYLINE
  5
A1
330
17
100
AcDbEntity
  8
CUT
100
AcDbPolyline
 90
8
 70
1
 10
540.9766396721291
 20
63.2645587617657
 42
2.414213562373095
 10
536.7139044778633
 20
61.744990183660406
 10
521.8836599592437
 20
30.48441041427739
 42
2.414213562373095
 10
523.4032285373489
 20
26.221675220011278
 10
534.7871390892053
 20
20.82106594444467
 42
2.414213562373095
 10
539.0498742834711
 20
22.340634522549948
 10
553.8801188020907
 20
53.60121429193296
 42
2.414213562373095
 10
552.3605502239855
 20
57.86394948619906
  0
LWPOLYLINE
  5
A2
330
17
100
AcDbEntity
  8
CUT
100
AcDbPolyline
 90
8
 70
1
 10
669.5600824196529
 20
62.87193933476115
 42
2.414213562373095
 10
665.9030722944265
 20
60.20617922852696
 10
660.5441268792486
 20
26.023702664691726
 42
2.414213562373095
 10
663.2098869854829
 20
22.36669253946509
 10
675.6578408786711
 20
20.415169064573703
 42
2.414213562373095
 10
679.3148510038975
 20
23.08092917080789
 10
684.6737964190754
 20
57.2634057346431
 42
2.414213562373095
 10
682.0080363128411
 20
60.920415859869735
  0
LWPOLYLINE
  5
A3
330
17
100
AcDbEntity
  8
CUT
100
AcDbPolyline
 90
8
 70
1
 10
796.3919636871585
 20
60.92041585986988
 42
2.414213562373095
 10
793.7262035809242
 20
57.26340573464324
 10
799.0851489961021
 20
23.080929170808005
 42
2.414213562373095
 10
802.7421591213285
 20
20.415169064573817
 10
815.1901130145168
 20
22.366692539465205
 42
2.414213562373095
 10
817.8558731207511
 20
26.02370266469184
 10
812.4969277055732
 20
60.20617922852705
 42
2.414213562373095
 10
808.8399175803468
 20
62.87193933476124
  0
LWPOLYLINE
  5
A4
330
17
100
AcDbEntity
  8
CUT
100
AcDbPolyline
 90
8
 70
1
 10
926.0394497760146
 20
57.86394948619903
 42
2.414213562373095
 10
924.5198811979096
 20
53.601214291932905
 10
939.3501257165287
 20
22.34063452254989
 42
2.414213562373095
 10
943.6128609107948
 20
20.821065944444598
 10
954.9967714626512
 20
26.221675220011207
 42
2.414213562373095
 10
956.5163400407562
 20
30.484410414277335
 10
941.6860955221371
 20
61.74499018366035
 42
2.414213562373095
 10
937.423360327871
 20
63.26455876176567
  0
LWPOLYLINE
  5
A5
330
17
100
AcDbEntity
  8
CUT
100
AcDbPolyline
 90
8
 70
1
 10
1059.5312339792251
 20
63.91577858686594
 42
2.414213562373095
 10
1059.0752805594182
 20
59.41332298142504
 10
1080.9516830005011
 20
32.60692418867836
 42
2.414213562373095
 10
1085.4541386059425
 20
32.15097076887133
 10
1095.2160063743993
 20
40.11752194683805
 42
2.414213562373095
 10
1095.6719597942063
 20
44.619977552278954
 10
1073.7955573531233
 20
71.42637634502563
 42
2.414213562373095
 10
1069.293101747682
 20
71.88232976483266
  0
LWPOLYLINE
  5
A6
330
17
100
AcDbEntity
  8
CUT
100
AcDbPolyline
 90
8
 70
1
 10
1192.6856474239369
 20
90.86964282287252
 42
2.414213562373095
 10
1193.1575109545458
 20
86.36882680702817
 10
1220.0410597525608
 20
64.58730243372591
 42
2.414213562373095
 10
1224.541875768405
 20
65.05916596433516
 10
1232.4738759737113
 20
74.84912882141569
 42
2.414213562373095
 10
1232.0020124431023
 20
79.34994483726004
 10
1205.1184636450873
 20
101.1314692105623
 42
2.414213562373095
 10
1200.6176476292433
 20
100.65960567995305
  0
LWPOLYLINE
  5
A7
330
17
100
AcDbEntity
  8
CUT
100
AcDbPolyline
 90
8
 70
1
 10
1312.9339179966853
 20
153.7530491159974
 42
2.414213562373095
 10
1314.2543973794989
 20
149.4245003754188
 10
1344.7944556715863
 20
133.16212540999996
 42
2.414213562373095
 10
1349.1230044121646
 20
134.48260479281325
 10
1355.0451409602654
 20
145.6041289107412
 42
2.414213562373095
 10
1353.7246615774518
 20
149.93267765131984
 10
1323.1846032853643
 20
166.19505261673865
 42
2.414213562373095
 10
1318.856054544786
 20
164.87457323392536
  0
LWPOLYLINE
  5
A8
330
17
100
AcDbEntity
  8
CUT
100
AcDbPolyline
 90
8
 70
1
 10
1391.0555403576957
 20
261.51751997678014
 42
2.414213562373095
 10
1393.1857031888333
 20
257.5247256779413
 10
1426.287940172769
 20
247.4548743056831
 42
2.414213562373095
 10
1430.2807344716077
 20
249.5850371368209
 10
1433.9477901736439
 20
261.6396089864621
 42
2.414213562373095
 10
1431.8176273425063
 20
265.63240328530094
 10
1398.7153903585706
 20
275.70225465755914
 42
2.414213562373095
 10
1394.7225960597318
 20
273.57209182642134
  0
LWPOLYLINE
  5
A9
330
17
100
AcDbEntity
  8
CUT
100
AcDbPolyline
 90
8
 70
1
 10
1414.6257867427996
 20
393.0097260567302
 42
2.414213562373095
 10
1417.4939746179464
 20
389.50922633342475
 10
1451.9246919470781
 20
386.09079040431584
 42
2.414213562373095
 10
1455.4251916703836
 20
388.95897827946237
 10
1456.6700556214466
 20
401.497331988915
 42
2.414213562373095
 10
1453.8018677462999
 20
404.99783171222055
 10
1419.371150417168
 20
408.41626764132945
 42
2.414213562373095
 10
1415.8706506938627
 20
405.5480797661828
  0
TEXT
  5
AA
330
17
100
AcDbEntity
  8
ENGRAVE-LABEL
100
AcDbText
 10
74.71992336948472
 20
466.7589843741926
 30
0.0
 40
11.0
  1
09 BASE-RING-R
 50
30.0
 72
1
 11
74.71992336948472
 21
466.7589843741926
 31
0.0
100
AcDbText
 73
2
  0
ENDSEC
  0
SECTION
  2
OBJECTS
  0
DICTIONARY
  5
A
330
0
100
AcDbDictionary
281
1
  3
ACAD_COLOR
350
B
  3
ACAD_GROUP
350
C
  3
ACAD_LAYOUT
350
D
  3
ACAD_MATERIAL
350
E
  3
ACAD_MLEADERSTYLE
350
F
  3
ACAD_MLINESTYLE
350
10
  3
ACAD_PLOTSETTINGS
350
11
  3
ACAD_PLOTSTYLENAME
350
12
  3
ACAD_SCALELIST
350
14
  3
ACAD_TABLESTYLE
350
15
  3
ACAD_VISUALSTYLE
350
16
  3
EZDXF_META
350
2D
  0
DICTIONARY
  5
B
330
A
100
AcDbDictionary
281
1
  0
DICTIONARY
  5
C
330
A
100
AcDbDictionary
281
1
  0
DICTIONARY
  5
D
330
A
100
AcDbDictionary
281
1
  3
Model
350
1A
  3
Layout1
350
1E
  0
DICTIONARY
  5
E
330
A
100
AcDbDictionary
281
1
  3
ByBlock
350
1F
  3
ByLayer
350
20
  3
Global
350
21
  0
DICTIONARY
  5
F
330
A
100
AcDbDictionary
281
1
  3
Standard
350
2C
  0
DICTIONARY
  5
10
330
A
100
AcDbDictionary
281
1
  3
Standard
350
22
  0
DICTIONARY
  5
11
330
A
100
AcDbDictionary
281
1
  0
ACDBDICTIONARYWDFLT
  5
12
330
A
100
AcDbDictionary
281
1
  3
Normal
350
13
100
AcDbDictionaryWithDefault
340
13
  0
ACDBPLACEHOLDER
  5
13
330
12
  0
DICTIONARY
  5
14
330
A
100
AcDbDictionary
281
1
  0
DICTIONARY
  5
15
330
A
100
AcDbDictionary
281
1
  0
DICTIONARY
  5
16
330
A
100
AcDbDictionary
281
1
  3
2dWireframe
350
5A
  3
Basic
350
5B
  3
Brighten
350
5C
  3
ColorChange
350
5D
  3
Conceptual
350
5E
  3
Dim
350
5F
  3
EdgeColorOff
350
60
  3
Facepattern
350
61
  3
Flat
350
62
  3
FlatWithEdges
350
63
  3
Gouraud
350
64
  3
GouraudWithEdges
350
65
  3
Hidden
350
66
  3
JitterOff
350
67
  3
Linepattern
350
68
  3
Modeling
350
69
  3
OverhangOff
350
6A
  3
Realistic
350
6B
  3
Shaded
350
6C
  3
Shaded with edges
350
6D
  3
Shades of Gray
350
6E
  3
Sketchy
350
6F
  3
Thicken
350
70
  3
Wireframe
350
71
  3
X-Ray
350
72
  0
LAYOUT
  5
1A
330
D
100
AcDbPlotSettings
  1

  4
A3
  6

 40
7.5
 41
20.0
 42
7.5
 43
20.0
 44
420.0
 45
297.0
 46
0.0
 47
0.0
 48
0.0
 49
0.0
140
0.0
141
0.0
142
1.0
143
1.0
 70
1024
 72
1
 73
0
 74
5
  7

 75
16
 76
0
 77
2
 78
300
147
1.0
148
0.0
149
0.0
100
AcDbLayout
  1
Model
 70
1
 71
0
 10
0.0
 20
0.0
 11
420.0
 21
297.0
 12
0.0
 22
0.0
 32
0.0
 14
1e+20
 24
1e+20
 34
1e+20
 15
-1e+20
 25
-1e+20
 35
-1e+20
146
0.0
 13
0.0
 23
0.0
 33
0.0
 16
1.0
 26
0.0
 36
0.0
 17
0.0
 27
1.0
 37
0.0
 76
1
330
17
  0
LAYOUT
  5
1E
330
D
100
AcDbPlotSettings
  1

  4
A3
  6

 40
7.5
 41
20.0
 42
7.5
 43
20.0
 44
420.0
 45
297.0
 46
0.0
 47
0.0
 48
0.0
 49
0.0
140
0.0
141
0.0
142
1.0
143
1.0
 70
0
 72
1
 73
0
 74
5
  7

 75
16
 76
0
 77
2
 78
300
147
1.0
148
0.0
149
0.0
100
AcDbLayout
  1
Layout1
 70
1
 71
1
 10
0.0
 20
0.0
 11
420.0
 21
297.0
 12
0.0
 22
0.0
 32
0.0
 14
1e+20
 24
1e+20
 34
1e+20
 15
-1e+20
 25
-1e+20
 35
-1e+20
146
0.0
 13
0.0
 23
0.0
 33
0.0
 16
1.0
 26
0.0
 36
0.0
 17
0.0
 27
1.0
 37
0.0
 76
1
330
1B
  0
MATERIAL
  5
1F
102
{ACAD_REACTORS
330
E
102
}
330
E
100
AcDbMaterial
  1
ByBlock
  2

 70
0
 40
1.0
 71
1
 41
1.0
 91
-1023410177
 42
1.0
 72
1
  3

 73
1
 74
1
 75
1
 44
0.5
 73
0
 45
1.0
 46
1.0
 77
1
  4

 78
1
 79
1
170
1
 48
1.0
171
1
  6

172
1
173
1
174
1
140
1.0
141
1.0
175
1
  7

176
1
177
1
178
1
143
1.0
179
1
  8

270
1
271
1
272
1
145
1.0
146
1.0
273
1
  9

274
1
275
1
276
1
 42
1.0
 72
1
  3

 73
1
 74
1
 75
1
 94
63
  0
MATERIAL
  5
20
102
{ACAD_REACTORS
330
E
102
}
330
E
100
AcDbMaterial
  1
ByLayer
  2

 70
0
 40
1.0
 71
1
 41
1.0
 91
-1023410177
 42
1.0
 72
1
  3

 73
1
 74
1
 75
1
 44
0.5
 73
0
 45
1.0
 46
1.0
 77
1
  4

 78
1
 79
1
170
1
 48
1.0
171
1
  6

172
1
173
1
174
1
140
1.0
141
1.0
175
1
  7

176
1
177
1
178
1
143
1.0
179
1
  8

270
1
271
1
272
1
145
1.0
146
1.0
273
1
  9

274
1
275
1
276
1
 42
1.0
 72
1
  3

 73
1
 74
1
 75
1
 94
63
  0
MATERIAL
  5
21
102
{ACAD_REACTORS
330
E
102
}
330
E
100
AcDbMaterial
  1
Global
  2

 70
0
 40
1.0
 71
1
 41
1.0
 91
-1023410177
 42
1.0
 72
1
  3

 73
1
 74
1
 75
1
 44
0.5
 73
0
 45
1.0
 46
1.0
 77
1
  4

 78
1
 79
1
170
1
 48
1.0
171
1
  6

172
1
173
1
174
1
140
1.0
141
1.0
175
1
  7

176
1
177
1
178
1
143
1.0
179
1
  8

270
1
271
1
272
1
145
1.0
146
1.0
273
1
  9

274
1
275
1
276
1
 42
1.0
 72
1
  3

 73
1
 74
1
 75
1
 94
63
  0
MLINESTYLE
  5
22
102
{ACAD_REACTORS
330
10
102
}
330
10
100
AcDbMlineStyle
  2
Standard
 70
0
  3

 62
256
 51
90.0
 52
90.0
 71
2
 49
0.5
 62
256
  6
BYLAYER
 49
-0.5
 62
256
  6
BYLAYER
  0
MLEADERSTYLE
  5
2C
102
{ACAD_REACTORS
330
F
102
}
330
F
100
AcDbMLeaderStyle
179
2
170
2
171
1
172
0
 90
2
 40
0.0
 41
0.0
173
1
 91
-1056964608
 92
-2
290
1
 42
2.0
291
1
 43
8.0
  3
Standard
 44
4.0
300

342
29
174
1
175
1
176
0
178
1
 93
-1056964608
 45
4.0
292
0
297
0
 46
4.0
 94
-1056964608
 47
1.0
 49
1.0
140
1.0
294
1
141
0.0
177
0
142
1.0
295
0
296
0
143
3.75
271
0
272
9
273
9
  0
DICTIONARY
  5
2D
330
A
100
AcDbDictionary
280
1
281
1
  3
CREATED_BY_EZDXF
350
2E
  3
WRITTEN_BY_EZDXF
350
AD
  0
DICTIONARYVAR
  5
2E
330
2D
100
DictionaryVariables
280
0
  1
1.4.4 @ 2026-10-02T17:38:47.912897+00:00
  0
VISUALSTYLE
  5
5A
102
{ACAD_REACTORS
330
16
102
}
330
16
100
AcDbVisualStyle
  2
2dWireframe
 70
4
 90
0
 40
0.6
 62
7
290
0
291
0
  0
VISUALSTYLE
  5
5B
102
{ACAD_REACTORS
330
16
102
}
330
16
100
AcDbVisualStyle
  2
Basic
 70
7
 90
1
 40
0.6
 62
7
290
0
291
1
  0
VISUALSTYLE
  5
5C
102
{ACAD_REACTORS
330
16
102
}
330
16
100
AcDbVisualStyle
  2
Brighten
 70
12
 90
2
 40
0.6
 62
7
290
0
291
1
  0
VISUALSTYLE
  5
5D
102
{ACAD_REACTORS
330
16
102
}
330
16
100
AcDbVisualStyle
  2
ColorChange
 70
16
 90
2
 40
0.6
 62
8
290
0
291
1
  0
VISUALSTYLE
  5
5E
102
{ACAD_REACTORS
330
16
102
}
330
16
100
AcDbVisualStyle
  2
Conceptual
 70
9
 90
3
 40
0.6
 62
7
290
0
291
0
  0
VISUALSTYLE
  5
5F
102
{ACAD_REACTORS
330
16
102
}
330
16
100
AcDbVisualStyle
  2
Dim
 70
11
 90
2
 40
0.6
 62
7
290
0
291
1
  0
VISUALSTYLE
  5
60
102
{ACAD_REACTORS
330
16
102
}
330
16
100
AcDbVisualStyle
  2
EdgeColorOff
 70
22
 90
2
 40
0.6
 62
7
290
0
291
1
  0
VISUALSTYLE
  5
61
102
{ACAD_REACTORS
330
16
102
}
330
16
100
AcDbVisualStyle
  2
Facepattern
 70
15
 90
2
 40
0.6
 62
7
290
0
291
1
  0
VISUALSTYLE
  5
62
102
{ACAD_REACTORS
330
16
102
}
330
16
100
AcDbVisualStyle
  2
Flat
 70
0
 90
2
 40
0.6
 62
7
290
0
291
1
  0
VISUALSTYLE
  5
63
102
{ACAD_REACTORS
330
16
102
}
330
16
100
AcDbVisualStyle
  2
FlatWithEdges
 70
1
 90
2
 40
0.6
 62
7
290
0
291
1
  0
VISUALSTYLE
  5
64
102
{ACAD_REACTORS
330
16
102
}
330
16
100
AcDbVisualStyle
  2
Gouraud
 70
2
 90
2
 40
0.6
 62
7
290
0
291
1
  0
VISUALSTYLE
  5
65
102
{ACAD_REACTORS
330
16
102
}
330
16
100
AcDbVisualStyle
  2
GouraudWithEdges
 70
3
 90
2
 40
0.6
 62
7
290
0
291
1
  0
VISUALSTYLE
  5
66
102
{ACAD_REACTORS
330
16
102
}
330
16
100
AcDbVisualStyle
  2
Hidden
 70
6
 90
1
 40
0.6
 62
7
290
0
291
0
  0
VISUALSTYLE
  5
67
102
{ACAD_REACTORS
330
16
102
}
330
16
100
AcDbVisualStyle
  2
JitterOff
 70
20
 90
2
 40
0.6
 62
7
290
0
291
1
  0
VISUALSTYLE
  5
68
102
{ACAD_REACTORS
330
16
102
}
330
16
100
AcDbVisualStyle
  2
Linepattern
 70
14
 90
2
 40
0.6
 62
7
290
0
291
1
  0
VISUALSTYLE
  5
69
102
{ACAD_REACTORS
330
16
102
}
330
16
100
AcDbVisualStyle
  2
Modeling
 70
10
 90
2
 40
0.6
 62
7
290
0
291
0
  0
VISUALSTYLE
  5
6A
102
{ACAD_REACTORS
330
16
102
}
330
16
100
AcDbVisualStyle
  2
OverhangOff
 70
21
 90
2
 40
0.6
 62
7
290
0
291
1
  0
VISUALSTYLE
  5
6B
102
{ACAD_REACTORS
330
16
102
}
330
16
100
AcDbVisualStyle
  2
Realistic
 70
8
 90
2
 40
0.6
 62
7
290
0
291
0
  0
VISUALSTYLE
  5
6C
102
{ACAD_REACTORS
330
16
102
}
330
16
100
AcDbVisualStyle
  2
Shaded
 70
27
 90
2
 40
0.6
 62
7
290
0
291
0
  0
VISUALSTYLE
  5
6D
102
{ACAD_REACTORS
330
16
102
}
330
16
100
AcDbVisualStyle
  2
Shaded with edges
 70
26
 90
2
 40
0.6
 62
7
290
0
291
0
  0
VISUALSTYLE
  5
6E
102
{ACAD_REACTORS
330
16
102
}
330
16
100
AcDbVisualStyle
  2
Shades of Gray
 70
23
 90
2
 40
0.6
 62
7
290
0
291
0
  0
VISUALSTYLE
  5
6F
102
{ACAD_REACTORS
330
16
102
}
330
16
100
AcDbVisualStyle
  2
Sketchy
 70
24
 90
1
 40
0.6
 62
7
290
0
291
0
  0
VISUALSTYLE
  5
70
102
{ACAD_REACTORS
330
16
102
}
330
16
100
AcDbVisualStyle
  2
Thicken
 70
13
 90
2
 40
0.6
 62
7
290
0
291
1
  0
VISUALSTYLE
  5
71
102
{ACAD_REACTORS
330
16
102
}
330
16
100
AcDbVisualStyle
  2
Wireframe
 70
5
 90
0
 40
0.6
 62
7
290
0
291
0
  0
VISUALSTYLE
  5
72
102
{ACAD_REACTORS
330
16
102
}
330
16
100
AcDbVisualStyle
  2
X-Ray
 70
25
 90
2
 40
0.5
 62
7
290
0
291
0
  0
DICTIONARYVAR
  5
AD
330
2D
100
DictionaryVariables
280
0
  1
1.4.4 @ 2026-10-02T17:38:47.965766+00:00
  0
ENDSEC
  0
EOF
