  0
SECTION
  2
HEADER
  9
$ACADVER
  1
AC1024
  9
$ACADMAINTVER
 70
6
  9
$DWGCODEPAGE
  3
ANSI_1252
  9
$LASTSAVEDBY
  1
ezdxf
  9
$INSBASE
 10
0.0
 20
0.0
 30
0.0
  9
$EXTMIN
 10
1e+20
 20
1e+20
 30
1e+20
  9
$EXTMAX
 10
-1e+20
 20
-1e+20
 30
-1e+20
  9
$LIMMIN
 10
0.0
 20
0.0
  9
$LIMMAX
 10
420.0
 20
297.0
  9
$ORTHOMODE
 70
0
  9
$REGENMODE
 70
1
  9
$FILLMODE
 70
1
  9
$QTEXTMODE
 70
0
  9
$MIRRTEXT
 70
1
  9
$LTSCALE
 40
1.0
  9
$ATTMODE
 70
1
  9
$TEXTSIZE
 40
2.5
  9
$TRACEWID
 40
1.0
  9
$TEXTSTYLE
  7
OpenSans
  9
$CLAYER
  8
0
  9
$CELTYPE
  6
ByLayer
  9
$CECOLOR
 62
256
  9
$CELTSCALE
 40
1.0
  9
$DISPSILH
 70
0
  9
$DIMSCALE
 40
1.0
  9
$DIMASZ
 40
0.175
  9
$DIMEXO
 40
0.125
  9
$DIMDLI
 40
3.75
  9
$DIMRND
 40
0.0
  9
$DIMDLE
 40
0.0
  9
$DIMEXE
 40
0.375
  9
$DIMTP
 40
0.0
  9
$DIMTM
 40
0.0
  9
$DIMTXT
 40
0.25
  9
$DIMCEN
 40
2.5
  9
$DIMTSZ
 40
0.0
  9
$DIMTOL
 70
0
  9
$DIMLIM
 70
0
  9
$DIMTIH
 70
0
  9
$DIMTOH
 70
0
  9
$DIMSE1
 70
0
  9
$DIMSE2
 70
0
  9
$DIMTAD
 70
1
  9
$DIMZIN
 70
12
  9
$DIMBLK
  1
ARCHTICK
  9
$DIMASO
 70
1
  9
$DIMSHO
 70
1
  9
$DIMPOST
  1

  9
$DIMAPOST
  1

  9
$DIMALT
 70
0
  9
$DIMALTD
 70
3
  9
$DIMALTF
 40
0.03937007874
  9
$DIMLFAC
 40
100.0
  9
$DIMTOFL
 70
1
  9
$DIMTVP
 40
0.0
  9
$DIMTIX
 70
0
  9
$DIMSOXD
 70
0
  9
$DIMSAH
 70
0
  9
$DIMBLK1
  1

  9
$DIMBLK2
  1

  9
$DIMSTYLE
  2
EZDXF
  9
$DIMCLRD
 70
0
  9
$DIMCLRE
 70
0
  9
$DIMCLRT
 70
0
  9
$DIMTFAC
 40
0.5
  9
$DIMGAP
 40
0.1
  9
$DIMJUST
 70
0
  9
$DIMSD1
 70
0
  9
$DIMSD2
 70
0
  9
$DIMTOLJ
 70
0
  9
$DIMTZIN
 70
8
  9
$DIMALTZ
 70
0
  9
$DIMALTTZ
 70
0
  9
$DIMUPT
 70
1
  9
$DIMDEC
 70
2
  9
$DIMTDEC
 70
2
  9
$DIMALTU
 70
2
  9
$DIMALTTD
 70
3
  9
$DIMTXSTY
  7
OpenSansCondensed-Light
  9
$DIMAUNIT
 70
0
  9
$DIMADEC
 70
2
  9
$DIMALTRND
 40
0.0
  9
$DIMAZIN
 70
3
  9
$DIMDSEP
 70
46
  9
$DIMATFIT
 70
3
  9
$DIMFRAC
 70
0
  9
$DIMLDRBLK
  1

  9
$DIMLUNIT
 70
2
  9
$DIMLWD
 70
-2
  9
$DIMLWE
 70
-2
  9
$DIMTMOVE
 70
2
  9
$DIMFXL
 40
1.0
  9
$DIMFXLON
 70
0
  9
$DIMJOGANG
 40
0.785398163397
  9
$DIMTFILL
 70
0
  9
$DIMTFILLCLR
 70
0
  9
$DIMARCSYM
 70
0
  9
$DIMLTYPE
  6

  9
$DIMLTEX1
  6

  9
$DIMLTEX2
  6

  9
$DIMTXTDIRECTION
 70
0
  9
$LUNITS
 70
2
  9
$LUPREC
 70
4
  9
$SKETCHINC
 40
1.0
  9
$FILLETRAD
 40
10.0
  9
$AUNITS
 70
0
  9
$AUPREC
 70
2
  9
$MENU
  1
.
  9
$ELEVATION
 40
0.0
  9
$PELEVATION
 40
0.0
  9
$THICKNESS
 40
0.0
  9
$LIMCHECK
 70
0
  9
$CHAMFERA
 40
0.0
  9
$CHAMFERB
 40
0.0
  9
$CHAMFERC
 40
0.0
  9
$CHAMFERD
 40
0.0
  9
$SKPOLY
 70
0
  9
$TDCREATE
 40
2461316.7352662035
  9
$TDUCREATE
 40
2458532.153996898
  9
$TDUPDATE
 40
2461316.735277778
  9
$TDUUPDATE
 40
2458532.1544311
  9
$TDINDWG
 40
0.0
  9
$TDUSRTIMER
 40
0.0
  9
$USRTIMER
 70
1
  9
$ANGBASE
 50
0.0
  9
$ANGDIR
 70
0
  9
$PDMODE
 70
0
  9
$PDSIZE
 40
0.0
  9
$PLINEWID
 40
0.0
  9
$SPLFRAME
 70
0
  9
$SPLINETYPE
 70
6
  9
$SPLINESEGS
 70
8
  9
$HANDSEED
  5
AE
  9
$SURFTAB1
 70
6
  9
$SURFTAB2
 70
6
  9
$SURFTYPE
 70
6
  9
$SURFU
 70
6
  9
$SURFV
 70
6
  9
$UCSBASE
  2

  9
$UCSNAME
  2

  9
$UCSORG
 10
0.0
 20
0.0
 30
0.0
  9
$UCSXDIR
 10
1.0
 20
0.0
 30
0.0
  9
$UCSYDIR
 10
0.0
 20
1.0
 30
0.0
  9
$UCSORTHOREF
  2

  9
$UCSORTHOVIEW
 70
0
  9
$UCSORGTOP
 10
0.0
 20
0.0
 30
0.0
  9
$UCSORGBOTTOM
 10
0.0
 20
0.0
 30
0.0
  9
$UCSORGLEFT
 10
0.0
 20
0.0
 30
0.0
  9
$UCSORGRIGHT
 10
0.0
 20
0.0
 30
0.0
  9
$UCSORGFRONT
 10
0.0
 20
0.0
 30
0.0
  9
$UCSORGBACK
 10
0.0
 20
0.0
 30
0.0
  9
$PUCSBASE
  2

  9
$PUCSNAME
  2

  9
$PUCSORG
 10
0.0
 20
0.0
 30
0.0
  9
$PUCSXDIR
 10
1.0
 20
0.0
 30
0.0
  9
$PUCSYDIR
 10
0.0
 20
1.0
 30
0.0
  9
$PUCSORTHOREF
  2

  9
$PUCSORTHOVIEW
 70
0
  9
$PUCSORGTOP
 10
0.0
 20
0.0
 30
0.0
  9
$PUCSORGBOTTOM
 10
0.0
 20
0.0
 30
0.0
  9
$PUCSORGLEFT
 10
0.0
 20
0.0
 30
0.0
  9
$PUCSORGRIGHT
 10
0.0
 20
0.0
 30
0.0
  9
$PUCSORGFRONT
 10
0.0
 20
0.0
 30
0.0
  9
$PUCSORGBACK
 10
0.0
 20
0.0
 30
0.0
  9
$USERI1
 70
0
  9
$USERI2
 70
0
  9
$USERI3
 70
0
  9
$USERI4
 70
0
  9
$USERI5
 70
0
  9
$USERR1
 40
0.0
  9
$USERR2
 40
0.0
  9
$USERR3
 40
0.0
  9
$USERR4
 40
0.0
  9
$USERR5
 40
0.0
  9
$WORLDVIEW
 70
1
  9
$SHADEDGE
 70
3
  9
$SHADEDIF
 70
70
  9
$TILEMODE
 70
1
  9
$MAXACTVP
 70
64
  9
$PINSBASE
 10
0.0
 20
0.0
 30
0.0
  9
$PLIMCHECK
 70
0
  9
$PEXTMIN
 10
1e+20
 20
1e+20
 30
1e+20
  9
$PEXTMAX
 10
-1e+20
 20
-1e+20
 30
-1e+20
  9
$PLIMMIN
 10
0.0
 20
0.0
  9
$PLIMMAX
 10
420.0
 20
297.0
  9
$UNITMODE
 70
0
  9
$VISRETAIN
 70
1
  9
$PLINEGEN
 70
0
  9
$PSLTSCALE
 70
1
  9
$TREEDEPTH
 70
3020
  9
$CMLSTYLE
  2
Standard
  9
$CMLJUST
 70
0
  9
$CMLSCALE
 40
20.0
  9
$PROXYGRAPHICS
 70
1
  9
$MEASUREMENT
 70
1
  9
$CELWEIGHT
370
-1
  9
$ENDCAPS
280
0
  9
$JOINSTYLE
280
0
  9
$LWDISPLAY
290
0
  9
$INSUNITS
 70
4
  9
$HYPERLINKBASE
  1

  9
$STYLESHEET
  1

  9
$XEDIT
290
1
  9
$CEPSNTYPE
380
0
  9
$PSTYLEMODE
290
1
  9
$FINGERPRINTGUID
  2
{45AA0A3E-5236-4719-AE3D-3570F273F720}
  9
$VERSIONGUID
  2
{6C2D64EF-254C-4BB9-B822-121C31CF535D}
  9
$EXTNAMES
290
1
  9
$PSVPSCALE
 40
0.0
  9
$OLESTARTUP
290
0
  9
$SORTENTS
280
127
  9
$INDEXCTL
280
0
  9
$HIDETEXT
280
1
  9
$XCLIPFRAME
280
1
  9
$HALOGAP
280
0
  9
$OBSCOLOR
 70
257
  9
$OBSLTYPE
280
0
  9
$INTERSECTIONDISPLAY
280
0
  9
$INTERSECTIONCOLOR
 70
257
  9
$DIMASSOC
280
2
  9
$PROJECTNAME
  1

  9
$CAMERADISPLAY
290
0
  9
$LENSLENGTH
 40
50.0
  9
$CAMERAHEIGHT
 40
0.0
  9
$STEPSPERSEC
 40
24.0
  9
$STEPSIZE
 40
100.0
  9
$3DDWFPREC
 40
2.0
  9
$PSOLWIDTH
 40
0.005
  9
$PSOLHEIGHT
 40
0.08
  9
$LOFTANG1
 40
1.570796326795
  9
$LOFTANG2
 40
1.570796326795
  9
$LOFTMAG1
 40
0.0
  9
$LOFTMAG2
 40
0.0
  9
$LOFTPARAM
 70
7
  9
$LOFTNORMALS
280
1
  9
$LATITUDE
 40
37.795
  9
$LONGITUDE
 40
-122.394
  9
$NORTHDIRECTION
 40
0.0
  9
$TIMEZONE
 70
-8000
  9
$LIGHTGLYPHDISPLAY
280
1
  9
$TILEMODELIGHTSYNCH
280
1
  9
$CMATERIAL
347
20
  9
$SOLIDHIST
280
0
  9
$SHOWHIST
280
1
  9
$DWFFRAME
280
2
  9
$DGNFRAME
280
2
  9
$REALWORLDSCALE
290
1
  9
$INTERFERECOLOR
 62
256
  9
$CSHADOW
280
0
  9
$SHADOWPLANELOCATION
 40
0.0
  0
ENDSEC
  0
SECTION
  2
CLASSES
  0
CLASS
  1
ACDBDICTIONARYWDFLT
  2
AcDbDictionaryWithDefault
  3
ObjectDBX Classes
 90
0
 91
0
280
0
281
0
  0
CLASS
  1
SUN
  2
AcDbSun
  3
SCENEOE
 90
1153
 91
0
280
0
281
0
  0
CLASS
  1
VISUALSTYLE
  2
AcDbVisualStyle
  3
ObjectDBX Classes
 90
4095
 91
0
280
0
281
0
  0
CLASS
  1
MATERIAL
  2
AcDbMaterial
  3
ObjectDBX Classes
 90
1153
 91
0
280
0
281
0
  0
CLASS
  1
SCALE
  2
AcDbScale
  3
ObjectDBX Classes
 90
1153
 91
0
280
0
281
0
  0
CLASS
  1
TABLESTYLE
  2
AcDbTableStyle
  3
ObjectDBX Classes
 90
4095
 91
0
280
0
281
0
  0
CLASS
  1
MLEADERSTYLE
  2
AcDbMLeaderStyle
  3
ACDB_MLEADERSTYLE_CLASS
 90
4095
 91
0
280
0
281
0
  0
CLASS
  1
DICTIONARYVAR
  2
AcDbDictionaryVar
  3
ObjectDBX Classes
 90
0
 91
0
280
0
281
0
  0
CLASS
  1
CELLSTYLEMAP
  2
AcDbCellStyleMap
  3
ObjectDBX Classes
 90
1152
 91
0
280
0
281
0
  0
CLASS
  1
MENTALRAYRENDERSETTINGS
  2
AcDbMentalRayRenderSettings
  3
SCENEOE
 90
1024
 91
0
280
0
281
0
  0
CLASS
  1
ACDBDETAILVIEWSTYLE
  2
AcDbDetailViewStyle
  3
ObjectDBX Classes
 90
1025
 91
0
280
0
281
0
  0
CLASS
  1
ACDBSECTIONVIEWSTYLE
  2
AcDbSectionViewStyle
  3
ObjectDBX Classes
 90
1025
 91
0
280
0
281
0
  0
CLASS
  1
RASTERVARIABLES
  2
AcDbRasterVariables
  3
ISM
 90
0
 91
0
280
0
281
0
  0
CLASS
  1
LAYOUT
  2
AcDbLayout
  3
ObjectDBX Classes
 90
0
 91
0
280
0
281
0
  0
CLASS
  1
ACDBPLACEHOLDER
  2
AcDbPlaceHolder
  3
ObjectDBX Classes
 90
0
 91
0
280
0
281
0
  0
ENDSEC
  0
SECTION
  2
TABLES
  0
TABLE
  2
VPORT
  5
8
330
0
100
AcDbSymbolTable
 70
1
  0
VPORT
  5
23
330
8
100
AcDbSymbolTableRecord
100
AcDbViewportTableRecord
  2
*Active
 70
0
 10
0.0
 20
0.0
 11
1.0
 21
1.0
 12
0.0
 22
0.0
 13
0.0
 23
0.0
 14
0.5
 24
0.5
 15
0.5
 25
0.5
 16
0.0
 26
0.0
 36
1.0
 17
0.0
 27
0.0
 37
0.0
 40
1000.0
 41
1.34
 42
50.0
 43
0.0
 44
0.0
 50
0.0
 51
0.0
 71
0
 72
1000
 73
1
 74
3
 75
0
 76
0
 77
0
 78
0
281
0
 65
0
146
0.0
  0
ENDTAB
  0
TABLE
  2
LTYPE
  5
2
330
0
100
AcDbSymbolTable
 70
21
  0
LTYPE
  5
24
330
2
100
AcDbSymbolTableRecord
100
AcDbLinetypeTableRecord
  2
ByBlock
 70
0
  3

 72
65
 73
0
 40
0.0
  0
LTYPE
  5
25
330
2
100
AcDbSymbolTableRecord
100
AcDbLinetypeTableRecord
  2
ByLayer
 70
0
  3

 72
65
 73
0
 40
0.0
  0
LTYPE
  5
26
330
2
100
AcDbSymbolTableRecord
100
AcDbLinetypeTableRecord
  2
Continuous
 70
0
  3

 72
65
 73
0
 40
0.0
  0
LTYPE
  5
2F
330
2
100
AcDbSymbolTableRecord
100
AcDbLinetypeTableRecord
  2
CENTER
 70
0
  3
Center ____ _ ____ _ ____ _ ____ _ ____ _ ____
 72
65
 73
4
 40
5.08
 49
3.175
 74
0
 49
-0.635
 74
0
 49
0.635
 74
0
 49
-0.635
 74
0
  0
LTYPE
  5
30
330
2
100
AcDbSymbolTableRecord
100
AcDbLinetypeTableRecord
  2
CENTERX2
 70
0
  3
Center (2x) ________  __  ________  __  ________
 72
65
 73
4
 40
8.89
 49
6.35
 74
0
 49
-0.635
 74
0
 49
1.27
 74
0
 49
-0.635
 74
0
  0
LTYPE
  5
31
330
2
100
AcDbSymbolTableRecord
100
AcDbLinetypeTableRecord
  2
CENTER2
 70
0
  3
Center (.5x) ____ _ ____ _ ____ _ ____ _ ____
 72
65
 73
4
 40
2.54
 49
1.587
 74
0
 49
-0.318
 74
0
 49
0.318
 74
0
 49
-0.318
 74
0
  0
LTYPE
  5
32
330
2
100
AcDbSymbolTableRecord
100
AcDbLinetypeTableRecord
  2
DASHED
 70
0
  3
Dashed __ __ __ __ __ __ __ __ __ __ __ __ __ _
 72
65
 73
2
 40
1.524
 49
1.27
 74
0
 49
-0.254
 74
0
  0
LTYPE
  5
33
330
2
100
AcDbSymbolTableRecord
100
AcDbLinetypeTableRecord
  2
DASHEDX2
 70
0
  3
Dashed (2x) ____  ____  ____  ____  ____  ____
 72
65
 73
2
 40
3.048
 49
2.54
 74
0
 49
-0.508
 74
0
  0
LTYPE
  5
34
330
2
100
AcDbSymbolTableRecord
100
AcDbLinetypeTableRecord
  2
DASHED2
 70
0
  3
Dashed (.5x) _ _ _ _ _ _ _ _ _ _ _ _ _ _
 72
65
 73
2
 40
0.762
 49
0.635
 74
0
 49
-0.127
 74
0
  0
LTYPE
  5
35
330
2
100
AcDbSymbolTableRecord
100
AcDbLinetypeTableRecord
  2
PHANTOM
 70
0
  3
Phantom ______  __  __  ______  __  __  ______
 72
65
 73
6
 40
6.35
 49
3.175
 74
0
 49
-0.635
 74
0
 49
0.635
 74
0
 49
-0.635
 74
0
 49
0.635
 74
0
 49
-0.635
 74
0
  0
LTYPE
  5
36
330
2
100
AcDbSymbolTableRecord
100
AcDbLinetypeTableRecord
  2
PHANTOMX2
 70
0
  3
Phantom (2x)____________    ____    ____    ____________
 72
65
 73
6
 40
10.795
 49
6.35
 74
0
 49
-0.635
 74
0
 49
1.27
 74
0
 49
-0.635
 74
0
 49
1.27
 74
0
 49
-0.635
 74
0
  0
LTYPE
  5
37
330
2
100
AcDbSymbolTableRecord
100
AcDbLinetypeTableRecord
  2
PHANTOM2
 70
0
  3
Phantom (.5x) ___ _ _ ___ _ _ ___ _ _ ___ _ _ ___
 72
65
 73
6
 40
3.175
 49
1.587
 74
0
 49
-0.318
 74
0
 49
0.318
 74
0
 49
-0.318
 74
0
 49
0.318
 74
0
 49
-0.318
 74
0
  0
LTYPE
  5
38
330
2
100
AcDbSymbolTableRecord
100
AcDbLinetypeTableRecord
  2
DASHDOT
 70
0
  3
Dash dot __ . __ . __ . __ . __ . __ . __ . __
 72
65
 73
4
 40
3.556
 49
2.54
 74
0
 49
-0.508
 74
0
 49
0.0
 74
0
 49
-0.508
 74
0
  0
LTYPE
  5
39
330
2
100
AcDbSymbolTableRecord
100
AcDbLinetypeTableRecord
  2
DASHDOTX2
 70
0
  3
Dash dot (2x) ____  .  ____  .  ____  .  ____
 72
65
 73
4
 40
6.096
 49
5.08
 74
0
 49
-0.508
 74
0
 49
0.0
 74
0
 49
-0.508
 74
0
  0
LTYPE
  5
3A
330
2
100
AcDbSymbolTableRecord
100
AcDbLinetypeTableRecord
  2
DASHDOT2
 70
0
  3
Dash dot (.5x) _ . _ . _ . _ . _ . _ . _ . _
 72
65
 73
4
 40
1.778
 49
1.27
 74
0
 49
-0.254
 74
0
 49
0.0
 74
0
 49
-0.254
 74
0
  0
LTYPE
  5
3B
330
2
100
AcDbSymbolTableRecord
100
AcDbLinetypeTableRecord
  2
DOT
 70
0
  3
Dot .  .  .  .  .  .  .  .  .  .  .  .  .  .  .  .
 72
65
 73
2
 40
0.508
 49
0.0
 74
0
 49
-0.508
 74
0
  0
LTYPE
  5
3C
330
2
100
AcDbSymbolTableRecord
100
AcDbLinetypeTableRecord
  2
DOTX2
 70
0
  3
Dot (2x) .    .    .    .    .    .    .    . 
 72
65
 73
2
 40
1.016
 49
0.0
 74
0
 49
-1.016
 74
0
  0
LTYPE
  5
3D
330
2
100
AcDbSymbolTableRecord
100
AcDbLinetypeTableRecord
  2
DOT2
 70
0
  3
Dot (.5) . . . . . . . . . . . . . . . . . . . 
 72
65
 73
2
 40
0.254
 49
0.0
 74
0
 49
-0.254
 74
0
  0
LTYPE
  5
3E
330
2
100
AcDbSymbolTableRecord
100
AcDbLinetypeTableRecord
  2
DIVIDE
 70
0
  3
Divide __ . . __ . . __ . . __ . . __ . . __
 72
65
 73
6
 40
4.064
 49
2.54
 74
0
 49
-0.508
 74
0
 49
0.0
 74
0
 49
-0.508
 74
0
 49
0.0
 74
0
 49
-0.508
 74
0
  0
LTYPE
  5
3F
330
2
100
AcDbSymbolTableRecord
100
AcDbLinetypeTableRecord
  2
DIVIDEX2
 70
0
  3
Divide (2x) ____  . .  ____  . .  ____  . .  ____
 72
65
 73
6
 40
6.604
 49
5.08
 74
0
 49
-0.508
 74
0
 49
0.0
 74
0
 49
-0.508
 74
0
 49
0.0
 74
0
 49
-0.508
 74
0
  0
LTYPE
  5
40
330
2
100
AcDbSymbolTableRecord
100
AcDbLinetypeTableRecord
  2
DIVIDE2
 70
0
  3
Divide(.5x) _ . _ . _ . _ . _ . _ . _ . _
 72
65
 73
6
 40
2.032
 49
1.27
 74
0
 49
-0.254
 74
0
 49
0.0
 74
0
 49
-0.254
 74
0
 49
0.0
 74
0
 49
-0.254
 74
0
  0
ENDTAB
  0
TABLE
  2
LAYER
  5
1
330
0
100
AcDbSymbolTable
 70
4
  0
LAYER
  5
27
330
1
100
AcDbSymbolTableRecord
100
AcDbLayerTableRecord
  2
0
 70
0
 62
7
  6
Continuous
370
-3
390
13
347
21
  0
LAYER
  5
28
330
1
100
AcDbSymbolTableRecord
100
AcDbLayerTableRecord
  2
Defpoints
 70
0
 62
7
  6
Continuous
290
0
370
-3
390
13
347
21
  0
LAYER
  5
8A
330
1
100
AcDbSymbolTableRecord
100
AcDbLayerTableRecord
  2
CUT
 70
0
 62
1
  6
Continuous
370
-3
390
13
347
21
  0
LAYER
  5
8B
330
1
100
AcDbSymbolTableRecord
100
AcDbLayerTableRecord
  2
ENGRAVE-LABEL
 70
0
 62
3
  6
Continuous
370
-3
390
13
347
21
  0
ENDTAB
  0
TABLE
  2
STYLE
  5
5
330
0
100
AcDbSymbolTable
 70
26
  0
STYLE
  5
29
330
5
100
AcDbSymbolTableRecord
100
AcDbTextStyleTableRecord
  2
Standard
 70
0
 40
0.0
 41
1.0
 50
0.0
 71
0
 42
2.5
  3
txt
  4

  0
STYLE
  5
41
330
5
100
AcDbSymbolTableRecord
100
AcDbTextStyleTableRecord
  2
OpenSans-Light
 70
0
 40
0.0
 41
1.0
 50
0.0
 71
0
 42
2.5
  3
OpenSans-Light.ttf
  4

  0
STYLE
  5
42
330
5
100
AcDbSymbolTableRecord
100
AcDbTextStyleTableRecord
  2
OpenSans-Light-Italic
 70
0
 40
0.0
 41
1.0
 50
0.0
 71
0
 42
2.5
  3
OpenSans-LightItalic.ttf
  4

  0
STYLE
  5
43
330
5
100
AcDbSymbolTableRecord
100
AcDbTextStyleTableRecord
  2
OpenSans
 70
0
 40
0.0
 41
1.0
 50
0.0
 71
0
 42
2.5
  3
OpenSans-Regular.ttf
  4

  0
STYLE
  5
44
330
5
100
AcDbSymbolTableRecord
100
AcDbTextStyleTableRecord
  2
OpenSans-Italic
 70
0
 40
0.0
 41
1.0
 50
0.0
 71
0
 42
2.5
  3
OpenSans-Italic.ttf
  4

  0
STYLE
  5
45
330
5
100
AcDbSymbolTableRecord
100
AcDbTextStyleTableRecord
  2
OpenSans-SemiBold
 70
0
 40
0.0
 41
1.0
 50
0.0
 71
0
 42
2.5
  3
OpenSans-SemiBold.ttf
  4

  0
STYLE
  5
46
330
5
100
AcDbSymbolTableRecord
100
AcDbTextStyleTableRecord
  2
OpenSans-SemiBoldItalic
 70
0
 40
0.0
 41
1.0
 50
0.0
 71
0
 42
2.5
  3
OpenSans-SemiBoldItalic.ttf
  4

  0
STYLE
  5
47
330
5
100
AcDbSymbolTableRecord
100
AcDbTextStyleTableRecord
  2
OpenSans-Bold
 70
0
 40
0.0
 41
1.0
 50
0.0
 71
0
 42
2.5
  3
OpenSans-Bold.ttf
  4

  0
STYLE
  5
48
330
5
100
AcDbSymbolTableRecord
100
AcDbTextStyleTableRecord
  2
OpenSans-BoldItalic
 70
0
 40
0.0
 41
1.0
 50
0.0
 71
0
 42
2.5
  3
OpenSans-BoldItalic.ttf
  4

  0
STYLE
  5
49
330
5
100
AcDbSymbolTableRecord
100
AcDbTextStyleTableRecord
  2
OpenSans-ExtraBold
 70
0
 40
0.0
 41
1.0
 50
0.0
 71
0
 42
2.5
  3
OpenSans-ExtraBold.ttf
  4

  0
STYLE
  5
4A
330
5
100
AcDbSymbolTableRecord
100
AcDbTextStyleTableRecord
  2
OpenSans-ExtraBoldItalic
 70
0
 40
0.0
 41
1.0
 50
0.0
 71
0
 42
2.5
  3
OpenSans-ExtraBoldItalic.ttf
  4

  0
STYLE
  5
4B
330
5
100
AcDbSymbolTableRecord
100
AcDbTextStyleTableRecord
  2
OpenSansCondensed-Bold
 70
0
 40
0.0
 41
1.0
 50
0.0
 71
0
 42
2.5
  3
OpenSansCondensed-Bold.ttf
  4

  0
STYLE
  5
4C
330
5
100
AcDbSymbolTableRecord
100
AcDbTextStyleTableRecord
  2
OpenSansCondensed-Light
 70
0
 40
0.0
 41
1.0
 50
0.0
 71
0
 42
2.5
  3
OpenSansCondensed-Light.ttf
  4

  0
STYLE
  5
4D
330
5
100
AcDbSymbolTableRecord
100
AcDbTextStyleTableRecord
  2
OpenSansCondensed-Italic
 70
0
 40
0.0
 41
1.0
 50
0.0
 71
0
 42
2.5
  3
OpenSansCondensed-LightItalic.ttf
  4

  0
STYLE
  5
4E
330
5
100
AcDbSymbolTableRecord
100
AcDbTextStyleTableRecord
  2
LiberationSans
 70
0
 40
0.0
 41
1.0
 50
0.0
 71
0
 42
2.5
  3
LiberationSans-Regular.ttf
  4

  0
STYLE
  5
4F
330
5
100
AcDbSymbolTableRecord
100
AcDbTextStyleTableRecord
  2
LiberationSans-Bold
 70
0
 40
0.0
 41
1.0
 50
0.0
 71
0
 42
2.5
  3
LiberationSans-Bold.ttf
  4

  0
STYLE
  5
50
330
5
100
AcDbSymbolTableRecord
100
AcDbTextStyleTableRecord
  2
LiberationSans-BoldItalic
 70
0
 40
0.0
 41
1.0
 50
0.0
 71
0
 42
2.5
  3
LiberationSans-BoldItalic.ttf
  4

  0
STYLE
  5
51
330
5
100
AcDbSymbolTableRecord
100
AcDbTextStyleTableRecord
  2
LiberationSans-Italic
 70
0
 40
0.0
 41
1.0
 50
0.0
 71
0
 42
2.5
  3
LiberationSans-Italic.ttf
  4

  0
STYLE
  5
52
330
5
100
AcDbSymbolTableRecord
100
AcDbTextStyleTableRecord
  2
LiberationSerif
 70
0
 40
0.0
 41
1.0
 50
0.0
 71
0
 42
2.5
  3
LiberationSerif-Regular.ttf
  4

  0
STYLE
  5
53
330
5
100
AcDbSymbolTableRecord
100
AcDbTextStyleTableRecord
  2
LiberationSerif-Bold
 70
0
 40
0.0
 41
1.0
 50
0.0
 71
0
 42
2.5
  3
LiberationSerif-Bold.ttf
  4

  0
STYLE
  5
54
330
5
100
AcDbSymbolTableRecord
100
AcDbTextStyleTableRecord
  2
LiberationSerif-BoldItalic
 70
0
 40
0.0
 41
1.0
 50
0.0
 71
0
 42
2.5
  3
LiberationSerif-BoldItalic.ttf
  4

  0
STYLE
  5
55
330
5
100
AcDbSymbolTableRecord
100
AcDbTextStyleTableRecord
  2
LiberationSerif-Italic
 70
0
 40
0.0
 41
1.0
 50
0.0
 71
0
 42
2.5
  3
LiberationSerif-Italic.ttf
  4

  0
STYLE
  5
56
330
5
100
AcDbSymbolTableRecord
100
AcDbTextStyleTableRecord
  2
LiberationMono
 70
0
 40
0.0
 41
1.0
 50
0.0
 71
0
 42
2.5
  3
LiberationMono-Regular.ttf
  4

  0
STYLE
  5
57
330
5
100
AcDbSymbolTableRecord
100
AcDbTextStyleTableRecord
  2
LiberationMono-Bold
 70
0
 40
0.0
 41
1.0
 50
0.0
 71
0
 42
2.5
  3
LiberationMono-Bold.ttf
  4

  0
STYLE
  5
58
330
5
100
AcDbSymbolTableRecord
100
AcDbTextStyleTableRecord
  2
LiberationMono-BoldItalic
 70
0
 40
0.0
 41
1.0
 50
0.0
 71
0
 42
2.5
  3
LiberationMono-BoldItalic.ttf
  4

  0
STYLE
  5
59
330
5
100
AcDbSymbolTableRecord
100
AcDbTextStyleTableRecord
  2
LiberationMono-Italic
 70
0
 40
0.0
 41
1.0
 50
0.0
 71
0
 42
2.5
  3
LiberationMono-Italic.ttf
  4

  0
ENDTAB
  0
TABLE
  2
VIEW
  5
7
330
0
100
AcDbSymbolTable
 70
0
  0
ENDTAB
  0
TABLE
  2
UCS
  5
6
330
0
100
AcDbSymbolTable
 70
0
  0
ENDTAB
  0
TABLE
  2
APPID
  5
3
330
0
100
AcDbSymbolTable
 70
3
  0
APPID
  5
2A
330
3
100
AcDbSymbolTableRecord
100
AcDbRegAppTableRecord
  2
ACAD
 70
0
  0
APPID
  5
AB
330
3
100
AcDbSymbolTableRecord
100
AcDbRegAppTableRecord
  2
HATCHBACKGROUNDCOLOR
 70
0
  0
APPID
  5
AC
330
3
100
AcDbSymbolTableRecord
100
AcDbRegAppTableRecord
  2
EZDXF
 70
0
  0
ENDTAB
  0
TABLE
  2
DIMSTYLE
  5
4
330
0
100
AcDbSymbolTable
 70
12
100
AcDbDimStyleTable
  0
DIMSTYLE
105
2B
330
4
100
AcDbSymbolTableRecord
100
AcDbDimStyleTableRecord
  2
Standard
 70
0
 40
1.0
 41
2.5
 42
0.625
 43
3.75
 44
1.25
 45
0.0
 46
0.0
 47
0.0
 48
0.0
 49
2.5
140
2.5
141
2.5
142
0.0
143
0.03937007874
144
1.0
145
0.0
146
1.0
147
0.625
148
0.0
 69
0
 70
0
 71
0
 72
0
 73
0
 74
0
 75
0
 76
0
 77
1
 78
8
 79
3
170
0
171
3
172
1
173
0
174
0
175
0
176
0
177
0
178
0
179
2
271
2
272
2
273
2
274
3
275
0
276
0
277
2
278
44
279
0
280
0
281
0
282
0
283
0
284
8
285
0
286
0
288
0
289
3
290
0
371
-2
372
-2
  0
DIMSTYLE
105
73
330
4
100
AcDbSymbolTableRecord
100
AcDbDimStyleTableRecord
  2
EZDXF
 70
0
 40
1.0
 41
0.175
 42
0.125
 43
3.75
 44
0.375
 45
0.0
 46
0.0
 47
0.0
 48
0.0
 49
2.5
140
0.25
141
2.5
142
0.0
143
0.03937007874
144
100.0
145
0.0
146
0.5
147
0.1
148
0.0
 69
0
 70
0
 71
0
 72
0
 73
0
 74
0
 75
0
 76
0
 77
1
 78
12
 79
3
170
0
171
3
172
1
173
0
174
0
175
0
176
0
177
0
178
0
179
2
271
2
272
2
273
2
274
3
275
0
276
0
277
2
278
46
279
2
280
0
281
0
282
0
283
0
284
8
285
0
286
0
288
1
289
3
290
0
340
4C
342
74
371
-2
372
-2
  0
DIMSTYLE
105
7C
330
4
100
AcDbSymbolTableRecord
100
AcDbDimStyleTableRecord
  2
EZ_M_100_H25_CM
 70
0
 40
1.0
 41
0.25
 42
0.125
 43
3.75
 44
0.375
 45
0.0
 46
0.0
 47
0.0
 48
0.0
 49
2.5
140
0.25
141
2.5
142
0.125
143
0.03937007874
144
100.0
145
0.0
146
0.5
147
0.1
148
0.0
 69
0
 70
0
 71
0
 72
0
 73
0
 74
0
 75
0
 76
0
 77
1
 78
12
 79
3
170
0
171
3
172
1
173
0
174
0
175
0
176
0
177
0
178
0
179
2
271
2
272
2
273
2
274
3
275
0
276
0
277
2
278
46
279
2
280
0
281
0
282
0
283
0
284
8
285
0
286
0
288
1
289
3
290
0
340
4C
371
-2
372
-2
  0
DIMSTYLE
105
7D
330
4
100
AcDbSymbolTableRecord
100
AcDbDimStyleTableRecord
  2
EZ_M_50_H25_CM
 70
0
 40
1.0
 41
0.125
 42
0.0625
 43
3.75
 44
0.1875
 45
0.0
 46
0.0
 47
0.0
 48
0.0
 49
2.5
140
0.125
141
2.5
142
0.0625
143
0.03937007874
144
100.0
145
0.0
146
0.5
147
0.05
148
0.0
 69
0
 70
0
 71
0
 72
0
 73
0
 74
0
 75
0
 76
0
 77
1
 78
12
 79
3
170
0
171
3
172
1
173
0
174
0
175
0
176
0
177
0
178
0
179
2
271
2
272
2
273
2
274
3
275
0
276
0
277
2
278
46
279
2
280
0
281
0
282
0
283
0
284
8
285
0
286
0
288
1
289
3
290
0
340
4C
371
-2
372
-2
  0
DIMSTYLE
105
7E
330
4
100
AcDbSymbolTableRecord
100
AcDbDimStyleTableRecord
  2
EZ_M_25_H25_CM
 70
0
 40
1.0
 41
0.0625
 42
0.03125
 43
3.75
 44
0.09375
 45
0.0
 46
0.0
 47
0.0
 48
0.0
 49
2.5
140
0.0625
141
2.5
142
0.03125
143
0.03937007874
144
100.0
145
0.0
146
0.5
147
0.025
148
0.0
 69
0
 70
0
 71
0
 72
0
 73
0
 74
0
 75
0
 76
0
 77
1
 78
12
 79
3
170
0
171
3
172
1
173
0
174
0
175
0
176
0
177
0
178
0
179
2
271
2
272
2
273
2
274
3
275
0
276
0
277
2
278
46
279
2
280
0
281
0
282
0
283
0
284
8
285
0
286
0
288
1
289
3
290
0
340
4C
371
-2
372
-2
  0
DIMSTYLE
105
7F
330
4
100
AcDbSymbolTableRecord
100
AcDbDimStyleTableRecord
  2
EZ_M_20_H25_CM
 70
0
 40
1.0
 41
0.05
 42
0.025
 43
3.75
 44
0.07500000000000001
 45
0.0
 46
0.0
 47
0.0
 48
0.0
 49
2.5
140
0.05
141
2.5
142
0.025
143
0.03937007874
144
100.0
145
0.0
146
0.5
147
0.020000000000000004
148
0.0
 69
0
 70
0
 71
0
 72
0
 73
0
 74
0
 75
0
 76
0
 77
1
 78
12
 79
3
170
0
171
3
172
1
173
0
174
0
175
0
176
0
177
0
178
0
179
2
271
2
272
2
273
2
274
3
275
0
276
0
277
2
278
46
279
2
280
0
281
0
282
0
283
0
284
8
285
0
286
0
288
1
289
3
290
0
340
4C
371
-2
372
-2
  0
DIMSTYLE
105
80
330
4
100
AcDbSymbolTableRecord
100
AcDbDimStyleTableRecord
  2
EZ_M_10_H25_CM
 70
0
 40
1.0
 41
0.025
 42
0.0125
 43
3.75
 44
0.037500000000000006
 45
0.0
 46
0.0
 47
0.0
 48
0.0
 49
2.5
140
0.025
141
2.5
142
0.0125
143
0.03937007874
144
100.0
145
0.0
146
0.5
147
0.010000000000000002
148
0.0
 69
0
 70
0
 71
0
 72
0
 73
0
 74
0
 75
0
 76
0
 77
1
 78
12
 79
3
170
0
171
3
172
1
173
0
174
0
175
0
176
0
177
0
178
0
179
2
271
2
272
2
273
2
274
3
275
0
276
0
277
2
278
46
279
2
280
0
281
0
282
0
283
0
284
8
285
0
286
0
288
1
289
3
290
0
340
4C
371
-2
372
-2
  0
DIMSTYLE
105
81
330
4
100
AcDbSymbolTableRecord
100
AcDbDimStyleTableRecord
  2
EZ_M_5_H25_CM
 70
0
 40
1.0
 41
0.0125
 42
0.00625
 43
3.75
 44
0.018750000000000003
 45
0.0
 46
0.0
 47
0.0
 48
0.0
 49
2.5
140
0.0125
141
2.5
142
0.00625
143
0.03937007874
144
100.0
145
0.0
146
0.5
147
0.005000000000000001
148
0.0
 69
0
 70
0
 71
0
 72
0
 73
0
 74
0
 75
0
 76
0
 77
1
 78
12
 79
3
170
0
171
3
172
1
173
0
174
0
175
0
176
0
177
0
178
0
179
2
271
2
272
2
273
2
274
3
275
0
276
0
277
2
278
46
279
2
280
0
281
0
282
0
283
0
284
8
285
0
286
0
288
1
289
3
290
0
340
4C
371
-2
372
-2
  0
DIMSTYLE
105
82
330
4
100
AcDbSymbolTableRecord
100
AcDbDimStyleTableRecord
  2
EZ_M_1_H25_CM
 70
0
 40
1.0
 41
0.0025
 42
0.00125
 43
3.75
 44
0.00375
 45
0.0
 46
0.0
 47
0.0
 48
0.0
 49
2.5
140
0.0025
141
2.5
142
0.00125
143
0.03937007874
144
100.0
145
0.0
146
0.5
147
0.001
148
0.0
 69
0
 70
0
 71
0
 72
0
 73
0
 74
0
 75
0
 76
0
 77
1
 78
12
 79
3
170
0
171
3
172
1
173
0
174
0
175
0
176
0
177
0
178
0
179
2
271
2
272
2
273
2
274
3
275
0
276
0
277
2
278
46
279
2
280
0
281
0
282
0
283
0
284
8
285
0
286
0
288
1
289
3
290
0
340
4C
371
-2
372
-2
  0
DIMSTYLE
105
83
330
4
100
AcDbSymbolTableRecord
100
AcDbDimStyleTableRecord
  2
EZ_RADIUS
 70
0
 40
1.0
 41
0.25
 42
0.125
 43
3.75
 44
0.375
 45
0.0
 46
0.0
 47
0.0
 48
0.0
 49
2.5
140
0.25
141
0.0
142
0.0
143
0.03937007874
144
100.0
145
0.0
146
0.5
147
0.1
148
0.0
 69
0
 70
0
 71
0
 72
0
 73
0
 74
0
 75
0
 76
0
 77
1
 78
12
 79
3
170
0
171
3
172
0
173
0
174
0
175
0
176
0
177
0
178
0
179
2
271
2
272
2
273
2
274
3
275
0
276
0
277
2
278
46
279
1
280
0
281
0
282
0
283
0
284
8
285
0
286
0
288
1
289
3
290
0
340
4C
342
84
371
-2
372
-2
  0
DIMSTYLE
105
88
330
4
100
AcDbSymbolTableRecord
100
AcDbDimStyleTableRecord
  2
EZ_RADIUS_INSIDE
 70
0
 40
1.0
 41
0.25
 42
0.125
 43
3.75
 44
0.375
 45
0.0
 46
0.0
 47
0.0
 48
0.0
 49
2.5
140
0.25
141
0.0
142
0.0
143
0.03937007874
144
100.0
145
0.0
146
0.5
147
0.1
148
0.0
 69
0
 70
0
 71
0
 72
0
 73
0
 74
0
 75
0
 76
0
 77
0
 78
12
 79
3
170
0
171
3
172
0
173
0
174
1
175
0
176
0
177
0
178
0
179
2
271
2
272
2
273
2
274
3
275
0
276
0
277
2
278
46
279
0
280
0
281
0
282
0
283
0
284
8
285
0
286
0
288
1
289
0
290
0
340
4C
342
84
371
-2
372
-2
  0
DIMSTYLE
105
89
330
4
100
AcDbSymbolTableRecord
100
AcDbDimStyleTableRecord
  2
EZ_CURVED
 70
0
 40
1.0
 41
0.25
 42
0.125
 43
3.75
 44
0.375
 45
0.0
 46
0.0
 47
0.0
 48
0.0
 49
2.5
140
0.25
141
2.5
142
0.0
143
0.03937007874
144
100.0
145
0.0
146
0.5
147
0.1
148
0.0
 69
0
 70
0
 71
0
 72
0
 73
0
 74
0
 75
0
 76
0
 77
1
 78
12
 79
2
 90
2
170
0
171
3
172
1
173
0
174
0
175
0
176
0
177
0
178
0
179
2
271
2
272
2
273
2
274
3
275
0
276
0
277
2
278
46
279
2
280
0
281
0
282
0
283
0
284
8
285
0
286
0
288
1
289
3
290
0
340
4C
371
-2
372
-2
  0
ENDTAB
  0
TABLE
  2
BLOCK_RECORD
  5
9
330
0
100
AcDbSymbolTable
 70
5
  0
BLOCK_RECORD
  5
17
330
9
100
AcDbSymbolTableRecord
100
AcDbBlockTableRecord
  2
*Model_Space
340
1A
 70
0
280
1
281
0
  0
BLOCK_RECORD
  5
1B
330
9
100
AcDbSymbolTableRecord
100
AcDbBlockTableRecord
  2
*Paper_Space
340
1E
 70
0
280
1
281
0
  0
BLOCK_RECORD
  5
74
330
9
100
AcDbSymbolTableRecord
100
AcDbBlockTableRecord
  2
_ARCHTICK
340
0
 70
0
280
1
281
0
  0
BLOCK_RECORD
  5
78
330
9
100
AcDbSymbolTableRecord
100
AcDbBlockTableRecord
  2
_CLOSEDFILLED
340
0
 70
0
280
1
281
0
  0
BLOCK_RECORD
  5
84
330
9
100
AcDbSymbolTableRecord
100
AcDbBlockTableRecord
  2
_CLOSEDBLANK
340
0
 70
0
280
1
281
0
  0
ENDTAB
  0
ENDSEC
  0
SECTION
  2
BLOCKS
  0
BLOCK
  5
18
330
17
100
AcDbEntity
  8
0
100
AcDbBlockBegin
  2
*Model_Space
 70
0
 10
0.0
 20
0.0
 30
0.0
  3
*Model_Space
  1

  0
ENDBLK
  5
19
330
17
100
AcDbEntity
  8
0
100
AcDbBlockEnd
  0
BLOCK
  5
1C
330
1B
100
AcDbEntity
  8
0
100
AcDbBlockBegin
  2
*Paper_Space
 70
0
 10
0.0
 20
0.0
 30
0.0
  3
*Paper_Space
  1

  0
ENDBLK
  5
1D
330
1B
100
AcDbEntity
  8
0
100
AcDbBlockEnd
  0
BLOCK
  5
75
330
74
100
AcDbEntity
  8
0
100
AcDbBlockBegin
  2
_ARCHTICK
 70
0
 10
0.0
 20
0.0
 30
0.0
  3
_ARCHTICK
  1

  0
LWPOLYLINE
  5
77
330
74
100
AcDbEntity
  8
0
  6
BYBLOCK
 62
0
100
AcDbPolyline
 90
2
 70
0
 43
0.15
 10
-0.5
 20
-0.5
 10
0.5
 20
0.5
  0
ENDBLK
  5
76
330
74
100
AcDbEntity
  8
0
100
AcDbBlockEnd
  0
BLOCK
  5
79
330
78
100
AcDbEntity
  8
0
100
AcDbBlockBegin
  2
_CLOSEDFILLED
 70
0
 10
0.0
 20
0.0
 30
0.0
  3
_CLOSEDFILLED
  1

  0
SOLID
  5
7B
330
78
100
AcDbEntity
  8
0
  6
BYBLOCK
 62
0
100
AcDbTrace
 10
-1.0
 20
0.16439898372402537
 30
0.0
 11
0.0
 21
0.0
 31
0.0
 12
-1.0
 22
-0.16439898372402537
 32
0.0
 13
-1.0
 23
-0.16439898372402537
 33
0.0
  0
ENDBLK
  5
7A
330
78
100
AcDbEntity
  8
0
100
AcDbBlockEnd
  0
BLOCK
  5
85
330
84
100
AcDbEntity
  8
0
100
AcDbBlockBegin
  2
_CLOSEDBLANK
 70
0
 10
0.0
 20
0.0
 30
0.0
  3
_CLOSEDBLANK
  1

  0
LWPOLYLINE
  5
87
330
84
100
AcDbEntity
  8
0
  6
BYBLOCK
 62
0
100
AcDbPolyline
 90
3
 70
1
 10
-1.0
 20
0.16439898372402537
 10
0.0
 20
0.0
 10
-1.0
 20
-0.16439898372402537
  0
ENDBLK
  5
86
330
84
100
AcDbEntity
  8
0
100
AcDbBlockEnd
  0
ENDSEC
  0
SECTION
  2
ENTITIES
  0
LWPOLYLINE
  5
8C
330
17
100
AcDbEntity
  8
CUT
100
AcDbPolyline
 90
240
 70
1
 10
1626.0
 20
518.5
 10
1625.9758000000002
 20
539.7885
 10
1625.8271
 20
561.0985
 10
1625.4382
 20
582.4403
 10
1624.692
 20
603.8123
 10
1623.4697
 20
625.2004
 10
1621.6516000000001
 20
646.5778
 10
1619.1185
 20
667.9052
 10
1615.7541
 20
689.1306
 10
1611.4478
 20
710.1904
 10
1606.0981000000002
 20
731.01
 10
1599.6165
 20
751.5064
 10
1591.9314
 20
771.5901
 10
1582.9913999999999
 20
791.1683
 10
1572.7689999999998
 20
810.148
 10
1561.2620000000002
 20
828.4403
 10
1548.4949000000001
 20
845.9634
 10
1534.5178
 20
862.6463
 10
1519.4047
 20
878.4312
 10
1503.2498999999998
 20
893.2751
 10
1486.1641
 20
907.1515
 10
1468.2694000000001
 20
920.0496
 10
1449.6939000000002
 20
931.9739
 10
1430.5675999999999
 20
942.9425
 10
1411.0175
 20
952.9852
 10
1391.1643
 20
962.1411
 10
1371.1198
 20
970.4565
 10
1350.9849
 20
977.9825000000001
 10
1330.8485999999998
 20
984.7729999999999
 10
1310.7878
 20
990.883
 10
1290.8673
 20
996.3672999999999
 10
1271.1401999999998
 20
1001.2791
 10
1251.6493999999998
 20
1005.6695
 10
1232.4277000000002
 20
1009.5867000000001
 10
1213.4996999999998
 20
1013.0759
 10
1194.8824
 20
1016.1787999999999
 10
1176.5864000000001
 20
1018.9337
 10
1158.6170000000002
 20
1021.3759
 10
1140.9749000000002
 20
1023.5371
 10
1123.6570000000002
 20
1025.4462
 10
1106.6572999999999
 20
1027.1293
 10
1089.9670999999998
 20
1028.6099
 10
1073.5758999999998
 20
1029.909
 10
1057.4717
 20
1031.0456
 10
1041.6412
 20
1032.0366
 10
1026.0704
 20
1032.8974
 10
1010.7442999999998
 20
1033.6415
 10
995.6478000000002
 20
1034.2814
 10
980.7651000000001
 20
1034.828
 10
966.0805999999998
 20
1035.2914
 10
951.5781000000002
 20
1035.6805
 10
937.2415999999998
 20
1036.0035
 10
923.0549999999998
 20
1036.268
 10
909.0021000000002
 20
1036.4807
 10
895.0666000000001
 20
1036.6479
 10
881.2323000000001
 20
1036.7755
 10
867.4828000000002
 20
1036.8689
 10
853.8015999999998
 20
1036.9332
 10
840.172
 20
1036.9734
 10
826.5772000000002
 20
1036.9941
 10
813.0
 20
1037.0
 10
799.4227999999998
 20
1036.9941
 10
785.828
 20
1036.9734
 10
772.1984000000002
 20
1036.9332
 10
758.5171999999998
 20
1036.8689
 10
744.7676999999999
 20
1036.7755
 10
730.9333999999999
 20
1036.6479
 10
716.9978999999998
 20
1036.4807
 10
702.9450000000002
 20
1036.268
 10
688.7584000000002
 20
1036.0035
 10
674.4218999999998
 20
1035.6805
 10
659.9194000000002
 20
1035.2914
 10
645.2348999999999
 20
1034.828
 10
630.3522
 20
1034.2814
 10
615.2556999999999
 20
1033.6415
 10
599.9295999999999
 20
1032.8974
 10
584.3588
 20
1032.0366
 10
568.5283
 20
1031.0456
 10
552.4241
 20
1029.909
 10
536.0328999999999
 20
1028.6099
 10
519.3426999999999
 20
1027.1293
 10
502.3430000000001
 20
1025.4462
 10
485.02510000000007
 20
1023.5371
 10
467.38300000000004
 20
1021.3759
 10
449.4136000000001
 20
1018.9337
 10
431.11760000000004
 20
1016.1787999999999
 10
412.5002999999999
 20
1013.0759
 10
393.57230000000004
 20
1009.5867000000001
 10
374.3506
 20
1005.6695
 10
354.85979999999995
 20
1001.2791
 10
335.1327000000001
 20
996.3672999999999
 10
315.21219999999994
 20
990.883
 10
295.15139999999997
 20
984.7729999999999
 10
275.0151000000001
 20
977.9825000000001
 10
254.88020000000006
 20
970.4565
 10
234.8357000000001
 20
962.1411
 10
214.98250000000007
 20
952.9852
 10
195.43239999999992
 20
942.9425
 10
176.30610000000001
 20
931.9739
 10
157.7306000000001
 20
920.0496
 10
139.83590000000004
 20
907.1515
 10
122.75009999999997
 20
893.2751
 10
106.59529999999995
 20
878.4312
 10
91.48219999999992
 20
862.6463
 10
77.50510000000008
 20
845.9634
 10
64.73800000000006
 20
828.4403
 10
53.230999999999995
 20
810.148
 10
43.00859999999989
 20
791.1683
 10
34.06860000000006
 20
771.5901
 10
26.383499999999913
 20
751.5064
 10
19.90190000000007
 20
731.01
 10
14.552200000000084
 20
710.1904
 10
10.245899999999892
 20
689.1306
 10
6.88149999999996
 20
667.9052
 10
4.348400000000083
 20
646.5778
 10
2.5302999999998974
 20
625.2004
 10
1.3079999999999927
 20
603.8123
 10
0.5617999999999483
 20
582.4403
 10
0.17290000000002692
 20
561.0985
 10
0.024200000000064392
 20
539.7885
 10
0.0
 20
518.5
 10
0.024200000000064392
 20
497.2115
 10
0.17290000000002692
 20
475.90150000000006
 10
0.5617999999999483
 20
454.5597
 10
1.3079999999999927
 20
433.1877
 10
2.5302999999998974
 20
411.7996
 10
4.348400000000083
 20
390.4222
 10
6.88149999999996
 20
369.0948
 10
10.245899999999892
 20
347.8694
 10
14.552200000000084
 20
326.8096
 10
19.90190000000007
 20
305.99
 10
26.383499999999913
 20
285.4936
 10
34.06860000000006
 20
265.4099
 10
43.00859999999989
 20
245.8317
 10
53.230999999999995
 20
226.85199999999998
 10
64.73800000000006
 20
208.5597
 10
77.50510000000008
 20
191.0366
 10
91.48219999999992
 20
174.3537
 10
106.59529999999995
 20
158.5688
 10
122.75009999999997
 20
143.7249
 10
139.83590000000004
 20
129.8485
 10
157.7306000000001
 20
116.9504
 10
176.30610000000001
 20
105.02610000000001
 10
195.43239999999992
 20
94.0575
 10
214.98250000000007
 20
84.01480000000001
 10
234.8357000000001
 20
74.8589
 10
254.88020000000006
 20
66.5435
 10
275.0151000000001
 20
59.0175
 10
295.15139999999997
 20
52.227000000000004
 10
315.21219999999994
 20
46.117000000000004
 10
335.1327000000001
 20
40.6327
 10
354.85979999999995
 20
35.7209
 10
374.3506
 20
31.3305
 10
393.57230000000004
 20
27.413300000000007
 10
412.5002999999999
 20
23.924099999999996
 10
431.11760000000004
 20
20.821200000000005
 10
449.4136000000001
 20
18.0663
 10
467.38300000000004
 20
15.624099999999999
 10
485.02510000000007
 20
13.462899999999998
 10
502.3430000000001
 20
11.553800000000003
 10
519.3426999999999
 20
9.8707
 10
536.0328999999999
 20
8.390099999999997
 10
552.4241
 20
7.091000000000001
 10
568.5283
 20
5.9544
 10
584.3588
 20
4.9634
 10
599.9295999999999
 20
4.1026000000000025
 10
615.2556999999999
 20
3.3584999999999994
 10
630.3522
 20
2.718600000000002
 10
645.2348999999999
 20
2.171999999999997
 10
659.9194000000002
 20
1.708599999999997
 10
674.4218999999998
 20
1.319499999999998
 10
688.7584000000002
 20
0.9964999999999975
 10
702.9450000000002
 20
0.7319999999999993
 10
716.9978999999998
 20
0.5193000000000012
 10
730.9333999999999
 20
0.3521000000000001
 10
744.7676999999999
 20
0.22449999999999903
 10
758.5171999999998
 20
0.13110000000000355
 10
772.1984000000002
 20
0.06680000000000064
 10
785.828
 20
0.026600000000001955
 10
799.4227999999998
 20
0.005899999999996908
 10
813.0
 20
0.0
 10
826.5772000000002
 20
0.005899999999996908
 10
840.172
 20
0.026600000000001955
 10
853.8015999999998
 20
0.06680000000000064
 10
867.4828000000002
 20
0.13110000000000355
 10
881.2323000000001
 20
0.22449999999999903
 10
895.0666000000001
 20
0.3521000000000001
 10
909.0021000000002
 20
0.5193000000000012
 10
923.0549999999998
 20
0.7319999999999993
 10
937.2415999999998
 20
0.9964999999999975
 10
951.5781000000002
 20
1.319499999999998
 10
966.0805999999998
 20
1.708599999999997
 10
980.7651000000001
 20
2.171999999999997
 10
995.6478000000002
 20
2.718600000000002
 10
1010.7442999999998
 20
3.3584999999999994
 10
1026.0704
 20
4.1026000000000025
 10
1041.6412
 20
4.9634
 10
1057.4717
 20
5.9544
 10
1073.5758999999998
 20
7.091000000000001
 10
1089.9670999999998
 20
8.390099999999997
 10
1106.6572999999999
 20
9.8707
 10
1123.6570000000002
 20
11.553800000000003
 10
1140.9749000000002
 20
13.462899999999998
 10
1158.6170000000002
 20
15.624099999999999
 10
1176.5864000000001
 20
18.0663
 10
1194.8824
 20
20.821200000000005
 10
1213.4996999999998
 20
23.924099999999996
 10
1232.4277000000002
 20
27.413300000000007
 10
1251.6493999999998
 20
31.3305
 10
1271.1401999999998
 20
35.7209
 10
1290.8673
 20
40.6327
 10
1310.7878
 20
46.117000000000004
 10
1330.8485999999998
 20
52.227000000000004
 10
1350.9849
 20
59.0175
 10
1371.1198
 20
66.5435
 10
1391.1643
 20
74.8589
 10
1411.0175
 20
84.01480000000001
 10
1430.5675999999999
 20
94.0575
 10
1449.6939000000002
 20
105.02610000000001
 10
1468.2694000000001
 20
116.9504
 10
1486.1641
 20
129.8485
 10
1503.2498999999998
 20
143.7249
 10
1519.4047
 20
158.5688
 10
1534.5178
 20
174.3537
 10
1548.4949000000001
 20
191.0366
 10
1561.2620000000002
 20
208.5597
 10
1572.7689999999998
 20
226.85199999999998
 10
1582.9913999999999
 20
245.8317
 10
1591.9314
 20
265.4099
 10
1599.6165
 20
285.4936
 10
1606.0981000000002
 20
305.99
 10
1611.4478
 20
326.8096
 10
1615.7541
 20
347.8694
 10
1619.1185
 20
369.0948
 10
1621.6516000000001
 20
390.4222
 10
1623.4697
 20
411.7996
 10
1624.692
 20
433.1877
 10
1625.4382
 20
454.5597
 10
1625.8271
 20
475.90150000000006
 10
1625.9758000000002
 20
497.2115
  0
LWPOLYLINE
  5
8D
330
17
100
AcDbEntity
  8
CUT
100
AcDbPolyline
 90
240
 70
1
 10
1436.0409540728683
 20
502.1850984422563
 10
1436.0874565706067
 20
485.84537010201575
 10
1436.023902189298
 20
469.46695550516824
 10
1435.7328758515664
 20
453.04813730882574
 10
1435.095223708081
 20
436.59961006164133
 10
1433.9908198812655
 20
420.1447165464307
 10
1432.3000544673282
 20
403.7195193789779
 10
1429.9060424169884
 20
387.3725727503838
 10
1426.69750566331
 20
371.1642643897902
 10
1422.572214456205
 20
355.1656174080087
 10
1417.4407948111261
 20
339.4564796713386
 10
1411.2306288897203
 20
324.12308578393146
 10
1403.8895100172972
 20
309.25505018931085
 10
1395.3886817065531
 20
294.9419306811658
 10
1385.7249056695018
 20
281.269576562841
 10
1374.9212747467946
 20
268.31652959758804
 10
1363.0266085230414
 20
256.15076540155997
 10
1350.1134248812432
 20
244.82704075789223
 10
1336.274643002027
 20
234.38505010578098
 10
1321.619312563359
 20
224.84850297650183
 10
1306.267755527624
 20
216.2251306486569
 10
1290.3465378555338
 20
208.50753373007348
 10
1273.9836597508893
 20
201.67470842672884
 10
1257.3042777098854
 20
195.69404686906398
 10
1240.427169800494
 20
190.5235972166151
 10
1223.4620482477485
 20
186.11438709645444
 10
1206.5077276277648
 20
182.41265025250772
 10
1189.6510833474977
 20
179.3618412647503
 10
1172.9666874470458
 20
176.9043684150236
 10
1156.5169856181833
 20
174.9830143818166
 10
1140.3528759571768
 20
173.54204536276262
 10
1124.51456038384
 20
172.52803068619266
 10
1109.0325581034872
 20
171.8904077893473
 10
1093.9287922580952
 20
171.58183325165186
 10
1079.2176826508248
 20
171.55836127045728
 10
1064.9071970639202
 20
171.7794883246509
 10
1050.9998301942446
 20
172.20809824486503
 10
1037.4934923138517
 20
172.81033658152114
 10
1024.3822996001195
 20
173.55543776838175
 10
1011.6572650924777
 20
174.4155235671493
 10
999.3068939362856
 20
175.36538688082612
 10
987.3176894830349
 20
176.38227132521087
 10
975.6745783904398
 20
177.4456539411554
 10
964.3612634910141
 20
178.537036054576
 10
953.3605131789463
 20
179.63974546174052
 10
942.6543956347305
 20
180.7387517424806
 10
932.2244655352679
 20
181.82049549608882
 10
922.0519101039476
 20
182.8727315755641
 10
912.1176605217884
 20
183.88438589883572
 10
902.4024738992475
 20
184.8454250856563
 10
892.8869902300075
 20
185.7467379617342
 10
883.5517680292746
 20
186.58002785253507
 10
874.3773017061858
 20
187.3377145309064
 10
865.3440231322556
 20
188.0128446645345
 10
856.4322893406943
 20
188.5990096153522
 10
847.6223578173344
 20
189.09026946137578
 10
838.8943504137405
 20
189.48108213276532
 10
830.2282065166751
 20
189.76623657091255
 10
821.603625734635
 20
189.94078882605606
 10
813.0
 20
190.00000000000023
 10
804.396374265365
 20
189.94078882605606
 10
795.7717934833249
 20
189.76623657091255
 10
787.1056495862599
 20
189.48108213276532
 10
778.3776421826656
 20
189.09026946137578
 10
769.5677106593057
 20
188.59900961535226
 10
760.6559768677444
 20
188.0128446645345
 10
751.6226982938138
 20
187.33771453090645
 10
742.4482319707254
 20
186.58002785253507
 10
733.1130097699925
 20
185.7467379617343
 10
723.597526100752
 20
184.8454250856562
 10
713.8823394782112
 20
183.88438589883566
 10
703.9480898960519
 20
182.87273157556405
 10
693.7755344647321
 20
181.82049549608888
 10
683.3456043652695
 20
180.73875174248053
 10
672.6394868210541
 20
179.63974546174057
 10
661.6387365089859
 20
178.537036054576
 10
650.3254216095602
 20
177.44565394115546
 10
638.6823105169651
 20
176.38227132521087
 10
626.6931060637144
 20
175.36538688082607
 10
614.3427349075218
 20
174.41552356714925
 10
601.6177003998807
 20
173.55543776838175
 10
588.5065076861481
 20
172.81033658152114
 10
575.0001698057551
 20
172.20809824486508
 10
561.0928029360796
 20
171.77948832465103
 10
546.7823173491752
 20
171.55836127045728
 10
532.0712077419043
 20
171.58183325165186
 10
516.9674418965133
 20
171.89040778934725
 10
501.48543961615974
 20
172.52803068619266
 10
485.64712404282295
 20
173.54204536276262
 10
469.4830143818165
 20
174.98301438181664
 10
453.0333125529544
 20
176.9043684150236
 10
436.34891665250234
 20
179.36184126475035
 10
419.4922723722352
 20
182.41265025250772
 10
402.5379517522515
 20
186.1143870964545
 10
385.5728301995059
 20
190.52359721661514
 10
368.69572229011465
 20
195.69404686906398
 10
352.0163402491107
 20
201.67470842672884
 10
335.6534621444662
 20
208.50753373007336
 10
319.7322444723761
 20
216.2251306486569
 10
304.3806874366405
 20
224.848502976502
 10
289.725356997973
 20
234.3850501057811
 10
275.88657511875635
 20
244.82704075789235
 10
262.973391476959
 20
256.1507654015599
 10
251.07872525320545
 20
268.316529597588
 10
240.27509433049818
 20
281.26957656284094
 10
230.61131829344686
 20
294.941930681166
 10
222.11048998270257
 20
309.25505018931096
 10
214.76937111027974
 20
324.12308578393163
 10
208.55920518887388
 20
339.45647967133857
 10
203.4277855437947
 20
355.16561740800864
 10
199.30249433668996
 20
371.1642643897901
 10
196.09395758301162
 20
387.37257275038405
 10
193.6999455326718
 20
403.71951937897813
 10
192.00918011873455
 20
420.1447165464309
 10
190.904776291919
 20
436.59961006164156
 10
190.2671241484336
 20
453.04813730882563
 10
189.97609781070196
 20
469.46695550516824
 10
189.91254342939328
 20
485.8453701020163
 10
189.95904592713168
 20
502.1850984422565
 10
190.00000000000045
 20
518.5000000000001
 10
189.95904592713168
 20
534.8149015577437
 10
189.91254342939328
 20
551.1546298979839
 10
189.97609781070196
 20
567.533044494832
 10
190.2671241484336
 20
583.9518626911745
 10
190.904776291919
 20
600.4003899383586
 10
192.00918011873455
 20
616.8552834535692
 10
193.6999455326718
 20
633.280480621022
 10
196.09395758301162
 20
649.6274272496158
 10
199.30249433668996
 20
665.83573561021
 10
203.42778554379447
 20
681.8343825919916
 10
208.55920518887388
 20
697.5435203286613
 10
214.76937111027974
 20
712.8769142160685
 10
222.1104899827028
 20
727.7449498106891
 10
230.61131829344686
 20
742.0580693188339
 10
240.27509433049818
 20
755.7304234371593
 10
251.07872525320568
 20
768.6834704024121
 10
262.97339147695857
 20
780.84923459844
 10
275.8865751187566
 20
792.1729592421077
 10
289.725356997973
 20
802.6149498942191
 10
304.3806874366405
 20
812.1514970234979
 10
319.73224447237635
 20
820.7748693513431
 10
335.6534621444662
 20
828.4924662699267
 10
352.0163402491107
 20
835.3252915732711
 10
368.69572229011465
 20
841.305953130936
 10
385.5728301995059
 20
846.4764027833849
 10
402.5379517522515
 20
850.8856129035455
 10
419.49227237223545
 20
854.5873497474922
 10
436.34891665250257
 20
857.6381587352497
 10
453.03331255295416
 20
860.0956315849763
 10
469.4830143818167
 20
862.0169856181834
 10
485.6471240428232
 20
863.4579546372374
 10
501.48543961615974
 20
864.4719693138073
 10
516.9674418965133
 20
865.1095922106526
 10
532.0712077419048
 20
865.4181667483481
 10
546.7823173491754
 20
865.4416387295428
 10
561.0928029360798
 20
865.220511675349
 10
575.0001698057554
 20
864.791901755135
 10
588.5065076861481
 20
864.1896634184789
 10
601.6177003998805
 20
863.4445622316182
 10
614.3427349075223
 20
862.5844764328508
 10
626.6931060637146
 20
861.6346131191739
 10
638.6823105169651
 20
860.6177286747891
 10
650.3254216095602
 20
859.5543460588447
 10
661.6387365089854
 20
858.462963945424
 10
672.6394868210537
 20
857.3602545382594
 10
683.34560436527
 20
856.2612482575194
 10
693.7755344647321
 20
855.1795045039112
 10
703.9480898960524
 20
854.1272684244359
 10
713.8823394782112
 20
853.1156141011643
 10
723.597526100752
 20
852.1545749143438
 10
733.1130097699925
 20
851.2532620382657
 10
742.4482319707254
 20
850.4199721474649
 10
751.6226982938142
 20
849.6622854690936
 10
760.6559768677444
 20
848.9871553354656
 10
769.5677106593057
 20
848.4009903846477
 10
778.3776421826651
 20
847.9097305386242
 10
787.1056495862599
 20
847.5189178672347
 10
795.7717934833249
 20
847.2337634290875
 10
804.396374265365
 20
847.0592111739439
 10
813.0
 20
846.9999999999998
 10
821.603625734635
 20
847.0592111739439
 10
830.2282065166751
 20
847.2337634290875
 10
838.8943504137405
 20
847.5189178672347
 10
847.6223578173344
 20
847.9097305386242
 10
856.4322893406943
 20
848.4009903846477
 10
865.3440231322556
 20
848.9871553354656
 10
874.3773017061858
 20
849.6622854690936
 10
883.5517680292746
 20
850.4199721474649
 10
892.8869902300075
 20
851.2532620382658
 10
902.402473899248
 20
852.1545749143438
 10
912.1176605217888
 20
853.1156141011643
 10
922.0519101039476
 20
854.1272684244359
 10
932.2244655352679
 20
855.1795045039112
 10
942.6543956347305
 20
856.2612482575194
 10
953.3605131789463
 20
857.3602545382594
 10
964.3612634910146
 20
858.462963945424
 10
975.6745783904403
 20
859.5543460588447
 10
987.3176894830349
 20
860.6177286747891
 10
999.3068939362856
 20
861.6346131191739
 10
1011.6572650924777
 20
862.5844764328507
 10
1024.3822996001195
 20
863.4445622316183
 10
1037.4934923138517
 20
864.1896634184789
 10
1050.9998301942446
 20
864.7919017551349
 10
1064.9071970639202
 20
865.220511675349
 10
1079.2176826508248
 20
865.4416387295428
 10
1093.9287922580952
 20
865.4181667483481
 10
1109.0325581034867
 20
865.1095922106527
 10
1124.5145603838405
 20
864.4719693138073
 10
1140.3528759571773
 20
863.4579546372374
 10
1156.5169856181833
 20
862.0169856181833
 10
1172.9666874470458
 20
860.0956315849763
 10
1189.6510833474977
 20
857.6381587352496
 10
1206.5077276277643
 20
854.5873497474922
 10
1223.4620482477485
 20
850.8856129035455
 10
1240.427169800494
 20
846.4764027833849
 10
1257.3042777098854
 20
841.3059531309359
 10
1273.9836597508893
 20
835.3252915732711
 10
1290.3465378555338
 20
828.4924662699266
 10
1306.2677555276236
 20
820.7748693513431
 10
1321.6193125633595
 20
812.1514970234979
 10
1336.274643002027
 20
802.6149498942189
 10
1350.1134248812436
 20
792.1729592421077
 10
1363.0266085230414
 20
780.84923459844
 10
1374.9212747467946
 20
768.683470402412
 10
1385.7249056695018
 20
755.7304234371592
 10
1395.3886817065531
 20
742.058069318834
 10
1403.8895100172977
 20
727.7449498106889
 10
1411.2306288897203
 20
712.8769142160685
 10
1417.4407948111261
 20
697.5435203286613
 10
1422.572214456205
 20
681.8343825919914
 10
1426.69750566331
 20
665.8357356102099
 10
1429.9060424169884
 20
649.6274272496158
 10
1432.3000544673282
 20
633.2804806210219
 10
1433.9908198812655
 20
616.8552834535692
 10
1435.095223708081
 20
600.4003899383586
 10
1435.7328758515664
 20
583.9518626911744
 10
1436.023902189298
 20
567.5330444948319
 10
1436.0874565706067
 20
551.1546298979839
 10
1436.0409540728683
 20
534.8149015577435
 10
1435.9999999999995
 20
518.5
  0
LWPOLYLINE
  5
8E
330
17
100
AcDbEntity
  8
CUT
100
AcDbPolyline
 90
8
 70
1
 10
1489.6706506938622
 20
579.3519202338169
 42
2.414213562373095
 10
1493.1711504171676
 20
576.4837323586703
 10
1527.6018677462994
 20
579.9021682877792
 42
2.414213562373095
 10
1530.4700556214461
 20
583.4026680110848
 10
1529.225191670383
 20
595.9410217205374
 42
2.414213562373095
 10
1525.7246919470776
 20
598.809209595684
 10
1491.2939746179459
 20
595.3907736665751
 42
2.414213562373095
 10
1488.4257867427991
 20
591.8902739432696
  0
LWPOLYLINE
  5
8F
330
17
100
AcDbEntity
  8
CUT
100
AcDbPolyline
 90
8
 70
1
 10
1468.5225960597318
 20
711.3279081735784
 42
2.414213562373095
 10
1472.5153903585706
 20
709.1977453424406
 10
1505.6176273425062
 20
719.2675967146988
 42
2.414213562373095
 10
1507.7477901736438
 20
723.2603910135376
 10
1504.0807344716077
 20
735.3149628631788
 42
2.414213562373095
 10
1500.0879401727689
 20
737.4451256943166
 10
1466.9857031888332
 20
727.3752743220584
 42
2.414213562373095
 10
1464.8555403576956
 20
723.3824800232196
  0
LWPOLYLINE
  5
90
330
17
100
AcDbEntity
  8
CUT
100
AcDbPolyline
 90
8
 70
1
 10
1392.656054544786
 20
820.0254267660744
 42
2.414213562373095
 10
1396.9846032853643
 20
818.7049473832611
 10
1427.5246615774518
 20
834.9673223486799
 42
2.414213562373095
 10
1428.8451409602653
 20
839.2958710892585
 10
1422.9230044121646
 20
850.4173952071865
 42
2.414213562373095
 10
1418.5944556715863
 20
851.7378745899997
 10
1388.0543973794988
 20
835.475499624581
 42
2.414213562373095
 10
1386.7339179966852
 20
831.1469508840023
  0
LWPOLYLINE
  5
91
330
17
100
AcDbEntity
  8
CUT
100
AcDbPolyline
 90
8
 70
1
 10
1274.4176476292432
 20
884.2403943200469
 42
2.414213562373095
 10
1278.9184636450873
 20
883.7685307894377
 10
1305.8020124431023
 20
905.55005516274
 42
2.414213562373095
 10
1306.2738759737113
 20
910.0508711785843
 10
1298.3418757684049
 20
919.8408340356649
 42
2.414213562373095
 10
1293.8410597525608
 20
920.3126975662741
 10
1266.9575109545458
 20
898.5311731929718
 42
2.414213562373095
 10
1266.4856474239368
 20
894.0303571771275
  0
LWPOLYLINE
  5
92
330
17
100
AcDbEntity
  8
CUT
100
AcDbPolyline
 90
8
 70
1
 10
1143.0931017476819
 20
913.0176702351673
 42
2.414213562373095
 10
1147.5955573531232
 20
913.4736236549743
 10
1169.4719597942062
 20
940.280022447721
 42
2.414213562373095
 10
1169.0160063743992
 20
944.7824780531619
 10
1159.2541386059424
 20
952.7490292311286
 42
2.414213562373095
 10
1154.751683000501
 20
952.2930758113216
 10
1132.8752805594181
 20
925.4866770185749
 42
2.414213562373095
 10
1133.331233979225
 20
920.984221413134
  0
LWPOLYLINE
  5
93
330
17
100
AcDbEntity
  8
CUT
100
AcDbPolyline
 90
8
 70
1
 10
1011.223360327871
 20
921.6354412382343
 42
2.414213562373095
 10
1015.486095522137
 20
923.1550098163397
 10
1030.3163400407561
 20
954.4155895857226
 42
2.414213562373095
 10
1028.7967714626511
 20
958.6783247799888
 10
1017.4128609107947
 20
964.0789340555555
 42
2.414213562373095
 10
1013.1501257165287
 20
962.5593654774501
 10
998.3198811979096
 20
931.2987857080672
 42
2.414213562373095
 10
999.8394497760146
 20
927.036050513801
  0
LWPOLYLINE
  5
94
330
17
100
AcDbEntity
  8
CUT
100
AcDbPolyline
 90
8
 70
1
 10
882.6399175803472
 20
922.0280606652389
 42
2.414213562373095
 10
886.2969277055736
 20
924.693820771473
 10
891.6558731207515
 20
958.8762973353083
 42
2.414213562373095
 10
888.9901130145172
 20
962.5333074605348
 10
876.542159121329
 20
964.4848309354263
 42
2.414213562373095
 10
872.8851489961025
 20
961.8190708291921
 10
867.5262035809246
 20
927.6365942653568
 42
2.414213562373095
 10
870.1919636871589
 20
923.9795841401303
  0
LWPOLYLINE
  5
95
330
17
100
AcDbEntity
  8
CUT
100
AcDbPolyline
 90
8
 70
1
 10
755.8080363128411
 20
923.9795841401302
 42
2.414213562373095
 10
758.4737964190754
 20
927.6365942653567
 10
753.1148510038975
 20
961.819070829192
 42
2.414213562373095
 10
749.457840878671
 20
964.4848309354262
 10
737.0098869854828
 20
962.5333074605347
 42
2.414213562373095
 10
734.3441268792485
 20
958.8762973353082
 10
739.7030722944264
 20
924.6938207714729
 42
2.414213562373095
 10
743.3600824196528
 20
922.0280606652387
  0
LWPOLYLINE
  5
96
330
17
100
AcDbEntity
  8
CUT
100
AcDbPolyline
 90
8
 70
1
 10
626.1605502239854
 20
927.036050513801
 42
2.414213562373095
 10
627.6801188020906
 20
931.2987857080672
 10
612.8498742834711
 20
962.5593654774501
 42
2.414213562373095
 10
608.5871390892053
 20
964.0789340555555
 10
597.2032285373489
 20
958.6783247799888
 42
2.414213562373095
 10
595.6836599592436
 20
954.4155895857226
 10
610.5139044778632
 20
923.1550098163397
 42
2.414213562373095
 10
614.776639672129
 20
921.6354412382343
  0
LWPOLYLINE
  5
97
330
17
100
AcDbEntity
  8
CUT
100
AcDbPolyline
 90
8
 70
1
 10
492.6687660207742
 20
920.984221413134
 42
2.414213562373095
 10
493.1247194405812
 20
925.4866770185749
 10
471.24831699949823
 20
952.2930758113216
 42
2.414213562373095
 10
466.74586139405733
 20
952.7490292311286
 10
456.98399362560053
 20
944.7824780531619
 42
2.414213562373095
 10
456.52804020579356
 20
940.280022447721
 10
478.40444264687653
 20
913.4736236549743
 42
2.414213562373095
 10
482.90689825231743
 20
913.0176702351673
  0
LWPOLYLINE
  5
98
330
17
100
AcDbEntity
  8
CUT
100
AcDbPolyline
 90
8
 70
1
 10
359.5143525760634
 20
894.0303571771274
 42
2.414213562373095
 10
359.042489045454
 20
898.5311731929717
 10
332.15894024743943
 20
920.312697566274
 42
2.414213562373095
 10
327.6581242315949
 20
919.8408340356648
 10
319.7261240262885
 20
910.0508711785842
 42
2.414213562373095
 10
320.19798755689794
 20
905.5500551627399
 10
347.0815363549125
 20
883.7685307894376
 42
2.414213562373095
 10
351.582352370757
 20
884.2403943200468
  0
LWPOLYLINE
  5
99
330
17
100
AcDbEntity
  8
CUT
100
AcDbPolyline
 90
8
 70
1
 10
239.26608200331452
 20
831.1469508840023
 42
2.414213562373095
 10
237.9456026205014
 20
835.475499624581
 10
207.4055443284135
 20
851.7378745899997
 42
2.414213562373095
 10
203.07699558783474
 20
850.4173952071865
 10
197.15485903973445
 20
839.2958710892585
 42
2.414213562373095
 10
198.47533842254757
 20
834.9673223486799
 10
229.01539671463547
 20
818.7049473832611
 42
2.414213562373095
 10
233.34394545521423
 20
820.0254267660744
  0
LWPOLYLINE
  5
9A
330
17
100
AcDbEntity
  8
CUT
100
AcDbPolyline
 90
8
 70
1
 10
161.14445964230435
 20
723.3824800232198
 42
2.414213562373095
 10
159.0142968111668
 20
727.3752743220587
 10
125.91205982723113
 20
737.4451256943169
 42
2.414213562373095
 10
121.91926552839232
 20
735.3149628631791
 10
118.2522098263562
 20
723.2603910135379
 42
2.414213562373095
 10
120.38237265749376
 20
719.267596714699
 10
153.48460964142942
 20
709.1977453424408
 42
2.414213562373095
 10
157.47740394026823
 20
711.3279081735786
  0
LWPOLYLINE
  5
9B
330
17
100
AcDbEntity
  8
CUT
100
AcDbPolyline
 90
8
 70
1
 10
137.57421325720043
 20
591.8902739432694
 42
2.414213562373095
 10
134.7060253820539
 20
595.390773666575
 10
100.27530805292213
 20
598.8092095956839
 42
2.414213562373095
 10
96.77480832961646
 20
595.9410217205373
 10
95.52994437855386
 20
583.4026680110846
 42
2.414213562373095
 10
98.3981322537004
 20
579.9021682877791
 10
132.82884958283216
 20
576.4837323586702
 42
2.414213562373095
 10
136.32934930613783
 20
579.3519202338168
  0
LWPOLYLINE
  5
9C
330
17
100
AcDbEntity
  8
CUT
100
AcDbPolyline
 90
8
 70
1
 10
136.32934930613783
 20
457.64807976618306
 42
2.414213562373095
 10
132.82884958283216
 20
460.51626764132965
 10
98.3981322537004
 20
457.09783171222074
 42
2.414213562373095
 10
95.52994437855386
 20
453.59733198891524
 10
96.77480832961646
 20
441.0589782794626
 42
2.414213562373095
 10
100.27530805292213
 20
438.19079040431603
 10
134.7060253820539
 20
441.60922633342494
 42
2.414213562373095
 10
137.57421325720043
 20
445.10972605673044
  0
LWPOLYLINE
  5
9D
330
17
100
AcDbEntity
  8
CUT
100
AcDbPolyline
 90
8
 70
1
 10
157.47740394026823
 20
325.6720918264215
 42
2.414213562373095
 10
153.48460964142942
 20
327.80225465755933
 10
120.38237265749376
 20
317.73240328530113
 42
2.414213562373095
 10
118.2522098263562
 20
313.7396089864624
 10
121.91926552839232
 20
301.68503713682117
 42
2.414213562373095
 10
125.91205982723113
 20
299.5548743056833
 10
159.0142968111668
 20
309.6247256779415
 42
2.414213562373095
 10
161.14445964230435
 20
313.6175199767803
  0
LWPOLYLINE
  5
9E
330
17
100
AcDbEntity
  8
CUT
100
AcDbPolyline
 90
8
 70
1
 10
233.34394545521445
 20
216.97457323392558
 42
2.414213562373095
 10
229.0153967146357
 20
218.29505261673887
 10
198.4753384225478
 20
202.03267765132006
 42
2.414213562373095
 10
197.15485903973467
 20
197.70412891074145
 10
203.07699558783497
 20
186.5826047928135
 42
2.414213562373095
 10
207.40554432841373
 20
185.26212541000018
 10
237.94560262050163
 20
201.52450037541897
 42
2.414213562373095
 10
239.26608200331475
 20
205.85304911599763
  0
LWPOLYLINE
  5
9F
330
17
100
AcDbEntity
  8
CUT
100
AcDbPolyline
 90
8
 70
1
 10
351.5823523707568
 20
152.75960567995313
 42
2.414213562373095
 10
347.08153635491226
 20
153.23146921056238
 10
320.1979875568977
 20
131.44994483726018
 42
2.414213562373095
 10
319.7261240262883
 20
126.94912882141583
 10
327.6581242315947
 20
117.1591659643353
 42
2.414213562373095
 10
332.1589402474392
 20
116.68730243372605
 10
359.04248904545375
 20
138.46882680702825
 42
2.414213562373095
 10
359.5143525760632
 20
142.9696428228726
  0
LWPOLYLINE
  5
A0
330
17
100
AcDbEntity
  8
CUT
100
AcDbPolyline
 90
8
 70
1
 10
482.90689825231766
 20
123.98232976483266
 42
2.414213562373095
 10
478.40444264687676
 20
123.52637634502562
 10
456.5280402057938
 20
96.71997755227895
 42
2.414213562373095
 10
456.98399362560076
 20
92.21752194683805
 10
466.74586139405756
 20
84.25097076887133
 42
2.414213562373095
 10
471.24831699949846
 20
84.70692418867836
 10
493.12471944058143
 20
111.51332298142503
 42
2.414213562373095
 10
492.66876602077446
 20
116.01577858686593
  0
LWPOLYLINE
  5
A1
330
17
100
AcDbEntity
  8
CUT
100
AcDbPolyline
 90
8
 70
1
 10
614.776639672129
 20
115.3645587617657
 42
2.414213562373095
 10
610.5139044778632
 20
113.8449901836604
 10
595.6836599592436
 20
82.58441041427739
 42
2.414213562373095
 10
597.2032285373489
 20
78.32167522001127
 10
608.5871390892053
 20
72.92106594444466
 42
2.414213562373095
 10
612.8498742834711
 20
74.44063452254994
 10
627.6801188020906
 20
105.70121429193296
 42
2.414213562373095
 10
626.1605502239854
 20
109.96394948619906
  0
LWPOLYLINE
  5
A2
330
17
100
AcDbEntity
  8
CUT
100
AcDbPolyline
 90
8
 70
1
 10
743.3600824196528
 20
114.97193933476115
 42
2.414213562373095
 10
739.7030722944264
 20
112.30617922852696
 10
734.3441268792485
 20
78.12370266469172
 42
2.414213562373095
 10
737.0098869854828
 20
74.46669253946509
 10
749.457840878671
 20
72.5151690645737
 42
2.414213562373095
 10
753.1148510038975
 20
75.18092917080789
 10
758.4737964190754
 20
109.3634057346431
 42
2.414213562373095
 10
755.8080363128411
 20
113.02041585986973
  0
LWPOLYLINE
  5
A3
330
17
100
AcDbEntity
  8
CUT
100
AcDbPolyline
 90
8
 70
1
 10
870.1919636871585
 20
113.02041585986987
 42
2.414213562373095
 10
867.5262035809242
 20
109.36340573464324
 10
872.8851489961021
 20
75.180929170808
 42
2.414213562373095
 10
876.5421591213285
 20
72.51516906457381
 10
888.9901130145167
 20
74.4666925394652
 42
2.414213562373095
 10
891.655873120751
 20
78.12370266469183
 10
886.2969277055731
 20
112.30617922852704
 42
2.414213562373095
 10
882.6399175803467
 20
114.97193933476123
  0
LWPOLYLINE
  5
A4
330
17
100
AcDbEntity
  8
CUT
100
AcDbPolyline
 90
8
 70
1
 10
999.8394497760146
 20
109.96394948619903
 42
2.414213562373095
 10
998.3198811979096
 20
105.7012142919329
 10
1013.1501257165287
 20
74.44063452254989
 42
2.414213562373095
 10
1017.4128609107947
 20
72.92106594444459
 10
1028.7967714626511
 20
78.3216752200112
 42
2.414213562373095
 10
1030.3163400407561
 20
82.58441041427733
 10
1015.486095522137
 20
113.84499018366034
 42
2.414213562373095
 10
1011.223360327871
 20
115.36455876176566
  0
LWPOLYLINE
  5
A5
330
17
100
AcDbEntity
  8
CUT
100
AcDbPolyline
 90
8
 70
1
 10
1133.331233979225
 20
116.01577858686593
 42
2.414213562373095
 10
1132.8752805594181
 20
111.51332298142503
 10
1154.751683000501
 20
84.70692418867836
 42
2.414213562373095
 10
1159.2541386059424
 20
84.25097076887133
 10
1169.0160063743992
 20
92.21752194683805
 42
2.414213562373095
 10
1169.4719597942062
 20
96.71997755227895
 10
1147.5955573531232
 20
123.52637634502562
 42
2.414213562373095
 10
1143.0931017476819
 20
123.98232976483266
  0
LWPOLYLINE
  5
A6
330
17
100
AcDbEntity
  8
CUT
100
AcDbPolyline
 90
8
 70
1
 10
1266.4856474239368
 20
142.96964282287252
 42
2.414213562373095
 10
1266.9575109545458
 20
138.46882680702817
 10
1293.8410597525608
 20
116.6873024337259
 42
2.414213562373095
 10
1298.3418757684049
 20
117.15916596433516
 10
1306.2738759737113
 20
126.94912882141568
 42
2.414213562373095
 10
1305.8020124431023
 20
131.44994483726003
 10
1278.9184636450873
 20
153.2314692105623
 42
2.414213562373095
 10
1274.4176476292432
 20
152.75960567995304
  0
LWPOLYLINE
  5
A7
330
17
100
AcDbEntity
  8
CUT
100
AcDbPolyline
 90
8
 70
1
 10
1386.7339179966852
 20
205.8530491159974
 42
2.414213562373095
 10
1388.0543973794988
 20
201.5245003754188
 10
1418.5944556715863
 20
185.26212540999995
 42
2.414213562373095
 10
1422.9230044121646
 20
186.58260479281324
 10
1428.8451409602653
 20
197.7041289107412
 42
2.414213562373095
 10
1427.5246615774518
 20
202.03267765131983
 10
1396.9846032853643
 20
218.29505261673864
 42
2.414213562373095
 10
1392.656054544786
 20
216.97457323392535
  0
LWPOLYLINE
  5
A8
330
17
100
AcDbEntity
  8
CUT
100
AcDbPolyline
 90
8
 70
1
 10
1464.8555403576956
 20
313.6175199767801
 42
2.414213562373095
 10
1466.9857031888332
 20
309.6247256779413
 10
1500.0879401727689
 20
299.5548743056831
 42
2.414213562373095
 10
1504.0807344716077
 20
301.6850371368209
 10
1507.7477901736438
 20
313.7396089864621
 42
2.414213562373095
 10
1505.6176273425062
 20
317.7324032853009
 10
1472.5153903585706
 20
327.8022546575591
 42
2.414213562373095
 10
1468.5225960597318
 20
325.6720918264213
  0
LWPOLYLINE
  5
A9
330
17
100
AcDbEntity
  8
CUT
100
AcDbPolyline
 90
8
 70
1
 10
1488.4257867427996
 20
445.1097260567302
 42
2.414213562373095
 10
1491.2939746179463
 20
441.6092263334247
 10
1525.724691947078
 20
438.1907904043158
 42
2.414213562373095
 10
1529.2251916703835
 20
441.0589782794624
 10
1530.4700556214466
 20
453.597331988915
 42
2.414213562373095
 10
1527.6018677462998
 20
457.0978317122205
 10
1493.171150417168
 20
460.5162676413294
 42
2.414213562373095
 10
1489.6706506938626
 20
457.64807976618283
  0
TEXT
  5
AA
330
17
100
AcDbEntity
  8
ENGRAVE-LABEL
100
AcDbText
 10
131.98633030059355
 20
807.6542959512559
 30
0.0
 40
22.0
  1
10 SEAT-RING-R
 50
45.0
 72
1
 11
131.98633030059355
 21
807.6542959512559
 31
0.0
100
AcDbText
 73
2
  0
ENDSEC
  0
SECTION
  2
OBJECTS
  0
DICTIONARY
  5
A
330
0
100
AcDbDictionary
281
1
  3
ACAD_COLOR
350
B
  3
ACAD_GROUP
350
C
  3
ACAD_LAYOUT
350
D
  3
ACAD_MATERIAL
350
E
  3
ACAD_MLEADERSTYLE
350
F
  3
ACAD_MLINESTYLE
350
10
  3
ACAD_PLOTSETTINGS
350
11
  3
ACAD_PLOTSTYLENAME
350
12
  3
ACAD_SCALELIST
350
14
  3
ACAD_TABLESTYLE
350
15
  3
ACAD_VISUALSTYLE
350
16
  3
EZDXF_META
350
2D
  0
DICTIONARY
  5
B
330
A
100
AcDbDictionary
281
1
  0
DICTIONARY
  5
C
330
A
100
AcDbDictionary
281
1
  0
DICTIONARY
  5
D
330
A
100
AcDbDictionary
281
1
  3
Model
350
1A
  3
Layout1
350
1E
  0
DICTIONARY
  5
E
330
A
100
AcDbDictionary
281
1
  3
ByBlock
350
1F
  3
ByLayer
350
20
  3
Global
350
21
  0
DICTIONARY
  5
F
330
A
100
AcDbDictionary
281
1
  3
Standard
350
2C
  0
DICTIONARY
  5
10
330
A
100
AcDbDictionary
281
1
  3
Standard
350
22
  0
DICTIONARY
  5
11
330
A
100
AcDbDictionary
281
1
  0
ACDBDICTIONARYWDFLT
  5
12
330
A
100
AcDbDictionary
281
1
  3
Normal
350
13
100
AcDbDictionaryWithDefault
340
13
  0
ACDBPLACEHOLDER
  5
13
330
12
  0
DICTIONARY
  5
14
330
A
100
AcDbDictionary
281
1
  0
DICTIONARY
  5
15
330
A
100
AcDbDictionary
281
1
  0
DICTIONARY
  5
16
330
A
100
AcDbDictionary
281
1
  3
2dWireframe
350
5A
  3
Basic
350
5B
  3
Brighten
350
5C
  3
ColorChange
350
5D
  3
Conceptual
350
5E
  3
Dim
350
5F
  3
EdgeColorOff
350
60
  3
Facepattern
350
61
  3
Flat
350
62
  3
FlatWithEdges
350
63
  3
Gouraud
350
64
  3
GouraudWithEdges
350
65
  3
Hidden
350
66
  3
JitterOff
350
67
  3
Linepattern
350
68
  3
Modeling
350
69
  3
OverhangOff
350
6A
  3
Realistic
350
6B
  3
Shaded
350
6C
  3
Shaded with edges
350
6D
  3
Shades of Gray
350
6E
  3
Sketchy
350
6F
  3
Thicken
350
70
  3
Wireframe
350
71
  3
X-Ray
350
72
  0
LAYOUT
  5
1A
330
D
100
AcDbPlotSettings
  1

  4
A3
  6

 40
7.5
 41
20.0
 42
7.5
 43
20.0
 44
420.0
 45
297.0
 46
0.0
 47
0.0
 48
0.0
 49
0.0
140
0.0
141
0.0
142
1.0
143
1.0
 70
1024
 72
1
 73
0
 74
5
  7

 75
16
 76
0
 77
2
 78
300
147
1.0
148
0.0
149
0.0
100
AcDbLayout
  1
Model
 70
1
 71
0
 10
0.0
 20
0.0
 11
420.0
 21
297.0
 12
0.0
 22
0.0
 32
0.0
 14
1e+20
 24
1e+20
 34
1e+20
 15
-1e+20
 25
-1e+20
 35
-1e+20
146
0.0
 13
0.0
 23
0.0
 33
0.0
 16
1.0
 26
0.0
 36
0.0
 17
0.0
 27
1.0
 37
0.0
 76
1
330
17
  0
LAYOUT
  5
1E
330
D
100
AcDbPlotSettings
  1

  4
A3
  6

 40
7.5
 41
20.0
 42
7.5
 43
20.0
 44
420.0
 45
297.0
 46
0.0
 47
0.0
 48
0.0
 49
0.0
140
0.0
141
0.0
142
1.0
143
1.0
 70
0
 72
1
 73
0
 74
5
  7

 75
16
 76
0
 77
2
 78
300
147
1.0
148
0.0
149
0.0
100
AcDbLayout
  1
Layout1
 70
1
 71
1
 10
0.0
 20
0.0
 11
420.0
 21
297.0
 12
0.0
 22
0.0
 32
0.0
 14
1e+20
 24
1e+20
 34
1e+20
 15
-1e+20
 25
-1e+20
 35
-1e+20
146
0.0
 13
0.0
 23
0.0
 33
0.0
 16
1.0
 26
0.0
 36
0.0
 17
0.0
 27
1.0
 37
0.0
 76
1
330
1B
  0
MATERIAL
  5
1F
102
{ACAD_REACTORS
330
E
102
}
330
E
100
AcDbMaterial
  1
ByBlock
  2

 70
0
 40
1.0
 71
1
 41
1.0
 91
-1023410177
 42
1.0
 72
1
  3

 73
1
 74
1
 75
1
 44
0.5
 73
0
 45
1.0
 46
1.0
 77
1
  4

 78
1
 79
1
170
1
 48
1.0
171
1
  6

172
1
173
1
174
1
140
1.0
141
1.0
175
1
  7

176
1
177
1
178
1
143
1.0
179
1
  8

270
1
271
1
272
1
145
1.0
146
1.0
273
1
  9

274
1
275
1
276
1
 42
1.0
 72
1
  3

 73
1
 74
1
 75
1
 94
63
  0
MATERIAL
  5
20
102
{ACAD_REACTORS
330
E
102
}
330
E
100
AcDbMaterial
  1
ByLayer
  2

 70
0
 40
1.0
 71
1
 41
1.0
 91
-1023410177
 42
1.0
 72
1
  3

 73
1
 74
1
 75
1
 44
0.5
 73
0
 45
1.0
 46
1.0
 77
1
  4

 78
1
 79
1
170
1
 48
1.0
171
1
  6

172
1
173
1
174
1
140
1.0
141
1.0
175
1
  7

176
1
177
1
178
1
143
1.0
179
1
  8

270
1
271
1
272
1
145
1.0
146
1.0
273
1
  9

274
1
275
1
276
1
 42
1.0
 72
1
  3

 73
1
 74
1
 75
1
 94
63
  0
MATERIAL
  5
21
102
{ACAD_REACTORS
330
E
102
}
330
E
100
AcDbMaterial
  1
Global
  2

 70
0
 40
1.0
 71
1
 41
1.0
 91
-1023410177
 42
1.0
 72
1
  3

 73
1
 74
1
 75
1
 44
0.5
 73
0
 45
1.0
 46
1.0
 77
1
  4

 78
1
 79
1
170
1
 48
1.0
171
1
  6

172
1
173
1
174
1
140
1.0
141
1.0
175
1
  7

176
1
177
1
178
1
143
1.0
179
1
  8

270
1
271
1
272
1
145
1.0
146
1.0
273
1
  9

274
1
275
1
276
1
 42
1.0
 72
1
  3

 73
1
 74
1
 75
1
 94
63
  0
MLINESTYLE
  5
22
102
{ACAD_REACTORS
330
10
102
}
330
10
100
AcDbMlineStyle
  2
Standard
 70
0
  3

 62
256
 51
90.0
 52
90.0
 71
2
 49
0.5
 62
256
  6
BYLAYER
 49
-0.5
 62
256
  6
BYLAYER
  0
MLEADERSTYLE
  5
2C
102
{ACAD_REACTORS
330
F
102
}
330
F
100
AcDbMLeaderStyle
179
2
170
2
171
1
172
0
 90
2
 40
0.0
 41
0.0
173
1
 91
-1056964608
 92
-2
290
1
 42
2.0
291
1
 43
8.0
  3
Standard
 44
4.0
300

342
29
174
1
175
1
176
0
178
1
 93
-1056964608
 45
4.0
292
0
297
0
 46
4.0
 94
-1056964608
 47
1.0
 49
1.0
140
1.0
294
1
141
0.0
177
0
142
1.0
295
0
296
0
143
3.75
271
0
272
9
273
9
  0
DICTIONARY
  5
2D
330
A
100
AcDbDictionary
280
1
281
1
  3
CREATED_BY_EZDXF
350
2E
  3
WRITTEN_BY_EZDXF
350
AD
  0
DICTIONARYVAR
  5
2E
330
2D
100
DictionaryVariables
280
0
  1
1.4.4 @ 2026-10-02T17:38:47.977074+00:00
  0
VISUALSTYLE
  5
5A
102
{ACAD_REACTORS
330
16
102
}
330
16
100
AcDbVisualStyle
  2
2dWireframe
 70
4
 90
0
 40
0.6
 62
7
290
0
291
0
  0
VISUALSTYLE
  5
5B
102
{ACAD_REACTORS
330
16
102
}
330
16
100
AcDbVisualStyle
  2
Basic
 70
7
 90
1
 40
0.6
 62
7
290
0
291
1
  0
VISUALSTYLE
  5
5C
102
{ACAD_REACTORS
330
16
102
}
330
16
100
AcDbVisualStyle
  2
Brighten
 70
12
 90
2
 40
0.6
 62
7
290
0
291
1
  0
VISUALSTYLE
  5
5D
102
{ACAD_REACTORS
330
16
102
}
330
16
100
AcDbVisualStyle
  2
ColorChange
 70
16
 90
2
 40
0.6
 62
8
290
0
291
1
  0
VISUALSTYLE
  5
5E
102
{ACAD_REACTORS
330
16
102
}
330
16
100
AcDbVisualStyle
  2
Conceptual
 70
9
 90
3
 40
0.6
 62
7
290
0
291
0
  0
VISUALSTYLE
  5
5F
102
{ACAD_REACTORS
330
16
102
}
330
16
100
AcDbVisualStyle
  2
Dim
 70
11
 90
2
 40
0.6
 62
7
290
0
291
1
  0
VISUALSTYLE
  5
60
102
{ACAD_REACTORS
330
16
102
}
330
16
100
AcDbVisualStyle
  2
EdgeColorOff
 70
22
 90
2
 40
0.6
 62
7
290
0
291
1
  0
VISUALSTYLE
  5
61
102
{ACAD_REACTORS
330
16
102
}
330
16
100
AcDbVisualStyle
  2
Facepattern
 70
15
 90
2
 40
0.6
 62
7
290
0
291
1
  0
VISUALSTYLE
  5
62
102
{ACAD_REACTORS
330
16
102
}
330
16
100
AcDbVisualStyle
  2
Flat
 70
0
 90
2
 40
0.6
 62
7
290
0
291
1
  0
VISUALSTYLE
  5
63
102
{ACAD_REACTORS
330
16
102
}
330
16
100
AcDbVisualStyle
  2
FlatWithEdges
 70
1
 90
2
 40
0.6
 62
7
290
0
291
1
  0
VISUALSTYLE
  5
64
102
{ACAD_REACTORS
330
16
102
}
330
16
100
AcDbVisualStyle
  2
Gouraud
 70
2
 90
2
 40
0.6
 62
7
290
0
291
1
  0
VISUALSTYLE
  5
65
102
{ACAD_REACTORS
330
16
102
}
330
16
100
AcDbVisualStyle
  2
GouraudWithEdges
 70
3
 90
2
 40
0.6
 62
7
290
0
291
1
  0
VISUALSTYLE
  5
66
102
{ACAD_REACTORS
330
16
102
}
330
16
100
AcDbVisualStyle
  2
Hidden
 70
6
 90
1
 40
0.6
 62
7
290
0
291
0
  0
VISUALSTYLE
  5
67
102
{ACAD_REACTORS
330
16
102
}
330
16
100
AcDbVisualStyle
  2
JitterOff
 70
20
 90
2
 40
0.6
 62
7
290
0
291
1
  0
VISUALSTYLE
  5
68
102
{ACAD_REACTORS
330
16
102
}
330
16
100
AcDbVisualStyle
  2
Linepattern
 70
14
 90
2
 40
0.6
 62
7
290
0
291
1
  0
VISUALSTYLE
  5
69
102
{ACAD_REACTORS
330
16
102
}
330
16
100
AcDbVisualStyle
  2
Modeling
 70
10
 90
2
 40
0.6
 62
7
290
0
291
0
  0
VISUALSTYLE
  5
6A
102
{ACAD_REACTORS
330
16
102
}
330
16
100
AcDbVisualStyle
  2
OverhangOff
 70
21
 90
2
 40
0.6
 62
7
290
0
291
1
  0
VISUALSTYLE
  5
6B
102
{ACAD_REACTORS
330
16
102
}
330
16
100
AcDbVisualStyle
  2
Realistic
 70
8
 90
2
 40
0.6
 62
7
290
0
291
0
  0
VISUALSTYLE
  5
6C
102
{ACAD_REACTORS
330
16
102
}
330
16
100
AcDbVisualStyle
  2
Shaded
 70
27
 90
2
 40
0.6
 62
7
290
0
291
0
  0
VISUALSTYLE
  5
6D
102
{ACAD_REACTORS
330
16
102
}
330
16
100
AcDbVisualStyle
  2
Shaded with edges
 70
26
 90
2
 40
0.6
 62
7
290
0
291
0
  0
VISUALSTYLE
  5
6E
102
{ACAD_REACTORS
330
16
102
}
330
16
100
AcDbVisualStyle
  2
Shades of Gray
 70
23
 90
2
 40
0.6
 62
7
290
0
291
0
  0
VISUALSTYLE
  5
6F
102
{ACAD_REACTORS
330
16
102
}
330
16
100
AcDbVisualStyle
  2
Sketchy
 70
24
 90
1
 40
0.6
 62
7
290
0
291
0
  0
VISUALSTYLE
  5
70
102
{ACAD_REACTORS
330
16
102
}
330
16
100
AcDbVisualStyle
  2
Thicken
 70
13
 90
2
 40
0.6
 62
7
290
0
291
1
  0
VISUALSTYLE
  5
71
102
{ACAD_REACTORS
330
16
102
}
330
16
100
AcDbVisualStyle
  2
Wireframe
 70
5
 90
0
 40
0.6
 62
7
290
0
291
0
  0
VISUALSTYLE
  5
72
102
{ACAD_REACTORS
330
16
102
}
330
16
100
AcDbVisualStyle
  2
X-Ray
 70
25
 90
2
 40
0.5
 62
7
290
0
291
0
  0
DICTIONARYVAR
  5
AD
330
2D
100
DictionaryVariables
280
0
  1
1.4.4 @ 2026-10-02T17:38:48.019473+00:00
  0
ENDSEC
  0
EOF
