  0
SECTION
  2
HEADER
  9
$ACADVER
  1
AC1009
  9
$DWGCODEPAGE
  3
ANSI_1252
  9
$INSBASE
 10
0.0
 20
0.0
 30
0.0
  9
$EXTMIN
 10
0.0000
 20
0.0000
 30
0.0000
  9
$EXTMAX
 10
2440.0000
 20
1220.0000
 30
0.0000
  9
$LIMMIN
 10
0.0000
 20
0.0000
  9
$LIMMAX
 10
2440.0000
 20
1220.0000
  9
$ORTHOMODE
 70
0
  9
$REGENMODE
 70
1
  9
$FILLMODE
 70
1
  9
$DRAGMODE
 70
2
  9
$QTEXTMODE
 70
0
  9
$MIRRTEXT
 70
1
  9
$OSMODE
 70
20583
  9
$LTSCALE
 40
1.0
  9
$ATTMODE
 70
1
  9
$TEXTSIZE
 40
2.5
  9
$TRACEWID
 40
1.0
  9
$TEXTSTYLE
  7
Standard
  9
$CLAYER
  8
0
  9
$CELTYPE
  6
ByLayer
  9
$CECOLOR
 62
256
  9
$DIMSCALE
 40
1.0
  9
$DIMASZ
 40
2.5
  9
$DIMEXO
 40
0.625
  9
$DIMDLI
 40
3.75
  9
$DIMRND
 40
0.0
  9
$DIMDLE
 40
0.0
  9
$DIMEXE
 40
1.25
  9
$DIMTP
 40
0.0
  9
$DIMTM
 40
0.0
  9
$DIMTXT
 40
2.5
  9
$DIMCEN
 40
2.5
  9
$DIMTSZ
 40
0.0
  9
$DIMTOL
 70
0
  9
$DIMLIM
 70
0
  9
$DIMTIH
 70
0
  9
$DIMTOH
 70
0
  9
$DIMSE1
 70
0
  9
$DIMSE2
 70
0
  9
$DIMTAD
 70
1
  9
$DIMZIN
 70
8
  9
$DIMBLK
  1

  9
$DIMASO
 70
1
  9
$DIMSHO
 70
1
  9
$DIMPOST
  1

  9
$DIMAPOST
  1

  9
$DIMALT
 70
0
  9
$DIMALTD
 70
3
  9
$DIMALTF
 40
0.03937007874
  9
$DIMLFAC
 40
1.0
  9
$DIMTOFL
 70
1
  9
$DIMTVP
 40
0.0
  9
$DIMTIX
 70
0
  9
$DIMSOXD
 70
0
  9
$DIMSAH
 70
0
  9
$DIMBLK1
  1

  9
$DIMBLK2
  1

  9
$DIMSTYLE
  2
ISO-25
  9
$DIMCLRD
 70
0
  9
$DIMCLRE
 70
0
  9
$DIMCLRT
 70
0
  9
$DIMTFAC
 40
1.0
  9
$DIMGAP
 40
0.625
  9
$COORDS
 70
1
  9
$ATTDIA
 70
0
  9
$ATTREQ
 70
1
  9
$HANDLING
 70
1
  9
$LUNITS
 70
2
  9
$LUPREC
 70
4
  9
$SKETCHINC
 40
1.0
  9
$FILLETRAD
 40
10.0
  9
$AUNITS
 70
0
  9
$AUPREC
 70
2
  9
$MENU
  1
.
  9
$ELEVATION
 40
0.0
  9
$PELEVATION
 40
0.0
  9
$THICKNESS
 40
0.0
  9
$LIMCHECK
 70
0
  9
$CHAMFERA
 40
0.0
  9
$CHAMFERB
 40
0.0
  9
$SKPOLY
 70
0
  9
$TDCREATE
 40
2461317.265763889
  9
$TDUPDATE
 40
2461317.265763889
  9
$TDINDWG
 40
0.0
  9
$TDUSRTIMER
 40
0.0
  9
$USRTIMER
 70
1
  9
$ANGBASE
 50
0.0
  9
$ANGDIR
 70
0
  9
$PDMODE
 70
0
  9
$PDSIZE
 40
0.0
  9
$PLINEWID
 40
0.0
  9
$SPLFRAME
 70
0
  9
$SPLINETYPE
 70
6
  9
$SPLINESEGS
 70
8
  9
$HANDSEED
  5
3CC
  9
$SURFTAB1
 70
6
  9
$SURFTAB2
 70
6
  9
$SURFTYPE
 70
6
  9
$SURFU
 70
6
  9
$SURFV
 70
6
  9
$UCSNAME
  2

  9
$UCSORG
 10
0.0
 20
0.0
 30
0.0
  9
$UCSXDIR
 10
1.0
 20
0.0
 30
0.0
  9
$UCSYDIR
 10
0.0
 20
1.0
 30
0.0
  9
$PUCSNAME
  2

  9
$PUCSORG
 10
0.0
 20
0.0
 30
0.0
  9
$PUCSXDIR
 10
1.0
 20
0.0
 30
0.0
  9
$PUCSYDIR
 10
0.0
 20
1.0
 30
0.0
  9
$USERI1
 70
0
  9
$USERI2
 70
0
  9
$USERI3
 70
0
  9
$USERI4
 70
0
  9
$USERI5
 70
0
  9
$USERR1
 40
0.0
  9
$USERR2
 40
0.0
  9
$USERR3
 40
0.0
  9
$USERR4
 40
0.0
  9
$USERR5
 40
0.0
  9
$WORLDVIEW
 70
1
  9
$SHADEDGE
 70
3
  9
$SHADEDIF
 70
70
  9
$TILEMODE
 70
1
  9
$MAXACTVP
 70
64
  9
$PLIMCHECK
 70
0
  9
$PEXTMIN
 10
1e+20
 20
1e+20
 30
1e+20
  9
$PEXTMAX
 10
-1e+20
 20
-1e+20
 30
-1e+20
  9
$PLIMMIN
 10
0.0
 20
0.0
  9
$PLIMMAX
 10
420.0
 20
297.0
  9
$UNITMODE
 70
0
  9
$VISRETAIN
 70
1
  9
$PLINEGEN
 70
0
  9
$PSLTSCALE
 70
1
  0
ENDSEC
  0
SECTION
  2
TABLES
  0
TABLE
  2
VPORT
 70
1
  0
VPORT
  5
23
  2
*Active
 70
0
 10
0.0
 20
0.0
 11
1.0
 21
1.0
 12
0.0
 22
0.0
 13
0.0
 23
0.0
 14
0.5
 24
0.5
 15
0.5
 25
0.5
 16
0.0
 26
0.0
 36
1.0
 17
0.0
 27
0.0
 37
0.0
 40
1000.0
 41
1.34
 42
50.0
 43
0.0
 44
0.0
 50
0.0
 51
0.0
 71
0
 72
1000
 73
1
 74
3
 75
0
 76
0
 77
0
 78
0
  0
ENDTAB
  0
TABLE
  2
LTYPE
 70
3
  0
LTYPE
  5
24
  2
ByBlock
 70
0
  3

 72
65
 73
0
 40
0.0
  0
LTYPE
  5
25
  2
ByLayer
 70
0
  3

 72
65
 73
0
 40
0.0
  0
LTYPE
  5
26
  2
Continuous
 70
0
  3

 72
65
 73
0
 40
0.0
  0
ENDTAB
  0
TABLE
  2
LAYER
 70
5
  0
LAYER
  5
27
  2
0
 70
0
 62
7
  6
Continuous
  0
LAYER
  5
28
  2
Defpoints
 70
0
 62
7
  6
Continuous
  0
LAYER
  5
2D
  2
COUPE
 70
0
 62
1
  6
Continuous
  0
LAYER
  5
2E
  2
POCHE_KERF_15MM
 70
0
 62
5
  6
Continuous
  0
LAYER
  5
2F
  2
PLANCHE
 70
0
 62
8
  6
Continuous
  0
ENDTAB
  0
TABLE
  2
STYLE
 70
1
  0
STYLE
  5
29
  2
Standard
 70
0
 40
0.0
 41
1.0
 50
0.0
 71
0
 42
2.5
  3
txt
  4

  0
ENDTAB
  0
TABLE
  2
VIEW
 70
0
  0
ENDTAB
  0
TABLE
  2
UCS
 70
0
  0
ENDTAB
  0
TABLE
  2
APPID
 70
3
  0
APPID
  5
2A
  2
ACAD
 70
0
  0
APPID
  5
3CA
  2
HATCHBACKGROUNDCOLOR
 70
0
  0
APPID
  5
3CB
  2
EZDXF
 70
0
  0
ENDTAB
  0
TABLE
  2
DIMSTYLE
 70
1
  0
DIMSTYLE
105
2B
  2
Standard
 70
0
  3

  4

  5

  6

  7

 40
1.0
 41
2.5
 42
0.625
 43
3.75
 44
1.25
 45
0.0
 46
0.0
 47
0.0
 48
0.0
140
2.5
141
2.5
142
0.0
143
0.03937007874
144
1.0
145
0.0
146
1.0
147
0.625
 71
0
 72
0
 73
0
 74
0
 75
0
 76
0
 77
1
 78
8
170
0
171
3
172
1
173
0
174
0
175
0
176
0
177
0
178
0
  0
ENDTAB
  0
ENDSEC
  0
SECTION
  2
BLOCKS
  0
BLOCK
  5
18
  8
0
  2
$Model_Space
 70
0
 10
0.0
 20
0.0
 30
0.0
  3
$Model_Space
  1

1001
EZDXF
1000
CREATED_BY_EZDXF
1000
1.4.4 @ 2026-10-03T06:22:42.115121+00:00
1000
WRITTEN_BY_EZDXF
1000
1.4.4 @ 2026-10-03T06:22:42.160200+00:00
  0
ENDBLK
  5
19
  8
0
  0
BLOCK
  5
1C
  8
0
  2
$Paper_Space
 70
0
 10
0.0
 20
0.0
 30
0.0
  3
$Paper_Space
  1

  0
ENDBLK
  5
1D
  8
0
  0
ENDSEC
  0
SECTION
  2
ENTITIES
  0
POLYLINE
  5
30
  8
PLANCHE
 66
1
 10
0.0
 20
0.0
 30
0.0
 70
1
  0
VERTEX
  5
32
  8
PLANCHE
 10
0.0
 20
0.0
 30
0.0
 70
0
  0
VERTEX
  5
33
  8
PLANCHE
 10
2440.0
 20
0.0
 30
0.0
 70
0
  0
VERTEX
  5
34
  8
PLANCHE
 10
2440.0
 20
1220.0
 30
0.0
 70
0
  0
VERTEX
  5
35
  8
PLANCHE
 10
0.0
 20
1220.0
 30
0.0
 70
0
  0
SEQEND
  5
31
  8
PLANCHE
  0
POLYLINE
  5
36
  8
COUPE
 66
1
 10
0.0
 20
0.0
 30
0.0
 70
1
  0
VERTEX
  5
38
  8
COUPE
 10
807.6762893210657
 20
21.1781394492034
 30
0.0
 70
0
  0
VERTEX
  5
39
  8
COUPE
 10
1144.825219037117
 20
342.4733295646502
 30
0.0
 42
0.20517629136539733
 70
0
  0
VERTEX
  5
3A
  8
COUPE
 10
582.9103361770312
 20
583.1900808519069
 30
0.0
 42
0.20517629136539733
 70
0
  0
VERTEX
  5
3B
  8
COUPE
 10
20.99545331694594
 20
342.4733295646502
 30
0.0
 70
0
  0
VERTEX
  5
3C
  8
COUPE
 10
358.1443830329972
 20
21.1781394492034
 30
0.0
 42
-0.20517629136539733
 70
0
  0
VERTEX
  5
3D
  8
COUPE
 10
582.9103361770315
 20
117.46483996410606
 30
0.0
 42
-0.20517629136539733
 70
0
  0
SEQEND
  5
37
  8
COUPE
  0
POLYLINE
  5
3E
  8
POCHE_KERF_15MM
 66
1
 10
0.0
 20
0.0
 30
0.0
 70
1
  0
VERTEX
  5
40
  8
POCHE_KERF_15MM
 10
794.2781235787237
 20
26.168153401508057
 30
0.0
 70
0
  0
VERTEX
  5
41
  8
POCHE_KERF_15MM
 10
798.5558565362865
 20
21.96089767552923
 30
0.0
 70
0
  0
VERTEX
  5
42
  8
POCHE_KERF_15MM
 10
1133.5412323979228
 20
362.55773227641834
 30
0.0
 70
0
  0
VERTEX
  5
43
  8
POCHE_KERF_15MM
 10
1129.2634994403602
 20
366.7649880023973
 30
0.0
 70
0
  0
SEQEND
  5
3F
  8
POCHE_KERF_15MM
  0
POLYLINE
  5
44
  8
POCHE_KERF_15MM
 66
1
 10
0.0
 20
0.0
 30
0.0
 70
1
  0
VERTEX
  5
46
  8
POCHE_KERF_15MM
 10
787.0715600245136
 20
32.895915622179444
 30
0.0
 70
0
  0
VERTEX
  5
47
  8
POCHE_KERF_15MM
 10
791.483253086193
 20
28.82934897087156
 30
0.0
 70
0
  0
VERTEX
  5
48
  8
POCHE_KERF_15MM
 10
1115.2668419332535
 20
380.0922040731795
 30
0.0
 70
0
  0
VERTEX
  5
49
  8
POCHE_KERF_15MM
 10
1110.8551488715739
 20
384.1587707244875
 30
0.0
 70
0
  0
SEQEND
  5
45
  8
POCHE_KERF_15MM
  0
POLYLINE
  5
4A
  8
POCHE_KERF_15MM
 66
1
 10
0.0
 20
0.0
 30
0.0
 70
1
  0
VERTEX
  5
4C
  8
POCHE_KERF_15MM
 10
779.6509746833942
 20
39.386852068789224
 30
0.0
 70
0
  0
VERTEX
  5
4D
  8
POCHE_KERF_15MM
 10
784.1920030805171
 20
35.465237465526414
 30
0.0
 70
0
  0
VERTEX
  5
4E
  8
POCHE_KERF_15MM
 10
1096.4343832493232
 20
397.0258849478348
 30
0.0
 70
0
  0
VERTEX
  5
4F
  8
POCHE_KERF_15MM
 10
1091.8933548522002
 20
400.9474995510975
 30
0.0
 70
0
  0
SEQEND
  5
4B
  8
POCHE_KERF_15MM
  0
POLYLINE
  5
50
  8
POCHE_KERF_15MM
 66
1
 10
0.0
 20
0.0
 30
0.0
 70
1
  0
VERTEX
  5
52
  8
POCHE_KERF_15MM
 10
772.0241465395659
 20
45.63415830614238
 30
0.0
 70
0
  0
VERTEX
  5
53
  8
POCHE_KERF_15MM
 10
776.6897499214953
 20
41.861606771367946
 30
0.0
 70
0
  0
VERTEX
  5
54
  8
POCHE_KERF_15MM
 10
1077.0635983734544
 20
413.3410233578953
 30
0.0
 70
0
  0
VERTEX
  5
55
  8
POCHE_KERF_15MM
 10
1072.3979949915251
 20
417.1135748926698
 30
0.0
 70
0
  0
SEQEND
  5
51
  8
POCHE_KERF_15MM
  0
POLYLINE
  5
56
  8
POCHE_KERF_15MM
 66
1
 10
0.0
 20
0.0
 30
0.0
 70
1
  0
VERTEX
  5
58
  8
POCHE_KERF_15MM
 10
764.1990707811306
 20
51.63128529608609
 30
0.0
 70
0
  0
VERTEX
  5
59
  8
POCHE_KERF_15MM
 10
768.9843582055319
 20
48.0117515877382
 30
0.0
 70
0
  0
VERTEX
  5
5A
  8
POCHE_KERF_15MM
 10
1057.1747936591992
 20
429.0205161776527
 30
0.0
 70
0
  0
VERTEX
  5
5B
  8
POCHE_KERF_15MM
 10
1052.3895062347979
 20
432.64004988600067
 30
0.0
 70
0
  0
SEQEND
  5
57
  8
POCHE_KERF_15MM
  0
POLYLINE
  5
5C
  8
POCHE_KERF_15MM
 66
1
 10
0.0
 20
0.0
 30
0.0
 70
1
  0
VERTEX
  5
5E
  8
POCHE_KERF_15MM
 10
756.1839504187529
 20
57.37194626285308
 30
0.0
 70
0
  0
VERTEX
  5
5F
  8
POCHE_KERF_15MM
 10
761.0839054787584
 20
53.90922473060031
 30
0.0
 70
0
  0
VERTEX
  5
60
  8
POCHE_KERF_15MM
 10
1036.7888184992294
 20
444.0479266273511
 30
0.0
 70
0
  0
VERTEX
  5
61
  8
POCHE_KERF_15MM
 10
1031.8888634392238
 20
447.5106481596039
 30
0.0
 70
0
  0
SEQEND
  5
5D
  8
POCHE_KERF_15MM
  0
POLYLINE
  5
62
  8
POCHE_KERF_15MM
 66
1
 10
0.0
 20
0.0
 30
0.0
 70
1
  0
VERTEX
  5
64
  8
POCHE_KERF_15MM
 10
747.9871876864611
 20
62.850123283475476
 30
0.0
 70
0
  0
VERTEX
  5
65
  8
POCHE_KERF_15MM
 10
752.9966737693586
 20
59.54784389110787
 30
0.0
 70
0
  0
VERTEX
  5
66
  8
POCHE_KERF_15MM
 10
1015.9270434689627
 20
458.4075015038286
 30
0.0
 70
0
  0
VERTEX
  5
67
  8
POCHE_KERF_15MM
 10
1010.9175573860653
 20
461.7097808961962
 30
0.0
 70
0
  0
SEQEND
  5
63
  8
POCHE_KERF_15MM
  0
POLYLINE
  5
68
  8
POCHE_KERF_15MM
 66
1
 10
0.0
 20
0.0
 30
0.0
 70
1
  0
VERTEX
  5
6A
  8
POCHE_KERF_15MM
 10
739.6173752336024
 20
68.06007359636084
 30
0.0
 70
0
  0
VERTEX
  5
6B
  8
POCHE_KERF_15MM
 10
744.7311409055362
 20
64.92169811650655
 30
0.0
 70
0
  0
VERTEX
  5
6C
  8
POCHE_KERF_15MM
 10
994.6113379238332
 20
472.08418769456716
 30
0.0
 70
0
  0
VERTEX
  5
6D
  8
POCHE_KERF_15MM
 10
989.4975722518993
 20
475.22256317442157
 30
0.0
 70
0
  0
SEQEND
  5
69
  8
POCHE_KERF_15MM
  0
POLYLINE
  5
6E
  8
POCHE_KERF_15MM
 66
1
 10
0.0
 20
0.0
 30
0.0
 70
1
  0
VERTEX
  5
70
  8
POCHE_KERF_15MM
 10
731.0832871171867
 20
72.99633562141751
 30
0.0
 70
0
  0
VERTEX
  5
71
  8
POCHE_KERF_15MM
 10
736.2959716282244
 20
70.0251540065734
 30
0.0
 70
0
  0
VERTEX
  5
72
  8
POCHE_KERF_15MM
 10
972.86404707369
 20
485.0636479578404
 30
0.0
 70
0
  0
VERTEX
  5
73
  8
POCHE_KERF_15MM
 10
967.6513625626523
 20
488.0348295726844
 30
0.0
 70
0
  0
SEQEND
  5
6F
  8
POCHE_KERF_15MM
  0
POLYLINE
  5
74
  8
POCHE_KERF_15MM
 66
1
 10
0.0
 20
0.0
 30
0.0
 70
1
  0
VERTEX
  5
76
  8
POCHE_KERF_15MM
 10
722.393869604061
 20
77.65373468541738
 30
0.0
 70
0
  0
VERTEX
  5
77
  8
POCHE_KERF_15MM
 10
727.7000085078566
 20
74.85286161909916
 30
0.0
 70
0
  0
VERTEX
  5
78
  8
POCHE_KERF_15MM
 10
950.7079685583614
 20
497.33227595241283
 30
0.0
 70
0
  0
VERTEX
  5
79
  8
POCHE_KERF_15MM
 10
945.4018296545657
 20
500.13314901873105
 30
0.0
 70
0
  0
SEQEND
  5
75
  8
POCHE_KERF_15MM
  0
POLYLINE
  5
7A
  8
POCHE_KERF_15MM
 66
1
 10
0.0
 20
0.0
 30
0.0
 70
1
  0
VERTEX
  5
7C
  8
POCHE_KERF_15MM
 10
713.5582317925558
 20
82.02738844659518
 30
0.0
 70
0
  0
VERTEX
  5
7D
  8
POCHE_KERF_15MM
 10
718.9522626747175
 20
79.39976007822077
 30
0.0
 70
0
  0
VERTEX
  5
7E
  8
POCHE_KERF_15MM
 10
928.1663285489361
 20
508.8772105010402
 30
0.0
 70
0
  0
VERTEX
  5
7F
  8
POCHE_KERF_15MM
 10
922.7722976667744
 20
511.50483886941464
 30
0.0
 70
0
  0
SEQEND
  5
7B
  8
POCHE_KERF_15MM
  0
POLYLINE
  5
80
  8
POCHE_KERF_15MM
 66
1
 10
0.0
 20
0.0
 30
0.0
 70
1
  0
VERTEX
  5
82
  8
POCHE_KERF_15MM
 10
704.5856360634375
 20
86.1127120127974
 30
0.0
 70
0
  0
VERTEX
  5
83
  8
POCHE_KERF_15MM
 10
710.0619043725951
 20
83.66108287972762
 30
0.0
 70
0
  0
VERTEX
  5
84
  8
POCHE_KERF_15MM
 10
905.2627573998166
 20
519.6863490728144
 30
0.0
 70
0
  0
VERTEX
  5
85
  8
POCHE_KERF_15MM
 10
899.786489090659
 20
522.1379782058843
 30
0.0
 70
0
  0
SEQEND
  5
81
  8
POCHE_KERF_15MM
  0
POLYLINE
  5
86
  8
POCHE_KERF_15MM
 66
1
 10
0.0
 20
0.0
 30
0.0
 70
1
  0
VERTEX
  5
88
  8
POCHE_KERF_15MM
 10
695.4854883701719
 20
89.90542274781494
 30
0.0
 70
0
  0
VERTEX
  5
89
  8
POCHE_KERF_15MM
 10
701.0382533456312
 20
87.63236288777789
 30
0.0
 70
0
  0
VERTEX
  5
8A
  8
POCHE_KERF_15MM
 10
882.0212648770661
 20
529.748360470222
 30
0.0
 70
0
  0
VERTEX
  5
8B
  8
POCHE_KERF_15MM
 10
876.4684999016068
 20
532.0214203302592
 30
0.0
 70
0
  0
SEQEND
  5
87
  8
POCHE_KERF_15MM
  0
POLYLINE
  5
8C
  8
POCHE_KERF_15MM
 66
1
 10
0.0
 20
0.0
 30
0.0
 70
1
  0
VERTEX
  5
8E
  8
POCHE_KERF_15MM
 10
686.2673283786849
 20
93.40154476086187
 30
0.0
 70
0
  0
VERTEX
  5
8F
  8
POCHE_KERF_15MM
 10
691.8907690684555
 20
91.30943701778759
 30
0.0
 70
0
  0
VERTEX
  5
90
  8
POCHE_KERF_15MM
 10
858.4662149890237
 20
539.0526967076138
 30
0.0
 70
0
  0
VERTEX
  5
91
  8
POCHE_KERF_15MM
 10
852.842774299253
 20
541.1448044506882
 30
0.0
 70
0
  0
SEQEND
  5
8D
  8
POCHE_KERF_15MM
  0
POLYLINE
  5
92
  8
POCHE_KERF_15MM
 66
1
 10
0.0
 20
0.0
 30
0.0
 70
1
  0
VERTEX
  5
94
  8
POCHE_KERF_15MM
 10
676.940819466949
 20
96.59741307449343
 30
0.0
 70
0
  0
VERTEX
  5
95
  8
POCHE_KERF_15MM
 10
682.629040829836
 20
94.68845060058362
 30
0.0
 70
0
  0
VERTEX
  5
96
  8
POCHE_KERF_15MM
 10
834.6223004455619
 20
547.5896040686375
 30
0.0
 70
0
  0
VERTEX
  5
97
  8
POCHE_KERF_15MM
 10
828.9340790826749
 20
549.4985665425475
 30
0.0
 70
0
  0
SEQEND
  5
93
  8
POCHE_KERF_15MM
  0
POLYLINE
  5
98
  8
POCHE_KERF_15MM
 66
1
 10
0.0
 20
0.0
 30
0.0
 70
1
  0
VERTEX
  5
9A
  8
POCHE_KERF_15MM
 10
667.515738594885
 20
99.48967746659443
 30
0.0
 70
0
  0
VERTEX
  5
9B
  8
POCHE_KERF_15MM
 10
673.2627776802482
 20
97.76586142324547
 30
0.0
 70
0
  0
VERTEX
  5
9C
  8
POCHE_KERF_15MM
 10
810.5145167727719
 20
555.3501333310383
 30
0.0
 70
0
  0
VERTEX
  5
9D
  8
POCHE_KERF_15MM
 10
804.7674776874087
 20
557.0739493743872
 30
0.0
 70
0
  0
SEQEND
  5
99
  8
POCHE_KERF_15MM
  0
POLYLINE
  5
9E
  8
POCHE_KERF_15MM
 66
1
 10
0.0
 20
0.0
 30
0.0
 70
1
  0
VERTEX
  5
A0
  8
POCHE_KERF_15MM
 10
658.0019660551947
 20
102.07530598240987
 30
0.0
 70
0
  0
VERTEX
  5
A1
  8
POCHE_KERF_15MM
 10
663.8017982538977
 20
100.53844344239963
 30
0.0
 70
0
  0
VERTEX
  5
A2
  8
POCHE_KERF_15MM
 10
786.1681361102059
 20
562.3261491481092
 30
0.0
 70
0
  0
VERTEX
  5
A3
  8
POCHE_KERF_15MM
 10
780.3683039115028
 20
563.8630116881195
 30
0.0
 70
0
  0
SEQEND
  5
9F
  8
POCHE_KERF_15MM
  0
POLYLINE
  5
A4
  8
POCHE_KERF_15MM
 66
1
 10
0.0
 20
0.0
 30
0.0
 70
1
  0
VERTEX
  5
A6
  8
POCHE_KERF_15MM
 10
648.409475115871
 20
104.35158811293721
 30
0.0
 70
0
  0
VERTEX
  5
A7
  8
POCHE_KERF_15MM
 10
654.2560204758665
 20
103.00329016607421
 30
0.0
 70
0
  0
VERTEX
  5
A8
  8
POCHE_KERF_15MM
 10
761.608680718143
 20
568.5103385769587
 30
0.0
 70
0
  0
VERTEX
  5
A9
  8
POCHE_KERF_15MM
 10
755.7621353581475
 20
569.8586365238218
 30
0.0
 70
0
  0
SEQEND
  5
A5
  8
POCHE_KERF_15MM
  0
POLYLINE
  5
AA
  8
POCHE_KERF_15MM
 66
1
 10
0.0
 20
0.0
 30
0.0
 70
1
  0
VERTEX
  5
AC
  8
POCHE_KERF_15MM
 10
638.7483215652418
 20
106.31613763634685
 30
0.0
 70
0
  0
VERTEX
  5
AD
  8
POCHE_KERF_15MM
 10
644.6354511651723
 20
105.15781770056832
 30
0.0
 70
0
  0
VERTEX
  5
AE
  8
POCHE_KERF_15MM
 10
736.8618962226607
 20
573.8962187446532
 30
0.0
 70
0
  0
VERTEX
  5
AF
  8
POCHE_KERF_15MM
 10
730.9747666227302
 20
575.0545386804317
 30
0.0
 70
0
  0
SEQEND
  5
AB
  8
POCHE_KERF_15MM
  0
POLYLINE
  5
B0
  8
POCHE_KERF_15MM
 66
1
 10
0.0
 20
0.0
 30
0.0
 70
1
  0
VERTEX
  5
B2
  8
POCHE_KERF_15MM
 10
629.0286331705078
 20
107.96689511945384
 30
0.0
 70
0
  0
VERTEX
  5
B3
  8
POCHE_KERF_15MM
 10
634.9501755446414
 20
106.9997674591426
 30
0.0
 70
0
  0
VERTEX
  5
B4
  8
POCHE_KERF_15MM
 10
711.9537246265453
 20
578.4781436441996
 30
0.0
 70
0
  0
VERTEX
  5
B5
  8
POCHE_KERF_15MM
 10
706.0321822524116
 20
579.4452713045108
 30
0.0
 70
0
  0
SEQEND
  5
B1
  8
POCHE_KERF_15MM
  0
POLYLINE
  5
B6
  8
POCHE_KERF_15MM
 66
1
 10
0.0
 20
0.0
 30
0.0
 70
1
  0
VERTEX
  5
B8
  8
POCHE_KERF_15MM
 10
619.2605990608246
 20
109.30213007661725
 30
0.0
 70
0
  0
VERTEX
  5
B9
  8
POCHE_KERF_15MM
 10
625.2103466685899
 20
108.52720852969095
 30
0.0
 70
0
  0
VERTEX
  5
BA
  8
POCHE_KERF_15MM
 10
686.910277114346
 20
582.2513100532424
 30
0.0
 70
0
  0
VERTEX
  5
BB
  8
POCHE_KERF_15MM
 10
680.9605295065807
 20
583.0262316001688
 30
0.0
 70
0
  0
SEQEND
  5
B7
  8
POCHE_KERF_15MM
  0
POLYLINE
  5
BC
  8
POCHE_KERF_15MM
 66
1
 10
0.0
 20
0.0
 30
0.0
 70
1
  0
VERTEX
  5
BE
  8
POCHE_KERF_15MM
 10
609.4544590460613
 20
110.32044278380495
 30
0.0
 70
0
  0
VERTEX
  5
BF
  8
POCHE_KERF_15MM
 10
615.4261747793989
 20
109.73853969891157
 30
0.0
 70
0
  0
VERTEX
  5
C0
  8
POCHE_KERF_15MM
 10
661.7578066800738
 20
585.2117625692721
 30
0.0
 70
0
  0
VERTEX
  5
C1
  8
POCHE_KERF_15MM
 10
655.7860909467362
 20
585.7936656541655
 30
0.0
 70
0
  0
SEQEND
  5
BD
  8
POCHE_KERF_15MM
  0
POLYLINE
  5
C2
  8
POCHE_KERF_15MM
 66
1
 10
0.0
 20
0.0
 30
0.0
 70
1
  0
VERTEX
  5
C4
  8
POCHE_KERF_15MM
 10
599.6204928824274
 20
111.02076574592101
 30
0.0
 70
0
  0
VERTEX
  5
C5
  8
POCHE_KERF_15MM
 10
605.6079166041374
 20
110.63249113085587
 30
0.0
 70
0
  0
VERTEX
  5
C6
  8
POCHE_KERF_15MM
 10
636.5226806062419
 20
587.3563977560652
 30
0.0
 70
0
  0
VERTEX
  5
C7
  8
POCHE_KERF_15MM
 10
630.5352568845319
 20
587.7446723711305
 30
0.0
 70
0
  0
SEQEND
  5
C3
  8
POCHE_KERF_15MM
  0
POLYLINE
  5
C8
  8
POCHE_KERF_15MM
 66
1
 10
0.0
 20
0.0
 30
0.0
 70
1
  0
VERTEX
  5
CA
  8
POCHE_KERF_15MM
 10
589.7690094962269
 20
111.40236481585885
 30
0.0
 70
0
  0
VERTEX
  5
CB
  8
POCHE_KERF_15MM
 10
595.765864602458
 20
111.20812569809436
 30
0.0
 70
0
  0
VERTEX
  5
CC
  8
POCHE_KERF_15MM
 10
611.2313528231001
 20
588.6829673970099
 30
0.0
 70
0
  0
VERTEX
  5
CD
  8
POCHE_KERF_15MM
 10
605.234497716869
 20
588.8772065147743
 30
0.0
 70
0
  0
SEQEND
  5
C9
  8
POCHE_KERF_15MM
  0
POLYLINE
  5
CE
  8
POCHE_KERF_15MM
 66
1
 10
0.0
 20
0.0
 30
0.0
 70
1
  0
VERTEX
  5
D0
  8
POCHE_KERF_15MM
 10
579.9103361770315
 20
111.46483996410603
 30
0.0
 70
0
  0
VERTEX
  5
D1
  8
POCHE_KERF_15MM
 10
585.9103361770315
 20
111.46483996410603
 30
0.0
 70
0
  0
VERTEX
  5
D2
  8
POCHE_KERF_15MM
 10
585.9103361770315
 20
589.1900808519067
 30
0.0
 70
0
  0
VERTEX
  5
D3
  8
POCHE_KERF_15MM
 10
579.9103361770315
 20
589.1900808519067
 30
0.0
 70
0
  0
SEQEND
  5
CF
  8
POCHE_KERF_15MM
  0
POLYLINE
  5
D4
  8
POCHE_KERF_15MM
 66
1
 10
0.0
 20
0.0
 30
0.0
 70
1
  0
VERTEX
  5
D6
  8
POCHE_KERF_15MM
 10
570.054807751605
 20
111.20812569809436
 30
0.0
 70
0
  0
VERTEX
  5
D7
  8
POCHE_KERF_15MM
 10
576.0516628578362
 20
111.40236481585885
 30
0.0
 70
0
  0
VERTEX
  5
D8
  8
POCHE_KERF_15MM
 10
560.5861746371942
 20
588.8772065147743
 30
0.0
 70
0
  0
VERTEX
  5
D9
  8
POCHE_KERF_15MM
 10
554.589319530963
 20
588.6829673970099
 30
0.0
 70
0
  0
SEQEND
  5
D5
  8
POCHE_KERF_15MM
  0
POLYLINE
  5
DA
  8
POCHE_KERF_15MM
 66
1
 10
0.0
 20
0.0
 30
0.0
 70
1
  0
VERTEX
  5
DC
  8
POCHE_KERF_15MM
 10
560.2127557499256
 20
110.63249113085587
 30
0.0
 70
0
  0
VERTEX
  5
DD
  8
POCHE_KERF_15MM
 10
566.2001794716356
 20
111.02076574592101
 30
0.0
 70
0
  0
VERTEX
  5
DE
  8
POCHE_KERF_15MM
 10
535.2854154695311
 20
587.7446723711305
 30
0.0
 70
0
  0
VERTEX
  5
DF
  8
POCHE_KERF_15MM
 10
529.2979917478211
 20
587.3563977560652
 30
0.0
 70
0
  0
SEQEND
  5
DB
  8
POCHE_KERF_15MM
  0
POLYLINE
  5
E0
  8
POCHE_KERF_15MM
 66
1
 10
0.0
 20
0.0
 30
0.0
 70
1
  0
VERTEX
  5
E2
  8
POCHE_KERF_15MM
 10
550.3944975746641
 20
109.73853969891157
 30
0.0
 70
0
  0
VERTEX
  5
E3
  8
POCHE_KERF_15MM
 10
556.3662133080016
 20
110.32044278380495
 30
0.0
 70
0
  0
VERTEX
  5
E4
  8
POCHE_KERF_15MM
 10
510.03458140732687
 20
585.7936656541655
 30
0.0
 70
0
  0
VERTEX
  5
E5
  8
POCHE_KERF_15MM
 10
504.0628656739893
 20
585.2117625692721
 30
0.0
 70
0
  0
SEQEND
  5
E1
  8
POCHE_KERF_15MM
  0
POLYLINE
  5
E6
  8
POCHE_KERF_15MM
 66
1
 10
0.0
 20
0.0
 30
0.0
 70
1
  0
VERTEX
  5
E8
  8
POCHE_KERF_15MM
 10
540.6103256854731
 20
108.52720852969095
 30
0.0
 70
0
  0
VERTEX
  5
E9
  8
POCHE_KERF_15MM
 10
546.5600732932384
 20
109.30213007661725
 30
0.0
 70
0
  0
VERTEX
  5
EA
  8
POCHE_KERF_15MM
 10
484.86014284748245
 20
583.0262316001688
 30
0.0
 70
0
  0
VERTEX
  5
EB
  8
POCHE_KERF_15MM
 10
478.91039523971716
 20
582.2513100532424
 30
0.0
 70
0
  0
SEQEND
  5
E7
  8
POCHE_KERF_15MM
  0
POLYLINE
  5
EC
  8
POCHE_KERF_15MM
 66
1
 10
0.0
 20
0.0
 30
0.0
 70
1
  0
VERTEX
  5
EE
  8
POCHE_KERF_15MM
 10
530.8704968094215
 20
106.9997674591426
 30
0.0
 70
0
  0
VERTEX
  5
EF
  8
POCHE_KERF_15MM
 10
536.7920391835552
 20
107.96689511945384
 30
0.0
 70
0
  0
VERTEX
  5
F0
  8
POCHE_KERF_15MM
 10
459.7884901016514
 20
579.4452713045108
 30
0.0
 70
0
  0
VERTEX
  5
F1
  8
POCHE_KERF_15MM
 10
453.8669477275177
 20
578.4781436441996
 30
0.0
 70
0
  0
SEQEND
  5
ED
  8
POCHE_KERF_15MM
  0
POLYLINE
  5
F2
  8
POCHE_KERF_15MM
 66
1
 10
0.0
 20
0.0
 30
0.0
 70
1
  0
VERTEX
  5
F4
  8
POCHE_KERF_15MM
 10
521.1852211888908
 20
105.15781770056832
 30
0.0
 70
0
  0
VERTEX
  5
F5
  8
POCHE_KERF_15MM
 10
527.0723507888212
 20
106.31613763634685
 30
0.0
 70
0
  0
VERTEX
  5
F6
  8
POCHE_KERF_15MM
 10
434.84590573133306
 20
575.054538680432
 30
0.0
 70
0
  0
VERTEX
  5
F7
  8
POCHE_KERF_15MM
 10
428.95877613140254
 20
573.8962187446534
 30
0.0
 70
0
  0
SEQEND
  5
F3
  8
POCHE_KERF_15MM
  0
POLYLINE
  5
F8
  8
POCHE_KERF_15MM
 66
1
 10
0.0
 20
0.0
 30
0.0
 70
1
  0
VERTEX
  5
FA
  8
POCHE_KERF_15MM
 10
511.56465187819646
 20
103.00329016607427
 30
0.0
 70
0
  0
VERTEX
  5
FB
  8
POCHE_KERF_15MM
 10
517.411197238192
 20
104.35158811293726
 30
0.0
 70
0
  0
VERTEX
  5
FC
  8
POCHE_KERF_15MM
 10
410.0585369959156
 20
569.8586365238218
 30
0.0
 70
0
  0
VERTEX
  5
FD
  8
POCHE_KERF_15MM
 10
404.21199163592007
 20
568.5103385769587
 30
0.0
 70
0
  0
SEQEND
  5
F9
  8
POCHE_KERF_15MM
  0
POLYLINE
  5
FE
  8
POCHE_KERF_15MM
 66
1
 10
0.0
 20
0.0
 30
0.0
 70
1
  0
VERTEX
  5
100
  8
POCHE_KERF_15MM
 10
502.0188741001652
 20
100.53844344239963
 30
0.0
 70
0
  0
VERTEX
  5
101
  8
POCHE_KERF_15MM
 10
507.8187062988683
 20
102.07530598240987
 30
0.0
 70
0
  0
VERTEX
  5
102
  8
POCHE_KERF_15MM
 10
385.4523684425604
 20
563.8630116881195
 30
0.0
 70
0
  0
VERTEX
  5
103
  8
POCHE_KERF_15MM
 10
379.65253624385724
 20
562.3261491481092
 30
0.0
 70
0
  0
SEQEND
  5
FF
  8
POCHE_KERF_15MM
  0
POLYLINE
  5
104
  8
POCHE_KERF_15MM
 66
1
 10
0.0
 20
0.0
 30
0.0
 70
1
  0
VERTEX
  5
106
  8
POCHE_KERF_15MM
 10
492.55789467381487
 20
97.76586142324547
 30
0.0
 70
0
  0
VERTEX
  5
107
  8
POCHE_KERF_15MM
 10
498.30493375917814
 20
99.48967746659443
 30
0.0
 70
0
  0
VERTEX
  5
108
  8
POCHE_KERF_15MM
 10
361.05319466665424
 20
557.0739493743874
 30
0.0
 70
0
  0
VERTEX
  5
109
  8
POCHE_KERF_15MM
 10
355.306155581291
 20
555.3501333310385
 30
0.0
 70
0
  0
SEQEND
  5
105
  8
POCHE_KERF_15MM
  0
POLYLINE
  5
10A
  8
POCHE_KERF_15MM
 66
1
 10
0.0
 20
0.0
 30
0.0
 70
1
  0
VERTEX
  5
10C
  8
POCHE_KERF_15MM
 10
483.19163152422703
 20
94.68845060058362
 30
0.0
 70
0
  0
VERTEX
  5
10D
  8
POCHE_KERF_15MM
 10
488.879852887114
 20
96.59741307449343
 30
0.0
 70
0
  0
VERTEX
  5
10E
  8
POCHE_KERF_15MM
 10
336.88659327138805
 20
549.4985665425475
 30
0.0
 70
0
  0
VERTEX
  5
10F
  8
POCHE_KERF_15MM
 10
331.19837190850103
 20
547.5896040686375
 30
0.0
 70
0
  0
SEQEND
  5
10B
  8
POCHE_KERF_15MM
  0
POLYLINE
  5
110
  8
POCHE_KERF_15MM
 66
1
 10
0.0
 20
0.0
 30
0.0
 70
1
  0
VERTEX
  5
112
  8
POCHE_KERF_15MM
 10
473.9299032856075
 20
91.30943701778764
 30
0.0
 70
0
  0
VERTEX
  5
113
  8
POCHE_KERF_15MM
 10
479.5533439753782
 20
93.40154476086192
 30
0.0
 70
0
  0
VERTEX
  5
114
  8
POCHE_KERF_15MM
 10
312.97789805481017
 20
541.1448044506882
 30
0.0
 70
0
  0
VERTEX
  5
115
  8
POCHE_KERF_15MM
 10
307.35445736503954
 20
539.0526967076138
 30
0.0
 70
0
  0
SEQEND
  5
111
  8
POCHE_KERF_15MM
  0
POLYLINE
  5
116
  8
POCHE_KERF_15MM
 66
1
 10
0.0
 20
0.0
 30
0.0
 70
1
  0
VERTEX
  5
118
  8
POCHE_KERF_15MM
 10
464.7824190084317
 20
87.63236288777794
 30
0.0
 70
0
  0
VERTEX
  5
119
  8
POCHE_KERF_15MM
 10
470.33518398389106
 20
89.905422747815
 30
0.0
 70
0
  0
VERTEX
  5
11A
  8
POCHE_KERF_15MM
 10
289.3521724524562
 20
532.0214203302592
 30
0.0
 70
0
  0
VERTEX
  5
11B
  8
POCHE_KERF_15MM
 10
283.79940747699686
 20
529.748360470222
 30
0.0
 70
0
  0
SEQEND
  5
117
  8
POCHE_KERF_15MM
  0
POLYLINE
  5
11C
  8
POCHE_KERF_15MM
 66
1
 10
0.0
 20
0.0
 30
0.0
 70
1
  0
VERTEX
  5
11E
  8
POCHE_KERF_15MM
 10
455.758767981468
 20
83.66108287972767
 30
0.0
 70
0
  0
VERTEX
  5
11F
  8
POCHE_KERF_15MM
 10
461.23503629062554
 20
86.11271201279746
 30
0.0
 70
0
  0
VERTEX
  5
120
  8
POCHE_KERF_15MM
 10
266.0341832634041
 20
522.1379782058846
 30
0.0
 70
0
  0
VERTEX
  5
121
  8
POCHE_KERF_15MM
 10
260.5579149542465
 20
519.6863490728147
 30
0.0
 70
0
  0
SEQEND
  5
11D
  8
POCHE_KERF_15MM
  0
POLYLINE
  5
122
  8
POCHE_KERF_15MM
 66
1
 10
0.0
 20
0.0
 30
0.0
 70
1
  0
VERTEX
  5
124
  8
POCHE_KERF_15MM
 10
446.8684096793454
 20
79.39976007822082
 30
0.0
 70
0
  0
VERTEX
  5
125
  8
POCHE_KERF_15MM
 10
452.26244056150705
 20
82.02738844659524
 30
0.0
 70
0
  0
VERTEX
  5
126
  8
POCHE_KERF_15MM
 10
243.0483746872886
 20
511.50483886941475
 30
0.0
 70
0
  0
VERTEX
  5
127
  8
POCHE_KERF_15MM
 10
237.6543438051269
 20
508.87721050104034
 30
0.0
 70
0
  0
SEQEND
  5
123
  8
POCHE_KERF_15MM
  0
POLYLINE
  5
128
  8
POCHE_KERF_15MM
 66
1
 10
0.0
 20
0.0
 30
0.0
 70
1
  0
VERTEX
  5
12A
  8
POCHE_KERF_15MM
 10
438.12066384620636
 20
74.85286161909916
 30
0.0
 70
0
  0
VERTEX
  5
12B
  8
POCHE_KERF_15MM
 10
443.42680275000197
 20
77.65373468541738
 30
0.0
 70
0
  0
VERTEX
  5
12C
  8
POCHE_KERF_15MM
 10
220.41884269949725
 20
500.13314901873105
 30
0.0
 70
0
  0
VERTEX
  5
12D
  8
POCHE_KERF_15MM
 10
215.11270379570163
 20
497.33227595241283
 30
0.0
 70
0
  0
SEQEND
  5
129
  8
POCHE_KERF_15MM
  0
POLYLINE
  5
12E
  8
POCHE_KERF_15MM
 66
1
 10
0.0
 20
0.0
 30
0.0
 70
1
  0
VERTEX
  5
130
  8
POCHE_KERF_15MM
 10
429.5247007258385
 20
70.0251540065734
 30
0.0
 70
0
  0
VERTEX
  5
131
  8
POCHE_KERF_15MM
 10
434.73738523687615
 20
72.99633562141751
 30
0.0
 70
0
  0
VERTEX
  5
132
  8
POCHE_KERF_15MM
 10
198.16930979141074
 20
488.0348295726844
 30
0.0
 70
0
  0
VERTEX
  5
133
  8
POCHE_KERF_15MM
 10
192.95662528037298
 20
485.0636479578404
 30
0.0
 70
0
  0
SEQEND
  5
12F
  8
POCHE_KERF_15MM
  0
POLYLINE
  5
134
  8
POCHE_KERF_15MM
 66
1
 10
0.0
 20
0.0
 30
0.0
 70
1
  0
VERTEX
  5
136
  8
POCHE_KERF_15MM
 10
421.08953144852677
 20
64.92169811650655
 30
0.0
 70
0
  0
VERTEX
  5
137
  8
POCHE_KERF_15MM
 10
426.2032971204606
 20
68.06007359636084
 30
0.0
 70
0
  0
VERTEX
  5
138
  8
POCHE_KERF_15MM
 10
176.3231001021637
 20
475.22256317442157
 30
0.0
 70
0
  0
VERTEX
  5
139
  8
POCHE_KERF_15MM
 10
171.20933443022986
 20
472.08418769456716
 30
0.0
 70
0
  0
SEQEND
  5
135
  8
POCHE_KERF_15MM
  0
POLYLINE
  5
13A
  8
POCHE_KERF_15MM
 66
1
 10
0.0
 20
0.0
 30
0.0
 70
1
  0
VERTEX
  5
13C
  8
POCHE_KERF_15MM
 10
412.8239985847043
 20
59.54784389110787
 30
0.0
 70
0
  0
VERTEX
  5
13D
  8
POCHE_KERF_15MM
 10
417.83348466760185
 20
62.850123283475476
 30
0.0
 70
0
  0
VERTEX
  5
13E
  8
POCHE_KERF_15MM
 10
154.90311496799774
 20
461.7097808961961
 30
0.0
 70
0
  0
VERTEX
  5
13F
  8
POCHE_KERF_15MM
 10
149.8936288851002
 20
458.4075015038285
 30
0.0
 70
0
  0
SEQEND
  5
13B
  8
POCHE_KERF_15MM
  0
POLYLINE
  5
140
  8
POCHE_KERF_15MM
 66
1
 10
0.0
 20
0.0
 30
0.0
 70
1
  0
VERTEX
  5
142
  8
POCHE_KERF_15MM
 10
404.7367668753047
 20
53.909224730600336
 30
0.0
 70
0
  0
VERTEX
  5
143
  8
POCHE_KERF_15MM
 10
409.63672193531016
 20
57.37194626285311
 30
0.0
 70
0
  0
VERTEX
  5
144
  8
POCHE_KERF_15MM
 10
133.93180891483934
 20
447.510648159604
 30
0.0
 70
0
  0
VERTEX
  5
145
  8
POCHE_KERF_15MM
 10
129.03185385483386
 20
444.0479266273512
 30
0.0
 70
0
  0
SEQEND
  5
141
  8
POCHE_KERF_15MM
  0
POLYLINE
  5
146
  8
POCHE_KERF_15MM
 66
1
 10
0.0
 20
0.0
 30
0.0
 70
1
  0
VERTEX
  5
148
  8
POCHE_KERF_15MM
 10
396.8363141485312
 20
48.01175158773829
 30
0.0
 70
0
  0
VERTEX
  5
149
  8
POCHE_KERF_15MM
 10
401.6216015729325
 20
51.631285296086176
 30
0.0
 70
0
  0
VERTEX
  5
14A
  8
POCHE_KERF_15MM
 10
113.43116611926551
 20
432.6400498860009
 30
0.0
 70
0
  0
VERTEX
  5
14B
  8
POCHE_KERF_15MM
 10
108.64587869486421
 20
429.02051617765295
 30
0.0
 70
0
  0
SEQEND
  5
147
  8
POCHE_KERF_15MM
  0
POLYLINE
  5
14C
  8
POCHE_KERF_15MM
 66
1
 10
0.0
 20
0.0
 30
0.0
 70
1
  0
VERTEX
  5
14E
  8
POCHE_KERF_15MM
 10
389.1309224325677
 20
41.861606771368
 30
0.0
 70
0
  0
VERTEX
  5
14F
  8
POCHE_KERF_15MM
 10
393.79652581449716
 20
45.63415830614244
 30
0.0
 70
0
  0
VERTEX
  5
150
  8
POCHE_KERF_15MM
 10
93.42267736253812
 20
417.11357489266993
 30
0.0
 70
0
  0
VERTEX
  5
151
  8
POCHE_KERF_15MM
 10
88.75707398060875
 20
413.34102335789544
 30
0.0
 70
0
  0
SEQEND
  5
14D
  8
POCHE_KERF_15MM
  0
POLYLINE
  5
152
  8
POCHE_KERF_15MM
 66
1
 10
0.0
 20
0.0
 30
0.0
 70
1
  0
VERTEX
  5
154
  8
POCHE_KERF_15MM
 10
381.628669273546
 20
35.46523746552647
 30
0.0
 70
0
  0
VERTEX
  5
155
  8
POCHE_KERF_15MM
 10
386.16969767066877
 20
39.38685206878928
 30
0.0
 70
0
  0
VERTEX
  5
156
  8
POCHE_KERF_15MM
 10
73.92731750186286
 20
400.9474995510976
 30
0.0
 70
0
  0
VERTEX
  5
157
  8
POCHE_KERF_15MM
 10
69.38628910473997
 20
397.0258849478349
 30
0.0
 70
0
  0
SEQEND
  5
153
  8
POCHE_KERF_15MM
  0
POLYLINE
  5
158
  8
POCHE_KERF_15MM
 66
1
 10
0.0
 20
0.0
 30
0.0
 70
1
  0
VERTEX
  5
15A
  8
POCHE_KERF_15MM
 10
374.33741926787
 20
28.82934897087165
 30
0.0
 70
0
  0
VERTEX
  5
15B
  8
POCHE_KERF_15MM
 10
378.74911232954946
 20
32.89591562217953
 30
0.0
 70
0
  0
VERTEX
  5
15C
  8
POCHE_KERF_15MM
 10
54.96552348248915
 20
384.15877072448774
 30
0.0
 70
0
  0
VERTEX
  5
15D
  8
POCHE_KERF_15MM
 10
50.5538304208097
 20
380.09220407317974
 30
0.0
 70
0
  0
SEQEND
  5
159
  8
POCHE_KERF_15MM
  0
POLYLINE
  5
15E
  8
POCHE_KERF_15MM
 66
1
 10
0.0
 20
0.0
 30
0.0
 70
1
  0
VERTEX
  5
160
  8
POCHE_KERF_15MM
 10
367.26481581777654
 20
21.96089767552929
 30
0.0
 70
0
  0
VERTEX
  5
161
  8
POCHE_KERF_15MM
 10
371.54254877533924
 20
26.168153401508114
 30
0.0
 70
0
  0
VERTEX
  5
162
  8
POCHE_KERF_15MM
 10
36.557172913703006
 20
366.7649880023974
 30
0.0
 70
0
  0
VERTEX
  5
163
  8
POCHE_KERF_15MM
 10
32.27943995614036
 20
362.55773227641845
 30
0.0
 70
0
  0
SEQEND
  5
15F
  8
POCHE_KERF_15MM
  0
POLYLINE
  5
164
  8
POCHE_KERF_15MM
 66
1
 10
0.0
 20
0.0
 30
0.0
 70
1
  0
VERTEX
  5
166
  8
POCHE_KERF_15MM
 10
806.6901694900683
 20
13.51577077555577
 30
0.0
 70
0
  0
VERTEX
  5
167
  8
POCHE_KERF_15MM
 10
802.5508809751967
 20
17.85930511876662
 30
0.0
 70
0
  0
VERTEX
  5
168
  8
POCHE_KERF_15MM
 10
1148.3868793776696
 20
347.4330722639566
 30
0.0
 70
0
  0
VERTEX
  5
169
  8
POCHE_KERF_15MM
 10
1152.5261678925413
 20
343.08953792074584
 30
0.0
 70
0
  0
SEQEND
  5
165
  8
POCHE_KERF_15MM
  0
POLYLINE
  5
16A
  8
POCHE_KERF_15MM
 66
1
 10
0.0
 20
0.0
 30
0.0
 70
1
  0
VERTEX
  5
16C
  8
POCHE_KERF_15MM
 10
359.13050286399465
 20
13.51577077555577
 30
0.0
 70
0
  0
VERTEX
  5
16D
  8
POCHE_KERF_15MM
 10
363.2697913788662
 20
17.85930511876662
 30
0.0
 70
0
  0
VERTEX
  5
16E
  8
POCHE_KERF_15MM
 10
17.433792976393203
 20
347.4330722639566
 30
0.0
 70
0
  0
VERTEX
  5
16F
  8
POCHE_KERF_15MM
 10
13.29450446152158
 20
343.08953792074584
 30
0.0
 70
0
  0
SEQEND
  5
16B
  8
POCHE_KERF_15MM
  0
CIRCLE
  5
170
  8
COUPE
 10
263.5
 20
795.5
 30
0.0
 40
245.5
  0
CIRCLE
  5
171
  8
COUPE
 10
263.5
 20
795.5
 30
0.0
 40
200.5
  0
CIRCLE
  5
172
  8
COUPE
 10
701.0
 20
981.0
 30
0.0
 40
215.0
  0
CIRCLE
  5
173
  8
COUPE
 10
701.0
 20
981.0
 30
0.0
 40
170.0
  0
CIRCLE
  5
174
  8
COUPE
 10
999.0
 20
691.0
 30
0.0
 40
185.0
  0
CIRCLE
  5
175
  8
COUPE
 10
999.0
 20
691.0
 30
0.0
 40
140.0
  0
CIRCLE
  5
176
  8
COUPE
 10
259.3726020109053
 20
791.3726020109053
 30
0.0
 40
177.3726020109053
  0
POLYLINE
  5
177
  8
COUPE
 66
1
 10
0.0
 20
0.0
 30
0.0
 70
1
  0
VERTEX
  5
179
  8
COUPE
 10
146.0560860546695
 20
785.5726020109053
 30
0.0
 42
0.41421356237309503
 70
0
  0
VERTEX
  5
17A
  8
COUPE
 10
142.85608605466956
 20
782.3726020109053
 30
0.0
 42
0.41421356237309503
 70
0
  0
VERTEX
  5
17B
  8
COUPE
 10
146.05608605466955
 20
779.1726020109054
 30
0.0
 42
0.41421356237309503
 70
0
  0
VERTEX
  5
17C
  8
COUPE
 10
149.25608605466948
 20
782.3726020109053
 30
0.0
 70
0
  0
VERTEX
  5
17D
  8
COUPE
 10
183.85608605466948
 20
782.3726020109053
 30
0.0
 42
0.41421356237309503
 70
0
  0
VERTEX
  5
17E
  8
COUPE
 10
187.05608605466944
 20
779.1726020109054
 30
0.0
 42
0.41421356237309503
 70
0
  0
VERTEX
  5
17F
  8
COUPE
 10
190.2560860546694
 20
782.3726020109053
 30
0.0
 42
0.41421356237309503
 70
0
  0
VERTEX
  5
180
  8
COUPE
 10
187.0560860546695
 20
785.5726020109053
 30
0.0
 70
0
  0
VERTEX
  5
181
  8
COUPE
 10
187.0560860546695
 20
797.1726020109053
 30
0.0
 42
0.41421356237309503
 70
0
  0
VERTEX
  5
182
  8
COUPE
 10
190.25608605466957
 20
800.3726020109053
 30
0.0
 42
0.41421356237309503
 70
0
  0
VERTEX
  5
183
  8
COUPE
 10
187.05608605466955
 20
803.5726020109054
 30
0.0
 42
0.41421356237309503
 70
0
  0
VERTEX
  5
184
  8
COUPE
 10
183.85608605466948
 20
800.3726020109053
 30
0.0
 70
0
  0
VERTEX
  5
185
  8
COUPE
 10
149.25608605466948
 20
800.3726020109053
 30
0.0
 42
0.41421356237309503
 70
0
  0
VERTEX
  5
186
  8
COUPE
 10
146.05608605466946
 20
803.5726020109054
 30
0.0
 42
0.41421356237309503
 70
0
  0
VERTEX
  5
187
  8
COUPE
 10
142.85608605466945
 20
800.3726020109053
 30
0.0
 42
0.41421356237309503
 70
0
  0
VERTEX
  5
188
  8
COUPE
 10
146.0560860546695
 20
797.1726020109053
 30
0.0
 70
0
  0
SEQEND
  5
178
  8
COUPE
  0
POLYLINE
  5
189
  8
COUPE
 66
1
 10
0.0
 20
0.0
 30
0.0
 70
1
  0
VERTEX
  5
18B
  8
COUPE
 10
331.6891179671411
 20
785.5726020109053
 30
0.0
 42
0.41421356237309503
 70
0
  0
VERTEX
  5
18C
  8
COUPE
 10
328.48911796714117
 20
782.3726020109052
 30
0.0
 42
0.41421356237309503
 70
0
  0
VERTEX
  5
18D
  8
COUPE
 10
331.6891179671412
 20
779.1726020109052
 30
0.0
 42
0.41421356237309503
 70
0
  0
VERTEX
  5
18E
  8
COUPE
 10
334.88911796714115
 20
782.3726020109053
 30
0.0
 70
0
  0
VERTEX
  5
18F
  8
COUPE
 10
369.4891179671411
 20
782.3726020109053
 30
0.0
 42
0.41421356237309503
 70
0
  0
VERTEX
  5
190
  8
COUPE
 10
372.6891179671411
 20
779.1726020109054
 30
0.0
 42
0.41421356237309503
 70
0
  0
VERTEX
  5
191
  8
COUPE
 10
375.8891179671411
 20
782.3726020109053
 30
0.0
 42
0.41421356237309503
 70
0
  0
VERTEX
  5
192
  8
COUPE
 10
372.6891179671411
 20
785.5726020109053
 30
0.0
 70
0
  0
VERTEX
  5
193
  8
COUPE
 10
372.6891179671411
 20
797.1726020109053
 30
0.0
 42
0.41421356237309503
 70
0
  0
VERTEX
  5
194
  8
COUPE
 10
375.88911796714115
 20
800.3726020109052
 30
0.0
 42
0.41421356237309503
 70
0
  0
VERTEX
  5
195
  8
COUPE
 10
372.6891179671412
 20
803.5726020109054
 30
0.0
 42
0.41421356237309503
 70
0
  0
VERTEX
  5
196
  8
COUPE
 10
369.4891179671411
 20
800.3726020109053
 30
0.0
 70
0
  0
VERTEX
  5
197
  8
COUPE
 10
334.88911796714115
 20
800.3726020109053
 30
0.0
 42
0.41421356237309503
 70
0
  0
VERTEX
  5
198
  8
COUPE
 10
331.6891179671411
 20
803.5726020109054
 30
0.0
 42
0.41421356237309503
 70
0
  0
VERTEX
  5
199
  8
COUPE
 10
328.48911796714106
 20
800.3726020109053
 30
0.0
 42
0.41421356237309503
 70
0
  0
VERTEX
  5
19A
  8
COUPE
 10
331.6891179671411
 20
797.1726020109053
 30
0.0
 70
0
  0
SEQEND
  5
18A
  8
COUPE
  0
POLYLINE
  5
19B
  8
COUPE
 66
1
 10
0.0
 20
0.0
 30
0.0
 70
1
  0
VERTEX
  5
19D
  8
COUPE
 10
265.1726020109053
 20
678.0560860546694
 30
0.0
 42
0.41421356237309503
 70
0
  0
VERTEX
  5
19E
  8
COUPE
 10
268.3726020109053
 20
674.8560860546694
 30
0.0
 42
0.41421356237309503
 70
0
  0
VERTEX
  5
19F
  8
COUPE
 10
271.57260201090537
 20
678.0560860546694
 30
0.0
 42
0.41421356237309503
 70
0
  0
VERTEX
  5
1A0
  8
COUPE
 10
268.3726020109053
 20
681.2560860546695
 30
0.0
 70
0
  0
VERTEX
  5
1A1
  8
COUPE
 10
268.3726020109053
 20
715.8560860546695
 30
0.0
 42
0.41421356237309503
 70
0
  0
VERTEX
  5
1A2
  8
COUPE
 10
271.57260201090526
 20
719.0560860546695
 30
0.0
 42
0.41421356237309503
 70
0
  0
VERTEX
  5
1A3
  8
COUPE
 10
268.3726020109052
 20
722.2560860546696
 30
0.0
 42
0.41421356237309503
 70
0
  0
VERTEX
  5
1A4
  8
COUPE
 10
265.1726020109053
 20
719.0560860546694
 30
0.0
 70
0
  0
VERTEX
  5
1A5
  8
COUPE
 10
253.57260201090529
 20
719.0560860546694
 30
0.0
 42
0.41421356237309503
 70
0
  0
VERTEX
  5
1A6
  8
COUPE
 10
250.37260201090533
 20
722.2560860546694
 30
0.0
 42
0.41421356237309503
 70
0
  0
VERTEX
  5
1A7
  8
COUPE
 10
247.17260201090536
 20
719.0560860546694
 30
0.0
 42
0.41421356237309503
 70
0
  0
VERTEX
  5
1A8
  8
COUPE
 10
250.3726020109053
 20
715.8560860546695
 30
0.0
 70
0
  0
VERTEX
  5
1A9
  8
COUPE
 10
250.3726020109053
 20
681.2560860546695
 30
0.0
 42
0.41421356237309503
 70
0
  0
VERTEX
  5
1AA
  8
COUPE
 10
247.17260201090525
 20
678.0560860546694
 30
0.0
 42
0.41421356237309503
 70
0
  0
VERTEX
  5
1AB
  8
COUPE
 10
250.37260201090524
 20
674.8560860546694
 30
0.0
 42
0.41421356237309503
 70
0
  0
VERTEX
  5
1AC
  8
COUPE
 10
253.57260201090529
 20
678.0560860546694
 30
0.0
 70
0
  0
SEQEND
  5
19C
  8
COUPE
  0
POLYLINE
  5
1AD
  8
COUPE
 66
1
 10
0.0
 20
0.0
 30
0.0
 70
1
  0
VERTEX
  5
1AF
  8
COUPE
 10
265.1726020109053
 20
863.6891179671411
 30
0.0
 42
0.41421356237309503
 70
0
  0
VERTEX
  5
1B0
  8
COUPE
 10
268.3726020109053
 20
860.489117967141
 30
0.0
 42
0.41421356237309503
 70
0
  0
VERTEX
  5
1B1
  8
COUPE
 10
271.57260201090537
 20
863.6891179671411
 30
0.0
 42
0.41421356237309503
 70
0
  0
VERTEX
  5
1B2
  8
COUPE
 10
268.3726020109053
 20
866.8891179671411
 30
0.0
 70
0
  0
VERTEX
  5
1B3
  8
COUPE
 10
268.3726020109053
 20
901.489117967141
 30
0.0
 42
0.41421356237309503
 70
0
  0
VERTEX
  5
1B4
  8
COUPE
 10
271.57260201090537
 20
904.6891179671411
 30
0.0
 42
0.41421356237309503
 70
0
  0
VERTEX
  5
1B5
  8
COUPE
 10
268.3726020109053
 20
907.8891179671411
 30
0.0
 42
0.41421356237309503
 70
0
  0
VERTEX
  5
1B6
  8
COUPE
 10
265.1726020109053
 20
904.6891179671411
 30
0.0
 70
0
  0
VERTEX
  5
1B7
  8
COUPE
 10
253.5726020109053
 20
904.6891179671411
 30
0.0
 42
0.41421356237309503
 70
0
  0
VERTEX
  5
1B8
  8
COUPE
 10
250.37260201090527
 20
907.8891179671411
 30
0.0
 42
0.41421356237309503
 70
0
  0
VERTEX
  5
1B9
  8
COUPE
 10
247.17260201090522
 20
904.6891179671411
 30
0.0
 42
0.41421356237309503
 70
0
  0
VERTEX
  5
1BA
  8
COUPE
 10
250.3726020109053
 20
901.489117967141
 30
0.0
 70
0
  0
VERTEX
  5
1BB
  8
COUPE
 10
250.3726020109053
 20
866.8891179671411
 30
0.0
 42
0.41421356237309503
 70
0
  0
VERTEX
  5
1BC
  8
COUPE
 10
247.17260201090525
 20
863.6891179671411
 30
0.0
 42
0.41421356237309503
 70
0
  0
VERTEX
  5
1BD
  8
COUPE
 10
250.3726020109053
 20
860.489117967141
 30
0.0
 42
0.41421356237309503
 70
0
  0
VERTEX
  5
1BE
  8
COUPE
 10
253.5726020109053
 20
863.6891179671411
 30
0.0
 70
0
  0
SEQEND
  5
1AE
  8
COUPE
  0
CIRCLE
  5
1BF
  8
COUPE
 10
1081.0
 20
1045.0
 30
0.0
 40
155.0
  0
CIRCLE
  5
1C0
  8
COUPE
 10
1081.0
 20
1045.0
 30
0.0
 40
110.0
  0
POLYLINE
  5
1C1
  8
COUPE
 66
1
 10
0.0
 20
0.0
 30
0.0
 70
1
  0
VERTEX
  5
1C3
  8
COUPE
 10
994.0
 20
35.0
 30
0.0
 70
0
  0
VERTEX
  5
1C4
  8
COUPE
 10
1054.8560860546695
 20
35.0
 30
0.0
 42
-0.41421356237309503
 70
0
  0
VERTEX
  5
1C5
  8
COUPE
 10
1058.0560860546695
 20
38.200000000000045
 30
0.0
 42
-0.41421356237309503
 70
0
  0
VERTEX
  5
1C6
  8
COUPE
 10
1061.2560860546696
 20
35.00000000000004
 30
0.0
 42
-0.41421356237309503
 70
0
  0
VERTEX
  5
1C7
  8
COUPE
 10
1058.0560860546695
 20
31.8
 30
0.0
 70
0
  0
VERTEX
  5
1C8
  8
COUPE
 10
1058.0560860546695
 20
18.0
 30
0.0
 70
0
  0
VERTEX
  5
1C9
  8
COUPE
 10
1098.0560860546695
 20
18.0
 30
0.0
 70
0
  0
VERTEX
  5
1CA
  8
COUPE
 10
1098.0560860546695
 20
31.8
 30
0.0
 42
-0.41421356237309503
 70
0
  0
VERTEX
  5
1CB
  8
COUPE
 10
1094.8560860546695
 20
35.00000000000002
 30
0.0
 42
-0.41421356237309503
 70
0
  0
VERTEX
  5
1CC
  8
COUPE
 10
1098.0560860546695
 20
38.200000000000045
 30
0.0
 42
-0.41421356237309503
 70
0
  0
VERTEX
  5
1CD
  8
COUPE
 10
1101.2560860546696
 20
35.0
 30
0.0
 70
0
  0
VERTEX
  5
1CE
  8
COUPE
 10
1240.489117967141
 20
35.0
 30
0.0
 42
-0.41421356237309503
 70
0
  0
VERTEX
  5
1CF
  8
COUPE
 10
1243.689117967141
 20
38.200000000000045
 30
0.0
 42
-0.41421356237309503
 70
0
  0
VERTEX
  5
1D0
  8
COUPE
 10
1246.8891179671411
 20
35.00000000000004
 30
0.0
 42
-0.41421356237309503
 70
0
  0
VERTEX
  5
1D1
  8
COUPE
 10
1243.689117967141
 20
31.8
 30
0.0
 70
0
  0
VERTEX
  5
1D2
  8
COUPE
 10
1243.689117967141
 20
18.0
 30
0.0
 70
0
  0
VERTEX
  5
1D3
  8
COUPE
 10
1283.689117967141
 20
18.0
 30
0.0
 70
0
  0
VERTEX
  5
1D4
  8
COUPE
 10
1283.689117967141
 20
31.8
 30
0.0
 42
-0.41421356237309503
 70
0
  0
VERTEX
  5
1D5
  8
COUPE
 10
1280.489117967141
 20
35.00000000000002
 30
0.0
 42
-0.41421356237309503
 70
0
  0
VERTEX
  5
1D6
  8
COUPE
 10
1283.689117967141
 20
38.200000000000045
 30
0.0
 42
-0.41421356237309503
 70
0
  0
VERTEX
  5
1D7
  8
COUPE
 10
1286.8891179671411
 20
35.0
 30
0.0
 70
0
  0
VERTEX
  5
1D8
  8
COUPE
 10
1347.7452040218107
 20
35.0
 30
0.0
 70
0
  0
VERTEX
  5
1D9
  8
COUPE
 10
1296.8118706884773
 20
226.0
 30
0.0
 70
0
  0
VERTEX
  5
1DA
  8
COUPE
 10
1259.0971989051668
 20
226.0
 30
0.0
 42
-0.41421356237309503
 70
0
  0
VERTEX
  5
1DB
  8
COUPE
 10
1255.897198905167
 20
222.80000000000018
 30
0.0
 42
-0.41421356237309503
 70
0
  0
VERTEX
  5
1DC
  8
COUPE
 10
1252.6971989051672
 20
226.00000000000017
 30
0.0
 42
-0.41421356237309503
 70
0
  0
VERTEX
  5
1DD
  8
COUPE
 10
1255.897198905167
 20
229.2
 30
0.0
 70
0
  0
VERTEX
  5
1DE
  8
COUPE
 10
1255.897198905167
 20
243.0
 30
0.0
 70
0
  0
VERTEX
  5
1DF
  8
COUPE
 10
1215.897198905167
 20
243.0
 30
0.0
 70
0
  0
VERTEX
  5
1E0
  8
COUPE
 10
1215.897198905167
 20
229.2
 30
0.0
 42
-0.41421356237309503
 70
0
  0
VERTEX
  5
1E1
  8
COUPE
 10
1219.097198905167
 20
225.99999999999997
 30
0.0
 42
-0.41421356237309503
 70
0
  0
VERTEX
  5
1E2
  8
COUPE
 10
1215.897198905167
 20
222.79999999999995
 30
0.0
 42
-0.41421356237309503
 70
0
  0
VERTEX
  5
1E3
  8
COUPE
 10
1212.697198905167
 20
226.0
 30
0.0
 70
0
  0
VERTEX
  5
1E4
  8
COUPE
 10
1179.8726020109052
 20
226.0
 30
0.0
 70
0
  0
VERTEX
  5
1E5
  8
COUPE
 10
1179.8726020109052
 20
133.7
 30
0.0
 42
-0.41421356237309503
 70
0
  0
VERTEX
  5
1E6
  8
COUPE
 10
1183.072602010905
 20
130.50000000000009
 30
0.0
 42
-0.41421356237309503
 70
0
  0
VERTEX
  5
1E7
  8
COUPE
 10
1179.8726020109052
 20
127.30000000000018
 30
0.0
 42
-0.41421356237309503
 70
0
  0
VERTEX
  5
1E8
  8
COUPE
 10
1176.6726020109054
 20
130.5
 30
0.0
 70
0
  0
VERTEX
  5
1E9
  8
COUPE
 10
1165.0726020109053
 20
130.5
 30
0.0
 42
-0.41421356237309503
 70
0
  0
VERTEX
  5
1EA
  8
COUPE
 10
1161.8726020109052
 20
127.29999999999995
 30
0.0
 42
-0.41421356237309503
 70
0
  0
VERTEX
  5
1EB
  8
COUPE
 10
1158.6726020109052
 20
130.49999999999994
 30
0.0
 42
-0.41421356237309503
 70
0
  0
VERTEX
  5
1EC
  8
COUPE
 10
1161.8726020109052
 20
133.7
 30
0.0
 70
0
  0
VERTEX
  5
1ED
  8
COUPE
 10
1161.8726020109052
 20
226.0
 30
0.0
 70
0
  0
VERTEX
  5
1EE
  8
COUPE
 10
1129.0480051166437
 20
226.0
 30
0.0
 42
-0.41421356237309503
 70
0
  0
VERTEX
  5
1EF
  8
COUPE
 10
1125.8480051166437
 20
222.79999999999995
 30
0.0
 42
-0.41421356237309503
 70
0
  0
VERTEX
  5
1F0
  8
COUPE
 10
1122.6480051166436
 20
225.99999999999994
 30
0.0
 42
-0.41421356237309503
 70
0
  0
VERTEX
  5
1F1
  8
COUPE
 10
1125.8480051166437
 20
229.2
 30
0.0
 70
0
  0
VERTEX
  5
1F2
  8
COUPE
 10
1125.8480051166437
 20
243.0
 30
0.0
 70
0
  0
VERTEX
  5
1F3
  8
COUPE
 10
1085.8480051166437
 20
243.0
 30
0.0
 70
0
  0
VERTEX
  5
1F4
  8
COUPE
 10
1085.8480051166437
 20
229.2
 30
0.0
 42
-0.41421356237309503
 70
0
  0
VERTEX
  5
1F5
  8
COUPE
 10
1089.0480051166437
 20
225.99999999999997
 30
0.0
 42
-0.41421356237309503
 70
0
  0
VERTEX
  5
1F6
  8
COUPE
 10
1085.8480051166437
 20
222.79999999999995
 30
0.0
 42
-0.41421356237309503
 70
0
  0
VERTEX
  5
1F7
  8
COUPE
 10
1082.6480051166436
 20
226.0
 30
0.0
 70
0
  0
VERTEX
  5
1F8
  8
COUPE
 10
1044.9333333333334
 20
226.0
 30
0.0
 70
0
  0
SEQEND
  5
1C2
  8
COUPE
  0
POLYLINE
  5
1F9
  8
COUPE
 66
1
 10
0.0
 20
0.0
 30
0.0
 70
1
  0
VERTEX
  5
1FB
  8
COUPE
 10
1467.7452040218107
 20
518.0
 30
0.0
 70
0
  0
VERTEX
  5
1FC
  8
COUPE
 10
1406.8891179671411
 20
518.0
 30
0.0
 42
-0.41421356237309503
 70
0
  0
VERTEX
  5
1FD
  8
COUPE
 10
1403.689117967141
 20
514.8
 30
0.0
 42
-0.41421356237309503
 70
0
  0
VERTEX
  5
1FE
  8
COUPE
 10
1400.489117967141
 20
518.0
 30
0.0
 42
-0.41421356237309503
 70
0
  0
VERTEX
  5
1FF
  8
COUPE
 10
1403.689117967141
 20
521.2
 30
0.0
 70
0
  0
VERTEX
  5
200
  8
COUPE
 10
1403.689117967141
 20
535.0
 30
0.0
 70
0
  0
VERTEX
  5
201
  8
COUPE
 10
1363.689117967141
 20
535.0
 30
0.0
 70
0
  0
VERTEX
  5
202
  8
COUPE
 10
1363.689117967141
 20
521.2
 30
0.0
 42
-0.41421356237309503
 70
0
  0
VERTEX
  5
203
  8
COUPE
 10
1366.8891179671411
 20
518.0
 30
0.0
 42
-0.41421356237309503
 70
0
  0
VERTEX
  5
204
  8
COUPE
 10
1363.689117967141
 20
514.8
 30
0.0
 42
-0.41421356237309503
 70
0
  0
VERTEX
  5
205
  8
COUPE
 10
1360.489117967141
 20
518.0
 30
0.0
 70
0
  0
VERTEX
  5
206
  8
COUPE
 10
1299.8726020109052
 20
518.0
 30
0.0
 70
0
  0
VERTEX
  5
207
  8
COUPE
 10
1299.8726020109052
 20
425.7
 30
0.0
 42
-0.41421356237309503
 70
0
  0
VERTEX
  5
208
  8
COUPE
 10
1303.072602010905
 20
422.5000000000001
 30
0.0
 42
-0.41421356237309503
 70
0
  0
VERTEX
  5
209
  8
COUPE
 10
1299.8726020109052
 20
419.3000000000002
 30
0.0
 42
-0.41421356237309503
 70
0
  0
VERTEX
  5
20A
  8
COUPE
 10
1296.6726020109054
 20
422.5
 30
0.0
 70
0
  0
VERTEX
  5
20B
  8
COUPE
 10
1285.0726020109053
 20
422.5
 30
0.0
 42
-0.41421356237309503
 70
0
  0
VERTEX
  5
20C
  8
COUPE
 10
1281.8726020109052
 20
419.29999999999995
 30
0.0
 42
-0.41421356237309503
 70
0
  0
VERTEX
  5
20D
  8
COUPE
 10
1278.6726020109052
 20
422.5
 30
0.0
 42
-0.41421356237309503
 70
0
  0
VERTEX
  5
20E
  8
COUPE
 10
1281.8726020109052
 20
425.7
 30
0.0
 70
0
  0
VERTEX
  5
20F
  8
COUPE
 10
1281.8726020109052
 20
518.0
 30
0.0
 70
0
  0
VERTEX
  5
210
  8
COUPE
 10
1221.2560860546696
 20
518.0
 30
0.0
 42
-0.41421356237309503
 70
0
  0
VERTEX
  5
211
  8
COUPE
 10
1218.0560860546695
 20
514.8
 30
0.0
 42
-0.41421356237309503
 70
0
  0
VERTEX
  5
212
  8
COUPE
 10
1214.8560860546695
 20
518.0
 30
0.0
 42
-0.41421356237309503
 70
0
  0
VERTEX
  5
213
  8
COUPE
 10
1218.0560860546695
 20
521.2
 30
0.0
 70
0
  0
VERTEX
  5
214
  8
COUPE
 10
1218.0560860546695
 20
535.0
 30
0.0
 70
0
  0
VERTEX
  5
215
  8
COUPE
 10
1178.0560860546695
 20
535.0
 30
0.0
 70
0
  0
VERTEX
  5
216
  8
COUPE
 10
1178.0560860546695
 20
521.2
 30
0.0
 42
-0.41421356237309503
 70
0
  0
VERTEX
  5
217
  8
COUPE
 10
1181.2560860546696
 20
518.0
 30
0.0
 42
-0.41421356237309503
 70
0
  0
VERTEX
  5
218
  8
COUPE
 10
1178.0560860546695
 20
514.8
 30
0.0
 42
-0.41421356237309503
 70
0
  0
VERTEX
  5
219
  8
COUPE
 10
1174.8560860546695
 20
518.0
 30
0.0
 70
0
  0
VERTEX
  5
21A
  8
COUPE
 10
1114.0
 20
518.0
 30
0.0
 70
0
  0
VERTEX
  5
21B
  8
COUPE
 10
1164.9333333333334
 20
327.0
 30
0.0
 70
0
  0
VERTEX
  5
21C
  8
COUPE
 10
1202.6480051166436
 20
327.0
 30
0.0
 42
-0.41421356237309503
 70
0
  0
VERTEX
  5
21D
  8
COUPE
 10
1205.8480051166437
 20
330.20000000000005
 30
0.0
 42
-0.41421356237309503
 70
0
  0
VERTEX
  5
21E
  8
COUPE
 10
1209.0480051166437
 20
327.0
 30
0.0
 42
-0.41421356237309503
 70
0
  0
VERTEX
  5
21F
  8
COUPE
 10
1205.8480051166437
 20
323.8
 30
0.0
 70
0
  0
VERTEX
  5
220
  8
COUPE
 10
1205.8480051166437
 20
310.0
 30
0.0
 70
0
  0
VERTEX
  5
221
  8
COUPE
 10
1245.8480051166437
 20
310.0
 30
0.0
 70
0
  0
VERTEX
  5
222
  8
COUPE
 10
1245.8480051166437
 20
323.8
 30
0.0
 42
-0.41421356237309503
 70
0
  0
VERTEX
  5
223
  8
COUPE
 10
1242.6480051166436
 20
327.0
 30
0.0
 42
-0.41421356237309503
 70
0
  0
VERTEX
  5
224
  8
COUPE
 10
1245.8480051166437
 20
330.20000000000005
 30
0.0
 42
-0.41421356237309503
 70
0
  0
VERTEX
  5
225
  8
COUPE
 10
1249.0480051166437
 20
327.0
 30
0.0
 70
0
  0
VERTEX
  5
226
  8
COUPE
 10
1332.6971989051667
 20
327.0
 30
0.0
 42
-0.41421356237309503
 70
0
  0
VERTEX
  5
227
  8
COUPE
 10
1335.8971989051668
 20
330.20000000000005
 30
0.0
 42
-0.41421356237309503
 70
0
  0
VERTEX
  5
228
  8
COUPE
 10
1339.0971989051668
 20
327.0
 30
0.0
 42
-0.41421356237309503
 70
0
  0
VERTEX
  5
229
  8
COUPE
 10
1335.8971989051668
 20
323.8
 30
0.0
 70
0
  0
VERTEX
  5
22A
  8
COUPE
 10
1335.8971989051668
 20
310.0
 30
0.0
 70
0
  0
VERTEX
  5
22B
  8
COUPE
 10
1375.897198905167
 20
310.0
 30
0.0
 70
0
  0
VERTEX
  5
22C
  8
COUPE
 10
1375.897198905167
 20
323.8
 30
0.0
 42
-0.41421356237309503
 70
0
  0
VERTEX
  5
22D
  8
COUPE
 10
1372.6971989051672
 20
326.9999999999999
 30
0.0
 42
-0.41421356237309503
 70
0
  0
VERTEX
  5
22E
  8
COUPE
 10
1375.897198905167
 20
330.1999999999998
 30
0.0
 42
-0.41421356237309503
 70
0
  0
VERTEX
  5
22F
  8
COUPE
 10
1379.0971989051668
 20
327.0
 30
0.0
 70
0
  0
VERTEX
  5
230
  8
COUPE
 10
1416.8118706884773
 20
327.0
 30
0.0
 70
0
  0
SEQEND
  5
1FA
  8
COUPE
  0
CIRCLE
  5
231
  8
COUPE
 10
671.9059353442386
 20
967.9059353442386
 30
0.0
 40
121.90593534423863
  0
POLYLINE
  5
232
  8
COUPE
 66
1
 10
0.0
 20
0.0
 30
0.0
 70
1
  0
VERTEX
  5
234
  8
COUPE
 10
586.3813384499771
 20
962.1059353442387
 30
0.0
 42
0.41421356237309503
 70
0
  0
VERTEX
  5
235
  8
COUPE
 10
583.1813384499771
 20
958.9059353442387
 30
0.0
 42
0.41421356237309503
 70
0
  0
VERTEX
  5
236
  8
COUPE
 10
586.3813384499771
 20
955.7059353442387
 30
0.0
 42
0.41421356237309503
 70
0
  0
VERTEX
  5
237
  8
COUPE
 10
589.581338449977
 20
958.9059353442386
 30
0.0
 70
0
  0
VERTEX
  5
238
  8
COUPE
 10
624.181338449977
 20
958.9059353442386
 30
0.0
 42
0.41421356237309503
 70
0
  0
VERTEX
  5
239
  8
COUPE
 10
627.3813384499771
 20
955.7059353442386
 30
0.0
 42
0.41421356237309503
 70
0
  0
VERTEX
  5
23A
  8
COUPE
 10
630.5813384499771
 20
958.9059353442386
 30
0.0
 42
0.41421356237309503
 70
0
  0
VERTEX
  5
23B
  8
COUPE
 10
627.3813384499771
 20
962.1059353442387
 30
0.0
 70
0
  0
VERTEX
  5
23C
  8
COUPE
 10
627.3813384499771
 20
973.7059353442387
 30
0.0
 42
0.41421356237309503
 70
0
  0
VERTEX
  5
23D
  8
COUPE
 10
630.581338449977
 20
976.9059353442387
 30
0.0
 42
0.41421356237309503
 70
0
  0
VERTEX
  5
23E
  8
COUPE
 10
627.3813384499771
 20
980.1059353442388
 30
0.0
 42
0.41421356237309503
 70
0
  0
VERTEX
  5
23F
  8
COUPE
 10
624.181338449977
 20
976.9059353442386
 30
0.0
 70
0
  0
VERTEX
  5
240
  8
COUPE
 10
589.581338449977
 20
976.9059353442386
 30
0.0
 42
0.41421356237309503
 70
0
  0
VERTEX
  5
241
  8
COUPE
 10
586.3813384499771
 20
980.1059353442386
 30
0.0
 42
0.41421356237309503
 70
0
  0
VERTEX
  5
242
  8
COUPE
 10
583.1813384499771
 20
976.9059353442386
 30
0.0
 42
0.41421356237309503
 70
0
  0
VERTEX
  5
243
  8
COUPE
 10
586.3813384499771
 20
973.7059353442387
 30
0.0
 70
0
  0
SEQEND
  5
233
  8
COUPE
  0
POLYLINE
  5
244
  8
COUPE
 66
1
 10
0.0
 20
0.0
 30
0.0
 70
1
  0
VERTEX
  5
246
  8
COUPE
 10
716.4305322385003
 20
962.1059353442387
 30
0.0
 42
0.41421356237309503
 70
0
  0
VERTEX
  5
247
  8
COUPE
 10
713.2305322385002
 20
958.9059353442387
 30
0.0
 42
0.41421356237309503
 70
0
  0
VERTEX
  5
248
  8
COUPE
 10
716.4305322385003
 20
955.7059353442387
 30
0.0
 42
0.41421356237309503
 70
0
  0
VERTEX
  5
249
  8
COUPE
 10
719.6305322385002
 20
958.9059353442386
 30
0.0
 70
0
  0
VERTEX
  5
24A
  8
COUPE
 10
754.2305322385002
 20
958.9059353442386
 30
0.0
 42
0.41421356237309503
 70
0
  0
VERTEX
  5
24B
  8
COUPE
 10
757.4305322385003
 20
955.7059353442386
 30
0.0
 42
0.41421356237309503
 70
0
  0
VERTEX
  5
24C
  8
COUPE
 10
760.6305322385003
 20
958.9059353442386
 30
0.0
 42
0.41421356237309503
 70
0
  0
VERTEX
  5
24D
  8
COUPE
 10
757.4305322385003
 20
962.1059353442387
 30
0.0
 70
0
  0
VERTEX
  5
24E
  8
COUPE
 10
757.4305322385003
 20
973.7059353442387
 30
0.0
 42
0.41421356237309503
 70
0
  0
VERTEX
  5
24F
  8
COUPE
 10
760.6305322385003
 20
976.9059353442387
 30
0.0
 42
0.41421356237309503
 70
0
  0
VERTEX
  5
250
  8
COUPE
 10
757.4305322385003
 20
980.1059353442388
 30
0.0
 42
0.41421356237309503
 70
0
  0
VERTEX
  5
251
  8
COUPE
 10
754.2305322385002
 20
976.9059353442386
 30
0.0
 70
0
  0
VERTEX
  5
252
  8
COUPE
 10
719.6305322385002
 20
976.9059353442386
 30
0.0
 42
0.41421356237309503
 70
0
  0
VERTEX
  5
253
  8
COUPE
 10
716.4305322385003
 20
980.1059353442386
 30
0.0
 42
0.41421356237309503
 70
0
  0
VERTEX
  5
254
  8
COUPE
 10
713.2305322385004
 20
976.9059353442386
 30
0.0
 42
0.41421356237309503
 70
0
  0
VERTEX
  5
255
  8
COUPE
 10
716.4305322385003
 20
973.7059353442387
 30
0.0
 70
0
  0
SEQEND
  5
245
  8
COUPE
  0
POLYLINE
  5
256
  8
COUPE
 66
1
 10
0.0
 20
0.0
 30
0.0
 70
1
  0
VERTEX
  5
258
  8
COUPE
 10
677.7059353442387
 20
882.3813384499771
 30
0.0
 42
0.41421356237309503
 70
0
  0
VERTEX
  5
259
  8
COUPE
 10
680.9059353442386
 20
879.1813384499771
 30
0.0
 42
0.41421356237309503
 70
0
  0
VERTEX
  5
25A
  8
COUPE
 10
684.1059353442386
 20
882.3813384499771
 30
0.0
 42
0.41421356237309503
 70
0
  0
VERTEX
  5
25B
  8
COUPE
 10
680.9059353442386
 20
885.581338449977
 30
0.0
 70
0
  0
VERTEX
  5
25C
  8
COUPE
 10
680.9059353442386
 20
920.181338449977
 30
0.0
 42
0.41421356237309503
 70
0
  0
VERTEX
  5
25D
  8
COUPE
 10
684.1059353442388
 20
923.3813384499769
 30
0.0
 42
0.41421356237309503
 70
0
  0
VERTEX
  5
25E
  8
COUPE
 10
680.9059353442389
 20
926.581338449977
 30
0.0
 42
0.41421356237309503
 70
0
  0
VERTEX
  5
25F
  8
COUPE
 10
677.7059353442387
 20
923.3813384499771
 30
0.0
 70
0
  0
VERTEX
  5
260
  8
COUPE
 10
666.1059353442387
 20
923.3813384499771
 30
0.0
 42
0.41421356237309503
 70
0
  0
VERTEX
  5
261
  8
COUPE
 10
662.9059353442386
 20
926.5813384499771
 30
0.0
 42
0.41421356237309503
 70
0
  0
VERTEX
  5
262
  8
COUPE
 10
659.7059353442386
 20
923.3813384499771
 30
0.0
 42
0.41421356237309503
 70
0
  0
VERTEX
  5
263
  8
COUPE
 10
662.9059353442386
 20
920.181338449977
 30
0.0
 70
0
  0
VERTEX
  5
264
  8
COUPE
 10
662.9059353442386
 20
885.581338449977
 30
0.0
 42
0.41421356237309503
 70
0
  0
VERTEX
  5
265
  8
COUPE
 10
659.7059353442387
 20
882.3813384499769
 30
0.0
 42
0.41421356237309503
 70
0
  0
VERTEX
  5
266
  8
COUPE
 10
662.9059353442389
 20
879.1813384499769
 30
0.0
 42
0.41421356237309503
 70
0
  0
VERTEX
  5
267
  8
COUPE
 10
666.1059353442387
 20
882.3813384499771
 30
0.0
 70
0
  0
SEQEND
  5
257
  8
COUPE
  0
POLYLINE
  5
268
  8
COUPE
 66
1
 10
0.0
 20
0.0
 30
0.0
 70
1
  0
VERTEX
  5
26A
  8
COUPE
 10
677.7059353442387
 20
1012.4305322385003
 30
0.0
 42
0.41421356237309503
 70
0
  0
VERTEX
  5
26B
  8
COUPE
 10
680.9059353442386
 20
1009.2305322385004
 30
0.0
 42
0.41421356237309503
 70
0
  0
VERTEX
  5
26C
  8
COUPE
 10
684.1059353442386
 20
1012.4305322385003
 30
0.0
 42
0.41421356237309503
 70
0
  0
VERTEX
  5
26D
  8
COUPE
 10
680.9059353442386
 20
1015.6305322385002
 30
0.0
 70
0
  0
VERTEX
  5
26E
  8
COUPE
 10
680.9059353442386
 20
1050.2305322385002
 30
0.0
 42
0.41421356237309503
 70
0
  0
VERTEX
  5
26F
  8
COUPE
 10
684.1059353442388
 20
1053.4305322385003
 30
0.0
 42
0.41421356237309503
 70
0
  0
VERTEX
  5
270
  8
COUPE
 10
680.9059353442389
 20
1056.6305322385003
 30
0.0
 42
0.41421356237309503
 70
0
  0
VERTEX
  5
271
  8
COUPE
 10
677.7059353442387
 20
1053.4305322385003
 30
0.0
 70
0
  0
VERTEX
  5
272
  8
COUPE
 10
666.1059353442387
 20
1053.4305322385003
 30
0.0
 42
0.41421356237309503
 70
0
  0
VERTEX
  5
273
  8
COUPE
 10
662.9059353442386
 20
1056.6305322385003
 30
0.0
 42
0.41421356237309503
 70
0
  0
VERTEX
  5
274
  8
COUPE
 10
659.7059353442386
 20
1053.4305322385003
 30
0.0
 42
0.41421356237309503
 70
0
  0
VERTEX
  5
275
  8
COUPE
 10
662.9059353442386
 20
1050.2305322385002
 30
0.0
 70
0
  0
VERTEX
  5
276
  8
COUPE
 10
662.9059353442386
 20
1015.6305322385002
 30
0.0
 42
0.41421356237309503
 70
0
  0
VERTEX
  5
277
  8
COUPE
 10
659.7059353442387
 20
1012.4305322385002
 30
0.0
 42
0.41421356237309503
 70
0
  0
VERTEX
  5
278
  8
COUPE
 10
662.9059353442389
 20
1009.2305322385002
 30
0.0
 42
0.41421356237309503
 70
0
  0
VERTEX
  5
279
  8
COUPE
 10
666.1059353442387
 20
1012.4305322385003
 30
0.0
 70
0
  0
SEQEND
  5
269
  8
COUPE
  0
CIRCLE
  5
27A
  8
COUPE
 10
995.3726020109053
 20
687.3726020109053
 30
0.0
 40
117.37260201090533
  0
POLYLINE
  5
27B
  8
COUPE
 66
1
 10
0.0
 20
0.0
 30
0.0
 70
1
  0
VERTEX
  5
27D
  8
COUPE
 10
940.6068291826346
 20
624.4043905208706
 30
0.0
 42
0.41421356237309503
 70
0
  0
VERTEX
  5
27E
  8
COUPE
 10
940.6068291826346
 20
619.8789071212767
 30
0.0
 42
0.41421356237309503
 70
0
  0
VERTEX
  5
27F
  8
COUPE
 10
945.1323125822285
 20
619.8789071212767
 30
0.0
 42
0.41421356237309503
 70
0
  0
VERTEX
  5
280
  8
COUPE
 10
945.1323125822285
 20
624.4043905208706
 30
0.0
 70
0
  0
VERTEX
  5
281
  8
COUPE
 10
969.5982072112829
 20
648.8702851499252
 30
0.0
 42
0.41421356237309503
 70
0
  0
VERTEX
  5
282
  8
COUPE
 10
974.1236906108768
 20
648.8702851499252
 30
0.0
 42
0.41421356237309503
 70
0
  0
VERTEX
  5
283
  8
COUPE
 10
974.1236906108768
 20
653.3957685495191
 30
0.0
 42
0.41421356237309503
 70
0
  0
VERTEX
  5
284
  8
COUPE
 10
969.5982072112829
 20
653.3957685495191
 30
0.0
 70
0
  0
VERTEX
  5
285
  8
COUPE
 10
961.3957685495191
 20
661.598207211283
 30
0.0
 42
0.41421356237309503
 70
0
  0
VERTEX
  5
286
  8
COUPE
 10
961.3957685495191
 20
666.1236906108769
 30
0.0
 42
0.41421356237309503
 70
0
  0
VERTEX
  5
287
  8
COUPE
 10
956.8702851499252
 20
666.1236906108769
 30
0.0
 42
0.41421356237309503
 70
0
  0
VERTEX
  5
288
  8
COUPE
 10
956.8702851499252
 20
661.598207211283
 30
0.0
 70
0
  0
VERTEX
  5
289
  8
COUPE
 10
932.4043905208706
 20
637.1323125822285
 30
0.0
 42
0.41421356237309503
 70
0
  0
VERTEX
  5
28A
  8
COUPE
 10
927.8789071212767
 20
637.1323125822285
 30
0.0
 42
0.41421356237309503
 70
0
  0
VERTEX
  5
28B
  8
COUPE
 10
927.8789071212767
 20
632.6068291826346
 30
0.0
 42
0.41421356237309503
 70
0
  0
VERTEX
  5
28C
  8
COUPE
 10
932.4043905208706
 20
632.6068291826346
 30
0.0
 70
0
  0
SEQEND
  5
27C
  8
COUPE
  0
POLYLINE
  5
28D
  8
COUPE
 66
1
 10
0.0
 20
0.0
 30
0.0
 70
1
  0
VERTEX
  5
28F
  8
COUPE
 10
1029.3494354722916
 20
713.1469968105276
 30
0.0
 42
0.41421356237309503
 70
0
  0
VERTEX
  5
290
  8
COUPE
 10
1029.3494354722918
 20
708.6215134109336
 30
0.0
 42
0.41421356237309503
 70
0
  0
VERTEX
  5
291
  8
COUPE
 10
1033.8749188718857
 20
708.6215134109339
 30
0.0
 42
0.41421356237309503
 70
0
  0
VERTEX
  5
292
  8
COUPE
 10
1033.8749188718855
 20
713.1469968105276
 30
0.0
 70
0
  0
VERTEX
  5
293
  8
COUPE
 10
1058.3408135009402
 20
737.6128914395822
 30
0.0
 42
0.41421356237309503
 70
0
  0
VERTEX
  5
294
  8
COUPE
 10
1062.866296900534
 20
737.6128914395822
 30
0.0
 42
0.41421356237309503
 70
0
  0
VERTEX
  5
295
  8
COUPE
 10
1062.8662969005338
 20
742.1383748391761
 30
0.0
 42
0.41421356237309503
 70
0
  0
VERTEX
  5
296
  8
COUPE
 10
1058.3408135009402
 20
742.1383748391761
 30
0.0
 70
0
  0
VERTEX
  5
297
  8
COUPE
 10
1050.138374839176
 20
750.34081350094
 30
0.0
 42
0.41421356237309503
 70
0
  0
VERTEX
  5
298
  8
COUPE
 10
1050.1383748391763
 20
754.8662969005338
 30
0.0
 42
0.41421356237309503
 70
0
  0
VERTEX
  5
299
  8
COUPE
 10
1045.6128914395824
 20
754.866296900534
 30
0.0
 42
0.41421356237309503
 70
0
  0
VERTEX
  5
29A
  8
COUPE
 10
1045.6128914395822
 20
750.34081350094
 30
0.0
 70
0
  0
VERTEX
  5
29B
  8
COUPE
 10
1021.1469968105276
 20
725.8749188718855
 30
0.0
 42
0.41421356237309503
 70
0
  0
VERTEX
  5
29C
  8
COUPE
 10
1016.6215134109337
 20
725.8749188718855
 30
0.0
 42
0.41421356237309503
 70
0
  0
VERTEX
  5
29D
  8
COUPE
 10
1016.6215134109337
 20
721.3494354722916
 30
0.0
 42
0.41421356237309503
 70
0
  0
VERTEX
  5
29E
  8
COUPE
 10
1021.1469968105276
 20
721.3494354722916
 30
0.0
 70
0
  0
SEQEND
  5
28E
  8
COUPE
  0
POLYLINE
  5
29F
  8
COUPE
 66
1
 10
0.0
 20
0.0
 30
0.0
 70
1
  0
VERTEX
  5
2A1
  8
COUPE
 10
1058.34081350094
 20
632.6068291826346
 30
0.0
 42
0.41421356237309503
 70
0
  0
VERTEX
  5
2A2
  8
COUPE
 10
1062.8662969005338
 20
632.6068291826344
 30
0.0
 42
0.41421356237309503
 70
0
  0
VERTEX
  5
2A3
  8
COUPE
 10
1062.866296900534
 20
637.1323125822283
 30
0.0
 42
0.41421356237309503
 70
0
  0
VERTEX
  5
2A4
  8
COUPE
 10
1058.34081350094
 20
637.1323125822285
 30
0.0
 70
0
  0
VERTEX
  5
2A5
  8
COUPE
 10
1033.8749188718855
 20
661.5982072112829
 30
0.0
 42
0.41421356237309503
 70
0
  0
VERTEX
  5
2A6
  8
COUPE
 10
1033.8749188718857
 20
666.1236906108767
 30
0.0
 42
0.41421356237309503
 70
0
  0
VERTEX
  5
2A7
  8
COUPE
 10
1029.3494354722918
 20
666.1236906108769
 30
0.0
 42
0.41421356237309503
 70
0
  0
VERTEX
  5
2A8
  8
COUPE
 10
1029.3494354722916
 20
661.5982072112829
 30
0.0
 70
0
  0
VERTEX
  5
2A9
  8
COUPE
 10
1021.1469968105276
 20
653.3957685495191
 30
0.0
 42
0.41421356237309503
 70
0
  0
VERTEX
  5
2AA
  8
COUPE
 10
1016.6215134109337
 20
653.3957685495191
 30
0.0
 42
0.41421356237309503
 70
0
  0
VERTEX
  5
2AB
  8
COUPE
 10
1016.6215134109337
 20
648.8702851499252
 30
0.0
 42
0.41421356237309503
 70
0
  0
VERTEX
  5
2AC
  8
COUPE
 10
1021.1469968105276
 20
648.8702851499252
 30
0.0
 70
0
  0
VERTEX
  5
2AD
  8
COUPE
 10
1045.6128914395822
 20
624.4043905208706
 30
0.0
 42
0.41421356237309503
 70
0
  0
VERTEX
  5
2AE
  8
COUPE
 10
1045.6128914395824
 20
619.8789071212766
 30
0.0
 42
0.41421356237309503
 70
0
  0
VERTEX
  5
2AF
  8
COUPE
 10
1050.1383748391763
 20
619.8789071212768
 30
0.0
 42
0.41421356237309503
 70
0
  0
VERTEX
  5
2B0
  8
COUPE
 10
1050.138374839176
 20
624.4043905208706
 30
0.0
 70
0
  0
SEQEND
  5
2A0
  8
COUPE
  0
POLYLINE
  5
2B1
  8
COUPE
 66
1
 10
0.0
 20
0.0
 30
0.0
 70
1
  0
VERTEX
  5
2B3
  8
COUPE
 10
969.598207211283
 20
721.3494354722916
 30
0.0
 42
0.41421356237309503
 70
0
  0
VERTEX
  5
2B4
  8
COUPE
 10
974.1236906108769
 20
721.3494354722916
 30
0.0
 42
0.41421356237309503
 70
0
  0
VERTEX
  5
2B5
  8
COUPE
 10
974.1236906108769
 20
725.8749188718855
 30
0.0
 42
0.41421356237309503
 70
0
  0
VERTEX
  5
2B6
  8
COUPE
 10
969.598207211283
 20
725.8749188718855
 30
0.0
 70
0
  0
VERTEX
  5
2B7
  8
COUPE
 10
945.1323125822285
 20
750.34081350094
 30
0.0
 42
0.41421356237309503
 70
0
  0
VERTEX
  5
2B8
  8
COUPE
 10
945.1323125822285
 20
754.8662969005339
 30
0.0
 42
0.41421356237309503
 70
0
  0
VERTEX
  5
2B9
  8
COUPE
 10
940.6068291826346
 20
754.8662969005339
 30
0.0
 42
0.41421356237309503
 70
0
  0
VERTEX
  5
2BA
  8
COUPE
 10
940.6068291826346
 20
750.34081350094
 30
0.0
 70
0
  0
VERTEX
  5
2BB
  8
COUPE
 10
932.4043905208706
 20
742.1383748391761
 30
0.0
 42
0.41421356237309503
 70
0
  0
VERTEX
  5
2BC
  8
COUPE
 10
927.8789071212767
 20
742.1383748391761
 30
0.0
 42
0.41421356237309503
 70
0
  0
VERTEX
  5
2BD
  8
COUPE
 10
927.8789071212767
 20
737.6128914395822
 30
0.0
 42
0.41421356237309503
 70
0
  0
VERTEX
  5
2BE
  8
COUPE
 10
932.4043905208706
 20
737.6128914395822
 30
0.0
 70
0
  0
VERTEX
  5
2BF
  8
COUPE
 10
956.8702851499252
 20
713.1469968105276
 30
0.0
 42
0.41421356237309503
 70
0
  0
VERTEX
  5
2C0
  8
COUPE
 10
956.8702851499252
 20
708.6215134109337
 30
0.0
 42
0.41421356237309503
 70
0
  0
VERTEX
  5
2C1
  8
COUPE
 10
961.3957685495191
 20
708.6215134109337
 30
0.0
 42
0.41421356237309503
 70
0
  0
VERTEX
  5
2C2
  8
COUPE
 10
961.3957685495191
 20
713.1469968105276
 30
0.0
 70
0
  0
SEQEND
  5
2B2
  8
COUPE
  0
POLYLINE
  5
2C3
  8
COUPE
 66
1
 10
0.0
 20
0.0
 30
0.0
 70
1
  0
VERTEX
  5
2C5
  8
COUPE
 10
1387.7452040218107
 20
890.0
 30
0.0
 70
0
  0
VERTEX
  5
2C6
  8
COUPE
 10
1356.8231006984897
 20
890.0
 30
0.0
 42
-0.41421356237309503
 70
0
  0
VERTEX
  5
2C7
  8
COUPE
 10
1353.62310069849
 20
886.8000000000002
 30
0.0
 42
-0.41421356237309503
 70
0
  0
VERTEX
  5
2C8
  8
COUPE
 10
1350.42310069849
 20
890.0000000000002
 30
0.0
 42
-0.41421356237309503
 70
0
  0
VERTEX
  5
2C9
  8
COUPE
 10
1353.62310069849
 20
893.2
 30
0.0
 70
0
  0
VERTEX
  5
2CA
  8
COUPE
 10
1353.62310069849
 20
907.0
 30
0.0
 70
0
  0
VERTEX
  5
2CB
  8
COUPE
 10
1313.62310069849
 20
907.0
 30
0.0
 70
0
  0
VERTEX
  5
2CC
  8
COUPE
 10
1313.62310069849
 20
893.2
 30
0.0
 42
-0.41421356237309503
 70
0
  0
VERTEX
  5
2CD
  8
COUPE
 10
1316.82310069849
 20
890.0
 30
0.0
 42
-0.41421356237309503
 70
0
  0
VERTEX
  5
2CE
  8
COUPE
 10
1313.62310069849
 20
886.8
 30
0.0
 42
-0.41421356237309503
 70
0
  0
VERTEX
  5
2CF
  8
COUPE
 10
1310.4231006984899
 20
890.0
 30
0.0
 70
0
  0
VERTEX
  5
2D0
  8
COUPE
 10
1231.3221033233208
 20
890.0
 30
0.0
 42
-0.41421356237309503
 70
0
  0
VERTEX
  5
2D1
  8
COUPE
 10
1228.1221033233207
 20
886.8
 30
0.0
 42
-0.41421356237309503
 70
0
  0
VERTEX
  5
2D2
  8
COUPE
 10
1224.9221033233207
 20
890.0
 30
0.0
 42
-0.41421356237309503
 70
0
  0
VERTEX
  5
2D3
  8
COUPE
 10
1228.1221033233207
 20
893.2
 30
0.0
 70
0
  0
VERTEX
  5
2D4
  8
COUPE
 10
1228.1221033233207
 20
907.0
 30
0.0
 70
0
  0
VERTEX
  5
2D5
  8
COUPE
 10
1188.1221033233207
 20
907.0
 30
0.0
 70
0
  0
VERTEX
  5
2D6
  8
COUPE
 10
1188.1221033233207
 20
893.2
 30
0.0
 42
-0.41421356237309503
 70
0
  0
VERTEX
  5
2D7
  8
COUPE
 10
1191.3221033233208
 20
890.0
 30
0.0
 42
-0.41421356237309503
 70
0
  0
VERTEX
  5
2D8
  8
COUPE
 10
1188.1221033233207
 20
886.8
 30
0.0
 42
-0.41421356237309503
 70
0
  0
VERTEX
  5
2D9
  8
COUPE
 10
1184.9221033233207
 20
890.0
 30
0.0
 70
0
  0
VERTEX
  5
2DA
  8
COUPE
 10
1154.0
 20
890.0
 30
0.0
 70
0
  0
VERTEX
  5
2DB
  8
COUPE
 10
1204.9333333333334
 20
699.0
 30
0.0
 70
0
  0
VERTEX
  5
2DC
  8
COUPE
 10
1215.2261432889138
 20
699.0
 30
0.0
 42
-0.41421356237309503
 70
0
  0
VERTEX
  5
2DD
  8
COUPE
 10
1218.4261432889139
 20
702.2
 30
0.0
 42
-0.41421356237309503
 70
0
  0
VERTEX
  5
2DE
  8
COUPE
 10
1221.626143288914
 20
699.0
 30
0.0
 42
-0.41421356237309503
 70
0
  0
VERTEX
  5
2DF
  8
COUPE
 10
1218.4261432889139
 20
695.8
 30
0.0
 70
0
  0
VERTEX
  5
2E0
  8
COUPE
 10
1218.4261432889139
 20
682.0
 30
0.0
 70
0
  0
VERTEX
  5
2E1
  8
COUPE
 10
1253.6726020109054
 20
682.0
 30
0.0
 70
0
  0
VERTEX
  5
2E2
  8
COUPE
 10
1253.6726020109054
 20
695.8
 30
0.0
 42
-0.41421356237309503
 70
0
  0
VERTEX
  5
2E3
  8
COUPE
 10
1250.4726020109056
 20
698.9999999999999
 30
0.0
 42
-0.41421356237309503
 70
0
  0
VERTEX
  5
2E4
  8
COUPE
 10
1253.6726020109054
 20
702.1999999999998
 30
0.0
 42
-0.41421356237309503
 70
0
  0
VERTEX
  5
2E5
  8
COUPE
 10
1256.8726020109052
 20
699.0
 30
0.0
 70
0
  0
VERTEX
  5
2E6
  8
COUPE
 10
1261.8726020109052
 20
699.0
 30
0.0
 70
0
  0
VERTEX
  5
2E7
  8
COUPE
 10
1261.8726020109052
 20
791.3
 30
0.0
 42
-0.41421356237309503
 70
0
  0
VERTEX
  5
2E8
  8
COUPE
 10
1258.6726020109052
 20
794.5
 30
0.0
 42
-0.41421356237309503
 70
0
  0
VERTEX
  5
2E9
  8
COUPE
 10
1261.8726020109052
 20
797.7
 30
0.0
 42
-0.41421356237309503
 70
0
  0
VERTEX
  5
2EA
  8
COUPE
 10
1265.0726020109053
 20
794.5
 30
0.0
 70
0
  0
VERTEX
  5
2EB
  8
COUPE
 10
1276.6726020109054
 20
794.5
 30
0.0
 42
-0.41421356237309503
 70
0
  0
VERTEX
  5
2EC
  8
COUPE
 10
1279.8726020109054
 20
797.6999999999998
 30
0.0
 42
-0.41421356237309503
 70
0
  0
VERTEX
  5
2ED
  8
COUPE
 10
1283.072602010905
 20
794.4999999999998
 30
0.0
 42
-0.41421356237309503
 70
0
  0
VERTEX
  5
2EE
  8
COUPE
 10
1279.8726020109052
 20
791.3
 30
0.0
 70
0
  0
VERTEX
  5
2EF
  8
COUPE
 10
1279.8726020109052
 20
699.0
 30
0.0
 70
0
  0
VERTEX
  5
2F0
  8
COUPE
 10
1284.8726020109052
 20
699.0
 30
0.0
 42
-0.41421356237309503
 70
0
  0
VERTEX
  5
2F1
  8
COUPE
 10
1288.0726020109053
 20
702.2
 30
0.0
 42
-0.41421356237309503
 70
0
  0
VERTEX
  5
2F2
  8
COUPE
 10
1291.2726020109053
 20
699.0
 30
0.0
 42
-0.41421356237309503
 70
0
  0
VERTEX
  5
2F3
  8
COUPE
 10
1288.0726020109053
 20
695.8
 30
0.0
 70
0
  0
VERTEX
  5
2F4
  8
COUPE
 10
1288.0726020109053
 20
682.0
 30
0.0
 70
0
  0
VERTEX
  5
2F5
  8
COUPE
 10
1323.3190607328968
 20
682.0
 30
0.0
 70
0
  0
VERTEX
  5
2F6
  8
COUPE
 10
1323.3190607328968
 20
695.8
 30
0.0
 42
-0.41421356237309503
 70
0
  0
VERTEX
  5
2F7
  8
COUPE
 10
1320.1190607328967
 20
699.0
 30
0.0
 42
-0.41421356237309503
 70
0
  0
VERTEX
  5
2F8
  8
COUPE
 10
1323.3190607328968
 20
702.2
 30
0.0
 42
-0.41421356237309503
 70
0
  0
VERTEX
  5
2F9
  8
COUPE
 10
1326.5190607328968
 20
699.0
 30
0.0
 70
0
  0
VERTEX
  5
2FA
  8
COUPE
 10
1336.8118706884773
 20
699.0
 30
0.0
 70
0
  0
SEQEND
  5
2C4
  8
COUPE
  0
POLYLINE
  5
2FB
  8
COUPE
 66
1
 10
0.0
 20
0.0
 30
0.0
 70
1
  0
VERTEX
  5
2FD
  8
COUPE
 10
1455.7452040218107
 20
1178.0
 30
0.0
 70
0
  0
VERTEX
  5
2FE
  8
COUPE
 10
1424.8231006984897
 20
1178.0
 30
0.0
 42
-0.41421356237309503
 70
0
  0
VERTEX
  5
2FF
  8
COUPE
 10
1421.6231006984897
 20
1174.8000000000004
 30
0.0
 42
-0.41421356237309503
 70
0
  0
VERTEX
  5
300
  8
COUPE
 10
1418.42310069849
 20
1178.0000000000005
 30
0.0
 42
-0.41421356237309503
 70
0
  0
VERTEX
  5
301
  8
COUPE
 10
1421.62310069849
 20
1181.2
 30
0.0
 70
0
  0
VERTEX
  5
302
  8
COUPE
 10
1421.62310069849
 20
1195.0
 30
0.0
 70
0
  0
VERTEX
  5
303
  8
COUPE
 10
1381.62310069849
 20
1195.0
 30
0.0
 70
0
  0
VERTEX
  5
304
  8
COUPE
 10
1381.62310069849
 20
1181.2
 30
0.0
 42
-0.41421356237309503
 70
0
  0
VERTEX
  5
305
  8
COUPE
 10
1384.82310069849
 20
1178.0
 30
0.0
 42
-0.41421356237309503
 70
0
  0
VERTEX
  5
306
  8
COUPE
 10
1381.62310069849
 20
1174.8
 30
0.0
 42
-0.41421356237309503
 70
0
  0
VERTEX
  5
307
  8
COUPE
 10
1378.4231006984899
 20
1178.0
 30
0.0
 70
0
  0
VERTEX
  5
308
  8
COUPE
 10
1347.8726020109052
 20
1178.0
 30
0.0
 70
0
  0
VERTEX
  5
309
  8
COUPE
 10
1347.8726020109052
 20
1085.7
 30
0.0
 42
-0.41421356237309503
 70
0
  0
VERTEX
  5
30A
  8
COUPE
 10
1351.072602010905
 20
1082.5000000000002
 30
0.0
 42
-0.41421356237309503
 70
0
  0
VERTEX
  5
30B
  8
COUPE
 10
1347.8726020109052
 20
1079.3000000000004
 30
0.0
 42
-0.41421356237309503
 70
0
  0
VERTEX
  5
30C
  8
COUPE
 10
1344.6726020109054
 20
1082.5
 30
0.0
 70
0
  0
VERTEX
  5
30D
  8
COUPE
 10
1333.0726020109053
 20
1082.5
 30
0.0
 42
-0.41421356237309503
 70
0
  0
VERTEX
  5
30E
  8
COUPE
 10
1329.8726020109052
 20
1079.3
 30
0.0
 42
-0.41421356237309503
 70
0
  0
VERTEX
  5
30F
  8
COUPE
 10
1326.6726020109052
 20
1082.5
 30
0.0
 42
-0.41421356237309503
 70
0
  0
VERTEX
  5
310
  8
COUPE
 10
1329.8726020109052
 20
1085.7
 30
0.0
 70
0
  0
VERTEX
  5
311
  8
COUPE
 10
1329.8726020109052
 20
1178.0
 30
0.0
 70
0
  0
VERTEX
  5
312
  8
COUPE
 10
1299.3221033233208
 20
1178.0
 30
0.0
 42
-0.41421356237309503
 70
0
  0
VERTEX
  5
313
  8
COUPE
 10
1296.1221033233207
 20
1174.8
 30
0.0
 42
-0.41421356237309503
 70
0
  0
VERTEX
  5
314
  8
COUPE
 10
1292.9221033233207
 20
1178.0
 30
0.0
 42
-0.41421356237309503
 70
0
  0
VERTEX
  5
315
  8
COUPE
 10
1296.1221033233207
 20
1181.2
 30
0.0
 70
0
  0
VERTEX
  5
316
  8
COUPE
 10
1296.1221033233207
 20
1195.0
 30
0.0
 70
0
  0
VERTEX
  5
317
  8
COUPE
 10
1256.1221033233207
 20
1195.0
 30
0.0
 70
0
  0
VERTEX
  5
318
  8
COUPE
 10
1256.1221033233207
 20
1181.2
 30
0.0
 42
-0.41421356237309503
 70
0
  0
VERTEX
  5
319
  8
COUPE
 10
1259.3221033233208
 20
1178.0
 30
0.0
 42
-0.41421356237309503
 70
0
  0
VERTEX
  5
31A
  8
COUPE
 10
1256.1221033233207
 20
1174.8
 30
0.0
 42
-0.41421356237309503
 70
0
  0
VERTEX
  5
31B
  8
COUPE
 10
1252.9221033233207
 20
1178.0
 30
0.0
 70
0
  0
VERTEX
  5
31C
  8
COUPE
 10
1222.0
 20
1178.0
 30
0.0
 70
0
  0
VERTEX
  5
31D
  8
COUPE
 10
1272.9333333333334
 20
987.0
 30
0.0
 70
0
  0
VERTEX
  5
31E
  8
COUPE
 10
1283.2261432889138
 20
987.0
 30
0.0
 42
-0.41421356237309503
 70
0
  0
VERTEX
  5
31F
  8
COUPE
 10
1286.4261432889139
 20
990.2
 30
0.0
 42
-0.41421356237309503
 70
0
  0
VERTEX
  5
320
  8
COUPE
 10
1289.626143288914
 20
987.0
 30
0.0
 42
-0.41421356237309503
 70
0
  0
VERTEX
  5
321
  8
COUPE
 10
1286.4261432889139
 20
983.8
 30
0.0
 70
0
  0
VERTEX
  5
322
  8
COUPE
 10
1286.4261432889139
 20
970.0
 30
0.0
 70
0
  0
VERTEX
  5
323
  8
COUPE
 10
1321.6726020109054
 20
970.0
 30
0.0
 70
0
  0
VERTEX
  5
324
  8
COUPE
 10
1321.6726020109054
 20
983.8
 30
0.0
 42
-0.41421356237309503
 70
0
  0
VERTEX
  5
325
  8
COUPE
 10
1318.4726020109056
 20
986.9999999999999
 30
0.0
 42
-0.41421356237309503
 70
0
  0
VERTEX
  5
326
  8
COUPE
 10
1321.6726020109054
 20
990.1999999999998
 30
0.0
 42
-0.41421356237309503
 70
0
  0
VERTEX
  5
327
  8
COUPE
 10
1324.8726020109052
 20
987.0
 30
0.0
 70
0
  0
VERTEX
  5
328
  8
COUPE
 10
1352.8726020109052
 20
987.0
 30
0.0
 42
-0.41421356237309503
 70
0
  0
VERTEX
  5
329
  8
COUPE
 10
1356.0726020109053
 20
990.2
 30
0.0
 42
-0.41421356237309503
 70
0
  0
VERTEX
  5
32A
  8
COUPE
 10
1359.2726020109053
 20
987.0
 30
0.0
 42
-0.41421356237309503
 70
0
  0
VERTEX
  5
32B
  8
COUPE
 10
1356.0726020109053
 20
983.8
 30
0.0
 70
0
  0
VERTEX
  5
32C
  8
COUPE
 10
1356.0726020109053
 20
970.0
 30
0.0
 70
0
  0
VERTEX
  5
32D
  8
COUPE
 10
1391.3190607328968
 20
970.0
 30
0.0
 70
0
  0
VERTEX
  5
32E
  8
COUPE
 10
1391.3190607328968
 20
983.8
 30
0.0
 42
-0.41421356237309503
 70
0
  0
VERTEX
  5
32F
  8
COUPE
 10
1388.1190607328967
 20
987.0
 30
0.0
 42
-0.41421356237309503
 70
0
  0
VERTEX
  5
330
  8
COUPE
 10
1391.3190607328968
 20
990.2
 30
0.0
 42
-0.41421356237309503
 70
0
  0
VERTEX
  5
331
  8
COUPE
 10
1394.5190607328968
 20
987.0
 30
0.0
 70
0
  0
VERTEX
  5
332
  8
COUPE
 10
1404.8118706884773
 20
987.0
 30
0.0
 70
0
  0
SEQEND
  5
2FC
  8
COUPE
  0
POLYLINE
  5
333
  8
COUPE
 66
1
 10
0.0
 20
0.0
 30
0.0
 70
1
  0
VERTEX
  5
335
  8
COUPE
 10
18.0
 20
18.0
 30
0.0
 70
0
  0
VERTEX
  5
336
  8
COUPE
 10
138.63715789784806
 20
18.0
 30
0.0
 70
0
  0
VERTEX
  5
337
  8
COUPE
 10
138.63715789784806
 20
168.0
 30
0.0
 70
0
  0
VERTEX
  5
338
  8
COUPE
 10
18.0
 20
168.0
 30
0.0
 70
0
  0
SEQEND
  5
334
  8
COUPE
  0
POLYLINE
  5
339
  8
POCHE_KERF_15MM
 66
1
 10
0.0
 20
0.0
 30
0.0
 70
1
  0
VERTEX
  5
33B
  8
POCHE_KERF_15MM
 10
20.02654824574367
 20
12.0
 30
0.0
 70
0
  0
VERTEX
  5
33C
  8
POCHE_KERF_15MM
 10
26.02654824574367
 20
12.0
 30
0.0
 70
0
  0
VERTEX
  5
33D
  8
POCHE_KERF_15MM
 10
26.02654824574367
 20
174.0
 30
0.0
 70
0
  0
VERTEX
  5
33E
  8
POCHE_KERF_15MM
 10
20.02654824574367
 20
174.0
 30
0.0
 70
0
  0
SEQEND
  5
33A
  8
POCHE_KERF_15MM
  0
POLYLINE
  5
33F
  8
POCHE_KERF_15MM
 66
1
 10
0.0
 20
0.0
 30
0.0
 70
1
  0
VERTEX
  5
341
  8
POCHE_KERF_15MM
 10
30.079644737231007
 20
12.0
 30
0.0
 70
0
  0
VERTEX
  5
342
  8
POCHE_KERF_15MM
 10
36.07964473723101
 20
12.0
 30
0.0
 70
0
  0
VERTEX
  5
343
  8
POCHE_KERF_15MM
 10
36.07964473723101
 20
174.0
 30
0.0
 70
0
  0
VERTEX
  5
344
  8
POCHE_KERF_15MM
 10
30.079644737231007
 20
174.0
 30
0.0
 70
0
  0
SEQEND
  5
340
  8
POCHE_KERF_15MM
  0
POLYLINE
  5
345
  8
POCHE_KERF_15MM
 66
1
 10
0.0
 20
0.0
 30
0.0
 70
1
  0
VERTEX
  5
347
  8
POCHE_KERF_15MM
 10
40.132741228718345
 20
12.0
 30
0.0
 70
0
  0
VERTEX
  5
348
  8
POCHE_KERF_15MM
 10
46.132741228718345
 20
12.0
 30
0.0
 70
0
  0
VERTEX
  5
349
  8
POCHE_KERF_15MM
 10
46.132741228718345
 20
174.0
 30
0.0
 70
0
  0
VERTEX
  5
34A
  8
POCHE_KERF_15MM
 10
40.132741228718345
 20
174.0
 30
0.0
 70
0
  0
SEQEND
  5
346
  8
POCHE_KERF_15MM
  0
POLYLINE
  5
34B
  8
POCHE_KERF_15MM
 66
1
 10
0.0
 20
0.0
 30
0.0
 70
1
  0
VERTEX
  5
34D
  8
POCHE_KERF_15MM
 10
50.18583772020568
 20
12.0
 30
0.0
 70
0
  0
VERTEX
  5
34E
  8
POCHE_KERF_15MM
 10
56.18583772020568
 20
12.0
 30
0.0
 70
0
  0
VERTEX
  5
34F
  8
POCHE_KERF_15MM
 10
56.18583772020568
 20
174.0
 30
0.0
 70
0
  0
VERTEX
  5
350
  8
POCHE_KERF_15MM
 10
50.18583772020568
 20
174.0
 30
0.0
 70
0
  0
SEQEND
  5
34C
  8
POCHE_KERF_15MM
  0
POLYLINE
  5
351
  8
POCHE_KERF_15MM
 66
1
 10
0.0
 20
0.0
 30
0.0
 70
1
  0
VERTEX
  5
353
  8
POCHE_KERF_15MM
 10
60.23893421169302
 20
12.0
 30
0.0
 70
0
  0
VERTEX
  5
354
  8
POCHE_KERF_15MM
 10
66.23893421169302
 20
12.0
 30
0.0
 70
0
  0
VERTEX
  5
355
  8
POCHE_KERF_15MM
 10
66.23893421169302
 20
174.0
 30
0.0
 70
0
  0
VERTEX
  5
356
  8
POCHE_KERF_15MM
 10
60.23893421169302
 20
174.0
 30
0.0
 70
0
  0
SEQEND
  5
352
  8
POCHE_KERF_15MM
  0
POLYLINE
  5
357
  8
POCHE_KERF_15MM
 66
1
 10
0.0
 20
0.0
 30
0.0
 70
1
  0
VERTEX
  5
359
  8
POCHE_KERF_15MM
 10
70.29203070318036
 20
12.0
 30
0.0
 70
0
  0
VERTEX
  5
35A
  8
POCHE_KERF_15MM
 10
76.29203070318036
 20
12.0
 30
0.0
 70
0
  0
VERTEX
  5
35B
  8
POCHE_KERF_15MM
 10
76.29203070318036
 20
174.0
 30
0.0
 70
0
  0
VERTEX
  5
35C
  8
POCHE_KERF_15MM
 10
70.29203070318036
 20
174.0
 30
0.0
 70
0
  0
SEQEND
  5
358
  8
POCHE_KERF_15MM
  0
POLYLINE
  5
35D
  8
POCHE_KERF_15MM
 66
1
 10
0.0
 20
0.0
 30
0.0
 70
1
  0
VERTEX
  5
35F
  8
POCHE_KERF_15MM
 10
80.3451271946677
 20
12.0
 30
0.0
 70
0
  0
VERTEX
  5
360
  8
POCHE_KERF_15MM
 10
86.3451271946677
 20
12.0
 30
0.0
 70
0
  0
VERTEX
  5
361
  8
POCHE_KERF_15MM
 10
86.3451271946677
 20
174.0
 30
0.0
 70
0
  0
VERTEX
  5
362
  8
POCHE_KERF_15MM
 10
80.3451271946677
 20
174.0
 30
0.0
 70
0
  0
SEQEND
  5
35E
  8
POCHE_KERF_15MM
  0
POLYLINE
  5
363
  8
POCHE_KERF_15MM
 66
1
 10
0.0
 20
0.0
 30
0.0
 70
1
  0
VERTEX
  5
365
  8
POCHE_KERF_15MM
 10
90.39822368615503
 20
12.0
 30
0.0
 70
0
  0
VERTEX
  5
366
  8
POCHE_KERF_15MM
 10
96.39822368615503
 20
12.0
 30
0.0
 70
0
  0
VERTEX
  5
367
  8
POCHE_KERF_15MM
 10
96.39822368615503
 20
174.0
 30
0.0
 70
0
  0
VERTEX
  5
368
  8
POCHE_KERF_15MM
 10
90.39822368615503
 20
174.0
 30
0.0
 70
0
  0
SEQEND
  5
364
  8
POCHE_KERF_15MM
  0
POLYLINE
  5
369
  8
POCHE_KERF_15MM
 66
1
 10
0.0
 20
0.0
 30
0.0
 70
1
  0
VERTEX
  5
36B
  8
POCHE_KERF_15MM
 10
100.45132017764237
 20
12.0
 30
0.0
 70
0
  0
VERTEX
  5
36C
  8
POCHE_KERF_15MM
 10
106.45132017764237
 20
12.0
 30
0.0
 70
0
  0
VERTEX
  5
36D
  8
POCHE_KERF_15MM
 10
106.45132017764237
 20
174.0
 30
0.0
 70
0
  0
VERTEX
  5
36E
  8
POCHE_KERF_15MM
 10
100.45132017764237
 20
174.0
 30
0.0
 70
0
  0
SEQEND
  5
36A
  8
POCHE_KERF_15MM
  0
POLYLINE
  5
36F
  8
POCHE_KERF_15MM
 66
1
 10
0.0
 20
0.0
 30
0.0
 70
1
  0
VERTEX
  5
371
  8
POCHE_KERF_15MM
 10
110.50441666912971
 20
12.0
 30
0.0
 70
0
  0
VERTEX
  5
372
  8
POCHE_KERF_15MM
 10
116.50441666912971
 20
12.0
 30
0.0
 70
0
  0
VERTEX
  5
373
  8
POCHE_KERF_15MM
 10
116.50441666912971
 20
174.0
 30
0.0
 70
0
  0
VERTEX
  5
374
  8
POCHE_KERF_15MM
 10
110.50441666912971
 20
174.0
 30
0.0
 70
0
  0
SEQEND
  5
370
  8
POCHE_KERF_15MM
  0
POLYLINE
  5
375
  8
POCHE_KERF_15MM
 66
1
 10
0.0
 20
0.0
 30
0.0
 70
1
  0
VERTEX
  5
377
  8
POCHE_KERF_15MM
 10
120.55751316061705
 20
12.0
 30
0.0
 70
0
  0
VERTEX
  5
378
  8
POCHE_KERF_15MM
 10
126.55751316061705
 20
12.0
 30
0.0
 70
0
  0
VERTEX
  5
379
  8
POCHE_KERF_15MM
 10
126.55751316061705
 20
174.0
 30
0.0
 70
0
  0
VERTEX
  5
37A
  8
POCHE_KERF_15MM
 10
120.55751316061705
 20
174.0
 30
0.0
 70
0
  0
SEQEND
  5
376
  8
POCHE_KERF_15MM
  0
POLYLINE
  5
37B
  8
POCHE_KERF_15MM
 66
1
 10
0.0
 20
0.0
 30
0.0
 70
1
  0
VERTEX
  5
37D
  8
POCHE_KERF_15MM
 10
130.6106096521044
 20
12.0
 30
0.0
 70
0
  0
VERTEX
  5
37E
  8
POCHE_KERF_15MM
 10
136.6106096521044
 20
12.0
 30
0.0
 70
0
  0
VERTEX
  5
37F
  8
POCHE_KERF_15MM
 10
136.6106096521044
 20
174.0
 30
0.0
 70
0
  0
VERTEX
  5
380
  8
POCHE_KERF_15MM
 10
130.6106096521044
 20
174.0
 30
0.0
 70
0
  0
SEQEND
  5
37C
  8
POCHE_KERF_15MM
  0
CIRCLE
  5
381
  8
COUPE
 10
79.90593534423864
 20
495.9059353442386
 30
0.0
 40
61.90593534423864
  0
POLYLINE
  5
382
  8
COUPE
 66
1
 10
0.0
 20
0.0
 30
0.0
 70
1
  0
VERTEX
  5
384
  8
COUPE
 10
46.56835467298686
 20
454.3659160112229
 30
0.0
 42
0.41421356237309503
 70
0
  0
VERTEX
  5
385
  8
COUPE
 10
46.56835467298686
 20
449.840432611629
 30
0.0
 42
0.41421356237309503
 70
0
  0
VERTEX
  5
386
  8
COUPE
 10
51.093838072580766
 20
449.840432611629
 30
0.0
 42
0.41421356237309503
 70
0
  0
VERTEX
  5
387
  8
COUPE
 10
51.093838072580766
 20
454.3659160112229
 30
0.0
 70
0
  0
VERTEX
  5
388
  8
COUPE
 10
72.19847142930527
 20
475.4705493679474
 30
0.0
 42
0.41421356237309503
 70
0
  0
VERTEX
  5
389
  8
COUPE
 10
76.72395482889924
 20
475.47054936794746
 30
0.0
 42
0.41421356237309503
 70
0
  0
VERTEX
  5
38A
  8
COUPE
 10
76.72395482889921
 20
479.9960327675414
 30
0.0
 42
0.41421356237309503
 70
0
  0
VERTEX
  5
38B
  8
COUPE
 10
72.19847142930527
 20
479.99603276754135
 30
0.0
 70
0
  0
VERTEX
  5
38C
  8
COUPE
 10
63.99603276754132
 20
488.1984714293053
 30
0.0
 42
0.41421356237309503
 70
0
  0
VERTEX
  5
38D
  8
COUPE
 10
63.99603276754132
 20
492.7239548288992
 30
0.0
 42
0.41421356237309503
 70
0
  0
VERTEX
  5
38E
  8
COUPE
 10
59.47054936794741
 20
492.7239548288992
 30
0.0
 42
0.41421356237309503
 70
0
  0
VERTEX
  5
38F
  8
COUPE
 10
59.47054936794741
 20
488.1984714293053
 30
0.0
 70
0
  0
VERTEX
  5
390
  8
COUPE
 10
38.36591601122291
 20
467.09383807258075
 30
0.0
 42
0.41421356237309503
 70
0
  0
VERTEX
  5
391
  8
COUPE
 10
33.84043261162901
 20
467.09383807258075
 30
0.0
 42
0.41421356237309503
 70
0
  0
VERTEX
  5
392
  8
COUPE
 10
33.84043261162901
 20
462.56835467298686
 30
0.0
 42
0.41421356237309503
 70
0
  0
VERTEX
  5
393
  8
COUPE
 10
38.36591601122291
 20
462.56835467298686
 30
0.0
 70
0
  0
SEQEND
  5
383
  8
COUPE
  0
POLYLINE
  5
394
  8
COUPE
 66
1
 10
0.0
 20
0.0
 30
0.0
 70
1
  0
VERTEX
  5
396
  8
COUPE
 10
95.81583792093596
 20
503.613399259172
 30
0.0
 42
0.41421356237309503
 70
0
  0
VERTEX
  5
397
  8
COUPE
 10
95.81583792093595
 20
499.0879158595781
 30
0.0
 42
0.41421356237309503
 70
0
  0
VERTEX
  5
398
  8
COUPE
 10
100.34132132052986
 20
499.0879158595781
 30
0.0
 42
0.41421356237309503
 70
0
  0
VERTEX
  5
399
  8
COUPE
 10
100.34132132052987
 20
503.613399259172
 30
0.0
 70
0
  0
VERTEX
  5
39A
  8
COUPE
 10
121.44595467725438
 20
524.7180326158965
 30
0.0
 42
0.41421356237309503
 70
0
  0
VERTEX
  5
39B
  8
COUPE
 10
125.97143807684827
 20
524.7180326158965
 30
0.0
 42
0.41421356237309503
 70
0
  0
VERTEX
  5
39C
  8
COUPE
 10
125.97143807684827
 20
529.2435160154904
 30
0.0
 42
0.41421356237309503
 70
0
  0
VERTEX
  5
39D
  8
COUPE
 10
121.44595467725438
 20
529.2435160154904
 30
0.0
 70
0
  0
VERTEX
  5
39E
  8
COUPE
 10
113.24351601549043
 20
537.4459546772543
 30
0.0
 42
0.41421356237309503
 70
0
  0
VERTEX
  5
39F
  8
COUPE
 10
113.24351601549043
 20
541.9714380768482
 30
0.0
 42
0.41421356237309503
 70
0
  0
VERTEX
  5
3A0
  8
COUPE
 10
108.71803261589653
 20
541.9714380768482
 30
0.0
 42
0.41421356237309503
 70
0
  0
VERTEX
  5
3A1
  8
COUPE
 10
108.71803261589652
 20
537.4459546772543
 30
0.0
 70
0
  0
VERTEX
  5
3A2
  8
COUPE
 10
87.61339925917201
 20
516.3413213205299
 30
0.0
 42
0.41421356237309503
 70
0
  0
VERTEX
  5
3A3
  8
COUPE
 10
83.08791585957808
 20
516.3413213205299
 30
0.0
 42
0.41421356237309503
 70
0
  0
VERTEX
  5
3A4
  8
COUPE
 10
83.08791585957805
 20
511.815837920936
 30
0.0
 42
0.41421356237309503
 70
0
  0
VERTEX
  5
3A5
  8
COUPE
 10
87.61339925917201
 20
511.81583792093596
 30
0.0
 70
0
  0
SEQEND
  5
395
  8
COUPE
  0
POLYLINE
  5
3A6
  8
COUPE
 66
1
 10
0.0
 20
0.0
 30
0.0
 70
1
  0
VERTEX
  5
3A8
  8
COUPE
 10
121.44595467725438
 20
462.56835467298686
 30
0.0
 42
0.41421356237309503
 70
0
  0
VERTEX
  5
3A9
  8
COUPE
 10
125.97143807684827
 20
462.56835467298686
 30
0.0
 42
0.41421356237309503
 70
0
  0
VERTEX
  5
3AA
  8
COUPE
 10
125.97143807684827
 20
467.09383807258075
 30
0.0
 42
0.41421356237309503
 70
0
  0
VERTEX
  5
3AB
  8
COUPE
 10
121.44595467725438
 20
467.09383807258075
 30
0.0
 70
0
  0
VERTEX
  5
3AC
  8
COUPE
 10
100.34132132052987
 20
488.1984714293053
 30
0.0
 42
0.41421356237309503
 70
0
  0
VERTEX
  5
3AD
  8
COUPE
 10
100.34132132052986
 20
492.7239548288992
 30
0.0
 42
0.41421356237309503
 70
0
  0
VERTEX
  5
3AE
  8
COUPE
 10
95.81583792093595
 20
492.7239548288992
 30
0.0
 42
0.41421356237309503
 70
0
  0
VERTEX
  5
3AF
  8
COUPE
 10
95.81583792093596
 20
488.1984714293053
 30
0.0
 70
0
  0
VERTEX
  5
3B0
  8
COUPE
 10
87.61339925917201
 20
479.99603276754135
 30
0.0
 42
0.41421356237309503
 70
0
  0
VERTEX
  5
3B1
  8
COUPE
 10
83.08791585957808
 20
479.9960327675414
 30
0.0
 42
0.41421356237309503
 70
0
  0
VERTEX
  5
3B2
  8
COUPE
 10
83.08791585957805
 20
475.47054936794746
 30
0.0
 42
0.41421356237309503
 70
0
  0
VERTEX
  5
3B3
  8
COUPE
 10
87.61339925917201
 20
475.4705493679474
 30
0.0
 70
0
  0
VERTEX
  5
3B4
  8
COUPE
 10
108.7180326158965
 20
454.3659160112229
 30
0.0
 42
0.41421356237309503
 70
0
  0
VERTEX
  5
3B5
  8
COUPE
 10
108.7180326158965
 20
449.840432611629
 30
0.0
 42
0.41421356237309503
 70
0
  0
VERTEX
  5
3B6
  8
COUPE
 10
113.24351601549043
 20
449.840432611629
 30
0.0
 42
0.41421356237309503
 70
0
  0
VERTEX
  5
3B7
  8
COUPE
 10
113.24351601549043
 20
454.3659160112229
 30
0.0
 70
0
  0
SEQEND
  5
3A7
  8
COUPE
  0
POLYLINE
  5
3B8
  8
COUPE
 66
1
 10
0.0
 20
0.0
 30
0.0
 70
1
  0
VERTEX
  5
3BA
  8
COUPE
 10
72.19847142930527
 20
511.81583792093596
 30
0.0
 42
0.41421356237309503
 70
0
  0
VERTEX
  5
3BB
  8
COUPE
 10
76.72395482889924
 20
511.815837920936
 30
0.0
 42
0.41421356237309503
 70
0
  0
VERTEX
  5
3BC
  8
COUPE
 10
76.72395482889921
 20
516.3413213205299
 30
0.0
 42
0.41421356237309503
 70
0
  0
VERTEX
  5
3BD
  8
COUPE
 10
72.19847142930527
 20
516.3413213205299
 30
0.0
 70
0
  0
VERTEX
  5
3BE
  8
COUPE
 10
51.09383807258077
 20
537.4459546772543
 30
0.0
 42
0.41421356237309503
 70
0
  0
VERTEX
  5
3BF
  8
COUPE
 10
51.093838072580766
 20
541.9714380768482
 30
0.0
 42
0.41421356237309503
 70
0
  0
VERTEX
  5
3C0
  8
COUPE
 10
46.56835467298686
 20
541.9714380768482
 30
0.0
 42
0.41421356237309503
 70
0
  0
VERTEX
  5
3C1
  8
COUPE
 10
46.568354672986864
 20
537.4459546772543
 30
0.0
 70
0
  0
VERTEX
  5
3C2
  8
COUPE
 10
38.365916011222915
 20
529.2435160154904
 30
0.0
 42
0.41421356237309503
 70
0
  0
VERTEX
  5
3C3
  8
COUPE
 10
33.84043261162902
 20
529.2435160154904
 30
0.0
 42
0.41421356237309503
 70
0
  0
VERTEX
  5
3C4
  8
COUPE
 10
33.84043261162902
 20
524.7180326158965
 30
0.0
 42
0.41421356237309503
 70
0
  0
VERTEX
  5
3C5
  8
COUPE
 10
38.365916011222915
 20
524.7180326158965
 30
0.0
 70
0
  0
VERTEX
  5
3C6
  8
COUPE
 10
59.47054936794741
 20
503.613399259172
 30
0.0
 42
0.41421356237309503
 70
0
  0
VERTEX
  5
3C7
  8
COUPE
 10
59.47054936794741
 20
499.0879158595781
 30
0.0
 42
0.41421356237309503
 70
0
  0
VERTEX
  5
3C8
  8
COUPE
 10
63.99603276754132
 20
499.0879158595781
 30
0.0
 42
0.41421356237309503
 70
0
  0
VERTEX
  5
3C9
  8
COUPE
 10
63.99603276754132
 20
503.613399259172
 30
0.0
 70
0
  0
SEQEND
  5
3B9
  8
COUPE
  0
ENDSEC
  0
EOF
