  0
SECTION
  2
HEADER
  9
$ACADVER
  1
AC1024
  9
$ACADMAINTVER
 70
6
  9
$DWGCODEPAGE
  3
ANSI_1252
  9
$LASTSAVEDBY
  1
ezdxf
  9
$INSBASE
 10
0.0
 20
0.0
 30
0.0
  9
$EXTMIN
 10
1e+20
 20
1e+20
 30
1e+20
  9
$EXTMAX
 10
-1e+20
 20
-1e+20
 30
-1e+20
  9
$LIMMIN
 10
0.0
 20
0.0
  9
$LIMMAX
 10
420.0
 20
297.0
  9
$ORTHOMODE
 70
0
  9
$REGENMODE
 70
1
  9
$FILLMODE
 70
1
  9
$QTEXTMODE
 70
0
  9
$MIRRTEXT
 70
1
  9
$LTSCALE
 40
1.0
  9
$ATTMODE
 70
1
  9
$TEXTSIZE
 40
2.5
  9
$TRACEWID
 40
1.0
  9
$TEXTSTYLE
  7
OpenSans
  9
$CLAYER
  8
0
  9
$CELTYPE
  6
ByLayer
  9
$CECOLOR
 62
256
  9
$CELTSCALE
 40
1.0
  9
$DISPSILH
 70
0
  9
$DIMSCALE
 40
1.0
  9
$DIMASZ
 40
0.175
  9
$DIMEXO
 40
0.125
  9
$DIMDLI
 40
3.75
  9
$DIMRND
 40
0.0
  9
$DIMDLE
 40
0.0
  9
$DIMEXE
 40
0.375
  9
$DIMTP
 40
0.0
  9
$DIMTM
 40
0.0
  9
$DIMTXT
 40
0.25
  9
$DIMCEN
 40
2.5
  9
$DIMTSZ
 40
0.0
  9
$DIMTOL
 70
0
  9
$DIMLIM
 70
0
  9
$DIMTIH
 70
0
  9
$DIMTOH
 70
0
  9
$DIMSE1
 70
0
  9
$DIMSE2
 70
0
  9
$DIMTAD
 70
1
  9
$DIMZIN
 70
12
  9
$DIMBLK
  1
ARCHTICK
  9
$DIMASO
 70
1
  9
$DIMSHO
 70
1
  9
$DIMPOST
  1

  9
$DIMAPOST
  1

  9
$DIMALT
 70
0
  9
$DIMALTD
 70
3
  9
$DIMALTF
 40
0.03937007874
  9
$DIMLFAC
 40
100.0
  9
$DIMTOFL
 70
1
  9
$DIMTVP
 40
0.0
  9
$DIMTIX
 70
0
  9
$DIMSOXD
 70
0
  9
$DIMSAH
 70
0
  9
$DIMBLK1
  1

  9
$DIMBLK2
  1

  9
$DIMSTYLE
  2
EZDXF
  9
$DIMCLRD
 70
0
  9
$DIMCLRE
 70
0
  9
$DIMCLRT
 70
0
  9
$DIMTFAC
 40
0.5
  9
$DIMGAP
 40
0.1
  9
$DIMJUST
 70
0
  9
$DIMSD1
 70
0
  9
$DIMSD2
 70
0
  9
$DIMTOLJ
 70
0
  9
$DIMTZIN
 70
8
  9
$DIMALTZ
 70
0
  9
$DIMALTTZ
 70
0
  9
$DIMUPT
 70
1
  9
$DIMDEC
 70
2
  9
$DIMTDEC
 70
2
  9
$DIMALTU
 70
2
  9
$DIMALTTD
 70
3
  9
$DIMTXSTY
  7
OpenSansCondensed-Light
  9
$DIMAUNIT
 70
0
  9
$DIMADEC
 70
2
  9
$DIMALTRND
 40
0.0
  9
$DIMAZIN
 70
3
  9
$DIMDSEP
 70
46
  9
$DIMATFIT
 70
3
  9
$DIMFRAC
 70
0
  9
$DIMLDRBLK
  1

  9
$DIMLUNIT
 70
2
  9
$DIMLWD
 70
-2
  9
$DIMLWE
 70
-2
  9
$DIMTMOVE
 70
2
  9
$DIMFXL
 40
1.0
  9
$DIMFXLON
 70
0
  9
$DIMJOGANG
 40
0.785398163397
  9
$DIMTFILL
 70
0
  9
$DIMTFILLCLR
 70
0
  9
$DIMARCSYM
 70
0
  9
$DIMLTYPE
  6

  9
$DIMLTEX1
  6

  9
$DIMLTEX2
  6

  9
$DIMTXTDIRECTION
 70
0
  9
$LUNITS
 70
2
  9
$LUPREC
 70
4
  9
$SKETCHINC
 40
1.0
  9
$FILLETRAD
 40
10.0
  9
$AUNITS
 70
0
  9
$AUPREC
 70
2
  9
$MENU
  1
.
  9
$ELEVATION
 40
0.0
  9
$PELEVATION
 40
0.0
  9
$THICKNESS
 40
0.0
  9
$LIMCHECK
 70
0
  9
$CHAMFERA
 40
0.0
  9
$CHAMFERB
 40
0.0
  9
$CHAMFERC
 40
0.0
  9
$CHAMFERD
 40
0.0
  9
$SKPOLY
 70
0
  9
$TDCREATE
 40
2461317.2657523146
  9
$TDUCREATE
 40
2458532.153996898
  9
$TDUPDATE
 40
2461317.2657523146
  9
$TDUUPDATE
 40
2458532.1544311
  9
$TDINDWG
 40
0.0
  9
$TDUSRTIMER
 40
0.0
  9
$USRTIMER
 70
1
  9
$ANGBASE
 50
0.0
  9
$ANGDIR
 70
0
  9
$PDMODE
 70
0
  9
$PDSIZE
 40
0.0
  9
$PLINEWID
 40
0.0
  9
$SPLFRAME
 70
0
  9
$SPLINETYPE
 70
6
  9
$SPLINESEGS
 70
8
  9
$HANDSEED
  5
F2
  9
$SURFTAB1
 70
6
  9
$SURFTAB2
 70
6
  9
$SURFTYPE
 70
6
  9
$SURFU
 70
6
  9
$SURFV
 70
6
  9
$UCSBASE
  2

  9
$UCSNAME
  2

  9
$UCSORG
 10
0.0
 20
0.0
 30
0.0
  9
$UCSXDIR
 10
1.0
 20
0.0
 30
0.0
  9
$UCSYDIR
 10
0.0
 20
1.0
 30
0.0
  9
$UCSORTHOREF
  2

  9
$UCSORTHOVIEW
 70
0
  9
$UCSORGTOP
 10
0.0
 20
0.0
 30
0.0
  9
$UCSORGBOTTOM
 10
0.0
 20
0.0
 30
0.0
  9
$UCSORGLEFT
 10
0.0
 20
0.0
 30
0.0
  9
$UCSORGRIGHT
 10
0.0
 20
0.0
 30
0.0
  9
$UCSORGFRONT
 10
0.0
 20
0.0
 30
0.0
  9
$UCSORGBACK
 10
0.0
 20
0.0
 30
0.0
  9
$PUCSBASE
  2

  9
$PUCSNAME
  2

  9
$PUCSORG
 10
0.0
 20
0.0
 30
0.0
  9
$PUCSXDIR
 10
1.0
 20
0.0
 30
0.0
  9
$PUCSYDIR
 10
0.0
 20
1.0
 30
0.0
  9
$PUCSORTHOREF
  2

  9
$PUCSORTHOVIEW
 70
0
  9
$PUCSORGTOP
 10
0.0
 20
0.0
 30
0.0
  9
$PUCSORGBOTTOM
 10
0.0
 20
0.0
 30
0.0
  9
$PUCSORGLEFT
 10
0.0
 20
0.0
 30
0.0
  9
$PUCSORGRIGHT
 10
0.0
 20
0.0
 30
0.0
  9
$PUCSORGFRONT
 10
0.0
 20
0.0
 30
0.0
  9
$PUCSORGBACK
 10
0.0
 20
0.0
 30
0.0
  9
$USERI1
 70
0
  9
$USERI2
 70
0
  9
$USERI3
 70
0
  9
$USERI4
 70
0
  9
$USERI5
 70
0
  9
$USERR1
 40
0.0
  9
$USERR2
 40
0.0
  9
$USERR3
 40
0.0
  9
$USERR4
 40
0.0
  9
$USERR5
 40
0.0
  9
$WORLDVIEW
 70
1
  9
$SHADEDGE
 70
3
  9
$SHADEDIF
 70
70
  9
$TILEMODE
 70
1
  9
$MAXACTVP
 70
64
  9
$PINSBASE
 10
0.0
 20
0.0
 30
0.0
  9
$PLIMCHECK
 70
0
  9
$PEXTMIN
 10
1e+20
 20
1e+20
 30
1e+20
  9
$PEXTMAX
 10
-1e+20
 20
-1e+20
 30
-1e+20
  9
$PLIMMIN
 10
0.0
 20
0.0
  9
$PLIMMAX
 10
420.0
 20
297.0
  9
$UNITMODE
 70
0
  9
$VISRETAIN
 70
1
  9
$PLINEGEN
 70
0
  9
$PSLTSCALE
 70
1
  9
$TREEDEPTH
 70
3020
  9
$CMLSTYLE
  2
Standard
  9
$CMLJUST
 70
0
  9
$CMLSCALE
 40
20.0
  9
$PROXYGRAPHICS
 70
1
  9
$MEASUREMENT
 70
1
  9
$CELWEIGHT
370
-1
  9
$ENDCAPS
280
0
  9
$JOINSTYLE
280
0
  9
$LWDISPLAY
290
0
  9
$INSUNITS
 70
4
  9
$HYPERLINKBASE
  1

  9
$STYLESHEET
  1

  9
$XEDIT
290
1
  9
$CEPSNTYPE
380
0
  9
$PSTYLEMODE
290
1
  9
$FINGERPRINTGUID
  2
{91827A38-5936-43E0-8849-E7F26A1BBE87}
  9
$VERSIONGUID
  2
{E3AB9543-E933-43E2-91E2-20EE6A75B48A}
  9
$EXTNAMES
290
1
  9
$PSVPSCALE
 40
0.0
  9
$OLESTARTUP
290
0
  9
$SORTENTS
280
127
  9
$INDEXCTL
280
0
  9
$HIDETEXT
280
1
  9
$XCLIPFRAME
280
1
  9
$HALOGAP
280
0
  9
$OBSCOLOR
 70
257
  9
$OBSLTYPE
280
0
  9
$INTERSECTIONDISPLAY
280
0
  9
$INTERSECTIONCOLOR
 70
257
  9
$DIMASSOC
280
2
  9
$PROJECTNAME
  1

  9
$CAMERADISPLAY
290
0
  9
$LENSLENGTH
 40
50.0
  9
$CAMERAHEIGHT
 40
0.0
  9
$STEPSPERSEC
 40
24.0
  9
$STEPSIZE
 40
100.0
  9
$3DDWFPREC
 40
2.0
  9
$PSOLWIDTH
 40
0.005
  9
$PSOLHEIGHT
 40
0.08
  9
$LOFTANG1
 40
1.570796326795
  9
$LOFTANG2
 40
1.570796326795
  9
$LOFTMAG1
 40
0.0
  9
$LOFTMAG2
 40
0.0
  9
$LOFTPARAM
 70
7
  9
$LOFTNORMALS
280
1
  9
$LATITUDE
 40
37.795
  9
$LONGITUDE
 40
-122.394
  9
$NORTHDIRECTION
 40
0.0
  9
$TIMEZONE
 70
-8000
  9
$LIGHTGLYPHDISPLAY
280
1
  9
$TILEMODELIGHTSYNCH
280
1
  9
$CMATERIAL
347
20
  9
$SOLIDHIST
280
0
  9
$SHOWHIST
280
1
  9
$DWFFRAME
280
2
  9
$DGNFRAME
280
2
  9
$REALWORLDSCALE
290
1
  9
$INTERFERECOLOR
 62
256
  9
$CSHADOW
280
0
  9
$SHADOWPLANELOCATION
 40
0.0
  0
ENDSEC
  0
SECTION
  2
CLASSES
  0
CLASS
  1
ACDBDICTIONARYWDFLT
  2
AcDbDictionaryWithDefault
  3
ObjectDBX Classes
 90
0
 91
0
280
0
281
0
  0
CLASS
  1
SUN
  2
AcDbSun
  3
SCENEOE
 90
1153
 91
0
280
0
281
0
  0
CLASS
  1
VISUALSTYLE
  2
AcDbVisualStyle
  3
ObjectDBX Classes
 90
4095
 91
0
280
0
281
0
  0
CLASS
  1
MATERIAL
  2
AcDbMaterial
  3
ObjectDBX Classes
 90
1153
 91
0
280
0
281
0
  0
CLASS
  1
SCALE
  2
AcDbScale
  3
ObjectDBX Classes
 90
1153
 91
0
280
0
281
0
  0
CLASS
  1
TABLESTYLE
  2
AcDbTableStyle
  3
ObjectDBX Classes
 90
4095
 91
0
280
0
281
0
  0
CLASS
  1
MLEADERSTYLE
  2
AcDbMLeaderStyle
  3
ACDB_MLEADERSTYLE_CLASS
 90
4095
 91
0
280
0
281
0
  0
CLASS
  1
DICTIONARYVAR
  2
AcDbDictionaryVar
  3
ObjectDBX Classes
 90
0
 91
0
280
0
281
0
  0
CLASS
  1
CELLSTYLEMAP
  2
AcDbCellStyleMap
  3
ObjectDBX Classes
 90
1152
 91
0
280
0
281
0
  0
CLASS
  1
MENTALRAYRENDERSETTINGS
  2
AcDbMentalRayRenderSettings
  3
SCENEOE
 90
1024
 91
0
280
0
281
0
  0
CLASS
  1
ACDBDETAILVIEWSTYLE
  2
AcDbDetailViewStyle
  3
ObjectDBX Classes
 90
1025
 91
0
280
0
281
0
  0
CLASS
  1
ACDBSECTIONVIEWSTYLE
  2
AcDbSectionViewStyle
  3
ObjectDBX Classes
 90
1025
 91
0
280
0
281
0
  0
CLASS
  1
RASTERVARIABLES
  2
AcDbRasterVariables
  3
ISM
 90
0
 91
0
280
0
281
0
  0
CLASS
  1
ACDBPLACEHOLDER
  2
AcDbPlaceHolder
  3
ObjectDBX Classes
 90
0
 91
0
280
0
281
0
  0
CLASS
  1
LAYOUT
  2
AcDbLayout
  3
ObjectDBX Classes
 90
0
 91
0
280
0
281
0
  0
ENDSEC
  0
SECTION
  2
TABLES
  0
TABLE
  2
VPORT
  5
8
330
0
100
AcDbSymbolTable
 70
1
  0
VPORT
  5
23
330
8
100
AcDbSymbolTableRecord
100
AcDbViewportTableRecord
  2
*Active
 70
0
 10
0.0
 20
0.0
 11
1.0
 21
1.0
 12
0.0
 22
0.0
 13
0.0
 23
0.0
 14
0.5
 24
0.5
 15
0.5
 25
0.5
 16
0.0
 26
0.0
 36
1.0
 17
0.0
 27
0.0
 37
0.0
 40
1000.0
 41
1.34
 42
50.0
 43
0.0
 44
0.0
 50
0.0
 51
0.0
 71
0
 72
1000
 73
1
 74
3
 75
0
 76
0
 77
0
 78
0
281
0
 65
0
146
0.0
  0
ENDTAB
  0
TABLE
  2
LTYPE
  5
2
330
0
100
AcDbSymbolTable
 70
21
  0
LTYPE
  5
24
330
2
100
AcDbSymbolTableRecord
100
AcDbLinetypeTableRecord
  2
ByBlock
 70
0
  3

 72
65
 73
0
 40
0.0
  0
LTYPE
  5
25
330
2
100
AcDbSymbolTableRecord
100
AcDbLinetypeTableRecord
  2
ByLayer
 70
0
  3

 72
65
 73
0
 40
0.0
  0
LTYPE
  5
26
330
2
100
AcDbSymbolTableRecord
100
AcDbLinetypeTableRecord
  2
Continuous
 70
0
  3

 72
65
 73
0
 40
0.0
  0
LTYPE
  5
2F
330
2
100
AcDbSymbolTableRecord
100
AcDbLinetypeTableRecord
  2
CENTER
 70
0
  3
Center ____ _ ____ _ ____ _ ____ _ ____ _ ____
 72
65
 73
4
 40
5.08
 49
3.175
 74
0
 49
-0.635
 74
0
 49
0.635
 74
0
 49
-0.635
 74
0
  0
LTYPE
  5
30
330
2
100
AcDbSymbolTableRecord
100
AcDbLinetypeTableRecord
  2
CENTERX2
 70
0
  3
Center (2x) ________  __  ________  __  ________
 72
65
 73
4
 40
8.89
 49
6.35
 74
0
 49
-0.635
 74
0
 49
1.27
 74
0
 49
-0.635
 74
0
  0
LTYPE
  5
31
330
2
100
AcDbSymbolTableRecord
100
AcDbLinetypeTableRecord
  2
CENTER2
 70
0
  3
Center (.5x) ____ _ ____ _ ____ _ ____ _ ____
 72
65
 73
4
 40
2.54
 49
1.587
 74
0
 49
-0.318
 74
0
 49
0.318
 74
0
 49
-0.318
 74
0
  0
LTYPE
  5
32
330
2
100
AcDbSymbolTableRecord
100
AcDbLinetypeTableRecord
  2
DASHED
 70
0
  3
Dashed __ __ __ __ __ __ __ __ __ __ __ __ __ _
 72
65
 73
2
 40
1.524
 49
1.27
 74
0
 49
-0.254
 74
0
  0
LTYPE
  5
33
330
2
100
AcDbSymbolTableRecord
100
AcDbLinetypeTableRecord
  2
DASHEDX2
 70
0
  3
Dashed (2x) ____  ____  ____  ____  ____  ____
 72
65
 73
2
 40
3.048
 49
2.54
 74
0
 49
-0.508
 74
0
  0
LTYPE
  5
34
330
2
100
AcDbSymbolTableRecord
100
AcDbLinetypeTableRecord
  2
DASHED2
 70
0
  3
Dashed (.5x) _ _ _ _ _ _ _ _ _ _ _ _ _ _
 72
65
 73
2
 40
0.762
 49
0.635
 74
0
 49
-0.127
 74
0
  0
LTYPE
  5
35
330
2
100
AcDbSymbolTableRecord
100
AcDbLinetypeTableRecord
  2
PHANTOM
 70
0
  3
Phantom ______  __  __  ______  __  __  ______
 72
65
 73
6
 40
6.35
 49
3.175
 74
0
 49
-0.635
 74
0
 49
0.635
 74
0
 49
-0.635
 74
0
 49
0.635
 74
0
 49
-0.635
 74
0
  0
LTYPE
  5
36
330
2
100
AcDbSymbolTableRecord
100
AcDbLinetypeTableRecord
  2
PHANTOMX2
 70
0
  3
Phantom (2x)____________    ____    ____    ____________
 72
65
 73
6
 40
10.795
 49
6.35
 74
0
 49
-0.635
 74
0
 49
1.27
 74
0
 49
-0.635
 74
0
 49
1.27
 74
0
 49
-0.635
 74
0
  0
LTYPE
  5
37
330
2
100
AcDbSymbolTableRecord
100
AcDbLinetypeTableRecord
  2
PHANTOM2
 70
0
  3
Phantom (.5x) ___ _ _ ___ _ _ ___ _ _ ___ _ _ ___
 72
65
 73
6
 40
3.175
 49
1.587
 74
0
 49
-0.318
 74
0
 49
0.318
 74
0
 49
-0.318
 74
0
 49
0.318
 74
0
 49
-0.318
 74
0
  0
LTYPE
  5
38
330
2
100
AcDbSymbolTableRecord
100
AcDbLinetypeTableRecord
  2
DASHDOT
 70
0
  3
Dash dot __ . __ . __ . __ . __ . __ . __ . __
 72
65
 73
4
 40
3.556
 49
2.54
 74
0
 49
-0.508
 74
0
 49
0.0
 74
0
 49
-0.508
 74
0
  0
LTYPE
  5
39
330
2
100
AcDbSymbolTableRecord
100
AcDbLinetypeTableRecord
  2
DASHDOTX2
 70
0
  3
Dash dot (2x) ____  .  ____  .  ____  .  ____
 72
65
 73
4
 40
6.096
 49
5.08
 74
0
 49
-0.508
 74
0
 49
0.0
 74
0
 49
-0.508
 74
0
  0
LTYPE
  5
3A
330
2
100
AcDbSymbolTableRecord
100
AcDbLinetypeTableRecord
  2
DASHDOT2
 70
0
  3
Dash dot (.5x) _ . _ . _ . _ . _ . _ . _ . _
 72
65
 73
4
 40
1.778
 49
1.27
 74
0
 49
-0.254
 74
0
 49
0.0
 74
0
 49
-0.254
 74
0
  0
LTYPE
  5
3B
330
2
100
AcDbSymbolTableRecord
100
AcDbLinetypeTableRecord
  2
DOT
 70
0
  3
Dot .  .  .  .  .  .  .  .  .  .  .  .  .  .  .  .
 72
65
 73
2
 40
0.508
 49
0.0
 74
0
 49
-0.508
 74
0
  0
LTYPE
  5
3C
330
2
100
AcDbSymbolTableRecord
100
AcDbLinetypeTableRecord
  2
DOTX2
 70
0
  3
Dot (2x) .    .    .    .    .    .    .    . 
 72
65
 73
2
 40
1.016
 49
0.0
 74
0
 49
-1.016
 74
0
  0
LTYPE
  5
3D
330
2
100
AcDbSymbolTableRecord
100
AcDbLinetypeTableRecord
  2
DOT2
 70
0
  3
Dot (.5) . . . . . . . . . . . . . . . . . . . 
 72
65
 73
2
 40
0.254
 49
0.0
 74
0
 49
-0.254
 74
0
  0
LTYPE
  5
3E
330
2
100
AcDbSymbolTableRecord
100
AcDbLinetypeTableRecord
  2
DIVIDE
 70
0
  3
Divide __ . . __ . . __ . . __ . . __ . . __
 72
65
 73
6
 40
4.064
 49
2.54
 74
0
 49
-0.508
 74
0
 49
0.0
 74
0
 49
-0.508
 74
0
 49
0.0
 74
0
 49
-0.508
 74
0
  0
LTYPE
  5
3F
330
2
100
AcDbSymbolTableRecord
100
AcDbLinetypeTableRecord
  2
DIVIDEX2
 70
0
  3
Divide (2x) ____  . .  ____  . .  ____  . .  ____
 72
65
 73
6
 40
6.604
 49
5.08
 74
0
 49
-0.508
 74
0
 49
0.0
 74
0
 49
-0.508
 74
0
 49
0.0
 74
0
 49
-0.508
 74
0
  0
LTYPE
  5
40
330
2
100
AcDbSymbolTableRecord
100
AcDbLinetypeTableRecord
  2
DIVIDE2
 70
0
  3
Divide(.5x) _ . _ . _ . _ . _ . _ . _ . _
 72
65
 73
6
 40
2.032
 49
1.27
 74
0
 49
-0.254
 74
0
 49
0.0
 74
0
 49
-0.254
 74
0
 49
0.0
 74
0
 49
-0.254
 74
0
  0
ENDTAB
  0
TABLE
  2
LAYER
  5
1
330
0
100
AcDbSymbolTable
 70
5
  0
LAYER
  5
27
330
1
100
AcDbSymbolTableRecord
100
AcDbLayerTableRecord
  2
0
 70
0
 62
7
  6
Continuous
370
-3
390
13
347
21
  0
LAYER
  5
28
330
1
100
AcDbSymbolTableRecord
100
AcDbLayerTableRecord
  2
Defpoints
 70
0
 62
7
  6
Continuous
290
0
370
-3
390
13
347
21
  0
LAYER
  5
8A
330
1
100
AcDbSymbolTableRecord
100
AcDbLayerTableRecord
  2
COUPE
 70
0
 62
1
  6
Continuous
370
-3
390
13
347
21
  0
LAYER
  5
8B
330
1
100
AcDbSymbolTableRecord
100
AcDbLayerTableRecord
  2
POCHE_KERF_15MM
 70
0
 62
5
  6
Continuous
370
-3
390
13
347
21
  0
LAYER
  5
8C
330
1
100
AcDbSymbolTableRecord
100
AcDbLayerTableRecord
  2
PLANCHE
 70
0
 62
8
  6
Continuous
370
-3
390
13
347
21
  0
ENDTAB
  0
TABLE
  2
STYLE
  5
5
330
0
100
AcDbSymbolTable
 70
26
  0
STYLE
  5
29
330
5
100
AcDbSymbolTableRecord
100
AcDbTextStyleTableRecord
  2
Standard
 70
0
 40
0.0
 41
1.0
 50
0.0
 71
0
 42
2.5
  3
txt
  4

  0
STYLE
  5
41
330
5
100
AcDbSymbolTableRecord
100
AcDbTextStyleTableRecord
  2
OpenSans-Light
 70
0
 40
0.0
 41
1.0
 50
0.0
 71
0
 42
2.5
  3
OpenSans-Light.ttf
  4

  0
STYLE
  5
42
330
5
100
AcDbSymbolTableRecord
100
AcDbTextStyleTableRecord
  2
OpenSans-Light-Italic
 70
0
 40
0.0
 41
1.0
 50
0.0
 71
0
 42
2.5
  3
OpenSans-LightItalic.ttf
  4

  0
STYLE
  5
43
330
5
100
AcDbSymbolTableRecord
100
AcDbTextStyleTableRecord
  2
OpenSans
 70
0
 40
0.0
 41
1.0
 50
0.0
 71
0
 42
2.5
  3
OpenSans-Regular.ttf
  4

  0
STYLE
  5
44
330
5
100
AcDbSymbolTableRecord
100
AcDbTextStyleTableRecord
  2
OpenSans-Italic
 70
0
 40
0.0
 41
1.0
 50
0.0
 71
0
 42
2.5
  3
OpenSans-Italic.ttf
  4

  0
STYLE
  5
45
330
5
100
AcDbSymbolTableRecord
100
AcDbTextStyleTableRecord
  2
OpenSans-SemiBold
 70
0
 40
0.0
 41
1.0
 50
0.0
 71
0
 42
2.5
  3
OpenSans-SemiBold.ttf
  4

  0
STYLE
  5
46
330
5
100
AcDbSymbolTableRecord
100
AcDbTextStyleTableRecord
  2
OpenSans-SemiBoldItalic
 70
0
 40
0.0
 41
1.0
 50
0.0
 71
0
 42
2.5
  3
OpenSans-SemiBoldItalic.ttf
  4

  0
STYLE
  5
47
330
5
100
AcDbSymbolTableRecord
100
AcDbTextStyleTableRecord
  2
OpenSans-Bold
 70
0
 40
0.0
 41
1.0
 50
0.0
 71
0
 42
2.5
  3
OpenSans-Bold.ttf
  4

  0
STYLE
  5
48
330
5
100
AcDbSymbolTableRecord
100
AcDbTextStyleTableRecord
  2
OpenSans-BoldItalic
 70
0
 40
0.0
 41
1.0
 50
0.0
 71
0
 42
2.5
  3
OpenSans-BoldItalic.ttf
  4

  0
STYLE
  5
49
330
5
100
AcDbSymbolTableRecord
100
AcDbTextStyleTableRecord
  2
OpenSans-ExtraBold
 70
0
 40
0.0
 41
1.0
 50
0.0
 71
0
 42
2.5
  3
OpenSans-ExtraBold.ttf
  4

  0
STYLE
  5
4A
330
5
100
AcDbSymbolTableRecord
100
AcDbTextStyleTableRecord
  2
OpenSans-ExtraBoldItalic
 70
0
 40
0.0
 41
1.0
 50
0.0
 71
0
 42
2.5
  3
OpenSans-ExtraBoldItalic.ttf
  4

  0
STYLE
  5
4B
330
5
100
AcDbSymbolTableRecord
100
AcDbTextStyleTableRecord
  2
OpenSansCondensed-Bold
 70
0
 40
0.0
 41
1.0
 50
0.0
 71
0
 42
2.5
  3
OpenSansCondensed-Bold.ttf
  4

  0
STYLE
  5
4C
330
5
100
AcDbSymbolTableRecord
100
AcDbTextStyleTableRecord
  2
OpenSansCondensed-Light
 70
0
 40
0.0
 41
1.0
 50
0.0
 71
0
 42
2.5
  3
OpenSansCondensed-Light.ttf
  4

  0
STYLE
  5
4D
330
5
100
AcDbSymbolTableRecord
100
AcDbTextStyleTableRecord
  2
OpenSansCondensed-Italic
 70
0
 40
0.0
 41
1.0
 50
0.0
 71
0
 42
2.5
  3
OpenSansCondensed-LightItalic.ttf
  4

  0
STYLE
  5
4E
330
5
100
AcDbSymbolTableRecord
100
AcDbTextStyleTableRecord
  2
LiberationSans
 70
0
 40
0.0
 41
1.0
 50
0.0
 71
0
 42
2.5
  3
LiberationSans-Regular.ttf
  4

  0
STYLE
  5
4F
330
5
100
AcDbSymbolTableRecord
100
AcDbTextStyleTableRecord
  2
LiberationSans-Bold
 70
0
 40
0.0
 41
1.0
 50
0.0
 71
0
 42
2.5
  3
LiberationSans-Bold.ttf
  4

  0
STYLE
  5
50
330
5
100
AcDbSymbolTableRecord
100
AcDbTextStyleTableRecord
  2
LiberationSans-BoldItalic
 70
0
 40
0.0
 41
1.0
 50
0.0
 71
0
 42
2.5
  3
LiberationSans-BoldItalic.ttf
  4

  0
STYLE
  5
51
330
5
100
AcDbSymbolTableRecord
100
AcDbTextStyleTableRecord
  2
LiberationSans-Italic
 70
0
 40
0.0
 41
1.0
 50
0.0
 71
0
 42
2.5
  3
LiberationSans-Italic.ttf
  4

  0
STYLE
  5
52
330
5
100
AcDbSymbolTableRecord
100
AcDbTextStyleTableRecord
  2
LiberationSerif
 70
0
 40
0.0
 41
1.0
 50
0.0
 71
0
 42
2.5
  3
LiberationSerif-Regular.ttf
  4

  0
STYLE
  5
53
330
5
100
AcDbSymbolTableRecord
100
AcDbTextStyleTableRecord
  2
LiberationSerif-Bold
 70
0
 40
0.0
 41
1.0
 50
0.0
 71
0
 42
2.5
  3
LiberationSerif-Bold.ttf
  4

  0
STYLE
  5
54
330
5
100
AcDbSymbolTableRecord
100
AcDbTextStyleTableRecord
  2
LiberationSerif-BoldItalic
 70
0
 40
0.0
 41
1.0
 50
0.0
 71
0
 42
2.5
  3
LiberationSerif-BoldItalic.ttf
  4

  0
STYLE
  5
55
330
5
100
AcDbSymbolTableRecord
100
AcDbTextStyleTableRecord
  2
LiberationSerif-Italic
 70
0
 40
0.0
 41
1.0
 50
0.0
 71
0
 42
2.5
  3
LiberationSerif-Italic.ttf
  4

  0
STYLE
  5
56
330
5
100
AcDbSymbolTableRecord
100
AcDbTextStyleTableRecord
  2
LiberationMono
 70
0
 40
0.0
 41
1.0
 50
0.0
 71
0
 42
2.5
  3
LiberationMono-Regular.ttf
  4

  0
STYLE
  5
57
330
5
100
AcDbSymbolTableRecord
100
AcDbTextStyleTableRecord
  2
LiberationMono-Bold
 70
0
 40
0.0
 41
1.0
 50
0.0
 71
0
 42
2.5
  3
LiberationMono-Bold.ttf
  4

  0
STYLE
  5
58
330
5
100
AcDbSymbolTableRecord
100
AcDbTextStyleTableRecord
  2
LiberationMono-BoldItalic
 70
0
 40
0.0
 41
1.0
 50
0.0
 71
0
 42
2.5
  3
LiberationMono-BoldItalic.ttf
  4

  0
STYLE
  5
59
330
5
100
AcDbSymbolTableRecord
100
AcDbTextStyleTableRecord
  2
LiberationMono-Italic
 70
0
 40
0.0
 41
1.0
 50
0.0
 71
0
 42
2.5
  3
LiberationMono-Italic.ttf
  4

  0
ENDTAB
  0
TABLE
  2
VIEW
  5
7
330
0
100
AcDbSymbolTable
 70
0
  0
ENDTAB
  0
TABLE
  2
UCS
  5
6
330
0
100
AcDbSymbolTable
 70
0
  0
ENDTAB
  0
TABLE
  2
APPID
  5
3
330
0
100
AcDbSymbolTable
 70
3
  0
APPID
  5
2A
330
3
100
AcDbSymbolTableRecord
100
AcDbRegAppTableRecord
  2
ACAD
 70
0
  0
APPID
  5
EF
330
3
100
AcDbSymbolTableRecord
100
AcDbRegAppTableRecord
  2
HATCHBACKGROUNDCOLOR
 70
0
  0
APPID
  5
F0
330
3
100
AcDbSymbolTableRecord
100
AcDbRegAppTableRecord
  2
EZDXF
 70
0
  0
ENDTAB
  0
TABLE
  2
DIMSTYLE
  5
4
330
0
100
AcDbSymbolTable
 70
12
100
AcDbDimStyleTable
  0
DIMSTYLE
105
2B
330
4
100
AcDbSymbolTableRecord
100
AcDbDimStyleTableRecord
  2
Standard
 70
0
 40
1.0
 41
2.5
 42
0.625
 43
3.75
 44
1.25
 45
0.0
 46
0.0
 47
0.0
 48
0.0
 49
2.5
140
2.5
141
2.5
142
0.0
143
0.03937007874
144
1.0
145
0.0
146
1.0
147
0.625
148
0.0
 69
0
 70
0
 71
0
 72
0
 73
0
 74
0
 75
0
 76
0
 77
1
 78
8
 79
3
170
0
171
3
172
1
173
0
174
0
175
0
176
0
177
0
178
0
179
2
271
2
272
2
273
2
274
3
275
0
276
0
277
2
278
44
279
0
280
0
281
0
282
0
283
0
284
8
285
0
286
0
288
0
289
3
290
0
371
-2
372
-2
  0
DIMSTYLE
105
73
330
4
100
AcDbSymbolTableRecord
100
AcDbDimStyleTableRecord
  2
EZDXF
 70
0
 40
1.0
 41
0.175
 42
0.125
 43
3.75
 44
0.375
 45
0.0
 46
0.0
 47
0.0
 48
0.0
 49
2.5
140
0.25
141
2.5
142
0.0
143
0.03937007874
144
100.0
145
0.0
146
0.5
147
0.1
148
0.0
 69
0
 70
0
 71
0
 72
0
 73
0
 74
0
 75
0
 76
0
 77
1
 78
12
 79
3
170
0
171
3
172
1
173
0
174
0
175
0
176
0
177
0
178
0
179
2
271
2
272
2
273
2
274
3
275
0
276
0
277
2
278
46
279
2
280
0
281
0
282
0
283
0
284
8
285
0
286
0
288
1
289
3
290
0
340
4C
342
74
371
-2
372
-2
  0
DIMSTYLE
105
7C
330
4
100
AcDbSymbolTableRecord
100
AcDbDimStyleTableRecord
  2
EZ_M_100_H25_CM
 70
0
 40
1.0
 41
0.25
 42
0.125
 43
3.75
 44
0.375
 45
0.0
 46
0.0
 47
0.0
 48
0.0
 49
2.5
140
0.25
141
2.5
142
0.125
143
0.03937007874
144
100.0
145
0.0
146
0.5
147
0.1
148
0.0
 69
0
 70
0
 71
0
 72
0
 73
0
 74
0
 75
0
 76
0
 77
1
 78
12
 79
3
170
0
171
3
172
1
173
0
174
0
175
0
176
0
177
0
178
0
179
2
271
2
272
2
273
2
274
3
275
0
276
0
277
2
278
46
279
2
280
0
281
0
282
0
283
0
284
8
285
0
286
0
288
1
289
3
290
0
340
4C
371
-2
372
-2
  0
DIMSTYLE
105
7D
330
4
100
AcDbSymbolTableRecord
100
AcDbDimStyleTableRecord
  2
EZ_M_50_H25_CM
 70
0
 40
1.0
 41
0.125
 42
0.0625
 43
3.75
 44
0.1875
 45
0.0
 46
0.0
 47
0.0
 48
0.0
 49
2.5
140
0.125
141
2.5
142
0.0625
143
0.03937007874
144
100.0
145
0.0
146
0.5
147
0.05
148
0.0
 69
0
 70
0
 71
0
 72
0
 73
0
 74
0
 75
0
 76
0
 77
1
 78
12
 79
3
170
0
171
3
172
1
173
0
174
0
175
0
176
0
177
0
178
0
179
2
271
2
272
2
273
2
274
3
275
0
276
0
277
2
278
46
279
2
280
0
281
0
282
0
283
0
284
8
285
0
286
0
288
1
289
3
290
0
340
4C
371
-2
372
-2
  0
DIMSTYLE
105
7E
330
4
100
AcDbSymbolTableRecord
100
AcDbDimStyleTableRecord
  2
EZ_M_25_H25_CM
 70
0
 40
1.0
 41
0.0625
 42
0.03125
 43
3.75
 44
0.09375
 45
0.0
 46
0.0
 47
0.0
 48
0.0
 49
2.5
140
0.0625
141
2.5
142
0.03125
143
0.03937007874
144
100.0
145
0.0
146
0.5
147
0.025
148
0.0
 69
0
 70
0
 71
0
 72
0
 73
0
 74
0
 75
0
 76
0
 77
1
 78
12
 79
3
170
0
171
3
172
1
173
0
174
0
175
0
176
0
177
0
178
0
179
2
271
2
272
2
273
2
274
3
275
0
276
0
277
2
278
46
279
2
280
0
281
0
282
0
283
0
284
8
285
0
286
0
288
1
289
3
290
0
340
4C
371
-2
372
-2
  0
DIMSTYLE
105
7F
330
4
100
AcDbSymbolTableRecord
100
AcDbDimStyleTableRecord
  2
EZ_M_20_H25_CM
 70
0
 40
1.0
 41
0.05
 42
0.025
 43
3.75
 44
0.07500000000000001
 45
0.0
 46
0.0
 47
0.0
 48
0.0
 49
2.5
140
0.05
141
2.5
142
0.025
143
0.03937007874
144
100.0
145
0.0
146
0.5
147
0.020000000000000004
148
0.0
 69
0
 70
0
 71
0
 72
0
 73
0
 74
0
 75
0
 76
0
 77
1
 78
12
 79
3
170
0
171
3
172
1
173
0
174
0
175
0
176
0
177
0
178
0
179
2
271
2
272
2
273
2
274
3
275
0
276
0
277
2
278
46
279
2
280
0
281
0
282
0
283
0
284
8
285
0
286
0
288
1
289
3
290
0
340
4C
371
-2
372
-2
  0
DIMSTYLE
105
80
330
4
100
AcDbSymbolTableRecord
100
AcDbDimStyleTableRecord
  2
EZ_M_10_H25_CM
 70
0
 40
1.0
 41
0.025
 42
0.0125
 43
3.75
 44
0.037500000000000006
 45
0.0
 46
0.0
 47
0.0
 48
0.0
 49
2.5
140
0.025
141
2.5
142
0.0125
143
0.03937007874
144
100.0
145
0.0
146
0.5
147
0.010000000000000002
148
0.0
 69
0
 70
0
 71
0
 72
0
 73
0
 74
0
 75
0
 76
0
 77
1
 78
12
 79
3
170
0
171
3
172
1
173
0
174
0
175
0
176
0
177
0
178
0
179
2
271
2
272
2
273
2
274
3
275
0
276
0
277
2
278
46
279
2
280
0
281
0
282
0
283
0
284
8
285
0
286
0
288
1
289
3
290
0
340
4C
371
-2
372
-2
  0
DIMSTYLE
105
81
330
4
100
AcDbSymbolTableRecord
100
AcDbDimStyleTableRecord
  2
EZ_M_5_H25_CM
 70
0
 40
1.0
 41
0.0125
 42
0.00625
 43
3.75
 44
0.018750000000000003
 45
0.0
 46
0.0
 47
0.0
 48
0.0
 49
2.5
140
0.0125
141
2.5
142
0.00625
143
0.03937007874
144
100.0
145
0.0
146
0.5
147
0.005000000000000001
148
0.0
 69
0
 70
0
 71
0
 72
0
 73
0
 74
0
 75
0
 76
0
 77
1
 78
12
 79
3
170
0
171
3
172
1
173
0
174
0
175
0
176
0
177
0
178
0
179
2
271
2
272
2
273
2
274
3
275
0
276
0
277
2
278
46
279
2
280
0
281
0
282
0
283
0
284
8
285
0
286
0
288
1
289
3
290
0
340
4C
371
-2
372
-2
  0
DIMSTYLE
105
82
330
4
100
AcDbSymbolTableRecord
100
AcDbDimStyleTableRecord
  2
EZ_M_1_H25_CM
 70
0
 40
1.0
 41
0.0025
 42
0.00125
 43
3.75
 44
0.00375
 45
0.0
 46
0.0
 47
0.0
 48
0.0
 49
2.5
140
0.0025
141
2.5
142
0.00125
143
0.03937007874
144
100.0
145
0.0
146
0.5
147
0.001
148
0.0
 69
0
 70
0
 71
0
 72
0
 73
0
 74
0
 75
0
 76
0
 77
1
 78
12
 79
3
170
0
171
3
172
1
173
0
174
0
175
0
176
0
177
0
178
0
179
2
271
2
272
2
273
2
274
3
275
0
276
0
277
2
278
46
279
2
280
0
281
0
282
0
283
0
284
8
285
0
286
0
288
1
289
3
290
0
340
4C
371
-2
372
-2
  0
DIMSTYLE
105
83
330
4
100
AcDbSymbolTableRecord
100
AcDbDimStyleTableRecord
  2
EZ_RADIUS
 70
0
 40
1.0
 41
0.25
 42
0.125
 43
3.75
 44
0.375
 45
0.0
 46
0.0
 47
0.0
 48
0.0
 49
2.5
140
0.25
141
0.0
142
0.0
143
0.03937007874
144
100.0
145
0.0
146
0.5
147
0.1
148
0.0
 69
0
 70
0
 71
0
 72
0
 73
0
 74
0
 75
0
 76
0
 77
1
 78
12
 79
3
170
0
171
3
172
0
173
0
174
0
175
0
176
0
177
0
178
0
179
2
271
2
272
2
273
2
274
3
275
0
276
0
277
2
278
46
279
1
280
0
281
0
282
0
283
0
284
8
285
0
286
0
288
1
289
3
290
0
340
4C
342
84
371
-2
372
-2
  0
DIMSTYLE
105
88
330
4
100
AcDbSymbolTableRecord
100
AcDbDimStyleTableRecord
  2
EZ_RADIUS_INSIDE
 70
0
 40
1.0
 41
0.25
 42
0.125
 43
3.75
 44
0.375
 45
0.0
 46
0.0
 47
0.0
 48
0.0
 49
2.5
140
0.25
141
0.0
142
0.0
143
0.03937007874
144
100.0
145
0.0
146
0.5
147
0.1
148
0.0
 69
0
 70
0
 71
0
 72
0
 73
0
 74
0
 75
0
 76
0
 77
0
 78
12
 79
3
170
0
171
3
172
0
173
0
174
1
175
0
176
0
177
0
178
0
179
2
271
2
272
2
273
2
274
3
275
0
276
0
277
2
278
46
279
0
280
0
281
0
282
0
283
0
284
8
285
0
286
0
288
1
289
0
290
0
340
4C
342
84
371
-2
372
-2
  0
DIMSTYLE
105
89
330
4
100
AcDbSymbolTableRecord
100
AcDbDimStyleTableRecord
  2
EZ_CURVED
 70
0
 40
1.0
 41
0.25
 42
0.125
 43
3.75
 44
0.375
 45
0.0
 46
0.0
 47
0.0
 48
0.0
 49
2.5
140
0.25
141
2.5
142
0.0
143
0.03937007874
144
100.0
145
0.0
146
0.5
147
0.1
148
0.0
 69
0
 70
0
 71
0
 72
0
 73
0
 74
0
 75
0
 76
0
 77
1
 78
12
 79
2
 90
2
170
0
171
3
172
1
173
0
174
0
175
0
176
0
177
0
178
0
179
2
271
2
272
2
273
2
274
3
275
0
276
0
277
2
278
46
279
2
280
0
281
0
282
0
283
0
284
8
285
0
286
0
288
1
289
3
290
0
340
4C
371
-2
372
-2
  0
ENDTAB
  0
TABLE
  2
BLOCK_RECORD
  5
9
330
0
100
AcDbSymbolTable
 70
5
  0
BLOCK_RECORD
  5
17
330
9
100
AcDbSymbolTableRecord
100
AcDbBlockTableRecord
  2
*Model_Space
340
1A
 70
0
280
1
281
0
  0
BLOCK_RECORD
  5
1B
330
9
100
AcDbSymbolTableRecord
100
AcDbBlockTableRecord
  2
*Paper_Space
340
1E
 70
0
280
1
281
0
  0
BLOCK_RECORD
  5
74
330
9
100
AcDbSymbolTableRecord
100
AcDbBlockTableRecord
  2
_ARCHTICK
340
0
 70
0
280
1
281
0
  0
BLOCK_RECORD
  5
78
330
9
100
AcDbSymbolTableRecord
100
AcDbBlockTableRecord
  2
_CLOSEDFILLED
340
0
 70
0
280
1
281
0
  0
BLOCK_RECORD
  5
84
330
9
100
AcDbSymbolTableRecord
100
AcDbBlockTableRecord
  2
_CLOSEDBLANK
340
0
 70
0
280
1
281
0
  0
ENDTAB
  0
ENDSEC
  0
SECTION
  2
BLOCKS
  0
BLOCK
  5
18
330
17
100
AcDbEntity
  8
0
100
AcDbBlockBegin
  2
*Model_Space
 70
0
 10
0.0
 20
0.0
 30
0.0
  3
*Model_Space
  1

  0
ENDBLK
  5
19
330
17
100
AcDbEntity
  8
0
100
AcDbBlockEnd
  0
BLOCK
  5
1C
330
1B
100
AcDbEntity
  8
0
100
AcDbBlockBegin
  2
*Paper_Space
 70
0
 10
0.0
 20
0.0
 30
0.0
  3
*Paper_Space
  1

  0
ENDBLK
  5
1D
330
1B
100
AcDbEntity
  8
0
100
AcDbBlockEnd
  0
BLOCK
  5
75
330
74
100
AcDbEntity
  8
0
100
AcDbBlockBegin
  2
_ARCHTICK
 70
0
 10
0.0
 20
0.0
 30
0.0
  3
_ARCHTICK
  1

  0
LWPOLYLINE
  5
77
330
74
100
AcDbEntity
  8
0
  6
BYBLOCK
 62
0
100
AcDbPolyline
 90
2
 70
0
 43
0.15
 10
-0.5
 20
-0.5
 10
0.5
 20
0.5
  0
ENDBLK
  5
76
330
74
100
AcDbEntity
  8
0
100
AcDbBlockEnd
  0
BLOCK
  5
79
330
78
100
AcDbEntity
  8
0
100
AcDbBlockBegin
  2
_CLOSEDFILLED
 70
0
 10
0.0
 20
0.0
 30
0.0
  3
_CLOSEDFILLED
  1

  0
SOLID
  5
7B
330
78
100
AcDbEntity
  8
0
  6
BYBLOCK
 62
0
100
AcDbTrace
 10
-1.0
 20
0.16439898372402537
 30
0.0
 11
0.0
 21
0.0
 31
0.0
 12
-1.0
 22
-0.16439898372402537
 32
0.0
 13
-1.0
 23
-0.16439898372402537
 33
0.0
  0
ENDBLK
  5
7A
330
78
100
AcDbEntity
  8
0
100
AcDbBlockEnd
  0
BLOCK
  5
85
330
84
100
AcDbEntity
  8
0
100
AcDbBlockBegin
  2
_CLOSEDBLANK
 70
0
 10
0.0
 20
0.0
 30
0.0
  3
_CLOSEDBLANK
  1

  0
LWPOLYLINE
  5
87
330
84
100
AcDbEntity
  8
0
  6
BYBLOCK
 62
0
100
AcDbPolyline
 90
3
 70
1
 10
-1.0
 20
0.16439898372402537
 10
0.0
 20
0.0
 10
-1.0
 20
-0.16439898372402537
  0
ENDBLK
  5
86
330
84
100
AcDbEntity
  8
0
100
AcDbBlockEnd
  0
ENDSEC
  0
SECTION
  2
ENTITIES
  0
LWPOLYLINE
  5
8D
330
17
100
AcDbEntity
  8
PLANCHE
100
AcDbPolyline
 90
4
 70
1
 10
0.0
 20
0.0
 10
2440.0
 20
0.0
 10
2440.0
 20
1220.0
 10
0.0
 20
1220.0
  0
LWPOLYLINE
  5
8E
330
17
100
AcDbEntity
  8
COUPE
100
AcDbPolyline
 90
4
 70
1
 10
807.6762893210657
 20
21.1781394492034
 10
1144.825219037117
 20
342.4733295646502
 42
0.4283865023507377
 10
20.99545331694594
 20
342.4733295646502
 10
358.1443830329972
 20
21.1781394492034
 42
-0.4283865023507377
  0
LWPOLYLINE
  5
8F
330
17
100
AcDbEntity
  8
POCHE_KERF_15MM
100
AcDbPolyline
 90
4
 70
1
 10
794.2781235787237
 20
26.168153401508057
 10
798.5558565362865
 20
21.96089767552923
 10
1133.5412323979228
 20
362.55773227641834
 10
1129.2634994403602
 20
366.7649880023973
  0
LWPOLYLINE
  5
90
330
17
100
AcDbEntity
  8
POCHE_KERF_15MM
100
AcDbPolyline
 90
4
 70
1
 10
787.0715600245136
 20
32.895915622179444
 10
791.483253086193
 20
28.82934897087156
 10
1115.2668419332535
 20
380.0922040731795
 10
1110.8551488715739
 20
384.1587707244875
  0
LWPOLYLINE
  5
91
330
17
100
AcDbEntity
  8
POCHE_KERF_15MM
100
AcDbPolyline
 90
4
 70
1
 10
779.6509746833942
 20
39.386852068789224
 10
784.1920030805171
 20
35.465237465526414
 10
1096.4343832493232
 20
397.0258849478348
 10
1091.8933548522002
 20
400.9474995510975
  0
LWPOLYLINE
  5
92
330
17
100
AcDbEntity
  8
POCHE_KERF_15MM
100
AcDbPolyline
 90
4
 70
1
 10
772.0241465395659
 20
45.63415830614238
 10
776.6897499214953
 20
41.861606771367946
 10
1077.0635983734544
 20
413.3410233578953
 10
1072.3979949915251
 20
417.1135748926698
  0
LWPOLYLINE
  5
93
330
17
100
AcDbEntity
  8
POCHE_KERF_15MM
100
AcDbPolyline
 90
4
 70
1
 10
764.1990707811306
 20
51.63128529608609
 10
768.9843582055319
 20
48.0117515877382
 10
1057.1747936591992
 20
429.0205161776527
 10
1052.3895062347979
 20
432.64004988600067
  0
LWPOLYLINE
  5
94
330
17
100
AcDbEntity
  8
POCHE_KERF_15MM
100
AcDbPolyline
 90
4
 70
1
 10
756.1839504187529
 20
57.37194626285308
 10
761.0839054787584
 20
53.90922473060031
 10
1036.7888184992294
 20
444.0479266273511
 10
1031.8888634392238
 20
447.5106481596039
  0
LWPOLYLINE
  5
95
330
17
100
AcDbEntity
  8
POCHE_KERF_15MM
100
AcDbPolyline
 90
4
 70
1
 10
747.9871876864611
 20
62.850123283475476
 10
752.9966737693586
 20
59.54784389110787
 10
1015.9270434689627
 20
458.4075015038286
 10
1010.9175573860653
 20
461.7097808961962
  0
LWPOLYLINE
  5
96
330
17
100
AcDbEntity
  8
POCHE_KERF_15MM
100
AcDbPolyline
 90
4
 70
1
 10
739.6173752336024
 20
68.06007359636084
 10
744.7311409055362
 20
64.92169811650655
 10
994.6113379238332
 20
472.08418769456716
 10
989.4975722518993
 20
475.22256317442157
  0
LWPOLYLINE
  5
97
330
17
100
AcDbEntity
  8
POCHE_KERF_15MM
100
AcDbPolyline
 90
4
 70
1
 10
731.0832871171867
 20
72.99633562141751
 10
736.2959716282244
 20
70.0251540065734
 10
972.86404707369
 20
485.0636479578404
 10
967.6513625626523
 20
488.0348295726844
  0
LWPOLYLINE
  5
98
330
17
100
AcDbEntity
  8
POCHE_KERF_15MM
100
AcDbPolyline
 90
4
 70
1
 10
722.393869604061
 20
77.65373468541738
 10
727.7000085078566
 20
74.85286161909916
 10
950.7079685583614
 20
497.33227595241283
 10
945.4018296545657
 20
500.13314901873105
  0
LWPOLYLINE
  5
99
330
17
100
AcDbEntity
  8
POCHE_KERF_15MM
100
AcDbPolyline
 90
4
 70
1
 10
713.5582317925558
 20
82.02738844659518
 10
718.9522626747175
 20
79.39976007822077
 10
928.1663285489361
 20
508.8772105010402
 10
922.7722976667744
 20
511.50483886941464
  0
LWPOLYLINE
  5
9A
330
17
100
AcDbEntity
  8
POCHE_KERF_15MM
100
AcDbPolyline
 90
4
 70
1
 10
704.5856360634375
 20
86.1127120127974
 10
710.0619043725951
 20
83.66108287972762
 10
905.2627573998166
 20
519.6863490728144
 10
899.786489090659
 20
522.1379782058843
  0
LWPOLYLINE
  5
9B
330
17
100
AcDbEntity
  8
POCHE_KERF_15MM
100
AcDbPolyline
 90
4
 70
1
 10
695.4854883701719
 20
89.90542274781494
 10
701.0382533456312
 20
87.63236288777789
 10
882.0212648770661
 20
529.748360470222
 10
876.4684999016068
 20
532.0214203302592
  0
LWPOLYLINE
  5
9C
330
17
100
AcDbEntity
  8
POCHE_KERF_15MM
100
AcDbPolyline
 90
4
 70
1
 10
686.2673283786849
 20
93.40154476086187
 10
691.8907690684555
 20
91.30943701778759
 10
858.4662149890237
 20
539.0526967076138
 10
852.842774299253
 20
541.1448044506882
  0
LWPOLYLINE
  5
9D
330
17
100
AcDbEntity
  8
POCHE_KERF_15MM
100
AcDbPolyline
 90
4
 70
1
 10
676.940819466949
 20
96.59741307449343
 10
682.629040829836
 20
94.68845060058362
 10
834.6223004455619
 20
547.5896040686375
 10
828.9340790826749
 20
549.4985665425475
  0
LWPOLYLINE
  5
9E
330
17
100
AcDbEntity
  8
POCHE_KERF_15MM
100
AcDbPolyline
 90
4
 70
1
 10
667.515738594885
 20
99.48967746659443
 10
673.2627776802482
 20
97.76586142324547
 10
810.5145167727719
 20
555.3501333310383
 10
804.7674776874087
 20
557.0739493743872
  0
LWPOLYLINE
  5
9F
330
17
100
AcDbEntity
  8
POCHE_KERF_15MM
100
AcDbPolyline
 90
4
 70
1
 10
658.0019660551947
 20
102.07530598240987
 10
663.8017982538977
 20
100.53844344239963
 10
786.1681361102059
 20
562.3261491481092
 10
780.3683039115028
 20
563.8630116881195
  0
LWPOLYLINE
  5
A0
330
17
100
AcDbEntity
  8
POCHE_KERF_15MM
100
AcDbPolyline
 90
4
 70
1
 10
648.409475115871
 20
104.35158811293721
 10
654.2560204758665
 20
103.00329016607421
 10
761.608680718143
 20
568.5103385769587
 10
755.7621353581475
 20
569.8586365238218
  0
LWPOLYLINE
  5
A1
330
17
100
AcDbEntity
  8
POCHE_KERF_15MM
100
AcDbPolyline
 90
4
 70
1
 10
638.7483215652418
 20
106.31613763634685
 10
644.6354511651723
 20
105.15781770056832
 10
736.8618962226607
 20
573.8962187446532
 10
730.9747666227302
 20
575.0545386804317
  0
LWPOLYLINE
  5
A2
330
17
100
AcDbEntity
  8
POCHE_KERF_15MM
100
AcDbPolyline
 90
4
 70
1
 10
629.0286331705078
 20
107.96689511945384
 10
634.9501755446414
 20
106.9997674591426
 10
711.9537246265453
 20
578.4781436441996
 10
706.0321822524116
 20
579.4452713045108
  0
LWPOLYLINE
  5
A3
330
17
100
AcDbEntity
  8
POCHE_KERF_15MM
100
AcDbPolyline
 90
4
 70
1
 10
619.2605990608246
 20
109.30213007661725
 10
625.2103466685899
 20
108.52720852969095
 10
686.910277114346
 20
582.2513100532424
 10
680.9605295065807
 20
583.0262316001688
  0
LWPOLYLINE
  5
A4
330
17
100
AcDbEntity
  8
POCHE_KERF_15MM
100
AcDbPolyline
 90
4
 70
1
 10
609.4544590460613
 20
110.32044278380495
 10
615.4261747793989
 20
109.73853969891157
 10
661.7578066800738
 20
585.2117625692721
 10
655.7860909467362
 20
585.7936656541655
  0
LWPOLYLINE
  5
A5
330
17
100
AcDbEntity
  8
POCHE_KERF_15MM
100
AcDbPolyline
 90
4
 70
1
 10
599.6204928824274
 20
111.02076574592101
 10
605.6079166041374
 20
110.63249113085587
 10
636.5226806062419
 20
587.3563977560652
 10
630.5352568845319
 20
587.7446723711305
  0
LWPOLYLINE
  5
A6
330
17
100
AcDbEntity
  8
POCHE_KERF_15MM
100
AcDbPolyline
 90
4
 70
1
 10
589.7690094962269
 20
111.40236481585885
 10
595.765864602458
 20
111.20812569809436
 10
611.2313528231001
 20
588.6829673970099
 10
605.234497716869
 20
588.8772065147743
  0
LWPOLYLINE
  5
A7
330
17
100
AcDbEntity
  8
POCHE_KERF_15MM
100
AcDbPolyline
 90
4
 70
1
 10
579.9103361770315
 20
111.46483996410603
 10
585.9103361770315
 20
111.46483996410603
 10
585.9103361770315
 20
589.1900808519067
 10
579.9103361770315
 20
589.1900808519067
  0
LWPOLYLINE
  5
A8
330
17
100
AcDbEntity
  8
POCHE_KERF_15MM
100
AcDbPolyline
 90
4
 70
1
 10
570.054807751605
 20
111.20812569809436
 10
576.0516628578362
 20
111.40236481585885
 10
560.5861746371942
 20
588.8772065147743
 10
554.589319530963
 20
588.6829673970099
  0
LWPOLYLINE
  5
A9
330
17
100
AcDbEntity
  8
POCHE_KERF_15MM
100
AcDbPolyline
 90
4
 70
1
 10
560.2127557499256
 20
110.63249113085587
 10
566.2001794716356
 20
111.02076574592101
 10
535.2854154695311
 20
587.7446723711305
 10
529.2979917478211
 20
587.3563977560652
  0
LWPOLYLINE
  5
AA
330
17
100
AcDbEntity
  8
POCHE_KERF_15MM
100
AcDbPolyline
 90
4
 70
1
 10
550.3944975746641
 20
109.73853969891157
 10
556.3662133080016
 20
110.32044278380495
 10
510.03458140732687
 20
585.7936656541655
 10
504.0628656739893
 20
585.2117625692721
  0
LWPOLYLINE
  5
AB
330
17
100
AcDbEntity
  8
POCHE_KERF_15MM
100
AcDbPolyline
 90
4
 70
1
 10
540.6103256854731
 20
108.52720852969095
 10
546.5600732932384
 20
109.30213007661725
 10
484.86014284748245
 20
583.0262316001688
 10
478.91039523971716
 20
582.2513100532424
  0
LWPOLYLINE
  5
AC
330
17
100
AcDbEntity
  8
POCHE_KERF_15MM
100
AcDbPolyline
 90
4
 70
1
 10
530.8704968094215
 20
106.9997674591426
 10
536.7920391835552
 20
107.96689511945384
 10
459.7884901016514
 20
579.4452713045108
 10
453.8669477275177
 20
578.4781436441996
  0
LWPOLYLINE
  5
AD
330
17
100
AcDbEntity
  8
POCHE_KERF_15MM
100
AcDbPolyline
 90
4
 70
1
 10
521.1852211888908
 20
105.15781770056832
 10
527.0723507888212
 20
106.31613763634685
 10
434.84590573133306
 20
575.054538680432
 10
428.95877613140254
 20
573.8962187446534
  0
LWPOLYLINE
  5
AE
330
17
100
AcDbEntity
  8
POCHE_KERF_15MM
100
AcDbPolyline
 90
4
 70
1
 10
511.56465187819646
 20
103.00329016607427
 10
517.411197238192
 20
104.35158811293726
 10
410.0585369959156
 20
569.8586365238218
 10
404.21199163592007
 20
568.5103385769587
  0
LWPOLYLINE
  5
AF
330
17
100
AcDbEntity
  8
POCHE_KERF_15MM
100
AcDbPolyline
 90
4
 70
1
 10
502.0188741001652
 20
100.53844344239963
 10
507.8187062988683
 20
102.07530598240987
 10
385.4523684425604
 20
563.8630116881195
 10
379.65253624385724
 20
562.3261491481092
  0
LWPOLYLINE
  5
B0
330
17
100
AcDbEntity
  8
POCHE_KERF_15MM
100
AcDbPolyline
 90
4
 70
1
 10
492.55789467381487
 20
97.76586142324547
 10
498.30493375917814
 20
99.48967746659443
 10
361.05319466665424
 20
557.0739493743874
 10
355.306155581291
 20
555.3501333310385
  0
LWPOLYLINE
  5
B1
330
17
100
AcDbEntity
  8
POCHE_KERF_15MM
100
AcDbPolyline
 90
4
 70
1
 10
483.19163152422703
 20
94.68845060058362
 10
488.879852887114
 20
96.59741307449343
 10
336.88659327138805
 20
549.4985665425475
 10
331.19837190850103
 20
547.5896040686375
  0
LWPOLYLINE
  5
B2
330
17
100
AcDbEntity
  8
POCHE_KERF_15MM
100
AcDbPolyline
 90
4
 70
1
 10
473.9299032856075
 20
91.30943701778764
 10
479.5533439753782
 20
93.40154476086192
 10
312.97789805481017
 20
541.1448044506882
 10
307.35445736503954
 20
539.0526967076138
  0
LWPOLYLINE
  5
B3
330
17
100
AcDbEntity
  8
POCHE_KERF_15MM
100
AcDbPolyline
 90
4
 70
1
 10
464.7824190084317
 20
87.63236288777794
 10
470.33518398389106
 20
89.905422747815
 10
289.3521724524562
 20
532.0214203302592
 10
283.79940747699686
 20
529.748360470222
  0
LWPOLYLINE
  5
B4
330
17
100
AcDbEntity
  8
POCHE_KERF_15MM
100
AcDbPolyline
 90
4
 70
1
 10
455.758767981468
 20
83.66108287972767
 10
461.23503629062554
 20
86.11271201279746
 10
266.0341832634041
 20
522.1379782058846
 10
260.5579149542465
 20
519.6863490728147
  0
LWPOLYLINE
  5
B5
330
17
100
AcDbEntity
  8
POCHE_KERF_15MM
100
AcDbPolyline
 90
4
 70
1
 10
446.8684096793454
 20
79.39976007822082
 10
452.26244056150705
 20
82.02738844659524
 10
243.0483746872886
 20
511.50483886941475
 10
237.6543438051269
 20
508.87721050104034
  0
LWPOLYLINE
  5
B6
330
17
100
AcDbEntity
  8
POCHE_KERF_15MM
100
AcDbPolyline
 90
4
 70
1
 10
438.12066384620636
 20
74.85286161909916
 10
443.42680275000197
 20
77.65373468541738
 10
220.41884269949725
 20
500.13314901873105
 10
215.11270379570163
 20
497.33227595241283
  0
LWPOLYLINE
  5
B7
330
17
100
AcDbEntity
  8
POCHE_KERF_15MM
100
AcDbPolyline
 90
4
 70
1
 10
429.5247007258385
 20
70.0251540065734
 10
434.73738523687615
 20
72.99633562141751
 10
198.16930979141074
 20
488.0348295726844
 10
192.95662528037298
 20
485.0636479578404
  0
LWPOLYLINE
  5
B8
330
17
100
AcDbEntity
  8
POCHE_KERF_15MM
100
AcDbPolyline
 90
4
 70
1
 10
421.08953144852677
 20
64.92169811650655
 10
426.2032971204606
 20
68.06007359636084
 10
176.3231001021637
 20
475.22256317442157
 10
171.20933443022986
 20
472.08418769456716
  0
LWPOLYLINE
  5
B9
330
17
100
AcDbEntity
  8
POCHE_KERF_15MM
100
AcDbPolyline
 90
4
 70
1
 10
412.8239985847043
 20
59.54784389110787
 10
417.83348466760185
 20
62.850123283475476
 10
154.90311496799774
 20
461.7097808961961
 10
149.8936288851002
 20
458.4075015038285
  0
LWPOLYLINE
  5
BA
330
17
100
AcDbEntity
  8
POCHE_KERF_15MM
100
AcDbPolyline
 90
4
 70
1
 10
404.7367668753047
 20
53.909224730600336
 10
409.63672193531016
 20
57.37194626285311
 10
133.93180891483934
 20
447.510648159604
 10
129.03185385483386
 20
444.0479266273512
  0
LWPOLYLINE
  5
BB
330
17
100
AcDbEntity
  8
POCHE_KERF_15MM
100
AcDbPolyline
 90
4
 70
1
 10
396.8363141485312
 20
48.01175158773829
 10
401.6216015729325
 20
51.631285296086176
 10
113.43116611926551
 20
432.6400498860009
 10
108.64587869486421
 20
429.02051617765295
  0
LWPOLYLINE
  5
BC
330
17
100
AcDbEntity
  8
POCHE_KERF_15MM
100
AcDbPolyline
 90
4
 70
1
 10
389.1309224325677
 20
41.861606771368
 10
393.79652581449716
 20
45.63415830614244
 10
93.42267736253812
 20
417.11357489266993
 10
88.75707398060875
 20
413.34102335789544
  0
LWPOLYLINE
  5
BD
330
17
100
AcDbEntity
  8
POCHE_KERF_15MM
100
AcDbPolyline
 90
4
 70
1
 10
381.628669273546
 20
35.46523746552647
 10
386.16969767066877
 20
39.38685206878928
 10
73.92731750186286
 20
400.9474995510976
 10
69.38628910473997
 20
397.0258849478349
  0
LWPOLYLINE
  5
BE
330
17
100
AcDbEntity
  8
POCHE_KERF_15MM
100
AcDbPolyline
 90
4
 70
1
 10
374.33741926787
 20
28.82934897087165
 10
378.74911232954946
 20
32.89591562217953
 10
54.96552348248915
 20
384.15877072448774
 10
50.5538304208097
 20
380.09220407317974
  0
LWPOLYLINE
  5
BF
330
17
100
AcDbEntity
  8
POCHE_KERF_15MM
100
AcDbPolyline
 90
4
 70
1
 10
367.26481581777654
 20
21.96089767552929
 10
371.54254877533924
 20
26.168153401508114
 10
36.557172913703006
 20
366.7649880023974
 10
32.27943995614036
 20
362.55773227641845
  0
LWPOLYLINE
  5
C0
330
17
100
AcDbEntity
  8
POCHE_KERF_15MM
100
AcDbPolyline
 90
4
 70
1
 10
806.6901694900683
 20
13.51577077555577
 10
802.5508809751967
 20
17.85930511876662
 10
1148.3868793776696
 20
347.4330722639566
 10
1152.5261678925413
 20
343.08953792074584
  0
LWPOLYLINE
  5
C1
330
17
100
AcDbEntity
  8
POCHE_KERF_15MM
100
AcDbPolyline
 90
4
 70
1
 10
359.13050286399465
 20
13.51577077555577
 10
363.2697913788662
 20
17.85930511876662
 10
17.433792976393203
 20
347.4330722639566
 10
13.29450446152158
 20
343.08953792074584
  0
LWPOLYLINE
  5
C2
330
17
100
AcDbEntity
  8
COUPE
100
AcDbPolyline
 90
2
 70
1
 10
509.0
 20
795.5
 42
1.0
 10
18.0
 20
795.5
 42
1.0
  0
LWPOLYLINE
  5
C3
330
17
100
AcDbEntity
  8
COUPE
100
AcDbPolyline
 90
2
 70
1
 10
63.0
 20
795.5
 42
-1.0
 10
464.0
 20
795.5
 42
-1.0
  0
LWPOLYLINE
  5
C4
330
17
100
AcDbEntity
  8
COUPE
100
AcDbPolyline
 90
2
 70
1
 10
916.0
 20
981.0
 42
1.0
 10
486.0
 20
981.0
 42
1.0
  0
LWPOLYLINE
  5
C5
330
17
100
AcDbEntity
  8
COUPE
100
AcDbPolyline
 90
2
 70
1
 10
531.0
 20
981.0
 42
-1.0
 10
871.0
 20
981.0
 42
-1.0
  0
LWPOLYLINE
  5
C6
330
17
100
AcDbEntity
  8
COUPE
100
AcDbPolyline
 90
2
 70
1
 10
1184.0
 20
691.0
 42
1.0
 10
814.0
 20
691.0
 42
1.0
  0
LWPOLYLINE
  5
C7
330
17
100
AcDbEntity
  8
COUPE
100
AcDbPolyline
 90
2
 70
1
 10
859.0
 20
691.0
 42
-1.0
 10
1139.0
 20
691.0
 42
-1.0
  0
LWPOLYLINE
  5
C8
330
17
100
AcDbEntity
  8
COUPE
100
AcDbPolyline
 90
2
 70
1
 10
436.7452040218106
 20
791.3726020109053
 42
1.0
 10
82.0
 20
791.3726020109053
 42
1.0
  0
LWPOLYLINE
  5
C9
330
17
100
AcDbEntity
  8
COUPE
100
AcDbPolyline
 90
8
 70
1
 10
146.0560860546695
 20
785.5726020109053
 42
2.414213562373095
 10
149.25608605466948
 20
782.3726020109053
 10
183.85608605466948
 20
782.3726020109053
 42
2.414213562373095
 10
187.0560860546695
 20
785.5726020109053
 10
187.0560860546695
 20
797.1726020109053
 42
2.414213562373095
 10
183.85608605466948
 20
800.3726020109053
 10
149.25608605466948
 20
800.3726020109053
 42
2.414213562373095
 10
146.0560860546695
 20
797.1726020109053
  0
LWPOLYLINE
  5
CA
330
17
100
AcDbEntity
  8
COUPE
100
AcDbPolyline
 90
8
 70
1
 10
331.6891179671411
 20
785.5726020109053
 42
2.414213562373095
 10
334.88911796714115
 20
782.3726020109053
 10
369.4891179671411
 20
782.3726020109053
 42
2.414213562373095
 10
372.6891179671411
 20
785.5726020109053
 10
372.6891179671411
 20
797.1726020109053
 42
2.414213562373095
 10
369.4891179671411
 20
800.3726020109053
 10
334.88911796714115
 20
800.3726020109053
 42
2.414213562373095
 10
331.6891179671411
 20
797.1726020109053
  0
LWPOLYLINE
  5
CB
330
17
100
AcDbEntity
  8
COUPE
100
AcDbPolyline
 90
8
 70
1
 10
265.1726020109053
 20
678.0560860546694
 42
2.414213562373095
 10
268.3726020109053
 20
681.2560860546695
 10
268.3726020109053
 20
715.8560860546695
 42
2.414213562373095
 10
265.1726020109053
 20
719.0560860546694
 10
253.57260201090529
 20
719.0560860546694
 42
2.414213562373095
 10
250.3726020109053
 20
715.8560860546695
 10
250.3726020109053
 20
681.2560860546695
 42
2.414213562373095
 10
253.57260201090529
 20
678.0560860546694
  0
LWPOLYLINE
  5
CC
330
17
100
AcDbEntity
  8
COUPE
100
AcDbPolyline
 90
8
 70
1
 10
265.1726020109053
 20
863.6891179671411
 42
2.414213562373095
 10
268.3726020109053
 20
866.8891179671411
 10
268.3726020109053
 20
901.489117967141
 42
2.414213562373095
 10
265.1726020109053
 20
904.6891179671411
 10
253.5726020109053
 20
904.6891179671411
 42
2.414213562373095
 10
250.3726020109053
 20
901.489117967141
 10
250.3726020109053
 20
866.8891179671411
 42
2.414213562373095
 10
253.5726020109053
 20
863.6891179671411
  0
LWPOLYLINE
  5
CD
330
17
100
AcDbEntity
  8
COUPE
100
AcDbPolyline
 90
2
 70
1
 10
1236.0
 20
1045.0
 42
1.0
 10
926.0
 20
1045.0
 42
1.0
  0
LWPOLYLINE
  5
CE
330
17
100
AcDbEntity
  8
COUPE
100
AcDbPolyline
 90
2
 70
1
 10
971.0
 20
1045.0
 42
-1.0
 10
1191.0
 20
1045.0
 42
-1.0
  0
LWPOLYLINE
  5
CF
330
17
100
AcDbEntity
  8
COUPE
100
AcDbPolyline
 90
34
 70
1
 10
994.0
 20
35.0
 10
1054.8560860546695
 20
35.0
 42
-2.414213562373095
 10
1058.0560860546695
 20
31.8
 10
1058.0560860546695
 20
18.0
 10
1098.0560860546695
 20
18.0
 10
1098.0560860546695
 20
31.8
 42
-2.414213562373095
 10
1101.2560860546696
 20
35.0
 10
1240.489117967141
 20
35.0
 42
-2.414213562373095
 10
1243.689117967141
 20
31.8
 10
1243.689117967141
 20
18.0
 10
1283.689117967141
 20
18.0
 10
1283.689117967141
 20
31.8
 42
-2.414213562373095
 10
1286.8891179671411
 20
35.0
 10
1347.7452040218107
 20
35.0
 10
1296.8118706884773
 20
226.0
 10
1259.0971989051668
 20
226.0
 42
-2.414213562373095
 10
1255.897198905167
 20
229.2
 10
1255.897198905167
 20
243.0
 10
1215.897198905167
 20
243.0
 10
1215.897198905167
 20
229.2
 42
-2.414213562373095
 10
1212.697198905167
 20
226.0
 10
1179.8726020109052
 20
226.0
 10
1179.8726020109052
 20
133.7
 42
-2.414213562373095
 10
1176.6726020109054
 20
130.5
 10
1165.0726020109053
 20
130.5
 42
-2.414213562373095
 10
1161.8726020109052
 20
133.7
 10
1161.8726020109052
 20
226.0
 10
1129.0480051166437
 20
226.0
 42
-2.414213562373095
 10
1125.8480051166437
 20
229.2
 10
1125.8480051166437
 20
243.0
 10
1085.8480051166437
 20
243.0
 10
1085.8480051166437
 20
229.2
 42
-2.414213562373095
 10
1082.6480051166436
 20
226.0
 10
1044.9333333333334
 20
226.0
  0
LWPOLYLINE
  5
D0
330
17
100
AcDbEntity
  8
COUPE
100
AcDbPolyline
 90
34
 70
1
 10
1467.7452040218107
 20
518.0
 10
1406.8891179671411
 20
518.0
 42
-2.414213562373095
 10
1403.689117967141
 20
521.2
 10
1403.689117967141
 20
535.0
 10
1363.689117967141
 20
535.0
 10
1363.689117967141
 20
521.2
 42
-2.414213562373095
 10
1360.489117967141
 20
518.0
 10
1299.8726020109052
 20
518.0
 10
1299.8726020109052
 20
425.7
 42
-2.414213562373095
 10
1296.6726020109054
 20
422.5
 10
1285.0726020109053
 20
422.5
 42
-2.414213562373095
 10
1281.8726020109052
 20
425.7
 10
1281.8726020109052
 20
518.0
 10
1221.2560860546696
 20
518.0
 42
-2.414213562373095
 10
1218.0560860546695
 20
521.2
 10
1218.0560860546695
 20
535.0
 10
1178.0560860546695
 20
535.0
 10
1178.0560860546695
 20
521.2
 42
-2.414213562373095
 10
1174.8560860546695
 20
518.0
 10
1114.0
 20
518.0
 10
1164.9333333333334
 20
327.0
 10
1202.6480051166436
 20
327.0
 42
-2.414213562373095
 10
1205.8480051166437
 20
323.8
 10
1205.8480051166437
 20
310.0
 10
1245.8480051166437
 20
310.0
 10
1245.8480051166437
 20
323.8
 42
-2.414213562373095
 10
1249.0480051166437
 20
327.0
 10
1332.6971989051667
 20
327.0
 42
-2.414213562373095
 10
1335.8971989051668
 20
323.8
 10
1335.8971989051668
 20
310.0
 10
1375.897198905167
 20
310.0
 10
1375.897198905167
 20
323.8
 42
-2.414213562373095
 10
1379.0971989051668
 20
327.0
 10
1416.8118706884773
 20
327.0
  0
LWPOLYLINE
  5
D1
330
17
100
AcDbEntity
  8
COUPE
100
AcDbPolyline
 90
2
 70
1
 10
793.8118706884773
 20
967.9059353442386
 42
1.0
 10
550.0
 20
967.9059353442386
 42
1.0
  0
LWPOLYLINE
  5
D2
330
17
100
AcDbEntity
  8
COUPE
100
AcDbPolyline
 90
8
 70
1
 10
586.3813384499771
 20
962.1059353442387
 42
2.414213562373095
 10
589.581338449977
 20
958.9059353442386
 10
624.181338449977
 20
958.9059353442386
 42
2.414213562373095
 10
627.3813384499771
 20
962.1059353442387
 10
627.3813384499771
 20
973.7059353442387
 42
2.414213562373095
 10
624.181338449977
 20
976.9059353442386
 10
589.581338449977
 20
976.9059353442386
 42
2.414213562373095
 10
586.3813384499771
 20
973.7059353442387
  0
LWPOLYLINE
  5
D3
330
17
100
AcDbEntity
  8
COUPE
100
AcDbPolyline
 90
8
 70
1
 10
716.4305322385003
 20
962.1059353442387
 42
2.414213562373095
 10
719.6305322385002
 20
958.9059353442386
 10
754.2305322385002
 20
958.9059353442386
 42
2.414213562373095
 10
757.4305322385003
 20
962.1059353442387
 10
757.4305322385003
 20
973.7059353442387
 42
2.414213562373095
 10
754.2305322385002
 20
976.9059353442386
 10
719.6305322385002
 20
976.9059353442386
 42
2.414213562373095
 10
716.4305322385003
 20
973.7059353442387
  0
LWPOLYLINE
  5
D4
330
17
100
AcDbEntity
  8
COUPE
100
AcDbPolyline
 90
8
 70
1
 10
677.7059353442387
 20
882.3813384499771
 42
2.414213562373095
 10
680.9059353442386
 20
885.581338449977
 10
680.9059353442386
 20
920.181338449977
 42
2.414213562373095
 10
677.7059353442387
 20
923.3813384499771
 10
666.1059353442387
 20
923.3813384499771
 42
2.414213562373095
 10
662.9059353442386
 20
920.181338449977
 10
662.9059353442386
 20
885.581338449977
 42
2.414213562373095
 10
666.1059353442387
 20
882.3813384499771
  0
LWPOLYLINE
  5
D5
330
17
100
AcDbEntity
  8
COUPE
100
AcDbPolyline
 90
8
 70
1
 10
677.7059353442387
 20
1012.4305322385003
 42
2.414213562373095
 10
680.9059353442386
 20
1015.6305322385002
 10
680.9059353442386
 20
1050.2305322385002
 42
2.414213562373095
 10
677.7059353442387
 20
1053.4305322385003
 10
666.1059353442387
 20
1053.4305322385003
 42
2.414213562373095
 10
662.9059353442386
 20
1050.2305322385002
 10
662.9059353442386
 20
1015.6305322385002
 42
2.414213562373095
 10
666.1059353442387
 20
1012.4305322385003
  0
LWPOLYLINE
  5
D6
330
17
100
AcDbEntity
  8
COUPE
100
AcDbPolyline
 90
2
 70
1
 10
1112.7452040218107
 20
687.3726020109053
 42
1.0
 10
878.0
 20
687.3726020109053
 42
1.0
  0
LWPOLYLINE
  5
D7
330
17
100
AcDbEntity
  8
COUPE
100
AcDbPolyline
 90
8
 70
1
 10
940.6068291826346
 20
624.4043905208706
 42
2.414213562373095
 10
945.1323125822285
 20
624.4043905208706
 10
969.5982072112829
 20
648.8702851499252
 42
2.414213562373095
 10
969.5982072112829
 20
653.3957685495191
 10
961.3957685495191
 20
661.598207211283
 42
2.414213562373095
 10
956.8702851499252
 20
661.598207211283
 10
932.4043905208706
 20
637.1323125822285
 42
2.414213562373095
 10
932.4043905208706
 20
632.6068291826346
  0
LWPOLYLINE
  5
D8
330
17
100
AcDbEntity
  8
COUPE
100
AcDbPolyline
 90
8
 70
1
 10
1029.3494354722916
 20
713.1469968105276
 42
2.414213562373095
 10
1033.8749188718855
 20
713.1469968105276
 10
1058.3408135009402
 20
737.6128914395822
 42
2.414213562373095
 10
1058.3408135009402
 20
742.1383748391761
 10
1050.138374839176
 20
750.34081350094
 42
2.414213562373095
 10
1045.6128914395822
 20
750.34081350094
 10
1021.1469968105276
 20
725.8749188718855
 42
2.414213562373095
 10
1021.1469968105276
 20
721.3494354722916
  0
LWPOLYLINE
  5
D9
330
17
100
AcDbEntity
  8
COUPE
100
AcDbPolyline
 90
8
 70
1
 10
1058.34081350094
 20
632.6068291826346
 42
2.414213562373095
 10
1058.34081350094
 20
637.1323125822285
 10
1033.8749188718855
 20
661.5982072112829
 42
2.414213562373095
 10
1029.3494354722916
 20
661.5982072112829
 10
1021.1469968105276
 20
653.3957685495191
 42
2.414213562373095
 10
1021.1469968105276
 20
648.8702851499252
 10
1045.6128914395822
 20
624.4043905208706
 42
2.414213562373095
 10
1050.138374839176
 20
624.4043905208706
  0
LWPOLYLINE
  5
DA
330
17
100
AcDbEntity
  8
COUPE
100
AcDbPolyline
 90
8
 70
1
 10
969.598207211283
 20
721.3494354722916
 42
2.414213562373095
 10
969.598207211283
 20
725.8749188718855
 10
945.1323125822285
 20
750.34081350094
 42
2.414213562373095
 10
940.6068291826346
 20
750.34081350094
 10
932.4043905208706
 20
742.1383748391761
 42
2.414213562373095
 10
932.4043905208706
 20
737.6128914395822
 10
956.8702851499252
 20
713.1469968105276
 42
2.414213562373095
 10
961.3957685495191
 20
713.1469968105276
  0
LWPOLYLINE
  5
DB
330
17
100
AcDbEntity
  8
COUPE
100
AcDbPolyline
 90
34
 70
1
 10
1387.7452040218107
 20
890.0
 10
1356.8231006984897
 20
890.0
 42
-2.414213562373095
 10
1353.62310069849
 20
893.2
 10
1353.62310069849
 20
907.0
 10
1313.62310069849
 20
907.0
 10
1313.62310069849
 20
893.2
 42
-2.414213562373095
 10
1310.4231006984899
 20
890.0
 10
1231.3221033233208
 20
890.0
 42
-2.414213562373095
 10
1228.1221033233207
 20
893.2
 10
1228.1221033233207
 20
907.0
 10
1188.1221033233207
 20
907.0
 10
1188.1221033233207
 20
893.2
 42
-2.414213562373095
 10
1184.9221033233207
 20
890.0
 10
1154.0
 20
890.0
 10
1204.9333333333334
 20
699.0
 10
1215.2261432889138
 20
699.0
 42
-2.414213562373095
 10
1218.4261432889139
 20
695.8
 10
1218.4261432889139
 20
682.0
 10
1253.6726020109054
 20
682.0
 10
1253.6726020109054
 20
695.8
 42
-2.414213562373095
 10
1256.8726020109052
 20
699.0
 10
1261.8726020109052
 20
699.0
 10
1261.8726020109052
 20
791.3
 42
-2.414213562373095
 10
1265.0726020109053
 20
794.5
 10
1276.6726020109054
 20
794.5
 42
-2.414213562373095
 10
1279.8726020109052
 20
791.3
 10
1279.8726020109052
 20
699.0
 10
1284.8726020109052
 20
699.0
 42
-2.414213562373095
 10
1288.0726020109053
 20
695.8
 10
1288.0726020109053
 20
682.0
 10
1323.3190607328968
 20
682.0
 10
1323.3190607328968
 20
695.8
 42
-2.414213562373095
 10
1326.5190607328968
 20
699.0
 10
1336.8118706884773
 20
699.0
  0
LWPOLYLINE
  5
DC
330
17
100
AcDbEntity
  8
COUPE
100
AcDbPolyline
 90
34
 70
1
 10
1455.7452040218107
 20
1178.0
 10
1424.8231006984897
 20
1178.0
 42
-2.414213562373095
 10
1421.62310069849
 20
1181.2
 10
1421.62310069849
 20
1195.0
 10
1381.62310069849
 20
1195.0
 10
1381.62310069849
 20
1181.2
 42
-2.414213562373095
 10
1378.4231006984899
 20
1178.0
 10
1347.8726020109052
 20
1178.0
 10
1347.8726020109052
 20
1085.7
 42
-2.414213562373095
 10
1344.6726020109054
 20
1082.5
 10
1333.0726020109053
 20
1082.5
 42
-2.414213562373095
 10
1329.8726020109052
 20
1085.7
 10
1329.8726020109052
 20
1178.0
 10
1299.3221033233208
 20
1178.0
 42
-2.414213562373095
 10
1296.1221033233207
 20
1181.2
 10
1296.1221033233207
 20
1195.0
 10
1256.1221033233207
 20
1195.0
 10
1256.1221033233207
 20
1181.2
 42
-2.414213562373095
 10
1252.9221033233207
 20
1178.0
 10
1222.0
 20
1178.0
 10
1272.9333333333334
 20
987.0
 10
1283.2261432889138
 20
987.0
 42
-2.414213562373095
 10
1286.4261432889139
 20
983.8
 10
1286.4261432889139
 20
970.0
 10
1321.6726020109054
 20
970.0
 10
1321.6726020109054
 20
983.8
 42
-2.414213562373095
 10
1324.8726020109052
 20
987.0
 10
1352.8726020109052
 20
987.0
 42
-2.414213562373095
 10
1356.0726020109053
 20
983.8
 10
1356.0726020109053
 20
970.0
 10
1391.3190607328968
 20
970.0
 10
1391.3190607328968
 20
983.8
 42
-2.414213562373095
 10
1394.5190607328968
 20
987.0
 10
1404.8118706884773
 20
987.0
  0
LWPOLYLINE
  5
DD
330
17
100
AcDbEntity
  8
COUPE
100
AcDbPolyline
 90
4
 70
1
 10
18.0
 20
18.0
 10
138.63715789784806
 20
18.0
 10
138.63715789784806
 20
168.0
 10
18.0
 20
168.0
  0
LWPOLYLINE
  5
DE
330
17
100
AcDbEntity
  8
POCHE_KERF_15MM
100
AcDbPolyline
 90
4
 70
1
 10
20.02654824574367
 20
12.0
 10
26.02654824574367
 20
12.0
 10
26.02654824574367
 20
174.0
 10
20.02654824574367
 20
174.0
  0
LWPOLYLINE
  5
DF
330
17
100
AcDbEntity
  8
POCHE_KERF_15MM
100
AcDbPolyline
 90
4
 70
1
 10
30.079644737231007
 20
12.0
 10
36.07964473723101
 20
12.0
 10
36.07964473723101
 20
174.0
 10
30.079644737231007
 20
174.0
  0
LWPOLYLINE
  5
E0
330
17
100
AcDbEntity
  8
POCHE_KERF_15MM
100
AcDbPolyline
 90
4
 70
1
 10
40.132741228718345
 20
12.0
 10
46.132741228718345
 20
12.0
 10
46.132741228718345
 20
174.0
 10
40.132741228718345
 20
174.0
  0
LWPOLYLINE
  5
E1
330
17
100
AcDbEntity
  8
POCHE_KERF_15MM
100
AcDbPolyline
 90
4
 70
1
 10
50.18583772020568
 20
12.0
 10
56.18583772020568
 20
12.0
 10
56.18583772020568
 20
174.0
 10
50.18583772020568
 20
174.0
  0
LWPOLYLINE
  5
E2
330
17
100
AcDbEntity
  8
POCHE_KERF_15MM
100
AcDbPolyline
 90
4
 70
1
 10
60.23893421169302
 20
12.0
 10
66.23893421169302
 20
12.0
 10
66.23893421169302
 20
174.0
 10
60.23893421169302
 20
174.0
  0
LWPOLYLINE
  5
E3
330
17
100
AcDbEntity
  8
POCHE_KERF_15MM
100
AcDbPolyline
 90
4
 70
1
 10
70.29203070318036
 20
12.0
 10
76.29203070318036
 20
12.0
 10
76.29203070318036
 20
174.0
 10
70.29203070318036
 20
174.0
  0
LWPOLYLINE
  5
E4
330
17
100
AcDbEntity
  8
POCHE_KERF_15MM
100
AcDbPolyline
 90
4
 70
1
 10
80.3451271946677
 20
12.0
 10
86.3451271946677
 20
12.0
 10
86.3451271946677
 20
174.0
 10
80.3451271946677
 20
174.0
  0
LWPOLYLINE
  5
E5
330
17
100
AcDbEntity
  8
POCHE_KERF_15MM
100
AcDbPolyline
 90
4
 70
1
 10
90.39822368615503
 20
12.0
 10
96.39822368615503
 20
12.0
 10
96.39822368615503
 20
174.0
 10
90.39822368615503
 20
174.0
  0
LWPOLYLINE
  5
E6
330
17
100
AcDbEntity
  8
POCHE_KERF_15MM
100
AcDbPolyline
 90
4
 70
1
 10
100.45132017764237
 20
12.0
 10
106.45132017764237
 20
12.0
 10
106.45132017764237
 20
174.0
 10
100.45132017764237
 20
174.0
  0
LWPOLYLINE
  5
E7
330
17
100
AcDbEntity
  8
POCHE_KERF_15MM
100
AcDbPolyline
 90
4
 70
1
 10
110.50441666912971
 20
12.0
 10
116.50441666912971
 20
12.0
 10
116.50441666912971
 20
174.0
 10
110.50441666912971
 20
174.0
  0
LWPOLYLINE
  5
E8
330
17
100
AcDbEntity
  8
POCHE_KERF_15MM
100
AcDbPolyline
 90
4
 70
1
 10
120.55751316061705
 20
12.0
 10
126.55751316061705
 20
12.0
 10
126.55751316061705
 20
174.0
 10
120.55751316061705
 20
174.0
  0
LWPOLYLINE
  5
E9
330
17
100
AcDbEntity
  8
POCHE_KERF_15MM
100
AcDbPolyline
 90
4
 70
1
 10
130.6106096521044
 20
12.0
 10
136.6106096521044
 20
12.0
 10
136.6106096521044
 20
174.0
 10
130.6106096521044
 20
174.0
  0
LWPOLYLINE
  5
EA
330
17
100
AcDbEntity
  8
COUPE
100
AcDbPolyline
 90
2
 70
1
 10
141.81187068847728
 20
495.9059353442386
 42
1.0
 10
18.0
 20
495.9059353442386
 42
1.0
  0
LWPOLYLINE
  5
EB
330
17
100
AcDbEntity
  8
COUPE
100
AcDbPolyline
 90
8
 70
1
 10
46.56835467298686
 20
454.3659160112229
 42
2.414213562373095
 10
51.093838072580766
 20
454.3659160112229
 10
72.19847142930527
 20
475.4705493679474
 42
2.414213562373095
 10
72.19847142930527
 20
479.99603276754135
 10
63.99603276754132
 20
488.1984714293053
 42
2.414213562373095
 10
59.47054936794741
 20
488.1984714293053
 10
38.36591601122291
 20
467.09383807258075
 42
2.414213562373095
 10
38.36591601122291
 20
462.56835467298686
  0
LWPOLYLINE
  5
EC
330
17
100
AcDbEntity
  8
COUPE
100
AcDbPolyline
 90
8
 70
1
 10
95.81583792093596
 20
503.613399259172
 42
2.414213562373095
 10
100.34132132052987
 20
503.613399259172
 10
121.44595467725438
 20
524.7180326158965
 42
2.414213562373095
 10
121.44595467725438
 20
529.2435160154904
 10
113.24351601549043
 20
537.4459546772543
 42
2.414213562373095
 10
108.71803261589652
 20
537.4459546772543
 10
87.61339925917201
 20
516.3413213205299
 42
2.414213562373095
 10
87.61339925917201
 20
511.81583792093596
  0
LWPOLYLINE
  5
ED
330
17
100
AcDbEntity
  8
COUPE
100
AcDbPolyline
 90
8
 70
1
 10
121.44595467725438
 20
462.56835467298686
 42
2.414213562373095
 10
121.44595467725438
 20
467.09383807258075
 10
100.34132132052987
 20
488.1984714293053
 42
2.414213562373095
 10
95.81583792093596
 20
488.1984714293053
 10
87.61339925917201
 20
479.99603276754135
 42
2.414213562373095
 10
87.61339925917201
 20
475.4705493679474
 10
108.7180326158965
 20
454.3659160112229
 42
2.414213562373095
 10
113.24351601549043
 20
454.3659160112229
  0
LWPOLYLINE
  5
EE
330
17
100
AcDbEntity
  8
COUPE
100
AcDbPolyline
 90
8
 70
1
 10
72.19847142930527
 20
511.81583792093596
 42
2.414213562373095
 10
72.19847142930527
 20
516.3413213205299
 10
51.09383807258077
 20
537.4459546772543
 42
2.414213562373095
 10
46.568354672986864
 20
537.4459546772543
 10
38.365916011222915
 20
529.2435160154904
 42
2.414213562373095
 10
38.365916011222915
 20
524.7180326158965
 10
59.47054936794741
 20
503.613399259172
 42
2.414213562373095
 10
63.99603276754132
 20
503.613399259172
  0
ENDSEC
  0
SECTION
  2
OBJECTS
  0
DICTIONARY
  5
A
330
0
100
AcDbDictionary
281
1
  3
ACAD_COLOR
350
B
  3
ACAD_GROUP
350
C
  3
ACAD_LAYOUT
350
D
  3
ACAD_MATERIAL
350
E
  3
ACAD_MLEADERSTYLE
350
F
  3
ACAD_MLINESTYLE
350
10
  3
ACAD_PLOTSETTINGS
350
11
  3
ACAD_PLOTSTYLENAME
350
12
  3
ACAD_SCALELIST
350
14
  3
ACAD_TABLESTYLE
350
15
  3
ACAD_VISUALSTYLE
350
16
  3
EZDXF_META
350
2D
  0
DICTIONARY
  5
B
330
A
100
AcDbDictionary
281
1
  0
DICTIONARY
  5
C
330
A
100
AcDbDictionary
281
1
  0
DICTIONARY
  5
D
330
A
100
AcDbDictionary
281
1
  3
Model
350
1A
  3
Layout1
350
1E
  0
DICTIONARY
  5
E
330
A
100
AcDbDictionary
281
1
  3
ByBlock
350
1F
  3
ByLayer
350
20
  3
Global
350
21
  0
DICTIONARY
  5
F
330
A
100
AcDbDictionary
281
1
  3
Standard
350
2C
  0
DICTIONARY
  5
10
330
A
100
AcDbDictionary
281
1
  3
Standard
350
22
  0
DICTIONARY
  5
11
330
A
100
AcDbDictionary
281
1
  0
ACDBDICTIONARYWDFLT
  5
12
330
A
100
AcDbDictionary
281
1
  3
Normal
350
13
100
AcDbDictionaryWithDefault
340
13
  0
ACDBPLACEHOLDER
  5
13
330
12
  0
DICTIONARY
  5
14
330
A
100
AcDbDictionary
281
1
  0
DICTIONARY
  5
15
330
A
100
AcDbDictionary
281
1
  0
DICTIONARY
  5
16
330
A
100
AcDbDictionary
281
1
  3
2dWireframe
350
5A
  3
Basic
350
5B
  3
Brighten
350
5C
  3
ColorChange
350
5D
  3
Conceptual
350
5E
  3
Dim
350
5F
  3
EdgeColorOff
350
60
  3
Facepattern
350
61
  3
Flat
350
62
  3
FlatWithEdges
350
63
  3
Gouraud
350
64
  3
GouraudWithEdges
350
65
  3
Hidden
350
66
  3
JitterOff
350
67
  3
Linepattern
350
68
  3
Modeling
350
69
  3
OverhangOff
350
6A
  3
Realistic
350
6B
  3
Shaded
350
6C
  3
Shaded with edges
350
6D
  3
Shades of Gray
350
6E
  3
Sketchy
350
6F
  3
Thicken
350
70
  3
Wireframe
350
71
  3
X-Ray
350
72
  0
LAYOUT
  5
1A
330
D
100
AcDbPlotSettings
  1

  4
A3
  6

 40
7.5
 41
20.0
 42
7.5
 43
20.0
 44
420.0
 45
297.0
 46
0.0
 47
0.0
 48
0.0
 49
0.0
140
0.0
141
0.0
142
1.0
143
1.0
 70
1024
 72
1
 73
0
 74
5
  7

 75
16
 76
0
 77
2
 78
300
147
1.0
148
0.0
149
0.0
100
AcDbLayout
  1
Model
 70
1
 71
0
 10
0.0
 20
0.0
 11
420.0
 21
297.0
 12
0.0
 22
0.0
 32
0.0
 14
1e+20
 24
1e+20
 34
1e+20
 15
-1e+20
 25
-1e+20
 35
-1e+20
146
0.0
 13
0.0
 23
0.0
 33
0.0
 16
1.0
 26
0.0
 36
0.0
 17
0.0
 27
1.0
 37
0.0
 76
1
330
17
  0
LAYOUT
  5
1E
330
D
100
AcDbPlotSettings
  1

  4
A3
  6

 40
7.5
 41
20.0
 42
7.5
 43
20.0
 44
420.0
 45
297.0
 46
0.0
 47
0.0
 48
0.0
 49
0.0
140
0.0
141
0.0
142
1.0
143
1.0
 70
0
 72
1
 73
0
 74
5
  7

 75
16
 76
0
 77
2
 78
300
147
1.0
148
0.0
149
0.0
100
AcDbLayout
  1
Layout1
 70
1
 71
1
 10
0.0
 20
0.0
 11
420.0
 21
297.0
 12
0.0
 22
0.0
 32
0.0
 14
1e+20
 24
1e+20
 34
1e+20
 15
-1e+20
 25
-1e+20
 35
-1e+20
146
0.0
 13
0.0
 23
0.0
 33
0.0
 16
1.0
 26
0.0
 36
0.0
 17
0.0
 27
1.0
 37
0.0
 76
1
330
1B
  0
MATERIAL
  5
1F
102
{ACAD_REACTORS
330
E
102
}
330
E
100
AcDbMaterial
  1
ByBlock
  2

 70
0
 40
1.0
 71
1
 41
1.0
 91
-1023410177
 42
1.0
 72
1
  3

 73
1
 74
1
 75
1
 44
0.5
 73
0
 45
1.0
 46
1.0
 77
1
  4

 78
1
 79
1
170
1
 48
1.0
171
1
  6

172
1
173
1
174
1
140
1.0
141
1.0
175
1
  7

176
1
177
1
178
1
143
1.0
179
1
  8

270
1
271
1
272
1
145
1.0
146
1.0
273
1
  9

274
1
275
1
276
1
 42
1.0
 72
1
  3

 73
1
 74
1
 75
1
 94
63
  0
MATERIAL
  5
20
102
{ACAD_REACTORS
330
E
102
}
330
E
100
AcDbMaterial
  1
ByLayer
  2

 70
0
 40
1.0
 71
1
 41
1.0
 91
-1023410177
 42
1.0
 72
1
  3

 73
1
 74
1
 75
1
 44
0.5
 73
0
 45
1.0
 46
1.0
 77
1
  4

 78
1
 79
1
170
1
 48
1.0
171
1
  6

172
1
173
1
174
1
140
1.0
141
1.0
175
1
  7

176
1
177
1
178
1
143
1.0
179
1
  8

270
1
271
1
272
1
145
1.0
146
1.0
273
1
  9

274
1
275
1
276
1
 42
1.0
 72
1
  3

 73
1
 74
1
 75
1
 94
63
  0
MATERIAL
  5
21
102
{ACAD_REACTORS
330
E
102
}
330
E
100
AcDbMaterial
  1
Global
  2

 70
0
 40
1.0
 71
1
 41
1.0
 91
-1023410177
 42
1.0
 72
1
  3

 73
1
 74
1
 75
1
 44
0.5
 73
0
 45
1.0
 46
1.0
 77
1
  4

 78
1
 79
1
170
1
 48
1.0
171
1
  6

172
1
173
1
174
1
140
1.0
141
1.0
175
1
  7

176
1
177
1
178
1
143
1.0
179
1
  8

270
1
271
1
272
1
145
1.0
146
1.0
273
1
  9

274
1
275
1
276
1
 42
1.0
 72
1
  3

 73
1
 74
1
 75
1
 94
63
  0
MLINESTYLE
  5
22
102
{ACAD_REACTORS
330
10
102
}
330
10
100
AcDbMlineStyle
  2
Standard
 70
0
  3

 62
256
 51
90.0
 52
90.0
 71
2
 49
0.5
 62
256
  6
BYLAYER
 49
-0.5
 62
256
  6
BYLAYER
  0
MLEADERSTYLE
  5
2C
102
{ACAD_REACTORS
330
F
102
}
330
F
100
AcDbMLeaderStyle
179
2
170
2
171
1
172
0
 90
2
 40
0.0
 41
0.0
173
1
 91
-1056964608
 92
-2
290
1
 42
2.0
291
1
 43
8.0
  3
Standard
 44
4.0
300

342
29
174
1
175
1
176
0
178
1
 93
-1056964608
 45
4.0
292
0
297
0
 46
4.0
 94
-1056964608
 47
1.0
 49
1.0
140
1.0
294
1
141
0.0
177
0
142
1.0
295
0
296
0
143
3.75
271
0
272
9
273
9
  0
DICTIONARY
  5
2D
330
A
100
AcDbDictionary
280
1
281
1
  3
CREATED_BY_EZDXF
350
2E
  3
WRITTEN_BY_EZDXF
350
F1
  0
DICTIONARYVAR
  5
2E
330
2D
100
DictionaryVariables
280
0
  1
1.4.4 @ 2026-10-03T06:22:41.772514+00:00
  0
VISUALSTYLE
  5
5A
102
{ACAD_REACTORS
330
16
102
}
330
16
100
AcDbVisualStyle
  2
2dWireframe
 70
4
 90
0
 40
0.6
 62
7
290
0
291
0
  0
VISUALSTYLE
  5
5B
102
{ACAD_REACTORS
330
16
102
}
330
16
100
AcDbVisualStyle
  2
Basic
 70
7
 90
1
 40
0.6
 62
7
290
0
291
1
  0
VISUALSTYLE
  5
5C
102
{ACAD_REACTORS
330
16
102
}
330
16
100
AcDbVisualStyle
  2
Brighten
 70
12
 90
2
 40
0.6
 62
7
290
0
291
1
  0
VISUALSTYLE
  5
5D
102
{ACAD_REACTORS
330
16
102
}
330
16
100
AcDbVisualStyle
  2
ColorChange
 70
16
 90
2
 40
0.6
 62
8
290
0
291
1
  0
VISUALSTYLE
  5
5E
102
{ACAD_REACTORS
330
16
102
}
330
16
100
AcDbVisualStyle
  2
Conceptual
 70
9
 90
3
 40
0.6
 62
7
290
0
291
0
  0
VISUALSTYLE
  5
5F
102
{ACAD_REACTORS
330
16
102
}
330
16
100
AcDbVisualStyle
  2
Dim
 70
11
 90
2
 40
0.6
 62
7
290
0
291
1
  0
VISUALSTYLE
  5
60
102
{ACAD_REACTORS
330
16
102
}
330
16
100
AcDbVisualStyle
  2
EdgeColorOff
 70
22
 90
2
 40
0.6
 62
7
290
0
291
1
  0
VISUALSTYLE
  5
61
102
{ACAD_REACTORS
330
16
102
}
330
16
100
AcDbVisualStyle
  2
Facepattern
 70
15
 90
2
 40
0.6
 62
7
290
0
291
1
  0
VISUALSTYLE
  5
62
102
{ACAD_REACTORS
330
16
102
}
330
16
100
AcDbVisualStyle
  2
Flat
 70
0
 90
2
 40
0.6
 62
7
290
0
291
1
  0
VISUALSTYLE
  5
63
102
{ACAD_REACTORS
330
16
102
}
330
16
100
AcDbVisualStyle
  2
FlatWithEdges
 70
1
 90
2
 40
0.6
 62
7
290
0
291
1
  0
VISUALSTYLE
  5
64
102
{ACAD_REACTORS
330
16
102
}
330
16
100
AcDbVisualStyle
  2
Gouraud
 70
2
 90
2
 40
0.6
 62
7
290
0
291
1
  0
VISUALSTYLE
  5
65
102
{ACAD_REACTORS
330
16
102
}
330
16
100
AcDbVisualStyle
  2
GouraudWithEdges
 70
3
 90
2
 40
0.6
 62
7
290
0
291
1
  0
VISUALSTYLE
  5
66
102
{ACAD_REACTORS
330
16
102
}
330
16
100
AcDbVisualStyle
  2
Hidden
 70
6
 90
1
 40
0.6
 62
7
290
0
291
0
  0
VISUALSTYLE
  5
67
102
{ACAD_REACTORS
330
16
102
}
330
16
100
AcDbVisualStyle
  2
JitterOff
 70
20
 90
2
 40
0.6
 62
7
290
0
291
1
  0
VISUALSTYLE
  5
68
102
{ACAD_REACTORS
330
16
102
}
330
16
100
AcDbVisualStyle
  2
Linepattern
 70
14
 90
2
 40
0.6
 62
7
290
0
291
1
  0
VISUALSTYLE
  5
69
102
{ACAD_REACTORS
330
16
102
}
330
16
100
AcDbVisualStyle
  2
Modeling
 70
10
 90
2
 40
0.6
 62
7
290
0
291
0
  0
VISUALSTYLE
  5
6A
102
{ACAD_REACTORS
330
16
102
}
330
16
100
AcDbVisualStyle
  2
OverhangOff
 70
21
 90
2
 40
0.6
 62
7
290
0
291
1
  0
VISUALSTYLE
  5
6B
102
{ACAD_REACTORS
330
16
102
}
330
16
100
AcDbVisualStyle
  2
Realistic
 70
8
 90
2
 40
0.6
 62
7
290
0
291
0
  0
VISUALSTYLE
  5
6C
102
{ACAD_REACTORS
330
16
102
}
330
16
100
AcDbVisualStyle
  2
Shaded
 70
27
 90
2
 40
0.6
 62
7
290
0
291
0
  0
VISUALSTYLE
  5
6D
102
{ACAD_REACTORS
330
16
102
}
330
16
100
AcDbVisualStyle
  2
Shaded with edges
 70
26
 90
2
 40
0.6
 62
7
290
0
291
0
  0
VISUALSTYLE
  5
6E
102
{ACAD_REACTORS
330
16
102
}
330
16
100
AcDbVisualStyle
  2
Shades of Gray
 70
23
 90
2
 40
0.6
 62
7
290
0
291
0
  0
VISUALSTYLE
  5
6F
102
{ACAD_REACTORS
330
16
102
}
330
16
100
AcDbVisualStyle
  2
Sketchy
 70
24
 90
1
 40
0.6
 62
7
290
0
291
0
  0
VISUALSTYLE
  5
70
102
{ACAD_REACTORS
330
16
102
}
330
16
100
AcDbVisualStyle
  2
Thicken
 70
13
 90
2
 40
0.6
 62
7
290
0
291
1
  0
VISUALSTYLE
  5
71
102
{ACAD_REACTORS
330
16
102
}
330
16
100
AcDbVisualStyle
  2
Wireframe
 70
5
 90
0
 40
0.6
 62
7
290
0
291
0
  0
VISUALSTYLE
  5
72
102
{ACAD_REACTORS
330
16
102
}
330
16
100
AcDbVisualStyle
  2
X-Ray
 70
25
 90
2
 40
0.5
 62
7
290
0
291
0
  0
DICTIONARYVAR
  5
F1
330
2D
100
DictionaryVariables
280
0
  1
1.4.4 @ 2026-10-03T06:22:41.797441+00:00
  0
ENDSEC
  0
EOF
