  0
SECTION
  2
HEADER
  9
$ACADVER
  1
AC1009
  9
$DWGCODEPAGE
  3
ANSI_1252
  9
$INSBASE
 10
0.0
 20
0.0
 30
0.0
  9
$EXTMIN
 10
0.0000
 20
0.0000
 30
0.0000
  9
$EXTMAX
 10
2440.0000
 20
1220.0000
 30
0.0000
  9
$LIMMIN
 10
0.0000
 20
0.0000
  9
$LIMMAX
 10
2440.0000
 20
1220.0000
  9
$ORTHOMODE
 70
0
  9
$REGENMODE
 70
1
  9
$FILLMODE
 70
1
  9
$DRAGMODE
 70
2
  9
$QTEXTMODE
 70
0
  9
$MIRRTEXT
 70
1
  9
$OSMODE
 70
20583
  9
$LTSCALE
 40
1.0
  9
$ATTMODE
 70
1
  9
$TEXTSIZE
 40
2.5
  9
$TRACEWID
 40
1.0
  9
$TEXTSTYLE
  7
Standard
  9
$CLAYER
  8
0
  9
$CELTYPE
  6
ByLayer
  9
$CECOLOR
 62
256
  9
$DIMSCALE
 40
1.0
  9
$DIMASZ
 40
2.5
  9
$DIMEXO
 40
0.625
  9
$DIMDLI
 40
3.75
  9
$DIMRND
 40
0.0
  9
$DIMDLE
 40
0.0
  9
$DIMEXE
 40
1.25
  9
$DIMTP
 40
0.0
  9
$DIMTM
 40
0.0
  9
$DIMTXT
 40
2.5
  9
$DIMCEN
 40
2.5
  9
$DIMTSZ
 40
0.0
  9
$DIMTOL
 70
0
  9
$DIMLIM
 70
0
  9
$DIMTIH
 70
0
  9
$DIMTOH
 70
0
  9
$DIMSE1
 70
0
  9
$DIMSE2
 70
0
  9
$DIMTAD
 70
1
  9
$DIMZIN
 70
8
  9
$DIMBLK
  1

  9
$DIMASO
 70
1
  9
$DIMSHO
 70
1
  9
$DIMPOST
  1

  9
$DIMAPOST
  1

  9
$DIMALT
 70
0
  9
$DIMALTD
 70
3
  9
$DIMALTF
 40
0.03937007874
  9
$DIMLFAC
 40
1.0
  9
$DIMTOFL
 70
1
  9
$DIMTVP
 40
0.0
  9
$DIMTIX
 70
0
  9
$DIMSOXD
 70
0
  9
$DIMSAH
 70
0
  9
$DIMBLK1
  1

  9
$DIMBLK2
  1

  9
$DIMSTYLE
  2
ISO-25
  9
$DIMCLRD
 70
0
  9
$DIMCLRE
 70
0
  9
$DIMCLRT
 70
0
  9
$DIMTFAC
 40
1.0
  9
$DIMGAP
 40
0.625
  9
$COORDS
 70
1
  9
$ATTDIA
 70
0
  9
$ATTREQ
 70
1
  9
$HANDLING
 70
1
  9
$LUNITS
 70
2
  9
$LUPREC
 70
4
  9
$SKETCHINC
 40
1.0
  9
$FILLETRAD
 40
10.0
  9
$AUNITS
 70
0
  9
$AUPREC
 70
2
  9
$MENU
  1
.
  9
$ELEVATION
 40
0.0
  9
$PELEVATION
 40
0.0
  9
$THICKNESS
 40
0.0
  9
$LIMCHECK
 70
0
  9
$CHAMFERA
 40
0.0
  9
$CHAMFERB
 40
0.0
  9
$SKPOLY
 70
0
  9
$TDCREATE
 40
2461317.280949074
  9
$TDUPDATE
 40
2461317.280949074
  9
$TDINDWG
 40
0.0
  9
$TDUSRTIMER
 40
0.0
  9
$USRTIMER
 70
1
  9
$ANGBASE
 50
0.0
  9
$ANGDIR
 70
0
  9
$PDMODE
 70
0
  9
$PDSIZE
 40
0.0
  9
$PLINEWID
 40
0.0
  9
$SPLFRAME
 70
0
  9
$SPLINETYPE
 70
6
  9
$SPLINESEGS
 70
8
  9
$HANDSEED
  5
3CC
  9
$SURFTAB1
 70
6
  9
$SURFTAB2
 70
6
  9
$SURFTYPE
 70
6
  9
$SURFU
 70
6
  9
$SURFV
 70
6
  9
$UCSNAME
  2

  9
$UCSORG
 10
0.0
 20
0.0
 30
0.0
  9
$UCSXDIR
 10
1.0
 20
0.0
 30
0.0
  9
$UCSYDIR
 10
0.0
 20
1.0
 30
0.0
  9
$PUCSNAME
  2

  9
$PUCSORG
 10
0.0
 20
0.0
 30
0.0
  9
$PUCSXDIR
 10
1.0
 20
0.0
 30
0.0
  9
$PUCSYDIR
 10
0.0
 20
1.0
 30
0.0
  9
$USERI1
 70
0
  9
$USERI2
 70
0
  9
$USERI3
 70
0
  9
$USERI4
 70
0
  9
$USERI5
 70
0
  9
$USERR1
 40
0.0
  9
$USERR2
 40
0.0
  9
$USERR3
 40
0.0
  9
$USERR4
 40
0.0
  9
$USERR5
 40
0.0
  9
$WORLDVIEW
 70
1
  9
$SHADEDGE
 70
3
  9
$SHADEDIF
 70
70
  9
$TILEMODE
 70
1
  9
$MAXACTVP
 70
64
  9
$PLIMCHECK
 70
0
  9
$PEXTMIN
 10
1e+20
 20
1e+20
 30
1e+20
  9
$PEXTMAX
 10
-1e+20
 20
-1e+20
 30
-1e+20
  9
$PLIMMIN
 10
0.0
 20
0.0
  9
$PLIMMAX
 10
420.0
 20
297.0
  9
$UNITMODE
 70
0
  9
$VISRETAIN
 70
1
  9
$PLINEGEN
 70
0
  9
$PSLTSCALE
 70
1
  0
ENDSEC
  0
SECTION
  2
TABLES
  0
TABLE
  2
VPORT
 70
1
  0
VPORT
  5
23
  2
*Active
 70
0
 10
0.0
 20
0.0
 11
1.0
 21
1.0
 12
0.0
 22
0.0
 13
0.0
 23
0.0
 14
0.5
 24
0.5
 15
0.5
 25
0.5
 16
0.0
 26
0.0
 36
1.0
 17
0.0
 27
0.0
 37
0.0
 40
1000.0
 41
1.34
 42
50.0
 43
0.0
 44
0.0
 50
0.0
 51
0.0
 71
0
 72
1000
 73
1
 74
3
 75
0
 76
0
 77
0
 78
0
  0
ENDTAB
  0
TABLE
  2
LTYPE
 70
3
  0
LTYPE
  5
24
  2
ByBlock
 70
0
  3

 72
65
 73
0
 40
0.0
  0
LTYPE
  5
25
  2
ByLayer
 70
0
  3

 72
65
 73
0
 40
0.0
  0
LTYPE
  5
26
  2
Continuous
 70
0
  3

 72
65
 73
0
 40
0.0
  0
ENDTAB
  0
TABLE
  2
LAYER
 70
5
  0
LAYER
  5
27
  2
0
 70
0
 62
7
  6
Continuous
  0
LAYER
  5
28
  2
Defpoints
 70
0
 62
7
  6
Continuous
  0
LAYER
  5
2D
  2
COUPE
 70
0
 62
1
  6
Continuous
  0
LAYER
  5
2E
  2
POCHE_KERF_15MM
 70
0
 62
5
  6
Continuous
  0
LAYER
  5
2F
  2
PLANCHE
 70
0
 62
8
  6
Continuous
  0
ENDTAB
  0
TABLE
  2
STYLE
 70
1
  0
STYLE
  5
29
  2
Standard
 70
0
 40
0.0
 41
1.0
 50
0.0
 71
0
 42
2.5
  3
txt
  4

  0
ENDTAB
  0
TABLE
  2
VIEW
 70
0
  0
ENDTAB
  0
TABLE
  2
UCS
 70
0
  0
ENDTAB
  0
TABLE
  2
APPID
 70
3
  0
APPID
  5
2A
  2
ACAD
 70
0
  0
APPID
  5
3CA
  2
HATCHBACKGROUNDCOLOR
 70
0
  0
APPID
  5
3CB
  2
EZDXF
 70
0
  0
ENDTAB
  0
TABLE
  2
DIMSTYLE
 70
1
  0
DIMSTYLE
105
2B
  2
Standard
 70
0
  3

  4

  5

  6

  7

 40
1.0
 41
2.5
 42
0.625
 43
3.75
 44
1.25
 45
0.0
 46
0.0
 47
0.0
 48
0.0
140
2.5
141
2.5
142
0.0
143
0.03937007874
144
1.0
145
0.0
146
1.0
147
0.625
 71
0
 72
0
 73
0
 74
0
 75
0
 76
0
 77
1
 78
8
170
0
171
3
172
1
173
0
174
0
175
0
176
0
177
0
178
0
  0
ENDTAB
  0
ENDSEC
  0
SECTION
  2
BLOCKS
  0
BLOCK
  5
18
  8
0
  2
$Model_Space
 70
0
 10
0.0
 20
0.0
 30
0.0
  3
$Model_Space
  1

1001
EZDXF
1000
CREATED_BY_EZDXF
1000
1.4.4 @ 2026-10-03T06:44:34.652005+00:00
1000
WRITTEN_BY_EZDXF
1000
1.4.4 @ 2026-10-03T06:44:34.696857+00:00
  0
ENDBLK
  5
19
  8
0
  0
BLOCK
  5
1C
  8
0
  2
$Paper_Space
 70
0
 10
0.0
 20
0.0
 30
0.0
  3
$Paper_Space
  1

  0
ENDBLK
  5
1D
  8
0
  0
ENDSEC
  0
SECTION
  2
ENTITIES
  0
POLYLINE
  5
30
  8
PLANCHE
 66
1
 10
0.0
 20
0.0
 30
0.0
 70
1
  0
VERTEX
  5
32
  8
PLANCHE
 10
0.0
 20
0.0
 30
0.0
 70
0
  0
VERTEX
  5
33
  8
PLANCHE
 10
2440.0
 20
0.0
 30
0.0
 70
0
  0
VERTEX
  5
34
  8
PLANCHE
 10
2440.0
 20
1220.0
 30
0.0
 70
0
  0
VERTEX
  5
35
  8
PLANCHE
 10
0.0
 20
1220.0
 30
0.0
 70
0
  0
SEQEND
  5
31
  8
PLANCHE
  0
POLYLINE
  5
36
  8
COUPE
 66
1
 10
0.0
 20
0.0
 30
0.0
 70
1
  0
VERTEX
  5
38
  8
COUPE
 10
806.388519066288
 20
19.826826462032813
 30
0.0
 70
0
  0
VERTEX
  5
39
  8
COUPE
 10
1143.5374487823392
 20
341.1220165774796
 30
0.0
 42
0.20517629136539733
 70
0
  0
VERTEX
  5
3A
  8
COUPE
 10
581.6225659222534
 20
581.8387678647363
 30
0.0
 42
0.20517629136539733
 70
0
  0
VERTEX
  5
3B
  8
COUPE
 10
19.707683062168257
 20
341.1220165774796
 30
0.0
 70
0
  0
VERTEX
  5
3C
  8
COUPE
 10
356.8566127782195
 20
19.826826462032813
 30
0.0
 42
-0.20517629136539733
 70
0
  0
VERTEX
  5
3D
  8
COUPE
 10
581.6225659222539
 20
116.11352697693547
 30
0.0
 42
-0.20517629136539733
 70
0
  0
SEQEND
  5
37
  8
COUPE
  0
POLYLINE
  5
3E
  8
POCHE_KERF_15MM
 66
1
 10
0.0
 20
0.0
 30
0.0
 70
1
  0
VERTEX
  5
40
  8
POCHE_KERF_15MM
 10
795.0238602581692
 20
26.88441134382612
 30
0.0
 70
0
  0
VERTEX
  5
41
  8
POCHE_KERF_15MM
 10
799.3015932157319
 20
22.677155617847294
 30
0.0
 70
0
  0
VERTEX
  5
42
  8
POCHE_KERF_15MM
 10
1130.2199552089219
 20
359.1388483597591
 30
0.0
 70
0
  0
VERTEX
  5
43
  8
POCHE_KERF_15MM
 10
1125.9422222513595
 20
363.34610408573803
 30
0.0
 70
0
  0
SEQEND
  5
3F
  8
POCHE_KERF_15MM
  0
POLYLINE
  5
44
  8
POCHE_KERF_15MM
 66
1
 10
0.0
 20
0.0
 30
0.0
 70
1
  0
VERTEX
  5
46
  8
POCHE_KERF_15MM
 10
787.7492969845347
 20
33.676920948153914
 30
0.0
 70
0
  0
VERTEX
  5
47
  8
POCHE_KERF_15MM
 10
792.1609900462141
 20
29.610354296846037
 30
0.0
 70
0
  0
VERTEX
  5
48
  8
POCHE_KERF_15MM
 10
1112.0135644636769
 20
376.6085727728638
 30
0.0
 70
0
  0
VERTEX
  5
49
  8
POCHE_KERF_15MM
 10
1107.6018714019974
 20
380.6751394241718
 30
0.0
 70
0
  0
SEQEND
  5
45
  8
POCHE_KERF_15MM
  0
POLYLINE
  5
4A
  8
POCHE_KERF_15MM
 66
1
 10
0.0
 20
0.0
 30
0.0
 70
1
  0
VERTEX
  5
4C
  8
POCHE_KERF_15MM
 10
780.2586514868602
 20
40.230369473561346
 30
0.0
 70
0
  0
VERTEX
  5
4D
  8
POCHE_KERF_15MM
 10
784.799679883983
 20
36.308754870298536
 30
0.0
 70
0
  0
VERTEX
  5
4E
  8
POCHE_KERF_15MM
 10
1093.2511659363017
 20
393.4797415687215
 30
0.0
 70
0
  0
VERTEX
  5
4F
  8
POCHE_KERF_15MM
 10
1088.710137539179
 20
397.4013561719842
 30
0.0
 70
0
  0
SEQEND
  5
4B
  8
POCHE_KERF_15MM
  0
POLYLINE
  5
50
  8
POCHE_KERF_15MM
 66
1
 10
0.0
 20
0.0
 30
0.0
 70
1
  0
VERTEX
  5
52
  8
POCHE_KERF_15MM
 10
772.5597761932625
 20
46.53788695357101
 30
0.0
 70
0
  0
VERTEX
  5
53
  8
POCHE_KERF_15MM
 10
777.2253795751918
 20
42.765335418796575
 30
0.0
 70
0
  0
VERTEX
  5
54
  8
POCHE_KERF_15MM
 10
1073.9524282102025
 20
409.73466873612546
 30
0.0
 70
0
  0
VERTEX
  5
55
  8
POCHE_KERF_15MM
 10
1069.286824828273
 20
413.50722027089995
 30
0.0
 70
0
  0
SEQEND
  5
51
  8
POCHE_KERF_15MM
  0
POLYLINE
  5
56
  8
POCHE_KERF_15MM
 66
1
 10
0.0
 20
0.0
 30
0.0
 70
1
  0
VERTEX
  5
58
  8
POCHE_KERF_15MM
 10
764.660741818721
 20
52.592861230709474
 30
0.0
 70
0
  0
VERTEX
  5
59
  8
POCHE_KERF_15MM
 10
769.4460292431223
 20
48.973327522361586
 30
0.0
 70
0
  0
VERTEX
  5
5A
  8
POCHE_KERF_15MM
 10
1054.1375821120532
 20
425.3563142686881
 30
0.0
 70
0
  0
VERTEX
  5
5B
  8
POCHE_KERF_15MM
 10
1049.352294687652
 20
428.97584797703604
 30
0.0
 70
0
  0
SEQEND
  5
57
  8
POCHE_KERF_15MM
  0
POLYLINE
  5
5C
  8
POCHE_KERF_15MM
 66
1
 10
0.0
 20
0.0
 30
0.0
 70
1
  0
VERTEX
  5
5E
  8
POCHE_KERF_15MM
 10
756.569828904564
 20
58.388944888018464
 30
0.0
 70
0
  0
VERTEX
  5
5F
  8
POCHE_KERF_15MM
 10
761.4697839645695
 20
54.92622335576569
 30
0.0
 70
0
  0
VERTEX
  5
60
  8
POCHE_KERF_15MM
 10
1033.8273995038626
 20
440.32830202784453
 30
0.0
 70
0
  0
VERTEX
  5
61
  8
POCHE_KERF_15MM
 10
1028.9274444438572
 20
443.7910235600973
 30
0.0
 70
0
  0
SEQEND
  5
5D
  8
POCHE_KERF_15MM
  0
POLYLINE
  5
62
  8
POCHE_KERF_15MM
 66
1
 10
0.0
 20
0.0
 30
0.0
 70
1
  0
VERTEX
  5
64
  8
POCHE_KERF_15MM
 10
748.2955191379945
 20
63.920061903038714
 30
0.0
 70
0
  0
VERTEX
  5
65
  8
POCHE_KERF_15MM
 10
753.305005220892
 20
60.617782510671105
 30
0.0
 70
0
  0
VERTEX
  5
66
  8
POCHE_KERF_15MM
 10
1013.043171507874
 20
454.63493690992414
 30
0.0
 70
0
  0
VERTEX
  5
67
  8
POCHE_KERF_15MM
 10
1008.0336854249764
 20
457.93721630229174
 30
0.0
 70
0
  0
SEQEND
  5
63
  8
POCHE_KERF_15MM
  0
POLYLINE
  5
68
  8
POCHE_KERF_15MM
 66
1
 10
0.0
 20
0.0
 30
0.0
 70
1
  0
VERTEX
  5
6A
  8
POCHE_KERF_15MM
 10
739.8464864607544
 20
69.18041401729161
 30
0.0
 70
0
  0
VERTEX
  5
6B
  8
POCHE_KERF_15MM
 10
744.9602521326882
 20
66.04203853743732
 30
0.0
 70
0
  0
VERTEX
  5
6C
  8
POCHE_KERF_15MM
 10
991.8066861871258
 20
468.2612212992952
 30
0.0
 70
0
  0
VERTEX
  5
6D
  8
POCHE_KERF_15MM
 10
986.692920515192
 20
471.3995967791496
 30
0.0
 70
0
  0
SEQEND
  5
69
  8
POCHE_KERF_15MM
  0
POLYLINE
  5
6E
  8
POCHE_KERF_15MM
 66
1
 10
0.0
 20
0.0
 30
0.0
 70
1
  0
VERTEX
  5
70
  8
POCHE_KERF_15MM
 10
731.2315879762504
 20
74.16448681458182
 30
0.0
 70
0
  0
VERTEX
  5
71
  8
POCHE_KERF_15MM
 10
736.444272487288
 20
71.19330519973771
 30
0.0
 70
0
  0
VERTEX
  5
72
  8
POCHE_KERF_15MM
 10
970.140205705071
 20
481.1928707903349
 30
0.0
 70
0
  0
VERTEX
  5
73
  8
POCHE_KERF_15MM
 10
964.9275211940333
 20
484.1640524051789
 30
0.0
 70
0
  0
SEQEND
  5
6F
  8
POCHE_KERF_15MM
  0
POLYLINE
  5
74
  8
POCHE_KERF_15MM
 66
1
 10
0.0
 20
0.0
 30
0.0
 70
1
  0
VERTEX
  5
76
  8
POCHE_KERF_15MM
 10
722.4598546646705
 20
78.86705550174798
 30
0.0
 70
0
  0
VERTEX
  5
77
  8
POCHE_KERF_15MM
 10
727.7659935684661
 20
76.06618243542977
 30
0.0
 70
0
  0
VERTEX
  5
78
  8
POCHE_KERF_15MM
 10
948.0664429881965
 20
493.416329161741
 30
0.0
 70
0
  0
VERTEX
  5
79
  8
POCHE_KERF_15MM
 10
942.7603040844009
 20
496.2172022280592
 30
0.0
 70
0
  0
SEQEND
  5
75
  8
POCHE_KERF_15MM
  0
POLYLINE
  5
7A
  8
POCHE_KERF_15MM
 66
1
 10
0.0
 20
0.0
 30
0.0
 70
1
  0
VERTEX
  5
7C
  8
POCHE_KERF_15MM
 10
713.5404819158258
 20
83.28319038580273
 30
0.0
 70
0
  0
VERTEX
  5
7D
  8
POCHE_KERF_15MM
 10
718.9345127979875
 20
80.65556201742831
 30
0.0
 70
0
  0
VERTEX
  5
7E
  8
POCHE_KERF_15MM
 10
925.6085379161108
 20
504.9187825874915
 30
0.0
 70
0
  0
VERTEX
  5
7F
  8
POCHE_KERF_15MM
 10
920.2145070339491
 20
507.5464109558659
 30
0.0
 70
0
  0
SEQEND
  5
7B
  8
POCHE_KERF_15MM
  0
POLYLINE
  5
80
  8
POCHE_KERF_15MM
 66
1
 10
0.0
 20
0.0
 30
0.0
 70
1
  0
VERTEX
  5
82
  8
POCHE_KERF_15MM
 10
704.4828198896436
 20
87.40826204171964
 30
0.0
 70
0
  0
VERTEX
  5
83
  8
POCHE_KERF_15MM
 10
709.959088198801
 20
84.95663290864985
 30
0.0
 70
0
  0
VERTEX
  5
84
  8
POCHE_KERF_15MM
 10
902.790033064055
 20
515.6881730695511
 30
0.0
 70
0
  0
VERTEX
  5
85
  8
POCHE_KERF_15MM
 10
897.3137647548974
 20
518.139802202621
 30
0.0
 70
0
  0
SEQEND
  5
81
  8
POCHE_KERF_15MM
  0
POLYLINE
  5
86
  8
POCHE_KERF_15MM
 66
1
 10
0.0
 20
0.0
 30
0.0
 70
1
  0
VERTEX
  5
88
  8
POCHE_KERF_15MM
 10
695.2963637144121
 20
91.23794616544971
 30
0.0
 70
0
  0
VERTEX
  5
89
  8
POCHE_KERF_15MM
 10
700.8491286898715
 20
88.96488630541266
 30
0.0
 70
0
  0
VERTEX
  5
8A
  8
POCHE_KERF_15MM
 10
879.6348490232706
 20
525.7132110782459
 30
0.0
 70
0
  0
VERTEX
  5
8B
  8
POCHE_KERF_15MM
 10
874.0820840478111
 20
527.986270938283
 30
0.0
 70
0
  0
SEQEND
  5
87
  8
POCHE_KERF_15MM
  0
POLYLINE
  5
8C
  8
POCHE_KERF_15MM
 66
1
 10
0.0
 20
0.0
 30
0.0
 70
1
  0
VERTEX
  5
8E
  8
POCHE_KERF_15MM
 10
685.9907435330597
 20
94.76822810708045
 30
0.0
 70
0
  0
VERTEX
  5
8F
  8
POCHE_KERF_15MM
 10
691.6141842228304
 20
92.67612036400617
 30
0.0
 70
0
  0
VERTEX
  5
90
  8
POCHE_KERF_15MM
 10
856.1672593250935
 20
534.9833873870539
 30
0.0
 70
0
  0
VERTEX
  5
91
  8
POCHE_KERF_15MM
 10
850.5438186353229
 20
537.0754951301283
 30
0.0
 70
0
  0
SEQEND
  5
8D
  8
POCHE_KERF_15MM
  0
POLYLINE
  5
92
  8
POCHE_KERF_15MM
 66
1
 10
0.0
 20
0.0
 30
0.0
 70
1
  0
VERTEX
  5
94
  8
POCHE_KERF_15MM
 10
676.5757144078945
 20
97.99540707938489
 30
0.0
 70
0
  0
VERTEX
  5
95
  8
POCHE_KERF_15MM
 10
682.2639357707814
 20
96.08644460547508
 30
0.0
 70
0
  0
VERTEX
  5
96
  8
POCHE_KERF_15MM
 10
832.4118649950611
 20
543.4889840894049
 30
0.0
 70
0
  0
VERTEX
  5
97
  8
POCHE_KERF_15MM
 10
826.7236436321741
 20
545.3979465633148
 30
0.0
 70
0
  0
SEQEND
  5
93
  8
POCHE_KERF_15MM
  0
POLYLINE
  5
98
  8
POCHE_KERF_15MM
 66
1
 10
0.0
 20
0.0
 30
0.0
 70
1
  0
VERTEX
  5
9A
  8
POCHE_KERF_15MM
 10
667.0611460943925
 20
100.91610003734941
 30
0.0
 70
0
  0
VERTEX
  5
9B
  8
POCHE_KERF_15MM
 10
672.8081851797558
 20
99.19228399400045
 30
0.0
 70
0
  0
VERTEX
  5
9C
  8
POCHE_KERF_15MM
 10
808.3935687637089
 20
551.2210847859421
 30
0.0
 70
0
  0
VERTEX
  5
9D
  8
POCHE_KERF_15MM
 10
802.6465296783457
 20
552.9449008292911
 30
0.0
 70
0
  0
SEQEND
  5
99
  8
POCHE_KERF_15MM
  0
POLYLINE
  5
9E
  8
POCHE_KERF_15MM
 66
1
 10
0.0
 20
0.0
 30
0.0
 70
1
  0
VERTEX
  5
A0
  8
POCHE_KERF_15MM
 10
657.4570126947553
 20
103.52724522461244
 30
0.0
 70
0
  0
VERTEX
  5
A1
  8
POCHE_KERF_15MM
 10
663.2568448934584
 20
101.9903826846022
 30
0.0
 70
0
  0
VERTEX
  5
A2
  8
POCHE_KERF_15MM
 10
784.1375489610898
 20
558.1715839315655
 30
0.0
 70
0
  0
VERTEX
  5
A3
  8
POCHE_KERF_15MM
 10
778.3377167623867
 20
559.7084464715758
 30
0.0
 70
0
  0
SEQEND
  5
9F
  8
POCHE_KERF_15MM
  0
POLYLINE
  5
A4
  8
POCHE_KERF_15MM
 66
1
 10
0.0
 20
0.0
 30
0.0
 70
1
  0
VERTEX
  5
A6
  8
POCHE_KERF_15MM
 10
647.7733822020772
 20
105.82610538309778
 30
0.0
 70
0
  0
VERTEX
  5
A7
  8
POCHE_KERF_15MM
 10
653.6199275620727
 20
104.47780743623478
 30
0.0
 70
0
  0
VERTEX
  5
A8
  8
POCHE_KERF_15MM
 10
759.6692331223815
 20
564.3331953324569
 30
0.0
 70
0
  0
VERTEX
  5
A9
  8
POCHE_KERF_15MM
 10
753.822687762386
 20
565.68149327932
 30
0.0
 70
0
  0
SEQEND
  5
A5
  8
POCHE_KERF_15MM
  0
POLYLINE
  5
AA
  8
POCHE_KERF_15MM
 66
1
 10
0.0
 20
0.0
 30
0.0
 70
1
  0
VERTEX
  5
AC
  8
POCHE_KERF_15MM
 10
638.0204059460905
 20
107.81027062247603
 30
0.0
 70
0
  0
VERTEX
  5
AD
  8
POCHE_KERF_15MM
 10
643.907535546021
 20
106.65195068669749
 30
0.0
 70
0
  0
VERTEX
  5
AE
  8
POCHE_KERF_15MM
 10
735.0142713322566
 20
569.6994597841829
 30
0.0
 70
0
  0
VERTEX
  5
AF
  8
POCHE_KERF_15MM
 10
729.1271417323261
 20
570.8577797199614
 30
0.0
 70
0
  0
SEQEND
  5
AB
  8
POCHE_KERF_15MM
  0
POLYLINE
  5
B0
  8
POCHE_KERF_15MM
 66
1
 10
0.0
 20
0.0
 30
0.0
 70
1
  0
VERTEX
  5
B2
  8
POCHE_KERF_15MM
 10
628.2083079515471
 20
109.47766094644787
 30
0.0
 70
0
  0
VERTEX
  5
B3
  8
POCHE_KERF_15MM
 10
634.1298503256808
 20
108.51053328613663
 30
0.0
 70
0
  0
VERTEX
  5
B4
  8
POCHE_KERF_15MM
 10
710.1985093359506
 20
574.2647518428643
 30
0.0
 70
0
  0
VERTEX
  5
B5
  8
POCHE_KERF_15MM
 10
704.2769669618169
 20
575.2318795031755
 30
0.0
 70
0
  0
SEQEND
  5
B1
  8
POCHE_KERF_15MM
  0
POLYLINE
  5
B6
  8
POCHE_KERF_15MM
 66
1
 10
0.0
 20
0.0
 30
0.0
 70
1
  0
VERTEX
  5
B8
  8
POCHE_KERF_15MM
 10
618.3473742203947
 20
110.82652843319991
 30
0.0
 70
0
  0
VERTEX
  5
B9
  8
POCHE_KERF_15MM
 10
624.29712182816
 20
110.05160688627362
 30
0.0
 70
0
  0
VERTEX
  5
BA
  8
POCHE_KERF_15MM
 10
685.2479614452204
 20
578.0242857223185
 30
0.0
 70
0
  0
VERTEX
  5
BB
  8
POCHE_KERF_15MM
 10
679.2982138374551
 20
578.7992072692449
 30
0.0
 70
0
  0
SEQEND
  5
B7
  8
POCHE_KERF_15MM
  0
POLYLINE
  5
BC
  8
POCHE_KERF_15MM
 66
1
 10
0.0
 20
0.0
 30
0.0
 70
1
  0
VERTEX
  5
BE
  8
POCHE_KERF_15MM
 10
608.4479419489821
 20
111.85545906774752
 30
0.0
 70
0
  0
VERTEX
  5
BF
  8
POCHE_KERF_15MM
 10
614.4196576823198
 20
111.27355598285413
 30
0.0
 70
0
  0
VERTEX
  5
C0
  8
POCHE_KERF_15MM
 10
660.1887832675976
 20
580.9741203109884
 30
0.0
 70
0
  0
VERTEX
  5
C1
  8
POCHE_KERF_15MM
 10
654.21706753426
 20
581.5560233958818
 30
0.0
 70
0
  0
SEQEND
  5
BD
  8
POCHE_KERF_15MM
  0
POLYLINE
  5
C2
  8
POCHE_KERF_15MM
 66
1
 10
0.0
 20
0.0
 30
0.0
 70
1
  0
VERTEX
  5
C4
  8
POCHE_KERF_15MM
 10
598.5203886915979
 20
112.5633742242436
 30
0.0
 70
0
  0
VERTEX
  5
C5
  8
POCHE_KERF_15MM
 10
604.5078124133079
 20
112.17509960917846
 30
0.0
 70
0
  0
VERTEX
  5
C6
  8
POCHE_KERF_15MM
 10
635.047244287516
 20
583.1111633034014
 30
0.0
 70
0
  0
VERTEX
  5
C7
  8
POCHE_KERF_15MM
 10
629.059820565806
 20
583.4994379184667
 30
0.0
 70
0
  0
SEQEND
  5
C3
  8
POCHE_KERF_15MM
  0
POLYLINE
  5
C8
  8
POCHE_KERF_15MM
 66
1
 10
0.0
 20
0.0
 30
0.0
 70
1
  0
VERTEX
  5
CA
  8
POCHE_KERF_15MM
 10
588.575121481702
 20
112.94953179669996
 30
0.0
 70
0
  0
VERTEX
  5
CB
  8
POCHE_KERF_15MM
 10
594.5719765879331
 20
112.75529267893548
 30
0.0
 70
0
  0
VERTEX
  5
CC
  8
POCHE_KERF_15MM
 10
609.8497003280696
 20
584.4331744418275
 30
0.0
 70
0
  0
VERTEX
  5
CD
  8
POCHE_KERF_15MM
 10
603.8528452218385
 20
584.627413559592
 30
0.0
 70
0
  0
SEQEND
  5
C9
  8
POCHE_KERF_15MM
  0
POLYLINE
  5
CE
  8
POCHE_KERF_15MM
 66
1
 10
0.0
 20
0.0
 30
0.0
 70
1
  0
VERTEX
  5
D0
  8
POCHE_KERF_15MM
 10
578.6225659222538
 20
113.01352697693545
 30
0.0
 70
0
  0
VERTEX
  5
D1
  8
POCHE_KERF_15MM
 10
584.6225659222538
 20
113.01352697693545
 30
0.0
 70
0
  0
VERTEX
  5
D2
  8
POCHE_KERF_15MM
 10
584.6225659222538
 20
584.9387678647362
 30
0.0
 70
0
  0
VERTEX
  5
D3
  8
POCHE_KERF_15MM
 10
578.6225659222538
 20
584.9387678647362
 30
0.0
 70
0
  0
SEQEND
  5
CF
  8
POCHE_KERF_15MM
  0
POLYLINE
  5
D4
  8
POCHE_KERF_15MM
 66
1
 10
0.0
 20
0.0
 30
0.0
 70
1
  0
VERTEX
  5
D6
  8
POCHE_KERF_15MM
 10
568.6731552565745
 20
112.75529267893548
 30
0.0
 70
0
  0
VERTEX
  5
D7
  8
POCHE_KERF_15MM
 10
574.6700103628057
 20
112.94953179669996
 30
0.0
 70
0
  0
VERTEX
  5
D8
  8
POCHE_KERF_15MM
 10
559.3922866226693
 20
584.627413559592
 30
0.0
 70
0
  0
VERTEX
  5
D9
  8
POCHE_KERF_15MM
 10
553.3954315164382
 20
584.4331744418275
 30
0.0
 70
0
  0
SEQEND
  5
D5
  8
POCHE_KERF_15MM
  0
POLYLINE
  5
DA
  8
POCHE_KERF_15MM
 66
1
 10
0.0
 20
0.0
 30
0.0
 70
1
  0
VERTEX
  5
DC
  8
POCHE_KERF_15MM
 10
558.7373194311997
 20
112.17509960917846
 30
0.0
 70
0
  0
VERTEX
  5
DD
  8
POCHE_KERF_15MM
 10
564.7247431529097
 20
112.5633742242436
 30
0.0
 70
0
  0
VERTEX
  5
DE
  8
POCHE_KERF_15MM
 10
534.1853112787016
 20
583.4994379184667
 30
0.0
 70
0
  0
VERTEX
  5
DF
  8
POCHE_KERF_15MM
 10
528.1978875569915
 20
583.1111633034014
 30
0.0
 70
0
  0
SEQEND
  5
DB
  8
POCHE_KERF_15MM
  0
POLYLINE
  5
E0
  8
POCHE_KERF_15MM
 66
1
 10
0.0
 20
0.0
 30
0.0
 70
1
  0
VERTEX
  5
E2
  8
POCHE_KERF_15MM
 10
548.8254741621879
 20
111.27355598285413
 30
0.0
 70
0
  0
VERTEX
  5
E3
  8
POCHE_KERF_15MM
 10
554.7971898955254
 20
111.85545906774752
 30
0.0
 70
0
  0
VERTEX
  5
E4
  8
POCHE_KERF_15MM
 10
509.02806431024766
 20
581.5560233958818
 30
0.0
 70
0
  0
VERTEX
  5
E5
  8
POCHE_KERF_15MM
 10
503.05634857691007
 20
580.9741203109884
 30
0.0
 70
0
  0
SEQEND
  5
E1
  8
POCHE_KERF_15MM
  0
POLYLINE
  5
E6
  8
POCHE_KERF_15MM
 66
1
 10
0.0
 20
0.0
 30
0.0
 70
1
  0
VERTEX
  5
E8
  8
POCHE_KERF_15MM
 10
538.9480100163476
 20
110.05160688627362
 30
0.0
 70
0
  0
VERTEX
  5
E9
  8
POCHE_KERF_15MM
 10
544.8977576241128
 20
110.82652843319991
 30
0.0
 70
0
  0
VERTEX
  5
EA
  8
POCHE_KERF_15MM
 10
483.9469180070525
 20
578.7992072692449
 30
0.0
 70
0
  0
VERTEX
  5
EB
  8
POCHE_KERF_15MM
 10
477.9971703992872
 20
578.0242857223185
 30
0.0
 70
0
  0
SEQEND
  5
E7
  8
POCHE_KERF_15MM
  0
POLYLINE
  5
EC
  8
POCHE_KERF_15MM
 66
1
 10
0.0
 20
0.0
 30
0.0
 70
1
  0
VERTEX
  5
EE
  8
POCHE_KERF_15MM
 10
529.1152815188268
 20
108.51053328613663
 30
0.0
 70
0
  0
VERTEX
  5
EF
  8
POCHE_KERF_15MM
 10
535.0368238929606
 20
109.47766094644787
 30
0.0
 70
0
  0
VERTEX
  5
F0
  8
POCHE_KERF_15MM
 10
458.9681648826908
 20
575.2318795031755
 30
0.0
 70
0
  0
VERTEX
  5
F1
  8
POCHE_KERF_15MM
 10
453.0466225085571
 20
574.2647518428643
 30
0.0
 70
0
  0
SEQEND
  5
ED
  8
POCHE_KERF_15MM
  0
POLYLINE
  5
F2
  8
POCHE_KERF_15MM
 66
1
 10
0.0
 20
0.0
 30
0.0
 70
1
  0
VERTEX
  5
F4
  8
POCHE_KERF_15MM
 10
519.3375962984866
 20
106.65195068669749
 30
0.0
 70
0
  0
VERTEX
  5
F5
  8
POCHE_KERF_15MM
 10
525.2247258984172
 20
107.81027062247603
 30
0.0
 70
0
  0
VERTEX
  5
F6
  8
POCHE_KERF_15MM
 10
434.11799011218164
 20
570.8577797199615
 30
0.0
 70
0
  0
VERTEX
  5
F7
  8
POCHE_KERF_15MM
 10
428.2308605122511
 20
569.699459784183
 30
0.0
 70
0
  0
SEQEND
  5
F3
  8
POCHE_KERF_15MM
  0
POLYLINE
  5
F8
  8
POCHE_KERF_15MM
 66
1
 10
0.0
 20
0.0
 30
0.0
 70
1
  0
VERTEX
  5
FA
  8
POCHE_KERF_15MM
 10
509.625204282435
 20
104.47780743623484
 30
0.0
 70
0
  0
VERTEX
  5
FB
  8
POCHE_KERF_15MM
 10
515.4717496424304
 20
105.82610538309784
 30
0.0
 70
0
  0
VERTEX
  5
FC
  8
POCHE_KERF_15MM
 10
409.4224440821217
 20
565.6814932793201
 30
0.0
 70
0
  0
VERTEX
  5
FD
  8
POCHE_KERF_15MM
 10
403.57589872212617
 20
564.333195332457
 30
0.0
 70
0
  0
SEQEND
  5
F9
  8
POCHE_KERF_15MM
  0
POLYLINE
  5
FE
  8
POCHE_KERF_15MM
 66
1
 10
0.0
 20
0.0
 30
0.0
 70
1
  0
VERTEX
  5
100
  8
POCHE_KERF_15MM
 10
499.98828695104925
 20
101.9903826846022
 30
0.0
 70
0
  0
VERTEX
  5
101
  8
POCHE_KERF_15MM
 10
505.78811914975233
 20
103.52724522461244
 30
0.0
 70
0
  0
VERTEX
  5
102
  8
POCHE_KERF_15MM
 10
384.90741508212096
 20
559.7084464715758
 30
0.0
 70
0
  0
VERTEX
  5
103
  8
POCHE_KERF_15MM
 10
379.1075828834178
 20
558.1715839315655
 30
0.0
 70
0
  0
SEQEND
  5
FF
  8
POCHE_KERF_15MM
  0
POLYLINE
  5
104
  8
POCHE_KERF_15MM
 66
1
 10
0.0
 20
0.0
 30
0.0
 70
1
  0
VERTEX
  5
106
  8
POCHE_KERF_15MM
 10
490.4369466647519
 20
99.19228399400045
 30
0.0
 70
0
  0
VERTEX
  5
107
  8
POCHE_KERF_15MM
 10
496.18398575011514
 20
100.91610003734941
 30
0.0
 70
0
  0
VERTEX
  5
108
  8
POCHE_KERF_15MM
 10
360.59860216616187
 20
552.9449008292912
 30
0.0
 70
0
  0
VERTEX
  5
109
  8
POCHE_KERF_15MM
 10
354.85156308079866
 20
551.2210847859423
 30
0.0
 70
0
  0
SEQEND
  5
105
  8
POCHE_KERF_15MM
  0
POLYLINE
  5
10A
  8
POCHE_KERF_15MM
 66
1
 10
0.0
 20
0.0
 30
0.0
 70
1
  0
VERTEX
  5
10C
  8
POCHE_KERF_15MM
 10
480.9811960737262
 20
96.08644460547508
 30
0.0
 70
0
  0
VERTEX
  5
10D
  8
POCHE_KERF_15MM
 10
486.6694174366132
 20
97.99540707938489
 30
0.0
 70
0
  0
VERTEX
  5
10E
  8
POCHE_KERF_15MM
 10
336.5214882123335
 20
545.3979465633148
 30
0.0
 70
0
  0
VERTEX
  5
10F
  8
POCHE_KERF_15MM
 10
330.8332668494465
 20
543.4889840894049
 30
0.0
 70
0
  0
SEQEND
  5
10B
  8
POCHE_KERF_15MM
  0
POLYLINE
  5
110
  8
POCHE_KERF_15MM
 66
1
 10
0.0
 20
0.0
 30
0.0
 70
1
  0
VERTEX
  5
112
  8
POCHE_KERF_15MM
 10
471.63094762167725
 20
92.67612036400621
 30
0.0
 70
0
  0
VERTEX
  5
113
  8
POCHE_KERF_15MM
 10
477.25438831144794
 20
94.76822810708049
 30
0.0
 70
0
  0
VERTEX
  5
114
  8
POCHE_KERF_15MM
 10
312.70131320918506
 20
537.0754951301284
 30
0.0
 70
0
  0
VERTEX
  5
115
  8
POCHE_KERF_15MM
 10
307.0778725194144
 20
534.983387387054
 30
0.0
 70
0
  0
SEQEND
  5
111
  8
POCHE_KERF_15MM
  0
POLYLINE
  5
116
  8
POCHE_KERF_15MM
 66
1
 10
0.0
 20
0.0
 30
0.0
 70
1
  0
VERTEX
  5
118
  8
POCHE_KERF_15MM
 10
462.3960031546361
 20
88.96488630541272
 30
0.0
 70
0
  0
VERTEX
  5
119
  8
POCHE_KERF_15MM
 10
467.94876813009546
 20
91.23794616544977
 30
0.0
 70
0
  0
VERTEX
  5
11A
  8
POCHE_KERF_15MM
 10
289.16304779669645
 20
527.9862709382832
 30
0.0
 70
0
  0
VERTEX
  5
11B
  8
POCHE_KERF_15MM
 10
283.6102828212371
 20
525.713211078246
 30
0.0
 70
0
  0
SEQEND
  5
117
  8
POCHE_KERF_15MM
  0
POLYLINE
  5
11C
  8
POCHE_KERF_15MM
 66
1
 10
0.0
 20
0.0
 30
0.0
 70
1
  0
VERTEX
  5
11E
  8
POCHE_KERF_15MM
 10
453.28604364570657
 20
84.95663290864991
 30
0.0
 70
0
  0
VERTEX
  5
11F
  8
POCHE_KERF_15MM
 10
458.7623119548641
 20
87.4082620417197
 30
0.0
 70
0
  0
VERTEX
  5
120
  8
POCHE_KERF_15MM
 10
265.93136708961015
 20
518.1398022026211
 30
0.0
 70
0
  0
VERTEX
  5
121
  8
POCHE_KERF_15MM
 10
260.45509878045254
 20
515.6881730695512
 30
0.0
 70
0
  0
SEQEND
  5
11D
  8
POCHE_KERF_15MM
  0
POLYLINE
  5
122
  8
POCHE_KERF_15MM
 66
1
 10
0.0
 20
0.0
 30
0.0
 70
1
  0
VERTEX
  5
124
  8
POCHE_KERF_15MM
 10
444.31061904652006
 20
80.65556201742837
 30
0.0
 70
0
  0
VERTEX
  5
125
  8
POCHE_KERF_15MM
 10
449.7046499286817
 20
83.28319038580278
 30
0.0
 70
0
  0
VERTEX
  5
126
  8
POCHE_KERF_15MM
 10
243.03062481055858
 20
507.546410955866
 30
0.0
 70
0
  0
VERTEX
  5
127
  8
POCHE_KERF_15MM
 10
237.63659392839688
 20
504.9187825874916
 30
0.0
 70
0
  0
SEQEND
  5
123
  8
POCHE_KERF_15MM
  0
POLYLINE
  5
128
  8
POCHE_KERF_15MM
 66
1
 10
0.0
 20
0.0
 30
0.0
 70
1
  0
VERTEX
  5
12A
  8
POCHE_KERF_15MM
 10
435.47913827604157
 20
76.06618243542977
 30
0.0
 70
0
  0
VERTEX
  5
12B
  8
POCHE_KERF_15MM
 10
440.7852771798372
 20
78.86705550174798
 30
0.0
 70
0
  0
VERTEX
  5
12C
  8
POCHE_KERF_15MM
 10
220.4848277601067
 20
496.2172022280592
 30
0.0
 70
0
  0
VERTEX
  5
12D
  8
POCHE_KERF_15MM
 10
215.17868885631108
 20
493.416329161741
 30
0.0
 70
0
  0
SEQEND
  5
129
  8
POCHE_KERF_15MM
  0
POLYLINE
  5
12E
  8
POCHE_KERF_15MM
 66
1
 10
0.0
 20
0.0
 30
0.0
 70
1
  0
VERTEX
  5
130
  8
POCHE_KERF_15MM
 10
426.8008593572195
 20
71.19330519973771
 30
0.0
 70
0
  0
VERTEX
  5
131
  8
POCHE_KERF_15MM
 10
432.01354386825716
 20
74.16448681458182
 30
0.0
 70
0
  0
VERTEX
  5
132
  8
POCHE_KERF_15MM
 10
198.31761065047434
 20
484.1640524051789
 30
0.0
 70
0
  0
VERTEX
  5
133
  8
POCHE_KERF_15MM
 10
193.10492613943657
 20
481.1928707903349
 30
0.0
 70
0
  0
SEQEND
  5
12F
  8
POCHE_KERF_15MM
  0
POLYLINE
  5
134
  8
POCHE_KERF_15MM
 66
1
 10
0.0
 20
0.0
 30
0.0
 70
1
  0
VERTEX
  5
136
  8
POCHE_KERF_15MM
 10
418.28487971181954
 20
66.04203853743732
 30
0.0
 70
0
  0
VERTEX
  5
137
  8
POCHE_KERF_15MM
 10
423.3986453837534
 20
69.18041401729161
 30
0.0
 70
0
  0
VERTEX
  5
138
  8
POCHE_KERF_15MM
 10
176.5522113293156
 20
471.3995967791496
 30
0.0
 70
0
  0
VERTEX
  5
139
  8
POCHE_KERF_15MM
 10
171.43844565738178
 20
468.2612212992952
 30
0.0
 70
0
  0
SEQEND
  5
135
  8
POCHE_KERF_15MM
  0
POLYLINE
  5
13A
  8
POCHE_KERF_15MM
 66
1
 10
0.0
 20
0.0
 30
0.0
 70
1
  0
VERTEX
  5
13C
  8
POCHE_KERF_15MM
 10
409.94012662361564
 20
60.617782510671105
 30
0.0
 70
0
  0
VERTEX
  5
13D
  8
POCHE_KERF_15MM
 10
414.94961270651316
 20
63.920061903038714
 30
0.0
 70
0
  0
VERTEX
  5
13E
  8
POCHE_KERF_15MM
 10
155.21144641953106
 20
457.93721630229163
 30
0.0
 70
0
  0
VERTEX
  5
13F
  8
POCHE_KERF_15MM
 10
150.20196033663353
 20
454.634936909924
 30
0.0
 70
0
  0
SEQEND
  5
13B
  8
POCHE_KERF_15MM
  0
POLYLINE
  5
140
  8
POCHE_KERF_15MM
 66
1
 10
0.0
 20
0.0
 30
0.0
 70
1
  0
VERTEX
  5
142
  8
POCHE_KERF_15MM
 10
401.7753478799381
 20
54.92622335576572
 30
0.0
 70
0
  0
VERTEX
  5
143
  8
POCHE_KERF_15MM
 10
406.6753029399436
 20
58.38894488801849
 30
0.0
 70
0
  0
VERTEX
  5
144
  8
POCHE_KERF_15MM
 10
134.3176874006505
 20
443.7910235600974
 30
0.0
 70
0
  0
VERTEX
  5
145
  8
POCHE_KERF_15MM
 10
129.41773234064502
 20
440.32830202784464
 30
0.0
 70
0
  0
SEQEND
  5
141
  8
POCHE_KERF_15MM
  0
POLYLINE
  5
146
  8
POCHE_KERF_15MM
 66
1
 10
0.0
 20
0.0
 30
0.0
 70
1
  0
VERTEX
  5
148
  8
POCHE_KERF_15MM
 10
393.79910260138536
 20
48.97332752236167
 30
0.0
 70
0
  0
VERTEX
  5
149
  8
POCHE_KERF_15MM
 10
398.58439002578666
 20
52.59286123070956
 30
0.0
 70
0
  0
VERTEX
  5
14A
  8
POCHE_KERF_15MM
 10
113.89283715685596
 20
428.97584797703627
 30
0.0
 70
0
  0
VERTEX
  5
14B
  8
POCHE_KERF_15MM
 10
109.10754973245466
 20
425.3563142686883
 30
0.0
 70
0
  0
SEQEND
  5
147
  8
POCHE_KERF_15MM
  0
POLYLINE
  5
14C
  8
POCHE_KERF_15MM
 66
1
 10
0.0
 20
0.0
 30
0.0
 70
1
  0
VERTEX
  5
14E
  8
POCHE_KERF_15MM
 10
386.0197522693157
 20
42.765335418796624
 30
0.0
 70
0
  0
VERTEX
  5
14F
  8
POCHE_KERF_15MM
 10
390.6853556512452
 20
46.53788695357106
 30
0.0
 70
0
  0
VERTEX
  5
150
  8
POCHE_KERF_15MM
 10
93.95830701623474
 20
413.50722027090006
 30
0.0
 70
0
  0
VERTEX
  5
151
  8
POCHE_KERF_15MM
 10
89.29270363430537
 20
409.73466873612557
 30
0.0
 70
0
  0
SEQEND
  5
14D
  8
POCHE_KERF_15MM
  0
POLYLINE
  5
152
  8
POCHE_KERF_15MM
 66
1
 10
0.0
 20
0.0
 30
0.0
 70
1
  0
VERTEX
  5
154
  8
POCHE_KERF_15MM
 10
378.4454519605246
 20
36.30875487029859
 30
0.0
 70
0
  0
VERTEX
  5
155
  8
POCHE_KERF_15MM
 10
382.9864803576474
 20
40.2303694735614
 30
0.0
 70
0
  0
VERTEX
  5
156
  8
POCHE_KERF_15MM
 10
74.53499430532885
 20
397.40135617198433
 30
0.0
 70
0
  0
VERTEX
  5
157
  8
POCHE_KERF_15MM
 10
69.99396590820596
 20
393.47974156872164
 30
0.0
 70
0
  0
SEQEND
  5
153
  8
POCHE_KERF_15MM
  0
POLYLINE
  5
158
  8
POCHE_KERF_15MM
 66
1
 10
0.0
 20
0.0
 30
0.0
 70
1
  0
VERTEX
  5
15A
  8
POCHE_KERF_15MM
 10
371.08414179829356
 20
29.610354296846122
 30
0.0
 70
0
  0
VERTEX
  5
15B
  8
POCHE_KERF_15MM
 10
375.495834859973
 20
33.676920948154
 30
0.0
 70
0
  0
VERTEX
  5
15C
  8
POCHE_KERF_15MM
 10
55.64326044251028
 20
380.675139424172
 30
0.0
 70
0
  0
VERTEX
  5
15D
  8
POCHE_KERF_15MM
 10
51.23156738083084
 20
376.608572772864
 30
0.0
 70
0
  0
SEQEND
  5
159
  8
POCHE_KERF_15MM
  0
POLYLINE
  5
15E
  8
POCHE_KERF_15MM
 66
1
 10
0.0
 20
0.0
 30
0.0
 70
1
  0
VERTEX
  5
160
  8
POCHE_KERF_15MM
 10
363.94353862877574
 20
22.677155617847347
 30
0.0
 70
0
  0
VERTEX
  5
161
  8
POCHE_KERF_15MM
 10
368.22127158633845
 20
26.884411343826173
 30
0.0
 70
0
  0
VERTEX
  5
162
  8
POCHE_KERF_15MM
 10
37.30290959314843
 20
363.34610408573815
 30
0.0
 70
0
  0
VERTEX
  5
163
  8
POCHE_KERF_15MM
 10
33.02517663558578
 20
359.1388483597592
 30
0.0
 70
0
  0
SEQEND
  5
15F
  8
POCHE_KERF_15MM
  0
POLYLINE
  5
164
  8
POCHE_KERF_15MM
 66
1
 10
0.0
 20
0.0
 30
0.0
 70
1
  0
VERTEX
  5
166
  8
POCHE_KERF_15MM
 10
806.2140039130649
 20
15.516426891077042
 30
0.0
 70
0
  0
VERTEX
  5
167
  8
POCHE_KERF_15MM
 10
802.0747153981932
 20
19.85996123428792
 30
0.0
 70
0
  0
VERTEX
  5
168
  8
POCHE_KERF_15MM
 10
1143.7119639355624
 20
345.4324161484354
 30
0.0
 70
0
  0
VERTEX
  5
169
  8
POCHE_KERF_15MM
 10
1147.851252450434
 20
341.0888818052245
 30
0.0
 70
0
  0
SEQEND
  5
165
  8
POCHE_KERF_15MM
  0
POLYLINE
  5
16A
  8
POCHE_KERF_15MM
 66
1
 10
0.0
 20
0.0
 30
0.0
 70
1
  0
VERTEX
  5
16C
  8
POCHE_KERF_15MM
 10
357.03112793144265
 20
15.516426891077042
 30
0.0
 70
0
  0
VERTEX
  5
16D
  8
POCHE_KERF_15MM
 10
361.1704164463143
 20
19.85996123428792
 30
0.0
 70
0
  0
VERTEX
  5
16E
  8
POCHE_KERF_15MM
 10
19.533167908945114
 20
345.4324161484354
 30
0.0
 70
0
  0
VERTEX
  5
16F
  8
POCHE_KERF_15MM
 10
15.39387939407349
 20
341.0888818052245
 30
0.0
 70
0
  0
SEQEND
  5
16B
  8
POCHE_KERF_15MM
  0
CIRCLE
  5
170
  8
COUPE
 10
263.5
 20
795.5
 30
0.0
 40
245.5
  0
CIRCLE
  5
171
  8
COUPE
 10
263.5
 20
795.5
 30
0.0
 40
200.5
  0
CIRCLE
  5
172
  8
COUPE
 10
701.0
 20
981.0
 30
0.0
 40
215.0
  0
CIRCLE
  5
173
  8
COUPE
 10
701.0
 20
981.0
 30
0.0
 40
170.0
  0
CIRCLE
  5
174
  8
COUPE
 10
999.0
 20
691.0
 30
0.0
 40
185.0
  0
CIRCLE
  5
175
  8
COUPE
 10
999.0
 20
691.0
 30
0.0
 40
140.0
  0
CIRCLE
  5
176
  8
COUPE
 10
259.3726020109053
 20
791.3726020109053
 30
0.0
 40
177.3726020109053
  0
POLYLINE
  5
177
  8
COUPE
 66
1
 10
0.0
 20
0.0
 30
0.0
 70
1
  0
VERTEX
  5
179
  8
COUPE
 10
146.0560860546695
 20
785.5726020109053
 30
0.0
 42
0.41421356237309503
 70
0
  0
VERTEX
  5
17A
  8
COUPE
 10
142.85608605466956
 20
782.3726020109053
 30
0.0
 42
0.41421356237309503
 70
0
  0
VERTEX
  5
17B
  8
COUPE
 10
146.05608605466955
 20
779.1726020109054
 30
0.0
 42
0.41421356237309503
 70
0
  0
VERTEX
  5
17C
  8
COUPE
 10
149.25608605466948
 20
782.3726020109053
 30
0.0
 70
0
  0
VERTEX
  5
17D
  8
COUPE
 10
183.85608605466948
 20
782.3726020109053
 30
0.0
 42
0.41421356237309503
 70
0
  0
VERTEX
  5
17E
  8
COUPE
 10
187.05608605466944
 20
779.1726020109054
 30
0.0
 42
0.41421356237309503
 70
0
  0
VERTEX
  5
17F
  8
COUPE
 10
190.2560860546694
 20
782.3726020109053
 30
0.0
 42
0.41421356237309503
 70
0
  0
VERTEX
  5
180
  8
COUPE
 10
187.0560860546695
 20
785.5726020109053
 30
0.0
 70
0
  0
VERTEX
  5
181
  8
COUPE
 10
187.0560860546695
 20
797.1726020109053
 30
0.0
 42
0.41421356237309503
 70
0
  0
VERTEX
  5
182
  8
COUPE
 10
190.25608605466957
 20
800.3726020109053
 30
0.0
 42
0.41421356237309503
 70
0
  0
VERTEX
  5
183
  8
COUPE
 10
187.05608605466955
 20
803.5726020109054
 30
0.0
 42
0.41421356237309503
 70
0
  0
VERTEX
  5
184
  8
COUPE
 10
183.85608605466948
 20
800.3726020109053
 30
0.0
 70
0
  0
VERTEX
  5
185
  8
COUPE
 10
149.25608605466948
 20
800.3726020109053
 30
0.0
 42
0.41421356237309503
 70
0
  0
VERTEX
  5
186
  8
COUPE
 10
146.05608605466946
 20
803.5726020109054
 30
0.0
 42
0.41421356237309503
 70
0
  0
VERTEX
  5
187
  8
COUPE
 10
142.85608605466945
 20
800.3726020109053
 30
0.0
 42
0.41421356237309503
 70
0
  0
VERTEX
  5
188
  8
COUPE
 10
146.0560860546695
 20
797.1726020109053
 30
0.0
 70
0
  0
SEQEND
  5
178
  8
COUPE
  0
POLYLINE
  5
189
  8
COUPE
 66
1
 10
0.0
 20
0.0
 30
0.0
 70
1
  0
VERTEX
  5
18B
  8
COUPE
 10
331.6891179671411
 20
785.5726020109053
 30
0.0
 42
0.41421356237309503
 70
0
  0
VERTEX
  5
18C
  8
COUPE
 10
328.48911796714117
 20
782.3726020109052
 30
0.0
 42
0.41421356237309503
 70
0
  0
VERTEX
  5
18D
  8
COUPE
 10
331.6891179671412
 20
779.1726020109052
 30
0.0
 42
0.41421356237309503
 70
0
  0
VERTEX
  5
18E
  8
COUPE
 10
334.88911796714115
 20
782.3726020109053
 30
0.0
 70
0
  0
VERTEX
  5
18F
  8
COUPE
 10
369.4891179671411
 20
782.3726020109053
 30
0.0
 42
0.41421356237309503
 70
0
  0
VERTEX
  5
190
  8
COUPE
 10
372.6891179671411
 20
779.1726020109054
 30
0.0
 42
0.41421356237309503
 70
0
  0
VERTEX
  5
191
  8
COUPE
 10
375.8891179671411
 20
782.3726020109053
 30
0.0
 42
0.41421356237309503
 70
0
  0
VERTEX
  5
192
  8
COUPE
 10
372.6891179671411
 20
785.5726020109053
 30
0.0
 70
0
  0
VERTEX
  5
193
  8
COUPE
 10
372.6891179671411
 20
797.1726020109053
 30
0.0
 42
0.41421356237309503
 70
0
  0
VERTEX
  5
194
  8
COUPE
 10
375.88911796714115
 20
800.3726020109052
 30
0.0
 42
0.41421356237309503
 70
0
  0
VERTEX
  5
195
  8
COUPE
 10
372.6891179671412
 20
803.5726020109054
 30
0.0
 42
0.41421356237309503
 70
0
  0
VERTEX
  5
196
  8
COUPE
 10
369.4891179671411
 20
800.3726020109053
 30
0.0
 70
0
  0
VERTEX
  5
197
  8
COUPE
 10
334.88911796714115
 20
800.3726020109053
 30
0.0
 42
0.41421356237309503
 70
0
  0
VERTEX
  5
198
  8
COUPE
 10
331.6891179671411
 20
803.5726020109054
 30
0.0
 42
0.41421356237309503
 70
0
  0
VERTEX
  5
199
  8
COUPE
 10
328.48911796714106
 20
800.3726020109053
 30
0.0
 42
0.41421356237309503
 70
0
  0
VERTEX
  5
19A
  8
COUPE
 10
331.6891179671411
 20
797.1726020109053
 30
0.0
 70
0
  0
SEQEND
  5
18A
  8
COUPE
  0
POLYLINE
  5
19B
  8
COUPE
 66
1
 10
0.0
 20
0.0
 30
0.0
 70
1
  0
VERTEX
  5
19D
  8
COUPE
 10
265.1726020109053
 20
678.0560860546694
 30
0.0
 42
0.41421356237309503
 70
0
  0
VERTEX
  5
19E
  8
COUPE
 10
268.3726020109053
 20
674.8560860546694
 30
0.0
 42
0.41421356237309503
 70
0
  0
VERTEX
  5
19F
  8
COUPE
 10
271.57260201090537
 20
678.0560860546694
 30
0.0
 42
0.41421356237309503
 70
0
  0
VERTEX
  5
1A0
  8
COUPE
 10
268.3726020109053
 20
681.2560860546695
 30
0.0
 70
0
  0
VERTEX
  5
1A1
  8
COUPE
 10
268.3726020109053
 20
715.8560860546695
 30
0.0
 42
0.41421356237309503
 70
0
  0
VERTEX
  5
1A2
  8
COUPE
 10
271.57260201090526
 20
719.0560860546695
 30
0.0
 42
0.41421356237309503
 70
0
  0
VERTEX
  5
1A3
  8
COUPE
 10
268.3726020109052
 20
722.2560860546696
 30
0.0
 42
0.41421356237309503
 70
0
  0
VERTEX
  5
1A4
  8
COUPE
 10
265.1726020109053
 20
719.0560860546694
 30
0.0
 70
0
  0
VERTEX
  5
1A5
  8
COUPE
 10
253.57260201090529
 20
719.0560860546694
 30
0.0
 42
0.41421356237309503
 70
0
  0
VERTEX
  5
1A6
  8
COUPE
 10
250.37260201090533
 20
722.2560860546694
 30
0.0
 42
0.41421356237309503
 70
0
  0
VERTEX
  5
1A7
  8
COUPE
 10
247.17260201090536
 20
719.0560860546694
 30
0.0
 42
0.41421356237309503
 70
0
  0
VERTEX
  5
1A8
  8
COUPE
 10
250.3726020109053
 20
715.8560860546695
 30
0.0
 70
0
  0
VERTEX
  5
1A9
  8
COUPE
 10
250.3726020109053
 20
681.2560860546695
 30
0.0
 42
0.41421356237309503
 70
0
  0
VERTEX
  5
1AA
  8
COUPE
 10
247.17260201090525
 20
678.0560860546694
 30
0.0
 42
0.41421356237309503
 70
0
  0
VERTEX
  5
1AB
  8
COUPE
 10
250.37260201090524
 20
674.8560860546694
 30
0.0
 42
0.41421356237309503
 70
0
  0
VERTEX
  5
1AC
  8
COUPE
 10
253.57260201090529
 20
678.0560860546694
 30
0.0
 70
0
  0
SEQEND
  5
19C
  8
COUPE
  0
POLYLINE
  5
1AD
  8
COUPE
 66
1
 10
0.0
 20
0.0
 30
0.0
 70
1
  0
VERTEX
  5
1AF
  8
COUPE
 10
265.1726020109053
 20
863.6891179671411
 30
0.0
 42
0.41421356237309503
 70
0
  0
VERTEX
  5
1B0
  8
COUPE
 10
268.3726020109053
 20
860.489117967141
 30
0.0
 42
0.41421356237309503
 70
0
  0
VERTEX
  5
1B1
  8
COUPE
 10
271.57260201090537
 20
863.6891179671411
 30
0.0
 42
0.41421356237309503
 70
0
  0
VERTEX
  5
1B2
  8
COUPE
 10
268.3726020109053
 20
866.8891179671411
 30
0.0
 70
0
  0
VERTEX
  5
1B3
  8
COUPE
 10
268.3726020109053
 20
901.489117967141
 30
0.0
 42
0.41421356237309503
 70
0
  0
VERTEX
  5
1B4
  8
COUPE
 10
271.57260201090537
 20
904.6891179671411
 30
0.0
 42
0.41421356237309503
 70
0
  0
VERTEX
  5
1B5
  8
COUPE
 10
268.3726020109053
 20
907.8891179671411
 30
0.0
 42
0.41421356237309503
 70
0
  0
VERTEX
  5
1B6
  8
COUPE
 10
265.1726020109053
 20
904.6891179671411
 30
0.0
 70
0
  0
VERTEX
  5
1B7
  8
COUPE
 10
253.5726020109053
 20
904.6891179671411
 30
0.0
 42
0.41421356237309503
 70
0
  0
VERTEX
  5
1B8
  8
COUPE
 10
250.37260201090527
 20
907.8891179671411
 30
0.0
 42
0.41421356237309503
 70
0
  0
VERTEX
  5
1B9
  8
COUPE
 10
247.17260201090522
 20
904.6891179671411
 30
0.0
 42
0.41421356237309503
 70
0
  0
VERTEX
  5
1BA
  8
COUPE
 10
250.3726020109053
 20
901.489117967141
 30
0.0
 70
0
  0
VERTEX
  5
1BB
  8
COUPE
 10
250.3726020109053
 20
866.8891179671411
 30
0.0
 42
0.41421356237309503
 70
0
  0
VERTEX
  5
1BC
  8
COUPE
 10
247.17260201090525
 20
863.6891179671411
 30
0.0
 42
0.41421356237309503
 70
0
  0
VERTEX
  5
1BD
  8
COUPE
 10
250.3726020109053
 20
860.489117967141
 30
0.0
 42
0.41421356237309503
 70
0
  0
VERTEX
  5
1BE
  8
COUPE
 10
253.5726020109053
 20
863.6891179671411
 30
0.0
 70
0
  0
SEQEND
  5
1AE
  8
COUPE
  0
CIRCLE
  5
1BF
  8
COUPE
 10
1081.0
 20
1045.0
 30
0.0
 40
155.0
  0
CIRCLE
  5
1C0
  8
COUPE
 10
1081.0
 20
1045.0
 30
0.0
 40
110.0
  0
POLYLINE
  5
1C1
  8
COUPE
 66
1
 10
0.0
 20
0.0
 30
0.0
 70
1
  0
VERTEX
  5
1C3
  8
COUPE
 10
994.0
 20
35.0
 30
0.0
 70
0
  0
VERTEX
  5
1C4
  8
COUPE
 10
1054.8560860546695
 20
35.0
 30
0.0
 42
-0.41421356237309503
 70
0
  0
VERTEX
  5
1C5
  8
COUPE
 10
1058.0560860546695
 20
38.200000000000045
 30
0.0
 42
-0.41421356237309503
 70
0
  0
VERTEX
  5
1C6
  8
COUPE
 10
1061.2560860546696
 20
35.00000000000004
 30
0.0
 42
-0.41421356237309503
 70
0
  0
VERTEX
  5
1C7
  8
COUPE
 10
1058.0560860546695
 20
31.8
 30
0.0
 70
0
  0
VERTEX
  5
1C8
  8
COUPE
 10
1058.0560860546695
 20
18.0
 30
0.0
 70
0
  0
VERTEX
  5
1C9
  8
COUPE
 10
1098.0560860546695
 20
18.0
 30
0.0
 70
0
  0
VERTEX
  5
1CA
  8
COUPE
 10
1098.0560860546695
 20
31.8
 30
0.0
 42
-0.41421356237309503
 70
0
  0
VERTEX
  5
1CB
  8
COUPE
 10
1094.8560860546695
 20
35.00000000000002
 30
0.0
 42
-0.41421356237309503
 70
0
  0
VERTEX
  5
1CC
  8
COUPE
 10
1098.0560860546695
 20
38.200000000000045
 30
0.0
 42
-0.41421356237309503
 70
0
  0
VERTEX
  5
1CD
  8
COUPE
 10
1101.2560860546696
 20
35.0
 30
0.0
 70
0
  0
VERTEX
  5
1CE
  8
COUPE
 10
1240.489117967141
 20
35.0
 30
0.0
 42
-0.41421356237309503
 70
0
  0
VERTEX
  5
1CF
  8
COUPE
 10
1243.689117967141
 20
38.200000000000045
 30
0.0
 42
-0.41421356237309503
 70
0
  0
VERTEX
  5
1D0
  8
COUPE
 10
1246.8891179671411
 20
35.00000000000004
 30
0.0
 42
-0.41421356237309503
 70
0
  0
VERTEX
  5
1D1
  8
COUPE
 10
1243.689117967141
 20
31.8
 30
0.0
 70
0
  0
VERTEX
  5
1D2
  8
COUPE
 10
1243.689117967141
 20
18.0
 30
0.0
 70
0
  0
VERTEX
  5
1D3
  8
COUPE
 10
1283.689117967141
 20
18.0
 30
0.0
 70
0
  0
VERTEX
  5
1D4
  8
COUPE
 10
1283.689117967141
 20
31.8
 30
0.0
 42
-0.41421356237309503
 70
0
  0
VERTEX
  5
1D5
  8
COUPE
 10
1280.489117967141
 20
35.00000000000002
 30
0.0
 42
-0.41421356237309503
 70
0
  0
VERTEX
  5
1D6
  8
COUPE
 10
1283.689117967141
 20
38.200000000000045
 30
0.0
 42
-0.41421356237309503
 70
0
  0
VERTEX
  5
1D7
  8
COUPE
 10
1286.8891179671411
 20
35.0
 30
0.0
 70
0
  0
VERTEX
  5
1D8
  8
COUPE
 10
1347.7452040218107
 20
35.0
 30
0.0
 70
0
  0
VERTEX
  5
1D9
  8
COUPE
 10
1296.8118706884773
 20
226.0
 30
0.0
 70
0
  0
VERTEX
  5
1DA
  8
COUPE
 10
1259.0971989051668
 20
226.0
 30
0.0
 42
-0.41421356237309503
 70
0
  0
VERTEX
  5
1DB
  8
COUPE
 10
1255.897198905167
 20
222.80000000000018
 30
0.0
 42
-0.41421356237309503
 70
0
  0
VERTEX
  5
1DC
  8
COUPE
 10
1252.6971989051672
 20
226.00000000000017
 30
0.0
 42
-0.41421356237309503
 70
0
  0
VERTEX
  5
1DD
  8
COUPE
 10
1255.897198905167
 20
229.2
 30
0.0
 70
0
  0
VERTEX
  5
1DE
  8
COUPE
 10
1255.897198905167
 20
243.0
 30
0.0
 70
0
  0
VERTEX
  5
1DF
  8
COUPE
 10
1215.897198905167
 20
243.0
 30
0.0
 70
0
  0
VERTEX
  5
1E0
  8
COUPE
 10
1215.897198905167
 20
229.2
 30
0.0
 42
-0.41421356237309503
 70
0
  0
VERTEX
  5
1E1
  8
COUPE
 10
1219.097198905167
 20
225.99999999999997
 30
0.0
 42
-0.41421356237309503
 70
0
  0
VERTEX
  5
1E2
  8
COUPE
 10
1215.897198905167
 20
222.79999999999995
 30
0.0
 42
-0.41421356237309503
 70
0
  0
VERTEX
  5
1E3
  8
COUPE
 10
1212.697198905167
 20
226.0
 30
0.0
 70
0
  0
VERTEX
  5
1E4
  8
COUPE
 10
1179.8726020109052
 20
226.0
 30
0.0
 70
0
  0
VERTEX
  5
1E5
  8
COUPE
 10
1179.8726020109052
 20
133.7
 30
0.0
 42
-0.41421356237309503
 70
0
  0
VERTEX
  5
1E6
  8
COUPE
 10
1183.072602010905
 20
130.50000000000009
 30
0.0
 42
-0.41421356237309503
 70
0
  0
VERTEX
  5
1E7
  8
COUPE
 10
1179.8726020109052
 20
127.30000000000018
 30
0.0
 42
-0.41421356237309503
 70
0
  0
VERTEX
  5
1E8
  8
COUPE
 10
1176.6726020109054
 20
130.5
 30
0.0
 70
0
  0
VERTEX
  5
1E9
  8
COUPE
 10
1165.0726020109053
 20
130.5
 30
0.0
 42
-0.41421356237309503
 70
0
  0
VERTEX
  5
1EA
  8
COUPE
 10
1161.8726020109052
 20
127.29999999999995
 30
0.0
 42
-0.41421356237309503
 70
0
  0
VERTEX
  5
1EB
  8
COUPE
 10
1158.6726020109052
 20
130.49999999999994
 30
0.0
 42
-0.41421356237309503
 70
0
  0
VERTEX
  5
1EC
  8
COUPE
 10
1161.8726020109052
 20
133.7
 30
0.0
 70
0
  0
VERTEX
  5
1ED
  8
COUPE
 10
1161.8726020109052
 20
226.0
 30
0.0
 70
0
  0
VERTEX
  5
1EE
  8
COUPE
 10
1129.0480051166437
 20
226.0
 30
0.0
 42
-0.41421356237309503
 70
0
  0
VERTEX
  5
1EF
  8
COUPE
 10
1125.8480051166437
 20
222.79999999999995
 30
0.0
 42
-0.41421356237309503
 70
0
  0
VERTEX
  5
1F0
  8
COUPE
 10
1122.6480051166436
 20
225.99999999999994
 30
0.0
 42
-0.41421356237309503
 70
0
  0
VERTEX
  5
1F1
  8
COUPE
 10
1125.8480051166437
 20
229.2
 30
0.0
 70
0
  0
VERTEX
  5
1F2
  8
COUPE
 10
1125.8480051166437
 20
243.0
 30
0.0
 70
0
  0
VERTEX
  5
1F3
  8
COUPE
 10
1085.8480051166437
 20
243.0
 30
0.0
 70
0
  0
VERTEX
  5
1F4
  8
COUPE
 10
1085.8480051166437
 20
229.2
 30
0.0
 42
-0.41421356237309503
 70
0
  0
VERTEX
  5
1F5
  8
COUPE
 10
1089.0480051166437
 20
225.99999999999997
 30
0.0
 42
-0.41421356237309503
 70
0
  0
VERTEX
  5
1F6
  8
COUPE
 10
1085.8480051166437
 20
222.79999999999995
 30
0.0
 42
-0.41421356237309503
 70
0
  0
VERTEX
  5
1F7
  8
COUPE
 10
1082.6480051166436
 20
226.0
 30
0.0
 70
0
  0
VERTEX
  5
1F8
  8
COUPE
 10
1044.9333333333334
 20
226.0
 30
0.0
 70
0
  0
SEQEND
  5
1C2
  8
COUPE
  0
POLYLINE
  5
1F9
  8
COUPE
 66
1
 10
0.0
 20
0.0
 30
0.0
 70
1
  0
VERTEX
  5
1FB
  8
COUPE
 10
1463.7452040218107
 20
518.0
 30
0.0
 70
0
  0
VERTEX
  5
1FC
  8
COUPE
 10
1402.8891179671411
 20
518.0
 30
0.0
 42
-0.41421356237309503
 70
0
  0
VERTEX
  5
1FD
  8
COUPE
 10
1399.689117967141
 20
514.8
 30
0.0
 42
-0.41421356237309503
 70
0
  0
VERTEX
  5
1FE
  8
COUPE
 10
1396.489117967141
 20
518.0
 30
0.0
 42
-0.41421356237309503
 70
0
  0
VERTEX
  5
1FF
  8
COUPE
 10
1399.689117967141
 20
521.2
 30
0.0
 70
0
  0
VERTEX
  5
200
  8
COUPE
 10
1399.689117967141
 20
535.0
 30
0.0
 70
0
  0
VERTEX
  5
201
  8
COUPE
 10
1359.689117967141
 20
535.0
 30
0.0
 70
0
  0
VERTEX
  5
202
  8
COUPE
 10
1359.689117967141
 20
521.2
 30
0.0
 42
-0.41421356237309503
 70
0
  0
VERTEX
  5
203
  8
COUPE
 10
1362.8891179671411
 20
518.0
 30
0.0
 42
-0.41421356237309503
 70
0
  0
VERTEX
  5
204
  8
COUPE
 10
1359.689117967141
 20
514.8
 30
0.0
 42
-0.41421356237309503
 70
0
  0
VERTEX
  5
205
  8
COUPE
 10
1356.489117967141
 20
518.0
 30
0.0
 70
0
  0
VERTEX
  5
206
  8
COUPE
 10
1295.8726020109052
 20
518.0
 30
0.0
 70
0
  0
VERTEX
  5
207
  8
COUPE
 10
1295.8726020109052
 20
425.7
 30
0.0
 42
-0.41421356237309503
 70
0
  0
VERTEX
  5
208
  8
COUPE
 10
1299.072602010905
 20
422.5000000000001
 30
0.0
 42
-0.41421356237309503
 70
0
  0
VERTEX
  5
209
  8
COUPE
 10
1295.8726020109052
 20
419.3000000000002
 30
0.0
 42
-0.41421356237309503
 70
0
  0
VERTEX
  5
20A
  8
COUPE
 10
1292.6726020109054
 20
422.5
 30
0.0
 70
0
  0
VERTEX
  5
20B
  8
COUPE
 10
1281.0726020109053
 20
422.5
 30
0.0
 42
-0.41421356237309503
 70
0
  0
VERTEX
  5
20C
  8
COUPE
 10
1277.8726020109052
 20
419.29999999999995
 30
0.0
 42
-0.41421356237309503
 70
0
  0
VERTEX
  5
20D
  8
COUPE
 10
1274.6726020109052
 20
422.5
 30
0.0
 42
-0.41421356237309503
 70
0
  0
VERTEX
  5
20E
  8
COUPE
 10
1277.8726020109052
 20
425.7
 30
0.0
 70
0
  0
VERTEX
  5
20F
  8
COUPE
 10
1277.8726020109052
 20
518.0
 30
0.0
 70
0
  0
VERTEX
  5
210
  8
COUPE
 10
1217.2560860546696
 20
518.0
 30
0.0
 42
-0.41421356237309503
 70
0
  0
VERTEX
  5
211
  8
COUPE
 10
1214.0560860546695
 20
514.8
 30
0.0
 42
-0.41421356237309503
 70
0
  0
VERTEX
  5
212
  8
COUPE
 10
1210.8560860546695
 20
518.0
 30
0.0
 42
-0.41421356237309503
 70
0
  0
VERTEX
  5
213
  8
COUPE
 10
1214.0560860546695
 20
521.2
 30
0.0
 70
0
  0
VERTEX
  5
214
  8
COUPE
 10
1214.0560860546695
 20
535.0
 30
0.0
 70
0
  0
VERTEX
  5
215
  8
COUPE
 10
1174.0560860546695
 20
535.0
 30
0.0
 70
0
  0
VERTEX
  5
216
  8
COUPE
 10
1174.0560860546695
 20
521.2
 30
0.0
 42
-0.41421356237309503
 70
0
  0
VERTEX
  5
217
  8
COUPE
 10
1177.2560860546696
 20
518.0
 30
0.0
 42
-0.41421356237309503
 70
0
  0
VERTEX
  5
218
  8
COUPE
 10
1174.0560860546695
 20
514.8
 30
0.0
 42
-0.41421356237309503
 70
0
  0
VERTEX
  5
219
  8
COUPE
 10
1170.8560860546695
 20
518.0
 30
0.0
 70
0
  0
VERTEX
  5
21A
  8
COUPE
 10
1110.0
 20
518.0
 30
0.0
 70
0
  0
VERTEX
  5
21B
  8
COUPE
 10
1160.9333333333334
 20
327.0
 30
0.0
 70
0
  0
VERTEX
  5
21C
  8
COUPE
 10
1198.6480051166436
 20
327.0
 30
0.0
 42
-0.41421356237309503
 70
0
  0
VERTEX
  5
21D
  8
COUPE
 10
1201.8480051166437
 20
330.20000000000005
 30
0.0
 42
-0.41421356237309503
 70
0
  0
VERTEX
  5
21E
  8
COUPE
 10
1205.0480051166437
 20
327.0
 30
0.0
 42
-0.41421356237309503
 70
0
  0
VERTEX
  5
21F
  8
COUPE
 10
1201.8480051166437
 20
323.8
 30
0.0
 70
0
  0
VERTEX
  5
220
  8
COUPE
 10
1201.8480051166437
 20
310.0
 30
0.0
 70
0
  0
VERTEX
  5
221
  8
COUPE
 10
1241.8480051166437
 20
310.0
 30
0.0
 70
0
  0
VERTEX
  5
222
  8
COUPE
 10
1241.8480051166437
 20
323.8
 30
0.0
 42
-0.41421356237309503
 70
0
  0
VERTEX
  5
223
  8
COUPE
 10
1238.6480051166436
 20
327.0
 30
0.0
 42
-0.41421356237309503
 70
0
  0
VERTEX
  5
224
  8
COUPE
 10
1241.8480051166437
 20
330.20000000000005
 30
0.0
 42
-0.41421356237309503
 70
0
  0
VERTEX
  5
225
  8
COUPE
 10
1245.0480051166437
 20
327.0
 30
0.0
 70
0
  0
VERTEX
  5
226
  8
COUPE
 10
1328.6971989051667
 20
327.0
 30
0.0
 42
-0.41421356237309503
 70
0
  0
VERTEX
  5
227
  8
COUPE
 10
1331.8971989051668
 20
330.20000000000005
 30
0.0
 42
-0.41421356237309503
 70
0
  0
VERTEX
  5
228
  8
COUPE
 10
1335.0971989051668
 20
327.0
 30
0.0
 42
-0.41421356237309503
 70
0
  0
VERTEX
  5
229
  8
COUPE
 10
1331.8971989051668
 20
323.8
 30
0.0
 70
0
  0
VERTEX
  5
22A
  8
COUPE
 10
1331.8971989051668
 20
310.0
 30
0.0
 70
0
  0
VERTEX
  5
22B
  8
COUPE
 10
1371.897198905167
 20
310.0
 30
0.0
 70
0
  0
VERTEX
  5
22C
  8
COUPE
 10
1371.897198905167
 20
323.8
 30
0.0
 42
-0.41421356237309503
 70
0
  0
VERTEX
  5
22D
  8
COUPE
 10
1368.6971989051672
 20
326.9999999999999
 30
0.0
 42
-0.41421356237309503
 70
0
  0
VERTEX
  5
22E
  8
COUPE
 10
1371.897198905167
 20
330.1999999999998
 30
0.0
 42
-0.41421356237309503
 70
0
  0
VERTEX
  5
22F
  8
COUPE
 10
1375.0971989051668
 20
327.0
 30
0.0
 70
0
  0
VERTEX
  5
230
  8
COUPE
 10
1412.8118706884773
 20
327.0
 30
0.0
 70
0
  0
SEQEND
  5
1FA
  8
COUPE
  0
CIRCLE
  5
231
  8
COUPE
 10
671.9059353442386
 20
967.9059353442386
 30
0.0
 40
121.90593534423863
  0
POLYLINE
  5
232
  8
COUPE
 66
1
 10
0.0
 20
0.0
 30
0.0
 70
1
  0
VERTEX
  5
234
  8
COUPE
 10
586.3813384499771
 20
962.1059353442387
 30
0.0
 42
0.41421356237309503
 70
0
  0
VERTEX
  5
235
  8
COUPE
 10
583.1813384499771
 20
958.9059353442387
 30
0.0
 42
0.41421356237309503
 70
0
  0
VERTEX
  5
236
  8
COUPE
 10
586.3813384499771
 20
955.7059353442387
 30
0.0
 42
0.41421356237309503
 70
0
  0
VERTEX
  5
237
  8
COUPE
 10
589.581338449977
 20
958.9059353442386
 30
0.0
 70
0
  0
VERTEX
  5
238
  8
COUPE
 10
624.181338449977
 20
958.9059353442386
 30
0.0
 42
0.41421356237309503
 70
0
  0
VERTEX
  5
239
  8
COUPE
 10
627.3813384499771
 20
955.7059353442386
 30
0.0
 42
0.41421356237309503
 70
0
  0
VERTEX
  5
23A
  8
COUPE
 10
630.5813384499771
 20
958.9059353442386
 30
0.0
 42
0.41421356237309503
 70
0
  0
VERTEX
  5
23B
  8
COUPE
 10
627.3813384499771
 20
962.1059353442387
 30
0.0
 70
0
  0
VERTEX
  5
23C
  8
COUPE
 10
627.3813384499771
 20
973.7059353442387
 30
0.0
 42
0.41421356237309503
 70
0
  0
VERTEX
  5
23D
  8
COUPE
 10
630.581338449977
 20
976.9059353442387
 30
0.0
 42
0.41421356237309503
 70
0
  0
VERTEX
  5
23E
  8
COUPE
 10
627.3813384499771
 20
980.1059353442388
 30
0.0
 42
0.41421356237309503
 70
0
  0
VERTEX
  5
23F
  8
COUPE
 10
624.181338449977
 20
976.9059353442386
 30
0.0
 70
0
  0
VERTEX
  5
240
  8
COUPE
 10
589.581338449977
 20
976.9059353442386
 30
0.0
 42
0.41421356237309503
 70
0
  0
VERTEX
  5
241
  8
COUPE
 10
586.3813384499771
 20
980.1059353442386
 30
0.0
 42
0.41421356237309503
 70
0
  0
VERTEX
  5
242
  8
COUPE
 10
583.1813384499771
 20
976.9059353442386
 30
0.0
 42
0.41421356237309503
 70
0
  0
VERTEX
  5
243
  8
COUPE
 10
586.3813384499771
 20
973.7059353442387
 30
0.0
 70
0
  0
SEQEND
  5
233
  8
COUPE
  0
POLYLINE
  5
244
  8
COUPE
 66
1
 10
0.0
 20
0.0
 30
0.0
 70
1
  0
VERTEX
  5
246
  8
COUPE
 10
716.4305322385003
 20
962.1059353442387
 30
0.0
 42
0.41421356237309503
 70
0
  0
VERTEX
  5
247
  8
COUPE
 10
713.2305322385002
 20
958.9059353442387
 30
0.0
 42
0.41421356237309503
 70
0
  0
VERTEX
  5
248
  8
COUPE
 10
716.4305322385003
 20
955.7059353442387
 30
0.0
 42
0.41421356237309503
 70
0
  0
VERTEX
  5
249
  8
COUPE
 10
719.6305322385002
 20
958.9059353442386
 30
0.0
 70
0
  0
VERTEX
  5
24A
  8
COUPE
 10
754.2305322385002
 20
958.9059353442386
 30
0.0
 42
0.41421356237309503
 70
0
  0
VERTEX
  5
24B
  8
COUPE
 10
757.4305322385003
 20
955.7059353442386
 30
0.0
 42
0.41421356237309503
 70
0
  0
VERTEX
  5
24C
  8
COUPE
 10
760.6305322385003
 20
958.9059353442386
 30
0.0
 42
0.41421356237309503
 70
0
  0
VERTEX
  5
24D
  8
COUPE
 10
757.4305322385003
 20
962.1059353442387
 30
0.0
 70
0
  0
VERTEX
  5
24E
  8
COUPE
 10
757.4305322385003
 20
973.7059353442387
 30
0.0
 42
0.41421356237309503
 70
0
  0
VERTEX
  5
24F
  8
COUPE
 10
760.6305322385003
 20
976.9059353442387
 30
0.0
 42
0.41421356237309503
 70
0
  0
VERTEX
  5
250
  8
COUPE
 10
757.4305322385003
 20
980.1059353442388
 30
0.0
 42
0.41421356237309503
 70
0
  0
VERTEX
  5
251
  8
COUPE
 10
754.2305322385002
 20
976.9059353442386
 30
0.0
 70
0
  0
VERTEX
  5
252
  8
COUPE
 10
719.6305322385002
 20
976.9059353442386
 30
0.0
 42
0.41421356237309503
 70
0
  0
VERTEX
  5
253
  8
COUPE
 10
716.4305322385003
 20
980.1059353442386
 30
0.0
 42
0.41421356237309503
 70
0
  0
VERTEX
  5
254
  8
COUPE
 10
713.2305322385004
 20
976.9059353442386
 30
0.0
 42
0.41421356237309503
 70
0
  0
VERTEX
  5
255
  8
COUPE
 10
716.4305322385003
 20
973.7059353442387
 30
0.0
 70
0
  0
SEQEND
  5
245
  8
COUPE
  0
POLYLINE
  5
256
  8
COUPE
 66
1
 10
0.0
 20
0.0
 30
0.0
 70
1
  0
VERTEX
  5
258
  8
COUPE
 10
677.7059353442387
 20
882.3813384499771
 30
0.0
 42
0.41421356237309503
 70
0
  0
VERTEX
  5
259
  8
COUPE
 10
680.9059353442386
 20
879.1813384499771
 30
0.0
 42
0.41421356237309503
 70
0
  0
VERTEX
  5
25A
  8
COUPE
 10
684.1059353442386
 20
882.3813384499771
 30
0.0
 42
0.41421356237309503
 70
0
  0
VERTEX
  5
25B
  8
COUPE
 10
680.9059353442386
 20
885.581338449977
 30
0.0
 70
0
  0
VERTEX
  5
25C
  8
COUPE
 10
680.9059353442386
 20
920.181338449977
 30
0.0
 42
0.41421356237309503
 70
0
  0
VERTEX
  5
25D
  8
COUPE
 10
684.1059353442388
 20
923.3813384499769
 30
0.0
 42
0.41421356237309503
 70
0
  0
VERTEX
  5
25E
  8
COUPE
 10
680.9059353442389
 20
926.581338449977
 30
0.0
 42
0.41421356237309503
 70
0
  0
VERTEX
  5
25F
  8
COUPE
 10
677.7059353442387
 20
923.3813384499771
 30
0.0
 70
0
  0
VERTEX
  5
260
  8
COUPE
 10
666.1059353442387
 20
923.3813384499771
 30
0.0
 42
0.41421356237309503
 70
0
  0
VERTEX
  5
261
  8
COUPE
 10
662.9059353442386
 20
926.5813384499771
 30
0.0
 42
0.41421356237309503
 70
0
  0
VERTEX
  5
262
  8
COUPE
 10
659.7059353442386
 20
923.3813384499771
 30
0.0
 42
0.41421356237309503
 70
0
  0
VERTEX
  5
263
  8
COUPE
 10
662.9059353442386
 20
920.181338449977
 30
0.0
 70
0
  0
VERTEX
  5
264
  8
COUPE
 10
662.9059353442386
 20
885.581338449977
 30
0.0
 42
0.41421356237309503
 70
0
  0
VERTEX
  5
265
  8
COUPE
 10
659.7059353442387
 20
882.3813384499769
 30
0.0
 42
0.41421356237309503
 70
0
  0
VERTEX
  5
266
  8
COUPE
 10
662.9059353442389
 20
879.1813384499769
 30
0.0
 42
0.41421356237309503
 70
0
  0
VERTEX
  5
267
  8
COUPE
 10
666.1059353442387
 20
882.3813384499771
 30
0.0
 70
0
  0
SEQEND
  5
257
  8
COUPE
  0
POLYLINE
  5
268
  8
COUPE
 66
1
 10
0.0
 20
0.0
 30
0.0
 70
1
  0
VERTEX
  5
26A
  8
COUPE
 10
677.7059353442387
 20
1012.4305322385003
 30
0.0
 42
0.41421356237309503
 70
0
  0
VERTEX
  5
26B
  8
COUPE
 10
680.9059353442386
 20
1009.2305322385004
 30
0.0
 42
0.41421356237309503
 70
0
  0
VERTEX
  5
26C
  8
COUPE
 10
684.1059353442386
 20
1012.4305322385003
 30
0.0
 42
0.41421356237309503
 70
0
  0
VERTEX
  5
26D
  8
COUPE
 10
680.9059353442386
 20
1015.6305322385002
 30
0.0
 70
0
  0
VERTEX
  5
26E
  8
COUPE
 10
680.9059353442386
 20
1050.2305322385002
 30
0.0
 42
0.41421356237309503
 70
0
  0
VERTEX
  5
26F
  8
COUPE
 10
684.1059353442388
 20
1053.4305322385003
 30
0.0
 42
0.41421356237309503
 70
0
  0
VERTEX
  5
270
  8
COUPE
 10
680.9059353442389
 20
1056.6305322385003
 30
0.0
 42
0.41421356237309503
 70
0
  0
VERTEX
  5
271
  8
COUPE
 10
677.7059353442387
 20
1053.4305322385003
 30
0.0
 70
0
  0
VERTEX
  5
272
  8
COUPE
 10
666.1059353442387
 20
1053.4305322385003
 30
0.0
 42
0.41421356237309503
 70
0
  0
VERTEX
  5
273
  8
COUPE
 10
662.9059353442386
 20
1056.6305322385003
 30
0.0
 42
0.41421356237309503
 70
0
  0
VERTEX
  5
274
  8
COUPE
 10
659.7059353442386
 20
1053.4305322385003
 30
0.0
 42
0.41421356237309503
 70
0
  0
VERTEX
  5
275
  8
COUPE
 10
662.9059353442386
 20
1050.2305322385002
 30
0.0
 70
0
  0
VERTEX
  5
276
  8
COUPE
 10
662.9059353442386
 20
1015.6305322385002
 30
0.0
 42
0.41421356237309503
 70
0
  0
VERTEX
  5
277
  8
COUPE
 10
659.7059353442387
 20
1012.4305322385002
 30
0.0
 42
0.41421356237309503
 70
0
  0
VERTEX
  5
278
  8
COUPE
 10
662.9059353442389
 20
1009.2305322385002
 30
0.0
 42
0.41421356237309503
 70
0
  0
VERTEX
  5
279
  8
COUPE
 10
666.1059353442387
 20
1012.4305322385003
 30
0.0
 70
0
  0
SEQEND
  5
269
  8
COUPE
  0
CIRCLE
  5
27A
  8
COUPE
 10
995.3726020109053
 20
687.3726020109053
 30
0.0
 40
117.37260201090533
  0
POLYLINE
  5
27B
  8
COUPE
 66
1
 10
0.0
 20
0.0
 30
0.0
 70
1
  0
VERTEX
  5
27D
  8
COUPE
 10
940.6068291826346
 20
624.4043905208706
 30
0.0
 42
0.41421356237309503
 70
0
  0
VERTEX
  5
27E
  8
COUPE
 10
940.6068291826346
 20
619.8789071212767
 30
0.0
 42
0.41421356237309503
 70
0
  0
VERTEX
  5
27F
  8
COUPE
 10
945.1323125822285
 20
619.8789071212767
 30
0.0
 42
0.41421356237309503
 70
0
  0
VERTEX
  5
280
  8
COUPE
 10
945.1323125822285
 20
624.4043905208706
 30
0.0
 70
0
  0
VERTEX
  5
281
  8
COUPE
 10
969.5982072112829
 20
648.8702851499252
 30
0.0
 42
0.41421356237309503
 70
0
  0
VERTEX
  5
282
  8
COUPE
 10
974.1236906108768
 20
648.8702851499252
 30
0.0
 42
0.41421356237309503
 70
0
  0
VERTEX
  5
283
  8
COUPE
 10
974.1236906108768
 20
653.3957685495191
 30
0.0
 42
0.41421356237309503
 70
0
  0
VERTEX
  5
284
  8
COUPE
 10
969.5982072112829
 20
653.3957685495191
 30
0.0
 70
0
  0
VERTEX
  5
285
  8
COUPE
 10
961.3957685495191
 20
661.598207211283
 30
0.0
 42
0.41421356237309503
 70
0
  0
VERTEX
  5
286
  8
COUPE
 10
961.3957685495191
 20
666.1236906108769
 30
0.0
 42
0.41421356237309503
 70
0
  0
VERTEX
  5
287
  8
COUPE
 10
956.8702851499252
 20
666.1236906108769
 30
0.0
 42
0.41421356237309503
 70
0
  0
VERTEX
  5
288
  8
COUPE
 10
956.8702851499252
 20
661.598207211283
 30
0.0
 70
0
  0
VERTEX
  5
289
  8
COUPE
 10
932.4043905208706
 20
637.1323125822285
 30
0.0
 42
0.41421356237309503
 70
0
  0
VERTEX
  5
28A
  8
COUPE
 10
927.8789071212767
 20
637.1323125822285
 30
0.0
 42
0.41421356237309503
 70
0
  0
VERTEX
  5
28B
  8
COUPE
 10
927.8789071212767
 20
632.6068291826346
 30
0.0
 42
0.41421356237309503
 70
0
  0
VERTEX
  5
28C
  8
COUPE
 10
932.4043905208706
 20
632.6068291826346
 30
0.0
 70
0
  0
SEQEND
  5
27C
  8
COUPE
  0
POLYLINE
  5
28D
  8
COUPE
 66
1
 10
0.0
 20
0.0
 30
0.0
 70
1
  0
VERTEX
  5
28F
  8
COUPE
 10
1029.3494354722916
 20
713.1469968105276
 30
0.0
 42
0.41421356237309503
 70
0
  0
VERTEX
  5
290
  8
COUPE
 10
1029.3494354722918
 20
708.6215134109336
 30
0.0
 42
0.41421356237309503
 70
0
  0
VERTEX
  5
291
  8
COUPE
 10
1033.8749188718857
 20
708.6215134109339
 30
0.0
 42
0.41421356237309503
 70
0
  0
VERTEX
  5
292
  8
COUPE
 10
1033.8749188718855
 20
713.1469968105276
 30
0.0
 70
0
  0
VERTEX
  5
293
  8
COUPE
 10
1058.3408135009402
 20
737.6128914395822
 30
0.0
 42
0.41421356237309503
 70
0
  0
VERTEX
  5
294
  8
COUPE
 10
1062.866296900534
 20
737.6128914395822
 30
0.0
 42
0.41421356237309503
 70
0
  0
VERTEX
  5
295
  8
COUPE
 10
1062.8662969005338
 20
742.1383748391761
 30
0.0
 42
0.41421356237309503
 70
0
  0
VERTEX
  5
296
  8
COUPE
 10
1058.3408135009402
 20
742.1383748391761
 30
0.0
 70
0
  0
VERTEX
  5
297
  8
COUPE
 10
1050.138374839176
 20
750.34081350094
 30
0.0
 42
0.41421356237309503
 70
0
  0
VERTEX
  5
298
  8
COUPE
 10
1050.1383748391763
 20
754.8662969005338
 30
0.0
 42
0.41421356237309503
 70
0
  0
VERTEX
  5
299
  8
COUPE
 10
1045.6128914395824
 20
754.866296900534
 30
0.0
 42
0.41421356237309503
 70
0
  0
VERTEX
  5
29A
  8
COUPE
 10
1045.6128914395822
 20
750.34081350094
 30
0.0
 70
0
  0
VERTEX
  5
29B
  8
COUPE
 10
1021.1469968105276
 20
725.8749188718855
 30
0.0
 42
0.41421356237309503
 70
0
  0
VERTEX
  5
29C
  8
COUPE
 10
1016.6215134109337
 20
725.8749188718855
 30
0.0
 42
0.41421356237309503
 70
0
  0
VERTEX
  5
29D
  8
COUPE
 10
1016.6215134109337
 20
721.3494354722916
 30
0.0
 42
0.41421356237309503
 70
0
  0
VERTEX
  5
29E
  8
COUPE
 10
1021.1469968105276
 20
721.3494354722916
 30
0.0
 70
0
  0
SEQEND
  5
28E
  8
COUPE
  0
POLYLINE
  5
29F
  8
COUPE
 66
1
 10
0.0
 20
0.0
 30
0.0
 70
1
  0
VERTEX
  5
2A1
  8
COUPE
 10
1058.34081350094
 20
632.6068291826346
 30
0.0
 42
0.41421356237309503
 70
0
  0
VERTEX
  5
2A2
  8
COUPE
 10
1062.8662969005338
 20
632.6068291826344
 30
0.0
 42
0.41421356237309503
 70
0
  0
VERTEX
  5
2A3
  8
COUPE
 10
1062.866296900534
 20
637.1323125822283
 30
0.0
 42
0.41421356237309503
 70
0
  0
VERTEX
  5
2A4
  8
COUPE
 10
1058.34081350094
 20
637.1323125822285
 30
0.0
 70
0
  0
VERTEX
  5
2A5
  8
COUPE
 10
1033.8749188718855
 20
661.5982072112829
 30
0.0
 42
0.41421356237309503
 70
0
  0
VERTEX
  5
2A6
  8
COUPE
 10
1033.8749188718857
 20
666.1236906108767
 30
0.0
 42
0.41421356237309503
 70
0
  0
VERTEX
  5
2A7
  8
COUPE
 10
1029.3494354722918
 20
666.1236906108769
 30
0.0
 42
0.41421356237309503
 70
0
  0
VERTEX
  5
2A8
  8
COUPE
 10
1029.3494354722916
 20
661.5982072112829
 30
0.0
 70
0
  0
VERTEX
  5
2A9
  8
COUPE
 10
1021.1469968105276
 20
653.3957685495191
 30
0.0
 42
0.41421356237309503
 70
0
  0
VERTEX
  5
2AA
  8
COUPE
 10
1016.6215134109337
 20
653.3957685495191
 30
0.0
 42
0.41421356237309503
 70
0
  0
VERTEX
  5
2AB
  8
COUPE
 10
1016.6215134109337
 20
648.8702851499252
 30
0.0
 42
0.41421356237309503
 70
0
  0
VERTEX
  5
2AC
  8
COUPE
 10
1021.1469968105276
 20
648.8702851499252
 30
0.0
 70
0
  0
VERTEX
  5
2AD
  8
COUPE
 10
1045.6128914395822
 20
624.4043905208706
 30
0.0
 42
0.41421356237309503
 70
0
  0
VERTEX
  5
2AE
  8
COUPE
 10
1045.6128914395824
 20
619.8789071212766
 30
0.0
 42
0.41421356237309503
 70
0
  0
VERTEX
  5
2AF
  8
COUPE
 10
1050.1383748391763
 20
619.8789071212768
 30
0.0
 42
0.41421356237309503
 70
0
  0
VERTEX
  5
2B0
  8
COUPE
 10
1050.138374839176
 20
624.4043905208706
 30
0.0
 70
0
  0
SEQEND
  5
2A0
  8
COUPE
  0
POLYLINE
  5
2B1
  8
COUPE
 66
1
 10
0.0
 20
0.0
 30
0.0
 70
1
  0
VERTEX
  5
2B3
  8
COUPE
 10
969.598207211283
 20
721.3494354722916
 30
0.0
 42
0.41421356237309503
 70
0
  0
VERTEX
  5
2B4
  8
COUPE
 10
974.1236906108769
 20
721.3494354722916
 30
0.0
 42
0.41421356237309503
 70
0
  0
VERTEX
  5
2B5
  8
COUPE
 10
974.1236906108769
 20
725.8749188718855
 30
0.0
 42
0.41421356237309503
 70
0
  0
VERTEX
  5
2B6
  8
COUPE
 10
969.598207211283
 20
725.8749188718855
 30
0.0
 70
0
  0
VERTEX
  5
2B7
  8
COUPE
 10
945.1323125822285
 20
750.34081350094
 30
0.0
 42
0.41421356237309503
 70
0
  0
VERTEX
  5
2B8
  8
COUPE
 10
945.1323125822285
 20
754.8662969005339
 30
0.0
 42
0.41421356237309503
 70
0
  0
VERTEX
  5
2B9
  8
COUPE
 10
940.6068291826346
 20
754.8662969005339
 30
0.0
 42
0.41421356237309503
 70
0
  0
VERTEX
  5
2BA
  8
COUPE
 10
940.6068291826346
 20
750.34081350094
 30
0.0
 70
0
  0
VERTEX
  5
2BB
  8
COUPE
 10
932.4043905208706
 20
742.1383748391761
 30
0.0
 42
0.41421356237309503
 70
0
  0
VERTEX
  5
2BC
  8
COUPE
 10
927.8789071212767
 20
742.1383748391761
 30
0.0
 42
0.41421356237309503
 70
0
  0
VERTEX
  5
2BD
  8
COUPE
 10
927.8789071212767
 20
737.6128914395822
 30
0.0
 42
0.41421356237309503
 70
0
  0
VERTEX
  5
2BE
  8
COUPE
 10
932.4043905208706
 20
737.6128914395822
 30
0.0
 70
0
  0
VERTEX
  5
2BF
  8
COUPE
 10
956.8702851499252
 20
713.1469968105276
 30
0.0
 42
0.41421356237309503
 70
0
  0
VERTEX
  5
2C0
  8
COUPE
 10
956.8702851499252
 20
708.6215134109337
 30
0.0
 42
0.41421356237309503
 70
0
  0
VERTEX
  5
2C1
  8
COUPE
 10
961.3957685495191
 20
708.6215134109337
 30
0.0
 42
0.41421356237309503
 70
0
  0
VERTEX
  5
2C2
  8
COUPE
 10
961.3957685495191
 20
713.1469968105276
 30
0.0
 70
0
  0
SEQEND
  5
2B2
  8
COUPE
  0
POLYLINE
  5
2C3
  8
COUPE
 66
1
 10
0.0
 20
0.0
 30
0.0
 70
1
  0
VERTEX
  5
2C5
  8
COUPE
 10
1387.7452040218107
 20
890.0
 30
0.0
 70
0
  0
VERTEX
  5
2C6
  8
COUPE
 10
1356.8231006984897
 20
890.0
 30
0.0
 42
-0.41421356237309503
 70
0
  0
VERTEX
  5
2C7
  8
COUPE
 10
1353.62310069849
 20
886.8000000000002
 30
0.0
 42
-0.41421356237309503
 70
0
  0
VERTEX
  5
2C8
  8
COUPE
 10
1350.42310069849
 20
890.0000000000002
 30
0.0
 42
-0.41421356237309503
 70
0
  0
VERTEX
  5
2C9
  8
COUPE
 10
1353.62310069849
 20
893.2
 30
0.0
 70
0
  0
VERTEX
  5
2CA
  8
COUPE
 10
1353.62310069849
 20
907.0
 30
0.0
 70
0
  0
VERTEX
  5
2CB
  8
COUPE
 10
1313.62310069849
 20
907.0
 30
0.0
 70
0
  0
VERTEX
  5
2CC
  8
COUPE
 10
1313.62310069849
 20
893.2
 30
0.0
 42
-0.41421356237309503
 70
0
  0
VERTEX
  5
2CD
  8
COUPE
 10
1316.82310069849
 20
890.0
 30
0.0
 42
-0.41421356237309503
 70
0
  0
VERTEX
  5
2CE
  8
COUPE
 10
1313.62310069849
 20
886.8
 30
0.0
 42
-0.41421356237309503
 70
0
  0
VERTEX
  5
2CF
  8
COUPE
 10
1310.4231006984899
 20
890.0
 30
0.0
 70
0
  0
VERTEX
  5
2D0
  8
COUPE
 10
1231.3221033233208
 20
890.0
 30
0.0
 42
-0.41421356237309503
 70
0
  0
VERTEX
  5
2D1
  8
COUPE
 10
1228.1221033233207
 20
886.8
 30
0.0
 42
-0.41421356237309503
 70
0
  0
VERTEX
  5
2D2
  8
COUPE
 10
1224.9221033233207
 20
890.0
 30
0.0
 42
-0.41421356237309503
 70
0
  0
VERTEX
  5
2D3
  8
COUPE
 10
1228.1221033233207
 20
893.2
 30
0.0
 70
0
  0
VERTEX
  5
2D4
  8
COUPE
 10
1228.1221033233207
 20
907.0
 30
0.0
 70
0
  0
VERTEX
  5
2D5
  8
COUPE
 10
1188.1221033233207
 20
907.0
 30
0.0
 70
0
  0
VERTEX
  5
2D6
  8
COUPE
 10
1188.1221033233207
 20
893.2
 30
0.0
 42
-0.41421356237309503
 70
0
  0
VERTEX
  5
2D7
  8
COUPE
 10
1191.3221033233208
 20
890.0
 30
0.0
 42
-0.41421356237309503
 70
0
  0
VERTEX
  5
2D8
  8
COUPE
 10
1188.1221033233207
 20
886.8
 30
0.0
 42
-0.41421356237309503
 70
0
  0
VERTEX
  5
2D9
  8
COUPE
 10
1184.9221033233207
 20
890.0
 30
0.0
 70
0
  0
VERTEX
  5
2DA
  8
COUPE
 10
1154.0
 20
890.0
 30
0.0
 70
0
  0
VERTEX
  5
2DB
  8
COUPE
 10
1204.9333333333334
 20
699.0
 30
0.0
 70
0
  0
VERTEX
  5
2DC
  8
COUPE
 10
1215.2261432889138
 20
699.0
 30
0.0
 42
-0.41421356237309503
 70
0
  0
VERTEX
  5
2DD
  8
COUPE
 10
1218.4261432889139
 20
702.2
 30
0.0
 42
-0.41421356237309503
 70
0
  0
VERTEX
  5
2DE
  8
COUPE
 10
1221.626143288914
 20
699.0
 30
0.0
 42
-0.41421356237309503
 70
0
  0
VERTEX
  5
2DF
  8
COUPE
 10
1218.4261432889139
 20
695.8
 30
0.0
 70
0
  0
VERTEX
  5
2E0
  8
COUPE
 10
1218.4261432889139
 20
682.0
 30
0.0
 70
0
  0
VERTEX
  5
2E1
  8
COUPE
 10
1253.6726020109054
 20
682.0
 30
0.0
 70
0
  0
VERTEX
  5
2E2
  8
COUPE
 10
1253.6726020109054
 20
695.8
 30
0.0
 42
-0.41421356237309503
 70
0
  0
VERTEX
  5
2E3
  8
COUPE
 10
1250.4726020109056
 20
698.9999999999999
 30
0.0
 42
-0.41421356237309503
 70
0
  0
VERTEX
  5
2E4
  8
COUPE
 10
1253.6726020109054
 20
702.1999999999998
 30
0.0
 42
-0.41421356237309503
 70
0
  0
VERTEX
  5
2E5
  8
COUPE
 10
1256.8726020109052
 20
699.0
 30
0.0
 70
0
  0
VERTEX
  5
2E6
  8
COUPE
 10
1261.8726020109052
 20
699.0
 30
0.0
 70
0
  0
VERTEX
  5
2E7
  8
COUPE
 10
1261.8726020109052
 20
791.3
 30
0.0
 42
-0.41421356237309503
 70
0
  0
VERTEX
  5
2E8
  8
COUPE
 10
1258.6726020109052
 20
794.5
 30
0.0
 42
-0.41421356237309503
 70
0
  0
VERTEX
  5
2E9
  8
COUPE
 10
1261.8726020109052
 20
797.7
 30
0.0
 42
-0.41421356237309503
 70
0
  0
VERTEX
  5
2EA
  8
COUPE
 10
1265.0726020109053
 20
794.5
 30
0.0
 70
0
  0
VERTEX
  5
2EB
  8
COUPE
 10
1276.6726020109054
 20
794.5
 30
0.0
 42
-0.41421356237309503
 70
0
  0
VERTEX
  5
2EC
  8
COUPE
 10
1279.8726020109054
 20
797.6999999999998
 30
0.0
 42
-0.41421356237309503
 70
0
  0
VERTEX
  5
2ED
  8
COUPE
 10
1283.072602010905
 20
794.4999999999998
 30
0.0
 42
-0.41421356237309503
 70
0
  0
VERTEX
  5
2EE
  8
COUPE
 10
1279.8726020109052
 20
791.3
 30
0.0
 70
0
  0
VERTEX
  5
2EF
  8
COUPE
 10
1279.8726020109052
 20
699.0
 30
0.0
 70
0
  0
VERTEX
  5
2F0
  8
COUPE
 10
1284.8726020109052
 20
699.0
 30
0.0
 42
-0.41421356237309503
 70
0
  0
VERTEX
  5
2F1
  8
COUPE
 10
1288.0726020109053
 20
702.2
 30
0.0
 42
-0.41421356237309503
 70
0
  0
VERTEX
  5
2F2
  8
COUPE
 10
1291.2726020109053
 20
699.0
 30
0.0
 42
-0.41421356237309503
 70
0
  0
VERTEX
  5
2F3
  8
COUPE
 10
1288.0726020109053
 20
695.8
 30
0.0
 70
0
  0
VERTEX
  5
2F4
  8
COUPE
 10
1288.0726020109053
 20
682.0
 30
0.0
 70
0
  0
VERTEX
  5
2F5
  8
COUPE
 10
1323.3190607328968
 20
682.0
 30
0.0
 70
0
  0
VERTEX
  5
2F6
  8
COUPE
 10
1323.3190607328968
 20
695.8
 30
0.0
 42
-0.41421356237309503
 70
0
  0
VERTEX
  5
2F7
  8
COUPE
 10
1320.1190607328967
 20
699.0
 30
0.0
 42
-0.41421356237309503
 70
0
  0
VERTEX
  5
2F8
  8
COUPE
 10
1323.3190607328968
 20
702.2
 30
0.0
 42
-0.41421356237309503
 70
0
  0
VERTEX
  5
2F9
  8
COUPE
 10
1326.5190607328968
 20
699.0
 30
0.0
 70
0
  0
VERTEX
  5
2FA
  8
COUPE
 10
1336.8118706884773
 20
699.0
 30
0.0
 70
0
  0
SEQEND
  5
2C4
  8
COUPE
  0
POLYLINE
  5
2FB
  8
COUPE
 66
1
 10
0.0
 20
0.0
 30
0.0
 70
1
  0
VERTEX
  5
2FD
  8
COUPE
 10
1455.7452040218107
 20
1178.0
 30
0.0
 70
0
  0
VERTEX
  5
2FE
  8
COUPE
 10
1424.8231006984897
 20
1178.0
 30
0.0
 42
-0.41421356237309503
 70
0
  0
VERTEX
  5
2FF
  8
COUPE
 10
1421.6231006984897
 20
1174.8000000000004
 30
0.0
 42
-0.41421356237309503
 70
0
  0
VERTEX
  5
300
  8
COUPE
 10
1418.42310069849
 20
1178.0000000000005
 30
0.0
 42
-0.41421356237309503
 70
0
  0
VERTEX
  5
301
  8
COUPE
 10
1421.62310069849
 20
1181.2
 30
0.0
 70
0
  0
VERTEX
  5
302
  8
COUPE
 10
1421.62310069849
 20
1195.0
 30
0.0
 70
0
  0
VERTEX
  5
303
  8
COUPE
 10
1381.62310069849
 20
1195.0
 30
0.0
 70
0
  0
VERTEX
  5
304
  8
COUPE
 10
1381.62310069849
 20
1181.2
 30
0.0
 42
-0.41421356237309503
 70
0
  0
VERTEX
  5
305
  8
COUPE
 10
1384.82310069849
 20
1178.0
 30
0.0
 42
-0.41421356237309503
 70
0
  0
VERTEX
  5
306
  8
COUPE
 10
1381.62310069849
 20
1174.8
 30
0.0
 42
-0.41421356237309503
 70
0
  0
VERTEX
  5
307
  8
COUPE
 10
1378.4231006984899
 20
1178.0
 30
0.0
 70
0
  0
VERTEX
  5
308
  8
COUPE
 10
1347.8726020109052
 20
1178.0
 30
0.0
 70
0
  0
VERTEX
  5
309
  8
COUPE
 10
1347.8726020109052
 20
1085.7
 30
0.0
 42
-0.41421356237309503
 70
0
  0
VERTEX
  5
30A
  8
COUPE
 10
1351.072602010905
 20
1082.5000000000002
 30
0.0
 42
-0.41421356237309503
 70
0
  0
VERTEX
  5
30B
  8
COUPE
 10
1347.8726020109052
 20
1079.3000000000004
 30
0.0
 42
-0.41421356237309503
 70
0
  0
VERTEX
  5
30C
  8
COUPE
 10
1344.6726020109054
 20
1082.5
 30
0.0
 70
0
  0
VERTEX
  5
30D
  8
COUPE
 10
1333.0726020109053
 20
1082.5
 30
0.0
 42
-0.41421356237309503
 70
0
  0
VERTEX
  5
30E
  8
COUPE
 10
1329.8726020109052
 20
1079.3
 30
0.0
 42
-0.41421356237309503
 70
0
  0
VERTEX
  5
30F
  8
COUPE
 10
1326.6726020109052
 20
1082.5
 30
0.0
 42
-0.41421356237309503
 70
0
  0
VERTEX
  5
310
  8
COUPE
 10
1329.8726020109052
 20
1085.7
 30
0.0
 70
0
  0
VERTEX
  5
311
  8
COUPE
 10
1329.8726020109052
 20
1178.0
 30
0.0
 70
0
  0
VERTEX
  5
312
  8
COUPE
 10
1299.3221033233208
 20
1178.0
 30
0.0
 42
-0.41421356237309503
 70
0
  0
VERTEX
  5
313
  8
COUPE
 10
1296.1221033233207
 20
1174.8
 30
0.0
 42
-0.41421356237309503
 70
0
  0
VERTEX
  5
314
  8
COUPE
 10
1292.9221033233207
 20
1178.0
 30
0.0
 42
-0.41421356237309503
 70
0
  0
VERTEX
  5
315
  8
COUPE
 10
1296.1221033233207
 20
1181.2
 30
0.0
 70
0
  0
VERTEX
  5
316
  8
COUPE
 10
1296.1221033233207
 20
1195.0
 30
0.0
 70
0
  0
VERTEX
  5
317
  8
COUPE
 10
1256.1221033233207
 20
1195.0
 30
0.0
 70
0
  0
VERTEX
  5
318
  8
COUPE
 10
1256.1221033233207
 20
1181.2
 30
0.0
 42
-0.41421356237309503
 70
0
  0
VERTEX
  5
319
  8
COUPE
 10
1259.3221033233208
 20
1178.0
 30
0.0
 42
-0.41421356237309503
 70
0
  0
VERTEX
  5
31A
  8
COUPE
 10
1256.1221033233207
 20
1174.8
 30
0.0
 42
-0.41421356237309503
 70
0
  0
VERTEX
  5
31B
  8
COUPE
 10
1252.9221033233207
 20
1178.0
 30
0.0
 70
0
  0
VERTEX
  5
31C
  8
COUPE
 10
1222.0
 20
1178.0
 30
0.0
 70
0
  0
VERTEX
  5
31D
  8
COUPE
 10
1272.9333333333334
 20
987.0
 30
0.0
 70
0
  0
VERTEX
  5
31E
  8
COUPE
 10
1283.2261432889138
 20
987.0
 30
0.0
 42
-0.41421356237309503
 70
0
  0
VERTEX
  5
31F
  8
COUPE
 10
1286.4261432889139
 20
990.2
 30
0.0
 42
-0.41421356237309503
 70
0
  0
VERTEX
  5
320
  8
COUPE
 10
1289.626143288914
 20
987.0
 30
0.0
 42
-0.41421356237309503
 70
0
  0
VERTEX
  5
321
  8
COUPE
 10
1286.4261432889139
 20
983.8
 30
0.0
 70
0
  0
VERTEX
  5
322
  8
COUPE
 10
1286.4261432889139
 20
970.0
 30
0.0
 70
0
  0
VERTEX
  5
323
  8
COUPE
 10
1321.6726020109054
 20
970.0
 30
0.0
 70
0
  0
VERTEX
  5
324
  8
COUPE
 10
1321.6726020109054
 20
983.8
 30
0.0
 42
-0.41421356237309503
 70
0
  0
VERTEX
  5
325
  8
COUPE
 10
1318.4726020109056
 20
986.9999999999999
 30
0.0
 42
-0.41421356237309503
 70
0
  0
VERTEX
  5
326
  8
COUPE
 10
1321.6726020109054
 20
990.1999999999998
 30
0.0
 42
-0.41421356237309503
 70
0
  0
VERTEX
  5
327
  8
COUPE
 10
1324.8726020109052
 20
987.0
 30
0.0
 70
0
  0
VERTEX
  5
328
  8
COUPE
 10
1352.8726020109052
 20
987.0
 30
0.0
 42
-0.41421356237309503
 70
0
  0
VERTEX
  5
329
  8
COUPE
 10
1356.0726020109053
 20
990.2
 30
0.0
 42
-0.41421356237309503
 70
0
  0
VERTEX
  5
32A
  8
COUPE
 10
1359.2726020109053
 20
987.0
 30
0.0
 42
-0.41421356237309503
 70
0
  0
VERTEX
  5
32B
  8
COUPE
 10
1356.0726020109053
 20
983.8
 30
0.0
 70
0
  0
VERTEX
  5
32C
  8
COUPE
 10
1356.0726020109053
 20
970.0
 30
0.0
 70
0
  0
VERTEX
  5
32D
  8
COUPE
 10
1391.3190607328968
 20
970.0
 30
0.0
 70
0
  0
VERTEX
  5
32E
  8
COUPE
 10
1391.3190607328968
 20
983.8
 30
0.0
 42
-0.41421356237309503
 70
0
  0
VERTEX
  5
32F
  8
COUPE
 10
1388.1190607328967
 20
987.0
 30
0.0
 42
-0.41421356237309503
 70
0
  0
VERTEX
  5
330
  8
COUPE
 10
1391.3190607328968
 20
990.2
 30
0.0
 42
-0.41421356237309503
 70
0
  0
VERTEX
  5
331
  8
COUPE
 10
1394.5190607328968
 20
987.0
 30
0.0
 70
0
  0
VERTEX
  5
332
  8
COUPE
 10
1404.8118706884773
 20
987.0
 30
0.0
 70
0
  0
SEQEND
  5
2FC
  8
COUPE
  0
POLYLINE
  5
333
  8
COUPE
 66
1
 10
0.0
 20
0.0
 30
0.0
 70
1
  0
VERTEX
  5
335
  8
COUPE
 10
18.0
 20
18.0
 30
0.0
 70
0
  0
VERTEX
  5
336
  8
COUPE
 10
138.63715789784806
 20
18.0
 30
0.0
 70
0
  0
VERTEX
  5
337
  8
COUPE
 10
138.63715789784806
 20
168.0
 30
0.0
 70
0
  0
VERTEX
  5
338
  8
COUPE
 10
18.0
 20
168.0
 30
0.0
 70
0
  0
SEQEND
  5
334
  8
COUPE
  0
POLYLINE
  5
339
  8
POCHE_KERF_15MM
 66
1
 10
0.0
 20
0.0
 30
0.0
 70
1
  0
VERTEX
  5
33B
  8
POCHE_KERF_15MM
 10
20.02654824574367
 20
14.9
 30
0.0
 70
0
  0
VERTEX
  5
33C
  8
POCHE_KERF_15MM
 10
26.02654824574367
 20
14.9
 30
0.0
 70
0
  0
VERTEX
  5
33D
  8
POCHE_KERF_15MM
 10
26.02654824574367
 20
171.1
 30
0.0
 70
0
  0
VERTEX
  5
33E
  8
POCHE_KERF_15MM
 10
20.02654824574367
 20
171.1
 30
0.0
 70
0
  0
SEQEND
  5
33A
  8
POCHE_KERF_15MM
  0
POLYLINE
  5
33F
  8
POCHE_KERF_15MM
 66
1
 10
0.0
 20
0.0
 30
0.0
 70
1
  0
VERTEX
  5
341
  8
POCHE_KERF_15MM
 10
30.079644737231007
 20
14.9
 30
0.0
 70
0
  0
VERTEX
  5
342
  8
POCHE_KERF_15MM
 10
36.07964473723101
 20
14.9
 30
0.0
 70
0
  0
VERTEX
  5
343
  8
POCHE_KERF_15MM
 10
36.07964473723101
 20
171.1
 30
0.0
 70
0
  0
VERTEX
  5
344
  8
POCHE_KERF_15MM
 10
30.079644737231007
 20
171.1
 30
0.0
 70
0
  0
SEQEND
  5
340
  8
POCHE_KERF_15MM
  0
POLYLINE
  5
345
  8
POCHE_KERF_15MM
 66
1
 10
0.0
 20
0.0
 30
0.0
 70
1
  0
VERTEX
  5
347
  8
POCHE_KERF_15MM
 10
40.132741228718345
 20
14.9
 30
0.0
 70
0
  0
VERTEX
  5
348
  8
POCHE_KERF_15MM
 10
46.132741228718345
 20
14.9
 30
0.0
 70
0
  0
VERTEX
  5
349
  8
POCHE_KERF_15MM
 10
46.132741228718345
 20
171.1
 30
0.0
 70
0
  0
VERTEX
  5
34A
  8
POCHE_KERF_15MM
 10
40.132741228718345
 20
171.1
 30
0.0
 70
0
  0
SEQEND
  5
346
  8
POCHE_KERF_15MM
  0
POLYLINE
  5
34B
  8
POCHE_KERF_15MM
 66
1
 10
0.0
 20
0.0
 30
0.0
 70
1
  0
VERTEX
  5
34D
  8
POCHE_KERF_15MM
 10
50.18583772020568
 20
14.9
 30
0.0
 70
0
  0
VERTEX
  5
34E
  8
POCHE_KERF_15MM
 10
56.18583772020568
 20
14.9
 30
0.0
 70
0
  0
VERTEX
  5
34F
  8
POCHE_KERF_15MM
 10
56.18583772020568
 20
171.1
 30
0.0
 70
0
  0
VERTEX
  5
350
  8
POCHE_KERF_15MM
 10
50.18583772020568
 20
171.1
 30
0.0
 70
0
  0
SEQEND
  5
34C
  8
POCHE_KERF_15MM
  0
POLYLINE
  5
351
  8
POCHE_KERF_15MM
 66
1
 10
0.0
 20
0.0
 30
0.0
 70
1
  0
VERTEX
  5
353
  8
POCHE_KERF_15MM
 10
60.23893421169302
 20
14.9
 30
0.0
 70
0
  0
VERTEX
  5
354
  8
POCHE_KERF_15MM
 10
66.23893421169302
 20
14.9
 30
0.0
 70
0
  0
VERTEX
  5
355
  8
POCHE_KERF_15MM
 10
66.23893421169302
 20
171.1
 30
0.0
 70
0
  0
VERTEX
  5
356
  8
POCHE_KERF_15MM
 10
60.23893421169302
 20
171.1
 30
0.0
 70
0
  0
SEQEND
  5
352
  8
POCHE_KERF_15MM
  0
POLYLINE
  5
357
  8
POCHE_KERF_15MM
 66
1
 10
0.0
 20
0.0
 30
0.0
 70
1
  0
VERTEX
  5
359
  8
POCHE_KERF_15MM
 10
70.29203070318036
 20
14.9
 30
0.0
 70
0
  0
VERTEX
  5
35A
  8
POCHE_KERF_15MM
 10
76.29203070318036
 20
14.9
 30
0.0
 70
0
  0
VERTEX
  5
35B
  8
POCHE_KERF_15MM
 10
76.29203070318036
 20
171.1
 30
0.0
 70
0
  0
VERTEX
  5
35C
  8
POCHE_KERF_15MM
 10
70.29203070318036
 20
171.1
 30
0.0
 70
0
  0
SEQEND
  5
358
  8
POCHE_KERF_15MM
  0
POLYLINE
  5
35D
  8
POCHE_KERF_15MM
 66
1
 10
0.0
 20
0.0
 30
0.0
 70
1
  0
VERTEX
  5
35F
  8
POCHE_KERF_15MM
 10
80.3451271946677
 20
14.9
 30
0.0
 70
0
  0
VERTEX
  5
360
  8
POCHE_KERF_15MM
 10
86.3451271946677
 20
14.9
 30
0.0
 70
0
  0
VERTEX
  5
361
  8
POCHE_KERF_15MM
 10
86.3451271946677
 20
171.1
 30
0.0
 70
0
  0
VERTEX
  5
362
  8
POCHE_KERF_15MM
 10
80.3451271946677
 20
171.1
 30
0.0
 70
0
  0
SEQEND
  5
35E
  8
POCHE_KERF_15MM
  0
POLYLINE
  5
363
  8
POCHE_KERF_15MM
 66
1
 10
0.0
 20
0.0
 30
0.0
 70
1
  0
VERTEX
  5
365
  8
POCHE_KERF_15MM
 10
90.39822368615503
 20
14.9
 30
0.0
 70
0
  0
VERTEX
  5
366
  8
POCHE_KERF_15MM
 10
96.39822368615503
 20
14.9
 30
0.0
 70
0
  0
VERTEX
  5
367
  8
POCHE_KERF_15MM
 10
96.39822368615503
 20
171.1
 30
0.0
 70
0
  0
VERTEX
  5
368
  8
POCHE_KERF_15MM
 10
90.39822368615503
 20
171.1
 30
0.0
 70
0
  0
SEQEND
  5
364
  8
POCHE_KERF_15MM
  0
POLYLINE
  5
369
  8
POCHE_KERF_15MM
 66
1
 10
0.0
 20
0.0
 30
0.0
 70
1
  0
VERTEX
  5
36B
  8
POCHE_KERF_15MM
 10
100.45132017764237
 20
14.9
 30
0.0
 70
0
  0
VERTEX
  5
36C
  8
POCHE_KERF_15MM
 10
106.45132017764237
 20
14.9
 30
0.0
 70
0
  0
VERTEX
  5
36D
  8
POCHE_KERF_15MM
 10
106.45132017764237
 20
171.1
 30
0.0
 70
0
  0
VERTEX
  5
36E
  8
POCHE_KERF_15MM
 10
100.45132017764237
 20
171.1
 30
0.0
 70
0
  0
SEQEND
  5
36A
  8
POCHE_KERF_15MM
  0
POLYLINE
  5
36F
  8
POCHE_KERF_15MM
 66
1
 10
0.0
 20
0.0
 30
0.0
 70
1
  0
VERTEX
  5
371
  8
POCHE_KERF_15MM
 10
110.50441666912971
 20
14.9
 30
0.0
 70
0
  0
VERTEX
  5
372
  8
POCHE_KERF_15MM
 10
116.50441666912971
 20
14.9
 30
0.0
 70
0
  0
VERTEX
  5
373
  8
POCHE_KERF_15MM
 10
116.50441666912971
 20
171.1
 30
0.0
 70
0
  0
VERTEX
  5
374
  8
POCHE_KERF_15MM
 10
110.50441666912971
 20
171.1
 30
0.0
 70
0
  0
SEQEND
  5
370
  8
POCHE_KERF_15MM
  0
POLYLINE
  5
375
  8
POCHE_KERF_15MM
 66
1
 10
0.0
 20
0.0
 30
0.0
 70
1
  0
VERTEX
  5
377
  8
POCHE_KERF_15MM
 10
120.55751316061705
 20
14.9
 30
0.0
 70
0
  0
VERTEX
  5
378
  8
POCHE_KERF_15MM
 10
126.55751316061705
 20
14.9
 30
0.0
 70
0
  0
VERTEX
  5
379
  8
POCHE_KERF_15MM
 10
126.55751316061705
 20
171.1
 30
0.0
 70
0
  0
VERTEX
  5
37A
  8
POCHE_KERF_15MM
 10
120.55751316061705
 20
171.1
 30
0.0
 70
0
  0
SEQEND
  5
376
  8
POCHE_KERF_15MM
  0
POLYLINE
  5
37B
  8
POCHE_KERF_15MM
 66
1
 10
0.0
 20
0.0
 30
0.0
 70
1
  0
VERTEX
  5
37D
  8
POCHE_KERF_15MM
 10
130.6106096521044
 20
14.9
 30
0.0
 70
0
  0
VERTEX
  5
37E
  8
POCHE_KERF_15MM
 10
136.6106096521044
 20
14.9
 30
0.0
 70
0
  0
VERTEX
  5
37F
  8
POCHE_KERF_15MM
 10
136.6106096521044
 20
171.1
 30
0.0
 70
0
  0
VERTEX
  5
380
  8
POCHE_KERF_15MM
 10
130.6106096521044
 20
171.1
 30
0.0
 70
0
  0
SEQEND
  5
37C
  8
POCHE_KERF_15MM
  0
CIRCLE
  5
381
  8
COUPE
 10
79.90593534423864
 20
495.9059353442386
 30
0.0
 40
61.90593534423864
  0
POLYLINE
  5
382
  8
COUPE
 66
1
 10
0.0
 20
0.0
 30
0.0
 70
1
  0
VERTEX
  5
384
  8
COUPE
 10
46.56835467298686
 20
454.3659160112229
 30
0.0
 42
0.41421356237309503
 70
0
  0
VERTEX
  5
385
  8
COUPE
 10
46.56835467298686
 20
449.840432611629
 30
0.0
 42
0.41421356237309503
 70
0
  0
VERTEX
  5
386
  8
COUPE
 10
51.093838072580766
 20
449.840432611629
 30
0.0
 42
0.41421356237309503
 70
0
  0
VERTEX
  5
387
  8
COUPE
 10
51.093838072580766
 20
454.3659160112229
 30
0.0
 70
0
  0
VERTEX
  5
388
  8
COUPE
 10
72.19847142930527
 20
475.4705493679474
 30
0.0
 42
0.41421356237309503
 70
0
  0
VERTEX
  5
389
  8
COUPE
 10
76.72395482889924
 20
475.47054936794746
 30
0.0
 42
0.41421356237309503
 70
0
  0
VERTEX
  5
38A
  8
COUPE
 10
76.72395482889921
 20
479.9960327675414
 30
0.0
 42
0.41421356237309503
 70
0
  0
VERTEX
  5
38B
  8
COUPE
 10
72.19847142930527
 20
479.99603276754135
 30
0.0
 70
0
  0
VERTEX
  5
38C
  8
COUPE
 10
63.99603276754132
 20
488.1984714293053
 30
0.0
 42
0.41421356237309503
 70
0
  0
VERTEX
  5
38D
  8
COUPE
 10
63.99603276754132
 20
492.7239548288992
 30
0.0
 42
0.41421356237309503
 70
0
  0
VERTEX
  5
38E
  8
COUPE
 10
59.47054936794741
 20
492.7239548288992
 30
0.0
 42
0.41421356237309503
 70
0
  0
VERTEX
  5
38F
  8
COUPE
 10
59.47054936794741
 20
488.1984714293053
 30
0.0
 70
0
  0
VERTEX
  5
390
  8
COUPE
 10
38.36591601122291
 20
467.09383807258075
 30
0.0
 42
0.41421356237309503
 70
0
  0
VERTEX
  5
391
  8
COUPE
 10
33.84043261162901
 20
467.09383807258075
 30
0.0
 42
0.41421356237309503
 70
0
  0
VERTEX
  5
392
  8
COUPE
 10
33.84043261162901
 20
462.56835467298686
 30
0.0
 42
0.41421356237309503
 70
0
  0
VERTEX
  5
393
  8
COUPE
 10
38.36591601122291
 20
462.56835467298686
 30
0.0
 70
0
  0
SEQEND
  5
383
  8
COUPE
  0
POLYLINE
  5
394
  8
COUPE
 66
1
 10
0.0
 20
0.0
 30
0.0
 70
1
  0
VERTEX
  5
396
  8
COUPE
 10
95.81583792093596
 20
503.613399259172
 30
0.0
 42
0.41421356237309503
 70
0
  0
VERTEX
  5
397
  8
COUPE
 10
95.81583792093595
 20
499.0879158595781
 30
0.0
 42
0.41421356237309503
 70
0
  0
VERTEX
  5
398
  8
COUPE
 10
100.34132132052986
 20
499.0879158595781
 30
0.0
 42
0.41421356237309503
 70
0
  0
VERTEX
  5
399
  8
COUPE
 10
100.34132132052987
 20
503.613399259172
 30
0.0
 70
0
  0
VERTEX
  5
39A
  8
COUPE
 10
121.44595467725438
 20
524.7180326158965
 30
0.0
 42
0.41421356237309503
 70
0
  0
VERTEX
  5
39B
  8
COUPE
 10
125.97143807684827
 20
524.7180326158965
 30
0.0
 42
0.41421356237309503
 70
0
  0
VERTEX
  5
39C
  8
COUPE
 10
125.97143807684827
 20
529.2435160154904
 30
0.0
 42
0.41421356237309503
 70
0
  0
VERTEX
  5
39D
  8
COUPE
 10
121.44595467725438
 20
529.2435160154904
 30
0.0
 70
0
  0
VERTEX
  5
39E
  8
COUPE
 10
113.24351601549043
 20
537.4459546772543
 30
0.0
 42
0.41421356237309503
 70
0
  0
VERTEX
  5
39F
  8
COUPE
 10
113.24351601549043
 20
541.9714380768482
 30
0.0
 42
0.41421356237309503
 70
0
  0
VERTEX
  5
3A0
  8
COUPE
 10
108.71803261589653
 20
541.9714380768482
 30
0.0
 42
0.41421356237309503
 70
0
  0
VERTEX
  5
3A1
  8
COUPE
 10
108.71803261589652
 20
537.4459546772543
 30
0.0
 70
0
  0
VERTEX
  5
3A2
  8
COUPE
 10
87.61339925917201
 20
516.3413213205299
 30
0.0
 42
0.41421356237309503
 70
0
  0
VERTEX
  5
3A3
  8
COUPE
 10
83.08791585957808
 20
516.3413213205299
 30
0.0
 42
0.41421356237309503
 70
0
  0
VERTEX
  5
3A4
  8
COUPE
 10
83.08791585957805
 20
511.815837920936
 30
0.0
 42
0.41421356237309503
 70
0
  0
VERTEX
  5
3A5
  8
COUPE
 10
87.61339925917201
 20
511.81583792093596
 30
0.0
 70
0
  0
SEQEND
  5
395
  8
COUPE
  0
POLYLINE
  5
3A6
  8
COUPE
 66
1
 10
0.0
 20
0.0
 30
0.0
 70
1
  0
VERTEX
  5
3A8
  8
COUPE
 10
121.44595467725438
 20
462.56835467298686
 30
0.0
 42
0.41421356237309503
 70
0
  0
VERTEX
  5
3A9
  8
COUPE
 10
125.97143807684827
 20
462.56835467298686
 30
0.0
 42
0.41421356237309503
 70
0
  0
VERTEX
  5
3AA
  8
COUPE
 10
125.97143807684827
 20
467.09383807258075
 30
0.0
 42
0.41421356237309503
 70
0
  0
VERTEX
  5
3AB
  8
COUPE
 10
121.44595467725438
 20
467.09383807258075
 30
0.0
 70
0
  0
VERTEX
  5
3AC
  8
COUPE
 10
100.34132132052987
 20
488.1984714293053
 30
0.0
 42
0.41421356237309503
 70
0
  0
VERTEX
  5
3AD
  8
COUPE
 10
100.34132132052986
 20
492.7239548288992
 30
0.0
 42
0.41421356237309503
 70
0
  0
VERTEX
  5
3AE
  8
COUPE
 10
95.81583792093595
 20
492.7239548288992
 30
0.0
 42
0.41421356237309503
 70
0
  0
VERTEX
  5
3AF
  8
COUPE
 10
95.81583792093596
 20
488.1984714293053
 30
0.0
 70
0
  0
VERTEX
  5
3B0
  8
COUPE
 10
87.61339925917201
 20
479.99603276754135
 30
0.0
 42
0.41421356237309503
 70
0
  0
VERTEX
  5
3B1
  8
COUPE
 10
83.08791585957808
 20
479.9960327675414
 30
0.0
 42
0.41421356237309503
 70
0
  0
VERTEX
  5
3B2
  8
COUPE
 10
83.08791585957805
 20
475.47054936794746
 30
0.0
 42
0.41421356237309503
 70
0
  0
VERTEX
  5
3B3
  8
COUPE
 10
87.61339925917201
 20
475.4705493679474
 30
0.0
 70
0
  0
VERTEX
  5
3B4
  8
COUPE
 10
108.7180326158965
 20
454.3659160112229
 30
0.0
 42
0.41421356237309503
 70
0
  0
VERTEX
  5
3B5
  8
COUPE
 10
108.7180326158965
 20
449.840432611629
 30
0.0
 42
0.41421356237309503
 70
0
  0
VERTEX
  5
3B6
  8
COUPE
 10
113.24351601549043
 20
449.840432611629
 30
0.0
 42
0.41421356237309503
 70
0
  0
VERTEX
  5
3B7
  8
COUPE
 10
113.24351601549043
 20
454.3659160112229
 30
0.0
 70
0
  0
SEQEND
  5
3A7
  8
COUPE
  0
POLYLINE
  5
3B8
  8
COUPE
 66
1
 10
0.0
 20
0.0
 30
0.0
 70
1
  0
VERTEX
  5
3BA
  8
COUPE
 10
72.19847142930527
 20
511.81583792093596
 30
0.0
 42
0.41421356237309503
 70
0
  0
VERTEX
  5
3BB
  8
COUPE
 10
76.72395482889924
 20
511.815837920936
 30
0.0
 42
0.41421356237309503
 70
0
  0
VERTEX
  5
3BC
  8
COUPE
 10
76.72395482889921
 20
516.3413213205299
 30
0.0
 42
0.41421356237309503
 70
0
  0
VERTEX
  5
3BD
  8
COUPE
 10
72.19847142930527
 20
516.3413213205299
 30
0.0
 70
0
  0
VERTEX
  5
3BE
  8
COUPE
 10
51.09383807258077
 20
537.4459546772543
 30
0.0
 42
0.41421356237309503
 70
0
  0
VERTEX
  5
3BF
  8
COUPE
 10
51.093838072580766
 20
541.9714380768482
 30
0.0
 42
0.41421356237309503
 70
0
  0
VERTEX
  5
3C0
  8
COUPE
 10
46.56835467298686
 20
541.9714380768482
 30
0.0
 42
0.41421356237309503
 70
0
  0
VERTEX
  5
3C1
  8
COUPE
 10
46.568354672986864
 20
537.4459546772543
 30
0.0
 70
0
  0
VERTEX
  5
3C2
  8
COUPE
 10
38.365916011222915
 20
529.2435160154904
 30
0.0
 42
0.41421356237309503
 70
0
  0
VERTEX
  5
3C3
  8
COUPE
 10
33.84043261162902
 20
529.2435160154904
 30
0.0
 42
0.41421356237309503
 70
0
  0
VERTEX
  5
3C4
  8
COUPE
 10
33.84043261162902
 20
524.7180326158965
 30
0.0
 42
0.41421356237309503
 70
0
  0
VERTEX
  5
3C5
  8
COUPE
 10
38.365916011222915
 20
524.7180326158965
 30
0.0
 70
0
  0
VERTEX
  5
3C6
  8
COUPE
 10
59.47054936794741
 20
503.613399259172
 30
0.0
 42
0.41421356237309503
 70
0
  0
VERTEX
  5
3C7
  8
COUPE
 10
59.47054936794741
 20
499.0879158595781
 30
0.0
 42
0.41421356237309503
 70
0
  0
VERTEX
  5
3C8
  8
COUPE
 10
63.99603276754132
 20
499.0879158595781
 30
0.0
 42
0.41421356237309503
 70
0
  0
VERTEX
  5
3C9
  8
COUPE
 10
63.99603276754132
 20
503.613399259172
 30
0.0
 70
0
  0
SEQEND
  5
3B9
  8
COUPE
  0
ENDSEC
  0
EOF
