  0
SECTION
  2
HEADER
  9
$ACADVER
  1
AC1009
  9
$DWGCODEPAGE
  3
ANSI_1252
  9
$INSBASE
 10
0.0
 20
0.0
 30
0.0
  9
$EXTMIN
 10
0.0000
 20
0.0000
 30
0.0000
  9
$EXTMAX
 10
2440.0000
 20
1220.0000
 30
0.0000
  9
$LIMMIN
 10
0.0000
 20
0.0000
  9
$LIMMAX
 10
2440.0000
 20
1220.0000
  9
$ORTHOMODE
 70
0
  9
$REGENMODE
 70
1
  9
$FILLMODE
 70
1
  9
$DRAGMODE
 70
2
  9
$QTEXTMODE
 70
0
  9
$MIRRTEXT
 70
1
  9
$OSMODE
 70
20583
  9
$LTSCALE
 40
1.0
  9
$ATTMODE
 70
1
  9
$TEXTSIZE
 40
2.5
  9
$TRACEWID
 40
1.0
  9
$TEXTSTYLE
  7
Standard
  9
$CLAYER
  8
0
  9
$CELTYPE
  6
ByLayer
  9
$CECOLOR
 62
256
  9
$DIMSCALE
 40
1.0
  9
$DIMASZ
 40
2.5
  9
$DIMEXO
 40
0.625
  9
$DIMDLI
 40
3.75
  9
$DIMRND
 40
0.0
  9
$DIMDLE
 40
0.0
  9
$DIMEXE
 40
1.25
  9
$DIMTP
 40
0.0
  9
$DIMTM
 40
0.0
  9
$DIMTXT
 40
2.5
  9
$DIMCEN
 40
2.5
  9
$DIMTSZ
 40
0.0
  9
$DIMTOL
 70
0
  9
$DIMLIM
 70
0
  9
$DIMTIH
 70
0
  9
$DIMTOH
 70
0
  9
$DIMSE1
 70
0
  9
$DIMSE2
 70
0
  9
$DIMTAD
 70
1
  9
$DIMZIN
 70
8
  9
$DIMBLK
  1

  9
$DIMASO
 70
1
  9
$DIMSHO
 70
1
  9
$DIMPOST
  1

  9
$DIMAPOST
  1

  9
$DIMALT
 70
0
  9
$DIMALTD
 70
3
  9
$DIMALTF
 40
0.03937007874
  9
$DIMLFAC
 40
1.0
  9
$DIMTOFL
 70
1
  9
$DIMTVP
 40
0.0
  9
$DIMTIX
 70
0
  9
$DIMSOXD
 70
0
  9
$DIMSAH
 70
0
  9
$DIMBLK1
  1

  9
$DIMBLK2
  1

  9
$DIMSTYLE
  2
ISO-25
  9
$DIMCLRD
 70
0
  9
$DIMCLRE
 70
0
  9
$DIMCLRT
 70
0
  9
$DIMTFAC
 40
1.0
  9
$DIMGAP
 40
0.625
  9
$COORDS
 70
1
  9
$ATTDIA
 70
0
  9
$ATTREQ
 70
1
  9
$HANDLING
 70
1
  9
$LUNITS
 70
2
  9
$LUPREC
 70
4
  9
$SKETCHINC
 40
1.0
  9
$FILLETRAD
 40
10.0
  9
$AUNITS
 70
0
  9
$AUPREC
 70
2
  9
$MENU
  1
.
  9
$ELEVATION
 40
0.0
  9
$PELEVATION
 40
0.0
  9
$THICKNESS
 40
0.0
  9
$LIMCHECK
 70
0
  9
$CHAMFERA
 40
0.0
  9
$CHAMFERB
 40
0.0
  9
$SKPOLY
 70
0
  9
$TDCREATE
 40
2461315.6304282406
  9
$TDUPDATE
 40
2461315.6304282406
  9
$TDINDWG
 40
0.0
  9
$TDUSRTIMER
 40
0.0
  9
$USRTIMER
 70
1
  9
$ANGBASE
 50
0.0
  9
$ANGDIR
 70
0
  9
$PDMODE
 70
0
  9
$PDSIZE
 40
0.0
  9
$PLINEWID
 40
0.0
  9
$SPLFRAME
 70
0
  9
$SPLINETYPE
 70
6
  9
$SPLINESEGS
 70
8
  9
$HANDSEED
  5
370
  9
$SURFTAB1
 70
6
  9
$SURFTAB2
 70
6
  9
$SURFTYPE
 70
6
  9
$SURFU
 70
6
  9
$SURFV
 70
6
  9
$UCSNAME
  2

  9
$UCSORG
 10
0.0
 20
0.0
 30
0.0
  9
$UCSXDIR
 10
1.0
 20
0.0
 30
0.0
  9
$UCSYDIR
 10
0.0
 20
1.0
 30
0.0
  9
$PUCSNAME
  2

  9
$PUCSORG
 10
0.0
 20
0.0
 30
0.0
  9
$PUCSXDIR
 10
1.0
 20
0.0
 30
0.0
  9
$PUCSYDIR
 10
0.0
 20
1.0
 30
0.0
  9
$USERI1
 70
0
  9
$USERI2
 70
0
  9
$USERI3
 70
0
  9
$USERI4
 70
0
  9
$USERI5
 70
0
  9
$USERR1
 40
0.0
  9
$USERR2
 40
0.0
  9
$USERR3
 40
0.0
  9
$USERR4
 40
0.0
  9
$USERR5
 40
0.0
  9
$WORLDVIEW
 70
1
  9
$SHADEDGE
 70
3
  9
$SHADEDIF
 70
70
  9
$TILEMODE
 70
1
  9
$MAXACTVP
 70
64
  9
$PLIMCHECK
 70
0
  9
$PEXTMIN
 10
1e+20
 20
1e+20
 30
1e+20
  9
$PEXTMAX
 10
-1e+20
 20
-1e+20
 30
-1e+20
  9
$PLIMMIN
 10
0.0
 20
0.0
  9
$PLIMMAX
 10
420.0
 20
297.0
  9
$UNITMODE
 70
0
  9
$VISRETAIN
 70
1
  9
$PLINEGEN
 70
0
  9
$PSLTSCALE
 70
1
  0
ENDSEC
  0
SECTION
  2
TABLES
  0
TABLE
  2
VPORT
 70
1
  0
VPORT
  5
23
  2
*Active
 70
0
 10
0.0
 20
0.0
 11
1.0
 21
1.0
 12
0.0
 22
0.0
 13
0.0
 23
0.0
 14
0.5
 24
0.5
 15
0.5
 25
0.5
 16
0.0
 26
0.0
 36
1.0
 17
0.0
 27
0.0
 37
0.0
 40
1000.0
 41
1.34
 42
50.0
 43
0.0
 44
0.0
 50
0.0
 51
0.0
 71
0
 72
1000
 73
1
 74
3
 75
0
 76
0
 77
0
 78
0
  0
ENDTAB
  0
TABLE
  2
LTYPE
 70
3
  0
LTYPE
  5
24
  2
ByBlock
 70
0
  3

 72
65
 73
0
 40
0.0
  0
LTYPE
  5
25
  2
ByLayer
 70
0
  3

 72
65
 73
0
 40
0.0
  0
LTYPE
  5
26
  2
Continuous
 70
0
  3

 72
65
 73
0
 40
0.0
  0
ENDTAB
  0
TABLE
  2
LAYER
 70
5
  0
LAYER
  5
27
  2
0
 70
0
 62
7
  6
Continuous
  0
LAYER
  5
28
  2
Defpoints
 70
0
 62
7
  6
Continuous
  0
LAYER
  5
2D
  2
CUT
 70
0
 62
1
  6
Continuous
  0
LAYER
  5
2E
  2
POCKET-KERF-15_5
 70
0
 62
5
  6
Continuous
  0
LAYER
  5
2F
  2
BOARD-2440X1220
 70
0
 62
8
  6
Continuous
  0
ENDTAB
  0
TABLE
  2
STYLE
 70
1
  0
STYLE
  5
29
  2
Standard
 70
0
 40
0.0
 41
1.0
 50
0.0
 71
0
 42
2.5
  3
txt
  4

  0
ENDTAB
  0
TABLE
  2
VIEW
 70
0
  0
ENDTAB
  0
TABLE
  2
UCS
 70
0
  0
ENDTAB
  0
TABLE
  2
APPID
 70
3
  0
APPID
  5
2A
  2
ACAD
 70
0
  0
APPID
  5
36E
  2
HATCHBACKGROUNDCOLOR
 70
0
  0
APPID
  5
36F
  2
EZDXF
 70
0
  0
ENDTAB
  0
TABLE
  2
DIMSTYLE
 70
1
  0
DIMSTYLE
105
2B
  2
Standard
 70
0
  3

  4

  5

  6

  7

 40
1.0
 41
2.5
 42
0.625
 43
3.75
 44
1.25
 45
0.0
 46
0.0
 47
0.0
 48
0.0
140
2.5
141
2.5
142
0.0
143
0.03937007874
144
1.0
145
0.0
146
1.0
147
0.625
 71
0
 72
0
 73
0
 74
0
 75
0
 76
0
 77
1
 78
8
170
0
171
3
172
1
173
0
174
0
175
0
176
0
177
0
178
0
  0
ENDTAB
  0
ENDSEC
  0
SECTION
  2
BLOCKS
  0
BLOCK
  5
18
  8
0
  2
$Model_Space
 70
0
 10
0.0
 20
0.0
 30
0.0
  3
$Model_Space
  1

1001
EZDXF
1000
CREATED_BY_EZDXF
1000
1.4.4 @ 2026-10-01T15:07:49.173077+00:00
1000
WRITTEN_BY_EZDXF
1000
1.4.4 @ 2026-10-01T15:07:49.205147+00:00
  0
ENDBLK
  5
19
  8
0
  0
BLOCK
  5
1C
  8
0
  2
$Paper_Space
 70
0
 10
0.0
 20
0.0
 30
0.0
  3
$Paper_Space
  1

  0
ENDBLK
  5
1D
  8
0
  0
ENDSEC
  0
SECTION
  2
ENTITIES
  0
POLYLINE
  5
30
  8
BOARD-2440X1220
 66
1
 10
0.0
 20
0.0
 30
0.0
 70
1
  0
VERTEX
  5
32
  8
BOARD-2440X1220
 10
0.0
 20
0.0
 30
0.0
 70
0
  0
VERTEX
  5
33
  8
BOARD-2440X1220
 10
2440.0
 20
0.0
 30
0.0
 70
0
  0
VERTEX
  5
34
  8
BOARD-2440X1220
 10
2440.0
 20
1220.0
 30
0.0
 70
0
  0
VERTEX
  5
35
  8
BOARD-2440X1220
 10
0.0
 20
1220.0
 30
0.0
 70
0
  0
SEQEND
  5
31
  8
BOARD-2440X1220
  0
POLYLINE
  5
36
  8
CUT
 66
1
 10
0.0
 20
0.0
 30
0.0
 70
1
  0
VERTEX
  5
38
  8
CUT
 10
804.6808360041198
 20
18.0
 30
0.0
 70
0
  0
VERTEX
  5
39
  8
CUT
 10
1141.829765720171
 20
339.2951901154468
 30
0.0
 42
0.4283865023507377
 70
0
  0
VERTEX
  5
3A
  8
CUT
 10
18.0
 20
339.2951901154468
 30
0.0
 70
0
  0
VERTEX
  5
3B
  8
CUT
 10
355.14892971605127
 20
18.0
 30
0.0
 42
-0.4283865023507377
 70
0
  0
SEQEND
  5
37
  8
CUT
  0
POLYLINE
  5
3C
  8
POCKET-KERF-15_5
 66
1
 10
0.0
 20
0.0
 30
0.0
 70
1
  0
VERTEX
  5
3E
  8
POCKET-KERF-15_5
 10
792.0248898292907
 20
22.271838242901584
 30
0.0
 70
0
  0
VERTEX
  5
3F
  8
POCKET-KERF-15_5
 10
796.2883280574417
 20
18.050097550397982
 30
0.0
 70
0
  0
VERTEX
  5
40
  8
POCKET-KERF-15_5
 10
1132.4270096061252
 20
357.508773309348
 30
0.0
 70
0
  0
VERTEX
  5
41
  8
POCKET-KERF-15_5
 10
1128.1635713779742
 20
361.73051400185153
 30
0.0
 70
0
  0
SEQEND
  5
3D
  8
POCKET-KERF-15_5
  0
POLYLINE
  5
42
  8
POCKET-KERF-15_5
 66
1
 10
0.0
 20
0.0
 30
0.0
 70
1
  0
VERTEX
  5
44
  8
POCKET-KERF-15_5
 10
1012.6854145148793
 20
262.16456980075765
 30
0.0
 70
0
  0
VERTEX
  5
45
  8
POCKET-KERF-15_5
 10
1017.0284413110769
 20
258.02474876024024
 30
0.0
 70
0
  0
VERTEX
  5
46
  8
POCKET-KERF-15_5
 10
1121.7870926674163
 20
367.92554532153804
 30
0.0
 70
0
  0
VERTEX
  5
47
  8
POCKET-KERF-15_5
 10
1117.4440658712188
 20
372.06536636205556
 30
0.0
 70
0
  0
SEQEND
  5
43
  8
POCKET-KERF-15_5
  0
POLYLINE
  5
48
  8
POCKET-KERF-15_5
 66
1
 10
0.0
 20
0.0
 30
0.0
 70
1
  0
VERTEX
  5
4A
  8
POCKET-KERF-15_5
 10
783.555566738048
 20
30.18710606714594
 30
0.0
 70
0
  0
VERTEX
  5
4B
  8
POCKET-KERF-15_5
 10
787.9766083378225
 20
26.13070480826351
 30
0.0
 70
0
  0
VERTEX
  5
4C
  8
POCKET-KERF-15_5
 10
1110.9508197606856
 20
378.1378986794783
 30
0.0
 70
0
  0
VERTEX
  5
4D
  8
POCKET-KERF-15_5
 10
1106.529778160911
 20
382.1942999383608
 30
0.0
 70
0
  0
SEQEND
  5
49
  8
POCKET-KERF-15_5
  0
POLYLINE
  5
4E
  8
POCKET-KERF-15_5
 66
1
 10
0.0
 20
0.0
 30
0.0
 70
1
  0
VERTEX
  5
50
  8
POCKET-KERF-15_5
 10
994.9251023652007
 20
278.30504015811545
 30
0.0
 70
0
  0
VERTEX
  5
51
  8
POCKET-KERF-15_5
 10
999.4225567341848
 20
274.3335285820394
 30
0.0
 70
0
  0
VERTEX
  5
52
  8
POCKET-KERF-15_5
 10
1099.9221175808586
 20
388.14213277536265
 30
0.0
 70
0
  0
VERTEX
  5
53
  8
POCKET-KERF-15_5
 10
1095.4246632118748
 20
392.11364435143884
 30
0.0
 70
0
  0
SEQEND
  5
4F
  8
POCKET-KERF-15_5
  0
POLYLINE
  5
54
  8
POCKET-KERF-15_5
 66
1
 10
0.0
 20
0.0
 30
0.0
 70
1
  0
VERTEX
  5
56
  8
POCKET-KERF-15_5
 10
774.7911006924917
 20
37.774268467521075
 30
0.0
 70
0
  0
VERTEX
  5
57
  8
POCKET-KERF-15_5
 10
779.3633381069417
 20
33.88908571430293
 30
0.0
 70
0
  0
VERTEX
  5
58
  8
POCKET-KERF-15_5
 10
1088.704982552652
 20
397.93462241669283
 30
0.0
 70
0
  0
VERTEX
  5
59
  8
POCKET-KERF-15_5
 10
1084.132745138202
 20
401.81980516991086
 30
0.0
 70
0
  0
SEQEND
  5
55
  8
POCKET-KERF-15_5
  0
POLYLINE
  5
5A
  8
POCKET-KERF-15_5
 66
1
 10
0.0
 20
0.0
 30
0.0
 70
1
  0
VERTEX
  5
5C
  8
POCKET-KERF-15_5
 10
976.563302634934
 20
293.7577998364496
 30
0.0
 70
0
  0
VERTEX
  5
5D
  8
POCKET-KERF-15_5
 10
981.2086662722868
 20
289.96035376352637
 30
0.0
 70
0
  0
VERTEX
  5
5E
  8
POCKET-KERF-15_5
 10
1077.3034793824058
 20
407.5118191399227
 30
0.0
 70
0
  0
VERTEX
  5
5F
  8
POCKET-KERF-15_5
 10
1072.658115745053
 20
411.309265212846
 30
0.0
 70
0
  0
SEQEND
  5
5B
  8
POCKET-KERF-15_5
  0
POLYLINE
  5
60
  8
POCKET-KERF-15_5
 66
1
 10
0.0
 20
0.0
 30
0.0
 70
1
  0
VERTEX
  5
62
  8
POCKET-KERF-15_5
 10
765.7441943134951
 20
45.02232912696971
 30
0.0
 70
0
  0
VERTEX
  5
63
  8
POCKET-KERF-15_5
 10
770.4610008527438
 20
41.313995799004175
 30
0.0
 70
0
  0
VERTEX
  5
64
  8
POCKET-KERF-15_5
 10
1065.7217395851742
 20
416.8702524963022
 30
0.0
 70
0
  0
VERTEX
  5
65
  8
POCKET-KERF-15_5
 10
1061.0049330459256
 20
420.57858582426763
 30
0.0
 70
0
  0
SEQEND
  5
61
  8
POCKET-KERF-15_5
  0
POLYLINE
  5
66
  8
POCKET-KERF-15_5
 66
1
 10
0.0
 20
0.0
 30
0.0
 70
1
  0
VERTEX
  5
68
  8
POCKET-KERF-15_5
 10
957.6266276675251
 20
308.50045265707445
 30
0.0
 70
0
  0
VERTEX
  5
69
  8
POCKET-KERF-15_5
 10
962.4131678991972
 20
304.8825758473165
 30
0.0
 70
0
  0
VERTEX
  5
6A
  8
POCKET-KERF-15_5
 10
1053.9639599876034
 20
426.0065313094474
 30
0.0
 70
0
  0
VERTEX
  5
6B
  8
POCKET-KERF-15_5
 10
1049.1774197559314
 20
429.6244081192053
 30
0.0
 70
0
  0
SEQEND
  5
67
  8
POCKET-KERF-15_5
  0
POLYLINE
  5
6C
  8
POCKET-KERF-15_5
 66
1
 10
0.0
 20
0.0
 30
0.0
 70
1
  0
VERTEX
  5
6E
  8
POCKET-KERF-15_5
 10
756.4279595717373
 20
51.92078319942985
 30
0.0
 70
0
  0
VERTEX
  5
6F
  8
POCKET-KERF-15_5
 10
761.2824990172535
 20
48.39467390277875
 30
0.0
 70
0
  0
VERTEX
  5
70
  8
POCKET-KERF-15_5
 10
1042.034401207147
 20
434.91734490418787
 30
0.0
 70
0
  0
VERTEX
  5
71
  8
POCKET-KERF-15_5
 10
1037.1798617616312
 20
438.443454200839
 30
0.0
 70
0
  0
SEQEND
  5
6D
  8
POCKET-KERF-15_5
  0
POLYLINE
  5
72
  8
POCKET-KERF-15_5
 66
1
 10
0.0
 20
0.0
 30
0.0
 70
1
  0
VERTEX
  5
74
  8
POCKET-KERF-15_5
 10
938.142522991482
 20
322.5116316218785
 30
0.0
 70
0
  0
VERTEX
  5
75
  8
POCKET-KERF-15_5
 10
943.0633025316716
 20
319.0785675798234
 30
0.0
 70
0
  0
VERTEX
  5
76
  8
POCKET-KERF-15_5
 10
1029.9373861081633
 20
443.5994643062426
 30
0.0
 70
0
  0
VERTEX
  5
77
  8
POCKET-KERF-15_5
 10
1025.0166065679737
 20
447.0325283482977
 30
0.0
 70
0
  0
SEQEND
  5
73
  8
POCKET-KERF-15_5
  0
POLYLINE
  5
78
  8
POCKET-KERF-15_5
 66
1
 10
0.0
 20
0.0
 30
0.0
 70
1
  0
VERTEX
  5
7A
  8
POCKET-KERF-15_5
 10
746.8558987841054
 20
58.459632534844474
 30
0.0
 70
0
  0
VERTEX
  5
7B
  8
POCKET-KERF-15_5
 10
751.841135296652
 20
55.12085777245457
 30
0.0
 70
0
  0
VERTEX
  5
7C
  8
POCKET-KERF-15_5
 10
1017.6772982354563
 20
452.04974341228893
 30
0.0
 70
0
  0
VERTEX
  5
7D
  8
POCKET-KERF-15_5
 10
1012.6920617229097
 20
455.38851817467884
 30
0.0
 70
0
  0
SEQEND
  5
79
  8
POCKET-KERF-15_5
  0
POLYLINE
  5
7E
  8
POCKET-KERF-15_5
 66
1
 10
0.0
 20
0.0
 30
0.0
 70
1
  0
VERTEX
  5
80
  8
POCKET-KERF-15_5
 10
918.1392275426927
 20
335.77102988119697
 30
0.0
 70
0
  0
VERTEX
  5
81
  8
POCKET-KERF-15_5
 10
923.1871145482762
 20
332.52775425632905
 30
0.0
 70
0
  0
VERTEX
  5
82
  8
POCKET-KERF-15_5
 10
1005.2585802258302
 20
460.26512013000325
 30
0.0
 70
0
  0
VERTEX
  5
83
  8
POCKET-KERF-15_5
 10
1000.2106932202469
 20
463.5083957548712
 30
0.0
 70
0
  0
SEQEND
  5
7F
  8
POCKET-KERF-15_5
  0
POLYLINE
  5
84
  8
POCKET-KERF-15_5
 66
1
 10
0.0
 20
0.0
 30
0.0
 70
1
  0
VERTEX
  5
86
  8
POCKET-KERF-15_5
 10
737.0418850443538
 20
64.6294001697998
 30
0.0
 70
0
  0
VERTEX
  5
87
  8
POCKET-KERF-15_5
 10
742.1505933612564
 20
61.48279893468754
 30
0.0
 70
0
  0
VERTEX
  5
88
  8
POCKET-KERF-15_5
 10
992.6857321982286
 20
468.24261748765906
 30
0.0
 70
0
  0
VERTEX
  5
89
  8
POCKET-KERF-15_5
 10
987.5770238813259
 20
471.3892187227713
 30
0.0
 70
0
  0
SEQEND
  5
85
  8
POCKET-KERF-15_5
  0
POLYLINE
  5
8A
  8
POCKET-KERF-15_5
 66
1
 10
0.0
 20
0.0
 30
0.0
 70
1
  0
VERTEX
  5
8C
  8
POCKET-KERF-15_5
 10
897.645732736833
 20
348.25943016517925
 30
0.0
 70
0
  0
VERTEX
  5
8D
  8
POCKET-KERF-15_5
 10
902.8134111437729
 20
345.21064354056165
 30
0.0
 70
0
  0
VERTEX
  5
8E
  8
POCKET-KERF-15_5
 10
979.9633101230451
 20
475.97934471287937
 30
0.0
 70
0
  0
VERTEX
  5
8F
  8
POCKET-KERF-15_5
 10
974.7956317161052
 20
479.028131337497
 30
0.0
 70
0
  0
SEQEND
  5
8B
  8
POCKET-KERF-15_5
  0
POLYLINE
  5
90
  8
POCKET-KERF-15_5
 66
1
 10
0.0
 20
0.0
 30
0.0
 70
1
  0
VERTEX
  5
92
  8
POCKET-KERF-15_5
 10
727.000142116387
 20
70.42114406279147
 30
0.0
 70
0
  0
VERTEX
  5
93
  8
POCKET-KERF-15_5
 10
732.2249180233371
 20
67.47127682473585
 30
0.0
 70
0
  0
VERTEX
  5
94
  8
POCKET-KERF-15_5
 10
967.0959241711967
 20
483.4724982801534
 30
0.0
 70
0
  0
VERTEX
  5
95
  8
POCKET-KERF-15_5
 10
961.8711482642466
 20
486.4223655182091
 30
0.0
 70
0
  0
SEQEND
  5
91
  8
POCKET-KERF-15_5
  0
POLYLINE
  5
96
  8
POCKET-KERF-15_5
 66
1
 10
0.0
 20
0.0
 30
0.0
 70
1
  0
VERTEX
  5
98
  8
POCKET-KERF-15_5
 10
876.6917404511801
 20
359.9587326359919
 30
0.0
 70
0
  0
VERTEX
  5
99
  8
POCKET-KERF-15_5
 10
881.9717205779307
 20
357.108853715561
 30
0.0
 70
0
  0
VERTEX
  5
9A
  8
POCKET-KERF-15_5
 10
954.0882370435539
 20
490.71936292673917
 30
0.0
 70
0
  0
VERTEX
  5
9B
  8
POCKET-KERF-15_5
 10
948.8082569168032
 20
493.5692418471701
 30
0.0
 70
0
  0
SEQEND
  5
97
  8
POCKET-KERF-15_5
  0
POLYLINE
  5
9C
  8
POCKET-KERF-15_5
 66
1
 10
0.0
 20
0.0
 30
0.0
 70
1
  0
VERTEX
  5
9E
  8
POCKET-KERF-15_5
 10
716.7452238193036
 20
75.82647005421124
 30
0.0
 70
0
  0
VERTEX
  5
9F
  8
POCKET-KERF-15_5
 10
722.0784948815233
 20
73.07761215011878
 30
0.0
 70
0
  0
VERTEX
  5
A0
  8
POCKET-KERF-15_5
 10
940.9449622813383
 20
497.71731263658165
 30
0.0
 70
0
  0
VERTEX
  5
A1
  8
POCKET-KERF-15_5
 10
935.6116912191189
 20
500.466170540674
 30
0.0
 70
0
  0
SEQEND
  5
9D
  8
POCKET-KERF-15_5
  0
POLYLINE
  5
A2
  8
POCKET-KERF-15_5
 66
1
 10
0.0
 20
0.0
 30
0.0
 70
1
  0
VERTEX
  5
A4
  8
POCKET-KERF-15_5
 10
855.3076199767324
 20
370.8519811204929
 30
0.0
 70
0
  0
VERTEX
  5
A5
  8
POCKET-KERF-15_5
 10
860.6922493792752
 20
368.2051403248893
 30
0.0
 70
0
  0
VERTEX
  5
A6
  8
POCKET-KERF-15_5
 10
927.6708625580958
 20
504.4638115918908
 30
0.0
 70
0
  0
VERTEX
  5
A7
  8
POCKET-KERF-15_5
 10
922.286233155553
 20
507.1106523874944
 30
0.0
 70
0
  0
SEQEND
  5
A3
  8
POCKET-KERF-15_5
  0
POLYLINE
  5
A8
  8
POCKET-KERF-15_5
 66
1
 10
0.0
 20
0.0
 30
0.0
 70
1
  0
VERTEX
  5
AA
  8
POCKET-KERF-15_5
 10
706.2919929340802
 20
80.83754403227093
 30
0.0
 70
0
  0
VERTEX
  5
AB
  8
POCKET-KERF-15_5
 10
711.7260294712937
 20
78.2936794697936
 30
0.0
 70
0
  0
VERTEX
  5
AC
  8
POCKET-KERF-15_5
 10
914.2707479538664
 20
510.9564150920361
 30
0.0
 70
0
  0
VERTEX
  5
AD
  8
POCKET-KERF-15_5
 10
908.836711416653
 20
513.5002796545135
 30
0.0
 70
0
  0
SEQEND
  5
A9
  8
POCKET-KERF-15_5
  0
POLYLINE
  5
AE
  8
POCKET-KERF-15_5
 66
1
 10
0.0
 20
0.0
 30
0.0
 70
1
  0
VERTEX
  5
B0
  8
POCKET-KERF-15_5
 10
833.5243640030257
 20
380.9233876853547
 30
0.0
 70
0
  0
VERTEX
  5
B1
  8
POCKET-KERF-15_5
 10
839.0058385658003
 20
378.48342116557336
 30
0.0
 70
0
  0
VERTEX
  5
B2
  8
POCKET-KERF-15_5
 10
900.7494742121766
 20
517.1927704394215
 30
0.0
 70
0
  0
VERTEX
  5
B3
  8
POCKET-KERF-15_5
 10
895.267999649402
 20
519.6327369592028
 30
0.0
 70
0
  0
SEQEND
  5
AF
  8
POCKET-KERF-15_5
  0
POLYLINE
  5
B4
  8
POCKET-KERF-15_5
 66
1
 10
0.0
 20
0.0
 30
0.0
 70
1
  0
VERTEX
  5
B6
  8
POCKET-KERF-15_5
 10
695.6555996624684
 20
85.44710328723082
 30
0.0
 70
0
  0
VERTEX
  5
B7
  8
POCKET-KERF-15_5
 10
701.1825259517757
 20
83.11191897061602
 30
0.0
 70
0
  0
VERTEX
  5
B8
  8
POCKET-KERF-15_5
 10
887.1119409804824
 20
523.1706177920233
 30
0.0
 70
0
  0
VERTEX
  5
B9
  8
POCKET-KERF-15_5
 10
881.585014691175
 20
525.5058021086382
 30
0.0
 70
0
  0
SEQEND
  5
B5
  8
POCKET-KERF-15_5
  0
POLYLINE
  5
BA
  8
POCKET-KERF-15_5
 66
1
 10
0.0
 20
0.0
 30
0.0
 70
1
  0
VERTEX
  5
BC
  8
POCKET-KERF-15_5
 10
811.3735436994364
 20
390.15835551902165
 30
0.0
 70
0
  0
VERTEX
  5
BD
  8
POCKET-KERF-15_5
 10
816.9439189460954
 20
387.9287995965547
 30
0.0
 70
0
  0
VERTEX
  5
BE
  8
POCKET-KERF-15_5
 10
873.3630900347055
 20
528.88779098228
 30
0.0
 70
0
  0
VERTEX
  5
BF
  8
POCKET-KERF-15_5
 10
867.7927147880464
 20
531.1173469047469
 30
0.0
 70
0
  0
SEQEND
  5
BB
  8
POCKET-KERF-15_5
  0
POLYLINE
  5
C0
  8
POCKET-KERF-15_5
 66
1
 10
0.0
 20
0.0
 30
0.0
 70
1
  0
VERTEX
  5
C2
  8
POCKET-KERF-15_5
 10
684.8514596693228
 20
89.64846703747774
 30
0.0
 70
0
  0
VERTEX
  5
C3
  8
POCKET-KERF-15_5
 10
690.4632653597358
 20
87.52534742402018
 30
0.0
 70
0
  0
VERTEX
  5
C4
  8
POCKET-KERF-15_5
 10
859.5079034885026
 20
534.3422183020361
 30
0.0
 70
0
  0
VERTEX
  5
C5
  8
POCKET-KERF-15_5
 10
853.8960977980897
 20
536.4653379154936
 30
0.0
 70
0
  0
SEQEND
  5
C1
  8
POCKET-KERF-15_5
  0
POLYLINE
  5
C6
  8
POCKET-KERF-15_5
 66
1
 10
0.0
 20
0.0
 30
0.0
 70
1
  0
VERTEX
  5
C8
  8
POCKET-KERF-15_5
 10
788.8872629580765
 20
398.5435000873354
 30
0.0
 70
0
  0
VERTEX
  5
C9
  8
POCKET-KERF-15_5
 10
794.5384655656688
 20
396.52758612886856
 30
0.0
 70
0
  0
VERTEX
  5
CA
  8
POCKET-KERF-15_5
 10
845.5514019879181
 20
539.5319232532594
 30
0.0
 70
0
  0
VERTEX
  5
CB
  8
POCKET-KERF-15_5
 10
839.9001993803256
 20
541.5478372117262
 30
0.0
 70
0
  0
SEQEND
  5
C7
  8
POCKET-KERF-15_5
  0
POLYLINE
  5
CC
  8
POCKET-KERF-15_5
 66
1
 10
0.0
 20
0.0
 30
0.0
 70
1
  0
VERTEX
  5
CE
  8
POCKET-KERF-15_5
 10
673.8952317401852
 20
93.4355461121946
 30
0.0
 70
0
  0
VERTEX
  5
CF
  8
POCKET-KERF-15_5
 10
679.583783462286
 20
91.52756830703444
 30
0.0
 70
0
  0
VERTEX
  5
D0
  8
POCKET-KERF-15_5
 10
831.4986428920715
 20
544.4550252642559
 30
0.0
 70
0
  0
VERTEX
  5
D1
  8
POCKET-KERF-15_5
 10
825.8100911699707
 20
546.363003069416
 30
0.0
 70
0
  0
SEQEND
  5
CD
  8
POCKET-KERF-15_5
  0
POLYLINE
  5
D2
  8
POCKET-KERF-15_5
 66
1
 10
0.0
 20
0.0
 30
0.0
 70
1
  0
VERTEX
  5
D4
  8
POCKET-KERF-15_5
 10
766.0981118645968
 20
406.06666853216797
 30
0.0
 70
0
  0
VERTEX
  5
D5
  8
POCKET-KERF-15_5
 10
771.8219513644926
 20
404.26731826625763
 30
0.0
 70
0
  0
VERTEX
  5
D6
  8
POCKET-KERF-15_5
 10
817.3547184405461
 20
549.1097403711256
 30
0.0
 70
0
  0
VERTEX
  5
D7
  8
POCKET-KERF-15_5
 10
811.6308789406503
 20
550.9090906370359
 30
0.0
 70
0
  0
SEQEND
  5
D3
  8
POCKET-KERF-15_5
  0
POLYLINE
  5
D8
  8
POCKET-KERF-15_5
 66
1
 10
0.0
 20
0.0
 30
0.0
 70
1
  0
VERTEX
  5
DA
  8
POCKET-KERF-15_5
 10
662.8027950865053
 20
96.8028517765913
 30
0.0
 70
0
  0
VERTEX
  5
DB
  8
POCKET-KERF-15_5
 10
668.5598482403984
 20
95.11278107296687
 30
0.0
 70
0
  0
VERTEX
  5
DC
  8
POCKET-KERF-15_5
 10
803.1247539081336
 20
553.4943818642079
 30
0.0
 70
0
  0
VERTEX
  5
DD
  8
POCKET-KERF-15_5
 10
797.3677007542406
 20
555.1844525678324
 30
0.0
 70
0
  0
SEQEND
  5
D9
  8
POCKET-KERF-15_5
  0
POLYLINE
  5
DE
  8
POCKET-KERF-15_5
 66
1
 10
0.0
 20
0.0
 30
0.0
 70
1
  0
VERTEX
  5
E0
  8
POCKET-KERF-15_5
 10
743.039119464333
 20
412.7169572849477
 30
0.0
 70
0
  0
VERTEX
  5
E1
  8
POCKET-KERF-15_5
 10
748.8273001129323
 20
411.1367785674665
 30
0.0
 70
0
  0
VERTEX
  5
E2
  8
POCKET-KERF-15_5
 10
788.8139057476105
 20
557.6073608992903
 30
0.0
 70
0
  0
VERTEX
  5
E3
  8
POCKET-KERF-15_5
 10
783.0257250990112
 20
559.1875396167715
 30
0.0
 70
0
  0
SEQEND
  5
DF
  8
POCKET-KERF-15_5
  0
POLYLINE
  5
E4
  8
POCKET-KERF-15_5
 66
1
 10
0.0
 20
0.0
 30
0.0
 70
1
  0
VERTEX
  5
E6
  8
POCKET-KERF-15_5
 10
651.5902263313933
 20
99.74550368690262
 30
0.0
 70
0
  0
VERTEX
  5
E7
  8
POCKET-KERF-15_5
 10
657.4074370358677
 20
98.27578955832263
 30
0.0
 70
0
  0
VERTEX
  5
E8
  8
POCKET-KERF-15_5
 10
774.4273597212153
 20
561.4471870733489
 30
0.0
 70
0
  0
VERTEX
  5
E9
  8
POCKET-KERF-15_5
 10
768.6101490167408
 20
562.916901201929
 30
0.0
 70
0
  0
SEQEND
  5
E5
  8
POCKET-KERF-15_5
  0
POLYLINE
  5
EA
  8
POCKET-KERF-15_5
 66
1
 10
0.0
 20
0.0
 30
0.0
 70
1
  0
VERTEX
  5
EC
  8
POCKET-KERF-15_5
 10
719.7437058922549
 20
418.48472786955034
 30
0.0
 70
0
  0
VERTEX
  5
ED
  8
POCKET-KERF-15_5
 10
725.5878386942734
 20
417.12601090403786
 30
0.0
 70
0
  0
VERTEX
  5
EE
  8
POCKET-KERF-15_5
 10
759.9703290215056
 20
565.0124689646209
 30
0.0
 70
0
  0
VERTEX
  5
EF
  8
POCKET-KERF-15_5
 10
754.126196219487
 20
566.3711859301334
 30
0.0
 70
0
  0
SEQEND
  5
EB
  8
POCKET-KERF-15_5
  0
POLYLINE
  5
F0
  8
POCKET-KERF-15_5
 66
1
 10
0.0
 20
0.0
 30
0.0
 70
1
  0
VERTEX
  5
F2
  8
POCKET-KERF-15_5
 10
640.273776209254
 20
102.25923696362726
 30
0.0
 70
0
  0
VERTEX
  5
F3
  8
POCKET-KERF-15_5
 10
646.1427133948375
 20
101.01200951377065
 30
0.0
 70
0
  0
VERTEX
  5
F4
  8
POCKET-KERF-15_5
 10
745.4480523822762
 20
568.301914636808
 30
0.0
 70
0
  0
VERTEX
  5
F5
  8
POCKET-KERF-15_5
 10
739.5791151966927
 20
569.5491420866646
 30
0.0
 70
0
  0
SEQEND
  5
F1
  8
POCKET-KERF-15_5
  0
POLYLINE
  5
F6
  8
POCKET-KERF-15_5
 66
1
 10
0.0
 20
0.0
 30
0.0
 70
1
  0
VERTEX
  5
F8
  8
POCKET-KERF-15_5
 10
696.2456339360955
 20
423.3616208716498
 30
0.0
 70
0
  0
VERTEX
  5
F9
  8
POCKET-KERF-15_5
 10
702.137248803004
 20
422.22633489004755
 30
0.0
 70
0
  0
VERTEX
  5
FA
  8
POCKET-KERF-15_5
 10
730.8657921802198
 20
571.314332107229
 30
0.0
 70
0
  0
VERTEX
  5
FB
  8
POCKET-KERF-15_5
 10
724.9741773133113
 20
572.4496180888312
 30
0.0
 70
0
  0
SEQEND
  5
F7
  8
POCKET-KERF-15_5
  0
POLYLINE
  5
FC
  8
POCKET-KERF-15_5
 66
1
 10
0.0
 20
0.0
 30
0.0
 70
1
  0
VERTEX
  5
FE
  8
POCKET-KERF-15_5
 10
628.8698460130801
 20
104.34040837275352
 30
0.0
 70
0
  0
VERTEX
  5
FF
  8
POCKET-KERF-15_5
 10
634.7820036414572
 20
103.31747524824202
 30
0.0
 70
0
  0
VERTEX
  5
100
  8
POCKET-KERF-15_5
 10
716.2288325280222
 20
574.0486297787551
 30
0.0
 70
0
  0
VERTEX
  5
101
  8
POCKET-KERF-15_5
 10
710.3166748996451
 20
575.0715629032667
 30
0.0
 70
0
  0
SEQEND
  5
FD
  8
POCKET-KERF-15_5
  0
POLYLINE
  5
102
  8
POCKET-KERF-15_5
 66
1
 10
0.0
 20
0.0
 30
0.0
 70
1
  0
VERTEX
  5
104
  8
POCKET-KERF-15_5
 10
672.578960102864
 20
427.3405680542855
 30
0.0
 70
0
  0
VERTEX
  5
105
  8
POCKET-KERF-15_5
 10
678.5095181288584
 20
426.43035846286597
 30
0.0
 70
0
  0
VERTEX
  5
106
  8
POCKET-KERF-15_5
 10
701.5424773595801
 20
576.5038168353669
 30
0.0
 70
0
  0
VERTEX
  5
107
  8
POCKET-KERF-15_5
 10
695.6119193335855
 20
577.4140264267864
 30
0.0
 70
0
  0
SEQEND
  5
103
  8
POCKET-KERF-15_5
  0
POLYLINE
  5
108
  8
POCKET-KERF-15_5
 66
1
 10
0.0
 20
0.0
 30
0.0
 70
1
  0
VERTEX
  5
10A
  8
POCKET-KERF-15_5
 10
617.3949638235315
 20
105.98600160601534
 30
0.0
 70
0
  0
VERTEX
  5
10B
  8
POCKET-KERF-15_5
 10
623.3417732156171
 20
105.18884537653325
 30
0.0
 70
0
  0
VERTEX
  5
10C
  8
POCKET-KERF-15_5
 10
686.8120485080374
 20
578.6790036011913
 30
0.0
 70
0
  0
VERTEX
  5
10D
  8
POCKET-KERF-15_5
 10
680.8652391159518
 20
579.4761598306733
 30
0.0
 70
0
  0
SEQEND
  5
109
  8
POCKET-KERF-15_5
  0
POLYLINE
  5
10E
  8
POCKET-KERF-15_5
 66
1
 10
0.0
 20
0.0
 30
0.0
 70
1
  0
VERTEX
  5
110
  8
POCKET-KERF-15_5
 10
648.7779852596606
 20
430.4158026020835
 30
0.0
 70
0
  0
VERTEX
  5
111
  8
POCKET-KERF-15_5
 10
654.7388910973714
 20
429.7319885967102
 30
0.0
 70
0
  0
VERTEX
  5
112
  8
POCKET-KERF-15_5
 10
672.0428837773344
 20
580.5734018628906
 30
0.0
 70
0
  0
VERTEX
  5
113
  8
POCKET-KERF-15_5
 10
666.0819779396235
 20
581.2572158682639
 30
0.0
 70
0
  0
SEQEND
  5
10F
  8
POCKET-KERF-15_5
  0
POLYLINE
  5
114
  8
POCKET-KERF-15_5
 66
1
 10
0.0
 20
0.0
 30
0.0
 70
1
  0
VERTEX
  5
116
  8
POCKET-KERF-15_5
 10
605.8657605542616
 20
107.19363165252368
 30
0.0
 70
0
  0
VERTEX
  5
117
  8
POCKET-KERF-15_5
 10
611.8386028090617
 20
106.62340766208264
 30
0.0
 70
0
  0
VERTEX
  5
118
  8
POCKET-KERF-15_5
 10
657.2403350079693
 20
582.1863251552845
 30
0.0
 70
0
  0
VERTEX
  5
119
  8
POCKET-KERF-15_5
 10
651.2674927531692
 20
582.7565491457256
 30
0.0
 70
0
  0
SEQEND
  5
115
  8
POCKET-KERF-15_5
  0
POLYLINE
  5
11A
  8
POCKET-KERF-15_5
 66
1
 10
0.0
 20
0.0
 30
0.0
 70
1
  0
VERTEX
  5
11C
  8
POCKET-KERF-15_5
 10
624.8772049203335
 20
432.58286747928645
 30
0.0
 70
0
  0
VERTEX
  5
11D
  8
POCKET-KERF-15_5
 10
630.8598192383372
 20
432.1264401334619
 30
0.0
 70
0
  0
VERTEX
  5
11E
  8
POCKET-KERF-15_5
 10
642.4097661376757
 20
583.5171890101001
 30
0.0
 70
0
  0
VERTEX
  5
11F
  8
POCKET-KERF-15_5
 10
636.4271518196718
 20
583.9736163559246
 30
0.0
 70
0
  0
SEQEND
  5
11B
  8
POCKET-KERF-15_5
  0
POLYLINE
  5
120
  8
POCKET-KERF-15_5
 66
1
 10
0.0
 20
0.0
 30
0.0
 70
1
  0
VERTEX
  5
122
  8
POCKET-KERF-15_5
 10
594.2989458482008
 20
107.96154825543965
 30
0.0
 70
0
  0
VERTEX
  5
123
  8
POCKET-KERF-15_5
 10
600.2891643344609
 20
107.61908294790123
 30
0.0
 70
0
  0
VERTEX
  5
124
  8
POCKET-KERF-15_5
 10
627.5565512577135
 20
584.565511167764
 30
0.0
 70
0
  0
VERTEX
  5
125
  8
POCKET-KERF-15_5
 10
621.5663327714534
 20
584.9079764753026
 30
0.0
 70
0
  0
SEQEND
  5
121
  8
POCKET-KERF-15_5
  0
POLYLINE
  5
126
  8
POCKET-KERF-15_5
 66
1
 10
0.0
 20
0.0
 30
0.0
 70
1
  0
VERTEX
  5
128
  8
POCKET-KERF-15_5
 10
600.9112592500276
 20
433.8386218894787
 30
0.0
 70
0
  0
VERTEX
  5
129
  8
POCKET-KERF-15_5
 10
606.9069112541061
 20
433.6102427179488
 30
0.0
 70
0
  0
VERTEX
  5
12A
  8
POCKET-KERF-15_5
 10
612.686072665483
 20
585.3309117521582
 30
0.0
 70
0
  0
VERTEX
  5
12B
  8
POCKET-KERF-15_5
 10
606.6904206614045
 20
585.5592909236881
 30
0.0
 70
0
  0
SEQEND
  5
127
  8
POCKET-KERF-15_5
  0
POLYLINE
  5
12C
  8
POCKET-KERF-15_5
 66
1
 10
0.0
 20
0.0
 30
0.0
 70
1
  0
VERTEX
  5
12E
  8
POCKET-KERF-15_5
 10
582.7112838597382
 20
108.28863844867756
 30
0.0
 70
0
  0
VERTEX
  5
12F
  8
POCKET-KERF-15_5
 10
588.7101967622762
 20
108.17442816996181
 30
0.0
 70
0
  0
VERTEX
  5
130
  8
POCKET-KERF-15_5
 10
597.8037189141634
 20
585.8131134082707
 30
0.0
 70
0
  0
VERTEX
  5
131
  8
POCKET-KERF-15_5
 10
591.8048060116255
 20
585.9273236869865
 30
0.0
 70
0
  0
SEQEND
  5
12D
  8
POCKET-KERF-15_5
  0
POLYLINE
  5
132
  8
POCKET-KERF-15_5
 66
1
 10
0.0
 20
0.0
 30
0.0
 70
1
  0
VERTEX
  5
134
  8
POCKET-KERF-15_5
 10
576.9148828600855
 20
434.1812458276424
 30
0.0
 70
0
  0
VERTEX
  5
135
  8
POCKET-KERF-15_5
 10
582.9148828600855
 20
434.1812458276424
 30
0.0
 70
0
  0
VERTEX
  5
136
  8
POCKET-KERF-15_5
 10
582.9148828600855
 20
586.0119414027033
 30
0.0
 70
0
  0
VERTEX
  5
137
  8
POCKET-KERF-15_5
 10
576.9148828600855
 20
586.0119414027033
 30
0.0
 70
0
  0
SEQEND
  5
133
  8
POCKET-KERF-15_5
  0
POLYLINE
  5
138
  8
POCKET-KERF-15_5
 66
1
 10
0.0
 20
0.0
 30
0.0
 70
1
  0
VERTEX
  5
13A
  8
POCKET-KERF-15_5
 10
571.119568957895
 20
108.17442816996181
 30
0.0
 70
0
  0
VERTEX
  5
13B
  8
POCKET-KERF-15_5
 10
577.1184818604329
 20
108.28863844867756
 30
0.0
 70
0
  0
VERTEX
  5
13C
  8
POCKET-KERF-15_5
 10
568.0249597085457
 20
585.9273236869865
 30
0.0
 70
0
  0
VERTEX
  5
13D
  8
POCKET-KERF-15_5
 10
562.0260468060077
 20
585.8131134082707
 30
0.0
 70
0
  0
SEQEND
  5
139
  8
POCKET-KERF-15_5
  0
POLYLINE
  5
13E
  8
POCKET-KERF-15_5
 66
1
 10
0.0
 20
0.0
 30
0.0
 70
1
  0
VERTEX
  5
140
  8
POCKET-KERF-15_5
 10
552.9228544660648
 20
433.6102427179488
 30
0.0
 70
0
  0
VERTEX
  5
141
  8
POCKET-KERF-15_5
 10
558.9185064701434
 20
433.8386218894787
 30
0.0
 70
0
  0
VERTEX
  5
142
  8
POCKET-KERF-15_5
 10
553.1393450587665
 20
585.5592909236881
 30
0.0
 70
0
  0
VERTEX
  5
143
  8
POCKET-KERF-15_5
 10
547.1436930546879
 20
585.3309117521582
 30
0.0
 70
0
  0
SEQEND
  5
13F
  8
POCKET-KERF-15_5
  0
POLYLINE
  5
144
  8
POCKET-KERF-15_5
 66
1
 10
0.0
 20
0.0
 30
0.0
 70
1
  0
VERTEX
  5
146
  8
POCKET-KERF-15_5
 10
559.5406013857101
 20
107.61908294790123
 30
0.0
 70
0
  0
VERTEX
  5
147
  8
POCKET-KERF-15_5
 10
565.5308198719703
 20
107.96154825543965
 30
0.0
 70
0
  0
VERTEX
  5
148
  8
POCKET-KERF-15_5
 10
538.2634329487177
 20
584.9079764753026
 30
0.0
 70
0
  0
VERTEX
  5
149
  8
POCKET-KERF-15_5
 10
532.2732144624575
 20
584.565511167764
 30
0.0
 70
0
  0
SEQEND
  5
145
  8
POCKET-KERF-15_5
  0
POLYLINE
  5
14A
  8
POCKET-KERF-15_5
 66
1
 10
0.0
 20
0.0
 30
0.0
 70
1
  0
VERTEX
  5
14C
  8
POCKET-KERF-15_5
 10
528.9699464818339
 20
432.1264401334619
 30
0.0
 70
0
  0
VERTEX
  5
14D
  8
POCKET-KERF-15_5
 10
534.9525607998377
 20
432.58286747928645
 30
0.0
 70
0
  0
VERTEX
  5
14E
  8
POCKET-KERF-15_5
 10
523.4026139004992
 20
583.9736163559246
 30
0.0
 70
0
  0
VERTEX
  5
14F
  8
POCKET-KERF-15_5
 10
517.4199995824955
 20
583.5171890101001
 30
0.0
 70
0
  0
SEQEND
  5
14B
  8
POCKET-KERF-15_5
  0
POLYLINE
  5
150
  8
POCKET-KERF-15_5
 66
1
 10
0.0
 20
0.0
 30
0.0
 70
1
  0
VERTEX
  5
152
  8
POCKET-KERF-15_5
 10
547.9911629111094
 20
106.62340766208264
 30
0.0
 70
0
  0
VERTEX
  5
153
  8
POCKET-KERF-15_5
 10
553.9640051659095
 20
107.19363165252368
 30
0.0
 70
0
  0
VERTEX
  5
154
  8
POCKET-KERF-15_5
 10
508.5622729670019
 20
582.7565491457256
 30
0.0
 70
0
  0
VERTEX
  5
155
  8
POCKET-KERF-15_5
 10
502.5894307122018
 20
582.1863251552845
 30
0.0
 70
0
  0
SEQEND
  5
151
  8
POCKET-KERF-15_5
  0
POLYLINE
  5
156
  8
POCKET-KERF-15_5
 66
1
 10
0.0
 20
0.0
 30
0.0
 70
1
  0
VERTEX
  5
158
  8
POCKET-KERF-15_5
 10
505.0908746227997
 20
429.7319885967102
 30
0.0
 70
0
  0
VERTEX
  5
159
  8
POCKET-KERF-15_5
 10
511.0517804605106
 20
430.4158026020835
 30
0.0
 70
0
  0
VERTEX
  5
15A
  8
POCKET-KERF-15_5
 10
493.74778778054775
 20
581.2572158682639
 30
0.0
 70
0
  0
VERTEX
  5
15B
  8
POCKET-KERF-15_5
 10
487.7868819428368
 20
580.5734018628906
 30
0.0
 70
0
  0
SEQEND
  5
157
  8
POCKET-KERF-15_5
  0
POLYLINE
  5
15C
  8
POCKET-KERF-15_5
 66
1
 10
0.0
 20
0.0
 30
0.0
 70
1
  0
VERTEX
  5
15E
  8
POCKET-KERF-15_5
 10
536.487992504554
 20
105.18884537653325
 30
0.0
 70
0
  0
VERTEX
  5
15F
  8
POCKET-KERF-15_5
 10
542.4348018966397
 20
105.98600160601534
 30
0.0
 70
0
  0
VERTEX
  5
160
  8
POCKET-KERF-15_5
 10
478.9645266042194
 20
579.4761598306733
 30
0.0
 70
0
  0
VERTEX
  5
161
  8
POCKET-KERF-15_5
 10
473.0177172121338
 20
578.6790036011913
 30
0.0
 70
0
  0
SEQEND
  5
15D
  8
POCKET-KERF-15_5
  0
POLYLINE
  5
162
  8
POCKET-KERF-15_5
 66
1
 10
0.0
 20
0.0
 30
0.0
 70
1
  0
VERTEX
  5
164
  8
POCKET-KERF-15_5
 10
481.3202475913127
 20
426.43035846286597
 30
0.0
 70
0
  0
VERTEX
  5
165
  8
POCKET-KERF-15_5
 10
487.25080561730715
 20
427.3405680542855
 30
0.0
 70
0
  0
VERTEX
  5
166
  8
POCKET-KERF-15_5
 10
464.21784638658556
 20
577.4140264267864
 30
0.0
 70
0
  0
VERTEX
  5
167
  8
POCKET-KERF-15_5
 10
458.2872883605911
 20
576.5038168353669
 30
0.0
 70
0
  0
SEQEND
  5
163
  8
POCKET-KERF-15_5
  0
POLYLINE
  5
168
  8
POCKET-KERF-15_5
 66
1
 10
0.0
 20
0.0
 30
0.0
 70
1
  0
VERTEX
  5
16A
  8
POCKET-KERF-15_5
 10
525.0477620787138
 20
103.31747524824202
 30
0.0
 70
0
  0
VERTEX
  5
16B
  8
POCKET-KERF-15_5
 10
530.959919707091
 20
104.34040837275352
 30
0.0
 70
0
  0
VERTEX
  5
16C
  8
POCKET-KERF-15_5
 10
449.51309082052603
 20
575.0715629032667
 30
0.0
 70
0
  0
VERTEX
  5
16D
  8
POCKET-KERF-15_5
 10
443.600933192149
 20
574.0486297787551
 30
0.0
 70
0
  0
SEQEND
  5
169
  8
POCKET-KERF-15_5
  0
POLYLINE
  5
16E
  8
POCKET-KERF-15_5
 66
1
 10
0.0
 20
0.0
 30
0.0
 70
1
  0
VERTEX
  5
170
  8
POCKET-KERF-15_5
 10
457.69251691716715
 20
422.22633489004755
 30
0.0
 70
0
  0
VERTEX
  5
171
  8
POCKET-KERF-15_5
 10
463.5841317840756
 20
423.3616208716498
 30
0.0
 70
0
  0
VERTEX
  5
172
  8
POCKET-KERF-15_5
 10
434.8555884068599
 20
572.4496180888312
 30
0.0
 70
0
  0
VERTEX
  5
173
  8
POCKET-KERF-15_5
 10
428.9639735399514
 20
571.314332107229
 30
0.0
 70
0
  0
SEQEND
  5
16F
  8
POCKET-KERF-15_5
  0
POLYLINE
  5
174
  8
POCKET-KERF-15_5
 66
1
 10
0.0
 20
0.0
 30
0.0
 70
1
  0
VERTEX
  5
176
  8
POCKET-KERF-15_5
 10
513.6870523253335
 20
101.01200951377065
 30
0.0
 70
0
  0
VERTEX
  5
177
  8
POCKET-KERF-15_5
 10
519.555989510917
 20
102.25923696362726
 30
0.0
 70
0
  0
VERTEX
  5
178
  8
POCKET-KERF-15_5
 10
420.25065052347844
 20
569.5491420866646
 30
0.0
 70
0
  0
VERTEX
  5
179
  8
POCKET-KERF-15_5
 10
414.381713337895
 20
568.301914636808
 30
0.0
 70
0
  0
SEQEND
  5
175
  8
POCKET-KERF-15_5
  0
POLYLINE
  5
17A
  8
POCKET-KERF-15_5
 66
1
 10
0.0
 20
0.0
 30
0.0
 70
1
  0
VERTEX
  5
17C
  8
POCKET-KERF-15_5
 10
434.2419270258978
 20
417.12601090403786
 30
0.0
 70
0
  0
VERTEX
  5
17D
  8
POCKET-KERF-15_5
 10
440.0860598279163
 20
418.48472786955034
 30
0.0
 70
0
  0
VERTEX
  5
17E
  8
POCKET-KERF-15_5
 10
405.70356950068407
 20
566.3711859301334
 30
0.0
 70
0
  0
VERTEX
  5
17F
  8
POCKET-KERF-15_5
 10
399.85943669866555
 20
565.0124689646209
 30
0.0
 70
0
  0
SEQEND
  5
17B
  8
POCKET-KERF-15_5
  0
POLYLINE
  5
180
  8
POCKET-KERF-15_5
 66
1
 10
0.0
 20
0.0
 30
0.0
 70
1
  0
VERTEX
  5
182
  8
POCKET-KERF-15_5
 10
502.4223286843033
 20
98.27578955832263
 30
0.0
 70
0
  0
VERTEX
  5
183
  8
POCKET-KERF-15_5
 10
508.2395393887778
 20
99.74550368690262
 30
0.0
 70
0
  0
VERTEX
  5
184
  8
POCKET-KERF-15_5
 10
391.2196167034304
 20
562.916901201929
 30
0.0
 70
0
  0
VERTEX
  5
185
  8
POCKET-KERF-15_5
 10
385.4024059989559
 20
561.4471870733489
 30
0.0
 70
0
  0
SEQEND
  5
181
  8
POCKET-KERF-15_5
  0
POLYLINE
  5
186
  8
POCKET-KERF-15_5
 66
1
 10
0.0
 20
0.0
 30
0.0
 70
1
  0
VERTEX
  5
188
  8
POCKET-KERF-15_5
 10
411.0024656072388
 20
411.1367785674665
 30
0.0
 70
0
  0
VERTEX
  5
189
  8
POCKET-KERF-15_5
 10
416.7906462558381
 20
412.7169572849477
 30
0.0
 70
0
  0
VERTEX
  5
18A
  8
POCKET-KERF-15_5
 10
376.80404062116
 20
559.1875396167715
 30
0.0
 70
0
  0
VERTEX
  5
18B
  8
POCKET-KERF-15_5
 10
371.0158599725607
 20
557.6073608992903
 30
0.0
 70
0
  0
SEQEND
  5
187
  8
POCKET-KERF-15_5
  0
POLYLINE
  5
18C
  8
POCKET-KERF-15_5
 66
1
 10
0.0
 20
0.0
 30
0.0
 70
1
  0
VERTEX
  5
18E
  8
POCKET-KERF-15_5
 10
491.26991747977263
 20
95.11278107296687
 30
0.0
 70
0
  0
VERTEX
  5
18F
  8
POCKET-KERF-15_5
 10
497.0269706336657
 20
96.8028517765913
 30
0.0
 70
0
  0
VERTEX
  5
190
  8
POCKET-KERF-15_5
 10
362.46206496593067
 20
555.1844525678324
 30
0.0
 70
0
  0
VERTEX
  5
191
  8
POCKET-KERF-15_5
 10
356.7050118120376
 20
553.4943818642079
 30
0.0
 70
0
  0
SEQEND
  5
18D
  8
POCKET-KERF-15_5
  0
POLYLINE
  5
192
  8
POCKET-KERF-15_5
 66
1
 10
0.0
 20
0.0
 30
0.0
 70
1
  0
VERTEX
  5
194
  8
POCKET-KERF-15_5
 10
388.0078143556785
 20
404.26731826625763
 30
0.0
 70
0
  0
VERTEX
  5
195
  8
POCKET-KERF-15_5
 10
393.7316538555744
 20
406.06666853216797
 30
0.0
 70
0
  0
VERTEX
  5
196
  8
POCKET-KERF-15_5
 10
348.19888677952093
 20
550.9090906370359
 30
0.0
 70
0
  0
VERTEX
  5
197
  8
POCKET-KERF-15_5
 10
342.475047279625
 20
549.1097403711256
 30
0.0
 70
0
  0
SEQEND
  5
193
  8
POCKET-KERF-15_5
  0
POLYLINE
  5
198
  8
POCKET-KERF-15_5
 66
1
 10
0.0
 20
0.0
 30
0.0
 70
1
  0
VERTEX
  5
19A
  8
POCKET-KERF-15_5
 10
480.24598225788515
 20
91.52756830703444
 30
0.0
 70
0
  0
VERTEX
  5
19B
  8
POCKET-KERF-15_5
 10
485.93453397998593
 20
93.4355461121946
 30
0.0
 70
0
  0
VERTEX
  5
19C
  8
POCKET-KERF-15_5
 10
334.01967455020036
 20
546.363003069416
 30
0.0
 70
0
  0
VERTEX
  5
19D
  8
POCKET-KERF-15_5
 10
328.3311228280995
 20
544.4550252642559
 30
0.0
 70
0
  0
SEQEND
  5
199
  8
POCKET-KERF-15_5
  0
POLYLINE
  5
19E
  8
POCKET-KERF-15_5
 66
1
 10
0.0
 20
0.0
 30
0.0
 70
1
  0
VERTEX
  5
1A0
  8
POCKET-KERF-15_5
 10
365.2913001545023
 20
396.52758612886856
 30
0.0
 70
0
  0
VERTEX
  5
1A1
  8
POCKET-KERF-15_5
 10
370.94250276209465
 20
398.5435000873354
 30
0.0
 70
0
  0
VERTEX
  5
1A2
  8
POCKET-KERF-15_5
 10
319.92956633984545
 20
541.5478372117262
 30
0.0
 70
0
  0
VERTEX
  5
1A3
  8
POCKET-KERF-15_5
 10
314.27836373225307
 20
539.5319232532594
 30
0.0
 70
0
  0
SEQEND
  5
19F
  8
POCKET-KERF-15_5
  0
POLYLINE
  5
1A4
  8
POCKET-KERF-15_5
 66
1
 10
0.0
 20
0.0
 30
0.0
 70
1
  0
VERTEX
  5
1A6
  8
POCKET-KERF-15_5
 10
469.3665003604353
 20
87.52534742402018
 30
0.0
 70
0
  0
VERTEX
  5
1A7
  8
POCKET-KERF-15_5
 10
474.9783060508483
 20
89.64846703747774
 30
0.0
 70
0
  0
VERTEX
  5
1A8
  8
POCKET-KERF-15_5
 10
305.93366792208144
 20
536.4653379154936
 30
0.0
 70
0
  0
VERTEX
  5
1A9
  8
POCKET-KERF-15_5
 10
300.32186223166843
 20
534.3422183020361
 30
0.0
 70
0
  0
SEQEND
  5
1A5
  8
POCKET-KERF-15_5
  0
POLYLINE
  5
1AA
  8
POCKET-KERF-15_5
 66
1
 10
0.0
 20
0.0
 30
0.0
 70
1
  0
VERTEX
  5
1AC
  8
POCKET-KERF-15_5
 10
342.88584677407573
 20
387.9287995965547
 30
0.0
 70
0
  0
VERTEX
  5
1AD
  8
POCKET-KERF-15_5
 10
348.4562220207348
 20
390.15835551902165
 30
0.0
 70
0
  0
VERTEX
  5
1AE
  8
POCKET-KERF-15_5
 10
292.0370509321247
 20
531.1173469047469
 30
0.0
 70
0
  0
VERTEX
  5
1AF
  8
POCKET-KERF-15_5
 10
286.46667568546565
 20
528.88779098228
 30
0.0
 70
0
  0
SEQEND
  5
1AB
  8
POCKET-KERF-15_5
  0
POLYLINE
  5
1B0
  8
POCKET-KERF-15_5
 66
1
 10
0.0
 20
0.0
 30
0.0
 70
1
  0
VERTEX
  5
1B2
  8
POCKET-KERF-15_5
 10
458.64723976839537
 20
83.11191897061602
 30
0.0
 70
0
  0
VERTEX
  5
1B3
  8
POCKET-KERF-15_5
 10
464.1741660577027
 20
85.44710328723082
 30
0.0
 70
0
  0
VERTEX
  5
1B4
  8
POCKET-KERF-15_5
 10
278.24475102899606
 20
525.5058021086382
 30
0.0
 70
0
  0
VERTEX
  5
1B5
  8
POCKET-KERF-15_5
 10
272.71782473968875
 20
523.1706177920233
 30
0.0
 70
0
  0
SEQEND
  5
1B1
  8
POCKET-KERF-15_5
  0
POLYLINE
  5
1B6
  8
POCKET-KERF-15_5
 66
1
 10
0.0
 20
0.0
 30
0.0
 70
1
  0
VERTEX
  5
1B8
  8
POCKET-KERF-15_5
 10
320.8239271543708
 20
378.4834211655735
 30
0.0
 70
0
  0
VERTEX
  5
1B9
  8
POCKET-KERF-15_5
 10
326.3054017171455
 20
380.92338768535484
 30
0.0
 70
0
  0
VERTEX
  5
1BA
  8
POCKET-KERF-15_5
 10
264.5617660707692
 20
519.6327369592028
 30
0.0
 70
0
  0
VERTEX
  5
1BB
  8
POCKET-KERF-15_5
 10
259.0802915079945
 20
517.1927704394216
 30
0.0
 70
0
  0
SEQEND
  5
1B7
  8
POCKET-KERF-15_5
  0
POLYLINE
  5
1BC
  8
POCKET-KERF-15_5
 66
1
 10
0.0
 20
0.0
 30
0.0
 70
1
  0
VERTEX
  5
1BE
  8
POCKET-KERF-15_5
 10
448.1037362488774
 20
78.2936794697936
 30
0.0
 70
0
  0
VERTEX
  5
1BF
  8
POCKET-KERF-15_5
 10
453.537772786091
 20
80.83754403227093
 30
0.0
 70
0
  0
VERTEX
  5
1C0
  8
POCKET-KERF-15_5
 10
250.99305430351814
 20
513.5002796545135
 30
0.0
 70
0
  0
VERTEX
  5
1C1
  8
POCKET-KERF-15_5
 10
245.55901776630463
 20
510.9564150920361
 30
0.0
 70
0
  0
SEQEND
  5
1BD
  8
POCKET-KERF-15_5
  0
POLYLINE
  5
1C2
  8
POCKET-KERF-15_5
 66
1
 10
0.0
 20
0.0
 30
0.0
 70
1
  0
VERTEX
  5
1C4
  8
POCKET-KERF-15_5
 10
299.1375163408959
 20
368.20514032488944
 30
0.0
 70
0
  0
VERTEX
  5
1C5
  8
POCKET-KERF-15_5
 10
304.5221457434387
 20
370.851981120493
 30
0.0
 70
0
  0
VERTEX
  5
1C6
  8
POCKET-KERF-15_5
 10
237.54353256461812
 20
507.1106523874945
 30
0.0
 70
0
  0
VERTEX
  5
1C7
  8
POCKET-KERF-15_5
 10
232.1589031620753
 20
504.46381159189093
 30
0.0
 70
0
  0
SEQEND
  5
1C3
  8
POCKET-KERF-15_5
  0
POLYLINE
  5
1C8
  8
POCKET-KERF-15_5
 66
1
 10
0.0
 20
0.0
 30
0.0
 70
1
  0
VERTEX
  5
1CA
  8
POCKET-KERF-15_5
 10
437.75127083864794
 20
73.07761215011884
 30
0.0
 70
0
  0
VERTEX
  5
1CB
  8
POCKET-KERF-15_5
 10
443.08454190086746
 20
75.8264700542113
 30
0.0
 70
0
  0
VERTEX
  5
1CC
  8
POCKET-KERF-15_5
 10
224.21807450105217
 20
500.466170540674
 30
0.0
 70
0
  0
VERTEX
  5
1CD
  8
POCKET-KERF-15_5
 10
218.88480343883265
 20
497.71731263658165
 30
0.0
 70
0
  0
SEQEND
  5
1C9
  8
POCKET-KERF-15_5
  0
POLYLINE
  5
1CE
  8
POCKET-KERF-15_5
 66
1
 10
0.0
 20
0.0
 30
0.0
 70
1
  0
VERTEX
  5
1D0
  8
POCKET-KERF-15_5
 10
277.8580451422403
 20
357.108853715561
 30
0.0
 70
0
  0
VERTEX
  5
1D1
  8
POCKET-KERF-15_5
 10
283.13802526899104
 20
359.9587326359919
 30
0.0
 70
0
  0
VERTEX
  5
1D2
  8
POCKET-KERF-15_5
 10
211.02150880336777
 20
493.5692418471701
 30
0.0
 70
0
  0
VERTEX
  5
1D3
  8
POCKET-KERF-15_5
 10
205.74152867661704
 20
490.71936292673917
 30
0.0
 70
0
  0
SEQEND
  5
1CF
  8
POCKET-KERF-15_5
  0
POLYLINE
  5
1D4
  8
POCKET-KERF-15_5
 66
1
 10
0.0
 20
0.0
 30
0.0
 70
1
  0
VERTEX
  5
1D6
  8
POCKET-KERF-15_5
 10
427.604847696834
 20
67.47127682473585
 30
0.0
 70
0
  0
VERTEX
  5
1D7
  8
POCKET-KERF-15_5
 10
432.82962360378406
 20
70.42114406279147
 30
0.0
 70
0
  0
VERTEX
  5
1D8
  8
POCKET-KERF-15_5
 10
197.9586174559246
 20
486.4223655182091
 30
0.0
 70
0
  0
VERTEX
  5
1D9
  8
POCKET-KERF-15_5
 10
192.73384154897454
 20
483.4724982801534
 30
0.0
 70
0
  0
SEQEND
  5
1D5
  8
POCKET-KERF-15_5
  0
POLYLINE
  5
1DA
  8
POCKET-KERF-15_5
 66
1
 10
0.0
 20
0.0
 30
0.0
 70
1
  0
VERTEX
  5
1DC
  8
POCKET-KERF-15_5
 10
257.01635457639827
 20
345.21064354056165
 30
0.0
 70
0
  0
VERTEX
  5
1DD
  8
POCKET-KERF-15_5
 10
262.18403298333817
 20
348.25943016517925
 30
0.0
 70
0
  0
VERTEX
  5
1DE
  8
POCKET-KERF-15_5
 10
185.03413400406592
 20
479.028131337497
 30
0.0
 70
0
  0
VERTEX
  5
1DF
  8
POCKET-KERF-15_5
 10
179.86645559712602
 20
475.97934471287937
 30
0.0
 70
0
  0
SEQEND
  5
1DB
  8
POCKET-KERF-15_5
  0
POLYLINE
  5
1E0
  8
POCKET-KERF-15_5
 66
1
 10
0.0
 20
0.0
 30
0.0
 70
1
  0
VERTEX
  5
1E2
  8
POCKET-KERF-15_5
 10
417.6791723589146
 20
61.48279893468754
 30
0.0
 70
0
  0
VERTEX
  5
1E3
  8
POCKET-KERF-15_5
 10
422.7878806758173
 20
64.6294001697998
 30
0.0
 70
0
  0
VERTEX
  5
1E4
  8
POCKET-KERF-15_5
 10
172.25274183884525
 20
471.38921872277143
 30
0.0
 70
0
  0
VERTEX
  5
1E5
  8
POCKET-KERF-15_5
 10
167.14403352194265
 20
468.2426174876592
 30
0.0
 70
0
  0
SEQEND
  5
1E1
  8
POCKET-KERF-15_5
  0
POLYLINE
  5
1E6
  8
POCKET-KERF-15_5
 66
1
 10
0.0
 20
0.0
 30
0.0
 70
1
  0
VERTEX
  5
1E8
  8
POCKET-KERF-15_5
 10
236.642651171895
 20
332.52775425632916
 30
0.0
 70
0
  0
VERTEX
  5
1E9
  8
POCKET-KERF-15_5
 10
241.69053817747846
 20
335.7710298811971
 30
0.0
 70
0
  0
VERTEX
  5
1EA
  8
POCKET-KERF-15_5
 10
159.61907249992444
 20
463.5083957548714
 30
0.0
 70
0
  0
VERTEX
  5
1EB
  8
POCKET-KERF-15_5
 10
154.571185494341
 20
460.2651201300035
 30
0.0
 70
0
  0
SEQEND
  5
1E7
  8
POCKET-KERF-15_5
  0
POLYLINE
  5
1EC
  8
POCKET-KERF-15_5
 66
1
 10
0.0
 20
0.0
 30
0.0
 70
1
  0
VERTEX
  5
1EE
  8
POCKET-KERF-15_5
 10
407.9886304235191
 20
55.12085777245463
 30
0.0
 70
0
  0
VERTEX
  5
1EF
  8
POCKET-KERF-15_5
 10
412.97386693606575
 20
58.45963253484453
 30
0.0
 70
0
  0
VERTEX
  5
1F0
  8
POCKET-KERF-15_5
 10
147.13770399726147
 20
455.38851817467895
 30
0.0
 70
0
  0
VERTEX
  5
1F1
  8
POCKET-KERF-15_5
 10
142.15246748471483
 20
452.04974341228905
 30
0.0
 70
0
  0
SEQEND
  5
1ED
  8
POCKET-KERF-15_5
  0
POLYLINE
  5
1F2
  8
POCKET-KERF-15_5
 66
1
 10
0.0
 20
0.0
 30
0.0
 70
1
  0
VERTEX
  5
1F4
  8
POCKET-KERF-15_5
 10
216.76646318849953
 20
319.0785675798234
 30
0.0
 70
0
  0
VERTEX
  5
1F5
  8
POCKET-KERF-15_5
 10
221.68724272868917
 20
322.5116316218785
 30
0.0
 70
0
  0
VERTEX
  5
1F6
  8
POCKET-KERF-15_5
 10
134.81315915219741
 20
447.0325283482978
 30
0.0
 70
0
  0
VERTEX
  5
1F7
  8
POCKET-KERF-15_5
 10
129.89237961200777
 20
443.5994643062427
 30
0.0
 70
0
  0
SEQEND
  5
1F3
  8
POCKET-KERF-15_5
  0
POLYLINE
  5
1F8
  8
POCKET-KERF-15_5
 66
1
 10
0.0
 20
0.0
 30
0.0
 70
1
  0
VERTEX
  5
1FA
  8
POCKET-KERF-15_5
 10
398.5472667029176
 20
48.39467390277875
 30
0.0
 70
0
  0
VERTEX
  5
1FB
  8
POCKET-KERF-15_5
 10
403.40180614843365
 20
51.92078319942985
 30
0.0
 70
0
  0
VERTEX
  5
1FC
  8
POCKET-KERF-15_5
 10
122.64990395854
 20
438.443454200839
 30
0.0
 70
0
  0
VERTEX
  5
1FD
  8
POCKET-KERF-15_5
 10
117.79536451302397
 20
434.91734490418787
 30
0.0
 70
0
  0
SEQEND
  5
1F9
  8
POCKET-KERF-15_5
  0
POLYLINE
  5
1FE
  8
POCKET-KERF-15_5
 66
1
 10
0.0
 20
0.0
 30
0.0
 70
1
  0
VERTEX
  5
200
  8
POCKET-KERF-15_5
 10
197.41659782097383
 20
304.88257584731645
 30
0.0
 70
0
  0
VERTEX
  5
201
  8
POCKET-KERF-15_5
 10
202.20313805264595
 20
308.5004526570744
 30
0.0
 70
0
  0
VERTEX
  5
202
  8
POCKET-KERF-15_5
 10
110.65234596423969
 20
429.6244081192052
 30
0.0
 70
0
  0
VERTEX
  5
203
  8
POCKET-KERF-15_5
 10
105.86580573256757
 20
426.00653130944727
 30
0.0
 70
0
  0
SEQEND
  5
1FF
  8
POCKET-KERF-15_5
  0
POLYLINE
  5
204
  8
POCKET-KERF-15_5
 66
1
 10
0.0
 20
0.0
 30
0.0
 70
1
  0
VERTEX
  5
206
  8
POCKET-KERF-15_5
 10
389.36876486742716
 20
41.3139957990042
 30
0.0
 70
0
  0
VERTEX
  5
207
  8
POCKET-KERF-15_5
 10
394.08557140667597
 20
45.02232912696974
 30
0.0
 70
0
  0
VERTEX
  5
208
  8
POCKET-KERF-15_5
 10
98.82483267424577
 20
420.57858582426763
 30
0.0
 70
0
  0
VERTEX
  5
209
  8
POCKET-KERF-15_5
 10
94.10802613499702
 20
416.8702524963022
 30
0.0
 70
0
  0
SEQEND
  5
205
  8
POCKET-KERF-15_5
  0
POLYLINE
  5
20A
  8
POCKET-KERF-15_5
 66
1
 10
0.0
 20
0.0
 30
0.0
 70
1
  0
VERTEX
  5
20C
  8
POCKET-KERF-15_5
 10
178.62109944788426
 20
289.9603537635264
 30
0.0
 70
0
  0
VERTEX
  5
20D
  8
POCKET-KERF-15_5
 10
183.2664630852371
 20
293.75779983644964
 30
0.0
 70
0
  0
VERTEX
  5
20E
  8
POCKET-KERF-15_5
 10
87.17164997511803
 20
411.3092652128461
 30
0.0
 70
0
  0
VERTEX
  5
20F
  8
POCKET-KERF-15_5
 10
82.5262863377652
 20
407.5118191399228
 30
0.0
 70
0
  0
SEQEND
  5
20B
  8
POCKET-KERF-15_5
  0
POLYLINE
  5
210
  8
POCKET-KERF-15_5
 66
1
 10
0.0
 20
0.0
 30
0.0
 70
1
  0
VERTEX
  5
212
  8
POCKET-KERF-15_5
 10
380.4664276132294
 20
33.88908571430293
 30
0.0
 70
0
  0
VERTEX
  5
213
  8
POCKET-KERF-15_5
 10
385.03866502767943
 20
37.774268467521075
 30
0.0
 70
0
  0
VERTEX
  5
214
  8
POCKET-KERF-15_5
 10
75.69702058196916
 20
401.81980516991086
 30
0.0
 70
0
  0
VERTEX
  5
215
  8
POCKET-KERF-15_5
 10
71.12478316751915
 20
397.93462241669283
 30
0.0
 70
0
  0
SEQEND
  5
211
  8
POCKET-KERF-15_5
  0
POLYLINE
  5
216
  8
POCKET-KERF-15_5
 66
1
 10
0.0
 20
0.0
 30
0.0
 70
1
  0
VERTEX
  5
218
  8
POCKET-KERF-15_5
 10
160.40720898598653
 20
274.33352858203955
 30
0.0
 70
0
  0
VERTEX
  5
219
  8
POCKET-KERF-15_5
 10
164.90466335497052
 20
278.3050401581156
 30
0.0
 70
0
  0
VERTEX
  5
21A
  8
POCKET-KERF-15_5
 10
64.40510250829671
 20
392.11364435143906
 30
0.0
 70
0
  0
VERTEX
  5
21B
  8
POCKET-KERF-15_5
 10
59.907648139312656
 20
388.1421327753629
 30
0.0
 70
0
  0
SEQEND
  5
217
  8
POCKET-KERF-15_5
  0
POLYLINE
  5
21C
  8
POCKET-KERF-15_5
 66
1
 10
0.0
 20
0.0
 30
0.0
 70
1
  0
VERTEX
  5
21E
  8
POCKET-KERF-15_5
 10
371.85315738234857
 20
26.130704808263538
 30
0.0
 70
0
  0
VERTEX
  5
21F
  8
POCKET-KERF-15_5
 10
376.27419898212315
 20
30.18710606714597
 30
0.0
 70
0
  0
VERTEX
  5
220
  8
POCKET-KERF-15_5
 10
53.29998755926011
 20
382.1942999383609
 30
0.0
 70
0
  0
VERTEX
  5
221
  8
POCKET-KERF-15_5
 10
48.878945959485584
 20
378.13789867947844
 30
0.0
 70
0
  0
SEQEND
  5
21D
  8
POCKET-KERF-15_5
  0
POLYLINE
  5
222
  8
POCKET-KERF-15_5
 66
1
 10
0.0
 20
0.0
 30
0.0
 70
1
  0
VERTEX
  5
224
  8
POCKET-KERF-15_5
 10
142.80132440909426
 20
258.02474876024036
 30
0.0
 70
0
  0
VERTEX
  5
225
  8
POCKET-KERF-15_5
 10
147.14435120529174
 20
262.16456980075776
 30
0.0
 70
0
  0
VERTEX
  5
226
  8
POCKET-KERF-15_5
 10
42.3856998489524
 20
372.06536636205567
 30
0.0
 70
0
  0
VERTEX
  5
227
  8
POCKET-KERF-15_5
 10
38.042673052755035
 20
367.92554532153815
 30
0.0
 70
0
  0
SEQEND
  5
223
  8
POCKET-KERF-15_5
  0
POLYLINE
  5
228
  8
POCKET-KERF-15_5
 66
1
 10
0.0
 20
0.0
 30
0.0
 70
1
  0
VERTEX
  5
22A
  8
POCKET-KERF-15_5
 10
363.5414376627293
 20
18.05009755039798
 30
0.0
 70
0
  0
VERTEX
  5
22B
  8
POCKET-KERF-15_5
 10
367.80487589088034
 20
22.27183824290158
 30
0.0
 70
0
  0
VERTEX
  5
22C
  8
POCKET-KERF-15_5
 10
31.666194342196857
 20
361.73051400185153
 30
0.0
 70
0
  0
VERTEX
  5
22D
  8
POCKET-KERF-15_5
 10
27.40275611404584
 20
357.508773309348
 30
0.0
 70
0
  0
SEQEND
  5
229
  8
POCKET-KERF-15_5
  0
POLYLINE
  5
22E
  8
CUT
 66
1
 10
0.0
 20
0.0
 30
0.0
 70
1
  0
VERTEX
  5
230
  8
CUT
 10
370.1419807289759
 20
694.0709903644879
 30
0.0
 42
1.0
 70
0
  0
VERTEX
  5
231
  8
CUT
 10
18.0
 20
694.0709903644879
 30
0.0
 42
1.0
 70
0
  0
SEQEND
  5
22F
  8
CUT
  0
POLYLINE
  5
232
  8
CUT
 66
1
 10
0.0
 20
0.0
 30
0.0
 70
1
  0
VERTEX
  5
234
  8
CUT
 10
81.17000676949367
 20
687.770990364488
 30
0.0
 42
2.414213562373095
 70
0
  0
VERTEX
  5
235
  8
CUT
 10
84.37000676949367
 20
684.5709903644879
 30
0.0
 70
0
  0
VERTEX
  5
236
  8
CUT
 10
118.97000676949366
 20
684.5709903644879
 30
0.0
 42
2.414213562373095
 70
0
  0
VERTEX
  5
237
  8
CUT
 10
122.17000676949367
 20
687.770990364488
 30
0.0
 70
0
  0
VERTEX
  5
238
  8
CUT
 10
122.17000676949367
 20
700.370990364488
 30
0.0
 42
2.414213562373095
 70
0
  0
VERTEX
  5
239
  8
CUT
 10
118.97000676949366
 20
703.5709903644879
 30
0.0
 70
0
  0
VERTEX
  5
23A
  8
CUT
 10
84.37000676949367
 20
703.5709903644879
 30
0.0
 42
2.414213562373095
 70
0
  0
VERTEX
  5
23B
  8
CUT
 10
81.17000676949367
 20
700.370990364488
 30
0.0
 70
0
  0
SEQEND
  5
233
  8
CUT
  0
POLYLINE
  5
23C
  8
CUT
 66
1
 10
0.0
 20
0.0
 30
0.0
 70
1
  0
VERTEX
  5
23E
  8
CUT
 10
265.9719739594822
 20
687.770990364488
 30
0.0
 42
2.414213562373095
 70
0
  0
VERTEX
  5
23F
  8
CUT
 10
269.1719739594822
 20
684.5709903644879
 30
0.0
 70
0
  0
VERTEX
  5
240
  8
CUT
 10
303.77197395948224
 20
684.5709903644879
 30
0.0
 42
2.414213562373095
 70
0
  0
VERTEX
  5
241
  8
CUT
 10
306.9719739594822
 20
687.770990364488
 30
0.0
 70
0
  0
VERTEX
  5
242
  8
CUT
 10
306.9719739594822
 20
700.370990364488
 30
0.0
 42
2.414213562373095
 70
0
  0
VERTEX
  5
243
  8
CUT
 10
303.77197395948224
 20
703.5709903644879
 30
0.0
 70
0
  0
VERTEX
  5
244
  8
CUT
 10
269.1719739594822
 20
703.5709903644879
 30
0.0
 42
2.414213562373095
 70
0
  0
VERTEX
  5
245
  8
CUT
 10
265.9719739594822
 20
700.370990364488
 30
0.0
 70
0
  0
SEQEND
  5
23D
  8
CUT
  0
POLYLINE
  5
246
  8
CUT
 66
1
 10
0.0
 20
0.0
 30
0.0
 70
1
  0
VERTEX
  5
248
  8
CUT
 10
200.37099036448794
 20
581.1700067694936
 30
0.0
 42
2.414213562373095
 70
0
  0
VERTEX
  5
249
  8
CUT
 10
203.57099036448795
 20
584.3700067694937
 30
0.0
 70
0
  0
VERTEX
  5
24A
  8
CUT
 10
203.57099036448795
 20
618.9700067694937
 30
0.0
 42
2.414213562373095
 70
0
  0
VERTEX
  5
24B
  8
CUT
 10
200.37099036448794
 20
622.1700067694936
 30
0.0
 70
0
  0
VERTEX
  5
24C
  8
CUT
 10
187.77099036448794
 20
622.1700067694936
 30
0.0
 42
2.414213562373095
 70
0
  0
VERTEX
  5
24D
  8
CUT
 10
184.57099036448795
 20
618.9700067694937
 30
0.0
 70
0
  0
VERTEX
  5
24E
  8
CUT
 10
184.57099036448795
 20
584.3700067694937
 30
0.0
 42
2.414213562373095
 70
0
  0
VERTEX
  5
24F
  8
CUT
 10
187.77099036448794
 20
581.1700067694936
 30
0.0
 70
0
  0
SEQEND
  5
247
  8
CUT
  0
POLYLINE
  5
250
  8
CUT
 66
1
 10
0.0
 20
0.0
 30
0.0
 70
1
  0
VERTEX
  5
252
  8
CUT
 10
200.37099036448797
 20
765.9719739594823
 30
0.0
 42
2.414213562373095
 70
0
  0
VERTEX
  5
253
  8
CUT
 10
203.57099036448795
 20
769.1719739594822
 30
0.0
 70
0
  0
VERTEX
  5
254
  8
CUT
 10
203.57099036448795
 20
803.7719739594822
 30
0.0
 42
2.414213562373095
 70
0
  0
VERTEX
  5
255
  8
CUT
 10
200.37099036448797
 20
806.9719739594823
 30
0.0
 70
0
  0
VERTEX
  5
256
  8
CUT
 10
187.77099036448797
 20
806.9719739594823
 30
0.0
 42
2.414213562373095
 70
0
  0
VERTEX
  5
257
  8
CUT
 10
184.57099036448795
 20
803.7719739594822
 30
0.0
 70
0
  0
VERTEX
  5
258
  8
CUT
 10
184.57099036448795
 20
769.1719739594822
 30
0.0
 42
2.414213562373095
 70
0
  0
VERTEX
  5
259
  8
CUT
 10
187.77099036448797
 20
765.9719739594823
 30
0.0
 70
0
  0
SEQEND
  5
251
  8
CUT
  0
POLYLINE
  5
25A
  8
CUT
 66
1
 10
0.0
 20
0.0
 30
0.0
 70
1
  0
VERTEX
  5
25C
  8
CUT
 10
18.0
 20
892.0
 30
0.0
 70
0
  0
VERTEX
  5
25D
  8
CUT
 10
77.97000676949366
 20
892.0
 30
0.0
 42
-2.414213562373095
 70
0
  0
VERTEX
  5
25E
  8
CUT
 10
81.17000676949367
 20
888.8
 30
0.0
 70
0
  0
VERTEX
  5
25F
  8
CUT
 10
81.17000676949367
 20
874.0
 30
0.0
 70
0
  0
VERTEX
  5
260
  8
CUT
 10
121.17000676949367
 20
874.0
 30
0.0
 70
0
  0
VERTEX
  5
261
  8
CUT
 10
121.17000676949367
 20
888.8
 30
0.0
 42
-2.414213562373095
 70
0
  0
VERTEX
  5
262
  8
CUT
 10
124.37000676949367
 20
892.0
 30
0.0
 70
0
  0
VERTEX
  5
263
  8
CUT
 10
262.77197395948224
 20
892.0
 30
0.0
 42
-2.414213562373095
 70
0
  0
VERTEX
  5
264
  8
CUT
 10
265.9719739594822
 20
888.8
 30
0.0
 70
0
  0
VERTEX
  5
265
  8
CUT
 10
265.9719739594822
 20
874.0
 30
0.0
 70
0
  0
VERTEX
  5
266
  8
CUT
 10
305.9719739594822
 20
874.0
 30
0.0
 70
0
  0
VERTEX
  5
267
  8
CUT
 10
305.9719739594822
 20
888.8
 30
0.0
 42
-2.414213562373095
 70
0
  0
VERTEX
  5
268
  8
CUT
 10
309.1719739594822
 20
892.0
 30
0.0
 70
0
  0
VERTEX
  5
269
  8
CUT
 10
369.1419807289759
 20
892.0
 30
0.0
 70
0
  0
VERTEX
  5
26A
  8
CUT
 10
318.74198072897593
 20
1081.0
 30
0.0
 70
0
  0
VERTEX
  5
26B
  8
CUT
 10
281.5058771767782
 20
1081.0
 30
0.0
 42
-2.414213562373095
 70
0
  0
VERTEX
  5
26C
  8
CUT
 10
278.30587717677815
 20
1084.2
 30
0.0
 70
0
  0
VERTEX
  5
26D
  8
CUT
 10
278.30587717677815
 20
1099.0
 30
0.0
 70
0
  0
VERTEX
  5
26E
  8
CUT
 10
238.30587717677818
 20
1099.0
 30
0.0
 70
0
  0
VERTEX
  5
26F
  8
CUT
 10
238.30587717677818
 20
1084.2
 30
0.0
 42
-2.414213562373095
 70
0
  0
VERTEX
  5
270
  8
CUT
 10
235.10587717677816
 20
1081.0
 30
0.0
 70
0
  0
VERTEX
  5
271
  8
CUT
 10
203.07099036448795
 20
1081.0
 30
0.0
 70
0
  0
VERTEX
  5
272
  8
CUT
 10
203.07099036448795
 20
989.7
 30
0.0
 42
-2.414213562373095
 70
0
  0
VERTEX
  5
273
  8
CUT
 10
199.87099036448797
 20
986.5
 30
0.0
 70
0
  0
VERTEX
  5
274
  8
CUT
 10
187.27099036448794
 20
986.5
 30
0.0
 42
-2.414213562373095
 70
0
  0
VERTEX
  5
275
  8
CUT
 10
184.07099036448795
 20
989.7
 30
0.0
 70
0
  0
VERTEX
  5
276
  8
CUT
 10
184.07099036448795
 20
1081.0
 30
0.0
 70
0
  0
VERTEX
  5
277
  8
CUT
 10
152.03610355219774
 20
1081.0
 30
0.0
 42
-2.414213562373095
 70
0
  0
VERTEX
  5
278
  8
CUT
 10
148.83610355219773
 20
1084.2
 30
0.0
 70
0
  0
VERTEX
  5
279
  8
CUT
 10
148.83610355219773
 20
1099.0
 30
0.0
 70
0
  0
VERTEX
  5
27A
  8
CUT
 10
108.83610355219773
 20
1099.0
 30
0.0
 70
0
  0
VERTEX
  5
27B
  8
CUT
 10
108.83610355219773
 20
1084.2
 30
0.0
 42
-2.414213562373095
 70
0
  0
VERTEX
  5
27C
  8
CUT
 10
105.63610355219772
 20
1081.0
 30
0.0
 70
0
  0
VERTEX
  5
27D
  8
CUT
 10
68.39999999999998
 20
1081.0
 30
0.0
 70
0
  0
SEQEND
  5
25B
  8
CUT
  0
POLYLINE
  5
27E
  8
CUT
 66
1
 10
0.0
 20
0.0
 30
0.0
 70
1
  0
VERTEX
  5
280
  8
CUT
 10
661.1419807289759
 20
1177.0
 30
0.0
 70
0
  0
VERTEX
  5
281
  8
CUT
 10
601.1719739594822
 20
1177.0
 30
0.0
 42
-2.414213562373095
 70
0
  0
VERTEX
  5
282
  8
CUT
 10
597.9719739594823
 20
1180.2
 30
0.0
 70
0
  0
VERTEX
  5
283
  8
CUT
 10
597.9719739594823
 20
1195.0
 30
0.0
 70
0
  0
VERTEX
  5
284
  8
CUT
 10
557.9719739594823
 20
1195.0
 30
0.0
 70
0
  0
VERTEX
  5
285
  8
CUT
 10
557.9719739594823
 20
1180.2
 30
0.0
 42
-2.414213562373095
 70
0
  0
VERTEX
  5
286
  8
CUT
 10
554.7719739594822
 20
1177.0
 30
0.0
 70
0
  0
VERTEX
  5
287
  8
CUT
 10
495.07099036448795
 20
1177.0
 30
0.0
 70
0
  0
VERTEX
  5
288
  8
CUT
 10
495.07099036448795
 20
1085.7
 30
0.0
 42
-2.414213562373095
 70
0
  0
VERTEX
  5
289
  8
CUT
 10
491.87099036448797
 20
1082.5
 30
0.0
 70
0
  0
VERTEX
  5
28A
  8
CUT
 10
479.27099036448794
 20
1082.5
 30
0.0
 42
-2.414213562373095
 70
0
  0
VERTEX
  5
28B
  8
CUT
 10
476.07099036448795
 20
1085.7
 30
0.0
 70
0
  0
VERTEX
  5
28C
  8
CUT
 10
476.07099036448795
 20
1177.0
 30
0.0
 70
0
  0
VERTEX
  5
28D
  8
CUT
 10
416.37000676949367
 20
1177.0
 30
0.0
 42
-2.414213562373095
 70
0
  0
VERTEX
  5
28E
  8
CUT
 10
413.1700067694937
 20
1180.2
 30
0.0
 70
0
  0
VERTEX
  5
28F
  8
CUT
 10
413.1700067694937
 20
1195.0
 30
0.0
 70
0
  0
VERTEX
  5
290
  8
CUT
 10
373.1700067694937
 20
1195.0
 30
0.0
 70
0
  0
VERTEX
  5
291
  8
CUT
 10
373.1700067694937
 20
1180.2
 30
0.0
 42
-2.414213562373095
 70
0
  0
VERTEX
  5
292
  8
CUT
 10
369.9700067694937
 20
1177.0
 30
0.0
 70
0
  0
VERTEX
  5
293
  8
CUT
 10
310.0
 20
1177.0
 30
0.0
 70
0
  0
VERTEX
  5
294
  8
CUT
 10
360.4
 20
988.0
 30
0.0
 70
0
  0
VERTEX
  5
295
  8
CUT
 10
397.6361035521977
 20
988.0
 30
0.0
 42
-2.414213562373095
 70
0
  0
VERTEX
  5
296
  8
CUT
 10
400.8361035521977
 20
984.8
 30
0.0
 70
0
  0
VERTEX
  5
297
  8
CUT
 10
400.8361035521977
 20
970.0
 30
0.0
 70
0
  0
VERTEX
  5
298
  8
CUT
 10
440.8361035521977
 20
970.0
 30
0.0
 70
0
  0
VERTEX
  5
299
  8
CUT
 10
440.8361035521977
 20
984.8
 30
0.0
 42
-2.414213562373095
 70
0
  0
VERTEX
  5
29A
  8
CUT
 10
444.0361035521977
 20
988.0
 30
0.0
 70
0
  0
VERTEX
  5
29B
  8
CUT
 10
527.1058771767782
 20
988.0
 30
0.0
 42
-2.414213562373095
 70
0
  0
VERTEX
  5
29C
  8
CUT
 10
530.3058771767782
 20
984.8
 30
0.0
 70
0
  0
VERTEX
  5
29D
  8
CUT
 10
530.3058771767782
 20
970.0
 30
0.0
 70
0
  0
VERTEX
  5
29E
  8
CUT
 10
570.3058771767782
 20
970.0
 30
0.0
 70
0
  0
VERTEX
  5
29F
  8
CUT
 10
570.3058771767782
 20
984.8
 30
0.0
 42
-2.414213562373095
 70
0
  0
VERTEX
  5
2A0
  8
CUT
 10
573.5058771767781
 20
988.0
 30
0.0
 70
0
  0
VERTEX
  5
2A1
  8
CUT
 10
610.7419807289759
 20
988.0
 30
0.0
 70
0
  0
SEQEND
  5
27F
  8
CUT
  0
POLYLINE
  5
2A2
  8
CUT
 66
1
 10
0.0
 20
0.0
 30
0.0
 70
1
  0
VERTEX
  5
2A4
  8
CUT
 10
603.7419807289759
 20
814.870990364488
 30
0.0
 42
1.0
 70
0
  0
VERTEX
  5
2A5
  8
CUT
 10
362.0
 20
814.870990364488
 30
0.0
 42
1.0
 70
0
  0
SEQEND
  5
2A3
  8
CUT
  0
POLYLINE
  5
2A6
  8
CUT
 66
1
 10
0.0
 20
0.0
 30
0.0
 70
1
  0
VERTEX
  5
2A8
  8
CUT
 10
397.6361035521977
 20
808.570990364488
 30
0.0
 42
2.414213562373095
 70
0
  0
VERTEX
  5
2A9
  8
CUT
 10
400.83610355219776
 20
805.370990364488
 30
0.0
 70
0
  0
VERTEX
  5
2AA
  8
CUT
 10
435.4361035521977
 20
805.370990364488
 30
0.0
 42
2.414213562373095
 70
0
  0
VERTEX
  5
2AB
  8
CUT
 10
438.6361035521977
 20
808.570990364488
 30
0.0
 70
0
  0
VERTEX
  5
2AC
  8
CUT
 10
438.6361035521977
 20
821.1709903644879
 30
0.0
 42
2.414213562373095
 70
0
  0
VERTEX
  5
2AD
  8
CUT
 10
435.4361035521977
 20
824.370990364488
 30
0.0
 70
0
  0
VERTEX
  5
2AE
  8
CUT
 10
400.83610355219776
 20
824.370990364488
 30
0.0
 42
2.414213562373095
 70
0
  0
VERTEX
  5
2AF
  8
CUT
 10
397.6361035521977
 20
821.1709903644879
 30
0.0
 70
0
  0
SEQEND
  5
2A7
  8
CUT
  0
POLYLINE
  5
2B0
  8
CUT
 66
1
 10
0.0
 20
0.0
 30
0.0
 70
1
  0
VERTEX
  5
2B2
  8
CUT
 10
527.1058771767782
 20
808.570990364488
 30
0.0
 42
2.414213562373095
 70
0
  0
VERTEX
  5
2B3
  8
CUT
 10
530.3058771767783
 20
805.370990364488
 30
0.0
 70
0
  0
VERTEX
  5
2B4
  8
CUT
 10
564.9058771767782
 20
805.370990364488
 30
0.0
 42
2.414213562373095
 70
0
  0
VERTEX
  5
2B5
  8
CUT
 10
568.1058771767782
 20
808.570990364488
 30
0.0
 70
0
  0
VERTEX
  5
2B6
  8
CUT
 10
568.1058771767782
 20
821.1709903644879
 30
0.0
 42
2.414213562373095
 70
0
  0
VERTEX
  5
2B7
  8
CUT
 10
564.9058771767782
 20
824.370990364488
 30
0.0
 70
0
  0
VERTEX
  5
2B8
  8
CUT
 10
530.3058771767783
 20
824.370990364488
 30
0.0
 42
2.414213562373095
 70
0
  0
VERTEX
  5
2B9
  8
CUT
 10
527.1058771767782
 20
821.1709903644879
 30
0.0
 70
0
  0
SEQEND
  5
2B1
  8
CUT
  0
POLYLINE
  5
2BA
  8
CUT
 66
1
 10
0.0
 20
0.0
 30
0.0
 70
1
  0
VERTEX
  5
2BC
  8
CUT
 10
489.170990364488
 20
729.6361035521977
 30
0.0
 42
2.414213562373095
 70
0
  0
VERTEX
  5
2BD
  8
CUT
 10
492.37099036448797
 20
732.8361035521978
 30
0.0
 70
0
  0
VERTEX
  5
2BE
  8
CUT
 10
492.37099036448797
 20
767.4361035521978
 30
0.0
 42
2.414213562373095
 70
0
  0
VERTEX
  5
2BF
  8
CUT
 10
489.170990364488
 20
770.6361035521977
 30
0.0
 70
0
  0
VERTEX
  5
2C0
  8
CUT
 10
476.57099036448795
 20
770.6361035521977
 30
0.0
 42
2.414213562373095
 70
0
  0
VERTEX
  5
2C1
  8
CUT
 10
473.37099036448797
 20
767.4361035521978
 30
0.0
 70
0
  0
VERTEX
  5
2C2
  8
CUT
 10
473.37099036448797
 20
732.8361035521978
 30
0.0
 42
2.414213562373095
 70
0
  0
VERTEX
  5
2C3
  8
CUT
 10
476.57099036448795
 20
729.6361035521977
 30
0.0
 70
0
  0
SEQEND
  5
2BB
  8
CUT
  0
POLYLINE
  5
2C4
  8
CUT
 66
1
 10
0.0
 20
0.0
 30
0.0
 70
1
  0
VERTEX
  5
2C6
  8
CUT
 10
489.170990364488
 20
859.1058771767782
 30
0.0
 42
2.414213562373095
 70
0
  0
VERTEX
  5
2C7
  8
CUT
 10
492.37099036448797
 20
862.3058771767783
 30
0.0
 70
0
  0
VERTEX
  5
2C8
  8
CUT
 10
492.37099036448797
 20
896.9058771767782
 30
0.0
 42
2.414213562373095
 70
0
  0
VERTEX
  5
2C9
  8
CUT
 10
489.170990364488
 20
900.1058771767782
 30
0.0
 70
0
  0
VERTEX
  5
2CA
  8
CUT
 10
476.57099036448795
 20
900.1058771767782
 30
0.0
 42
2.414213562373095
 70
0
  0
VERTEX
  5
2CB
  8
CUT
 10
473.37099036448797
 20
896.9058771767782
 30
0.0
 70
0
  0
VERTEX
  5
2CC
  8
CUT
 10
473.37099036448797
 20
862.3058771767783
 30
0.0
 42
2.414213562373095
 70
0
  0
VERTEX
  5
2CD
  8
CUT
 10
476.57099036448795
 20
859.1058771767782
 30
0.0
 70
0
  0
SEQEND
  5
2C5
  8
CUT
  0
POLYLINE
  5
2CE
  8
CUT
 66
1
 10
0.0
 20
0.0
 30
0.0
 70
1
  0
VERTEX
  5
2D0
  8
CUT
 10
826.1419807289759
 20
702.0709903644879
 30
0.0
 42
1.0
 70
0
  0
VERTEX
  5
2D1
  8
CUT
 10
594.0
 20
702.0709903644879
 30
0.0
 42
1.0
 70
0
  0
SEQEND
  5
2CF
  8
CUT
  0
POLYLINE
  5
2D2
  8
CUT
 66
1
 10
0.0
 20
0.0
 30
0.0
 70
1
  0
VERTEX
  5
2D4
  8
CUT
 10
655.9589890480408
 20
639.0494436050903
 30
0.0
 42
2.414213562373095
 70
0
  0
VERTEX
  5
2D5
  8
CUT
 10
660.4844724476347
 20
639.0494436050903
 30
0.0
 70
0
  0
VERTEX
  5
2D6
  8
CUT
 10
684.9503670766893
 20
663.5153382341449
 30
0.0
 42
2.414213562373095
 70
0
  0
VERTEX
  5
2D7
  8
CUT
 10
684.9503670766893
 20
668.0408216337388
 30
0.0
 70
0
  0
VERTEX
  5
2D8
  8
CUT
 10
676.0408216337388
 20
676.9503670766893
 30
0.0
 42
2.414213562373095
 70
0
  0
VERTEX
  5
2D9
  8
CUT
 10
671.5153382341449
 20
676.9503670766893
 30
0.0
 70
0
  0
VERTEX
  5
2DA
  8
CUT
 10
647.0494436050903
 20
652.4844724476347
 30
0.0
 42
2.414213562373095
 70
0
  0
VERTEX
  5
2DB
  8
CUT
 10
647.0494436050903
 20
647.9589890480408
 30
0.0
 70
0
  0
SEQEND
  5
2D3
  8
CUT
  0
POLYLINE
  5
2DC
  8
CUT
 66
1
 10
0.0
 20
0.0
 30
0.0
 70
1
  0
VERTEX
  5
2DE
  8
CUT
 10
744.1011590952371
 20
727.1916136522866
 30
0.0
 42
2.414213562373095
 70
0
  0
VERTEX
  5
2DF
  8
CUT
 10
748.626642494831
 20
727.1916136522866
 30
0.0
 70
0
  0
VERTEX
  5
2E0
  8
CUT
 10
773.0925371238856
 20
751.6575082813412
 30
0.0
 42
2.414213562373095
 70
0
  0
VERTEX
  5
2E1
  8
CUT
 10
773.0925371238856
 20
756.1829916809351
 30
0.0
 70
0
  0
VERTEX
  5
2E2
  8
CUT
 10
764.1829916809351
 20
765.0925371238856
 30
0.0
 42
2.414213562373095
 70
0
  0
VERTEX
  5
2E3
  8
CUT
 10
759.6575082813412
 20
765.0925371238856
 30
0.0
 70
0
  0
VERTEX
  5
2E4
  8
CUT
 10
735.1916136522866
 20
740.626642494831
 30
0.0
 42
2.414213562373095
 70
0
  0
VERTEX
  5
2E5
  8
CUT
 10
735.1916136522866
 20
736.1011590952371
 30
0.0
 70
0
  0
SEQEND
  5
2DD
  8
CUT
  0
POLYLINE
  5
2E6
  8
CUT
 66
1
 10
0.0
 20
0.0
 30
0.0
 70
1
  0
VERTEX
  5
2E8
  8
CUT
 10
773.0925371238856
 20
647.9589890480408
 30
0.0
 42
2.414213562373095
 70
0
  0
VERTEX
  5
2E9
  8
CUT
 10
773.0925371238856
 20
652.4844724476347
 30
0.0
 70
0
  0
VERTEX
  5
2EA
  8
CUT
 10
748.626642494831
 20
676.9503670766893
 30
0.0
 42
2.414213562373095
 70
0
  0
VERTEX
  5
2EB
  8
CUT
 10
744.1011590952371
 20
676.9503670766893
 30
0.0
 70
0
  0
VERTEX
  5
2EC
  8
CUT
 10
735.1916136522866
 20
668.0408216337388
 30
0.0
 42
2.414213562373095
 70
0
  0
VERTEX
  5
2ED
  8
CUT
 10
735.1916136522866
 20
663.5153382341449
 30
0.0
 70
0
  0
VERTEX
  5
2EE
  8
CUT
 10
759.6575082813412
 20
639.0494436050903
 30
0.0
 42
2.414213562373095
 70
0
  0
VERTEX
  5
2EF
  8
CUT
 10
764.1829916809351
 20
639.0494436050903
 30
0.0
 70
0
  0
SEQEND
  5
2E7
  8
CUT
  0
POLYLINE
  5
2F0
  8
CUT
 66
1
 10
0.0
 20
0.0
 30
0.0
 70
1
  0
VERTEX
  5
2F2
  8
CUT
 10
684.9503670766893
 20
736.1011590952371
 30
0.0
 42
2.414213562373095
 70
0
  0
VERTEX
  5
2F3
  8
CUT
 10
684.9503670766893
 20
740.626642494831
 30
0.0
 70
0
  0
VERTEX
  5
2F4
  8
CUT
 10
660.4844724476347
 20
765.0925371238856
 30
0.0
 42
2.414213562373095
 70
0
  0
VERTEX
  5
2F5
  8
CUT
 10
655.9589890480408
 20
765.0925371238856
 30
0.0
 70
0
  0
VERTEX
  5
2F6
  8
CUT
 10
647.0494436050903
 20
756.1829916809351
 30
0.0
 42
2.414213562373095
 70
0
  0
VERTEX
  5
2F7
  8
CUT
 10
647.0494436050903
 20
751.6575082813412
 30
0.0
 70
0
  0
VERTEX
  5
2F8
  8
CUT
 10
671.5153382341449
 20
727.1916136522866
 30
0.0
 42
2.414213562373095
 70
0
  0
VERTEX
  5
2F9
  8
CUT
 10
676.0408216337388
 20
727.1916136522866
 30
0.0
 70
0
  0
SEQEND
  5
2F1
  8
CUT
  0
POLYLINE
  5
2FA
  8
CUT
 66
1
 10
0.0
 20
0.0
 30
0.0
 70
1
  0
VERTEX
  5
2FC
  8
CUT
 10
602.0
 20
884.0
 30
0.0
 70
0
  0
VERTEX
  5
2FD
  8
CUT
 10
632.0450642156177
 20
884.0
 30
0.0
 42
-2.414213562373095
 70
0
  0
VERTEX
  5
2FE
  8
CUT
 10
635.2450642156177
 20
880.8
 30
0.0
 70
0
  0
VERTEX
  5
2FF
  8
CUT
 10
635.2450642156177
 20
866.0
 30
0.0
 70
0
  0
VERTEX
  5
300
  8
CUT
 10
675.2450642156177
 20
866.0
 30
0.0
 70
0
  0
VERTEX
  5
301
  8
CUT
 10
675.2450642156177
 20
880.8
 30
0.0
 42
-2.414213562373095
 70
0
  0
VERTEX
  5
302
  8
CUT
 10
678.4450642156177
 20
884.0
 30
0.0
 70
0
  0
VERTEX
  5
303
  8
CUT
 10
756.6969165133582
 20
884.0
 30
0.0
 42
-2.414213562373095
 70
0
  0
VERTEX
  5
304
  8
CUT
 10
759.8969165133583
 20
880.8
 30
0.0
 70
0
  0
VERTEX
  5
305
  8
CUT
 10
759.8969165133583
 20
866.0
 30
0.0
 70
0
  0
VERTEX
  5
306
  8
CUT
 10
799.8969165133583
 20
866.0
 30
0.0
 70
0
  0
VERTEX
  5
307
  8
CUT
 10
799.8969165133583
 20
880.8
 30
0.0
 42
-2.414213562373095
 70
0
  0
VERTEX
  5
308
  8
CUT
 10
803.0969165133582
 20
884.0
 30
0.0
 70
0
  0
VERTEX
  5
309
  8
CUT
 10
833.1419807289759
 20
884.0
 30
0.0
 70
0
  0
VERTEX
  5
30A
  8
CUT
 10
782.7419807289759
 20
1073.0
 30
0.0
 70
0
  0
VERTEX
  5
30B
  8
CUT
 10
772.0781638636857
 20
1073.0
 30
0.0
 42
-2.414213562373095
 70
0
  0
VERTEX
  5
30C
  8
CUT
 10
768.8781638636858
 20
1076.2
 30
0.0
 70
0
  0
VERTEX
  5
30D
  8
CUT
 10
768.8781638636858
 20
1091.0
 30
0.0
 70
0
  0
VERTEX
  5
30E
  8
CUT
 10
735.270990364488
 20
1091.0
 30
0.0
 70
0
  0
VERTEX
  5
30F
  8
CUT
 10
735.270990364488
 20
1076.2
 30
0.0
 42
-2.414213562373095
 70
0
  0
VERTEX
  5
310
  8
CUT
 10
732.0709903644879
 20
1073.0
 30
0.0
 70
0
  0
VERTEX
  5
311
  8
CUT
 10
727.0709903644879
 20
1073.0
 30
0.0
 70
0
  0
VERTEX
  5
312
  8
CUT
 10
727.0709903644879
 20
981.7
 30
0.0
 42
-2.414213562373095
 70
0
  0
VERTEX
  5
313
  8
CUT
 10
723.870990364488
 20
978.5
 30
0.0
 70
0
  0
VERTEX
  5
314
  8
CUT
 10
711.270990364488
 20
978.5
 30
0.0
 42
-2.414213562373095
 70
0
  0
VERTEX
  5
315
  8
CUT
 10
708.0709903644879
 20
981.7
 30
0.0
 70
0
  0
VERTEX
  5
316
  8
CUT
 10
708.0709903644879
 20
1073.0
 30
0.0
 70
0
  0
VERTEX
  5
317
  8
CUT
 10
703.0709903644879
 20
1073.0
 30
0.0
 42
-2.414213562373095
 70
0
  0
VERTEX
  5
318
  8
CUT
 10
699.870990364488
 20
1076.2
 30
0.0
 70
0
  0
VERTEX
  5
319
  8
CUT
 10
699.870990364488
 20
1091.0
 30
0.0
 70
0
  0
VERTEX
  5
31A
  8
CUT
 10
666.2638168652901
 20
1091.0
 30
0.0
 70
0
  0
VERTEX
  5
31B
  8
CUT
 10
666.2638168652901
 20
1076.2
 30
0.0
 42
-2.414213562373095
 70
0
  0
VERTEX
  5
31C
  8
CUT
 10
663.0638168652902
 20
1073.0
 30
0.0
 70
0
  0
VERTEX
  5
31D
  8
CUT
 10
652.4
 20
1073.0
 30
0.0
 70
0
  0
SEQEND
  5
2FB
  8
CUT
  0
POLYLINE
  5
31E
  8
CUT
 66
1
 10
0.0
 20
0.0
 30
0.0
 70
1
  0
VERTEX
  5
320
  8
CUT
 10
1001.1419807289759
 20
1181.0
 30
0.0
 70
0
  0
VERTEX
  5
321
  8
CUT
 10
971.0969165133582
 20
1181.0
 30
0.0
 42
-2.414213562373095
 70
0
  0
VERTEX
  5
322
  8
CUT
 10
967.8969165133583
 20
1184.2
 30
0.0
 70
0
  0
VERTEX
  5
323
  8
CUT
 10
967.8969165133583
 20
1199.0
 30
0.0
 70
0
  0
VERTEX
  5
324
  8
CUT
 10
927.8969165133583
 20
1199.0
 30
0.0
 70
0
  0
VERTEX
  5
325
  8
CUT
 10
927.8969165133583
 20
1184.2
 30
0.0
 42
-2.414213562373095
 70
0
  0
VERTEX
  5
326
  8
CUT
 10
924.6969165133582
 20
1181.0
 30
0.0
 70
0
  0
VERTEX
  5
327
  8
CUT
 10
895.0709903644879
 20
1181.0
 30
0.0
 70
0
  0
VERTEX
  5
328
  8
CUT
 10
895.0709903644879
 20
1089.7
 30
0.0
 42
-2.414213562373095
 70
0
  0
VERTEX
  5
329
  8
CUT
 10
891.870990364488
 20
1086.5
 30
0.0
 70
0
  0
VERTEX
  5
32A
  8
CUT
 10
879.270990364488
 20
1086.5
 30
0.0
 42
-2.414213562373095
 70
0
  0
VERTEX
  5
32B
  8
CUT
 10
876.0709903644879
 20
1089.7
 30
0.0
 70
0
  0
VERTEX
  5
32C
  8
CUT
 10
876.0709903644879
 20
1181.0
 30
0.0
 70
0
  0
VERTEX
  5
32D
  8
CUT
 10
846.4450642156177
 20
1181.0
 30
0.0
 42
-2.414213562373095
 70
0
  0
VERTEX
  5
32E
  8
CUT
 10
843.2450642156177
 20
1184.2
 30
0.0
 70
0
  0
VERTEX
  5
32F
  8
CUT
 10
843.2450642156177
 20
1199.0
 30
0.0
 70
0
  0
VERTEX
  5
330
  8
CUT
 10
803.2450642156177
 20
1199.0
 30
0.0
 70
0
  0
VERTEX
  5
331
  8
CUT
 10
803.2450642156177
 20
1184.2
 30
0.0
 42
-2.414213562373095
 70
0
  0
VERTEX
  5
332
  8
CUT
 10
800.0450642156177
 20
1181.0
 30
0.0
 70
0
  0
VERTEX
  5
333
  8
CUT
 10
770.0
 20
1181.0
 30
0.0
 70
0
  0
VERTEX
  5
334
  8
CUT
 10
820.4
 20
992.0
 30
0.0
 70
0
  0
VERTEX
  5
335
  8
CUT
 10
831.0638168652902
 20
992.0
 30
0.0
 42
-2.414213562373095
 70
0
  0
VERTEX
  5
336
  8
CUT
 10
834.2638168652901
 20
988.8
 30
0.0
 70
0
  0
VERTEX
  5
337
  8
CUT
 10
834.2638168652901
 20
974.0
 30
0.0
 70
0
  0
VERTEX
  5
338
  8
CUT
 10
867.870990364488
 20
974.0
 30
0.0
 70
0
  0
VERTEX
  5
339
  8
CUT
 10
867.870990364488
 20
988.8
 30
0.0
 42
-2.414213562373095
 70
0
  0
VERTEX
  5
33A
  8
CUT
 10
871.0709903644879
 20
992.0
 30
0.0
 70
0
  0
VERTEX
  5
33B
  8
CUT
 10
900.0709903644879
 20
992.0
 30
0.0
 42
-2.414213562373095
 70
0
  0
VERTEX
  5
33C
  8
CUT
 10
903.270990364488
 20
988.8
 30
0.0
 70
0
  0
VERTEX
  5
33D
  8
CUT
 10
903.270990364488
 20
974.0
 30
0.0
 70
0
  0
VERTEX
  5
33E
  8
CUT
 10
936.8781638636858
 20
974.0
 30
0.0
 70
0
  0
VERTEX
  5
33F
  8
CUT
 10
936.8781638636858
 20
988.8
 30
0.0
 42
-2.414213562373095
 70
0
  0
VERTEX
  5
340
  8
CUT
 10
940.0781638636857
 20
992.0
 30
0.0
 70
0
  0
VERTEX
  5
341
  8
CUT
 10
950.7419807289759
 20
992.0
 30
0.0
 70
0
  0
SEQEND
  5
31F
  8
CUT
  0
POLYLINE
  5
342
  8
CUT
 66
1
 10
0.0
 20
0.0
 30
0.0
 70
1
  0
VERTEX
  5
344
  8
CUT
 10
139.74198072897593
 20
78.87099036448797
 30
0.0
 42
1.0
 70
0
  0
VERTEX
  5
345
  8
CUT
 10
18.0
 20
78.87099036448797
 30
0.0
 42
1.0
 70
0
  0
SEQEND
  5
343
  8
CUT
  0
POLYLINE
  5
346
  8
CUT
 66
1
 10
0.0
 20
0.0
 30
0.0
 70
1
  0
VERTEX
  5
348
  8
CUT
 10
46.69255939057245
 20
37.78301394762195
 30
0.0
 42
2.414213562373095
 70
0
  0
VERTEX
  5
349
  8
CUT
 10
51.21804279016634
 20
37.78301394762195
 30
0.0
 70
0
  0
VERTEX
  5
34A
  8
CUT
 10
71.16352644955461
 20
57.7284976070102
 30
0.0
 42
2.414213562373095
 70
0
  0
VERTEX
  5
34B
  8
CUT
 10
71.16352644955461
 20
62.25398100660411
 30
0.0
 70
0
  0
VERTEX
  5
34C
  8
CUT
 10
62.25398100660411
 20
71.16352644955461
 30
0.0
 42
2.414213562373095
 70
0
  0
VERTEX
  5
34D
  8
CUT
 10
57.7284976070102
 20
71.16352644955461
 30
0.0
 70
0
  0
VERTEX
  5
34E
  8
CUT
 10
37.783013947621946
 20
51.21804279016635
 30
0.0
 42
2.414213562373095
 70
0
  0
VERTEX
  5
34F
  8
CUT
 10
37.783013947621946
 20
46.692559390572455
 30
0.0
 70
0
  0
SEQEND
  5
347
  8
CUT
  0
POLYLINE
  5
350
  8
CUT
 66
1
 10
0.0
 20
0.0
 30
0.0
 70
1
  0
VERTEX
  5
352
  8
CUT
 10
95.48799972237184
 20
86.57845427942135
 30
0.0
 42
2.414213562373095
 70
0
  0
VERTEX
  5
353
  8
CUT
 10
100.01348312196575
 20
86.57845427942134
 30
0.0
 70
0
  0
VERTEX
  5
354
  8
CUT
 10
119.95896678135401
 20
106.5239379388096
 30
0.0
 42
2.414213562373095
 70
0
  0
VERTEX
  5
355
  8
CUT
 10
119.95896678135401
 20
111.04942133840349
 30
0.0
 70
0
  0
VERTEX
  5
356
  8
CUT
 10
111.0494213384035
 20
119.958966781354
 30
0.0
 42
2.414213562373095
 70
0
  0
VERTEX
  5
357
  8
CUT
 10
106.52393793880961
 20
119.958966781354
 30
0.0
 70
0
  0
VERTEX
  5
358
  8
CUT
 10
86.57845427942135
 20
100.01348312196575
 30
0.0
 42
2.414213562373095
 70
0
  0
VERTEX
  5
359
  8
CUT
 10
86.57845427942135
 20
95.48799972237184
 30
0.0
 70
0
  0
SEQEND
  5
351
  8
CUT
  0
POLYLINE
  5
35A
  8
CUT
 66
1
 10
0.0
 20
0.0
 30
0.0
 70
1
  0
VERTEX
  5
35C
  8
CUT
 10
119.958966781354
 20
46.69255939057245
 30
0.0
 42
2.414213562373095
 70
0
  0
VERTEX
  5
35D
  8
CUT
 10
119.958966781354
 20
51.21804279016634
 30
0.0
 70
0
  0
VERTEX
  5
35E
  8
CUT
 10
100.01348312196575
 20
71.16352644955461
 30
0.0
 42
2.414213562373095
 70
0
  0
VERTEX
  5
35F
  8
CUT
 10
95.48799972237184
 20
71.16352644955461
 30
0.0
 70
0
  0
VERTEX
  5
360
  8
CUT
 10
86.57845427942135
 20
62.25398100660411
 30
0.0
 42
2.414213562373095
 70
0
  0
VERTEX
  5
361
  8
CUT
 10
86.57845427942134
 20
57.7284976070102
 30
0.0
 70
0
  0
VERTEX
  5
362
  8
CUT
 10
106.5239379388096
 20
37.783013947621946
 30
0.0
 42
2.414213562373095
 70
0
  0
VERTEX
  5
363
  8
CUT
 10
111.04942133840349
 20
37.783013947621946
 30
0.0
 70
0
  0
SEQEND
  5
35B
  8
CUT
  0
POLYLINE
  5
364
  8
CUT
 66
1
 10
0.0
 20
0.0
 30
0.0
 70
1
  0
VERTEX
  5
366
  8
CUT
 10
71.16352644955461
 20
95.48799972237184
 30
0.0
 42
2.414213562373095
 70
0
  0
VERTEX
  5
367
  8
CUT
 10
71.16352644955461
 20
100.01348312196575
 30
0.0
 70
0
  0
VERTEX
  5
368
  8
CUT
 10
51.21804279016635
 20
119.95896678135401
 30
0.0
 42
2.414213562373095
 70
0
  0
VERTEX
  5
369
  8
CUT
 10
46.692559390572455
 20
119.95896678135401
 30
0.0
 70
0
  0
VERTEX
  5
36A
  8
CUT
 10
37.78301394762195
 20
111.0494213384035
 30
0.0
 42
2.414213562373095
 70
0
  0
VERTEX
  5
36B
  8
CUT
 10
37.78301394762195
 20
106.52393793880961
 30
0.0
 70
0
  0
VERTEX
  5
36C
  8
CUT
 10
57.7284976070102
 20
86.57845427942135
 30
0.0
 42
2.414213562373095
 70
0
  0
VERTEX
  5
36D
  8
CUT
 10
62.25398100660411
 20
86.57845427942135
 30
0.0
 70
0
  0
SEQEND
  5
365
  8
CUT
  0
ENDSEC
  0
EOF
