  0
SECTION
  2
HEADER
  9
$ACADVER
  1
AC1024
  9
$ACADMAINTVER
 70
6
  9
$DWGCODEPAGE
  3
ANSI_1252
  9
$LASTSAVEDBY
  1
ezdxf
  9
$INSBASE
 10
0.0
 20
0.0
 30
0.0
  9
$EXTMIN
 10
1e+20
 20
1e+20
 30
1e+20
  9
$EXTMAX
 10
-1e+20
 20
-1e+20
 30
-1e+20
  9
$LIMMIN
 10
0.0
 20
0.0
  9
$LIMMAX
 10
420.0
 20
297.0
  9
$ORTHOMODE
 70
0
  9
$REGENMODE
 70
1
  9
$FILLMODE
 70
1
  9
$QTEXTMODE
 70
0
  9
$MIRRTEXT
 70
1
  9
$LTSCALE
 40
1.0
  9
$ATTMODE
 70
1
  9
$TEXTSIZE
 40
2.5
  9
$TRACEWID
 40
1.0
  9
$TEXTSTYLE
  7
OpenSans
  9
$CLAYER
  8
0
  9
$CELTYPE
  6
ByLayer
  9
$CECOLOR
 62
256
  9
$CELTSCALE
 40
1.0
  9
$DISPSILH
 70
0
  9
$DIMSCALE
 40
1.0
  9
$DIMASZ
 40
0.175
  9
$DIMEXO
 40
0.125
  9
$DIMDLI
 40
3.75
  9
$DIMRND
 40
0.0
  9
$DIMDLE
 40
0.0
  9
$DIMEXE
 40
0.375
  9
$DIMTP
 40
0.0
  9
$DIMTM
 40
0.0
  9
$DIMTXT
 40
0.25
  9
$DIMCEN
 40
2.5
  9
$DIMTSZ
 40
0.0
  9
$DIMTOL
 70
0
  9
$DIMLIM
 70
0
  9
$DIMTIH
 70
0
  9
$DIMTOH
 70
0
  9
$DIMSE1
 70
0
  9
$DIMSE2
 70
0
  9
$DIMTAD
 70
1
  9
$DIMZIN
 70
12
  9
$DIMBLK
  1
ARCHTICK
  9
$DIMASO
 70
1
  9
$DIMSHO
 70
1
  9
$DIMPOST
  1

  9
$DIMAPOST
  1

  9
$DIMALT
 70
0
  9
$DIMALTD
 70
3
  9
$DIMALTF
 40
0.03937007874
  9
$DIMLFAC
 40
100.0
  9
$DIMTOFL
 70
1
  9
$DIMTVP
 40
0.0
  9
$DIMTIX
 70
0
  9
$DIMSOXD
 70
0
  9
$DIMSAH
 70
0
  9
$DIMBLK1
  1

  9
$DIMBLK2
  1

  9
$DIMSTYLE
  2
EZDXF
  9
$DIMCLRD
 70
0
  9
$DIMCLRE
 70
0
  9
$DIMCLRT
 70
0
  9
$DIMTFAC
 40
0.5
  9
$DIMGAP
 40
0.1
  9
$DIMJUST
 70
0
  9
$DIMSD1
 70
0
  9
$DIMSD2
 70
0
  9
$DIMTOLJ
 70
0
  9
$DIMTZIN
 70
8
  9
$DIMALTZ
 70
0
  9
$DIMALTTZ
 70
0
  9
$DIMUPT
 70
1
  9
$DIMDEC
 70
2
  9
$DIMTDEC
 70
2
  9
$DIMALTU
 70
2
  9
$DIMALTTD
 70
3
  9
$DIMTXSTY
  7
OpenSansCondensed-Light
  9
$DIMAUNIT
 70
0
  9
$DIMADEC
 70
2
  9
$DIMALTRND
 40
0.0
  9
$DIMAZIN
 70
3
  9
$DIMDSEP
 70
46
  9
$DIMATFIT
 70
3
  9
$DIMFRAC
 70
0
  9
$DIMLDRBLK
  1

  9
$DIMLUNIT
 70
2
  9
$DIMLWD
 70
-2
  9
$DIMLWE
 70
-2
  9
$DIMTMOVE
 70
2
  9
$DIMFXL
 40
1.0
  9
$DIMFXLON
 70
0
  9
$DIMJOGANG
 40
0.785398163397
  9
$DIMTFILL
 70
0
  9
$DIMTFILLCLR
 70
0
  9
$DIMARCSYM
 70
0
  9
$DIMLTYPE
  6

  9
$DIMLTEX1
  6

  9
$DIMLTEX2
  6

  9
$DIMTXTDIRECTION
 70
0
  9
$LUNITS
 70
2
  9
$LUPREC
 70
4
  9
$SKETCHINC
 40
1.0
  9
$FILLETRAD
 40
10.0
  9
$AUNITS
 70
0
  9
$AUPREC
 70
2
  9
$MENU
  1
.
  9
$ELEVATION
 40
0.0
  9
$PELEVATION
 40
0.0
  9
$THICKNESS
 40
0.0
  9
$LIMCHECK
 70
0
  9
$CHAMFERA
 40
0.0
  9
$CHAMFERB
 40
0.0
  9
$CHAMFERC
 40
0.0
  9
$CHAMFERD
 40
0.0
  9
$SKPOLY
 70
0
  9
$TDCREATE
 40
2461313.207303241
  9
$TDUCREATE
 40
2458532.153996898
  9
$TDUPDATE
 40
2461313.207303241
  9
$TDUUPDATE
 40
2458532.1544311
  9
$TDINDWG
 40
0.0
  9
$TDUSRTIMER
 40
0.0
  9
$USRTIMER
 70
1
  9
$ANGBASE
 50
0.0
  9
$ANGDIR
 70
0
  9
$PDMODE
 70
0
  9
$PDSIZE
 40
0.0
  9
$PLINEWID
 40
0.0
  9
$SPLFRAME
 70
0
  9
$SPLINETYPE
 70
6
  9
$SPLINESEGS
 70
8
  9
$HANDSEED
  5
124
  9
$SURFTAB1
 70
6
  9
$SURFTAB2
 70
6
  9
$SURFTYPE
 70
6
  9
$SURFU
 70
6
  9
$SURFV
 70
6
  9
$UCSBASE
  2

  9
$UCSNAME
  2

  9
$UCSORG
 10
0.0
 20
0.0
 30
0.0
  9
$UCSXDIR
 10
1.0
 20
0.0
 30
0.0
  9
$UCSYDIR
 10
0.0
 20
1.0
 30
0.0
  9
$UCSORTHOREF
  2

  9
$UCSORTHOVIEW
 70
0
  9
$UCSORGTOP
 10
0.0
 20
0.0
 30
0.0
  9
$UCSORGBOTTOM
 10
0.0
 20
0.0
 30
0.0
  9
$UCSORGLEFT
 10
0.0
 20
0.0
 30
0.0
  9
$UCSORGRIGHT
 10
0.0
 20
0.0
 30
0.0
  9
$UCSORGFRONT
 10
0.0
 20
0.0
 30
0.0
  9
$UCSORGBACK
 10
0.0
 20
0.0
 30
0.0
  9
$PUCSBASE
  2

  9
$PUCSNAME
  2

  9
$PUCSORG
 10
0.0
 20
0.0
 30
0.0
  9
$PUCSXDIR
 10
1.0
 20
0.0
 30
0.0
  9
$PUCSYDIR
 10
0.0
 20
1.0
 30
0.0
  9
$PUCSORTHOREF
  2

  9
$PUCSORTHOVIEW
 70
0
  9
$PUCSORGTOP
 10
0.0
 20
0.0
 30
0.0
  9
$PUCSORGBOTTOM
 10
0.0
 20
0.0
 30
0.0
  9
$PUCSORGLEFT
 10
0.0
 20
0.0
 30
0.0
  9
$PUCSORGRIGHT
 10
0.0
 20
0.0
 30
0.0
  9
$PUCSORGFRONT
 10
0.0
 20
0.0
 30
0.0
  9
$PUCSORGBACK
 10
0.0
 20
0.0
 30
0.0
  9
$USERI1
 70
0
  9
$USERI2
 70
0
  9
$USERI3
 70
0
  9
$USERI4
 70
0
  9
$USERI5
 70
0
  9
$USERR1
 40
0.0
  9
$USERR2
 40
0.0
  9
$USERR3
 40
0.0
  9
$USERR4
 40
0.0
  9
$USERR5
 40
0.0
  9
$WORLDVIEW
 70
1
  9
$SHADEDGE
 70
3
  9
$SHADEDIF
 70
70
  9
$TILEMODE
 70
1
  9
$MAXACTVP
 70
64
  9
$PINSBASE
 10
0.0
 20
0.0
 30
0.0
  9
$PLIMCHECK
 70
0
  9
$PEXTMIN
 10
1e+20
 20
1e+20
 30
1e+20
  9
$PEXTMAX
 10
-1e+20
 20
-1e+20
 30
-1e+20
  9
$PLIMMIN
 10
0.0
 20
0.0
  9
$PLIMMAX
 10
420.0
 20
297.0
  9
$UNITMODE
 70
0
  9
$VISRETAIN
 70
1
  9
$PLINEGEN
 70
0
  9
$PSLTSCALE
 70
1
  9
$TREEDEPTH
 70
3020
  9
$CMLSTYLE
  2
Standard
  9
$CMLJUST
 70
0
  9
$CMLSCALE
 40
20.0
  9
$PROXYGRAPHICS
 70
1
  9
$MEASUREMENT
 70
1
  9
$CELWEIGHT
370
-1
  9
$ENDCAPS
280
0
  9
$JOINSTYLE
280
0
  9
$LWDISPLAY
290
0
  9
$INSUNITS
 70
4
  9
$HYPERLINKBASE
  1

  9
$STYLESHEET
  1

  9
$XEDIT
290
1
  9
$CEPSNTYPE
380
0
  9
$PSTYLEMODE
290
1
  9
$FINGERPRINTGUID
  2
{7E1D671D-06BB-4502-BB00-D95D78E637E3}
  9
$VERSIONGUID
  2
{8B7A04E4-3ACD-4C72-80CD-B35C0FB82F54}
  9
$EXTNAMES
290
1
  9
$PSVPSCALE
 40
0.0
  9
$OLESTARTUP
290
0
  9
$SORTENTS
280
127
  9
$INDEXCTL
280
0
  9
$HIDETEXT
280
1
  9
$XCLIPFRAME
280
1
  9
$HALOGAP
280
0
  9
$OBSCOLOR
 70
257
  9
$OBSLTYPE
280
0
  9
$INTERSECTIONDISPLAY
280
0
  9
$INTERSECTIONCOLOR
 70
257
  9
$DIMASSOC
280
2
  9
$PROJECTNAME
  1

  9
$CAMERADISPLAY
290
0
  9
$LENSLENGTH
 40
50.0
  9
$CAMERAHEIGHT
 40
0.0
  9
$STEPSPERSEC
 40
24.0
  9
$STEPSIZE
 40
100.0
  9
$3DDWFPREC
 40
2.0
  9
$PSOLWIDTH
 40
0.005
  9
$PSOLHEIGHT
 40
0.08
  9
$LOFTANG1
 40
1.570796326795
  9
$LOFTANG2
 40
1.570796326795
  9
$LOFTMAG1
 40
0.0
  9
$LOFTMAG2
 40
0.0
  9
$LOFTPARAM
 70
7
  9
$LOFTNORMALS
280
1
  9
$LATITUDE
 40
37.795
  9
$LONGITUDE
 40
-122.394
  9
$NORTHDIRECTION
 40
0.0
  9
$TIMEZONE
 70
-8000
  9
$LIGHTGLYPHDISPLAY
280
1
  9
$TILEMODELIGHTSYNCH
280
1
  9
$CMATERIAL
347
20
  9
$SOLIDHIST
280
0
  9
$SHOWHIST
280
1
  9
$DWFFRAME
280
2
  9
$DGNFRAME
280
2
  9
$REALWORLDSCALE
290
1
  9
$INTERFERECOLOR
 62
256
  9
$CSHADOW
280
0
  9
$SHADOWPLANELOCATION
 40
0.0
  0
ENDSEC
  0
SECTION
  2
CLASSES
  0
CLASS
  1
ACDBDICTIONARYWDFLT
  2
AcDbDictionaryWithDefault
  3
ObjectDBX Classes
 90
0
 91
0
280
0
281
0
  0
CLASS
  1
SUN
  2
AcDbSun
  3
SCENEOE
 90
1153
 91
0
280
0
281
0
  0
CLASS
  1
VISUALSTYLE
  2
AcDbVisualStyle
  3
ObjectDBX Classes
 90
4095
 91
0
280
0
281
0
  0
CLASS
  1
MATERIAL
  2
AcDbMaterial
  3
ObjectDBX Classes
 90
1153
 91
0
280
0
281
0
  0
CLASS
  1
SCALE
  2
AcDbScale
  3
ObjectDBX Classes
 90
1153
 91
0
280
0
281
0
  0
CLASS
  1
TABLESTYLE
  2
AcDbTableStyle
  3
ObjectDBX Classes
 90
4095
 91
0
280
0
281
0
  0
CLASS
  1
MLEADERSTYLE
  2
AcDbMLeaderStyle
  3
ACDB_MLEADERSTYLE_CLASS
 90
4095
 91
0
280
0
281
0
  0
CLASS
  1
DICTIONARYVAR
  2
AcDbDictionaryVar
  3
ObjectDBX Classes
 90
0
 91
0
280
0
281
0
  0
CLASS
  1
CELLSTYLEMAP
  2
AcDbCellStyleMap
  3
ObjectDBX Classes
 90
1152
 91
0
280
0
281
0
  0
CLASS
  1
MENTALRAYRENDERSETTINGS
  2
AcDbMentalRayRenderSettings
  3
SCENEOE
 90
1024
 91
0
280
0
281
0
  0
CLASS
  1
ACDBDETAILVIEWSTYLE
  2
AcDbDetailViewStyle
  3
ObjectDBX Classes
 90
1025
 91
0
280
0
281
0
  0
CLASS
  1
ACDBSECTIONVIEWSTYLE
  2
AcDbSectionViewStyle
  3
ObjectDBX Classes
 90
1025
 91
0
280
0
281
0
  0
CLASS
  1
RASTERVARIABLES
  2
AcDbRasterVariables
  3
ISM
 90
0
 91
0
280
0
281
0
  0
CLASS
  1
ACDBPLACEHOLDER
  2
AcDbPlaceHolder
  3
ObjectDBX Classes
 90
0
 91
0
280
0
281
0
  0
CLASS
  1
LAYOUT
  2
AcDbLayout
  3
ObjectDBX Classes
 90
0
 91
0
280
0
281
0
  0
ENDSEC
  0
SECTION
  2
TABLES
  0
TABLE
  2
VPORT
  5
8
330
0
100
AcDbSymbolTable
 70
1
  0
VPORT
  5
23
330
8
100
AcDbSymbolTableRecord
100
AcDbViewportTableRecord
  2
*Active
 70
0
 10
0.0
 20
0.0
 11
1.0
 21
1.0
 12
0.0
 22
0.0
 13
0.0
 23
0.0
 14
0.5
 24
0.5
 15
0.5
 25
0.5
 16
0.0
 26
0.0
 36
1.0
 17
0.0
 27
0.0
 37
0.0
 40
1000.0
 41
1.34
 42
50.0
 43
0.0
 44
0.0
 50
0.0
 51
0.0
 71
0
 72
1000
 73
1
 74
3
 75
0
 76
0
 77
0
 78
0
281
0
 65
0
146
0.0
  0
ENDTAB
  0
TABLE
  2
LTYPE
  5
2
330
0
100
AcDbSymbolTable
 70
21
  0
LTYPE
  5
24
330
2
100
AcDbSymbolTableRecord
100
AcDbLinetypeTableRecord
  2
ByBlock
 70
0
  3

 72
65
 73
0
 40
0.0
  0
LTYPE
  5
25
330
2
100
AcDbSymbolTableRecord
100
AcDbLinetypeTableRecord
  2
ByLayer
 70
0
  3

 72
65
 73
0
 40
0.0
  0
LTYPE
  5
26
330
2
100
AcDbSymbolTableRecord
100
AcDbLinetypeTableRecord
  2
Continuous
 70
0
  3

 72
65
 73
0
 40
0.0
  0
LTYPE
  5
2F
330
2
100
AcDbSymbolTableRecord
100
AcDbLinetypeTableRecord
  2
CENTER
 70
0
  3
Center ____ _ ____ _ ____ _ ____ _ ____ _ ____
 72
65
 73
4
 40
5.08
 49
3.175
 74
0
 49
-0.635
 74
0
 49
0.635
 74
0
 49
-0.635
 74
0
  0
LTYPE
  5
30
330
2
100
AcDbSymbolTableRecord
100
AcDbLinetypeTableRecord
  2
CENTERX2
 70
0
  3
Center (2x) ________  __  ________  __  ________
 72
65
 73
4
 40
8.89
 49
6.35
 74
0
 49
-0.635
 74
0
 49
1.27
 74
0
 49
-0.635
 74
0
  0
LTYPE
  5
31
330
2
100
AcDbSymbolTableRecord
100
AcDbLinetypeTableRecord
  2
CENTER2
 70
0
  3
Center (.5x) ____ _ ____ _ ____ _ ____ _ ____
 72
65
 73
4
 40
2.54
 49
1.587
 74
0
 49
-0.318
 74
0
 49
0.318
 74
0
 49
-0.318
 74
0
  0
LTYPE
  5
32
330
2
100
AcDbSymbolTableRecord
100
AcDbLinetypeTableRecord
  2
DASHED
 70
0
  3
Dashed __ __ __ __ __ __ __ __ __ __ __ __ __ _
 72
65
 73
2
 40
1.524
 49
1.27
 74
0
 49
-0.254
 74
0
  0
LTYPE
  5
33
330
2
100
AcDbSymbolTableRecord
100
AcDbLinetypeTableRecord
  2
DASHEDX2
 70
0
  3
Dashed (2x) ____  ____  ____  ____  ____  ____
 72
65
 73
2
 40
3.048
 49
2.54
 74
0
 49
-0.508
 74
0
  0
LTYPE
  5
34
330
2
100
AcDbSymbolTableRecord
100
AcDbLinetypeTableRecord
  2
DASHED2
 70
0
  3
Dashed (.5x) _ _ _ _ _ _ _ _ _ _ _ _ _ _
 72
65
 73
2
 40
0.762
 49
0.635
 74
0
 49
-0.127
 74
0
  0
LTYPE
  5
35
330
2
100
AcDbSymbolTableRecord
100
AcDbLinetypeTableRecord
  2
PHANTOM
 70
0
  3
Phantom ______  __  __  ______  __  __  ______
 72
65
 73
6
 40
6.35
 49
3.175
 74
0
 49
-0.635
 74
0
 49
0.635
 74
0
 49
-0.635
 74
0
 49
0.635
 74
0
 49
-0.635
 74
0
  0
LTYPE
  5
36
330
2
100
AcDbSymbolTableRecord
100
AcDbLinetypeTableRecord
  2
PHANTOMX2
 70
0
  3
Phantom (2x)____________    ____    ____    ____________
 72
65
 73
6
 40
10.795
 49
6.35
 74
0
 49
-0.635
 74
0
 49
1.27
 74
0
 49
-0.635
 74
0
 49
1.27
 74
0
 49
-0.635
 74
0
  0
LTYPE
  5
37
330
2
100
AcDbSymbolTableRecord
100
AcDbLinetypeTableRecord
  2
PHANTOM2
 70
0
  3
Phantom (.5x) ___ _ _ ___ _ _ ___ _ _ ___ _ _ ___
 72
65
 73
6
 40
3.175
 49
1.587
 74
0
 49
-0.318
 74
0
 49
0.318
 74
0
 49
-0.318
 74
0
 49
0.318
 74
0
 49
-0.318
 74
0
  0
LTYPE
  5
38
330
2
100
AcDbSymbolTableRecord
100
AcDbLinetypeTableRecord
  2
DASHDOT
 70
0
  3
Dash dot __ . __ . __ . __ . __ . __ . __ . __
 72
65
 73
4
 40
3.556
 49
2.54
 74
0
 49
-0.508
 74
0
 49
0.0
 74
0
 49
-0.508
 74
0
  0
LTYPE
  5
39
330
2
100
AcDbSymbolTableRecord
100
AcDbLinetypeTableRecord
  2
DASHDOTX2
 70
0
  3
Dash dot (2x) ____  .  ____  .  ____  .  ____
 72
65
 73
4
 40
6.096
 49
5.08
 74
0
 49
-0.508
 74
0
 49
0.0
 74
0
 49
-0.508
 74
0
  0
LTYPE
  5
3A
330
2
100
AcDbSymbolTableRecord
100
AcDbLinetypeTableRecord
  2
DASHDOT2
 70
0
  3
Dash dot (.5x) _ . _ . _ . _ . _ . _ . _ . _
 72
65
 73
4
 40
1.778
 49
1.27
 74
0
 49
-0.254
 74
0
 49
0.0
 74
0
 49
-0.254
 74
0
  0
LTYPE
  5
3B
330
2
100
AcDbSymbolTableRecord
100
AcDbLinetypeTableRecord
  2
DOT
 70
0
  3
Dot .  .  .  .  .  .  .  .  .  .  .  .  .  .  .  .
 72
65
 73
2
 40
0.508
 49
0.0
 74
0
 49
-0.508
 74
0
  0
LTYPE
  5
3C
330
2
100
AcDbSymbolTableRecord
100
AcDbLinetypeTableRecord
  2
DOTX2
 70
0
  3
Dot (2x) .    .    .    .    .    .    .    . 
 72
65
 73
2
 40
1.016
 49
0.0
 74
0
 49
-1.016
 74
0
  0
LTYPE
  5
3D
330
2
100
AcDbSymbolTableRecord
100
AcDbLinetypeTableRecord
  2
DOT2
 70
0
  3
Dot (.5) . . . . . . . . . . . . . . . . . . . 
 72
65
 73
2
 40
0.254
 49
0.0
 74
0
 49
-0.254
 74
0
  0
LTYPE
  5
3E
330
2
100
AcDbSymbolTableRecord
100
AcDbLinetypeTableRecord
  2
DIVIDE
 70
0
  3
Divide __ . . __ . . __ . . __ . . __ . . __
 72
65
 73
6
 40
4.064
 49
2.54
 74
0
 49
-0.508
 74
0
 49
0.0
 74
0
 49
-0.508
 74
0
 49
0.0
 74
0
 49
-0.508
 74
0
  0
LTYPE
  5
3F
330
2
100
AcDbSymbolTableRecord
100
AcDbLinetypeTableRecord
  2
DIVIDEX2
 70
0
  3
Divide (2x) ____  . .  ____  . .  ____  . .  ____
 72
65
 73
6
 40
6.604
 49
5.08
 74
0
 49
-0.508
 74
0
 49
0.0
 74
0
 49
-0.508
 74
0
 49
0.0
 74
0
 49
-0.508
 74
0
  0
LTYPE
  5
40
330
2
100
AcDbSymbolTableRecord
100
AcDbLinetypeTableRecord
  2
DIVIDE2
 70
0
  3
Divide(.5x) _ . _ . _ . _ . _ . _ . _ . _
 72
65
 73
6
 40
2.032
 49
1.27
 74
0
 49
-0.254
 74
0
 49
0.0
 74
0
 49
-0.254
 74
0
 49
0.0
 74
0
 49
-0.254
 74
0
  0
ENDTAB
  0
TABLE
  2
LAYER
  5
1
330
0
100
AcDbSymbolTable
 70
5
  0
LAYER
  5
27
330
1
100
AcDbSymbolTableRecord
100
AcDbLayerTableRecord
  2
0
 70
0
 62
7
  6
Continuous
370
-3
390
13
347
21
  0
LAYER
  5
28
330
1
100
AcDbSymbolTableRecord
100
AcDbLayerTableRecord
  2
Defpoints
 70
0
 62
7
  6
Continuous
290
0
370
-3
390
13
347
21
  0
LAYER
  5
8A
330
1
100
AcDbSymbolTableRecord
100
AcDbLayerTableRecord
  2
CUT
 70
0
 62
1
  6
Continuous
370
-3
390
13
347
21
  0
LAYER
  5
8B
330
1
100
AcDbSymbolTableRecord
100
AcDbLayerTableRecord
  2
ENGRAVE-LABEL
 70
0
 62
3
  6
Continuous
370
-3
390
13
347
21
  0
LAYER
  5
8C
330
1
100
AcDbSymbolTableRecord
100
AcDbLayerTableRecord
  2
REFERENCE-SHEET
 70
0
 62
8
  6
Continuous
370
-3
390
13
347
21
  0
ENDTAB
  0
TABLE
  2
STYLE
  5
5
330
0
100
AcDbSymbolTable
 70
26
  0
STYLE
  5
29
330
5
100
AcDbSymbolTableRecord
100
AcDbTextStyleTableRecord
  2
Standard
 70
0
 40
0.0
 41
1.0
 50
0.0
 71
0
 42
2.5
  3
txt
  4

  0
STYLE
  5
41
330
5
100
AcDbSymbolTableRecord
100
AcDbTextStyleTableRecord
  2
OpenSans-Light
 70
0
 40
0.0
 41
1.0
 50
0.0
 71
0
 42
2.5
  3
OpenSans-Light.ttf
  4

  0
STYLE
  5
42
330
5
100
AcDbSymbolTableRecord
100
AcDbTextStyleTableRecord
  2
OpenSans-Light-Italic
 70
0
 40
0.0
 41
1.0
 50
0.0
 71
0
 42
2.5
  3
OpenSans-LightItalic.ttf
  4

  0
STYLE
  5
43
330
5
100
AcDbSymbolTableRecord
100
AcDbTextStyleTableRecord
  2
OpenSans
 70
0
 40
0.0
 41
1.0
 50
0.0
 71
0
 42
2.5
  3
OpenSans-Regular.ttf
  4

  0
STYLE
  5
44
330
5
100
AcDbSymbolTableRecord
100
AcDbTextStyleTableRecord
  2
OpenSans-Italic
 70
0
 40
0.0
 41
1.0
 50
0.0
 71
0
 42
2.5
  3
OpenSans-Italic.ttf
  4

  0
STYLE
  5
45
330
5
100
AcDbSymbolTableRecord
100
AcDbTextStyleTableRecord
  2
OpenSans-SemiBold
 70
0
 40
0.0
 41
1.0
 50
0.0
 71
0
 42
2.5
  3
OpenSans-SemiBold.ttf
  4

  0
STYLE
  5
46
330
5
100
AcDbSymbolTableRecord
100
AcDbTextStyleTableRecord
  2
OpenSans-SemiBoldItalic
 70
0
 40
0.0
 41
1.0
 50
0.0
 71
0
 42
2.5
  3
OpenSans-SemiBoldItalic.ttf
  4

  0
STYLE
  5
47
330
5
100
AcDbSymbolTableRecord
100
AcDbTextStyleTableRecord
  2
OpenSans-Bold
 70
0
 40
0.0
 41
1.0
 50
0.0
 71
0
 42
2.5
  3
OpenSans-Bold.ttf
  4

  0
STYLE
  5
48
330
5
100
AcDbSymbolTableRecord
100
AcDbTextStyleTableRecord
  2
OpenSans-BoldItalic
 70
0
 40
0.0
 41
1.0
 50
0.0
 71
0
 42
2.5
  3
OpenSans-BoldItalic.ttf
  4

  0
STYLE
  5
49
330
5
100
AcDbSymbolTableRecord
100
AcDbTextStyleTableRecord
  2
OpenSans-ExtraBold
 70
0
 40
0.0
 41
1.0
 50
0.0
 71
0
 42
2.5
  3
OpenSans-ExtraBold.ttf
  4

  0
STYLE
  5
4A
330
5
100
AcDbSymbolTableRecord
100
AcDbTextStyleTableRecord
  2
OpenSans-ExtraBoldItalic
 70
0
 40
0.0
 41
1.0
 50
0.0
 71
0
 42
2.5
  3
OpenSans-ExtraBoldItalic.ttf
  4

  0
STYLE
  5
4B
330
5
100
AcDbSymbolTableRecord
100
AcDbTextStyleTableRecord
  2
OpenSansCondensed-Bold
 70
0
 40
0.0
 41
1.0
 50
0.0
 71
0
 42
2.5
  3
OpenSansCondensed-Bold.ttf
  4

  0
STYLE
  5
4C
330
5
100
AcDbSymbolTableRecord
100
AcDbTextStyleTableRecord
  2
OpenSansCondensed-Light
 70
0
 40
0.0
 41
1.0
 50
0.0
 71
0
 42
2.5
  3
OpenSansCondensed-Light.ttf
  4

  0
STYLE
  5
4D
330
5
100
AcDbSymbolTableRecord
100
AcDbTextStyleTableRecord
  2
OpenSansCondensed-Italic
 70
0
 40
0.0
 41
1.0
 50
0.0
 71
0
 42
2.5
  3
OpenSansCondensed-LightItalic.ttf
  4

  0
STYLE
  5
4E
330
5
100
AcDbSymbolTableRecord
100
AcDbTextStyleTableRecord
  2
LiberationSans
 70
0
 40
0.0
 41
1.0
 50
0.0
 71
0
 42
2.5
  3
LiberationSans-Regular.ttf
  4

  0
STYLE
  5
4F
330
5
100
AcDbSymbolTableRecord
100
AcDbTextStyleTableRecord
  2
LiberationSans-Bold
 70
0
 40
0.0
 41
1.0
 50
0.0
 71
0
 42
2.5
  3
LiberationSans-Bold.ttf
  4

  0
STYLE
  5
50
330
5
100
AcDbSymbolTableRecord
100
AcDbTextStyleTableRecord
  2
LiberationSans-BoldItalic
 70
0
 40
0.0
 41
1.0
 50
0.0
 71
0
 42
2.5
  3
LiberationSans-BoldItalic.ttf
  4

  0
STYLE
  5
51
330
5
100
AcDbSymbolTableRecord
100
AcDbTextStyleTableRecord
  2
LiberationSans-Italic
 70
0
 40
0.0
 41
1.0
 50
0.0
 71
0
 42
2.5
  3
LiberationSans-Italic.ttf
  4

  0
STYLE
  5
52
330
5
100
AcDbSymbolTableRecord
100
AcDbTextStyleTableRecord
  2
LiberationSerif
 70
0
 40
0.0
 41
1.0
 50
0.0
 71
0
 42
2.5
  3
LiberationSerif-Regular.ttf
  4

  0
STYLE
  5
53
330
5
100
AcDbSymbolTableRecord
100
AcDbTextStyleTableRecord
  2
LiberationSerif-Bold
 70
0
 40
0.0
 41
1.0
 50
0.0
 71
0
 42
2.5
  3
LiberationSerif-Bold.ttf
  4

  0
STYLE
  5
54
330
5
100
AcDbSymbolTableRecord
100
AcDbTextStyleTableRecord
  2
LiberationSerif-BoldItalic
 70
0
 40
0.0
 41
1.0
 50
0.0
 71
0
 42
2.5
  3
LiberationSerif-BoldItalic.ttf
  4

  0
STYLE
  5
55
330
5
100
AcDbSymbolTableRecord
100
AcDbTextStyleTableRecord
  2
LiberationSerif-Italic
 70
0
 40
0.0
 41
1.0
 50
0.0
 71
0
 42
2.5
  3
LiberationSerif-Italic.ttf
  4

  0
STYLE
  5
56
330
5
100
AcDbSymbolTableRecord
100
AcDbTextStyleTableRecord
  2
LiberationMono
 70
0
 40
0.0
 41
1.0
 50
0.0
 71
0
 42
2.5
  3
LiberationMono-Regular.ttf
  4

  0
STYLE
  5
57
330
5
100
AcDbSymbolTableRecord
100
AcDbTextStyleTableRecord
  2
LiberationMono-Bold
 70
0
 40
0.0
 41
1.0
 50
0.0
 71
0
 42
2.5
  3
LiberationMono-Bold.ttf
  4

  0
STYLE
  5
58
330
5
100
AcDbSymbolTableRecord
100
AcDbTextStyleTableRecord
  2
LiberationMono-BoldItalic
 70
0
 40
0.0
 41
1.0
 50
0.0
 71
0
 42
2.5
  3
LiberationMono-BoldItalic.ttf
  4

  0
STYLE
  5
59
330
5
100
AcDbSymbolTableRecord
100
AcDbTextStyleTableRecord
  2
LiberationMono-Italic
 70
0
 40
0.0
 41
1.0
 50
0.0
 71
0
 42
2.5
  3
LiberationMono-Italic.ttf
  4

  0
ENDTAB
  0
TABLE
  2
VIEW
  5
7
330
0
100
AcDbSymbolTable
 70
0
  0
ENDTAB
  0
TABLE
  2
UCS
  5
6
330
0
100
AcDbSymbolTable
 70
0
  0
ENDTAB
  0
TABLE
  2
APPID
  5
3
330
0
100
AcDbSymbolTable
 70
3
  0
APPID
  5
2A
330
3
100
AcDbSymbolTableRecord
100
AcDbRegAppTableRecord
  2
ACAD
 70
0
  0
APPID
  5
121
330
3
100
AcDbSymbolTableRecord
100
AcDbRegAppTableRecord
  2
HATCHBACKGROUNDCOLOR
 70
0
  0
APPID
  5
122
330
3
100
AcDbSymbolTableRecord
100
AcDbRegAppTableRecord
  2
EZDXF
 70
0
  0
ENDTAB
  0
TABLE
  2
DIMSTYLE
  5
4
330
0
100
AcDbSymbolTable
 70
12
100
AcDbDimStyleTable
  0
DIMSTYLE
105
2B
330
4
100
AcDbSymbolTableRecord
100
AcDbDimStyleTableRecord
  2
Standard
 70
0
 40
1.0
 41
2.5
 42
0.625
 43
3.75
 44
1.25
 45
0.0
 46
0.0
 47
0.0
 48
0.0
 49
2.5
140
2.5
141
2.5
142
0.0
143
0.03937007874
144
1.0
145
0.0
146
1.0
147
0.625
148
0.0
 69
0
 70
0
 71
0
 72
0
 73
0
 74
0
 75
0
 76
0
 77
1
 78
8
 79
3
170
0
171
3
172
1
173
0
174
0
175
0
176
0
177
0
178
0
179
2
271
2
272
2
273
2
274
3
275
0
276
0
277
2
278
44
279
0
280
0
281
0
282
0
283
0
284
8
285
0
286
0
288
0
289
3
290
0
371
-2
372
-2
  0
DIMSTYLE
105
73
330
4
100
AcDbSymbolTableRecord
100
AcDbDimStyleTableRecord
  2
EZDXF
 70
0
 40
1.0
 41
0.175
 42
0.125
 43
3.75
 44
0.375
 45
0.0
 46
0.0
 47
0.0
 48
0.0
 49
2.5
140
0.25
141
2.5
142
0.0
143
0.03937007874
144
100.0
145
0.0
146
0.5
147
0.1
148
0.0
 69
0
 70
0
 71
0
 72
0
 73
0
 74
0
 75
0
 76
0
 77
1
 78
12
 79
3
170
0
171
3
172
1
173
0
174
0
175
0
176
0
177
0
178
0
179
2
271
2
272
2
273
2
274
3
275
0
276
0
277
2
278
46
279
2
280
0
281
0
282
0
283
0
284
8
285
0
286
0
288
1
289
3
290
0
340
4C
342
74
371
-2
372
-2
  0
DIMSTYLE
105
7C
330
4
100
AcDbSymbolTableRecord
100
AcDbDimStyleTableRecord
  2
EZ_M_100_H25_CM
 70
0
 40
1.0
 41
0.25
 42
0.125
 43
3.75
 44
0.375
 45
0.0
 46
0.0
 47
0.0
 48
0.0
 49
2.5
140
0.25
141
2.5
142
0.125
143
0.03937007874
144
100.0
145
0.0
146
0.5
147
0.1
148
0.0
 69
0
 70
0
 71
0
 72
0
 73
0
 74
0
 75
0
 76
0
 77
1
 78
12
 79
3
170
0
171
3
172
1
173
0
174
0
175
0
176
0
177
0
178
0
179
2
271
2
272
2
273
2
274
3
275
0
276
0
277
2
278
46
279
2
280
0
281
0
282
0
283
0
284
8
285
0
286
0
288
1
289
3
290
0
340
4C
371
-2
372
-2
  0
DIMSTYLE
105
7D
330
4
100
AcDbSymbolTableRecord
100
AcDbDimStyleTableRecord
  2
EZ_M_50_H25_CM
 70
0
 40
1.0
 41
0.125
 42
0.0625
 43
3.75
 44
0.1875
 45
0.0
 46
0.0
 47
0.0
 48
0.0
 49
2.5
140
0.125
141
2.5
142
0.0625
143
0.03937007874
144
100.0
145
0.0
146
0.5
147
0.05
148
0.0
 69
0
 70
0
 71
0
 72
0
 73
0
 74
0
 75
0
 76
0
 77
1
 78
12
 79
3
170
0
171
3
172
1
173
0
174
0
175
0
176
0
177
0
178
0
179
2
271
2
272
2
273
2
274
3
275
0
276
0
277
2
278
46
279
2
280
0
281
0
282
0
283
0
284
8
285
0
286
0
288
1
289
3
290
0
340
4C
371
-2
372
-2
  0
DIMSTYLE
105
7E
330
4
100
AcDbSymbolTableRecord
100
AcDbDimStyleTableRecord
  2
EZ_M_25_H25_CM
 70
0
 40
1.0
 41
0.0625
 42
0.03125
 43
3.75
 44
0.09375
 45
0.0
 46
0.0
 47
0.0
 48
0.0
 49
2.5
140
0.0625
141
2.5
142
0.03125
143
0.03937007874
144
100.0
145
0.0
146
0.5
147
0.025
148
0.0
 69
0
 70
0
 71
0
 72
0
 73
0
 74
0
 75
0
 76
0
 77
1
 78
12
 79
3
170
0
171
3
172
1
173
0
174
0
175
0
176
0
177
0
178
0
179
2
271
2
272
2
273
2
274
3
275
0
276
0
277
2
278
46
279
2
280
0
281
0
282
0
283
0
284
8
285
0
286
0
288
1
289
3
290
0
340
4C
371
-2
372
-2
  0
DIMSTYLE
105
7F
330
4
100
AcDbSymbolTableRecord
100
AcDbDimStyleTableRecord
  2
EZ_M_20_H25_CM
 70
0
 40
1.0
 41
0.05
 42
0.025
 43
3.75
 44
0.07500000000000001
 45
0.0
 46
0.0
 47
0.0
 48
0.0
 49
2.5
140
0.05
141
2.5
142
0.025
143
0.03937007874
144
100.0
145
0.0
146
0.5
147
0.020000000000000004
148
0.0
 69
0
 70
0
 71
0
 72
0
 73
0
 74
0
 75
0
 76
0
 77
1
 78
12
 79
3
170
0
171
3
172
1
173
0
174
0
175
0
176
0
177
0
178
0
179
2
271
2
272
2
273
2
274
3
275
0
276
0
277
2
278
46
279
2
280
0
281
0
282
0
283
0
284
8
285
0
286
0
288
1
289
3
290
0
340
4C
371
-2
372
-2
  0
DIMSTYLE
105
80
330
4
100
AcDbSymbolTableRecord
100
AcDbDimStyleTableRecord
  2
EZ_M_10_H25_CM
 70
0
 40
1.0
 41
0.025
 42
0.0125
 43
3.75
 44
0.037500000000000006
 45
0.0
 46
0.0
 47
0.0
 48
0.0
 49
2.5
140
0.025
141
2.5
142
0.0125
143
0.03937007874
144
100.0
145
0.0
146
0.5
147
0.010000000000000002
148
0.0
 69
0
 70
0
 71
0
 72
0
 73
0
 74
0
 75
0
 76
0
 77
1
 78
12
 79
3
170
0
171
3
172
1
173
0
174
0
175
0
176
0
177
0
178
0
179
2
271
2
272
2
273
2
274
3
275
0
276
0
277
2
278
46
279
2
280
0
281
0
282
0
283
0
284
8
285
0
286
0
288
1
289
3
290
0
340
4C
371
-2
372
-2
  0
DIMSTYLE
105
81
330
4
100
AcDbSymbolTableRecord
100
AcDbDimStyleTableRecord
  2
EZ_M_5_H25_CM
 70
0
 40
1.0
 41
0.0125
 42
0.00625
 43
3.75
 44
0.018750000000000003
 45
0.0
 46
0.0
 47
0.0
 48
0.0
 49
2.5
140
0.0125
141
2.5
142
0.00625
143
0.03937007874
144
100.0
145
0.0
146
0.5
147
0.005000000000000001
148
0.0
 69
0
 70
0
 71
0
 72
0
 73
0
 74
0
 75
0
 76
0
 77
1
 78
12
 79
3
170
0
171
3
172
1
173
0
174
0
175
0
176
0
177
0
178
0
179
2
271
2
272
2
273
2
274
3
275
0
276
0
277
2
278
46
279
2
280
0
281
0
282
0
283
0
284
8
285
0
286
0
288
1
289
3
290
0
340
4C
371
-2
372
-2
  0
DIMSTYLE
105
82
330
4
100
AcDbSymbolTableRecord
100
AcDbDimStyleTableRecord
  2
EZ_M_1_H25_CM
 70
0
 40
1.0
 41
0.0025
 42
0.00125
 43
3.75
 44
0.00375
 45
0.0
 46
0.0
 47
0.0
 48
0.0
 49
2.5
140
0.0025
141
2.5
142
0.00125
143
0.03937007874
144
100.0
145
0.0
146
0.5
147
0.001
148
0.0
 69
0
 70
0
 71
0
 72
0
 73
0
 74
0
 75
0
 76
0
 77
1
 78
12
 79
3
170
0
171
3
172
1
173
0
174
0
175
0
176
0
177
0
178
0
179
2
271
2
272
2
273
2
274
3
275
0
276
0
277
2
278
46
279
2
280
0
281
0
282
0
283
0
284
8
285
0
286
0
288
1
289
3
290
0
340
4C
371
-2
372
-2
  0
DIMSTYLE
105
83
330
4
100
AcDbSymbolTableRecord
100
AcDbDimStyleTableRecord
  2
EZ_RADIUS
 70
0
 40
1.0
 41
0.25
 42
0.125
 43
3.75
 44
0.375
 45
0.0
 46
0.0
 47
0.0
 48
0.0
 49
2.5
140
0.25
141
0.0
142
0.0
143
0.03937007874
144
100.0
145
0.0
146
0.5
147
0.1
148
0.0
 69
0
 70
0
 71
0
 72
0
 73
0
 74
0
 75
0
 76
0
 77
1
 78
12
 79
3
170
0
171
3
172
0
173
0
174
0
175
0
176
0
177
0
178
0
179
2
271
2
272
2
273
2
274
3
275
0
276
0
277
2
278
46
279
1
280
0
281
0
282
0
283
0
284
8
285
0
286
0
288
1
289
3
290
0
340
4C
342
84
371
-2
372
-2
  0
DIMSTYLE
105
88
330
4
100
AcDbSymbolTableRecord
100
AcDbDimStyleTableRecord
  2
EZ_RADIUS_INSIDE
 70
0
 40
1.0
 41
0.25
 42
0.125
 43
3.75
 44
0.375
 45
0.0
 46
0.0
 47
0.0
 48
0.0
 49
2.5
140
0.25
141
0.0
142
0.0
143
0.03937007874
144
100.0
145
0.0
146
0.5
147
0.1
148
0.0
 69
0
 70
0
 71
0
 72
0
 73
0
 74
0
 75
0
 76
0
 77
0
 78
12
 79
3
170
0
171
3
172
0
173
0
174
1
175
0
176
0
177
0
178
0
179
2
271
2
272
2
273
2
274
3
275
0
276
0
277
2
278
46
279
0
280
0
281
0
282
0
283
0
284
8
285
0
286
0
288
1
289
0
290
0
340
4C
342
84
371
-2
372
-2
  0
DIMSTYLE
105
89
330
4
100
AcDbSymbolTableRecord
100
AcDbDimStyleTableRecord
  2
EZ_CURVED
 70
0
 40
1.0
 41
0.25
 42
0.125
 43
3.75
 44
0.375
 45
0.0
 46
0.0
 47
0.0
 48
0.0
 49
2.5
140
0.25
141
2.5
142
0.0
143
0.03937007874
144
100.0
145
0.0
146
0.5
147
0.1
148
0.0
 69
0
 70
0
 71
0
 72
0
 73
0
 74
0
 75
0
 76
0
 77
1
 78
12
 79
2
 90
2
170
0
171
3
172
1
173
0
174
0
175
0
176
0
177
0
178
0
179
2
271
2
272
2
273
2
274
3
275
0
276
0
277
2
278
46
279
2
280
0
281
0
282
0
283
0
284
8
285
0
286
0
288
1
289
3
290
0
340
4C
371
-2
372
-2
  0
ENDTAB
  0
TABLE
  2
BLOCK_RECORD
  5
9
330
0
100
AcDbSymbolTable
 70
5
  0
BLOCK_RECORD
  5
17
330
9
100
AcDbSymbolTableRecord
100
AcDbBlockTableRecord
  2
*Model_Space
340
1A
 70
0
280
1
281
0
  0
BLOCK_RECORD
  5
1B
330
9
100
AcDbSymbolTableRecord
100
AcDbBlockTableRecord
  2
*Paper_Space
340
1E
 70
0
280
1
281
0
  0
BLOCK_RECORD
  5
74
330
9
100
AcDbSymbolTableRecord
100
AcDbBlockTableRecord
  2
_ARCHTICK
340
0
 70
0
280
1
281
0
  0
BLOCK_RECORD
  5
78
330
9
100
AcDbSymbolTableRecord
100
AcDbBlockTableRecord
  2
_CLOSEDFILLED
340
0
 70
0
280
1
281
0
  0
BLOCK_RECORD
  5
84
330
9
100
AcDbSymbolTableRecord
100
AcDbBlockTableRecord
  2
_CLOSEDBLANK
340
0
 70
0
280
1
281
0
  0
ENDTAB
  0
ENDSEC
  0
SECTION
  2
BLOCKS
  0
BLOCK
  5
18
330
17
100
AcDbEntity
  8
0
100
AcDbBlockBegin
  2
*Model_Space
 70
0
 10
0.0
 20
0.0
 30
0.0
  3
*Model_Space
  1

  0
ENDBLK
  5
19
330
17
100
AcDbEntity
  8
0
100
AcDbBlockEnd
  0
BLOCK
  5
1C
330
1B
100
AcDbEntity
  8
0
100
AcDbBlockBegin
  2
*Paper_Space
 70
0
 10
0.0
 20
0.0
 30
0.0
  3
*Paper_Space
  1

  0
ENDBLK
  5
1D
330
1B
100
AcDbEntity
  8
0
100
AcDbBlockEnd
  0
BLOCK
  5
75
330
74
100
AcDbEntity
  8
0
100
AcDbBlockBegin
  2
_ARCHTICK
 70
0
 10
0.0
 20
0.0
 30
0.0
  3
_ARCHTICK
  1

  0
LWPOLYLINE
  5
77
330
74
100
AcDbEntity
  8
0
  6
BYBLOCK
 62
0
100
AcDbPolyline
 90
2
 70
0
 43
0.15
 10
-0.5
 20
-0.5
 10
0.5
 20
0.5
  0
ENDBLK
  5
76
330
74
100
AcDbEntity
  8
0
100
AcDbBlockEnd
  0
BLOCK
  5
79
330
78
100
AcDbEntity
  8
0
100
AcDbBlockBegin
  2
_CLOSEDFILLED
 70
0
 10
0.0
 20
0.0
 30
0.0
  3
_CLOSEDFILLED
  1

  0
SOLID
  5
7B
330
78
100
AcDbEntity
  8
0
  6
BYBLOCK
 62
0
100
AcDbTrace
 10
-1.0
 20
0.16439898372402537
 30
0.0
 11
0.0
 21
0.0
 31
0.0
 12
-1.0
 22
-0.16439898372402537
 32
0.0
 13
-1.0
 23
-0.16439898372402537
 33
0.0
  0
ENDBLK
  5
7A
330
78
100
AcDbEntity
  8
0
100
AcDbBlockEnd
  0
BLOCK
  5
85
330
84
100
AcDbEntity
  8
0
100
AcDbBlockBegin
  2
_CLOSEDBLANK
 70
0
 10
0.0
 20
0.0
 30
0.0
  3
_CLOSEDBLANK
  1

  0
LWPOLYLINE
  5
87
330
84
100
AcDbEntity
  8
0
  6
BYBLOCK
 62
0
100
AcDbPolyline
 90
3
 70
1
 10
-1.0
 20
0.16439898372402537
 10
0.0
 20
0.0
 10
-1.0
 20
-0.16439898372402537
  0
ENDBLK
  5
86
330
84
100
AcDbEntity
  8
0
100
AcDbBlockEnd
  0
ENDSEC
  0
SECTION
  2
ENTITIES
  0
LWPOLYLINE
  5
8D
330
17
100
AcDbEntity
  8
REFERENCE-SHEET
100
AcDbPolyline
 90
4
 70
1
 10
0.0
 20
0.0
 10
2440.0
 20
0.0
 10
2440.0
 20
1220.0
 10
0.0
 20
1220.0
  0
TEXT
  5
8E
330
17
100
AcDbEntity
  8
REFERENCE-SHEET
100
AcDbText
 10
0.0
 20
1275.0
 30
0.0
 40
40.0
  1
SHEET 1/2  -  2440 x 1220 x 18 mm MDF
 11
0.0
 21
1275.0
 31
0.0
100
AcDbText
  0
LWPOLYLINE
  5
8F
330
17
100
AcDbEntity
  8
CUT
100
AcDbPolyline
 90
180
 70
1
 10
958.4000000000001
 20
441.2000000000001
 10
958.312532758463
 20
457.634151776386
 10
957.949341336987
 20
474.08303725823123
 10
957.2194341412996
 20
490.5484810677945
 10
956.0571319831381
 20
507.02330226772847
 10
954.4077923075661
 20
523.4931758907067
 10
952.2237775935464
 20
539.9375769792543
 10
949.4629294126796
 20
556.3304289774801
 10
946.0880562340208
 20
572.6406600120545
 10
942.0669203147959
 20
588.8327617269647
 10
937.3724884668405
 20
604.8674009703423
 10
931.9833137480155
 20
620.7021104551476
 10
925.8839587841364
 20
636.292067892751
 10
919.0653930400005
 20
651.5909597651297
 10
911.5253096176649
 20
666.551914500559
 10
903.2683178813256
 20
681.1284801954633
 10
894.3059789466588
 20
695.2756145468563
 10
884.6566627615358
 20
708.950649850003
 10
874.3452181320262
 20
722.1141942228265
 10
863.4024600124999
 20
734.730931850981
 10
851.864490753534
 20
746.7702898791524
 10
839.7718827599922
 20
758.2069471206519
 10
827.1687582351174
 20
769.0211692253494
 10
814.1018067271104
 20
779.1989653419334
 10
800.6192827777286
 20
788.7320715843206
 10
786.7700242232261
 20
797.617775805267
 10
772.6025270971404
 20
805.8586055486469
 10
758.1641063685104
 20
813.4619061420102
 10
743.500163781855
 20
820.4393385621447
 10
728.6535757082373
 20
826.8063271017991
 10
713.6642059217322
 20
832.5814853483962
 10
698.5685411532379
 20
837.7860460558667
 10
683.3994415015515
 20
842.4433167055536
 10
668.1859934484115
 20
846.5781784597677
 10
652.953450297145
 20
850.2166423121469
 10
637.723243160503
 20
853.3854729768319
 10
622.5130448893805
 20
856.1118888525145
 10
607.3368692173949
 20
858.4233457246489
 10
592.2051874904995
 20
860.347413442484
 10
577.125045152037
 20
861.9117599637436
 10
562.1001589434004
 20
863.1442687923743
 10
547.1309723096626
 20
864.0733409440279
 10
532.2146380957685
 20
864.728490390962
 10
517.3448772468787
 20
865.1414957288049
 10
502.5116059493432
 20
865.3488994921299
 10
487.70000000000005
 20
865.4000000000002
 10
472.8883940506569
 20
865.3488994921299
 10
458.0551227531214
 20
865.1414957288049
 10
443.18536190423157
 20
864.728490390962
 10
428.26902769033745
 20
864.0733409440279
 10
413.29984105659975
 20
863.1442687923743
 10
398.27495484796304
 20
861.9117599637436
 10
383.1948125095006
 20
860.3474134424839
 10
368.0631307826052
 20
858.4233457246489
 10
352.8869551106197
 20
856.1118888525147
 10
337.6767568394972
 20
853.3854729768318
 10
322.4465497028551
 20
850.2166423121469
 10
307.2140065515885
 20
846.5781784597677
 10
292.00055849844864
 20
842.4433167055536
 10
276.83145884676213
 20
837.7860460558667
 10
261.73579407826804
 20
832.5814853483963
 10
246.74642429176285
 20
826.8063271017991
 10
231.89983621814508
 20
820.4393385621447
 10
217.23589363148966
 20
813.4619061420103
 10
202.79747290285962
 20
805.8586055486469
 10
188.62997577677407
 20
797.617775805267
 10
174.78071722227145
 20
788.7320715843206
 10
161.29819327288965
 20
779.1989653419334
 10
148.2312417648826
 20
769.0211692253494
 10
135.628117240008
 20
758.2069471206521
 10
123.53550924646618
 20
746.7702898791524
 10
111.99753998750026
 20
734.730931850981
 10
101.05478186797399
 20
722.1141942228267
 10
90.74333723846428
 20
708.950649850003
 10
81.0940210533413
 20
695.2756145468563
 10
72.13168211867452
 20
681.1284801954633
 10
63.87469038233519
 20
666.551914500559
 10
56.334606959999576
 20
651.5909597651297
 10
49.51604121586371
 20
636.2920678927511
 10
43.416686251984686
 20
620.7021104551477
 10
38.02751153315961
 20
604.8674009703423
 10
33.33307968520421
 20
588.8327617269648
 10
29.311943765979322
 20
572.6406600120545
 10
25.93707058732042
 20
556.3304289774801
 10
23.176222406453576
 20
539.9375769792543
 10
20.992207692433965
 20
523.4931758907065
 10
19.342868016861985
 20
507.02330226772835
 10
18.18056585870056
 20
490.5484810677947
 10
17.450658663013087
 20
474.08303725823134
 10
17.087467241537013
 20
457.63415177638603
 10
17.0
 20
441.20000000000016
 10
17.087467241537013
 20
424.7658482236143
 10
17.450658663013087
 20
408.316962741769
 10
18.180565858700504
 20
391.85151893220564
 10
19.34286801686204
 20
375.37669773227174
 10
20.992207692433965
 20
358.90682410929355
 10
23.176222406453576
 20
342.4624230207457
 10
25.937070587320363
 20
326.06957102252017
 10
29.311943765979322
 20
309.7593399879458
 10
33.33307968520421
 20
293.5672382730355
 10
38.027511533159554
 20
277.53259902965806
 10
43.41668625198463
 20
261.6978895448526
 10
49.51604121586365
 20
246.10793210724924
 10
56.33460695999963
 20
230.80904023487045
 10
63.87469038233519
 20
215.8480854994412
 10
72.13168211867458
 20
201.2715198045368
 10
81.0940210533413
 20
187.1243854531439
 10
90.74333723846416
 20
173.44935014999731
 10
101.05478186797387
 20
160.28580577717366
 10
111.9975399875002
 20
147.66906814901927
 10
123.53550924646612
 20
135.62971012084785
 10
135.62811724000795
 20
124.19305287934827
 10
148.23124176488272
 20
113.3788307746508
 10
161.2981932728897
 20
103.20103465806665
 10
174.7807172222715
 20
93.66792841567957
 10
188.62997577677402
 20
84.7822241947332
 10
202.79747290285968
 20
76.54139445135326
 10
217.23589363148955
 20
68.93809385799
 10
231.89983621814514
 20
61.960661437855435
 10
246.74642429176274
 20
55.593672898201135
 10
261.73579407826765
 20
49.81851465160395
 10
276.8314588467622
 20
44.61395394413353
 10
292.0005584984485
 20
39.956683294446634
 10
307.2140065515886
 20
35.82182154023246
 10
322.44654970285495
 20
32.183357687853345
 10
337.6767568394972
 20
29.014527023168284
 10
352.8869551106196
 20
26.28811114748561
 10
368.0631307826053
 20
23.976654275351223
 10
383.1948125095006
 20
22.052586557516236
 10
398.2749548479629
 20
20.488240036256627
 10
413.2998410565997
 20
19.2557312076259
 10
428.2690276903372
 20
18.326659055972186
 10
443.1853619042317
 20
17.671509609038424
 10
458.0551227531213
 20
17.258504271195307
 10
472.888394050657
 20
17.051100507870274
 10
487.7
 20
17.0
 10
502.51160594934333
 20
17.051100507870274
 10
517.3448772468787
 20
17.258504271195307
 10
532.2146380957682
 20
17.671509609038424
 10
547.1309723096626
 20
18.326659055972243
 10
562.1001589434002
 20
19.255731207625956
 10
577.125045152037
 20
20.488240036256627
 10
592.2051874904994
 20
22.052586557516122
 10
607.3368692173951
 20
23.976654275351223
 10
622.5130448893804
 20
26.28811114748555
 10
637.7232431605031
 20
29.014527023168284
 10
652.953450297145
 20
32.183357687853345
 10
668.1859934484113
 20
35.82182154023246
 10
683.3994415015513
 20
39.95668329444658
 10
698.5685411532377
 20
44.61395394413347
 10
713.6642059217322
 20
49.81851465160395
 10
728.6535757082372
 20
55.59367289820102
 10
743.5001637818552
 20
61.96066143785555
 10
758.1641063685104
 20
68.93809385798994
 10
772.6025270971406
 20
76.54139445135337
 10
786.770024223226
 20
84.78222419473315
 10
800.6192827777284
 20
93.66792841567951
 10
814.1018067271104
 20
103.20103465806665
 10
827.1687582351173
 20
113.37883077465068
 10
839.7718827599922
 20
124.19305287934833
 10
851.8644907535338
 20
135.62971012084768
 10
863.4024600124999
 20
147.66906814901927
 10
874.345218132026
 20
160.28580577717355
 10
884.6566627615359
 20
173.44935014999737
 10
894.3059789466588
 20
187.1243854531438
 10
903.2683178813254
 20
201.27151980453667
 10
911.5253096176649
 20
215.84808549944123
 10
919.0653930400003
 20
230.80904023487028
 10
925.8839587841364
 20
246.10793210724927
 10
931.9833137480155
 20
261.69788954485244
 10
937.3724884668405
 20
277.53259902965806
 10
942.0669203147959
 20
293.5672382730354
 10
946.0880562340208
 20
309.7593399879458
 10
949.4629294126796
 20
326.06957102252
 10
952.2237775935464
 20
342.4624230207455
 10
954.4077923075661
 20
358.9068241092936
 10
956.057131983138
 20
375.37669773227157
 10
957.2194341412996
 20
391.8515189322057
 10
957.949341336987
 20
408.3169627417688
 10
958.312532758463
 20
424.7658482236143
  0
LWPOLYLINE
  5
90
330
17
100
AcDbEntity
  8
CUT
100
AcDbPolyline
 90
180
 70
1
 10
823.883753057697
 20
429.46020465260165
 10
823.7395602931864
 20
417.7018248617984
 10
823.3810791071994
 20
405.91849688728087
 10
822.7457567359731
 20
394.1123896848319
 10
821.7813224863103
 20
382.292449094898
 10
820.4419735782827
 20
370.4735101729028
 10
818.6869321288502
 20
358.67568924512244
 10
816.4799615735506
 20
346.9238630888264
 10
813.7893555346748
 20
335.2471456548893
 10
810.5881765699039
 20
323.6783147320653
 10
806.8546189967701
 20
312.2531638288775
 10
802.5724112972408
 20
301.0097702782009
 10
797.7311940575484
 20
289.987683186147
 10
792.3268219448614
 20
279.22704563485536
 10
786.3615483669425
 20
268.7676746537552
 10
779.8440616219082
 20
258.6481295501597
 10
772.7893524055776
 20
248.90480374134626
 10
765.2184044918356
 20
239.57107683248753
 10
757.1577126690723
 20
230.67656214027696
 10
748.6386437251372
 20
222.2464802903377
 10
739.6966664532943
 20
214.3011823758802
 10
730.3704844328099
 20
206.85583720624066
 10
720.7011101072537
 20
199.92028733708463
 10
710.7309201813538
 20
193.4990688527176
 10
700.502730701904
 20
187.59158117214776
 10
690.058925834584
 20
182.19238617844474
 10
679.440667993536
 20
177.2916111546313
 10
668.6872094414819
 20
172.87542748201872
 10
657.8353175702869
 20
168.92657668290536
 10
646.9188185065852
 20
165.42491682550667
 10
635.9682570042387
 20
162.34796508135645
 10
625.0106651235853
 20
159.6714158073048
 10
614.0694280970479
 20
157.3696173967857
 10
603.1642330108621
 20
155.4159948350196
 10
592.3110843295925
 20
153.78340797978183
 10
581.5223695955686
 20
152.44443767694645
 10
570.8069585248295
 20
151.37159245682295
 10
560.1703188102077
 20
150.53742706875448
 10
549.6146317540314
 20
149.91455923271377
 10
539.1388897076511
 20
149.47555997967805
 10
528.7389540107619
 20
149.19266919350758
 10
518.4075441714472
 20
149.0372332587118
 10
508.1341097511154
 20
148.9786161962764
 10
497.9044831669711
 20
148.981835409371
 10
487.7
 20
149.00000000000006
 10
477.49551683302917
 20
148.981835409371
 10
467.2658902488846
 20
148.9786161962764
 10
456.99245582855275
 20
149.0372332587118
 10
446.6610459892381
 20
149.19266919350758
 10
436.261110292349
 20
149.47555997967794
 10
425.78536824596864
 20
149.91455923271377
 10
415.22968118979225
 20
150.5374270687546
 10
404.5930414751708
 20
151.371592456823
 10
393.8776304044314
 20
152.4444376769465
 10
383.08891567040774
 20
153.78340797978183
 10
372.2357669891379
 20
155.41599483501955
 10
361.33057190295216
 20
157.36961739678577
 10
350.3893348764146
 20
159.67141580730475
 10
339.4317429957613
 20
162.34796508135656
 10
328.4811814934146
 20
165.42491682550667
 10
317.5646824297131
 20
168.92657668290548
 10
306.71279055851835
 20
172.8754274820186
 10
295.959332006464
 20
177.29161115463137
 10
285.3410741654163
 20
182.19238617844462
 10
274.8972692980959
 20
187.59158117214778
 10
264.6690798186462
 20
193.4990688527177
 10
254.69888989274637
 20
199.92028733708463
 10
245.02951556719015
 20
206.85583720624072
 10
235.70333354670578
 20
214.30118237588013
 10
226.7613562748628
 20
222.24648029033781
 10
218.24228733092775
 20
230.67656214027696
 10
210.18159550816443
 20
239.57107683248762
 10
202.61064759442257
 20
248.90480374134626
 10
195.55593837809187
 20
258.64812955015975
 10
189.03845163305743
 20
268.7676746537553
 10
183.07317805513873
 20
279.22704563485536
 10
177.66880594245174
 20
289.98768318614714
 10
172.82758870275927
 20
301.0097702782009
 10
168.54538100322986
 20
312.25316382887763
 10
164.81182343009613
 20
323.6783147320653
 10
161.61064446532532
 20
335.24714565488944
 10
158.92003842644954
 20
346.92386308882635
 10
156.71306787114986
 20
358.67568924512256
 10
154.9580264217173
 20
370.47351017290293
 10
153.61867751368993
 20
382.29244909489796
 10
152.65424326402695
 20
394.112389684832
 10
152.01892089280068
 20
405.91849688728087
 10
151.6604397068137
 20
417.7018248617985
 10
151.51624694230304
 20
429.46020465260165
 10
151.50000000000006
 20
441.20000000000016
 10
151.51624694230304
 20
452.9397953473986
 10
151.6604397068137
 20
464.69817513820175
 10
152.01892089280074
 20
476.4815031127194
 10
152.6542432640269
 20
488.28761031516814
 10
153.61867751368987
 20
500.10755090510213
 10
154.9580264217173
 20
511.9264898270972
 10
156.71306787114992
 20
523.7243107548777
 10
158.92003842644954
 20
535.4761369111739
 10
161.61064446532527
 20
547.1528543451109
 10
164.81182343009618
 20
558.721685267935
 10
168.54538100322992
 20
570.1468361711227
 10
172.82758870275933
 20
581.3902297217994
 10
177.66880594245168
 20
592.4123168138531
 10
183.07317805513873
 20
603.1729543651447
 10
189.03845163305738
 20
613.6323253462449
 10
195.5559383780918
 20
623.7518704498405
 10
202.61064759442263
 20
633.495196258654
 10
210.1815955081645
 20
642.8289231675127
 10
218.24228733092775
 20
651.7234378597234
 10
226.76135627486292
 20
660.1535197096624
 10
235.70333354670584
 20
668.0988176241201
 10
245.02951556719006
 20
675.5441627937594
 10
254.69888989274634
 20
682.4797126629155
 10
264.6690798186462
 20
688.9009311472826
 10
274.897269298096
 20
694.8084188278524
 10
285.3410741654162
 20
700.2076138215555
 10
295.959332006464
 20
705.1083888453688
 10
306.7127905585183
 20
709.5245725179816
 10
317.5646824297132
 20
713.4734233170948
 10
328.48118149341485
 20
716.9750831744935
 10
339.43174299576117
 20
720.0520349186437
 10
350.38933487641464
 20
722.7285841926954
 10
361.3305719029521
 20
725.0303826032144
 10
372.235766989138
 20
726.9840051649805
 10
383.08891567040774
 20
728.6165920202184
 10
393.87763040443144
 20
729.9555623230538
 10
404.59304147517076
 20
731.0284075431771
 10
415.22968118979225
 20
731.8625729312456
 10
425.7853682459688
 20
732.4854407672864
 10
436.261110292349
 20
732.9244400203222
 10
446.6610459892383
 20
733.2073308064926
 10
456.9924558285527
 20
733.3627667412884
 10
467.26589024888466
 20
733.4213838037238
 10
477.4955168330291
 20
733.4181645906292
 10
487.70000000000005
 20
733.4000000000001
 10
497.90448316697103
 20
733.4181645906292
 10
508.1341097511154
 20
733.4213838037238
 10
518.4075441714474
 20
733.3627667412884
 10
528.7389540107619
 20
733.2073308064926
 10
539.1388897076512
 20
732.9244400203222
 10
549.6146317540314
 20
732.4854407672865
 10
560.1703188102078
 20
731.8625729312457
 10
570.8069585248294
 20
731.0284075431771
 10
581.5223695955686
 20
729.9555623230538
 10
592.3110843295924
 20
728.6165920202184
 10
603.1642330108621
 20
726.9840051649805
 10
614.069428097048
 20
725.0303826032144
 10
625.0106651235853
 20
722.7285841926954
 10
635.9682570042389
 20
720.0520349186437
 10
646.9188185065852
 20
716.9750831744935
 10
657.835317570287
 20
713.4734233170948
 10
668.6872094414819
 20
709.5245725179816
 10
679.4406679935361
 20
705.1083888453688
 10
690.0589258345839
 20
700.2076138215555
 10
700.502730701904
 20
694.8084188278524
 10
710.7309201813539
 20
688.9009311472826
 10
720.7011101072537
 20
682.4797126629155
 10
730.3704844328099
 20
675.5441627937594
 10
739.6966664532943
 20
668.0988176241201
 10
748.6386437251373
 20
660.1535197096624
 10
757.1577126690723
 20
651.7234378597234
 10
765.2184044918356
 20
642.8289231675126
 10
772.7893524055775
 20
633.495196258654
 10
779.8440616219083
 20
623.7518704498405
 10
786.3615483669428
 20
613.6323253462449
 10
792.3268219448614
 20
603.1729543651447
 10
797.7311940575484
 20
592.4123168138531
 10
802.5724112972408
 20
581.3902297217993
 10
806.8546189967702
 20
570.1468361711226
 10
810.5881765699039
 20
558.721685267935
 10
813.7893555346748
 20
547.1528543451108
 10
816.4799615735506
 20
535.4761369111739
 10
818.6869321288502
 20
523.7243107548777
 10
820.4419735782827
 20
511.9264898270972
 10
821.7813224863103
 20
500.1075509051022
 10
822.7457567359731
 20
488.28761031516814
 10
823.3810791071994
 20
476.48150311271934
 10
823.7395602931864
 20
464.6981751382017
 10
823.883753057697
 20
452.93979534739856
 10
823.9000000000001
 20
441.2000000000001
  0
LWPOLYLINE
  5
91
330
17
100
AcDbEntity
  8
CUT
100
AcDbPolyline
 90
8
 70
1
 10
855.3930776469966
 20
493.0583320218615
 42
2.414213562373095
 10
859.0542706250299
 20
490.3983196200858
 10
893.2282872096216
 20
495.8109521104778
 42
2.414213562373095
 10
895.8882996113973
 20
499.47214508851096
 10
893.9172253518904
 20
511.9170181800097
 42
2.414213562373095
 10
890.2560323738571
 20
514.5770305817854
 10
856.0820157892654
 20
509.1643980913934
 42
2.414213562373095
 10
853.4220033874897
 20
505.5032051133602
  0
LWPOLYLINE
  5
92
330
17
100
AcDbEntity
  8
CUT
100
AcDbPolyline
 90
8
 70
1
 10
826.9172648876076
 20
606.9691740710325
 42
2.414213562373095
 10
831.2212553641768
 20
605.5707227927963
 10
862.0500811010945
 20
621.2787940837846
 42
2.414213562373095
 10
863.4485323793307
 20
625.582784560354
 10
857.7282520826124
 20
636.8094667651275
 42
2.414213562373095
 10
853.424261606043
 20
638.2079180433636
 10
822.5954358691256
 20
622.4998467523753
 42
2.414213562373095
 10
821.1969845908893
 20
618.195856275806
  0
LWPOLYLINE
  5
93
330
17
100
AcDbEntity
  8
CUT
100
AcDbPolyline
 90
8
 70
1
 10
753.0118118250754
 20
697.6022663821249
 42
2.414213562373095
 10
757.5372952246693
 20
697.6022663821249
 10
782.0031898537238
 20
722.0681610111794
 42
2.414213562373095
 10
782.0031898537238
 20
726.5936444107733
 10
773.0936444107733
 20
735.5031898537238
 42
2.414213562373095
 10
768.5681610111794
 20
735.5031898537238
 10
744.1022663821249
 20
711.0372952246693
 42
2.414213562373095
 10
744.1022663821249
 20
706.5118118250754
  0
LWPOLYLINE
  5
94
330
17
100
AcDbEntity
  8
CUT
100
AcDbPolyline
 90
8
 70
1
 10
650.8568241876467
 20
747.536354828645
 42
2.414213562373095
 10
655.160814664216
 20
748.9348061068813
 10
670.8688859552043
 20
779.7636318437987
 42
2.414213562373095
 10
669.4704346769681
 20
784.0676223203681
 10
658.2437524721946
 20
789.7879026170864
 42
2.414213562373095
 10
653.9397619956253
 20
788.3894513388502
 10
638.231690704637
 20
757.5606256019325
 42
2.414213562373095
 10
639.6301419828732
 20
753.2566351253633
  0
LWPOLYLINE
  5
95
330
17
100
AcDbEntity
  8
CUT
100
AcDbPolyline
 90
8
 70
1
 10
545.2363833517809
 20
764.1979722407821
 42
2.414213562373095
 10
548.897576329814
 20
766.8579846425578
 10
554.3102088202061
 20
801.0320012271495
 42
2.414213562373095
 10
551.6501964184304
 20
804.6931942051826
 10
539.2053233269315
 20
806.6642684646897
 42
2.414213562373095
 10
535.5441303488984
 20
804.0042560629139
 10
530.1314978585065
 20
769.8302394783221
 42
2.414213562373095
 10
532.7915102602822
 20
766.1690465002889
  0
LWPOLYLINE
  5
96
330
17
100
AcDbEntity
  8
CUT
100
AcDbPolyline
 90
8
 70
1
 10
442.60848973971804
 20
766.1690465002889
 42
2.414213562373095
 10
445.26850214149374
 20
769.8302394783221
 10
439.8558696511017
 20
804.0042560629139
 42
2.414213562373095
 10
436.19467667306856
 20
806.6642684646897
 10
423.74980358156984
 20
804.6931942051826
 42
2.414213562373095
 10
421.08979117979413
 20
801.0320012271495
 10
426.5024236701861
 20
766.8579846425578
 42
2.414213562373095
 10
430.1636166482193
 20
764.1979722407821
  0
LWPOLYLINE
  5
97
330
17
100
AcDbEntity
  8
CUT
100
AcDbPolyline
 90
8
 70
1
 10
335.7698580171269
 20
753.2566351253633
 42
2.414213562373095
 10
337.1683092953631
 20
757.5606256019325
 10
321.4602380043748
 20
788.3894513388502
 42
2.414213562373095
 10
317.1562475278055
 20
789.7879026170864
 10
305.9295653230321
 20
784.0676223203681
 42
2.414213562373095
 10
304.5311140447958
 20
779.7636318437987
 10
320.2391853357841
 20
748.9348061068813
 42
2.414213562373095
 10
324.5431758123534
 20
747.536354828645
  0
LWPOLYLINE
  5
98
330
17
100
AcDbEntity
  8
CUT
100
AcDbPolyline
 90
8
 70
1
 10
231.29773361787528
 20
706.5118118250755
 42
2.414213562373095
 10
231.29773361787528
 20
711.0372952246694
 10
206.83183898882072
 20
735.5031898537238
 42
2.414213562373095
 10
202.30635558922683
 20
735.5031898537238
 10
193.39681014627632
 20
726.5936444107733
 42
2.414213562373095
 10
193.39681014627632
 20
722.0681610111794
 10
217.86270477533088
 20
697.602266382125
 42
2.414213562373095
 10
222.38818817492478
 20
697.602266382125
  0
LWPOLYLINE
  5
99
330
17
100
AcDbEntity
  8
CUT
100
AcDbPolyline
 90
8
 70
1
 10
154.20301540911083
 20
618.195856275806
 42
2.414213562373095
 10
152.8045641308746
 20
622.4998467523753
 10
121.97573839395704
 20
638.2079180433636
 42
2.414213562373095
 10
117.67174791738779
 20
636.8094667651275
 10
111.95146762066946
 20
625.582784560354
 42
2.414213562373095
 10
113.34991889890568
 20
621.2787940837846
 10
144.17874463582325
 20
605.5707227927963
 42
2.414213562373095
 10
148.4827351123925
 20
606.9691740710325
  0
LWPOLYLINE
  5
9A
330
17
100
AcDbEntity
  8
CUT
100
AcDbPolyline
 90
8
 70
1
 10
121.97799661251037
 20
505.5032051133603
 42
2.414213562373095
 10
119.31798421073461
 20
509.1643980913935
 10
85.14396762614285
 20
514.5770305817855
 42
2.414213562373095
 10
81.48277464810968
 20
511.9170181800098
 10
79.51170038860272
 20
499.472145088511
 42
2.414213562373095
 10
82.17171279037848
 20
495.81095211047784
 10
116.34572937497023
 20
490.3983196200859
 42
2.414213562373095
 10
120.0069223530034
 20
493.0583320218616
  0
LWPOLYLINE
  5
9B
330
17
100
AcDbEntity
  8
CUT
100
AcDbPolyline
 90
8
 70
1
 10
120.00692235300346
 20
389.34166797813873
 42
2.414213562373095
 10
116.34572937497029
 20
392.00168037991443
 10
82.17171279037854
 20
386.5890478895225
 42
2.414213562373095
 10
79.51170038860278
 20
382.9278549114893
 10
81.48277464810974
 20
370.4829818199905
 42
2.414213562373095
 10
85.14396762614291
 20
367.8229694182148
 10
119.31798421073466
 20
373.23560190860684
 42
2.414213562373095
 10
121.97799661251042
 20
376.89679488664
  0
LWPOLYLINE
  5
9C
330
17
100
AcDbEntity
  8
CUT
100
AcDbPolyline
 90
8
 70
1
 10
148.48273511239245
 20
275.4308259289677
 42
2.414213562373095
 10
144.1787446358232
 20
276.82927720720386
 10
113.34991889890563
 20
261.12120591621556
 42
2.414213562373095
 10
111.9514676206694
 20
256.81721543964625
 10
117.67174791738773
 20
245.59053323487282
 42
2.414213562373095
 10
121.97573839395699
 20
244.1920819566366
 10
152.80456413087455
 20
259.90015324762487
 42
2.414213562373095
 10
154.20301540911078
 20
264.2041437241942
  0
LWPOLYLINE
  5
9D
330
17
100
AcDbEntity
  8
CUT
100
AcDbPolyline
 90
8
 70
1
 10
222.38818817492472
 20
184.7977336178754
 42
2.414213562373095
 10
217.86270477533083
 20
184.7977336178754
 10
193.39681014627627
 20
160.33183898882083
 42
2.414213562373095
 10
193.39681014627627
 20
155.80635558922694
 10
202.30635558922677
 20
146.89681014627644
 42
2.414213562373095
 10
206.83183898882066
 20
146.89681014627644
 10
231.29773361787522
 20
171.362704775331
 42
2.414213562373095
 10
231.29773361787522
 20
175.8881881749249
  0
LWPOLYLINE
  5
9E
330
17
100
AcDbEntity
  8
CUT
100
AcDbPolyline
 90
8
 70
1
 10
324.5431758123534
 20
134.8636451713552
 42
2.414213562373095
 10
320.23918533578404
 20
133.46519389311896
 10
304.53111404479574
 20
102.6363681562014
 42
2.414213562373095
 10
305.92956532303197
 20
98.33237767963215
 10
317.15624752780536
 20
92.61209738291382
 42
2.414213562373095
 10
321.46023800437473
 20
94.01054866115004
 10
337.16830929536303
 20
124.8393743980676
 42
2.414213562373095
 10
335.7698580171268
 20
129.14336487463686
  0
LWPOLYLINE
  5
9F
330
17
100
AcDbEntity
  8
CUT
100
AcDbPolyline
 90
8
 70
1
 10
430.1636166482192
 20
118.20202775921814
 42
2.414213562373095
 10
426.50242367018603
 20
115.54201535744238
 10
421.089791179794
 20
81.36799877285063
 42
2.414213562373095
 10
423.7498035815697
 20
77.70680579481746
 10
436.19467667306844
 20
75.73573153531049
 42
2.414213562373095
 10
439.85586965110167
 20
78.39574393708625
 10
445.2685021414936
 20
112.569760521678
 42
2.414213562373095
 10
442.6084897397179
 20
116.23095349971118
  0
LWPOLYLINE
  5
A0
330
17
100
AcDbEntity
  8
CUT
100
AcDbPolyline
 90
8
 70
1
 10
532.791510260282
 20
116.23095349971123
 42
2.414213562373095
 10
530.1314978585063
 20
112.56976052167806
 10
535.5441303488983
 20
78.39574393708631
 42
2.414213562373095
 10
539.2053233269314
 20
75.73573153531055
 10
551.6501964184303
 20
77.70680579481751
 42
2.414213562373095
 10
554.310208820206
 20
81.36799877285068
 10
548.8975763298139
 20
115.54201535744244
 42
2.414213562373095
 10
545.2363833517808
 20
118.2020277592182
  0
LWPOLYLINE
  5
A1
330
17
100
AcDbEntity
  8
CUT
100
AcDbPolyline
 90
8
 70
1
 10
639.6301419828732
 20
129.14336487463686
 42
2.414213562373095
 10
638.2316907046369
 20
124.8393743980676
 10
653.9397619956252
 20
94.01054866115004
 42
2.414213562373095
 10
658.2437524721945
 20
92.61209738291382
 10
669.470434676968
 20
98.33237767963215
 42
2.414213562373095
 10
670.8688859552042
 20
102.6363681562014
 10
655.1608146642159
 20
133.46519389311896
 42
2.414213562373095
 10
650.8568241876466
 20
134.8636451713552
  0
LWPOLYLINE
  5
A2
330
17
100
AcDbEntity
  8
CUT
100
AcDbPolyline
 90
8
 70
1
 10
744.1022663821248
 20
175.88818817492478
 42
2.414213562373095
 10
744.1022663821248
 20
171.36270477533088
 10
768.5681610111793
 20
146.89681014627632
 42
2.414213562373095
 10
773.0936444107732
 20
146.89681014627632
 10
782.0031898537237
 20
155.80635558922683
 42
2.414213562373095
 10
782.0031898537237
 20
160.33183898882072
 10
757.5372952246692
 20
184.79773361787528
 42
2.414213562373095
 10
753.0118118250753
 20
184.79773361787528
  0
LWPOLYLINE
  5
A3
330
17
100
AcDbEntity
  8
CUT
100
AcDbPolyline
 90
8
 70
1
 10
821.1969845908893
 20
264.2041437241941
 42
2.414213562373095
 10
822.5954358691255
 20
259.90015324762476
 10
853.424261606043
 20
244.19208195663649
 42
2.414213562373095
 10
857.7282520826122
 20
245.59053323487268
 10
863.4485323793306
 20
256.81721543964613
 42
2.414213562373095
 10
862.0500811010944
 20
261.12120591621544
 10
831.2212553641768
 20
276.82927720720375
 42
2.414213562373095
 10
826.9172648876076
 20
275.4308259289676
  0
LWPOLYLINE
  5
A4
330
17
100
AcDbEntity
  8
CUT
100
AcDbPolyline
 90
8
 70
1
 10
853.4220033874897
 20
376.8967948866399
 42
2.414213562373095
 10
856.0820157892654
 20
373.23560190860667
 10
890.2560323738571
 20
367.8229694182147
 42
2.414213562373095
 10
893.9172253518904
 20
370.4829818199904
 10
895.8882996113973
 20
382.92785491148913
 42
2.414213562373095
 10
893.2282872096216
 20
386.5890478895223
 10
859.0542706250299
 20
392.0016803799143
 42
2.414213562373095
 10
855.3930776469966
 20
389.3416679781386
  0
LWPOLYLINE
  5
A5
330
17
100
AcDbEntity
  8
CUT
100
AcDbPolyline
 90
8
 70
1
 10
719.2696472971311
 20
111.7535239451069
 42
2.414213562373095
 10
718.5617057224672
 20
107.28375675577115
 10
738.8990754517868
 20
79.29176875039798
 42
2.414213562373095
 10
743.3688426411225
 20
78.58382717573403
 10
753.5624567702469
 20
85.98992135461918
 42
2.414213562373095
 10
754.2703983449107
 20
90.45968854395494
 10
733.9330286155912
 20
118.45167654932811
 42
2.414213562373095
 10
729.4632614262554
 20
119.15961812399206
  0
LWPOLYLINE
  5
A6
330
17
100
AcDbEntity
  8
CUT
100
AcDbPolyline
 90
8
 70
1
 10
824.123693866024
 20
188.98665071942864
 42
2.414213562373095
 10
824.831635440688
 20
184.5168835300929
 10
852.8236234460612
 20
164.17951380077335
 42
2.414213562373095
 10
857.2933906353969
 20
164.8874553754373
 10
864.6994848142822
 20
175.08106950456158
 42
2.414213562373095
 10
863.9915432396182
 20
179.55083669389734
 10
835.999555234245
 20
199.8882064232169
 42
2.414213562373095
 10
831.5297880449093
 20
199.18026484855298
  0
LWPOLYLINE
  5
A7
330
17
100
AcDbEntity
  8
CUT
100
AcDbPolyline
 90
8
 70
1
 10
885.4343635632624
 20
305.34405939693545
 42
2.414213562373095
 10
887.4888900334071
 20
301.31182416279114
 10
920.3954454972194
 20
290.61983615741804
 42
2.414213562373095
 10
924.4276807313637
 20
292.6743626275627
 10
928.321294860488
 20
304.65767473288156
 42
2.414213562373095
 10
926.2667683903434
 20
308.68990996702587
 10
893.3602129265311
 20
319.3818979723991
 42
2.414213562373095
 10
889.3279776923868
 20
317.32737150225444
  0
LWPOLYLINE
  5
A8
330
17
100
AcDbEntity
  8
CUT
100
AcDbPolyline
 90
8
 70
1
 10
900.9000000000001
 20
434.9000000000001
 42
2.414213562373095
 10
904.1000000000001
 20
431.7000000000001
 10
938.7
 20
431.7000000000001
 42
2.414213562373095
 10
941.9000000000001
 20
434.9000000000001
 10
941.9000000000001
 20
447.5000000000001
 42
2.414213562373095
 10
938.7
 20
450.7000000000001
 10
904.1000000000001
 20
450.7000000000001
 42
2.414213562373095
 10
900.9000000000001
 20
447.5000000000001
  0
LWPOLYLINE
  5
A9
330
17
100
AcDbEntity
  8
CUT
100
AcDbPolyline
 90
8
 70
1
 10
889.3279776923868
 20
565.0726284977458
 42
2.414213562373095
 10
893.3602129265311
 20
563.0181020276011
 10
926.2667683903434
 20
573.7100900329743
 42
2.414213562373095
 10
928.321294860488
 20
577.7423252671186
 10
924.4276807313637
 20
589.7256373724375
 42
2.414213562373095
 10
920.3954454972194
 20
591.7801638425822
 10
887.4888900334071
 20
581.0881758372091
 42
2.414213562373095
 10
885.4343635632624
 20
577.0559406030648
  0
LWPOLYLINE
  5
AA
330
17
100
AcDbEntity
  8
CUT
100
AcDbPolyline
 90
8
 70
1
 10
831.5297880449093
 20
683.2197351514473
 42
2.414213562373095
 10
835.999555234245
 20
682.5117935767832
 10
863.9915432396182
 20
702.8491633061028
 42
2.414213562373095
 10
864.6994848142822
 20
707.3189304954386
 10
857.2933906353969
 20
717.5125446245629
 42
2.414213562373095
 10
852.8236234460612
 20
718.2204861992268
 10
824.831635440688
 20
697.8831164699072
 42
2.414213562373095
 10
824.123693866024
 20
693.4133492805715
  0
LWPOLYLINE
  5
AB
330
17
100
AcDbEntity
  8
CUT
100
AcDbPolyline
 90
8
 70
1
 10
729.4632614262554
 20
763.2403818760081
 42
2.414213562373095
 10
733.9330286155912
 20
763.9483234506721
 10
754.2703983449107
 20
791.9403114560453
 42
2.414213562373095
 10
753.5624567702469
 20
796.410078645381
 10
743.3688426411225
 20
803.8161728242662
 42
2.414213562373095
 10
738.8990754517868
 20
803.1082312496022
 10
718.5617057224672
 20
775.116243244229
 42
2.414213562373095
 10
719.2696472971311
 20
770.6464760548934
  0
LWPOLYLINE
  5
AC
330
17
100
AcDbEntity
  8
CUT
100
AcDbPolyline
 90
8
 70
1
 10
610.7362237654804
 20
799.4793321009811
 42
2.414213562373095
 10
614.7684589996247
 20
801.5338585711257
 10
625.460447004998
 20
834.440414034938
 42
2.414213562373095
 10
623.4059205348533
 20
838.4726492690824
 10
611.4226084295344
 20
842.3662633982067
 42
2.414213562373095
 10
607.39037319539
 20
840.311736928062
 10
596.6983851900169
 20
807.4051814642497
 42
2.414213562373095
 10
598.7529116601615
 20
803.3729462301054
  0
LWPOLYLINE
  5
AD
330
17
100
AcDbEntity
  8
CUT
100
AcDbPolyline
 90
8
 70
1
 10
494.00000000000006
 20
807.9000000000002
 42
2.414213562373095
 10
497.20000000000005
 20
811.1000000000001
 10
497.20000000000005
 20
845.7000000000003
 42
2.414213562373095
 10
494.00000000000006
 20
848.9000000000002
 10
481.4000000000001
 20
848.9000000000002
 42
2.414213562373095
 10
478.20000000000005
 20
845.7000000000003
 10
478.20000000000005
 20
811.1000000000001
 42
2.414213562373095
 10
481.4000000000001
 20
807.9000000000002
  0
LWPOLYLINE
  5
AE
330
17
100
AcDbEntity
  8
CUT
100
AcDbPolyline
 90
8
 70
1
 10
376.6470883398386
 20
803.3729462301055
 42
2.414213562373095
 10
378.7016148099833
 20
807.4051814642498
 10
368.0096268046101
 20
840.3117369280621
 42
2.414213562373095
 10
363.9773915704658
 20
842.3662633982067
 10
351.99407946514685
 20
838.4726492690825
 42
2.414213562373095
 10
349.9395529950022
 20
834.4404140349382
 10
360.63154100037536
 20
801.5338585711258
 42
2.414213562373095
 10
364.6637762345197
 20
799.4793321009811
  0
LWPOLYLINE
  5
AF
330
17
100
AcDbEntity
  8
CUT
100
AcDbPolyline
 90
8
 70
1
 10
256.130352702869
 20
770.6464760548934
 42
2.414213562373095
 10
256.83829427753295
 20
775.116243244229
 10
236.5009245482134
 20
803.1082312496023
 42
2.414213562373095
 10
232.03115735887766
 20
803.8161728242662
 10
221.83754322975335
 20
796.4100786453811
 42
2.414213562373095
 10
221.1296016550894
 20
791.9403114560453
 10
241.46697138440896
 20
763.9483234506722
 42
2.414213562373095
 10
245.9367385737447
 20
763.2403818760082
  0
LWPOLYLINE
  5
B0
330
17
100
AcDbEntity
  8
CUT
100
AcDbPolyline
 90
8
 70
1
 10
151.27630613397605
 20
693.4133492805715
 42
2.414213562373095
 10
150.5683645593121
 20
697.8831164699073
 10
122.57637655393893
 20
718.2204861992269
 42
2.414213562373095
 10
118.10660936460317
 20
717.5125446245629
 10
110.70051518571802
 20
707.3189304954387
 42
2.414213562373095
 10
111.40845676038197
 20
702.8491633061029
 10
139.40044476575514
 20
682.5117935767834
 42
2.414213562373095
 10
143.8702119550909
 20
683.2197351514473
  0
LWPOLYLINE
  5
B1
330
17
100
AcDbEntity
  8
CUT
100
AcDbPolyline
 90
8
 70
1
 10
89.96563643673767
 20
577.0559406030648
 42
2.414213562373095
 10
87.91110996659302
 20
581.0881758372091
 10
55.00455450278071
 20
591.7801638425823
 42
2.414213562373095
 10
50.9723192686364
 20
589.7256373724376
 10
47.07870513951207
 20
577.7423252671186
 42
2.414213562373095
 10
49.13323160965672
 20
573.7100900329743
 10
82.03978707346903
 20
563.0181020276012
 42
2.414213562373095
 10
86.07202230761334
 20
565.0726284977459
  0
TEXT
  5
B2
330
17
100
AcDbEntity
  8
ENGRAVE-LABEL
100
AcDbText
 10
145.42299076799867
 20
191.8983701066515
 30
0.0
 40
11.0
  1
02 SEAT-RING
 72
1
 11
145.42299076799867
 21
191.8983701066515
 31
0.0
100
AcDbText
 73
2
  0
LWPOLYLINE
  5
B3
330
17
100
AcDbEntity
  8
CUT
100
AcDbPolyline
 90
180
 70
1
 10
1779.4
 20
804.2
 10
1779.325881624511
 20
819.2552475341361
 10
1779.0081450678697
 20
834.3250401438936
 10
1778.3606591671853
 20
849.4117071231464
 10
1777.3212232664223
 20
864.5090549063743
 10
1775.83805902247
 20
879.6041277834605
 10
1773.8659956479942
 20
894.6781004547843
 10
1771.3650261250698
 20
909.706890836846
 10
1768.2998226876907
 20
924.6616857137888
 10
1764.6397245827143
 20
939.5094688107308
 10
1760.358975544565
 20
954.2135988838734
 10
1755.437085180615
 20
968.7344625456342
 10
1749.8592297732878
 20
983.0302108140003
 10
1743.616628455969
 20
997.0575757588153
 10
1736.7068432664594
 20
1010.7727528298044
 10
1729.1339617264643
 20
1024.1323253462447
 10
1720.9086307567686
 20
1037.094200551995
 10
1712.0479217983063
 20
1049.618522088375
 10
1702.5750189574555
 20
1061.6685221352975
 10
1692.518734261711
 20
1073.2112780156608
 10
1681.9128658214402
 20
1084.2183426298836
 10
1670.7954248736467
 20
1094.6662252282115
 10
1659.2077654649818
 20
1104.536707987364
 10
1647.1936553008584
 20
1113.8169936950874
 10
1634.7983277854455
 20
1122.499689567635
 10
1622.0675536221254
 20
1130.5826409241554
 10
1609.0467659905214
 20
1138.068635414194
 10
1595.7802669613209
 20
1144.9650033109888
 10
1582.3105352712028
 20
1151.2831419107104
 10
1568.6776476724413
 20
1157.0379924519552
 10
1554.9188185065852
 20
1162.2474965340152
 10
1541.0680554688984
 20
1166.9320562402418
 10
1527.1559240685476
 20
1171.1140185911163
 10
1513.209409189249
 20
1174.8172010792614
 10
1499.2518593853738
 20
1178.0664713488254
 10
1485.302997945531
 20
1180.8873909948795
 10
1471.3789840611887
 20
1183.3059313710933
 10
1457.4925073274442
 20
1185.3482686573175
 10
1443.6528988921762
 20
1187.0406669274653
 10
1429.8662423817184
 20
1188.4094628369978
 10
1416.1354665860094
 20
1189.4811765564818
 10
1402.4603986019679
 20
1190.2827973369417
 10
1388.8377481818743
 20
1190.8423468012743
 10
1375.2609747568072
 20
1191.189968578407
 10
1361.7199353537085
 20
1191.3602931574433
 10
1348.2
 20
1191.4
 10
1334.6800646462914
 20
1191.3602931574433
 10
1321.1390252431927
 20
1191.189968578407
 10
1307.5622518181256
 20
1190.8423468012743
 10
1293.939601398032
 20
1190.2827973369417
 10
1280.2645334139906
 20
1189.4811765564818
 10
1266.5337576182815
 20
1188.4094628369978
 10
1252.7471011078237
 20
1187.0406669274653
 10
1238.9074926725557
 20
1185.3482686573175
 10
1225.0210159388114
 20
1183.3059313710933
 10
1211.0970020544692
 20
1180.8873909948795
 10
1197.1481406146263
 20
1178.0664713488254
 10
1183.190590810751
 20
1174.8172010792614
 10
1169.2440759314522
 20
1171.1140185911163
 10
1155.3319445311015
 20
1166.9320562402418
 10
1141.4811814934149
 20
1162.2474965340152
 10
1127.7223523275586
 20
1157.0379924519552
 10
1114.0894647287973
 20
1151.2831419107104
 10
1100.619733038679
 20
1144.9650033109888
 10
1087.3532340094785
 20
1138.068635414194
 10
1074.3324463778747
 20
1130.5826409241554
 10
1061.6016722145546
 20
1122.499689567635
 10
1049.2063446991415
 20
1113.8169936950874
 10
1037.192234535018
 20
1104.536707987364
 10
1025.6045751263532
 20
1094.6662252282117
 10
1014.4871341785599
 20
1084.2183426298836
 10
1003.8812657382891
 20
1073.2112780156608
 10
993.8249810425444
 20
1061.6685221352975
 10
984.3520782016936
 20
1049.618522088375
 10
975.4913692432312
 20
1037.094200551995
 10
967.2660382735356
 20
1024.1323253462447
 10
959.6931567335406
 20
1010.7727528298043
 10
952.7833715440308
 20
997.0575757588153
 10
946.5407702267122
 20
983.0302108140004
 10
940.9629148193851
 20
968.7344625456343
 10
936.0410244554348
 20
954.2135988838735
 10
931.7602754172856
 20
939.5094688107308
 10
928.1001773123091
 20
924.6616857137888
 10
925.0349738749302
 20
909.706890836846
 10
922.5340043520057
 20
894.6781004547843
 10
920.5619409775301
 20
879.6041277834605
 10
919.0787767335777
 20
864.5090549063743
 10
918.0393408328148
 20
849.4117071231465
 10
917.3918549321304
 20
834.3250401438936
 10
917.0741183754889
 20
819.2552475341362
 10
917.0
 20
804.2
 10
917.0741183754889
 20
789.144752465864
 10
917.3918549321304
 20
774.0749598561066
 10
918.0393408328147
 20
758.9882928768537
 10
919.0787767335777
 20
743.8909450936258
 10
920.5619409775302
 20
728.7958722165395
 10
922.5340043520057
 20
713.7218995452157
 10
925.0349738749301
 20
698.6931091631541
 10
928.1001773123091
 20
683.7383142862114
 10
931.7602754172857
 20
668.8905311892694
 10
936.0410244554348
 20
654.1864011161267
 10
940.962914819385
 20
639.6655374543659
 10
946.5407702267121
 20
625.3697891859998
 10
952.7833715440308
 20
611.3424242411847
 10
959.6931567335406
 20
597.6272471701957
 10
967.2660382735357
 20
584.2676746537552
 10
975.4913692432312
 20
571.3057994480052
 10
984.3520782016935
 20
558.7814779116253
 10
993.8249810425443
 20
546.7314778647026
 10
1003.8812657382891
 20
535.1887219843393
 10
1014.4871341785599
 20
524.1816573701165
 10
1025.6045751263532
 20
513.7337747717886
 10
1037.1922345350183
 20
503.86329201263595
 10
1049.2063446991415
 20
494.5830063049127
 10
1061.6016722145546
 20
485.9003104323652
 10
1074.3324463778747
 20
477.8173590758448
 10
1087.3532340094787
 20
470.33136458580594
 10
1100.619733038679
 20
463.4349966890113
 10
1114.0894647287973
 20
457.1168580892896
 10
1127.7223523275586
 20
451.3620075480449
 10
1141.4811814934146
 20
446.1525034659849
 10
1155.3319445311015
 20
441.46794375975844
 10
1169.2440759314522
 20
437.28598140888386
 10
1183.190590810751
 20
433.58279892073864
 10
1197.1481406146263
 20
430.33352865117473
 10
1211.0970020544692
 20
427.5126090051205
 10
1225.0210159388112
 20
425.0940686289068
 10
1238.907492672556
 20
423.0517313426827
 10
1252.7471011078237
 20
421.35933307253487
 10
1266.5337576182815
 20
419.9905371630022
 10
1280.2645334139906
 20
418.91882344351814
 10
1293.9396013980318
 20
418.1172026630583
 10
1307.5622518181256
 20
417.5576531987258
 10
1321.1390252431925
 20
417.21003142159304
 10
1334.6800646462916
 20
417.0397068425569
 10
1348.1999999999998
 20
417.0
 10
1361.7199353537087
 20
417.0397068425569
 10
1375.2609747568072
 20
417.21003142159304
 10
1388.8377481818743
 20
417.5576531987258
 10
1402.4603986019679
 20
418.1172026630584
 10
1416.1354665860094
 20
418.9188234435182
 10
1429.8662423817184
 20
419.9905371630022
 10
1443.6528988921762
 20
421.35933307253475
 10
1457.4925073274444
 20
423.0517313426826
 10
1471.3789840611885
 20
425.0940686289068
 10
1485.302997945531
 20
427.5126090051205
 10
1499.2518593853738
 20
430.33352865117473
 10
1513.2094091892486
 20
433.5827989207386
 10
1527.1559240685476
 20
437.28598140888386
 10
1541.0680554688984
 20
441.4679437597583
 10
1554.9188185065852
 20
446.152503465985
 10
1568.6776476724413
 20
451.36200754804486
 10
1582.3105352712028
 20
457.1168580892897
 10
1595.7802669613209
 20
463.43499668901126
 10
1609.0467659905214
 20
470.3313645858061
 10
1622.0675536221252
 20
477.81735907584476
 10
1634.798327785445
 20
485.9003104323651
 10
1647.1936553008584
 20
494.5830063049127
 10
1659.2077654649815
 20
503.86329201263584
 10
1670.7954248736467
 20
513.7337747717886
 10
1681.91286582144
 20
524.1816573701165
 10
1692.518734261711
 20
535.1887219843393
 10
1702.5750189574555
 20
546.7314778647026
 10
1712.0479217983066
 20
558.7814779116253
 10
1720.9086307567686
 20
571.3057994480051
 10
1729.1339617264641
 20
584.2676746537551
 10
1736.7068432664594
 20
597.6272471701957
 10
1743.616628455969
 20
611.3424242411845
 10
1749.859229773288
 20
625.3697891859999
 10
1755.437085180615
 20
639.6655374543658
 10
1760.358975544565
 20
654.1864011161267
 10
1764.6397245827143
 20
668.8905311892693
 10
1768.2998226876907
 20
683.7383142862114
 10
1771.3650261250698
 20
698.693109163154
 10
1773.8659956479942
 20
713.7218995452156
 10
1775.83805902247
 20
728.7958722165396
 10
1777.3212232664223
 20
743.8909450936255
 10
1778.3606591671853
 20
758.9882928768537
 10
1779.0081450678697
 20
774.0749598561065
 10
1779.325881624511
 20
789.144752465864
  0
LWPOLYLINE
  5
B4
330
17
100
AcDbEntity
  8
CUT
100
AcDbPolyline
 90
180
 70
1
 10
1669.3928906524106
 20
792.9836971031391
 10
1669.276099539289
 20
781.7481719679602
 10
1668.9632506766752
 20
770.4864238362957
 10
1668.3917357048495
 20
759.1999861992329
 10
1667.509206191127
 20
747.8971717599019
 10
1666.2697595672755
 20
736.5921855351692
 10
1664.6324962347103
 20
725.3045176791175
 10
1662.5610361344757
 20
714.0584234260814
 10
1660.0235077902473
 20
702.8824005705135
 10
1656.9927872581152
 20
691.8086168819502
 10
1653.4468611782684
 20
680.8722627301161
 10
1649.3692294326017
 20
670.1108199243379
 10
1644.7492833630608
 20
659.5632503879831
 10
1639.5826080519773
 20
649.2691190766436
 10
1633.871167310176
 20
639.2676746537552
 10
1627.6233401795616
 20
629.5969185136577
 10
1620.8537888172518
 20
620.2926972934074
 10
1613.5831495762113
 20
611.3878556168746
 10
1605.8375513649714
 20
602.9114842701617
 10
1597.6479770783526
 20
594.8882944356358
 10
1589.0494940711333
 20
587.338141471263
 10
1580.08038742773
 20
580.2757127631255
 10
1570.7812345503687
 20
573.7103843421644
 10
1561.1939610859708
 20
567.6462412348785
 10
1551.3609165566058
 20
562.0822478189324
 10
1541.324003704699
 20
557.0125474825455
 10
1531.1238892091487
 20
552.4268660702555
 10
1520.7993158894205
 20
548.3109910703442
 10
1510.3865286067887
 20
544.6472981252517
 10
1499.9188185065852
 20
541.4152978822732
 10
1489.4261835624502
 20
538.5921789742404
 10
1478.9350979217493
 20
536.1533265017922
 10
1468.4683784509107
 20
534.0727992614247
 10
1458.0451341096232
 20
532.3237526535213
 10
1447.6807821797074
 20
530.8787972915704
 10
1437.3871146799443
 20
529.7102854213738
 10
1427.1723981875743
 20
528.7905178958977
 10
1417.0414903762128
 20
528.0918629628943
 10
1406.9959563917648
 20
527.5867732437208
 10
1397.034167042647
 20
527.2476762748611
 10
1387.1513574963608
 20
527.0466902246311
 10
1377.3396172224325
 20
526.9550616892359
 10
1367.5877626449535
 20
526.9420769501737
 10
1357.8809907164336
 20
526.9726978146574
 10
1348.1999999999998
 20
527.0
 10
1338.5190092835667
 20
526.9726978146574
 10
1328.8122373550464
 20
526.9420769501737
 10
1319.0603827775676
 20
526.9550616892359
 10
1309.248642503639
 20
527.046690224631
 10
1299.3658329573527
 20
527.2476762748611
 10
1289.404043608235
 20
527.5867732437208
 10
1279.358509623787
 20
528.0918629628945
 10
1269.2276018124257
 20
528.7905178958977
 10
1259.0128853200556
 20
529.7102854213738
 10
1248.7192178202927
 20
530.8787972915704
 10
1238.3548658903765
 20
532.3237526535213
 10
1227.931621549089
 20
534.0727992614247
 10
1217.4649020782508
 20
536.1533265017922
 10
1206.9738164375494
 20
538.5921789742404
 10
1196.4811814934146
 20
541.4152978822732
 10
1186.0134713932111
 20
544.6472981252518
 10
1175.6006841105796
 20
548.3109910703442
 10
1165.276110790851
 20
552.4268660702555
 10
1155.0759962953011
 20
557.0125474825454
 10
1145.039083443394
 20
562.0822478189324
 10
1135.206038914029
 20
567.6462412348785
 10
1125.6187654496312
 20
573.7103843421644
 10
1116.3196125722698
 20
580.2757127631256
 10
1107.3505059288666
 20
587.3381414712629
 10
1098.7520229216475
 20
594.8882944356359
 10
1090.5624486350284
 20
602.9114842701617
 10
1082.8168504237885
 20
611.3878556168746
 10
1075.5462111827483
 20
620.2926972934074
 10
1068.7766598204382
 20
629.5969185136578
 10
1062.528832689824
 20
639.2676746537552
 10
1056.8173919480225
 20
649.2691190766436
 10
1051.6507166369393
 20
659.5632503879832
 10
1047.0307705673981
 20
670.1108199243379
 10
1042.9531388217315
 20
680.8722627301163
 10
1039.4072127418847
 20
691.8086168819502
 10
1036.3764922097525
 20
702.8824005705136
 10
1033.8389638655244
 20
714.0584234260813
 10
1031.7675037652898
 20
725.3045176791175
 10
1030.1302404327243
 20
736.5921855351693
 10
1028.890793808873
 20
747.8971717599019
 10
1028.0082642951504
 20
759.199986199233
 10
1027.4367493233249
 20
770.4864238362957
 10
1027.123900460711
 20
781.7481719679604
 10
1027.0071093475894
 20
792.9836971031391
 10
1027.0
 20
804.2
 10
1027.0071093475894
 20
815.416302896861
 10
1027.123900460711
 20
826.6518280320398
 10
1027.4367493233249
 20
837.9135761637045
 10
1028.0082642951504
 20
849.200013800767
 10
1028.890793808873
 20
860.5028282400981
 10
1030.1302404327243
 20
871.8078144648307
 10
1031.7675037652898
 20
883.0954823208826
 10
1033.8389638655244
 20
894.3415765739189
 10
1036.3764922097525
 20
905.5175994294866
 10
1039.4072127418847
 20
916.5913831180499
 10
1042.9531388217317
 20
927.5277372698839
 10
1047.0307705673983
 20
938.2891800756623
 10
1051.6507166369393
 20
948.8367496120168
 10
1056.8173919480225
 20
959.1308809233564
 10
1062.528832689824
 20
969.1323253462448
 10
1068.7766598204382
 20
978.8030814863424
 10
1075.5462111827483
 20
988.1073027065928
 10
1082.8168504237888
 20
997.0121443831255
 10
1090.5624486350284
 20
1005.4885157298384
 10
1098.7520229216475
 20
1013.5117055643643
 10
1107.3505059288666
 20
1021.0618585287373
 10
1116.3196125722698
 20
1028.1242872368744
 10
1125.6187654496312
 20
1034.6896156578357
 10
1135.206038914029
 20
1040.7537587651216
 10
1145.039083443394
 20
1046.3177521810676
 10
1155.075996295301
 20
1051.3874525174547
 10
1165.2761107908511
 20
1055.9731339297446
 10
1175.6006841105796
 20
1060.0890089296558
 10
1186.0134713932111
 20
1063.7527018747483
 10
1196.4811814934149
 20
1066.984702117727
 10
1206.9738164375494
 20
1069.8078210257597
 10
1217.4649020782508
 20
1072.2466734982079
 10
1227.931621549089
 20
1074.3272007385754
 10
1238.3548658903767
 20
1076.0762473464788
 10
1248.7192178202927
 20
1077.5212027084297
 10
1259.0128853200556
 20
1078.6897145786263
 10
1269.2276018124257
 20
1079.6094821041024
 10
1279.358509623787
 20
1080.3081370371056
 10
1289.404043608235
 20
1080.8132267562792
 10
1299.3658329573527
 20
1081.152323725139
 10
1309.248642503639
 20
1081.3533097753689
 10
1319.0603827775674
 20
1081.4449383107644
 10
1328.8122373550464
 20
1081.4579230498264
 10
1338.5190092835664
 20
1081.4273021853428
 10
1348.2
 20
1081.4
 10
1357.8809907164334
 20
1081.4273021853428
 10
1367.5877626449535
 20
1081.4579230498264
 10
1377.3396172224325
 20
1081.4449383107644
 10
1387.1513574963608
 20
1081.3533097753689
 10
1397.0341670426471
 20
1081.152323725139
 10
1406.995956391765
 20
1080.8132267562792
 10
1417.0414903762128
 20
1080.3081370371056
 10
1427.1723981875743
 20
1079.6094821041024
 10
1437.3871146799443
 20
1078.6897145786263
 10
1447.6807821797074
 20
1077.5212027084297
 10
1458.0451341096232
 20
1076.0762473464788
 10
1468.468378450911
 20
1074.3272007385754
 10
1478.9350979217493
 20
1072.2466734982079
 10
1489.4261835624504
 20
1069.8078210257597
 10
1499.9188185065852
 20
1066.984702117727
 10
1510.386528606789
 20
1063.7527018747483
 10
1520.7993158894205
 20
1060.0890089296558
 10
1531.1238892091487
 20
1055.9731339297446
 10
1541.324003704699
 20
1051.3874525174547
 10
1551.3609165566058
 20
1046.3177521810676
 10
1561.193961085971
 20
1040.7537587651216
 10
1570.7812345503687
 20
1034.6896156578357
 10
1580.08038742773
 20
1028.1242872368744
 10
1589.0494940711333
 20
1021.0618585287372
 10
1597.6479770783526
 20
1013.5117055643642
 10
1605.8375513649714
 20
1005.4885157298384
 10
1613.5831495762113
 20
997.0121443831255
 10
1620.8537888172518
 20
988.1073027065928
 10
1627.6233401795619
 20
978.8030814863424
 10
1633.8711673101761
 20
969.1323253462448
 10
1639.5826080519773
 20
959.1308809233564
 10
1644.7492833630608
 20
948.8367496120168
 10
1649.3692294326017
 20
938.2891800756622
 10
1653.4468611782684
 20
927.5277372698838
 10
1656.9927872581152
 20
916.5913831180499
 10
1660.0235077902475
 20
905.5175994294866
 10
1662.5610361344757
 20
894.3415765739188
 10
1664.6324962347103
 20
883.0954823208826
 10
1666.2697595672755
 20
871.8078144648307
 10
1667.509206191127
 20
860.5028282400981
 10
1668.3917357048495
 20
849.2000138007671
 10
1668.9632506766752
 20
837.9135761637044
 10
1669.276099539289
 20
826.6518280320397
 10
1669.3928906524106
 20
815.416302896861
 10
1669.4
 20
804.2
  0
LWPOLYLINE
  5
B5
330
17
100
AcDbEntity
  8
CUT
100
AcDbPolyline
 90
8
 70
1
 10
1715.8930776469965
 20
856.0583320218614
 42
2.414213562373095
 10
1719.5542706250299
 20
853.3983196200857
 10
1753.7282872096216
 20
858.8109521104777
 42
2.414213562373095
 10
1756.3882996113973
 20
862.4721450885108
 10
1754.4172253518902
 20
874.9170181800097
 42
2.414213562373095
 10
1750.7560323738571
 20
877.5770305817853
 10
1716.5820157892654
 20
872.1643980913934
 42
2.414213562373095
 10
1713.9220033874897
 20
868.5032051133602
  0
LWPOLYLINE
  5
B6
330
17
100
AcDbEntity
  8
CUT
100
AcDbPolyline
 90
8
 70
1
 10
1687.4172648876076
 20
969.9691740710325
 42
2.414213562373095
 10
1691.7212553641768
 20
968.5707227927962
 10
1722.5500811010943
 20
984.2787940837845
 42
2.414213562373095
 10
1723.9485323793306
 20
988.582784560354
 10
1718.2282520826122
 20
999.8094667651274
 42
2.414213562373095
 10
1713.924261606043
 20
1001.2079180433636
 10
1683.0954358691256
 20
985.4998467523753
 42
2.414213562373095
 10
1681.6969845908893
 20
981.1958562758059
  0
LWPOLYLINE
  5
B7
330
17
100
AcDbEntity
  8
CUT
100
AcDbPolyline
 90
8
 70
1
 10
1613.5118118250753
 20
1060.6022663821248
 42
2.414213562373095
 10
1618.0372952246692
 20
1060.6022663821248
 10
1642.5031898537238
 20
1085.0681610111794
 42
2.414213562373095
 10
1642.5031898537238
 20
1089.5936444107733
 10
1633.5936444107733
 20
1098.5031898537238
 42
2.414213562373095
 10
1629.0681610111794
 20
1098.5031898537238
 10
1604.6022663821248
 20
1074.0372952246692
 42
2.414213562373095
 10
1604.6022663821248
 20
1069.5118118250753
  0
LWPOLYLINE
  5
B8
330
17
100
AcDbEntity
  8
CUT
100
AcDbPolyline
 90
8
 70
1
 10
1511.3568241876465
 20
1110.536354828645
 42
2.414213562373095
 10
1515.6608146642159
 20
1111.9348061068813
 10
1531.3688859552042
 20
1142.7636318437987
 42
2.414213562373095
 10
1529.9704346769681
 20
1147.067622320368
 10
1518.7437524721945
 20
1152.7879026170863
 42
2.414213562373095
 10
1514.4397619956253
 20
1151.38945133885
 10
1498.731690704637
 20
1120.5606256019325
 42
2.414213562373095
 10
1500.1301419828733
 20
1116.2566351253633
  0
LWPOLYLINE
  5
B9
330
17
100
AcDbEntity
  8
CUT
100
AcDbPolyline
 90
8
 70
1
 10
1405.7363833517807
 20
1127.1979722407818
 42
2.414213562373095
 10
1409.397576329814
 20
1129.8579846425578
 10
1414.8102088202058
 20
1164.0320012271495
 42
2.414213562373095
 10
1412.1501964184304
 20
1167.6931942051826
 10
1399.7053233269316
 20
1169.6642684646895
 42
2.414213562373095
 10
1396.0441303488983
 20
1167.0042560629138
 10
1390.6314978585065
 20
1132.830239478322
 42
2.414213562373095
 10
1393.291510260282
 20
1129.169046500289
  0
LWPOLYLINE
  5
BA
330
17
100
AcDbEntity
  8
CUT
100
AcDbPolyline
 90
8
 70
1
 10
1303.108489739718
 20
1129.169046500289
 42
2.414213562373095
 10
1305.7685021414936
 20
1132.830239478322
 10
1300.3558696511018
 20
1167.0042560629138
 42
2.414213562373095
 10
1296.6946766730684
 20
1169.6642684646895
 10
1284.2498035815697
 20
1167.6931942051826
 42
2.414213562373095
 10
1281.589791179794
 20
1164.0320012271495
 10
1287.002423670186
 20
1129.8579846425578
 42
2.414213562373095
 10
1290.6636166482192
 20
1127.1979722407818
  0
LWPOLYLINE
  5
BB
330
17
100
AcDbEntity
  8
CUT
100
AcDbPolyline
 90
8
 70
1
 10
1196.2698580171268
 20
1116.2566351253633
 42
2.414213562373095
 10
1197.668309295363
 20
1120.5606256019325
 10
1181.9602380043748
 20
1151.38945133885
 42
2.414213562373095
 10
1177.6562475278056
 20
1152.7879026170863
 10
1166.429565323032
 20
1147.067622320368
 42
2.414213562373095
 10
1165.0311140447957
 20
1142.7636318437987
 10
1180.739185335784
 20
1111.9348061068813
 42
2.414213562373095
 10
1185.0431758123534
 20
1110.536354828645
  0
LWPOLYLINE
  5
BC
330
17
100
AcDbEntity
  8
CUT
100
AcDbPolyline
 90
8
 70
1
 10
1091.797733617875
 20
1069.5118118250753
 42
2.414213562373095
 10
1091.797733617875
 20
1074.0372952246694
 10
1067.3318389888207
 20
1098.5031898537238
 42
2.414213562373095
 10
1062.8063555892268
 20
1098.5031898537238
 10
1053.8968101462763
 20
1089.5936444107733
 42
2.414213562373095
 10
1053.8968101462763
 20
1085.0681610111794
 10
1078.3627047753307
 20
1060.602266382125
 42
2.414213562373095
 10
1082.8881881749248
 20
1060.602266382125
  0
LWPOLYLINE
  5
BD
330
17
100
AcDbEntity
  8
CUT
100
AcDbPolyline
 90
8
 70
1
 10
1014.7030154091108
 20
981.1958562758059
 42
2.414213562373095
 10
1013.3045641308745
 20
985.4998467523753
 10
982.475738393957
 20
1001.2079180433636
 42
2.414213562373095
 10
978.1717479173877
 20
999.8094667651274
 10
972.4514676206694
 20
988.582784560354
 42
2.414213562373095
 10
973.8499188989056
 20
984.2787940837846
 10
1004.6787446358233
 20
968.5707227927963
 42
2.414213562373095
 10
1008.9827351123924
 20
969.9691740710325
  0
LWPOLYLINE
  5
BE
330
17
100
AcDbEntity
  8
CUT
100
AcDbPolyline
 90
8
 70
1
 10
982.4779966125103
 20
868.5032051133603
 42
2.414213562373095
 10
979.8179842107345
 20
872.1643980913934
 10
945.6439676261427
 20
877.5770305817854
 42
2.414213562373095
 10
941.9827746481096
 20
874.9170181800097
 10
940.0117003886027
 20
862.472145088511
 42
2.414213562373095
 10
942.6717127903785
 20
858.8109521104777
 10
976.8457293749702
 20
853.3983196200858
 42
2.414213562373095
 10
980.5069223530033
 20
856.0583320218615
  0
LWPOLYLINE
  5
BF
330
17
100
AcDbEntity
  8
CUT
100
AcDbPolyline
 90
8
 70
1
 10
980.5069223530033
 20
752.3416679781387
 42
2.414213562373095
 10
976.8457293749702
 20
755.0016803799144
 10
942.6717127903785
 20
749.5890478895224
 42
2.414213562373095
 10
940.0117003886028
 20
745.9278549114892
 10
941.9827746481096
 20
733.4829818199905
 42
2.414213562373095
 10
945.6439676261429
 20
730.8229694182148
 10
979.8179842107346
 20
736.2356019086068
 42
2.414213562373095
 10
982.4779966125104
 20
739.89679488664
  0
LWPOLYLINE
  5
C0
330
17
100
AcDbEntity
  8
CUT
100
AcDbPolyline
 90
8
 70
1
 10
1008.9827351123924
 20
638.4308259289676
 42
2.414213562373095
 10
1004.6787446358231
 20
639.8292772072039
 10
973.8499188989056
 20
624.1212059162156
 42
2.414213562373095
 10
972.4514676206693
 20
619.8172154396462
 10
978.1717479173876
 20
608.5905332348727
 42
2.414213562373095
 10
982.4757383939569
 20
607.1920819566366
 10
1013.3045641308745
 20
622.9001532476249
 42
2.414213562373095
 10
1014.7030154091108
 20
627.2041437241942
  0
LWPOLYLINE
  5
C1
330
17
100
AcDbEntity
  8
CUT
100
AcDbPolyline
 90
8
 70
1
 10
1082.8881881749246
 20
547.7977336178753
 42
2.414213562373095
 10
1078.3627047753307
 20
547.7977336178753
 10
1053.8968101462763
 20
523.3318389888208
 42
2.414213562373095
 10
1053.8968101462763
 20
518.8063555892269
 10
1062.8063555892268
 20
509.8968101462764
 42
2.414213562373095
 10
1067.3318389888207
 20
509.8968101462764
 10
1091.797733617875
 20
534.3627047753309
 42
2.414213562373095
 10
1091.797733617875
 20
538.8881881749248
  0
LWPOLYLINE
  5
C2
330
17
100
AcDbEntity
  8
CUT
100
AcDbPolyline
 90
8
 70
1
 10
1185.0431758123532
 20
497.86364517135513
 42
2.414213562373095
 10
1180.739185335784
 20
496.4651938931189
 10
1165.0311140447957
 20
465.63636815620134
 42
2.414213562373095
 10
1166.429565323032
 20
461.3323776796321
 10
1177.6562475278054
 20
455.61209738291376
 42
2.414213562373095
 10
1181.9602380043748
 20
457.01054866115
 10
1197.668309295363
 20
487.83937439806755
 42
2.414213562373095
 10
1196.2698580171268
 20
492.1433648746368
  0
LWPOLYLINE
  5
C3
330
17
100
AcDbEntity
  8
CUT
100
AcDbPolyline
 90
8
 70
1
 10
1290.6636166482192
 20
481.2020277592181
 42
2.414213562373095
 10
1287.002423670186
 20
478.5420153574423
 10
1281.589791179794
 20
444.36799877285057
 42
2.414213562373095
 10
1284.2498035815697
 20
440.7068057948174
 10
1296.6946766730684
 20
438.73573153531044
 42
2.414213562373095
 10
1300.3558696511016
 20
441.3957439370862
 10
1305.7685021414936
 20
475.56976052167795
 42
2.414213562373095
 10
1303.108489739718
 20
479.2309534997111
  0
LWPOLYLINE
  5
C4
330
17
100
AcDbEntity
  8
CUT
100
AcDbPolyline
 90
8
 70
1
 10
1393.291510260282
 20
479.2309534997112
 42
2.414213562373095
 10
1390.6314978585062
 20
475.569760521678
 10
1396.0441303488983
 20
441.39574393708625
 42
2.414213562373095
 10
1399.7053233269314
 20
438.7357315353105
 10
1412.1501964184301
 20
440.70680579481746
 42
2.414213562373095
 10
1414.8102088202058
 20
444.3679987728506
 10
1409.397576329814
 20
478.5420153574424
 42
2.414213562373095
 10
1405.7363833517807
 20
481.20202775921814
  0
LWPOLYLINE
  5
C5
330
17
100
AcDbEntity
  8
CUT
100
AcDbPolyline
 90
8
 70
1
 10
1500.130141982873
 20
492.1433648746368
 42
2.414213562373095
 10
1498.731690704637
 20
487.83937439806755
 10
1514.4397619956253
 20
457.01054866115
 42
2.414213562373095
 10
1518.7437524721945
 20
455.61209738291376
 10
1529.970434676968
 20
461.3323776796321
 42
2.414213562373095
 10
1531.3688859552042
 20
465.63636815620134
 10
1515.6608146642159
 20
496.4651938931189
 42
2.414213562373095
 10
1511.3568241876465
 20
497.86364517135513
  0
LWPOLYLINE
  5
C6
330
17
100
AcDbEntity
  8
CUT
100
AcDbPolyline
 90
8
 70
1
 10
1604.6022663821248
 20
538.8881881749247
 42
2.414213562373095
 10
1604.6022663821248
 20
534.3627047753308
 10
1629.0681610111792
 20
509.89681014627627
 42
2.414213562373095
 10
1633.593644410773
 20
509.89681014627627
 10
1642.5031898537236
 20
518.8063555892268
 42
2.414213562373095
 10
1642.5031898537236
 20
523.3318389888207
 10
1618.0372952246692
 20
547.7977336178752
 42
2.414213562373095
 10
1613.5118118250753
 20
547.7977336178752
  0
LWPOLYLINE
  5
C7
330
17
100
AcDbEntity
  8
CUT
100
AcDbPolyline
 90
8
 70
1
 10
1681.6969845908893
 20
627.2041437241941
 42
2.414213562373095
 10
1683.0954358691254
 20
622.9001532476248
 10
1713.924261606043
 20
607.1920819566365
 42
2.414213562373095
 10
1718.2282520826122
 20
608.5905332348726
 10
1723.9485323793306
 20
619.8172154396461
 42
2.414213562373095
 10
1722.5500811010943
 20
624.1212059162154
 10
1691.7212553641768
 20
639.8292772072037
 42
2.414213562373095
 10
1687.4172648876074
 20
638.4308259289676
  0
LWPOLYLINE
  5
C8
330
17
100
AcDbEntity
  8
CUT
100
AcDbPolyline
 90
8
 70
1
 10
1713.9220033874897
 20
739.8967948866398
 42
2.414213562373095
 10
1716.5820157892654
 20
736.2356019086067
 10
1750.7560323738571
 20
730.8229694182146
 42
2.414213562373095
 10
1754.4172253518902
 20
733.4829818199903
 10
1756.3882996113973
 20
745.927854911489
 42
2.414213562373095
 10
1753.7282872096216
 20
749.5890478895222
 10
1719.5542706250299
 20
755.0016803799142
 42
2.414213562373095
 10
1715.8930776469965
 20
752.3416679781385
  0
TEXT
  5
C9
330
17
100
AcDbEntity
  8
ENGRAVE-LABEL
100
AcDbText
 10
1717.8280830591614
 20
923.5156114615353
 30
0.0
 40
11.0
  1
01 BASE-RING
 50
45.0
 72
1
 11
1717.8280830591614
 21
923.5156114615353
 31
0.0
100
AcDbText
 73
2
  0
LWPOLYLINE
  5
CA
330
17
100
AcDbEntity
  8
CUT
100
AcDbPolyline
 90
122
 70
1
 10
1654.3876178429211
 20
413.2968928153643
 10
1642.657867937295
 20
413.98871577696855
 10
1630.9554327798246
 20
414.51712861139544
 10
1619.2778393373003
 20
414.89561370882774
 10
1607.6214223134323
 20
415.1390891484288
 10
1595.9811469928602
 20
415.26517543466355
 10
1584.3502254187033
 20
415.2982003130683
 10
1572.7193038445462
 20
415.26517543466355
 10
1561.079028523974
 20
415.1390891484288
 10
1549.422611500106
 20
414.89561370882774
 10
1537.7450180575815
 20
414.51712861139544
 10
1526.0425829001115
 20
413.98871577696855
 10
1514.3128329944852
 20
413.2968928153643
 10
1502.5543946992939
 20
412.4290097473412
 10
1490.766946450311
 20
411.3729122914878
 10
1478.9511995105693
 20
410.1167386959725
 10
1467.108897257886
 20
408.64879375609416
 10
1455.2428270683354
 20
406.9574725818605
 10
1443.356840641824
 20
405.03121949148584
 10
1431.4558795531339
 20
402.8585137383549
 10
1419.546003305221
 20
400.42787715626895
 10
1407.6344174077794
 20
397.7279006987604
 10
1395.7294991087756
 20
394.7472879256879
 10
1383.8408184328446
 20
391.4749140862358
 10
1371.979152170259
 20
387.8998997358687
 10
1360.1564884450872
 20
384.011697902117
 10
1348.3860194969711
 20
379.8001937371532
 10
1336.682120360292
 20
375.255815400627
 10
1325.0603112375327
 20
370.3696546311425
 10
1313.5372015581097
 20
365.1335951123184
 10
1302.1304140043435
 20
359.5404463425773
 10
1290.8584871827804
 20
353.5840803013922
 10
1279.7407561262091
 20
347.25956779602035
 10
1268.7972104268952
 20
340.56331100173026
 10
1258.0483305137973
 20
333.4931684069366
 10
1247.5149033757548
 20
326.0485681745398
 10
1237.2178198694285
 20
318.230605862343
 10
1227.1778565970087
 20
310.04212253447463
 10
1217.4154461491632
 20
301.4877595608973
 10
1207.9504402337784
 20
292.5739868521104
 10
1198.8018708001134
 20
283.30910190780867
 10
1189.9877146736324
 20
273.7031978549039
 10
1181.5246673991783
 20
263.7680995817442
 10
1173.427931921139
 20
253.51726809884758
 10
1165.711027395742
 20
242.9656743192956
 10
1158.3856228366053
 20
232.12964449509064
 10
1151.4613994616889
 20
221.02668050853146
 10
1144.9459445753423
 20
209.67525904249953
 10
1138.844678633531
 20
198.09461429104448
 10
1133.1608158615804
 20
186.30450928434522
 10
1127.8953574817149
 20
174.32500106733522
 10
1123.0471153168583
 20
162.17620488214158
 10
1118.6127623098164
 20
149.87806216920353
 10
1114.58690535513
 20
137.4501166412623
 10
1110.9621747780043
 20
124.91130192753185
 10
1107.7293237641934
 20
112.27974336412849
 10
1104.8773299420159
 20
99.57257544865884
 10
1102.393489947298
 20
86.80577529534699
 10
1100.2634958104807
 20
73.99401110867771
 10
1098.471478735808
 20
61.15050317580709
 10
1097.0
 20
48.28689300804619
 10
1294.5376681190276
 20
17.0
 10
1295.1224602485988
 20
24.70339807737755
 10
1295.8930159572417
 20
32.41167294512585
 10
1296.8674740268334
 20
40.11670252416589
 10
1298.0624951998295
 20
47.80876642815464
 10
1299.493270737832
 20
55.47667442334398
 10
1301.173478037035
 20
63.107903052542355
 10
1303.1152035735659
 20
70.68874479450807
 10
1305.3288476092569
 20
78.20447226014352
 10
1307.8230218191156
 20
85.63951840912362
 10
1310.604449010235
 20
92.97767245217513
 10
1313.6778727315525
 20
100.2022899226862
 10
1317.0459834712044
 20
107.29651434313509
 10
1320.7093671077355
 20
114.24350699057781
 10
1324.6664802185767
 20
121.02668050853144
 10
1328.913655707424
 20
127.6299315519009
 10
1333.4451409848268
 20
134.03786731629015
 10
1338.2531696455421
 20
140.23602071388103
 10
1343.3280662741677
 20
146.21104912324955
 10
1348.6583827318793
 20
151.95091205315975
 10
1354.2310630915076
 20
157.44502369784118
 10
1360.0316333537846
 20
162.68437718607368
 10
1366.044411244642
 20
167.66163828912568
 10
1372.2527307994665
 20
172.3712073957239
 10
1378.639176106738
 20
176.8092496250335
 10
1385.1858185145056
 20
180.9736939720823
 10
1391.874451785569
 20
184.8642033114578
 10
1398.686820092932
 20
188.4821178817241
 10
1405.6048343361767
 20
191.83037550462615
 10
1412.6107729845246
 20
194.91341224314516
 10
1419.6874644628379
 20
197.73704746758784
 10
1426.818448943076
 20
200.30835738791524
 10
1433.9881182405381
 20
202.6355410420577
 10
1441.1818333034817
 20
204.72778252980856
 10
1448.3860194969711
 20
206.59511298026547
 10
1455.5882404970089
 20
208.24827536972396
 10
1462.7772521181682
 20
209.69859489819515
 10
1469.9430377945037
 20
210.95785721626368
 10
1477.0768277239358
 20
212.03819639716772
 10
1484.1711038807975
 20
212.95199419650305
 10
1491.219593214281
 20
213.7117918568286
 10
1498.217251399888
 20
214.33021551991925
 10
1505.1602395168134
 20
214.8199162324551
 10
1512.0458960091198
 20
215.19352560822188
 10
1518.87270627839
 20
215.4636284982805
 10
1525.6402722817504
 20
215.64275461643717
 10
1532.349284613863
 20
215.74339214472673
 10
1539.0014997977235
 20
215.77802823455028
 10
1545.5997260025315
 20
215.7592246963368
 10
1552.147821344122
 20
215.69974350220645
 10
1558.6507107111124
 20
215.6127495377408
 10
1565.1144306456752
 20
215.51214696220217
 10
1571.5462197725628
 20
215.41318219751406
 10
1577.9546935061207
 20
215.33371043955208
 10
1584.3502254187033
 20
215.29820031306832
 10
1590.7457573312856
 20
215.33371043955208
 10
1597.1542310648435
 20
215.41318219751406
 10
1603.5860201917312
 20
215.51214696220217
 10
1610.049740126294
 20
215.6127495377408
 10
1616.5526294932845
 20
215.69974350220645
 10
1623.1007248348749
 20
215.7592246963368
  0
LWPOLYLINE
  5
CB
330
17
100
AcDbEntity
  8
CUT
100
AcDbPolyline
 90
8
 70
1
 10
1590.6502254187033
 20
239.79820031306832
 42
2.414213562373095
 10
1593.8502254187033
 20
242.9982003130683
 10
1593.8502254187033
 20
387.59820031306833
 42
2.414213562373095
 10
1590.6502254187033
 20
390.7982003130683
 10
1578.0502254187031
 20
390.7982003130683
 42
2.414213562373095
 10
1574.8502254187033
 20
387.59820031306833
 10
1574.8502254187033
 20
242.9982003130683
 42
2.414213562373095
 10
1578.0502254187031
 20
239.79820031306832
  0
LWPOLYLINE
  5
CC
330
17
100
AcDbEntity
  8
CUT
100
AcDbPolyline
 90
8
 70
1
 10
1503.5809792072866
 20
240.06760794624853
 42
2.414213562373095
 10
1505.6355056774312
 20
244.0998431803929
 10
1460.9516482908139
 20
381.62261543667205
 42
2.414213562373095
 10
1456.9194130566696
 20
383.67714190681676
 10
1444.9361009513507
 20
379.7835277776924
 42
2.414213562373095
 10
1442.881574481206
 20
375.75129254354806
 10
1487.5654318678235
 20
238.2285202872689
 42
2.414213562373095
 10
1491.5976671019675
 20
236.1739938171242
  0
LWPOLYLINE
  5
CD
330
17
100
AcDbEntity
  8
CUT
100
AcDbPolyline
 90
8
 70
1
 10
1410.3835328462346
 20
221.26101091921657
 42
2.414213562373095
 10
1411.0914744208985
 20
225.73077810855233
 10
1326.0977269394068
 20
342.7146354951697
 42
2.414213562373095
 10
1321.627959750071
 20
343.42257706983366
 10
1311.4343456209467
 20
336.0164828909485
 42
2.414213562373095
 10
1310.7264040462828
 20
331.54671570161275
 10
1395.7201515277743
 20
214.56285831499537
 42
2.414213562373095
 10
1400.1899187171102
 20
213.85491674033142
  0
LWPOLYLINE
  5
CE
330
17
100
AcDbEntity
  8
CUT
100
AcDbPolyline
 90
8
 70
1
 10
1327.2101970014241
 20
165.70859486897734
 42
2.414213562373095
 10
1326.50225542676
 20
170.17836205831304
 10
1209.5183980401428
 20
255.1721095398047
 42
2.414213562373095
 10
1205.048630850807
 20
254.46416796514075
 10
1197.6425366719218
 20
244.27055383601646
 42
2.414213562373095
 10
1198.3504782465857
 20
239.8007866466807
 10
1315.3343356332032
 20
154.80703916518905
 42
2.414213562373095
 10
1319.8041028225389
 20
155.514980739853
  0
LWPOLYLINE
  5
CF
330
17
100
AcDbEntity
  8
CUT
100
AcDbPolyline
 90
8
 70
1
 10
1279.819400452366
 20
76.67047546738804
 42
2.414213562373095
 10
1277.7648739822212
 20
80.70271070153237
 10
1140.2421017259421
 20
125.38656808814976
 42
2.414213562373095
 10
1136.2098664917976
 20
123.3320416180051
 10
1132.3162523626734
 20
111.34872951268618
 42
2.414213562373095
 10
1134.370778832818
 20
107.31649427854187
 10
1271.8935510890972
 20
62.63263689192445
 42
2.414213562373095
 10
1275.9257863232415
 20
64.68716336206911
  0
TEXT
  5
D0
330
17
100
AcDbEntity
  8
ENGRAVE-LABEL
100
AcDbText
 10
1191.906489100788
 20
170.94761505586243
 30
0.0
 40
11.0
  1
19 BACK-BAND-3
 72
1
 11
1191.906489100788
 21
170.94761505586243
 31
0.0
100
AcDbText
 73
2
  0
LWPOLYLINE
  5
D1
330
17
100
AcDbEntity
  8
CUT
100
AcDbPolyline
 90
122
 70
1
 10
169.0
 20
463.3226550499795
 10
172.08501386982135
 20
453.8607878520124
 10
175.3756819284083
 20
444.4305527178484
 10
178.87699735729194
 20
435.039130353161
 10
182.5937019330538
 20
425.6941779774096
 10
186.5302451047262
 20
416.4038141172534
 10
190.69074124547387
 20
407.1765984002923
 10
195.078925584734
 20
398.0215060089124
 10
199.6981093975386
 20
388.9478965241641
 10
204.55113509691733
 20
379.9654769747337
 10
209.6403319398484
 20
371.0842590059296
 10
214.9674731137859
 20
362.31451019723573
 10
220.53373501586248
 20
353.6666996826117
 10
226.33965956701223
 20
345.1514383628073
 10
232.38512041526542
 20
336.7794141401208
 10
238.66929387352576
 20
328.561322749149
 10
245.1906354050165
 20
320.50779489740853
 10
251.94686241285507
 20
312.6293205619974
 10
258.9349440083898
 20
304.936171407251
 10
266.1510983266262
 20
297.4383223881431
 10
273.59079782806003
 20
290.145373679834
 10
281.24878287748965
 20
283.0664741207232
 10
289.119083726017
 20
276.21024737099117
 10
297.1950508475529
 20
269.584721968451
 10
305.46939340162703
 20
263.19726640749775
 10
313.93422541657316
 20
257.0545302754625
 10
322.5811191178243
 20
251.16239235570754
 10
331.4011646715639
 20
245.52591645175704
 10
340.3850354803114
 20
240.14931550633503
 10
349.5230580593011
 20
235.03592438907958
 10
358.8052854448243
 20
230.18818151325144
 10
368.2215730408204
 20
225.6076192215104
 10
377.7616557993603
 20
221.29486266007575
 10
387.41522565429136
 20
217.24963664487984
 10
397.1720081839968
 20
213.47077981692888
 10
407.0218375666651
 20
209.95626518953713
 10
416.9547290065712
 20
206.70322600752627
 10
426.96094794917144
 20
203.70798566501367
 10
437.0310755628242
 20
200.9660902571767
 10
447.1560701427934
 20
198.47234216012856
 10
457.32732428721
 20
196.22083282173645
 10
467.53671790527426
 20
194.20497267296412
 10
477.77666734896485
 20
192.41751568275356
 10
488.04017121992456
 20
190.85057549453086
 10
498.32085371078796
 20
189.49562915212357
 10
508.61300672782255
 20
188.34350287972057
 10
518.91163256994
 20
187.38433170694697
 10
529.2124897236947
 20
186.60747984970976
 10
539.5121456102266
 20
186.00139922360557
 10
549.8080424117198
 20
185.5533830514642
 10
560.0985867317136
 20
185.24912173971478
 10
570.3832848071727
 20
185.07182003994035
 10
580.6629788735554
 20
185.0
 10
590.9404199720454
 20
185.0
 10
601.2201140384282
 20
185.07182003994035
 10
611.5048121138873
 20
185.24912173971478
 10
621.795356433881
 20
185.5533830514642
 10
632.0912532353743
 20
186.00139922360557
 10
642.3909091219061
 20
186.60747984970976
 10
652.6917662756609
 20
187.38433170694697
 10
662.9903921177784
 20
188.34350287972057
 10
631.7034991097322
 20
385.88117099874813
 10
625.5486517888
 20
385.5338998012357
 10
619.4034790233328
 20
385.28203296978904
 10
613.2695905716714
 20
385.1137921442216
 10
607.1477170083547
 20
385.0162784963558
 10
601.0376208652985
 20
384.97502869062953
 10
594.9379622228025
 20
384.97313211308665
 10
588.8460631487964
 20
384.98903387310247
 10
582.7573356968046
 20
384.98903387310247
 10
576.6654366227984
 20
384.97313211308665
 10
570.5657779803025
 20
384.97502869062953
 10
564.4556818372462
 20
385.0162784963558
 10
558.3338082739294
 20
385.1137921442216
 10
552.1999198222682
 20
385.28203296978904
 10
546.0547470568008
 20
385.5338998012357
 10
539.8998997358688
 20
385.88117099874813
 10
533.7378017747046
 20
386.334750745972
 10
527.5716392957498
 20
386.90481041887523
 10
521.4053156282735
 20
387.60086807050305
 10
515.2434094209905
 20
388.4318286548913
 10
509.0911333077142
 20
389.4059980795501
 10
502.95429135063927
 20
390.53107929551715
 10
496.8392340140415
 20
391.8141559604321
 10
490.7528098087855
 20
393.26166766693075
 10
484.7023130556295
 20
394.8793797983713
 10
478.6954274757252
 20
396.67235048897743
 10
472.7401655476903
 20
398.6448967789278
 10
466.84480378124755
 20
400.80056178167604
 10
461.0178142514406
 20
403.1420844694894
 10
455.2677929152859
 20
405.671373501949
 10
449.6033853927337
 20
408.389486350925
 10
444.0332110331119
 20
411.29661480207795
 10
438.5657862033396
 20
414.3920777303729
 10
433.20944782163815
 20
417.67432185254575
 10
427.9722782171598
 20
421.14093095308033
 10
422.8620324195786
 20
424.7886438645473
 10
417.8860689720532
 20
428.6133812624101
 10
413.0512853160887
 20
432.6102811141618
 10
408.36405871914013
 20
436.77374240921404
 10
403.8301936080849
 20
441.0974765958613
 10
399.4548760380276
 20
445.57456597122814
 10
395.2426358714163
 20
450.19752811507146
 10
391.1973170731202
 20
454.95838533334285
 10
387.32205634938725
 20
459.84873798594424
 10
383.61927017909795
 20
464.85984051708095
 10
380.0906501108353
 20
469.9826789864585
 10
376.7371660349379
 20
475.20804891420215
 10
373.55907699095917
 20
480.52663229933944
 10
370.5559489419544
 20
485.92907274734205
 10
367.7266788407144
 20
491.40604774202586
 10
365.06952423124267
 20
496.9483372158971
 10
362.58213757205544
 20
502.5468877053289
 10
360.26160443576146
 20
508.19287151728724
 10
358.1044847304449
 20
513.8777404774481
 10
356.10685610038627
 20
519.5932739707184
 10
354.264358693811
 20
525.3316211202588
 10
352.5722405304266
 20
531.085337076745
 10
351.02540275808065
 20
536.8474135032352
 10
349.6184441524463
 20
542.6113034408766
 10
348.34570428281984
 20
548.3709408258231
 10
347.20130483767355
 20
554.1207549978889
  0
LWPOLYLINE
  5
D2
330
17
100
AcDbEntity
  8
CUT
100
AcDbPolyline
 90
8
 70
1
 10
335.6388888166522
 20
501.72703572595515
 42
2.414213562373095
 10
331.1691216273164
 20
502.43497730061904
 10
214.18526424069898
 20
417.4412298191274
 42
2.414213562373095
 10
213.47732266603504
 20
412.97146262979163
 10
220.8834168449202
 20
402.77784850066735
 42
2.414213562373095
 10
225.35318403425595
 20
402.0699069260034
 10
342.33704142087333
 20
487.06365440749505
 42
2.414213562373095
 10
343.04498299553734
 20
491.53342159683075
  0
LWPOLYLINE
  5
D3
330
17
100
AcDbEntity
  8
CUT
100
AcDbPolyline
 90
8
 70
1
 10
391.1913048668914
 20
418.55369988114455
 42
2.414213562373095
 10
386.72153767755566
 20
417.8457583064806
 10
301.72779019606406
 20
300.8619009198632
 42
2.414213562373095
 10
302.435731770728
 20
296.39213373052746
 10
312.6293458998523
 20
288.9860395516423
 42
2.414213562373095
 10
317.09911308918805
 20
289.69398112630626
 10
402.09286057067965
 20
406.67783851292364
 42
2.414213562373095
 10
401.38491899601576
 20
411.1476057022594
  0
LWPOLYLINE
  5
D4
330
17
100
AcDbEntity
  8
CUT
100
AcDbPolyline
 90
8
 70
1
 10
480.2294242684807
 20
371.1629033320864
 42
2.414213562373095
 10
476.1971890343364
 20
369.1083768619417
 10
431.513331647719
 20
231.58560460566252
 42
2.414213562373095
 10
433.56785811786364
 20
227.55336937151816
 10
445.55117022318257
 20
223.65975524239383
 42
2.414213562373095
 10
449.5834054573269
 20
225.71428171253854
 10
494.2672628439443
 20
363.2370539688177
 42
2.414213562373095
 10
492.21273637379966
 20
367.26928920296206
  0
LWPOLYLINE
  5
D5
330
17
100
AcDbEntity
  8
CUT
100
AcDbPolyline
 90
8
 70
1
 10
579.5016994228005
 20
360.49372829842366
 42
2.414213562373095
 10
576.3016994228005
 20
357.2937282984237
 10
576.3016994228004
 20
212.69372829842365
 42
2.414213562373095
 10
579.5016994228005
 20
209.49372829842366
 10
592.1016994228005
 20
209.49372829842366
 42
2.414213562373095
 10
595.3016994228004
 20
212.69372829842365
 10
595.3016994228005
 20
357.2937282984237
 42
2.414213562373095
 10
592.1016994228005
 20
360.49372829842366
  0
TEXT
  5
D6
330
17
100
AcDbEntity
  8
ENGRAVE-LABEL
100
AcDbText
 10
386.3090444208187
 20
283.8845331995397
 30
0.0
 40
11.0
  1
17 BACK-BAND-1
 72
1
 11
386.3090444208187
 21
283.8845331995397
 31
0.0
100
AcDbText
 73
2
  0
LWPOLYLINE
  5
D7
330
17
100
AcDbEntity
  8
CUT
100
AcDbPolyline
 90
122
 70
1
 10
1493.5997260025315
 20
576.2868930080461
 10
1492.4475997301283
 20
586.5790460250807
 10
1491.0926533877212
 20
596.8597285159442
 10
1489.5257131994983
 20
607.1232323869039
 10
1487.7382562092878
 20
617.3631818305945
 10
1485.7223960605156
 20
627.5725754486587
 10
1483.4708867221234
 20
637.7438295930754
 10
1480.9771386250752
 20
647.8688241730446
 10
1478.2352432172383
 20
657.9389517866973
 10
1475.2400028747256
 20
667.9451707292976
 10
1471.9869636927149
 20
677.8780621692036
 10
1468.4724490653232
 20
687.7278915518718
 10
1464.6935922373723
 20
697.4846740815774
 10
1460.6483662221763
 20
707.1382439365084
 10
1456.3356096607417
 20
716.6783266950483
 10
1451.7550473690005
 20
726.0946142910444
 10
1446.9073044931724
 20
735.3768416765676
 10
1441.7939133759169
 20
744.5148642555573
 10
1436.417312430495
 20
753.4987350643048
 10
1430.7808365265446
 20
762.3187806180445
 10
1424.8886986067896
 20
770.9656743192957
 10
1418.7459624747544
 20
779.4305063342417
 10
1412.358506913801
 20
787.7048488883158
 10
1405.7329815112607
 20
795.7808160098518
 10
1398.876754761529
 20
803.651116858379
 10
1391.797855202418
 20
811.3091019078088
 10
1384.504906494109
 20
818.7488014092426
 10
1377.0070574750011
 20
825.964955727479
 10
1369.3139083202545
 20
832.9530373230136
 10
1361.4354339848435
 20
839.7092643308522
 10
1353.381906133103
 20
846.230605862343
 10
1345.1638147421313
 20
852.5147793206033
 10
1336.7917905194447
 20
858.5602401688566
 10
1328.2765291996402
 20
864.3661647200063
 10
1319.6287186850163
 20
869.9324266220829
 10
1310.8589698763224
 20
875.2595677960203
 10
1301.9777519075183
 20
880.3487646389515
 10
1292.995332358088
 20
885.2017903383302
 10
1283.9217228733396
 20
889.8209741511348
 10
1274.7666304819597
 20
894.2091584903949
 10
1265.5394147649986
 20
898.3696546311426
 10
1256.2490509048425
 20
902.306197802815
 10
1246.904098529091
 20
906.0229023785769
 10
1237.5126761644037
 20
909.5242178074604
 10
1228.0824410302398
 20
912.8148858660475
 10
1218.6205738322726
 20
915.8998997358688
 10
1209.133768159741
 20
918.784465343773
 10
1199.6282240492155
 20
921.4739653379667
 10
1190.1096452478857
 20
923.9739260148003
 10
1180.5832396908727
 20
926.289987463092
 10
1171.0537226973104
 20
928.427877156269
 10
1161.5253223869088
 20
930.393387200585
 10
1152.0017868200887
 20
932.1923554434029
 10
1142.4863923680557
 20
933.830650663482
 10
1132.9819528214919
 20
935.31416211176
 10
1123.4908287446456
 20
936.6487937560942
 10
1114.0149365713235
 20
937.8404637223323
 10
1104.5557569152609
 20
938.895109642448
 10
1095.114341521702
 20
939.8187009615815
 10
1085.6913182078936
 20
940.6172597960959
 10
1076.2868930080463
 20
941.2968928153643
 10
1045.0
 20
743.7592246963368
 10
1050.274370143977
 20
743.7781382022475
 10
1055.5828734458769
 20
743.7644660372371
 10
1060.9271086359524
 20
743.7117572546986
 10
1066.3082450556074
 20
743.6136077404051
 10
1071.7270197241414
 20
743.4636284982805
 10
1077.1837316136462
 20
743.2554249763714
 10
1082.6782339168383
 20
742.9825849602266
 10
1088.2099249604748
 20
742.6386734414857
 10
1093.7777383378505
 20
742.2172334097398
 10
1099.3801327882504
 20
741.7117918568287
 10
1105.015082327179
 20
741.115870501093
 10
1110.6800671209296
 20
740.4230008780041
 10
1116.3720655971354
 20
739.626743528553
 10
1122.0875482852755
 20
738.7207110633344
 10
1127.8224738843633
 20
737.6985948981952
 10
1133.572288056429
 20
736.5541954530489
 10
1139.3319254413755
 20
735.2814555834225
 10
1145.0958153790168
 20
733.8744969777881
 10
1150.857891805507
 20
732.3276592054422
 10
1156.6116077619934
 20
730.6355410420578
 10
1162.3499549115336
 20
728.7930436354825
 10
1168.0654884048038
 20
726.7954150054239
 10
1173.7503573649647
 20
724.6382953001073
 10
1179.396341176923
 20
722.3177621638133
 10
1184.994891666355
 20
719.8303755046261
 10
1190.537181140226
 20
717.1732208951544
 10
1196.01415613491
 20
714.3439507939144
 10
1201.4165965829125
 20
711.3408227449097
 10
1206.7351799680498
 20
708.1627337009309
 10
1211.9605498957935
 20
704.8092496250335
 10
1217.083388365171
 20
701.2806295567709
 10
1222.094490896308
 20
697.5778433864816
 10
1226.984843548909
 20
693.7025826627487
 10
1231.7457007671806
 20
689.6572638644525
 10
1236.3686629110239
 20
685.4450236978412
 10
1240.8457522863907
 20
681.0697061277838
 10
1245.169486473038
 20
676.5358410167287
 10
1249.3329477680902
 20
671.84861441978
 10
1253.329847619842
 20
667.0138307638156
 10
1257.1545850177047
 20
662.0378673162902
 10
1260.8022979291718
 20
656.927621518709
 10
1264.2689070297063
 20
651.6904519142306
 10
1267.5511511518791
 20
646.3341135325292
 10
1270.646614080174
 20
640.8666887027568
 10
1273.553742531327
 20
635.2965143431351
 10
1276.271855380303
 20
629.6321068205829
 10
1278.8011444127626
 20
623.8820854844282
 10
1281.1426671005759
 20
618.0550959546213
 10
1283.2983321033241
 20
612.1597341881784
 10
1285.2708783932746
 20
606.2044722601436
 10
1287.0638490838808
 20
600.1975866802393
 10
1288.6815612153212
 20
594.1470899270832
 10
1290.12907292182
 20
588.0606657218273
 10
1291.4121495867348
 20
581.9456083852295
 10
1292.537230802702
 20
575.8087664281546
 10
1293.5114002273606
 20
569.6564903148784
 10
1294.342360811749
 20
563.4945841075953
 10
1295.0384184633767
 20
557.3282604401189
 10
1295.60847813628
 20
551.1620979611641
 10
1296.062057883504
 20
545.0
  0
LWPOLYLINE
  5
D8
330
17
100
AcDbEntity
  8
CUT
100
AcDbPolyline
 90
8
 70
1
 10
1314.67393967929
 20
592.6871633620691
 42
2.414213562373095
 10
1318.7061749134343
 20
590.6326368919244
 10
1456.2289471697134
 20
635.3164942785419
 42
2.414213562373095
 10
1458.2834736398581
 20
639.3487295126862
 10
1454.389859510734
 20
651.3320416180051
 42
2.414213562373095
 10
1450.3576242765894
 20
653.3865680881497
 10
1312.8348520203103
 20
608.7027107015324
 42
2.414213562373095
 10
1310.7803255501656
 20
604.6704754673881
  0
LWPOLYLINE
  5
D9
330
17
100
AcDbEntity
  8
CUT
100
AcDbPolyline
 90
8
 70
1
 10
1270.7956231799926
 20
683.514980739853
 42
2.414213562373095
 10
1275.2653903693283
 20
682.807039165189
 10
1392.2492477559458
 20
767.8007866466808
 42
2.414213562373095
 10
1392.9571893306097
 20
772.2705538360165
 10
1385.5510951517244
 20
782.4641679651407
 42
2.414213562373095
 10
1381.0813279623887
 20
783.1721095398048
 10
1264.0974705757715
 20
698.178362058313
 42
2.414213562373095
 10
1263.3895290011076
 20
693.7085948689773
  0
LWPOLYLINE
  5
DA
330
17
100
AcDbEntity
  8
CUT
100
AcDbPolyline
 90
8
 70
1
 10
1190.4098072854213
 20
741.8549167403314
 42
2.414213562373095
 10
1194.879574474757
 20
742.5628583149954
 10
1279.8733219562487
 20
859.5467157016128
 42
2.414213562373095
 10
1279.1653803815848
 20
864.0164828909485
 10
1268.9717662524604
 20
871.4225770698338
 42
2.414213562373095
 10
1264.5019990631247
 20
870.7146354951698
 10
1179.508251581633
 20
753.7307781085524
 42
2.414213562373095
 10
1180.2161931562969
 20
749.2610109192167
  0
LWPOLYLINE
  5
DB
330
17
100
AcDbEntity
  8
CUT
100
AcDbPolyline
 90
8
 70
1
 10
1099.0020589005637
 20
764.1739938171243
 42
2.414213562373095
 10
1103.034294134708
 20
766.2285202872689
 10
1147.7181515213256
 20
903.7512925435481
 42
2.414213562373095
 10
1145.6636250511808
 20
907.7835277776924
 10
1133.680312945862
 20
911.6771419068167
 42
2.414213562373095
 10
1129.6480777117176
 20
909.622615436672
 10
1084.9642203251003
 20
772.0998431803929
 42
2.414213562373095
 10
1087.0187467952449
 20
768.0676079462486
  0
TEXT
  5
DC
330
17
100
AcDbEntity
  8
ENGRAVE-LABEL
100
AcDbText
 10
1398.6356238536807
 20
699.1279409258069
 30
0.0
 40
11.0
  1
18 BACK-BAND-2
 72
1
 11
1398.6356238536807
 21
699.1279409258069
 31
0.0
100
AcDbText
 73
2
  0
LWPOLYLINE
  5
DD
330
17
100
AcDbEntity
  8
CUT
100
AcDbPolyline
 90
17
 70
1
 10
17.0
 20
819.0
 10
121.8
 20
819.0
 42
-2.414213562373095
 10
125.0
 20
815.8
 10
125.0
 20
801.0
 10
165.0
 20
801.0
 10
165.0
 20
815.8
 42
-2.414213562373095
 10
168.2
 20
819.0
 10
187.0
 20
819.0
 10
187.0
 20
949.0
 10
180.2
 20
949.0
 42
-2.414213562373095
 10
177.0
 20
952.2
 10
177.0
 20
1049.0
 10
147.0
 20
1079.0
 10
27.0
 20
1079.0
 10
27.0
 20
952.2
 42
-2.414213562373095
 10
23.8
 20
949.0
 10
17.0
 20
949.0
  0
TEXT
  5
DE
330
17
100
AcDbEntity
  8
ENGRAVE-LABEL
100
AcDbText
 10
102.52734375
 20
903.61328125
 30
0.0
 40
14.0
  1
11 BACK-RIB-D 1/2
 50
45.0
 72
1
 11
102.52734375
 21
903.61328125
 31
0.0
100
AcDbText
 73
2
  0
LWPOLYLINE
  5
DF
330
17
100
AcDbEntity
  8
CUT
100
AcDbPolyline
 90
17
 70
1
 10
363.0
 20
1133.0
 10
258.20000000000005
 20
1133.0
 42
-2.414213562373095
 10
255.00000000000003
 20
1136.2
 10
255.00000000000003
 20
1151.0
 10
215.00000000000003
 20
1151.0
 10
215.00000000000003
 20
1136.2
 42
-2.414213562373095
 10
211.80000000000004
 20
1133.0
 10
193.00000000000003
 20
1133.0
 10
193.0
 20
1003.0
 10
199.8
 20
1003.0
 42
-2.414213562373095
 10
203.0
 20
999.8000000000001
 10
203.0
 20
903.0
 10
233.0
 20
873.0
 10
353.0
 20
873.0
 10
353.0
 20
999.8
 42
-2.414213562373095
 10
356.20000000000005
 20
1003.0
 10
363.0
 20
1003.0
  0
TEXT
  5
E0
330
17
100
AcDbEntity
  8
ENGRAVE-LABEL
100
AcDbText
 10
277.47265625
 20
1048.38671875
 30
0.0
 40
14.0
  1
11 BACK-RIB-D 2/2
 50
45.0
 72
1
 11
277.47265625
 21
1048.38671875
 31
0.0
100
AcDbText
 73
2
  0
LWPOLYLINE
  5
E1
330
17
100
AcDbEntity
  8
CUT
100
AcDbPolyline
 90
17
 70
1
 10
379.0
 20
711.0
 10
379.0
 20
606.2
 42
-2.414213562373095
 10
375.8
 20
603.0
 10
361.0
 20
603.0
 10
361.0
 20
563.0
 10
375.8
 20
563.0
 42
-2.414213562373095
 10
379.0
 20
559.8000000000001
 10
379.0
 20
541.0
 10
509.0
 20
541.0
 10
509.0
 20
547.8
 42
-2.414213562373095
 10
512.2
 20
551.0
 10
609.0
 20
551.0
 10
639.0
 20
581.0
 10
639.0
 20
701.0
 10
512.2
 20
701.0
 42
-2.414213562373095
 10
509.0
 20
704.2
 10
509.0
 20
711.0
  0
TEXT
  5
E2
330
17
100
AcDbEntity
  8
ENGRAVE-LABEL
100
AcDbText
 10
463.61328125
 20
626.52734375
 30
0.0
 40
18.0
  1
12 BACK-RIB-E
 50
30.0
 72
1
 11
463.61328125
 21
626.52734375
 31
0.0
100
AcDbText
 73
2
  0
LWPOLYLINE
  5
E3
330
17
100
AcDbEntity
  8
CUT
100
AcDbPolyline
 90
17
 70
1
 10
387.0
 20
1051.0
 10
387.0
 20
946.2
 42
-2.414213562373095
 10
383.8
 20
943.0
 10
369.0
 20
943.0
 10
369.0
 20
903.0
 10
383.8
 20
903.0
 42
-2.414213562373095
 10
387.0
 20
899.8000000000001
 10
387.0
 20
881.0
 10
517.0
 20
881.0
 10
517.0
 20
887.8
 42
-2.414213562373095
 10
520.2
 20
891.0
 10
617.0
 20
891.0
 10
647.0
 20
921.0
 10
647.0
 20
1041.0
 10
520.2
 20
1041.0
 42
-2.414213562373095
 10
517.0
 20
1044.2
 10
517.0
 20
1051.0
  0
TEXT
  5
E4
330
17
100
AcDbEntity
  8
ENGRAVE-LABEL
100
AcDbText
 10
471.61328125
 20
965.47265625
 30
0.0
 40
18.0
  1
13 BACK-RIB-F
 50
30.0
 72
1
 11
471.61328125
 21
965.47265625
 31
0.0
100
AcDbText
 73
2
  0
LWPOLYLINE
  5
E5
330
17
100
AcDbEntity
  8
CUT
100
AcDbPolyline
 90
17
 70
1
 10
661.0
 20
863.0
 10
765.8
 20
863.0
 42
-2.414213562373095
 10
769.0
 20
859.8
 10
769.0
 20
845.0
 10
809.0
 20
845.0
 10
809.0
 20
859.8
 42
-2.414213562373095
 10
812.2
 20
863.0
 10
831.0
 20
863.0
 10
831.0
 20
993.0
 10
824.2
 20
993.0
 42
-2.414213562373095
 10
821.0
 20
996.2
 10
821.0
 20
1093.0
 10
791.0
 20
1123.0
 10
671.0
 20
1123.0
 10
671.0
 20
996.2
 42
-2.414213562373095
 10
667.8
 20
993.0
 10
661.0
 20
993.0
  0
TEXT
  5
E6
330
17
100
AcDbEntity
  8
ENGRAVE-LABEL
100
AcDbText
 10
745.47265625
 20
947.61328125
 30
0.0
 40
14.0
  1
14 BACK-RIB-G 1/2
 50
45.0
 72
1
 11
745.47265625
 21
947.61328125
 31
0.0
100
AcDbText
 73
2
  0
LWPOLYLINE
  5
E7
330
17
100
AcDbEntity
  8
CUT
100
AcDbPolyline
 90
17
 70
1
 10
1641.0
 20
17.0
 10
1641.0
 20
121.8
 42
-2.414213562373095
 10
1644.2
 20
125.0
 10
1659.0
 20
125.0
 10
1659.0
 20
165.0
 10
1644.2
 20
165.0
 42
-2.414213562373095
 10
1641.0
 20
168.2
 10
1641.0
 20
187.0
 10
1511.0
 20
187.0
 10
1511.0
 20
180.2
 42
-2.414213562373095
 10
1507.8
 20
177.0
 10
1411.0
 20
177.00000000000003
 10
1381.0
 20
147.00000000000003
 10
1381.0
 20
27.000000000000014
 10
1507.8
 20
27.000000000000007
 42
-2.414213562373095
 10
1511.0
 20
23.800000000000008
 10
1511.0
 20
17.000000000000007
  0
TEXT
  5
E8
330
17
100
AcDbEntity
  8
ENGRAVE-LABEL
100
AcDbText
 10
1556.38671875
 20
102.52734375
 30
0.0
 40
14.0
  1
14 BACK-RIB-G 2/2
 50
30.0
 72
1
 11
1556.38671875
 21
102.52734375
 31
0.0
100
AcDbText
 73
2
  0
LWPOLYLINE
  5
E9
330
17
100
AcDbEntity
  8
CUT
100
AcDbPolyline
 90
17
 70
1
 10
1663.0
 20
351.0
 10
1663.0
 20
246.20000000000005
 42
-2.414213562373095
 10
1659.8
 20
243.00000000000003
 10
1645.0
 20
243.00000000000003
 10
1645.0
 20
203.00000000000003
 10
1659.8
 20
203.00000000000003
 42
-2.414213562373095
 10
1663.0
 20
199.80000000000004
 10
1663.0
 20
181.00000000000003
 10
1793.0
 20
181.0
 10
1793.0
 20
187.8
 42
-2.414213562373095
 10
1796.2
 20
191.0
 10
1893.0
 20
190.99999999999997
 10
1923.0
 20
220.99999999999997
 10
1923.0
 20
341.0
 10
1796.2
 20
341.0
 42
-2.414213562373095
 10
1793.0
 20
344.2
 10
1793.0
 20
351.0
  0
TEXT
  5
EA
330
17
100
AcDbEntity
  8
ENGRAVE-LABEL
100
AcDbText
 10
1747.61328125
 20
265.47265625
 30
0.0
 40
14.0
  1
15 BACK-RIB-H 1/2
 50
30.0
 72
1
 11
1747.61328125
 21
265.47265625
 31
0.0
100
AcDbText
 73
2
  0
LWPOLYLINE
  5
EB
330
17
100
AcDbEntity
  8
CUT
100
AcDbPolyline
 90
17
 70
1
 10
1937.0
 20
357.0
 10
1937.0
 20
461.8
 42
-2.414213562373095
 10
1940.2
 20
465.0
 10
1955.0
 20
465.0
 10
1955.0
 20
505.0
 10
1940.2
 20
505.0
 42
-2.414213562373095
 10
1937.0
 20
508.2
 10
1937.0
 20
527.0
 10
1807.0
 20
527.0
 10
1807.0
 20
520.2
 42
-2.414213562373095
 10
1803.8
 20
517.0
 10
1707.0
 20
517.0
 10
1677.0
 20
487.0
 10
1677.0
 20
367.0
 10
1803.8
 20
367.0
 42
-2.414213562373095
 10
1807.0
 20
363.8
 10
1807.0
 20
357.0
  0
TEXT
  5
EC
330
17
100
AcDbEntity
  8
ENGRAVE-LABEL
100
AcDbText
 10
1852.38671875
 20
442.52734375
 30
0.0
 40
14.0
  1
15 BACK-RIB-H 2/2
 50
30.0
 72
1
 11
1852.38671875
 21
442.52734375
 31
0.0
100
AcDbText
 73
2
  0
LWPOLYLINE
  5
ED
330
17
100
AcDbEntity
  8
CUT
100
AcDbPolyline
 90
17
 70
1
 10
1751.0
 20
1195.0
 10
1751.0
 20
1090.2
 42
-2.414213562373095
 10
1747.8
 20
1087.0
 10
1733.0
 20
1087.0
 10
1733.0
 20
1047.0
 10
1747.8
 20
1047.0
 42
-2.414213562373095
 10
1751.0
 20
1043.8
 10
1751.0
 20
1025.0
 10
1881.0
 20
1025.0
 10
1881.0
 20
1031.8
 42
-2.414213562373095
 10
1884.2
 20
1035.0
 10
1981.0
 20
1035.0
 10
2011.0
 20
1065.0
 10
2011.0
 20
1185.0
 10
1884.2
 20
1185.0
 42
-2.414213562373095
 10
1881.0
 20
1188.2
 10
1881.0
 20
1195.0
  0
TEXT
  5
EE
330
17
100
AcDbEntity
  8
ENGRAVE-LABEL
100
AcDbText
 10
1835.61328125
 20
1110.52734375
 30
0.0
 40
18.0
  1
16 BACK-RIB-I
 50
30.0
 72
1
 11
1835.61328125
 21
1110.52734375
 31
0.0
100
AcDbText
 73
2
  0
LWPOLYLINE
  5
EF
330
17
100
AcDbEntity
  8
CUT
100
AcDbPolyline
 90
17
 70
1
 10
1567.0
 20
1018.6396103067893
 10
1462.2
 20
1018.6396103067893
 42
-2.414213562373095
 10
1459.0
 20
1021.8396103067893
 10
1459.0
 20
1036.6396103067893
 10
1419.0
 20
1036.6396103067893
 10
1419.0
 20
1021.8396103067893
 42
-2.414213562373095
 10
1415.8
 20
1018.6396103067893
 10
1397.0
 20
1018.6396103067893
 10
1397.0
 20
888.6396103067893
 10
1403.8
 20
888.6396103067893
 42
-2.414213562373095
 10
1407.0
 20
885.4396103067893
 10
1407.0
 20
815.0
 10
1437.0
 20
785.0
 10
1557.0
 20
785.0
 10
1557.0
 20
885.4396103067893
 42
-2.414213562373095
 10
1560.2
 20
888.6396103067893
 10
1567.0
 20
888.6396103067893
  0
TEXT
  5
F0
330
17
100
AcDbEntity
  8
ENGRAVE-LABEL
100
AcDbText
 10
1482.4758586138803
 20
934.1368772335367
 30
0.0
 40
14.0
  1
10 BACK-RIB-C 1/2
 50
45.0
 72
1
 11
1482.4758586138803
 21
934.1368772335367
 31
0.0
100
AcDbText
 73
2
  0
LWPOLYLINE
  5
F1
330
17
100
AcDbEntity
  8
CUT
100
AcDbPolyline
 90
17
 70
1
 10
1787.0
 20
711.0
 10
1787.0
 20
606.2
 42
-2.414213562373095
 10
1783.8
 20
603.0
 10
1769.0
 20
603.0
 10
1769.0
 20
563.0
 10
1783.8
 20
563.0
 42
-2.414213562373095
 10
1787.0
 20
559.8000000000001
 10
1787.0
 20
541.0
 10
1917.0
 20
541.0
 10
1917.0
 20
547.8
 42
-2.414213562373095
 10
1920.2
 20
551.0
 10
1990.6396103067893
 20
551.0
 10
2020.6396103067893
 20
581.0
 10
2020.6396103067893
 20
701.0
 10
1920.2
 20
701.0
 42
-2.414213562373095
 10
1917.0
 20
704.2
 10
1917.0
 20
711.0
  0
TEXT
  5
F2
330
17
100
AcDbEntity
  8
ENGRAVE-LABEL
100
AcDbText
 10
1871.5027330732526
 20
626.4758586138804
 30
0.0
 40
14.0
  1
10 BACK-RIB-C 2/2
 50
30.0
 72
1
 11
1871.5027330732526
 21
626.4758586138804
 31
0.0
100
AcDbText
 73
2
  0
LWPOLYLINE
  5
F3
330
17
100
AcDbEntity
  8
CUT
100
AcDbPolyline
 90
43
 70
1
 10
375.0
 20
1194.999651480396
 10
375.0
 20
1190.1996514803961
 42
-2.414213562373095
 10
371.8
 20
1186.999651480396
 10
357.0
 20
1186.999651480396
 10
357.0
 20
1146.999651480396
 10
371.8
 20
1146.999651480396
 42
-2.414213562373095
 10
375.0
 20
1143.799651480396
 10
375.0
 20
1110.833911729939
 10
383.35714285714283
 20
1104.9043854176425
 10
391.7142857142857
 20
1099.38542084777
 10
400.07142857142856
 20
1094.2770180203213
 10
408.42857142857144
 20
1089.5791769352966
 10
416.7857142857143
 20
1085.2918975926955
 10
425.1428571428571
 20
1081.4151799925185
 10
433.5
 20
1077.9490241347653
 10
441.85714285714283
 20
1074.893430019436
 10
450.21428571428567
 20
1072.2483976465307
 10
458.57142857142856
 20
1070.0139270160491
 10
466.92857142857144
 20
1068.1900181279916
 10
475.2857142857143
 20
1066.776670982358
 10
483.6428571428571
 20
1065.773885579148
 10
492.0
 20
1065.1816619183621
 10
500.35714285714283
 20
1065.0
 10
508.71428571428567
 20
1065.2288998240617
 10
517.0714285714286
 20
1065.8683613905475
 10
525.4285714285713
 20
1066.9183846994572
 10
533.7857142857142
 20
1068.3789697507905
 10
542.1428571428571
 20
1070.250116544548
 10
550.5
 20
1072.5318250807293
 10
558.8571428571429
 20
1075.2240953593343
 10
567.2142857142857
 20
1078.3269273803635
 10
575.5714285714286
 20
1081.8403211438163
 10
583.9285714285713
 20
1085.764276649693
 10
592.2857142857142
 20
1090.0987938979938
 10
600.6428571428571
 20
1094.8438728887184
 10
609.0
 20
1099.999513621867
 10
609.0
 20
1143.799651480396
 42
-2.414213562373095
 10
612.2
 20
1146.999651480396
 10
627.0
 20
1146.999651480396
 10
627.0
 20
1186.999651480396
 10
612.2
 20
1186.999651480396
 42
-2.414213562373095
 10
609.0
 20
1190.199651480396
 10
609.0
 20
1194.999651480396
  0
TEXT
  5
F4
330
17
100
AcDbEntity
  8
ENGRAVE-LABEL
100
AcDbText
 10
492.0
 20
1130.0004210261154
 30
0.0
 40
18.0
  1
04 BODY-RIB-B 1/4
 72
1
 11
492.0
 21
1130.0004210261154
 31
0.0
100
AcDbText
 73
2
  0
LWPOLYLINE
  5
F5
330
17
100
AcDbEntity
  8
CUT
100
AcDbPolyline
 90
43
 70
1
 10
725.0
 20
409.0
 10
725.0
 20
413.8
 42
-2.414213562373095
 10
728.2
 20
417.0
 10
743.0
 20
417.0
 10
743.0
 20
457.0
 10
728.2
 20
457.0
 42
-2.414213562373095
 10
725.0
 20
460.2
 10
725.0
 20
493.16573975045696
 10
716.6428571428571
 20
499.0952660627535
 10
708.2857142857142
 20
504.61423063262606
 10
699.9285714285714
 20
509.72263346007475
 10
691.5714285714286
 20
514.4204745450995
 10
683.2142857142858
 20
518.7077538877006
 10
674.8571428571429
 20
522.5844714878775
 10
666.5
 20
526.0506273456307
 10
658.1428571428571
 20
529.10622146096
 10
649.7857142857143
 20
531.7512538338653
 10
641.4285714285714
 20
533.9857244643468
 10
633.0714285714286
 20
535.8096333524045
 10
624.7142857142858
 20
537.2229804980382
 10
616.3571428571429
 20
538.225765901248
 10
608.0
 20
538.817989562034
 10
599.6428571428571
 20
538.9996514803961
 10
591.2857142857142
 20
538.7707516563343
 10
582.9285714285714
 20
538.1312900898486
 10
574.5714285714286
 20
537.0812667809389
 10
566.2142857142858
 20
535.6206817296055
 10
557.8571428571429
 20
533.749534935848
 10
549.5
 20
531.4678263996668
 10
541.1428571428571
 20
528.7755561210616
 10
532.7857142857142
 20
525.6727241000326
 10
524.4285714285714
 20
522.1593303365797
 10
516.0714285714286
 20
518.2353748307029
 10
507.7142857142857
 20
513.9008575824022
 10
499.3571428571429
 20
509.1557785916776
 10
491.0
 20
504.0001378585291
 10
491.0
 20
460.20000000000005
 42
-2.414213562373095
 10
487.8
 20
457.0
 10
473.0
 20
457.0
 10
473.0
 20
417.0
 10
487.8
 20
417.0
 42
-2.414213562373095
 10
491.0
 20
413.8
 10
491.0
 20
409.0
  0
TEXT
  5
F6
330
17
100
AcDbEntity
  8
ENGRAVE-LABEL
100
AcDbText
 10
608.0
 20
473.9992304542809
 30
0.0
 40
18.0
  1
04 BODY-RIB-B 2/4
 72
1
 11
608.0
 21
473.9992304542809
 31
0.0
100
AcDbText
 73
2
  0
LWPOLYLINE
  5
F7
330
17
100
AcDbEntity
  8
CUT
100
AcDbPolyline
 90
43
 70
1
 10
1046.999651480396
 20
269.0
 10
1042.1996514803961
 20
269.0
 42
-2.414213562373095
 10
1038.999651480396
 20
272.2
 10
1038.999651480396
 20
287.0
 10
998.9996514803961
 20
287.0
 10
998.9996514803961
 20
272.20000000000005
 42
-2.414213562373095
 10
995.799651480396
 20
269.0
 10
962.8339117299391
 20
269.0
 10
956.9043854176425
 20
260.64285714285717
 10
951.38542084777
 20
252.2857142857143
 10
946.2770180203213
 20
243.92857142857144
 10
941.5791769352965
 20
235.57142857142858
 10
937.2918975926955
 20
227.21428571428572
 10
933.4151799925186
 20
218.8571428571429
 10
929.9490241347654
 20
210.5
 10
926.8934300194361
 20
202.14285714285717
 10
924.2483976465307
 20
193.7857142857143
 10
922.0139270160493
 20
185.42857142857144
 10
920.1900181279916
 20
177.07142857142858
 10
918.7766709823579
 20
168.71428571428572
 10
917.773885579148
 20
160.3571428571429
 10
917.1816619183621
 20
152.00000000000003
 10
917.0
 20
143.64285714285717
 10
917.2288998240617
 20
135.2857142857143
 10
917.8683613905475
 20
126.92857142857144
 10
918.9183846994572
 20
118.57142857142861
 10
920.3789697507906
 20
110.21428571428575
 10
922.2501165445481
 20
101.85714285714289
 10
924.5318250807293
 20
93.50000000000003
 10
927.2240953593343
 20
85.14285714285717
 10
930.3269273803635
 20
76.7857142857143
 10
933.8403211438164
 20
68.42857142857142
 10
937.7642766496931
 20
60.071428571428584
 10
942.0987938979938
 20
51.71428571428572
 10
946.8438728887185
 20
43.35714285714286
 10
951.999513621867
 20
35.0
 10
995.799651480396
 20
35.0
 42
-2.414213562373095
 10
998.9996514803961
 20
31.80000000000001
 10
998.9996514803961
 20
17.0
 10
1038.999651480396
 20
17.0
 10
1038.999651480396
 20
31.80000000000001
 42
-2.414213562373095
 10
1042.1996514803961
 20
35.0
 10
1046.999651480396
 20
35.0
  0
TEXT
  5
F8
330
17
100
AcDbEntity
  8
ENGRAVE-LABEL
100
AcDbText
 10
982.0004210261152
 20
152.0
 30
0.0
 40
18.0
  1
04 BODY-RIB-B 3/4
 50
90.0
 72
1
 11
982.0004210261152
 21
152.0
 31
0.0
100
AcDbText
 73
2
  0
LWPOLYLINE
  5
F9
330
17
100
AcDbEntity
  8
CUT
100
AcDbPolyline
 90
43
 70
1
 10
1909.0
 20
17.0
 10
1909.0
 20
21.8
 42
-2.414213562373095
 10
1912.2
 20
25.0
 10
1927.0
 20
25.0
 10
1927.0
 20
65.0
 10
1912.2
 20
65.0
 42
-2.414213562373095
 10
1909.0
 20
68.2
 10
1909.0
 20
101.16573975045696
 10
1900.642857142857
 20
107.09526606275352
 10
1892.2857142857142
 20
112.61423063262606
 10
1883.9285714285716
 20
117.72263346007475
 10
1875.5714285714287
 20
122.42047454509958
 10
1867.2142857142858
 20
126.70775388770056
 10
1858.857142857143
 20
130.58447148787752
 10
1850.5
 20
134.0506273456307
 10
1842.142857142857
 20
137.10622146096
 10
1833.7857142857142
 20
139.75125383386535
 10
1825.4285714285716
 20
141.98572446434684
 10
1817.0714285714287
 20
143.8096333524045
 10
1808.7142857142858
 20
145.22298049803817
 10
1800.357142857143
 20
146.22576590124805
 10
1792.0
 20
146.81798956203397
 10
1783.642857142857
 20
146.99965148039604
 10
1775.2857142857142
 20
146.77075165633426
 10
1766.9285714285713
 20
146.1312900898485
 10
1758.5714285714287
 20
145.0812667809389
 10
1750.2142857142858
 20
143.62068172960545
 10
1741.857142857143
 20
141.74953493584803
 10
1733.5
 20
139.46782639966676
 10
1725.142857142857
 20
136.77555612106164
 10
1716.7857142857142
 20
133.67272410003255
 10
1708.4285714285713
 20
130.15933033657967
 10
1700.0714285714287
 20
126.2353748307029
 10
1691.7142857142858
 20
121.9008575824022
 10
1683.357142857143
 20
117.15577859167759
 10
1675.0
 20
112.00013785852913
 10
1675.0
 20
68.20000000000002
 42
-2.414213562373095
 10
1671.8
 20
65.00000000000001
 10
1657.0
 20
65.00000000000001
 10
1657.0
 20
25.000000000000014
 10
1671.8
 20
25.000000000000014
 42
-2.414213562373095
 10
1675.0
 20
21.800000000000015
 10
1675.0
 20
17.000000000000014
  0
TEXT
  5
FA
330
17
100
AcDbEntity
  8
ENGRAVE-LABEL
100
AcDbText
 10
1792.0
 20
81.99923045428083
 30
0.0
 40
18.0
  1
04 BODY-RIB-B 4/4
 72
1
 11
1792.0
 21
81.99923045428083
 31
0.0
100
AcDbText
 73
2
  0
LWPOLYLINE
  5
FB
330
17
100
AcDbEntity
  8
CUT
100
AcDbPolyline
 90
43
 70
1
 10
1795.0
 20
998.1509569757328
 10
1795.0
 20
993.3509569757327
 42
-2.414213562373095
 10
1791.8
 20
990.1509569757328
 10
1777.0
 20
990.1509569757328
 10
1777.0
 20
950.1509569757328
 10
1791.8
 20
950.1509569757328
 42
-2.414213562373095
 10
1795.0
 20
946.9509569757328
 10
1795.0
 20
914.1855914805268
 10
1803.357142857143
 20
908.3399382620289
 10
1811.7142857142858
 20
902.8990393939782
 10
1820.0714285714284
 20
897.8628948763745
 10
1828.4285714285713
 20
893.2315047092178
 10
1836.7857142857142
 20
889.0048688925082
 10
1845.142857142857
 20
885.1829874262457
 10
1853.5
 20
881.7658603104302
 10
1861.857142857143
 20
878.7534875450617
 10
1870.2142857142858
 20
876.1458691301403
 10
1878.5714285714284
 20
873.9430050656661
 10
1886.9285714285713
 20
872.1448953516386
 10
1895.2857142857142
 20
870.7515399880584
 10
1903.642857142857
 20
869.7629389749252
 10
1912.0
 20
869.1790923122392
 10
1920.357142857143
 20
869.0
 10
1928.7142857142858
 20
869.2256620382079
 10
1937.0714285714284
 20
869.856078426863
 10
1945.4285714285713
 20
870.8912491659651
 10
1953.7857142857142
 20
872.3311742555143
 10
1962.142857142857
 20
874.1758536955103
 10
1970.5
 20
876.4252874859536
 10
1978.857142857143
 20
879.0794756268439
 10
1987.2142857142858
 20
882.1384181181812
 10
1995.5714285714284
 20
885.6021149599655
 10
2003.9285714285713
 20
889.470566152197
 10
2012.2857142857142
 20
893.7437716948755
 10
2020.642857142857
 20
898.421731588001
 10
2029.0
 20
903.5044458315737
 10
2029.0
 20
946.9509569757328
 42
-2.414213562373095
 10
2032.2
 20
950.1509569757327
 10
2047.0
 20
950.1509569757327
 10
2047.0
 20
990.1509569757327
 10
2032.2
 20
990.1509569757327
 42
-2.414213562373095
 10
2029.0
 20
993.3509569757327
 10
2029.0
 20
998.1509569757327
  0
TEXT
  5
FC
330
17
100
AcDbEntity
  8
ENGRAVE-LABEL
100
AcDbText
 10
1912.0
 20
933.5760570548091
 30
0.0
 40
18.0
  1
03 BODY-RIB-A 1/4
 72
1
 11
1912.0
 21
933.5760570548091
 31
0.0
100
AcDbText
 73
2
  0
LWPOLYLINE
  5
FD
330
17
100
AcDbEntity
  8
CUT
100
AcDbPolyline
 90
43
 70
1
 10
2045.0
 20
725.0
 10
2045.0
 20
729.8
 42
-2.414213562373095
 10
2048.2
 20
733.0
 10
2063.0
 20
733.0
 10
2063.0
 20
773.0
 10
2048.2
 20
773.0
 42
-2.414213562373095
 10
2045.0
 20
776.2
 10
2045.0
 20
808.965365495206
 10
2036.642857142857
 20
814.8110187137038
 10
2028.2857142857142
 20
820.2519175817546
 10
2019.9285714285716
 20
825.2880620993583
 10
2011.5714285714287
 20
829.919452266515
 10
2003.2142857142858
 20
834.1460880832246
 10
1994.857142857143
 20
837.9679695494871
 10
1986.5
 20
841.3850966653026
 10
1978.142857142857
 20
844.397469430671
 10
1969.7857142857142
 20
847.0050878455925
 10
1961.4285714285716
 20
849.2079519100668
 10
1953.0714285714287
 20
851.0060616240942
 10
1944.7142857142858
 20
852.3994169876744
 10
1936.357142857143
 20
853.3880180008075
 10
1928.0
 20
853.9718646634936
 10
1919.642857142857
 20
854.1509569757327
 10
1911.2857142857142
 20
853.9252949375248
 10
1902.9285714285713
 20
853.2948785488697
 10
1894.5714285714287
 20
852.2597078097677
 10
1886.2142857142858
 20
850.8197827202185
 10
1877.857142857143
 20
848.9751032802224
 10
1869.5
 20
846.7256694897792
 10
1861.142857142857
 20
844.0714813488889
 10
1852.7857142857142
 20
841.0125388575516
 10
1844.4285714285713
 20
837.5488420157671
 10
1836.0714285714287
 20
833.6803908235357
 10
1827.7142857142858
 20
829.4071852808572
 10
1819.357142857143
 20
824.7292253877317
 10
1811.0
 20
819.6465111441591
 10
1811.0
 20
776.2
 42
-2.414213562373095
 10
1807.8
 20
773.0
 10
1793.0
 20
773.0
 10
1793.0
 20
733.0
 10
1807.8
 20
733.0
 42
-2.414213562373095
 10
1811.0
 20
729.8000000000001
 10
1811.0
 20
725.0
  0
TEXT
  5
FE
330
17
100
AcDbEntity
  8
ENGRAVE-LABEL
100
AcDbText
 10
1928.0
 20
789.5748999209237
 30
0.0
 40
18.0
  1
03 BODY-RIB-A 2/4
 72
1
 11
1928.0
 21
789.5748999209237
 31
0.0
100
AcDbText
 73
2
  0
LWPOLYLINE
  5
FF
330
17
100
AcDbEntity
  8
CUT
100
AcDbPolyline
 90
43
 70
1
 10
1923.0
 20
170.15095697573278
 10
1923.0
 20
165.3509569757328
 42
-2.414213562373095
 10
1919.8
 20
162.15095697573278
 10
1905.0
 20
162.15095697573278
 10
1905.0
 20
122.15095697573278
 10
1919.8
 20
122.15095697573278
 42
-2.414213562373095
 10
1923.0
 20
118.95095697573278
 10
1923.0
 20
86.18559148052682
 10
1931.357142857143
 20
80.33993826202894
 10
1939.7142857142858
 20
74.8990393939782
 10
1948.0714285714284
 20
69.86289487637448
 10
1956.4285714285713
 20
65.23150470921782
 10
1964.7857142857142
 20
61.004868892508185
 10
1973.142857142857
 20
57.1829874262457
 10
1981.5
 20
53.7658603104302
 10
1989.857142857143
 20
50.75348754506173
 10
1998.2142857142858
 20
48.145869130140355
 10
2006.5714285714284
 20
45.943005065666014
 10
2014.9285714285713
 20
44.14489535163865
 10
2023.2857142857142
 20
42.751539988058425
 10
2031.642857142857
 20
41.76293897492519
 10
2040.0
 20
41.179092312239106
 10
2048.3571428571427
 20
41.0
 10
2056.714285714286
 20
41.225662038207986
 10
2065.0714285714284
 20
41.85607842686301
 10
2073.4285714285716
 20
42.891249165965064
 10
2081.785714285714
 20
44.33117425551421
 10
2090.142857142857
 20
46.1758536955104
 10
2098.5
 20
48.4252874859536
 10
2106.8571428571427
 20
51.07947562684386
 10
2115.214285714286
 20
54.13841811818121
 10
2123.5714285714284
 20
57.60211495996559
 10
2131.9285714285716
 20
61.47056615219701
 10
2140.285714285714
 20
65.74377169487552
 10
2148.642857142857
 20
70.42173158800101
 10
2157.0
 20
75.50444583157365
 10
2157.0
 20
118.95095697573274
 42
-2.414213562373095
 10
2160.2
 20
122.15095697573273
 10
2175.0
 20
122.15095697573273
 10
2175.0
 20
162.15095697573273
 10
2160.2
 20
162.15095697573275
 42
-2.414213562373095
 10
2157.0
 20
165.35095697573274
 10
2157.0
 20
170.15095697573273
  0
TEXT
  5
100
330
17
100
AcDbEntity
  8
ENGRAVE-LABEL
100
AcDbText
 10
2040.0
 20
105.57605705480901
 30
0.0
 40
18.0
  1
03 BODY-RIB-A 3/4
 72
1
 11
2040.0
 21
105.57605705480901
 31
0.0
100
AcDbText
 73
2
  0
LWPOLYLINE
  5
101
330
17
100
AcDbEntity
  8
CUT
100
AcDbPolyline
 90
43
 70
1
 10
2189.0
 20
185.0
 10
2189.0
 20
189.8
 42
-2.414213562373095
 10
2192.2
 20
193.0
 10
2207.0
 20
193.0
 10
2207.0
 20
233.0
 10
2192.2
 20
233.0
 42
-2.414213562373095
 10
2189.0
 20
236.2
 10
2189.0
 20
268.96536549520596
 10
2180.6428571428573
 20
274.81101871370385
 10
2172.285714285714
 20
280.2519175817546
 10
2163.9285714285716
 20
285.2880620993583
 10
2155.5714285714284
 20
289.91945226651495
 10
2147.214285714286
 20
294.1460880832246
 10
2138.8571428571427
 20
297.96796954948707
 10
2130.5
 20
301.38509666530257
 10
2122.1428571428573
 20
304.39746943067104
 10
2113.785714285714
 20
307.0050878455924
 10
2105.4285714285716
 20
309.20795191006675
 10
2097.0714285714284
 20
311.0060616240941
 10
2088.714285714286
 20
312.39941698767433
 10
2080.357142857143
 20
313.38801800080756
 10
2072.0
 20
313.97186466349365
 10
2063.6428571428573
 20
314.15095697573275
 10
2055.285714285714
 20
313.92529493752477
 10
2046.9285714285713
 20
313.29487854886975
 10
2038.5714285714287
 20
312.2597078097677
 10
2030.2142857142858
 20
310.81978272021854
 10
2021.857142857143
 20
308.97510328022236
 10
2013.5
 20
306.72566948977914
 10
2005.142857142857
 20
304.0714813488889
 10
1996.7857142857142
 20
301.01253885755153
 10
1988.4285714285713
 20
297.54884201576715
 10
1980.0714285714287
 20
293.68039082353573
 10
1971.7142857142858
 20
289.4071852808572
 10
1963.357142857143
 20
284.72922538773173
 10
1955.0
 20
279.6465111441591
 10
1955.0
 20
236.20000000000002
 42
-2.414213562373095
 10
1951.8
 20
233.0
 10
1937.0
 20
233.0
 10
1937.0
 20
193.0
 10
1951.8
 20
193.0
 42
-2.414213562373095
 10
1955.0
 20
189.8
 10
1955.0
 20
185.00000000000003
  0
TEXT
  5
102
330
17
100
AcDbEntity
  8
ENGRAVE-LABEL
100
AcDbText
 10
2072.0
 20
249.57489992092377
 30
0.0
 40
18.0
  1
03 BODY-RIB-A 4/4
 72
1
 11
2072.0
 21
249.57489992092377
 31
0.0
100
AcDbText
 73
2
  0
LWPOLYLINE
  5
103
330
17
100
AcDbEntity
  8
CUT
100
AcDbPolyline
 90
43
 70
1
 10
2205.0
 20
329.0
 10
2205.0
 20
333.8
 42
-2.414213562373095
 10
2208.2
 20
337.0
 10
2223.0
 20
337.0
 10
2223.0
 20
377.0
 10
2208.2
 20
377.0
 42
-2.414213562373095
 10
2205.0
 20
380.2
 10
2205.0
 20
412.8890308141728
 10
2196.6428571428573
 20
418.70273169500956
 10
2188.285714285714
 20
424.11389061248263
 10
2179.9285714285716
 20
429.12250756659216
 10
2171.5714285714284
 20
433.72858255733826
 10
2163.214285714286
 20
437.93211558472075
 10
2154.8571428571427
 20
441.7331066487397
 10
2146.5
 20
445.1315557493951
 10
2138.1428571428573
 20
448.127462886687
 10
2129.785714285714
 20
450.72082806061536
 10
2121.4285714285716
 20
452.9116512711802
 10
2113.0714285714284
 20
454.69993251838144
 10
2104.714285714286
 20
456.08567180221917
 10
2096.357142857143
 20
457.0688691226934
 10
2088.0
 20
457.64952447980403
 10
2079.6428571428573
 20
457.82763787355117
 10
2071.285714285714
 20
457.60320930393476
 10
2062.9285714285716
 20
456.9762387709548
 10
2054.5714285714284
 20
455.9467262746113
 10
2046.2142857142858
 20
454.5146718149043
 10
2037.857142857143
 20
452.6800753918337
 10
2029.5
 20
450.4429370053996
 10
2021.142857142857
 20
447.80325665560196
 10
2012.7857142857142
 20
444.7610343424408
 10
2004.4285714285713
 20
441.31627006591606
 10
1996.0714285714287
 20
437.46896382602785
 10
1987.7142857142858
 20
433.21911562277603
 10
1979.357142857143
 20
428.5667254561607
 10
1971.0
 20
423.5117933261818
 10
1971.0
 20
380.20000000000005
 42
-2.414213562373095
 10
1967.8
 20
377.0
 10
1953.0
 20
377.0
 10
1953.0
 20
337.0
 10
1967.8
 20
337.0
 42
-2.414213562373095
 10
1971.0
 20
333.8
 10
1971.0
 20
329.0
  0
TEXT
  5
104
330
17
100
AcDbEntity
  8
ENGRAVE-LABEL
100
AcDbText
 10
2088.0
 20
393.4132466764898
 30
0.0
 40
18.0
  1
05 BODY-RIB-C 1/4
 72
1
 11
2088.0
 21
393.4132466764898
 31
0.0
100
AcDbText
 73
2
  0
LWPOLYLINE
  5
105
330
17
100
AcDbEntity
  8
CUT
100
AcDbPolyline
 90
43
 70
1
 10
2261.0
 20
473.0
 10
2261.0
 20
477.8
 42
-2.414213562373095
 10
2264.2
 20
481.0
 10
2279.0
 20
481.0
 10
2279.0
 20
521.0
 10
2264.2
 20
521.0
 42
-2.414213562373095
 10
2261.0
 20
524.2
 10
2261.0
 20
556.8890308141729
 10
2252.6428571428573
 20
562.7027316950096
 10
2244.285714285714
 20
568.1138906124827
 10
2235.9285714285716
 20
573.1225075665922
 10
2227.5714285714284
 20
577.7285825573383
 10
2219.214285714286
 20
581.9321155847208
 10
2210.8571428571427
 20
585.7331066487397
 10
2202.5
 20
589.1315557493951
 10
2194.1428571428573
 20
592.127462886687
 10
2185.785714285714
 20
594.7208280606153
 10
2177.4285714285716
 20
596.9116512711802
 10
2169.0714285714284
 20
598.6999325183815
 10
2160.714285714286
 20
600.0856718022192
 10
2152.357142857143
 20
601.0688691226934
 10
2144.0
 20
601.6495244798041
 10
2135.6428571428573
 20
601.8276378735511
 10
2127.285714285714
 20
601.6032093039348
 10
2118.9285714285716
 20
600.9762387709549
 10
2110.5714285714284
 20
599.9467262746114
 10
2102.214285714286
 20
598.5146718149043
 10
2093.8571428571427
 20
596.6800753918337
 10
2085.5
 20
594.4429370053996
 10
2077.1428571428573
 20
591.803256655602
 10
2068.785714285714
 20
588.7610343424408
 10
2060.4285714285716
 20
585.3162700659161
 10
2052.0714285714284
 20
581.4689638260279
 10
2043.7142857142858
 20
577.219115622776
 10
2035.357142857143
 20
572.5667254561607
 10
2027.0
 20
567.5117933261819
 10
2027.0
 20
524.2
 42
-2.414213562373095
 10
2023.8
 20
521.0
 10
2009.0
 20
521.0
 10
2009.0
 20
481.0
 10
2023.8
 20
481.0
 42
-2.414213562373095
 10
2027.0
 20
477.8
 10
2027.0
 20
473.0
  0
TEXT
  5
106
330
17
100
AcDbEntity
  8
ENGRAVE-LABEL
100
AcDbText
 10
2144.0
 20
537.4132466764897
 30
0.0
 40
18.0
  1
05 BODY-RIB-C 2/4
 72
1
 11
2144.0
 21
537.4132466764897
 31
0.0
100
AcDbText
 73
2
  0
LWPOLYLINE
  5
107
330
17
100
AcDbEntity
  8
CUT
100
AcDbPolyline
 90
43
 70
1
 10
2277.0
 20
833.0
 10
2277.0
 20
837.8
 42
-2.414213562373095
 10
2280.2
 20
841.0
 10
2295.0
 20
841.0
 10
2295.0
 20
881.0
 10
2280.2
 20
881.0
 42
-2.414213562373095
 10
2277.0
 20
884.2
 10
2277.0
 20
916.8890308141729
 10
2268.6428571428573
 20
922.7027316950096
 10
2260.285714285714
 20
928.1138906124827
 10
2251.9285714285716
 20
933.1225075665922
 10
2243.5714285714284
 20
937.7285825573383
 10
2235.214285714286
 20
941.9321155847208
 10
2226.8571428571427
 20
945.7331066487397
 10
2218.5
 20
949.1315557493951
 10
2210.1428571428573
 20
952.127462886687
 10
2201.785714285714
 20
954.7208280606153
 10
2193.4285714285716
 20
956.9116512711802
 10
2185.0714285714284
 20
958.6999325183815
 10
2176.714285714286
 20
960.0856718022192
 10
2168.357142857143
 20
961.0688691226934
 10
2160.0
 20
961.6495244798041
 10
2151.6428571428573
 20
961.8276378735511
 10
2143.285714285714
 20
961.6032093039348
 10
2134.9285714285716
 20
960.9762387709549
 10
2126.5714285714284
 20
959.9467262746114
 10
2118.214285714286
 20
958.5146718149043
 10
2109.8571428571427
 20
956.6800753918337
 10
2101.5
 20
954.4429370053996
 10
2093.1428571428573
 20
951.803256655602
 10
2084.785714285714
 20
948.7610343424408
 10
2076.4285714285716
 20
945.3162700659161
 10
2068.0714285714284
 20
941.4689638260279
 10
2059.714285714286
 20
937.219115622776
 10
2051.3571428571427
 20
932.5667254561607
 10
2043.0
 20
927.5117933261819
 10
2043.0
 20
884.2
 42
-2.414213562373095
 10
2039.8
 20
881.0
 10
2025.0
 20
881.0
 10
2025.0
 20
841.0
 10
2039.8
 20
841.0
 42
-2.414213562373095
 10
2043.0
 20
837.8000000000001
 10
2043.0
 20
833.0
  0
TEXT
  5
108
330
17
100
AcDbEntity
  8
ENGRAVE-LABEL
100
AcDbText
 10
2160.0
 20
897.4132466764897
 30
0.0
 40
18.0
  1
05 BODY-RIB-C 3/4
 72
1
 11
2160.0
 21
897.4132466764897
 31
0.0
100
AcDbText
 73
2
  0
LWPOLYLINE
  5
109
330
17
100
AcDbEntity
  8
CUT
100
AcDbPolyline
 90
43
 70
1
 10
2043.0
 20
1105.827637873551
 10
2043.0
 20
1101.0276378735512
 42
-2.414213562373095
 10
2039.8
 20
1097.827637873551
 10
2025.0
 20
1097.827637873551
 10
2025.0
 20
1057.827637873551
 10
2039.8
 20
1057.827637873551
 42
-2.414213562373095
 10
2043.0
 20
1054.6276378735513
 10
2043.0
 20
1021.9386070593783
 10
2051.3571428571427
 20
1016.1249061785417
 10
2059.714285714286
 20
1010.7137472610685
 10
2068.0714285714284
 20
1005.7051303069591
 10
2076.4285714285716
 20
1001.0990553162129
 10
2084.785714285714
 20
996.8955222888304
 10
2093.1428571428573
 20
993.0945312248115
 10
2101.5
 20
989.6960821241561
 10
2109.8571428571427
 20
986.7001749868642
 10
2118.214285714286
 20
984.1068098129358
 10
2126.5714285714284
 20
981.915986602371
 10
2134.9285714285716
 20
980.1277053551697
 10
2143.285714285714
 20
978.741966071332
 10
2151.6428571428573
 20
977.7587687508578
 10
2160.0
 20
977.1781133937471
 10
2168.3571428571427
 20
977.0
 10
2176.714285714286
 20
977.2244285696164
 10
2185.0714285714284
 20
977.8513991025964
 10
2193.4285714285716
 20
978.8809115989399
 10
2201.785714285714
 20
980.3129660586469
 10
2210.142857142857
 20
982.1475624817174
 10
2218.5
 20
984.3847008681515
 10
2226.8571428571427
 20
987.0243812179492
 10
2235.214285714286
 20
990.0666035311103
 10
2243.5714285714284
 20
993.5113678076351
 10
2251.9285714285716
 20
997.3586740475233
 10
2260.285714285714
 20
1001.6085222507751
 10
2268.642857142857
 20
1006.2609124173904
 10
2277.0
 20
1011.3158445473694
 10
2277.0
 20
1054.627637873551
 42
-2.414213562373095
 10
2280.2
 20
1057.827637873551
 10
2295.0
 20
1057.827637873551
 10
2295.0
 20
1097.827637873551
 10
2280.2
 20
1097.827637873551
 42
-2.414213562373095
 10
2277.0
 20
1101.0276378735512
 10
2277.0
 20
1105.827637873551
  0
TEXT
  5
10A
330
17
100
AcDbEntity
  8
ENGRAVE-LABEL
100
AcDbText
 10
2160.0
 20
1041.4143911970614
 30
0.0
 40
18.0
  1
05 BODY-RIB-C 4/4
 72
1
 11
2160.0
 21
1041.4143911970614
 31
0.0
100
AcDbText
 73
2
  0
LWPOLYLINE
  5
10B
330
17
100
AcDbEntity
  8
CUT
100
AcDbPolyline
 90
17
 70
1
 10
2075.0
 20
787.0
 10
2075.0
 20
682.2
 42
-2.414213562373095
 10
2071.8
 20
679.0
 10
2057.0
 20
679.0
 10
2057.0
 20
639.0
 10
2071.8
 20
639.0
 42
-2.414213562373095
 10
2075.0
 20
635.8000000000001
 10
2075.0
 20
617.0
 10
2205.0
 20
617.0
 10
2205.0
 20
623.8
 42
-2.414213562373095
 10
2208.2
 20
627.0
 10
2215.0
 20
627.0
 10
2245.0
 20
657.0
 10
2245.0
 20
777.0
 10
2208.2
 20
777.0
 42
-2.414213562373095
 10
2205.0
 20
780.2
 10
2205.0
 20
787.0
  0
TEXT
  5
10C
330
17
100
AcDbEntity
  8
ENGRAVE-LABEL
100
AcDbText
 10
2158.734375
 20
702.703125
 30
0.0
 40
18.0
  1
08 BACK-RIB-A
 50
30.0
 72
1
 11
2158.734375
 21
702.703125
 31
0.0
100
AcDbText
 73
2
  0
LWPOLYLINE
  5
10D
330
17
100
AcDbEntity
  8
CUT
100
AcDbPolyline
 90
17
 70
1
 10
2359.0
 20
17.0
 10
2359.0
 20
121.8
 42
-2.414213562373095
 10
2362.2
 20
125.0
 10
2377.0
 20
125.0
 10
2377.0
 20
165.0
 10
2362.2
 20
165.0
 42
-2.414213562373095
 10
2359.0
 20
168.2
 10
2359.0
 20
187.0
 10
2229.0
 20
187.0
 10
2229.0
 20
180.2
 42
-2.414213562373095
 10
2225.8
 20
177.0
 10
2219.0
 20
177.0
 10
2189.0
 20
147.0
 10
2189.0
 20
27.000000000000007
 10
2225.8
 20
27.000000000000007
 42
-2.414213562373095
 10
2229.0
 20
23.800000000000008
 10
2229.0
 20
17.000000000000007
  0
TEXT
  5
10E
330
17
100
AcDbEntity
  8
ENGRAVE-LABEL
100
AcDbText
 10
2275.265625
 20
101.296875
 30
0.0
 40
18.0
  1
09 BACK-RIB-B
 50
30.0
 72
1
 11
2275.265625
 21
101.296875
 31
0.0
100
AcDbText
 73
2
  0
LWPOLYLINE
  5
10F
330
17
100
AcDbEntity
  8
CUT
100
AcDbPolyline
 90
43
 70
1
 10
2362.8429139002087
 20
453.0
 10
2358.042913900209
 20
453.0
 42
-2.414213562373095
 10
2354.8429139002087
 20
456.2
 10
2354.8429139002087
 20
471.0
 10
2314.8429139002087
 20
471.0
 10
2314.8429139002087
 20
456.20000000000005
 42
-2.414213562373095
 10
2311.642913900209
 20
453.0
 10
2279.6585675631973
 20
453.0
 10
2274.1398350513127
 20
444.64285714285717
 10
2269.0032208262387
 20
436.28571428571433
 10
2264.2487248879747
 20
427.92857142857144
 10
2259.876347236521
 20
419.57142857142856
 10
2255.886087871877
 20
411.2142857142857
 10
2252.2779467940436
 20
402.8571428571429
 10
2249.0519240030203
 20
394.5
 10
2246.208019498807
 20
386.14285714285717
 10
2243.746233281404
 20
377.78571428571433
 10
2241.666565350811
 20
369.42857142857144
 10
2239.9690157070286
 20
361.07142857142856
 10
2238.653584350056
 20
352.7142857142857
 10
2237.720271279894
 20
344.3571428571429
 10
2237.169076496542
 20
336.0
 10
2237.0
 20
327.64285714285717
 10
2237.213041790268
 20
319.28571428571433
 10
2237.8082018673467
 20
310.92857142857144
 10
2238.7854802312354
 20
302.5714285714286
 10
2240.144876881934
 20
294.2142857142858
 10
2241.8863918194434
 20
285.8571428571429
 10
2244.0100250437627
 20
277.5
 10
2246.515776554892
 20
269.14285714285717
 10
2249.4036463528314
 20
260.7857142857143
 10
2252.6736344375813
 20
252.42857142857142
 10
2256.3257408091413
 20
244.07142857142858
 10
2260.3599654675113
 20
235.71428571428572
 10
2264.7763084126914
 20
227.35714285714286
 10
2269.574769644682
 20
219.0
 10
2311.642913900209
 20
219.0
 42
-2.414213562373095
 10
2314.8429139002087
 20
215.8
 10
2314.8429139002087
 20
201.0
 10
2354.8429139002087
 20
201.0
 10
2354.8429139002087
 20
215.8
 42
-2.414213562373095
 10
2358.042913900209
 20
219.0
 10
2362.8429139002087
 20
219.0
  0
TEXT
  5
110
330
17
100
AcDbEntity
  8
ENGRAVE-LABEL
100
AcDbText
 10
2299.921972621929
 20
336.0
 30
0.0
 40
18.0
  1
06 BODY-RIB-D 1/4
 50
90.0
 72
1
 11
2299.921972621929
 21
336.0
 31
0.0
100
AcDbText
 73
2
  0
LWPOLYLINE
  5
111
330
17
100
AcDbEntity
  8
CUT
100
AcDbPolyline
 90
43
 70
1
 10
2386.8429139002087
 20
761.0
 10
2382.042913900209
 20
761.0
 42
-2.414213562373095
 10
2378.8429139002087
 20
764.2
 10
2378.8429139002087
 20
779.0
 10
2338.8429139002087
 20
779.0
 10
2338.8429139002087
 20
764.2
 42
-2.414213562373095
 10
2335.642913900209
 20
761.0
 10
2303.6585675631973
 20
761.0
 10
2298.1398350513127
 20
752.6428571428571
 10
2293.0032208262387
 20
744.2857142857143
 10
2288.2487248879747
 20
735.9285714285714
 10
2283.876347236521
 20
727.5714285714286
 10
2279.886087871877
 20
719.2142857142858
 10
2276.2779467940436
 20
710.8571428571429
 10
2273.0519240030203
 20
702.5
 10
2270.208019498807
 20
694.1428571428571
 10
2267.746233281404
 20
685.7857142857143
 10
2265.666565350811
 20
677.4285714285714
 10
2263.9690157070286
 20
669.0714285714286
 10
2262.653584350056
 20
660.7142857142858
 10
2261.720271279894
 20
652.3571428571429
 10
2261.169076496542
 20
644.0
 10
2261.0
 20
635.6428571428571
 10
2261.213041790268
 20
627.2857142857143
 10
2261.8082018673467
 20
618.9285714285714
 10
2262.7854802312354
 20
610.5714285714287
 10
2264.144876881934
 20
602.2142857142858
 10
2265.8863918194434
 20
593.8571428571429
 10
2268.0100250437627
 20
585.5
 10
2270.515776554892
 20
577.1428571428571
 10
2273.4036463528314
 20
568.7857142857142
 10
2276.6736344375813
 20
560.4285714285714
 10
2280.3257408091413
 20
552.0714285714286
 10
2284.3599654675113
 20
543.7142857142858
 10
2288.7763084126914
 20
535.3571428571429
 10
2293.574769644682
 20
527.0
 10
2335.642913900209
 20
527.0
 42
-2.414213562373095
 10
2338.8429139002087
 20
523.8
 10
2338.8429139002087
 20
509.0
 10
2378.8429139002087
 20
509.0
 10
2378.8429139002087
 20
523.8
 42
-2.414213562373095
 10
2382.042913900209
 20
527.0
 10
2386.8429139002087
 20
527.0
  0
TEXT
  5
112
330
17
100
AcDbEntity
  8
ENGRAVE-LABEL
100
AcDbText
 10
2323.921972621929
 20
644.0
 30
0.0
 40
18.0
  1
06 BODY-RIB-D 2/4
 50
90.0
 72
1
 11
2323.921972621929
 21
644.0
 31
0.0
100
AcDbText
 73
2
  0
LWPOLYLINE
  5
113
330
17
100
AcDbEntity
  8
CUT
100
AcDbPolyline
 90
43
 70
1
 10
2414.8429139002087
 20
1097.0
 10
2410.042913900209
 20
1097.0
 42
-2.414213562373095
 10
2406.8429139002087
 20
1100.2
 10
2406.8429139002087
 20
1115.0
 10
2366.8429139002087
 20
1115.0
 10
2366.8429139002087
 20
1100.2
 42
-2.414213562373095
 10
2363.642913900209
 20
1097.0
 10
2331.6585675631973
 20
1097.0
 10
2326.1398350513127
 20
1088.642857142857
 10
2321.0032208262387
 20
1080.2857142857142
 10
2316.2487248879747
 20
1071.9285714285716
 10
2311.876347236521
 20
1063.5714285714287
 10
2307.886087871877
 20
1055.2142857142858
 10
2304.2779467940436
 20
1046.857142857143
 10
2301.0519240030203
 20
1038.5
 10
2298.208019498807
 20
1030.142857142857
 10
2295.746233281404
 20
1021.7857142857143
 10
2293.666565350811
 20
1013.4285714285714
 10
2291.9690157070286
 20
1005.0714285714286
 10
2290.653584350056
 20
996.7142857142858
 10
2289.720271279894
 20
988.3571428571429
 10
2289.169076496542
 20
980.0
 10
2289.0
 20
971.6428571428571
 10
2289.213041790268
 20
963.2857142857143
 10
2289.8082018673467
 20
954.9285714285714
 10
2290.7854802312354
 20
946.5714285714287
 10
2292.144876881934
 20
938.2142857142858
 10
2293.8863918194434
 20
929.8571428571429
 10
2296.0100250437627
 20
921.5
 10
2298.515776554892
 20
913.1428571428571
 10
2301.4036463528314
 20
904.7857142857142
 10
2304.6736344375813
 20
896.4285714285714
 10
2308.3257408091413
 20
888.0714285714286
 10
2312.3599654675113
 20
879.7142857142858
 10
2316.7763084126914
 20
871.3571428571429
 10
2321.574769644682
 20
863.0
 10
2363.642913900209
 20
863.0
 42
-2.414213562373095
 10
2366.8429139002087
 20
859.8
 10
2366.8429139002087
 20
845.0
 10
2406.8429139002087
 20
845.0
 10
2406.8429139002087
 20
859.8
 42
-2.414213562373095
 10
2410.042913900209
 20
863.0
 10
2414.8429139002087
 20
863.0
  0
TEXT
  5
114
330
17
100
AcDbEntity
  8
ENGRAVE-LABEL
100
AcDbText
 10
2351.921972621929
 20
980.0
 30
0.0
 40
18.0
  1
06 BODY-RIB-D 3/4
 50
90.0
 72
1
 11
2351.921972621929
 21
980.0
 31
0.0
100
AcDbText
 73
2
  0
LWPOLYLINE
  5
115
330
17
100
AcDbEntity
  8
CUT
100
AcDbPolyline
 90
43
 70
1
 10
1026.469867145305
 20
490.8598442936159
 10
1023.3844866188095
 20
487.1828309666448
 42
-2.414213562373095
 10
1018.8762240498319
 20
486.78840909966095
 10
1007.538766291671
 20
496.30166572302176
 10
981.8272619042094
 20
465.65988799826266
 10
993.1647196623703
 20
456.14663137490186
 42
-2.414213562373095
 10
993.5591415293541
 20
451.6383688059242
 10
973.0
 20
427.13693802766363
 10
975.8545699662521
 20
417.5374757729227
 10
978.9547608327006
 20
408.2307331084069
 10
982.3005725993452
 20
399.2167100341162
 10
985.8920052661861
 20
390.4954065500506
 10
989.7290588332231
 20
382.06682265621
 10
993.8117333004565
 20
373.9309583525946
 10
998.1400286678861
 20
366.08781363920417
 10
1002.7139449355119
 20
358.53738851603885
 10
1007.5334821033339
 20
351.2796829830986
 10
1012.5986401713521
 20
344.3146970403835
 10
1017.9094191395666
 20
337.64243068789347
 10
1023.4658190079774
 20
331.26288392562844
 10
1029.2678397765842
 20
325.17605675358857
 10
1035.3154814453876
 20
319.3819491717738
 10
1041.608744014387
 20
313.88056118018403
 10
1048.1476274835825
 20
308.67189277881937
 10
1054.9321318529744
 20
303.7559439676798
 10
1061.9622571225625
 20
299.1327147467654
 10
1069.2380032923468
 20
294.8022051160759
 10
1076.7593703623274
 20
290.7644150756116
 10
1084.5263583325043
 20
287.0193446253724
 10
1092.5389672028773
 20
283.56699376535823
 10
1100.7971969734465
 20
280.40736249556915
 10
1109.301047644212
 20
277.5404508160052
 10
1118.0505192151736
 20
274.9662587266663
 10
1127.0456116863315
 20
272.6847862275524
 10
1136.2863250576859
 20
270.6960333186637
 10
1145.7726593292364
 20
269.0
 10
1172.813541219195
 20
301.22606813927393
 42
-2.414213562373095
 10
1177.3218037881725
 20
301.6204900062578
 10
1188.6592615463335
 20
292.107233382897
 10
1214.3707659337952
 20
322.7490111076561
 10
1203.0333081756341
 20
332.2622677310169
 42
-2.414213562373095
 10
1202.6388863086504
 20
336.77053029999456
 10
1205.7242668351457
 20
340.4475436269656
  0
TEXT
  5
116
330
17
100
AcDbEntity
  8
ENGRAVE-LABEL
100
AcDbText
 10
1083.1532960899444
 20
361.2259546123659
 30
0.0
 40
14.0
  1
06 BODY-RIB-D 4/4
 50
120.0
 72
1
 11
1083.1532960899444
 21
361.2259546123659
 31
0.0
100
AcDbText
 73
2
  0
LWPOLYLINE
  5
117
330
17
100
AcDbEntity
  8
REFERENCE-SHEET
100
AcDbPolyline
 90
4
 70
1
 10
0.0
 20
-1470.0
 10
2440.0
 20
-1470.0
 10
2440.0
 20
-250.0
 10
0.0
 20
-250.0
  0
TEXT
  5
118
330
17
100
AcDbEntity
  8
REFERENCE-SHEET
100
AcDbText
 10
0.0
 20
-195.0
 30
0.0
 40
40.0
  1
SHEET 2/2  -  2440 x 1220 x 18 mm MDF
 11
0.0
 21
-195.0
 31
0.0
100
AcDbText
  0
LWPOLYLINE
  5
119
330
17
100
AcDbEntity
  8
CUT
100
AcDbPolyline
 90
43
 70
1
 10
35.00000000000001
 20
-1065.7476023575468
 10
35.00000000000001
 20
-1070.5476023575468
 42
-2.414213562373095
 10
31.800000000000008
 20
-1073.7476023575468
 10
17.000000000000007
 20
-1073.7476023575468
 10
17.0
 20
-1113.7476023575468
 10
31.8
 20
-1113.7476023575468
 42
-2.414213562373095
 10
35.0
 20
-1116.9476023575469
 10
34.99999999999999
 20
-1148.3203354897937
 10
43.35714285714285
 20
-1153.5830576093877
 10
51.71428571428571
 20
-1158.4813876596127
 10
60.071428571428555
 20
-1163.0153256404694
 10
68.42857142857142
 20
-1167.1848715519575
 10
76.78571428571428
 20
-1170.990025394077
 10
85.14285714285714
 20
-1174.430787166828
 10
93.5
 20
-1177.5071568702103
 10
101.85714285714286
 20
-1180.219134504224
 10
110.2142857142857
 20
-1182.5667200688692
 10
118.57142857142856
 20
-1184.5499135641458
 10
126.92857142857142
 20
-1186.1687149900538
 10
135.28571428571428
 20
-1187.4231243465933
 10
143.6428571428571
 20
-1188.3131416337642
 10
151.99999999999997
 20
-1188.8387668515663
 10
160.35714285714283
 20
-1189.0
 10
168.7142857142857
 20
-1188.7968410790652
 10
177.07142857142856
 20
-1188.2292900887617
 10
185.4285714285714
 20
-1187.2973470290895
 10
193.78571428571425
 20
-1186.001011900049
 10
202.1428571428571
 20
-1184.3402847016396
 10
210.49999999999997
 20
-1182.3151654338617
 10
218.85714285714283
 20
-1179.9256540967153
 10
227.2142857142857
 20
-1177.1717506902005
 10
235.57142857142856
 20
-1174.0534552143167
 10
243.9285714285714
 20
-1170.5707676690647
 10
252.28571428571425
 20
-1166.723688054444
 10
260.6428571428571
 20
-1162.5122163704546
 10
269.0
 20
-1157.9363526170966
 10
269.0
 20
-1116.9476023575469
 42
-2.414213562373095
 10
272.2
 20
-1113.7476023575468
 10
287.0
 20
-1113.7476023575468
 10
287.0
 20
-1073.7476023575468
 10
272.2
 20
-1073.7476023575468
 42
-2.414213562373095
 10
269.0
 20
-1070.5476023575468
 10
269.0
 20
-1065.7476023575468
  0
TEXT
  5
11A
330
17
100
AcDbEntity
  8
ENGRAVE-LABEL
100
AcDbText
 10
152.0
 20
-1127.373332234824
 30
0.0
 40
18.0
  1
07 BODY-RIB-E 1/4
 72
1
 11
152.0
 21
-1127.373332234824
 31
0.0
100
AcDbText
 73
2
  0
LWPOLYLINE
  5
11B
330
17
100
AcDbEntity
  8
CUT
100
AcDbPolyline
 90
43
 70
1
 10
17.0
 20
-1031.0
 10
21.8
 20
-1031.0
 42
-2.414213562373095
 10
25.0
 20
-1034.2
 10
25.0
 20
-1049.0
 10
65.0
 20
-1049.0
 10
65.0
 20
-1034.2
 42
-2.414213562373095
 10
68.2
 20
-1031.0
 10
99.57273313224687
 20
-1031.0
 10
104.8354552518407
 20
-1022.6428571428571
 10
109.73378530206594
 20
-1014.2857142857142
 10
114.26772328292259
 20
-1005.9285714285714
 10
118.4372691944107
 20
-997.5714285714286
 10
122.24242303653023
 20
-989.2142857142858
 10
125.6831848092811
 20
-980.8571428571429
 10
128.75955451266344
 20
-972.5
 10
131.4715321466772
 20
-964.1428571428571
 10
133.81911771132235
 20
-955.7857142857143
 10
135.80231120659897
 20
-947.4285714285714
 10
137.421112632507
 20
-939.0714285714286
 10
138.6755219890464
 20
-930.7142857142857
 10
139.56553927621724
 20
-922.3571428571429
 10
140.0911644940195
 20
-914.0
 10
140.25239764245316
 20
-905.6428571428571
 10
140.0492387215183
 20
-897.2857142857142
 10
139.48168773121478
 20
-888.9285714285714
 10
138.54974467154273
 20
-880.5714285714286
 10
137.25340954250203
 20
-872.2142857142858
 10
135.5926823440928
 20
-863.8571428571429
 10
133.56756307631497
 20
-855.5
 10
131.17805173916855
 20
-847.1428571428571
 10
128.42414833265354
 20
-838.7857142857142
 10
125.30585285677
 20
-830.4285714285714
 10
121.82316531151781
 20
-822.0714285714286
 10
117.97608569689709
 20
-813.7142857142858
 10
113.76461401290777
 20
-805.3571428571429
 10
109.18875025954986
 20
-797.0
 10
68.2
 20
-797.0
 42
-2.414213562373095
 10
65.0
 20
-793.8
 10
65.0
 20
-779.0
 10
25.0
 20
-779.0
 10
25.0
 20
-793.8
 42
-2.414213562373095
 10
21.8
 20
-797.0
 10
17.0
 20
-797.0
  0
TEXT
  5
11C
330
17
100
AcDbEntity
  8
ENGRAVE-LABEL
100
AcDbText
 10
78.62572987727717
 20
-914.0
 30
0.0
 40
18.0
  1
07 BODY-RIB-E 2/4
 50
90.0
 72
1
 11
78.62572987727717
 21
-914.0
 31
0.0
100
AcDbText
 73
2
  0
LWPOLYLINE
  5
11D
330
17
100
AcDbEntity
  8
CUT
100
AcDbPolyline
 90
43
 70
1
 10
35.00000000000001
 20
-661.7476023575468
 10
35.00000000000001
 20
-666.5476023575468
 42
-2.414213562373095
 10
31.800000000000008
 20
-669.7476023575468
 10
17.000000000000007
 20
-669.7476023575468
 10
17.0
 20
-709.7476023575468
 10
31.8
 20
-709.7476023575468
 42
-2.414213562373095
 10
35.0
 20
-712.9476023575468
 10
34.99999999999999
 20
-744.3203354897937
 10
43.35714285714285
 20
-749.5830576093875
 10
51.71428571428571
 20
-754.4813876596128
 10
60.071428571428555
 20
-759.0153256404694
 10
68.42857142857142
 20
-763.1848715519575
 10
76.78571428571428
 20
-766.9900253940771
 10
85.14285714285714
 20
-770.4307871668279
 10
93.5
 20
-773.5071568702102
 10
101.85714285714286
 20
-776.219134504224
 10
110.2142857142857
 20
-778.5667200688691
 10
118.57142857142856
 20
-780.5499135641458
 10
126.92857142857142
 20
-782.1687149900538
 10
135.28571428571428
 20
-783.4231243465932
 10
143.6428571428571
 20
-784.3131416337641
 10
151.99999999999997
 20
-784.8387668515663
 10
160.35714285714283
 20
-785.0
 10
168.7142857142857
 20
-784.7968410790652
 10
177.07142857142856
 20
-784.2292900887617
 10
185.4285714285714
 20
-783.2973470290896
 10
193.78571428571425
 20
-782.0010119000489
 10
202.1428571428571
 20
-780.3402847016396
 10
210.49999999999997
 20
-778.3151654338618
 10
218.85714285714283
 20
-775.9256540967154
 10
227.2142857142857
 20
-773.1717506902004
 10
235.57142857142856
 20
-770.0534552143168
 10
243.9285714285714
 20
-766.5707676690647
 10
252.28571428571425
 20
-762.723688054444
 10
260.6428571428571
 20
-758.5122163704547
 10
269.0
 20
-753.9363526170968
 10
269.0
 20
-712.9476023575469
 42
-2.414213562373095
 10
272.2
 20
-709.7476023575468
 10
287.0
 20
-709.7476023575468
 10
287.0
 20
-669.7476023575468
 10
272.2
 20
-669.7476023575468
 42
-2.414213562373095
 10
269.0
 20
-666.5476023575468
 10
269.0
 20
-661.7476023575468
  0
TEXT
  5
11E
330
17
100
AcDbEntity
  8
ENGRAVE-LABEL
100
AcDbText
 10
152.0
 20
-723.373332234824
 30
0.0
 40
18.0
  1
07 BODY-RIB-E 3/4
 72
1
 11
152.0
 21
-723.373332234824
 31
0.0
100
AcDbText
 73
2
  0
LWPOLYLINE
  5
11F
330
17
100
AcDbEntity
  8
CUT
100
AcDbPolyline
 90
43
 70
1
 10
17.0
 20
-627.0
 10
21.8
 20
-627.0
 42
-2.414213562373095
 10
25.0
 20
-630.2
 10
25.0
 20
-645.0
 10
65.0
 20
-645.0
 10
65.0
 20
-630.2
 42
-2.414213562373095
 10
68.2
 20
-627.0
 10
99.57273313224687
 20
-627.0
 10
104.8354552518407
 20
-618.6428571428571
 10
109.73378530206594
 20
-610.2857142857143
 10
114.26772328292259
 20
-601.9285714285714
 10
118.4372691944107
 20
-593.5714285714286
 10
122.24242303653023
 20
-585.2142857142857
 10
125.6831848092811
 20
-576.8571428571429
 10
128.75955451266344
 20
-568.5
 10
131.4715321466772
 20
-560.1428571428571
 10
133.81911771132235
 20
-551.7857142857143
 10
135.80231120659897
 20
-543.4285714285714
 10
137.421112632507
 20
-535.0714285714286
 10
138.6755219890464
 20
-526.7142857142857
 10
139.56553927621724
 20
-518.3571428571429
 10
140.0911644940195
 20
-510.0
 10
140.25239764245316
 20
-501.6428571428571
 10
140.0492387215183
 20
-493.2857142857142
 10
139.48168773121478
 20
-484.92857142857144
 10
138.54974467154273
 20
-476.57142857142856
 10
137.25340954250203
 20
-468.2142857142858
 10
135.5926823440928
 20
-459.8571428571429
 10
133.56756307631497
 20
-451.5
 10
131.17805173916855
 20
-443.1428571428571
 10
128.42414833265354
 20
-434.7857142857142
 10
125.30585285677
 20
-426.42857142857133
 10
121.82316531151781
 20
-418.07142857142867
 10
117.97608569689709
 20
-409.7142857142858
 10
113.76461401290777
 20
-401.3571428571429
 10
109.18875025954986
 20
-393.0
 10
68.2
 20
-393.0
 42
-2.414213562373095
 10
65.0
 20
-389.79999999999995
 10
65.0
 20
-375.0
 10
25.0
 20
-375.0
 10
25.0
 20
-389.79999999999995
 42
-2.414213562373095
 10
21.8
 20
-393.0
 10
17.0
 20
-393.0
  0
TEXT
  5
120
330
17
100
AcDbEntity
  8
ENGRAVE-LABEL
100
AcDbText
 10
78.62572987727717
 20
-510.0
 30
0.0
 40
18.0
  1
07 BODY-RIB-E 4/4
 50
90.0
 72
1
 11
78.62572987727717
 21
-510.0
 31
0.0
100
AcDbText
 73
2
  0
ENDSEC
  0
SECTION
  2
OBJECTS
  0
DICTIONARY
  5
A
330
0
100
AcDbDictionary
281
1
  3
ACAD_COLOR
350
B
  3
ACAD_GROUP
350
C
  3
ACAD_LAYOUT
350
D
  3
ACAD_MATERIAL
350
E
  3
ACAD_MLEADERSTYLE
350
F
  3
ACAD_MLINESTYLE
350
10
  3
ACAD_PLOTSETTINGS
350
11
  3
ACAD_PLOTSTYLENAME
350
12
  3
ACAD_SCALELIST
350
14
  3
ACAD_TABLESTYLE
350
15
  3
ACAD_VISUALSTYLE
350
16
  3
EZDXF_META
350
2D
  0
DICTIONARY
  5
B
330
A
100
AcDbDictionary
281
1
  0
DICTIONARY
  5
C
330
A
100
AcDbDictionary
281
1
  0
DICTIONARY
  5
D
330
A
100
AcDbDictionary
281
1
  3
Model
350
1A
  3
Layout1
350
1E
  0
DICTIONARY
  5
E
330
A
100
AcDbDictionary
281
1
  3
ByBlock
350
1F
  3
ByLayer
350
20
  3
Global
350
21
  0
DICTIONARY
  5
F
330
A
100
AcDbDictionary
281
1
  3
Standard
350
2C
  0
DICTIONARY
  5
10
330
A
100
AcDbDictionary
281
1
  3
Standard
350
22
  0
DICTIONARY
  5
11
330
A
100
AcDbDictionary
281
1
  0
ACDBDICTIONARYWDFLT
  5
12
330
A
100
AcDbDictionary
281
1
  3
Normal
350
13
100
AcDbDictionaryWithDefault
340
13
  0
ACDBPLACEHOLDER
  5
13
330
12
  0
DICTIONARY
  5
14
330
A
100
AcDbDictionary
281
1
  0
DICTIONARY
  5
15
330
A
100
AcDbDictionary
281
1
  0
DICTIONARY
  5
16
330
A
100
AcDbDictionary
281
1
  3
2dWireframe
350
5A
  3
Basic
350
5B
  3
Brighten
350
5C
  3
ColorChange
350
5D
  3
Conceptual
350
5E
  3
Dim
350
5F
  3
EdgeColorOff
350
60
  3
Facepattern
350
61
  3
Flat
350
62
  3
FlatWithEdges
350
63
  3
Gouraud
350
64
  3
GouraudWithEdges
350
65
  3
Hidden
350
66
  3
JitterOff
350
67
  3
Linepattern
350
68
  3
Modeling
350
69
  3
OverhangOff
350
6A
  3
Realistic
350
6B
  3
Shaded
350
6C
  3
Shaded with edges
350
6D
  3
Shades of Gray
350
6E
  3
Sketchy
350
6F
  3
Thicken
350
70
  3
Wireframe
350
71
  3
X-Ray
350
72
  0
LAYOUT
  5
1A
330
D
100
AcDbPlotSettings
  1

  4
A3
  6

 40
7.5
 41
20.0
 42
7.5
 43
20.0
 44
420.0
 45
297.0
 46
0.0
 47
0.0
 48
0.0
 49
0.0
140
0.0
141
0.0
142
1.0
143
1.0
 70
1024
 72
1
 73
0
 74
5
  7

 75
16
 76
0
 77
2
 78
300
147
1.0
148
0.0
149
0.0
100
AcDbLayout
  1
Model
 70
1
 71
0
 10
0.0
 20
0.0
 11
420.0
 21
297.0
 12
0.0
 22
0.0
 32
0.0
 14
1e+20
 24
1e+20
 34
1e+20
 15
-1e+20
 25
-1e+20
 35
-1e+20
146
0.0
 13
0.0
 23
0.0
 33
0.0
 16
1.0
 26
0.0
 36
0.0
 17
0.0
 27
1.0
 37
0.0
 76
1
330
17
  0
LAYOUT
  5
1E
330
D
100
AcDbPlotSettings
  1

  4
A3
  6

 40
7.5
 41
20.0
 42
7.5
 43
20.0
 44
420.0
 45
297.0
 46
0.0
 47
0.0
 48
0.0
 49
0.0
140
0.0
141
0.0
142
1.0
143
1.0
 70
0
 72
1
 73
0
 74
5
  7

 75
16
 76
0
 77
2
 78
300
147
1.0
148
0.0
149
0.0
100
AcDbLayout
  1
Layout1
 70
1
 71
1
 10
0.0
 20
0.0
 11
420.0
 21
297.0
 12
0.0
 22
0.0
 32
0.0
 14
1e+20
 24
1e+20
 34
1e+20
 15
-1e+20
 25
-1e+20
 35
-1e+20
146
0.0
 13
0.0
 23
0.0
 33
0.0
 16
1.0
 26
0.0
 36
0.0
 17
0.0
 27
1.0
 37
0.0
 76
1
330
1B
  0
MATERIAL
  5
1F
102
{ACAD_REACTORS
330
E
102
}
330
E
100
AcDbMaterial
  1
ByBlock
  2

 70
0
 40
1.0
 71
1
 41
1.0
 91
-1023410177
 42
1.0
 72
1
  3

 73
1
 74
1
 75
1
 44
0.5
 73
0
 45
1.0
 46
1.0
 77
1
  4

 78
1
 79
1
170
1
 48
1.0
171
1
  6

172
1
173
1
174
1
140
1.0
141
1.0
175
1
  7

176
1
177
1
178
1
143
1.0
179
1
  8

270
1
271
1
272
1
145
1.0
146
1.0
273
1
  9

274
1
275
1
276
1
 42
1.0
 72
1
  3

 73
1
 74
1
 75
1
 94
63
  0
MATERIAL
  5
20
102
{ACAD_REACTORS
330
E
102
}
330
E
100
AcDbMaterial
  1
ByLayer
  2

 70
0
 40
1.0
 71
1
 41
1.0
 91
-1023410177
 42
1.0
 72
1
  3

 73
1
 74
1
 75
1
 44
0.5
 73
0
 45
1.0
 46
1.0
 77
1
  4

 78
1
 79
1
170
1
 48
1.0
171
1
  6

172
1
173
1
174
1
140
1.0
141
1.0
175
1
  7

176
1
177
1
178
1
143
1.0
179
1
  8

270
1
271
1
272
1
145
1.0
146
1.0
273
1
  9

274
1
275
1
276
1
 42
1.0
 72
1
  3

 73
1
 74
1
 75
1
 94
63
  0
MATERIAL
  5
21
102
{ACAD_REACTORS
330
E
102
}
330
E
100
AcDbMaterial
  1
Global
  2

 70
0
 40
1.0
 71
1
 41
1.0
 91
-1023410177
 42
1.0
 72
1
  3

 73
1
 74
1
 75
1
 44
0.5
 73
0
 45
1.0
 46
1.0
 77
1
  4

 78
1
 79
1
170
1
 48
1.0
171
1
  6

172
1
173
1
174
1
140
1.0
141
1.0
175
1
  7

176
1
177
1
178
1
143
1.0
179
1
  8

270
1
271
1
272
1
145
1.0
146
1.0
273
1
  9

274
1
275
1
276
1
 42
1.0
 72
1
  3

 73
1
 74
1
 75
1
 94
63
  0
MLINESTYLE
  5
22
102
{ACAD_REACTORS
330
10
102
}
330
10
100
AcDbMlineStyle
  2
Standard
 70
0
  3

 62
256
 51
90.0
 52
90.0
 71
2
 49
0.5
 62
256
  6
BYLAYER
 49
-0.5
 62
256
  6
BYLAYER
  0
MLEADERSTYLE
  5
2C
102
{ACAD_REACTORS
330
F
102
}
330
F
100
AcDbMLeaderStyle
179
2
170
2
171
1
172
0
 90
2
 40
0.0
 41
0.0
173
1
 91
-1056964608
 92
-2
290
1
 42
2.0
291
1
 43
8.0
  3
Standard
 44
4.0
300

342
29
174
1
175
1
176
0
178
1
 93
-1056964608
 45
4.0
292
0
297
0
 46
4.0
 94
-1056964608
 47
1.0
 49
1.0
140
1.0
294
1
141
0.0
177
0
142
1.0
295
0
296
0
143
3.75
271
0
272
9
273
9
  0
DICTIONARY
  5
2D
330
A
100
AcDbDictionary
280
1
281
1
  3
CREATED_BY_EZDXF
350
2E
  3
WRITTEN_BY_EZDXF
350
123
  0
DICTIONARYVAR
  5
2E
330
2D
100
DictionaryVariables
280
0
  1
1.4.4 @ 2026-09-29T04:58:31.047627+00:00
  0
VISUALSTYLE
  5
5A
102
{ACAD_REACTORS
330
16
102
}
330
16
100
AcDbVisualStyle
  2
2dWireframe
 70
4
 90
0
 40
0.6
 62
7
290
0
291
0
  0
VISUALSTYLE
  5
5B
102
{ACAD_REACTORS
330
16
102
}
330
16
100
AcDbVisualStyle
  2
Basic
 70
7
 90
1
 40
0.6
 62
7
290
0
291
1
  0
VISUALSTYLE
  5
5C
102
{ACAD_REACTORS
330
16
102
}
330
16
100
AcDbVisualStyle
  2
Brighten
 70
12
 90
2
 40
0.6
 62
7
290
0
291
1
  0
VISUALSTYLE
  5
5D
102
{ACAD_REACTORS
330
16
102
}
330
16
100
AcDbVisualStyle
  2
ColorChange
 70
16
 90
2
 40
0.6
 62
8
290
0
291
1
  0
VISUALSTYLE
  5
5E
102
{ACAD_REACTORS
330
16
102
}
330
16
100
AcDbVisualStyle
  2
Conceptual
 70
9
 90
3
 40
0.6
 62
7
290
0
291
0
  0
VISUALSTYLE
  5
5F
102
{ACAD_REACTORS
330
16
102
}
330
16
100
AcDbVisualStyle
  2
Dim
 70
11
 90
2
 40
0.6
 62
7
290
0
291
1
  0
VISUALSTYLE
  5
60
102
{ACAD_REACTORS
330
16
102
}
330
16
100
AcDbVisualStyle
  2
EdgeColorOff
 70
22
 90
2
 40
0.6
 62
7
290
0
291
1
  0
VISUALSTYLE
  5
61
102
{ACAD_REACTORS
330
16
102
}
330
16
100
AcDbVisualStyle
  2
Facepattern
 70
15
 90
2
 40
0.6
 62
7
290
0
291
1
  0
VISUALSTYLE
  5
62
102
{ACAD_REACTORS
330
16
102
}
330
16
100
AcDbVisualStyle
  2
Flat
 70
0
 90
2
 40
0.6
 62
7
290
0
291
1
  0
VISUALSTYLE
  5
63
102
{ACAD_REACTORS
330
16
102
}
330
16
100
AcDbVisualStyle
  2
FlatWithEdges
 70
1
 90
2
 40
0.6
 62
7
290
0
291
1
  0
VISUALSTYLE
  5
64
102
{ACAD_REACTORS
330
16
102
}
330
16
100
AcDbVisualStyle
  2
Gouraud
 70
2
 90
2
 40
0.6
 62
7
290
0
291
1
  0
VISUALSTYLE
  5
65
102
{ACAD_REACTORS
330
16
102
}
330
16
100
AcDbVisualStyle
  2
GouraudWithEdges
 70
3
 90
2
 40
0.6
 62
7
290
0
291
1
  0
VISUALSTYLE
  5
66
102
{ACAD_REACTORS
330
16
102
}
330
16
100
AcDbVisualStyle
  2
Hidden
 70
6
 90
1
 40
0.6
 62
7
290
0
291
0
  0
VISUALSTYLE
  5
67
102
{ACAD_REACTORS
330
16
102
}
330
16
100
AcDbVisualStyle
  2
JitterOff
 70
20
 90
2
 40
0.6
 62
7
290
0
291
1
  0
VISUALSTYLE
  5
68
102
{ACAD_REACTORS
330
16
102
}
330
16
100
AcDbVisualStyle
  2
Linepattern
 70
14
 90
2
 40
0.6
 62
7
290
0
291
1
  0
VISUALSTYLE
  5
69
102
{ACAD_REACTORS
330
16
102
}
330
16
100
AcDbVisualStyle
  2
Modeling
 70
10
 90
2
 40
0.6
 62
7
290
0
291
0
  0
VISUALSTYLE
  5
6A
102
{ACAD_REACTORS
330
16
102
}
330
16
100
AcDbVisualStyle
  2
OverhangOff
 70
21
 90
2
 40
0.6
 62
7
290
0
291
1
  0
VISUALSTYLE
  5
6B
102
{ACAD_REACTORS
330
16
102
}
330
16
100
AcDbVisualStyle
  2
Realistic
 70
8
 90
2
 40
0.6
 62
7
290
0
291
0
  0
VISUALSTYLE
  5
6C
102
{ACAD_REACTORS
330
16
102
}
330
16
100
AcDbVisualStyle
  2
Shaded
 70
27
 90
2
 40
0.6
 62
7
290
0
291
0
  0
VISUALSTYLE
  5
6D
102
{ACAD_REACTORS
330
16
102
}
330
16
100
AcDbVisualStyle
  2
Shaded with edges
 70
26
 90
2
 40
0.6
 62
7
290
0
291
0
  0
VISUALSTYLE
  5
6E
102
{ACAD_REACTORS
330
16
102
}
330
16
100
AcDbVisualStyle
  2
Shades of Gray
 70
23
 90
2
 40
0.6
 62
7
290
0
291
0
  0
VISUALSTYLE
  5
6F
102
{ACAD_REACTORS
330
16
102
}
330
16
100
AcDbVisualStyle
  2
Sketchy
 70
24
 90
1
 40
0.6
 62
7
290
0
291
0
  0
VISUALSTYLE
  5
70
102
{ACAD_REACTORS
330
16
102
}
330
16
100
AcDbVisualStyle
  2
Thicken
 70
13
 90
2
 40
0.6
 62
7
290
0
291
1
  0
VISUALSTYLE
  5
71
102
{ACAD_REACTORS
330
16
102
}
330
16
100
AcDbVisualStyle
  2
Wireframe
 70
5
 90
0
 40
0.6
 62
7
290
0
291
0
  0
VISUALSTYLE
  5
72
102
{ACAD_REACTORS
330
16
102
}
330
16
100
AcDbVisualStyle
  2
X-Ray
 70
25
 90
2
 40
0.5
 62
7
290
0
291
0
  0
DICTIONARYVAR
  5
123
330
2D
100
DictionaryVariables
280
0
  1
1.4.4 @ 2026-09-29T04:58:31.266105+00:00
  0
ENDSEC
  0
EOF
